<?xml version="1.0" encoding="UTF-8"?>
<!DOCTYPE svg PUBLIC "-//W3C//DTD SVG 1.0//EN" "http://www.w3.org/TR/2001/REC-SVG-20010904/DTD/svg10.dtd">
<svg xmlns="http://www.w3.org/2000/svg" width="109" height="109" viewBox="0 0 109 109">
	<g id="HelperGrid" style="opacity:0.75;">
		<rect x="0.5" y="0.5" style="fill:none;stroke:#404040;" width="108" height="108"/> 
		<line style="fill:none;stroke:#404040;" x1="0.5" y1="72.51" x2="108.5" y2="72.51"/>
		<line style="fill:none;stroke:#404040;" x1="0.5" y1="36.49" x2="108.5" y2="36.49"/>
		<line style="fill:none;stroke:#404040;" x1="72.5" y1="0.5" x2="72.5" y2="108.5"/>
		<line style="fill:none;stroke:#404040;" x1="36.5" y1="0.5" x2="36.5" y2="108.5"/>
	</g>
	<g id="Kanji">
		<text transform="matrix(1 0 0 1 0.5 93.3799)" style="font-size:108;">を</text>
	</g>
	<g id="StrokeNumbers" style="font-size:8;fill:#808080">
		<text transform="matrix(1 0 0 1 1.125 25.875)">1</text>
		<text transform="matrix(1 0 0 1 18.875 12.75)">2</text>
		<text transform="matrix(1 0 0 1 55.875 37.375)">3</text>
	</g>
	<g id="StrokePaths" style="fill:none;stroke:#404040;stroke-width:3;stroke-linecap:round;stroke-linejoin:round;">
		<path d="M7.75,27.87c1.62,1.13,3.17,1.64,6.01,1.12C24.62,27,30.5,25.62,38.47,24.27c3.64-0.62,5.65-0.93,8.4-0.75"/>
		<path d="M29.12,14.38c0.75,1,1.48,3.22,0.38,5.62c-4.62,10.12-10,20.75-17.12,30.25c-9.25,12.33-9.25,11.19,2.12,2.5c9-6.88,23.75-12.12,22.88,19.88"/>
		<path d="M62.25,39.88c0.62,1.75,0,4-3,5.75S9.63,69.79,14.5,83.88c3.28,9.48,17.93,9.12,29.98,7.75c4.48-0.51,9.15-1.12,12.4-1.75"/>
	</g>
</svg>
