<?xml version="1.0" encoding="UTF-8"?>
<!DOCTYPE svg PUBLIC "-//W3C//DTD SVG 1.0//EN" "http://www.w3.org/TR/2001/REC-SVG-20010904/DTD/svg10.dtd">
<svg xmlns="http://www.w3.org/2000/svg" width="109" height="109" viewBox="0 0 109 109">
	<g id="HelperGrid" style="opacity:0.75;">
		<rect x="0.5" y="0.5" style="fill:none;stroke:#404040;" width="108" height="108"/> 
		<line style="fill:none;stroke:#404040;" x1="0.5" y1="72.51" x2="108.5" y2="72.51"/>
		<line style="fill:none;stroke:#404040;" x1="0.5" y1="36.49" x2="108.5" y2="36.49"/>
		<line style="fill:none;stroke:#404040;" x1="72.5" y1="0.5" x2="72.5" y2="108.5"/>
		<line style="fill:none;stroke:#404040;" x1="36.5" y1="0.5" x2="36.5" y2="108.5"/>
	</g>
	<g id="Kanji">
		<text transform="matrix(1 0 0 1 0.5 93.3799)" style="font-size:108;">グ</text>
	</g>
	<g id="StrokeNumbers" style="font-size:8;fill:#808080">
		<text transform="matrix(1 0 0 1 20.75 17.125)">1</text>
		<text transform="matrix(1 0 0 1 33.5 24.625)">2</text>
		<text transform="matrix(1 0 0 1 54.875 12.5)">3</text>
		<text transform="matrix(1 0 0 1 61 7.375)">4</text>
	</g>
	<g id="StrokePaths" style="fill:none;stroke:#404040;stroke-width:3;stroke-linecap:round;stroke-linejoin:round;">
		<path d="M28.75,19.62c0.38,1.5,0.34,3.48-0.5,5.12c-4.12,8.12-7.88,15.5-16.12,24.12"/>
		<path d="M30,28.62c2.62,0.25,5.67-0.39,7.62-0.88c6-1.5,9.75-2.38,15.12-3.88c5.79-1.62,7.53-0.42,5.12,4.88C47.5,51.62,31.62,72.88,9.25,89.25"/>
		<path d="M62.5,13.5c2.75,1.75,6,5.38,7.75,8.5"/>
		<path d="M68.88,8.62c3.06,1.57,6.68,4.82,8.62,7.62"/>
	</g>
</svg>
