<?xml version="1.0" encoding="UTF-8"?>
<!DOCTYPE svg PUBLIC "-//W3C//DTD SVG 1.0//EN" "http://www.w3.org/TR/2001/REC-SVG-20010904/DTD/svg10.dtd">
<svg xmlns="http://www.w3.org/2000/svg" width="109" height="109" viewBox="0 0 109 109">
	<g id="HelperGrid" style="opacity:0.75;">
		<rect x="0.5" y="0.5" style="fill:none;stroke:#404040;" width="108" height="108"/> 
		<line style="fill:none;stroke:#404040;" x1="0.5" y1="72.51" x2="108.5" y2="72.51"/>
		<line style="fill:none;stroke:#404040;" x1="0.5" y1="36.49" x2="108.5" y2="36.49"/>
		<line style="fill:none;stroke:#404040;" x1="72.5" y1="0.5" x2="72.5" y2="108.5"/>
		<line style="fill:none;stroke:#404040;" x1="36.5" y1="0.5" x2="36.5" y2="108.5"/>
	</g>
	<g id="Kanji">
		<text transform="matrix(1 0 0 1 0.5 93.3799)" style="font-size:108;">ヸ</text>
	</g>
	<g id="StrokeNumbers" style="font-size:8;fill:#808080">
		<text transform="matrix(1 0 0 1 8.25 32.125)">1</text>
		<text transform="matrix(1 0 0 1 20.25 45.5)">2</text>
		<text transform="matrix(1 0 0 1 3.875 60.5)">3</text>
		<text transform="matrix(1 0 0 1 41 13.375)">4</text>
		<text transform="matrix(1 0 0 1 65 12.25)">5</text>
		<text transform="matrix(1 0 0 1 71.125 7.125)">6</text>
	</g>
	<g id="StrokePaths" style="fill:none;stroke:#404040;stroke-width:3;stroke-linecap:round;stroke-linejoin:round;">
		<path d="M16.5,35c3,1.25,5.87,1.17,8.75,0.88c14.88-1.5,25.25-2.5,40.25-4c3.73-0.37,6.88,0,8.88,0.38"/>
		<path d="M27,38.88c1,1.38,1.22,2.75,1.12,4.38c-0.5,8.25-1.12,15.12-1.5,20"/>
		<path d="M6.38,65.25c2.5,0.88,5.25,1.03,8.62,0.5c23-3.62,38.88-5.12,57.25-5.5c4.76-0.1,8.75,0.5,12,1.62"/>
		<path d="M48.5,14.38c2,1.62,2.75,3.5,2.75,6.12s0,56,0,59.38s0,10.62,0,13.88"/>
		<path d="M72.62,13.25c2.75,1.75,6,5.38,7.75,8.5"/>
		<path d="M79,8.38c3.06,1.57,6.68,4.82,8.62,7.62"/>
	</g>
</svg>
