<?xml version="1.0" encoding="UTF-8"?>
<!DOCTYPE svg PUBLIC "-//W3C//DTD SVG 1.0//EN" "http://www.w3.org/TR/2001/REC-SVG-20010904/DTD/svg10.dtd">
<svg xmlns="http://www.w3.org/2000/svg" width="109" height="109" viewBox="0 0 109 109">
	<g id="HelperGrid" style="opacity:0.75;">
		<rect x="0.5" y="0.5" style="fill:none;stroke:#404040;" width="108" height="108"/> 
		<line style="fill:none;stroke:#404040;" x1="0.5" y1="72.51" x2="108.5" y2="72.51"/>
		<line style="fill:none;stroke:#404040;" x1="0.5" y1="36.49" x2="108.5" y2="36.49"/>
		<line style="fill:none;stroke:#404040;" x1="72.5" y1="0.5" x2="72.5" y2="108.5"/>
		<line style="fill:none;stroke:#404040;" x1="36.5" y1="0.5" x2="36.5" y2="108.5"/>
	</g>
	<g id="Kanji">
		<text transform="matrix(1 0 0 1 0.5 93.3799)" style="font-size:108;">丘</text>
	</g>
	<g id="StrokeNumbers" style="font-size:8;fill:#808080">
		<text transform="matrix(1 0 0 1 49.5 15.1299)">1</text>
		<text transform="matrix(1 0 0 1 23.5 53.5)">2</text>
		<text transform="matrix(1 0 0 1 37.5 46.5)">3</text>
		<text transform="matrix(1 0 0 1 61.5 57.5)">4</text>
		<text transform="matrix(1 0 0 1 14.5 85.5)">5</text>
	</g>
	<g id="StrokePaths" style="fill:none;stroke:#404040;stroke-width:3;stroke-linecap:round;stroke-linejoin:round;">
		<path d="M58.26,15.25c0.09,0.68-0.11,1.74-0.68,2.47C50.38,27,41.88,33.62,24.75,42.75"/>
		<path d="M29.18,44.13c1.1,1.1,1.87,2.64,2.02,4.65c0.55,7.47,2.9,31.48,3.55,38.72"/>
		<path d="M32.28,50.31c9-1.21,30.48-3.41,42.97-5.08c2.85-0.38,6-0.61,8.75-0.38"/>
		<path d="M69.37,49.8c0.75,1.33,0.95,2.93,0.82,4.26c-1.07,11.06-1.7,16.69-3.2,31.19"/>
		<path d="M14.75,88.2c3.2,1.14,7.18,0.86,10.5,0.52c13.5-1.35,42.88-3.22,59.63-3.64c3.62-0.09,7.31-0.05,10.88,0.71"/>
	</g>
</svg>
