<?xml version="1.0" encoding="UTF-8"?>
<!DOCTYPE svg PUBLIC "-//W3C//DTD SVG 1.0//EN" "http://www.w3.org/TR/2001/REC-SVG-20010904/DTD/svg10.dtd">
<svg xmlns="http://www.w3.org/2000/svg" width="109" height="109" viewBox="0 0 109 109">
	<g id="HelperGrid" style="opacity:0.75;">
		<rect x="0.5" y="0.5" style="fill:none;stroke:#404040;" width="108" height="108"/> 
		<line style="fill:none;stroke:#404040;" x1="0.5" y1="72.51" x2="108.5" y2="72.51"/>
		<line style="fill:none;stroke:#404040;" x1="0.5" y1="36.49" x2="108.5" y2="36.49"/>
		<line style="fill:none;stroke:#404040;" x1="72.5" y1="0.5" x2="72.5" y2="108.5"/>
		<line style="fill:none;stroke:#404040;" x1="36.5" y1="0.5" x2="36.5" y2="108.5"/>
	</g>
	<g id="Kanji">
		<text transform="matrix(1 0 0 1 0.5 93.3799)" style="font-size:108;">亙</text>
	</g>
	<g id="StrokeNumbers" style="font-size:8;fill:#808080">
		<text transform="matrix(1 0 0 1 15.5 18.5)">1</text>
		<text transform="matrix(1 0 0 1 37.5 29.5)">2</text>
		<text transform="matrix(1 0 0 1 49.5 34.5)">3</text>
		<text transform="matrix(1 0 0 1 47.5 48.5)">4</text>
		<text transform="matrix(1 0 0 1 41.5 65.5)">5</text>
		<text transform="matrix(1 0 0 1 12.5 88.5)">6</text>
	</g>
	<g id="StrokePaths" style="fill:none;stroke:#404040;stroke-width:3;stroke-linecap:round;stroke-linejoin:round;">
		<path d="M21.5,19.66c1.35,0.29,3.81,0.35,5.15,0.29c12.98-0.54,48.11-3.37,60.89-3.37c2.24,0,3.59,0.14,4.71,0.29"/>
		<path d="M44.5,22.25c1,1.5,1.02,4.39,0.5,6.75c-2.5,11.25-12.75,39.5-15.88,48.1"/>
		<path d="M42.75,39.08c8.42-1.26,26.53-2.8,29.44-3.07c3.51-0.32,4.09,1.93,3.29,4.17c-2.97,8.3-5.67,22.4-11.61,51.32"/>
		<path d="M47.5,50.5c4.24,1.76,10.94,7.25,12,10"/>
		<path d="M42.5,68.5c4.41,1.76,11.39,7.25,12.5,10"/>
		<path d="M13.75,93.25c1.57,0.56,4.44,0.61,6.01,0.56c16.59-0.52,53.82-3.05,70.26-2.27c2.61,0.12,4.18,0.27,5.48,0.55"/>
	</g>
</svg>
