<?xml version="1.0" encoding="UTF-8"?>
<!DOCTYPE svg PUBLIC "-//W3C//DTD SVG 1.0//EN" "http://www.w3.org/TR/2001/REC-SVG-20010904/DTD/svg10.dtd">
<svg xmlns="http://www.w3.org/2000/svg" width="109" height="109" viewBox="0 0 109 109">
	<g id="HelperGrid" style="opacity:0.75;">
		<rect x="0.5" y="0.5" style="fill:none;stroke:#404040;" width="108" height="108"/> 
		<line style="fill:none;stroke:#404040;" x1="0.5" y1="72.51" x2="108.5" y2="72.51"/>
		<line style="fill:none;stroke:#404040;" x1="0.5" y1="36.49" x2="108.5" y2="36.49"/>
		<line style="fill:none;stroke:#404040;" x1="72.5" y1="0.5" x2="72.5" y2="108.5"/>
		<line style="fill:none;stroke:#404040;" x1="36.5" y1="0.5" x2="36.5" y2="108.5"/>
	</g>
	<g id="Kanji">
		<text transform="matrix(1 0 0 1 0.5 93.3799)" style="font-size:108;">伊</text>
	</g>
	<g id="StrokeNumbers" style="font-size:8;fill:#808080">
		<text transform="matrix(1 0 0 1 24.25 16.25)">1</text>
		<text transform="matrix(1 0 0 1 19.25 59.3047)">2</text>
		<text transform="matrix(1 0 0 1 42.25 18.25)">3</text>
		<text transform="matrix(1 0 0 1 35.25 40.25)">4</text>
		<text transform="matrix(1 0 0 1 41.25 59.25)">5</text>
		<text transform="matrix(1 0 0 1 52.25 33.25)">6</text>
	</g>
	<g id="StrokePaths" style="fill:none;stroke:#404040;stroke-width:3;stroke-linecap:round;stroke-linejoin:round;">
		<path d="M32.75,15.64c0.13,1.23-0.03,2.53-0.36,4.04C30.25,29.25,21.25,47,11.31,59.97"/>
		<path d="M25.53,41.5c0.98,0.98,1.01,2,1.01,3.73c0,10.59-0.03,29.34-0.04,41.52c0,2.8,0,5.23,0,7.12"/>
		<path d="M44.21,21.32c2.46,1.04,5.71,1.07,8.3,0.64c9.06-1.52,20.88-3.54,28.36-4.46c2.43-0.3,4.14,1.28,3.77,3.84c-0.99,6.7-2.63,23.06-3.95,34.59"/>
		<path d="M36.9,42.6c2.91,1.07,6.25,0.8,9.23,0.29c14.3-2.47,30.47-4.95,42.75-5.9c3.43-0.26,5.95-0.1,9.23,0.74"/>
		<path d="M42.9,62.05c2.86,0.73,4.95,0.64,7.86,0.02c9.24-1.95,18.12-3.14,26.25-4c2.7-0.28,5.54-0.67,8.23-0.1"/>
		<path d="M60.66,27.6c0.59,1.03,0.91,2.38,0.94,3.47c0.9,37.43-3.85,51.18-13.68,62.43"/>
	</g>
</svg>
