<?xml version="1.0" encoding="UTF-8"?>
<!-- Copyright (C) 2009 Ulrich Apel.
This work is distributed under the conditions of the Creative Commons
Attribution-Share Alike 3.0 Licence. This means you are free:
* to Share - to copy, distribute and transmit the work
* to Remix - to adapt the work

Under the following conditions:
* Attribution. You must attribute the work by stating your use of KanjiVG in
  your own copyright header and linking to KanjiVG's website
  (http://kanjivg.tagaini.net)
* Share Alike. If you alter, transform, or build upon this work, you may
  distribute the resulting work only under the same or similar license to this
  one.

See http://creativecommons.org/licenses/by-sa/3.0/ for more details. -->
<!DOCTYPE svg PUBLIC "-//W3C//DTD SVG 1.0//EN" "http://www.w3.org/TR/2001/REC-SVG-20010904/DTD/svg10.dtd">
<svg xmlns="http://www.w3.org/2000/svg" width="109" height="109" viewBox="0 0 109 109">
	<g id="HelperGrid" style="opacity:0.75;">
		<rect x="0.5" y="0.5" style="fill:none;stroke:#404040;" width="108" height="108"/> 
		<line style="fill:none;stroke:#404040;" x1="0.5" y1="72.51" x2="108.5" y2="72.51"/>
		<line style="fill:none;stroke:#404040;" x1="0.5" y1="36.49" x2="108.5" y2="36.49"/>
		<line style="fill:none;stroke:#404040;" x1="72.5" y1="0.5" x2="72.5" y2="108.5"/>
		<line style="fill:none;stroke:#404040;" x1="36.5" y1="0.5" x2="36.5" y2="108.5"/>
	</g>
	<g id="Kanji">
		<text transform="matrix(1 0 0 1 0.5 93.3799)" style="font-size:108;">似</text>
	</g>
	<g id="StrokeNumbers" style="font-size:8;fill:#808080">
		<text transform="matrix(1 0 0 1 23.25 18.1299)">1</text>
		<text transform="matrix(1 0 0 1 20.25 58.5)">2</text>
		<text transform="matrix(1 0 0 1 38.25 44.979)">3</text>
		<text transform="matrix(1 0 0 1 34.5 71.8535)">4</text>
		<text transform="matrix(1 0 0 1 53.25 38.5)">5</text>
		<text transform="matrix(1 0 0 1 75.75 25.5)">6</text>
		<text transform="matrix(1 0 0 1 83.5 62.5)">7</text>
	</g>
	<g id="StrokePaths" style="fill:none;stroke:#404040;stroke-width:3;stroke-linecap:round;stroke-linejoin:round;">
		<path d="M31.26,18.75c0.21,2-0.06,4.37-0.75,6.08c-4.39,10.92-9.95,21.42-20.01,34.71"/>
		<path d="M24.78,41.25c1.23,1.23,1.85,2.96,1.85,5c0,12.25-0.03,30-0.03,42.25c0,2.64-0.1,4.88-0.1,6.5"/>
		<path d="M43.78,35.34c0.88,0.88,1.5,2.41,1.5,3.93c0,7.24,0.08,21.86,0.08,34.6"/>
		<path d="M37.65,75.83c1.73,0.8,4.14,0.48,5.58-0.48c5.03-3.35,11.25-7.28,16.53-10.97"/>
		<path d="M56.48,40.84c3.45,2.04,8.92,8.37,9.78,11.54"/>
		<path d="M85.42,24.68c0.7,1.07,0.86,3.28,0.33,5.31C80.5,50.25,73.5,74,53.34,86.65"/>
		<path d="M79.68,62.66c6.45,4.96,15.7,16.34,17.99,23.58"/>
	</g>
</svg>
