<?xml version="1.0" encoding="UTF-8"?>
<!-- Copyright (C) 2009 Ulrich Apel.
This work is distributed under the conditions of the Creative Commons
Attribution-Share Alike 3.0 Licence. This means you are free:
* to Share - to copy, distribute and transmit the work
* to Remix - to adapt the work

Under the following conditions:
* Attribution. You must attribute the work by stating your use of KanjiVG in
  your own copyright header and linking to KanjiVG's website
  (http://kanjivg.tagaini.net)
* Share Alike. If you alter, transform, or build upon this work, you may
  distribute the resulting work only under the same or similar license to this
  one.

See http://creativecommons.org/licenses/by-sa/3.0/ for more details. -->
<!DOCTYPE svg PUBLIC "-//W3C//DTD SVG 1.0//EN" "http://www.w3.org/TR/2001/REC-SVG-20010904/DTD/svg10.dtd">
<svg xmlns="http://www.w3.org/2000/svg" width="109" height="109" viewBox="0 0 109 109">
	<g id="HelperGrid" style="opacity:0.75;">
		<rect x="0.5" y="0.5" style="fill:none;stroke:#404040;" width="108" height="108"/> 
		<line style="fill:none;stroke:#404040;" x1="0.5" y1="72.51" x2="108.5" y2="72.51"/>
		<line style="fill:none;stroke:#404040;" x1="0.5" y1="36.49" x2="108.5" y2="36.49"/>
		<line style="fill:none;stroke:#404040;" x1="72.5" y1="0.5" x2="72.5" y2="108.5"/>
		<line style="fill:none;stroke:#404040;" x1="36.5" y1="0.5" x2="36.5" y2="108.5"/>
	</g>
	<g id="Kanji">
		<text transform="matrix(1 0 0 1 0.5 93.3799)" style="font-size:108;">佐</text>
	</g>
	<g id="StrokeNumbers" style="font-size:8;fill:#808080">
		<text transform="matrix(1 0 0 1 24.75 15.1299)">1</text>
		<text transform="matrix(1 0 0 1 18.75 61.6299)">2</text>
		<text transform="matrix(1 0 0 1 37.5 35.5)">3</text>
		<text transform="matrix(1 0 0 1 53.5 13.5)">4</text>
		<text transform="matrix(1 0 0 1 59.5 57.1299)">5</text>
		<text transform="matrix(1 0 0 1 62.5 70.5)">6</text>
		<text transform="matrix(1 0 0 1 44.5 88.4785)">7</text>
	</g>
	<g id="StrokePaths" style="fill:none;stroke:#404040;stroke-width:3;stroke-linecap:round;stroke-linejoin:round;">
		<path d="M34,15.25c0.23,2.17-0.31,4.01-1.07,5.87C28.12,32.98,21.38,46.25,10.5,59.29"/>
		<path d="M24.78,43c0.98,0.98,1.26,2.25,1.26,3.98C26.04,57,26.01,77.13,26,89.5c0,3.08,0,5.6,0,7.25"/>
		<path d="M40.69,39.29c2.94,0.49,5.5,0.22,8.44-0.23c10.87-1.68,20.55-3.45,32.62-4.79c2.58-0.29,5.04-0.61,7.57,0.14"/>
		<path d="M64.16,14c0.71,1.5,0.58,3.08,0.33,4.62C60.25,44.75,52,68,34.77,81.84"/>
		<path d="M54.88,61.03c2.25,0.47,4.28,0.31,5.89,0.11c4.93-0.61,14.03-1.94,20.36-2.54c1.69-0.16,3.82-0.46,5.46,0.19"/>
		<path d="M69.2,63.15c1.16,1.04,1.32,2.1,1.32,3.56c0,5.82,0.04,15.66,0.04,22"/>
		<path d="M44.75,91.73c2.41,0.83,5.67,0.58,8.12,0.23c11.26-1.58,23.88-2.96,33.88-3.5c2.87-0.16,5.72-0.17,8.46,0.93"/>
	</g>
</svg>
