<?xml version="1.0" encoding="UTF-8"?>
<!-- Copyright (C) 2009 Ulrich Apel.
This work is distributed under the conditions of the Creative Commons
Attribution-Share Alike 3.0 Licence. This means you are free:
* to Share - to copy, distribute and transmit the work
* to Remix - to adapt the work

Under the following conditions:
* Attribution. You must attribute the work by stating your use of KanjiVG in
  your own copyright header and linking to KanjiVG's website
  (http://kanjivg.tagaini.net)
* Share Alike. If you alter, transform, or build upon this work, you may
  distribute the resulting work only under the same or similar license to this
  one.

See http://creativecommons.org/licenses/by-sa/3.0/ for more details. -->
<!DOCTYPE svg PUBLIC "-//W3C//DTD SVG 1.0//EN" "http://www.w3.org/TR/2001/REC-SVG-20010904/DTD/svg10.dtd">
<svg xmlns="http://www.w3.org/2000/svg" width="109" height="109" viewBox="0 0 109 109">
	<g id="HelperGrid" style="opacity:0.75;">
		<rect x="0.5" y="0.5" style="fill:none;stroke:#404040;" width="108" height="108"/> 
		<line style="fill:none;stroke:#404040;" x1="0.5" y1="72.51" x2="108.5" y2="72.51"/>
		<line style="fill:none;stroke:#404040;" x1="0.5" y1="36.49" x2="108.5" y2="36.49"/>
		<line style="fill:none;stroke:#404040;" x1="72.5" y1="0.5" x2="72.5" y2="108.5"/>
		<line style="fill:none;stroke:#404040;" x1="36.5" y1="0.5" x2="36.5" y2="108.5"/>
	</g>
	<g id="Kanji">
		<text transform="matrix(1 0 0 1 0.5 93.3799)" style="font-size:108;">佗</text>
	</g>
	<g id="StrokeNumbers" style="font-size:8;fill:#808080">
		<text transform="matrix(1 0 0 1 25.5 15.8486)">1</text>
		<text transform="matrix(1 0 0 1 20.5 56.5)">2</text>
		<text transform="matrix(1 0 0 1 54.5 12.5)">3</text>
		<text transform="matrix(1 0 0 1 36.5361 31.5)">4</text>
		<text transform="matrix(1 0 0 1 46.5 27.5)">5</text>
		<text transform="matrix(1 0 0 1 76.5 43.5)">6</text>
		<text transform="matrix(1 0 0 1 45.5 43.5)">7</text>
	</g>
	<g id="StrokePaths" style="fill:none;stroke:#404040;stroke-width:3;stroke-linecap:round;stroke-linejoin:round;">
		<path d="M33.99,15.39c0.14,1.18,0.24,2.67-0.12,4.12c-2.34,9.2-11.39,26.98-22.3,39.45"/>
		<path d="M27.99,40c0.66,0.68,0.84,2.19,0.84,3.58c0,14.46-0.32,44.58-0.32,54.29"/>
		<path d="M62.01,13.52c2.85,1,6.32,5.94,6.85,8.77"/>
		<path d="M42.46,29.75c0,3.93-2.06,12.02-3.25,14.64"/>
		<path d="M43.12,31.4c15.61-2.55,42.77-6.12,49.39-5.85c8.73,0.35-0.63,7.49-2.81,9.52"/>
		<path d="M84.87,45.11c0.19,0.42,0.32,1.65-0.18,2.3c-3.25,4.21-14.37,15.81-24.86,20.12"/>
		<path d="M54.05,43.75c0.88,1.02,0.94,1.7,1.23,3.06c0.29,1.36-0.11,35.2-0.11,39.46c0,10.94,10.93,9.23,20.93,9.23c7.76,0,13.41-0.58,16.33-3.63c2.92-3.06,2.56-6.61,2.86-9.67"/>
	</g>
</svg>
