<?xml version="1.0" encoding="UTF-8"?>
<!-- Copyright (C) 2009 Ulrich Apel.
This work is distributed under the conditions of the Creative Commons
Attribution-Share Alike 3.0 Licence. This means you are free:
* to Share - to copy, distribute and transmit the work
* to Remix - to adapt the work

Under the following conditions:
* Attribution. You must attribute the work by stating your use of KanjiVG in
  your own copyright header and linking to KanjiVG's website
  (http://kanjivg.tagaini.net)
* Share Alike. If you alter, transform, or build upon this work, you may
  distribute the resulting work only under the same or similar license to this
  one.

See http://creativecommons.org/licenses/by-sa/3.0/ for more details. -->
<!DOCTYPE svg PUBLIC "-//W3C//DTD SVG 1.0//EN" "http://www.w3.org/TR/2001/REC-SVG-20010904/DTD/svg10.dtd">
<svg xmlns="http://www.w3.org/2000/svg" width="109" height="109" viewBox="0 0 109 109">
	<g id="HelperGrid" style="opacity:0.75;">
		<rect x="0.5" y="0.5" style="fill:none;stroke:#404040;" width="108" height="108"/> 
		<line style="fill:none;stroke:#404040;" x1="0.5" y1="72.51" x2="108.5" y2="72.51"/>
		<line style="fill:none;stroke:#404040;" x1="0.5" y1="36.49" x2="108.5" y2="36.49"/>
		<line style="fill:none;stroke:#404040;" x1="72.5" y1="0.5" x2="72.5" y2="108.5"/>
		<line style="fill:none;stroke:#404040;" x1="36.5" y1="0.5" x2="36.5" y2="108.5"/>
	</g>
	<g id="Kanji">
		<text transform="matrix(1 0 0 1 0.5 93.3799)" style="font-size:108;">俐</text>
	</g>
	<g id="StrokeNumbers" style="font-size:8;fill:#808080">
		<text transform="matrix(1 0 0 1 21.5 17.5)">1</text>
		<text transform="matrix(1 0 0 1 17.5 60.5)">2</text>
		<text transform="matrix(1 0 0 1 51.5 13.5)">3</text>
		<text transform="matrix(1 0 0 1 30.5 41.5)">4</text>
		<text transform="matrix(1 0 0 1 42.5 35.5)">5</text>
		<text transform="matrix(1 0 0 1 38.5801 54.5)">6</text>
		<text transform="matrix(1 0 0 1 56.5 51.5)">7</text>
		<text transform="matrix(1 0 0 1 66.5 26.5)">8</text>
		<text transform="matrix(1 0 0 1 80.5 15.5)">9</text>
	</g>
	<g id="StrokePaths" style="fill:none;stroke:#404040;stroke-width:3;stroke-linecap:round;stroke-linejoin:round;">
		<path d="M30,18.39c0.12,1.18,0.22,2.65-0.11,4.1c-2.08,9.14-10.13,26.83-19.83,39.22"/>
		<path d="M23.49,44c0.66,0.68,0.84,2.19,0.84,3.58c0,14.46-0.32,34.58-0.32,44.29"/>
		<path d="M59.92,14.7c0.07,0.36,0.15,0.94-0.14,1.46c-1.67,3.08-11.28,9.83-24.43,13.96"/>
		<path d="M30.87,44.49c0.35,0.16,1.28,0.42,2.21,0.48c2.55,0.16,24.04-3.72,30.43-4.53c0.93-0.12,1.16-0.16,1.74,0"/>
		<path d="M49,28.07c0.69,0.46,1.23,3.48,1.23,4.4c0,5.39-0.14,49.53-0.14,56.06c0,11.47-4.85,2.72-6.6,0.97"/>
		<path d="M49.85,44.56c-3.91,10.63-10.44,23.73-19.3,32.42"/>
		<path d="M53.01,50.35c3.77,2.98,6.97,8.92,9,12.75"/>
		<path d="M73.32,29.44c0.82,0.93,1.4,2.02,1.47,5.1c0.34,14.8-0.02,30.7-0.02,35.75"/>
		<path d="M90.03,15.83c0.85,0.83,1.44,1.8,1.51,4.56c0.35,13.21-0.22,64.09-0.22,68.59c0,10.7-5.78,1.36-7.07,0.23"/>
	</g>
</svg>
