<?xml version="1.0" encoding="UTF-8"?>
<!DOCTYPE svg PUBLIC "-//W3C//DTD SVG 1.0//EN" "http://www.w3.org/TR/2001/REC-SVG-20010904/DTD/svg10.dtd">
<svg xmlns="http://www.w3.org/2000/svg" width="109" height="109" viewBox="0 0 109 109">
	<g id="HelperGrid" style="opacity:0.75;">
		<rect x="0.5" y="0.5" style="fill:none;stroke:#404040;" width="108" height="108"/> 
		<line style="fill:none;stroke:#404040;" x1="0.5" y1="72.51" x2="108.5" y2="72.51"/>
		<line style="fill:none;stroke:#404040;" x1="0.5" y1="36.49" x2="108.5" y2="36.49"/>
		<line style="fill:none;stroke:#404040;" x1="72.5" y1="0.5" x2="72.5" y2="108.5"/>
		<line style="fill:none;stroke:#404040;" x1="36.5" y1="0.5" x2="36.5" y2="108.5"/>
	</g>
	<g id="Kanji">
		<text transform="matrix(1 0 0 1 0.5 93.3799)" style="font-size:108;">俗</text>
	</g>
	<g id="StrokeNumbers" style="font-size:8;fill:#808080">
		<text transform="matrix(1 0 0 1 23.25 18.5)">1</text>
		<text transform="matrix(1 0 0 1 17.5 59.5)">2</text>
		<text transform="matrix(1 0 0 1 43.5 19.5)">3</text>
		<text transform="matrix(1 0 0 1 68.25 15.1299)">4</text>
		<text transform="matrix(1 0 0 1 54.5 37.5)">5</text>
		<text transform="matrix(1 0 0 1 71.5 42.1299)">6</text>
		<text transform="matrix(1 0 0 1 41.25 78.5)">7</text>
		<text transform="matrix(1 0 0 1 52.5 66.5)">8</text>
		<text transform="matrix(1 0 0 1 56.5 87.0547)">9</text>
	</g>
	<g id="StrokePaths" style="fill:none;stroke:#404040;stroke-width:3;stroke-linecap:round;stroke-linejoin:round;">
		<path d="M30.5,17.89c0.12,1.12-0.03,2.27-0.36,3.64c-2.08,8.68-10.1,25.46-19.77,37.22"/>
		<path d="M24.03,41c0.98,0.98,1.26,2,1.26,3.73c0,10.48,0.06,29.7-0.01,41.27c-0.02,2.8-0.03,5.17-0.03,6.88"/>
		<path d="M52.49,20.23c0.08,0.98,0.01,1.61-0.41,2.5c-2.06,4.33-5.67,9.7-12.45,15.89"/>
		<path d="M75.38,18.12c5.6,3.78,12.41,11,14.33,14.87"/>
		<path d="M63.45,35.38c0.17,1.12,0.09,2.03-0.4,3.03C58,48.75,50,58.75,36.98,67.71"/>
		<path d="M64.28,40.1c7.48,6.69,15.41,13.36,21.79,17.74c2.75,1.88,5.18,3.03,8.87,4.47"/>
		<path d="M46.99,69.23c0.78,0.79,1.15,1.76,1.38,2.86c0.8,3.8,2.39,12.21,3.32,17.3c0.39,2.15,0.67,3.71,0.71,4.07"/>
		<path d="M48.99,69.96c10.88-1.08,21.01-2.11,27.54-2.92c4.03-0.5,5.65,1.15,4.67,5.1c-1.25,5.02-2.07,9.12-3.33,15.45"/>
		<path d="M53.4,90.6c7.08-0.49,13.74-0.97,21.62-1.67c1.28-0.11,2.98-0.1,4.39-0.1"/>
	</g>
</svg>
