<?xml version="1.0" encoding="UTF-8"?>
<!-- Copyright (C) 2009 Ulrich Apel.
This work is distributed under the conditions of the Creative Commons
Attribution-Share Alike 3.0 Licence. This means you are free:
* to Share - to copy, distribute and transmit the work
* to Remix - to adapt the work

Under the following conditions:
* Attribution. You must attribute the work by stating your use of KanjiVG in
  your own copyright header and linking to KanjiVG's website
  (http://kanjivg.tagaini.net)
* Share Alike. If you alter, transform, or build upon this work, you may
  distribute the resulting work only under the same or similar license to this
  one.

See http://creativecommons.org/licenses/by-sa/3.0/ for more details. -->
<!DOCTYPE svg PUBLIC "-//W3C//DTD SVG 1.0//EN" "http://www.w3.org/TR/2001/REC-SVG-20010904/DTD/svg10.dtd">
<svg xmlns="http://www.w3.org/2000/svg" width="109" height="109" viewBox="0 0 109 109">
	<g id="HelperGrid" style="opacity:0.75;">
		<rect x="0.5" y="0.5" style="fill:none;stroke:#404040;" width="108" height="108"/> 
		<line style="fill:none;stroke:#404040;" x1="0.5" y1="72.51" x2="108.5" y2="72.51"/>
		<line style="fill:none;stroke:#404040;" x1="0.5" y1="36.49" x2="108.5" y2="36.49"/>
		<line style="fill:none;stroke:#404040;" x1="72.5" y1="0.5" x2="72.5" y2="108.5"/>
		<line style="fill:none;stroke:#404040;" x1="36.5" y1="0.5" x2="36.5" y2="108.5"/>
	</g>
	<g id="Kanji">
		<text transform="matrix(1 0 0 1 0.5 93.3799)" style="font-size:108;">俟</text>
	</g>
	<g id="StrokeNumbers" style="font-size:8;fill:#808080">
		<text transform="matrix(1 0 0 1 22.8477 16.5)">1</text>
		<text transform="matrix(1 0 0 1 18.5 58.5)">2</text>
		<text transform="matrix(1 0 0 1 50.5 11.5)">3</text>
		<text transform="matrix(1 0 0 1 69.5 15.5)">4</text>
		<text transform="matrix(1 0 0 1 42.7158 44.8477)">5</text>
		<text transform="matrix(1 0 0 1 57.5 47.5)">6</text>
		<text transform="matrix(1 0 0 1 30.5 68.5)">7</text>
		<text transform="matrix(1 0 0 1 55.5 59.5)">8</text>
		<text transform="matrix(1 0 0 1 75.5 75.5)">9</text>
	</g>
	<g id="StrokePaths" style="fill:none;stroke:#404040;stroke-width:3;stroke-linecap:round;stroke-linejoin:round;">
		<path d="M30.5,16.39c0.13,1.19,0.22,2.68-0.11,4.15c-2.11,9.25-10.26,27.14-20.08,39.68"/>
		<path d="M24.99,41c0.66,0.68,0.84,2.19,0.84,3.58c0,14.46-0.32,43.08-0.32,52.79"/>
		<path d="M58.04,11.5c0.05,0.71,0.08,2.06-0.25,2.61C53,22,47.81,27,42.29,32.27c-1.75,1.67-1.68,3.27,0.81,2.58c7.65-2.11,31.22-7.3,38.4-8.86"/>
		<path d="M72.51,18.7C78.12,21.47,87,30.08,88.4,34.38"/>
		<path d="M51.3,41.02c0.04,0.5,0.07,1.28-0.07,2c-0.84,4.21-6.12,14.58-11.38,18.42"/>
		<path d="M51.55,50.81c1.4,0.05,3.55,0.07,4.51-0.03c3.96-0.41,15.93-3.03,22.03-3.74c1.6-0.19,2.62-0.24,3.44-0.14"/>
		<path d="M35.16,69.13c1.48,0.39,4.6,0.47,5.56,0.38c16.25-1.61,37.35-4.05,48.9-4.31c1.23-0.03,2.97,0.1,5.71,0.57"/>
		<path d="M63.38,52.71c0.31,0.68,0.63,1.31,0.61,2.63c-0.2,22.82-10.12,34.5-26.44,41.51"/>
		<path d="M64.3,67.33C72.25,77,85.39,88.8,92.04,93.08c2.26,1.46,3.05,1.67,4.08,1.81"/>
	</g>
</svg>
