<?xml version="1.0" encoding="UTF-8"?>
<!-- Copyright (C) 2009 Ulrich Apel.
This work is distributed under the conditions of the Creative Commons
Attribution-Share Alike 3.0 Licence. This means you are free:
* to Share - to copy, distribute and transmit the work
* to Remix - to adapt the work

Under the following conditions:
* Attribution. You must attribute the work by stating your use of KanjiVG in
  your own copyright header and linking to KanjiVG's website
  (http://kanjivg.tagaini.net)
* Share Alike. If you alter, transform, or build upon this work, you may
  distribute the resulting work only under the same or similar license to this
  one.

See http://creativecommons.org/licenses/by-sa/3.0/ for more details. -->
<!DOCTYPE svg PUBLIC "-//W3C//DTD SVG 1.0//EN" "http://www.w3.org/TR/2001/REC-SVG-20010904/DTD/svg10.dtd">
<svg xmlns="http://www.w3.org/2000/svg" width="109" height="109" viewBox="0 0 109 109">
	<g id="HelperGrid" style="opacity:0.75;">
		<rect x="0.5" y="0.5" style="fill:none;stroke:#404040;" width="108" height="108"/> 
		<line style="fill:none;stroke:#404040;" x1="0.5" y1="72.51" x2="108.5" y2="72.51"/>
		<line style="fill:none;stroke:#404040;" x1="0.5" y1="36.49" x2="108.5" y2="36.49"/>
		<line style="fill:none;stroke:#404040;" x1="72.5" y1="0.5" x2="72.5" y2="108.5"/>
		<line style="fill:none;stroke:#404040;" x1="36.5" y1="0.5" x2="36.5" y2="108.5"/>
	</g>
	<g id="Kanji">
		<text transform="matrix(1 0 0 1 0.5 93.3799)" style="font-size:108;">俺</text>
	</g>
	<g id="StrokeNumbers" style="font-size:8;fill:#808080">
		<text transform="matrix(1 0 0 1 24.8477 15.8477)">1</text>
		<text transform="matrix(1 0 0 1 20.5 57.5)">2</text>
		<text transform="matrix(1 0 0 1 38.5 29.5)">3</text>
		<text transform="matrix(1 0 0 1 55.5 11.5)">4</text>
		<text transform="matrix(1 0 0 1 77.5 37.5)">5</text>
		<text transform="matrix(1 0 0 1 38.5 64.5)">6</text>
		<text transform="matrix(1 0 0 1 51.5 51.5)">7</text>
		<text transform="matrix(1 0 0 1 50.5 61.5)">8</text>
		<text transform="matrix(1 0 0 1 51.5 71.5)">9</text>
		<text transform="matrix(1 0 0 1 57.5 39.5)">10</text>
	</g>
	<g id="StrokePaths" style="fill:none;stroke:#404040;stroke-width:3;stroke-linecap:round;stroke-linejoin:round;">
		<path d="M33.5,17.14c0.25,1.23-0.14,2.35-0.61,3.71c-4.83,13.91-9.35,23.2-20.33,37.37"/>
		<path d="M26.28,41c0.86,0.86,1.01,2.22,1.01,3.48c0,9.66-0.02,28.75-0.03,41.52c0,4.44-0.01,8.12-0.01,10.37"/>
		<path d="M39.24,31.69c3.29,0.68,6.55,0.47,9.88,0.02c9.88-1.34,20.5-2.59,30.5-3.66c3.05-0.33,6.06-0.51,9.1-0.04"/>
		<path d="M63.21,13.25c0,1.38-0.24,2.6-0.69,3.86C55.93,35.7,47.82,47.98,33.5,58.88"/>
		<path d="M64.36,29.67c6.55,5.51,21.83,19.54,28.37,23.23c2.23,1.25,3,1.44,4.01,1.56"/>
		<path d="M43.94,53.89c0.84,0.84,1.16,1.81,1.28,2.52c0.65,3.72,2.4,14.84,3.24,20.82"/>
		<path d="M45.81,55.01c9.58-1.54,21.98-3.17,30.59-4.3c2.61-0.34,4.84,1.23,4.45,4.04c-0.76,5.44-1.72,11.17-2.91,18.65"/>
		<path d="M47.85,64.58c8.02-1.08,24.27-2.95,31.62-3.7"/>
		<path d="M49.21,74.72c8.54-0.97,20.29-2.09,27.93-2.84"/>
		<path d="M61.17,42.09c0.93,0.93,1.11,2.15,1.11,3.85c0,10.56,0.08,35.12,0.08,40.27c0,7.91,2.1,9.09,15.41,9.07c14.49-0.03,15.97-1.88,15.97-10.3"/>
	</g>
</svg>
