<?xml version="1.0" encoding="UTF-8"?>
<!-- Copyright (C) 2009 Ulrich Apel.
This work is distributed under the conditions of the Creative Commons
Attribution-Share Alike 3.0 Licence. This means you are free:
* to Share - to copy, distribute and transmit the work
* to Remix - to adapt the work

Under the following conditions:
* Attribution. You must attribute the work by stating your use of KanjiVG in
  your own copyright header and linking to KanjiVG's website
  (http://kanjivg.tagaini.net)
* Share Alike. If you alter, transform, or build upon this work, you may
  distribute the resulting work only under the same or similar license to this
  one.

See http://creativecommons.org/licenses/by-sa/3.0/ for more details. -->
<!DOCTYPE svg PUBLIC "-//W3C//DTD SVG 1.0//EN" "http://www.w3.org/TR/2001/REC-SVG-20010904/DTD/svg10.dtd">
<svg xmlns="http://www.w3.org/2000/svg" width="109" height="109" viewBox="0 0 109 109">
	<g id="HelperGrid" style="opacity:0.75;">
		<rect x="0.5" y="0.5" style="fill:none;stroke:#404040;" width="108" height="108"/> 
		<line style="fill:none;stroke:#404040;" x1="0.5" y1="72.51" x2="108.5" y2="72.51"/>
		<line style="fill:none;stroke:#404040;" x1="0.5" y1="36.49" x2="108.5" y2="36.49"/>
		<line style="fill:none;stroke:#404040;" x1="72.5" y1="0.5" x2="72.5" y2="108.5"/>
		<line style="fill:none;stroke:#404040;" x1="36.5" y1="0.5" x2="36.5" y2="108.5"/>
	</g>
	<g id="Kanji">
		<text transform="matrix(1 0 0 1 0.5 93.3799)" style="font-size:108;">俺</text>
	</g>
	<g id="StrokeNumbers" style="font-size:8;fill:#808080">
		<text transform="matrix(1 0 0 1 24.8477 15.8477)">1</text>
		<text transform="matrix(1 0 0 1 20.5 57.5)">2</text>
		<text transform="matrix(1 0 0 1 38.5 29.5)">3</text>
		<text transform="matrix(1 0 0 1 55.5 11.5)">4</text>
		<text transform="matrix(1 0 0 1 77.5 37.5)">5</text>
		<text transform="matrix(1 0 0 1 38.5 64.5)">6</text>
		<text transform="matrix(1 0 0 1 51.5 51.5)">7</text>
		<text transform="matrix(1 0 0 1 50.5 61.5)">8</text>
		<text transform="matrix(1 0 0 1 51.5 71.5)">9</text>
		<text transform="matrix(1 0 0 1 57.5 39.5)">10</text>
	</g>
	<g id="StrokePaths" style="fill:none;stroke:#404040;stroke-width:3;stroke-linecap:round;stroke-linejoin:round;">
		<path d="M33,16.39c0.13,1.14,0.22,2.56-0.11,3.96c-2.13,8.83-10.38,25.9-20.33,37.87"/>
		<path d="M26.53,40c0.59,0.61,0.76,1.97,0.76,3.23c0,13.02-0.29,43.65-0.29,52.4"/>
		<path d="M39.24,31.69c0.82,0.58,3,0.77,4.74,0.51c11.77-1.74,29.26-3.94,39.82-4.78c1.82-0.14,3.28,0.38,4.92,0.84"/>
		<path d="M62.96,13.25c0.32,1.13,0.01,2.85-0.44,4.11c-6.59,18.59-14.7,30.62-29.02,41.52"/>
		<path d="M64.36,29.67c6.55,5.51,21.83,19.54,28.37,23.23c2.23,1.25,3,1.44,4.01,1.56"/>
		<path d="M43.94,53.39c0.51,0.5,1.03,1.55,1.03,2.27c0.01,0.72,3.31,21.36,3.49,22.07"/>
		<path d="M45.81,54.51c2.87-0.34,29.58-3.67,32.19-4c2.18-0.27,3.24,1.24,3.04,2.9c-0.41,3.39-1.55,12.65-2.84,20.75"/>
		<path d="M47.1,64.33c7.09-0.6,14.16-1.61,21.22-2.45c0.85-0.1,1.68-0.2,2.48-0.29"/>
		<path d="M48.96,74.72c5.99-0.69,23.97-2.69,28.68-3.09"/>
		<path d="M61.67,42.34c0.6,1.1,1.07,2.4,1.11,4.1c0.16,7.58-0.42,34.62-0.42,39.77c0,8.8,2.1,9.09,15.41,9.07c14.49-0.03,15.97-1.88,15.97-10.3"/>
	</g>
</svg>
