<?xml version="1.0" encoding="UTF-8"?>
<!DOCTYPE svg PUBLIC "-//W3C//DTD SVG 1.0//EN" "http://www.w3.org/TR/2001/REC-SVG-20010904/DTD/svg10.dtd">
<svg xmlns="http://www.w3.org/2000/svg" width="109" height="109" viewBox="0 0 109 109">
	<g id="HelperGrid" style="opacity:0.75;">
		<rect x="0.5" y="0.5" style="fill:none;stroke:#404040;" width="108" height="108"/> 
		<line style="fill:none;stroke:#404040;" x1="0.5" y1="72.51" x2="108.5" y2="72.51"/>
		<line style="fill:none;stroke:#404040;" x1="0.5" y1="36.49" x2="108.5" y2="36.49"/>
		<line style="fill:none;stroke:#404040;" x1="72.5" y1="0.5" x2="72.5" y2="108.5"/>
		<line style="fill:none;stroke:#404040;" x1="36.5" y1="0.5" x2="36.5" y2="108.5"/>
	</g>
	<g id="Kanji">
		<text transform="matrix(1 0 0 1 0.5 93.3799)" style="font-size:108;">倪</text>
	</g>
	<g id="StrokeNumbers" style="font-size:8;fill:#808080">
		<text transform="matrix(1 0 0 1 24.5 14.5)">1</text>
		<text transform="matrix(1 0 0 1 16.6602 59.5)">2</text>
		<text transform="matrix(1 0 0 1 46.5 14.0254)">3</text>
		<text transform="matrix(1 0 0 1 33.5 35.4502)">4</text>
		<text transform="matrix(1 0 0 1 65.5 16.5)">5</text>
		<text transform="matrix(1 0 0 1 45.5 33.5)">6</text>
		<text transform="matrix(1 0 0 1 64.5 29.5)">7</text>
		<text transform="matrix(1 0 0 1 46.5 48.5)">8</text>
		<text transform="matrix(1 0 0 1 45.5 61.5)">9</text>
		<text transform="matrix(1 0 0 1 56.5 67.5)">10</text>
	</g>
	<g id="StrokePaths" style="fill:none;stroke:#404040;stroke-width:3;stroke-linecap:round;stroke-linejoin:round;">
		<path d="M32.48,14.89c0.14,1.15,0.25,2.59-0.13,4.01c-2.39,8.93-11.65,26.21-22.8,38.32"/>
		<path d="M22.99,44.5c0.66,0.68,0.84,2.19,0.84,3.58c0,14.46-0.32,39.58-0.32,49.29"/>
		<path d="M55.19,14.21c0.04,0.23-0.57,1.79-0.82,2.04c-3.22,3.33-5.74,7.1-13.53,11.43"/>
		<path d="M38.93,26.8c0.75,0.64,1.05,2.06,1.24,3.36c0.68,4.77,2.32,17.89,3,24.34"/>
		<path d="M67.92,19.49c0.88,0.15,1.59,0.43,2.82,0.43c1.24,0,13.84-1.74,15.25-1.88c1.41-0.14,3.11,0.94,2.92,2.59c-1.08,9.11-5.03,30.19-5.21,30.77"/>
		<path d="M41.63,36.84c3.98-0.62,11.99-2.1,12.94-2.1c0.95,0,2.28,0,3.04,0"/>
		<path d="M65.88,32.99c0.88,0.14,1.59,0.43,2.82,0.43c1.23,0,16.72-1.16,18.13-1.3"/>
		<path d="M43.34,51.54c4.41-0.29,38.01-2.38,40.66-2.53"/>
		<path d="M53.01,55.75c0.06,0.93,0.08,2.39-0.11,3.73C51.5,69.25,47,86.5,33.67,95.17"/>
		<path d="M65.47,53.12c0.66,1.19,1.19,2.59,1.23,4.43c0.18,8.19,0.14,22.64-0.02,28.2c-0.3,10,1.61,11.53,14.81,11.53c13.86,0,14.16-2.28,14.16-9.12"/>
	</g>
</svg>
