<?xml version="1.0" encoding="UTF-8"?>
<!-- Copyright (C) 2009 Ulrich Apel.
This work is distributed under the conditions of the Creative Commons
Attribution-Share Alike 3.0 Licence. This means you are free:
* to Share - to copy, distribute and transmit the work
* to Remix - to adapt the work

Under the following conditions:
* Attribution. You must attribute the work by stating your use of KanjiVG in
  your own copyright header and linking to KanjiVG's website
  (http://kanjivg.tagaini.net)
* Share Alike. If you alter, transform, or build upon this work, you may
  distribute the resulting work only under the same or similar license to this
  one.

See http://creativecommons.org/licenses/by-sa/3.0/ for more details. -->
<!DOCTYPE svg PUBLIC "-//W3C//DTD SVG 1.0//EN" "http://www.w3.org/TR/2001/REC-SVG-20010904/DTD/svg10.dtd">
<svg xmlns="http://www.w3.org/2000/svg" width="109" height="109" viewBox="0 0 109 109">
	<g id="HelperGrid" style="opacity:0.75;">
		<rect x="0.5" y="0.5" style="fill:none;stroke:#404040;" width="108" height="108"/> 
		<line style="fill:none;stroke:#404040;" x1="0.5" y1="72.51" x2="108.5" y2="72.51"/>
		<line style="fill:none;stroke:#404040;" x1="0.5" y1="36.49" x2="108.5" y2="36.49"/>
		<line style="fill:none;stroke:#404040;" x1="72.5" y1="0.5" x2="72.5" y2="108.5"/>
		<line style="fill:none;stroke:#404040;" x1="36.5" y1="0.5" x2="36.5" y2="108.5"/>
	</g>
	<g id="Kanji">
		<text transform="matrix(1 0 0 1 0.5 93.3799)" style="font-size:108;">催</text>
	</g>
	<g id="StrokeNumbers" style="font-size:8;fill:#808080">
		<text transform="matrix(1 0 0 1 23.5 18.1299)">1</text>
		<text transform="matrix(1 0 0 1 19.5 61.5)">2</text>
		<text transform="matrix(1 0 0 1 54.75 11.5)">3</text>
		<text transform="matrix(1 0 0 1 41.5 17.5)">4</text>
		<text transform="matrix(1 0 0 1 77.5 14.5)">5</text>
		<text transform="matrix(1 0 0 1 45.5 43.5)">6</text>
		<text transform="matrix(1 0 0 1 43.5 70.5)">7</text>
		<text transform="matrix(1 0 0 1 65.5 38.5)">8</text>
		<text transform="matrix(1 0 0 1 58.5 47.5)">9</text>
		<text transform="matrix(1 0 0 1 73.5 57.5)">10</text>
		<text transform="matrix(1 0 0 1 54.75 61.6299)">11</text>
		<text transform="matrix(1 0 0 1 54.75 74.5)">12</text>
		<text transform="matrix(1 0 0 1 54.75 89.5)">13</text>
	</g>
	<g id="StrokePaths" style="fill:none;stroke:#404040;stroke-width:3;stroke-linecap:round;stroke-linejoin:round;">
		<path d="M32.75,17.64c0.13,1.23,0.08,2.55-0.36,4.04C29.12,32.5,21.5,49.25,11.56,62.22"/>
		<path d="M25.53,44c0.59,0.61,1.01,1.97,1.01,3.23c0,10.29-0.01,26.15-0.01,41.27c0,3.15-0.03,5.79-0.03,7.62"/>
		<path d="M63.93,11.7c0.93,0.93,1.24,2.17,1.24,4c0,0.7,0.05,9.04,0.05,14.1"/>
		<path d="M47.15,21.81c0.64,0.64,0.73,1.56,0.45,2.99c-0.59,3.03-0.98,3.68-1.48,6.28c-0.3,1.55,0.29,2.55,1.66,1.93c3.37-1.53,29.62-4.7,37.15-4.89"/>
		<path d="M87.14,15.35c0.73,0.9,0.86,2.4,0.6,3.97c-0.48,2.96-1.03,5.87-1.5,8.55c-0.29,1.69-0.52,2.57-0.79,4.51"/>
		<path d="M54.01,38.92c0.19,1.57-0.05,2.87-0.67,4.22c-3.91,8.57-8.82,17.68-18.06,26.75"/>
		<path d="M49.53,52.82c0.82,0.82,1.02,2.46,1.03,3.18c0.09,8.03,0.11,25.05,0.03,35c-0.02,2.56-0.05,4.65-0.08,6"/>
		<path d="M74.13,36.06c0.06,0.79,0.04,1.85-0.2,2.5c-0.94,2.56-2.06,4.81-5.29,9.42"/>
		<path d="M50.43,52c6.15-0.68,24.55-2.95,34.3-4.18c2.94-0.37,5.09-0.65,5.88-0.76"/>
		<path d="M69.98,52.49c0.83,0.83,0.97,2.14,0.97,3.97c0,10.73-0.07,28.74-0.07,34.04"/>
		<path d="M51.61,65.39c5.71-0.56,21.29-2.21,29.95-3.15c2.8-0.31,4.87-0.54,5.66-0.63"/>
		<path d="M51.94,78.28c6.05-0.47,21.93-2.14,31.33-3.07c2.99-0.29,5.19-0.51,6.02-0.59"/>
		<path d="M51.97,93.01c6.22-0.69,25.37-2.18,35.8-3.03c3-0.25,5.18-0.44,5.95-0.55"/>
	</g>
</svg>
