<?xml version="1.0" encoding="UTF-8"?>
<!DOCTYPE svg PUBLIC "-//W3C//DTD SVG 1.0//EN" "http://www.w3.org/TR/2001/REC-SVG-20010904/DTD/svg10.dtd">
<svg xmlns="http://www.w3.org/2000/svg" width="109" height="109" viewBox="0 0 109 109">
	<g id="HelperGrid" style="opacity:0.75;">
		<rect x="0.5" y="0.5" style="fill:none;stroke:#404040;" width="108" height="108"/> 
		<line style="fill:none;stroke:#404040;" x1="0.5" y1="72.51" x2="108.5" y2="72.51"/>
		<line style="fill:none;stroke:#404040;" x1="0.5" y1="36.49" x2="108.5" y2="36.49"/>
		<line style="fill:none;stroke:#404040;" x1="72.5" y1="0.5" x2="72.5" y2="108.5"/>
		<line style="fill:none;stroke:#404040;" x1="36.5" y1="0.5" x2="36.5" y2="108.5"/>
	</g>
	<g id="Kanji">
		<text transform="matrix(1 0 0 1 0.5 93.3799)" style="font-size:108;">傾</text>
	</g>
	<g id="StrokeNumbers" style="font-size:8;fill:#808080">
		<text transform="matrix(1 0 0 1 22.5 14.5)">1</text>
		<text transform="matrix(1 0 0 1 17.5 57.5)">2</text>
		<text transform="matrix(1 0 0 1 47.5 37.5)">3</text>
		<text transform="matrix(1 0 0 1 37.5 28.6299)">4</text>
		<text transform="matrix(1 0 0 1 53.5 14.5)">5</text>
		<text transform="matrix(1 0 0 1 66.5 24.5)">6</text>
		<text transform="matrix(1 0 0 1 55.5 38.5)">7</text>
		<text transform="matrix(1 0 0 1 62.25 28.5)">8</text>
		<text transform="matrix(1 0 0 1 66.75 42.0547)">9</text>
		<text transform="matrix(1 0 0 1 66.75 54.5)">10</text>
		<text transform="matrix(1 0 0 1 66.75 68.9053)">11</text>
		<text transform="matrix(1 0 0 1 53.25 83.5)">12</text>
		<text transform="matrix(1 0 0 1 75.5 82.6299)">13</text>
	</g>
	<g id="StrokePaths" style="fill:none;stroke:#404040;stroke-width:3;stroke-linecap:round;stroke-linejoin:round;">
		<path d="M32.25,15.75c0.24,2.18-0.07,3.79-0.83,5.66C26.56,33.34,19.9,45.03,8.75,59.54"/>
		<path d="M24.03,41c0.98,0.98,1.26,2,1.26,3.73c0,12.42-0.02,30.97-0.04,42.77c0,3.43-0.01,6.28-0.01,8.25"/>
		<path d="M52.11,40.81c0,0.94-0.48,1.69-1.1,2.27c-2.4,2.29-3.64,3.04-9.14,6.04"/>
		<path d="M38.25,30.5c0.75,0.75,0.94,2.12,0.94,3.29c0,2.19,0.01,25.83,0.01,28.41c0,9.92,1.04,10.87,6.68,10.87c6.49,0,7.12-2.32,7.12-6.06"/>
		<path d="M54.5,17.15c2.37,0.48,5.45,0.38,7.78,0.13c8.91-0.96,21.79-2.43,29.97-3.2c2.38-0.22,4.62-0.2,6.5,0.22"/>
		<path d="M75.25,19.2c0.05,0.81-0.09,1.59-0.42,2.34c-0.9,2.43-1.7,3.21-4.58,6.71"/>
		<path d="M60.54,30.71c0.88,0.88,1.12,2.16,1.12,3.41c0,1.12,0.03,24.61,0.04,35.38c0,3.1,0,5.15,0,5.31"/>
		<path d="M62.93,31.78c3.7-0.4,21.9-3.44,24.27-3.5c1.98-0.05,3.36,0.97,3.36,3.57c0,2.82-0.05,20.94-0.06,36.03c0,1.76,0,3.48,0,5.12"/>
		<path d="M62.86,45.32c5.89-0.57,20.98-2.57,26.56-2.59"/>
		<path d="M62.74,58.11c9.88-0.99,19.52-1.85,26.64-1.89"/>
		<path d="M62.86,72.48c6.01-0.67,18.84-1.89,26.42-1.92"/>
		<path d="M67.19,78.9c0.19,1.35-0.41,2.6-1.52,3.71C62.31,85.97,55.05,93.23,47,96.69"/>
		<path d="M85.38,79.27c4.78,4.67,10.16,12.38,11.46,16.23"/>
	</g>
</svg>
