<?xml version="1.0" encoding="UTF-8"?>
<!DOCTYPE svg PUBLIC "-//W3C//DTD SVG 1.0//EN" "http://www.w3.org/TR/2001/REC-SVG-20010904/DTD/svg10.dtd">
<svg xmlns="http://www.w3.org/2000/svg" width="109" height="109" viewBox="0 0 109 109">
	<g id="HelperGrid" style="opacity:0.75;">
		<rect x="0.5" y="0.5" style="fill:none;stroke:#404040;" width="108" height="108"/> 
		<line style="fill:none;stroke:#404040;" x1="0.5" y1="72.51" x2="108.5" y2="72.51"/>
		<line style="fill:none;stroke:#404040;" x1="0.5" y1="36.49" x2="108.5" y2="36.49"/>
		<line style="fill:none;stroke:#404040;" x1="72.5" y1="0.5" x2="72.5" y2="108.5"/>
		<line style="fill:none;stroke:#404040;" x1="36.5" y1="0.5" x2="36.5" y2="108.5"/>
	</g>
	<g id="Kanji">
		<text transform="matrix(1 0 0 1 0.5 93.3799)" style="font-size:108;">價</text>
	</g>
	<g id="StrokeNumbers" style="font-size:8;fill:#808080">
		<text transform="matrix(1 0 0 1 24.5 17.5)">1</text>
		<text transform="matrix(1 0 0 1 20.5 57.5)">2</text>
		<text transform="matrix(1 0 0 1 42.5 13.5)">3</text>
		<text transform="matrix(1 0 0 1 33.5 36.5)">4</text>
		<text transform="matrix(1 0 0 1 40.75 26.5)">5</text>
		<text transform="matrix(1 0 0 1 48.5 24.5)">6</text>
		<text transform="matrix(1 0 0 1 67.5 23.1797)">7</text>
		<text transform="matrix(1 0 0 1 46.5 39.5)">8</text>
		<text transform="matrix(1 0 0 1 42.5 58.5)">9</text>
		<text transform="matrix(1 0 0 1 51.5 48.5)">10</text>
		<text transform="matrix(1 0 0 1 54.5 58.8799)">11</text>
		<text transform="matrix(1 0 0 1 54.5 68.8047)">12</text>
		<text transform="matrix(1 0 0 1 54.5 78.7285)">13</text>
		<text transform="matrix(1 0 0 1 41.5 89.5)">14</text>
		<text transform="matrix(1 0 0 1 67.5 92.5)">15</text>
	</g>
	<g id="StrokePaths" style="fill:none;stroke:#404040;stroke-width:3;stroke-linecap:round;stroke-linejoin:round;">
		<path d="M32.44,17c0.13,1.16,0.23,2.62-0.12,4.05c-2.19,9.04-10.64,26.52-20.82,38.77"/>
		<path d="M27.46,40.11c0.62,0.64,0.79,2.05,0.79,3.37c0,13.58-0.3,41.88-0.3,51.01"/>
		<path d="M43.89,16.39c0.84,0.44,2.38,0.5,3.23,0.44c7.75-0.59,30.02-3.33,36.48-3.36c1.4-0.01,2.24,0.21,2.95,0.42"/>
		<path d="M38.75,28.92c0.35,0.29,0.71,0.53,0.86,0.9c1.21,2.88,2.23,9.47,3.06,14.64"/>
		<path d="M40.92,29.91c8.55-1.21,43.92-5.04,48.33-5.45c1.61-0.15,2.58,1.5,2.35,2.38c-0.96,3.63-1.19,8.13-3.24,13.36"/>
		<path d="M54.81,19.66c0.93,0.46,1.55,2.04,1.67,2.97c0.36,2.74,0.77,11.12,1.07,18.45"/>
		<path d="M73.04,16.88c0.93,0.46,1.21,2.48,0.97,4.57c-0.64,5.48-0.75,10.56-1.49,17.62"/>
		<path d="M43.02,42.56c5.18-0.46,39.53-3.72,46.1-4.18"/>
		<path d="M48.67,50.51c0.53,0.78,1.31,2.35,1.31,3.39c0,1.05,0.02,23.34,0.11,29.87"/>
		<path d="M50.86,51.42c3-0.13,25.9-3.27,28.63-3.43c2.28-0.13,3.5,1.72,3.5,2.7c0,2.39-0.67,28.98-0.67,29.77"/>
		<path d="M50.04,61.5c7.21-0.75,27.4-3.12,32.21-3.12"/>
		<path d="M50.28,71.41c8.47-0.58,23.02-2.75,32-2.86"/>
		<path d="M50.39,81.72c8.48-0.43,23.66-2.57,31.39-2.57"/>
		<path d="M57.18,84.96c0.48,0.99-0.36,1.95-1.31,2.67c-2.86,2.17-10.39,6.8-16.12,9.37"/>
		<path d="M75.18,83.91C81.62,87.08,89.24,92.83,91,95.6"/>
	</g>
</svg>
