<?xml version="1.0" encoding="UTF-8"?>
<!-- Copyright (C) 2009 Ulrich Apel.
This work is distributed under the conditions of the Creative Commons
Attribution-Share Alike 3.0 Licence. This means you are free:
* to Share - to copy, distribute and transmit the work
* to Remix - to adapt the work

Under the following conditions:
* Attribution. You must attribute the work by stating your use of KanjiVG in
  your own copyright header and linking to KanjiVG's website
  (http://kanjivg.tagaini.net)
* Share Alike. If you alter, transform, or build upon this work, you may
  distribute the resulting work only under the same or similar license to this
  one.

See http://creativecommons.org/licenses/by-sa/3.0/ for more details. -->
<!DOCTYPE svg PUBLIC "-//W3C//DTD SVG 1.0//EN" "http://www.w3.org/TR/2001/REC-SVG-20010904/DTD/svg10.dtd">
<svg xmlns="http://www.w3.org/2000/svg" width="109" height="109" viewBox="0 0 109 109">
	<g id="HelperGrid" style="opacity:0.75;">
		<rect x="0.5" y="0.5" style="fill:none;stroke:#404040;" width="108" height="108"/> 
		<line style="fill:none;stroke:#404040;" x1="0.5" y1="72.51" x2="108.5" y2="72.51"/>
		<line style="fill:none;stroke:#404040;" x1="0.5" y1="36.49" x2="108.5" y2="36.49"/>
		<line style="fill:none;stroke:#404040;" x1="72.5" y1="0.5" x2="72.5" y2="108.5"/>
		<line style="fill:none;stroke:#404040;" x1="36.5" y1="0.5" x2="36.5" y2="108.5"/>
	</g>
	<g id="Kanji">
		<text transform="matrix(1 0 0 1 0.5 93.3799)" style="font-size:108;">先</text>
	</g>
	<g id="StrokeNumbers" style="font-size:8;fill:#808080">
		<text transform="matrix(1 0 0 1 29.5 20.1299)">1</text>
		<text transform="matrix(1 0 0 1 42.5 28.5)">2</text>
		<text transform="matrix(1 0 0 1 43.5 11.5)">3</text>
		<text transform="matrix(1 0 0 1 7.5005 54.5)">4</text>
		<text transform="matrix(1 0 0 1 36.75 62.1299)">5</text>
		<text transform="matrix(1 0 0 1 53.5 65.5)">6</text>
	</g>
	<g id="StrokePaths" style="fill:none;stroke:#404040;stroke-width:3;stroke-linecap:round;stroke-linejoin:round;">
		<path d="M37.51,21c0.07,0.62,0.15,1.61-0.14,2.49C35.25,29.88,31.62,37.38,24.5,45"/>
		<path d="M38.13,32.04c1.5,0.09,3.95-0.16,4.64-0.22c6.48-0.57,20.36-1.82,27.82-2.94c1.65-0.25,3.66-0.13,5.16,0.27"/>
		<path d="M52.81,12.38c1.28,1.28,2.01,3.12,2.01,4.75c0,0.75-0.05,31.92-0.07,32.87"/>
		<path d="M15.88,53.26c3.42,0.98,7.15,0.5,10.62,0.22c15.99-1.3,38.99-3.55,59-4.4c2.94-0.13,5.84-0.03,8.75,0.47"/>
		<path d="M45.18,55.68c0.32,1.45,0.15,2.48-0.15,3.85C43.24,67.65,35,86.62,20,96.38"/>
		<path d="M60.49,53.62c1.07,1.07,1.38,2.71,1.38,4.98c0,7.78-0.22,14.88-0.22,21.89c0,15.14,1.1,16.04,15.85,16.04c14.62,0,15.64-1.78,15.64-11.29"/>
	</g>
</svg>
