<?xml version="1.0" encoding="UTF-8"?>
<!DOCTYPE svg PUBLIC "-//W3C//DTD SVG 1.0//EN" "http://www.w3.org/TR/2001/REC-SVG-20010904/DTD/svg10.dtd">
<svg xmlns="http://www.w3.org/2000/svg" width="109" height="109" viewBox="0 0 109 109">
	<g id="HelperGrid" style="opacity:0.75;">
		<rect x="0.5" y="0.5" style="fill:none;stroke:#404040;" width="108" height="108"/> 
		<line style="fill:none;stroke:#404040;" x1="0.5" y1="72.51" x2="108.5" y2="72.51"/>
		<line style="fill:none;stroke:#404040;" x1="0.5" y1="36.49" x2="108.5" y2="36.49"/>
		<line style="fill:none;stroke:#404040;" x1="72.5" y1="0.5" x2="72.5" y2="108.5"/>
		<line style="fill:none;stroke:#404040;" x1="36.5" y1="0.5" x2="36.5" y2="108.5"/>
	</g>
	<g id="Kanji">
		<text transform="matrix(1 0 0 1 0.5 93.3799)" style="font-size:108;">兒</text>
	</g>
	<g id="StrokeNumbers" style="font-size:8;fill:#808080">
		<text transform="matrix(1 0 0 1 40.5 12.6299)">1</text>
		<text transform="matrix(1 0 0 1 19.5 30.5547)">2</text>
		<text transform="matrix(1 0 0 1 57.5 15.5)">3</text>
		<text transform="matrix(1 0 0 1 34.5 32.5)">4</text>
		<text transform="matrix(1 0 0 1 56.5 29.5)">5</text>
		<text transform="matrix(1 0 0 1 36.5 49.5)">6</text>
		<text transform="matrix(1 0 0 1 36.5 63.5)">7</text>
		<text transform="matrix(1 0 0 1 51.25 61.5)">8</text>
	</g>
	<g id="StrokePaths" style="fill:none;stroke:#404040;stroke-width:3;stroke-linecap:round;stroke-linejoin:round;">
		<path d="M49.17,13.46c0.05,0.21-0.78,1.62-1.1,1.85c-4.35,3.03-8.32,5.94-18.85,9.87"/>
		<path d="M27.08,24.3c0.84,0.64,1.18,2.06,1.39,3.36c0.76,4.77,3.15,21.39,3.91,27.84"/>
		<path d="M59.49,18.49c0.98,0.15,1.77,0.43,3.15,0.43c1.38,0,15.47-1.74,17.05-1.88c1.58-0.14,3.48,0.94,3.26,2.59c-1.21,9.11-2.76,23.64-3.94,30.59c-0.17,1.01,0,1.59-0.2,2.17"/>
		<path d="M30.66,37.34c4.46-0.62,16.76-3.1,17.82-3.1c1.06,0,2.55,0,3.4,0"/>
		<path d="M58.89,32.49c0.99,0.14,1.78,0.43,3.16,0.43c1.38,0,17.58-1.66,19.15-1.8"/>
		<path d="M32.57,53.04c4.93-0.29,42.5-3.38,45.45-3.53"/>
		<path d="M44.5,58.75c0.07,0.89,0.14,2.31-0.13,3.59c-1.61,7.56-10.08,25.61-23.45,34.33"/>
		<path d="M58.99,54.62c0.74,1.19,1.33,2.59,1.38,4.43c0.2,8.19,0.16,20.14-0.03,25.7C60,94.75,63.25,96.28,78,96.28c15.5,0,16.39-2.28,16.39-9.12"/>
	</g>
</svg>
