<?xml version="1.0" encoding="UTF-8"?>
<!DOCTYPE svg PUBLIC "-//W3C//DTD SVG 1.0//EN" "http://www.w3.org/TR/2001/REC-SVG-20010904/DTD/svg10.dtd">
<svg xmlns="http://www.w3.org/2000/svg" width="109" height="109" viewBox="0 0 109 109">
	<g id="HelperGrid" style="opacity:0.75;">
		<rect x="0.5" y="0.5" style="fill:none;stroke:#404040;" width="108" height="108"/> 
		<line style="fill:none;stroke:#404040;" x1="0.5" y1="72.51" x2="108.5" y2="72.51"/>
		<line style="fill:none;stroke:#404040;" x1="0.5" y1="36.49" x2="108.5" y2="36.49"/>
		<line style="fill:none;stroke:#404040;" x1="72.5" y1="0.5" x2="72.5" y2="108.5"/>
		<line style="fill:none;stroke:#404040;" x1="36.5" y1="0.5" x2="36.5" y2="108.5"/>
	</g>
	<g id="Kanji">
		<text transform="matrix(1 0 0 1 0.5 93.3799)" style="font-size:108;">兩</text>
	</g>
	<g id="StrokeNumbers" style="font-size:8;fill:#808080">
		<text transform="matrix(1 0 0 1 16.25 21.5)">1</text>
		<text transform="matrix(1 0 0 1 12.5 52.5)">2</text>
		<text transform="matrix(1 0 0 1 23.5 42.5)">3</text>
		<text transform="matrix(1 0 0 1 45.25 30.4043)">4</text>
		<text transform="matrix(1 0 0 1 30.5 67.5)">5</text>
		<text transform="matrix(1 0 0 1 35.5 55.5)">6</text>
		<text transform="matrix(1 0 0 1 61.5 64.5)">7</text>
		<text transform="matrix(1 0 0 1 67.5 52.5)">8</text>
	</g>
	<g id="StrokePaths" style="fill:none;stroke:#404040;stroke-width:3;stroke-linecap:round;stroke-linejoin:round;">
		<path d="M23.5,22.82c1.72,0.45,2.87,0.72,4.6,0.68c7.74-0.2,33.47-4.34,49.54-5.11c2.3-0.11,4.03-0.13,6.61,0.32"/>
		<path d="M20.25,45c0.18,0.72,1.2,3.93,1.38,5.38c1.32,10.65,1.62,37.33,1.62,42.12"/>
		<path d="M21.25,46.5c12.25-1,55.79-5.98,63.5-6.75c2.5-0.25,4.3,1.01,4.5,3.75c1,13.5,0.75,32-2,45c-1.54,7.3-4.5,5-7.75,0"/>
		<path d="M52.75,22.75C54,24,55,25.5,55,27.25c0,1-0.75,60.75-0.75,63.5"/>
		<path d="M38.47,64.83c-1.4,3.83-5.05,9.24-7.97,11.41"/>
		<path d="M31.48,55c0.58,0,1.11,0.54,1.39,0.93c4.63,6.57,9.88,13.32,14.17,17.96c0.49,0.53,0.95,0.72,1.46,0.86"/>
		<path d="M69.72,60.08c-1.8,4.41-6.48,10.66-10.22,13.16"/>
		<path d="M63.48,52.75c0.66,0,1.31,0.48,1.57,0.89c3.89,6.07,9.76,12.82,16.04,17.04c0.64,0.43,1.08,0.68,1.65,0.82"/>
	</g>
</svg>
