<?xml version="1.0" encoding="UTF-8"?>
<!DOCTYPE svg PUBLIC "-//W3C//DTD SVG 1.0//EN" "http://www.w3.org/TR/2001/REC-SVG-20010904/DTD/svg10.dtd">
<svg xmlns="http://www.w3.org/2000/svg" width="109" height="109" viewBox="0 0 109 109">
	<g id="HelperGrid" style="opacity:0.75;">
		<rect x="0.5" y="0.5" style="fill:none;stroke:#404040;" width="108" height="108"/> 
		<line style="fill:none;stroke:#404040;" x1="0.5" y1="72.51" x2="108.5" y2="72.51"/>
		<line style="fill:none;stroke:#404040;" x1="0.5" y1="36.49" x2="108.5" y2="36.49"/>
		<line style="fill:none;stroke:#404040;" x1="72.5" y1="0.5" x2="72.5" y2="108.5"/>
		<line style="fill:none;stroke:#404040;" x1="36.5" y1="0.5" x2="36.5" y2="108.5"/>
	</g>
	<g id="Kanji">
		<text transform="matrix(1 0 0 1 0.5 93.3799)" style="font-size:108;">其</text>
	</g>
	<g id="StrokeNumbers" style="font-size:8;fill:#808080">
		<text transform="matrix(1 0 0 1 16.5 32.5)">1</text>
		<text transform="matrix(1 0 0 1 29.916 15.8877)">2</text>
		<text transform="matrix(1 0 0 1 57.5 12.812)">3</text>
		<text transform="matrix(1 0 0 1 45.3203 39.7373)">4</text>
		<text transform="matrix(1 0 0 1 45.5 53.5)">5</text>
		<text transform="matrix(1 0 0 1 8.5 74.5)">6</text>
		<text transform="matrix(1 0 0 1 34.5 82.5)">7</text>
		<text transform="matrix(1 0 0 1 57.5 80.7695)">8</text>
	</g>
	<g id="StrokePaths" style="fill:none;stroke:#404040;stroke-width:3;stroke-linecap:round;stroke-linejoin:round;">
		<path d="M23,30.42c3.53,0.5,7.03,0.45,10.5-0.14c13.16-1.71,29.2-3.59,44.37-5.07c3.19-0.38,6.4-0.41,9.63-0.1"/>
		<path d="M39.87,17c1,1,1.21,2.48,1.21,3.5c0,4,0.03,43.38,0.03,51"/>
		<path d="M66.87,12.25c1.07,1.06,1.46,2.73,1.46,3.75c0,3.38,0.03,45.12,0.03,52.75"/>
		<path d="M42,43.25c3.15-0.36,9.41-1.1,15.13-1.73c1.94-0.21,3.82-0.42,5.5-0.58"/>
		<path d="M42.5,56.75c2.8-0.16,9.16-0.89,15.14-1.48c1.82-0.18,3.6-0.35,5.23-0.48"/>
		<path d="M16.75,73.7c3.51,0.72,6.96,0.38,10.51,0.02c19.49-1.97,36.49-3.72,55.75-4.86c3.34-0.2,7.24,0.01,10.99,0.93"/>
		<path d="M43.08,79.39c-0.11,1.33-0.55,2.52-1.4,3.51c-4.06,4.72-8.68,8.47-19.79,14.81"/>
		<path d="M66.02,79.08c7.25,3.24,18.73,13.34,20.54,18.38"/>
	</g>
</svg>
