<?xml version="1.0" encoding="UTF-8"?>
<!DOCTYPE svg PUBLIC "-//W3C//DTD SVG 1.0//EN" "http://www.w3.org/TR/2001/REC-SVG-20010904/DTD/svg10.dtd">
<svg xmlns="http://www.w3.org/2000/svg" width="109" height="109" viewBox="0 0 109 109">
	<g id="HelperGrid" style="opacity:0.75;">
		<rect x="0.5" y="0.5" style="fill:none;stroke:#404040;" width="108" height="108"/> 
		<line style="fill:none;stroke:#404040;" x1="0.5" y1="72.51" x2="108.5" y2="72.51"/>
		<line style="fill:none;stroke:#404040;" x1="0.5" y1="36.49" x2="108.5" y2="36.49"/>
		<line style="fill:none;stroke:#404040;" x1="72.5" y1="0.5" x2="72.5" y2="108.5"/>
		<line style="fill:none;stroke:#404040;" x1="36.5" y1="0.5" x2="36.5" y2="108.5"/>
	</g>
	<g id="Kanji">
		<text transform="matrix(1 0 0 1 0.5 93.3799)" style="font-size:108;">冊</text>
	</g>
	<g id="StrokeNumbers" style="font-size:8;fill:#808080">
		<text transform="matrix(1 0 0 1 22.5 28.6299)">1</text>
		<text transform="matrix(1 0 0 1 31.5 17.5)">2</text>
		<text transform="matrix(1 0 0 1 38.5 30.0547)">3</text>
		<text transform="matrix(1 0 0 1 55.5 28.479)">4</text>
		<text transform="matrix(1 0 0 1 11.25 49.4043)">5</text>
	</g>
	<g id="StrokePaths" style="fill:none;stroke:#404040;stroke-width:3;stroke-linecap:round;stroke-linejoin:round;">
		<path d="M27.19,18.64c0.84,0.83,1.53,2.36,1.53,4.53c0,2.26-0.04,48.62-0.05,65.7c0,3.36,0,5.59,0,6.12"/>
		<path d="M29.71,21.29c7.38-0.96,41.79-4.54,48.31-5.3c3.17-0.37,5.05,0.76,5.05,4.13c0,2.01-0.58,61.86-0.58,67.38c0,8.88-4.41,3.16-6.88,0.69"/>
		<path d="M45.37,22.5c0.81,0.81,1.21,2.25,1.21,3.5c0,0.69,0.05,43.47,0.04,59.25c0,3.4,0,5.55-0.01,5.75"/>
		<path d="M62.12,20.5c0.75,0.75,1.21,1.75,1.21,3.25c0,2.65,0.05,44.8,0.04,61c0,3.7,0,6.04-0.01,6.25"/>
		<path d="M12.5,53.45c3.02,1.08,7.1,0.72,10.25,0.43c16-1.5,45-3.38,66.87-4.03c2.67-0.08,5.75,0.14,8.38,0.7"/>
	</g>
</svg>
