<?xml version="1.0" encoding="UTF-8"?>
<!-- Copyright (C) 2009 Ulrich Apel.
This work is distributed under the conditions of the Creative Commons
Attribution-Share Alike 3.0 Licence. This means you are free:
* to Share - to copy, distribute and transmit the work
* to Remix - to adapt the work

Under the following conditions:
* Attribution. You must attribute the work by stating your use of KanjiVG in
  your own copyright header and linking to KanjiVG's website
  (http://kanjivg.tagaini.net)
* Share Alike. If you alter, transform, or build upon this work, you may
  distribute the resulting work only under the same or similar license to this
  one.

See http://creativecommons.org/licenses/by-sa/3.0/ for more details. -->
<!DOCTYPE svg PUBLIC "-//W3C//DTD SVG 1.0//EN" "http://www.w3.org/TR/2001/REC-SVG-20010904/DTD/svg10.dtd">
<svg xmlns="http://www.w3.org/2000/svg" width="109" height="109" viewBox="0 0 109 109">
	<g id="HelperGrid" style="opacity:0.75;">
		<rect x="0.5" y="0.5" style="fill:none;stroke:#404040;" width="108" height="108"/> 
		<line style="fill:none;stroke:#404040;" x1="0.5" y1="72.51" x2="108.5" y2="72.51"/>
		<line style="fill:none;stroke:#404040;" x1="0.5" y1="36.49" x2="108.5" y2="36.49"/>
		<line style="fill:none;stroke:#404040;" x1="72.5" y1="0.5" x2="72.5" y2="108.5"/>
		<line style="fill:none;stroke:#404040;" x1="36.5" y1="0.5" x2="36.5" y2="108.5"/>
	</g>
	<g id="Kanji">
		<text transform="matrix(1 0 0 1 0.5 93.3799)" style="font-size:108;">决</text>
	</g>
	<g id="StrokeNumbers" style="font-size:8;fill:#808080">
		<text transform="matrix(1 0 0 1 7.5 23.5)">1</text>
		<text transform="matrix(1 0 0 1 5.5 84.5)">2</text>
		<text transform="matrix(1 0 0 1 34.5 37.5)">3</text>
		<text transform="matrix(1 0 0 1 33.5 54.5)">4</text>
		<text transform="matrix(1 0 0 1 51.5 14.5)">5</text>
		<text transform="matrix(1 0 0 1 70.5 65.5)">6</text>
	</g>
	<g id="StrokePaths" style="fill:none;stroke:#404040;stroke-width:3;stroke-linecap:round;stroke-linejoin:round;">
		<path d="M14.25,23.5c3.62,1.41,9.34,5.8,10.25,8"/>
		<path d="M12.75,81.71c1.5,1.31,3.31,1.36,4.25-0.25C19.75,76.75,22.5,71,25,65"/>
		<path d="M41.55,37.57c1.41,0.72,3.05,0.86,5.17,0.71c3.78-0.28,28.98-3.43,31.78-3.86c4.7-0.72,4.33,2.19,3.74,6.33c-0.5,3.5-1,7-2.75,13.5"/>
		<path d="M36.12,58.03c0.91,0.42,3.24,0.66,4.24,0.59c11.63-0.87,33.76-4.54,49.04-4.94c1.26-0.03,3.05,0.16,5.87,0.89"/>
		<path d="M59.66,14.5c0.59,1,1.7,2.08,1.7,4.17c0,8.89-0.06,9.37,0.05,16.09C61.85,61.78,54,84.75,34.5,95.75"/>
		<path d="M59.56,56.96c8.17,9.1,24.78,28.47,32.94,34.56c2.77,2.07,3.74,2.38,5,2.58"/>
	</g>
</svg>
