<?xml version="1.0" encoding="UTF-8"?>
<!DOCTYPE svg PUBLIC "-//W3C//DTD SVG 1.0//EN" "http://www.w3.org/TR/2001/REC-SVG-20010904/DTD/svg10.dtd">
<svg xmlns="http://www.w3.org/2000/svg" width="109" height="109" viewBox="0 0 109 109">
	<g id="HelperGrid" style="opacity:0.75;">
		<rect x="0.5" y="0.5" style="fill:none;stroke:#404040;" width="108" height="108"/> 
		<line style="fill:none;stroke:#404040;" x1="0.5" y1="72.51" x2="108.5" y2="72.51"/>
		<line style="fill:none;stroke:#404040;" x1="0.5" y1="36.49" x2="108.5" y2="36.49"/>
		<line style="fill:none;stroke:#404040;" x1="72.5" y1="0.5" x2="72.5" y2="108.5"/>
		<line style="fill:none;stroke:#404040;" x1="36.5" y1="0.5" x2="36.5" y2="108.5"/>
	</g>
	<g id="Kanji">
		<text transform="matrix(1 0 0 1 0.5 93.3799)" style="font-size:108;">凶</text>
	</g>
	<g id="StrokeNumbers" style="font-size:8;fill:#808080">
		<text transform="matrix(1 0 0 1 59.5 18.5)">1</text>
		<text transform="matrix(1 0 0 1 33.5 34.6299)">2</text>
		<text transform="matrix(1 0 0 1 10.5 39.5)">3</text>
		<text transform="matrix(1 0 0 1 80.5 36.5)">4</text>
	</g>
	<g id="StrokePaths" style="fill:none;stroke:#404040;stroke-width:3;stroke-linecap:round;stroke-linejoin:round;">
		<path d="M67.6,18.18c0.59,1.4,0.68,3-0.21,5.47C59.5,45.75,48.38,62.62,31,75.07"/>
		<path d="M37.5,38.5c12.4,4.45,30.24,18.89,36.72,29.47"/>
		<path d="M21.06,40.38c1.09,1.09,1.31,2.62,1.26,4.25c-0.17,5.59-0.82,28.74-1.14,37.25c-0.13,3.38,0.08,5.07,3.93,4.84c14.68-0.91,55.67-4.53,63.39-4.97"/>
		<path d="M89.31,36.63c1.22,1.22,1.69,2.49,1.76,4.25c0.03,0.76-0.61,21.34-1.17,38.38c-0.11,3.32-0.22,6.5-0.33,9.38"/>
	</g>
</svg>
