<?xml version="1.0" encoding="UTF-8"?>
<!-- Copyright (C) 2009 Ulrich Apel.
This work is distributed under the conditions of the Creative Commons
Attribution-Share Alike 3.0 Licence. This means you are free:
* to Share - to copy, distribute and transmit the work
* to Remix - to adapt the work

Under the following conditions:
* Attribution. You must attribute the work by stating your use of KanjiVG in
  your own copyright header and linking to KanjiVG's website
  (http://kanjivg.tagaini.net)
* Share Alike. If you alter, transform, or build upon this work, you may
  distribute the resulting work only under the same or similar license to this
  one.

See http://creativecommons.org/licenses/by-sa/3.0/ for more details. -->
<!DOCTYPE svg PUBLIC "-//W3C//DTD SVG 1.0//EN" "http://www.w3.org/TR/2001/REC-SVG-20010904/DTD/svg10.dtd">
<svg xmlns="http://www.w3.org/2000/svg" width="109" height="109" viewBox="0 0 109 109">
	<g id="HelperGrid" style="opacity:0.75;">
		<rect x="0.5" y="0.5" style="fill:none;stroke:#404040;" width="108" height="108"/> 
		<line style="fill:none;stroke:#404040;" x1="0.5" y1="72.51" x2="108.5" y2="72.51"/>
		<line style="fill:none;stroke:#404040;" x1="0.5" y1="36.49" x2="108.5" y2="36.49"/>
		<line style="fill:none;stroke:#404040;" x1="72.5" y1="0.5" x2="72.5" y2="108.5"/>
		<line style="fill:none;stroke:#404040;" x1="36.5" y1="0.5" x2="36.5" y2="108.5"/>
	</g>
	<g id="Kanji">
		<text transform="matrix(1 0 0 1 0.5 93.3799)" style="font-size:108;">初</text>
	</g>
	<g id="StrokeNumbers" style="font-size:8;fill:#808080">
		<text transform="matrix(1 0 0 1 20.5 11.5)">1</text>
		<text transform="matrix(1 0 0 1 5.5 31.5)">2</text>
		<text transform="matrix(1 0 0 1 25.5 65.5)">3</text>
		<text transform="matrix(1 0 0 1 44.25 39.1299)">4</text>
		<text transform="matrix(1 0 0 1 36.5 67.5)">5</text>
		<text transform="matrix(1 0 0 1 54.5 34.5)">6</text>
		<text transform="matrix(1 0 0 1 61.5 48.5)">7</text>
	</g>
	<g id="StrokePaths" style="fill:none;stroke:#404040;stroke-width:3;stroke-linecap:round;stroke-linejoin:round;">
		<path d="M26.95,11.12c2.85,2.32,6.44,5.81,8.88,9.88"/>
		<path d="M13.58,31c1.01,0.45,3.03,0.66,4.76,0.45c5.79-0.69,19.67-4.32,23.24-5.7c2.44-0.94,4.42,1.2,3,3.5c-8.33,13.5-19.83,28.25-32.33,39"/>
		<path d="M31.75,49.86c0.76,0.76,1.27,2.02,1.27,3.89c0,8.76,0.03,27.66,0.05,37.38c0,2.77,0.01,4.79,0.01,5.62"/>
		<path d="M46.5,42.14c0.2,0.85-0.1,1.83-0.5,2.45c-1.2,1.87-4.65,5.45-7.05,7.66"/>
		<path d="M36.75,54.62c3.63,2.45,6.98,5.61,10.08,9.87"/>
		<path d="M53.26,37.63c1.84,0.69,4.16,0.6,5.76,0.37c13.11-1.91,23.14-4.14,30.41-4.85c4.73-0.46,6.33,1.37,6.07,4.57c-0.69,8.45-9.17,41.71-15.88,51.21c-4.49,6.36-7.37,2.44-10.61,0.06"/>
		<path d="M70.13,40.12c0.43,1.16,0.34,2.82-0.16,4.31C65.12,58.88,57.38,76.5,43.75,88.08"/>
	</g>
</svg>
