<?xml version="1.0" encoding="UTF-8"?>
<!-- Copyright (C) 2009 Ulrich Apel.
This work is distributed under the conditions of the Creative Commons
Attribution-Share Alike 3.0 Licence. This means you are free:
* to Share - to copy, distribute and transmit the work
* to Remix - to adapt the work

Under the following conditions:
* Attribution. You must attribute the work by stating your use of KanjiVG in
  your own copyright header and linking to KanjiVG's website
  (http://kanjivg.tagaini.net)
* Share Alike. If you alter, transform, or build upon this work, you may
  distribute the resulting work only under the same or similar license to this
  one.

See http://creativecommons.org/licenses/by-sa/3.0/ for more details. -->
<!DOCTYPE svg PUBLIC "-//W3C//DTD SVG 1.0//EN" "http://www.w3.org/TR/2001/REC-SVG-20010904/DTD/svg10.dtd">
<svg xmlns="http://www.w3.org/2000/svg" width="109" height="109" viewBox="0 0 109 109">
	<g id="HelperGrid" style="opacity:0.75;">
		<rect x="0.5" y="0.5" style="fill:none;stroke:#404040;" width="108" height="108"/> 
		<line style="fill:none;stroke:#404040;" x1="0.5" y1="72.51" x2="108.5" y2="72.51"/>
		<line style="fill:none;stroke:#404040;" x1="0.5" y1="36.49" x2="108.5" y2="36.49"/>
		<line style="fill:none;stroke:#404040;" x1="72.5" y1="0.5" x2="72.5" y2="108.5"/>
		<line style="fill:none;stroke:#404040;" x1="36.5" y1="0.5" x2="36.5" y2="108.5"/>
	</g>
	<g id="Kanji">
		<text transform="matrix(1 0 0 1 0.5 93.3799)" style="font-size:108;">判</text>
	</g>
	<g id="StrokeNumbers" style="font-size:8;fill:#808080">
		<text transform="matrix(1 0 0 1 12.75 25.6299)">1</text>
		<text transform="matrix(1 0 0 1 48.5 18.1299)">2</text>
		<text transform="matrix(1 0 0 1 11.25 49.5)">3</text>
		<text transform="matrix(1 0 0 1 6.75 68.5)">4</text>
		<text transform="matrix(1 0 0 1 28.5 14.5)">5</text>
		<text transform="matrix(1 0 0 1 66.5 22.5)">6</text>
		<text transform="matrix(1 0 0 1 81.5 12.5)">7</text>
	</g>
	<g id="StrokePaths" style="fill:none;stroke:#404040;stroke-width:3;stroke-linecap:round;stroke-linejoin:round;">
		<path d="M18.67,24.33c2.58,2.41,6.67,9.89,7.32,13.63"/>
		<path d="M56.78,19c0.03,0.39,0.05,1-0.05,1.56c-0.64,3.29-4.8,10.02-9.82,14.44"/>
		<path d="M18.58,48.83c1.53,0.68,3.83,0.35,5.42,0.05c7.35-1.38,19.6-3.54,26.76-4.21c1.57-0.15,2.95-0.26,4.47,0.15"/>
		<path d="M14,67.84c1.93,0.75,4.01,0.46,5.98,0.16c8.59-1.35,26.11-4.49,34.03-5.4c2.14-0.25,4.12-0.3,6.24,0.19"/>
		<path d="M37.37,14.25c1.06,1.06,1.21,2.38,1.21,4c0,39.5,1.3,63-8.22,80.75"/>
		<path d="M69.27,25.83c0.98,0.92,1.76,2.54,1.76,5.02c0,11.84-0.01,23.75-0.02,31.27c0,2.82,0,5.02,0,6.38"/>
		<path d="M90.27,11.83c0.98,0.92,1.76,2.79,1.76,5.02c0,16.65-0.01,67.66-0.01,72.62c0,12.53-7.21,1.5-8.71,0.25"/>
	</g>
</svg>
