<?xml version="1.0" encoding="UTF-8"?>
<!-- Copyright (C) 2009 Ulrich Apel.
This work is distributed under the conditions of the Creative Commons
Attribution-Share Alike 3.0 Licence. This means you are free:
* to Share - to copy, distribute and transmit the work
* to Remix - to adapt the work

Under the following conditions:
* Attribution. You must attribute the work by stating your use of KanjiVG in
  your own copyright header and linking to KanjiVG's website
  (http://kanjivg.tagaini.net)
* Share Alike. If you alter, transform, or build upon this work, you may
  distribute the resulting work only under the same or similar license to this
  one.

See http://creativecommons.org/licenses/by-sa/3.0/ for more details. -->
<!DOCTYPE svg PUBLIC "-//W3C//DTD SVG 1.0//EN" "http://www.w3.org/TR/2001/REC-SVG-20010904/DTD/svg10.dtd">
<svg xmlns="http://www.w3.org/2000/svg" width="109" height="109" viewBox="0 0 109 109">
	<g id="HelperGrid" style="opacity:0.75;">
		<rect x="0.5" y="0.5" style="fill:none;stroke:#404040;" width="108" height="108"/> 
		<line style="fill:none;stroke:#404040;" x1="0.5" y1="72.51" x2="108.5" y2="72.51"/>
		<line style="fill:none;stroke:#404040;" x1="0.5" y1="36.49" x2="108.5" y2="36.49"/>
		<line style="fill:none;stroke:#404040;" x1="72.5" y1="0.5" x2="72.5" y2="108.5"/>
		<line style="fill:none;stroke:#404040;" x1="36.5" y1="0.5" x2="36.5" y2="108.5"/>
	</g>
	<g id="Kanji">
		<text transform="matrix(1 0 0 1 0.5 93.3799)" style="font-size:108;">刹</text>
	</g>
	<g id="StrokeNumbers" style="font-size:8;fill:#808080">
		<text transform="matrix(1 0 0 1 40.5 13.5)">1</text>
		<text transform="matrix(1 0 0 1 13.5 20.5)">2</text>
		<text transform="matrix(1 0 0 1 6.5 57.5)">3</text>
		<text transform="matrix(1 0 0 1 28.5 44.4043)">4</text>
		<text transform="matrix(1 0 0 1 24.5 67.5)">5</text>
		<text transform="matrix(1 0 0 1 45.5 65.5)">6</text>
		<text transform="matrix(1 0 0 1 60.25 25.5)">7</text>
		<text transform="matrix(1 0 0 1 78.5 13.5)">8</text>
	</g>
	<g id="StrokePaths" style="fill:none;stroke:#404040;stroke-width:3;stroke-linecap:round;stroke-linejoin:round;">
		<path d="M48.13,13.68c0.12,0.82,0.6,2.3-0.25,3.44C40.24,27.3,31.35,34.99,17,41.75"/>
		<path d="M21.7,19.47c8.03,1.33,23.76,10.17,30.34,20"/>
		<path d="M12.53,57.71c0.54,0.24,3.77,0.41,5.21,0.31c6.21-0.41,23.24-3.21,33.23-4.41c1.44-0.17,3.39-0.24,4.3,0"/>
		<path d="M36.27,40.5c1.09,0.47,1.61,2.25,1.61,4.92c0,0.96-0.36,45.72-0.36,46.58c0,11.75-4.14,4.38-6.27,2.25"/>
		<path d="M37.33,57.78C31.75,69.25,21.5,80.25,12.02,86.59"/>
		<path d="M41.34,64.65c3.39,1.88,9.16,6.85,11.84,11.6"/>
		<path d="M67.77,25.33c0.98,0.92,1.67,1.99,1.76,5.02C69.92,44.91,69.5,63.04,69.5,68"/>
		<path d="M88.77,13.33c0.98,0.92,1.67,1.99,1.76,5.02c0.4,14.55-0.26,65.66-0.26,70.62c0,13.14-7.21,1.5-8.71,0.25"/>
	</g>
</svg>
