<?xml version="1.0" encoding="UTF-8"?>
<!DOCTYPE svg PUBLIC "-//W3C//DTD SVG 1.0//EN" "http://www.w3.org/TR/2001/REC-SVG-20010904/DTD/svg10.dtd">
<svg xmlns="http://www.w3.org/2000/svg" width="109" height="109" viewBox="0 0 109 109">
	<g id="HelperGrid" style="opacity:0.75;">
		<rect x="0.5" y="0.5" style="fill:none;stroke:#404040;" width="108" height="108"/> 
		<line style="fill:none;stroke:#404040;" x1="0.5" y1="72.51" x2="108.5" y2="72.51"/>
		<line style="fill:none;stroke:#404040;" x1="0.5" y1="36.49" x2="108.5" y2="36.49"/>
		<line style="fill:none;stroke:#404040;" x1="72.5" y1="0.5" x2="72.5" y2="108.5"/>
		<line style="fill:none;stroke:#404040;" x1="36.5" y1="0.5" x2="36.5" y2="108.5"/>
	</g>
	<g id="Kanji">
		<text transform="matrix(1 0 0 1 0.5 93.3799)" style="font-size:108;">剰</text>
	</g>
	<g id="StrokeNumbers" style="font-size:8;fill:#808080">
		<text transform="matrix(1 0 0 1 36.5 12.1299)">1</text>
		<text transform="matrix(1 0 0 1 7.5 34.5)">2</text>
		<text transform="matrix(1 0 0 1 5.5 49.5)">3</text>
		<text transform="matrix(1 0 0 1 15.5 43.5)">4</text>
		<text transform="matrix(1 0 0 1 44.5 39.5)">5</text>
		<text transform="matrix(1 0 0 1 10.5 61.5)">6</text>
		<text transform="matrix(1 0 0 1 31.5 28.5)">7</text>
		<text transform="matrix(1 0 0 1 26.5 69.5)">8</text>
		<text transform="matrix(1 0 0 1 51.5 67.5)">9</text>
		<text transform="matrix(1 0 0 1 64.5 22.5)">10</text>
		<text transform="matrix(1 0 0 1 79.5 14.5)">11</text>
	</g>
	<g id="StrokePaths" style="fill:none;stroke:#404040;stroke-width:3;stroke-linecap:round;stroke-linejoin:round;">
		<path d="M46.51,12.64c0.07,0.25,0.15,0.64-0.15,1c-1.76,2.11-11.85,6.74-25.66,9.57"/>
		<path d="M14.59,32.95c1.18,0.54,3.33,0.62,4.51,0.54c7.18-0.49,25.35-4.24,37.32-4.23c1.96,0,3.14,0.26,4.12,0.53"/>
		<path d="M12.25,47.45c1.3,0.54,3.69,0.7,4.98,0.54c10.02-1.24,28.02-3.99,42.58-5.23c2.16-0.18,3.46,0.26,4.55,0.53"/>
		<path d="M17.52,59.95c1,0.54,2.82,0.69,3.82,0.54c5.04-0.74,26.35-3.74,34.5-4.23c1.66-0.1,2.66,0.26,3.49,0.53"/>
		<path d="M22.92,39.13c0.65,0.38,2.1,2.82,2.15,3.59c0.36,5.17,1.31,13.15,1.65,16.78"/>
		<path d="M53.87,34.88c0.3,0.9,1.15,2.29,1.04,3.01c-0.57,3.51-1.43,12.54-2.63,18.36"/>
		<path d="M38.82,21.38c0.65,0.45,1.29,2.12,1.29,4.25c0,5.37-0.21,64.64-0.21,65.25c0,10.62-5.15,2.37-6.4,1.12"/>
		<path d="M39.7,59.75C34.94,68.89,22.55,81.83,12.64,87"/>
		<path d="M44.34,64.5C49,67.25,55.5,73.25,58.11,78.94"/>
		<path d="M72.27,25.33c0.98,0.92,1.67,1.99,1.76,5.02C74.42,44.91,74,61.54,74,66.5"/>
		<path d="M90.77,12.83c0.98,0.92,1.67,1.99,1.76,5.02c0.4,14.55-0.26,66.16-0.26,71.12c0,13.14-6.21,2-7.71,0.75"/>
	</g>
</svg>
