<?xml version="1.0" encoding="UTF-8"?>
<!DOCTYPE svg PUBLIC "-//W3C//DTD SVG 1.0//EN" "http://www.w3.org/TR/2001/REC-SVG-20010904/DTD/svg10.dtd">
<svg xmlns="http://www.w3.org/2000/svg" width="109" height="109" viewBox="0 0 109 109">
	<g id="HelperGrid" style="opacity:0.75;">
		<rect x="0.5" y="0.5" style="fill:none;stroke:#404040;" width="108" height="108"/> 
		<line style="fill:none;stroke:#404040;" x1="0.5" y1="72.51" x2="108.5" y2="72.51"/>
		<line style="fill:none;stroke:#404040;" x1="0.5" y1="36.49" x2="108.5" y2="36.49"/>
		<line style="fill:none;stroke:#404040;" x1="72.5" y1="0.5" x2="72.5" y2="108.5"/>
		<line style="fill:none;stroke:#404040;" x1="36.5" y1="0.5" x2="36.5" y2="108.5"/>
	</g>
	<g id="Kanji">
		<text transform="matrix(1 0 0 1 0.5 93.3799)" style="font-size:108;">劃</text>
	</g>
	<g id="StrokeNumbers" style="font-size:8;fill:#808080">
		<text transform="matrix(1 0 0 1 14.5 21.1299)">1</text>
		<text transform="matrix(1 0 0 1 3.5 31.0547)">2</text>
		<text transform="matrix(1 0 0 1 12.5 40.979)">3</text>
		<text transform="matrix(1 0 0 1 11.75 49.5)">4</text>
		<text transform="matrix(1 0 0 1 4.5 60.5)">5</text>
		<text transform="matrix(1 0 0 1 27.5 10.7549)">6</text>
		<text transform="matrix(1 0 0 1 14.75 73.5)">7</text>
		<text transform="matrix(1 0 0 1 22.75 64.5)">8</text>
		<text transform="matrix(1 0 0 1 41.5 70.5293)">9</text>
		<text transform="matrix(1 0 0 1 26.75 72.4541)">10</text>
		<text transform="matrix(1 0 0 1 27.75 81.3799)">11</text>
		<text transform="matrix(1 0 0 1 2.5 95.3047)">12</text>
		<text transform="matrix(1 0 0 1 65.5 20.5)">13</text>
		<text transform="matrix(1 0 0 1 77.5 11.5)">14</text>
	</g>
	<g id="StrokePaths" style="fill:none;stroke:#404040;stroke-width:3;stroke-linecap:round;stroke-linejoin:round;">
		<path d="M21.23,20.07c1.64,0.21,2.1,0.55,3.6,0.42c6.88-0.62,21.47-2.73,28.03-3.14c2.13-0.13,3.59,1.01,3.28,3.12c-0.51,3.47-2.62,7.22-3.77,16.63"/>
		<path d="M10.52,30.47c1.58,0.45,2.81,0.62,4.56,0.45c15.45-1.56,34.14-3.62,46.25-4.29c1.94-0.11,3.51,0.45,4.39,0.67"/>
		<path d="M20.18,39.83c0.88,0.22,2.46,0.34,3.51,0.22c9.66-1.11,19.49-1.78,28.26-2.9c1.4-0.18,2.28,0,3.33,0.22"/>
		<path d="M18.25,49.18c0.87,0.43,2.46,0.47,3.33,0.43c9.04-0.49,21.8-2.28,30.61-3.21c1.44-0.15,2.32,0.2,3.04,0.42"/>
		<path d="M11.52,59.03c1.07,0.48,3.03,0.63,4.09,0.48c12.5-1.8,34.02-4.3,43.72-4.71c1.78-0.08,2.84,0.23,3.73,0.47"/>
		<path d="M36.94,10.25c0.76,0.45,1.22,2.01,1.38,2.9c0.15,0.89,0,37.6-0.15,43.17"/>
		<path d="M20.68,65.76c0.24,0.31,0.74,1.03,0.87,1.43c1.06,3.27,2.89,13.5,3.52,19.61"/>
		<path d="M22.31,67.17c8.86-1.37,23.91-3.35,30.21-4.08c2.31-0.27,3.08,0.54,2.99,2.49c-0.15,3.36-1.66,12.53-2.13,17.7"/>
		<path d="M38.16,65.57c-0.02,0.26-0.03,0.71-0.03,1.3c-0.03,3.88,0.15,13.81,0.15,15.22"/>
		<path d="M23.81,75.17c6.77-0.81,13.57-1.42,20.36-2.09c0.82-0.08,1.61-0.16,2.37-0.23"/>
		<path d="M24.64,83.96c6.08-0.39,20.43-2.03,28.82-2.66"/>
		<path d="M14.84,95.2c1.02,1.43,2.9,1.61,3.92,1.43c11.65-2.03,32.74-7.63,43-9.86"/>
		<path d="M72.27,24.33c0.98,0.92,1.67,1.99,1.76,5.02C74.42,43.91,74,64.04,74,69"/>
		<path d="M91.27,12.33c0.98,0.92,1.67,1.99,1.76,5.02c0.4,14.55-0.26,67.66-0.26,72.62c0,11.53-7.21,1.5-8.71,0.25"/>
	</g>
</svg>
