<?xml version="1.0" encoding="UTF-8"?>
<!DOCTYPE svg PUBLIC "-//W3C//DTD SVG 1.0//EN" "http://www.w3.org/TR/2001/REC-SVG-20010904/DTD/svg10.dtd">
<svg xmlns="http://www.w3.org/2000/svg" width="109" height="109" viewBox="0 0 109 109">
	<g id="HelperGrid" style="opacity:0.75;">
		<rect x="0.5" y="0.5" style="fill:none;stroke:#404040;" width="108" height="108"/> 
		<line style="fill:none;stroke:#404040;" x1="0.5" y1="72.51" x2="108.5" y2="72.51"/>
		<line style="fill:none;stroke:#404040;" x1="0.5" y1="36.49" x2="108.5" y2="36.49"/>
		<line style="fill:none;stroke:#404040;" x1="72.5" y1="0.5" x2="72.5" y2="108.5"/>
		<line style="fill:none;stroke:#404040;" x1="36.5" y1="0.5" x2="36.5" y2="108.5"/>
	</g>
	<g id="Kanji">
		<text transform="matrix(1 0 0 1 0.5 93.3799)" style="font-size:108;">加</text>
	</g>
	<g id="StrokeNumbers" style="font-size:8;fill:#808080">
		<text transform="matrix(1 0 0 1 9.5 45.1299)">1</text>
		<text transform="matrix(1 0 0 1 26.5 16.5)">2</text>
		<text transform="matrix(1 0 0 1 57.75 55.6299)">3</text>
		<text transform="matrix(1 0 0 1 66.5 40.4053)">4</text>
		<text transform="matrix(1 0 0 1 72.4922 76.3301)">5</text>
	</g>
	<g id="StrokePaths" style="fill:none;stroke:#404040;stroke-width:3;stroke-linecap:round;stroke-linejoin:round;">
		<path d="M15.4,43.01c2.22,0.87,5.03,0.82,7.65,0.31c8.82-1.69,22.9-4.62,26.59-5.2c2.64-0.41,3.89,1.37,3.72,4.27c-0.49,8.49-4.91,30.77-11.61,41.36c-3.88,6.12-5.88,3.25-8.42,0.21"/>
		<path d="M35.57,16.68c0.81,1.07,1.12,2.62,0.93,4.57c-2.12,21.88-8.12,47.88-26.46,66.39"/>
		<path d="M62.86,42.32c0.85,0.85,1.48,2.02,1.61,2.89c1.02,7.12,2.12,20.88,3.11,33.28c0.13,1.6,0.25,3.18,0.38,4.72"/>
		<path d="M64.79,43.93c9.47-1.3,18.22-2.58,24.08-3.27c4.63-0.54,6.72,1.58,6.01,6.72c-1.42,10.17-2.66,16.65-4.25,29.71"/>
		<path d="M69.06,80.16c6.52-0.58,12.26-0.97,20.2-1.68c1.12-0.1,2.28-0.2,3.48-0.3"/>
	</g>
</svg>
