<?xml version="1.0" encoding="UTF-8"?>
<!DOCTYPE svg PUBLIC "-//W3C//DTD SVG 1.0//EN" "http://www.w3.org/TR/2001/REC-SVG-20010904/DTD/svg10.dtd">
<svg xmlns="http://www.w3.org/2000/svg" width="109" height="109" viewBox="0 0 109 109">
	<g id="HelperGrid" style="opacity:0.75;">
		<rect x="0.5" y="0.5" style="fill:none;stroke:#404040;" width="108" height="108"/> 
		<line style="fill:none;stroke:#404040;" x1="0.5" y1="72.51" x2="108.5" y2="72.51"/>
		<line style="fill:none;stroke:#404040;" x1="0.5" y1="36.49" x2="108.5" y2="36.49"/>
		<line style="fill:none;stroke:#404040;" x1="72.5" y1="0.5" x2="72.5" y2="108.5"/>
		<line style="fill:none;stroke:#404040;" x1="36.5" y1="0.5" x2="36.5" y2="108.5"/>
	</g>
	<g id="Kanji">
		<text transform="matrix(1 0 0 1 0.5 93.3799)" style="font-size:108;">劫</text>
	</g>
	<g id="StrokeNumbers" style="font-size:8;fill:#808080">
		<text transform="matrix(1 0 0 1 11.5 39.5)">1</text>
		<text transform="matrix(1 0 0 1 24.5 14.5)">2</text>
		<text transform="matrix(1 0 0 1 5.5 60.5)">3</text>
		<text transform="matrix(1 0 0 1 26.5 66.5)">4</text>
		<text transform="matrix(1 0 0 1 46.5 70.5)">5</text>
		<text transform="matrix(1 0 0 1 58.5 38.5)">6</text>
		<text transform="matrix(1 0 0 1 65.5 16.5)">7</text>
	</g>
	<g id="StrokePaths" style="fill:none;stroke:#404040;stroke-width:3;stroke-linecap:round;stroke-linejoin:round;">
		<path d="M18.33,38.59c2.69,0.56,5.31,0.16,8.07-0.3c6.35-1.05,12.97-2.3,19.6-3.03c2.26-0.25,4.43-0.52,6.62-0.04"/>
		<path d="M34.8,15.5c0.97,0.97,1.13,2,1.13,3.02c0,7.98,0.09,35.81,0.09,38.53"/>
		<path d="M13.25,59.5c2.75,0.37,5.5,0.3,8.24-0.19c9.26-1.36,19.74-2.75,27.9-3.43c3.03-0.31,6.07-0.28,9.11,0.1"/>
		<path d="M35.47,61.63c0,1.24-0.36,2.68-0.71,3.28c-4.88,8.47-7.87,13.36-13.24,20.35c-2.29,2.98-1.05,4.12,2.26,3.1c6.98-2.15,13.9-4.73,23.72-7.86"/>
		<path d="M44.28,70.35c2.9,2.81,7.5,11.54,8.22,15.9"/>
		<path d="M60.1,42.17c3.02,0.78,5.95,0.73,8.78-0.14c6.92-1.9,13.92-4.35,18.95-5.61c3.8-0.96,5.91,1.58,5.77,5.24c-0.28,7.13-3.76,28.44-8.56,41.41c-4.42,11.94-7.03,11.7-10.3,5.4"/>
		<path d="M74.85,16.93c0.68,1.38,0.97,2.17,0.87,3.58c-2.47,36.25-8.47,56.75-20.33,71.4"/>
	</g>
</svg>
