<?xml version="1.0" encoding="UTF-8"?>
<!DOCTYPE svg PUBLIC "-//W3C//DTD SVG 1.0//EN" "http://www.w3.org/TR/2001/REC-SVG-20010904/DTD/svg10.dtd">
<svg xmlns="http://www.w3.org/2000/svg" width="109" height="109" viewBox="0 0 109 109">
	<g id="HelperGrid" style="opacity:0.75;">
		<rect x="0.5" y="0.5" style="fill:none;stroke:#404040;" width="108" height="108"/> 
		<line style="fill:none;stroke:#404040;" x1="0.5" y1="72.51" x2="108.5" y2="72.51"/>
		<line style="fill:none;stroke:#404040;" x1="0.5" y1="36.49" x2="108.5" y2="36.49"/>
		<line style="fill:none;stroke:#404040;" x1="72.5" y1="0.5" x2="72.5" y2="108.5"/>
		<line style="fill:none;stroke:#404040;" x1="36.5" y1="0.5" x2="36.5" y2="108.5"/>
	</g>
	<g id="Kanji">
		<text transform="matrix(1 0 0 1 0.5 93.3799)" style="font-size:108;">劾</text>
	</g>
	<g id="StrokeNumbers" style="font-size:8;fill:#808080">
		<text transform="matrix(1 0 0 1 29.25 10.6299)">1</text>
		<text transform="matrix(1 0 0 1 8.25 27.0547)">2</text>
		<text transform="matrix(1 0 0 1 24.75 39.1299)">3</text>
		<text transform="matrix(1 0 0 1 38.25 40.5547)">4</text>
		<text transform="matrix(1 0 0 1 39.75 59.9785)">5</text>
		<text transform="matrix(1 0 0 1 45.75 74.9053)">6</text>
		<text transform="matrix(1 0 0 1 59.25 42.1299)">7</text>
		<text transform="matrix(1 0 0 1 66.75 21.1299)">8</text>
	</g>
	<g id="StrokePaths" style="fill:none;stroke:#404040;stroke-width:3;stroke-linecap:round;stroke-linejoin:round;">
		<path d="M36.88,13.07c0.9,0.9,1.16,2.06,1.16,3.82c0,4.08-0.05,6.4-0.05,9.61"/>
		<path d="M15.19,29.38c2.06,0.49,4.42,0.25,6.7-0.01c7.64-0.86,22.17-2.57,31.23-3.22c2.02-0.15,4.7-0.28,6.62,0.46"/>
		<path d="M35.6,31.11c0.41,1.18,0.23,2.53-0.63,3.81c-2.48,3.7-4.73,6.58-8.47,10.92c-0.69,0.79-0.5,2.31,0.25,2.69c3.62,1.85,5.51,2.89,9.18,5.04"/>
		<path d="M47.5,36.75c0,1.5-0.37,2.52-0.9,3.38C39.62,51.5,33.12,60.5,19.75,71.75"/>
		<path d="M48,57c0,1.62-0.56,2.95-1.54,4.32c-7.72,10.84-16.09,21.15-29.22,30.1"/>
		<path d="M40.12,74.75c3.66,1.59,9.46,6.53,10.38,9"/>
		<path d="M57.01,44.32c1.89,0.7,4.48,0.66,6.47,0.31c7.8-1.37,17.79-3.37,23.15-4.35c4.03-0.74,6.12-0.02,5.87,4.58C91.88,56.25,86,82.12,80.59,91.11c-3.77,6.26-7.91,0.55-9.01-0.41"/>
		<path d="M75.61,19.93c0.64,1.32,0.92,3.08,0.61,5.47C73.92,43.14,66.75,72.5,51,91.25"/>
	</g>
</svg>
