<?xml version="1.0" encoding="UTF-8"?>
<!-- Copyright (C) 2009 Ulrich Apel.
This work is distributed under the conditions of the Creative Commons
Attribution-Share Alike 3.0 Licence. This means you are free:
* to Share - to copy, distribute and transmit the work
* to Remix - to adapt the work

Under the following conditions:
* Attribution. You must attribute the work by stating your use of KanjiVG in
  your own copyright header and linking to KanjiVG's website
  (http://kanjivg.tagaini.net)
* Share Alike. If you alter, transform, or build upon this work, you may
  distribute the resulting work only under the same or similar license to this
  one.

See http://creativecommons.org/licenses/by-sa/3.0/ for more details. -->
<!DOCTYPE svg PUBLIC "-//W3C//DTD SVG 1.0//EN" "http://www.w3.org/TR/2001/REC-SVG-20010904/DTD/svg10.dtd">
<svg xmlns="http://www.w3.org/2000/svg" width="109" height="109" viewBox="0 0 109 109">
	<g id="HelperGrid" style="opacity:0.75;">
		<rect x="0.5" y="0.5" style="fill:none;stroke:#404040;" width="108" height="108"/> 
		<line style="fill:none;stroke:#404040;" x1="0.5" y1="72.51" x2="108.5" y2="72.51"/>
		<line style="fill:none;stroke:#404040;" x1="0.5" y1="36.49" x2="108.5" y2="36.49"/>
		<line style="fill:none;stroke:#404040;" x1="72.5" y1="0.5" x2="72.5" y2="108.5"/>
		<line style="fill:none;stroke:#404040;" x1="36.5" y1="0.5" x2="36.5" y2="108.5"/>
	</g>
	<g id="Kanji">
		<text transform="matrix(1 0 0 1 0.5 93.3799)" style="font-size:108;">勢</text>
	</g>
	<g id="StrokeNumbers" style="font-size:8;fill:#808080">
		<text transform="matrix(1 0 0 1 12.5 20.5)">1</text>
		<text transform="matrix(1 0 0 1 24.5 10.5)">2</text>
		<text transform="matrix(1 0 0 1 3.75 32.5)">3</text>
		<text transform="matrix(1 0 0 1 14.5 41.5)">4</text>
		<text transform="matrix(1 0 0 1 45.5 34.4043)">5</text>
		<text transform="matrix(1 0 0 1 17.25 52.3291)">6</text>
		<text transform="matrix(1 0 0 1 29.25 44.7549)">7</text>
		<text transform="matrix(1 0 0 1 9.75 64.5)">8</text>
		<text transform="matrix(1 0 0 1 60.5 9.5)">9</text>
		<text transform="matrix(1 0 0 1 54.5005 22.5)">10</text>
		<text transform="matrix(1 0 0 1 56.6992 34.479)">11</text>
		<text transform="matrix(1 0 0 1 19.5 73.5)">12</text>
		<text transform="matrix(1 0 0 1 43.5 63.1299)">13</text>
	</g>
	<g id="StrokePaths" style="fill:none;stroke:#404040;stroke-width:3;stroke-linecap:round;stroke-linejoin:round;">
		<path d="M18.98,20.11c1.08,0.27,3.07,0.41,4.14,0.27c6.51-0.87,14.88-2.14,21.13-2.76c1.78-0.18,2.88-0.17,3.78-0.04"/>
		<path d="M33.46,9.98c0.65,0.65,1.27,2.14,1.27,3.24c0,6.4-0.01,11.15-0.01,14.67"/>
		<path d="M11.43,30.91c1.09,0.32,3.08,0.44,4.16,0.32c9.66-1.05,23.66-3.1,32.17-4.73c1.77-0.34,3.15-0.1,4.05,0.06"/>
		<path d="M26.1,32.92c0.07,0.79-0.09,1.52-0.48,2.19C23.75,38.25,20,42.5,14.5,46"/>
		<path d="M40.98,29.05c0.5,0.55,0.92,1.19,0.92,2.03c0,1.13-0.15,2.01-0.15,2.82c0,2.21,1.7,3.11,4.93,3.11c2.93,0,4.59-0.5,5.83-1.21"/>
		<path d="M23.28,47.31c1.09,0.07,2.28,0.21,3.77,0.01c6.7-0.94,10.95-1.85,16.15-2.46c1.48-0.18,2.12-0.21,3.05,0"/>
		<path d="M34.62,36.75c0.88,0.88,1.46,2.12,1.46,3.17c0,3.83,0.03,9.08,0.03,14.69"/>
		<path d="M16.5,61.7c1.2,1.24,2.95,0.94,4.8,0.13c5.58-2.46,16.95-7.08,25.95-11.02"/>
		<path d="M68.99,10.62c0.51,0.88,0.61,2.54,0.46,3.64c-3.11,22.79-7.12,30.66-15.58,39.24"/>
		<path d="M57.2,24.92c1.18,0.33,2.77,0.15,3.96,0c1.19-0.15,9.46-2.04,15.38-3.48c2.84-0.69,3.96,0.06,3.52,3.06c-0.38,2.58-1.74,12.27-2.5,20.19C76.75,53,79.14,55.1,86.71,55.1c6.92,0,9.03-0.84,9.22-6.92"/>
		<path d="M58.75,35.69c3.73,1.69,9.63,6.96,10.56,9.59"/>
		<path d="M30.02,69.85c1.81,0.61,4.49,0.44,6.38,0.23c10.85-1.2,31.99-4.18,36.66-4.58c3.28-0.29,4.23,1.3,4.01,3.31c-0.82,7.32-5.19,19.57-9.82,25.94C64.72,98.23,61.5,96,59.5,94"/>
		<path d="M54.39,58.93c0.24,1.2,0.31,2.69-0.18,4.14C50.38,74.38,41.25,90,22.58,100.64"/>
	</g>
</svg>
