<?xml version="1.0" encoding="UTF-8"?>
<!-- Copyright (C) 2009 Ulrich Apel.
This work is distributed under the conditions of the Creative Commons
Attribution-Share Alike 3.0 Licence. This means you are free:
* to Share - to copy, distribute and transmit the work
* to Remix - to adapt the work

Under the following conditions:
* Attribution. You must attribute the work by stating your use of KanjiVG in
  your own copyright header and linking to KanjiVG's website
  (http://kanjivg.tagaini.net)
* Share Alike. If you alter, transform, or build upon this work, you may
  distribute the resulting work only under the same or similar license to this
  one.

See http://creativecommons.org/licenses/by-sa/3.0/ for more details. -->
<!DOCTYPE svg PUBLIC "-//W3C//DTD SVG 1.0//EN" "http://www.w3.org/TR/2001/REC-SVG-20010904/DTD/svg10.dtd">
<svg xmlns="http://www.w3.org/2000/svg" width="109" height="109" viewBox="0 0 109 109">
	<g id="HelperGrid" style="opacity:0.75;">
		<rect x="0.5" y="0.5" style="fill:none;stroke:#404040;" width="108" height="108"/> 
		<line style="fill:none;stroke:#404040;" x1="0.5" y1="72.51" x2="108.5" y2="72.51"/>
		<line style="fill:none;stroke:#404040;" x1="0.5" y1="36.49" x2="108.5" y2="36.49"/>
		<line style="fill:none;stroke:#404040;" x1="72.5" y1="0.5" x2="72.5" y2="108.5"/>
		<line style="fill:none;stroke:#404040;" x1="36.5" y1="0.5" x2="36.5" y2="108.5"/>
	</g>
	<g id="Kanji">
		<text transform="matrix(1 0 0 1 0.5 93.3799)" style="font-size:108;">勾</text>
	</g>
	<g id="StrokeNumbers" style="font-size:8;fill:#808080">
		<text transform="matrix(1 0 0 1 34.5 10.5)">1</text>
		<text transform="matrix(1 0 0 1 44.5 26.5)">2</text>
		<text transform="matrix(1 0 0 1 37.5 44.5)">3</text>
		<text transform="matrix(1 0 0 1 54.5 54.5)">4</text>
	</g>
	<g id="StrokePaths" style="fill:none;stroke:#404040;stroke-width:3;stroke-linecap:round;stroke-linejoin:round;">
		<path d="M41.99,10.5c0,1.12-0.02,2.12-0.4,3.41C39.25,22,29.91,39.27,16,49.63"/>
		<path d="M38,30.5c3.44,0.17,6.85,0,10.23-0.49c10.79-1.37,34.32-4.56,38.27-4.76c4.81-0.24,6.19,1.66,5.25,8.25c-0.64,4.48-3.76,33.52-11.1,51.89c-2.77,6.94-5.51,14.15-12.15,7.11"/>
		<path d="M45.42,43.75c0.03,1.31-0.22,2.53-0.95,3.55c-5.93,8.26-11.34,16.08-18.08,24.08c-2.46,2.92-2.58,4.79,2.02,3.48c10.47-2.99,16.22-4.49,29.84-8.36"/>
		<path d="M53.22,55.9c3.63,3.36,9.64,13.83,10.55,19.07"/>
	</g>
</svg>
