<?xml version="1.0" encoding="UTF-8"?>
<!-- Copyright (C) 2009 Ulrich Apel.
This work is distributed under the conditions of the Creative Commons
Attribution-Share Alike 3.0 Licence. This means you are free:
* to Share - to copy, distribute and transmit the work
* to Remix - to adapt the work

Under the following conditions:
* Attribution. You must attribute the work by stating your use of KanjiVG in
  your own copyright header and linking to KanjiVG's website
  (http://kanjivg.tagaini.net)
* Share Alike. If you alter, transform, or build upon this work, you may
  distribute the resulting work only under the same or similar license to this
  one.

See http://creativecommons.org/licenses/by-sa/3.0/ for more details. -->
<!DOCTYPE svg PUBLIC "-//W3C//DTD SVG 1.0//EN" "http://www.w3.org/TR/2001/REC-SVG-20010904/DTD/svg10.dtd">
<svg xmlns="http://www.w3.org/2000/svg" width="109" height="109" viewBox="0 0 109 109">
	<g id="HelperGrid" style="opacity:0.75;">
		<rect x="0.5" y="0.5" style="fill:none;stroke:#404040;" width="108" height="108"/> 
		<line style="fill:none;stroke:#404040;" x1="0.5" y1="72.51" x2="108.5" y2="72.51"/>
		<line style="fill:none;stroke:#404040;" x1="0.5" y1="36.49" x2="108.5" y2="36.49"/>
		<line style="fill:none;stroke:#404040;" x1="72.5" y1="0.5" x2="72.5" y2="108.5"/>
		<line style="fill:none;stroke:#404040;" x1="36.5" y1="0.5" x2="36.5" y2="108.5"/>
	</g>
	<g id="Kanji">
		<text transform="matrix(1 0 0 1 0.5 93.3799)" style="font-size:108;">匆</text>
	</g>
	<g id="StrokeNumbers" style="font-size:8;fill:#808080">
		<text transform="matrix(1 0 0 1 30.5 15.5)">1</text>
		<text transform="matrix(1 0 0 1 39.5 31.5)">2</text>
		<text transform="matrix(1 0 0 1 37.5 43.5)">3</text>
		<text transform="matrix(1 0 0 1 58.5 41.5)">4</text>
		<text transform="matrix(1 0 0 1 25.5 50.5)">5</text>
	</g>
	<g id="StrokePaths" style="fill:none;stroke:#404040;stroke-width:3;stroke-linecap:round;stroke-linejoin:round;">
		<path d="M38.5,15.5c0.06,0.76,0.33,2.03-0.13,3.05c-3.13,6.95-9.13,19.2-21.13,29.2"/>
		<path d="M32.75,34.14c1.29,0.67,3.05,0.57,5.16,0.45c6.09-0.34,39.5-3.76,44.66-3.98c5.16-0.22,6.2,2.24,5.42,6.95c-0.77,4.71-6.7,40.4-18.05,53.18c-3.41,3.84-5.21,1.68-8.26-1.12"/>
		<path d="M47.5,37.75c0.07,0.65,0.2,1.71-0.14,2.63C44,49.43,36,58.06,22.75,65.5"/>
		<path d="M67.44,35.5c0.13,1.26-0.05,3.3-0.76,5.04C62,52,48.32,73.98,24,88.25"/>
		<path d="M31.77,48.08c11.49,3.02,29.67,12.43,32.54,17.13"/>
	</g>
</svg>
