<?xml version="1.0" encoding="UTF-8"?>
<!-- Copyright (C) 2009 Ulrich Apel.
This work is distributed under the conditions of the Creative Commons
Attribution-Share Alike 3.0 Licence. This means you are free:
* to Share - to copy, distribute and transmit the work
* to Remix - to adapt the work

Under the following conditions:
* Attribution. You must attribute the work by stating your use of KanjiVG in
  your own copyright header and linking to KanjiVG's website
  (http://kanjivg.tagaini.net)
* Share Alike. If you alter, transform, or build upon this work, you may
  distribute the resulting work only under the same or similar license to this
  one.

See http://creativecommons.org/licenses/by-sa/3.0/ for more details. -->
<!DOCTYPE svg PUBLIC "-//W3C//DTD SVG 1.0//EN" "http://www.w3.org/TR/2001/REC-SVG-20010904/DTD/svg10.dtd">
<svg xmlns="http://www.w3.org/2000/svg" width="109" height="109" viewBox="0 0 109 109">
	<g id="HelperGrid" style="opacity:0.75;">
		<rect x="0.5" y="0.5" style="fill:none;stroke:#404040;" width="108" height="108"/> 
		<line style="fill:none;stroke:#404040;" x1="0.5" y1="72.51" x2="108.5" y2="72.51"/>
		<line style="fill:none;stroke:#404040;" x1="0.5" y1="36.49" x2="108.5" y2="36.49"/>
		<line style="fill:none;stroke:#404040;" x1="72.5" y1="0.5" x2="72.5" y2="108.5"/>
		<line style="fill:none;stroke:#404040;" x1="36.5" y1="0.5" x2="36.5" y2="108.5"/>
	</g>
	<g id="Kanji">
		<text transform="matrix(1 0 0 1 0.5 93.3799)" style="font-size:108;">匐</text>
	</g>
	<g id="StrokeNumbers" style="font-size:8;fill:#808080">
		<text transform="matrix(1 0 0 1 30.5 10.5)">1</text>
		<text transform="matrix(1 0 0 1 41.5 21.5)">2</text>
		<text transform="matrix(1 0 0 1 31.5 34.5)">3</text>
		<text transform="matrix(1 0 0 1 25.25 54.5)">4</text>
		<text transform="matrix(1 0 0 1 32.5 44.5)">5</text>
		<text transform="matrix(1 0 0 1 38.5 56.5)">6</text>
		<text transform="matrix(1 0 0 1 20.25 78.1797)">7</text>
		<text transform="matrix(1 0 0 1 30.25 67.5)">8</text>
		<text transform="matrix(1 0 0 1 51.5 74.5)">9</text>
		<text transform="matrix(1 0 0 1 32.5 79.5)">10</text>
		<text transform="matrix(1 0 0 1 34.25 91.5)">11</text>
	</g>
	<g id="StrokePaths" style="fill:none;stroke:#404040;stroke-width:3;stroke-linecap:round;stroke-linejoin:round;">
		<path d="M37.95,10.5c0.07,0.84,0.15,2.17-0.14,3.38c-1.7,7.13-11.56,21.37-24.31,32.36"/>
		<path d="M34.82,24.57c1.42,0.79,3.4,1.05,5.66,0.52c2.27-0.52,41.38-4.48,47.05-4.74c5.66-0.26,6.35,2.07,5.95,7.63C92.25,44.75,92,66.5,85.15,91.63c-1.54,5.64-4.45,5.12-8.69,0.14"/>
		<path d="M26.75,37.91c0.94,0.31,2.66,0.39,3.6,0.31c5.98-0.53,28.15-3.74,35.11-3.83c1.56-0.02,2.5,0.15,3.29,0.3"/>
		<path d="M30.53,46.11c0.33,0.25,0.68,0.46,0.82,0.78c1.16,2.49,2.54,9.38,3.33,13.86"/>
		<path d="M32.61,47.37c8.18-1.05,26.1-3.33,30.32-3.68c1.54-0.13,2.47,1.3,2.25,2.06c-0.91,3.14-1.96,5.35-3.92,9.88"/>
		<path d="M35.02,59.1c4.95-0.4,22-2.17,28.28-2.57"/>
		<path d="M26.61,69.79c0.29,0.48,0.8,1.8,0.96,2.4c1.3,4.88,2.97,16.07,3.74,25.06"/>
		<path d="M27.99,70.65c13.51-1.58,31.04-3.94,38.75-4.42c2.83-0.18,4.28,1.24,4.12,2.55c-0.57,4.79-2.61,16.86-4.11,26.26"/>
		<path d="M46.39,69.29c1.11,0.38,1.96,1.1,1.96,2.4c-0.01,6,0.19,18.58,0.19,20.53"/>
		<path d="M30.33,82.55c3.37-0.24,35.43-3.87,38.21-3.87"/>
		<path d="M31.85,95.17c12.15-0.96,22.4-2.06,34.99-2.93"/>
	</g>
</svg>
