<?xml version="1.0" encoding="UTF-8"?>
<!-- Copyright (C) 2009 Ulrich Apel.
This work is distributed under the conditions of the Creative Commons
Attribution-Share Alike 3.0 Licence. This means you are free:
* to Share - to copy, distribute and transmit the work
* to Remix - to adapt the work

Under the following conditions:
* Attribution. You must attribute the work by stating your use of KanjiVG in
  your own copyright header and linking to KanjiVG's website
  (http://kanjivg.tagaini.net)
* Share Alike. If you alter, transform, or build upon this work, you may
  distribute the resulting work only under the same or similar license to this
  one.

See http://creativecommons.org/licenses/by-sa/3.0/ for more details. -->
<!DOCTYPE svg PUBLIC "-//W3C//DTD SVG 1.0//EN" "http://www.w3.org/TR/2001/REC-SVG-20010904/DTD/svg10.dtd">
<svg xmlns="http://www.w3.org/2000/svg" width="109" height="109" viewBox="0 0 109 109">
	<g id="HelperGrid" style="opacity:0.75;">
		<rect x="0.5" y="0.5" style="fill:none;stroke:#404040;" width="108" height="108"/> 
		<line style="fill:none;stroke:#404040;" x1="0.5" y1="72.51" x2="108.5" y2="72.51"/>
		<line style="fill:none;stroke:#404040;" x1="0.5" y1="36.49" x2="108.5" y2="36.49"/>
		<line style="fill:none;stroke:#404040;" x1="72.5" y1="0.5" x2="72.5" y2="108.5"/>
		<line style="fill:none;stroke:#404040;" x1="36.5" y1="0.5" x2="36.5" y2="108.5"/>
	</g>
	<g id="Kanji">
		<text transform="matrix(1 0 0 1 0.5 93.3799)" style="font-size:108;">区</text>
	</g>
	<g id="StrokeNumbers" style="font-size:8;fill:#808080">
		<text transform="matrix(1 0 0 1 23.5 20.5)">1</text>
		<text transform="matrix(1 0 0 1 60.5 30.5)">2</text>
		<text transform="matrix(1 0 0 1 31.5 40.5)">3</text>
		<text transform="matrix(1 0 0 1 14.5 32.5)">4</text>
	</g>
	<g id="StrokePaths" style="fill:none;stroke:#404040;stroke-width:3;stroke-linecap:round;stroke-linejoin:round;">
		<path d="M18.88,23.93c2.78,0.65,5.74,0.51,8.58,0.17c18.07-2.16,35.69-3.8,51.98-5.95c3.2-0.42,5.17-0.25,6.79,0.02"/>
		<path d="M68.57,30.43c0.25,1.37,0.29,2.74-0.47,4.76C62,51.38,49.62,64.75,32.9,75.75"/>
		<path d="M35.75,43.25C51.07,47.69,70.34,63.1,78,72.5"/>
		<path d="M20.36,25.3c0.73,0.73,1,2.18,1,3.7c0,11.28,0,48.74,0,57.34c0,4.4,0.77,5.33,5.02,4.74c16.58-2.31,44.87-3.94,59.2-3.66c3.34,0.07,6.17,0.23,8.23,0.68"/>
	</g>
</svg>
