<?xml version="1.0" encoding="UTF-8"?>
<!-- Copyright (C) 2009 Ulrich Apel.
This work is distributed under the conditions of the Creative Commons
Attribution-Share Alike 3.0 Licence. This means you are free:
* to Share - to copy, distribute and transmit the work
* to Remix - to adapt the work

Under the following conditions:
* Attribution. You must attribute the work by stating your use of KanjiVG in
  your own copyright header and linking to KanjiVG's website
  (http://kanjivg.tagaini.net)
* Share Alike. If you alter, transform, or build upon this work, you may
  distribute the resulting work only under the same or similar license to this
  one.

See http://creativecommons.org/licenses/by-sa/3.0/ for more details. -->
<!DOCTYPE svg PUBLIC "-//W3C//DTD SVG 1.0//EN" "http://www.w3.org/TR/2001/REC-SVG-20010904/DTD/svg10.dtd">
<svg xmlns="http://www.w3.org/2000/svg" width="109" height="109" viewBox="0 0 109 109">
	<g id="HelperGrid" style="opacity:0.75;">
		<rect x="0.5" y="0.5" style="fill:none;stroke:#404040;" width="108" height="108"/> 
		<line style="fill:none;stroke:#404040;" x1="0.5" y1="72.51" x2="108.5" y2="72.51"/>
		<line style="fill:none;stroke:#404040;" x1="0.5" y1="36.49" x2="108.5" y2="36.49"/>
		<line style="fill:none;stroke:#404040;" x1="72.5" y1="0.5" x2="72.5" y2="108.5"/>
		<line style="fill:none;stroke:#404040;" x1="36.5" y1="0.5" x2="36.5" y2="108.5"/>
	</g>
	<g id="Kanji">
		<text transform="matrix(1 0 0 1 0.5 93.3799)" style="font-size:108;">卆</text>
	</g>
	<g id="StrokeNumbers" style="font-size:8;fill:#808080">
		<text transform="matrix(1 0 0 1 41.5 12.5)">1</text>
		<text transform="matrix(1 0 0 1 15.5 28.5)">2</text>
		<text transform="matrix(1 0 0 1 5.5 69.5)">3</text>
		<text transform="matrix(1 0 0 1 46.5 51.5)">4</text>
	</g>
	<g id="StrokePaths" style="fill:none;stroke:#404040;stroke-width:3;stroke-linecap:round;stroke-linejoin:round;">
		<path d="M49.74,11.12c0.39,0.88,0.71,1.81,0.64,2.49C48.12,34.75,38.5,49.25,20.12,56.5"/>
		<path d="M22.5,27.67c0.95,0.4,4.52,0.13,5.71,0c1.19-0.13,39.88-5.04,40.95-5.07c2.38-0.07,3.77,2.01,3.04,3.49c-1.07,2.19-3.7,10.84-3.7,16.42c0,9,3,10,12.5,10c10.25,0,11.25-1.25,11.25-6.5"/>
		<path d="M12.38,68.98c1.52,0.54,4.31,0.68,5.82,0.54c19.3-1.77,56.3-5.02,69.61-5.23c2.53-0.04,4.05,0.26,5.31,0.53"/>
		<path d="M53.71,49.88c0.52,0.41,1.62,3.11,1.73,3.93c0.11,0.83-0.07,38.63-0.17,43.82"/>
	</g>
</svg>
