<?xml version="1.0" encoding="UTF-8"?>
<!-- Copyright (C) 2009 Ulrich Apel.
This work is distributed under the conditions of the Creative Commons
Attribution-Share Alike 3.0 Licence. This means you are free:
* to Share - to copy, distribute and transmit the work
* to Remix - to adapt the work

Under the following conditions:
* Attribution. You must attribute the work by stating your use of KanjiVG in
  your own copyright header and linking to KanjiVG's website
  (http://kanjivg.tagaini.net)
* Share Alike. If you alter, transform, or build upon this work, you may
  distribute the resulting work only under the same or similar license to this
  one.

See http://creativecommons.org/licenses/by-sa/3.0/ for more details. -->
<!DOCTYPE svg PUBLIC "-//W3C//DTD SVG 1.0//EN" "http://www.w3.org/TR/2001/REC-SVG-20010904/DTD/svg10.dtd">
<svg xmlns="http://www.w3.org/2000/svg" width="109" height="109" viewBox="0 0 109 109">
	<g id="HelperGrid" style="opacity:0.75;">
		<rect x="0.5" y="0.5" style="fill:none;stroke:#404040;" width="108" height="108"/> 
		<line style="fill:none;stroke:#404040;" x1="0.5" y1="72.51" x2="108.5" y2="72.51"/>
		<line style="fill:none;stroke:#404040;" x1="0.5" y1="36.49" x2="108.5" y2="36.49"/>
		<line style="fill:none;stroke:#404040;" x1="72.5" y1="0.5" x2="72.5" y2="108.5"/>
		<line style="fill:none;stroke:#404040;" x1="36.5" y1="0.5" x2="36.5" y2="108.5"/>
	</g>
	<g id="Kanji">
		<text transform="matrix(1 0 0 1 0.5 93.3799)" style="font-size:108;">卓</text>
	</g>
	<g id="StrokeNumbers" style="font-size:8;fill:#808080">
		<text transform="matrix(1 0 0 1 45 11.5)">1</text>
		<text transform="matrix(1 0 0 1 59 21.5)">2</text>
		<text transform="matrix(1 0 0 1 27.75 43.6299)">3</text>
		<text transform="matrix(1 0 0 1 36.75 33.1299)">4</text>
		<text transform="matrix(1 0 0 1 41.25 45.0547)">5</text>
		<text transform="matrix(1 0 0 1 41.25 56.9785)">6</text>
		<text transform="matrix(1 0 0 1 9.5 76.6299)">7</text>
		<text transform="matrix(1 0 0 1 47.5 69.1299)">8</text>
	</g>
	<g id="StrokePaths" style="fill:none;stroke:#404040;stroke-width:3;stroke-linecap:round;stroke-linejoin:round;">
		<path d="M51.81,10.88c0.76,0.33,2.36,2.46,2.51,3.12c0.15,0.66,0.4,16.03,0.25,20.13"/>
		<path d="M55.25,24.5c2,0,11.67-1.86,17.5-2.77c2.09-0.33,3.01-0.15,4.25-0.23"/>
		<path d="M33.66,35.53c0.73,1.22,1.72,1.61,1.95,3.25c0.64,4.47,2.89,19.97,2.92,23.72"/>
		<path d="M36.55,37.03c4.17-0.2,35.93-4.55,39.7-4.04c1.49,0.2,2.93,1.8,2.35,3.86c-1.08,3.85-2.25,15.72-4.2,22.61"/>
		<path d="M37.39,48.2c6.62-0.42,13.22-1.06,19.83-1.59c2.02-0.16,4.04-0.32,5.98-0.47"/>
		<path d="M39.26,60.27c10.24-0.77,29.51-2.44,34.72-2.44"/>
		<path d="M16.13,76.41c1.47,0.48,4.18,0.61,5.64,0.48c12.73-1.13,55.98-4.63,67.96-4.59c2.45,0.01,3.92,0.23,5.15,0.47"/>
		<path d="M54.73,60.25c0.44,0.55,1.38,4.13,1.47,5.24c0.09,1.1-0.06,27.12-0.15,34.01"/>
	</g>
</svg>
