<?xml version="1.0" encoding="UTF-8"?>
<!DOCTYPE svg PUBLIC "-//W3C//DTD SVG 1.0//EN" "http://www.w3.org/TR/2001/REC-SVG-20010904/DTD/svg10.dtd">
<svg xmlns="http://www.w3.org/2000/svg" width="109" height="109" viewBox="0 0 109 109">
	<g id="HelperGrid" style="opacity:0.75;">
		<rect x="0.5" y="0.5" style="fill:none;stroke:#404040;" width="108" height="108"/> 
		<line style="fill:none;stroke:#404040;" x1="0.5" y1="72.51" x2="108.5" y2="72.51"/>
		<line style="fill:none;stroke:#404040;" x1="0.5" y1="36.49" x2="108.5" y2="36.49"/>
		<line style="fill:none;stroke:#404040;" x1="72.5" y1="0.5" x2="72.5" y2="108.5"/>
		<line style="fill:none;stroke:#404040;" x1="36.5" y1="0.5" x2="36.5" y2="108.5"/>
	</g>
	<g id="Kanji">
		<text transform="matrix(1 0 0 1 0.5 93.3799)" style="font-size:108;">占</text>
	</g>
	<g id="StrokeNumbers" style="font-size:8;fill:#808080">
		<text transform="matrix(1 0 0 1 59.5 30.1299)">1</text>
		<text transform="matrix(1 0 0 1 43.5 14.5)">2</text>
		<text transform="matrix(1 0 0 1 23.25 71.5)">3</text>
		<text transform="matrix(1 0 0 1 30.5 60.5)">4</text>
		<text transform="matrix(1 0 0 1 39.5 87.0547)">5</text>
	</g>
	<g id="StrokePaths" style="fill:none;stroke:#404040;stroke-width:3;stroke-linecap:round;stroke-linejoin:round;">
		<path d="M55.25,34.5c9-0.75,19-2.75,20.25-2.75s3.5,0,4.5,0.25"/>
		<path d="M51.81,14.13c0.76,0.45,2.36,3.35,2.51,4.25c0.15,0.9-0.1,36.15-0.25,41.75"/>
		<path d="M29.16,62.76c0.56,0.55,1.13,1.01,1.37,1.69c1.93,5.44,4.23,20.44,5.55,30.21"/>
		<path d="M31.62,64.12c13.61-2.28,39.29-4.28,46.31-5.05c2.57-0.28,4.11,2.83,3.74,4.49c-1.52,6.85-3.42,14.43-5.51,23.12"/>
		<path d="M36.63,91.06c8.24-0.87,31.63-2.65,42.09-3.52"/>
	</g>
</svg>
