<?xml version="1.0" encoding="UTF-8"?>
<!-- Copyright (C) 2009 Ulrich Apel.
This work is distributed under the conditions of the Creative Commons
Attribution-Share Alike 3.0 Licence. This means you are free:
* to Share - to copy, distribute and transmit the work
* to Remix - to adapt the work

Under the following conditions:
* Attribution. You must attribute the work by stating your use of KanjiVG in
  your own copyright header and linking to KanjiVG's website
  (http://kanjivg.tagaini.net)
* Share Alike. If you alter, transform, or build upon this work, you may
  distribute the resulting work only under the same or similar license to this
  one.

See http://creativecommons.org/licenses/by-sa/3.0/ for more details. -->
<!DOCTYPE svg PUBLIC "-//W3C//DTD SVG 1.0//EN" "http://www.w3.org/TR/2001/REC-SVG-20010904/DTD/svg10.dtd">
<svg xmlns="http://www.w3.org/2000/svg" width="109" height="109" viewBox="0 0 109 109">
	<g id="HelperGrid" style="opacity:0.75;">
		<rect x="0.5" y="0.5" style="fill:none;stroke:#404040;" width="108" height="108"/> 
		<line style="fill:none;stroke:#404040;" x1="0.5" y1="72.51" x2="108.5" y2="72.51"/>
		<line style="fill:none;stroke:#404040;" x1="0.5" y1="36.49" x2="108.5" y2="36.49"/>
		<line style="fill:none;stroke:#404040;" x1="72.5" y1="0.5" x2="72.5" y2="108.5"/>
		<line style="fill:none;stroke:#404040;" x1="36.5" y1="0.5" x2="36.5" y2="108.5"/>
	</g>
	<g id="Kanji">
		<text transform="matrix(1 0 0 1 0.5 93.3799)" style="font-size:108;">厘</text>
	</g>
	<g id="StrokeNumbers" style="font-size:8;fill:#808080">
		<text transform="matrix(1 0 0 1 26.25 16.25)">1</text>
		<text transform="matrix(1 0 0 1 20.25 29.25)">2</text>
		<text transform="matrix(1 0 0 1 32 44.25)">3</text>
		<text transform="matrix(1 0 0 1 39.5 31.3799)">4</text>
		<text transform="matrix(1 0 0 1 44 44.25)">5</text>
		<text transform="matrix(1 0 0 1 44 57.25)">6</text>
		<text transform="matrix(1 0 0 1 32 76.25)">7</text>
		<text transform="matrix(1 0 0 1 25.25 89.25)">8</text>
		<text transform="matrix(1 0 0 1 51.25 41.8799)">9</text>
	</g>
	<g id="StrokePaths" style="fill:none;stroke:#404040;stroke-width:3;stroke-linecap:round;stroke-linejoin:round;">
		<path d="M22.38,18.91c1.45,0.52,4.12,0.62,5.57,0.52c17.03-1.21,36.14-3.34,55.1-3.55c2.42-0.03,3.87,0.25,5.08,0.51"/>
		<path d="M27.74,19.75c0.05,1.62-0.01,4.17-0.1,6.5C27,43.75,25,73.75,10.81,87.97"/>
		<path d="M37.26,34.45c0.33,0.47,0.34,0.79,0.52,1.38c1.5,4.84,2.91,17.06,3.84,26.08"/>
		<path d="M38.81,35.1c11.61-1.22,31.5-3.29,40.17-4.31c3.18-0.38,4.81,0.95,4.65,2.28c-0.6,4.88-2.08,18.16-3.53,26.31"/>
		<path d="M40.98,47.61c8.99-1.13,18.03-1.96,27.05-2.88c1.08-0.11,2.13-0.22,3.14-0.32"/>
		<path d="M42.22,60.6c8.36-0.52,26.34-2.69,37.88-3.54"/>
		<path d="M39.27,76.42c0.81,0.32,2.28,0.35,3.09,0.32c8.38-0.37,26.83-3.58,37.2-3.66c1.34-0.01,2.15,0.15,2.82,0.31"/>
		<path d="M26.46,92.61c1.27,0.46,3.6,0.54,4.87,0.46c13.23-0.77,39.77-3.48,55.52-3.45c2.12,0,3.39,0.22,4.45,0.45"/>
		<path d="M58.54,33.78c0.33,0.93,1.28,2.19,1.31,4.06c0.24,13.03,0.08,48.46,0.08,52.13"/>
	</g>
</svg>
