<?xml version="1.0" encoding="UTF-8"?>
<!DOCTYPE svg PUBLIC "-//W3C//DTD SVG 1.0//EN" "http://www.w3.org/TR/2001/REC-SVG-20010904/DTD/svg10.dtd">
<svg xmlns="http://www.w3.org/2000/svg" width="109" height="109" viewBox="0 0 109 109">
	<g id="HelperGrid" style="opacity:0.75;">
		<rect x="0.5" y="0.5" style="fill:none;stroke:#404040;" width="108" height="108"/> 
		<line style="fill:none;stroke:#404040;" x1="0.5" y1="72.51" x2="108.5" y2="72.51"/>
		<line style="fill:none;stroke:#404040;" x1="0.5" y1="36.49" x2="108.5" y2="36.49"/>
		<line style="fill:none;stroke:#404040;" x1="72.5" y1="0.5" x2="72.5" y2="108.5"/>
		<line style="fill:none;stroke:#404040;" x1="36.5" y1="0.5" x2="36.5" y2="108.5"/>
	</g>
	<g id="Kanji">
		<text transform="matrix(1 0 0 1 0.5 93.3799)" style="font-size:108;">厩</text>
	</g>
	<g id="StrokeNumbers" style="font-size:8;fill:#808080">
		<text transform="matrix(1 0 0 1 24.5 15.5)">1</text>
		<text transform="matrix(1 0 0 1 15.5 28.5)">2</text>
		<text transform="matrix(1 0 0 1 36 27)">3</text>
		<text transform="matrix(1 0 0 1 26.25 43.25)">4</text>
		<text transform="matrix(1 0 0 1 44 31.5791)">5</text>
		<text transform="matrix(1 0 0 1 36.75 44.5)">6</text>
		<text transform="matrix(1 0 0 1 36.7949 56.6797)">7</text>
		<text transform="matrix(1 0 0 1 36.7637 70.5)">8</text>
		<text transform="matrix(1 0 0 1 36.7568 83.75)">9</text>
		<text transform="matrix(1 0 0 1 59.75 29.25)">10</text>
		<text transform="matrix(1 0 0 1 56.25 41.1299)">11</text>
		<text transform="matrix(1 0 0 1 55.25 53.25)">12</text>
		<text transform="matrix(1 0 0 1 68.5 40.5)">13</text>
		<text transform="matrix(1 0 0 1 81.5 66.5)">14</text>
	</g>
	<g id="StrokePaths" style="fill:none;stroke:#404040;stroke-width:3;stroke-linecap:round;stroke-linejoin:round;">
		<path d="M20.13,18.73c1.52,0.54,4.3,0.63,5.82,0.54c15.8-0.91,44.3-3.52,59.61-4.23c2.53-0.12,4.05,0.26,5.31,0.53"/>
		<path d="M23.5,19.5c0.5,1.5,0.51,1.9,0.43,4.36C23.25,43.5,21.5,74.75,10.81,91.47"/>
		<path d="M60.54,32.18c0.85,0.31,2.42,0.42,3.27,0.31c4.46-0.57,17.05-2.31,23.34-2.59c1.42-0.06,2.28,0.15,2.99,0.31"/>
		<path d="M56.84,56.7c1,0.12,2.15,0.18,3.36,0.06c7.43-0.72,22.34-2.87,31.71-2.93c1.71-0.01,2.35-0.05,4.11,0.2"/>
		<path d="M64.92,34.27c0.65,0.39,0.9,2.05,0.86,2.85C65.5,42.75,65,47.75,64.73,56.28"/>
		<path d="M78.57,33.59c0.36,0.86,0.65,2.53,0.45,4.63c-1.66,16.76-7.68,42.7-23.92,57.03"/>
		<path d="M77.85,62.7c0.59,1.14,1.06,2.48,1.09,4.23c0.16,7.83-0.48,12.15-0.64,17.88c-0.27,10.04,2.12,11.02,10.25,11.02c7.33,0,9.32-1.7,9.32-8.72"/>
		<path d="M41.75,24.75c0.02,0.17,0.03,0.45-0.03,0.7c-0.38,1.47-3.04,5.42-5.97,7.39"/>
		<path d="M32.27,33.54c0.36,0.8,0.72,1.71,0.72,2.77c0,1.07-0.12,59.87,0,60.94"/>
		<path d="M33.13,35.2c2.04-0.13,16.57-2.22,18.43-2.37c1.55-0.13,2.55,1.48,2.43,2.26c-0.24,1.6-1.78,22.9-2.28,26.44"/>
		<path d="M33.48,47.56c2.76,0,16.06-1.84,19.18-1.84"/>
		<path d="M33.36,61.62c5.62-0.57,11.42-1.59,18.42-2.08"/>
		<path d="M33.31,74.36c3.46-0.26,14.81-2.72,18.16-2.54c0.9,0.05,1.45,0.07,1.9,0.15"/>
		<path d="M33.77,87.87c3.46-0.26,15.27-2.21,18.62-2.03c0.9,0.04,1.45,0.07,1.9,0.14"/>
	</g>
</svg>
