<?xml version="1.0" encoding="UTF-8"?>
<!-- Copyright (C) 2009 Ulrich Apel.
This work is distributed under the conditions of the Creative Commons
Attribution-Share Alike 3.0 Licence. This means you are free:
* to Share - to copy, distribute and transmit the work
* to Remix - to adapt the work

Under the following conditions:
* Attribution. You must attribute the work by stating your use of KanjiVG in
  your own copyright header and linking to KanjiVG's website
  (http://kanjivg.tagaini.net)
* Share Alike. If you alter, transform, or build upon this work, you may
  distribute the resulting work only under the same or similar license to this
  one.

See http://creativecommons.org/licenses/by-sa/3.0/ for more details. -->
<!DOCTYPE svg PUBLIC "-//W3C//DTD SVG 1.0//EN" "http://www.w3.org/TR/2001/REC-SVG-20010904/DTD/svg10.dtd">
<svg xmlns="http://www.w3.org/2000/svg" width="109" height="109" viewBox="0 0 109 109">
	<g id="HelperGrid" style="opacity:0.75;">
		<rect x="0.5" y="0.5" style="fill:none;stroke:#404040;" width="108" height="108"/> 
		<line style="fill:none;stroke:#404040;" x1="0.5" y1="72.51" x2="108.5" y2="72.51"/>
		<line style="fill:none;stroke:#404040;" x1="0.5" y1="36.49" x2="108.5" y2="36.49"/>
		<line style="fill:none;stroke:#404040;" x1="72.5" y1="0.5" x2="72.5" y2="108.5"/>
		<line style="fill:none;stroke:#404040;" x1="36.5" y1="0.5" x2="36.5" y2="108.5"/>
	</g>
	<g id="Kanji">
		<text transform="matrix(1 0 0 1 0.5 93.3799)" style="font-size:108;">厳</text>
	</g>
	<g id="StrokeNumbers" style="font-size:8;fill:#808080">
		<text transform="matrix(1 0 0 1 26.25 17.5)">1</text>
		<text transform="matrix(1 0 0 1 43.5 14.5)">2</text>
		<text transform="matrix(1 0 0 1 69.5 11.5)">3</text>
		<text transform="matrix(1 0 0 1 26.5 33.5)">4</text>
		<text transform="matrix(1 0 0 1 18.5 42.5)">5</text>
		<text transform="matrix(1 0 0 1 31.5 43.479)">6</text>
		<text transform="matrix(1 0 0 1 37.5 52.4053)">7</text>
		<text transform="matrix(1 0 0 1 29.5 53.8291)">8</text>
		<text transform="matrix(1 0 0 1 27.25 65.7549)">9</text>
		<text transform="matrix(1 0 0 1 34.5 62.6797)">10</text>
		<text transform="matrix(1 0 0 1 35.5 71.6035)">11</text>
		<text transform="matrix(1 0 0 1 12.75 94.0293)">12</text>
		<text transform="matrix(1 0 0 1 42.5 61.5)">13</text>
		<text transform="matrix(1 0 0 1 58.5 41.5)">14</text>
		<text transform="matrix(1 0 0 1 72.5 50.5)">15</text>
		<text transform="matrix(1 0 0 1 72.5 60.5)">16</text>
		<text transform="matrix(1 0 0 1 65.5 63.5)">17</text>
	</g>
	<g id="StrokePaths" style="fill:none;stroke:#404040;stroke-width:3;stroke-linecap:round;stroke-linejoin:round;">
		<path d="M33,18.5c3.5,3,7.25,8.25,7.75,9.75"/>
		<path d="M51.25,15.25c1.25,2,4.25,7.25,4.75,10.5"/>
		<path d="M77.5,11.5c0.5,0.75,1,1.5,0.75,3s-5.75,8.5-7.5,10.75"/>
		<path d="M23.63,35.23c1.52,0.54,4.3,0.65,5.82,0.54C47.25,34.5,69.5,32,84.56,31.54c2.53-0.08,4.05,0.26,5.31,0.53"/>
		<path d="M24.99,36.5c0.05,1.16-0.09,2.99-0.09,4.67c0,10.83-3.56,35.2-15.34,45.8"/>
		<path d="M30.65,45.21c0.5,0.17,1.43,0.21,1.94,0.17c3.22-0.29,16.16-2.13,20.34-2.54c0.84-0.08,1.35,0.08,1.77,0.16"/>
		<path d="M40.11,44.16c0.9,0.25,2.19,1.46,2.17,2.17c-0.07,2.24-0.07,6.05-0.07,8.09"/>
		<path d="M26.52,56.38c0.71,0.31,2.01,0.41,2.72,0.31c8.01-1.11,18.52-2.72,26.32-3.23c1.18-0.08,1.89,0.15,2.48,0.31"/>
		<path d="M32.58,57.91c0.26,0.43,0.66,0.43,0.66,1.15c0,0.71-0.13,23.89-0.13,26.47"/>
		<path d="M33.66,65.35c2.56,0,5.17-0.53,7.7-0.86c0.83-0.11,1.68-0.21,2.51-0.32"/>
		<path d="M33.4,74.36c2.59,0,5.21-0.47,7.78-0.79c0.8-0.1,1.6-0.2,2.4-0.29"/>
		<path d="M22.23,87.31c0.26,0.52,1.47,1.31,2.34,1.03c9.78-3.08,19.38-6.3,26.24-8.62"/>
		<path d="M50.17,55.62c0.26,0.57,0.66,0.43,0.66,1.15c0,0.71,0.13,35.63,0.13,41.5"/>
		<path d="M69.55,39.93c0.04,0.6,0.21,1.6-0.07,2.43c-1.82,5.33-5.91,15.35-12.2,22.73"/>
		<path d="M66,53.54c0.5,0.29,1.41,0.33,1.92,0.29c5.2-0.34,14.52-2.83,22.46-3.37c0.89-0.06,1.44-0.01,1.67,0.05"/>
		<path d="M82.45,54.95c0.41,0.98,0.87,1.75,0.2,3.47C76.5,74.5,69.25,84.5,57.09,94.9"/>
		<path d="M63.88,63.03c5.73,5.75,19.12,24.47,28.34,31c1.68,1.19,2.69,1.45,4.03,1.58"/>
	</g>
</svg>
