<?xml version="1.0" encoding="UTF-8"?>
<!DOCTYPE svg PUBLIC "-//W3C//DTD SVG 1.0//EN" "http://www.w3.org/TR/2001/REC-SVG-20010904/DTD/svg10.dtd">
<svg xmlns="http://www.w3.org/2000/svg" width="109" height="109" viewBox="0 0 109 109">
	<g id="HelperGrid" style="opacity:0.75;">
		<rect x="0.5" y="0.5" style="fill:none;stroke:#404040;" width="108" height="108"/> 
		<line style="fill:none;stroke:#404040;" x1="0.5" y1="72.51" x2="108.5" y2="72.51"/>
		<line style="fill:none;stroke:#404040;" x1="0.5" y1="36.49" x2="108.5" y2="36.49"/>
		<line style="fill:none;stroke:#404040;" x1="72.5" y1="0.5" x2="72.5" y2="108.5"/>
		<line style="fill:none;stroke:#404040;" x1="36.5" y1="0.5" x2="36.5" y2="108.5"/>
	</g>
	<g id="Kanji">
		<text transform="matrix(1 0 0 1 0.5 93.3799)" style="font-size:108;">叶</text>
	</g>
	<g id="StrokeNumbers" style="font-size:8;fill:#808080">
		<text transform="matrix(1 0 0 1 8 39.25)">1</text>
		<text transform="matrix(1 0 0 1 18.25 29.3252)">2</text>
		<text transform="matrix(1 0 0 1 21.25 56.25)">3</text>
		<text transform="matrix(1 0 0 1 45.25 42.25)">4</text>
		<text transform="matrix(1 0 0 1 61.25 12.0791)">5</text>
	</g>
	<g id="StrokePaths" style="fill:none;stroke:#404040;stroke-width:3;stroke-linecap:round;stroke-linejoin:round;">
		<path d="M13.39,31.17c0.92,1.16,1.11,1.82,1.37,3.33c0.96,5.52,2.08,14.2,3.08,22.02c0.25,1.92,0.49,3.77,0.72,5.49"/>
		<path d="M15.37,32.52c8.27-1.04,13.2-1.65,20.63-2.59c4.31-0.54,5.42,0.41,4.7,4.66c-0.9,5.28-1.62,12.7-2.63,22.33"/>
		<path d="M19.47,59.24c4.65-0.52,10.89-1.22,15.78-1.48c1.47-0.08,2.81-0.13,3.96-0.17"/>
		<path d="M45.5,45.25c2.64,1.01,5.13,0.67,7.88,0.39c10.55-1.08,27.07-3.17,37-3.56c2.71-0.11,5.47,0.06,8.13,0.68"/>
		<path d="M71.12,12.75c1.07,1.06,1.21,2.38,1.21,4c0,9.59,0.03,61.62,0.03,71c0,3.88,0,7.14,0,9.5"/>
	</g>
</svg>
