<?xml version="1.0" encoding="UTF-8"?>
<!-- Copyright (C) 2009 Ulrich Apel.
This work is distributed under the conditions of the Creative Commons
Attribution-Share Alike 3.0 Licence. This means you are free:
* to Share - to copy, distribute and transmit the work
* to Remix - to adapt the work

Under the following conditions:
* Attribution. You must attribute the work by stating your use of KanjiVG in
  your own copyright header and linking to KanjiVG's website
  (http://kanjivg.tagaini.net)
* Share Alike. If you alter, transform, or build upon this work, you may
  distribute the resulting work only under the same or similar license to this
  one.

See http://creativecommons.org/licenses/by-sa/3.0/ for more details. -->
<!DOCTYPE svg PUBLIC "-//W3C//DTD SVG 1.0//EN" "http://www.w3.org/TR/2001/REC-SVG-20010904/DTD/svg10.dtd">
<svg xmlns="http://www.w3.org/2000/svg" width="109" height="109" viewBox="0 0 109 109">
	<g id="HelperGrid" style="opacity:0.75;">
		<rect x="0.5" y="0.5" style="fill:none;stroke:#404040;" width="108" height="108"/> 
		<line style="fill:none;stroke:#404040;" x1="0.5" y1="72.51" x2="108.5" y2="72.51"/>
		<line style="fill:none;stroke:#404040;" x1="0.5" y1="36.49" x2="108.5" y2="36.49"/>
		<line style="fill:none;stroke:#404040;" x1="72.5" y1="0.5" x2="72.5" y2="108.5"/>
		<line style="fill:none;stroke:#404040;" x1="36.5" y1="0.5" x2="36.5" y2="108.5"/>
	</g>
	<g id="Kanji">
		<text transform="matrix(1 0 0 1 0.5 93.3799)" style="font-size:108;">味</text>
	</g>
	<g id="StrokeNumbers" style="font-size:8;fill:#808080">
		<text transform="matrix(1 0 0 1 5.5 45.1299)">1</text>
		<text transform="matrix(1 0 0 1 15.75 33.1299)">2</text>
		<text transform="matrix(1 0 0 1 17.25 55.6299)">3</text>
		<text transform="matrix(1 0 0 1 42.75 29.5)">4</text>
		<text transform="matrix(1 0 0 1 41.25 48.1299)">5</text>
		<text transform="matrix(1 0 0 1 52.5 12.5)">6</text>
		<text transform="matrix(1 0 0 1 48.5 62.5)">7</text>
		<text transform="matrix(1 0 0 1 76.5 59.5)">8</text>
	</g>
	<g id="StrokePaths" style="fill:none;stroke:#404040;stroke-width:3;stroke-linecap:round;stroke-linejoin:round;">
		<path d="M10.46,35.58c0.79,0.79,1.25,2.27,1.43,3.67c0.57,4.36,1.33,11.99,2.07,18.99c0.17,1.56,0.33,3.09,0.49,4.54"/>
		<path d="M12.64,37.37c4.54-0.72,13.77-2.2,18.75-2.73c3.08-0.32,4.74,1.14,4.01,4.27c-1.06,4.55-2.56,11.44-3.57,17.68"/>
		<path d="M14.17,58.88c3.12,0,10.34-0.95,15.96-1.42c1.54-0.13,2.95-0.22,4.13-0.25"/>
		<path d="M45.31,32.77c1.8,0.63,4.34,0.76,6.2,0.59c7.33-0.64,16.7-2.27,24.62-3.07c1.82-0.18,4.04-0.33,5.84,0.05"/>
		<path d="M40.13,51.5c2.36,0.73,5.09,0.73,7.5,0.38c8.62-1.26,23.37-3.03,36.12-4.3c2.47-0.25,5.16-0.29,7.63,0.17"/>
		<path d="M61.68,11.5c1.41,1.41,1.93,3.25,1.93,4.75c0,0.88-0.01,54.18-0.02,75.5c0,3.68,0,6.41,0,7.75"/>
		<path d="M61,51.12c0,1.97-0.91,3.63-1.98,5.21c-7.06,10.48-19.73,23.07-30.64,28.54"/>
		<path d="M64.65,50.62c3.78,5.82,16.49,19.94,23.74,26.88c2.02,1.93,3.61,3.5,6.36,4.75"/>
	</g>
</svg>
