<?xml version="1.0" encoding="UTF-8"?>
<!DOCTYPE svg PUBLIC "-//W3C//DTD SVG 1.0//EN" "http://www.w3.org/TR/2001/REC-SVG-20010904/DTD/svg10.dtd">
<svg xmlns="http://www.w3.org/2000/svg" width="109" height="109" viewBox="0 0 109 109">
	<g id="HelperGrid" style="opacity:0.75;">
		<rect x="0.5" y="0.5" style="fill:none;stroke:#404040;" width="108" height="108"/> 
		<line style="fill:none;stroke:#404040;" x1="0.5" y1="72.51" x2="108.5" y2="72.51"/>
		<line style="fill:none;stroke:#404040;" x1="0.5" y1="36.49" x2="108.5" y2="36.49"/>
		<line style="fill:none;stroke:#404040;" x1="72.5" y1="0.5" x2="72.5" y2="108.5"/>
		<line style="fill:none;stroke:#404040;" x1="36.5" y1="0.5" x2="36.5" y2="108.5"/>
	</g>
	<g id="Kanji">
		<text transform="matrix(1 0 0 1 0.5 93.3799)" style="font-size:108;">咨</text>
	</g>
	<g id="StrokeNumbers" style="font-size:8;fill:#808080">
		<text transform="matrix(1 0 0 1 10 19.1299)">1</text>
		<text transform="matrix(1 0 0 1 5.5 52.3047)">2</text>
		<text transform="matrix(1 0 0 1 48.5 9.729)">3</text>
		<text transform="matrix(1 0 0 1 61.5 20.5)">4</text>
		<text transform="matrix(1 0 0 1 57.5 33.5)">5</text>
		<text transform="matrix(1 0 0 1 69.75 41.2549)">6</text>
		<text transform="matrix(1 0 0 1 22.5 77.1797)">7</text>
		<text transform="matrix(1 0 0 1 33.5 67.5)">8</text>
		<text transform="matrix(1 0 0 1 40.5 91.5293)">9</text>
	</g>
	<g id="StrokePaths" style="fill:none;stroke:#404040;stroke-width:3;stroke-linecap:round;stroke-linejoin:round;">
		<path d="M15.75,20.7c0.52,0.21,2.47,0.23,3,0.21c5-0.16,17-1.91,20.93-2.16c0.87-0.05,2.39,0.1,2.82,0.21"/>
		<path d="M14,48.91c0.74,1.09,2.23,1.66,4.45,0.23c6.18-3.98,12.61-7.67,18.8-11.65"/>
		<path d="M57.57,9.5c0.04,0.72,0.08,1.86-0.08,2.9c-0.99,6.11-6.65,19.53-14.41,27.74"/>
		<path d="M56.55,24.11c1.06,0.23,3.05,0.59,4.65,0.39c1.94-0.25,26.04-3.99,27.89-4c6.37-0.04-0.67,5.68-4.6,8.7"/>
		<path d="M65.49,27.42c0.08,0.79,0.05,2.01-0.17,3.15c-1.37,7.14-13.07,24.68-29.33,30.18"/>
		<path d="M63.87,38.68c3.81,4.22,17.15,16.88,23.99,21.39c1.44,0.95,2.54,1.52,3.9,1.82"/>
		<path d="M28.82,68.92c0.53,0.51,1.07,0.94,1.3,1.58c1.83,5.08,4.53,19.09,5.79,28.21"/>
		<path d="M32.12,70.17c12.96-2.13,35.9-3.93,42.58-4.65c2.45-0.26,3.91,2.65,3.56,4.19c-1.45,6.39-2.26,12.54-4.7,22.12"/>
		<path d="M36.44,95.35C48,94.75,64.75,93,76,92.63"/>
	</g>
</svg>
