<?xml version="1.0" encoding="UTF-8"?>
<!-- Copyright (C) 2009 Ulrich Apel.
This work is distributed under the conditions of the Creative Commons
Attribution-Share Alike 3.0 Licence. This means you are free:
* to Share - to copy, distribute and transmit the work
* to Remix - to adapt the work

Under the following conditions:
* Attribution. You must attribute the work by stating your use of KanjiVG in
  your own copyright header and linking to KanjiVG's website
  (http://kanjivg.tagaini.net)
* Share Alike. If you alter, transform, or build upon this work, you may
  distribute the resulting work only under the same or similar license to this
  one.

See http://creativecommons.org/licenses/by-sa/3.0/ for more details. -->
<!DOCTYPE svg PUBLIC "-//W3C//DTD SVG 1.0//EN" "http://www.w3.org/TR/2001/REC-SVG-20010904/DTD/svg10.dtd">
<svg xmlns="http://www.w3.org/2000/svg" width="109" height="109" viewBox="0 0 109 109">
	<g id="HelperGrid" style="opacity:0.75;">
		<rect x="0.5" y="0.5" style="fill:none;stroke:#404040;" width="108" height="108"/> 
		<line style="fill:none;stroke:#404040;" x1="0.5" y1="72.51" x2="108.5" y2="72.51"/>
		<line style="fill:none;stroke:#404040;" x1="0.5" y1="36.49" x2="108.5" y2="36.49"/>
		<line style="fill:none;stroke:#404040;" x1="72.5" y1="0.5" x2="72.5" y2="108.5"/>
		<line style="fill:none;stroke:#404040;" x1="36.5" y1="0.5" x2="36.5" y2="108.5"/>
	</g>
	<g id="Kanji">
		<text transform="matrix(1 0 0 1 0.5 93.3799)" style="font-size:108;">咬</text>
	</g>
	<g id="StrokeNumbers" style="font-size:8;fill:#808080">
		<text transform="matrix(1 0 0 1 5.5 41.5)">1</text>
		<text transform="matrix(1 0 0 1 15.6602 31.5)">2</text>
		<text transform="matrix(1 0 0 1 18.708 55.5)">3</text>
		<text transform="matrix(1 0 0 1 56.5 13.5)">4</text>
		<text transform="matrix(1 0 0 1 45.25 28.3291)">5</text>
		<text transform="matrix(1 0 0 1 48.5 40.5)">6</text>
		<text transform="matrix(1 0 0 1 69.5 39.1797)">7</text>
		<text transform="matrix(1 0 0 1 71.5 50.104)">8</text>
		<text transform="matrix(1 0 0 1 49.5 62.5)">9</text>
	</g>
	<g id="StrokePaths" style="fill:none;stroke:#404040;stroke-width:3;stroke-linecap:round;stroke-linejoin:round;">
		<path d="M10.75,32.79c0.37,0.51,0.76,0.94,0.92,1.58c1.29,5.07,3.34,19.04,4.23,28.13"/>
		<path d="M13.58,35.22C23,33,29.62,32.16,33.99,31.49c1.6-0.24,2.56,1.44,2.33,2.87c-0.95,5.92-3.05,14.57-4.46,22.75"/>
		<path d="M16.07,59.05c5.14-0.75,11.33-1.05,18.39-2.21"/>
		<path d="M66.12,12.5c0.84,0.55,2.23,2.67,2.23,3.76c0,4.32-0.02,9.55-0.11,12.65"/>
		<path d="M45.5,31.01c1.33,0.09,4.35,0.64,5.64,0.5c11.49-1.26,28.62-3.76,37.58-4.1c2.19-0.08,3.3,0.04,4.93,0.63"/>
		<path d="M56.95,38.59c0.25,0.69-0.01,2.3-0.62,3.43c-2.39,4.46-6.71,9.29-11.58,13.19"/>
		<path d="M77.27,36.98c6.94,4.91,12.67,10.58,16.13,16.54"/>
		<path d="M79.54,49.91c0.53,0.94,0.74,2.65-0.16,4.3C71,69.5,57,83.25,39,92.9"/>
		<path d="M53.84,55.77c3,0.24,25.87,25.07,38.32,34.47c2.34,1.77,4.07,1.74,6.1,1.9"/>
	</g>
</svg>
