<?xml version="1.0" encoding="UTF-8"?>
<!-- Copyright (C) 2009 Ulrich Apel.
This work is distributed under the conditions of the Creative Commons
Attribution-Share Alike 3.0 Licence. This means you are free:
* to Share - to copy, distribute and transmit the work
* to Remix - to adapt the work

Under the following conditions:
* Attribution. You must attribute the work by stating your use of KanjiVG in
  your own copyright header and linking to KanjiVG's website
  (http://kanjivg.tagaini.net)
* Share Alike. If you alter, transform, or build upon this work, you may
  distribute the resulting work only under the same or similar license to this
  one.

See http://creativecommons.org/licenses/by-sa/3.0/ for more details. -->
<!DOCTYPE svg PUBLIC "-//W3C//DTD SVG 1.0//EN" "http://www.w3.org/TR/2001/REC-SVG-20010904/DTD/svg10.dtd">
<svg xmlns="http://www.w3.org/2000/svg" width="109" height="109" viewBox="0 0 109 109">
	<g id="HelperGrid" style="opacity:0.75;">
		<rect x="0.5" y="0.5" style="fill:none;stroke:#404040;" width="108" height="108"/> 
		<line style="fill:none;stroke:#404040;" x1="0.5" y1="72.51" x2="108.5" y2="72.51"/>
		<line style="fill:none;stroke:#404040;" x1="0.5" y1="36.49" x2="108.5" y2="36.49"/>
		<line style="fill:none;stroke:#404040;" x1="72.5" y1="0.5" x2="72.5" y2="108.5"/>
		<line style="fill:none;stroke:#404040;" x1="36.5" y1="0.5" x2="36.5" y2="108.5"/>
	</g>
	<g id="Kanji">
		<text transform="matrix(1 0 0 1 0.5 93.3799)" style="font-size:108;">咲</text>
	</g>
	<g id="StrokeNumbers" style="font-size:8;fill:#808080">
		<text transform="matrix(1 0 0 1 7.5 46.5)">1</text>
		<text transform="matrix(1 0 0 1 15.75 35.5)">2</text>
		<text transform="matrix(1 0 0 1 21.5 54.0547)">3</text>
		<text transform="matrix(1 0 0 1 37.5 18.5)">4</text>
		<text transform="matrix(1 0 0 1 67.5 14.5)">5</text>
		<text transform="matrix(1 0 0 1 44.25 35.5)">6</text>
		<text transform="matrix(1 0 0 1 39.5 59.5)">7</text>
		<text transform="matrix(1 0 0 1 53.5 50.5)">8</text>
		<text transform="matrix(1 0 0 1 74.25 71.5)">9</text>
	</g>
	<g id="StrokePaths" style="fill:none;stroke:#404040;stroke-width:3;stroke-linecap:round;stroke-linejoin:round;">
		<path d="M13.14,38.36c0.81,0.92,0.94,1.4,1.21,2.64c0.89,4.08,1.95,9.79,3.02,15.42c0.27,1.41,0.51,2.8,0.71,4.13"/>
		<path d="M15.23,39.52c6.11-0.92,11.67-2.07,17.29-3.05c3.44-0.6,5.07-0.04,4.3,3.8c-0.83,4.11-1.65,7.56-3.14,14.86"/>
		<path d="M18.85,57.96c4.21-0.52,7.73-1.01,12.73-1.7c1.15-0.16,2.37-0.33,3.7-0.51"/>
		<path d="M44.88,17.62c3.69,2.55,9.54,10.48,10.47,14.44"/>
		<path d="M78.25,14.64c0.05,0.58,0.22,1.54-0.1,2.34c-1.65,4.14-5.03,9.39-10.9,16.52"/>
		<path d="M46.29,39.34c1.96,0.29,3.96,0.31,5.58,0.13c6.28-0.69,17.97-2.39,24.4-3.01c1.98-0.19,3.88-0.35,5.84,0.13"/>
		<path d="M39.24,61.73c3.26,0.77,5.78,0.8,8.64,0.46C60,60.75,73.99,59.49,83,58.84c3.02-0.22,6.01-0.07,8.98,0.64"/>
		<path d="M60.68,42.12c0.6,0.76,0.77,2.38,0.7,3.84C59.95,73.25,49.59,87,31.95,93.37"/>
		<path d="M60.95,61.89c5.79,5.58,15.85,16.6,23.41,23.76c3.14,2.97,6.01,4.84,8.49,6.14"/>
	</g>
</svg>
