<?xml version="1.0" encoding="UTF-8"?>
<!-- Copyright (C) 2009 Ulrich Apel.
This work is distributed under the conditions of the Creative Commons
Attribution-Share Alike 3.0 Licence. This means you are free:
* to Share - to copy, distribute and transmit the work
* to Remix - to adapt the work

Under the following conditions:
* Attribution. You must attribute the work by stating your use of KanjiVG in
  your own copyright header and linking to KanjiVG's website
  (http://kanjivg.tagaini.net)
* Share Alike. If you alter, transform, or build upon this work, you may
  distribute the resulting work only under the same or similar license to this
  one.

See http://creativecommons.org/licenses/by-sa/3.0/ for more details. -->
<!DOCTYPE svg PUBLIC "-//W3C//DTD SVG 1.0//EN" "http://www.w3.org/TR/2001/REC-SVG-20010904/DTD/svg10.dtd">
<svg xmlns="http://www.w3.org/2000/svg" width="109" height="109" viewBox="0 0 109 109">
	<g id="HelperGrid" style="opacity:0.75;">
		<rect x="0.5" y="0.5" style="fill:none;stroke:#404040;" width="108" height="108"/> 
		<line style="fill:none;stroke:#404040;" x1="0.5" y1="72.51" x2="108.5" y2="72.51"/>
		<line style="fill:none;stroke:#404040;" x1="0.5" y1="36.49" x2="108.5" y2="36.49"/>
		<line style="fill:none;stroke:#404040;" x1="72.5" y1="0.5" x2="72.5" y2="108.5"/>
		<line style="fill:none;stroke:#404040;" x1="36.5" y1="0.5" x2="36.5" y2="108.5"/>
	</g>
	<g id="Kanji">
		<text transform="matrix(1 0 0 1 0.5 93.3799)" style="font-size:108;">咸</text>
	</g>
	<g id="StrokeNumbers" style="font-size:8;fill:#808080">
		<text transform="matrix(1 0 0 1 20.25 43.6299)">1</text>
		<text transform="matrix(1 0 0 1 27.5 30.5)">2</text>
		<text transform="matrix(1 0 0 1 32.5 46.5)">3</text>
		<text transform="matrix(1 0 0 1 27.5 74.5)">4</text>
		<text transform="matrix(1 0 0 1 33.5 59.5)">5</text>
		<text transform="matrix(1 0 0 1 40.5 76.5)">6</text>
		<text transform="matrix(1 0 0 1 45.75 13.6299)">7</text>
		<text transform="matrix(1 0 0 1 74.5 44.5)">8</text>
		<text transform="matrix(1 0 0 1 65.5 11.5)">9</text>
	</g>
	<g id="StrokePaths" style="fill:none;stroke:#404040;stroke-width:3;stroke-linecap:round;stroke-linejoin:round;">
		<path d="M28.01,34.89c0.05,1.4-0.05,3.6-0.1,5.61c-0.41,18.75-5.41,45.75-16.1,54.47"/>
		<path d="M24.75,33.7c1.52,0.54,4.32,0.8,5.82,0.54c6.15-1.05,34.93-4.74,51.11-5.23c2.53-0.08,4.05,0.26,5.31,0.53"/>
		<path d="M31.75,49.38c1.15,0.47,3.26,0.66,4.41,0.47c4.06-0.65,10.36-1.52,14.08-1.95c1.9-0.22,3.55-0.39,4.51-0.15"/>
		<path d="M31.75,62.14c0.42,0.39,0.85,0.72,1.04,1.21c1.46,3.9,2.46,11.9,3.46,18.9"/>
		<path d="M34.38,63.78C43,62.25,48.5,60.5,53.44,59.99c1.8-0.19,2.89,1.11,2.63,2.21c-1.07,4.55-1.82,8.3-3.41,14.6"/>
		<path d="M36,80c5.8-0.58,10.5-1.75,18.46-2.64"/>
		<path d="M54.25,11c1.79,1.83,2.62,2.32,2.91,6.26c2.3,30.77,14.02,64.33,35.11,76.5c6.97,4.02,5.95,1.45,5.05-6.63"/>
		<path d="M82.47,45.14c0.09,1.13,0.18,2.92-0.17,4.54c-2.12,9.58-13.85,31.41-30.49,44.28"/>
		<path d="M72.25,12.5c3.59,1.6,9.33,5.26,11,8"/>
	</g>
</svg>
