<?xml version="1.0" encoding="UTF-8"?>
<!DOCTYPE svg PUBLIC "-//W3C//DTD SVG 1.0//EN" "http://www.w3.org/TR/2001/REC-SVG-20010904/DTD/svg10.dtd">
<svg xmlns="http://www.w3.org/2000/svg" width="109" height="109" viewBox="0 0 109 109">
	<g id="HelperGrid" style="opacity:0.75;">
		<rect x="0.5" y="0.5" style="fill:none;stroke:#404040;" width="108" height="108"/> 
		<line style="fill:none;stroke:#404040;" x1="0.5" y1="72.51" x2="108.5" y2="72.51"/>
		<line style="fill:none;stroke:#404040;" x1="0.5" y1="36.49" x2="108.5" y2="36.49"/>
		<line style="fill:none;stroke:#404040;" x1="72.5" y1="0.5" x2="72.5" y2="108.5"/>
		<line style="fill:none;stroke:#404040;" x1="36.5" y1="0.5" x2="36.5" y2="108.5"/>
	</g>
	<g id="Kanji">
		<text transform="matrix(1 0 0 1 0.5 93.3799)" style="font-size:108;">咽</text>
	</g>
	<g id="StrokeNumbers" style="font-size:8;fill:#808080">
		<text transform="matrix(1 0 0 1 5.5 39.5)">1</text>
		<text transform="matrix(1 0 0 1 15.5 29.5)">2</text>
		<text transform="matrix(1 0 0 1 18.708 58.8477)">3</text>
		<text transform="matrix(1 0 0 1 38.5 26.5)">4</text>
		<text transform="matrix(1 0 0 1 48.5 17.5)">5</text>
		<text transform="matrix(1 0 0 1 51.5 42.5)">6</text>
		<text transform="matrix(1 0 0 1 60.25 29.5)">7</text>
		<text transform="matrix(1 0 0 1 73.5 55.1035)">8</text>
		<text transform="matrix(1 0 0 1 51.5 87.5)">9</text>
	</g>
	<g id="StrokePaths" style="fill:none;stroke:#404040;stroke-width:3;stroke-linecap:round;stroke-linejoin:round;">
		<path d="M10.88,31.02c0.67,1.06,1.02,1.95,1.18,3.22c0.92,7.21,1.96,17.4,2.74,26.14c0.13,1.42,0.25,2.79,0.36,4.12"/>
		<path d="M13.08,33.01c7.09-1.1,12.83-2,17.08-2.71c3.14-0.52,4.46,0.69,4.04,3.83c-0.88,6.59-1.82,14.99-2.84,25.04"/>
		<path d="M16.32,61.74c4.82-0.59,7.78-0.82,12.8-1.24c1.29-0.11,2.71-0.23,4.34-0.37"/>
		<path d="M44.5,18.74c0.88,0.88,1.06,2.25,1.07,3.96c0.07,8.32,0.05,43.24,0.04,60.55c0,5.49-0.01,9.21-0.01,9.75"/>
		<path d="M46.47,20.58c11.69-1.35,32.97-3.42,43.15-3.78c3.68-0.13,4.88,0.44,4.88,4.39c0,12.56,0,44.39,0,63.8c0,2.89,0,5.51,0,7.75"/>
		<path d="M53.5,44.97c1.58,0.48,3.65,0.35,5.24,0.11c7.5-1.09,14.75-1.96,22.63-2.56c1.68-0.13,3.12-0.16,4.77,0.26"/>
		<path d="M68.76,25.64c0.8,0.8,0.92,2.67,0.92,4.12c0,24.61-5.47,41.01-16.39,50.26"/>
		<path d="M70.38,56.25c5.49,4.42,12.41,12.38,15.74,21"/>
		<path d="M46.77,89.56C58.62,89,80.56,87.67,93.39,87.3"/>
	</g>
</svg>
