<?xml version="1.0" encoding="UTF-8"?>
<!DOCTYPE svg PUBLIC "-//W3C//DTD SVG 1.0//EN" "http://www.w3.org/TR/2001/REC-SVG-20010904/DTD/svg10.dtd">
<svg xmlns="http://www.w3.org/2000/svg" width="109" height="109" viewBox="0 0 109 109">
	<g id="HelperGrid" style="opacity:0.75;">
		<rect x="0.5" y="0.5" style="fill:none;stroke:#404040;" width="108" height="108"/> 
		<line style="fill:none;stroke:#404040;" x1="0.5" y1="72.51" x2="108.5" y2="72.51"/>
		<line style="fill:none;stroke:#404040;" x1="0.5" y1="36.49" x2="108.5" y2="36.49"/>
		<line style="fill:none;stroke:#404040;" x1="72.5" y1="0.5" x2="72.5" y2="108.5"/>
		<line style="fill:none;stroke:#404040;" x1="36.5" y1="0.5" x2="36.5" y2="108.5"/>
	</g>
	<g id="Kanji">
		<text transform="matrix(1 0 0 1 0.5 93.3799)" style="font-size:108;">唄</text>
	</g>
	<g id="StrokeNumbers" style="font-size:8;fill:#808080">
		<text transform="matrix(1 0 0 1 8.25 38.25)">1</text>
		<text transform="matrix(1 0 0 1 19.25 27.25)">2</text>
		<text transform="matrix(1 0 0 1 22.1934 54.25)">3</text>
		<text transform="matrix(1 0 0 1 45.25 24.25)">4</text>
		<text transform="matrix(1 0 0 1 56.3066 13.25)">5</text>
		<text transform="matrix(1 0 0 1 57.25 32.25)">6</text>
		<text transform="matrix(1 0 0 1 57.25 49.25)">7</text>
		<text transform="matrix(1 0 0 1 57.25 69.25)">8</text>
		<text transform="matrix(1 0 0 1 48.25 84.25)">9</text>
		<text transform="matrix(1 0 0 1 68.1934 86.25)">10</text>
	</g>
	<g id="StrokePaths" style="fill:none;stroke:#404040;stroke-width:3;stroke-linecap:round;stroke-linejoin:round;">
		<path d="M13.25,28.71c0.81,1.18,1.07,2.27,1.34,3.67c1.03,5.33,2.28,15.07,3.06,23.11c0.17,1.76,0.33,3.45,0.47,5.01"/>
		<path d="M15.31,31.11c8.35-1.6,15.19-2.42,19.71-3.06c3.06-0.44,4.69,0.21,4.17,3.61c-0.95,6.23-2.22,14.14-3.56,22.44"/>
		<path d="M19.05,57.28c6-0.65,8.5-1.03,14.46-1.73c1.2-0.14,2.5-0.28,3.96-0.43"/>
		<path d="M51.08,15.08c1.04,1.04,1.35,2.38,1.35,4.2c0,1.51-0.05,34.29-0.05,49.79c0,3.06-0.01,4.62-0.01,6.69"/>
		<path d="M53.35,16.66c3.11-0.23,25.69-2.34,28.53-2.61c2.36-0.23,3.62,1.25,3.62,2.95c0,3.27,0.01,43.62,0.01,50.26c0,3.9-0.01,6.58-0.01,6.87"/>
		<path d="M53.75,35.38c5.46-0.48,25.92-2.46,30.61-2.46"/>
		<path d="M53.5,52.84c8.78-1,21.59-1.78,30.89-1.98"/>
		<path d="M53.6,72.12c8.78-0.75,22.54-1.73,30.55-1.73"/>
		<path d="M59.31,79.24c0.07,1.14-0.51,2.27-1.75,3.29C53.81,85.59,44,92.5,35.75,95.75"/>
		<path d="M75.89,79.73C83.47,84.21,90.75,90.88,94.25,96"/>
	</g>
</svg>
