<?xml version="1.0" encoding="UTF-8"?>
<!DOCTYPE svg PUBLIC "-//W3C//DTD SVG 1.0//EN" "http://www.w3.org/TR/2001/REC-SVG-20010904/DTD/svg10.dtd">
<svg xmlns="http://www.w3.org/2000/svg" width="109" height="109" viewBox="0 0 109 109">
	<g id="HelperGrid" style="opacity:0.75;">
		<rect x="0.5" y="0.5" style="fill:none;stroke:#404040;" width="108" height="108"/> 
		<line style="fill:none;stroke:#404040;" x1="0.5" y1="72.51" x2="108.5" y2="72.51"/>
		<line style="fill:none;stroke:#404040;" x1="0.5" y1="36.49" x2="108.5" y2="36.49"/>
		<line style="fill:none;stroke:#404040;" x1="72.5" y1="0.5" x2="72.5" y2="108.5"/>
		<line style="fill:none;stroke:#404040;" x1="36.5" y1="0.5" x2="36.5" y2="108.5"/>
	</g>
	<g id="Kanji">
		<text transform="matrix(1 0 0 1 0.5 93.3799)" style="font-size:108;">喜</text>
	</g>
	<g id="StrokeNumbers" style="font-size:8;fill:#808080">
		<text transform="matrix(1 0 0 1 22.9922 22.6309)">1</text>
		<text transform="matrix(1 0 0 1 43.5 9.0552)">2</text>
		<text transform="matrix(1 0 0 1 29.5 33.5)">3</text>
		<text transform="matrix(1 0 0 1 28.5 44.5)">4</text>
		<text transform="matrix(1 0 0 1 39.4922 39)">5</text>
		<text transform="matrix(1 0 0 1 42.4922 50.5)">6</text>
		<text transform="matrix(1 0 0 1 26.5 61.1797)">7</text>
		<text transform="matrix(1 0 0 1 62.5 60.5)">8</text>
		<text transform="matrix(1 0 0 1 5.5 73.0303)">9</text>
		<text transform="matrix(1 0 0 1 24.5 87.9551)">10</text>
		<text transform="matrix(1 0 0 1 37.5 79.5)">11</text>
		<text transform="matrix(1 0 0 1 41.4434 94.5)">12</text>
	</g>
	<g id="StrokePaths" style="fill:none;stroke:#404040;stroke-width:3;stroke-linecap:round;stroke-linejoin:round;">
		<path d="M29.62,20.91c2.76,0.46,5.77,0.27,8.38-0.01c9.75-1.02,23.42-2.51,33.88-3.14c2.65-0.16,5.38-0.46,8.01-0.01"/>
		<path d="M52.51,8.01c0.99,0.99,1.54,2.12,1.54,3.65c0,3.09-0.16,12.47-0.16,17.93"/>
		<path d="M36.68,31.93c2.19,0.32,4.12,0.35,5.95,0.08c7.74-1.13,14.84-1.9,24.88-2.57c1.95-0.13,3.96-0.38,5.91-0.09"/>
		<path d="M34.74,40.09c0.9,0.52,1.44,1.56,1.61,2.62c0.93,2.59,1.77,6.43,2.46,9.91c0.2,0.99,0.38,1.95,0.56,2.85"/>
		<path d="M37.18,41.25c8.38-0.98,23.27-2.39,30.19-3.01c4.13-0.37,5.25,1.38,4.44,3.78c-0.91,2.68-1.44,4.35-3.43,8.55"/>
		<path d="M40.01,53.7c4.92-0.36,18.18-1.75,26.62-2.42c1.54-0.12,2.92-0.22,4.06-0.29"/>
		<path d="M33.5,58.38c2.49,1.7,6.44,7,7.06,9.64"/>
		<path d="M71.28,55.14c0.02,0.3,0.04,0.76-0.04,1.19c-0.4,2.11-2.89,6.34-5.74,9.64"/>
		<path d="M13.25,72.2c4,0.55,7.19,0.46,10.39,0.18c14.15-1.28,46.46-4.26,63.22-5.2c2.95-0.16,6.24-0.26,9.15,0.36"/>
		<path d="M34.28,80.43c0.83,0.83,1.23,2.08,1.44,3.17c0.88,4.58,1.64,9.42,2.38,14.28c0.13,0.86,0.26,1.72,0.39,2.58"/>
		<path d="M36.64,81.84c10.2-1.19,25.31-3.19,32.33-3.88c3.26-0.32,5.33,0.87,4.23,4.44c-1.07,3.48-1.89,6.74-4.06,11.84"/>
		<path d="M39.2,97.9c5.82-0.43,19.21-1.72,28.43-2.39c1.54-0.11,2.97-0.21,4.21-0.28"/>
	</g>
</svg>
