<?xml version="1.0" encoding="UTF-8"?>
<!DOCTYPE svg PUBLIC "-//W3C//DTD SVG 1.0//EN" "http://www.w3.org/TR/2001/REC-SVG-20010904/DTD/svg10.dtd">
<svg xmlns="http://www.w3.org/2000/svg" width="109" height="109" viewBox="0 0 109 109">
	<g id="HelperGrid" style="opacity:0.75;">
		<rect x="0.5" y="0.5" style="fill:none;stroke:#404040;" width="108" height="108"/> 
		<line style="fill:none;stroke:#404040;" x1="0.5" y1="72.51" x2="108.5" y2="72.51"/>
		<line style="fill:none;stroke:#404040;" x1="0.5" y1="36.49" x2="108.5" y2="36.49"/>
		<line style="fill:none;stroke:#404040;" x1="72.5" y1="0.5" x2="72.5" y2="108.5"/>
		<line style="fill:none;stroke:#404040;" x1="36.5" y1="0.5" x2="36.5" y2="108.5"/>
	</g>
	<g id="Kanji">
		<text transform="matrix(1 0 0 1 0.5 93.3799)" style="font-size:108;">喞</text>
	</g>
	<g id="StrokeNumbers" style="font-size:8;fill:#808080">
		<text transform="matrix(1 0 0 1 4.8477 42.5)">1</text>
		<text transform="matrix(1 0 0 1 13.5 32.5)">2</text>
		<text transform="matrix(1 0 0 1 17.708 54.8481)">3</text>
		<text transform="matrix(1 0 0 1 46.5 10.9043)">4</text>
		<text transform="matrix(1 0 0 1 34.5 30.5)">5</text>
		<text transform="matrix(1 0 0 1 44.5 22.25)">6</text>
		<text transform="matrix(1 0 0 1 46.5 35.5)">7</text>
		<text transform="matrix(1 0 0 1 46.5 49.5)">8</text>
		<text transform="matrix(1 0 0 1 46.5 65.5)">9</text>
		<text transform="matrix(1 0 0 1 45.5 81.5)">10</text>
		<text transform="matrix(1 0 0 1 72.5 18.5)">11</text>
		<text transform="matrix(1 0 0 1 66.5 32.5)">12</text>
	</g>
	<g id="StrokePaths" style="fill:none;stroke:#404040;stroke-width:3;stroke-linecap:round;stroke-linejoin:round;">
		<path d="M9.75,34.06c0.35,0.45,0.72,0.82,0.87,1.38c1.23,4.42,3.7,18.12,4.54,26.06"/>
		<path d="M11.96,36.18c8.94-1.94,14.27-2.61,18.41-3.19c1.52-0.21,2.43,1.26,2.21,2.51c-0.9,5.17-2.45,12.65-3.78,19.8"/>
		<path d="M14.82,57.86c4.87-0.66,9.75-0.92,16.43-1.93"/>
		<path d="M55.04,10.89c0.02,0.33,0.04,0.84-0.04,1.31c-0.44,2.76-2.97,8.81-6.44,12.52"/>
		<path d="M41.51,23.53c0.82,0.6,0.98,2.68,1.15,3.87c0.16,1.19,0.16,63.92,0.16,66.89"/>
		<path d="M42.95,25.8c1.45-0.12,18.43-3.02,19.75-3.17c1.1-0.12,1.74,1.36,1.72,2.12c-0.07,5.35-1.19,18.11-2.55,28.58"/>
		<path d="M42.81,39.1c3.42-0.55,6.88-0.87,10.32-1.25c1.06-0.12,2.12-0.23,3.14-0.35"/>
		<path d="M43.12,52.77c5.63-0.77,13.13-1.32,18.56-2.23"/>
		<path d="M43.37,69.02c4.11-0.78,11.85-1.85,16.6-2.71c1.01-0.18,2.54-0.06,3.96-0.02"/>
		<path d="M44.37,85.52c4.11-0.78,13.35-1.85,18.1-2.71c1.01-0.18,2.54-0.06,3.96-0.02"/>
		<path d="M72.08,21.09c1.17,0.16,2.21,0.54,3.42,0.41c4.5-0.5,16.04-2.28,17.24-2.42c1.51-0.17,3.77-0.35,3.92,3.3c0.07,1.74-0.16,39.12-0.97,49.39C94.8,83.03,92,77.75,88.5,74.3"/>
		<path d="M75.73,21.9c0.73,0.51,1.17,2.3,1.31,3.32c0.14,1.02,0,65.14-0.15,71.53"/>
	</g>
</svg>
