<?xml version="1.0" encoding="UTF-8"?>
<!DOCTYPE svg PUBLIC "-//W3C//DTD SVG 1.0//EN" "http://www.w3.org/TR/2001/REC-SVG-20010904/DTD/svg10.dtd">
<svg xmlns="http://www.w3.org/2000/svg" width="109" height="109" viewBox="0 0 109 109">
	<g id="HelperGrid" style="opacity:0.75;">
		<rect x="0.5" y="0.5" style="fill:none;stroke:#404040;" width="108" height="108"/> 
		<line style="fill:none;stroke:#404040;" x1="0.5" y1="72.51" x2="108.5" y2="72.51"/>
		<line style="fill:none;stroke:#404040;" x1="0.5" y1="36.49" x2="108.5" y2="36.49"/>
		<line style="fill:none;stroke:#404040;" x1="72.5" y1="0.5" x2="72.5" y2="108.5"/>
		<line style="fill:none;stroke:#404040;" x1="36.5" y1="0.5" x2="36.5" y2="108.5"/>
	</g>
	<g id="Kanji">
		<text transform="matrix(1 0 0 1 0.5 93.3799)" style="font-size:108;">單</text>
	</g>
	<g id="StrokeNumbers" style="font-size:8;fill:#808080">
		<text transform="matrix(1 0 0 1 17.5 23.5)">1</text>
		<text transform="matrix(1 0 0 1 27.5 13.5)">2</text>
		<text transform="matrix(1 0 0 1 30.5 27.5)">3</text>
		<text transform="matrix(1 0 0 1 51.5 22.5)">4</text>
		<text transform="matrix(1 0 0 1 58.5 10.5)">5</text>
		<text transform="matrix(1 0 0 1 63.5 24.5)">6</text>
		<text transform="matrix(1 0 0 1 22.25 46.5)">7</text>
		<text transform="matrix(1 0 0 1 34.5 38.5)">8</text>
		<text transform="matrix(1 0 0 1 36.5 49.5)">9</text>
		<text transform="matrix(1 0 0 1 37.5 62.5)">10</text>
		<text transform="matrix(1 0 0 1 13.5 76.5)">11</text>
		<text transform="matrix(1 0 0 1 58.5 46.3047)">12</text>
	</g>
	<g id="StrokePaths" style="fill:none;stroke:#404040;stroke-width:3;stroke-linecap:round;stroke-linejoin:round;">
		<path d="M23.14,14.4c0.4,0.34,0.85,0.61,0.98,1.06c1.13,3.95,2.56,12.24,3.69,18.04"/>
		<path d="M25.6,16.72c7.31-0.84,13.59-2.5,20.33-3.35c1.69-0.21,2.71,0.97,2.47,1.93c-1.01,3.99-1.38,6.34-3.17,12.97"/>
		<path d="M28.63,31.43c5.45-0.51,11.32-1.88,18.8-2.67"/>
		<path d="M55.64,12.4c0.35,0.36,0.75,0.65,0.86,1.13c0.99,4.21,2.75,10.54,3.75,16.71"/>
		<path d="M56.81,13.87c6.44-0.89,17.48-2.6,23.42-3.5c1.49-0.22,2.39,1.04,2.18,2.06c-0.89,4.25-2.16,6.72-3.74,13.78"/>
		<path d="M59.97,28.05c4.8-0.54,14.1-0.97,20.69-1.81"/>
		<path d="M29.4,39.09c0.34,0.5,0.35,0.84,0.54,1.46c1.56,5.1,3.54,18.01,4.52,27.48"/>
		<path d="M31.02,41.02c12.99-1.71,34.43-4.03,43.38-4.91c3.29-0.32,5.27,0.69,5.17,2.84c-0.23,5.11-4.37,23.06-4.96,25.19"/>
		<path d="M34.25,52.98c3.9-0.41,39.61-3.95,42.84-4.09"/>
		<path d="M35.57,66.12c11.3-1.62,26.75-3,39.12-4"/>
		<path d="M16.75,79.7c1.52,0.54,4.3,0.63,5.82,0.54c8.43-0.49,49.18-3.99,68.11-4.73c2.53-0.1,4.05,0.26,5.31,0.53"/>
		<path d="M53.24,39.61c0.67,0.38,1.09,1.44,1.1,2.73c0.04,6.56,0.2,56.54,0.22,58.68"/>
	</g>
</svg>
