<?xml version="1.0" encoding="UTF-8"?>
<!-- Copyright (C) 2009 Ulrich Apel.
This work is distributed under the conditions of the Creative Commons
Attribution-Share Alike 3.0 Licence. This means you are free:
* to Share - to copy, distribute and transmit the work
* to Remix - to adapt the work

Under the following conditions:
* Attribution. You must attribute the work by stating your use of KanjiVG in
  your own copyright header and linking to KanjiVG's website
  (http://kanjivg.tagaini.net)
* Share Alike. If you alter, transform, or build upon this work, you may
  distribute the resulting work only under the same or similar license to this
  one.

See http://creativecommons.org/licenses/by-sa/3.0/ for more details. -->
<!DOCTYPE svg PUBLIC "-//W3C//DTD SVG 1.0//EN" "http://www.w3.org/TR/2001/REC-SVG-20010904/DTD/svg10.dtd">
<svg xmlns="http://www.w3.org/2000/svg" width="109" height="109" viewBox="0 0 109 109">
	<g id="HelperGrid" style="opacity:0.75;">
		<rect x="0.5" y="0.5" style="fill:none;stroke:#404040;" width="108" height="108"/> 
		<line style="fill:none;stroke:#404040;" x1="0.5" y1="72.51" x2="108.5" y2="72.51"/>
		<line style="fill:none;stroke:#404040;" x1="0.5" y1="36.49" x2="108.5" y2="36.49"/>
		<line style="fill:none;stroke:#404040;" x1="72.5" y1="0.5" x2="72.5" y2="108.5"/>
		<line style="fill:none;stroke:#404040;" x1="36.5" y1="0.5" x2="36.5" y2="108.5"/>
	</g>
	<g id="Kanji">
		<text transform="matrix(1 0 0 1 0.5 93.3799)" style="font-size:108;">嚆</text>
	</g>
	<g id="StrokeNumbers" style="font-size:8;fill:#808080">
		<text transform="matrix(1 0 0 1 3.5 41.8486)">1</text>
		<text transform="matrix(1 0 0 1 13.5 32.5)">2</text>
		<text transform="matrix(1 0 0 1 17.708 54.8481)">3</text>
		<text transform="matrix(1 0 0 1 29.5 21.5)">4</text>
		<text transform="matrix(1 0 0 1 43.5 10.5)">5</text>
		<text transform="matrix(1 0 0 1 70.5 9.5)">6</text>
		<text transform="matrix(1 0 0 1 58.5 31.5)">7</text>
		<text transform="matrix(1 0 0 1 38.5 35.5)">8</text>
		<text transform="matrix(1 0 0 1 46.25 52.5)">9</text>
		<text transform="matrix(1 0 0 1 55.5 43.5)">10</text>
		<text transform="matrix(1 0 0 1 57.5 53.5)">11</text>
		<text transform="matrix(1 0 0 1 31.5 72.5)">12</text>
		<text transform="matrix(1 0 0 1 44.25 63.7285)">13</text>
		<text transform="matrix(1 0 0 1 46.5 81.6543)">14</text>
		<text transform="matrix(1 0 0 1 58.5 72.5)">15</text>
		<text transform="matrix(1 0 0 1 61.5 82.5)">16</text>
	</g>
	<g id="StrokePaths" style="fill:none;stroke:#404040;stroke-width:3;stroke-linecap:round;stroke-linejoin:round;">
		<path d="M9.75,34.06c0.35,0.45,0.72,0.82,0.87,1.38c1.23,4.42,3.2,18.12,4.04,26.06"/>
		<path d="M11.96,36.18c8.94-1.94,13.77-2.61,17.91-3.19c1.52-0.21,2.43,1.26,2.21,2.51c-0.9,5.17-2.45,12.65-3.78,19.8"/>
		<path d="M14.32,57.86c4.87-0.66,9.75-0.92,16.43-1.93"/>
		<path d="M36,21.8c1.4,0.49,3.02,0.59,4.42,0.49c12.85-0.9,37.62-4.17,52.43-4.24c2.33-0.01,3.73,0.23,4.89,0.48"/>
		<path d="M51.74,11.89c1.45,1.34,1.94,1.75,2.08,2.57C54.5,18.5,55,24,55.1,29"/>
		<path d="M77.9,9.75c0.93,0.94,1.55,2.36,1.25,3.74c-0.93,4.21-1.56,9.22-2.91,14.6"/>
		<path d="M64.67,26.18c0.78,0.42,2.06,2.06,2.06,2.9c0,3.1-0.25,3.69-0.1,6.31"/>
		<path d="M39.73,38.63c1.02,0.07,3.35,0.5,4.35,0.4c8.03-0.84,35.84-4.27,46.75-4.48c1.69-0.03,2.54,0.03,3.8,0.51"/>
		<path d="M51.41,43.88c0.44,0.25,0.88,0.45,1.08,0.76c1.51,2.44,1.72,9.17,2.76,13.56"/>
		<path d="M54.13,45.53c8.93-1.27,19-2.68,24.12-3c1.87-0.12,2.99,1.46,2.72,2.15c-1.11,2.85-1.6,4.77-3.25,8.71"/>
		<path d="M55.44,56.05c6.01-0.36,15.9-1.75,24.15-2.31"/>
		<path d="M40.87,65.09c0.6,1.05,1.44,2.3,1.63,4.18c0.45,4.39,2.31,21.53,2.94,28.22"/>
		<path d="M41.66,66.6c10.84-0.85,38.84-3.85,47.68-4.44c3.78-0.25,5.59,0.79,5.19,6.48C94,76.25,92.5,86,89.97,93.53c-1.88,5.59-4.72,2.47-6.77-0.5"/>
		<path d="M54.89,73.49c0.32,0.25,0.64,0.46,0.78,0.78c1.1,2.5,2.42,9.39,3.17,13.88"/>
		<path d="M56.86,75.18c6.49-1.3,14.08-2.11,17.78-2.57c1.5-0.19,2.96,1.03,2.81,2.23c-0.37,3-1.75,5.63-2.94,9.67"/>
		<path d="M58.49,85.95c5.76-0.45,10.51-0.7,17.88-1.08"/>
	</g>
</svg>
