<?xml version="1.0" encoding="UTF-8"?>
<!-- Copyright (C) 2009 Ulrich Apel.
This work is distributed under the conditions of the Creative Commons
Attribution-Share Alike 3.0 Licence. This means you are free:
* to Share - to copy, distribute and transmit the work
* to Remix - to adapt the work

Under the following conditions:
* Attribution. You must attribute the work by stating your use of KanjiVG in
  your own copyright header and linking to KanjiVG's website
  (http://kanjivg.tagaini.net)
* Share Alike. If you alter, transform, or build upon this work, you may
  distribute the resulting work only under the same or similar license to this
  one.

See http://creativecommons.org/licenses/by-sa/3.0/ for more details. -->
<!DOCTYPE svg PUBLIC "-//W3C//DTD SVG 1.0//EN" "http://www.w3.org/TR/2001/REC-SVG-20010904/DTD/svg10.dtd">
<svg xmlns="http://www.w3.org/2000/svg" width="109" height="109" viewBox="0 0 109 109">
	<g id="HelperGrid" style="opacity:0.75;">
		<rect x="0.5" y="0.5" style="fill:none;stroke:#404040;" width="108" height="108"/> 
		<line style="fill:none;stroke:#404040;" x1="0.5" y1="72.51" x2="108.5" y2="72.51"/>
		<line style="fill:none;stroke:#404040;" x1="0.5" y1="36.49" x2="108.5" y2="36.49"/>
		<line style="fill:none;stroke:#404040;" x1="72.5" y1="0.5" x2="72.5" y2="108.5"/>
		<line style="fill:none;stroke:#404040;" x1="36.5" y1="0.5" x2="36.5" y2="108.5"/>
	</g>
	<g id="Kanji">
		<text transform="matrix(1 0 0 1 0.5 93.3799)" style="font-size:108;">嚔</text>
	</g>
	<g id="StrokeNumbers" style="font-size:8;fill:#808080">
		<text transform="matrix(1 0 0 1 2.5 41.5)">1</text>
		<text transform="matrix(1 0 0 1 12.5 31.5)">2</text>
		<text transform="matrix(1 0 0 1 16.708 53.5)">3</text>
		<text transform="matrix(1 0 0 1 42.5 18.5)">4</text>
		<text transform="matrix(1 0 0 1 55.25 9.5)">5</text>
		<text transform="matrix(1 0 0 1 34.5 30.2549)">6</text>
		<text transform="matrix(1 0 0 1 44.5 30.5)">7</text>
		<text transform="matrix(1 0 0 1 43.25 48.104)">8</text>
		<text transform="matrix(1 0 0 1 51.5 37.0293)">9</text>
		<text transform="matrix(1 0 0 1 68.5 43.5)">10</text>
		<text transform="matrix(1 0 0 1 54.5 44.5)">11</text>
		<text transform="matrix(1 0 0 1 55.25 52.5)">12</text>
		<text transform="matrix(1 0 0 1 47.5 63.5)">13</text>
		<text transform="matrix(1 0 0 1 82.5 60.6543)">14</text>
		<text transform="matrix(1 0 0 1 55.5 75.5)">15</text>
		<text transform="matrix(1 0 0 1 69.5 74.5)">16</text>
		<text transform="matrix(1 0 0 1 37.5 76.5)">17</text>
		<text transform="matrix(1 0 0 1 46.5 92.5)">18</text>
	</g>
	<g id="StrokePaths" style="fill:none;stroke:#404040;stroke-width:3;stroke-linecap:round;stroke-linejoin:round;">
		<path d="M8.75,34.06c0.35,0.45,0.72,0.82,0.87,1.38c1.23,4.42,2.7,18.12,3.54,26.06"/>
		<path d="M10.96,36.18c8.94-1.94,13.27-3.11,17.41-3.69c1.52-0.21,2.43,1.26,2.21,2.51c-0.9,5.17-2.45,12.65-3.78,19.8"/>
		<path d="M12.82,57.86c4.87-0.66,9.75-1.42,16.43-2.43"/>
		<path d="M43.25,21.77c0.82,0.32,2.32,0.4,3.15,0.32C56.94,21,75.33,18.7,85.94,18.42c1.37-0.04,2.19,0.15,2.87,0.31"/>
		<path d="M64.24,9.5c0.13,0.31,1.9,1.64,1.9,3.64c0,6.61-0.39,7.22-0.39,16.26"/>
		<path d="M41.17,31.06c0,3.19-2.77,11.95-4.03,14.08"/>
		<path d="M42.18,32.39c7.13-0.74,43.71-4.41,49.5-4.69c9.05-0.44,1.92,5.4-0.34,6.99"/>
		<path d="M49.4,38.36c0.24,0.3,0.24,0.51,0.38,0.88c1.08,3.1,2.09,10.93,2.76,16.71"/>
		<path d="M50.52,38.78c8.35-0.78,22.66-2.11,28.89-2.76c2.29-0.24,3.46,0.61,3.34,1.46c-0.43,3.13-1.49,11.64-2.54,16.86"/>
		<path d="M65.56,37.93c0.3,4.03,0.15,12.83,0.15,15.52"/>
		<path d="M52.07,46.8c6.47-0.72,12.97-1.25,19.46-1.85c0.78-0.07,1.54-0.14,2.26-0.21"/>
		<path d="M52.96,55.12c6.01-0.33,18.95-1.72,27.25-2.27"/>
		<path d="M61.68,57c0.07,1,0.21,1.56-0.07,1.84c-1.62,1.66-5.37,5.66-8.67,8.13c-1.64,1.23-2.33,1.34,0.36,0.84c7.19-1.32,20.19-4.07,29.18-5.92"/>
		<path d="M77.25,58.37c3.64,1.52,9.4,6.24,10.31,8.6"/>
		<path d="M64.87,67.75c0.32,0.32,1.08,1.72,1.08,2.36c0,4.33,0.29,15.81,0.23,19.78"/>
		<path d="M86.85,75.03c-1.2,0-2.64,0.01-4.16,0.18c-7.18,0.8-15.38,1.78-16.55,1.78"/>
		<path d="M49.07,74.38c0.08,0.58,0.21,1.51-0.16,2.32c-3.44,7.52-6.05,12.84-14.47,20.27"/>
		<path d="M48.4,82.76C52,82.5,69.5,93.25,86.64,98.15c2.26,0.65,3.86,0.6,7.43,0.85"/>
	</g>
</svg>
