<?xml version="1.0" encoding="UTF-8"?>
<!-- Copyright (C) 2009 Ulrich Apel.
This work is distributed under the conditions of the Creative Commons
Attribution-Share Alike 3.0 Licence. This means you are free:
* to Share - to copy, distribute and transmit the work
* to Remix - to adapt the work

Under the following conditions:
* Attribution. You must attribute the work by stating your use of KanjiVG in
  your own copyright header and linking to KanjiVG's website
  (http://kanjivg.tagaini.net)
* Share Alike. If you alter, transform, or build upon this work, you may
  distribute the resulting work only under the same or similar license to this
  one.

See http://creativecommons.org/licenses/by-sa/3.0/ for more details. -->
<!DOCTYPE svg PUBLIC "-//W3C//DTD SVG 1.0//EN" "http://www.w3.org/TR/2001/REC-SVG-20010904/DTD/svg10.dtd">
<svg xmlns="http://www.w3.org/2000/svg" width="109" height="109" viewBox="0 0 109 109">
	<g id="HelperGrid" style="opacity:0.75;">
		<rect x="0.5" y="0.5" style="fill:none;stroke:#404040;" width="108" height="108"/> 
		<line style="fill:none;stroke:#404040;" x1="0.5" y1="72.51" x2="108.5" y2="72.51"/>
		<line style="fill:none;stroke:#404040;" x1="0.5" y1="36.49" x2="108.5" y2="36.49"/>
		<line style="fill:none;stroke:#404040;" x1="72.5" y1="0.5" x2="72.5" y2="108.5"/>
		<line style="fill:none;stroke:#404040;" x1="36.5" y1="0.5" x2="36.5" y2="108.5"/>
	</g>
	<g id="Kanji">
		<text transform="matrix(1 0 0 1 0.5 93.3799)" style="font-size:108;">図</text>
	</g>
	<g id="StrokeNumbers" style="font-size:8;fill:#808080">
		<text transform="matrix(1 0 0 1 13.5 27.1299)">1</text>
		<text transform="matrix(1 0 0 1 23.5 16.5)">2</text>
		<text transform="matrix(1 0 0 1 27.75 34.5)">3</text>
		<text transform="matrix(1 0 0 1 41.5 28.5)">4</text>
		<text transform="matrix(1 0 0 1 63.5 33.5)">5</text>
		<text transform="matrix(1 0 0 1 32.25 57.5)">6</text>
		<text transform="matrix(1 0 0 1 25.5 89.5)">7</text>
	</g>
	<g id="StrokePaths" style="fill:none;stroke:#404040;stroke-width:3;stroke-linecap:round;stroke-linejoin:round;">
		<path d="M19,17.88c1.25,1.25,1.82,2.7,1.82,4.56c0,15.18,0.04,41.06,0.04,67.55c0,2.12-0.06,4.2-0.1,6.25"/>
		<path d="M21.52,19.73c18.46-1.58,52.47-4.4,63.27-4.4c3.2,0,4.72,1.93,4.68,4.87c-0.22,13.81-0.33,46.02-0.1,67.53c0.03,2.46,0.06,4.83,0.11,7.06"/>
		<path d="M33,37.12c2.82,1.52,7.29,6.26,8,8.62"/>
		<path d="M47.38,30.38c2.96,1.88,7.64,7.71,8.38,10.62"/>
		<path d="M72.02,32.18c0.48,1.32,0.38,2.64-0.43,4.81C65.25,54.12,53.12,70.62,34,80.75"/>
		<path d="M40.25,54.5C48.33,57.57,63.72,67.3,70.5,76"/>
		<path d="M22.19,92.08c15.31-0.58,47.64-2.3,65.29-2.71"/>
	</g>
</svg>
