<?xml version="1.0" encoding="UTF-8"?>
<!DOCTYPE svg PUBLIC "-//W3C//DTD SVG 1.0//EN" "http://www.w3.org/TR/2001/REC-SVG-20010904/DTD/svg10.dtd">
<svg xmlns="http://www.w3.org/2000/svg" width="109" height="109" viewBox="0 0 109 109">
	<g id="HelperGrid" style="opacity:0.75;">
		<rect x="0.5" y="0.5" style="fill:none;stroke:#404040;" width="108" height="108"/> 
		<line style="fill:none;stroke:#404040;" x1="0.5" y1="72.51" x2="108.5" y2="72.51"/>
		<line style="fill:none;stroke:#404040;" x1="0.5" y1="36.49" x2="108.5" y2="36.49"/>
		<line style="fill:none;stroke:#404040;" x1="72.5" y1="0.5" x2="72.5" y2="108.5"/>
		<line style="fill:none;stroke:#404040;" x1="36.5" y1="0.5" x2="36.5" y2="108.5"/>
	</g>
	<g id="Kanji">
		<text transform="matrix(1 0 0 1 0.5 93.3799)" style="font-size:108;">圖</text>
	</g>
	<g id="StrokeNumbers" style="font-size:8;fill:#808080">
		<text transform="matrix(1 0 0 1 12.5 24.5)">1</text>
		<text transform="matrix(1 0 0 1 22.5 15.5)">2</text>
		<text transform="matrix(1 0 0 1 28.5 30.5)">3</text>
		<text transform="matrix(1 0 0 1 40.75 23.5)">4</text>
		<text transform="matrix(1 0 0 1 41.5 33.5)">5</text>
		<text transform="matrix(1 0 0 1 45.5 44.5)">6</text>
		<text transform="matrix(1 0 0 1 25.5 45.5)">7</text>
		<text transform="matrix(1 0 0 1 26.5 64.5)">8</text>
		<text transform="matrix(1 0 0 1 35.75 55.5)">9</text>
		<text transform="matrix(1 0 0 1 36.5 71.5)">10</text>
		<text transform="matrix(1 0 0 1 46.5 63.3799)">11</text>
		<text transform="matrix(1 0 0 1 48.5 73.5)">12</text>
		<text transform="matrix(1 0 0 1 39.5 82.5)">13</text>
		<text transform="matrix(1 0 0 1 22.75 91.1543)">14</text>
	</g>
	<g id="StrokePaths" style="fill:none;stroke:#404040;stroke-width:3;stroke-linecap:round;stroke-linejoin:round;">
		<path d="M18.25,16.32c0.75,1.43,1.34,2.51,1.36,4.41C19.75,35,19.75,69.75,19.3,97"/>
		<path d="M19.73,18.65C39.5,17.25,71.75,15,85.75,14.5c2.75-0.1,3.55,2.49,3.5,5.5c-0.25,15.75-0.5,52.25-0.5,75"/>
		<path d="M35.25,24.32c0.31,0.24,0.62,0.45,0.75,0.75c1.06,2.42,1.84,8.59,2.56,12.93"/>
		<path d="M36.66,25.46C45,24.5,64.57,22.3,68.17,21.98c1.31-0.12,2.1,0.69,1.91,1.37c-0.78,2.82-1.69,6.24-2.84,10.14"/>
		<path d="M39.21,36.38C43.43,36.02,62,34,69.55,33.35"/>
		<path d="M51.83,35.5c0.58,0.53,1.54,2.6,1.54,3.66c0,3.91-0.18,3.23-0.08,6.54"/>
		<path d="M26.39,47.68c1.5,0.35,2.81,0.63,4.54,0.48c10.56-0.92,34.24-3.74,46.2-4.44c1.76-0.1,2.66,0.04,3.97,0.62"/>
		<path d="M32.51,56.13c0.57,0.69,0.65,1.45,0.77,2.35c0.79,6.09,2.28,15.92,3.43,27.85"/>
		<path d="M34.19,58.17c10.19-1.23,32.94-3.78,39.76-4.3c1.55-0.12,2.66,2.31,2.48,3.75c-0.85,6.86-2.48,17.23-4.18,26.53"/>
		<path d="M44.1,65.27c0.27,0.2,0.59,0.83,0.67,1.12c0.95,3.55,1.38,7.16,2.18,10.86"/>
		<path d="M45.79,66.57c5.55-1.32,14.58-2.85,17.76-3.26c1.16-0.15,1.36,1.51,1.19,2.11c-0.69,2.45-1.99,4.92-3.01,8.32"/>
		<path d="M47.12,75.78c4.02-0.7,9.38-1.53,16.16-1.79"/>
		<path d="M36.69,84.62c10.37-1.12,22.82-2.12,35.22-2.54"/>
		<path d="M19.75,95.01c15.75-0.76,50.96-3.1,69-3.51"/>
	</g>
</svg>
