<?xml version="1.0" encoding="UTF-8"?>
<!-- Copyright (C) 2009 Ulrich Apel.
This work is distributed under the conditions of the Creative Commons
Attribution-Share Alike 3.0 Licence. This means you are free:
* to Share - to copy, distribute and transmit the work
* to Remix - to adapt the work

Under the following conditions:
* Attribution. You must attribute the work by stating your use of KanjiVG in
  your own copyright header and linking to KanjiVG's website
  (http://kanjivg.tagaini.net)
* Share Alike. If you alter, transform, or build upon this work, you may
  distribute the resulting work only under the same or similar license to this
  one.

See http://creativecommons.org/licenses/by-sa/3.0/ for more details. -->
<!DOCTYPE svg PUBLIC "-//W3C//DTD SVG 1.0//EN" "http://www.w3.org/TR/2001/REC-SVG-20010904/DTD/svg10.dtd">
<svg xmlns="http://www.w3.org/2000/svg" width="109" height="109" viewBox="0 0 109 109">
	<g id="HelperGrid" style="opacity:0.75;">
		<rect x="0.5" y="0.5" style="fill:none;stroke:#404040;" width="108" height="108"/> 
		<line style="fill:none;stroke:#404040;" x1="0.5" y1="72.51" x2="108.5" y2="72.51"/>
		<line style="fill:none;stroke:#404040;" x1="0.5" y1="36.49" x2="108.5" y2="36.49"/>
		<line style="fill:none;stroke:#404040;" x1="72.5" y1="0.5" x2="72.5" y2="108.5"/>
		<line style="fill:none;stroke:#404040;" x1="36.5" y1="0.5" x2="36.5" y2="108.5"/>
	</g>
	<g id="Kanji">
		<text transform="matrix(1 0 0 1 0.5 93.3799)" style="font-size:108;">圻</text>
	</g>
	<g id="StrokeNumbers" style="font-size:8;fill:#808080">
		<text transform="matrix(1 0 0 1 6.5 47.6299)">1</text>
		<text transform="matrix(1 0 0 1 18.25 20.5)">2</text>
		<text transform="matrix(1 0 0 1 5.5 83.5)">3</text>
		<text transform="matrix(1 0 0 1 75.5 12.5)">4</text>
		<text transform="matrix(1 0 0 1 42.5 29.5)">5</text>
		<text transform="matrix(1 0 0 1 56.5 43.5)">6</text>
		<text transform="matrix(1 0 0 1 69.5 55.4297)">7</text>
	</g>
	<g id="StrokePaths" style="fill:none;stroke:#404040;stroke-width:3;stroke-linecap:round;stroke-linejoin:round;">
		<path d="M13.5,46.64c0.86,0.38,3.05,0.46,3.9,0.36c5.46-0.66,17.09-2.89,23.16-3.5c1.42-0.14,2.97-0.18,3.69,0.01"/>
		<path d="M27.87,20c1.09,0.5,1.96,2.23,1.96,3.25c0,7.25,0.03,40.25,0.03,51"/>
		<path d="M13.5,80.79c0.75,0.96,2.25,1.46,4.5,0.21c6.25-3.5,17.5-9.75,23.75-13.25"/>
		<path d="M84.27,13c0.07,0.35,0.32,1.04-0.15,1.41c-6.48,5.17-15.76,9.58-29.43,14.03"/>
		<path d="M51.73,26.33c0.71,1.98,0.69,3.87,0.69,6.03c0,23.14,2.33,43.14-10.12,57.66"/>
		<path d="M53.09,46.85c0.54,0.2,2.65,0.34,4.07,0.12c7.86-1.26,25.59-3.59,34.52-4.21c1.44-0.1,3.92-0.2,4.82,0"/>
		<path d="M75.68,46.98c0.94,0.63,1.5,2.84,1.69,4.1c0.19,1.26,0,41.04-0.19,48.92"/>
	</g>
</svg>
