<?xml version="1.0" encoding="UTF-8"?>
<!-- Copyright (C) 2009 Ulrich Apel.
This work is distributed under the conditions of the Creative Commons
Attribution-Share Alike 3.0 Licence. This means you are free:
* to Share - to copy, distribute and transmit the work
* to Remix - to adapt the work

Under the following conditions:
* Attribution. You must attribute the work by stating your use of KanjiVG in
  your own copyright header and linking to KanjiVG's website
  (http://kanjivg.tagaini.net)
* Share Alike. If you alter, transform, or build upon this work, you may
  distribute the resulting work only under the same or similar license to this
  one.

See http://creativecommons.org/licenses/by-sa/3.0/ for more details. -->
<!DOCTYPE svg PUBLIC "-//W3C//DTD SVG 1.0//EN" "http://www.w3.org/TR/2001/REC-SVG-20010904/DTD/svg10.dtd">
<svg xmlns="http://www.w3.org/2000/svg" width="109" height="109" viewBox="0 0 109 109">
	<g id="HelperGrid" style="opacity:0.75;">
		<rect x="0.5" y="0.5" style="fill:none;stroke:#404040;" width="108" height="108"/> 
		<line style="fill:none;stroke:#404040;" x1="0.5" y1="72.51" x2="108.5" y2="72.51"/>
		<line style="fill:none;stroke:#404040;" x1="0.5" y1="36.49" x2="108.5" y2="36.49"/>
		<line style="fill:none;stroke:#404040;" x1="72.5" y1="0.5" x2="72.5" y2="108.5"/>
		<line style="fill:none;stroke:#404040;" x1="36.5" y1="0.5" x2="36.5" y2="108.5"/>
	</g>
	<g id="Kanji">
		<text transform="matrix(1 0 0 1 0.5 93.3799)" style="font-size:108;">埶</text>
	</g>
	<g id="StrokeNumbers" style="font-size:8;fill:#808080">
		<text transform="scale(0.93273987,1.0721103)" x="9.6379814" y="26.767122">1</text>
		<text transform="scale(0.93273987,1.0721103)" x="22.280323" y="13.098731">2</text>
		<text transform="scale(0.93273987,1.0721103)" x="3.1836631" y="42.630863">3</text>
		<text transform="scale(0.93273987,1.0721103)" x="11.409917" y="55.405178">4</text>
		<text transform="scale(0.93273987,1.0721103)" x="45.490112" y="49.529282">5</text>
		<text transform="scale(0.93273987,1.0721103)" x="11.703712" y="75.383224">6</text>
		<text transform="scale(0.93273987,1.0721103)" x="25.805861" y="62.456253">7</text>
		<text transform="scale(0.93273987,1.0721103)" x="5.5340214" y="87.135017">8</text>
		<text transform="scale(0.93273987,1.0721103)" x="65.468155" y="13.098731">9</text>
		<text transform="scale(0.93273987,1.0721103)" x="59.298466" y="36.602314">10</text>
		<text transform="scale(0.93273987,1.0721103)" x="59.525745" y="55.852219">11</text>
	</g>
	<g id="StrokePaths" style="fill:none;stroke:#404040;stroke-width:3;stroke-linecap:round;stroke-linejoin:round;">
		<path d="m16.186819,29.104494c1.331878,0.571588,2.950798,0.368357,4.340084,0.254039,5.499736,-0.495376,15.592153,-2.095821,21.252632,-2.514985,1.722256,-0.12702,3.478956,-0.203231,5.178248,0.241337"/>
		<path d="m31.377112,11.931464c0.608531,0.673204,1.171134,2.01961,1.171134,3.708968,0,10.593423-0.298524,21.390076-0.298524,25.53091"/>
		<path d="m10.101517,45.312176c1.251505,0.495376,3.536364,0.673203,4.776388,0.495376,11.091325,-1.638551,23.721199,-4.17894,33.216567,-5.398327,2.066706,-0.266741,3.329694,0.228635,4.363047,0.482674"/>
		<path d="m21.192842,50.138915c0.06889,0.558886,0.160744,1.460724-0.149262,2.235542-2.686719,6.719329-6.556053,11.16501-13.7321171,17.643002"/>
		<path d="m38.863183,44.041981c0.67742,0.91454,1.251505,2.311754,1.251505,3.708968,0,1.89259-0.20667,5.449135-0.20667,6.795541,0,3.683564,2.307822,4.890249,6.728278,4.890249,3.995632,0,6.934948,-0.317549,8.622759,-1.511532"/>
		<path d="m17.392398,72.354617c1.538548,0.39376,2.904871,0.609693,4.615645,0.39376,8.232381,-1.028857,13.89286,-2.070417,20.035571,-2.718216,1.48114,-0.152423,3.134505,-0.571588,4.592682,-0.139721"/>
		<path d="m31.273777,57.506043c1.297433,1.43532,1.676329,3.32791,1.676329,5.398327,0,4.445681,0.03445,13.654591,0.03445,22.545952"/>
		<path d="m14.108631,90.581908c0.952981,1.054261,2.388194,1.219387,4.340084,0.673203,6.866058,-1.905292,19.404078,-6.020722,28.0498,-8.827852"/>
		<path d="m72.493091,11.931464c0.574085,0.698607,1.021871,2.299053,0.987426,3.556545-1.297432,44.86327-9.483886,63.446215-25.558271,77.888327"/>
		<path d="m60.356931,42.59396c2.215968,0.45727,4.098968,0.406462,5.361955,0,3.019688,-0.965348,10.746874,-2.680111,17.302926,-4.153536,3.524883,-0.787521,5.247139,0,4.408974,4.90295-0.654457,3.810584-4.328602,19.06562-4.902687,29.532023-0.47075,8.484899,1.733737,14.861275,9.9776,14.861275,7.532001,0,9.828341,0.241337,10.046491,-8.878659"/>
		<path d="m59.266169,64.492113c4.684535,2.514985,12.101715,10.339383,13.272849,14.251582"/>
	</g>
</svg>
