<?xml version="1.0" encoding="UTF-8"?>
<!-- Copyright (C) 2009 Ulrich Apel.
This work is distributed under the conditions of the Creative Commons
Attribution-Share Alike 3.0 Licence. This means you are free:
* to Share - to copy, distribute and transmit the work
* to Remix - to adapt the work

Under the following conditions:
* Attribution. You must attribute the work by stating your use of KanjiVG in
  your own copyright header and linking to KanjiVG's website
  (http://kanjivg.tagaini.net)
* Share Alike. If you alter, transform, or build upon this work, you may
  distribute the resulting work only under the same or similar license to this
  one.

See http://creativecommons.org/licenses/by-sa/3.0/ for more details. -->
<!DOCTYPE svg PUBLIC "-//W3C//DTD SVG 1.0//EN" "http://www.w3.org/TR/2001/REC-SVG-20010904/DTD/svg10.dtd">
<svg xmlns="http://www.w3.org/2000/svg" width="109" height="109" viewBox="0 0 109 109">
	<g id="HelperGrid" style="opacity:0.75;">
		<rect x="0.5" y="0.5" style="fill:none;stroke:#404040;" width="108" height="108"/> 
		<line style="fill:none;stroke:#404040;" x1="0.5" y1="72.51" x2="108.5" y2="72.51"/>
		<line style="fill:none;stroke:#404040;" x1="0.5" y1="36.49" x2="108.5" y2="36.49"/>
		<line style="fill:none;stroke:#404040;" x1="72.5" y1="0.5" x2="72.5" y2="108.5"/>
		<line style="fill:none;stroke:#404040;" x1="36.5" y1="0.5" x2="36.5" y2="108.5"/>
	</g>
	<g id="Kanji">
		<text transform="matrix(1 0 0 1 0.5 93.3799)" style="font-size:108;">堆</text>
	</g>
	<g id="StrokeNumbers" style="font-size:8;fill:#808080">
		<text transform="matrix(1 0 0 1 8.75 43.1299)">1</text>
		<text transform="matrix(1 0 0 1 15.75 18.5547)">2</text>
		<text transform="matrix(1 0 0 1 5 82.7285)">3</text>
		<text transform="matrix(1 0 0 1 51 16.4043)">4</text>
		<text transform="matrix(1 0 0 1 44.5 57.8291)">5</text>
		<text transform="matrix(1 0 0 1 74 14.5049)">6</text>
		<text transform="matrix(1 0 0 1 61.75 33.6797)">7</text>
		<text transform="matrix(1 0 0 1 80.25 46.104)">8</text>
		<text transform="matrix(1 0 0 1 59 51.5293)">9</text>
		<text transform="matrix(1 0 0 1 58.25 66.4541)">10</text>
		<text transform="matrix(1 0 0 1 58.25 81.3799)">11</text>
	</g>
	<g id="StrokePaths" style="fill:none;stroke:#404040;stroke-width:3;stroke-linecap:round;stroke-linejoin:round;">
		<path d="M14.25,45.39c0.76,0.38,2.24,0.46,3,0.36c4.82-0.66,18.15-3.39,23.5-4c1.25-0.14,2.62-0.18,3.25,0.01"/>
		<path d="M28.37,19.25c1.09,0.5,1.74,2.25,1.96,3.25c0.22,1,0,43.25-0.22,49.5"/>
		<path d="M15.5,78.54c0.75,0.96,2.25,1.46,4.5,0.21c6.25-3.5,12.75-6.75,19-10.25"/>
		<path d="M62.12,13.5c0.19,1.69-0.05,3.91-0.65,5.36C57.64,28.1,52.78,35.93,44,47.18"/>
		<path d="M55.19,36.65c0.63,0.88,1.11,2.8,1.15,4.16c0.37,12.12-0.51,46.63-0.2,52.94"/>
		<path d="M78.69,16.5c0.07,0.92-0.02,2.12-0.24,2.9c-1.44,5-3.26,8.87-6.56,14.96"/>
		<path d="M56.16,37.41c8.84-1.16,33.59-3.96,36.72-4.59"/>
		<path d="M73.98,37.33c0.35,0.45,0.63,1.06,0.63,1.83c0,7.86,0.04,35-0.17,47.38"/>
		<path d="M57.14,53.82c6.89-0.94,29.5-3.69,32.45-4.21"/>
		<path d="M56.3,69.29c7.27-0.8,31.15-2.91,34.27-3.35"/>
		<path d="M56.3,89.18c7.3-1.14,36.06-3.32,39.2-3.95"/>
	</g>
</svg>
