<?xml version="1.0" encoding="UTF-8"?>
<!DOCTYPE svg PUBLIC "-//W3C//DTD SVG 1.0//EN" "http://www.w3.org/TR/2001/REC-SVG-20010904/DTD/svg10.dtd">
<svg xmlns="http://www.w3.org/2000/svg" width="109" height="109" viewBox="0 0 109 109">
	<g id="HelperGrid" style="opacity:0.75;">
		<rect x="0.5" y="0.5" style="fill:none;stroke:#404040;" width="108" height="108"/> 
		<line style="fill:none;stroke:#404040;" x1="0.5" y1="72.51" x2="108.5" y2="72.51"/>
		<line style="fill:none;stroke:#404040;" x1="0.5" y1="36.49" x2="108.5" y2="36.49"/>
		<line style="fill:none;stroke:#404040;" x1="72.5" y1="0.5" x2="72.5" y2="108.5"/>
		<line style="fill:none;stroke:#404040;" x1="36.5" y1="0.5" x2="36.5" y2="108.5"/>
	</g>
	<g id="Kanji">
		<text transform="matrix(1 0 0 1 0.5 93.3799)" style="font-size:108;">хак</text>
	</g>
	<g id="StrokeNumbers" style="font-size:8;fill:#808080">
		<text transform="matrix(1 0 0 1 5.25 45.1299)">1</text>
		<text transform="matrix(1 0 0 1 17.5 18.5)">2</text>
		<text transform="matrix(1 0 0 1 5.25 82.6299)">3</text>
		<text transform="matrix(1 0 0 1 39.75 24.1299)">4</text>
		<text transform="matrix(1 0 0 1 46.5 12.1299)">5</text>
		<text transform="matrix(1 0 0 1 68.5 10.6299)">6</text>
		<text transform="matrix(1 0 0 1 60.75 35.5)">7</text>
		<text transform="matrix(1 0 0 1 60.75 46.479)">8</text>
		<text transform="matrix(1 0 0 1 46.5 60.5)">9</text>
		<text transform="matrix(1 0 0 1 53.5 71.8291)">10</text>
		<text transform="matrix(1 0 0 1 77.5 70.6299)">11</text>
		<text transform="matrix(1 0 0 1 40.5 73.5)">12</text>
	</g>
	<g id="StrokePaths" style="fill:none;stroke:#404040;stroke-width:3;stroke-linecap:round;stroke-linejoin:round;">
		<path d="M13,44.14c0.76,0.38,2.24,0.42,3,0.36c6-0.5,15.5-2.75,22-4c1.24-0.24,2.62-0.18,3.25,0.01"/>
		<path d="M26.37,17.5c1.09,0.5,1.96,2.23,1.96,3.25c0,7.25,0.03,37.25,0.03,48"/>
		<path d="M13.75,77.85c0.7,1.4,2.09,2.14,4.18,0.3c5.81-5.12,16.26-14.28,22.07-19.4"/>
		<path d="M44.7,27.66c0.96,0.45,2.71,0.6,3.67,0.52c7.04-0.6,28.21-3.8,40.4-4.43c1.59-0.08,2.55,0.27,3.35,0.5"/>
		<path d="M54.8,14.89c0.83,0.5,1.34,2.17,1.51,3.13c0.17,0.96,0.28,38.78,0.16,43.68"/>
		<path d="M77.33,11.77c0.86,0.51,1.38,2.24,1.55,3.23c0.17,0.98,0.36,40.1,0.24,45"/>
		<path d="M56.95,38.32c3.68-0.44,7.38-0.72,11.08-1.04c1.21-0.1,2.4-0.21,3.54-0.3"/>
		<path d="M56.98,49.88c3.61-0.08,7.24-0.61,10.82-1c1.09-0.12,2.18-0.24,3.23-0.35"/>
		<path d="M42.5,63c1.13,0.46,3.2,0.58,4.33,0.54c11.74-0.43,34.3-4.11,45.78-4.56c1.88-0.07,3.01,0.28,3.95,0.53"/>
		<path d="M63.82,64.64c0.28,0.29,0.61,1.03,0.54,1.61c-0.54,4.65-2.55,11.29-7.28,16.46"/>
		<path d="M74.65,63.93c0.61,0.88,1.13,1.92,1.14,3.26c0.01,1.93-0.14,3.6-0.13,7c-0.08,4.42,0.68,5.64,7.12,5.76c4.54,0.11,8.42-0.75,9.18-1.55"/>
		<path d="M49.87,66.11C50.5,67,51.26,69,51.26,72.17c0,2.99-0.06,3.92-0.06,12.37s1.05,10.08,21.12,10.08c12.33,0,17.29-1.47,19.66-2.49"/>
	</g>
</svg>
