<?xml version="1.0" encoding="UTF-8"?>
<!-- Copyright (C) 2009 Ulrich Apel.
This work is distributed under the conditions of the Creative Commons
Attribution-Share Alike 3.0 Licence. This means you are free:
* to Share - to copy, distribute and transmit the work
* to Remix - to adapt the work

Under the following conditions:
* Attribution. You must attribute the work by stating your use of KanjiVG in
  your own copyright header and linking to KanjiVG's website
  (http://kanjivg.tagaini.net)
* Share Alike. If you alter, transform, or build upon this work, you may
  distribute the resulting work only under the same or similar license to this
  one.

See http://creativecommons.org/licenses/by-sa/3.0/ for more details. -->
<!DOCTYPE svg PUBLIC "-//W3C//DTD SVG 1.0//EN" "http://www.w3.org/TR/2001/REC-SVG-20010904/DTD/svg10.dtd">
<svg xmlns="http://www.w3.org/2000/svg" width="109" height="109" viewBox="0 0 109 109">
	<g id="HelperGrid" style="opacity:0.75;">
		<rect x="0.5" y="0.5" style="fill:none;stroke:#404040;" width="108" height="108"/> 
		<line style="fill:none;stroke:#404040;" x1="0.5" y1="72.51" x2="108.5" y2="72.51"/>
		<line style="fill:none;stroke:#404040;" x1="0.5" y1="36.49" x2="108.5" y2="36.49"/>
		<line style="fill:none;stroke:#404040;" x1="72.5" y1="0.5" x2="72.5" y2="108.5"/>
		<line style="fill:none;stroke:#404040;" x1="36.5" y1="0.5" x2="36.5" y2="108.5"/>
	</g>
	<g id="Kanji">
		<text transform="matrix(1 0 0 1 0.5 93.3799)" style="font-size:108;">塹</text>
	</g>
	<g id="StrokeNumbers" style="font-size:8;fill:#808080">
		<text transform="matrix(1 0 0 1 10.5 22.5)">1</text>
		<text transform="matrix(1 0 0 1 11.5 34.5)">2</text>
		<text transform="matrix(1 0 0 1 21.5 29.5)">3</text>
		<text transform="matrix(1 0 0 1 24.5 37.9043)">4</text>
		<text transform="matrix(1 0 0 1 24.75 46.5)">5</text>
		<text transform="matrix(1 0 0 1 3.75 56.7549)">6</text>
		<text transform="matrix(1 0 0 1 25.5 11.5)">7</text>
		<text transform="matrix(1 0 0 1 75.5 13.5)">8</text>
		<text transform="matrix(1 0 0 1 54.75 31.5293)">9</text>
		<text transform="matrix(1 0 0 1 65.5 32.5)">10</text>
		<text transform="matrix(1 0 0 1 70.5 44.5)">11</text>
		<text transform="matrix(1 0 0 1 17.5 80.5)">12</text>
		<text transform="matrix(1 0 0 1 40.75 67.2285)">13</text>
		<text transform="matrix(1 0 0 1 12.5 93.5)">14</text>
	</g>
	<g id="StrokePaths" style="fill:none;stroke:#404040;stroke-width:3;stroke-linecap:round;stroke-linejoin:round;">
		<path d="M16.37,22.05c0.68,0.31,1.92,0.38,2.6,0.31c9.45-0.95,19.86-1.98,29.48-2.8c1.13-0.1,1.81,0.15,2.37,0.31"/>
		<path d="M18.88,30.28c0.48,0.38,1.1,1.46,1.19,1.96c0.65,3.6,1.9,10.48,2.82,17.3"/>
		<path d="M21.2,31.24c7.34-0.72,21.05-2.88,26.06-2.99c2.07-0.05,2.5,0.99,2.41,2.11c-0.3,3.88-1.97,10.63-3.62,16.99"/>
		<path d="M22.02,39.43c5.54-0.19,15.83-1.93,26.46-2.41"/>
		<path d="M23.39,48.01c6.44-0.75,14.28-2.2,22.66-2.2"/>
		<path d="M14.22,57.18c0.92,0.58,2.59,0.64,3.54,0.58c9.49-0.69,22.73-2.88,31.57-3.55c1.53-0.12,2.94-0.12,3.71,0.16"/>
		<path d="M32.02,10.4c0.66,0.45,2.18,2.48,2.18,4.24c0,6.59-0.04,51.25-0.18,56.83"/>
		<path d="M84.18,13.5c0.05,0.24,0.21,0.72-0.1,0.98c-4.24,3.59-9.67,6.31-18.62,9.4"/>
		<path d="M62.87,24.14c0.45,1.18,0.44,2.3,0.44,3.59c0,12.69,0.44,24.52-6.39,34.3"/>
		<path d="M63.92,35.9c0.4,0.16,1.97,0.27,3.03,0.09c5.85-1,16.06-2.35,22.72-2.85c1.07-0.08,2.92-0.16,3.59,0"/>
		<path d="M78.18,36.9c0.86,0.5,1.38,2.25,1.55,3.26c0.17,1,0,23.33-0.17,29.6"/>
		<path d="M28.63,79.95c1.1,0.3,3.11,0.35,4.21,0.3c11.31-0.5,35.92-3.48,46.2-3.48c1.83,0,2.93,0.14,3.84,0.3"/>
		<path d="M52.42,66.62c0.12,0.23,1.8,1.21,1.77,2.69C54,77.75,54.25,92.59,54.25,95"/>
		<path d="M18.38,96.86c1.52,0.43,4.31,0.47,5.82,0.43c11.05-0.29,34.53-3.53,63.61-3.65c2.53-0.01,4.05,0.2,5.31,0.42"/>
	</g>
</svg>
