<?xml version="1.0" encoding="UTF-8"?>
<!-- Copyright (C) 2009 Ulrich Apel.
This work is distributed under the conditions of the Creative Commons
Attribution-Share Alike 3.0 Licence. This means you are free:
* to Share - to copy, distribute and transmit the work
* to Remix - to adapt the work

Under the following conditions:
* Attribution. You must attribute the work by stating your use of KanjiVG in
  your own copyright header and linking to KanjiVG's website
  (http://kanjivg.tagaini.net)
* Share Alike. If you alter, transform, or build upon this work, you may
  distribute the resulting work only under the same or similar license to this
  one.

See http://creativecommons.org/licenses/by-sa/3.0/ for more details. -->
<!DOCTYPE svg PUBLIC "-//W3C//DTD SVG 1.0//EN" "http://www.w3.org/TR/2001/REC-SVG-20010904/DTD/svg10.dtd">
<svg xmlns="http://www.w3.org/2000/svg" width="109" height="109" viewBox="0 0 109 109">
	<g id="HelperGrid" style="opacity:0.75;">
		<rect x="0.5" y="0.5" style="fill:none;stroke:#404040;" width="108" height="108"/> 
		<line style="fill:none;stroke:#404040;" x1="0.5" y1="72.51" x2="108.5" y2="72.51"/>
		<line style="fill:none;stroke:#404040;" x1="0.5" y1="36.49" x2="108.5" y2="36.49"/>
		<line style="fill:none;stroke:#404040;" x1="72.5" y1="0.5" x2="72.5" y2="108.5"/>
		<line style="fill:none;stroke:#404040;" x1="36.5" y1="0.5" x2="36.5" y2="108.5"/>
	</g>
	<g id="Kanji">
		<text transform="matrix(1 0 0 1 0.5 93.3799)" style="font-size:108;">墹</text>
	</g>
	<g id="StrokeNumbers" style="font-size:8;fill:#808080">
		<text transform="matrix(1 0 0 1 4.5835 45.2969)">1</text>
		<text transform="matrix(1 0 0 1 15.916 19.2217)">2</text>
		<text transform="matrix(1 0 0 1 5.583 80.8125)">3</text>
		<text transform="matrix(1 0 0 1 37.5 24.4043)">4</text>
		<text transform="matrix(1 0 0 1 46.5 14.3291)">5</text>
		<text transform="matrix(1 0 0 1 48.583 25.5)">6</text>
		<text transform="matrix(1 0 0 1 48.5 37.5)">7</text>
		<text transform="matrix(1 0 0 1 67.5 22.5005)">8</text>
		<text transform="matrix(1 0 0 1 77.5 12.5)">9</text>
		<text transform="matrix(1 0 0 1 78.5 24.5)">10</text>
		<text transform="matrix(1 0 0 1 78.5 34.5)">11</text>
		<text transform="matrix(1 0 0 1 49.5 59.5)">12</text>
		<text transform="matrix(1 0 0 1 59.5 48.5)">13</text>
		<text transform="matrix(1 0 0 1 62.5 61.5)">14</text>
		<text transform="matrix(1 0 0 1 62.5 76.5)">15</text>
	</g>
	<g id="StrokePaths" style="fill:none;stroke:#404040;stroke-width:3;stroke-linecap:round;stroke-linejoin:round;">
		<path d="M10.5,44.64c0.76,0.38,2.24,0.46,3,0.36c4.82-0.66,16.15-2.39,21.5-3c1.25-0.14,2.62-0.18,3.25,0.01"/>
		<path d="M23.87,18c1.09,0.5,1.96,2.23,1.96,3.25c0,7.25,0.03,40.25,0.03,51"/>
		<path d="M12,78.29c0.75,0.96,2.25,1.46,4.5,0.21C22.75,75,32,69.25,38.25,65.75"/>
		<path d="M43.39,16.66c0.6,0.45,1.06,2.38,1.18,3.27c0.12,0.89-0.08,69.28-0.2,74.84"/>
		<path d="M44.73,18.12c2.01-0.1,14.78-2.63,16.6-2.75c1.52-0.1,2.31,0.9,2.39,1.69c0.11,1.21-1.27,24.06-1.27,24.65"/>
		<path d="M45.09,29.28c2.93-0.35,5.83-0.85,8.74-1.34c0.78-0.13,1.56-0.26,2.33-0.39"/>
		<path d="M44.73,41.74c6.67-1.14,10.76-2,16.66-2.52"/>
		<path d="M74.18,14.8c0.34,0.53,0.69,1.65,0.69,2.36c0,0.7-0.12,23,0,23.7"/>
		<path d="M74.94,16.23c1.94-0.09,15.73-2.38,17.5-2.49c1.48-0.09,2.33,0.96,2.31,1.49c-0.38,16.2-0.39,62-0.39,73.75c0,10.01-5.43,1.29-6.56,0.22"/>
		<path d="M75.28,26.95c2.98,0,6.02-0.51,8.98-0.83c0.96-0.1,1.93-0.21,2.86-0.3"/>
		<path d="M75.44,38.94c3.89,0,13.3-1.48,18.33-1.48"/>
		<path d="M58.55,51.37c0.32,0.75,0.65,1.61,0.65,2.61s-0.11,27.61,0,28.61"/>
		<path d="M59.74,52.47c1.82-0.13,15.18-2.11,16.84-2.26c1.38-0.13,2.27,1.39,2.17,2.13c-0.22,1.51-1.43,28.49-1.43,29.24"/>
		<path d="M60.06,65.03c2.97-0.48,6.01-0.63,9.01-0.82c0.89-0.06,1.78-0.11,2.63-0.16"/>
		<path d="M59.74,79.76c3.64,0,12.79-0.98,17.12-1.46"/>
	</g>
</svg>
