<?xml version="1.0" encoding="UTF-8"?>
<!DOCTYPE svg PUBLIC "-//W3C//DTD SVG 1.0//EN" "http://www.w3.org/TR/2001/REC-SVG-20010904/DTD/svg10.dtd">
<svg xmlns="http://www.w3.org/2000/svg" width="109" height="109" viewBox="0 0 109 109">
	<g id="HelperGrid" style="opacity:0.75;">
		<rect x="0.5" y="0.5" style="fill:none;stroke:#404040;" width="108" height="108"/> 
		<line style="fill:none;stroke:#404040;" x1="0.5" y1="72.51" x2="108.5" y2="72.51"/>
		<line style="fill:none;stroke:#404040;" x1="0.5" y1="36.49" x2="108.5" y2="36.49"/>
		<line style="fill:none;stroke:#404040;" x1="72.5" y1="0.5" x2="72.5" y2="108.5"/>
		<line style="fill:none;stroke:#404040;" x1="36.5" y1="0.5" x2="36.5" y2="108.5"/>
	</g>
	<g id="Kanji">
		<text transform="matrix(1 0 0 1 0.5 93.3799)" style="font-size:108;">夊</text>
	</g>
	<g id="StrokeNumbers" style="font-size:8;fill:#808080">
		<text transform="matrix(1 0 0 1 45.5 13.6299)">1</text>
		<text transform="matrix(1 0 0 1 53.5 32.5)">2</text>
		<text transform="matrix(1 0 0 1 17.5 31.5)">3</text>
	</g>
	<g id="StrokePaths" style="fill:none;stroke:#404040;stroke-width:3;stroke-linecap:round;stroke-linejoin:round;">
		<path d="M52.54,13.75c0.09,1.14,0.19,2.93-0.18,4.57c-2.2,9.63-14.33,31.25-31.61,44.18"/>
		<path d="M48.14,35.78c0.46,0.05,2.9,0.45,4.19,0.32c5.79-0.58,16.07-2.7,22.14-4.16c4.17-1,5.35,1.14,4.29,3.86C72.92,50.68,43.51,87.09,17.5,94.75"/>
		<path d="M24.25,30.5c2.25,0,4.41,1.74,4.99,2.73C42,55,66.5,79.75,83.33,89.86c3.99,2.4,6.61,4.28,10.17,5.14"/>
	</g>
</svg>
