<?xml version="1.0" encoding="UTF-8"?>
<!DOCTYPE svg PUBLIC "-//W3C//DTD SVG 1.0//EN" "http://www.w3.org/TR/2001/REC-SVG-20010904/DTD/svg10.dtd">
<svg xmlns="http://www.w3.org/2000/svg" width="109" height="109" viewBox="0 0 109 109">
	<g id="HelperGrid" style="opacity:0.75;">
		<rect x="0.5" y="0.5" style="fill:none;stroke:#404040;" width="108" height="108"/> 
		<line style="fill:none;stroke:#404040;" x1="0.5" y1="72.51" x2="108.5" y2="72.51"/>
		<line style="fill:none;stroke:#404040;" x1="0.5" y1="36.49" x2="108.5" y2="36.49"/>
		<line style="fill:none;stroke:#404040;" x1="72.5" y1="0.5" x2="72.5" y2="108.5"/>
		<line style="fill:none;stroke:#404040;" x1="36.5" y1="0.5" x2="36.5" y2="108.5"/>
	</g>
	<g id="Kanji">
		<text transform="matrix(1 0 0 1 0.5 93.3799)" style="font-size:108;">多</text>
	</g>
	<g id="StrokeNumbers" style="font-size:8;fill:#808080">
		<text transform="matrix(1 0 0 1 38.5 12.5)">1</text>
		<text transform="matrix(1 0 0 1 51.75 13.6299)">2</text>
		<text transform="matrix(1 0 0 1 44.5 28.5)">3</text>
		<text transform="matrix(1 0 0 1 49.5 49.5)">4</text>
		<text transform="matrix(1 0 0 1 64.5 45.5)">5</text>
		<text transform="matrix(1 0 0 1 53.5 63.1299)">6</text>
	</g>
	<g id="StrokePaths" style="fill:none;stroke:#404040;stroke-width:3;stroke-linecap:round;stroke-linejoin:round;">
		<path d="M45.82,11.92c0.18,1.08-0.22,2.3-0.66,3.01C42.5,19.25,37,26.33,28.5,31.25"/>
		<path d="M48.24,16.65c1.38,0.22,3.15,0.08,4.79-0.12c5.59-0.66,9.72-1.28,14.9-2.3c3.15-0.62,4.07,1.15,3.01,3.46c-4.46,9.74-24.82,31.44-44.28,37.66"/>
		<path d="M40,28.25c2.67,1.56,7,6.5,7.75,9"/>
		<path d="M58.5,42.25c0.25,1.5-0.11,2.78-0.48,3.6C55.25,52,48.75,59.5,33.75,68.5"/>
		<path d="M60.42,48.62c1.58,0.13,3.01,0.09,4.6-0.09c5.86-0.66,9.23-1.16,13.48-2.03c3.13-0.64,4.62,1.62,3.48,4.09c-5,10.79-23.61,34.91-54.73,48.16"/>
		<path d="M48.25,63c2.93,1.73,7.67,7.22,8.5,10"/>
	</g>
</svg>
