<?xml version="1.0" encoding="UTF-8"?>
<!-- Copyright (C) 2009 Ulrich Apel.
This work is distributed under the conditions of the Creative Commons
Attribution-Share Alike 3.0 Licence. This means you are free:
* to Share - to copy, distribute and transmit the work
* to Remix - to adapt the work

Under the following conditions:
* Attribution. You must attribute the work by stating your use of KanjiVG in
  your own copyright header and linking to KanjiVG's website
  (http://kanjivg.tagaini.net)
* Share Alike. If you alter, transform, or build upon this work, you may
  distribute the resulting work only under the same or similar license to this
  one.

See http://creativecommons.org/licenses/by-sa/3.0/ for more details. -->
<!DOCTYPE svg PUBLIC "-//W3C//DTD SVG 1.0//EN" "http://www.w3.org/TR/2001/REC-SVG-20010904/DTD/svg10.dtd">
<svg xmlns="http://www.w3.org/2000/svg" width="109" height="109" viewBox="0 0 109 109">
	<g id="HelperGrid" style="opacity:0.75;">
		<rect x="0.5" y="0.5" style="fill:none;stroke:#404040;" width="108" height="108"/> 
		<line style="fill:none;stroke:#404040;" x1="0.5" y1="72.51" x2="108.5" y2="72.51"/>
		<line style="fill:none;stroke:#404040;" x1="0.5" y1="36.49" x2="108.5" y2="36.49"/>
		<line style="fill:none;stroke:#404040;" x1="72.5" y1="0.5" x2="72.5" y2="108.5"/>
		<line style="fill:none;stroke:#404040;" x1="36.5" y1="0.5" x2="36.5" y2="108.5"/>
	</g>
	<g id="Kanji">
		<text transform="matrix(1 0 0 1 0.5 93.3799)" style="font-size:108;">奘</text>
	</g>
	<g id="StrokeNumbers" style="font-size:8;fill:#808080">
		<text transform="matrix(1 0 0 1 30.1934 12.3809)">1</text>
		<text transform="matrix(1 0 0 1 12.5 15.0552)">2</text>
		<text transform="matrix(1 0 0 1 7.5 42.7305)">3</text>
		<text transform="matrix(1 0 0 1 17.5 50.5)">4</text>
		<text transform="matrix(1 0 0 1 44.5 26.5)">5</text>
		<text transform="matrix(1 0 0 1 58.9434 10.0054)">6</text>
		<text transform="matrix(1 0 0 1 49.5 44.5)">7</text>
		<text transform="matrix(1 0 0 1 11.1934 72.5)">8</text>
		<text transform="matrix(1 0 0 1 45.5 57.5)">9</text>
		<text transform="matrix(1 0 0 1 64.5 78.2051)">10</text>
	</g>
	<g id="StrokePaths" style="fill:none;stroke:#404040;stroke-width:3;stroke-linecap:round;stroke-linejoin:round;">
		<path d="M38.84,10.72c0.75,0.86,1.24,2.33,1.24,3.33c0,9.68-0.02,45.27-0.02,48.57"/>
		<path d="M20.76,15.06c0.86,0.4,1.19,1.37,1.27,2.7c0.11,1.99-0.47,8.89-0.73,10.97c-0.09,0.66,0.17,1.8,1.44,1.55c4.43-0.89,12.52-2.03,17.02-2.02"/>
		<path d="M14.75,42.03c1.46,0.1,1.76,0.4,3.46,0.33c7.28-0.3,16.61-2.41,21.69-2.57"/>
		<path d="M26.22,42.81c0.03,0.47-0.06,1.21-0.06,1.89c0,5.79-1.76,12.23-10.22,18.08"/>
		<path d="M46.5,29.32c0.93,0.22,2.81,0.43,4.73,0.28c9.49-0.74,28.82-2.94,40.07-3.18c1.45-0.03,2.79,0.13,3.51,0.27"/>
		<path d="M67.22,10.25c0.13,0.32,1.93,1.65,1.93,3.68c0,7.07,0.11,26.57,0.11,32.98"/>
		<path d="M51.17,48.17c0.79,0.18,2.25,0.23,3.04,0.18c9.84-0.52,24.53-1.54,33.33-1.78c1.32-0.04,2.12,0.09,2.78,0.18"/>
		<path d="M19.3,70.55c1.26,0.38,4.64,0.83,7.32,0.67c18.15-1.15,41.98-3.44,58.28-3.99c2.8-0.1,5.05-0.05,7.58,0.25"/>
		<path d="M54.61,55.5c0.56,0.61,0.86,1.31,0.84,2.63c-0.28,22.81-13.81,34.85-36.08,41.86"/>
		<path d="M53.62,70.88c7.44,6.08,24.79,21.58,32.21,25.65c2.53,1.38,3.41,1.59,4.55,1.72"/>
	</g>
</svg>
