<?xml version="1.0" encoding="UTF-8"?>
<!DOCTYPE svg PUBLIC "-//W3C//DTD SVG 1.0//EN" "http://www.w3.org/TR/2001/REC-SVG-20010904/DTD/svg10.dtd">
<svg xmlns="http://www.w3.org/2000/svg" width="109" height="109" viewBox="0 0 109 109">
	<g id="HelperGrid" style="opacity:0.75;">
		<rect x="0.5" y="0.5" style="fill:none;stroke:#404040;" width="108" height="108"/> 
		<line style="fill:none;stroke:#404040;" x1="0.5" y1="72.51" x2="108.5" y2="72.51"/>
		<line style="fill:none;stroke:#404040;" x1="0.5" y1="36.49" x2="108.5" y2="36.49"/>
		<line style="fill:none;stroke:#404040;" x1="72.5" y1="0.5" x2="72.5" y2="108.5"/>
		<line style="fill:none;stroke:#404040;" x1="36.5" y1="0.5" x2="36.5" y2="108.5"/>
	</g>
	<g id="Kanji">
		<text transform="matrix(1 0 0 1 0.5 93.3799)" style="font-size:108;">女</text>
	</g>
	<g id="StrokeNumbers" style="font-size:8;fill:#808080">
		<text transform="matrix(1 0 0 1 45.0005 17.5)">1</text>
		<text transform="matrix(1 0 0 1 68.5 37.5)">2</text>
		<text transform="matrix(1 0 0 1 5.5 51.5)">3</text>
	</g>
	<g id="StrokePaths" style="fill:none;stroke:#404040;stroke-width:3;stroke-linecap:round;stroke-linejoin:round;">
		<path d="M53.21,18.37c0.54,2.13,0.26,3.41-0.25,5.25C50.38,33,42.62,52.75,35.75,64c-1.39,2.27-1,3.5,1,3.5c11.63,0,28.46,7.48,38.83,16.41c2.56,2.21,4.68,4.51,6.17,6.84"/>
		<path d="M69.62,42.18c0.5,1.7,0.63,3.57-0.01,5.93C65.93,61.8,54.61,81.6,27,91.75"/>
		<path d="M13.88,50.43c3.48,1.39,7.26,0.85,10.88,0.53c19.52-1.7,42.04-4.08,60.61-4.63c3.66-0.11,7.21-0.1,10.62,1.42"/>
	</g>
</svg>
