<?xml version="1.0" encoding="UTF-8"?>
<!-- Copyright (C) 2009 Ulrich Apel.
This work is distributed under the conditions of the Creative Commons
Attribution-Share Alike 3.0 Licence. This means you are free:
* to Share - to copy, distribute and transmit the work
* to Remix - to adapt the work

Under the following conditions:
* Attribution. You must attribute the work by stating your use of KanjiVG in
  your own copyright header and linking to KanjiVG's website
  (http://kanjivg.tagaini.net)
* Share Alike. If you alter, transform, or build upon this work, you may
  distribute the resulting work only under the same or similar license to this
  one.

See http://creativecommons.org/licenses/by-sa/3.0/ for more details. -->
<!DOCTYPE svg PUBLIC "-//W3C//DTD SVG 1.0//EN" "http://www.w3.org/TR/2001/REC-SVG-20010904/DTD/svg10.dtd">
<svg xmlns="http://www.w3.org/2000/svg" width="109" height="109" viewBox="0 0 109 109">
	<g id="HelperGrid" style="opacity:0.75;">
		<rect x="0.5" y="0.5" style="fill:none;stroke:#404040;" width="108" height="108"/> 
		<line style="fill:none;stroke:#404040;" x1="0.5" y1="72.51" x2="108.5" y2="72.51"/>
		<line style="fill:none;stroke:#404040;" x1="0.5" y1="36.49" x2="108.5" y2="36.49"/>
		<line style="fill:none;stroke:#404040;" x1="72.5" y1="0.5" x2="72.5" y2="108.5"/>
		<line style="fill:none;stroke:#404040;" x1="36.5" y1="0.5" x2="36.5" y2="108.5"/>
	</g>
	<g id="Kanji">
		<text transform="matrix(1 0 0 1 0.5 93.3799)" style="font-size:108;">妣</text>
	</g>
	<g id="StrokeNumbers" style="font-size:8;fill:#808080">
		<text transform="matrix(1 0 0 1 19.5 16.5)">1</text>
		<text transform="matrix(1 0 0 1 34.5 33.5)">2</text>
		<text transform="matrix(1 0 0 1 1.5 50.5)">3</text>
		<text transform="matrix(1 0 0 1 54.5 42.5)">4</text>
		<text transform="matrix(1 0 0 1 42.5 14.5)">5</text>
		<text transform="matrix(1 0 0 1 86.5 28.5)">6</text>
		<text transform="matrix(1 0 0 1 65.5 14.5)">7</text>
	</g>
	<g id="StrokePaths" style="fill:none;stroke:#404040;stroke-width:3;stroke-linecap:round;stroke-linejoin:round;">
		<path d="M26.48,16.37c0.39,1.04,1.08,2.74,0.89,4.24C26.38,28,20.05,55.27,15.73,63.9c-0.89,1.77,0.39,2.51,0.89,2.63C27.5,69,34.5,76.66,39.75,84.28"/>
		<path d="M38.75,37.39c0.08,1.27,0.14,4.34-0.16,6.18C36.18,58.41,29.23,79.46,12,90.5"/>
		<path d="M9,48.22c0.75,0.94,1.75,1.62,3.75,1.39c2.15-0.24,21.34-4.85,30.25-7.23"/>
		<path d="M51.23,45.62c4.85-0.54,8.47-1.6,12.7-2.52c1.24-0.27,3.3-0.26,3.93-0.1"/>
		<path d="M48.87,17.83c0.69,1.12,1.29,2.3,1.29,3.84c0,4.17,0.28,58.83,0.28,65.03c0,3.8,1.57,3.55,3.28,2.14c4.79-3.94,8.81-6.61,11.76-8.6"/>
		<path d="M94.55,29.94c0.25,1.08,0.32,3.53-0.86,4.76c-6.76,7.03-11.88,12.18-19.41,18.04"/>
		<path d="M72.79,15c0.8,1.18,1.49,3.06,1.49,4.55c0,3.93,0.13,53.04,0.13,57.65c0,13.54,0.59,15.55,11.39,15.55c12.2,0,11.89-4.51,11.89-12.57"/>
	</g>
</svg>
