<?xml version="1.0" encoding="UTF-8"?>
<!-- Copyright (C) 2009 Ulrich Apel.
This work is distributed under the conditions of the Creative Commons
Attribution-Share Alike 3.0 Licence. This means you are free:
* to Share - to copy, distribute and transmit the work
* to Remix - to adapt the work

Under the following conditions:
* Attribution. You must attribute the work by stating your use of KanjiVG in
  your own copyright header and linking to KanjiVG's website
  (http://kanjivg.tagaini.net)
* Share Alike. If you alter, transform, or build upon this work, you may
  distribute the resulting work only under the same or similar license to this
  one.

See http://creativecommons.org/licenses/by-sa/3.0/ for more details. -->
<!DOCTYPE svg PUBLIC "-//W3C//DTD SVG 1.0//EN" "http://www.w3.org/TR/2001/REC-SVG-20010904/DTD/svg10.dtd">
<svg xmlns="http://www.w3.org/2000/svg" width="109" height="109" viewBox="0 0 109 109">
	<g id="HelperGrid" style="opacity:0.75;">
		<rect x="0.5" y="0.5" style="fill:none;stroke:#404040;" width="108" height="108"/> 
		<line style="fill:none;stroke:#404040;" x1="0.5" y1="72.51" x2="108.5" y2="72.51"/>
		<line style="fill:none;stroke:#404040;" x1="0.5" y1="36.49" x2="108.5" y2="36.49"/>
		<line style="fill:none;stroke:#404040;" x1="72.5" y1="0.5" x2="72.5" y2="108.5"/>
		<line style="fill:none;stroke:#404040;" x1="36.5" y1="0.5" x2="36.5" y2="108.5"/>
	</g>
	<g id="Kanji">
		<text transform="matrix(1 0 0 1 0.5 93.3799)" style="font-size:108;">妨</text>
	</g>
	<g id="StrokeNumbers" style="font-size:8;fill:#808080">
		<text transform="matrix(1 0 0 1 20.25 20.5)">1</text>
		<text transform="matrix(1 0 0 1 36.75 33.1299)">2</text>
		<text transform="matrix(1 0 0 1 3.75 55.6299)">3</text>
		<text transform="matrix(1 0 0 1 61.5 13.5)">4</text>
		<text transform="matrix(1 0 0 1 47.5 29.5)">5</text>
		<text transform="matrix(1 0 0 1 75.5 45.5)">6</text>
		<text transform="matrix(1 0 0 1 63.5 41.5)">7</text>
	</g>
	<g id="StrokePaths" style="fill:none;stroke:#404040;stroke-width:3;stroke-linecap:round;stroke-linejoin:round;">
		<path d="M28.68,21.87c0.36,0.88,0.52,2.33,0.34,3.61c-0.87,5.93-4.3,26.85-8.1,35.4c-0.85,1.92-1.59,3.33,0.8,3.86c6.29,1.39,10.65,3.71,14.59,6.95c1.69,1.39,3.25,3.25,4.7,5.15"/>
		<path d="M40.75,37.14c0.5,1.48,0.36,3.34,0.09,5.18C38.75,56.5,30.5,80.25,14,90.5"/>
		<path d="M10.75,48.22c0.75,0.94,1.75,1.16,3,0.89c2.12-0.45,21.84-4.85,30.75-7.23"/>
		<path d="M70.55,13c0.98,0.98,1.34,2.25,1.34,4.04c0,4.86,0.11,8.21,0.11,12.75"/>
		<path d="M49.88,32.64c2.73,0.61,5.59,0.45,8.37,0.12c9.34-1.12,21.09-2.98,32.87-3.81c2.54-0.18,5.13-0.32,7.25,0.45"/>
		<path d="M69.61,45.33c6.14,2.17,11.64,4.17,17.34,5.09c3.38,0.54,4.52,2.09,3.69,5.38c-2.04,8.13-10.12,29.53-13.97,34.67c-4.4,5.88-7.35-0.23-8.66-1.02"/>
		<path d="M70.6,35c0.4,1.46,0.32,3.1-0.15,4.74c-3.28,11.3-11.19,30.39-27.52,44.59"/>
	</g>
</svg>
