<?xml version="1.0" encoding="UTF-8"?>
<!DOCTYPE svg PUBLIC "-//W3C//DTD SVG 1.0//EN" "http://www.w3.org/TR/2001/REC-SVG-20010904/DTD/svg10.dtd">
<svg xmlns="http://www.w3.org/2000/svg" width="109" height="109" viewBox="0 0 109 109">
	<g id="HelperGrid" style="opacity:0.75;">
		<rect x="0.5" y="0.5" style="fill:none;stroke:#404040;" width="108" height="108"/> 
		<line style="fill:none;stroke:#404040;" x1="0.5" y1="72.51" x2="108.5" y2="72.51"/>
		<line style="fill:none;stroke:#404040;" x1="0.5" y1="36.49" x2="108.5" y2="36.49"/>
		<line style="fill:none;stroke:#404040;" x1="72.5" y1="0.5" x2="72.5" y2="108.5"/>
		<line style="fill:none;stroke:#404040;" x1="36.5" y1="0.5" x2="36.5" y2="108.5"/>
	</g>
	<g id="Kanji">
		<text transform="matrix(1 0 0 1 0.5 93.3799)" style="font-size:108;">тех</text>
	</g>
	<g id="StrokeNumbers" style="font-size:8;fill:#808080">
		<text transform="matrix(1 0 0 1 19.25 16.1299)">1</text>
		<text transform="matrix(1 0 0 1 32.5 32.5)">2</text>
		<text transform="matrix(1 0 0 1 0.5 47.5)">3</text>
		<text transform="matrix(1 0 0 1 37.5 17.5)">4</text>
		<text transform="matrix(1 0 0 1 41.25 30.3291)">5</text>
		<text transform="matrix(1 0 0 1 52.5 33.5)">6</text>
		<text transform="matrix(1 0 0 1 52.5 49.5)">7</text>
		<text transform="matrix(1 0 0 1 39.5 73.5)">8</text>
		<text transform="matrix(1 0 0 1 67.5 27.5)">9</text>
		<text transform="matrix(1 0 0 1 69.5 33.5)">10</text>
		<text transform="matrix(1 0 0 1 74.5 46.5)">11</text>
	</g>
	<g id="StrokePaths" style="fill:none;stroke:#404040;stroke-width:3;stroke-linecap:round;stroke-linejoin:round;">
		<path d="M25.98,16.87c0.39,1.04,1.02,2.73,0.89,4.24C26,30.75,21.25,53,15.73,63.9c-0.9,1.77,0.4,2.46,0.89,2.63C26,69.75,34,75.66,39.25,83.28"/>
		<path d="M37.75,36.89c0.08,1.27,0.14,4.34-0.16,6.18C35.18,57.91,28.23,78.96,11,90"/>
		<path d="M8,46.72c0.75,0.94,1.75,1.62,3.75,1.39c2.15-0.24,21.34-4.35,30.25-6.73"/>
		<path d="M38.84,20.58C40.1,21,42.41,21.06,43.67,21C58.3,20.24,75,16.45,88.61,16.26c2.09-0.03,3.35,0.2,4.4,0.4"/>
		<path d="M47.61,21.26c0.32,0.94,1.26,1.84,1.26,2.94c0,1.1-0.15,47.84-0.15,51.79"/>
		<path d="M49.44,36.88c3.56,0,10.56-1.4,13.51-1.4"/>
		<path d="M49.14,53.3c2.11,0,9.86-1.05,13.6-0.97"/>
		<path d="M42.27,76.82c1.73,0.93,3,1.05,3.95,0.62C50.03,75.67,57,71,63.39,66.91"/>
		<path d="M62.78,21.23c0.98,0.99,1.08,1.16,1.08,2.25c0,1.2,0.15,63.27,0.15,72.27"/>
		<path d="M71.37,36.92c1.09,0.29,1.2,0.5,3.42,0.29c4.09-0.4,13.28-3.66,14.78-4.09c1.5-0.43,2.9,1.02,2.52,2.65C87.55,55.38,82,76,69.45,91.28"/>
		<path d="M70.09,41.94c2.61,1.92,14.45,33.93,24.1,44.75c1.48,1.66,2.41,3.17,3.71,3.81"/>
	</g>
</svg>
