<?xml version="1.0" encoding="UTF-8"?>
<!DOCTYPE svg PUBLIC "-//W3C//DTD SVG 1.0//EN" "http://www.w3.org/TR/2001/REC-SVG-20010904/DTD/svg10.dtd">
<svg xmlns="http://www.w3.org/2000/svg" width="109" height="109" viewBox="0 0 109 109">
	<g id="HelperGrid" style="opacity:0.75;">
		<rect x="0.5" y="0.5" style="fill:none;stroke:#404040;" width="108" height="108"/> 
		<line style="fill:none;stroke:#404040;" x1="0.5" y1="72.51" x2="108.5" y2="72.51"/>
		<line style="fill:none;stroke:#404040;" x1="0.5" y1="36.49" x2="108.5" y2="36.49"/>
		<line style="fill:none;stroke:#404040;" x1="72.5" y1="0.5" x2="72.5" y2="108.5"/>
		<line style="fill:none;stroke:#404040;" x1="36.5" y1="0.5" x2="36.5" y2="108.5"/>
	</g>
	<g id="Kanji">
		<text transform="matrix(1 0 0 1 0.5 93.3799)" style="font-size:108;">хнг</text>
	</g>
	<g id="StrokeNumbers" style="font-size:8;fill:#808080">
		<text transform="matrix(1 0 0 1 59.5 9.1309)">1</text>
		<text transform="matrix(1 0 0 1 14.5 33.5)">2</text>
		<text transform="matrix(1 0 0 1 45.4922 26.9805)">3</text>
		<text transform="matrix(1 0 0 1 30.5 41.5)">4</text>
		<text transform="matrix(1 0 0 1 72.4922 38.3296)">5</text>
		<text transform="matrix(1 0 0 1 29.5 57.5)">6</text>
		<text transform="matrix(1 0 0 1 45.4922 66.5)">7</text>
		<text transform="matrix(1 0 0 1 13.5 76.1045)">8</text>
	</g>
	<g id="StrokePaths" style="fill:none;stroke:#404040;stroke-width:3;stroke-linecap:round;stroke-linejoin:round;">
		<path d="M66.61,9.75c-0.11,1-0.99,1.71-1.63,2.08c-3.99,2.28-15.13,5.86-31.82,8.41"/>
		<path d="M22.3,32.26c2.44,0.57,5.09,0.53,7.56,0.26c10.39-1.17,34.35-3.97,46.77-4.52c2.13-0.1,4.92-0.07,7.05,0.23"/>
		<path d="M52.71,19.78c0.82,0.82,1.22,1.97,1.22,3c0,0.45-0.09,13.55-0.12,21.22c-0.01,1.79-0.01,3.28-0.01,4.25"/>
		<path d="M47.47,31.41c0,0.59-0.34,1.24-0.92,1.89c-7.18,7.93-17.87,17.37-32.64,22.52"/>
		<path d="M55.09,30.02c7.16,5.1,24.79,17.35,32.82,20.86c1.92,0.84,3.37,1.48,5.19,1.78"/>
		<path d="M36.5,53.3c1.25,0.58,3.11,0.93,4.5,0.87C44.88,54,62.12,51.49,65.46,51c2.54-0.38,2.81,1.66,1.22,2.98c-1.59,1.32-8.4,6.17-12.43,8.56"/>
		<path d="M51.62,63.54c4.63,4.21,10.39,18.24,4.54,31.1c-2.15,4.73-5.78,2.48-9.57-1.65"/>
		<path d="M20.65,74.56c3.23,0.94,6.82,0.67,9.73,0.39c10.26-0.99,34.55-3.35,46.12-3.92c3.25-0.16,7,0.09,9.86,0.88"/>
	</g>
</svg>
