<?xml version="1.0" encoding="UTF-8"?>
<!DOCTYPE svg PUBLIC "-//W3C//DTD SVG 1.0//EN" "http://www.w3.org/TR/2001/REC-SVG-20010904/DTD/svg10.dtd">
<svg xmlns="http://www.w3.org/2000/svg" width="109" height="109" viewBox="0 0 109 109">
	<g id="HelperGrid" style="opacity:0.75;">
		<rect x="0.5" y="0.5" style="fill:none;stroke:#404040;" width="108" height="108"/> 
		<line style="fill:none;stroke:#404040;" x1="0.5" y1="72.51" x2="108.5" y2="72.51"/>
		<line style="fill:none;stroke:#404040;" x1="0.5" y1="36.49" x2="108.5" y2="36.49"/>
		<line style="fill:none;stroke:#404040;" x1="72.5" y1="0.5" x2="72.5" y2="108.5"/>
		<line style="fill:none;stroke:#404040;" x1="36.5" y1="0.5" x2="36.5" y2="108.5"/>
	</g>
	<g id="Kanji">
		<text transform="matrix(1 0 0 1 0.5 93.3799)" style="font-size:108;">孰</text>
	</g>
	<g id="StrokeNumbers" style="font-size:8;fill:#808080">
		<text transform="matrix(1 0 0 1 24.25 11.5)">1</text>
		<text transform="matrix(1 0 0 1 4.5 25.5)">2</text>
		<text transform="matrix(1 0 0 1 12.5 37.5)">3</text>
		<text transform="matrix(1 0 0 1 23.25 31.5)">4</text>
		<text transform="matrix(1 0 0 1 26.5 42.3291)">5</text>
		<text transform="matrix(1 0 0 1 10.25 54.2549)">6</text>
		<text transform="matrix(1 0 0 1 24.5 65.5)">7</text>
		<text transform="matrix(1 0 0 1 6.5 81.1035)">8</text>
		<text transform="matrix(1 0 0 1 53.5 34.5)">9</text>
		<text transform="matrix(1 0 0 1 56.5 13.5)">10</text>
		<text transform="matrix(1 0 0 1 51.5 54.5)">11</text>
	</g>
	<g id="StrokePaths" style="fill:none;stroke:#404040;stroke-width:3;stroke-linecap:round;stroke-linejoin:round;">
		<path d="M28.71,11.5c2.57,1.02,6.35,4.99,6.8,6.96"/>
		<path d="M11.37,24.87c0.85,0.06,2.8,0.41,3.63,0.33c6.7-0.69,25.57-3.24,35.13-3.72c1.41-0.07,2.13,0.03,3.17,0.42"/>
		<path d="M19.3,33.2c0.28,0.26,0.57,0.48,0.7,0.8c0.98,2.57,2,7.79,2.67,12.41"/>
		<path d="M21.07,34.09c6.94-1.08,19.2-2.87,22.78-3.24c1.31-0.13,2.09,1.34,1.91,2.12c-0.78,3.24-0.98,5.15-2.64,9.82"/>
		<path d="M23.46,45.72c4.2-0.41,15.63-2.1,20.96-2.52"/>
		<path d="M17.87,54.24c0.96,0.19,2.76,0.5,4.2,0.33c1.75-0.21,20.73-3.42,22.4-3.42c1.67,0,2.55,1.05,0.88,2.21c-1.67,1.16-6.67,5.62-12.83,10.12"/>
		<path d="M31.95,63.08c4.12,3.61,7.88,17.38,2.71,27.96c-3.06,6.26-5.82,1.05-7.3,0.53"/>
		<path d="M14.5,78c1.28,0.68,3.06,0.91,5.25,0c9-3.75,18.75-8.5,30-13.63"/>
		<path d="M69.02,13.88c0.58,0.69,1.39,2.16,1.36,3.41C69.5,51,60.25,78.75,43.88,94.25"/>
		<path d="M53.75,37.85c0.74,0.82,3.52,0.27,4.45,0c0.93-0.27,23.74-6.53,24.57-6.59c1.85-0.14,3.71,1.04,3.15,4.11c-0.83,4.52-5.48,27.69-6.33,38.88c-0.79,10.4,0.91,19.17,8.22,19.17c11.44,0,8.93-1.9,8.93-9.27"/>
		<path d="M54,57.5c6.02,2.2,15.55,9.05,17.06,12.47"/>
	</g>
</svg>
