<?xml version="1.0" encoding="UTF-8"?>
<!-- Copyright (C) 2009 Ulrich Apel.
This work is distributed under the conditions of the Creative Commons
Attribution-Share Alike 3.0 Licence. This means you are free:
* to Share - to copy, distribute and transmit the work
* to Remix - to adapt the work

Under the following conditions:
* Attribution. You must attribute the work by stating your use of KanjiVG in
  your own copyright header and linking to KanjiVG's website
  (http://kanjivg.tagaini.net)
* Share Alike. If you alter, transform, or build upon this work, you may
  distribute the resulting work only under the same or similar license to this
  one.

See http://creativecommons.org/licenses/by-sa/3.0/ for more details. -->
<!DOCTYPE svg PUBLIC "-//W3C//DTD SVG 1.0//EN" "http://www.w3.org/TR/2001/REC-SVG-20010904/DTD/svg10.dtd">
<svg xmlns="http://www.w3.org/2000/svg" width="109" height="109" viewBox="0 0 109 109">
	<g id="HelperGrid" style="opacity:0.75;">
		<rect x="0.5" y="0.5" style="fill:none;stroke:#404040;" width="108" height="108"/> 
		<line style="fill:none;stroke:#404040;" x1="0.5" y1="72.51" x2="108.5" y2="72.51"/>
		<line style="fill:none;stroke:#404040;" x1="0.5" y1="36.49" x2="108.5" y2="36.49"/>
		<line style="fill:none;stroke:#404040;" x1="72.5" y1="0.5" x2="72.5" y2="108.5"/>
		<line style="fill:none;stroke:#404040;" x1="36.5" y1="0.5" x2="36.5" y2="108.5"/>
	</g>
	<g id="Kanji">
		<text transform="matrix(1 0 0 1 0.5 93.3799)" style="font-size:108;">守</text>
	</g>
	<g id="StrokeNumbers" style="font-size:8;fill:#808080">
		<text transform="matrix(1 0 0 1 43.5 10.5)">1</text>
		<text transform="matrix(1 0 0 1 13.5 28.936)">2</text>
		<text transform="matrix(1 0 0 1 24.5 23.5)">3</text>
		<text transform="matrix(1 0 0 1 8.5 58.5)">4</text>
		<text transform="matrix(1 0 0 1 57.75 36.5)">5</text>
		<text transform="matrix(1 0 0 1 29.5 68.5)">6</text>
	</g>
	<g id="StrokePaths" style="fill:none;stroke:#404040;stroke-width:3;stroke-linecap:round;stroke-linejoin:round;">
		<path d="M48.54,9c3.73,1.71,8.29,6.98,9,10.29"/>
		<path d="M20.86,24.13c0,4.38-4.03,16.44-5.86,19.37"/>
		<path d="M22.75,27.24c1.81-0.09,52.13-5.53,62.36-5.4c12.9,0.16,0.88,7.91-0.92,8.78"/>
		<path d="M15.88,57.67c2.12,0.58,4.48,0.51,6.07,0.3C40,55.5,72.92,51.11,86.08,50.79c2.64-0.06,4.22,0.38,5.54,0.78"/>
		<path d="M66.77,34.83c0.09,0.48,1.17,2.49,1.26,5.52c0.4,14.55-0.26,46.66-0.26,51.62c0,11.78-6.52,1.78-8.71,0.25"/>
		<path d="M36.96,67.87c3.26,2.07,8.43,8.52,9.25,11.75"/>
	</g>
</svg>
