<?xml version="1.0" encoding="UTF-8"?>
<!-- Copyright (C) 2009 Ulrich Apel.
This work is distributed under the conditions of the Creative Commons
Attribution-Share Alike 3.0 Licence. This means you are free:
* to Share - to copy, distribute and transmit the work
* to Remix - to adapt the work

Under the following conditions:
* Attribution. You must attribute the work by stating your use of KanjiVG in
  your own copyright header and linking to KanjiVG's website
  (http://kanjivg.tagaini.net)
* Share Alike. If you alter, transform, or build upon this work, you may
  distribute the resulting work only under the same or similar license to this
  one.

See http://creativecommons.org/licenses/by-sa/3.0/ for more details. -->
<!DOCTYPE svg PUBLIC "-//W3C//DTD SVG 1.0//EN" "http://www.w3.org/TR/2001/REC-SVG-20010904/DTD/svg10.dtd">
<svg xmlns="http://www.w3.org/2000/svg" width="109" height="109" viewBox="0 0 109 109">
	<g id="HelperGrid" style="opacity:0.75;">
		<rect x="0.5" y="0.5" style="fill:none;stroke:#404040;" width="108" height="108"/> 
		<line style="fill:none;stroke:#404040;" x1="0.5" y1="72.51" x2="108.5" y2="72.51"/>
		<line style="fill:none;stroke:#404040;" x1="0.5" y1="36.49" x2="108.5" y2="36.49"/>
		<line style="fill:none;stroke:#404040;" x1="72.5" y1="0.5" x2="72.5" y2="108.5"/>
		<line style="fill:none;stroke:#404040;" x1="36.5" y1="0.5" x2="36.5" y2="108.5"/>
	</g>
	<g id="Kanji">
		<text transform="matrix(1 0 0 1 0.5 93.3799)" style="font-size:108;">守</text>
	</g>
	<g id="StrokeNumbers" style="font-size:8;fill:#808080">
		<text transform="matrix(1 0 0 1 43.5 10.5)">1</text>
		<text transform="matrix(1 0 0 1 13.5 28.936)">2</text>
		<text transform="matrix(1 0 0 1 24.5 23.5)">3</text>
		<text transform="matrix(1 0 0 1 8.5 58.5)">4</text>
		<text transform="matrix(1 0 0 1 57.75 36.5)">5</text>
		<text transform="matrix(1 0 0 1 29.5 68.5)">6</text>
	</g>
	<g id="StrokePaths" style="fill:none;stroke:#404040;stroke-width:3;stroke-linecap:round;stroke-linejoin:round;">
		<path d="M52.04,9.25c1.11,1.11,1.64,2.5,1.64,4.27c0,3.9-0.07,5.54-0.08,9.08"/>
		<path d="M20.86,24.13c0,4.38-4.03,16.44-5.86,19.37"/>
		<path d="M21.51,27.78c20.24-2.53,48.61-6.03,63.59-6.2c12.9-0.14,0.88,8.16-0.92,9.03"/>
		<path d="M15.63,56.92c2.94,0.58,6.22,0.82,8.42,0.55c20.65-2.6,49.39-6.35,59.89-6.68c3.66-0.12,5.86,0.13,7.69,0.53"/>
		<path d="M66.27,34.33c1.14,1.14,1.76,2.92,1.76,5.27c0,14.56,0.24,47.41,0.24,52.37c0,11.78-6.52,1.78-8.71,0.25"/>
		<path d="M36.46,67.24c3.26,2.23,8.43,9.16,9.25,12.62"/>
	</g>
</svg>
