<?xml version="1.0" encoding="UTF-8"?>
<!-- Copyright (C) 2009 Ulrich Apel.
This work is distributed under the conditions of the Creative Commons
Attribution-Share Alike 3.0 Licence. This means you are free:
* to Share - to copy, distribute and transmit the work
* to Remix - to adapt the work

Under the following conditions:
* Attribution. You must attribute the work by stating your use of KanjiVG in
  your own copyright header and linking to KanjiVG's website
  (http://kanjivg.tagaini.net)
* Share Alike. If you alter, transform, or build upon this work, you may
  distribute the resulting work only under the same or similar license to this
  one.

See http://creativecommons.org/licenses/by-sa/3.0/ for more details. -->
<!DOCTYPE svg PUBLIC "-//W3C//DTD SVG 1.0//EN" "http://www.w3.org/TR/2001/REC-SVG-20010904/DTD/svg10.dtd">
<svg xmlns="http://www.w3.org/2000/svg" width="109" height="109" viewBox="0 0 109 109">
	<g id="HelperGrid" style="opacity:0.75;">
		<rect x="0.5" y="0.5" style="fill:none;stroke:#404040;" width="108" height="108"/> 
		<line style="fill:none;stroke:#404040;" x1="0.5" y1="72.51" x2="108.5" y2="72.51"/>
		<line style="fill:none;stroke:#404040;" x1="0.5" y1="36.49" x2="108.5" y2="36.49"/>
		<line style="fill:none;stroke:#404040;" x1="72.5" y1="0.5" x2="72.5" y2="108.5"/>
		<line style="fill:none;stroke:#404040;" x1="36.5" y1="0.5" x2="36.5" y2="108.5"/>
	</g>
	<g id="Kanji">
		<text transform="matrix(1 0 0 1 0.5 93.3799)" style="font-size:108;">完</text>
	</g>
	<g id="StrokeNumbers" style="font-size:8;fill:#808080">
		<text transform="matrix(1 0 0 1 43.5 12.5)">1</text>
		<text transform="matrix(1 0 0 1 18.75 31.6299)">2</text>
		<text transform="matrix(1 0 0 1 31.5 25.4805)">3</text>
		<text transform="matrix(1 0 0 1 29.25 42.5)">4</text>
		<text transform="matrix(1 0 0 1 15.4922 59.5)">5</text>
		<text transform="matrix(1 0 0 1 32.25 69.5)">6</text>
		<text transform="matrix(1 0 0 1 49.5 67.5)">7</text>
	</g>
	<g id="StrokePaths" style="fill:none;stroke:#404040;stroke-width:3;stroke-linecap:round;stroke-linejoin:round;">
		<path d="M26.35,27.77c0,3.41-2.42,12.79-3.51,15.07"/>
		<path d="M28.6,29.35c8.9-1.6,47.15-5.28,53.31-5.31c9.85-0.04-0.32,8.25-1.86,9.1"/>
		<path d="M48.7,11.5c3.59,1.2,7.94,5.77,8.62,9.18"/>
		<path d="M36.32,42.93c0.91,0.23,2.59,0.32,3.49,0.23c6.69-0.66,15.94-2.66,23.54-3.65c1.5-0.2,2.43,0.11,3.19,0.23"/>
		<path d="M22.83,59.17c1.48,0.39,4.21,0.57,5.67,0.39c14.74-1.81,31.05-4.06,47.48-4.46c2.47-0.06,3.95,0.19,5.18,0.38"/>
		<path d="M41.5,62c0.07,0.89,0.14,2.29-0.13,3.56C39.76,73.08,31.29,91,17.92,99.67"/>
		<path d="M56.49,59.87c0.74,1.19,1.33,2.59,1.38,4.43c0.2,8.19-0.53,16.14-0.53,21.7c0,9.75,3.42,12.03,18.17,12.03c15.25,0,18.39-2.03,18.39-12.62"/>
	</g>
</svg>
