<?xml version="1.0" encoding="UTF-8"?>
<!-- Copyright (C) 2009 Ulrich Apel.
This work is distributed under the conditions of the Creative Commons
Attribution-Share Alike 3.0 Licence. This means you are free:
* to Share - to copy, distribute and transmit the work
* to Remix - to adapt the work

Under the following conditions:
* Attribution. You must attribute the work by stating your use of KanjiVG in
  your own copyright header and linking to KanjiVG's website
  (http://kanjivg.tagaini.net)
* Share Alike. If you alter, transform, or build upon this work, you may
  distribute the resulting work only under the same or similar license to this
  one.

See http://creativecommons.org/licenses/by-sa/3.0/ for more details. -->
<!DOCTYPE svg PUBLIC "-//W3C//DTD SVG 1.0//EN" "http://www.w3.org/TR/2001/REC-SVG-20010904/DTD/svg10.dtd">
<svg xmlns="http://www.w3.org/2000/svg" width="109" height="109" viewBox="0 0 109 109">
	<g id="HelperGrid" style="opacity:0.75;">
		<rect x="0.5" y="0.5" style="fill:none;stroke:#404040;" width="108" height="108"/> 
		<line style="fill:none;stroke:#404040;" x1="0.5" y1="72.51" x2="108.5" y2="72.51"/>
		<line style="fill:none;stroke:#404040;" x1="0.5" y1="36.49" x2="108.5" y2="36.49"/>
		<line style="fill:none;stroke:#404040;" x1="72.5" y1="0.5" x2="72.5" y2="108.5"/>
		<line style="fill:none;stroke:#404040;" x1="36.5" y1="0.5" x2="36.5" y2="108.5"/>
	</g>
	<g id="Kanji">
		<text transform="matrix(1 0 0 1 0.5 93.3799)" style="font-size:108;">官</text>
	</g>
	<g id="StrokeNumbers" style="font-size:8;fill:#808080">
		<text transform="matrix(1 0 0 1 42.5 11.5)">1</text>
		<text transform="matrix(1 0 0 1 19.5 30.1299)">2</text>
		<text transform="matrix(1 0 0 1 30.5 25.1299)">3</text>
		<text transform="matrix(1 0 0 1 30.75 49.6299)">4</text>
		<text transform="matrix(1 0 0 1 41.5 38.5)">5</text>
		<text transform="matrix(1 0 0 1 43.3643 54.1299)">6</text>
		<text transform="matrix(1 0 0 1 43.416 70.6299)">7</text>
		<text transform="matrix(1 0 0 1 43.3799 91.5)">8</text>
	</g>
	<g id="StrokePaths" style="fill:none;stroke:#404040;stroke-width:3;stroke-linecap:round;stroke-linejoin:round;">
		<path d="M48.15,11.5c3.88,1.4,9.48,6.05,10.28,10.02"/>
		<path d="M27.05,27.75c0,2.77-3.35,12.9-4.42,14.75"/>
		<path d="M27.74,29.63c1.18,0.07,47.42-5.65,53.41-5.91c10.85-0.47,1.15,6.7-0.35,7.4"/>
		<path d="M36.87,40.75c1.09,0.5,1.74,2.25,1.96,3.25c0.22,1,0,48.75-0.22,55"/>
		<path d="M39.25,42c9-1.5,24.25-3.5,29.19-4.01c1.8-0.19,2.89,1.11,2.63,2.21c-1.07,4.55-2.32,8.05-3.91,14.35"/>
		<path d="M39.75,58.5c5.8-0.58,21.25-2.5,29.21-3.39"/>
		<path d="M39,75.75c9.75-1.5,28.5-3.95,33.44-4.51c1.8-0.21,2.89,1.21,2.63,2.41c-1.07,4.97-2.32,10.98-3.91,17.86"/>
		<path d="M39.25,95.75c5.8-0.63,25.75-2.65,33.71-3.62"/>
	</g>
</svg>
