<?xml version="1.0" encoding="UTF-8"?>
<!DOCTYPE svg PUBLIC "-//W3C//DTD SVG 1.0//EN" "http://www.w3.org/TR/2001/REC-SVG-20010904/DTD/svg10.dtd">
<svg xmlns="http://www.w3.org/2000/svg" width="109" height="109" viewBox="0 0 109 109">
	<g id="HelperGrid" style="opacity:0.75;">
		<rect x="0.5" y="0.5" style="fill:none;stroke:#404040;" width="108" height="108"/> 
		<line style="fill:none;stroke:#404040;" x1="0.5" y1="72.51" x2="108.5" y2="72.51"/>
		<line style="fill:none;stroke:#404040;" x1="0.5" y1="36.49" x2="108.5" y2="36.49"/>
		<line style="fill:none;stroke:#404040;" x1="72.5" y1="0.5" x2="72.5" y2="108.5"/>
		<line style="fill:none;stroke:#404040;" x1="36.5" y1="0.5" x2="36.5" y2="108.5"/>
	</g>
	<g id="Kanji">
		<text transform="matrix(1 0 0 1 0.5 93.3799)" style="font-size:108;">宛</text>
	</g>
	<g id="StrokeNumbers" style="font-size:8;fill:#808080">
		<text transform="matrix(1 0 0 1 43 13.5)">1</text>
		<text transform="matrix(1 0 0 1 20.5 27.5)">2</text>
		<text transform="matrix(1 0 0 1 30.5 25.5)">3</text>
		<text transform="matrix(1 0 0 1 29.5 39.5)">4</text>
		<text transform="matrix(1 0 0 1 41.5 43.5)">5</text>
		<text transform="matrix(1 0 0 1 32.5 64.5)">6</text>
		<text transform="matrix(1 0 0 1 63.25 42.5)">7</text>
		<text transform="matrix(1 0 0 1 53.25 58.5)">8</text>
	</g>
	<g id="StrokePaths" style="fill:none;stroke:#404040;stroke-width:3;stroke-linecap:round;stroke-linejoin:round;">
		<path d="M49.41,13.77c3.4,0.9,8.26,5.33,8.18,7.94"/>
		<path d="M26.91,28.38c0,3.2-2.86,11.99-4.16,14.12"/>
		<path d="M27.89,29.5c7.5-0.78,47.51-5.57,53.6-5.87c9.51-0.46,1.01,7.15-1.35,8.82"/>
		<path d="M36.5,37.89c0.17,0.55,0.64,2.23,0.34,3.3c-2.08,7.31-8.33,19.06-16.74,29.25"/>
		<path d="M37.55,47.76c0.27,0.04,1.4,0,2.16-0.12c2.49-0.39,6.29-1.38,9.44-1.58c2.61-0.16,3.14,0.95,2.51,3.22C48.24,61.7,31,92.1,15.75,98.5"/>
		<path d="M28.36,62.79c2.98,1.68,7.69,6.91,8.43,9.52"/>
		<path d="M61,46.26c0.62,0.12,1.89,0.21,3.1-0.18c3.4-1.09,13.57-2.22,15.23-2.65c2.51-0.64,4.13,1.13,4.03,3.72c-0.17,4.39-3.61,15.61-6.9,22.59c-2.4,5.09-4.54,0.62-5,0.37"/>
		<path d="M59.99,44.2c0.66,1.53,1.23,3.34,1.23,5.7c0,14.09-0.3,22.29-0.3,29.46c0,14.41,1.84,14.85,15.82,14.85c18.52,0,16.91-1.21,16.91-11.75"/>
	</g>
</svg>
