<?xml version="1.0" encoding="UTF-8"?>
<!DOCTYPE svg PUBLIC "-//W3C//DTD SVG 1.0//EN" "http://www.w3.org/TR/2001/REC-SVG-20010904/DTD/svg10.dtd">
<svg xmlns="http://www.w3.org/2000/svg" width="109" height="109" viewBox="0 0 109 109">
	<g id="HelperGrid" style="opacity:0.75;">
		<rect x="0.5" y="0.5" style="fill:none;stroke:#404040;" width="108" height="108"/> 
		<line style="fill:none;stroke:#404040;" x1="0.5" y1="72.51" x2="108.5" y2="72.51"/>
		<line style="fill:none;stroke:#404040;" x1="0.5" y1="36.49" x2="108.5" y2="36.49"/>
		<line style="fill:none;stroke:#404040;" x1="72.5" y1="0.5" x2="72.5" y2="108.5"/>
		<line style="fill:none;stroke:#404040;" x1="36.5" y1="0.5" x2="36.5" y2="108.5"/>
	</g>
	<g id="Kanji">
		<text transform="matrix(1 0 0 1 0.5 93.3799)" style="font-size:108;">寂</text>
	</g>
	<g id="StrokeNumbers" style="font-size:8;fill:#808080">
		<text transform="matrix(1 0 0 1 43.25 11.1299)">1</text>
		<text transform="matrix(1 0 0 1 14.5 28.6299)">2</text>
		<text transform="matrix(1 0 0 1 26.25 25.5)">3</text>
		<text transform="matrix(1 0 0 1 26.5 39.5)">4</text>
		<text transform="matrix(1 0 0 1 39.5 43.5)">5</text>
		<text transform="matrix(1 0 0 1 12.5 59.5)">6</text>
		<text transform="matrix(1 0 0 1 29.25 71.5)">7</text>
		<text transform="matrix(1 0 0 1 15.75 74.5)">8</text>
		<text transform="matrix(1 0 0 1 41.5 69.5)">9</text>
		<text transform="matrix(1 0 0 1 53.5 45.5)">10</text>
		<text transform="matrix(1 0 0 1 63.5 58.5547)">11</text>
	</g>
	<g id="StrokePaths" style="fill:none;stroke:#404040;stroke-width:3;stroke-linecap:round;stroke-linejoin:round;">
		<path d="M52.15,11.25c1.18,1.18,1.42,3.03,1.42,4.27c0,4.85-0.06,6.06-0.06,9.6"/>
		<path d="M21.41,26.63c0,4.04-3.21,15.17-4.66,17.87"/>
		<path d="M21.71,29.23c18.17-1.85,44.79-4.6,62.99-5.39c12.06-0.52,2.55,7.16-0.45,9.28"/>
		<path d="M34.4,36.88c0.8,0.8,0.96,1.87,0.96,2.96c0,0.42-0.11,16.15-0.11,19.91"/>
		<path d="M36.5,47.11c1.42,0,6.79-1.02,10.93-1.52c1.48-0.18,2.16-0.33,3.02-0.13"/>
		<path d="M14.76,62.42c1.98,0.58,3.42,0.35,5.07,0.16c8.99-1.08,17.3-2.33,27.57-3.37c1.87-0.19,4.59-0.4,6.4,0.17"/>
		<path d="M36.66,63.41c0.07,0.32,0.96,1.67,0.96,3.72c0,10.68,0.02,22.81,0.02,26.15c0,7.58-5.52,1.01-6.67,0.17"/>
		<path d="M24.05,73.85c0.09,1.04-0.04,1.73-0.47,2.69c-1.99,4.43-5.84,8.64-12.96,14.64"/>
		<path d="M45.5,71.88c2.94,1.92,7.6,7.89,8.33,10.87"/>
		<path d="M56.42,48.71c2.23,0.66,4.26,0.45,6.58-0.06c4.62-1.01,13.07-2.96,16.04-3.85c3.08-0.92,5.05,0.47,4.14,3.45C76.38,70.34,64.37,86.67,51.34,95"/>
		<path d="M59.25,56.09c3.45,2.3,15.11,17.28,25.8,28.36c2.82,2.92,5.95,5.67,8.54,7.2"/>
	</g>
</svg>
