<?xml version="1.0" encoding="UTF-8"?>
<!DOCTYPE svg PUBLIC "-//W3C//DTD SVG 1.0//EN" "http://www.w3.org/TR/2001/REC-SVG-20010904/DTD/svg10.dtd">
<svg xmlns="http://www.w3.org/2000/svg" width="109" height="109" viewBox="0 0 109 109">
	<g id="HelperGrid" style="opacity:0.75;">
		<rect x="0.5" y="0.5" style="fill:none;stroke:#404040;" width="108" height="108"/> 
		<line style="fill:none;stroke:#404040;" x1="0.5" y1="72.51" x2="108.5" y2="72.51"/>
		<line style="fill:none;stroke:#404040;" x1="0.5" y1="36.49" x2="108.5" y2="36.49"/>
		<line style="fill:none;stroke:#404040;" x1="72.5" y1="0.5" x2="72.5" y2="108.5"/>
		<line style="fill:none;stroke:#404040;" x1="36.5" y1="0.5" x2="36.5" y2="108.5"/>
	</g>
	<g id="Kanji">
		<text transform="matrix(1 0 0 1 0.5 93.3799)" style="font-size:108;">察</text>
	</g>
	<g id="StrokeNumbers" style="font-size:8;fill:#808080">
		<text transform="matrix(1 0 0 1 44.4922 9)">1</text>
		<text transform="matrix(1 0 0 1 12.75 27.1299)">2</text>
		<text transform="matrix(1 0 0 1 25.5 21.1299)">3</text>
		<text transform="matrix(1 0 0 1 24.75 37.6299)">4</text>
		<text transform="matrix(1 0 0 1 37.5 31.6299)">5</text>
		<text transform="matrix(1 0 0 1 34.5 43.6299)">6</text>
		<text transform="matrix(1 0 0 1 27.5 52.5)">7</text>
		<text transform="matrix(1 0 0 1 58.5 29.5)">8</text>
		<text transform="matrix(1 0 0 1 53.5 45.5)">9</text>
		<text transform="matrix(1 0 0 1 40.5 57.1299)">10</text>
		<text transform="matrix(1 0 0 1 27.5 70.6299)">11</text>
		<text transform="matrix(1 0 0 1 43.5 82.6299)">12</text>
		<text transform="matrix(1 0 0 1 23.5 84.5)">13</text>
		<text transform="matrix(1 0 0 1 70.5 80.5)">14</text>
	</g>
	<g id="StrokePaths" style="fill:none;stroke:#404040;stroke-width:3;stroke-linecap:round;stroke-linejoin:round;">
		<path d="M49.44,8.04C53,10,55.5,12.25,57.82,16.41"/>
		<path d="M20.53,22.58c0,3.48-3.46,13.06-5.03,15.39"/>
		<path d="M21.52,24.65C29.75,24,76.5,19.5,85.88,19.4c12.12-0.13,1.44,8.15-0.44,8.99"/>
		<path d="M32,31.5c0.75,0.93,1.24,3.72,0.5,4.89c-3.25,5.13-10.75,12.12-13.25,14.21"/>
		<path d="M35,34.19c2.25-0.23,5.25-1.19,8.75-2.06c3.19-0.79,4.44,0.8,3.5,3.03C43,45.25,31.25,59.5,14,69.45"/>
		<path d="M30.25,42.38c1.25,0.47,4.75,3.26,7.25,6.06"/>
		<path d="M23,50.54c1.5,0.93,4.5,4.89,5.75,6.99"/>
		<path d="M57.5,31.48c1.95,0.66,1.71,1.33,3.17,0.88S71.07,30.29,74.5,29c2-0.75,4.46,1.14,2.51,3.14C73,36.25,68.5,41,63.1,46.67"/>
		<path d="M55.5,37.52c3.75-0.26,25.25,17.22,27.5,18.76c2.25,1.54,7.75,4.63,11,5.4"/>
		<path d="M38.97,60.23c0.74,0.28,2.1,0.36,2.84,0.28c4.72-0.48,19.57-2.25,24.14-1.92c1.23,0.09,1.97,0.13,2.59,0.28"/>
		<path d="M25.96,73.82c1.2,0.4,3.41,0.59,4.59,0.4c4.85-0.78,31.2-4.22,44.22-3.84c1.99,0.06,3.19,0.19,4.19,0.39"/>
		<path d="M53.33,73.52c0.07,0.38,1.08,1.99,1.08,4.41c0,3.32-0.22,13.5-0.22,17.47c0,10.85-6.18,1.2-7.47,0.2"/>
		<path d="M35.2,81.27c0.05,0.4,0.1,1.04-0.09,1.62c-1.15,3.4-7.99,8.56-17.03,13.13"/>
		<path d="M70.63,82.92c4.7,2.15,12.37,8.61,13.55,11.96"/>
	</g>
</svg>
