<?xml version="1.0" encoding="UTF-8"?>
<!DOCTYPE svg PUBLIC "-//W3C//DTD SVG 1.0//EN" "http://www.w3.org/TR/2001/REC-SVG-20010904/DTD/svg10.dtd">
<svg xmlns="http://www.w3.org/2000/svg" width="109" height="109" viewBox="0 0 109 109">
	<g id="HelperGrid" style="opacity:0.75;">
		<rect x="0.5" y="0.5" style="fill:none;stroke:#404040;" width="108" height="108"/> 
		<line style="fill:none;stroke:#404040;" x1="0.5" y1="72.51" x2="108.5" y2="72.51"/>
		<line style="fill:none;stroke:#404040;" x1="0.5" y1="36.49" x2="108.5" y2="36.49"/>
		<line style="fill:none;stroke:#404040;" x1="72.5" y1="0.5" x2="72.5" y2="108.5"/>
		<line style="fill:none;stroke:#404040;" x1="36.5" y1="0.5" x2="36.5" y2="108.5"/>
	</g>
	<g id="Kanji">
		<text transform="matrix(1 0 0 1 0.5 93.3799)" style="font-size:108;">尺</text>
	</g>
	<g id="StrokeNumbers" style="font-size:8;fill:#808080">
		<text transform="matrix(1 0 0 1 38.5 20.5)">1</text>
		<text transform="matrix(1 0 0 1 42.5 41.5)">2</text>
		<text transform="matrix(1 0 0 1 29.5 32.5)">3</text>
		<text transform="matrix(1 0 0 1 55.5 53.5)">4</text>
	</g>
	<g id="StrokePaths" style="fill:none;stroke:#404040;stroke-width:3;stroke-linecap:round;stroke-linejoin:round;">
		<path d="M32.89,22.57c1.99,0.56,4.43,0.99,6.02,0.79c9.06-1.11,29.27-3.25,35.74-4.01c4.01-0.47,5.75,0.92,4.89,5.03C78.57,29,77.5,32.12,75,40.75"/>
		<path d="M37,45.5c3.45-0.2,24.9-2.14,36-3.24c2.8-0.28,4.9-0.47,5.81-0.52"/>
		<path d="M36.09,23.62c0.96,0.96,1.37,2.63,1.31,4.39C36.38,58.62,29.88,77.75,18,89.25"/>
		<path d="M45.25,46c3.88,2.5,23.79,25.86,35.65,37.1c3.98,3.77,7.6,6.9,11.6,9.15"/>
	</g>
</svg>
