<?xml version="1.0" encoding="UTF-8"?>
<!-- Copyright (C) 2009 Ulrich Apel.
This work is distributed under the conditions of the Creative Commons
Attribution-Share Alike 3.0 Licence. This means you are free:
* to Share - to copy, distribute and transmit the work
* to Remix - to adapt the work

Under the following conditions:
* Attribution. You must attribute the work by stating your use of KanjiVG in
  your own copyright header and linking to KanjiVG's website
  (http://kanjivg.tagaini.net)
* Share Alike. If you alter, transform, or build upon this work, you may
  distribute the resulting work only under the same or similar license to this
  one.

See http://creativecommons.org/licenses/by-sa/3.0/ for more details. -->
<!DOCTYPE svg PUBLIC "-//W3C//DTD SVG 1.0//EN" "http://www.w3.org/TR/2001/REC-SVG-20010904/DTD/svg10.dtd">
<svg xmlns="http://www.w3.org/2000/svg" width="109" height="109" viewBox="0 0 109 109">
	<g id="HelperGrid" style="opacity:0.75;">
		<rect x="0.5" y="0.5" style="fill:none;stroke:#404040;" width="108" height="108"/> 
		<line style="fill:none;stroke:#404040;" x1="0.5" y1="72.51" x2="108.5" y2="72.51"/>
		<line style="fill:none;stroke:#404040;" x1="0.5" y1="36.49" x2="108.5" y2="36.49"/>
		<line style="fill:none;stroke:#404040;" x1="72.5" y1="0.5" x2="72.5" y2="108.5"/>
		<line style="fill:none;stroke:#404040;" x1="36.5" y1="0.5" x2="36.5" y2="108.5"/>
	</g>
	<g id="Kanji">
		<text transform="matrix(1 0 0 1 0.5 93.3799)" style="font-size:108;">層</text>
	</g>
	<g id="StrokeNumbers" style="font-size:8;fill:#808080">
		<text transform="matrix(1 0 0 1 27.5 14.5)">1</text>
		<text transform="matrix(1 0 0 1 34.5 28.5)">2</text>
		<text transform="matrix(1 0 0 1 21.5 27.5)">3</text>
		<text transform="matrix(1 0 0 1 36.5 38.5)">4</text>
		<text transform="matrix(1 0 0 1 62.5 37.6299)">5</text>
		<text transform="matrix(1 0 0 1 29.5 60.5)">6</text>
		<text transform="matrix(1 0 0 1 36.5 46.6299)">7</text>
		<text transform="matrix(1 0 0 1 51.5 53.5)">8</text>
		<text transform="matrix(1 0 0 1 41.25 55.5)">9</text>
		<text transform="matrix(1 0 0 1 41.25 64.5)">10</text>
		<text transform="matrix(1 0 0 1 33.5 82.5)">11</text>
		<text transform="matrix(1 0 0 1 45.5 73.5)">12</text>
		<text transform="matrix(1 0 0 1 47.25 83.5)">13</text>
		<text transform="matrix(1 0 0 1 47.25 93.5)">14</text>
	</g>
	<g id="StrokePaths" style="fill:none;stroke:#404040;stroke-width:3;stroke-linecap:round;stroke-linejoin:round;">
		<path d="M23.65,16.53c1.91,0.73,3.11,1.39,5.13,1.24c10.92-0.82,43.72-4.27,50.35-4.78c2.17-0.09,3.12,1.64,3.12,3.02c0,2.32-1.69,5.83-3.36,10.74"/>
		<path d="M29.35,31.29c9.4-0.54,42.4-3.79,51.71-3.91"/>
		<path d="M28.49,18.73c0,3.71,0.06,9.89-0.15,13.36C27.25,51,24,71,10,86.4"/>
		<path d="M41.96,35.05c2.32,1.58,6,6.49,6.58,8.94"/>
		<path d="M71.57,31.06c0.03,0.32,0.05,0.83-0.05,1.29c-0.6,2.72-4.06,8.69-8.8,12.35"/>
		<path d="M33.79,47.59c0.33,0.36,0.34,0.61,0.52,1.07c1.49,3.74,2.93,14.18,3.81,21.14"/>
		<path d="M35.37,49.11c11.8-0.83,36.5-3.89,47.09-4.46c3.24-0.17,2.92,1.89,2.74,2.92c-0.65,3.76-2.52,11.67-4.55,18.12"/>
		<path d="M58.43,46.65c0,4.33-0.23,11.41-0.23,18.78"/>
		<path d="M37.58,58.02c10.2-0.87,20.42-1.57,30.63-2.32c1.23-0.09,2.43-0.18,3.58-0.26"/>
		<path d="M38.74,67.29c10.88-0.86,30.28-2.41,42.01-2.96"/>
		<path d="M41.57,74.26c0.58,0.52,1.13,1.91,1.17,2.6c0.4,6.69,1.29,14.63,1.68,21.14"/>
		<path d="M42.93,76.46c6.32-0.71,27.23-3.23,30.24-3.34c2.51-0.09,3.21,2.06,3.14,2.6c-0.39,3.17-0.57,11.52-1.53,21.3"/>
		<path d="M44.3,85.74c5.12,0,10.27-0.54,15.37-0.87c1.65-0.11,3.3-0.22,4.9-0.32"/>
		<path d="M45.79,95.8c8.86-0.34,19.66-1.2,28.22-1.2"/>
	</g>
</svg>
