<?xml version="1.0" encoding="UTF-8"?>
<!-- Copyright (C) 2009 Ulrich Apel.
This work is distributed under the conditions of the Creative Commons
Attribution-Share Alike 3.0 Licence. This means you are free:
* to Share - to copy, distribute and transmit the work
* to Remix - to adapt the work

Under the following conditions:
* Attribution. You must attribute the work by stating your use of KanjiVG in
  your own copyright header and linking to KanjiVG's website
  (http://kanjivg.tagaini.net)
* Share Alike. If you alter, transform, or build upon this work, you may
  distribute the resulting work only under the same or similar license to this
  one.

See http://creativecommons.org/licenses/by-sa/3.0/ for more details. -->
<!DOCTYPE svg PUBLIC "-//W3C//DTD SVG 1.0//EN" "http://www.w3.org/TR/2001/REC-SVG-20010904/DTD/svg10.dtd">
<svg xmlns="http://www.w3.org/2000/svg" width="109" height="109" viewBox="0 0 109 109">
	<g id="HelperGrid" style="opacity:0.75;">
		<rect x="0.5" y="0.5" style="fill:none;stroke:#404040;" width="108" height="108"/> 
		<line style="fill:none;stroke:#404040;" x1="0.5" y1="72.51" x2="108.5" y2="72.51"/>
		<line style="fill:none;stroke:#404040;" x1="0.5" y1="36.49" x2="108.5" y2="36.49"/>
		<line style="fill:none;stroke:#404040;" x1="72.5" y1="0.5" x2="72.5" y2="108.5"/>
		<line style="fill:none;stroke:#404040;" x1="36.5" y1="0.5" x2="36.5" y2="108.5"/>
	</g>
	<g id="Kanji">
		<text transform="matrix(1 0 0 1 0.5 93.3799)" style="font-size:108;">岩</text>
	</g>
	<g id="StrokeNumbers" style="font-size:8;fill:#808080">
		<text transform="matrix(1 0 0 1 50.25 9.1299)">1</text>
		<text transform="matrix(1 0 0 1 24.75 18.1299)">2</text>
		<text transform="matrix(1 0 0 1 78.75 13.6299)">3</text>
		<text transform="matrix(1 0 0 1 6.75 57.1299)">4</text>
		<text transform="matrix(1 0 0 1 29.25 66.1299)">5</text>
		<text transform="matrix(1 0 0 1 32.25 87.1299)">6</text>
		<text transform="matrix(1 0 0 1 47.25 67.6299)">7</text>
		<text transform="matrix(1 0 0 1 47.25 90.1299)">8</text>
	</g>
	<g id="StrokePaths" style="fill:none;stroke:#404040;stroke-width:3;stroke-linecap:round;stroke-linejoin:round;">
		<path d="M54.84,12.5c0.91,0.75,1.71,2,1.71,3.9c0,0.45-0.04,14.01-0.09,20.35"/>
		<path d="M30.03,21.6c0.72,0.9,0.97,1.65,1.03,3.22c0.11,2.75-1.32,8.87-2.89,14.37c-0.55,1.94,0.37,2.55,2.34,2.16c14.73-2.97,38.9-4.25,50.98-4.48"/>
		<path d="M84.65,17.67c0.85,1.08,1.1,1.83,0.86,3.63c-0.36,2.72-1.28,9.25-2.39,14.78c-0.31,1.56-0.64,3.09-0.98,4.48"/>
		<path d="M17.57,55.43c3.43,0.57,6.14,0.38,9.08,0.14c13.6-1.08,41.48-3.83,58.98-4.06c2.71-0.04,5.44-0.05,8.12,0.37"/>
		<path d="M40.86,57.86c0.26,0.89,0.14,2.64-0.66,4.27c-3.41,6.99-10.82,21.77-25.95,31.12"/>
		<path d="M38.27,69.52c1.25,1.02,1.55,1.29,1.78,2.94c0.66,4.74,1.16,12.99,2.01,20.79c0.14,1.24,0.28,2.47,0.43,3.67"/>
		<path d="M40.99,71.41c10.79-1.2,32.55-3.81,38.37-3.95c2.76-0.07,4.33,1.96,4,3.45c-1.24,5.58-2.97,12.76-4.1,19.38"/>
		<path d="M43.02,94.1c6.58-0.43,23.48-1.85,34.23-2.68c1.96-0.15,2.28-0.15,3.84-0.17"/>
	</g>
</svg>
