<?xml version="1.0" encoding="UTF-8"?>
<!DOCTYPE svg PUBLIC "-//W3C//DTD SVG 1.0//EN" "http://www.w3.org/TR/2001/REC-SVG-20010904/DTD/svg10.dtd">
<svg xmlns="http://www.w3.org/2000/svg" width="109" height="109" viewBox="0 0 109 109">
	<g id="HelperGrid" style="opacity:0.75;">
		<rect x="0.5" y="0.5" style="fill:none;stroke:#404040;" width="108" height="108"/> 
		<line style="fill:none;stroke:#404040;" x1="0.5" y1="72.51" x2="108.5" y2="72.51"/>
		<line style="fill:none;stroke:#404040;" x1="0.5" y1="36.49" x2="108.5" y2="36.49"/>
		<line style="fill:none;stroke:#404040;" x1="72.5" y1="0.5" x2="72.5" y2="108.5"/>
		<line style="fill:none;stroke:#404040;" x1="36.5" y1="0.5" x2="36.5" y2="108.5"/>
	</g>
	<g id="Kanji">
		<text transform="matrix(1 0 0 1 0.5 93.3799)" style="font-size:108;">岷</text>
	</g>
	<g id="StrokeNumbers" style="font-size:8;fill:#808080">
		<text transform="matrix(1 0 0 1 15.5 15.5)">1</text>
		<text transform="matrix(1 0 0 1 2.5 41.5)">2</text>
		<text transform="matrix(1 0 0 1 31.5 37.5)">3</text>
		<text transform="matrix(1 0 0 1 51.5 16.5)">4</text>
		<text transform="matrix(1 0 0 1 54.5 32.5)">5</text>
		<text transform="matrix(1 0 0 1 43.5 27.5)">6</text>
		<text transform="matrix(1 0 0 1 54.5 51.5)">7</text>
		<text transform="matrix(1 0 0 1 75.5 42.104)">8</text>
	</g>
	<g id="StrokePaths" style="fill:none;stroke:#404040;stroke-width:3;stroke-linecap:round;stroke-linejoin:round;">
		<path d="M24.2,16.25c0.61,0.36,2.01,2.69,2.01,3.42c0,7.55,0.25,42.97,0.25,52.65"/>
		<path d="M11.79,42.51c0.67,0.4,1.39,2.07,1.33,2.88c-0.37,5.52-0.37,20.56-1.7,28.86c-0.29,1.8,0.19,2.22,1.82,1.81c9.26-2.31,14.51-3.31,25.76-5.61"/>
		<path d="M39.72,38.16c0.67,0.4,1.33,2.96,1.33,3.76c0,6.21-0.8,23.07-1.92,33.31"/>
		<path d="M50.56,20.77c8.98-1.58,33.54-4.14,37.91-4.75c1.6-0.22,2.62,2.27,2.33,3.56c-1.09,4.73-1.94,8.43-2.97,11.66"/>
		<path d="M51.2,36.56c5.92-0.94,35.3-4.06,39.2-4.13"/>
		<path d="M48.75,19.35c1.37,0.69,1.88,3.23,1.88,5.31c0,2.08-0.17,63.16-0.17,66.39c0,3.23,0.17,4.16,2.4,1.85c2.23-2.31,12.89-10.39,16.07-12.35"/>
		<path d="M50.63,55.32c9.97-0.57,28.09-3.07,41.62-4.43c1.33-0.13,2.11,0.18,2.77,0.37"/>
		<path d="M69.48,37.81c0.35,0.74,1.01,2.75,1.15,4.16c2.16,22.59,10.7,44.38,24,53.46c5.76,3.94,3.8-3.13,3.8-5.81"/>
	</g>
</svg>
