<?xml version="1.0" encoding="UTF-8"?>
<!-- Copyright (C) 2009 Ulrich Apel.
This work is distributed under the conditions of the Creative Commons
Attribution-Share Alike 3.0 Licence. This means you are free:
* to Share - to copy, distribute and transmit the work
* to Remix - to adapt the work

Under the following conditions:
* Attribution. You must attribute the work by stating your use of KanjiVG in
  your own copyright header and linking to KanjiVG's website
  (http://kanjivg.tagaini.net)
* Share Alike. If you alter, transform, or build upon this work, you may
  distribute the resulting work only under the same or similar license to this
  one.

See http://creativecommons.org/licenses/by-sa/3.0/ for more details. -->
<!DOCTYPE svg PUBLIC "-//W3C//DTD SVG 1.0//EN" "http://www.w3.org/TR/2001/REC-SVG-20010904/DTD/svg10.dtd">
<svg xmlns="http://www.w3.org/2000/svg" width="109" height="109" viewBox="0 0 109 109">
	<g id="HelperGrid" style="opacity:0.75;">
		<rect x="0.5" y="0.5" style="fill:none;stroke:#404040;" width="108" height="108"/> 
		<line style="fill:none;stroke:#404040;" x1="0.5" y1="72.51" x2="108.5" y2="72.51"/>
		<line style="fill:none;stroke:#404040;" x1="0.5" y1="36.49" x2="108.5" y2="36.49"/>
		<line style="fill:none;stroke:#404040;" x1="72.5" y1="0.5" x2="72.5" y2="108.5"/>
		<line style="fill:none;stroke:#404040;" x1="36.5" y1="0.5" x2="36.5" y2="108.5"/>
	</g>
	<g id="Kanji">
		<text transform="matrix(1 0 0 1 0.5 93.3799)" style="font-size:108;">崑</text>
	</g>
	<g id="StrokeNumbers" style="font-size:8;fill:#808080">
		<text transform="matrix(1 0 0 1 45.5 9.5)">1</text>
		<text transform="matrix(1 0 0 1 18.5 15.8477)">2</text>
		<text transform="matrix(1 0 0 1 74.5 12.5)">3</text>
		<text transform="matrix(1 0 0 1 25.25 45.5)">4</text>
		<text transform="matrix(1 0 0 1 34.5 36.5)">5</text>
		<text transform="matrix(1 0 0 1 37.5 46.5)">6</text>
		<text transform="matrix(1 0 0 1 38.5 57.5)">7</text>
		<text transform="matrix(1 0 0 1 32.5 71.5)">8</text>
		<text transform="matrix(1 0 0 1 19.5 69.5)">9</text>
		<text transform="matrix(1 0 0 1 70.5 65.5)">10</text>
		<text transform="matrix(1 0 0 1 47.5 66.5)">11</text>
	</g>
	<g id="StrokePaths" style="fill:none;stroke:#404040;stroke-width:3;stroke-linecap:round;stroke-linejoin:round;">
		<path d="M52.51,9.38c0.56,0.33,1.75,2.48,1.86,3.15c0.11,0.66-0.07,8.58-0.18,12.73"/>
		<path d="M26.43,16.25c0.56,0.33,1.12,1.73,1.12,2.41c0,2.59-0.55,5.09-1.09,8.26c-0.26,1.5,0.83,2.61,2.11,2.28c6.43-1.7,48.83-5.92,53.85-6.05"/>
		<path d="M82.52,12.62c0.56,0.33,1.21,2.48,1.12,3.15C83.09,19.84,83,23,82.11,26.96"/>
		<path d="M31.35,38.01c0.56,0.53,1.13,1.29,1.13,2c0,0.71,3.37,21.76,3.37,22.11"/>
		<path d="M32.51,39.38c3.17-0.09,38.19-4.53,41.08-4.64c2.41-0.09,3.54,1.09,3.27,3.17c-0.14,1.1-1.54,12.69-3.96,20.33"/>
		<path d="M34.44,49.22c8.6-0.44,35.99-3.68,40.84-3.68"/>
		<path d="M35.65,59.63c8.74-0.38,26.55-2.39,37.44-2.72"/>
		<path d="M28.24,76.54c4.45-0.59,12.76-3.04,18.32-4.54c1.35-0.37,2.07-0.5,3.25-0.11"/>
		<path d="M26.4,64.04c0.97,0.52,1.32,1.99,1.37,2.73c0.27,4.67-0.31,25.67-0.31,28.02c0,1.45,0.76,2.74,3.93,1.46C37.87,93.62,42,91,49.05,87.67"/>
		<path d="M82.27,62.38c0.29,0.38-0.15,2.28-0.84,2.76C74.5,70,68.75,73.75,59.65,77.59"/>
		<path d="M54.73,63.16c1.52,0.84,2.14,3.25,2.11,3.96c-0.14,3.98-0.3,19.74-0.3,21.88c0,6.51,1.95,8.59,16.11,8.59c16.84,0,17.95-1.58,17.95-11.14"/>
	</g>
</svg>
