<?xml version="1.0" encoding="UTF-8"?>
<!DOCTYPE svg PUBLIC "-//W3C//DTD SVG 1.0//EN" "http://www.w3.org/TR/2001/REC-SVG-20010904/DTD/svg10.dtd">
<svg xmlns="http://www.w3.org/2000/svg" width="109" height="109" viewBox="0 0 109 109">
	<g id="HelperGrid" style="opacity:0.75;">
		<rect x="0.5" y="0.5" style="fill:none;stroke:#404040;" width="108" height="108"/> 
		<line style="fill:none;stroke:#404040;" x1="0.5" y1="72.51" x2="108.5" y2="72.51"/>
		<line style="fill:none;stroke:#404040;" x1="0.5" y1="36.49" x2="108.5" y2="36.49"/>
		<line style="fill:none;stroke:#404040;" x1="72.5" y1="0.5" x2="72.5" y2="108.5"/>
		<line style="fill:none;stroke:#404040;" x1="36.5" y1="0.5" x2="36.5" y2="108.5"/>
	</g>
	<g id="Kanji">
		<text transform="matrix(1 0 0 1 0.5 93.3799)" style="font-size:108;">崛</text>
	</g>
	<g id="StrokeNumbers" style="font-size:8;fill:#808080">
		<text transform="matrix(1 0 0 1 16.5 21.5)">1</text>
		<text transform="matrix(1 0 0 1 5.6602 42.5)">2</text>
		<text transform="matrix(1 0 0 1 31.5 39.5)">3</text>
		<text transform="matrix(1 0 0 1 51.5 14.5)">4</text>
		<text transform="matrix(1 0 0 1 55.5 30.5)">5</text>
		<text transform="matrix(1 0 0 1 43.25 24.5)">6</text>
		<text transform="matrix(1 0 0 1 64.5 42.5)">7</text>
		<text transform="matrix(1 0 0 1 54.5 43.104)">8</text>
		<text transform="matrix(1 0 0 1 83.5 42.5)">9</text>
		<text transform="matrix(1 0 0 1 48.25 72.9541)">10</text>
		<text transform="matrix(1 0 0 1 82.5 73.5)">11</text>
	</g>
	<g id="StrokePaths" style="fill:none;stroke:#404040;stroke-width:3;stroke-linecap:round;stroke-linejoin:round;">
		<path d="M23.98,20.75c0.6,0.31,1.98,2.3,1.98,2.93c0,6.47,0.25,33.25,0.25,41.55"/>
		<path d="M13.28,42.83c0.65,0.34,1.36,1.78,1.31,2.47c-0.37,4.73-0.37,14.62-1.67,21.73c-0.28,1.54,0.32,2.27,1.79,1.55C19,66.5,25.5,65,38.52,64.2"/>
		<path d="M39.24,39.1c0.66,0.34,1.31,2.53,1.31,3.22c0,5.37-1.3,16.17-1.9,25.12"/>
		<path d="M48.21,17.06c1.27,0.62,3.73,0.59,5.08,0.5c9.21-0.57,29.81-3.49,32.73-3.66c2.98-0.17,3.65,1.53,3.65,3.38c0,3.12-2.15,6.79-3.26,13.39"/>
		<path d="M51.59,34.23c3.65-0.21,33.48-3.14,37.29-3.35"/>
		<path d="M50.95,17.75c0.17,3.75,0.29,5.94,0.17,9.68c-0.67,20.9-2.67,46.36-14.2,61.89"/>
		<path d="M72.15,37.73c0.66,0.4,2.2,2.7,2.2,4.29c0,6.21,0.15,39.13,0.15,48.82"/>
		<path d="M58.31,46.71c0.42,0.27,0.85,2.27,0.84,2.82c-0.08,3.89-1.33,8.39-2.23,12.83c-0.25,1.23,0.9,2.57,1.88,2.27c9.52-2.92,22.98-4.78,30.84-4.63"/>
		<path d="M90.55,44.49c0.76,0.36,1.06,3.18,0.94,3.91c-0.75,4.41-0.4,4.92-1.65,13.15"/>
		<path d="M55.99,75.81c0.42,0.27,0.9,2.28,0.84,2.82c-0.28,2.42-0.81,9.39-1.94,14.31c-0.28,1.21,0.11,2.8,1.83,2.27c8.01-2.47,29.05-4.34,36.92-4.19"/>
		<path d="M92.58,72.56c0.48,0.39,1.26,3.4,1.24,4.18c-0.16,5.58,0.18,11.51-0.4,18.28"/>
	</g>
</svg>
