<?xml version="1.0" encoding="UTF-8"?>
<!-- Copyright (C) 2009 Ulrich Apel.
This work is distributed under the conditions of the Creative Commons
Attribution-Share Alike 3.0 Licence. This means you are free:
* to Share - to copy, distribute and transmit the work
* to Remix - to adapt the work

Under the following conditions:
* Attribution. You must attribute the work by stating your use of KanjiVG in
  your own copyright header and linking to KanjiVG's website
  (http://kanjivg.tagaini.net)
* Share Alike. If you alter, transform, or build upon this work, you may
  distribute the resulting work only under the same or similar license to this
  one.

See http://creativecommons.org/licenses/by-sa/3.0/ for more details. -->
<!DOCTYPE svg PUBLIC "-//W3C//DTD SVG 1.0//EN" "http://www.w3.org/TR/2001/REC-SVG-20010904/DTD/svg10.dtd">
<svg xmlns="http://www.w3.org/2000/svg" width="109" height="109" viewBox="0 0 109 109">
	<g id="HelperGrid" style="opacity:0.75;">
		<rect x="0.5" y="0.5" style="fill:none;stroke:#404040;" width="108" height="108"/> 
		<line style="fill:none;stroke:#404040;" x1="0.5" y1="72.51" x2="108.5" y2="72.51"/>
		<line style="fill:none;stroke:#404040;" x1="0.5" y1="36.49" x2="108.5" y2="36.49"/>
		<line style="fill:none;stroke:#404040;" x1="72.5" y1="0.5" x2="72.5" y2="108.5"/>
		<line style="fill:none;stroke:#404040;" x1="36.5" y1="0.5" x2="36.5" y2="108.5"/>
	</g>
	<g id="Kanji">
		<text transform="matrix(1 0 0 1 0.5 93.3799)" style="font-size:108;">嵎</text>
	</g>
	<g id="StrokeNumbers" style="font-size:8;fill:#808080">
		<text transform="matrix(1 0 0 1 15.5 18.5)">1</text>
		<text transform="matrix(1 0 0 1 3.5 45.5)">2</text>
		<text transform="matrix(1 0 0 1 30.5 41.5)">3</text>
		<text transform="matrix(1 0 0 1 43.5 25.5)">4</text>
		<text transform="matrix(1 0 0 1 52.5 14.5)">5</text>
		<text transform="matrix(1 0 0 1 56.5 27.5)">6</text>
		<text transform="matrix(1 0 0 1 56.5 41.5)">7</text>
		<text transform="matrix(1 0 0 1 42.25 65.5)">8</text>
		<text transform="matrix(1 0 0 1 53.5 54.5)">9</text>
		<text transform="matrix(1 0 0 1 72.5 24.5)">10</text>
		<text transform="matrix(1 0 0 1 53.5 69.5)">11</text>
		<text transform="matrix(1 0 0 1 82.5 64.3047)">12</text>
	</g>
	<g id="StrokePaths" style="fill:none;stroke:#404040;stroke-width:3;stroke-linecap:round;stroke-linejoin:round;">
		<path d="M23.78,19c0.58,0.35,1.93,2.58,1.93,3.28c0,7.24,0.24,37.86,0.24,47.16"/>
		<path d="M13.33,46.23c0.64,0.38,1.33,1.99,1.28,2.76c-0.36,5.3-0.36,13.37-1.63,21.34c-0.28,1.73,0.19,2.13,1.75,1.74c8.88-2.22,12.96-2.7,23.76-4.9"/>
		<path d="M38.72,42.05c0.64,0.38,1.28,2.84,1.28,3.61c0,5.96-1.38,16.48-1.38,26.13"/>
		<path d="M49.67,16.18c0.28,0.53,0.78,1.89,0.93,2.54c1.23,5.38,2.27,18.05,2.98,27.93"/>
		<path d="M50.97,17.51c9.81-0.34,30.08-2.62,37.41-2.99c2.69-0.14,3.29,1.55,3.07,4.8c-0.36,5.28-1.65,14.9-3.26,25.19"/>
		<path d="M52.83,30.92c3.2-0.19,34.5-2.6,37.14-2.55"/>
		<path d="M53.73,44.61c10.03-1.09,24.8-2.33,34.56-2.27"/>
		<path d="M47.01,54.54c0.8,0.66,1.37,2.47,1.43,3.65c0.27,5.81,0.85,32.22,1.29,38.69"/>
		<path d="M48.94,58.76c6.4-0.79,42.62-4.94,43.9-4.92c1.93,0.03,3.6,2.16,3.54,5.77c-0.17,9.57-1.81,23.48-4.08,31.96c-1.79,6.68-4.54,3.18-6.58-0.23"/>
		<path d="M69.16,18.39c0.42,0.9,1.07,1.79,1.07,3.35c-0.02,6.87,0.11,50.14,0.1,52.25"/>
		<path d="M56.39,75.42c1.34,0.85,2.82,1.34,4.01,1.05c3.34-0.8,17.07-4.49,24.07-5.91"/>
		<path d="M80.22,62.96c2.88,2.75,7.42,11.14,8.14,15.28"/>
	</g>
</svg>
