<?xml version="1.0" encoding="UTF-8"?>
<!-- Copyright (C) 2009 Ulrich Apel.
This work is distributed under the conditions of the Creative Commons
Attribution-Share Alike 3.0 Licence. This means you are free:
* to Share - to copy, distribute and transmit the work
* to Remix - to adapt the work

Under the following conditions:
* Attribution. You must attribute the work by stating your use of KanjiVG in
  your own copyright header and linking to KanjiVG's website
  (http://kanjivg.tagaini.net)
* Share Alike. If you alter, transform, or build upon this work, you may
  distribute the resulting work only under the same or similar license to this
  one.

See http://creativecommons.org/licenses/by-sa/3.0/ for more details. -->
<!DOCTYPE svg PUBLIC "-//W3C//DTD SVG 1.0//EN" "http://www.w3.org/TR/2001/REC-SVG-20010904/DTD/svg10.dtd">
<svg xmlns="http://www.w3.org/2000/svg" width="109" height="109" viewBox="0 0 109 109">
	<g id="HelperGrid" style="opacity:0.75;">
		<rect x="0.5" y="0.5" style="fill:none;stroke:#404040;" width="108" height="108"/> 
		<line style="fill:none;stroke:#404040;" x1="0.5" y1="72.51" x2="108.5" y2="72.51"/>
		<line style="fill:none;stroke:#404040;" x1="0.5" y1="36.49" x2="108.5" y2="36.49"/>
		<line style="fill:none;stroke:#404040;" x1="72.5" y1="0.5" x2="72.5" y2="108.5"/>
		<line style="fill:none;stroke:#404040;" x1="36.5" y1="0.5" x2="36.5" y2="108.5"/>
	</g>
	<g id="Kanji">
		<text transform="matrix(1 0 0 1 0.5 93.3799)" style="font-size:108;">巛</text>
	</g>
	<g id="StrokeNumbers" style="font-size:8;fill:#808080">
		<text transform="matrix(1 0 0 1 27.5 13.5)">1</text>
		<text transform="matrix(1 0 0 1 50.5 13.5)">2</text>
		<text transform="matrix(1 0 0 1 76.5 13.5)">3</text>
	</g>
	<g id="StrokePaths" style="fill:none;stroke:#404040;stroke-width:3;stroke-linecap:round;stroke-linejoin:round;">
		<path d="M35.21,14.37c1.04,0.88,1.49,4,0.75,5.75C32,29.5,27.25,40.75,20.5,52.75c-1.3,2.32-0.52,2.11,0,3C27,67,34.75,80,37.5,95.25"/>
		<path d="M58.21,13.87c1.04,0.88,1.39,3.96,0.75,5.75C55.5,29.25,52.75,40.75,46.25,52c-0.71,1.22-0.29,2.37,0.25,3.25c6.5,10.5,13,22,17,39"/>
		<path d="M84.21,14.87c1.04,0.88,1.35,3.94,0.75,5.75C81.5,31,77.25,41.75,70.75,53c-0.71,1.22-0.29,2.37,0.25,3.25c6.5,10.5,13,21,17,38"/>
	</g>
</svg>
