<?xml version="1.0" encoding="UTF-8"?>
<!DOCTYPE svg PUBLIC "-//W3C//DTD SVG 1.0//EN" "http://www.w3.org/TR/2001/REC-SVG-20010904/DTD/svg10.dtd">
<svg xmlns="http://www.w3.org/2000/svg" width="109" height="109" viewBox="0 0 109 109">
	<g id="HelperGrid" style="opacity:0.75;">
		<rect x="0.5" y="0.5" style="fill:none;stroke:#404040;" width="108" height="108"/> 
		<line style="fill:none;stroke:#404040;" x1="0.5" y1="72.51" x2="108.5" y2="72.51"/>
		<line style="fill:none;stroke:#404040;" x1="0.5" y1="36.49" x2="108.5" y2="36.49"/>
		<line style="fill:none;stroke:#404040;" x1="72.5" y1="0.5" x2="72.5" y2="108.5"/>
		<line style="fill:none;stroke:#404040;" x1="36.5" y1="0.5" x2="36.5" y2="108.5"/>
	</g>
	<g id="Kanji">
		<text transform="matrix(1 0 0 1 0.5 93.3799)" style="font-size:108;">市</text>
	</g>
	<g id="StrokeNumbers" style="font-size:8;fill:#808080">
		<text transform="matrix(1 0 0 1 44.25 9.1299)">1</text>
		<text transform="matrix(1 0 0 1 8.25 28.6299)">2</text>
		<text transform="matrix(1 0 0 1 18.75 49.6299)">3</text>
		<text transform="matrix(1 0 0 1 35.25 43.6299)">4</text>
		<text transform="matrix(1 0 0 1 63.75 39.1299)">5</text>
	</g>
	<g id="StrokePaths" style="fill:none;stroke:#404040;stroke-width:3;stroke-linecap:round;stroke-linejoin:round;">
		<path d="M52.86,12c1.26,1.26,1.48,2.5,1.48,4.66c0,4.84-0.15,6.46-0.15,8.9"/>
		<path d="M15.5,28.96c3.65,0.76,7.24,0.69,9.36,0.46c16.74-1.8,45.31-4.8,60.95-5.6c3.62-0.19,5.48,0.04,8.18,0.59"/>
		<path d="M27.31,46c1.22,1.22,1.6,2.75,1.6,4.61c0,3.34-0.06,19.8-0.16,28.65c-0.02,2.13-0.05,3.8-0.08,4.72"/>
		<path d="M30.28,48.5c12.28-1.24,45.6-4.38,48.37-4.38c3.6,0,5.35,0.87,5.35,5.09c0,9.3-0.25,21.16-1.4,29.97c-1.06,8.11-6.24,0.06-7.73-1.27"/>
		<path d="M53.53,32.88c1.17,1.17,1.85,2.87,1.85,4.36c0,5.51-0.27,35.65-0.32,54.26c-0.01,2.28-0.01,4.31-0.01,6"/>
	</g>
</svg>
