<?xml version="1.0" encoding="UTF-8"?>
<!DOCTYPE svg PUBLIC "-//W3C//DTD SVG 1.0//EN" "http://www.w3.org/TR/2001/REC-SVG-20010904/DTD/svg10.dtd">
<svg xmlns="http://www.w3.org/2000/svg" width="109" height="109" viewBox="0 0 109 109">
	<g id="HelperGrid" style="opacity:0.75;">
		<rect x="0.5" y="0.5" style="fill:none;stroke:#404040;" width="108" height="108"/> 
		<line style="fill:none;stroke:#404040;" x1="0.5" y1="72.51" x2="108.5" y2="72.51"/>
		<line style="fill:none;stroke:#404040;" x1="0.5" y1="36.49" x2="108.5" y2="36.49"/>
		<line style="fill:none;stroke:#404040;" x1="72.5" y1="0.5" x2="72.5" y2="108.5"/>
		<line style="fill:none;stroke:#404040;" x1="36.5" y1="0.5" x2="36.5" y2="108.5"/>
	</g>
	<g id="Kanji">
		<text transform="matrix(1 0 0 1 0.5 93.3799)" style="font-size:108;">帑</text>
	</g>
	<g id="StrokeNumbers" style="font-size:8;fill:#808080">
		<text transform="matrix(1 0 0 1 26.5 9.5)">1</text>
		<text transform="matrix(1 0 0 1 39.5 17.5)">2</text>
		<text transform="matrix(1 0 0 1 4.5 28.5)">3</text>
		<text transform="matrix(1 0 0 1 56.5 13.5)">4</text>
		<text transform="matrix(1 0 0 1 52.5 28.5)">5</text>
		<text transform="matrix(1 0 0 1 22.5 67.5)">6</text>
		<text transform="matrix(1 -4.500000e-04 4.500000e-04 1 31.499 58.5)">7</text>
		<text transform="matrix(1 0 0 1 46.25 54.5005)">8</text>
	</g>
	<g id="StrokePaths" style="fill:none;stroke:#404040;stroke-width:3;stroke-linecap:round;stroke-linejoin:round;">
		<path d="M28.25,60.93c0.6,0.27,1.88,2.02,2,2.56c0.12,0.54,2.92,23.67,2.8,27.04"/>
		<path d="M29.79,62.39c3.78-0.19,44.8-4.49,47.62-4.61c3.31-0.14,4.03,2.38,3.91,3.61c-0.6,6.19-2.65,16.78-4.88,22.75C74.25,90,72.5,87,69.88,83.24"/>
		<path d="M52.52,46.38c0.6,0.27,1.88,2.02,2,2.56c0.12,0.54-0.08,49.57-0.2,52.94"/>
		<path d="M32.93,10.44c0.38,0.87,0.56,2.29,0.36,3.47c-0.97,5.8-5.75,17.67-9.98,24.16c-0.87,1.33,0.37,2.04,0.86,2.18c7.29,2.13,13.94,2.92,19.6,8.58"/>
		<path d="M44.62,21.17c0.07,0.78,0.11,2.67-0.15,3.78c-2.13,8.93-8.26,21.35-23.38,26.91"/>
		<path d="M12.25,28.29c0.83,1.8,2.59,1.89,4.73,1.25C20.5,28.5,37.25,25,50.27,21.78"/>
		<path d="M59.8,16.51c1.07,0.23,1.2,0.57,3.34,0.23c2.14-0.34,17.81-3.4,19.28-3.74c1.47-0.34,3.23,0.99,2.72,2.25C81,25.49,70.86,39.1,58.69,44.04"/>
		<path d="M58.52,22.39c3.27,0.57,19.22,15.81,30.59,22.05c1.77,0.97,3.06,1.62,4.71,1.94"/>
	</g>
</svg>
