<?xml version="1.0" encoding="UTF-8"?>
<!-- Copyright (C) 2009 Ulrich Apel.
This work is distributed under the conditions of the Creative Commons
Attribution-Share Alike 3.0 Licence. This means you are free:
* to Share - to copy, distribute and transmit the work
* to Remix - to adapt the work

Under the following conditions:
* Attribution. You must attribute the work by stating your use of KanjiVG in
  your own copyright header and linking to KanjiVG's website
  (http://kanjivg.tagaini.net)
* Share Alike. If you alter, transform, or build upon this work, you may
  distribute the resulting work only under the same or similar license to this
  one.

See http://creativecommons.org/licenses/by-sa/3.0/ for more details. -->
<!DOCTYPE svg PUBLIC "-//W3C//DTD SVG 1.0//EN" "http://www.w3.org/TR/2001/REC-SVG-20010904/DTD/svg10.dtd">
<svg xmlns="http://www.w3.org/2000/svg" width="109" height="109" viewBox="0 0 109 109">
	<g id="HelperGrid" style="opacity:0.75;">
		<rect x="0.5" y="0.5" style="fill:none;stroke:#404040;" width="108" height="108"/> 
		<line style="fill:none;stroke:#404040;" x1="0.5" y1="72.51" x2="108.5" y2="72.51"/>
		<line style="fill:none;stroke:#404040;" x1="0.5" y1="36.49" x2="108.5" y2="36.49"/>
		<line style="fill:none;stroke:#404040;" x1="72.5" y1="0.5" x2="72.5" y2="108.5"/>
		<line style="fill:none;stroke:#404040;" x1="36.5" y1="0.5" x2="36.5" y2="108.5"/>
	</g>
	<g id="Kanji">
		<text transform="matrix(1 0 0 1 0.5 93.3799)" style="font-size:108;">并</text>
	</g>
	<g id="StrokeNumbers" style="font-size:8;fill:#808080">
		<text transform="matrix(1 0 0 1 28.25 12.6299)">1</text>
		<text transform="matrix(1 0 0 1 59.25 8.5547)">2</text>
		<text transform="matrix(1 0 0 1 14.25 32.479)">3</text>
		<text transform="matrix(1 0 0 1 6.25 63.4043)">4</text>
		<text transform="matrix(1 0 0 1 34.25 41.3291)">5</text>
		<text transform="matrix(1 0 0 1 59.25 37.2549)">6</text>
	</g>
	<g id="StrokePaths" style="fill:none;stroke:#404040;stroke-width:3;stroke-linecap:round;stroke-linejoin:round;">
		<path d="M35.33,12.14c2.86,2.04,7.39,8.4,8.1,11.58"/>
		<path d="M69.96,11.14c0.02,0.37,0.05,0.96-0.05,1.5c-0.62,3.16-4.16,10.09-9,14.33"/>
		<path d="M23,32.25c1.22,0.45,3.47,0.54,4.69,0.45c9.06-0.7,43.88-5.12,55.52-5.12c2.04,0,3.27,0.21,4.29,0.44"/>
		<path d="M15.25,60.7c1.52,0.54,4.3,0.66,5.82,0.54C37.5,60,74.25,56,91.69,56.01c2.53,0,4.05,0.26,5.31,0.53"/>
		<path d="M42.74,33.75c0.67,1.74,1.63,3.11,1.63,5.28C44.36,58.88,46,82,24.31,97.72"/>
		<path d="M65.87,31.75c1.09,0.5,1.74,2.25,1.96,3.25c0.22,1,0,57.25-0.22,63.5"/>
	</g>
</svg>
