<?xml version="1.0" encoding="UTF-8"?>
<!DOCTYPE svg PUBLIC "-//W3C//DTD SVG 1.0//EN" "http://www.w3.org/TR/2001/REC-SVG-20010904/DTD/svg10.dtd">
<svg xmlns="http://www.w3.org/2000/svg" width="109" height="109" viewBox="0 0 109 109">
	<g id="HelperGrid" style="opacity:0.75;">
		<rect x="0.5" y="0.5" style="fill:none;stroke:#404040;" width="108" height="108"/> 
		<line style="fill:none;stroke:#404040;" x1="0.5" y1="72.51" x2="108.5" y2="72.51"/>
		<line style="fill:none;stroke:#404040;" x1="0.5" y1="36.49" x2="108.5" y2="36.49"/>
		<line style="fill:none;stroke:#404040;" x1="72.5" y1="0.5" x2="72.5" y2="108.5"/>
		<line style="fill:none;stroke:#404040;" x1="36.5" y1="0.5" x2="36.5" y2="108.5"/>
	</g>
	<g id="Kanji">
		<text transform="matrix(1 0 0 1 0.5 93.3799)" style="font-size:108;">弸</text>
	</g>
	<g id="StrokeNumbers" style="font-size:8;fill:#808080">
		<text transform="matrix(1 0 0 1 7.5 19.5)">1</text>
		<text transform="matrix(1 0 0 1 19.5 34.5)">2</text>
		<text transform="matrix(1 0 0 1 9.5 38.5)">3</text>
		<text transform="matrix(1 0 0 1 39.5 30.5)">4</text>
		<text transform="matrix(1 0 0 1 48.5 18.5)">5</text>
		<text transform="matrix(1 0 0 1 50.25 38.5)">6</text>
		<text transform="matrix(1 0 0 1 50.25 54.5)">7</text>
		<text transform="matrix(1 0 0 1 68.5 26.5)">8</text>
		<text transform="matrix(1 0 0 1 78.5 16.5)">9</text>
		<text transform="matrix(1 0 0 1 79.25 34.5)">10</text>
		<text transform="matrix(1 0 0 1 79.25 53.5)">11</text>
	</g>
	<g id="StrokePaths" style="fill:none;stroke:#404040;stroke-width:3;stroke-linecap:round;stroke-linejoin:round;">
		<path d="M14,20.09c0.75,0.91,3.01,1.26,4.19,1.04c2.06-0.38,12.06-2.63,15.77-2.79c2.51-0.1,3.2,1.34,2.24,3.39c-0.68,1.46-1.83,6.21-2.66,9.89c-0.33,1.47-0.62,2.77-0.8,3.62"/>
		<path d="M18.25,37.75c1.75,0,12-2,13.25-2s2.5-0.5,3.5-0.5"/>
		<path d="M16.63,36.68c0.55,0.96,0.96,2.56,0.61,4.08C16.83,42.5,15.35,52.53,15,53.44c-1,2.56-0.43,4.12,2.75,3.06c3-1,8.8-2.42,12.96-3.19c3.04-0.56,3.54,1.44,3.29,4.44c-0.74,8.91-3.47,27.2-7.25,33.5c-3.75,6.25-6.36-0.31-7.19-2.17"/>
		<path d="M45.44,20.69c0.55,0.93,1.07,1.84,1.09,2.79C47.75,76.5,43.75,82.5,34.51,92"/>
		<path d="M46.13,22.05c2.19-0.23,12.83-2.77,14.45-3.06c1.42-0.25,2.92,1.02,2.92,2.48c0,7.9-0.05,45.53-0.05,62.86c0,12.08-4.88,4.18-6.7,2.09"/>
		<path d="M47.13,41.94c3.1-0.46,11.9-2.13,16.1-2.36"/>
		<path d="M46.72,58.71c5.84-0.7,9.62-1.93,16.37-2.39"/>
		<path d="M75.24,17.71c0.53,0.95,1.04,1.88,1.05,2.85c0.96,50.7-2.04,61.2-8.23,69.95"/>
		<path d="M76.99,20.08c2.11-0.24,13.37-2.82,14.94-3.08c2.81-0.47,2.81,2.06,2.81,3.56c0,8.06-0.53,47.93-0.53,65.62c0,9.57-5.16,2.69-6.92,0.56"/>
		<path d="M77.35,38.81c2.99-0.47,12.12-1.66,16.17-1.9"/>
		<path d="M76.47,57.15c5.62-0.71,10.9-1.45,17.4-1.92"/>
	</g>
</svg>
