<?xml version="1.0" encoding="UTF-8"?>
<!-- Copyright (C) 2009 Ulrich Apel.
This work is distributed under the conditions of the Creative Commons
Attribution-Share Alike 3.0 Licence. This means you are free:
* to Share - to copy, distribute and transmit the work
* to Remix - to adapt the work

Under the following conditions:
* Attribution. You must attribute the work by stating your use of KanjiVG in
  your own copyright header and linking to KanjiVG's website
  (http://kanjivg.tagaini.net)
* Share Alike. If you alter, transform, or build upon this work, you may
  distribute the resulting work only under the same or similar license to this
  one.

See http://creativecommons.org/licenses/by-sa/3.0/ for more details. -->
<!DOCTYPE svg PUBLIC "-//W3C//DTD SVG 1.0//EN" "http://www.w3.org/TR/2001/REC-SVG-20010904/DTD/svg10.dtd">
<svg xmlns="http://www.w3.org/2000/svg" width="109" height="109" viewBox="0 0 109 109">
	<g id="HelperGrid" style="opacity:0.75;">
		<rect x="0.5" y="0.5" style="fill:none;stroke:#404040;" width="108" height="108"/> 
		<line style="fill:none;stroke:#404040;" x1="0.5" y1="72.51" x2="108.5" y2="72.51"/>
		<line style="fill:none;stroke:#404040;" x1="0.5" y1="36.49" x2="108.5" y2="36.49"/>
		<line style="fill:none;stroke:#404040;" x1="72.5" y1="0.5" x2="72.5" y2="108.5"/>
		<line style="fill:none;stroke:#404040;" x1="36.5" y1="0.5" x2="36.5" y2="108.5"/>
	</g>
	<g id="Kanji">
		<text transform="matrix(1 0 0 1 0.5 93.3799)" style="font-size:108;">弼</text>
	</g>
	<g id="StrokeNumbers" style="font-size:8;fill:#808080">
		<text transform="matrix(1 0 0 1 5.5 18.8486)">1</text>
		<text transform="matrix(1 0 0 1 14.5 33.5)">2</text>
		<text transform="matrix(1 0 0 1 8.5 42.5)">3</text>
		<text transform="matrix(1 0 0 1 39.5 15.5)">4</text>
		<text transform="matrix(1 0 0 1 44.5 27.5)">5</text>
		<text transform="matrix(1 0 0 1 36.5 46.5)">6</text>
		<text transform="matrix(1 0 0 1 53.5 34.5)">7</text>
		<text transform="matrix(1 0 0 1 47.5 55.6035)">8</text>
		<text transform="matrix(1 0 0 1 47.5 81.5)">9</text>
		<text transform="matrix(1 0 0 1 71.5 15.5)">10</text>
		<text transform="matrix(1 0 0 1 73.5 31.5)">11</text>
		<text transform="matrix(1 0 0 1 67.5 41.5)">12</text>
	</g>
	<g id="StrokePaths" style="fill:none;stroke:#404040;stroke-width:3;stroke-linecap:round;stroke-linejoin:round;">
		<path d="M12.5,18.88c0.75,0.62,2.5,0.7,3.69,0.54c1.31-0.17,12.67-2.46,15.27-3.29c2.4-0.76,3.7,0.84,2.74,2.89c-0.72,1.54-2.24,7.62-3.22,11.78c-0.32,1.35-0.58,2.5-0.74,3.23"/>
		<path d="M17.75,36.25c1.75,0,10.5-2,11.75-2s2.5,0,3.5,0"/>
		<path d="M16.13,34.97c0.55,0.96,0.46,4.56,0.11,6.08c-0.41,1.74-3.38,10.77-3.74,11.68c-1,2.56-0.49,3.94,2.75,3.06C20,54.5,24.5,53.54,28.71,53.1c2.99-0.31,3.54,0.4,3.29,3.44c-0.73,8.91-5.97,27.2-9.75,33.5c-3.75,6.25-6.36-0.31-7.19-2.17"/>
		<path d="M40.85,18.7c0.85,0.44,2.38,0.5,3.25,0.44c5.79-0.39,9.17-1.87,20.09-2.77c1.41-0.12,2.26,0.21,2.96,0.43"/>
		<path d="M52.04,20.59c0.2,0.53,0.23,1.18,0.18,1.64c-0.28,2.72-2.74,10.11-4.97,13.77"/>
		<path d="M42.52,37.88c0.35,1.22,0.61,1.84,0.71,3.46c0.54,8.57,0.3,31.2,0.33,42.17c0,1.61,0.01,2.97,0.03,4"/>
		<path d="M43.44,39.81c0.44-0.04,1.5-0.24,2.91-0.51c5.02-0.97,14.46-2.99,15.88-3.18c1.52-0.2,2.49,1.36,2.38,2.57C64.4,40.86,64.29,66.31,64.14,81c-0.02,1.78-0.04,3.41-0.06,4.81"/>
		<path d="M43.77,59.72c8.27-1.36,14.47-2.53,19.25-2.41"/>
		<path d="M44.17,84.8c6.56-0.81,13.33-1.55,19.72-2.03"/>
		<path d="M73.5,17.88c1.25,0.87,2,1.12,4.19,1.04c0.98-0.04,13.67-2.96,16.27-3.79c2.4-0.76,2.7,1.84,1.74,3.89c-0.65,1.39-1.95,5.99-2.92,9.74c-0.45,1.76-0.83,3.32-1.04,4.28"/>
		<path d="M79,34.54c1.75,0,11.5-1.5,12.75-1.5s2.5-0.5,3.5-0.5"/>
		<path d="M77.63,32.97c0.55,0.96,0.46,4.56,0.11,6.08c-0.41,1.74-3.38,11.27-3.74,12.18c-1,2.56-0.56,3.61,2.75,3.06c3.25-0.54,8.5-2.04,13.46-2.69c2.52-0.33,4.71,0.52,4.29,3.94c-1.09,8.88-4.75,27.71-10.25,35.5c-4.2,5.95-6.36-0.31-7.19-2.17"/>
	</g>
</svg>
