<?xml version="1.0" encoding="UTF-8"?>
<!DOCTYPE svg PUBLIC "-//W3C//DTD SVG 1.0//EN" "http://www.w3.org/TR/2001/REC-SVG-20010904/DTD/svg10.dtd">
<svg xmlns="http://www.w3.org/2000/svg" width="109" height="109" viewBox="0 0 109 109">
	<g id="HelperGrid" style="opacity:0.75;">
		<rect x="0.5" y="0.5" style="fill:none;stroke:#404040;" width="108" height="108"/> 
		<line style="fill:none;stroke:#404040;" x1="0.5" y1="72.51" x2="108.5" y2="72.51"/>
		<line style="fill:none;stroke:#404040;" x1="0.5" y1="36.49" x2="108.5" y2="36.49"/>
		<line style="fill:none;stroke:#404040;" x1="72.5" y1="0.5" x2="72.5" y2="108.5"/>
		<line style="fill:none;stroke:#404040;" x1="36.5" y1="0.5" x2="36.5" y2="108.5"/>
	</g>
	<g id="Kanji">
		<text transform="matrix(1 0 0 1 0.5 93.3799)" style="font-size:108;">彑</text>
	</g>
	<g id="StrokeNumbers" style="font-size:8;fill:#808080">
		<text transform="matrix(1 0 0 1 39 14.1299)">1</text>
		<text transform="matrix(1 0 0 1 51.5 32.5)">2</text>
		<text transform="matrix(1 0 0 1 12.5 87.7285)">3</text>
	</g>
	<g id="StrokePaths" style="fill:none;stroke:#404040;stroke-width:3;stroke-linecap:round;stroke-linejoin:round;">
		<path d="M47.5,13.75c1,1.5,1.02,4.39,0.5,6.75c-2.5,11.25-10.25,33-13.38,41.6c-0.87,2.4-1.12,4.65,2.13,4.4c9.64-0.74,16.66-1.33,31.75-2.25"/>
		<path d="M43.5,36.5c4.29-0.28,25.05-3.66,28.96-4c3.25-0.28,4.58,1.63,4.04,3.68c-2,7.57-8,30.07-13.75,53.57"/>
		<path d="M15.25,92.21c1.49,0.53,4.22,0.58,5.71,0.53c15.79-0.49,52.18-3.38,67.82-2.63c2.48,0.12,3.97,0.25,5.22,0.52"/>
	</g>
</svg>
