<?xml version="1.0" encoding="UTF-8"?>
<!-- Copyright (C) 2009 Ulrich Apel.
This work is distributed under the conditions of the Creative Commons
Attribution-Share Alike 3.0 Licence. This means you are free:
* to Share - to copy, distribute and transmit the work
* to Remix - to adapt the work

Under the following conditions:
* Attribution. You must attribute the work by stating your use of KanjiVG in
  your own copyright header and linking to KanjiVG's website
  (http://kanjivg.tagaini.net)
* Share Alike. If you alter, transform, or build upon this work, you may
  distribute the resulting work only under the same or similar license to this
  one.

See http://creativecommons.org/licenses/by-sa/3.0/ for more details. -->
<!DOCTYPE svg PUBLIC "-//W3C//DTD SVG 1.0//EN" "http://www.w3.org/TR/2001/REC-SVG-20010904/DTD/svg10.dtd">
<svg xmlns="http://www.w3.org/2000/svg" width="109" height="109" viewBox="0 0 109 109">
	<g id="HelperGrid" style="opacity:0.75;">
		<rect x="0.5" y="0.5" style="fill:none;stroke:#404040;" width="108" height="108"/> 
		<line style="fill:none;stroke:#404040;" x1="0.5" y1="72.51" x2="108.5" y2="72.51"/>
		<line style="fill:none;stroke:#404040;" x1="0.5" y1="36.49" x2="108.5" y2="36.49"/>
		<line style="fill:none;stroke:#404040;" x1="72.5" y1="0.5" x2="72.5" y2="108.5"/>
		<line style="fill:none;stroke:#404040;" x1="36.5" y1="0.5" x2="36.5" y2="108.5"/>
	</g>
	<g id="Kanji">
		<text transform="matrix(1 0 0 1 0.5 93.3799)" style="font-size:108;">彰</text>
	</g>
	<g id="StrokeNumbers" style="font-size:8;fill:#808080">
		<text transform="matrix(1 0 0 1 26.5 11.5)">1</text>
		<text transform="matrix(1 0 0 1 13.5 25.5)">2</text>
		<text transform="matrix(1 0 0 1 23.25 34.479)">3</text>
		<text transform="matrix(1 0 0 1 38.25 31.6299)">4</text>
		<text transform="matrix(1 0 0 1 8.5 44.5)">5</text>
		<text transform="matrix(1 0 0 1 15.5 59.5)">6</text>
		<text transform="matrix(1 0 0 1 24.5 49.5)">7</text>
		<text transform="matrix(1 0 0 1 28.5 57.5)">8</text>
		<text transform="matrix(1 0 0 1 29.5 65.5)">9</text>
		<text transform="matrix(1 0 0 1 4.5 83.5)">10</text>
		<text transform="matrix(1 0 0 1 29.5 74.5)">11</text>
		<text transform="matrix(1 0 0 1 74.5 18.5)">12</text>
		<text transform="matrix(1 0 0 1 76.5 40.5)">13</text>
		<text transform="matrix(1 0 0 1 81.5 64.5)">14</text>
	</g>
	<g id="StrokePaths" style="fill:none;stroke:#404040;stroke-width:3;stroke-linecap:round;stroke-linejoin:round;">
		<path d="M36,10.5c0.88,0.88,1.25,2,1.25,3.75s0,3.25,0,8"/>
		<path d="M20.75,24.66c1.62,0.61,3.73,0.3,5.39,0.16c6.47-0.55,14.47-1.82,22.73-3.34c1.39-0.26,2.86-0.58,4.26-0.17"/>
		<path d="M27.88,28.38c2.8,3.35,4.32,6.94,4.58,9.15"/>
		<path d="M47.17,24.93c0.38,0.38,0.42,1.32,0.38,1.63c-0.3,2.14-3.09,8.07-3.84,9.71"/>
		<path d="M15.14,42.17c2.36,0.46,4.52,0.22,6.24-0.03c9.15-1.34,22.07-3.73,30.75-4.5c2-0.18,3.87-0.27,5.98,0.15"/>
		<path d="M21.51,50.95c0.76,0.76,1.62,2.24,1.81,3.31C24,58,24.8,61.18,25.5,65.53c0.25,1.57,0.49,3.04,0.69,4.24"/>
		<path d="M23.27,51.77c8.23-1.64,17.36-3.14,25.6-4.28c4.05-0.56,5.43,0.86,4.74,5.02c-0.32,1.9-1.12,5-2.39,9.36c-0.4,1.35-0.97,2.52-1.53,4.2"/>
		<path d="M25.28,59.4c6.35-0.91,20.27-3.05,26.33-3.31"/>
		<path d="M27.15,67.52c8.85-1.4,16.73-2.4,21.98-2.64"/>
		<path d="M15.3,81.2c2.19,0.69,4.53,0.5,6.71,0.1c9.11-1.67,20.3-3.58,28.49-4.5c2.04-0.23,3.92-0.35,5.94,0.03"/>
		<path d="M36.96,69.25c1.02,1.02,1.35,2.25,1.35,3.76c0,2.62-0.03,13.75-0.05,20.74c-0.01,2.67-0.01,4.74-0.01,5.5"/>
		<path d="M86.81,18.75c-0.31,1.25-0.8,1.99-1.72,2.78C80.75,25.25,75.5,29,64.47,33.41"/>
		<path d="M88.03,39.86c-0.16,1.14-0.44,2.35-1.07,3.27c-3.83,5.61-10.58,12.11-22.27,18.29"/>
		<path d="M93.31,64.75c-0.18,1.25-0.44,2.3-1.15,3.31C87.5,74.75,79.25,83.75,62.07,93.5"/>
	</g>
</svg>
