<?xml version="1.0" encoding="UTF-8"?>
<!DOCTYPE svg PUBLIC "-//W3C//DTD SVG 1.0//EN" "http://www.w3.org/TR/2001/REC-SVG-20010904/DTD/svg10.dtd">
<svg xmlns="http://www.w3.org/2000/svg" width="109" height="109" viewBox="0 0 109 109">
	<g id="HelperGrid" style="opacity:0.75;">
		<rect x="0.5" y="0.5" style="fill:none;stroke:#404040;" width="108" height="108"/> 
		<line style="fill:none;stroke:#404040;" x1="0.5" y1="72.51" x2="108.5" y2="72.51"/>
		<line style="fill:none;stroke:#404040;" x1="0.5" y1="36.49" x2="108.5" y2="36.49"/>
		<line style="fill:none;stroke:#404040;" x1="72.5" y1="0.5" x2="72.5" y2="108.5"/>
		<line style="fill:none;stroke:#404040;" x1="36.5" y1="0.5" x2="36.5" y2="108.5"/>
	</g>
	<g id="Kanji">
		<text transform="matrix(1 0 0 1 0.5 93.3799)" style="font-size:108;">徃</text>
	</g>
	<g id="StrokeNumbers" style="font-size:8;fill:#808080">
		<text transform="matrix(1 0 0 1 26.5 15.5)">1</text>
		<text transform="matrix(1 0 0 1 30.5 35.5)">2</text>
		<text transform="matrix(1 0 0 1 20.5 69.5)">3</text>
		<text transform="matrix(1 0 0 1 44.5 27.5)">4</text>
		<text transform="matrix(1 0 0 1 53.5 41.5)">5</text>
		<text transform="matrix(1 0 0 1 56.25 13.5)">6</text>
		<text transform="matrix(1 0 0 1 42.5 67.5)">7</text>
		<text transform="matrix(1 0 0 1 36.5 90.5)">8</text>
	</g>
	<g id="StrokePaths" style="fill:none;stroke:#404040;stroke-width:3;stroke-linecap:round;stroke-linejoin:round;">
		<path d="M34.09,16.25c0.05,0.52,0.27,1.44-0.11,2.08c-2.68,4.5-10.75,15.33-18.61,19.92"/>
		<path d="M38.84,33.75c0.07,0.75,0.33,2.1-0.14,3.03c-3.32,6.54-12.04,17.91-24.2,28.97"/>
		<path d="M27.72,56c0.36,0.25,0.57,1.15,0.65,1.66c0.07,0.51,0,36.65-0.07,39.84"/>
		<path d="M52.88,25.59c0.04,0.73,0.19,1.9-0.08,2.92c-1.8,6.99-6.3,17.24-14.22,27.9"/>
		<path d="M50.3,44.53c1,0.6,2.82,0.72,3.82,0.6c7.19-0.86,26.5-4.91,32.7-5.83c1.65-0.25,2.34-0.14,3.22-0.04"/>
		<path d="M64.99,14.88c0.8,0.55,2.15,1.87,2.15,5.24c0,1.12-0.1,64.75-0.26,71.65"/>
		<path d="M49.55,66.98c0.86,0.35,2.44,0.42,3.3,0.35c6.2-0.5,25.9-3.61,31.25-4.15c1.43-0.14,2.02-0.08,2.78-0.02"/>
		<path d="M38.75,94.3c1.17,0.44,3.33,1.06,4.5,0.94C54.5,94,78.75,91.5,90.96,91.56c1.95,0.01,3.59,0.36,5.39,1.42"/>
	</g>
</svg>
