<?xml version="1.0" encoding="UTF-8"?>
<!-- Copyright (C) 2009 Ulrich Apel.
This work is distributed under the conditions of the Creative Commons
Attribution-Share Alike 3.0 Licence. This means you are free:
* to Share - to copy, distribute and transmit the work
* to Remix - to adapt the work

Under the following conditions:
* Attribution. You must attribute the work by stating your use of KanjiVG in
  your own copyright header and linking to KanjiVG's website
  (http://kanjivg.tagaini.net)
* Share Alike. If you alter, transform, or build upon this work, you may
  distribute the resulting work only under the same or similar license to this
  one.

See http://creativecommons.org/licenses/by-sa/3.0/ for more details. -->
<!DOCTYPE svg PUBLIC "-//W3C//DTD SVG 1.0//EN" "http://www.w3.org/TR/2001/REC-SVG-20010904/DTD/svg10.dtd">
<svg xmlns="http://www.w3.org/2000/svg" width="109" height="109" viewBox="0 0 109 109">
	<g id="HelperGrid" style="opacity:0.75;">
		<rect x="0.5" y="0.5" style="fill:none;stroke:#404040;" width="108" height="108"/> 
		<line style="fill:none;stroke:#404040;" x1="0.5" y1="72.51" x2="108.5" y2="72.51"/>
		<line style="fill:none;stroke:#404040;" x1="0.5" y1="36.49" x2="108.5" y2="36.49"/>
		<line style="fill:none;stroke:#404040;" x1="72.5" y1="0.5" x2="72.5" y2="108.5"/>
		<line style="fill:none;stroke:#404040;" x1="36.5" y1="0.5" x2="36.5" y2="108.5"/>
	</g>
	<g id="Kanji">
		<text transform="matrix(1 0 0 1 0.5 93.3799)" style="font-size:108;">徇</text>
	</g>
	<g id="StrokeNumbers" style="font-size:8;fill:#808080">
		<text transform="matrix(1 0 0 1 27.25 15.6299)">1</text>
		<text transform="matrix(1 0 0 1 28.5 34.5)">2</text>
		<text transform="matrix(1 0 0 1 20.5 66.5)">3</text>
		<text transform="matrix(1 0 0 1 47.5 14.5)">4</text>
		<text transform="matrix(1 0 0 1 60.5 26.5)">5</text>
		<text transform="matrix(1 0 0 1 45.5 52.2549)">6</text>
		<text transform="matrix(1 0 0 1 55.25 41.5)">7</text>
		<text transform="matrix(1 0 0 1 57.25 56.1035)">8</text>
		<text transform="matrix(1 0 0 1 57.5 73.5)">9</text>
	</g>
	<g id="StrokePaths" style="fill:none;stroke:#404040;stroke-width:3;stroke-linecap:round;stroke-linejoin:round;">
		<path d="M34.57,15.75c0.06,0.45,0.3,1.26-0.12,1.82C31.49,21.51,22.56,30.99,13.87,35"/>
		<path d="M36.35,32.75c0.06,0.72,0.32,2-0.13,2.89c-3.15,6.24-11.84,18.72-22.97,27.61"/>
		<path d="M27.22,52.5c0.36,0.25,1.07,1.65,1.15,2.16c0.07,0.51,0,38.65-0.07,41.84"/>
		<path d="M56.57,14.75c0.05,0.8,0.11,2.07-0.1,3.22c-1.23,6.79-8.3,21.7-17.97,30.83"/>
		<path d="M54.84,29.71c1.66,0.54,3.68,0.74,5.22,0.49c7.44-1.2,27.36-4.66,31.08-4.91c3.72-0.25,4.35,0.71,4.35,4.21c0,8.83-2.75,41.75-8.36,60.78c-2.72,9.21-6.76,0.85-8.96-2.23"/>
		<path d="M52.19,43.82c0.28,0.86,0.55,1.29,0.55,2.43c0,1.14-0.09,34.27,0,35.42"/>
		<path d="M53.2,45.11c1.56-0.14,17.29-2.98,18.71-3.15c1.18-0.14,1.94,1.59,1.85,2.43c-0.19,1.72-0.37,34.2-0.37,35.06"/>
		<path d="M52.97,60.16c2.11,0,17.9-2.07,20.28-2.07"/>
		<path d="M53.87,77.46c4.29-0.62,14.03-1.66,19.37-2.19"/>
	</g>
</svg>
