<?xml version="1.0" encoding="UTF-8"?>
<!-- Copyright (C) 2009 Ulrich Apel.
This work is distributed under the conditions of the Creative Commons
Attribution-Share Alike 3.0 Licence. This means you are free:
* to Share - to copy, distribute and transmit the work
* to Remix - to adapt the work

Under the following conditions:
* Attribution. You must attribute the work by stating your use of KanjiVG in
  your own copyright header and linking to KanjiVG's website
  (http://kanjivg.tagaini.net)
* Share Alike. If you alter, transform, or build upon this work, you may
  distribute the resulting work only under the same or similar license to this
  one.

See http://creativecommons.org/licenses/by-sa/3.0/ for more details. -->
<!DOCTYPE svg PUBLIC "-//W3C//DTD SVG 1.0//EN" "http://www.w3.org/TR/2001/REC-SVG-20010904/DTD/svg10.dtd">
<svg xmlns="http://www.w3.org/2000/svg" width="109" height="109" viewBox="0 0 109 109">
	<g id="HelperGrid" style="opacity:0.75;">
		<rect x="0.5" y="0.5" style="fill:none;stroke:#404040;" width="108" height="108"/> 
		<line style="fill:none;stroke:#404040;" x1="0.5" y1="72.51" x2="108.5" y2="72.51"/>
		<line style="fill:none;stroke:#404040;" x1="0.5" y1="36.49" x2="108.5" y2="36.49"/>
		<line style="fill:none;stroke:#404040;" x1="72.5" y1="0.5" x2="72.5" y2="108.5"/>
		<line style="fill:none;stroke:#404040;" x1="36.5" y1="0.5" x2="36.5" y2="108.5"/>
	</g>
	<g id="Kanji">
		<text transform="matrix(1 0 0 1 0.5 93.3799)" style="font-size:108;">復</text>
	</g>
	<g id="StrokeNumbers" style="font-size:8;fill:#808080">
		<text transform="matrix(1 0 0 1 27.75 12.5)">1</text>
		<text transform="matrix(1 0 0 1 27.75 36.5)">2</text>
		<text transform="matrix(1 0 0 1 23.25 68.9785)">3</text>
		<text transform="matrix(1 0 0 1 48.5 13.5)">4</text>
		<text transform="matrix(1 0 0 1 61.5 18.5)">5</text>
		<text transform="matrix(1 0 0 1 47.25 43.5547)">6</text>
		<text transform="matrix(1 0 0 1 56.5 32.5)">7</text>
		<text transform="matrix(1 0 0 1 60.5 42.5)">8</text>
		<text transform="matrix(1 0 0 1 60.4932 51.5)">9</text>
		<text transform="matrix(1 0 0 1 48.5 65.9043)">10</text>
		<text transform="matrix(1 0 0 1 62.5 62.5)">11</text>
		<text transform="matrix(1 0 0 1 52.1997 83.7549)">12</text>
	</g>
	<g id="StrokePaths" style="fill:none;stroke:#404040;stroke-width:3;stroke-linecap:round;stroke-linejoin:round;">
		<path d="M35.08,13.75c0.06,0.48,0.27,1.33-0.11,1.92C32.26,19.81,24.08,29.78,16.12,34"/>
		<path d="M36.34,34.25c0.07,0.75,0.33,2.1-0.14,3.03C32.89,43.82,24.17,55.19,12,66.25"/>
		<path d="M28.72,52c0.36,0.25,0.57,1.15,0.65,1.66c0.07,0.51,0,40.65-0.07,43.84"/>
		<path d="M56.36,12.5c0.03,0.49,0.12,1.41-0.06,1.97c-2.22,6.91-5.5,13.25-11.29,18.83"/>
		<path d="M56.25,21.97c0.69,0.28,1.94,0.35,2.63,0.28c4.37-0.48,20.62-2.75,27.47-3.83c1.13-0.18,1.51-0.06,2.42-0.03"/>
		<path d="M53.77,33.9c0.39,0.53,0.78,0.79,0.78,1.5c0,0.71,2.24,18.93,2.24,19.28c0,0.35,0.13,0.35,0.26,1.06"/>
		<path d="M55.69,35.49c4.06-0.74,24.41-4.14,26.42-4.25c1.67-0.09,2.74,1.98,2.61,2.5c-0.26,1.06-3.02,20.11-3.02,20.64"/>
		<path d="M56.08,44.56c4.63-0.71,9.29-1.3,13.94-1.88c1.3-0.16,2.59-0.32,3.84-0.47"/>
		<path d="M57.94,53.76c6.06-0.38,15.31-1.39,22.85-1.72"/>
		<path d="M59.33,61.25c0.04,0.46,0.09,1.18-0.09,1.84c-1.05,3.88-7.09,12.38-15.36,17.58"/>
		<path d="M61.72,65.98c0.25,0.03,1.84,0,2.57-0.08c2.39-0.26,9.32-2.73,12.73-3.53c2.34-0.55,3.01,0.63,2.41,2.13C76.15,72.7,59.62,92.77,45,97"/>
		<path d="M55.4,74.06c5.01,3.61,27.74,17.34,34.49,20.64c2.02,0.99,3.65,1.46,5.61,1.76"/>
	</g>
</svg>
