<?xml version="1.0" encoding="UTF-8"?>
<!DOCTYPE svg PUBLIC "-//W3C//DTD SVG 1.0//EN" "http://www.w3.org/TR/2001/REC-SVG-20010904/DTD/svg10.dtd">
<svg xmlns="http://www.w3.org/2000/svg" width="109" height="109" viewBox="0 0 109 109">
	<g id="HelperGrid" style="opacity:0.75;">
		<rect x="0.5" y="0.5" style="fill:none;stroke:#404040;" width="108" height="108"/> 
		<line style="fill:none;stroke:#404040;" x1="0.5" y1="72.51" x2="108.5" y2="72.51"/>
		<line style="fill:none;stroke:#404040;" x1="0.5" y1="36.49" x2="108.5" y2="36.49"/>
		<line style="fill:none;stroke:#404040;" x1="72.5" y1="0.5" x2="72.5" y2="108.5"/>
		<line style="fill:none;stroke:#404040;" x1="36.5" y1="0.5" x2="36.5" y2="108.5"/>
	</g>
	<g id="Kanji">
		<text transform="matrix(1 0 0 1 0.5 93.3799)" style="font-size:108;">循</text>
	</g>
	<g id="StrokeNumbers" style="font-size:8;fill:#808080">
		<text transform="matrix(1 0 0 1 24.75 12.1299)">1</text>
		<text transform="matrix(1 0 0 1 23.5 35.5)">2</text>
		<text transform="matrix(1 0 0 1 20.25 68.9785)">3</text>
		<text transform="matrix(1 0 0 1 73.5 11.5)">4</text>
		<text transform="matrix(1 0 0 1 39.75 34.5)">5</text>
		<text transform="matrix(1 0 0 1 52.5 36.1299)">6</text>
		<text transform="matrix(1 0 0 1 60.5 32.5)">7</text>
		<text transform="matrix(1 0 0 1 51.5 60.5)">8</text>
		<text transform="matrix(1 0 0 1 57.75 49.6299)">9</text>
		<text transform="matrix(1 0 0 1 60.75 62.5)">10</text>
		<text transform="matrix(1 0 0 1 60.75 76.4785)">11</text>
		<text transform="matrix(1 0 0 1 60.75 90.5)">12</text>
	</g>
	<g id="StrokePaths" style="fill:none;stroke:#404040;stroke-width:3;stroke-linecap:round;stroke-linejoin:round;">
		<path d="M32.08,12.25c0.06,0.44,0.28,1.23-0.11,1.77C29.18,17.86,20.79,27.09,12.62,31"/>
		<path d="M32.37,34.75c0.06,0.75,0.27,2.1-0.11,3.03c-2.71,6.54-10.18,19.64-19.75,28.97"/>
		<path d="M25.72,52.5c0.36,0.25,1.07,1.65,1.15,2.16c0.07,0.51,0,41.65-0.07,44.84"/>
		<path d="M82.02,12.75c0.09,0.34,0.34,0.97-0.17,1.35c-6.33,4.76-16.53,9.6-33.03,13.44"/>
		<path d="M46.78,26.75c0.38,1,0.94,3.23,0.94,5.49c0,20.63,0.94,44.63-11.52,60.98"/>
		<path d="M50.81,39.33c1.01,0.43,2.85,0.54,3.85,0.43c12.78-1.4,28.26-4.28,37.07-4.45c1.67-0.03,2.68,0.21,3.52,0.42"/>
		<path d="M68,26.38c0.5,0.48,1.56,2.09,1.66,3.05c0.1,0.96-0.48,15.46-0.58,21.45"/>
		<path d="M56.45,51.3c0.48,1.02,1.18,1.78,1.18,3.14s-0.32,42.23-0.32,42.91"/>
		<path d="M57.48,53.16c2.71-0.17,23.83-3.71,26.29-3.92c2.05-0.17,3.5,0.81,3.5,3.81c0,1.62,0.07,42.85-0.09,43.86"/>
		<path d="M58.38,65.47c4.81-0.49,9.63-0.92,14.45-1.33c1.36-0.11,2.71-0.22,4-0.32"/>
		<path d="M58.17,79.16c4.85-0.26,9.69-0.68,14.53-1.07c1.32-0.11,2.65-0.21,3.94-0.31"/>
		<path d="M57.72,93.9c6.33-0.41,22.23-1.52,29.19-1.52"/>
	</g>
</svg>
