<?xml version="1.0" encoding="UTF-8"?>
<!-- Copyright (C) 2009 Ulrich Apel.
This work is distributed under the conditions of the Creative Commons
Attribution-Share Alike 3.0 Licence. This means you are free:
* to Share - to copy, distribute and transmit the work
* to Remix - to adapt the work

Under the following conditions:
* Attribution. You must attribute the work by stating your use of KanjiVG in
  your own copyright header and linking to KanjiVG's website
  (http://kanjivg.tagaini.net)
* Share Alike. If you alter, transform, or build upon this work, you may
  distribute the resulting work only under the same or similar license to this
  one.

See http://creativecommons.org/licenses/by-sa/3.0/ for more details. -->
<!DOCTYPE svg PUBLIC "-//W3C//DTD SVG 1.0//EN" "http://www.w3.org/TR/2001/REC-SVG-20010904/DTD/svg10.dtd">
<svg xmlns="http://www.w3.org/2000/svg" width="109" height="109" viewBox="0 0 109 109">
	<g id="HelperGrid" style="opacity:0.75;">
		<rect x="0.5" y="0.5" style="fill:none;stroke:#404040;" width="108" height="108"/> 
		<line style="fill:none;stroke:#404040;" x1="0.5" y1="72.51" x2="108.5" y2="72.51"/>
		<line style="fill:none;stroke:#404040;" x1="0.5" y1="36.49" x2="108.5" y2="36.49"/>
		<line style="fill:none;stroke:#404040;" x1="72.5" y1="0.5" x2="72.5" y2="108.5"/>
		<line style="fill:none;stroke:#404040;" x1="36.5" y1="0.5" x2="36.5" y2="108.5"/>
	</g>
	<g id="Kanji">
		<text transform="matrix(1 0 0 1 0.5 93.3799)" style="font-size:108;">忝</text>
	</g>
	<g id="StrokeNumbers" style="font-size:8;fill:#808080">
		<text transform="matrix(1 0 0 1 58.5 11.5)">1</text>
		<text transform="matrix(1 0 0 1 6.5 41.5)">2</text>
		<text transform="matrix(1 0 0 1 42.25 32.479)">3</text>
		<text transform="matrix(1 0 0 1 67.5 46.4043)">4</text>
		<text transform="matrix(1 0 0 1 39.5 62.5)">5</text>
		<text transform="matrix(1 0 0 1 27.5 73.2549)">6</text>
		<text transform="matrix(1 0 0 1 55.5 72.5)">7</text>
		<text transform="matrix(1 0 0 1 65.5 70.5)">8</text>
	</g>
	<g id="StrokePaths" style="fill:none;stroke:#404040;stroke-width:3;stroke-linecap:round;stroke-linejoin:round;">
		<path d="M67.94,12.14c0.13,0.37,0.24,0.93-0.24,1.48c-4.07,4.66-20.35,11.62-43.39,14.14"/>
		<path d="M13.88,41.2c1.01,0.39,3.6,0.6,4.71,0.54c12.9-0.64,50.47-4.87,66.65-5.03c1.4-0.01,3.39,0.15,6.52,0.82"/>
		<path d="M50.6,25.44c0.4,1.31,0.45,2.54-0.11,3.84C41.75,49.5,31.75,61.5,12.25,74"/>
		<path d="M55,39.02c8.42,7.09,26.68,23.8,35.09,28.55c2.86,1.61,3.86,1.85,5.16,2.01"/>
		<path d="M47.49,57.33c0.88,0.82,1.5,1.78,1.57,4.5c0.36,13.04-0.23,23.71-0.23,28.15c0,9.31-6.46,1.34-7.8,0.22"/>
		<path d="M32.5,74.75c0,5.16-6.34,12.78-8,14.25"/>
		<path d="M60.12,72.83c2.18,2.67,5.64,10.98,6.18,15.13"/>
		<path d="M72.27,70.08c3.1,2.98,8.02,12.25,8.79,16.88"/>
	</g>
</svg>
