<?xml version="1.0" encoding="UTF-8"?>
<!-- Copyright (C) 2009 Ulrich Apel.
This work is distributed under the conditions of the Creative Commons
Attribution-Share Alike 3.0 Licence. This means you are free:
* to Share - to copy, distribute and transmit the work
* to Remix - to adapt the work

Under the following conditions:
* Attribution. You must attribute the work by stating your use of KanjiVG in
  your own copyright header and linking to KanjiVG's website
  (http://kanjivg.tagaini.net)
* Share Alike. If you alter, transform, or build upon this work, you may
  distribute the resulting work only under the same or similar license to this
  one.

See http://creativecommons.org/licenses/by-sa/3.0/ for more details. -->
<!DOCTYPE svg PUBLIC "-//W3C//DTD SVG 1.0//EN" "http://www.w3.org/TR/2001/REC-SVG-20010904/DTD/svg10.dtd">
<svg xmlns="http://www.w3.org/2000/svg" width="109" height="109" viewBox="0 0 109 109">
	<g id="HelperGrid" style="opacity:0.75;">
		<rect x="0.5" y="0.5" style="fill:none;stroke:#404040;" width="108" height="108"/> 
		<line style="fill:none;stroke:#404040;" x1="0.5" y1="72.51" x2="108.5" y2="72.51"/>
		<line style="fill:none;stroke:#404040;" x1="0.5" y1="36.49" x2="108.5" y2="36.49"/>
		<line style="fill:none;stroke:#404040;" x1="72.5" y1="0.5" x2="72.5" y2="108.5"/>
		<line style="fill:none;stroke:#404040;" x1="36.5" y1="0.5" x2="36.5" y2="108.5"/>
	</g>
	<g id="Kanji">
		<text transform="matrix(1 0 0 1 0.5 93.3799)" style="font-size:108;">怨</text>
	</g>
	<g id="StrokeNumbers" style="font-size:8;fill:#808080">
		<text transform="matrix(1 0 0 1 25.5 11.5)">1</text>
		<text transform="matrix(1 0 0 1 40.5 18.5)">2</text>
		<text transform="matrix(1 0 0 1 31.5 34.5)">3</text>
		<text transform="matrix(1 0 0 1 64.5 16.5)">4</text>
		<text transform="matrix(1 0 0 1 56.25 32.5)">5</text>
		<text transform="matrix(1 0 0 1 16.5 76.5)">6</text>
		<text transform="matrix(1 0 0 1 28.5 70.5)">7</text>
		<text transform="matrix(1 0 0 1 45.5 69.5)">8</text>
		<text transform="matrix(1 0 0 1 67.5 67.5)">9</text>
	</g>
	<g id="StrokePaths" style="fill:none;stroke:#404040;stroke-width:3;stroke-linecap:round;stroke-linejoin:round;">
		<path d="M34.23,13.14c0,1.16-0.17,2.28-0.63,3.31c-3.1,7.04-8.76,16.5-17.26,25.22"/>
		<path d="M34.8,21.87c1.3,0.03,2.58-0.11,3.84-0.42c2.39-0.51,5.79-0.93,8.77-1.52c3.57-0.7,4.87,0.3,3.53,3.89C46.59,35.52,29.4,60.56,14.75,66"/>
		<path d="M27.12,34.12c2.38,1.5,6.62,4.88,9,8.75"/>
		<path d="M59.49,19.73c1.91,0.39,3.78,0.38,5.63-0.03c5.52-1,14.02-2.84,17.28-3.67c2.6-0.66,4.36,0.98,3.97,4.04c-0.74,5.68-2.58,12.56-5.61,18.73c-2.21,4.5-4.18,0.54-4.61,0.32"/>
		<path d="M61.24,20.73c0.89,0.9,1.26,2.4,1.23,4.04c-0.09,5.77-0.11,10.73-0.05,17.81c0.09,11.93,1.84,13.13,15.82,13.13c14.52,0,16.41-1.07,16.41-10.39"/>
		<path d="M22.4,76.32c0.29,2.25-2.95,12.17-5.32,15.92"/>
		<path d="M34.08,71.68C44,90.75,55,97,80.06,96.75c13.29-0.13,14.16-3.56,3.07-9.62"/>
		<path d="M52.91,68.75c1.98,4.87,4.85,9.74,6.97,2.28"/>
		<path d="M75.63,66.73c5.31,1.67,9.29,3.19,13.6,8.36"/>
	</g>
</svg>
