<?xml version="1.0" encoding="UTF-8"?>
<!DOCTYPE svg PUBLIC "-//W3C//DTD SVG 1.0//EN" "http://www.w3.org/TR/2001/REC-SVG-20010904/DTD/svg10.dtd">
<svg xmlns="http://www.w3.org/2000/svg" width="109" height="109" viewBox="0 0 109 109">
	<g id="HelperGrid" style="opacity:0.75;">
		<rect x="0.5" y="0.5" style="fill:none;stroke:#404040;" width="108" height="108"/> 
		<line style="fill:none;stroke:#404040;" x1="0.5" y1="72.51" x2="108.5" y2="72.51"/>
		<line style="fill:none;stroke:#404040;" x1="0.5" y1="36.49" x2="108.5" y2="36.49"/>
		<line style="fill:none;stroke:#404040;" x1="72.5" y1="0.5" x2="72.5" y2="108.5"/>
		<line style="fill:none;stroke:#404040;" x1="36.5" y1="0.5" x2="36.5" y2="108.5"/>
	</g>
	<g id="Kanji">
		<text transform="matrix(1 0 0 1 0.5 93.3799)" style="font-size:108;">恤</text>
	</g>
	<g id="StrokeNumbers" style="font-size:8;fill:#808080">
		<text transform="matrix(1 0 0 1 10.5 33.5)">1</text>
		<text transform="matrix(1 0 0 1 27.5 29.5)">2</text>
		<text transform="matrix(1 0 0 1 12.5 11.5)">3</text>
		<text transform="matrix(1 0 0 1 59.5 13.5)">4</text>
		<text transform="matrix(1 0 0 1 36.5 52.5)">5</text>
		<text transform="matrix(1 0 0 1 44.5 34.5)">6</text>
		<text transform="matrix(1 0 0 1 51 46.5)">7</text>
		<text transform="matrix(1 0 0 1 66.5 45.5)">8</text>
		<text transform="matrix(1 0 0 1 31.5 82.5)">9</text>
	</g>
	<g id="StrokePaths" style="fill:none;stroke:#404040;stroke-width:3;stroke-linecap:round;stroke-linejoin:round;">
		<path d="M15.72,33.75c0.02,4.38-1.94,14.35-3.69,17.75"/>
		<path d="M29.27,32.33c2.22,2.23,5.74,9.17,6.29,12.63"/>
		<path d="M21.37,12.25c1.09,0.5,1.74,2.25,1.96,3.25c0.22,1,0,74.75-0.22,81"/>
		<path d="M67.42,14.58c0.05,0.5,0.21,1.35-0.1,2.02c-2.2,4.78-8.46,13.54-17.15,19.3"/>
		<path d="M41.48,34.95c0.75,0.55,1.25,1.8,1.37,2.51c0.92,5.6,2.8,38.27,3.43,48.33"/>
		<path d="M43.69,37.47c9.77-1.16,40.73-3.65,44.27-3.69c3.04-0.03,4.54,0.72,4.38,3.04c-0.22,3.25-4.92,42.96-6.05,47.34"/>
		<path d="M57.21,37.9c0.23,0.53,1.03,1.47,1.06,2.14c0.48,10.62,0.96,35.78,1.5,45.27"/>
		<path d="M72.86,36.88c0.02,0.46,1.03,2.09,1.03,2.87c0.02,8.8-1.99,33.69-2.17,44.17"/>
		<path d="M32.88,86.46c1.09,0.38,3.08,0.44,4.16,0.38c11.29-0.63,38.25-2.15,59.04-2.25c1.81-0.01,2.89,0.18,3.8,0.37"/>
	</g>
</svg>
