<?xml version="1.0" encoding="UTF-8"?>
<!-- Copyright (C) 2009 Ulrich Apel.
This work is distributed under the conditions of the Creative Commons
Attribution-Share Alike 3.0 Licence. This means you are free:
* to Share - to copy, distribute and transmit the work
* to Remix - to adapt the work

Under the following conditions:
* Attribution. You must attribute the work by stating your use of KanjiVG in
  your own copyright header and linking to KanjiVG's website
  (http://kanjivg.tagaini.net)
* Share Alike. If you alter, transform, or build upon this work, you may
  distribute the resulting work only under the same or similar license to this
  one.

See http://creativecommons.org/licenses/by-sa/3.0/ for more details. -->
<!DOCTYPE svg PUBLIC "-//W3C//DTD SVG 1.0//EN" "http://www.w3.org/TR/2001/REC-SVG-20010904/DTD/svg10.dtd">
<svg xmlns="http://www.w3.org/2000/svg" width="109" height="109" viewBox="0 0 109 109">
	<g id="HelperGrid" style="opacity:0.75;">
		<rect x="0.5" y="0.5" style="fill:none;stroke:#404040;" width="108" height="108"/> 
		<line style="fill:none;stroke:#404040;" x1="0.5" y1="72.51" x2="108.5" y2="72.51"/>
		<line style="fill:none;stroke:#404040;" x1="0.5" y1="36.49" x2="108.5" y2="36.49"/>
		<line style="fill:none;stroke:#404040;" x1="72.5" y1="0.5" x2="72.5" y2="108.5"/>
		<line style="fill:none;stroke:#404040;" x1="36.5" y1="0.5" x2="36.5" y2="108.5"/>
	</g>
	<g id="Kanji">
		<text transform="matrix(1 0 0 1 0.5 93.3799)" style="font-size:108;">恩</text>
	</g>
	<g id="StrokeNumbers" style="font-size:8;fill:#808080">
		<text transform="matrix(1 0 0 1 25.5 25.5)">1</text>
		<text transform="matrix(1 0 0 1 34.5 14.5)">2</text>
		<text transform="matrix(1 0 0 1 37.5 30.1299)">3</text>
		<text transform="matrix(1 0 0 1 47.5 25.4053)">4</text>
		<text transform="matrix(1 0 0 1 61.5 39.5)">5</text>
		<text transform="matrix(1 0 0 1 47.5 55.5)">6</text>
		<text transform="matrix(1 0 0 1 15.75 76.6299)">7</text>
		<text transform="matrix(1 0 0 1 29.25 82.6299)">8</text>
		<text transform="matrix(1 0 0 1 45.75 72.1299)">9</text>
		<text transform="matrix(1 0 0 1 71.25 70.6299)">10</text>
	</g>
	<g id="StrokePaths" style="fill:none;stroke:#404040;stroke-width:3;stroke-linecap:round;stroke-linejoin:round;">
		<path d="M30.79,16.2c0.69,0.69,1.27,1.88,1.28,2.93c0.08,6.81,0.05,22.51,0.04,36.49c0,2.18,0,4.32,0,6.38"/>
		<path d="M33.19,17.99c11.32-0.83,31.67-3.25,41.57-3.67c3.5-0.15,4.93,0.94,4.93,4.06c0,8.25-0.48,22.68-0.55,36c-0.01,1.95-0.02,3.88-0.02,5.75"/>
		<path d="M39,33.61c1.27,0.24,2.61,0.03,3.88-0.05c6.99-0.44,16.75-2.25,24.12-2.88c1.62-0.14,3.21-0.18,4.84-0.18"/>
		<path d="M54.78,21.19c0.64,0.64,0.77,1.96,0.66,2.92c-1.19,11.01-5.94,22.64-15.12,30.27"/>
		<path d="M55.73,38.53c5.18,2.62,10.77,6.97,14.59,12.18"/>
		<path d="M33.26,59.35c13.62-0.98,32.43-2.41,44.86-2.64"/>
		<path d="M23.25,75.5c0.35,2.12-3.47,11.49-6.25,15.03"/>
		<path d="M31.94,70.1c7.31,13.4,14.81,25.52,45.81,25.4c9.38-0.04,9.62-3.12,3.5-7.5"/>
		<path d="M54.15,68.82c2.6,5.18,6.25,7.96,7.42,3.18"/>
		<path d="M83.96,68.51C87.5,71.5,91.25,76,94.75,81.97"/>
	</g>
</svg>
