<?xml version="1.0" encoding="UTF-8"?>
<!DOCTYPE svg PUBLIC "-//W3C//DTD SVG 1.0//EN" "http://www.w3.org/TR/2001/REC-SVG-20010904/DTD/svg10.dtd">
<svg xmlns="http://www.w3.org/2000/svg" width="109" height="109" viewBox="0 0 109 109">
	<g id="HelperGrid" style="opacity:0.75;">
		<rect x="0.5" y="0.5" style="fill:none;stroke:#404040;" width="108" height="108"/> 
		<line style="fill:none;stroke:#404040;" x1="0.5" y1="72.51" x2="108.5" y2="72.51"/>
		<line style="fill:none;stroke:#404040;" x1="0.5" y1="36.49" x2="108.5" y2="36.49"/>
		<line style="fill:none;stroke:#404040;" x1="72.5" y1="0.5" x2="72.5" y2="108.5"/>
		<line style="fill:none;stroke:#404040;" x1="36.5" y1="0.5" x2="36.5" y2="108.5"/>
	</g>
	<g id="Kanji">
		<text transform="matrix(1 0 0 1 0.5 93.3799)" style="font-size:108;">悼</text>
	</g>
	<g id="StrokeNumbers" style="font-size:8;fill:#808080">
		<text transform="matrix(1 0 0 1 10.5 33.5)">1</text>
		<text transform="matrix(1 0 0 1 30.5 29.5)">2</text>
		<text transform="matrix(1 0 0 1 15.5 13.6299)">3</text>
		<text transform="matrix(1 0 0 1 55.5 13.5)">4</text>
		<text transform="matrix(1 0 0 1 70.5 18.1299)">5</text>
		<text transform="matrix(1 0 0 1 42.75 50.5)">6</text>
		<text transform="matrix(1 0 0 1 50.25 33.1299)">7</text>
		<text transform="matrix(1 0 0 1 54.5 44.5)">8</text>
		<text transform="matrix(1 0 0 1 55.5 55.4785)">9</text>
		<text transform="matrix(1 0 0 1 35.5 72.5)">10</text>
		<text transform="matrix(1 0 0 1 57.5 67.6299)">11</text>
	</g>
	<g id="StrokePaths" style="fill:none;stroke:#404040;stroke-width:3;stroke-linecap:round;stroke-linejoin:round;">
		<path d="M15.75,34.25c0,6.61-2.97,16.36-3.75,18.25"/>
		<path d="M33.27,32.08c2.75,2.01,7.11,8.26,7.79,11.38"/>
		<path d="M24.37,13.75c1.09,0.5,1.74,2.25,1.96,3.25c0.22,1,0,76.25-0.22,82.5"/>
		<path d="M63.31,12.38c0.76,0.33,2.36,2.46,2.51,3.12c0.15,0.66,0.4,14.53,0.25,18.63"/>
		<path d="M66.25,23c2,0,11.67-1.86,17.5-2.77C85.83,19.9,86.75,20.08,88,20"/>
		<path d="M46.66,35.17c0.69,1.17,1.6,1.54,1.82,3.11c0.6,4.28,2.7,19.63,2.73,23.22"/>
		<path d="M49.36,36.61c3.89-0.19,34.04-4.36,37.55-3.87c1.39,0.19,2.73,1.73,2.2,3.69c-1,3.69-3.09,15.05-4.92,21.66"/>
		<path d="M50.14,47.31c6.17-0.4,12.34-1.01,18.51-1.52c1.89-0.16,3.77-0.31,5.58-0.45"/>
		<path d="M51.88,58.86c9.56-0.74,27.05-2.33,31.91-2.33"/>
		<path d="M36.88,75.71c1.19,0.46,3.38,0.58,4.57,0.46c10.31-1.09,45.32-4.46,55.01-4.42c1.99,0.01,3.18,0.22,4.17,0.45"/>
		<path d="M66.73,60.75c0.44,0.55,1.38,4.13,1.47,5.24c0.09,1.1-0.06,26.12-0.15,33.01"/>
	</g>
</svg>
