<?xml version="1.0" encoding="UTF-8"?>
<!-- Copyright (C) 2009 Ulrich Apel.
This work is distributed under the conditions of the Creative Commons
Attribution-Share Alike 3.0 Licence. This means you are free:
* to Share - to copy, distribute and transmit the work
* to Remix - to adapt the work

Under the following conditions:
* Attribution. You must attribute the work by stating your use of KanjiVG in
  your own copyright header and linking to KanjiVG's website
  (http://kanjivg.tagaini.net)
* Share Alike. If you alter, transform, or build upon this work, you may
  distribute the resulting work only under the same or similar license to this
  one.

See http://creativecommons.org/licenses/by-sa/3.0/ for more details. -->
<!DOCTYPE svg PUBLIC "-//W3C//DTD SVG 1.0//EN" "http://www.w3.org/TR/2001/REC-SVG-20010904/DTD/svg10.dtd">
<svg xmlns="http://www.w3.org/2000/svg" width="109" height="109" viewBox="0 0 109 109">
	<g id="HelperGrid" style="opacity:0.75;">
		<rect x="0.5" y="0.5" style="fill:none;stroke:#404040;" width="108" height="108"/> 
		<line style="fill:none;stroke:#404040;" x1="0.5" y1="72.51" x2="108.5" y2="72.51"/>
		<line style="fill:none;stroke:#404040;" x1="0.5" y1="36.49" x2="108.5" y2="36.49"/>
		<line style="fill:none;stroke:#404040;" x1="72.5" y1="0.5" x2="72.5" y2="108.5"/>
		<line style="fill:none;stroke:#404040;" x1="36.5" y1="0.5" x2="36.5" y2="108.5"/>
	</g>
	<g id="Kanji">
		<text transform="matrix(1 0 0 1 0.5 93.3799)" style="font-size:108;">惑</text>
	</g>
	<g id="StrokeNumbers" style="font-size:8;fill:#808080">
		<text transform="matrix(1 0 0 1 9.25 26.6963)">1</text>
		<text transform="matrix(1 0 0 1 15.25 45.6963)">2</text>
		<text transform="matrix(1 0 0 1 24.5 36.6963)">3</text>
		<text transform="matrix(1 0 0 1 28.25 47.6963)">4</text>
		<text transform="matrix(1 0 0 1 12.25 69.6963)">5</text>
		<text transform="matrix(1 0 0 1 40.25 10.6963)">6</text>
		<text transform="matrix(1 0 0 1 81.5 36.3262)">7</text>
		<text transform="matrix(1 0 0 1 58.25 6.6963)">8</text>
		<text transform="matrix(1 0 0 1 17.25 81.6963)">9</text>
		<text transform="matrix(1 0 0 1 29.25 88.6963)">10</text>
		<text transform="matrix(1 0 0 1 46.25 73.6963)">11</text>
		<text transform="matrix(1 0 0 1 72.25 73.6963)">12</text>
	</g>
	<g id="StrokePaths" style="fill:none;stroke:#404040;stroke-width:3;stroke-linecap:round;stroke-linejoin:round;">
		<path d="M15.43,26.92c3.03,0.93,6.75,0.54,9.83,0.11c11.72-1.66,31.86-4.96,46.05-6.19c3.3-0.29,6.78-0.54,10.04,0.06"/>
		<path d="M21.56,38.93c0.87,0.52,1.19,1.39,1.59,2.6c0.74,2.25,1.11,4.95,1.77,7.88c0.26,1.15,0.51,2.27,0.75,3.28"/>
		<path d="M23.98,40.37c7.09-1.58,12.73-2.78,17.9-3.5c3.91-0.54,5.62,0.95,4.53,4.13c-0.75,2.18-1.21,3.66-2.29,6.98"/>
		<path d="M26.4,51.17c3.95-0.31,9.91-1.13,15.57-1.73c1.24-0.13,2.46-0.25,3.65-0.36"/>
		<path d="M19.75,65.87c0.76,0.84,2.28,1.26,4.57,0.18c7.43-3.48,16.05-7.61,23.63-11.09"/>
		<path d="M48.82,10.38c1.76,1.26,2.47,2.91,3.06,4.94c5.15,17.85,14.5,35.13,29.63,45.38c10.18,6.9,9.5,2.75,6.4-6.68"/>
		<path d="M75.39,30.4c0.06,0.66,0.12,1.7-0.12,2.64c-1.44,5.57-9.68,18.41-20.97,25.89"/>
		<path d="M62,8.45c3.18,1.03,8.27,3.37,9.75,5.12"/>
		<path d="M24.26,80.51c0.45,2.21-4.54,11.98-8.18,15.67"/>
		<path d="M36.08,78.45c6.79,11.75,16.42,21.3,40.2,21.43c11.47,0.07,12.22-3.93,2.65-8.94"/>
		<path d="M55.16,71.45c2.02,4.85,4.97,9.7,7.13,2.28"/>
		<path d="M81.88,71.68c3.94,2.52,7.24,6.39,10.1,12.61"/>
	</g>
</svg>
