<?xml version="1.0" encoding="UTF-8"?>
<!-- Copyright (C) 2009 Ulrich Apel.
This work is distributed under the conditions of the Creative Commons
Attribution-Share Alike 3.0 Licence. This means you are free:
* to Share - to copy, distribute and transmit the work
* to Remix - to adapt the work

Under the following conditions:
* Attribution. You must attribute the work by stating your use of KanjiVG in
  your own copyright header and linking to KanjiVG's website
  (http://kanjivg.tagaini.net)
* Share Alike. If you alter, transform, or build upon this work, you may
  distribute the resulting work only under the same or similar license to this
  one.

See http://creativecommons.org/licenses/by-sa/3.0/ for more details. -->
<!DOCTYPE svg PUBLIC "-//W3C//DTD SVG 1.0//EN" "http://www.w3.org/TR/2001/REC-SVG-20010904/DTD/svg10.dtd">
<svg xmlns="http://www.w3.org/2000/svg" width="109" height="109" viewBox="0 0 109 109">
	<g id="HelperGrid" style="opacity:0.75;">
		<rect x="0.5" y="0.5" style="fill:none;stroke:#404040;" width="108" height="108"/> 
		<line style="fill:none;stroke:#404040;" x1="0.5" y1="72.51" x2="108.5" y2="72.51"/>
		<line style="fill:none;stroke:#404040;" x1="0.5" y1="36.49" x2="108.5" y2="36.49"/>
		<line style="fill:none;stroke:#404040;" x1="72.5" y1="0.5" x2="72.5" y2="108.5"/>
		<line style="fill:none;stroke:#404040;" x1="36.5" y1="0.5" x2="36.5" y2="108.5"/>
	</g>
	<g id="Kanji">
		<text transform="matrix(1 0 0 1 0.5 93.3799)" style="font-size:108;">惠</text>
	</g>
	<g id="StrokeNumbers" style="font-size:8;fill:#808080">
		<text transform="matrix(1 0 0 1 17.5 23.5)">1</text>
		<text transform="matrix(1 0 0 1 22.5 39.5)">2</text>
		<text transform="matrix(1 0 0 1 33.5 31.979)">3</text>
		<text transform="matrix(1 0 0 1 35.5 42.5)">4</text>
		<text transform="matrix(1 0 0 1 37.5 53.5)">5</text>
		<text transform="matrix(1 0 0 1 43.5 8.5)">6</text>
		<text transform="matrix(1 0 0 1 19.5 67.5)">7</text>
		<text transform="matrix(1 0 0 1 81.5 60.5)">8</text>
		<text transform="matrix(1 0 0 1 16.5 81.5)">9</text>
		<text transform="matrix(1 0 0 1 27.5 89.5)">10</text>
		<text transform="matrix(1 0 0 1 45.5 79.5)">11</text>
		<text transform="matrix(1 0 0 1 72.5 78.5)">12</text>
	</g>
	<g id="StrokePaths" style="fill:none;stroke:#404040;stroke-width:3;stroke-linecap:round;stroke-linejoin:round;">
		<path d="M24,23.39c1.38,0.36,3.92,0.48,5.29,0.36c20.11-1.78,30.81-3.19,50.38-4.14c2.3-0.11,3.68,0.17,4.83,0.35"/>
		<path d="M28.81,33.08c0.74,0.46,1.69,2.17,1.83,2.77c1.01,4.36,2.23,13.76,3.65,22.02"/>
		<path d="M31.68,34.73c11.33-0.88,37.57-3.49,45.3-3.62c3.2-0.06,3.86,1.2,3.72,2.56c-0.47,4.7-1.62,12.41-4.17,20.12"/>
		<path d="M34.35,45.62c8.54-0.23,28.39-3.4,44.49-3.4"/>
		<path d="M34.35,56.01c9.93-0.91,29.25-3.13,42.18-3.13"/>
		<path d="M52.81,10.5c0.76,0.6,2.01,2.5,2.01,4.66c0,1.2-0.1,44.63-0.25,52.09"/>
		<path d="M26,69.92c1.25,1.33,2.2,1.83,4.12,1.57c7.38-1,40.84-7.31,48.63-8.5"/>
		<path d="M74.02,58.58c4.34,1.88,11.21,7.71,12.29,10.63"/>
		<path d="M22.89,80.57c0.35,2.21-3.51,11.98-6.31,15.67"/>
		<path d="M32.58,78.25C39.25,90,48.75,98.5,77.75,98.43c13.05-0.03,13.91-2.86,3.02-7.75"/>
		<path d="M54.41,76.57c1.95,4.73,4.79,9.47,6.88,2.22"/>
		<path d="M83.38,75.98c4.82,2.22,8.44,4.24,12.35,11.11"/>
	</g>
</svg>
