<?xml version="1.0" encoding="UTF-8"?>
<!DOCTYPE svg PUBLIC "-//W3C//DTD SVG 1.0//EN" "http://www.w3.org/TR/2001/REC-SVG-20010904/DTD/svg10.dtd">
<svg xmlns="http://www.w3.org/2000/svg" width="109" height="109" viewBox="0 0 109 109">
	<g id="HelperGrid" style="opacity:0.75;">
		<rect x="0.5" y="0.5" style="fill:none;stroke:#404040;" width="108" height="108"/> 
		<line style="fill:none;stroke:#404040;" x1="0.5" y1="72.51" x2="108.5" y2="72.51"/>
		<line style="fill:none;stroke:#404040;" x1="0.5" y1="36.49" x2="108.5" y2="36.49"/>
		<line style="fill:none;stroke:#404040;" x1="72.5" y1="0.5" x2="72.5" y2="108.5"/>
		<line style="fill:none;stroke:#404040;" x1="36.5" y1="0.5" x2="36.5" y2="108.5"/>
	</g>
	<g id="Kanji">
		<text transform="matrix(1 0 0 1 0.5 93.3799)" style="font-size:108;">愬</text>
	</g>
	<g id="StrokeNumbers" style="font-size:8;fill:#808080">
		<text transform="matrix(1 0 0 1 13.5 14.5)">1</text>
		<text transform="matrix(1 0 0 1 37.5 11.5)">2</text>
		<text transform="matrix(1 0 0 1 5.5 28.5)">3</text>
		<text transform="matrix(1 0 0 1 11.5 38.5)">4</text>
		<text transform="matrix(1 0 0 1 41.5 34.5)">5</text>
		<text transform="matrix(1 0 0 1 26.5 37.5)">6</text>
		<text transform="matrix(1 0 0 1 54.5 21.5)">7</text>
		<text transform="matrix(1 0 0 1 64.5 13.5)">8</text>
		<text transform="matrix(1 0 0 1 67.5 27.5)">9</text>
		<text transform="matrix(1 0 0 1 66.5 39.5)">10</text>
		<text transform="matrix(1 0 0 1 12.5 82.5)">11</text>
		<text transform="matrix(1 0 0 1 27.5 83.5)">12</text>
		<text transform="matrix(1 0 0 1 45.5 74.2285)">13</text>
		<text transform="matrix(1 0 0 1 69.75 73.5)">14</text>
	</g>
	<g id="StrokePaths" style="fill:none;stroke:#404040;stroke-width:3;stroke-linecap:round;stroke-linejoin:round;">
		<path d="M19.81,13.58c2.4,1.55,6.2,6.36,6.8,8.77"/>
		<path d="M47.04,12.89c0.03,0.3,0.05,0.77-0.05,1.19c-0.62,2.51-4.16,8.03-9.01,11.41"/>
		<path d="M12.75,28.65c0.94,0.29,2.66,0.31,3.6,0.29c7.66-0.21,28.65-3.69,35.05-4.2c1.56-0.12,2.51,0.14,3.29,0.28"/>
		<path d="M18.64,35.59c0.73,0.34,1.55,1.78,1.46,2.46c-0.56,4.07-1.6,6.94-2.47,10.38c-0.38,1.52-0.33,2.49,1.45,2.09c8.92-2.02,18.44-3.45,28.89-4.67"/>
		<path d="M47.97,33.87c0.73,0.34,1.51,2.53,1.46,3.22c-0.31,4.83-0.55,3.91-1.21,12.17"/>
		<path d="M33.21,29.8c0.56,1.12,0.86,2.5,0.86,3.9c0,10.55-2.07,27.05-16.29,37.27"/>
		<path d="M60.85,15.52c0.74,0.65,1.24,1.29,1.48,1.94c0.25,0.65,0.25,15.64,0.25,17.1c0,11.94-3.7,23.79-11.13,29.47"/>
		<path d="M63.31,17.22c2.9-0.17,17.46-2.1,19.62-2.27c2.32-0.19,3.83,0.81,3.83,3.33c0,3.73-0.72,23.48-0.72,37.66c0,10.59-4.34,3.53-6.76,1.96"/>
		<path d="M63.34,30.51c3.64-0.24,7.27-0.7,10.9-1.13c1.02-0.12,2.05-0.24,3.07-0.36"/>
		<path d="M62.58,43.35c3.61-0.27,8.19-0.69,11.79-1.08c0.88-0.1,1.78-0.19,2.69-0.28"/>
		<path d="M23.06,79.38c0.39,2.25-3.92,12.17-7.06,15.92"/>
		<path d="M33,72.82c8.25,13.93,17.5,24.43,47.2,24.68c13.64,0.11,14.53-3.5,3.15-9.47"/>
		<path d="M55.83,72.32c1.95,5.25,4.79,10.5,6.88,2.46"/>
		<path d="M80.55,68.8c5.5,2.67,9.63,5.1,14.1,13.36"/>
	</g>
</svg>
