<?xml version="1.0" encoding="UTF-8"?>
<!DOCTYPE svg PUBLIC "-//W3C//DTD SVG 1.0//EN" "http://www.w3.org/TR/2001/REC-SVG-20010904/DTD/svg10.dtd">
<svg xmlns="http://www.w3.org/2000/svg" width="109" height="109" viewBox="0 0 109 109">
	<g id="HelperGrid" style="opacity:0.75;">
		<rect x="0.5" y="0.5" style="fill:none;stroke:#404040;" width="108" height="108"/> 
		<line style="fill:none;stroke:#404040;" x1="0.5" y1="72.51" x2="108.5" y2="72.51"/>
		<line style="fill:none;stroke:#404040;" x1="0.5" y1="36.49" x2="108.5" y2="36.49"/>
		<line style="fill:none;stroke:#404040;" x1="72.5" y1="0.5" x2="72.5" y2="108.5"/>
		<line style="fill:none;stroke:#404040;" x1="36.5" y1="0.5" x2="36.5" y2="108.5"/>
	</g>
	<g id="Kanji">
		<text transform="matrix(1 0 0 1 0.5 93.3799)" style="font-size:108;">愴</text>
	</g>
	<g id="StrokeNumbers" style="font-size:8;fill:#808080">
		<text transform="matrix(1 0 0 1 11.5 33.5)">1</text>
		<text transform="matrix(1 0 0 1 30.5 27.5)">2</text>
		<text transform="matrix(1 0 0 1 15.75 13.5)">3</text>
		<text transform="matrix(1 0 0 1 54.5 12.5)">4</text>
		<text transform="matrix(1 0 0 1 68.5 18.5)">5</text>
		<text transform="matrix(1 0 0 1 57.75 33.5)">6</text>
		<text transform="matrix(1 0 0 1 53.5 44.5)">7</text>
		<text transform="matrix(1 0 0 1 55.5 54.854)">8</text>
		<text transform="matrix(1 0 0 1 54.5 63.7793)">9</text>
		<text transform="matrix(1 0 0 1 40.5 54.9541)">10</text>
		<text transform="matrix(1 0 0 1 43.5 91.5)">11</text>
		<text transform="matrix(1 0 0 1 53.5 74.8047)">12</text>
		<text transform="matrix(1 0 0 1 57 90.5)">13</text>
	</g>
	<g id="StrokePaths" style="fill:none;stroke:#404040;stroke-width:3;stroke-linecap:round;stroke-linejoin:round;">
		<path d="M16.72,33.5c0.02,4.31-1.94,14.14-3.69,17.5"/>
		<path d="M31.27,29.58c2.4,1.92,6.19,7.9,6.79,10.88"/>
		<path d="M23.37,13.25c1.09,0.5,1.74,2.25,1.96,3.25c0.22,1,0,75.25-0.22,81.5"/>
		<path d="M61.71,11.75c0.07,0.82,0.35,2.2-0.13,3.31c-3.33,7.69-10.33,20.69-23.08,31.69"/>
		<path d="M61.89,13.75c4.2,5.16,22.31,22.02,26.95,25.8c1.57,1.28,3.59,1.83,5.16,2.2"/>
		<path d="M53.61,36.84c0.51,0,2.39-0.07,3.48-0.19c3.72-0.4,8.82-0.91,13.3-1.44c1.94-0.23,2.51-0.39,3.36-0.39"/>
		<path d="M47.25,45.75c1.5,0.5,3.4,0.79,4.75,0.69c8.38-0.59,25.55-2.79,26.88-2.93c1.4-0.15,2.91,0.74,2.76,2.5c-0.25,2.78-2.01,9.87-3.08,18.07"/>
		<path d="M50.45,56.34c2.48-0.1,26.03-2.8,28.83-2.91"/>
		<path d="M48.86,67.13c5.11-0.6,25.57-2.13,31.91-2.73"/>
		<path d="M50.12,46.5c0.53,0.72,0.79,2.78,0.68,4.33C50.08,61.04,48,83.25,35.66,92.75"/>
		<path d="M49.21,76.38c0.33,0.35,0.67,0.63,0.81,1.07c1.15,3.43,3.02,12.89,3.8,19.05"/>
		<path d="M51.27,77.71c7.16-1.21,26.77-3.27,30.64-3.72c1.42-0.17,2.27,0.98,2.06,1.94c-0.84,4.01-2.82,10.35-4.07,15.89"/>
		<path d="M53.99,94.49c4.55-0.51,21.1-1.39,27.34-2.17"/>
	</g>
</svg>
