<?xml version="1.0" encoding="UTF-8"?>
<!DOCTYPE svg PUBLIC "-//W3C//DTD SVG 1.0//EN" "http://www.w3.org/TR/2001/REC-SVG-20010904/DTD/svg10.dtd">
<svg xmlns="http://www.w3.org/2000/svg" width="109" height="109" viewBox="0 0 109 109">
	<g id="HelperGrid" style="opacity:0.75;">
		<rect x="0.5" y="0.5" style="fill:none;stroke:#404040;" width="108" height="108"/> 
		<line style="fill:none;stroke:#404040;" x1="0.5" y1="72.51" x2="108.5" y2="72.51"/>
		<line style="fill:none;stroke:#404040;" x1="0.5" y1="36.49" x2="108.5" y2="36.49"/>
		<line style="fill:none;stroke:#404040;" x1="72.5" y1="0.5" x2="72.5" y2="108.5"/>
		<line style="fill:none;stroke:#404040;" x1="36.5" y1="0.5" x2="36.5" y2="108.5"/>
	</g>
	<g id="Kanji">
		<text transform="matrix(1 0 0 1 0.5 93.3799)" style="font-size:108;">慟</text>
	</g>
	<g id="StrokeNumbers" style="font-size:8;fill:#808080">
		<text transform="matrix(1 0 0 1 9.5 35.5)">1</text>
		<text transform="matrix(1 0 0 1 24.5 31.5)">2</text>
		<text transform="matrix(1 0 0 1 10.5 13.5)">3</text>
		<text transform="matrix(1 0 0 1 56.25 14.5)">4</text>
		<text transform="matrix(1 0 0 1 33.5 32.5)">5</text>
		<text transform="matrix(1 0 0 1 32.5 53.5)">6</text>
		<text transform="matrix(1 0 0 1 42 44.5)">7</text>
		<text transform="matrix(1 0 0 1 43.5 53.604)">8</text>
		<text transform="matrix(1 0 0 1 44.5 61.5)">9</text>
		<text transform="matrix(1 0 0 1 43.25 31.7041)">10</text>
		<text transform="matrix(1 0 0 1 29.5 76.5)">11</text>
		<text transform="matrix(1 0 0 1 26.5 92.3047)">12</text>
		<text transform="matrix(1 0 0 1 71.5 37.979)">13</text>
		<text transform="matrix(1 0 0 1 73.75 16.4043)">14</text>
	</g>
	<g id="StrokePaths" style="fill:none;stroke:#404040;stroke-width:3;stroke-linecap:round;stroke-linejoin:round;">
		<path d="M14.47,36.5c0.02,4.31-1.81,14.14-3.44,17.5"/>
		<path d="M24.52,33.58c2.13,1.74,5.51,7.17,6.04,9.88"/>
		<path d="M19.37,13.25c1.09,0.5,1.74,2.25,1.96,3.25c0.22,1,0,75.25-0.22,81.5"/>
		<path d="M63.64,15.39c0.06,0.26-0.51,1.65-0.87,1.94c-2.81,2.24-11.61,6.02-24.08,9.43"/>
		<path d="M34.97,35.56c1.06,0.19,2.48,0.34,3.37,0.35C45,36,60.15,33.25,66.99,32.44c1.46-0.17,2.35,0.14,3.08,0.35"/>
		<path d="M38.43,45.4c0.22,0.35,0.22,0.6,0.35,1.05c1,3.71,2.25,12.88,2.87,19.83"/>
		<path d="M39.46,47.2c7.57-1.18,20.17-2.49,25.82-3.45c2.07-0.36,2.73,2.08,2.63,3.09c-0.39,3.7-1.52,10.41-2.47,16.6"/>
		<path d="M40.6,55.14c6.02-0.53,12.03-1.19,18.04-1.82c0.66-0.07,1.3-0.14,1.92-0.2"/>
		<path d="M42.25,64.09c6-0.59,14.98-1.54,22.64-2.46"/>
		<path d="M51.99,24.91c0.72,0.41,1.16,1.92,1.3,2.79c0.14,0.87,0.5,52.69,0.35,58.14"/>
		<path d="M37.56,74.94c0.65,0.2,2.83,0.7,3.47,0.66c6.71-0.39,17.91-2.55,22.64-3.12c1.06-0.13,2.21-0.1,2.74,0"/>
		<path d="M37.22,90.66c0.6,1.03,1.67,2.18,4.28,0.9c10.04-4.92,11.93-5.37,23.66-10.54"/>
		<path d="M72.59,40.4c0.84,0.67,1.87,0.49,2.62,0.36c7.29-1.26,13.87-3.34,17.18-4.03c2.15-0.45,3.61,1.02,3.63,3.15C96.1,51,91.5,81.5,85.41,91.6c-3.34,5.54-4.87,0.31-5.74-0.67"/>
		<path d="M84.48,13.93c0.81,0.93,0.77,2.82,0.82,4.58c0.62,20.85-5.55,57.5-21.66,75.52"/>
	</g>
</svg>
