<?xml version="1.0" encoding="UTF-8"?>
<!DOCTYPE svg PUBLIC "-//W3C//DTD SVG 1.0//EN" "http://www.w3.org/TR/2001/REC-SVG-20010904/DTD/svg10.dtd">
<svg xmlns="http://www.w3.org/2000/svg" width="109" height="109" viewBox="0 0 109 109">
	<g id="HelperGrid" style="opacity:0.75;">
		<rect x="0.5" y="0.5" style="fill:none;stroke:#404040;" width="108" height="108"/> 
		<line style="fill:none;stroke:#404040;" x1="0.5" y1="72.51" x2="108.5" y2="72.51"/>
		<line style="fill:none;stroke:#404040;" x1="0.5" y1="36.49" x2="108.5" y2="36.49"/>
		<line style="fill:none;stroke:#404040;" x1="72.5" y1="0.5" x2="72.5" y2="108.5"/>
		<line style="fill:none;stroke:#404040;" x1="36.5" y1="0.5" x2="36.5" y2="108.5"/>
	</g>
	<g id="Kanji">
		<text transform="matrix(1 0 0 1 0.5 93.3799)" style="font-size:108;">憇</text>
	</g>
	<g id="StrokeNumbers" style="font-size:8;fill:#808080">
		<text transform="matrix(1 0 0 1 38.5 10.5)">1</text>
		<text transform="matrix(1 0 0 1 9.5 36.5)">2</text>
		<text transform="matrix(1 0 0 1 29.25 29.5)">3</text>
		<text transform="matrix(1 0 0 1 15.5 53.5)">4</text>
		<text transform="matrix(1 0 0 1 25.5 45.5)">5</text>
		<text transform="matrix(1 0 0 1 29.5 59.5)">6</text>
		<text transform="matrix(1 0 0 1 48.25 24.1797)">7</text>
		<text transform="matrix(1 0 0 1 55.5 10.5)">8</text>
		<text transform="matrix(1 0 0 1 73.5 9.5)">9</text>
		<text transform="matrix(1 0 0 1 65.5 36.5)">10</text>
		<text transform="matrix(1 0 0 1 65.5 53.5)">11</text>
		<text transform="matrix(1 0 0 1 17.5 75.5)">12</text>
		<text transform="matrix(1 0 0 1 30.5 83.5)">13</text>
		<text transform="matrix(1 0 0 1 46.5 73.5)">14</text>
		<text transform="matrix(1 0 0 1 69.5 71.5791)">15</text>
	</g>
	<g id="StrokePaths" style="fill:none;stroke:#404040;stroke-width:3;stroke-linecap:round;stroke-linejoin:round;">
		<path d="M46.16,11.36c0.07,0.3-0.55,1.43-0.95,1.75c-3.04,2.46-10.75,6.97-24.22,10.38"/>
		<path d="M16.35,35.29c0.79,0.22,2.78,0.28,3.57,0.22c7.03-0.54,25.18-3.47,30.46-3.76c1.32-0.07,2.12,0.1,2.78,0.22"/>
		<path d="M34.93,20.42c0.4,0.25,1.25,1.85,1.33,2.34c0.15,0.92-0.05,18.37-0.13,21.54"/>
		<path d="M21.46,47.1c0.39,0.3,0.8,0.54,0.97,0.92c1.36,2.93,2.99,11.41,3.93,16.68"/>
		<path d="M23.18,48.45c9.25-0.95,20.2-3.07,25.4-3.47c1.9-0.14,2.45,1.45,2.18,2.3c-1.13,3.49-2.11,8.19-3.79,13.01"/>
		<path d="M26.16,62.74c6.11-0.44,15.37-1.44,23.76-2.12"/>
		<path d="M53.85,26.32c1.04,0.35,2.95,0.43,3.98,0.35c7.65-0.64,19.29-2.08,31.83-2.92c1.73-0.12,2.77,0.17,3.63,0.34"/>
		<path d="M60.76,13.11c0.82,0.3,1.32,1.34,1.48,1.93s1.5,40.74,1.34,44.46"/>
		<path d="M80.41,10.25c0.82,0.3,1.32,1.34,1.48,1.93c0.16,0.59-0.39,34.32-0.66,46.72"/>
		<path d="M63.25,40.12c3.3-0.16,6.6-0.57,9.89-0.91c0.94-0.1,1.87-0.19,2.75-0.28"/>
		<path d="M64.25,57.31c4.91-0.15,11.6-1.04,16.14-1.19"/>
		<path d="M26.55,76.64c0.37,2.51-3.73,13.6-6.72,17.78"/>
		<path d="M37.53,74.37c6.07,12.27,15.65,22.91,39.04,23.07c11.28,0.07,13.02-4.27,3.61-9.85"/>
		<path d="M57.02,72.25c2.13,5.85,5.23,11.71,7.51,2.75"/>
		<path d="M79.83,69.23c5.23,2.11,9.16,4.03,13.41,10.55"/>
	</g>
</svg>
