<?xml version="1.0" encoding="UTF-8"?>
<!-- Copyright (C) 2009 Ulrich Apel.
This work is distributed under the conditions of the Creative Commons
Attribution-Share Alike 3.0 Licence. This means you are free:
* to Share - to copy, distribute and transmit the work
* to Remix - to adapt the work

Under the following conditions:
* Attribution. You must attribute the work by stating your use of KanjiVG in
  your own copyright header and linking to KanjiVG's website
  (http://kanjivg.tagaini.net)
* Share Alike. If you alter, transform, or build upon this work, you may
  distribute the resulting work only under the same or similar license to this
  one.

See http://creativecommons.org/licenses/by-sa/3.0/ for more details. -->
<!DOCTYPE svg PUBLIC "-//W3C//DTD SVG 1.0//EN" "http://www.w3.org/TR/2001/REC-SVG-20010904/DTD/svg10.dtd">
<svg xmlns="http://www.w3.org/2000/svg" width="109" height="109" viewBox="0 0 109 109">
	<g id="HelperGrid" style="opacity:0.75;">
		<rect x="0.5" y="0.5" style="fill:none;stroke:#404040;" width="108" height="108"/> 
		<line style="fill:none;stroke:#404040;" x1="0.5" y1="72.51" x2="108.5" y2="72.51"/>
		<line style="fill:none;stroke:#404040;" x1="0.5" y1="36.49" x2="108.5" y2="36.49"/>
		<line style="fill:none;stroke:#404040;" x1="72.5" y1="0.5" x2="72.5" y2="108.5"/>
		<line style="fill:none;stroke:#404040;" x1="36.5" y1="0.5" x2="36.5" y2="108.5"/>
	</g>
	<g id="Kanji">
		<text transform="matrix(1 0 0 1 0.5 93.3799)" style="font-size:108;">憫</text>
	</g>
	<g id="StrokeNumbers" style="font-size:8;fill:#808080">
		<text transform="matrix(1 0 0 1 11.5 35.5)">1</text>
		<text transform="matrix(1 0 0 1 29.5 29.5)">2</text>
		<text transform="matrix(1 0 0 1 16.25 14.5)">3</text>
		<text transform="matrix(1 0 0 1 33.5 18.5)">4</text>
		<text transform="matrix(1 0 0 1 43.5 15.5)">5</text>
		<text transform="matrix(1 0 0 1 47.5 26.5)">6</text>
		<text transform="matrix(1 0 0 1 47.5 36.5)">7</text>
		<text transform="matrix(1 0 0 1 64.5 22.5)">8</text>
		<text transform="matrix(1 0 0 1 74.5 13.5)">9</text>
		<text transform="matrix(1 0 0 1 74.75 23.7041)">10</text>
		<text transform="matrix(1 0 0 1 75.5 32.1299)">11</text>
		<text transform="matrix(1 0 0 1 56.5 45.5)">12</text>
		<text transform="matrix(1 0 0 1 47.5 49.479)">13</text>
		<text transform="matrix(1 0 0 1 63.5 59.5)">14</text>
		<text transform="matrix(1 0 0 1 46.5 64.5)">15</text>
	</g>
	<g id="StrokePaths" style="fill:none;stroke:#404040;stroke-width:3;stroke-linecap:round;stroke-linejoin:round;">
		<path d="M16.72,36.5c0.03,4.19-2.21,13.74-4.19,17"/>
		<path d="M29.52,32.58c2.13,1.92,5.51,7.9,6.04,10.88"/>
		<path d="M23.87,14.25c1.09,0.5,1.74,2.25,1.96,3.25c0.22,1,0,73.75-0.22,80"/>
		<path d="M40.89,17.54c0.54,0.4,1.68,3.01,1.78,3.82c0.11,0.81-0.07,70.25-0.18,75.28"/>
		<path d="M42.82,18.96c1.79-0.09,14.15-1.88,15.78-1.98c1.36-0.09,2.06,0.79,2.13,1.48c0.1,1.07-0.63,19.85-0.63,20.38"/>
		<path d="M43.14,28.33c2.84-0.33,5.68-0.62,8.53-0.93c0.79-0.08,1.58-0.17,2.35-0.25"/>
		<path d="M42.82,38.75c5.95-1,11.56-1.26,16.83-1.72"/>
		<path d="M70.99,15.48c0.31,0.47,0.62,1.46,0.62,2.08c0,0.62-0.1,18.71,0,19.33"/>
		<path d="M72.11,16.44c1.74-0.09,16.24-2.35,17.83-2.45c1.32-0.09,2.56,0.76,2.57,2.51c0.06,16.38-0.35,61.1-0.35,72.98c0,9.77-5.89,0.55-6.9-0.54"/>
		<path d="M72.42,25.33c3.11,0,6.29-0.59,9.37-0.94c1.03-0.12,2.06-0.24,3.05-0.35"/>
		<path d="M72.11,35.04c3.48,0,14.57-1.73,19.07-1.73"/>
		<path d="M64.61,41.5c1.48,0.71,2.89,2.75,3.9,4.82"/>
		<path d="M51,52.79c0.89,0.07,2.92,0.47,3.78,0.36C63.75,52,71.5,50.35,79.8,49.9c1.46-0.08,1.95-0.09,3.7-0.09"/>
		<path d="M75.13,53.66c0.32,0.67,0.48,1.11,0.16,2.39C72.25,68,64.25,78.5,50.13,84"/>
		<path d="M57.21,61.2c8.69,3.96,18.05,12.82,22.54,18.79"/>
	</g>
</svg>
