<?xml version="1.0" encoding="UTF-8"?>
<!DOCTYPE svg PUBLIC "-//W3C//DTD SVG 1.0//EN" "http://www.w3.org/TR/2001/REC-SVG-20010904/DTD/svg10.dtd">
<svg xmlns="http://www.w3.org/2000/svg" width="109" height="109" viewBox="0 0 109 109">
	<g id="HelperGrid" style="opacity:0.75;">
		<rect x="0.5" y="0.5" style="fill:none;stroke:#404040;" width="108" height="108"/> 
		<line style="fill:none;stroke:#404040;" x1="0.5" y1="72.51" x2="108.5" y2="72.51"/>
		<line style="fill:none;stroke:#404040;" x1="0.5" y1="36.49" x2="108.5" y2="36.49"/>
		<line style="fill:none;stroke:#404040;" x1="72.5" y1="0.5" x2="72.5" y2="108.5"/>
		<line style="fill:none;stroke:#404040;" x1="36.5" y1="0.5" x2="36.5" y2="108.5"/>
	</g>
	<g id="Kanji">
		<text transform="matrix(1 0 0 1 0.5 93.3799)" style="font-size:108;">憺</text>
	</g>
	<g id="StrokeNumbers" style="font-size:8;fill:#808080">
		<text transform="matrix(1 0 0 1 13.5 33.5)">1</text>
		<text transform="matrix(1 0 0 1 31.5 30.5)">2</text>
		<text transform="matrix(1 0 0 1 16.25 12.5)">3</text>
		<text transform="matrix(1 0 0 1 51.5 10.5)">4</text>
		<text transform="matrix(1 0 0 1 65.5 14.5)">5</text>
		<text transform="matrix(1 0 0 1 54.5 29.5049)">6</text>
		<text transform="matrix(1 0 0 1 43.75 41.5)">7</text>
		<text transform="matrix(1 0 0 1 55.5 40.5)">8</text>
		<text transform="matrix(1 0 0 1 81.5 38.5)">9</text>
		<text transform="matrix(1 0 0 1 66.5 41.5)">10</text>
		<text transform="matrix(1 0 0 1 58.5 54.5)">11</text>
		<text transform="matrix(1 0 0 1 51.5 65.5)">12</text>
		<text transform="matrix(1 0 0 1 49.75 75.5)">13</text>
		<text transform="matrix(1 0 0 1 47.5 89.5)">14</text>
		<text transform="matrix(1 0 0 1 60.5 81.5)">15</text>
		<text transform="matrix(1 0 0 1 62.25 93.5039)">16</text>
	</g>
	<g id="StrokePaths" style="fill:none;stroke:#404040;stroke-width:3;stroke-linecap:round;stroke-linejoin:round;">
		<path d="M18.22,35c0.03,4.07-2.21,13.34-4.19,16.5"/>
		<path d="M33.27,33.83C35.49,36.06,39,43,39.56,46.47"/>
		<path d="M24.37,12.25c1.09,0.5,1.74,2.25,1.96,3.25c0.22,1,0,75.75-0.22,82"/>
		<path d="M59.01,10.25c0.05,0.55,0.1,1.41-0.09,2.2c-1.14,4.64-7.7,14.82-16.67,21.05"/>
		<path d="M57.5,18.37c6-0.37,16.5-2.12,22.49-3.64c1.73-0.44,2.44,1.21,1.21,2.87c-3.45,4.65-6.7,7.65-9.77,12.15"/>
		<path d="M48.63,32.23c1.52,0.54,3.3,0.62,4.82,0.54c10.55-0.52,27.3-2.52,38.11-3.73c2.51-0.28,4.05,0.26,5.31,0.53"/>
		<path d="M51.49,33c0.04,1.5,0.09,3.87-0.09,6.02c-1.09,12.7-3.56,43.51-15.35,57.19"/>
		<path d="M63.51,35c0.24,0.75,0.49,1.04,0.38,1.67C63,41.5,60,48,52.75,51.25"/>
		<path d="M76.75,31.5c0.74,0.83,1.38,1.81,1.38,3.09c0,1.72-0.22,4.95-0.22,6.18c0,3.35,2.54,4.73,7.38,4.73c4.38,0,7.62,0,9.47-1.08"/>
		<path d="M68.13,44.25c2.16,1.29,5.58,5.3,6.12,7.3"/>
		<path d="M53.87,57.51c0.87,0.21,3.69,0.18,4.57,0.21c9.09,0.29,23.42-2.35,31.29-2.53c1.46-0.03,3.64,0.1,4.37,0.2"/>
		<path d="M59.73,66.18c0.53,0.1,3.78,0.11,4.31,0.1c5.53-0.11,13.64-1.72,19.08-1.71c0.88,0,4.58,0.05,5.02,0.1"/>
		<path d="M59.73,74.96c0.49,0.12,2.52,0.13,3.02,0.12c5.15-0.14,14.53-2.15,19.61-2.14c0.82,0,4.26,0.06,4.68,0.12"/>
		<path d="M56.64,82.67c0.35,0.31,0.75,0.55,0.86,0.95c0.99,3.53,2.25,10.95,3.25,16.13"/>
		<path d="M58.81,84.74c6.44-0.75,21.98-2.34,27.92-3.1c1.49-0.19,2.89,0.87,2.68,1.73c-0.89,3.57-1.16,5.22-2.74,11.16"/>
		<path d="M60.47,97.4c4.8-0.46,21.1-1.74,27.69-2.44"/>
	</g>
</svg>
