<?xml version="1.0" encoding="UTF-8"?>
<!DOCTYPE svg PUBLIC "-//W3C//DTD SVG 1.0//EN" "http://www.w3.org/TR/2001/REC-SVG-20010904/DTD/svg10.dtd">
<svg xmlns="http://www.w3.org/2000/svg" width="109" height="109" viewBox="0 0 109 109">
	<g id="HelperGrid" style="opacity:0.75;">
		<rect x="0.5" y="0.5" style="fill:none;stroke:#404040;" width="108" height="108"/> 
		<line style="fill:none;stroke:#404040;" x1="0.5" y1="72.51" x2="108.5" y2="72.51"/>
		<line style="fill:none;stroke:#404040;" x1="0.5" y1="36.49" x2="108.5" y2="36.49"/>
		<line style="fill:none;stroke:#404040;" x1="72.5" y1="0.5" x2="72.5" y2="108.5"/>
		<line style="fill:none;stroke:#404040;" x1="36.5" y1="0.5" x2="36.5" y2="108.5"/>
	</g>
	<g id="Kanji">
		<text transform="matrix(1 0 0 1 0.5 93.3799)" style="font-size:108;">懴</text>
	</g>
	<g id="StrokeNumbers" style="font-size:8;fill:#808080">
		<text transform="matrix(1 0 0 1 12.25 39.1299)">1</text>
		<text transform="matrix(1 0 0 1 28.5 31.5)">2</text>
		<text transform="matrix(1 0 0 1 14.5 15.5)">3</text>
		<text transform="matrix(1 0 0 1 37.5 24.5)">4</text>
		<text transform="matrix(1 0 0 1 41.5 14.5)">5</text>
		<text transform="matrix(1 0 0 1 37.5 36.7549)">6</text>
		<text transform="matrix(1 0 0 1 41.5 48.5)">7</text>
		<text transform="matrix(1 0 0 1 50.5 47.5)">8</text>
		<text transform="matrix(1 0 0 1 28.5 52.5)">9</text>
		<text transform="matrix(1 0 0 1 28.5 62.5)">10</text>
		<text transform="matrix(1 0 0 1 28.5 72.5)">11</text>
		<text transform="matrix(1 0 0 1 59.5 47.0547)">12</text>
		<text transform="matrix(1 0 0 1 59 57.7285)">13</text>
		<text transform="matrix(1 0 0 1 58.5 68.1543)">14</text>
		<text transform="matrix(1 0 0 1 29.5 83.5)">15</text>
		<text transform="matrix(1 0 0 1 63.5 10.5)">16</text>
		<text transform="matrix(1 0 0 1 80.5 44.5)">17</text>
		<text transform="matrix(1 0 0 1 77.5 13.5)">18</text>
	</g>
	<g id="StrokePaths" style="fill:none;stroke:#404040;stroke-width:3;stroke-linecap:round;stroke-linejoin:round;">
		<path d="M17.72,40c0.03,4.31-2.47,14.14-4.69,17.5"/>
		<path d="M27.27,34.33c2.13,1.83,5.51,7.53,6.04,10.38"/>
		<path d="M22.87,15.25c1.09,0.5,1.74,2.25,1.96,3.25c0.22,1,0,71.75-0.22,78"/>
		<path d="M38.11,27.38c0.9,0.26,2.56,0.32,3.46,0.26c6.31-0.38,14.58-2.25,20.51-2.83c1.49-0.14,2.41,0.12,3.16,0.26"/>
		<path d="M50.82,14.62c0.09,0.29,1.31,1.52,1.31,3.39c0,12,0.1,4,0.1,19.86"/>
		<path d="M37.88,39.73c1.13,0.54,3.19,0.69,4.32,0.54c9.56-1.27,34.92-5.52,47.39-6.23c1.88-0.11,3,0.26,3.94,0.53"/>
		<path d="M47.34,41.91c0.49,0.29,0.79,1.3,0.89,1.88c0.1,0.58,0,37.32-0.1,40.93"/>
		<path d="M55.39,40.75c0.49,0.29,0.79,1.3,0.89,1.88c0.1,0.58,0,35.4-0.1,39.01"/>
		<path d="M34.35,53.99c0.43,0.22,1.21,0.22,1.63,0.22c3.47-0.01,7.27-1.46,10.72-2.09c0.7-0.13,1.04-0.08,1.49-0.08"/>
		<path d="M33.96,63.98c0.43,0.22,1.21,0.22,1.63,0.22c3.47-0.01,7.65-1.45,10.99-2.38c0.68-0.19,1.04-0.08,1.49-0.08"/>
		<path d="M33.78,74.96c0.43,0.22,1.21,0.22,1.63,0.22c3.47-0.01,7.78-1.67,11.17-2.46c0.7-0.16,1.04-0.08,1.49-0.08"/>
		<path d="M56.47,50.9c0.57,0,0.53-0.01,0.95-0.07c2.71-0.38,7.3-1.02,9.9-1.38c0.71-0.1,1.14,0.11,1.49,0.21"/>
		<path d="M56.36,60.52c0.57,0,0.53-0.01,0.95-0.07c2.72-0.38,7.03-1.52,9.62-1.88c0.71-0.1,1.14,0.1,1.49,0.21"/>
		<path d="M56.47,70.5c0.57,0,0.53-0.01,0.95-0.07c2.71-0.38,7.48-1.02,10.08-1.38c0.71-0.1,1.14,0.11,1.49,0.21"/>
		<path d="M34.83,88.22c0.93,1.01,3.2,0.62,3.91,0.32c10.12-4.24,18.94-7.05,28.47-10.97"/>
		<path d="M69.05,14c1.07,1.73,1.83,2.21,2.07,5.95c1.86,28.9,5.87,58.3,21.12,73.33c4.06,4,3.6,0.74,3.07-6.94"/>
		<path d="M89.76,43.39c0.09,1.15,0.31,2.98-0.19,4.61c-3.16,10.45-11.33,32.5-31.22,44.71"/>
		<path d="M82.65,16.25c2.36,1.85,6.13,6.08,7.23,9.25"/>
	</g>
</svg>
