<?xml version="1.0" encoding="UTF-8"?>
<!-- Copyright (C) 2009 Ulrich Apel.
This work is distributed under the conditions of the Creative Commons
Attribution-Share Alike 3.0 Licence. This means you are free:
* to Share - to copy, distribute and transmit the work
* to Remix - to adapt the work

Under the following conditions:
* Attribution. You must attribute the work by stating your use of KanjiVG in
  your own copyright header and linking to KanjiVG's website
  (http://kanjivg.tagaini.net)
* Share Alike. If you alter, transform, or build upon this work, you may
  distribute the resulting work only under the same or similar license to this
  one.

See http://creativecommons.org/licenses/by-sa/3.0/ for more details. -->
<!DOCTYPE svg PUBLIC "-//W3C//DTD SVG 1.0//EN" "http://www.w3.org/TR/2001/REC-SVG-20010904/DTD/svg10.dtd">
<svg xmlns="http://www.w3.org/2000/svg" width="109" height="109" viewBox="0 0 109 109">
	<g id="HelperGrid" style="opacity:0.75;">
		<rect x="0.5" y="0.5" style="fill:none;stroke:#404040;" width="108" height="108"/> 
		<line style="fill:none;stroke:#404040;" x1="0.5" y1="72.51" x2="108.5" y2="72.51"/>
		<line style="fill:none;stroke:#404040;" x1="0.5" y1="36.49" x2="108.5" y2="36.49"/>
		<line style="fill:none;stroke:#404040;" x1="72.5" y1="0.5" x2="72.5" y2="108.5"/>
		<line style="fill:none;stroke:#404040;" x1="36.5" y1="0.5" x2="36.5" y2="108.5"/>
	</g>
	<g id="Kanji">
		<text transform="matrix(1 0 0 1 0.5 93.3799)" style="font-size:108;">戸</text>
	</g>
	<g id="StrokeNumbers" style="font-size:8;fill:#808080">
		<text transform="matrix(1 0 0 1 21.75 19.6299)">1</text>
		<text transform="matrix(1 0 0 1 38.25 33.1299)">2</text>
		<text transform="matrix(1 0 0 1 39.75 54.1299)">3</text>
		<text transform="matrix(1 0 0 1 23.25 42.1299)">4</text>
	</g>
	<g id="StrokePaths" style="fill:none;stroke:#404040;stroke-width:3;stroke-linecap:round;stroke-linejoin:round;">
		<path d="M28.5,19.26c1.59,0.3,5.35,0.4,6.94,0.3c13.97-0.93,25.81-2.56,39.36-3.15c2.65-0.12,5.37,0.14,6.69,0.29"/>
		<path d="M30.85,36.13C32,36.5,33.73,36.87,36,36.65c10.62-1.03,31.64-3.23,39-3.9c1.99-0.18,4,1.25,3.25,4c-1.05,3.85-2.66,11.55-3.94,17.02"/>
		<path d="M35.5,57.25c6.5-0.38,23.02-1.64,35.5-2.12c2.15-0.08,4.03-0.13,5.5-0.13"/>
		<path d="M33.44,37.18c1.06,1.32,1.13,2.49,1.15,4.45C34.75,66.25,24.75,89,15.25,94.75"/>
	</g>
</svg>
