<?xml version="1.0" encoding="UTF-8"?>
<!DOCTYPE svg PUBLIC "-//W3C//DTD SVG 1.0//EN" "http://www.w3.org/TR/2001/REC-SVG-20010904/DTD/svg10.dtd">
<svg xmlns="http://www.w3.org/2000/svg" width="109" height="109" viewBox="0 0 109 109">
	<g id="HelperGrid" style="opacity:0.75;">
		<rect x="0.5" y="0.5" style="fill:none;stroke:#404040;" width="108" height="108"/> 
		<line style="fill:none;stroke:#404040;" x1="0.5" y1="72.51" x2="108.5" y2="72.51"/>
		<line style="fill:none;stroke:#404040;" x1="0.5" y1="36.49" x2="108.5" y2="36.49"/>
		<line style="fill:none;stroke:#404040;" x1="72.5" y1="0.5" x2="72.5" y2="108.5"/>
		<line style="fill:none;stroke:#404040;" x1="36.5" y1="0.5" x2="36.5" y2="108.5"/>
	</g>
	<g id="Kanji">
		<text transform="matrix(1 0 0 1 0.5 93.3799)" style="font-size:108;">扣</text>
	</g>
	<g id="StrokeNumbers" style="font-size:8;fill:#808080">
		<text transform="matrix(1 0 0 1 7.5 37.5)">1</text>
		<text transform="matrix(1 0 0 1 23.5 12.5)">2</text>
		<text transform="matrix(1 0 0 1 5.5 70.5)">3</text>
		<text transform="matrix(1 0 0 1 48.5 39.5)">4</text>
		<text transform="matrix(1 0 0 1 57.5 27.5)">5</text>
		<text transform="matrix(1 0 0 1 61.5 83.5)">6</text>
	</g>
	<g id="StrokePaths" style="fill:none;stroke:#404040;stroke-width:3;stroke-linecap:round;stroke-linejoin:round;">
		<path d="M14,36.75C16.08,37,16.77,37.3,19,37c5.5-0.75,19-2.5,28.17-3.67"/>
		<path d="M32.27,12.33c0.48,0.92,1.76,2.49,1.76,5.52c0,16.9-0.25,68.66-0.26,73.62c-0.02,8.53-3.02,5.53-7.71,1.25"/>
		<path d="M12.5,66.82c2.77,1.66,3.05,1.9,5.82,0.48C19.95,66.46,36.58,57.02,43.5,53"/>
		<path d="M54.25,29.76c0.75,0.74,1.59,1.93,1.72,3.25C56.99,43.45,57.2,72.25,57.89,91"/>
		<path d="M56.32,31.7c9.93-1.2,24.93-3.2,31.66-3.69c2.15-0.16,3.88,1.7,3.58,4.39c-1.25,11.1-3.21,37.51-5.07,52.86"/>
		<path d="M58.13,87.66c8.25-0.42,19.14-1.63,30.47-2.27"/>
	</g>
</svg>
