<?xml version="1.0" encoding="UTF-8"?>
<!-- Copyright (C) 2009 Ulrich Apel.
This work is distributed under the conditions of the Creative Commons
Attribution-Share Alike 3.0 Licence. This means you are free:
* to Share - to copy, distribute and transmit the work
* to Remix - to adapt the work

Under the following conditions:
* Attribution. You must attribute the work by stating your use of KanjiVG in
  your own copyright header and linking to KanjiVG's website
  (http://kanjivg.tagaini.net)
* Share Alike. If you alter, transform, or build upon this work, you may
  distribute the resulting work only under the same or similar license to this
  one.

See http://creativecommons.org/licenses/by-sa/3.0/ for more details. -->
<!DOCTYPE svg PUBLIC "-//W3C//DTD SVG 1.0//EN" "http://www.w3.org/TR/2001/REC-SVG-20010904/DTD/svg10.dtd">
<svg xmlns="http://www.w3.org/2000/svg" width="109" height="109" viewBox="0 0 109 109">
	<g id="HelperGrid" style="opacity:0.75;">
		<rect x="0.5" y="0.5" style="fill:none;stroke:#404040;" width="108" height="108"/> 
		<line style="fill:none;stroke:#404040;" x1="0.5" y1="72.51" x2="108.5" y2="72.51"/>
		<line style="fill:none;stroke:#404040;" x1="0.5" y1="36.49" x2="108.5" y2="36.49"/>
		<line style="fill:none;stroke:#404040;" x1="72.5" y1="0.5" x2="72.5" y2="108.5"/>
		<line style="fill:none;stroke:#404040;" x1="36.5" y1="0.5" x2="36.5" y2="108.5"/>
	</g>
	<g id="Kanji">
		<text transform="matrix(1 0 0 1 0.5 93.3799)" style="font-size:108;">承</text>
	</g>
	<g id="StrokeNumbers" style="font-size:8;fill:#808080">
		<text transform="matrix(1 0 0 1 28.5 14.5)">1</text>
		<text transform="matrix(1 0 0 1 41.25 33.5)">2</text>
		<text transform="matrix(1 0 0 1 36.75 40.479)">3</text>
		<text transform="matrix(1 0 0 1 36.75 53.9043)">4</text>
		<text transform="matrix(1 0 0 1 36.75 68.8291)">5</text>
		<text transform="matrix(1 0 0 1 3.75 49.6299)">6</text>
		<text transform="matrix(1 0 0 1 87.75 30.1299)">7</text>
		<text transform="matrix(1 0 0 1 74.25 55.5547)">8</text>
	</g>
	<g id="StrokePaths" style="fill:none;stroke:#404040;stroke-width:3;stroke-linecap:round;stroke-linejoin:round;">
		<path d="M35.03,17.15c2.23,0.85,4.23,0.93,6.6,0.51c6.49-1.16,14.99-3.41,19.51-4.41c1.51-0.33,3.18,0.98,1.67,3.03c-2.94,3.97-8.07,10.35-13.54,15"/>
		<path d="M46.94,32.24c7.31,9.89,11.93,39.64,3.2,58.83c-4.43,9.73-8.51,2.93-9.89,1.09"/>
		<path d="M40,43.14c0.94,0.38,2.66,0.44,3.6,0.38c4.15-0.27,11.74-1.01,16.66-1.42c1.38-0.11,2.5-0.19,3.21-0.22"/>
		<path d="M40.25,56.39c0.94,0.38,2.66,0.42,3.6,0.38c3.65-0.15,10.96-0.9,15.92-1.33c1.83-0.16,3.33-0.02,4.19-0.05"/>
		<path d="M38.5,71.39c0.94,0.38,2.66,0.43,3.6,0.38C47,71.5,56,70.12,63.05,68.62c1.77-0.38,3.19-0.21,3.91-0.24"/>
		<path d="M11.5,48.63c1.23,0.32,3.06,0.46,4.41,0.14c2.72-0.64,9.59-3.02,12.37-4.19c2.23-0.94,4.2-0.09,3.84,2.82c-1.24,9.85-10.37,28.35-18.42,37.1"/>
		<path d="M85.25,31.75c0,1-0.44,1.94-0.95,2.67c-3.42,4.88-10.08,10.59-15.56,13.08"/>
		<path d="M63.25,46.75c3.69,1.15,17.25,23.14,26.04,32.08c1.87,1.9,3.97,3.74,6.21,5.17"/>
	</g>
</svg>
