<?xml version="1.0" encoding="UTF-8"?>
<!DOCTYPE svg PUBLIC "-//W3C//DTD SVG 1.0//EN" "http://www.w3.org/TR/2001/REC-SVG-20010904/DTD/svg10.dtd">
<svg xmlns="http://www.w3.org/2000/svg" width="109" height="109" viewBox="0 0 109 109">
	<g id="HelperGrid" style="opacity:0.75;">
		<rect x="0.5" y="0.5" style="fill:none;stroke:#404040;" width="108" height="108"/> 
		<line style="fill:none;stroke:#404040;" x1="0.5" y1="72.51" x2="108.5" y2="72.51"/>
		<line style="fill:none;stroke:#404040;" x1="0.5" y1="36.49" x2="108.5" y2="36.49"/>
		<line style="fill:none;stroke:#404040;" x1="72.5" y1="0.5" x2="72.5" y2="108.5"/>
		<line style="fill:none;stroke:#404040;" x1="36.5" y1="0.5" x2="36.5" y2="108.5"/>
	</g>
	<g id="Kanji">
		<text transform="matrix(1 0 0 1 0.5 93.3799)" style="font-size:108;">折</text>
	</g>
	<g id="StrokeNumbers" style="font-size:8;fill:#808080">
		<text transform="matrix(1 0 0 1 7.5 39.1299)">1</text>
		<text transform="matrix(1 0 0 1 23.5 12.5)">2</text>
		<text transform="matrix(1 0 0 1 3.5 65.5)">3</text>
		<text transform="matrix(1 0 0 1 67.5 13.5)">4</text>
		<text transform="matrix(1 0 0 1 47.5 42.5)">5</text>
		<text transform="matrix(1 0 0 1 61.5 43.5)">6</text>
		<text transform="matrix(1 0 0 1 68.25 55.6299)">7</text>
	</g>
	<g id="StrokePaths" style="fill:none;stroke:#404040;stroke-width:3;stroke-linecap:round;stroke-linejoin:round;">
		<path d="M13.5,37c1.9,0.23,3.73,0.42,5.64,0.1c5.11-0.85,13.37-2.65,20.74-4.22c1.31-0.28,2.62-0.51,3.79-0.55"/>
		<path d="M32.27,11.58c1.2,1.2,1.76,2.79,1.76,4.77c0,14.56-0.26,66.16-0.26,71.12c0,12.78-6.22,3.24-8.21,1.25"/>
		<path d="M12.6,63.29c1.1,0.6,2.1,0.76,3.9-0.04c1.75-0.78,18.28-9.76,25.5-14"/>
		<path d="M76.54,13.75c0.05,0.45,0,1.34-0.35,1.82C72,21.38,65.5,27.88,57.12,33"/>
		<path d="M54.49,34.88c0.88,0.88,1.11,2.16,1.16,4.06c0.73,28.93-4.52,43.18-14.9,52.31"/>
		<path d="M57.99,46.59c1.64,0.03,2.7-0.01,3.97-0.17C69.38,45.5,85.5,43,92.77,41.64c1.25-0.24,3.23-0.39,4.52,0"/>
		<path d="M76.33,47.48c0.91,0.91,1.6,2.4,1.6,4c0,1.05,0.03,27.44,0.04,40.9c0,2.48,0,4.51,0,5.88"/>
	</g>
</svg>
