<?xml version="1.0" encoding="UTF-8"?>
<!-- Copyright (C) 2009 Ulrich Apel.
This work is distributed under the conditions of the Creative Commons
Attribution-Share Alike 3.0 Licence. This means you are free:
* to Share - to copy, distribute and transmit the work
* to Remix - to adapt the work

Under the following conditions:
* Attribution. You must attribute the work by stating your use of KanjiVG in
  your own copyright header and linking to KanjiVG's website
  (http://kanjivg.tagaini.net)
* Share Alike. If you alter, transform, or build upon this work, you may
  distribute the resulting work only under the same or similar license to this
  one.

See http://creativecommons.org/licenses/by-sa/3.0/ for more details. -->
<!DOCTYPE svg PUBLIC "-//W3C//DTD SVG 1.0//EN" "http://www.w3.org/TR/2001/REC-SVG-20010904/DTD/svg10.dtd">
<svg xmlns="http://www.w3.org/2000/svg" width="109" height="109" viewBox="0 0 109 109">
	<g id="HelperGrid" style="opacity:0.75;">
		<rect x="0.5" y="0.5" style="fill:none;stroke:#404040;" width="108" height="108"/> 
		<line style="fill:none;stroke:#404040;" x1="0.5" y1="72.51" x2="108.5" y2="72.51"/>
		<line style="fill:none;stroke:#404040;" x1="0.5" y1="36.49" x2="108.5" y2="36.49"/>
		<line style="fill:none;stroke:#404040;" x1="72.5" y1="0.5" x2="72.5" y2="108.5"/>
		<line style="fill:none;stroke:#404040;" x1="36.5" y1="0.5" x2="36.5" y2="108.5"/>
	</g>
	<g id="Kanji">
		<text transform="matrix(1 0 0 1 0.5 93.3799)" style="font-size:108;">抽</text>
	</g>
	<g id="StrokeNumbers" style="font-size:8;fill:#808080">
		<text transform="matrix(1 0 0 1 8.25 39.1299)">1</text>
		<text transform="matrix(1 0 0 1 21.75 16.6299)">2</text>
		<text transform="matrix(1 0 0 1 5.5 73.5)">3</text>
		<text transform="matrix(1 0 0 1 44.5 58.5)">4</text>
		<text transform="matrix(1 0 0 1 52.5 43.5)">5</text>
		<text transform="matrix(1 0 0 1 59.25 15.5)">6</text>
		<text transform="matrix(1 0 0 1 57.5 63.0547)">7</text>
		<text transform="matrix(1 0 0 1 58.5 84.5)">8</text>
	</g>
	<g id="StrokePaths" style="fill:none;stroke:#404040;stroke-width:3;stroke-linecap:round;stroke-linejoin:round;">
		<path d="M14.5,39.42c2.08,0.25,1.27,0.55,3.5,0.25c5.5-0.75,16.5-2.5,25.67-3.67"/>
		<path d="M30.27,16c0.48,0.92,1.76,2.49,1.76,5.52c0,15.23,0.24,53.46,0.24,64.9c0,14.25-6.32,3.53-7.77,2"/>
		<path d="M13.5,69.18c1.25,1.78,3.83,1.61,6.5-0.18c5-3.36,7.5-5.5,18.75-13.58"/>
		<path d="M49.96,46.24c0.32,0.84,1.39,3.39,1.5,4.44C52.5,61,54,76.57,54.83,92.25"/>
		<path d="M51.96,47.53c13.29-1.53,30.62-3.68,39.05-4.51c3.1-0.31,4.67,2.16,4.5,4.44c-0.62,8.36-1.63,31.02-3.84,41.86"/>
		<path d="M69.86,14.82c1.21,1.12,1.92,2.75,1.92,4.24C71.82,33.7,72,83.09,72,86.91"/>
		<path d="M54.31,67.55c9.05-1.04,18.13-1.86,27.2-2.72c1.09-0.1,2.15-0.2,3.17-0.3"/>
		<path d="M55.42,89.1c9.3-0.6,25.14-2.84,36.35-3.07"/>
	</g>
</svg>
