<?xml version="1.0" encoding="UTF-8"?>
<!-- Copyright (C) 2009 Ulrich Apel.
This work is distributed under the conditions of the Creative Commons
Attribution-Share Alike 3.0 Licence. This means you are free:
* to Share - to copy, distribute and transmit the work
* to Remix - to adapt the work

Under the following conditions:
* Attribution. You must attribute the work by stating your use of KanjiVG in
  your own copyright header and linking to KanjiVG's website
  (http://kanjivg.tagaini.net)
* Share Alike. If you alter, transform, or build upon this work, you may
  distribute the resulting work only under the same or similar license to this
  one.

See http://creativecommons.org/licenses/by-sa/3.0/ for more details. -->
<!DOCTYPE svg PUBLIC "-//W3C//DTD SVG 1.0//EN" "http://www.w3.org/TR/2001/REC-SVG-20010904/DTD/svg10.dtd">
<svg xmlns="http://www.w3.org/2000/svg" width="109" height="109" viewBox="0 0 109 109">
	<g id="HelperGrid" style="opacity:0.75;">
		<rect x="0.5" y="0.5" style="fill:none;stroke:#404040;" width="108" height="108"/> 
		<line style="fill:none;stroke:#404040;" x1="0.5" y1="72.51" x2="108.5" y2="72.51"/>
		<line style="fill:none;stroke:#404040;" x1="0.5" y1="36.49" x2="108.5" y2="36.49"/>
		<line style="fill:none;stroke:#404040;" x1="72.5" y1="0.5" x2="72.5" y2="108.5"/>
		<line style="fill:none;stroke:#404040;" x1="36.5" y1="0.5" x2="36.5" y2="108.5"/>
	</g>
	<g id="Kanji">
		<text transform="matrix(1 0 0 1 0.5 93.3799)" style="font-size:108;">拱</text>
	</g>
	<g id="StrokeNumbers" style="font-size:8;fill:#808080">
		<text transform="matrix(1 0 0 1 5.5 38.5)">1</text>
		<text transform="matrix(1 0 0 1 16.5 13.5)">2</text>
		<text transform="matrix(1 0 0 1 4 67.3496)">3</text>
		<text transform="matrix(1 0 0 1 42.5 38.5)">4</text>
		<text transform="matrix(1 0 0 1 44.5 19.5)">5</text>
		<text transform="matrix(1 0 0 1 65.5 15.5)">6</text>
		<text transform="matrix(1 0 0 1 36.5 60.0498)">7</text>
		<text transform="matrix(1 0 0 1 46.5 75.5)">8</text>
		<text transform="matrix(1 0 0 1 69.5 80.5)">9</text>
	</g>
	<g id="StrokePaths" style="fill:none;stroke:#404040;stroke-width:3;stroke-linecap:round;stroke-linejoin:round;">
		<path d="M12,37.92c2.08,0.25,1.27,0.55,3.5,0.25c5.5-0.75,13.5-2,22.67-3.17"/>
		<path d="M25.77,14c0.48,0.92,1.76,2.49,1.76,5.52c0,15.23,0.24,56.46,0.24,67.9c0,14.25-6.32,3.53-7.77,2"/>
		<path d="M10.5,65.13c0.89,0.94,2.3,1.49,4.25,0.62c1.15-0.51,17-10.75,22.5-14.33"/>
		<path d="M42.99,41.61c0.9,0.35,2.56,0.38,3.47,0.35c7.79-0.21,31.29-3.21,41.64-3.71c1.51-0.07,3.41,0.67,4.17,0.85"/>
		<path d="M53.92,20.18c0.97,0.48,1.72,2.12,1.74,3.1c0.15,6.91,1.26,31.34,1.71,39.2"/>
		<path d="M76.24,15.7c0.62,0.48,1.18,2.17,1.11,3.15c-1.18,16.23-1.5,27.64-2.63,43.21"/>
		<path d="M38,63.93c1.38,0.33,3.91,0.36,5.3,0.33c10.69-0.23,36.39-3.13,50.36-2.83c2.3,0.05,3.69,0.16,4.84,0.32"/>
		<path d="M56.69,74.34c0.05,0.53,0.11,1.36-0.11,2.12c-1.29,4.48-9.73,13.13-18.74,20.33"/>
		<path d="M75.35,75.19c6.46,3.54,16.68,14.57,18.3,20.08"/>
	</g>
</svg>
