<?xml version="1.0" encoding="UTF-8"?>
<!-- Copyright (C) 2009 Ulrich Apel.
This work is distributed under the conditions of the Creative Commons
Attribution-Share Alike 3.0 Licence. This means you are free:
* to Share - to copy, distribute and transmit the work
* to Remix - to adapt the work

Under the following conditions:
* Attribution. You must attribute the work by stating your use of KanjiVG in
  your own copyright header and linking to KanjiVG's website
  (http://kanjivg.tagaini.net)
* Share Alike. If you alter, transform, or build upon this work, you may
  distribute the resulting work only under the same or similar license to this
  one.

See http://creativecommons.org/licenses/by-sa/3.0/ for more details. -->
<!DOCTYPE svg PUBLIC "-//W3C//DTD SVG 1.0//EN" "http://www.w3.org/TR/2001/REC-SVG-20010904/DTD/svg10.dtd">
<svg xmlns="http://www.w3.org/2000/svg" width="109" height="109" viewBox="0 0 109 109">
	<g id="HelperGrid" style="opacity:0.75;">
		<rect x="0.5" y="0.5" style="fill:none;stroke:#404040;" width="108" height="108"/> 
		<line style="fill:none;stroke:#404040;" x1="0.5" y1="72.51" x2="108.5" y2="72.51"/>
		<line style="fill:none;stroke:#404040;" x1="0.5" y1="36.49" x2="108.5" y2="36.49"/>
		<line style="fill:none;stroke:#404040;" x1="72.5" y1="0.5" x2="72.5" y2="108.5"/>
		<line style="fill:none;stroke:#404040;" x1="36.5" y1="0.5" x2="36.5" y2="108.5"/>
	</g>
	<g id="Kanji">
		<text transform="matrix(1 0 0 1 0.5 93.3799)" style="font-size:108;">拵</text>
	</g>
	<g id="StrokeNumbers" style="font-size:8;fill:#808080">
		<text transform="matrix(1 0 0 1 5.5 37.5)">1</text>
		<text transform="matrix(1 0 0 1 18.5 12.5)">2</text>
		<text transform="matrix(1 0 0 1 3.5 64.5)">3</text>
		<text transform="matrix(1 0 0 1 40.5 23.5)">4</text>
		<text transform="matrix(1 0 0 1 54.75 12.5)">5</text>
		<text transform="matrix(1 0 0 1 42.5 67.5)">6</text>
		<text transform="matrix(1 0 0 1 62.5 36.5)">7</text>
		<text transform="matrix(1 0 0 1 64.5 53.5)">8</text>
		<text transform="matrix(1 0 0 1 55.5 63.5)">9</text>
	</g>
	<g id="StrokePaths" style="fill:none;stroke:#404040;stroke-width:3;stroke-linecap:round;stroke-linejoin:round;">
		<path d="M12.5,36.92c2.08,0.25,1.27,0.55,3.5,0.25c5.5-0.75,15.5-2.5,24.67-3.67"/>
		<path d="M27.2,12.5c0.5,0.96,1.81,2.62,1.81,5.81c0,16.03,0.25,59.44,0.25,71.47c0,15-6.53,3.72-8.02,2.11"/>
		<path d="M11.5,63.36c1,1.18,2.58,1.87,4.78,0.78C17.57,63.5,36.51,52.5,42,49.42"/>
		<path d="M42.25,26.8c1.25,0.46,3.55,0.58,4.8,0.46c7.7-0.75,31.7-4,44.32-4.74c2.08-0.12,3.34,0.22,4.38,0.45"/>
		<path d="M63.21,12c0.27,2.56,0.28,3.9-0.41,6.19c-4.32,14.41-11.98,32.19-26.05,46.1"/>
		<path d="M48.89,52.5c0.79,0.82,1.01,2.63,1.01,4.32c0,9.93-0.22,26.93-0.22,41.43"/>
		<path d="M59.39,39.13c0.81,0.27,2.34,0.7,3.57,0.46C64.45,39.3,85.45,35,86.86,35c1.42,0,2.96,0.81,1.54,2.43c-1.42,1.62-11.45,12-15.05,14.94"/>
		<path d="M71.54,52.29c5.95,3.48,15.54,25.14,6.24,39.13c-4.05,6.1-6.78,1.41-8.5,0.71"/>
		<path d="M56.84,65.89c0.9,0.72,3.25,0.97,4.88,0.79c5.7-0.63,25.78-4.43,33.29-4.7c1.63-0.06,3.07,0.24,4.16,0.96"/>
	</g>
</svg>
