<?xml version="1.0" encoding="UTF-8"?>
<!DOCTYPE svg PUBLIC "-//W3C//DTD SVG 1.0//EN" "http://www.w3.org/TR/2001/REC-SVG-20010904/DTD/svg10.dtd">
<svg xmlns="http://www.w3.org/2000/svg" width="109" height="109" viewBox="0 0 109 109">
	<g id="HelperGrid" style="opacity:0.75;">
		<rect x="0.5" y="0.5" style="fill:none;stroke:#404040;" width="108" height="108"/> 
		<line style="fill:none;stroke:#404040;" x1="0.5" y1="72.51" x2="108.5" y2="72.51"/>
		<line style="fill:none;stroke:#404040;" x1="0.5" y1="36.49" x2="108.5" y2="36.49"/>
		<line style="fill:none;stroke:#404040;" x1="72.5" y1="0.5" x2="72.5" y2="108.5"/>
		<line style="fill:none;stroke:#404040;" x1="36.5" y1="0.5" x2="36.5" y2="108.5"/>
	</g>
	<g id="Kanji">
		<text transform="matrix(1 0 0 1 0.5 93.3799)" style="font-size:108;">掃</text>
	</g>
	<g id="StrokeNumbers" style="font-size:8;fill:#808080">
		<text transform="matrix(1 0 0 1 8.25 37.6299)">1</text>
		<text transform="matrix(1 0 0 1 20.25 15.1299)">2</text>
		<text transform="matrix(1 0 0 1 3.75 73.6299)">3</text>
		<text transform="matrix(1 0 0 1 44.25 15.1299)">4</text>
		<text transform="matrix(1 0 0 1 45.5 27.5)">5</text>
		<text transform="matrix(1 0 0 1 44.25 37.5)">6</text>
		<text transform="matrix(1 0 0 1 40.5 46.5)">7</text>
		<text transform="matrix(1 0 0 1 49.5 46.5)">8</text>
		<text transform="matrix(1 0 0 1 45.75 72.0547)">9</text>
		<text transform="matrix(1 0 0 1 53.25 60.1299)">10</text>
		<text transform="matrix(1 0 0 1 59.5 55.6299)">11</text>
	</g>
	<g id="StrokePaths" style="fill:none;stroke:#404040;stroke-width:3;stroke-linecap:round;stroke-linejoin:round;">
		<path d="M14.5,39.42c2.08,0.25,1.27,0.55,3.5,0.25c5.5-0.75,14.5-2,23.67-3.17"/>
		<path d="M29.27,15c0.48,0.92,1.76,2.49,1.76,5.52c0,15.23,0.24,52.96,0.24,64.4c0,14.25-6.32,3.53-7.77,2"/>
		<path d="M11.5,67.68c1.25,1.78,3.96,1.79,6.5-0.18c6.75-5.25,8-7,19.25-15.08"/>
		<path d="M52.25,15.25c1.01,0.24,2.5,0.43,4.18,0.43c0.95,0,25.04-2.68,26.57-2.93c1.52-0.24,3.42,0.75,3.05,2.44c-1.33,6.1-2.03,18.05-2.6,21.95"/>
		<path d="M51.39,26.82c0.68,0.23,1.94,0.24,2.62,0.23c4.16-0.04,9.51-0.62,17.98-1.37c2.21-0.2,4.15-0.33,5.62-0.38"/>
		<path d="M51.18,37.6c0.63,0.21,2.79,0.21,3.42,0.21c5.9-0.06,17.9-2.06,26.64-1.87c1.05,0.02,1.68,0.1,2.21,0.2"/>
		<path d="M46.28,45.92c-0.08,4.74-1.96,12.83-2.63,15.66"/>
		<path d="M48.27,48.84c2.41,0,3.72-0.2,5.65-0.44c14.33-1.73,25.61-3.04,37.71-3.68c8.88-0.47,2.13,5.53-1.47,8.22"/>
		<path d="M51.38,61.33c0.43,0.27,1.35,2,1.44,2.54c0.09,0.54-0.06,18.7-0.14,22.04"/>
		<path d="M53.2,63.76c2.71-0.19,28.56-3.46,30.58-3.57c2.38-0.14,3.92,2.35,3.84,3.57c-0.43,6.13,0.2,12.9-1.09,18.94c-1.35,6.34-3.81,0.04-4.71-0.89"/>
		<path d="M68.25,50.47c0.37,0.28,1.17,2.12,1.25,2.68c0.07,0.57-0.05,43.22-0.12,46.76"/>
	</g>
</svg>
