<?xml version="1.0" encoding="UTF-8"?>
<!DOCTYPE svg PUBLIC "-//W3C//DTD SVG 1.0//EN" "http://www.w3.org/TR/2001/REC-SVG-20010904/DTD/svg10.dtd">
<svg xmlns="http://www.w3.org/2000/svg" width="109" height="109" viewBox="0 0 109 109">
	<g id="HelperGrid" style="opacity:0.75;">
		<rect x="0.5" y="0.5" style="fill:none;stroke:#404040;" width="108" height="108"/> 
		<line style="fill:none;stroke:#404040;" x1="0.5" y1="72.51" x2="108.5" y2="72.51"/>
		<line style="fill:none;stroke:#404040;" x1="0.5" y1="36.49" x2="108.5" y2="36.49"/>
		<line style="fill:none;stroke:#404040;" x1="72.5" y1="0.5" x2="72.5" y2="108.5"/>
		<line style="fill:none;stroke:#404040;" x1="36.5" y1="0.5" x2="36.5" y2="108.5"/>
	</g>
	<g id="Kanji">
		<text transform="matrix(1 0 0 1 0.5 93.3799)" style="font-size:108;">掖</text>
	</g>
	<g id="StrokeNumbers" style="font-size:8;fill:#808080">
		<text transform="matrix(1 0 0 1 4.75 38.3799)">1</text>
		<text transform="matrix(1 0 0 1 19.25 14.8047)">2</text>
		<text transform="matrix(1 0 0 1 4.25 67.2285)">3</text>
		<text transform="matrix(1 0 0 1 55.5 10.5)">4</text>
		<text transform="matrix(1 0 0 1 40.5 24.5)">5</text>
		<text transform="matrix(1 0 0 1 46.5 38.5)">6</text>
		<text transform="matrix(1 0 0 1 43.5 71.5)">7</text>
		<text transform="matrix(1 0 0 1 63.5 35.5)">8</text>
		<text transform="matrix(1 0 0 1 78.25 37.2793)">9</text>
		<text transform="matrix(1 0 0 1 73.5 51.5)">10</text>
		<text transform="matrix(1 0 0 1 66.25 62.5)">11</text>
	</g>
	<g id="StrokePaths" style="fill:none;stroke:#404040;stroke-width:3;stroke-linecap:round;stroke-linejoin:round;">
		<path d="M11,37.98c2.23,0.22,1.36,0.48,3.75,0.22c5.89-0.66,16.6-2.19,26.42-3.21"/>
		<path d="M27.2,13.5c0.5,0.94,1.81,2.56,1.81,5.69c0,15.7,0.25,58.21,0.25,70c0,14.69-6.52,3.64-8.01,2.06"/>
		<path d="M11.5,63.99c0.89,1.06,2.32,1.68,4.29,0.7c1.16-0.58,18.19-10.51,23.12-13.28"/>
		<path d="M65.42,10.19c0.7,0.54,1.86,2.61,1.86,3.68c0,3.93-0.09,8.71-0.09,12.08"/>
		<path d="M42,27.77c1.08,0.07,3.55,0.45,4.61,0.36c8.51-0.76,32.34-3.51,43.9-3.7c1.79-0.03,2.7,0.03,4.03,0.46"/>
		<path d="M54.44,35.82c0.17,1.55-0.05,3.57-0.6,4.9c-3.53,8.45-8,17.88-16.09,28.16"/>
		<path d="M48.82,55.59c0.81,0.41,1.1,1.46,1.1,2.39c0,6.02-0.37,30.23-0.37,38.83"/>
		<path d="M72.49,34.46c0.19,0.51,0.57,2.02,0.36,3.03c-1.19,5.97-6.33,17.02-14.77,26.85"/>
		<path d="M74.23,40.64c0.29,0.04,1.55,0.78,2.38,0.66c2.72-0.4,7.05-1.31,10.68-2.85c2.6-1.11,4.16,1.07,3.26,3.31c-7.03,17.51-15.26,34.65-33.05,48.62"/>
		<path d="M69.16,50.55c2.88,1.25,7.45,5.15,8.17,7.09"/>
		<path d="M62.1,59.65c6.59,3.9,23.24,26.75,29.13,31.29c1.68,1.29,2.93,2.26,4.51,2.71"/>
	</g>
</svg>
