<?xml version="1.0" encoding="UTF-8"?>
<!-- Copyright (C) 2009 Ulrich Apel.
This work is distributed under the conditions of the Creative Commons
Attribution-Share Alike 3.0 Licence. This means you are free:
* to Share - to copy, distribute and transmit the work
* to Remix - to adapt the work

Under the following conditions:
* Attribution. You must attribute the work by stating your use of KanjiVG in
  your own copyright header and linking to KanjiVG's website
  (http://kanjivg.tagaini.net)
* Share Alike. If you alter, transform, or build upon this work, you may
  distribute the resulting work only under the same or similar license to this
  one.

See http://creativecommons.org/licenses/by-sa/3.0/ for more details. -->
<!DOCTYPE svg PUBLIC "-//W3C//DTD SVG 1.0//EN" "http://www.w3.org/TR/2001/REC-SVG-20010904/DTD/svg10.dtd">
<svg xmlns="http://www.w3.org/2000/svg" width="109" height="109" viewBox="0 0 109 109">
	<g id="HelperGrid" style="opacity:0.75;">
		<rect x="0.5" y="0.5" style="fill:none;stroke:#404040;" width="108" height="108"/> 
		<line style="fill:none;stroke:#404040;" x1="0.5" y1="72.51" x2="108.5" y2="72.51"/>
		<line style="fill:none;stroke:#404040;" x1="0.5" y1="36.49" x2="108.5" y2="36.49"/>
		<line style="fill:none;stroke:#404040;" x1="72.5" y1="0.5" x2="72.5" y2="108.5"/>
		<line style="fill:none;stroke:#404040;" x1="36.5" y1="0.5" x2="36.5" y2="108.5"/>
	</g>
	<g id="Kanji">
		<text transform="matrix(1 0 0 1 0.5 93.3799)" style="font-size:108;">揣</text>
	</g>
	<g id="StrokeNumbers" style="font-size:8;fill:#808080">
		<text transform="matrix(1 0 0 1 4.5 38.5)">1</text>
		<text transform="matrix(1 0 0 1 17.5 13.5)">2</text>
		<text transform="matrix(1 0 0 1 3.5 69.5)">3</text>
		<text transform="matrix(1 0 0 1 55.5 12.5)">4</text>
		<text transform="matrix(1 0 0 1 40 19.5)">5</text>
		<text transform="matrix(1 0 0 1 78.75 17.5)">6</text>
		<text transform="matrix(1 0 0 1 41.5 45.5)">7</text>
		<text transform="matrix(1 0 0 1 54 55.5)">8</text>
		<text transform="matrix(1 0 0 1 36.75 72.2793)">9</text>
		<text transform="matrix(1 0 0 1 44.5 61.9541)">10</text>
		<text transform="matrix(1 0 0 1 50.5 73.5)">11</text>
		<text transform="matrix(1 0 0 1 63.75 72.0547)">12</text>
	</g>
	<g id="StrokePaths" style="fill:none;stroke:#404040;stroke-width:3;stroke-linecap:round;stroke-linejoin:round;">
		<path d="M11,38.42c2.16,0.25,1.32,0.55,3.62,0.25c5.7-0.75,15.55-2,25.04-3.17"/>
		<path d="M26.18,13.5c0.51,0.96,1.83,2.59,1.83,5.76c0,15.89,0.25,58.91,0.25,70.84c0,14.87-6.6,3.68-8.1,2.09"/>
		<path d="M10.5,67.49c0.89,1.06,2.32,1.68,4.29,0.7c1.16-0.58,19.69-12.01,24.62-14.78"/>
		<path d="M64.79,13c1.35,1.35,2.03,2,2.03,3.43c0,6.07-0.08,12.25-0.2,16.78"/>
		<path d="M47.67,20.2c0.69,0.41,1.49,2.15,1.38,2.97c-0.46,3.66-1.73,7.37-2.35,10.84c-0.33,1.85,0.79,2.05,2.5,1.73C60,33.75,77.9,32.05,86.58,31.82"/>
		<path d="M87.28,17.46c0.62,0.36,1.32,2.71,1.22,3.43c-0.61,4.44-1.26,8.6-1.72,14.35"/>
		<path d="M42.29,47.7c1.33,0.49,3.77,0.56,5.09,0.49c10.23-0.51,27.25-3.24,41.75-3.5c2.21-0.04,3.54,0.23,4.65,0.48"/>
		<path d="M63.47,49.56c0.02,0.29,0.04,0.74-0.04,1.16c-0.49,2.44-3.28,7.8-7.1,11.08"/>
		<path d="M43.5,63.32c0.49,0.85,1.54,2.2,1.66,3.73c0.16,2.2,1.8,28.23,1.8,30.77"/>
		<path d="M44.91,65.25c12.34-1.5,42.23-3.92,43.33-4.13c2.62-0.51,4.26,1.02,4.26,3.05c0,2.88-0.95,23.02-1.65,27.79c-1.1,7.55-4.1,4.05-6.24,1.02"/>
		<path d="M58.76,66.43c0.65,0.62,1.09,1.35,1.15,3.4c0.34,10.67,0.59,21.92,0.8,25.63"/>
		<path d="M73.14,64.72c0.65,0.62,1.24,1.35,1.15,3.4c-0.54,12.63-0.79,20.13-1.33,27.18"/>
	</g>
</svg>
