<?xml version="1.0" encoding="UTF-8"?>
<!DOCTYPE svg PUBLIC "-//W3C//DTD SVG 1.0//EN" "http://www.w3.org/TR/2001/REC-SVG-20010904/DTD/svg10.dtd">
<svg xmlns="http://www.w3.org/2000/svg" width="109" height="109" viewBox="0 0 109 109">
	<g id="HelperGrid" style="opacity:0.75;">
		<rect x="0.5" y="0.5" style="fill:none;stroke:#404040;" width="108" height="108"/> 
		<line style="fill:none;stroke:#404040;" x1="0.5" y1="72.51" x2="108.5" y2="72.51"/>
		<line style="fill:none;stroke:#404040;" x1="0.5" y1="36.49" x2="108.5" y2="36.49"/>
		<line style="fill:none;stroke:#404040;" x1="72.5" y1="0.5" x2="72.5" y2="108.5"/>
		<line style="fill:none;stroke:#404040;" x1="36.5" y1="0.5" x2="36.5" y2="108.5"/>
	</g>
	<g id="Kanji">
		<text transform="matrix(1 0 0 1 0.5 93.3799)" style="font-size:108;">搜</text>
	</g>
	<g id="StrokeNumbers" style="font-size:8;fill:#808080">
		<text transform="matrix(1 0 0 1 5.5 38.5)">1</text>
		<text transform="matrix(1 0 0 1 18.5 13.5)">2</text>
		<text transform="matrix(1 0 0 1 3.5 65.5)">3</text>
		<text transform="matrix(1 0 0 1 40.5 43.5)">6</text>
		<text transform="matrix(1 0 0 1 48.5 18.5)">5</text>
		<text transform="matrix(1 0 0 1 50.75 35.5)">7</text>
		<text transform="matrix(1 0 0 1 70.5 32.5)">9</text>
		<text transform="matrix(1 0 0 1 71.5 19.5)">8</text>
		<text transform="matrix(1 0 0 1 56.75 7.5)">4</text>
		<text transform="matrix(1 0 0 1 51.5 47.5)">10</text>
		<text transform="matrix(1 0 0 1 40.5 61.5)">11</text>
		<text transform="matrix(1 0 0 1 38.5 71.5)">12</text>
	</g>
	<g id="StrokePaths" style="fill:none;stroke:#404040;stroke-width:3;stroke-linecap:round;stroke-linejoin:round;">
		<path d="M12,37.78c1.93,0.23,1.16,0.23,3.24,0.23c3.94,0,16.19-2.31,24.68-3.39"/>
		<path d="M28.1,13.83c0.53,1,1.82,2.71,1.91,6.01c0.44,15.86-0.28,65.54-0.28,70.94c0,11.71-6.76,2.72-8.4,1.36"/>
		<path d="M12,65.18c1.91,1.02,2.64,1.06,4.55,0.18C17.67,64.84,37.23,54.74,42,52.25"/>
		<path d="M57.28,17.71c0.03,0.25-0.18,1.24-0.4,1.52c-2.81,3.62-5.43,6.35-11.83,9.23"/>
		<path d="M43.82,28.17c0.92,0.65,1.29,2.1,1.52,3.43c0.83,4.86,2.91,14.32,3.75,20.9"/>
		<path d="M72.52,22.5c0.65,0.15,2.18,0.45,3.09,0.45S86.53,21.15,87.57,21c1.04-0.15,2.41,0.24,2.33,1.14c-0.78,8.66-5.44,26.38-5.57,26.98"/>
		<path d="M46.99,39.66c2.74-0.34,10.5-2.21,11.15-2.21s1.57,0,2.09,0"/>
		<path d="M72.45,35.27c0.65,0.17,1.18,0.51,2.09,0.51s12.32-1.36,13.36-1.54"/>
		<path d="M48.92,51.1c3.27-0.6,30.05-3.85,34.04-3.89"/>
		<path d="M64.02,10.75c0.82,0.5,1.31,2.25,1.48,3.25s0,38.75-0.16,45"/>
		<path d="M50.41,61.09c1.4,0.29,1.6,0.94,4.38,0.29c4.38-1.02,21.96-3.74,23.89-4.18c1.93-0.44,2.65,2.73,1.93,4.25C72.5,78.5,60.5,92,42,98"/>
		<path d="M48.01,68.33c6.15,0.15,24.09,17.57,38.33,24.51c2.22,1.08,3.84,1.8,5.9,2.16"/>
	</g>
</svg>
