<?xml version="1.0" encoding="UTF-8"?>
<!DOCTYPE svg PUBLIC "-//W3C//DTD SVG 1.0//EN" "http://www.w3.org/TR/2001/REC-SVG-20010904/DTD/svg10.dtd">
<svg xmlns="http://www.w3.org/2000/svg" width="109" height="109" viewBox="0 0 109 109">
	<g id="HelperGrid" style="opacity:0.75;">
		<rect x="0.5" y="0.5" style="fill:none;stroke:#404040;" width="108" height="108"/> 
		<line style="fill:none;stroke:#404040;" x1="0.5" y1="72.51" x2="108.5" y2="72.51"/>
		<line style="fill:none;stroke:#404040;" x1="0.5" y1="36.49" x2="108.5" y2="36.49"/>
		<line style="fill:none;stroke:#404040;" x1="72.5" y1="0.5" x2="72.5" y2="108.5"/>
		<line style="fill:none;stroke:#404040;" x1="36.5" y1="0.5" x2="36.5" y2="108.5"/>
	</g>
	<g id="Kanji">
		<text transform="matrix(1 0 0 1 0.5 93.3799)" style="font-size:108;">擬</text>
	</g>
	<g id="StrokeNumbers" style="font-size:8;fill:#808080">
		<text transform="matrix(1 0 0 1 6.75 41.5)">1</text>
		<text transform="matrix(1 0 0 1 18.75 17.5)">2</text>
		<text transform="matrix(1 0 0 1 4.5 71.5)">3</text>
		<text transform="matrix(1 0 0 1 52.5 18.5)">4</text>
		<text transform="matrix(1 0 0 1 36.5 11.5)">5</text>
		<text transform="matrix(1 0 0 1 38.25 51.5)">6</text>
		<text transform="matrix(1 0 0 1 50.5 53.5)">7</text>
		<text transform="matrix(1 0 0 1 31.5 70.5)">8</text>
		<text transform="matrix(1 0 0 1 43.5 66.5)">9</text>
		<text transform="matrix(1 0 0 1 53.5 76.5)">10</text>
		<text transform="matrix(1 0 0 1 66.75 18.1299)">11</text>
		<text transform="matrix(1 0 0 1 68.25 30.5)">12</text>
		<text transform="matrix(1 0 0 1 62.5 45.5)">13</text>
		<text transform="matrix(1 0 0 1 68.5 54.5)">14</text>
		<text transform="matrix(1 0 0 1 80.5 61.5)">15</text>
		<text transform="matrix(1 0 0 1 57.5 63.5)">16</text>
		<text transform="matrix(1 0 0 1 66.5 87.5)">17</text>
	</g>
	<g id="StrokePaths" style="fill:none;stroke:#404040;stroke-width:3;stroke-linecap:round;stroke-linejoin:round;">
		<path d="M13.5,39.92c2.08,0.25,1.27,0.55,3.5,0.25c5.5-0.75,11-2.17,19.67-3.67"/>
		<path d="M26.77,16c0.48,0.92,1.76,2.49,1.76,5.52c0,15.23,0.24,52.46,0.24,63.9c0,14.25-6.32,3.53-7.77,2"/>
		<path d="M10.5,65.51c1.19,2.02,3.64,1.83,6.18-0.2c4.75-3.81,7.13-6.23,17.82-15.39"/>
		<path d="M44.25,27.75c4-0.75,8.01-1.82,10.62-2.52c0.87-0.23,1.85-0.44,3.18-0.59"/>
		<path d="M43.2,13.75c0.34,0.44,0.36,0.74,0.48,1.33c0.11,0.59,0.11,18.97,0.11,20.81c0,4.76,2.22,5.69,8.44,5.69c3.01,0,7.02-0.75,8.15-2.08"/>
		<path d="M46.25,47c0.03,0.47,0.06,1.21-0.06,1.88c-0.66,3.97-3.92,11.08-8.94,17.37"/>
		<path d="M42.84,58.78c2.24-0.44,9.03-2.38,12.48-3.14c0.91-0.2,1.49-0.26,1.95-0.15"/>
		<path d="M35.11,72.69c0.4,0.17,1.86,0.31,2.29,0.24c7.29-1.24,15.23-3.15,20.83-3.73c0.55-0.06,1.34,0.07,2.58,0.36"/>
		<path d="M50.35,60.23c0,0.83,0.48,1.02,0.35,2.03C48.75,78.25,45.75,88.5,35.5,94.5"/>
		<path d="M48.5,73.75c4.29,1.81,7.34,6.15,9.25,9.25"/>
		<path d="M64.71,22.24c0.71,0.72,2.67,0.51,3.48,0.32c1.59-0.36,15.4-4.51,17.09-4.87c1.68-0.36,2.29,1.2,1.58,2.77c-0.71,1.56-8.55,14.42-9.61,15.86"/>
		<path d="M71,32c1.74,1,6.64,5.28,7.46,7.91"/>
		<path d="M61.49,48.07c1.36,0.33,2.67,0.26,4.05,0c7.83-1.49,15.65-3.7,24.59-5.8c5.4-1.27,2.12,4.73-0.84,7.77"/>
		<path d="M76.7,47.41c0.54,0.33,0.86,1.49,0.96,2.15c0.11,0.66,0.25,29.88,0.14,34.01"/>
		<path d="M77.94,64.9c3.5-0.49,7.21-0.99,12.49-1.98c0.85-0.16,1.07-0.16,1.6,0"/>
		<path d="M67.78,60.36c0.04,0.83,0.09,2.15-0.08,3.34c-1.03,7.04-4.73,23.77-14.94,31.55"/>
		<path d="M66.25,74.5C70.2,77.55,87.54,92,91.84,95.01c1.45,1.02,2.7,1.45,4.16,1.74"/>
	</g>
</svg>
