<?xml version="1.0" encoding="UTF-8"?>
<!-- Copyright (C) 2009 Ulrich Apel.
This work is distributed under the conditions of the Creative Commons
Attribution-Share Alike 3.0 Licence. This means you are free:
* to Share - to copy, distribute and transmit the work
* to Remix - to adapt the work

Under the following conditions:
* Attribution. You must attribute the work by stating your use of KanjiVG in
  your own copyright header and linking to KanjiVG's website
  (http://kanjivg.tagaini.net)
* Share Alike. If you alter, transform, or build upon this work, you may
  distribute the resulting work only under the same or similar license to this
  one.

See http://creativecommons.org/licenses/by-sa/3.0/ for more details. -->
<!DOCTYPE svg PUBLIC "-//W3C//DTD SVG 1.0//EN" "http://www.w3.org/TR/2001/REC-SVG-20010904/DTD/svg10.dtd">
<svg xmlns="http://www.w3.org/2000/svg" width="109" height="109" viewBox="0 0 109 109">
	<g id="HelperGrid" style="opacity:0.75;">
		<rect x="0.5" y="0.5" style="fill:none;stroke:#404040;" width="108" height="108"/> 
		<line style="fill:none;stroke:#404040;" x1="0.5" y1="72.51" x2="108.5" y2="72.51"/>
		<line style="fill:none;stroke:#404040;" x1="0.5" y1="36.49" x2="108.5" y2="36.49"/>
		<line style="fill:none;stroke:#404040;" x1="72.5" y1="0.5" x2="72.5" y2="108.5"/>
		<line style="fill:none;stroke:#404040;" x1="36.5" y1="0.5" x2="36.5" y2="108.5"/>
	</g>
	<g id="Kanji">
		<text transform="matrix(1 0 0 1 0.5 93.3799)" style="font-size:108;">放</text>
	</g>
	<g id="StrokeNumbers" style="font-size:8;fill:#808080">
		<text transform="matrix(1 0 0 1 25.5 16.5)">1</text>
		<text transform="matrix(1 0 0 1 5.5 34.6299)">2</text>
		<text transform="matrix(1 0 0 1 38.5 43.6299)">3</text>
		<text transform="matrix(1 0 0 1 24.5 42.5)">4</text>
		<text transform="matrix(1 0 0 1 58.5 15.5)">5</text>
		<text transform="matrix(1 0 0 1 68.25 36.5)">6</text>
		<text transform="matrix(1 0 0 1 86.5 47.5)">7</text>
		<text transform="matrix(1 0 0 1 62.5 52.6299)">8</text>
	</g>
	<g id="StrokePaths" style="fill:none;stroke:#404040;stroke-width:3;stroke-linecap:round;stroke-linejoin:round;">
		<path d="M33.36,14.75c1.32,1.32,1.98,2.75,1.98,4.41c0,3.96-0.15,7.59-0.15,11.15"/>
		<path d="M13.25,33.12c2.25,0.38,4.01,0.5,6.14,0.31c9.88-0.88,17.86-2.06,26.02-3.43c2.28-0.38,4.6-0.63,6.85-0.38"/>
		<path d="M33,45.75c3.34,0.52,6.63,1.03,9.99,1.36c3.41,0.34,3.82,2.99,3.51,5.64c-1,8.5-8.74,29.43-13.38,34.83c-4.87,5.67-7.72,0.26-9.09-0.57"/>
		<path d="M32.75,34.75c0.62,1.12,0.91,2.54,0.62,3.95C31.22,49.12,24.6,65.77,10.5,76.5"/>
		<path d="M68,15.39c0.25,1.11,0.2,2.02-0.08,3.23c-1.79,7.51-7.09,22.94-14.91,33.5"/>
		<path d="M62.76,39.82c1.65,0.26,2.96,0.45,4.63,0.26c6.96-0.77,15.48-3.09,23.12-4.3c1.19-0.19,2.97-0.48,4.19-0.1"/>
		<path d="M80.35,42c0.55,1.26,0.85,2.17,0.27,4.48C75.43,67.47,65,84.38,46.48,93.5"/>
		<path d="M59.15,53.28c2.69,0.64,18.27,22.67,28.51,32.28c2.17,2.04,4.74,4.45,7.71,5.19"/>
	</g>
</svg>
