<?xml version="1.0" encoding="UTF-8"?>
<!-- Copyright (C) 2009 Ulrich Apel.
This work is distributed under the conditions of the Creative Commons
Attribution-Share Alike 3.0 Licence. This means you are free:
* to Share - to copy, distribute and transmit the work
* to Remix - to adapt the work

Under the following conditions:
* Attribution. You must attribute the work by stating your use of KanjiVG in
  your own copyright header and linking to KanjiVG's website
  (http://kanjivg.tagaini.net)
* Share Alike. If you alter, transform, or build upon this work, you may
  distribute the resulting work only under the same or similar license to this
  one.

See http://creativecommons.org/licenses/by-sa/3.0/ for more details. -->
<!DOCTYPE svg PUBLIC "-//W3C//DTD SVG 1.0//EN" "http://www.w3.org/TR/2001/REC-SVG-20010904/DTD/svg10.dtd">
<svg xmlns="http://www.w3.org/2000/svg" width="109" height="109" viewBox="0 0 109 109">
	<g id="HelperGrid" style="opacity:0.75;">
		<rect x="0.5" y="0.5" style="fill:none;stroke:#404040;" width="108" height="108"/> 
		<line style="fill:none;stroke:#404040;" x1="0.5" y1="72.51" x2="108.5" y2="72.51"/>
		<line style="fill:none;stroke:#404040;" x1="0.5" y1="36.49" x2="108.5" y2="36.49"/>
		<line style="fill:none;stroke:#404040;" x1="72.5" y1="0.5" x2="72.5" y2="108.5"/>
		<line style="fill:none;stroke:#404040;" x1="36.5" y1="0.5" x2="36.5" y2="108.5"/>
	</g>
	<g id="Kanji">
		<text transform="matrix(1 0 0 1 0.5 93.3799)" style="font-size:108;">政</text>
	</g>
	<g id="StrokeNumbers" style="font-size:8;fill:#808080">
		<text transform="matrix(1 0 0 1 9.75 26.5)">1</text>
		<text transform="matrix(1 0 0 1 25.5 36.0547)">2</text>
		<text transform="matrix(1 0 0 1 38.25 44.5)">3</text>
		<text transform="matrix(1 0 0 1 7.5 54.5)">4</text>
		<text transform="matrix(1 0 0 1 3.5 87.5)">5</text>
		<text transform="matrix(1 0 0 1 55.5 15.1299)">6</text>
		<text transform="matrix(1 0 0 1 66.5 34.5547)">7</text>
		<text transform="matrix(1 0 0 1 70.5 47.5)">8</text>
		<text transform="matrix(1 0 0 1 57.75 53.5)">9</text>
	</g>
	<g id="StrokePaths" style="fill:none;stroke:#404040;stroke-width:3;stroke-linecap:round;stroke-linejoin:round;">
		<path d="M16.63,25.09c1.39,0.51,3.3,0.28,4.75,0.22c6.5-0.26,16-2.03,22.52-3.02c1.55-0.23,2.71-0.36,4.23-0.03"/>
		<path d="M31.46,27.37c1.09,1.09,1.76,2.88,1.76,4.79c0,14.62-0.01,41.37-0.01,46.34"/>
		<path d="M34.28,48.98c2.47-0.48,6.97-1.23,11.35-1.84c0.71-0.1,1.65,0.08,2,0.16"/>
		<path d="M16.04,52.62c0.99,0.99,1.56,2.66,1.72,4.62c0.82,9.83,1.29,16.55,2.24,26.26"/>
		<path d="M11.46,86.32c0.96,0.86,2.67,0.7,3.57,0.33c7.79-3.25,15.42-5.9,32.22-12.71"/>
		<path d="M64.62,16c0.03,0.75,0.22,1.99-0.07,3.03c-1.83,6.65-5.71,20.02-12.05,29.22"/>
		<path d="M61.84,38.03c1.48-0.06,2.97-0.04,4.43-0.28c6.86-1.12,14.61-2.5,22.5-4c1.45-0.28,3.58-0.3,5.03,0.11"/>
		<path d="M78.6,41.25c0.53,1.28,0.57,2.69,0.01,5.03C73.57,67.53,63.25,84.5,45.51,93.4"/>
		<path d="M54.19,53.43c6.74,6.44,22.26,25.82,33.21,35.07c1.86,1.57,3.34,2.76,5.84,4.3"/>
	</g>
</svg>
