<?xml version="1.0" encoding="UTF-8"?>
<!-- Copyright (C) 2009 Ulrich Apel.
This work is distributed under the conditions of the Creative Commons
Attribution-Share Alike 3.0 Licence. This means you are free:
* to Share - to copy, distribute and transmit the work
* to Remix - to adapt the work

Under the following conditions:
* Attribution. You must attribute the work by stating your use of KanjiVG in
  your own copyright header and linking to KanjiVG's website
  (http://kanjivg.tagaini.net)
* Share Alike. If you alter, transform, or build upon this work, you may
  distribute the resulting work only under the same or similar license to this
  one.

See http://creativecommons.org/licenses/by-sa/3.0/ for more details. -->
<!DOCTYPE svg PUBLIC "-//W3C//DTD SVG 1.0//EN" "http://www.w3.org/TR/2001/REC-SVG-20010904/DTD/svg10.dtd">
<svg xmlns="http://www.w3.org/2000/svg" width="109" height="109" viewBox="0 0 109 109">
	<g id="HelperGrid" style="opacity:0.75;">
		<rect x="0.5" y="0.5" style="fill:none;stroke:#404040;" width="108" height="108"/> 
		<line style="fill:none;stroke:#404040;" x1="0.5" y1="72.51" x2="108.5" y2="72.51"/>
		<line style="fill:none;stroke:#404040;" x1="0.5" y1="36.49" x2="108.5" y2="36.49"/>
		<line style="fill:none;stroke:#404040;" x1="72.5" y1="0.5" x2="72.5" y2="108.5"/>
		<line style="fill:none;stroke:#404040;" x1="36.5" y1="0.5" x2="36.5" y2="108.5"/>
	</g>
	<g id="Kanji">
		<text transform="matrix(1 0 0 1 0.5 93.3799)" style="font-size:108;">敍</text>
	</g>
	<g id="StrokeNumbers" style="font-size:8;fill:#808080">
		<text transform="matrix(1 0 0 1 28.5 12.5)">1</text>
		<text transform="matrix(1 0 0 1 41.5 19.5)">2</text>
		<text transform="matrix(1 0 0 1 27.5 39.5)">3</text>
		<text transform="matrix(1 0 0 1 5.5 58.5)">4</text>
		<text transform="matrix(1 0 0 1 28.25 51.3291)">5</text>
		<text transform="matrix(1 0 0 1 16.5 69.5)">6</text>
		<text transform="matrix(1 0 0 1 45.5 66.5)">7</text>
		<text transform="matrix(1 0 0 1 59.5 10.5)">8</text>
		<text transform="matrix(1 0 0 1 74.5 23.0293)">9</text>
		<text transform="matrix(1 0 0 1 55.5 43.5)">10</text>
		<text transform="matrix(1 0 0 1 55.5 63.5)">11</text>
	</g>
	<g id="StrokePaths" style="fill:none;stroke:#404040;stroke-width:3;stroke-linecap:round;stroke-linejoin:round;">
		<path d="M35.8,12.25c0.08,0.8,0.31,2.11-0.17,3.2c-4.13,9.05-8.79,18.06-23.17,30.62"/>
		<path d="M36.5,19.75c6.12,4,13.53,10.4,16.75,16"/>
		<path d="M20,43.14c0.71,0.27,2.01,0.32,2.72,0.27c6.86-0.46,17.53-2.89,23.29-3.25c1.06-0.07,1.71,0.13,2.24,0.26"/>
		<path d="M11.98,57.98c1.07,0.49,3.05,0.63,4.13,0.53C28,58,38.25,56.25,49.44,54.66c2.02-0.29,3.26,0.17,4.28,0.33"/>
		<path d="M34.03,44.8c0.09,0.49,1.26,2.57,1.26,5.71c0,20.39-0.26,35.82-0.26,40.95c0,11.63-6.21,2.07-7.71,0.78"/>
		<path d="M24.73,69.25c0.04,0.47,0.16,1.26-0.07,1.87c-1.73,4.47-6.2,11.11-13.27,17.89"/>
		<path d="M45.12,68.49c3.03,2.73,7.84,11.22,8.59,15.46"/>
		<path d="M68.61,10.38c0.39,0.34,1.21,2.53,1.28,3.21c0.08,0.68-0.05,27.57-0.13,31.79"/>
		<path d="M70.43,27.25c2.02-0.25,17.83-3,18.93-3s2.59,0,3.49,0.25"/>
		<path d="M57.36,46.23c1.47,0.38,2.12,0.78,5.09,0.38c4.54-0.61,22-3.56,24.02-4.14s3.59,2.18,2.76,4.22C79.5,70.5,65.75,89.75,45.5,99"/>
		<path d="M59.6,54.7c3.42,1,20.09,27.64,31.98,38.56c1.85,1.7,3.2,2.83,4.92,3.4"/>
	</g>
</svg>
