<?xml version="1.0" encoding="UTF-8"?>
<!DOCTYPE svg PUBLIC "-//W3C//DTD SVG 1.0//EN" "http://www.w3.org/TR/2001/REC-SVG-20010904/DTD/svg10.dtd">
<svg xmlns="http://www.w3.org/2000/svg" width="109" height="109" viewBox="0 0 109 109">
	<g id="HelperGrid" style="opacity:0.75;">
		<rect x="0.5" y="0.5" style="fill:none;stroke:#404040;" width="108" height="108"/> 
		<line style="fill:none;stroke:#404040;" x1="0.5" y1="72.51" x2="108.5" y2="72.51"/>
		<line style="fill:none;stroke:#404040;" x1="0.5" y1="36.49" x2="108.5" y2="36.49"/>
		<line style="fill:none;stroke:#404040;" x1="72.5" y1="0.5" x2="72.5" y2="108.5"/>
		<line style="fill:none;stroke:#404040;" x1="36.5" y1="0.5" x2="36.5" y2="108.5"/>
	</g>
	<g id="Kanji">
		<text transform="matrix(1 0 0 1 0.5 93.3799)" style="font-size:108;">散</text>
	</g>
	<g id="StrokeNumbers" style="font-size:8;fill:#808080">
		<text transform="matrix(1 0 0 1 11.25 31.6299)">1</text>
		<text transform="matrix(1 0 0 1 17.25 18.5)">2</text>
		<text transform="matrix(1 0 0 1 34.5 15.5)">3</text>
		<text transform="matrix(1 0 0 1 3.75 46.5)">4</text>
		<text transform="matrix(1 0 0 1 15.5 62.5)">5</text>
		<text transform="matrix(1 0 0 1 24.75 53.5)">6</text>
		<text transform="matrix(1 0 0 1 27.75 63.5)">7</text>
		<text transform="matrix(1 0 0 1 27.75 74.5)">8</text>
		<text transform="matrix(1 0 0 1 59.5 17.5)">9</text>
		<text transform="matrix(1 0 0 1 69.75 35.5)">10</text>
		<text transform="matrix(1 0 0 1 83.5 46.6299)">11</text>
		<text transform="matrix(1 0 0 1 62.25 54.1299)">12</text>
	</g>
	<g id="StrokePaths" style="fill:none;stroke:#404040;stroke-width:3;stroke-linecap:round;stroke-linejoin:round;">
		<path d="M18.25,29.98c1.29,0.38,2.81,0.53,4.1,0.38c4.9-0.57,20.15-2.72,24.62-2.89c2.16-0.08,3.45,0.18,4.53,0.37"/>
		<path d="M23.25,18c1.26,1.58,1.67,2.06,1.8,3.02c1.26,9.08,2.34,18.43,2.7,21.73"/>
		<path d="M44.03,15.5c0.25,1.32,0.56,2.31,0.29,3.93c-1.6,9.55-2.33,14.33-4.07,23.32"/>
		<path d="M11.75,45.48c1.29,0.38,2.81,0.53,4.1,0.38c4.9-0.57,28.65-3.72,33.12-3.89c2.16-0.08,3.45,0.18,4.53,0.37"/>
		<path d="M22.08,54.58c0.43,0.57,0.71,1.14,0.85,1.7c0.14,0.57,0.2,38.16,0.14,39.44"/>
		<path d="M23.78,55.14c1.7-0.14,17.33-2.54,18.59-2.7c2.27-0.28,3.12,1.85,2.84,2.7c-0.27,0.82-0.43,22.46-0.43,33.96c0,3.65-1.59,4.82-2.29,3.9c-0.9-1.18-1.97-1.91-2.54-2.62"/>
		<path d="M23.78,66.07c3.49-0.51,6.49-0.99,9.99-1.44c0.94-0.12,1.87-0.24,2.77-0.35"/>
		<path d="M24.21,77.28c3.2-0.3,6.4-0.69,9.6-1.05c0.93-0.1,1.86-0.2,2.78-0.3"/>
		<path d="M68.53,17.64c0.04,0.94,0.28,2.48-0.09,3.77C66.1,29.7,60.84,45.54,52.75,57"/>
		<path d="M66.82,38.77c0.65,0.4,1.85,0.48,2.5,0.4c3.43-0.42,15.93-3.67,21.31-4.09c1.17-0.09,1.88-0.02,2.18,0.07"/>
		<path d="M79.54,41.43c0.48,1.31,0.74,2.24,0.24,4.64c-4.54,21.73-14.81,39.56-29.81,48.68"/>
		<path d="M58.73,51.4c6.73,7.53,23.26,32.15,33.28,40.63c1.93,1.63,3.16,1.9,4.74,2.08"/>
	</g>
</svg>
