<?xml version="1.0" encoding="UTF-8"?>
<!-- Copyright (C) 2009 Ulrich Apel.
This work is distributed under the conditions of the Creative Commons
Attribution-Share Alike 3.0 Licence. This means you are free:
* to Share - to copy, distribute and transmit the work
* to Remix - to adapt the work

Under the following conditions:
* Attribution. You must attribute the work by stating your use of KanjiVG in
  your own copyright header and linking to KanjiVG's website
  (http://kanjivg.tagaini.net)
* Share Alike. If you alter, transform, or build upon this work, you may
  distribute the resulting work only under the same or similar license to this
  one.

See http://creativecommons.org/licenses/by-sa/3.0/ for more details. -->
<!DOCTYPE svg PUBLIC "-//W3C//DTD SVG 1.0//EN" "http://www.w3.org/TR/2001/REC-SVG-20010904/DTD/svg10.dtd">
<svg xmlns="http://www.w3.org/2000/svg" width="109" height="109" viewBox="0 0 109 109">
	<g id="HelperGrid" style="opacity:0.75;">
		<rect x="0.5" y="0.5" style="fill:none;stroke:#404040;" width="108" height="108"/> 
		<line style="fill:none;stroke:#404040;" x1="0.5" y1="72.51" x2="108.5" y2="72.51"/>
		<line style="fill:none;stroke:#404040;" x1="0.5" y1="36.49" x2="108.5" y2="36.49"/>
		<line style="fill:none;stroke:#404040;" x1="72.5" y1="0.5" x2="72.5" y2="108.5"/>
		<line style="fill:none;stroke:#404040;" x1="36.5" y1="0.5" x2="36.5" y2="108.5"/>
	</g>
	<g id="Kanji">
		<text transform="matrix(1 0 0 1 0.5 93.3799)" style="font-size:108;">斉</text>
	</g>
	<g id="StrokeNumbers" style="font-size:8;fill:#808080">
		<text transform="matrix(1 0 0 1 44.5 10.5)">1</text>
		<text transform="matrix(1 0 0 1 12.75 22.6299)">2</text>
		<text transform="matrix(1 0 0 1 56.5 29.5)">3</text>
		<text transform="matrix(1 0 0 1 30.5 33.5)">4</text>
		<text transform="matrix(1 0 0 1 27.5 61.6299)">5</text>
		<text transform="matrix(1 0 0 1 40.5 56.5)">6</text>
		<text transform="matrix(1 0 0 1 40.5 71.5)">7</text>
		<text transform="matrix(1 0 0 1 64.5 54.5)">8</text>
	</g>
	<g id="StrokePaths" style="fill:none;stroke:#404040;stroke-width:3;stroke-linecap:round;stroke-linejoin:round;">
		<path d="M52.29,10.5c1.17,1.17,1.64,2.5,1.64,4.37c0,1.63-0.06,4.63-0.06,6"/>
		<path d="M21.16,23.97c3.46,0.4,5.85,0.25,8.97,0.04c11.62-0.81,35.96-2.88,49.36-3.49c2.88-0.13,5.5-0.15,8.83,0.76"/>
		<path d="M67.09,24.5c-0.09,1.25-0.56,2.13-1.68,3.23C55.25,37.75,38.25,49.12,15.87,55"/>
		<path d="M35.07,25.83c13.22,5.84,29.67,15.46,45.78,22.25c3.98,1.68,7.95,3.28,12.24,3.93"/>
		<path d="M33.75,53.25c0.81,0.81,1.2,2.13,1.25,3.5c0.88,22.87-2.38,32.62-11.25,40.75"/>
		<path d="M36.25,60.25c10.82-0.58,28.25-1.71,37.75-2"/>
		<path d="M35.75,74.49c8.58-0.37,28.08-1.48,38-1.72"/>
		<path d="M73.75,52.25c1.06,1.06,1.21,2.25,1.21,3.63c0,2.44-0.01,22.62-0.04,34.62c-0.01,4.33-0.03,7.46-0.04,8.09"/>
	</g>
</svg>
