<?xml version="1.0" encoding="UTF-8"?>
<!-- Copyright (C) 2009 Ulrich Apel.
This work is distributed under the conditions of the Creative Commons
Attribution-Share Alike 3.0 Licence. This means you are free:
* to Share - to copy, distribute and transmit the work
* to Remix - to adapt the work

Under the following conditions:
* Attribution. You must attribute the work by stating your use of KanjiVG in
  your own copyright header and linking to KanjiVG's website
  (http://kanjivg.tagaini.net)
* Share Alike. If you alter, transform, or build upon this work, you may
  distribute the resulting work only under the same or similar license to this
  one.

See http://creativecommons.org/licenses/by-sa/3.0/ for more details. -->
<!DOCTYPE svg PUBLIC "-//W3C//DTD SVG 1.0//EN" "http://www.w3.org/TR/2001/REC-SVG-20010904/DTD/svg10.dtd">
<svg xmlns="http://www.w3.org/2000/svg" width="109" height="109" viewBox="0 0 109 109">
	<g id="HelperGrid" style="opacity:0.75;">
		<rect x="0.5" y="0.5" style="fill:none;stroke:#404040;" width="108" height="108"/> 
		<line style="fill:none;stroke:#404040;" x1="0.5" y1="72.51" x2="108.5" y2="72.51"/>
		<line style="fill:none;stroke:#404040;" x1="0.5" y1="36.49" x2="108.5" y2="36.49"/>
		<line style="fill:none;stroke:#404040;" x1="72.5" y1="0.5" x2="72.5" y2="108.5"/>
		<line style="fill:none;stroke:#404040;" x1="36.5" y1="0.5" x2="36.5" y2="108.5"/>
	</g>
	<g id="Kanji">
		<text transform="matrix(1 0 0 1 0.5 93.3799)" style="font-size:108;">斤</text>
	</g>
	<g id="StrokeNumbers" style="font-size:8;fill:#808080">
		<text transform="matrix(1 0 0 1 56.25 9.5)">1</text>
		<text transform="matrix(1 0 0 1 20.5 37.6299)">2</text>
		<text transform="matrix(1 0 0 1 34.5 41.5)">3</text>
		<text transform="matrix(1 0 0 1 53.5 54.5)">4</text>
	</g>
	<g id="StrokePaths" style="fill:none;stroke:#404040;stroke-width:3;stroke-linecap:round;stroke-linejoin:round;">
		<path d="M65.51,10.5c0,1.25-1.14,2.34-1.95,2.96C57.75,18,45.12,25.38,30.5,30.75"/>
		<path d="M27.43,30.38c1.22,1.22,1.51,2.88,1.52,4.9c0.18,28.1-2.2,41.6-12.39,54.83"/>
		<path d="M32.25,44.19c2.79,0.87,6.84,0.13,9.66-0.3c10.42-1.56,28.97-4.39,39.59-5.48c3.06-0.31,6.43-0.64,9.5-0.07"/>
		<path d="M60.87,44.8c1.04,1.04,1.57,2.33,1.57,4.26c0,6.42-0.05,28.89-0.07,44.56c0,2.8,0,5.39,0,7.62"/>
	</g>
</svg>
