<?xml version="1.0" encoding="UTF-8"?>
<!DOCTYPE svg PUBLIC "-//W3C//DTD SVG 1.0//EN" "http://www.w3.org/TR/2001/REC-SVG-20010904/DTD/svg10.dtd">
<svg xmlns="http://www.w3.org/2000/svg" width="109" height="109" viewBox="0 0 109 109">
	<g id="HelperGrid" style="opacity:0.75;">
		<rect x="0.5" y="0.5" style="fill:none;stroke:#404040;" width="108" height="108"/> 
		<line style="fill:none;stroke:#404040;" x1="0.5" y1="72.51" x2="108.5" y2="72.51"/>
		<line style="fill:none;stroke:#404040;" x1="0.5" y1="36.49" x2="108.5" y2="36.49"/>
		<line style="fill:none;stroke:#404040;" x1="72.5" y1="0.5" x2="72.5" y2="108.5"/>
		<line style="fill:none;stroke:#404040;" x1="36.5" y1="0.5" x2="36.5" y2="108.5"/>
	</g>
	<g id="Kanji">
		<text transform="matrix(1 0 0 1 0.5 93.3799)" style="font-size:108;">斬</text>
	</g>
	<g id="StrokeNumbers" style="font-size:8;fill:#808080">
		<text transform="matrix(1 0 0 1 8.5 29.5)">1</text>
		<text transform="matrix(1 0 0 1 9.5 48.5)">2</text>
		<text transform="matrix(1 0 0 1 18.5 38.229)">3</text>
		<text transform="matrix(1 0 0 1 23 49.9043)">4</text>
		<text transform="matrix(1 0 0 1 23.5 59.5791)">5</text>
		<text transform="matrix(1 0 0 1 4.5 77.5)">6</text>
		<text transform="matrix(1 0 0 1 24.5 13.1797)">7</text>
		<text transform="matrix(1 0 0 1 73.5 13.5)">8</text>
		<text transform="matrix(1 0 0 1 55.25 43.7793)">9</text>
		<text transform="matrix(1 0 0 1 68.75 42.9541)">10</text>
		<text transform="matrix(1 0 0 1 71.5 55.5)">11</text>
	</g>
	<g id="StrokePaths" style="fill:none;stroke:#404040;stroke-width:3;stroke-linecap:round;stroke-linejoin:round;">
		<path d="M15.14,28.54c2.45,0.58,4.83,0.41,7.37,0.12c7.43-0.85,14.84-1.97,22.26-2.74c2.55-0.46,5.09-0.42,7.59,0.13"/>
		<path d="M15.71,40.4c0.52,0.47,1.19,1.84,1.29,2.46c0.71,4.53,2.07,12.94,3.07,21.52"/>
		<path d="M17.48,41.62c7.06-0.8,21.57-3.27,28.66-3.87c3.13-0.26,5.54,1.53,5.05,4.65c-0.93,5.86-2.43,12.45-4.01,19.5"/>
		<path d="M19.61,51.93C27,51.38,37.25,50,48.8,49.4"/>
		<path d="M20.86,62.47c7-0.94,16.76-2.22,25.81-2.52"/>
		<path d="M11.72,75.9c2.63,0.63,5.22,0.42,7.9,0.02c8.41-1.24,17.87-2.25,25.4-2.97c2.33-0.37,4.66-0.4,7-0.09"/>
		<path d="M32.67,14.38c1.23,1.23,1.37,2.87,1.37,5.08c0,6.53,0.01,45.93,0.01,65.66c0,5.3,0,9.22,0,10.76"/>
		<path d="M82.57,13.75c-0.2,0.98-0.56,1.9-1.07,2.76c-4.26,7.24-7.97,10.79-16.01,17.87"/>
		<path d="M61.84,36.33c1.16,1.16,1.37,2.49,1.33,4.44C62.75,63.12,60.62,80,50.81,93.27"/>
		<path d="M65.34,46.85c2.13,0.08,4.23-0.16,6.29-0.72c5.98-1.15,12.75-2.01,20.98-3.16c2.04-0.28,4.08-0.34,6.14-0.22"/>
		<path d="M80.93,47.98c0.98,0.98,1.19,2.27,1.19,3.85c0,0.97-0.07,22.14-0.1,35.8C82.01,91.88,82,95.41,82,97.38"/>
	</g>
</svg>
