<?xml version="1.0" encoding="UTF-8"?>
<!DOCTYPE svg PUBLIC "-//W3C//DTD SVG 1.0//EN" "http://www.w3.org/TR/2001/REC-SVG-20010904/DTD/svg10.dtd">
<svg xmlns="http://www.w3.org/2000/svg" width="109" height="109" viewBox="0 0 109 109">
	<g id="HelperGrid" style="opacity:0.75;">
		<rect x="0.5" y="0.5" style="fill:none;stroke:#404040;" width="108" height="108"/> 
		<line style="fill:none;stroke:#404040;" x1="0.5" y1="72.51" x2="108.5" y2="72.51"/>
		<line style="fill:none;stroke:#404040;" x1="0.5" y1="36.49" x2="108.5" y2="36.49"/>
		<line style="fill:none;stroke:#404040;" x1="72.5" y1="0.5" x2="72.5" y2="108.5"/>
		<line style="fill:none;stroke:#404040;" x1="36.5" y1="0.5" x2="36.5" y2="108.5"/>
	</g>
	<g id="Kanji">
		<text transform="matrix(1 0 0 1 0.5 93.3799)" style="font-size:108;">日</text>
	</g>
	<g id="StrokeNumbers" style="font-size:8;fill:#808080">
		<text transform="matrix(1 0 0 1 25.25 32.6299)">1</text>
		<text transform="matrix(1 0 0 1 34.5 22.5)">2</text>
		<text transform="matrix(1 0 0 1 37.5 51.5)">3</text>
		<text transform="matrix(1 0 0 1 37.5 83.5)">4</text>
	</g>
	<g id="StrokePaths" style="fill:none;stroke:#404040;stroke-width:3;stroke-linecap:round;stroke-linejoin:round;">
		<path d="M31.5,24.5c1.12,1.12,1.74,2.75,1.74,4.75c0,1.6-0.16,38.11-0.09,53.5c0.02,3.82,0.05,6.35,0.09,6.75"/>
		<path d="M33.48,26c0.8-0.05,37.67-3.01,40.77-3.25c3.19-0.25,5,1.75,5,4.25c0,4-0.22,40.84-0.23,56c0,3.48,0,5.72,0,6"/>
		<path d="M34.22,55.25c7.78-0.5,35.9-2.5,44.06-2.75"/>
		<path d="M34.23,86.5c10.52-0.75,34.15-2.12,43.81-2.25"/>
	</g>
</svg>
