<?xml version="1.0" encoding="UTF-8"?>
<!DOCTYPE svg PUBLIC "-//W3C//DTD SVG 1.0//EN" "http://www.w3.org/TR/2001/REC-SVG-20010904/DTD/svg10.dtd">
<svg xmlns="http://www.w3.org/2000/svg" width="109" height="109" viewBox="0 0 109 109">
	<g id="HelperGrid" style="opacity:0.75;">
		<rect x="0.5" y="0.5" style="fill:none;stroke:#404040;" width="108" height="108"/> 
		<line style="fill:none;stroke:#404040;" x1="0.5" y1="72.51" x2="108.5" y2="72.51"/>
		<line style="fill:none;stroke:#404040;" x1="0.5" y1="36.49" x2="108.5" y2="36.49"/>
		<line style="fill:none;stroke:#404040;" x1="72.5" y1="0.5" x2="72.5" y2="108.5"/>
		<line style="fill:none;stroke:#404040;" x1="36.5" y1="0.5" x2="36.5" y2="108.5"/>
	</g>
	<g id="Kanji">
		<text transform="matrix(1 0 0 1 0.5 93.3799)" style="font-size:108;">旺</text>
	</g>
	<g id="StrokeNumbers" style="font-size:8;fill:#808080">
		<text transform="matrix(1 0 0 1 7.25 38.25)">1</text>
		<text transform="matrix(1 0 0 1 17.25 27.25)">2</text>
		<text transform="matrix(1 0 0 1 19.25 48.25)">3</text>
		<text transform="matrix(1 0 0 1 19.0781 72.1758)">4</text>
		<text transform="matrix(1 0 0 1 40.25 18.25)">5</text>
		<text transform="matrix(1 0 0 1 58.25 30.25)">6</text>
		<text transform="matrix(1 0 0 1 44.25 50.25)">7</text>
		<text transform="matrix(1 0 0 1 38.25 85.25)">8</text>
	</g>
	<g id="StrokePaths" style="fill:none;stroke:#404040;stroke-width:3;stroke-linecap:round;stroke-linejoin:round;">
		<path d="M13.77,29.8c0.43,0.72,0.85,1.54,0.85,2.5c0,0.96-0.14,45.24,0,46.2"/>
		<path d="M15.33,31.3c5.54-0.98,14.3-2.36,18.53-3.06c1.8-0.3,2.86,1.32,2.86,2.04c0,3.7-1.06,39.73-1.06,46.37"/>
		<path d="M14.66,52.09c3.72-0.34,7.44-0.73,11.16-1.11c0.92-0.1,1.84-0.19,2.74-0.28"/>
		<path d="M15.06,75.8c6.63-0.52,14.69-1.8,20.15-2.38"/>
		<path d="M43.61,21.85c0.86,0.51,3.66,0.14,4.53,0.03c9.51-1.22,27.86-3.65,37.59-4.18c1.33-0.07,2.53,0.1,3.63,0.53"/>
		<path d="M64.36,22.61c1.74,2.33,1.74,3.73,1.74,5.6c0,13.06-0.02,37.21-0.02,58.14"/>
		<path d="M45.39,53.62c0.79,0.52,3.42,0.31,4.23,0.23c8.46-0.91,23.48-2.73,33.41-3.65c0.99-0.09,3.17-0.21,4.65,0.24"/>
		<path d="M39.34,88.14c1.41,0.36,3.89,0.72,6.1,0.5c14.3-1.4,28.8-3.15,45.7-2.87c1.76,0.03,3.87,0.4,4.75,0.78"/>
	</g>
</svg>
