<?xml version="1.0" encoding="UTF-8"?>
<!-- Copyright (C) 2009 Ulrich Apel.
This work is distributed under the conditions of the Creative Commons
Attribution-Share Alike 3.0 Licence. This means you are free:
* to Share - to copy, distribute and transmit the work
* to Remix - to adapt the work

Under the following conditions:
* Attribution. You must attribute the work by stating your use of KanjiVG in
  your own copyright header and linking to KanjiVG's website
  (http://kanjivg.tagaini.net)
* Share Alike. If you alter, transform, or build upon this work, you may
  distribute the resulting work only under the same or similar license to this
  one.

See http://creativecommons.org/licenses/by-sa/3.0/ for more details. -->
<!DOCTYPE svg PUBLIC "-//W3C//DTD SVG 1.0//EN" "http://www.w3.org/TR/2001/REC-SVG-20010904/DTD/svg10.dtd">
<svg xmlns="http://www.w3.org/2000/svg" width="109" height="109" viewBox="0 0 109 109">
	<g id="HelperGrid" style="opacity:0.75;">
		<rect x="0.5" y="0.5" style="fill:none;stroke:#404040;" width="108" height="108"/> 
		<line style="fill:none;stroke:#404040;" x1="0.5" y1="72.51" x2="108.5" y2="72.51"/>
		<line style="fill:none;stroke:#404040;" x1="0.5" y1="36.49" x2="108.5" y2="36.49"/>
		<line style="fill:none;stroke:#404040;" x1="72.5" y1="0.5" x2="72.5" y2="108.5"/>
		<line style="fill:none;stroke:#404040;" x1="36.5" y1="0.5" x2="36.5" y2="108.5"/>
	</g>
	<g id="Kanji">
		<text transform="matrix(1 0 0 1 0.5 93.3799)" style="font-size:108;">昴</text>
	</g>
	<g id="StrokeNumbers" style="font-size:8;fill:#808080">
		<text transform="matrix(1 0 0 1 24.5977 20.25)">1</text>
		<text transform="matrix(1 0 0 1 34.25 11.25)">2</text>
		<text transform="matrix(1 0 0 1 38.25 22.25)">3</text>
		<text transform="matrix(1 0 0 1 38.0781 32.25)">4</text>
		<text transform="matrix(1 0 0 1 32.25 46.25)">5</text>
		<text transform="matrix(1 0 0 1 15.25 57.25)">6</text>
		<text transform="matrix(1 0 0 1 36 57.25)">7</text>
		<text transform="matrix(1 0 0 1 66.25 42.25)">8</text>
		<text transform="matrix(1 0 0 1 56.25 52.25)">9</text>
	</g>
	<g id="StrokePaths" style="fill:none;stroke:#404040;stroke-width:3;stroke-linecap:round;stroke-linejoin:round;">
		<path d="M29.74,13.35c0.47,0.43,0.6,0.68,0.75,1.26C32,20.5,33.67,30.21,35,38.46"/>
		<path d="M32.97,14.75c11.47-0.92,32.1-2.44,40.66-3.22c3.14-0.28,3.79,1.63,3.63,2.64c-0.59,3.69-2.54,14.71-3.98,20.88"/>
		<path d="M35.11,24.68c6.67-0.63,13.38-0.95,20.06-1.38c2.26-0.15,4.52-0.29,6.66-0.43"/>
		<path d="M35.83,34.51c10.62-1.01,26.53-1.49,37.93-2.13"/>
		<path d="M42.71,41.75c0.05,0.22,0.2,0.64-0.1,0.89c-3.73,3.14-9.24,6.02-18.96,8.55"/>
		<path d="M21.12,49.47c0.82,0.31,1.31,1.92,1.47,2.54c0.16,0.63,0.34,22.89,0.16,24.45c-0.16,1.42-1.47,4.09,0.49,2.99c1.96-1.1,15.76-9.21,22.53-12.44"/>
		<path d="M44.94,53.47c0.92,0.58,1.67,3.03,1.67,4.52C46.61,69.63,47,88,28.97,97.9"/>
		<path d="M60.25,43.83c0.71,0.18,2.14,1.29,3.56,1.1c1.42-0.18,17.28-1.84,19.06-2.02c1.78-0.18,4.45-0.37,4.63,3.49c0.08,1.85-1,22.82-2.85,31.26c-2.14,9.78-5.52,1.78-6.05,1.41"/>
		<path d="M63.47,46.11c0.2,0.93,0,47.34-0.2,53.14"/>
	</g>
</svg>
