<?xml version="1.0" encoding="UTF-8"?>
<!DOCTYPE svg PUBLIC "-//W3C//DTD SVG 1.0//EN" "http://www.w3.org/TR/2001/REC-SVG-20010904/DTD/svg10.dtd">
<svg xmlns="http://www.w3.org/2000/svg" width="109" height="109" viewBox="0 0 109 109">
	<g id="HelperGrid" style="opacity:0.75;">
		<rect x="0.5" y="0.5" style="fill:none;stroke:#404040;" width="108" height="108"/> 
		<line style="fill:none;stroke:#404040;" x1="0.5" y1="72.51" x2="108.5" y2="72.51"/>
		<line style="fill:none;stroke:#404040;" x1="0.5" y1="36.49" x2="108.5" y2="36.49"/>
		<line style="fill:none;stroke:#404040;" x1="72.5" y1="0.5" x2="72.5" y2="108.5"/>
		<line style="fill:none;stroke:#404040;" x1="36.5" y1="0.5" x2="36.5" y2="108.5"/>
	</g>
	<g id="Kanji">
		<text transform="matrix(1 0 0 1 0.5 93.3799)" style="font-size:108;">晒</text>
	</g>
	<g id="StrokeNumbers" style="font-size:8;fill:#808080">
		<text transform="matrix(1 0 0 1 5.5 38.5)">1</text>
		<text transform="matrix(1 0 0 1 15.5 28.5)">2</text>
		<text transform="matrix(1 0 0 1 16.5 49.5)">3</text>
		<text transform="matrix(1 0 0 1 17.4434 73.5)">4</text>
		<text transform="matrix(1 0 0 1 37.5 22.5)">5</text>
		<text transform="matrix(1 0 0 1 36.4434 62.7559)">6</text>
		<text transform="matrix(1 0 0 1 44.4434 43.5)">7</text>
		<text transform="matrix(1 0 0 1 51.5 34.5)">8</text>
		<text transform="matrix(1 0 0 1 66.5 33.5303)">9</text>
		<text transform="matrix(1 0 0 1 47.5 82.5)">10</text>
	</g>
	<g id="StrokePaths" style="fill:none;stroke:#404040;stroke-width:3;stroke-linecap:round;stroke-linejoin:round;">
		<path d="M12.27,30.96c0.37,0.79,0.74,1.69,0.74,2.75c0,1.06-0.12,44.74,0,45.79"/>
		<path d="M13.62,32.61c4.82-1.08,12.43-2.6,16.11-3.36c1.56-0.33,2.49,1.45,2.49,2.24c0,4.08-0.49,38.67-0.49,45.97"/>
		<path d="M13.04,53.47c3.24-0.37,6.47-0.8,9.7-1.22c0.8-0.1,1.6-0.21,2.39-0.31"/>
		<path d="M13.39,76.53c5.77-0.57,11.01-1.58,17.95-2.07"/>
		<path d="M38.45,25.23c0.9,0.39,4.06,0.43,4.96,0.39c11.94-0.47,34.69-3.7,48.93-3.93c1.5-0.02,2.91,0.19,3.66,0.39"/>
		<path d="M39.79,44.88c0.82,0.79,1.86,3.36,2.02,4.4c1.11,7.58,1.95,25.29,3.52,39.63"/>
		<path d="M41.39,47.17c12.48-1.52,41.38-4.69,49.89-4.92c3.53-0.1,5.11,2.7,4.68,6.41c-1.05,9.01-1.86,24.28-5.21,37.72"/>
		<path d="M58.8,28.1c0.46,1.11,0.87,3.54,0.78,5.08c-0.81,13.81-2.33,31.58-11.8,36.86"/>
		<path d="M72.92,26.77c0.73,1.1,1.36,2.4,1.36,4.09c0,14.82-0.35,22.65-0.35,27.14c0,5.76,0.82,7.43,6.36,7.43c4.69,0,7.78-1.16,8.04-1.5"/>
		<path d="M46,86.24c10.47-0.54,32.07-2.26,44.81-2.49"/>
	</g>
</svg>
