<?xml version="1.0" encoding="UTF-8"?>
<!-- Copyright (C) 2009 Ulrich Apel.
This work is distributed under the conditions of the Creative Commons
Attribution-Share Alike 3.0 Licence. This means you are free:
* to Share - to copy, distribute and transmit the work
* to Remix - to adapt the work

Under the following conditions:
* Attribution. You must attribute the work by stating your use of KanjiVG in
  your own copyright header and linking to KanjiVG's website
  (http://kanjivg.tagaini.net)
* Share Alike. If you alter, transform, or build upon this work, you may
  distribute the resulting work only under the same or similar license to this
  one.

See http://creativecommons.org/licenses/by-sa/3.0/ for more details. -->
<!DOCTYPE svg PUBLIC "-//W3C//DTD SVG 1.0//EN" "http://www.w3.org/TR/2001/REC-SVG-20010904/DTD/svg10.dtd">
<svg xmlns="http://www.w3.org/2000/svg" width="109" height="109" viewBox="0 0 109 109">
	<g id="HelperGrid" style="opacity:0.75;">
		<rect x="0.5" y="0.5" style="fill:none;stroke:#404040;" width="108" height="108"/> 
		<line style="fill:none;stroke:#404040;" x1="0.5" y1="72.51" x2="108.5" y2="72.51"/>
		<line style="fill:none;stroke:#404040;" x1="0.5" y1="36.49" x2="108.5" y2="36.49"/>
		<line style="fill:none;stroke:#404040;" x1="72.5" y1="0.5" x2="72.5" y2="108.5"/>
		<line style="fill:none;stroke:#404040;" x1="36.5" y1="0.5" x2="36.5" y2="108.5"/>
	</g>
	<g id="Kanji">
		<text transform="matrix(1 0 0 1 0.5 93.3799)" style="font-size:108;">景</text>
	</g>
	<g id="StrokeNumbers" style="font-size:8;fill:#808080">
		<text transform="matrix(1 0 0 1 24.4922 22.6309)">1</text>
		<text transform="matrix(1 0 0 1 33.5 12.5)">2</text>
		<text transform="matrix(1 0 0 1 37.9922 23.9805)">3</text>
		<text transform="matrix(1 0 0 1 37.9922 34.4053)">4</text>
		<text transform="matrix(1 0 0 1 45.4922 43.3296)">5</text>
		<text transform="matrix(1 0 0 1 7.5 50.5)">6</text>
		<text transform="matrix(1 0 0 1 30.4922 65.6797)">7</text>
		<text transform="matrix(1 0 0 1 40.5 56.5)">8</text>
		<text transform="matrix(1 0 0 1 44.5 68.5)">9</text>
		<text transform="matrix(1 0 0 1 43.5 80.4551)">10</text>
		<text transform="matrix(1 0 0 1 21.9434 79.5)">11</text>
		<text transform="matrix(1 0 0 1 64.5 80.5)">12</text>
	</g>
	<g id="StrokePaths" style="fill:none;stroke:#404040;stroke-width:3;stroke-linecap:round;stroke-linejoin:round;">
		<path d="M30.5,15.26c0.72,0.52,1.29,1.79,1.46,2.52c0.8,3.48,2.8,14.98,3.76,20.6"/>
		<path d="M32.63,16.21c4.05-0.31,37.35-3.57,41.04-3.88c3.07-0.26,5.09,1.42,4.84,3.42c-0.51,4.09-4.69,18.85-4.68,19.41"/>
		<path d="M33.97,26.54c6.42-0.35,12.83-1.1,19.23-1.7c2.14-0.2,5.31-0.4,7.44-0.59"/>
		<path d="M36.89,36.28c11.36-0.78,26.78-2.35,37.26-2.91"/>
		<path d="M49.63,37.17c2.31,0.85,5.12,3.08,6.12,5.98"/>
		<path d="M15.25,49.59c1.42,0.05,4.65,0.42,6.02,0.29C34,48.67,76.25,44.94,89.5,44.63c2.34-0.05,3.53-0.03,5.26,0.41"/>
		<path d="M36.3,57.57c0.54,0.29,1.22,0.5,1.33,0.88c0.82,2.81,1.94,9.75,3.15,15.08"/>
		<path d="M38.08,58.88c8.15-1.09,25.44-3.31,30.97-3.76c2.29-0.19,4.42,1.54,3.49,3.68c-1.03,2.39-2.26,5.84-3.7,9.16"/>
		<path d="M41.16,72.08C49.5,70.75,60.5,70,70.7,68.88"/>
		<path d="M54.27,72.88c0.09,0.35,1.11,1.83,1.26,4.07c0.23,3.61-0.26,12.82-0.26,15.92c0,10.63-7.21,0.37-8.71-0.55"/>
		<path d="M32,80.9c0.04,0.32,0.07,0.83-0.07,1.3c-0.85,2.73-5.74,8.73-12.43,12.4"/>
		<path d="M76,80.9c3.8,2.42,9.05,9.15,10,12.91"/>
	</g>
</svg>
