<?xml version="1.0" encoding="UTF-8"?>
<!DOCTYPE svg PUBLIC "-//W3C//DTD SVG 1.0//EN" "http://www.w3.org/TR/2001/REC-SVG-20010904/DTD/svg10.dtd">
<svg xmlns="http://www.w3.org/2000/svg" width="109" height="109" viewBox="0 0 109 109">
	<g id="HelperGrid" style="opacity:0.75;">
		<rect x="0.5" y="0.5" style="fill:none;stroke:#404040;" width="108" height="108"/> 
		<line style="fill:none;stroke:#404040;" x1="0.5" y1="72.51" x2="108.5" y2="72.51"/>
		<line style="fill:none;stroke:#404040;" x1="0.5" y1="36.49" x2="108.5" y2="36.49"/>
		<line style="fill:none;stroke:#404040;" x1="72.5" y1="0.5" x2="72.5" y2="108.5"/>
		<line style="fill:none;stroke:#404040;" x1="36.5" y1="0.5" x2="36.5" y2="108.5"/>
	</g>
	<g id="Kanji">
		<text transform="matrix(1 0 0 1 0.5 93.3799)" style="font-size:108;">曇</text>
	</g>
	<g id="StrokeNumbers" style="font-size:8;fill:#808080">
		<text transform="matrix(1 0 0 1 26.5 20.5)">1</text>
		<text transform="matrix(1 0 0 1 34.5 10.5)">2</text>
		<text transform="matrix(1 0 0 1 39.5 19.5)">3</text>
		<text transform="matrix(1 0 0 1 40.5 28.5)">4</text>
		<text transform="matrix(1 0 0 1 27.75 40.4043)">5</text>
		<text transform="matrix(1 0 0 1 14.5 53.5)">6</text>
		<text transform="matrix(1 0 0 1 26.25 49.6299)">7</text>
		<text transform="matrix(1 0 0 1 45.75 45.5)">8</text>
		<text transform="matrix(1 0 0 1 27.5 57.5)">9</text>
		<text transform="matrix(1 0 0 1 21.5 65.5)">10</text>
		<text transform="matrix(1 0 0 1 57.5 55.0752)">11</text>
		<text transform="matrix(1 0 0 1 57.5 62.5)">12</text>
		<text transform="matrix(1 0 0 1 28.5 72.5)">13</text>
		<text transform="matrix(1 0 0 1 8.5 84.5)">14</text>
		<text transform="matrix(1 0 0 1 30.5 91.5)">15</text>
		<text transform="matrix(1 0 0 1 55.5 88.5)">16</text>
	</g>
	<g id="StrokePaths" style="fill:none;stroke:#404040;stroke-width:3;stroke-linecap:round;stroke-linejoin:round;">
		<path d="M31.45,13.2c0.67,0.67,1.11,1.53,1.31,2.25c1.61,5.79,1.99,8.08,3.17,13.26c0.27,1.19,0.63,2.35,0.8,3.49"/>
		<path d="M32.88,14.14C46.5,12.62,62.94,11.21,71,10.52c2.67-0.23,4.62,0.91,4.21,3.74c-0.37,2.55-1.47,6.75-2.52,10.79c-0.41,1.55-0.8,3.08-1.15,4.48"/>
		<path d="M35.88,21.95c8.24-1.08,30.12-2.83,37.07-3.02"/>
		<path d="M37.53,30.33c8.1-0.71,23.43-2.15,33.47-2.83"/>
		<path d="M34.21,39.56c2.2,0.23,4.24,0.08,6.42-0.18c5.47-0.67,16.34-1.84,25.25-2.39c2.12-0.13,4.26-0.3,6.37-0.03"/>
		<path d="M21.1,48.77c-0.2,5.28-1.95,10.09-3.22,15.35"/>
		<path d="M22.25,51.4c17.62-2.03,49-5.13,63.5-5.51c11.49-0.3,1.54,6.18,0.25,7.5"/>
		<path d="M51.48,40.25c1.07,1.07,1.57,2.5,1.57,3.78c0,1.38,0.03,9.99,0.04,15.59c0.01,2.74,0.02,4.76,0.02,4.87"/>
		<path d="M34.38,55.5c2.54,0.56,6,2.24,7.38,3.18"/>
		<path d="M29.97,62.22c2.5,0.58,6.37,2.69,7.74,3.65"/>
		<path d="M67.68,53.11c3.02,0.92,6.44,2.77,7.65,3.54"/>
		<path d="M65.75,60c2.57,0.75,6.08,3.01,7.49,4.26"/>
		<path d="M38,71.05c1.45,0.45,3.27,0.23,4.77,0.14c5.35-0.33,13.07-1.34,21.23-1.92c1.38-0.1,2.64-0.16,4,0.09"/>
		<path d="M19,82.5c3.04,0.63,6.22,0.27,9.27-0.01c13.03-1.17,33.23-3.83,52.36-4.63c3.39-0.14,6.87-0.11,9.87,0.64"/>
		<path d="M47.68,83.59c0.07,0.93-0.34,1.83-1.11,2.72c-2.57,2.94-5.82,5.94-10.04,9.73c-1.74,1.56-1.5,2.75,1.26,2.15c7.71-1.68,19.84-3.81,32.96-6.11"/>
		<path d="M65.46,85.44c4.36,2.44,11.26,10.02,12.35,13.81"/>
	</g>
</svg>
