<?xml version="1.0" encoding="UTF-8"?>
<!DOCTYPE svg PUBLIC "-//W3C//DTD SVG 1.0//EN" "http://www.w3.org/TR/2001/REC-SVG-20010904/DTD/svg10.dtd">
<svg xmlns="http://www.w3.org/2000/svg" width="109" height="109" viewBox="0 0 109 109">
	<g id="HelperGrid" style="opacity:0.75;">
		<rect x="0.5" y="0.5" style="fill:none;stroke:#404040;" width="108" height="108"/> 
		<line style="fill:none;stroke:#404040;" x1="0.5" y1="72.51" x2="108.5" y2="72.51"/>
		<line style="fill:none;stroke:#404040;" x1="0.5" y1="36.49" x2="108.5" y2="36.49"/>
		<line style="fill:none;stroke:#404040;" x1="72.5" y1="0.5" x2="72.5" y2="108.5"/>
		<line style="fill:none;stroke:#404040;" x1="36.5" y1="0.5" x2="36.5" y2="108.5"/>
	</g>
	<g id="Kanji">
		<text transform="matrix(1 0 0 1 0.5 93.3799)" style="font-size:108;">朞</text>
	</g>
	<g id="StrokeNumbers" style="font-size:8;fill:#808080">
		<text transform="matrix(1 0 0 1 15.5 21.5)">1</text>
		<text transform="matrix(1 0 0 1 28.5 10.5)">2</text>
		<text transform="matrix(1 0 0 1 58.5 9.5)">3</text>
		<text transform="matrix(1 0 0 1 43.0923 27.5)">4</text>
		<text transform="matrix(1 0 0 1 43.25 36.5)">5</text>
		<text transform="matrix(1 0 0 1 7.5 48.5)">6</text>
		<text transform="matrix(1 0 0 1 28.5 56.5)">7</text>
		<text transform="matrix(1 0 0 1 77.5 53.604)">8</text>
		<text transform="matrix(1 0 0 1 33.25 69.5293)">9</text>
		<text transform="matrix(1 0 0 1 44.5 56.5)">10</text>
		<text transform="matrix(1 0 0 1 44.728 67.5)">11</text>
		<text transform="matrix(1 0 0 1 44.563 78.5)">12</text>
	</g>
	<g id="StrokePaths" style="fill:none;stroke:#404040;stroke-width:3;stroke-linecap:round;stroke-linejoin:round;">
		<path d="M21.5,20.27c1.02,0.25,2.89,0.27,3.9,0.25c11.6-0.27,43.85-2.35,56.03-2.7c1.7-0.05,2.72,0.12,3.57,0.24"/>
		<path d="M35.87,10.39c1.09,0.35,1.92,1.54,1.96,2.27C38,16,39.75,40.5,40.11,46.43"/>
		<path d="M67.87,9.25C68.5,10,69.25,11,69.33,12.52c0.2,3.74-2,28.16-2.22,32.52"/>
		<path d="M40.25,29.55c4.54-0.19,9.07-0.62,13.59-0.96c1.45-0.11,2.89-0.22,4.27-0.32"/>
		<path d="M40,37.81c4.17-0.16,9.84-0.51,14-0.78c1.31-0.09,2.64-0.17,3.95-0.26"/>
		<path d="M14.25,47.89c1.56,0.43,4.44,0.56,5.99,0.43c13.31-1.17,51.13-4.11,68.04-4.1c2.6,0,4.17,0.2,5.47,0.42"/>
		<path d="M39.31,49.84c0.07,0.5,0.28,1.36-0.14,2.02c-3.27,5.2-11.44,13.63-24.78,19.36"/>
		<path d="M67.02,47.22C74.75,55,82.81,61.63,89.99,66.4c1.63,1.08,4.17,1.99,5.57,2.64"/>
		<path d="M39.75,58.79c0.56,0.74,0.93,1.49,1.12,2.23c0.19,0.75,0.3,9.37,0.19,11.05c-0.8,11.43-3.35,20.68-8.38,26.08"/>
		<path d="M40.98,60.28c2.23-0.19,24.73-2.83,26.4-3.04c2.98-0.37,4.1,2.42,3.72,3.54c-0.36,1.07-0.56,18.88-0.56,33.96c0,9.68-3.97,3.35-5.83,1.68"/>
		<path d="M41.98,70.62c4.8-0.7,9.67-1.04,14.51-1.39c1.32-0.09,2.64-0.18,3.92-0.27"/>
		<path d="M40.54,81.02c4.77-0.44,10.06-0.78,14.84-1.12c1.44-0.1,2.88-0.2,4.29-0.3"/>
	</g>
</svg>
