<?xml version="1.0" encoding="UTF-8"?>
<!-- Copyright (C) 2009 Ulrich Apel.
This work is distributed under the conditions of the Creative Commons
Attribution-Share Alike 3.0 Licence. This means you are free:
* to Share - to copy, distribute and transmit the work
* to Remix - to adapt the work

Under the following conditions:
* Attribution. You must attribute the work by stating your use of KanjiVG in
  your own copyright header and linking to KanjiVG's website
  (http://kanjivg.tagaini.net)
* Share Alike. If you alter, transform, or build upon this work, you may
  distribute the resulting work only under the same or similar license to this
  one.

See http://creativecommons.org/licenses/by-sa/3.0/ for more details. -->
<!DOCTYPE svg PUBLIC "-//W3C//DTD SVG 1.0//EN" "http://www.w3.org/TR/2001/REC-SVG-20010904/DTD/svg10.dtd">
<svg xmlns="http://www.w3.org/2000/svg" width="109" height="109" viewBox="0 0 109 109">
	<g id="HelperGrid" style="opacity:0.75;">
		<rect x="0.5" y="0.5" style="fill:none;stroke:#404040;" width="108" height="108"/> 
		<line style="fill:none;stroke:#404040;" x1="0.5" y1="72.51" x2="108.5" y2="72.51"/>
		<line style="fill:none;stroke:#404040;" x1="0.5" y1="36.49" x2="108.5" y2="36.49"/>
		<line style="fill:none;stroke:#404040;" x1="72.5" y1="0.5" x2="72.5" y2="108.5"/>
		<line style="fill:none;stroke:#404040;" x1="36.5" y1="0.5" x2="36.5" y2="108.5"/>
	</g>
	<g id="Kanji">
		<text transform="matrix(1 0 0 1 0.5 93.3799)" style="font-size:108;">朴</text>
	</g>
	<g id="StrokeNumbers" style="font-size:8;fill:#808080">
		<text transform="matrix(1 0 0 1 6.75 36.1299)">1</text>
		<text transform="matrix(1 0 0 1 26.25 15.1299)">2</text>
		<text transform="matrix(1 0 0 1 23.25 49.6299)">3</text>
		<text transform="matrix(1 0 0 1 43.5 45.5)">4</text>
		<text transform="matrix(1 0 0 1 57.75 12.1299)">5</text>
		<text transform="matrix(1 0 0 1 76.5 40.5)">6</text>
	</g>
	<g id="StrokePaths" style="fill:none;stroke:#404040;stroke-width:3;stroke-linecap:round;stroke-linejoin:round;">
		<path d="M14.28,37.47c1.28,0.89,4.97,0.37,6.36,0.13c6.66-1.16,19.23-3.51,25.91-4.72c1.77-0.32,4.5-0.47,6.21,0.24"/>
		<path d="M35.61,14.25c1.01,1.01,1.54,2.62,1.54,4.67c0,0.77,0.06,47.95,0.06,70.33c0,4.79-0.05,7.54-0.08,8.62"/>
		<path d="M36.44,36.28c0,1.72-0.85,4.21-1.49,5.56c-5.32,11.33-10.7,19.65-21.59,31.24"/>
		<path d="M40.88,46.62c3.26,1.88,8.62,7.98,11.38,11.62"/>
		<path d="M67.31,12.63c1.09,1.09,1.51,2.74,1.51,4.5c0,0.59,0.02,50.89,0.01,71.62c0,5.28,0,8.68-0.01,8.88"/>
		<path d="M72.75,41.25c7.5,4.25,17.5,12,22,20"/>
	</g>
</svg>
