<?xml version="1.0" encoding="UTF-8"?>
<!DOCTYPE svg PUBLIC "-//W3C//DTD SVG 1.0//EN" "http://www.w3.org/TR/2001/REC-SVG-20010904/DTD/svg10.dtd">
<svg xmlns="http://www.w3.org/2000/svg" width="109" height="109" viewBox="0 0 109 109">
	<g id="HelperGrid" style="opacity:0.75;">
		<rect x="0.5" y="0.5" style="fill:none;stroke:#404040;" width="108" height="108"/> 
		<line style="fill:none;stroke:#404040;" x1="0.5" y1="72.51" x2="108.5" y2="72.51"/>
		<line style="fill:none;stroke:#404040;" x1="0.5" y1="36.49" x2="108.5" y2="36.49"/>
		<line style="fill:none;stroke:#404040;" x1="72.5" y1="0.5" x2="72.5" y2="108.5"/>
		<line style="fill:none;stroke:#404040;" x1="36.5" y1="0.5" x2="36.5" y2="108.5"/>
	</g>
	<g id="Kanji">
		<text transform="matrix(1 0 0 1 0.5 93.3799)" style="font-size:108;">朷</text>
	</g>
	<g id="StrokeNumbers" style="font-size:8;fill:#808080">
		<text transform="matrix(1 0 0 1 7.5 37.5)">1</text>
		<text transform="matrix(1 0 0 1 19.5 14.5)">2</text>
		<text transform="matrix(1 0 0 1 20.5 47.5)">3</text>
		<text transform="matrix(1 0 0 1 34.5 45.5)">4</text>
		<text transform="matrix(1 0 0 1 45.5 26.5)">5</text>
		<text transform="matrix(1 0 0 1 60.5 39.5)">6</text>
	</g>
	<g id="StrokePaths" style="fill:none;stroke:#404040;stroke-width:3;stroke-linecap:round;stroke-linejoin:round;">
		<path d="M13.28,37.28c0.36,0.21,2.47,0.36,3.42,0.27c4.08-0.36,17.7-1.93,24.25-2.99c0.95-0.15,2.22-0.21,2.82,0"/>
		<path d="M28.36,15c0.91,0.47,2.04,2.75,2.04,4.42c0,0.95-0.12,70.75-0.3,76.58"/>
		<path d="M29.94,39.78c-5.5,15.37-8.56,21.86-17.08,35.31"/>
		<path d="M33.47,46.9c2.37,1.59,7.28,7.76,9.28,10.85"/>
		<path d="M48.25,30c1.75,0.75,3.95,0.6,5.48,0.4C67,28.75,81.08,26.77,88,26c4.5-0.5,6.51,1.5,6.25,5c-1,13.25-5.5,43.25-12,56.25c-5.2,10.4-8.75,2.5-10.5-0.25"/>
		<path d="M67.93,32.18c0.07,1.49,0.11,3.84-0.15,5.99C65.27,59.14,57.75,79.5,41.25,94.25"/>
	</g>
</svg>
