<?xml version="1.0" encoding="UTF-8"?>
<!DOCTYPE svg PUBLIC "-//W3C//DTD SVG 1.0//EN" "http://www.w3.org/TR/2001/REC-SVG-20010904/DTD/svg10.dtd">
<svg xmlns="http://www.w3.org/2000/svg" width="109" height="109" viewBox="0 0 109 109">
	<g id="HelperGrid" style="opacity:0.75;">
		<rect x="0.5" y="0.5" style="fill:none;stroke:#404040;" width="108" height="108"/> 
		<line style="fill:none;stroke:#404040;" x1="0.5" y1="72.51" x2="108.5" y2="72.51"/>
		<line style="fill:none;stroke:#404040;" x1="0.5" y1="36.49" x2="108.5" y2="36.49"/>
		<line style="fill:none;stroke:#404040;" x1="72.5" y1="0.5" x2="72.5" y2="108.5"/>
		<line style="fill:none;stroke:#404040;" x1="36.5" y1="0.5" x2="36.5" y2="108.5"/>
	</g>
	<g id="Kanji">
		<text transform="matrix(1 0 0 1 0.5 93.3799)" style="font-size:108;">枅</text>
	</g>
	<g id="StrokeNumbers" style="font-size:8;fill:#808080">
		<text transform="matrix(1 0 0 1 6.5 37.5)">1</text>
		<text transform="matrix(1 0 0 1 20.5 13.5)">2</text>
		<text transform="matrix(1 0 0 1 21.5 46.5)">3</text>
		<text transform="matrix(1 0 0 1 35.5 44.5)">4</text>
		<text transform="matrix(1 0 0 1 46.5 18.5)">5</text>
		<text transform="matrix(1 0 0 1 43.5 46.5)">6</text>
		<text transform="matrix(1 0 0 1 51.5 32.5)">7</text>
		<text transform="matrix(1 0 0 1 71.5 30.5)">8</text>
	</g>
	<g id="StrokePaths" style="fill:none;stroke:#404040;stroke-width:3;stroke-linecap:round;stroke-linejoin:round;">
		<path d="M12.53,36.3c0.37,0.26,2.53,0.43,3.5,0.33c4.17-0.43,19.16-1.83,25.86-3.11c0.97-0.18,2.27-0.25,2.88,0"/>
		<path d="M29.36,13.5c0.91,0.47,2.04,3,2.04,5.42c0,0.95-0.12,70.75-0.3,76.58"/>
		<path d="M30.94,39.28c-5.9,16.34-9.19,23.25-18.33,37.56"/>
		<path d="M33.97,46.15c2.23,1.71,5.9,7.28,7.78,10.6"/>
		<path d="M48.5,21.8c1.05,0.39,2.98,0.44,4.04,0.39c6.34-0.28,26.46-1.94,36.02-2.98c1.75-0.19,2.81,0.19,3.69,0.39"/>
		<path d="M45,49.89c1.27,0.44,3.59,0.95,4.87,0.94c6.63-0.03,31.99-2.67,43.43-2.51c2.12,0.03,3.39,0.21,4.45,0.43"/>
		<path d="M59.25,24.75c1.25,2,1.5,2.25,1.5,3.75s0,4.75,0,17.5s-3.5,38.5-17,46.25"/>
		<path d="M78,23.5c1,1,1.75,2,1.75,3s0,66.5,0,69.5"/>
	</g>
</svg>
