<?xml version="1.0" encoding="UTF-8"?>
<!-- Copyright (C) 2009 Ulrich Apel.
This work is distributed under the conditions of the Creative Commons
Attribution-Share Alike 3.0 Licence. This means you are free:
* to Share - to copy, distribute and transmit the work
* to Remix - to adapt the work

Under the following conditions:
* Attribution. You must attribute the work by stating your use of KanjiVG in
  your own copyright header and linking to KanjiVG's website
  (http://kanjivg.tagaini.net)
* Share Alike. If you alter, transform, or build upon this work, you may
  distribute the resulting work only under the same or similar license to this
  one.

See http://creativecommons.org/licenses/by-sa/3.0/ for more details. -->
<!DOCTYPE svg PUBLIC "-//W3C//DTD SVG 1.0//EN" "http://www.w3.org/TR/2001/REC-SVG-20010904/DTD/svg10.dtd">
<svg xmlns="http://www.w3.org/2000/svg" width="109" height="109" viewBox="0 0 109 109">
	<g id="HelperGrid" style="opacity:0.75;">
		<rect x="0.5" y="0.5" style="fill:none;stroke:#404040;" width="108" height="108"/> 
		<line style="fill:none;stroke:#404040;" x1="0.5" y1="72.51" x2="108.5" y2="72.51"/>
		<line style="fill:none;stroke:#404040;" x1="0.5" y1="36.49" x2="108.5" y2="36.49"/>
		<line style="fill:none;stroke:#404040;" x1="72.5" y1="0.5" x2="72.5" y2="108.5"/>
		<line style="fill:none;stroke:#404040;" x1="36.5" y1="0.5" x2="36.5" y2="108.5"/>
	</g>
	<g id="Kanji">
		<text transform="matrix(1 0 0 1 0.5 93.3799)" style="font-size:108;">枇</text>
	</g>
	<g id="StrokeNumbers" style="font-size:8;fill:#808080">
		<text transform="matrix(1 0 0 1 6.5 39.5)">1</text>
		<text transform="matrix(1 0 0 1 18.5 15.5)">2</text>
		<text transform="matrix(1 0 0 1 19.5 49.5)">3</text>
		<text transform="matrix(1 0 0 1 35.5 47.5)">4</text>
		<text transform="matrix(1 0 0 1 52.5 43.5)">5</text>
		<text transform="matrix(1 0 0 1 40.5 19.5)">6</text>
		<text transform="matrix(1 0 0 1 76.5 41.5)">7</text>
		<text transform="matrix(1 0 0 1 64.5 18.5)">8</text>
	</g>
	<g id="StrokePaths" style="fill:none;stroke:#404040;stroke-width:3;stroke-linecap:round;stroke-linejoin:round;">
		<path d="M12.28,38.72c0.35,0.24,2.39,0.37,3.31,0.31c4.42-0.28,17.12-2.71,23.45-3.91c0.92-0.17,1.15-0.24,1.73,0"/>
		<path d="M27.86,15.5c0.91,0.47,2.04,1.75,2.04,4.42c0,0.95-0.3,63.25-0.3,69.08c0,10.75-5.85,2.25-6.6,1.25"/>
		<path d="M29.44,39.78c-5.34,15.15-8.31,21.55-16.58,34.81"/>
		<path d="M33.47,48.4c2.78,2.6,5.53,6.35,7.66,10.14"/>
		<path d="M48.73,47.79c3.83-0.55,9.19-1.62,12.53-2.56c0.98-0.27,2.6-0.27,3.11-0.11"/>
		<path d="M47.37,20.88c0.69,1,1.29,2.05,1.29,3.42c0,3.71-0.72,51.02-0.72,56.54c0,3.38,0.82,4.72,4.28,2.35c4.92-3.36,8.31-4.99,11.26-6.76"/>
		<path d="M71.73,45.79c4.81-0.55,11.54-1.62,15.73-2.56c1.23-0.27,3.27-0.27,3.9-0.11"/>
		<path d="M70.29,19.25c0.8,1.05,1.49,2.73,1.49,4.05c0,3.49-0.37,48.54-0.37,52.65c0,11.16,2.09,12.06,12.89,12.06c5.97,0,8.95-1,10.43-2.9"/>
	</g>
</svg>
