<?xml version="1.0" encoding="UTF-8"?>
<!-- Copyright (C) 2009 Ulrich Apel.
This work is distributed under the conditions of the Creative Commons
Attribution-Share Alike 3.0 Licence. This means you are free:
* to Share - to copy, distribute and transmit the work
* to Remix - to adapt the work

Under the following conditions:
* Attribution. You must attribute the work by stating your use of KanjiVG in
  your own copyright header and linking to KanjiVG's website
  (http://kanjivg.tagaini.net)
* Share Alike. If you alter, transform, or build upon this work, you may
  distribute the resulting work only under the same or similar license to this
  one.

See http://creativecommons.org/licenses/by-sa/3.0/ for more details. -->
<!DOCTYPE svg PUBLIC "-//W3C//DTD SVG 1.0//EN" "http://www.w3.org/TR/2001/REC-SVG-20010904/DTD/svg10.dtd">
<svg xmlns="http://www.w3.org/2000/svg" width="109" height="109" viewBox="0 0 109 109">
	<g id="HelperGrid" style="opacity:0.75;">
		<rect x="0.5" y="0.5" style="fill:none;stroke:#404040;" width="108" height="108"/> 
		<line style="fill:none;stroke:#404040;" x1="0.5" y1="72.51" x2="108.5" y2="72.51"/>
		<line style="fill:none;stroke:#404040;" x1="0.5" y1="36.49" x2="108.5" y2="36.49"/>
		<line style="fill:none;stroke:#404040;" x1="72.5" y1="0.5" x2="72.5" y2="108.5"/>
		<line style="fill:none;stroke:#404040;" x1="36.5" y1="0.5" x2="36.5" y2="108.5"/>
	</g>
	<g id="Kanji">
		<text transform="matrix(1 0 0 1 0.5 93.3799)" style="font-size:108;">柎</text>
	</g>
	<g id="StrokeNumbers" style="font-size:8;fill:#808080">
		<text transform="matrix(1 0 0 1 6.5 37.5)">1</text>
		<text transform="matrix(1 0 0 1 18.5 14.5)">2</text>
		<text transform="matrix(1 0 0 1 19.5 47.5)">3</text>
		<text transform="matrix(1 0 0 1 35.5 43.5)">4</text>
		<text transform="matrix(1 0 0 1 50.5 15.5)">5</text>
		<text transform="matrix(1 0 0 1 44.5 62.5)">6</text>
		<text transform="matrix(1 0 0 1 60.5 37.5)">7</text>
		<text transform="matrix(1 0 0 1 72.5 14.5)">8</text>
		<text transform="matrix(1 0 0 1 59.5 54.5)">9</text>
	</g>
	<g id="StrokePaths" style="fill:none;stroke:#404040;stroke-width:3;stroke-linecap:round;stroke-linejoin:round;">
		<path d="M13.28,36.72c0.35,0.24,2.39,0.41,3.31,0.31c3.94-0.41,17.12-2.21,23.45-3.41c0.92-0.17,2.15-0.24,2.73,0"/>
		<path d="M27.36,14.5c0.91,0.47,2.04,2,2.04,4.42c0,0.95-0.12,69.75-0.3,75.58"/>
		<path d="M28.94,40.28c-5.1,15.04-7.94,20.4-15.83,33.56"/>
		<path d="M31.47,42.9c2.16,1.23,5.71,5.22,7.53,7.6"/>
		<path d="M58.48,16.61c0.19,1.95-0.05,4.5-0.66,6.17c-3.88,10.64-9.19,24.05-18.09,37"/>
		<path d="M50.64,44.03c0.34,0.92,0.88,2.83,0.92,4.11c0.39,11.53-0.75,39.6-0.4,46.21"/>
		<path d="M60.75,40.09c1.05,0.7,3.47,0.84,4.54,0.76c7.95-0.6,18.36-2.68,28.41-3.52c1.75-0.15,2.81-0.1,3.69,0.24"/>
		<path d="M82.6,13.93c0.08,0.63,1.11,1.57,1.19,5.54c0.38,19.08-0.24,62.97-0.24,69.47c0,12.17-6.17,2.34-8.25,0.33"/>
		<path d="M65.52,55.02c3.02,1.81,7.81,7.44,8.57,10.25"/>
	</g>
</svg>
