<?xml version="1.0" encoding="UTF-8"?>
<!DOCTYPE svg PUBLIC "-//W3C//DTD SVG 1.0//EN" "http://www.w3.org/TR/2001/REC-SVG-20010904/DTD/svg10.dtd">
<svg xmlns="http://www.w3.org/2000/svg" width="109" height="109" viewBox="0 0 109 109">
	<g id="HelperGrid" style="opacity:0.75;">
		<rect x="0.5" y="0.5" style="fill:none;stroke:#404040;" width="108" height="108"/> 
		<line style="fill:none;stroke:#404040;" x1="0.5" y1="72.51" x2="108.5" y2="72.51"/>
		<line style="fill:none;stroke:#404040;" x1="0.5" y1="36.49" x2="108.5" y2="36.49"/>
		<line style="fill:none;stroke:#404040;" x1="72.5" y1="0.5" x2="72.5" y2="108.5"/>
		<line style="fill:none;stroke:#404040;" x1="36.5" y1="0.5" x2="36.5" y2="108.5"/>
	</g>
	<g id="Kanji">
		<text transform="matrix(1 0 0 1 0.5 93.3799)" style="font-size:108;">框</text>
	</g>
	<g id="StrokeNumbers" style="font-size:8;fill:#808080">
		<text transform="matrix(1 0 0 1 5.8477 37.5)">1</text>
		<text transform="matrix(1 0 0 1 18.5 14.5)">2</text>
		<text transform="matrix(1 0 0 1 18.5 46.5)">3</text>
		<text transform="matrix(1 0 0 1 35.5 44.5)">4</text>
		<text transform="matrix(1 0 0 1 46.5 17.5)">5</text>
		<text transform="matrix(1 0 0 1 52.5 32.5)">6</text>
		<text transform="matrix(1 0 0 1 53.5 51.5)">7</text>
		<text transform="matrix(1 0 0 1 50.5 74.5)">8</text>
		<text transform="matrix(1 0 0 1 64.5 44.5)">9</text>
		<text transform="matrix(1 0 0 1 36.4434 28.5)">10</text>
	</g>
	<g id="StrokePaths" style="fill:none;stroke:#404040;stroke-width:3;stroke-linecap:round;stroke-linejoin:round;">
		<path d="M11.28,36.27c0.36,0.25,2.47,0.42,3.42,0.32c4.08-0.42,16.68-1.78,23.24-3.03c0.95-0.18,2.23-0.25,2.82,0"/>
		<path d="M27.36,14.5c0.91,0.47,2.04,2,2.04,4.92c0,0.95-0.3,68.73-0.3,69.58c0,10-5.1,2.75-6.35,1.5"/>
		<path d="M28.44,39.28c-5.1,15.04-7.94,21.4-15.83,34.56"/>
		<path d="M31.47,44.9c2.37,1.59,6.28,6.76,8.28,9.85"/>
		<path d="M43.38,20.48c1.12,0.54,3.18,0.63,4.3,0.54c11.68-0.91,30.82-2.77,43.81-3.23c1.87-0.07,2.99,0.26,3.93,0.53"/>
		<path d="M55.95,35.69c0.61,0.2,2.62,0.06,3.24,0.01c6.81-0.48,19.94-2.12,26.91-2.33c0.95-0.03,1.81,0.04,2.6,0.21"/>
		<path d="M56.99,54.77c0.52,0.2,2.72,0.6,3.25,0.59c6.26-0.1,17.29-1.67,23.76-2.02c0.64-0.03,2.06-0.08,3.03,0.09"/>
		<path d="M53.13,77.83c0.46,0.18,2.87,0.59,3.65,0.5c10.96-1.25,21.45-2.78,33.16-3.21c1.26-0.05,2.77,0.29,3.4,0.57"/>
		<path d="M70.76,35.25c0.97,1.33,0.97,2.13,0.97,3.19c0,7.45-0.01,26.01-0.01,37.95"/>
		<path d="M47.22,21c0,4-1.37,64.5-1.37,68.25c0,3,0.76,3.8,2.03,3.5c10.62-2.5,37.67-3.58,43.71-2.75c2.38,0.33,4.43,0.25,5.91,0.75"/>
	</g>
</svg>
