<?xml version="1.0" encoding="UTF-8"?>
<!-- Copyright (C) 2009 Ulrich Apel.
This work is distributed under the conditions of the Creative Commons
Attribution-Share Alike 3.0 Licence. This means you are free:
* to Share - to copy, distribute and transmit the work
* to Remix - to adapt the work

Under the following conditions:
* Attribution. You must attribute the work by stating your use of KanjiVG in
  your own copyright header and linking to KanjiVG's website
  (http://kanjivg.tagaini.net)
* Share Alike. If you alter, transform, or build upon this work, you may
  distribute the resulting work only under the same or similar license to this
  one.

See http://creativecommons.org/licenses/by-sa/3.0/ for more details. -->
<!DOCTYPE svg PUBLIC "-//W3C//DTD SVG 1.0//EN" "http://www.w3.org/TR/2001/REC-SVG-20010904/DTD/svg10.dtd">
<svg xmlns="http://www.w3.org/2000/svg" width="109" height="109" viewBox="0 0 109 109">
	<g id="HelperGrid" style="opacity:0.75;">
		<rect x="0.5" y="0.5" style="fill:none;stroke:#404040;" width="108" height="108"/> 
		<line style="fill:none;stroke:#404040;" x1="0.5" y1="72.51" x2="108.5" y2="72.51"/>
		<line style="fill:none;stroke:#404040;" x1="0.5" y1="36.49" x2="108.5" y2="36.49"/>
		<line style="fill:none;stroke:#404040;" x1="72.5" y1="0.5" x2="72.5" y2="108.5"/>
		<line style="fill:none;stroke:#404040;" x1="36.5" y1="0.5" x2="36.5" y2="108.5"/>
	</g>
	<g id="Kanji">
		<text transform="matrix(1 0 0 1 0.5 93.3799)" style="font-size:108;">桑</text>
	</g>
	<g id="StrokeNumbers" style="font-size:8;fill:#808080">
		<text transform="matrix(1 0 0 1 38.5 12.5)">1</text>
		<text transform="matrix(1 0 0 1 36.5 24.0547)">2</text>
		<text transform="matrix(1 0 0 1 22.5 36.5)">3</text>
		<text transform="matrix(1 0 0 1 16.5 46.5)">4</text>
		<text transform="matrix(1 0 0 1 56.25 35.5)">5</text>
		<text transform="matrix(1 0 0 1 50.25 46.5547)">6</text>
		<text transform="matrix(1 0 0 1 11.25 72.1299)">7</text>
		<text transform="matrix(1 0 0 1 47.5 55.6299)">8</text>
		<text transform="matrix(1 0 0 1 33.5 79.5)">9</text>
		<text transform="matrix(1 0 0 1 70.5 77.5)">10</text>
	</g>
	<g id="StrokePaths" style="fill:none;stroke:#404040;stroke-width:3;stroke-linecap:round;stroke-linejoin:round;">
		<path d="M39.43,15.16c2,0.24,3.83,0.11,5.82-0.19c4.58-0.69,14.04-2.26,17.88-2.82c2.26-0.33,4.59,0.97,2.32,3.29C59.12,21.88,48.38,28.12,36.14,32"/>
		<path d="M43.81,20.94c9.31,1.19,18.56,4.69,24.68,9.62"/>
		<path d="M22.37,39.02c1.48,0.23,3.13,0.35,4.62,0.08c3.53-0.65,10.93-2.11,14.52-2.8c2.87-0.56,4.13,1.4,2.85,3.69C39.62,48.5,31.62,57.62,19.5,63.75"/>
		<path d="M23.9,46.02c9.14,3.42,15.48,8.52,20.59,13.99"/>
		<path d="M56,38.35c1.71,0.25,3.55,0.31,5.26-0.03c3.87-0.77,11.93-3.04,15.39-3.8c2.64-0.58,4.11,1.14,2.41,3.39c-5.81,7.71-12.44,13.21-23.17,17.84"/>
		<path d="M57.31,44.04C66.5,48.25,75,53,80.74,59.39"/>
		<path d="M18.25,69.61c2.81,0.85,5.65,0.62,8.52,0.38c11.91-1,38.34-3.02,54.59-4.12c3.05-0.21,5.86-0.28,8.89,0.29"/>
		<path d="M52.5,58.25c1,1,1.5,2.12,1.5,3.5c0,6.2,0.03,23.52,0.02,32.25c0,2.78-0.01,4.67-0.02,5"/>
		<path d="M49.5,68.75c0,1.38-0.12,2.02-1.68,3.79C40.7,80.66,27.72,90.41,17.5,94.5"/>
		<path d="M55.75,68.75c3.77,2.51,17.93,13.05,26.4,18.77c2.13,1.44,6.85,3.73,9.1,4.73"/>
	</g>
</svg>
