<?xml version="1.0" encoding="UTF-8"?>
<!-- Copyright (C) 2009 Ulrich Apel.
This work is distributed under the conditions of the Creative Commons
Attribution-Share Alike 3.0 Licence. This means you are free:
* to Share - to copy, distribute and transmit the work
* to Remix - to adapt the work

Under the following conditions:
* Attribution. You must attribute the work by stating your use of KanjiVG in
  your own copyright header and linking to KanjiVG's website
  (http://kanjivg.tagaini.net)
* Share Alike. If you alter, transform, or build upon this work, you may
  distribute the resulting work only under the same or similar license to this
  one.

See http://creativecommons.org/licenses/by-sa/3.0/ for more details. -->
<!DOCTYPE svg PUBLIC "-//W3C//DTD SVG 1.0//EN" "http://www.w3.org/TR/2001/REC-SVG-20010904/DTD/svg10.dtd">
<svg xmlns="http://www.w3.org/2000/svg" width="109" height="109" viewBox="0 0 109 109">
	<g id="HelperGrid" style="opacity:0.75;">
		<rect x="0.5" y="0.5" style="fill:none;stroke:#404040;" width="108" height="108"/> 
		<line style="fill:none;stroke:#404040;" x1="0.5" y1="72.51" x2="108.5" y2="72.51"/>
		<line style="fill:none;stroke:#404040;" x1="0.5" y1="36.49" x2="108.5" y2="36.49"/>
		<line style="fill:none;stroke:#404040;" x1="72.5" y1="0.5" x2="72.5" y2="108.5"/>
		<line style="fill:none;stroke:#404040;" x1="36.5" y1="0.5" x2="36.5" y2="108.5"/>
	</g>
	<g id="Kanji">
		<text transform="matrix(1 0 0 1 0.5 93.3799)" style="font-size:108;">梭</text>
	</g>
	<g id="StrokeNumbers" style="font-size:8;fill:#808080">
		<text transform="matrix(1 0 0 1 5.8481 39.5)">1</text>
		<text transform="matrix(1 0 0 1 19.5 13.5)">2</text>
		<text transform="matrix(1 0 0 1 20.5 48.5)">3</text>
		<text transform="matrix(1 0 0 1 35.5 50.5)">4</text>
		<text transform="matrix(1 0 0 1 55.5 10.5)">5</text>
		<text transform="matrix(1 0 0 1 74.5 17.5)">6</text>
		<text transform="matrix(1 0 0 1 47.5 43.5)">7</text>
		<text transform="matrix(1 0 0 1 65.5 38.104)">8</text>
		<text transform="matrix(1 0 0 1 52.5 55.5)">9</text>
		<text transform="matrix(1 0 0 1 64.5 53.5)">10</text>
		<text transform="matrix(1 0 0 1 52.5 74.5)">11</text>
	</g>
	<g id="StrokePaths" style="fill:none;stroke:#404040;stroke-width:3;stroke-linecap:round;stroke-linejoin:round;">
		<path d="M11.53,38.72c0.36,0.24,2.49,0.41,3.45,0.31c4.11-0.41,16.82-1.71,23.44-2.91c0.96-0.17,2.24-0.24,2.85,0"/>
		<path d="M27.36,14c0.91,0.47,2.54,2.5,2.54,4.92c0,0.95-0.3,71.73-0.3,72.58c0,11-4.97,2.62-6.6,1"/>
		<path d="M29.94,41.78C24.31,56.82,20.5,64.5,11.36,76.34"/>
		<path d="M31.97,50.4c2.37,1.59,6.28,6.76,8.28,9.85"/>
		<path d="M63.41,9.75c0.44,0.42,0.41,2.03,0.15,2.58c-3.24,6.83-9.3,12.42-13.74,18.57c-1.43,1.98-1.88,2.55,0.88,2.02c8.56-1.66,21.69-4.53,31.1-6.41"/>
		<path d="M75.02,20.01c4.69,2.62,12.11,10.79,13.28,14.87"/>
		<path d="M57.31,35.86c0.03,0.42,0.17,1.12-0.07,1.69c-1.63,3.8-6.36,11.1-12.79,16.13"/>
		<path d="M72.48,31.3c0.46,0.52,0.84,1.13,0.86,1.93c0.12,3.57-0.33,7.04-0.33,9.46c0,5.67,5.59,5.03,11.08,5.03c5.8,0,9.41-0.69,10.43-2.1"/>
		<path d="M61.09,48.75c0.05,0.64-0.21,2.29-0.6,3.14c-2.7,6.03-7.88,15.76-17.96,24.21"/>
		<path d="M61.35,55.55c0.52,0.47,2.92,0.53,3.66,0.44c2.44-0.31,10.55-1.56,14.03-2.51c2.39-0.65,3.25,0.82,2.46,2.52C75.82,68.22,57.5,88.81,41.17,95.5"/>
		<path d="M54.31,63.43C58.75,65,78.5,85.5,88.73,91.04c2.11,1.14,3.64,1.96,5.6,2.35"/>
	</g>
</svg>
