<?xml version="1.0" encoding="UTF-8"?>
<!DOCTYPE svg PUBLIC "-//W3C//DTD SVG 1.0//EN" "http://www.w3.org/TR/2001/REC-SVG-20010904/DTD/svg10.dtd">
<svg xmlns="http://www.w3.org/2000/svg" width="109" height="109" viewBox="0 0 109 109">
	<g id="HelperGrid" style="opacity:0.75;">
		<rect x="0.5" y="0.5" style="fill:none;stroke:#404040;" width="108" height="108"/> 
		<line style="fill:none;stroke:#404040;" x1="0.5" y1="72.51" x2="108.5" y2="72.51"/>
		<line style="fill:none;stroke:#404040;" x1="0.5" y1="36.49" x2="108.5" y2="36.49"/>
		<line style="fill:none;stroke:#404040;" x1="72.5" y1="0.5" x2="72.5" y2="108.5"/>
		<line style="fill:none;stroke:#404040;" x1="36.5" y1="0.5" x2="36.5" y2="108.5"/>
	</g>
	<g id="Kanji">
		<text transform="matrix(1 0 0 1 0.5 93.3799)" style="font-size:108;">梶</text>
	</g>
	<g id="StrokeNumbers" style="font-size:8;fill:#808080">
		<text transform="matrix(1 0 0 1 4.5 41.8486)">1</text>
		<text transform="matrix(1 0 0 1 19.5 15.5)">2</text>
		<text transform="matrix(1 0 0 1 19.5 50.5)">3</text>
		<text transform="matrix(1 0 0 1 35.5 47.5)">4</text>
		<text transform="matrix(1 0 0 1 47.5 17.5)">5</text>
		<text transform="matrix(1 0 0 1 55.5 30.5)">6</text>
		<text transform="matrix(1 0 0 1 42.5 30.5)">7</text>
		<text transform="matrix(1 0 0 1 73.5 39.5)">8</text>
		<text transform="matrix(1 0 0 1 54.5 59.5)">9</text>
		<text transform="matrix(1 0 0 1 51.5 73.5)">10</text>
		<text transform="matrix(1 0 0 1 61.5 55.5)">11</text>
	</g>
	<g id="StrokePaths" style="fill:none;stroke:#404040;stroke-width:3;stroke-linecap:round;stroke-linejoin:round;">
		<path d="M11.28,40.54c0.35,0.24,2.39,0.41,3.31,0.31c3.94-0.41,19.12-2.72,25.45-3.93c0.92-0.17,1.15-0.24,1.73,0"/>
		<path d="M27.86,14.75c0.91,0.47,2.54,2.25,2.54,4.94c0,0.95-0.3,64.97-0.3,70.81c0,8.25-4.97,3.12-6.6,1.5"/>
		<path d="M29.75,41.5c-5.25,14.75-8,21.15-17.14,33.78"/>
		<path d="M33.72,47.5c2.22,1.4,5.29,6.2,7.16,8.92"/>
		<path d="M44.78,19.93c1.29,0.73,3.8,1.38,5.17,1.23c7.4-0.81,33.28-4.47,36.25-4.76c1.47-0.14,2.7,1.07,2.5,2.53c-0.64,4.77-1.75,6.56-2.33,11.17"/>
		<path d="M50.48,33.7c3.71-0.24,34.15-3.63,38.02-3.87"/>
		<path d="M50.22,22.11c0,3.74-0.13,5.62-0.1,9.13c0.14,23.01-0.86,46.26-11.36,59.17"/>
		<path d="M83.28,37.07c0.07,0.29,0.16,0.76-0.15,1.18c-1.79,2.5-11.41,7.98-25.48,11.33"/>
		<path d="M54.16,62.03c0.65,0.72,2.28,0.82,2.94,0.72c8.41-1.28,22.4-6.75,30.71-8.98c1.07-0.29,1.94-0.52,3.09-0.3"/>
		<path d="M51.32,76.57c0.6,0.46,3.71,1.1,4.3,0.96c6.63-1.53,29.13-9.28,37.19-11.7c0.96-0.29,1.44-0.83,2.74-0.65"/>
		<path d="M69.65,49.16c0.33,0.8,0.59,1.75,0.61,2.99c0.09,5.54-0.33,28.69-0.33,32.08c0,10.65,4.32,9.31,14.26,9.31c10.36,0,12.4-1.8,12.4-7.96"/>
	</g>
</svg>
