<?xml version="1.0" encoding="UTF-8"?>
<!DOCTYPE svg PUBLIC "-//W3C//DTD SVG 1.0//EN" "http://www.w3.org/TR/2001/REC-SVG-20010904/DTD/svg10.dtd">
<svg xmlns="http://www.w3.org/2000/svg" width="109" height="109" viewBox="0 0 109 109">
	<g id="HelperGrid" style="opacity:0.75;">
		<rect x="0.5" y="0.5" style="fill:none;stroke:#404040;" width="108" height="108"/> 
		<line style="fill:none;stroke:#404040;" x1="0.5" y1="72.51" x2="108.5" y2="72.51"/>
		<line style="fill:none;stroke:#404040;" x1="0.5" y1="36.49" x2="108.5" y2="36.49"/>
		<line style="fill:none;stroke:#404040;" x1="72.5" y1="0.5" x2="72.5" y2="108.5"/>
		<line style="fill:none;stroke:#404040;" x1="36.5" y1="0.5" x2="36.5" y2="108.5"/>
	</g>
	<g id="Kanji">
		<text transform="matrix(1 0 0 1 0.5 93.3799)" style="font-size:108;">椛</text>
	</g>
	<g id="StrokeNumbers" style="font-size:8;fill:#808080">
		<text transform="matrix(1 0 0 1 8.5 39.5)">1</text>
		<text transform="matrix(1 0 0 1 20.5 17.5)">2</text>
		<text transform="matrix(1 0 0 1 20.5 49.5)">3</text>
		<text transform="matrix(1 0 0 1 35.5 47.5)">4</text>
		<text transform="matrix(1 0 0 1 41.5 27.5)">5</text>
		<text transform="matrix(1 0 0 1 47.5 16.5)">6</text>
		<text transform="matrix(1 0 0 1 70.75 14.5)">7</text>
		<text transform="matrix(1 0 0 1 47.5 45.5)">8</text>
		<text transform="matrix(1 0 0 1 45.5 74.5)">9</text>
		<text transform="matrix(1 0 0 1 78.5 51.5)">10</text>
		<text transform="matrix(1 0 0 1 61.5 45.5)">11</text>
	</g>
	<g id="StrokePaths" style="fill:none;stroke:#404040;stroke-width:3;stroke-linecap:round;stroke-linejoin:round;">
		<path d="M15.53,37.67c1.76,0.35,3.51,0.34,5.25-0.01c4.47-0.62,12.18-1.65,17.35-2.44c1.12-0.27,2.25-0.36,3.39-0.28"/>
		<path d="M29.86,18c1.01,1.01,1.54,3,1.54,5.92c0,2.56,0,41.82-0.02,61.08c0,4.8-0.01,8.38-0.01,9.88"/>
		<path d="M30.94,37.78c0,1.97-0.69,3.59-1.5,5.66c-5.06,12.87-8.49,19.46-16.83,31.9"/>
		<path d="M34.5,48.88c2,1.03,5,5.47,7.13,8.41"/>
		<path d="M44.25,30.83c2.07,0.51,4.15,0.57,6.25,0.18c10.72-1.18,22.26-3.1,36.38-3.47c2.11-0.19,4.2-0.07,6.28,0.36"/>
		<path d="M55.27,17.98c0.9,0.9,1.38,1.94,1.45,3.12C57.64,28.08,58.74,35.48,59,38"/>
		<path d="M78.66,14.91c0.59,0.84,0.55,1.84,0.29,3.13c-1.58,7.6-2.3,11.85-4.02,19.01"/>
		<path d="M56.36,44.69c0,1.39-0.54,3.27-1.08,4.46c-3.51,7.76-10.47,17.5-15.11,22.63"/>
		<path d="M51.38,59.38c0.81,0.81,1.15,2.03,1.15,3.15c0,6.63-0.01,17.6-0.02,25.1c0,2.94-0.01,5.34-0.01,6.75"/>
		<path d="M89.16,52.6c0,1.54-0.96,3.26-2.34,4.5c-6.31,5.65-12.06,10.65-20.45,16.01"/>
		<path d="M71.62,44.21c0.96,0.96,1.15,2.16,1.15,3.64c0,3.25-0.07,25.94-0.07,34.91c0,6.49,0.8,9.87,11.3,9.87C95.5,92.62,96,90.75,96,83.26"/>
	</g>
</svg>
