<?xml version="1.0" encoding="UTF-8"?>
<!-- Copyright (C) 2009 Ulrich Apel.
This work is distributed under the conditions of the Creative Commons
Attribution-Share Alike 3.0 Licence. This means you are free:
* to Share - to copy, distribute and transmit the work
* to Remix - to adapt the work

Under the following conditions:
* Attribution. You must attribute the work by stating your use of KanjiVG in
  your own copyright header and linking to KanjiVG's website
  (http://kanjivg.tagaini.net)
* Share Alike. If you alter, transform, or build upon this work, you may
  distribute the resulting work only under the same or similar license to this
  one.

See http://creativecommons.org/licenses/by-sa/3.0/ for more details. -->
<!DOCTYPE svg PUBLIC "-//W3C//DTD SVG 1.0//EN" "http://www.w3.org/TR/2001/REC-SVG-20010904/DTD/svg10.dtd">
<svg xmlns="http://www.w3.org/2000/svg" width="109" height="109" viewBox="0 0 109 109">
	<g id="HelperGrid" style="opacity:0.75;">
		<rect x="0.5" y="0.5" style="fill:none;stroke:#404040;" width="108" height="108"/> 
		<line style="fill:none;stroke:#404040;" x1="0.5" y1="72.51" x2="108.5" y2="72.51"/>
		<line style="fill:none;stroke:#404040;" x1="0.5" y1="36.49" x2="108.5" y2="36.49"/>
		<line style="fill:none;stroke:#404040;" x1="72.5" y1="0.5" x2="72.5" y2="108.5"/>
		<line style="fill:none;stroke:#404040;" x1="36.5" y1="0.5" x2="36.5" y2="108.5"/>
	</g>
	<g id="Kanji">
		<text transform="matrix(1 0 0 1 0.5 93.3799)" style="font-size:108;">椦</text>
	</g>
	<g id="StrokeNumbers" style="font-size:8;fill:#808080">
		<text transform="matrix(1 0 0 1 4.5 35.5)">1</text>
		<text transform="matrix(1 0 0 1 16.6602 12.5)">2</text>
		<text transform="matrix(1 0 0 1 17.708 45.5)">3</text>
		<text transform="matrix(1 0 0 1 32.5 45.5)">4</text>
		<text transform="matrix(1 0 0 1 46.25 18.8291)">5</text>
		<text transform="matrix(1 0 0 1 74.5 15.5)">6</text>
		<text transform="matrix(1 0 0 1 55.5 31.5)">7</text>
		<text transform="matrix(1 0 0 1 41.5 46.5)">8</text>
		<text transform="matrix(1 0 0 1 56.5 10.5)">9</text>
		<text transform="matrix(1 0 0 1 76.5 40.5)">10</text>
		<text transform="matrix(1 0 0 1 51.5 68.5)">11</text>
		<text transform="matrix(1 0 0 1 56.5 61.5)">12</text>
	</g>
	<g id="StrokePaths" style="fill:none;stroke:#404040;stroke-width:3;stroke-linecap:round;stroke-linejoin:round;">
		<path d="M10.78,35.22c0.35,0.24,2.39,0.41,3.31,0.31c3.94-0.41,16.12-1.21,22.45-2.41c0.92-0.17,2.15-0.24,2.73,0"/>
		<path d="M25.86,12.5c0.91,0.47,2.04,2.5,2.04,4.42c0,0.95-0.12,73.75-0.3,79.58"/>
		<path d="M27.44,37.78c-5.18,15.8-8.06,22.48-16.08,36.31"/>
		<path d="M29.47,44.9c2.37,1.59,7.28,8.76,9.28,11.85"/>
		<path d="M55,18.98c0.03,0.39,0.17,1.1-0.06,1.57c-2.24,4.5-5.18,9.61-10.62,15.01"/>
		<path d="M78.01,18.67c4.8,2.19,12.39,8.98,13.59,12.38"/>
		<path d="M50.53,34.03c1.07,0.26,3.04,0.33,4.11,0.26c6.84-0.45,16.76-2.42,24.72-2.67c1.79-0.06,2.86,0.12,3.76,0.26"/>
		<path d="M43.13,49.14c1.01,0.38,2.86,0.49,3.86,0.38c6.42-0.66,36.89-3.83,43.11-3.38c1.67,0.12,2.69,0.18,3.53,0.37"/>
		<path d="M66.37,12.42c0.26,1.04,0.45,2.78,0.04,4.78c-4.17,20.2-10.91,43.55-26.56,54.97"/>
		<path d="M69.82,32.98c3.47,6.53,18.42,27.86,22.25,32.64c1.3,1.62,2.97,2.32,4.26,2.78"/>
		<path d="M50.39,71.51c0.91,0.35,2.06,0.31,2.85,0.19c6.5-0.96,23.12-3.53,26.72-3.88c2.34-0.23,2.99,1.04,2.86,2.66c-0.34,4.27-2.58,15.28-7.65,22.53c-2.57,3.68-3.31,4-5.6,0"/>
		<path d="M66.82,56.93c0.07,0.79,0.03,2.02-0.14,3.18c-1.42,9.39-6.92,29.39-24.96,36.68"/>
	</g>
</svg>
