<?xml version="1.0" encoding="UTF-8"?>
<!-- Copyright (C) 2009 Ulrich Apel.
This work is distributed under the conditions of the Creative Commons
Attribution-Share Alike 3.0 Licence. This means you are free:
* to Share - to copy, distribute and transmit the work
* to Remix - to adapt the work

Under the following conditions:
* Attribution. You must attribute the work by stating your use of KanjiVG in
  your own copyright header and linking to KanjiVG's website
  (http://kanjivg.tagaini.net)
* Share Alike. If you alter, transform, or build upon this work, you may
  distribute the resulting work only under the same or similar license to this
  one.

See http://creativecommons.org/licenses/by-sa/3.0/ for more details. -->
<!DOCTYPE svg PUBLIC "-//W3C//DTD SVG 1.0//EN" "http://www.w3.org/TR/2001/REC-SVG-20010904/DTD/svg10.dtd">
<svg xmlns="http://www.w3.org/2000/svg" width="109" height="109" viewBox="0 0 109 109">
	<g id="HelperGrid" style="opacity:0.75;">
		<rect x="0.5" y="0.5" style="fill:none;stroke:#404040;" width="108" height="108"/> 
		<line style="fill:none;stroke:#404040;" x1="0.5" y1="72.51" x2="108.5" y2="72.51"/>
		<line style="fill:none;stroke:#404040;" x1="0.5" y1="36.49" x2="108.5" y2="36.49"/>
		<line style="fill:none;stroke:#404040;" x1="72.5" y1="0.5" x2="72.5" y2="108.5"/>
		<line style="fill:none;stroke:#404040;" x1="36.5" y1="0.5" x2="36.5" y2="108.5"/>
	</g>
	<g id="Kanji">
		<text transform="matrix(1 0 0 1 0.5 93.3799)" style="font-size:108;">楽</text>
	</g>
	<g id="StrokeNumbers" style="font-size:8;fill:#808080">
		<text transform="matrix(1 0 0 1 53.5 8.5)">1</text>
		<text transform="matrix(1 0 0 1 35.25 31.6299)">2</text>
		<text transform="matrix(1 0 0 1 40.5 20.5)">3</text>
		<text transform="matrix(1 0 0 1 45.5 33.1299)">4</text>
		<text transform="matrix(1 0 0 1 45.6797 46.6299)">5</text>
		<text transform="matrix(1 0 0 1 12.75 19.6299)">6</text>
		<text transform="matrix(1 0 0 1 9.75 59.5)">7</text>
		<text transform="matrix(1 0 0 1 89.5 15.5)">8</text>
		<text transform="matrix(1 0 0 1 70.5 46.5)">9</text>
		<text transform="matrix(1 0 0 1 5.5 70.5)">10</text>
		<text transform="matrix(1 0 0 1 42.75 61.6299)">11</text>
		<text transform="matrix(1 0 0 1 32.5 76.5)">12</text>
		<text transform="matrix(1 0 0 1 67.5 73.5)">13</text>
	</g>
	<g id="StrokePaths" style="fill:none;stroke:#404040;stroke-width:3;stroke-linecap:round;stroke-linejoin:round;">
		<path d="M52.49,11c0.29,0.39,0.34,0.86,0.27,1.2c-0.41,2-3.95,6.79-7.17,9.47"/>
		<path d="M40.75,22.07c0.39,0.72,0.79,1.08,0.79,2.04s1.28,22.08,1.44,26.81"/>
		<path d="M41.77,23.77c2.22-0.12,19.08-2.59,21.1-2.73c1.68-0.12,2.77,0.8,2.64,1.52c-0.26,1.44-1.15,20.17-1.36,27.84"/>
		<path d="M42.16,36.12c3.59,0,7.26-0.7,10.81-1.13c1.17-0.14,2.58-0.57,4.03-0.24"/>
		<path d="M43.63,49.6c4.43,0,13.61-1.01,19.35-1.01"/>
		<path d="M20.22,20c3.89,1.72,10.05,7.07,11.03,9.75"/>
		<path d="M16.17,53.88c1.55,1.04,3.56,0.88,4.64,0c1.05-0.85,7.42-7.56,11.44-11.88"/>
		<path d="M87.7,17.75c0.03,0.27,0.07,0.68-0.06,1.06c-0.75,2.24-5.03,7.17-10.89,10.18"/>
		<path d="M77,40.5c5.12,2.03,13.22,8.34,14.5,11.5"/>
		<path d="M17.28,67.66c0.79,0.19,2.91,0.5,5.02,0.57c5.81,0.19,50.43-4.24,64.95-5.19c2.1-0.14,2.64-0.19,3.96,0"/>
		<path d="M52.45,55c0.9,0.28,1.43,1.24,1.61,1.79s-0.18,37.28-0.18,35.71c0,10.75-4.63,3.75-5.63,2.75"/>
		<path d="M42.75,76c-3.17,5.95-11.41,14.38-18,17.75"/>
		<path d="M63.76,73.61c3.99,4.89,11.99,13.64,17.03,17.71"/>
	</g>
</svg>
