<?xml version="1.0" encoding="UTF-8"?>
<!DOCTYPE svg PUBLIC "-//W3C//DTD SVG 1.0//EN" "http://www.w3.org/TR/2001/REC-SVG-20010904/DTD/svg10.dtd">
<svg xmlns="http://www.w3.org/2000/svg" width="109" height="109" viewBox="0 0 109 109">
	<g id="HelperGrid" style="opacity:0.75;">
		<rect x="0.5" y="0.5" style="fill:none;stroke:#404040;" width="108" height="108"/> 
		<line style="fill:none;stroke:#404040;" x1="0.5" y1="72.51" x2="108.5" y2="72.51"/>
		<line style="fill:none;stroke:#404040;" x1="0.5" y1="36.49" x2="108.5" y2="36.49"/>
		<line style="fill:none;stroke:#404040;" x1="72.5" y1="0.5" x2="72.5" y2="108.5"/>
		<line style="fill:none;stroke:#404040;" x1="36.5" y1="0.5" x2="36.5" y2="108.5"/>
	</g>
	<g id="Kanji">
		<text transform="matrix(1 0 0 1 0.5 93.3799)" style="font-size:108;">槓</text>
	</g>
	<g id="StrokeNumbers" style="font-size:8;fill:#808080">
		<text transform="matrix(1 0 0 1 5.8477 36.5)">1</text>
		<text transform="matrix(1 0 0 1 18.5 12.5)">2</text>
		<text transform="matrix(1 0 0 1 18.5 46.5)">3</text>
		<text transform="matrix(1 0 0 1 35.5 44.5)">4</text>
		<text transform="matrix(1 0 0 1 48.5 13.5)">5</text>
		<text transform="matrix(1 0 0 1 60.75 25.5)">6</text>
		<text transform="matrix(1 0 0 1 43.5 29.5)">7</text>
		<text transform="matrix(1 0 0 1 46.5 48.5)">8</text>
		<text transform="matrix(1 0 0 1 57.75 40.5)">9</text>
		<text transform="matrix(1 0 0 1 58.25 51.5)">10</text>
		<text transform="matrix(1 0 0 1 58.5107 63.3799)">11</text>
		<text transform="matrix(1 0 0 1 58.3223 75.5)">12</text>
		<text transform="matrix(1 0 0 1 45.5 89.5)">13</text>
		<text transform="matrix(1 0 0 1 68.5 91.5)">14</text>
	</g>
	<g id="StrokePaths" style="fill:none;stroke:#404040;stroke-width:3;stroke-linecap:round;stroke-linejoin:round;">
		<path d="M12.28,36.22c0.35,0.24,2.39,0.41,3.31,0.31c3.94-0.41,15.12-1.21,21.45-2.41c0.92-0.17,2.15-0.24,2.73,0"/>
		<path d="M27.36,12.5c0.91,0.47,2.04,2.25,2.04,4.42c0,0.95-0.3,73.73-0.3,74.58c0,11.25-4.72,2.62-6.1,1.25"/>
		<path d="M28.94,37.28c-5.5,15.8-8.56,22.48-17.08,36.31"/>
		<path d="M32.22,44.4c2.29,1.86,5.1,6.74,7.03,10.35"/>
		<path d="M50.9,16.6c0.81,0.54,3.45,0.61,4.29,0.55c6.23-0.44,20.82-1.89,27.25-2.45c1.25-0.11,2.4,0.11,3.43,0.56"/>
		<path d="M66.36,16.25c1.23,1.03,1.23,1.65,1.23,2.48c0,2.09-0.04,9.53-0.04,12.27"/>
		<path d="M45.25,33.05c0.71,0.32,4.04,0.65,5.25,0.51c13.02-1.55,25.58-2.3,38.59-3.28c1.94-0.15,4.44,0.03,5.41,0.53"/>
		<path d="M53.23,41.44c0.51,0.82,1.25,2.93,1.25,4.03s0,31.51,0,35.78"/>
		<path d="M54.55,43.77c2.88-0.14,24.11-2.89,26.73-3.05c2.19-0.14,2.95,0.78,2.95,3.78c0,4.75-0.24,34.88-0.24,35.7"/>
		<path d="M55.28,55.33c4.77-0.55,9.54-1.09,14.31-1.58c1.47-0.15,2.93-0.3,4.34-0.44"/>
		<path d="M54.74,66.4c4.75-0.66,10.52-1.14,15.3-1.57c1.28-0.11,2.55-0.22,3.82-0.33"/>
		<path d="M54.71,79.02c6.97-0.52,21.88-2.64,29.29-2.64"/>
		<path d="M60.65,82.79c0.34,0.96-0.01,2.01-0.68,2.71c-2.04,2.11-9.72,8-15.22,11.52"/>
		<path d="M76.19,83.47c6.31,3.76,13.76,10.58,15.48,13.87"/>
	</g>
</svg>
