<?xml version="1.0" encoding="UTF-8"?>
<!DOCTYPE svg PUBLIC "-//W3C//DTD SVG 1.0//EN" "http://www.w3.org/TR/2001/REC-SVG-20010904/DTD/svg10.dtd">
<svg xmlns="http://www.w3.org/2000/svg" width="109" height="109" viewBox="0 0 109 109">
	<g id="HelperGrid" style="opacity:0.75;">
		<rect x="0.5" y="0.5" style="fill:none;stroke:#404040;" width="108" height="108"/> 
		<line style="fill:none;stroke:#404040;" x1="0.5" y1="72.51" x2="108.5" y2="72.51"/>
		<line style="fill:none;stroke:#404040;" x1="0.5" y1="36.49" x2="108.5" y2="36.49"/>
		<line style="fill:none;stroke:#404040;" x1="72.5" y1="0.5" x2="72.5" y2="108.5"/>
		<line style="fill:none;stroke:#404040;" x1="36.5" y1="0.5" x2="36.5" y2="108.5"/>
	</g>
	<g id="Kanji">
		<text transform="matrix(1 0 0 1 0.5 93.3799)" style="font-size:108;">槭</text>
	</g>
	<g id="StrokeNumbers" style="font-size:8;fill:#808080">
		<text transform="matrix(1 0 0 1 4.5 39.5)">1</text>
		<text transform="matrix(1 0 0 1 19 15.5)">2</text>
		<text transform="matrix(1 0 0 1 19.5 48.5)">3</text>
		<text transform="matrix(1 0 0 1 32.5 48.5)">4</text>
		<text transform="matrix(1 0 0 1 40.25 43.8291)">5</text>
		<text transform="matrix(1 0 0 1 46.5 28.5)">6</text>
		<text transform="matrix(1 0 0 1 52.5 41.5)">7</text>
		<text transform="matrix(1 0 0 1 64.5 43.104)">8</text>
		<text transform="matrix(1 0 0 1 50.5 55.0293)">9</text>
		<text transform="matrix(1 0 0 1 52.75 66.4541)">10</text>
		<text transform="matrix(1 0 0 1 47.5 69.5)">11</text>
		<text transform="matrix(1 0 0 1 65.5 66.8047)">12</text>
		<text transform="matrix(1 0 0 1 59 12.5)">13</text>
		<text transform="matrix(1 0 0 1 80.5 43.5)">14</text>
		<text transform="matrix(1 0 0 1 77.25 10.3291)">15</text>
	</g>
	<g id="StrokePaths" style="fill:none;stroke:#404040;stroke-width:3;stroke-linecap:round;stroke-linejoin:round;">
		<path d="M10.53,38.98c0.37,0.18,2.54,0.31,3.52,0.24c4.19-0.31,16.08-0.9,22.82-1.81c0.98-0.13,2.29-0.18,2.9,0"/>
		<path d="M27.36,14.5c0.91,0.47,2.04,3,2.04,4.42c0,0.95-0.12,72.25-0.3,78.08"/>
		<path d="M28.94,42.28c-5.1,15.04-7.94,21.4-15.83,34.56"/>
		<path d="M31.97,48.65c2.23,2.04,5.9,8.65,7.78,12.6"/>
		<path d="M47.67,31.89c0.03,1.41-0.03,3.64-0.06,5.68c-0.27,18.98-3.54,46.32-10.54,55.15"/>
		<path d="M43.97,31.56c1.13,0.21,3.2,0.21,4.33,0.21C56.5,31.75,74,30.75,86.9,30.26c1.88-0.07,3.01,0.1,3.95,0.2"/>
		<path d="M59.67,38.13c0.43,0.3,1.34,2.22,1.42,2.81c0.09,0.59-0.05,13.12-0.14,16.82"/>
		<path d="M62.3,47.45c1.2-0.12,6.67-1.41,7.33-1.41s1.54,0,2.08,0.12"/>
		<path d="M49.96,58c0.39,0.16,1.85,0.68,2.23,0.66c3.48-0.16,12.49-1.41,18.92-1.92c0.64-0.05,2.02,0,2.86,0.66"/>
		<path d="M61.46,60.87c0.06,0.31,0.86,1.61,0.92,3.56c0.29,9.39-0.19,21.77-0.19,24.97c0,7.26-5.28,0.97-6.38,0.16"/>
		<path d="M54.29,69.96c0.03,0.41,0.05,1.07-0.05,1.66c-0.6,3.51-4.07,11.21-8.82,15.93"/>
		<path d="M67.27,68.33c2.35,1.53,6.07,6.29,6.66,8.66"/>
		<path d="M70.88,12.5c1.13,1.78,1.65,2.26,1.84,6.09c1.45,29.96,9.03,58.16,22.15,71.97c4.05,4.27,3.75,1.41,3.19-6.46"/>
		<path d="M92.2,45.14c0.07,1.09,0.28,2.87-0.13,4.38c-3.52,12.97-9.91,30.93-23.15,43.19"/>
		<path d="M83.22,14.25c2.88,1.55,7.48,5.09,8.82,7.75"/>
	</g>
</svg>
