<?xml version="1.0" encoding="UTF-8"?>
<!DOCTYPE svg PUBLIC "-//W3C//DTD SVG 1.0//EN" "http://www.w3.org/TR/2001/REC-SVG-20010904/DTD/svg10.dtd">
<svg xmlns="http://www.w3.org/2000/svg" width="109" height="109" viewBox="0 0 109 109">
	<g id="HelperGrid" style="opacity:0.75;">
		<rect x="0.5" y="0.5" style="fill:none;stroke:#404040;" width="108" height="108"/> 
		<line style="fill:none;stroke:#404040;" x1="0.5" y1="72.51" x2="108.5" y2="72.51"/>
		<line style="fill:none;stroke:#404040;" x1="0.5" y1="36.49" x2="108.5" y2="36.49"/>
		<line style="fill:none;stroke:#404040;" x1="72.5" y1="0.5" x2="72.5" y2="108.5"/>
		<line style="fill:none;stroke:#404040;" x1="36.5" y1="0.5" x2="36.5" y2="108.5"/>
	</g>
	<g id="Kanji">
		<text transform="matrix(1 0 0 1 0.5 93.3799)" style="font-size:108;">欒</text>
	</g>
	<g id="StrokeNumbers" style="font-size:8;fill:#808080">
		<text transform="matrix(1 0 0 1 41.5 10.5)">1</text>
		<text transform="matrix(1 0 0 1 39.5 17.5)">2</text>
		<text transform="matrix(1 0 0 1 39.5 27.5)">3</text>
		<text transform="matrix(1 0 0 1 41.5 33.5)">4</text>
		<text transform="matrix(1 0 0 1 40.5 48.8799)">5</text>
		<text transform="matrix(1 0 0 1 46.5 41.5)">6</text>
		<text transform="matrix(1 0 0 1 50.5 50.5)">7</text>
		<text transform="matrix(1 0 0 1 17.5 11.5)">8</text>
		<text transform="matrix(1 0 0 1 31.5 15.5)">9</text>
		<text transform="matrix(1 0 0 1 32.5 32.5)">10</text>
		<text transform="matrix(1 0 0 1 19.5 57.5)">11</text>
		<text transform="matrix(1 0 0 1 8.5 52.5)">12</text>
		<text transform="matrix(1 0 0 1 29.5 55.5)">13</text>
		<text transform="matrix(1 0 0 1 69.5 10.5)">14</text>
		<text transform="matrix(1 0 0 1 85.5 13.5)">15</text>
		<text transform="matrix(1 0 0 1 89.5 31.5)">16</text>
		<text transform="matrix(1 0 0 1 72.5 54.5)">17</text>
		<text transform="matrix(1 0 0 1 64.5 47.5)">18</text>
		<text transform="matrix(1 0 0 1 92.25 49.5)">19</text>
		<text transform="matrix(1 0 0 1 6.5 73.5)">20</text>
		<text transform="matrix(1 0 0 1 42.5 63.5)">21</text>
		<text transform="matrix(1 0 0 1 30.5 81.5)">22</text>
		<text transform="matrix(1 0 0 1 72.5 79.5)">23</text>
	</g>
	<g id="StrokePaths" style="fill:none;stroke:#404040;stroke-width:3;stroke-linecap:round;stroke-linejoin:round;">
		<path d="M48.08,9.75c2.41,1.02,6.22,4.21,6.82,5.8"/>
		<path d="M42.06,20.59c0.53,0.16,2.53,0.18,3.06,0.16c6.51-0.29,14.17-1.82,18.9-1.96c0.88-0.03,2.2,0.08,2.64,0.16"/>
		<path d="M46.45,27.45c0.32,0.08,2.27,0.09,2.59,0.08c3.31-0.09,6.18-0.91,9.45-0.9c0.53,0,2.75,0.04,3.01,0.08"/>
		<path d="M46.78,35.32c0.28,0.08,2.02,0.09,2.31,0.08c2.96-0.09,7.78-1.44,10.7-1.43c0.47,0,2.45,0.04,2.69,0.08"/>
		<path d="M45.45,42.37c0.29,0.25,0.62,0.45,0.72,0.77c0.83,2.87,0.88,7.39,1.72,11.61"/>
		<path d="M47.27,43.55c5.38-0.61,9.5-1.59,14.46-2.21c1.24-0.15,2,0.71,1.82,1.41c-0.74,2.9-1.39,4.24-2.7,9.06"/>
		<path d="M48.49,53.25c4.01-0.37,8.1-0.5,13.6-1.07"/>
		<path d="M24.9,11.75c0.31,0.99,0.48,1.76-0.16,2.82c-2.99,4.93-4.71,7.11-7.82,9.43c-0.64,0.48-0.62,2.3,0,2.49c3.26,0.99,5.34,3.15,8.14,4.98"/>
		<path d="M34.53,18.85c0.29,0.45,0.38,1.93,0,2.4C29,28.31,23.25,34.59,15.65,41.03c-1.74,1.48,0.43,2.32,1.57,2.02c4.75-1.26,13.62-3.27,19.73-4.47"/>
		<path d="M32.25,33.93c2.38,1.51,6.15,6.22,6.75,8.57"/>
		<path d="M26.83,43.05c0.05,0.23,0.73,1.21,0.78,2.68c0.25,7.08-0.16,12.6-0.16,15.01"/>
		<path d="M20.01,49.87c0.11,0.47,0.09,1.4-0.11,1.74c-1.3,2.2-4.56,6.43-6.4,8.32"/>
		<path d="M32.5,47.33c3.5,2.42,6.19,8.06,7,10.26"/>
		<path d="M79.37,10.25c0.26,0.89,0.39,1.58-0.13,2.52c-2.49,4.48-2.99,4.23-7.43,9.55c-0.44,0.52-0.52,2.05,0,2.22c2.74,0.89,5.75,1.87,8.1,3.5"/>
		<path d="M90.14,17.22c0.24,0.4,0.31,1.72,0,2.15c-4.65,6.3-14.01,12.75-20.4,18.5c-1.46,1.32,0.36,2.07,1.32,1.8c4-1.12,14.11-3.03,19.25-4.1"/>
		<path d="M86.62,31c2.27,1.68,5.86,6.91,6.42,9.52"/>
		<path d="M80.14,40.83c0.04,0.21,0.61,1.08,0.66,2.4c0.21,6.32-0.13,13.87-0.13,16.02"/>
		<path d="M72.79,45.6c0.12,0.53,0.1,1.58-0.12,1.96c-1.42,2.49-4.96,7.28-6.97,9.42"/>
		<path d="M87.59,46.03c3.02,2.2,5.34,7.31,6.04,9.3"/>
		<path d="M17.25,72.29c1.98,0.41,4.23,0.54,6.51,0.41c11.6-0.67,45.26-3.02,62.8-3.81c2.26-0.1,3.68,0.07,5.94,0.36"/>
		<path d="M53.03,58.75c0.94,0.5,1.69,2.22,1.69,3.25c0,10.5,0,32.25-0.19,38.5"/>
		<path d="M52.75,71.25c-6.68,7.84-24.6,19.81-38.5,24.25"/>
		<path d="M54.5,71c4.94,2.84,28.18,17.08,33.55,19.88c1.82,0.95,3.38,1.35,5.2,1.62"/>
	</g>
</svg>
