<?xml version="1.0" encoding="UTF-8"?>
<!-- Copyright (C) 2009 Ulrich Apel.
This work is distributed under the conditions of the Creative Commons
Attribution-Share Alike 3.0 Licence. This means you are free:
* to Share - to copy, distribute and transmit the work
* to Remix - to adapt the work

Under the following conditions:
* Attribution. You must attribute the work by stating your use of KanjiVG in
  your own copyright header and linking to KanjiVG's website
  (http://kanjivg.tagaini.net)
* Share Alike. If you alter, transform, or build upon this work, you may
  distribute the resulting work only under the same or similar license to this
  one.

See http://creativecommons.org/licenses/by-sa/3.0/ for more details. -->
<!DOCTYPE svg PUBLIC "-//W3C//DTD SVG 1.0//EN" "http://www.w3.org/TR/2001/REC-SVG-20010904/DTD/svg10.dtd">
<svg xmlns="http://www.w3.org/2000/svg" width="109" height="109" viewBox="0 0 109 109">
	<g id="HelperGrid" style="opacity:0.75;">
		<rect x="0.5" y="0.5" style="fill:none;stroke:#404040;" width="108" height="108"/> 
		<line style="fill:none;stroke:#404040;" x1="0.5" y1="72.51" x2="108.5" y2="72.51"/>
		<line style="fill:none;stroke:#404040;" x1="0.5" y1="36.49" x2="108.5" y2="36.49"/>
		<line style="fill:none;stroke:#404040;" x1="72.5" y1="0.5" x2="72.5" y2="108.5"/>
		<line style="fill:none;stroke:#404040;" x1="36.5" y1="0.5" x2="36.5" y2="108.5"/>
	</g>
	<g id="Kanji">
		<text transform="matrix(1 0 0 1 0.5 93.3799)" style="font-size:108;">歳</text>
	</g>
	<g id="StrokeNumbers" style="font-size:8;fill:#808080">
		<text transform="matrix(1 0 0 1 44.25 9.5)">1</text>
		<text transform="matrix(1 0 0 1 59.5 15.1299)">2</text>
		<text transform="matrix(1 0 0 1 23.5 17.5)">3</text>
		<text transform="matrix(1 0 0 1 15.75 34.5547)">4</text>
		<text transform="matrix(1 0 0 1 15.5 57.5)">5</text>
		<text transform="matrix(1 0 0 1 24.5 46.6299)">6</text>
		<text transform="matrix(1 0 0 1 28.5 59.5)">7</text>
		<text transform="matrix(1 0 0 1 39.5 70.5)">8</text>
		<text transform="matrix(1 0 0 1 27.75 72.5)">9</text>
		<text transform="matrix(1 0 0 1 52.5 68.5)">10</text>
		<text transform="matrix(1 0 0 1 50.25 42.1299)">11</text>
		<text transform="matrix(1 0 0 1 72.5 54.5)">12</text>
		<text transform="matrix(1 0 0 1 71.5 39.1299)">13</text>
	</g>
	<g id="StrokePaths" style="fill:none;stroke:#404040;stroke-width:3;stroke-linecap:round;stroke-linejoin:round;">
		<path d="M53.37,9c0.88,0.88,1.21,2.25,1.21,3.75c0,1.02,0.03,10.5,0.03,17.75"/>
		<path d="M55.88,20c5.24-0.75,9.87-1.75,15.1-2.5c1.73-0.25,2.93-0.25,4.01,0"/>
		<path d="M32.62,17.75c0.88,0.88,1.5,1.62,1.71,3.25c0.59,4.72,0.67,9.12,0.78,12"/>
		<path d="M23.5,33.96c4,0.66,6.87,0.46,10.25,0.06c13.75-1.64,30.37-3.95,44-5.03c3.29-0.26,6.25-0.59,9.5,0.06"/>
		<path d="M23.01,49.94c0.9,0.9,0.96,2.27,0.92,3.96c-0.36,15.76-4.74,39.71-14.12,47.04"/>
		<path d="M20.75,48.98c3.19,0.92,6.79,0.57,10.01,0.06c11.99-1.92,26.07-3.63,38.22-4.86C72.4,43.83,75.6,43.61,79,44.2"/>
		<path d="M32.25,60.91c1.19,0.38,3.37,0.52,4.55,0.38c4.57-0.54,12.45-1.54,17.79-2.57c1.94-0.37,3.67-0.31,4.66-0.12"/>
		<path d="M45.37,63.37c0.63,0.63,1.16,1.51,1.16,3c0,10.55,0.06,19.26,0.06,22.86c0,8.16-5.22,1.09-6.31,0.18"/>
		<path d="M35.6,72.11c0.03,0.43,0.17,1.14-0.05,1.73c-1.67,4.29-4.8,9.79-9.77,16.05"/>
		<path d="M53.75,69.38c2.28,2.33,5.9,9.56,6.47,13.18"/>
		<path d="M60,35.5c1.45,1.37,2.02,3,2.36,5.94C64.88,63.25,72.5,83,87.8,95.25c8.36,6.69,6.95,3,6.39-5.49"/>
		<path d="M83.23,55.12c0.08,0.97,0.16,2.5-0.15,3.89c-1.88,8.21-12.03,27.15-26.77,38.17"/>
		<path d="M81.75,37.15c3.1,1.94,8.05,6.36,9.5,9.68"/>
	</g>
</svg>
