<?xml version="1.0" encoding="UTF-8"?>
<!-- Copyright (C) 2009 Ulrich Apel.
This work is distributed under the conditions of the Creative Commons
Attribution-Share Alike 3.0 Licence. This means you are free:
* to Share - to copy, distribute and transmit the work
* to Remix - to adapt the work

Under the following conditions:
* Attribution. You must attribute the work by stating your use of KanjiVG in
  your own copyright header and linking to KanjiVG's website
  (http://kanjivg.tagaini.net)
* Share Alike. If you alter, transform, or build upon this work, you may
  distribute the resulting work only under the same or similar license to this
  one.

See http://creativecommons.org/licenses/by-sa/3.0/ for more details. -->
<!DOCTYPE svg PUBLIC "-//W3C//DTD SVG 1.0//EN" "http://www.w3.org/TR/2001/REC-SVG-20010904/DTD/svg10.dtd">
<svg xmlns="http://www.w3.org/2000/svg" width="109" height="109" viewBox="0 0 109 109">
	<g id="HelperGrid" style="opacity:0.75;">
		<rect x="0.5" y="0.5" style="fill:none;stroke:#404040;" width="108" height="108"/> 
		<line style="fill:none;stroke:#404040;" x1="0.5" y1="72.51" x2="108.5" y2="72.51"/>
		<line style="fill:none;stroke:#404040;" x1="0.5" y1="36.49" x2="108.5" y2="36.49"/>
		<line style="fill:none;stroke:#404040;" x1="72.5" y1="0.5" x2="72.5" y2="108.5"/>
		<line style="fill:none;stroke:#404040;" x1="36.5" y1="0.5" x2="36.5" y2="108.5"/>
	</g>
	<g id="Kanji">
		<text transform="matrix(1 0 0 1 0.5 93.3799)" style="font-size:108;">殖</text>
	</g>
	<g id="StrokeNumbers" style="font-size:8;fill:#808080">
		<text transform="matrix(1 0 0 1 11.5 26.5)">1</text>
		<text transform="matrix(1 0 0 1 20.25 36.5)">2</text>
		<text transform="matrix(1 0 0 1 32.5 37.5)">3</text>
		<text transform="matrix(1 0 0 1 25.5 55.5547)">4</text>
		<text transform="matrix(1 0 0 1 52.5 27.5)">5</text>
		<text transform="matrix(1 0 0 1 62.5 17.5)">6</text>
		<text transform="matrix(1 0 0 1 51.5 49.5)">7</text>
		<text transform="matrix(1 0 0 1 62.25 41.5)">8</text>
		<text transform="matrix(1 0 0 1 65.25 52.5)">9</text>
		<text transform="matrix(1 0 0 1 65.25 63.9238)">10</text>
		<text transform="matrix(1 0 0 1 65.25 75.8506)">11</text>
		<text transform="matrix(1 0 0 1 38.5 69.5)">12</text>
	</g>
	<g id="StrokePaths" style="fill:none;stroke:#404040;stroke-width:3;stroke-linecap:round;stroke-linejoin:round;">
		<path d="M18.17,25.6c1.96,0.4,3.73,0.27,5.7-0.04c5.08-0.81,13.48-2.04,19.14-2.79c1.82-0.24,3.7-0.57,5.5-0.04"/>
		<path d="M29.04,28.56c0.16,0.6,0.25,2.18-0.1,3.32c-2.35,7.75-6.97,19.1-15.3,28.55"/>
		<path d="M29.33,40.87c0.27,0.05,1.4,0,2.17-0.13c2.15-0.36,5.24-1.24,8.78-1.95c3.28-0.65,5.06,0.17,3.85,3.66C38.5,58.62,31.62,77.62,12.08,93"/>
		<path d="M23.98,55.49c2.61,1.52,6.74,6.25,7.39,8.61"/>
		<path d="M53.57,30.45c2.18,0.3,4.47,0.22,6.06,0.05c8.06-0.86,18.4-2.3,29-3.12c2.04-0.16,3.77-0.25,5.76,0.15"/>
		<path d="M72.4,17.37c1.05,1.05,1.22,2.26,1.27,3.62c0.03,0.92-1.04,14.26-1.81,20.97"/>
		<path d="M58.35,42.84c1.03,1.03,1.33,2.16,1.33,3.79c0,1,0.05,18.42,0,30.12c-0.01,1.8-0.02,3.45-0.05,4.89"/>
		<path d="M60.66,44.59c2.62-0.15,21.25-2.76,23.65-2.94c1.88-0.14,3.21,0.73,3.21,2.75c0,5.1,0.06,25.35,0.06,31.1c0,1.83-0.04,3.57-0.04,5.17"/>
		<path d="M60.62,55.52c6.13-0.52,19.88-1.89,25.51-2.09"/>
		<path d="M60.57,67.18c6.62-0.49,19.33-1.74,25.76-1.74"/>
		<path d="M60.59,78.97c4.62-0.44,22.42-1.52,25.74-1.52"/>
		<path d="M47.43,59.47c0.67,1.14,1.01,1.6,1.01,3.88s-0.02,19.52-0.02,23.62c0,2.34,1.12,3.52,3.16,3.42c13.18-0.64,25.8-1.02,38.06-1.56C92.07,88.73,95,89,97,89.38"/>
	</g>
</svg>
