<?xml version="1.0" encoding="UTF-8"?>
<!DOCTYPE svg PUBLIC "-//W3C//DTD SVG 1.0//EN" "http://www.w3.org/TR/2001/REC-SVG-20010904/DTD/svg10.dtd">
<svg xmlns="http://www.w3.org/2000/svg" width="109" height="109" viewBox="0 0 109 109">
	<g id="HelperGrid" style="opacity:0.75;">
		<rect x="0.5" y="0.5" style="fill:none;stroke:#404040;" width="108" height="108"/> 
		<line style="fill:none;stroke:#404040;" x1="0.5" y1="72.51" x2="108.5" y2="72.51"/>
		<line style="fill:none;stroke:#404040;" x1="0.5" y1="36.49" x2="108.5" y2="36.49"/>
		<line style="fill:none;stroke:#404040;" x1="72.5" y1="0.5" x2="72.5" y2="108.5"/>
		<line style="fill:none;stroke:#404040;" x1="36.5" y1="0.5" x2="36.5" y2="108.5"/>
	</g>
	<g id="Kanji">
		<text transform="matrix(1 0 0 1 0.5 93.3799)" style="font-size:108;">цок</text>
	</g>
	<g id="StrokeNumbers" style="font-size:8;fill:#808080">
		<text transform="matrix(1 0 0 1 8.5 18.5)">1</text>
		<text transform="matrix(1 0 0 1 20.5 29.5)">2</text>
		<text transform="matrix(1 0 0 1 32.5 32.5)">3</text>
		<text transform="matrix(1 0 0 1 23.5 51.5)">4</text>
		<text transform="matrix(1 0 0 1 49.5 19.5)">5</text>
		<text transform="matrix(1 0 0 1 63.25 11.5)">6</text>
		<text transform="matrix(1 0 0 1 50.5 31.6797)">7</text>
		<text transform="matrix(1 0 0 1 48.5 39.5)">8</text>
		<text transform="matrix(1 0 0 1 54.5 40.5)">9</text>
		<text transform="matrix(1 0 0 1 56.25 50.4541)">10</text>
		<text transform="matrix(1 0 0 1 46.5 68.5)">11</text>
		<text transform="matrix(1 0 0 1 58.5 59.5)">12</text>
		<text transform="matrix(1 0 0 1 61.5 71.2285)">13</text>
		<text transform="matrix(1 0 0 1 47.5 85.5)">14</text>
		<text transform="matrix(1 0 0 1 72.5 82.5)">15</text>
		<text transform="matrix(1 0 0 1 31.5 95.5)">16</text>
	</g>
	<g id="StrokePaths" style="fill:none;stroke:#404040;stroke-width:3;stroke-linecap:round;stroke-linejoin:round;">
		<path d="M14.75,17.97c1,0.03,2.79,0.59,3.8,0.52C25,18,38,16.25,44.28,15.51c1.64-0.19,2.64,0.25,3.47,0.5"/>
		<path d="M28.45,20.89c0.18,0.68,0.74,2.76,0.36,4.06c-2.6,8.81-7.9,21.71-17.13,32.46"/>
		<path d="M27.64,36.5c0.26,0.05,2.39,0,3.14-0.14c2.47-0.45,7.2-2.28,11.43-3.05c2.49-0.46,2.91,2.23,2.29,4.81C41.11,52.26,24.22,84.21,9.11,91.5"/>
		<path d="M20.71,51.48c3.29,2.06,8.49,8.46,9.31,11.66"/>
		<path d="M50.52,22.33c0.92,0.39,2.6,0.46,3.51,0.39c9.53-0.66,26.91-2.74,37.8-2.71c1.53,0,2.44,0.19,3.21,0.39"/>
		<path d="M71.02,11.5c0.76,0.36,1.21,1.63,1.36,2.36c0.15,0.73,0.42,13.48,0.27,18.02"/>
		<path d="M55.67,33.19c0.73,0.27,2.07,0.29,2.8,0.27c9.65-0.32,19.05-2.41,29.23-2.38c1.22,0,1.95,0.13,2.56,0.26"/>
		<path d="M50.55,41.95c-0.11,3.2-3.14,11.58-4.05,13.49"/>
		<path d="M52.07,44.15c2.6,0,27.46-3.77,40.53-3.77c8.89,0,2.81,5.1-0.51,8.43"/>
		<path d="M56.79,52.93c0.73,0.36,2.07,0.4,2.81,0.36c7.63-0.41,13.4-2.04,22.55-2.68c1.22-0.08,1.96,0.17,2.57,0.35"/>
		<path d="M54.87,61.17c0.28,0.3,0.63,0.53,0.68,0.93c0.38,2.87,1.9,9.68,2.75,15.4"/>
		<path d="M55.8,62.61C61.4,62.1,78.5,60,83.9,59.04c1.56-0.28,3.15,0.67,2.8,2.16c-0.64,2.68-1.8,6.8-3.73,11.92"/>
		<path d="M58.58,75.49c5.54-0.27,22.13-1.76,26.83-1.83"/>
		<path d="M57.25,80.42c2.21,1.82,5.71,7.5,6.26,10.34"/>
		<path d="M83.1,78.47c0.02,0.28,0.03,0.71-0.04,1.1c-0.41,2.33-2.78,7.42-6.01,10.55"/>
		<path d="M41.94,94.51c1.26,0.51,3.58,0.59,4.84,0.51c13.15-0.85,34.69-2.15,48.67-2.5c2.11-0.05,3.37,0.24,4.42,0.5"/>
	</g>
</svg>
