<?xml version="1.0" encoding="UTF-8"?>
<!-- Copyright (C) 2009 Ulrich Apel.
This work is distributed under the conditions of the Creative Commons
Attribution-Share Alike 3.0 Licence. This means you are free:
* to Share - to copy, distribute and transmit the work
* to Remix - to adapt the work

Under the following conditions:
* Attribution. You must attribute the work by stating your use of KanjiVG in
  your own copyright header and linking to KanjiVG's website
  (http://kanjivg.tagaini.net)
* Share Alike. If you alter, transform, or build upon this work, you may
  distribute the resulting work only under the same or similar license to this
  one.

See http://creativecommons.org/licenses/by-sa/3.0/ for more details. -->
<!DOCTYPE svg PUBLIC "-//W3C//DTD SVG 1.0//EN" "http://www.w3.org/TR/2001/REC-SVG-20010904/DTD/svg10.dtd">
<svg xmlns="http://www.w3.org/2000/svg" width="109" height="109" viewBox="0 0 109 109">
	<g id="HelperGrid" style="opacity:0.75;">
		<rect x="0.5" y="0.5" style="fill:none;stroke:#404040;" width="108" height="108"/> 
		<line style="fill:none;stroke:#404040;" x1="0.5" y1="72.51" x2="108.5" y2="72.51"/>
		<line style="fill:none;stroke:#404040;" x1="0.5" y1="36.49" x2="108.5" y2="36.49"/>
		<line style="fill:none;stroke:#404040;" x1="72.5" y1="0.5" x2="72.5" y2="108.5"/>
		<line style="fill:none;stroke:#404040;" x1="36.5" y1="0.5" x2="36.5" y2="108.5"/>
	</g>
	<g id="Kanji">
		<text transform="matrix(1 0 0 1 0.5 93.3799)" style="font-size:108;">殺</text>
	</g>
	<g id="StrokeNumbers" style="font-size:8;fill:#808080">
		<text transform="matrix(1 0 0 1 36.5 15.1299)">1</text>
		<text transform="matrix(1 0 0 1 12.75 24.5)">2</text>
		<text transform="matrix(1 0 0 1 9.5 55.5)">3</text>
		<text transform="matrix(1 0 0 1 28.5 45.5)">4</text>
		<text transform="matrix(1 0 0 1 24.75 61.6299)">5</text>
		<text transform="matrix(1 0 0 1 41.25 57.5)">6</text>
		<text transform="matrix(1 0 0 1 53.5 26.5)">7</text>
		<text transform="matrix(1 0 0 1 62.25 18.5)">8</text>
		<text transform="matrix(1 0 0 1 60.5 52.6299)">9</text>
		<text transform="matrix(1 0 0 1 53.5 75.5)">10</text>
	</g>
	<g id="StrokePaths" style="fill:none;stroke:#404040;stroke-width:3;stroke-linecap:round;stroke-linejoin:round;">
		<path d="M44.38,15.38c0.36,1.11,0.23,2.04-0.51,3.18C37.2,28.76,29.02,37.47,16.5,44.25"/>
		<path d="M21.45,22.72c8.03,0.92,20.88,5.6,27.59,12.5"/>
		<path d="M17.28,51.22c2.22,0.66,5.41,0.17,7.24-0.13c5.84-0.94,15.36-2.99,21.51-3.97c1.09-0.17,2.56-0.24,3.24,0"/>
		<path d="M35.77,39c1.37,1.37,1.86,3.5,1.86,5.17c0,0.79-0.08,30.93-0.1,45.58c-0.01,3.07-0.01,5.45-0.01,6.75"/>
		<path d="M36.33,49.78c0,0.97-0.2,2.09-0.53,2.87c-5.88,13.44-9.95,22.03-19.03,31.69"/>
		<path d="M40.75,58.88c2.49,1.56,6.58,6.61,8.68,9.62"/>
		<path d="M61.21,20.34c0.6,0.6,0.97,1.4,0.95,2.47c-0.23,11.07-3.81,23.28-10.25,28.21"/>
		<path d="M62.79,22.25c3.09-0.25,11.89-1.83,13.2-2.37c1.95-0.8,3.18,0.95,2.98,2.73c-0.39,3.48-1.08,9.36-1.08,12.84c0,6.68,0.97,8.29,7.4,8.29c6.47,0,7.41-1.66,7.41-8.68"/>
		<path d="M58.97,55.5c1.31,0.38,2.72,0.46,5.35-0.12c2.62-0.58,12.39-3.2,14.21-3.72c2.72-0.78,4.35,0.97,3.21,3.73C73.29,75.9,59.25,90.75,46.48,97.17"/>
		<path d="M55.39,63.69c5.49,0.43,18.45,17.09,30.35,25.97c2.36,1.76,4.97,3.78,7.89,4.46"/>
	</g>
</svg>
