<?xml version="1.0" encoding="UTF-8"?>
<!-- Copyright (C) 2009 Ulrich Apel.
This work is distributed under the conditions of the Creative Commons
Attribution-Share Alike 3.0 Licence. This means you are free:
* to Share - to copy, distribute and transmit the work
* to Remix - to adapt the work

Under the following conditions:
* Attribution. You must attribute the work by stating your use of KanjiVG in
  your own copyright header and linking to KanjiVG's website
  (http://kanjivg.tagaini.net)
* Share Alike. If you alter, transform, or build upon this work, you may
  distribute the resulting work only under the same or similar license to this
  one.

See http://creativecommons.org/licenses/by-sa/3.0/ for more details. -->
<!DOCTYPE svg PUBLIC "-//W3C//DTD SVG 1.0//EN" "http://www.w3.org/TR/2001/REC-SVG-20010904/DTD/svg10.dtd">
<svg xmlns="http://www.w3.org/2000/svg" width="109" height="109" viewBox="0 0 109 109">
	<g id="HelperGrid" style="opacity:0.75;">
		<rect x="0.5" y="0.5" style="fill:none;stroke:#404040;" width="108" height="108"/> 
		<line style="fill:none;stroke:#404040;" x1="0.5" y1="72.51" x2="108.5" y2="72.51"/>
		<line style="fill:none;stroke:#404040;" x1="0.5" y1="36.49" x2="108.5" y2="36.49"/>
		<line style="fill:none;stroke:#404040;" x1="72.5" y1="0.5" x2="72.5" y2="108.5"/>
		<line style="fill:none;stroke:#404040;" x1="36.5" y1="0.5" x2="36.5" y2="108.5"/>
	</g>
	<g id="Kanji">
		<text transform="matrix(1 0 0 1 0.5 93.3799)" style="font-size:108;">毋</text>
	</g>
	<g id="StrokeNumbers" style="font-size:8;fill:#808080">
		<text transform="matrix(1 0 0 1 29.5 28.6299)">1</text>
		<text transform="matrix(1 0 0 1 39.5 17.5)">2</text>
		<text transform="matrix(1 0 0 1 48.5 30.5)">3</text>
		<text transform="matrix(1 0 0 1 7.75 51.5)">4</text>
	</g>
	<g id="StrokePaths" style="fill:none;stroke:#404040;stroke-width:3;stroke-linecap:round;stroke-linejoin:round;">
		<path d="M35.3,18.98c1.1,1.06,1.65,4.6,1.36,7.38c-1.41,13.14-6.41,37.89-9.21,48.52c-1.03,3.89,0.48,4.92,2.57,4.92c14.23-0.04,36.73,2.71,52.48,9.48"/>
		<path d="M38.15,21.27c9.6-1.02,31.36-4.63,36.44-5.02c3.91-0.29,6.42,2.07,6.1,5.7C79,41.5,74,74.75,66.25,93c-3.34,7.86-9.5,1.75-11,0"/>
		<path d="M55.46,22.82c0.51,1.17,1.41,3.79,1.28,5.27C55.75,39.25,53,62,48.07,80.71"/>
		<path d="M15.13,50.83c1.13,0.65,3.2,0.72,4.34,0.65c11.77-0.75,49.04-2.96,70.71-3.13c1.89-0.01,3.02,0.31,3.96,0.64"/>
	</g>
</svg>
