<?xml version="1.0" encoding="UTF-8"?>
<!-- Copyright (C) 2009 Ulrich Apel.
This work is distributed under the conditions of the Creative Commons
Attribution-Share Alike 3.0 Licence. This means you are free:
* to Share - to copy, distribute and transmit the work
* to Remix - to adapt the work

Under the following conditions:
* Attribution. You must attribute the work by stating your use of KanjiVG in
  your own copyright header and linking to KanjiVG's website
  (http://kanjivg.tagaini.net)
* Share Alike. If you alter, transform, or build upon this work, you may
  distribute the resulting work only under the same or similar license to this
  one.

See http://creativecommons.org/licenses/by-sa/3.0/ for more details. -->
<!DOCTYPE svg PUBLIC "-//W3C//DTD SVG 1.0//EN" "http://www.w3.org/TR/2001/REC-SVG-20010904/DTD/svg10.dtd">
<svg xmlns="http://www.w3.org/2000/svg" width="109" height="109" viewBox="0 0 109 109">
	<g id="HelperGrid" style="opacity:0.75;">
		<rect x="0.5" y="0.5" style="fill:none;stroke:#404040;" width="108" height="108"/> 
		<line style="fill:none;stroke:#404040;" x1="0.5" y1="72.51" x2="108.5" y2="72.51"/>
		<line style="fill:none;stroke:#404040;" x1="0.5" y1="36.49" x2="108.5" y2="36.49"/>
		<line style="fill:none;stroke:#404040;" x1="72.5" y1="0.5" x2="72.5" y2="108.5"/>
		<line style="fill:none;stroke:#404040;" x1="36.5" y1="0.5" x2="36.5" y2="108.5"/>
	</g>
	<g id="Kanji">
		<text transform="matrix(1 0 0 1 0.5 93.3799)" style="font-size:108;">毫</text>
	</g>
	<g id="StrokeNumbers" style="font-size:8;fill:#808080">
		<text transform="matrix(1 0 0 1 43.5 9.5)">1</text>
		<text transform="matrix(1 0 0 1 14.5 23.5)">2</text>
		<text transform="matrix(1 0 0 1 31.5 36.5)">3</text>
		<text transform="matrix(1 0 0 1 40.5 28.5)">4</text>
		<text transform="matrix(1 0 0 1 44.5 37.5)">5</text>
		<text transform="matrix(1 0 0 1 14.5 47.5)">6</text>
		<text transform="matrix(1 0 0 1 24.5 45.5)">7</text>
		<text transform="matrix(1 0 0 1 55.5 53.5)">8</text>
		<text transform="matrix(1 0 0 1 20.5 73.5)">9</text>
		<text transform="matrix(1 0 0 1 6.25 85.5)">10</text>
		<text transform="matrix(1 0 0 1 44.5 67.5)">11</text>
	</g>
	<g id="StrokePaths" style="fill:none;stroke:#404040;stroke-width:3;stroke-linecap:round;stroke-linejoin:round;">
		<path d="M52.14,9.61c0.83,0.45,2.19,2.17,2.19,3.06c0,3.27-0.26,5.9-0.11,8.66"/>
		<path d="M21.98,23.17c1.66,0.29,3.13,0.61,5.04,0.4c11.39-1.22,43.83-3.47,57.1-4.06c1.95-0.09,2.95,0.03,4.4,0.52"/>
		<path d="M37.5,29.65c0.31,0.21,0.62,0.39,0.76,0.65c1.07,2.09,1.82,7.79,2.55,11.55"/>
		<path d="M39.41,30.36c7.52-0.88,21.71-2.69,25.59-2.99c1.42-0.11,3.34,0.74,3.1,2.31c-0.37,2.48-1.8,3.75-3.6,7.55"/>
		<path d="M41.63,39.88c4.56-0.33,19.54-1.98,25.33-2.32"/>
		<path d="M20.91,45.13c0,3.25-2.81,12.2-3.91,14.37"/>
		<path d="M21.24,48.74c1.39,0.03,56.24-4.55,63.45-4.9c12.05-0.59,2.05,7.16-0.95,9.28"/>
		<path d="M66.78,51.5c-0.03,1.25-0.58,1.77-1.2,2.07c-5.79,2.87-18,6.31-33.19,9.27"/>
		<path d="M28.52,72.04c1.14,0.27,3.25,0.35,4.38,0.27c11.89-0.86,29.66-3.85,39.5-4.48c1.88-0.12,3.05,0.13,4,0.26"/>
		<path d="M16.88,84.67c1.52,0.22,5.93,0.34,7.44,0.22c17.18-1.39,44.92-4.71,58.67-5.22c2.52-0.09,5.67,0.11,6.93,0.22"/>
		<path d="M52.42,62.2c0.77,0.69,1.38,2.01,1.43,3.09c0.21,4.79-0.76,22.74-0.76,25.68c0,7.75,5.56,8.56,20.84,8.56c19.21,0,20.06-2.98,20.06-8.1"/>
	</g>
</svg>
