<?xml version="1.0" encoding="UTF-8"?>
<!DOCTYPE svg PUBLIC "-//W3C//DTD SVG 1.0//EN" "http://www.w3.org/TR/2001/REC-SVG-20010904/DTD/svg10.dtd">
<svg xmlns="http://www.w3.org/2000/svg" width="109" height="109" viewBox="0 0 109 109">
	<g id="HelperGrid" style="opacity:0.75;">
		<rect x="0.5" y="0.5" style="fill:none;stroke:#404040;" width="108" height="108"/> 
		<line style="fill:none;stroke:#404040;" x1="0.5" y1="72.51" x2="108.5" y2="72.51"/>
		<line style="fill:none;stroke:#404040;" x1="0.5" y1="36.49" x2="108.5" y2="36.49"/>
		<line style="fill:none;stroke:#404040;" x1="72.5" y1="0.5" x2="72.5" y2="108.5"/>
		<line style="fill:none;stroke:#404040;" x1="36.5" y1="0.5" x2="36.5" y2="108.5"/>
	</g>
	<g id="Kanji">
		<text transform="matrix(1 0 0 1 0.5 93.3799)" style="font-size:108;">毳</text>
	</g>
	<g id="StrokeNumbers" style="font-size:8;fill:#808080">
		<text transform="matrix(1 0 0 1 58.5 10.5)">1</text>
		<text transform="matrix(1 0 0 1 21.5 32.5)">2</text>
		<text transform="matrix(1 0 0 1 15.5 43.5)">3</text>
		<text transform="matrix(1 0 0 1 41.5 28.5)">4</text>
		<text transform="matrix(1 0 0 1 35.5 53.5)">5</text>
		<text transform="matrix(1 0 0 1 8.5 73.5)">6</text>
		<text transform="matrix(1 0 0 1 4.5 85.5)">7</text>
		<text transform="matrix(1 0 0 1 34.5 68.5)">8</text>
		<text transform="matrix(1 0 0 1 66.25 57.5)">9</text>
		<text transform="matrix(1 0 0 1 51.5 67.5)">10</text>
		<text transform="matrix(1 0 0 1 52.5 77.5)">11</text>
		<text transform="matrix(1 0 0 1 75.5 64.5)">12</text>
	</g>
	<g id="StrokePaths" style="fill:none;stroke:#404040;stroke-width:3;stroke-linecap:round;stroke-linejoin:round;">
		<path d="M66.41,12c-0.16,1,0.09,1-1.2,1.51c-6.09,2.41-18.57,6.38-34.22,9.16"/>
		<path d="M28.49,31.6c1.14,0.33,3.23,0.43,4.36,0.33c11.82-1.04,27.99-4.06,37.76-4.83c1.87-0.15,3.03,0.16,3.98,0.32"/>
		<path d="M23.02,42.96c1.22,0.28,4.75,0.46,5.95,0.28C42.5,41.25,63.5,38,75.9,36.66c2.01-0.22,4.53,0.13,5.55,0.28"/>
		<path d="M48.41,22.33c0.76,0.56,1.36,1.22,1.4,2.08c0.2,3.85-0.25,16.51-0.25,18.88c0,6.24,4.49,6.49,19.55,6.49c18.92,0,18.28-1.19,18.28-5.31"/>
		<path d="M44.17,53.5c0.07,0.27,0.3,0.78-0.14,1.1c-4.14,2.93-13.57,7.46-24.43,10.48"/>
		<path d="M15.97,73.13c0.77,0.19,2.19,0.24,2.96,0.19c8.02-0.59,18.99-2.31,25.62-2.75c1.27-0.08,2.06,0.09,2.7,0.18"/>
		<path d="M12.13,84.11c0.79,0.14,3.09,0.17,3.89,0.14c9.94-0.47,23.46-2.88,30.64-3.2c1.31-0.06,2.96,0.07,3.62,0.13"/>
		<path d="M30.5,64.39c0.41,0.59,0.74,1.29,0.76,2.2c0.11,4.07-0.41,22.59-0.41,25.09c0,6.58,1.43,7.85,9.6,7.85c9.29,0,9.91-2.26,9.91-6.61"/>
		<path d="M82.25,53c0.07,0.24,0.27,0.68-0.13,0.95c-3.75,2.54-12.31,6.47-22.16,9.09"/>
		<path d="M56.6,69.96c0.83,0.24,2.36,0.31,3.18,0.24c8.63-0.75,20.43-2.92,27.57-3.46c1.37-0.11,2.21,0.11,2.9,0.23"/>
		<path d="M55.7,80.76c0.81,0.15,3.16,0.19,3.97,0.15c10.15-0.52,23.95-3.21,31.28-3.56c1.34-0.06,3.02,0.07,3.7,0.15"/>
		<path d="M71.36,62.08c0.42,0.61,0.76,1.32,0.78,2.25c0.11,4.17-0.42,22.61-0.42,25.17c0,6.75,2.5,9.02,10.87,9.02c10.52,0,11.17-3.29,11.17-7.75"/>
	</g>
</svg>
