<?xml version="1.0" encoding="UTF-8"?>
<!DOCTYPE svg PUBLIC "-//W3C//DTD SVG 1.0//EN" "http://www.w3.org/TR/2001/REC-SVG-20010904/DTD/svg10.dtd">
<svg xmlns="http://www.w3.org/2000/svg" width="109" height="109" viewBox="0 0 109 109">
	<g id="HelperGrid" style="opacity:0.75;">
		<rect x="0.5" y="0.5" style="fill:none;stroke:#404040;" width="108" height="108"/> 
		<line style="fill:none;stroke:#404040;" x1="0.5" y1="72.51" x2="108.5" y2="72.51"/>
		<line style="fill:none;stroke:#404040;" x1="0.5" y1="36.49" x2="108.5" y2="36.49"/>
		<line style="fill:none;stroke:#404040;" x1="72.5" y1="0.5" x2="72.5" y2="108.5"/>
		<line style="fill:none;stroke:#404040;" x1="36.5" y1="0.5" x2="36.5" y2="108.5"/>
	</g>
	<g id="Kanji">
		<text transform="matrix(1 0 0 1 0.5 93.3799)" style="font-size:108;">民</text>
	</g>
	<g id="StrokeNumbers" style="font-size:8;fill:#808080">
		<text transform="matrix(1 0 0 1 26.25 16.5)">1</text>
		<text transform="matrix(1 0 0 1 29.624 32.2246)">2</text>
		<text transform="matrix(1 0 0 1 16.5 25.5)">3</text>
		<text transform="matrix(1 0 0 1 29.5 51.5)">4</text>
		<text transform="matrix(1 0 0 1 46.5 43.6299)">5</text>
	</g>
	<g id="StrokePaths" style="fill:none;stroke:#404040;stroke-width:3;stroke-linecap:round;stroke-linejoin:round;">
		<path d="M21.89,17.96c1.98,0.92,4.61,1.29,7.49,0.96c12.78-1.48,33.28-3.93,41.51-4.66c4.36-0.39,6.23,1.61,5.37,4.65c-1.32,4.67-2.62,8.33-4.01,11.59"/>
		<path d="M25.35,36.27c9.44-0.95,33.85-3.79,45.27-4.92c1.98-0.2,4.5-0.61,6.13-0.35"/>
		<path d="M23,18.75c0.69,0.69,1.25,2.12,1.25,3.25c0,2.25-0.25,62.75-0.25,66.25s0.25,4.5,3.5,2S38.75,80,40.75,78.5"/>
		<path d="M27.73,55.8c1.65-0.21,3.64-0.46,5.88-0.75c13.44-1.7,33.41-4.24,46.41-6.28c1.85-0.29,3.99-0.53,5.77-0.12"/>
		<path d="M52.75,36.25c1.12,1.12,2.13,3.39,2.39,5.15c3.48,23.48,14.11,41.98,32.94,52.02c8.09,4.32,6.17-1.92,5.95-6.36"/>
	</g>
</svg>
