<?xml version="1.0" encoding="UTF-8"?>
<!-- Copyright (C) 2009 Ulrich Apel.
This work is distributed under the conditions of the Creative Commons
Attribution-Share Alike 3.0 Licence. This means you are free:
* to Share - to copy, distribute and transmit the work
* to Remix - to adapt the work

Under the following conditions:
* Attribution. You must attribute the work by stating your use of KanjiVG in
  your own copyright header and linking to KanjiVG's website
  (http://kanjivg.tagaini.net)
* Share Alike. If you alter, transform, or build upon this work, you may
  distribute the resulting work only under the same or similar license to this
  one.

See http://creativecommons.org/licenses/by-sa/3.0/ for more details. -->
<!DOCTYPE svg PUBLIC "-//W3C//DTD SVG 1.0//EN" "http://www.w3.org/TR/2001/REC-SVG-20010904/DTD/svg10.dtd">
<svg xmlns="http://www.w3.org/2000/svg" width="109" height="109" viewBox="0 0 109 109">
	<g id="HelperGrid" style="opacity:0.75;">
		<rect x="0.5" y="0.5" style="fill:none;stroke:#404040;" width="108" height="108"/> 
		<line style="fill:none;stroke:#404040;" x1="0.5" y1="72.51" x2="108.5" y2="72.51"/>
		<line style="fill:none;stroke:#404040;" x1="0.5" y1="36.49" x2="108.5" y2="36.49"/>
		<line style="fill:none;stroke:#404040;" x1="72.5" y1="0.5" x2="72.5" y2="108.5"/>
		<line style="fill:none;stroke:#404040;" x1="36.5" y1="0.5" x2="36.5" y2="108.5"/>
	</g>
	<g id="Kanji">
		<text transform="matrix(1 0 0 1 0.5 93.3799)" style="font-size:108;">氤</text>
	</g>
	<g id="StrokeNumbers" style="font-size:8;fill:#808080">
		<text transform="matrix(1 0 0 1 28.5 10.1309)">1</text>
		<text transform="matrix(1 0 0 1 42.5 15.5)">2</text>
		<text transform="matrix(1 0 0 1 35.5 28.5)">3</text>
		<text transform="matrix(1 0 0 1 24.5 40.5)">4</text>
		<text transform="matrix(1 0 0 1 15.5 59.5)">5</text>
		<text transform="matrix(1 0 0 1 26.5 52.2554)">6</text>
		<text transform="matrix(1 0 0 1 29.5 66.5)">7</text>
		<text transform="matrix(1 0 0 1 36.5 63.6045)">8</text>
		<text transform="matrix(1 0 0 1 50.5 76.5)">9</text>
		<text transform="matrix(1 0 0 1 38.5 92.5)">10</text>
	</g>
	<g id="StrokePaths" style="fill:none;stroke:#404040;stroke-width:3;stroke-linecap:round;stroke-linejoin:round;">
		<path d="M36.18,9.19c0.31,1.73,0.02,3.9-0.6,5.17C32,21.75,23.95,33.33,16.75,40"/>
		<path d="M35.12,19.51c1.13,0.24,3.05,0.42,4.25,0.33c8.48-0.63,30.28-1.65,40.48-1.94c1.03-0.03,3.01-0.01,3.96-0.01"/>
		<path d="M36.15,31.45c1.01,0.07,2.21,0.11,3.56,0.04c7.83-0.4,21.9-2.19,29.8-2.77c1.46-0.11,3.82-0.12,4.88-0.12"/>
		<path d="M23.25,42.25c1.15,0.5,3.37,0.86,4.96,0.72c12.84-1.07,39.76-2.16,50.53-3.09c2.96-0.25,2.98,1.15,2.68,2.94c-3.67,21.92,0.33,39.67,8.63,49.25c6.64,7.66,6.74,4.4,5.49-4.56"/>
		<path d="M23.5,53.94c0.45,0.78,1.1,1.36,1.11,2.39C24.7,64.08,24.7,83.21,24.43,98"/>
		<path d="M25.58,55.21c10.79-0.89,31.1-1.71,38.32-1.71c1.65,0,2.12,1.35,2.1,2.98c-0.15,8.55-0.6,28.08-0.3,40.16"/>
		<path d="M31,69.58c0.78,0.17,1.66,0.07,2.18,0.05c7.08-0.38,16.14-1.58,22.89-2.09c0.65-0.05,1.81-0.04,2.53-0.04"/>
		<path d="M44.39,59.61c0.21,0.42,0.31,0.91,0.31,1.81c-0.1,15.72-4.04,24.01-12.23,28.84"/>
		<path d="M44.73,74.42c4.67,2.77,10.55,7.77,13.38,13.18"/>
		<path d="M24.99,96.38c7.82,0,29.91-1.14,40.71-1.36"/>
	</g>
</svg>
