<?xml version="1.0" encoding="UTF-8"?>
<!DOCTYPE svg PUBLIC "-//W3C//DTD SVG 1.0//EN" "http://www.w3.org/TR/2001/REC-SVG-20010904/DTD/svg10.dtd">
<svg xmlns="http://www.w3.org/2000/svg" width="109" height="109" viewBox="0 0 109 109">
	<g id="HelperGrid" style="opacity:0.75;">
		<rect x="0.5" y="0.5" style="fill:none;stroke:#404040;" width="108" height="108"/> 
		<line style="fill:none;stroke:#404040;" x1="0.5" y1="72.51" x2="108.5" y2="72.51"/>
		<line style="fill:none;stroke:#404040;" x1="0.5" y1="36.49" x2="108.5" y2="36.49"/>
		<line style="fill:none;stroke:#404040;" x1="72.5" y1="0.5" x2="72.5" y2="108.5"/>
		<line style="fill:none;stroke:#404040;" x1="36.5" y1="0.5" x2="36.5" y2="108.5"/>
	</g>
	<g id="Kanji">
		<text transform="matrix(1 0 0 1 0.5 93.3799)" style="font-size:108;">求</text>
	</g>
	<g id="StrokeNumbers" style="font-size:8;fill:#808080">
		<text transform="matrix(1 0 0 1 13.5 36.5)">1</text>
		<text transform="matrix(1 0 0 1 43.9922 10.5552)">2</text>
		<text transform="matrix(1 0 0 1 18.4922 50.9805)">3</text>
		<text transform="matrix(1 0 0 1 10.9922 89.5)">4</text>
		<text transform="matrix(1 0 0 1 72.5 42.5)">5</text>
		<text transform="matrix(1 0 0 1 60.4922 74.7559)">6</text>
		<text transform="matrix(1 0 0 1 63.5 10.5)">7</text>
	</g>
	<g id="StrokePaths" style="fill:none;stroke:#404040;stroke-width:3;stroke-linecap:round;stroke-linejoin:round;">
		<path d="M19.75,35.4c2.75,0.47,6.08,0.33,8.77,0.02C41,34,62.3,31.74,74.38,30.83c3.24-0.25,6.66-0.65,9.87,0.05"/>
		<path d="M52.27,11.33c1.26,1.26,1.76,2.67,1.76,4.77c0,15.77-0.01,68.02-0.01,77.12c0,8.53-5.77,2.53-8.71,0.25"/>
		<path d="M26.27,49.08c3.99,1.48,10.3,6.08,11.29,8.38"/>
		<path d="M18.45,83.33c1.18,0.55,2.93,0.42,4.3-0.7c1.7-1.39,14.5-13.38,22.75-21.38"/>
		<path d="M81,42.25c0,0.88-0.22,2.08-0.78,2.81c-3.37,4.36-9.59,9.13-15.47,12.19"/>
		<path d="M60.25,62.5c3.5,1,17.39,15.53,24.45,20.14c2.06,1.34,5.3,3.48,8.05,4.36"/>
		<path d="M69.5,11.5c4.08,1.63,10.54,6.69,11.56,9.22"/>
	</g>
</svg>
