<?xml version="1.0" encoding="UTF-8"?>
<!-- Copyright (C) 2009 Ulrich Apel.
This work is distributed under the conditions of the Creative Commons
Attribution-Share Alike 3.0 Licence. This means you are free:
* to Share - to copy, distribute and transmit the work
* to Remix - to adapt the work

Under the following conditions:
* Attribution. You must attribute the work by stating your use of KanjiVG in
  your own copyright header and linking to KanjiVG's website
  (http://kanjivg.tagaini.net)
* Share Alike. If you alter, transform, or build upon this work, you may
  distribute the resulting work only under the same or similar license to this
  one.

See http://creativecommons.org/licenses/by-sa/3.0/ for more details. -->
<!DOCTYPE svg PUBLIC "-//W3C//DTD SVG 1.0//EN" "http://www.w3.org/TR/2001/REC-SVG-20010904/DTD/svg10.dtd">
<svg xmlns="http://www.w3.org/2000/svg" width="109" height="109" viewBox="0 0 109 109">
	<g id="HelperGrid" style="opacity:0.75;">
		<rect x="0.5" y="0.5" style="fill:none;stroke:#404040;" width="108" height="108"/> 
		<line style="fill:none;stroke:#404040;" x1="0.5" y1="72.51" x2="108.5" y2="72.51"/>
		<line style="fill:none;stroke:#404040;" x1="0.5" y1="36.49" x2="108.5" y2="36.49"/>
		<line style="fill:none;stroke:#404040;" x1="72.5" y1="0.5" x2="72.5" y2="108.5"/>
		<line style="fill:none;stroke:#404040;" x1="36.5" y1="0.5" x2="36.5" y2="108.5"/>
	</g>
	<g id="Kanji">
		<text transform="matrix(1 0 0 1 0.5 93.3799)" style="font-size:108;">汞</text>
	</g>
	<g id="StrokeNumbers" style="font-size:8;fill:#808080">
		<text transform="matrix(1 0 0 1 21.5 16.5)">1</text>
		<text transform="matrix(1 0 0 1 46.5 26.5)">2</text>
		<text transform="matrix(1 0 0 1 7.5 39.5)">3</text>
		<text transform="matrix(1 0 0 1 46.5 47.5)">4</text>
		<text transform="matrix(1 0 0 1 11.5 57.5)">5</text>
		<text transform="matrix(1 0 0 1 73.5 45.5)">6</text>
		<text transform="matrix(1 0 0 1 59.5 53.5)">7</text>
	</g>
	<g id="StrokePaths" style="fill:none;stroke:#404040;stroke-width:3;stroke-linecap:round;stroke-linejoin:round;">
		<path d="M28.12,16.96c0.95,0.3,4.04,0.4,5,0.31c4.46-0.41,37.51-2.26,45.01-2.57c1.46-0.06,2.79,0.06,4,0.31"/>
		<path d="M52.32,18.9c1.88,1.92,1.88,3.07,1.88,4.61c0,2.99-0.06,8.74-0.06,12.95"/>
		<path d="M14.67,38.97c0.94,0.22,4.31,0.45,5.91,0.35c17.21-1.06,51.39-3.63,67.06-3.96c2.57-0.05,5.65,0.36,6.94,0.71"/>
		<path d="M53.79,41.08c0.82,0.76,1.39,2.06,1.46,4.58c0.33,12.08-0.21,43.67-0.21,47.79c0,8.12-6.24,0.03-7.48-1.01"/>
		<path d="M18.5,56.75c1.5,0.25,3.18,0.72,4.75,0.5c5.25-0.75,12-1.75,16.84-2.25c2.68-0.28,4.61,0.79,3.75,3C39.25,69.75,29.25,82.5,13.5,90.25"/>
		<path d="M82.72,44.5c0.09,0.41-0.19,1.59-0.55,2.12C78.79,51.66,71.61,57.87,65.5,60.5"/>
		<path d="M55.5,53c11.25,10.75,25.25,24.25,35.44,31.35c2.1,1.46,4.29,1.96,6.31,2.4"/>
	</g>
</svg>
