<?xml version="1.0" encoding="UTF-8"?>
<!-- Copyright (C) 2009 Ulrich Apel.
This work is distributed under the conditions of the Creative Commons
Attribution-Share Alike 3.0 Licence. This means you are free:
* to Share - to copy, distribute and transmit the work
* to Remix - to adapt the work

Under the following conditions:
* Attribution. You must attribute the work by stating your use of KanjiVG in
  your own copyright header and linking to KanjiVG's website
  (http://kanjivg.tagaini.net)
* Share Alike. If you alter, transform, or build upon this work, you may
  distribute the resulting work only under the same or similar license to this
  one.

See http://creativecommons.org/licenses/by-sa/3.0/ for more details. -->
<!DOCTYPE svg PUBLIC "-//W3C//DTD SVG 1.0//EN" "http://www.w3.org/TR/2001/REC-SVG-20010904/DTD/svg10.dtd">
<svg xmlns="http://www.w3.org/2000/svg" width="109" height="109" viewBox="0 0 109 109">
	<g id="HelperGrid" style="opacity:0.75;">
		<rect x="0.5" y="0.5" style="fill:none;stroke:#404040;" width="108" height="108"/> 
		<line style="fill:none;stroke:#404040;" x1="0.5" y1="72.51" x2="108.5" y2="72.51"/>
		<line style="fill:none;stroke:#404040;" x1="0.5" y1="36.49" x2="108.5" y2="36.49"/>
		<line style="fill:none;stroke:#404040;" x1="72.5" y1="0.5" x2="72.5" y2="108.5"/>
		<line style="fill:none;stroke:#404040;" x1="36.5" y1="0.5" x2="36.5" y2="108.5"/>
	</g>
	<g id="Kanji">
		<text transform="matrix(1 0 0 1 0.5 93.3799)" style="font-size:108;">汳</text>
	</g>
	<g id="StrokeNumbers" style="font-size:8;fill:#808080">
		<text transform="matrix(1 0 0 1 12.5 16.5)">1</text>
		<text transform="matrix(1 0 0 1 7.5 44.5547)">2</text>
		<text transform="matrix(1 0 0 1 6.5 93.5)">3</text>
		<text transform="matrix(1 0 0 1 46.5 18.5)">4</text>
		<text transform="matrix(1 0 0 1 41.5 30.5)">5</text>
		<text transform="matrix(1 0 0 1 54.5 39.5)">6</text>
		<text transform="matrix(1 0 0 1 60.5 52.5)">7</text>
	</g>
	<g id="StrokePaths" style="fill:none;stroke:#404040;stroke-width:3;stroke-linecap:round;stroke-linejoin:round;">
		<path d="M19.38,16.75c4.9,1.65,12.64,6.78,13.87,9.34"/>
		<path d="M14.75,44.25c4.68,1.63,12.08,6.71,13.25,9.25"/>
		<path d="M15.25,89.75c1.78,1.25,3.91,1.3,5.03-0.24C23.54,85,31.79,71,34.75,65.25"/>
		<path d="M45.54,21.42c1.27,0.39,3.61,0.53,4.86,0.39c11.94-1.36,25.61-3.06,36.14-3.78c2.1-0.14,3.38,0.19,4.43,0.38"/>
		<path d="M48.75,21.92c0.45,1.81,0.48,4.31,0.42,6.71C48.54,52.79,50.5,74,36.72,93.53"/>
		<path d="M50.3,42.76c1.7,0.24,3.5,0.21,6.27-0.12C62,42,77,40.5,81.77,40.01c1.96-0.2,4.24,1.61,3.56,3.72c-8.03,24.92-18.69,44.94-37.6,53.79"/>
		<path d="M54.19,45.03c3.06,7.22,16.56,31.22,34.91,47.31c2.24,1.96,3.57,3.57,5.49,4.28"/>
	</g>
</svg>
