<?xml version="1.0" encoding="UTF-8"?>
<!DOCTYPE svg PUBLIC "-//W3C//DTD SVG 1.0//EN" "http://www.w3.org/TR/2001/REC-SVG-20010904/DTD/svg10.dtd">
<svg xmlns="http://www.w3.org/2000/svg" width="109" height="109" viewBox="0 0 109 109">
	<g id="HelperGrid" style="opacity:0.75;">
		<rect x="0.5" y="0.5" style="fill:none;stroke:#404040;" width="108" height="108"/> 
		<line style="fill:none;stroke:#404040;" x1="0.5" y1="72.51" x2="108.5" y2="72.51"/>
		<line style="fill:none;stroke:#404040;" x1="0.5" y1="36.49" x2="108.5" y2="36.49"/>
		<line style="fill:none;stroke:#404040;" x1="72.5" y1="0.5" x2="72.5" y2="108.5"/>
		<line style="fill:none;stroke:#404040;" x1="36.5" y1="0.5" x2="36.5" y2="108.5"/>
	</g>
	<g id="Kanji">
		<text transform="matrix(1 0 0 1 0.5 93.3799)" style="font-size:108;">沙</text>
	</g>
	<g id="StrokeNumbers" style="font-size:8;fill:#808080">
		<text transform="matrix(1 0 0 1 18.25 17.25)">1</text>
		<text transform="matrix(1 0 0 1 9.25 41.25)">2</text>
		<text transform="matrix(1 0 0 1 8.25 94.25)">3</text>
		<text transform="matrix(1 0 0 1 56.25 12.1543)">4</text>
		<text transform="matrix(1 0 0 1 44.25 33.25)">5</text>
		<text transform="matrix(1 0 0 1 74.25 31.25)">6</text>
		<text transform="matrix(1 0 0 1 76.25 50.25)">7</text>
	</g>
	<g id="StrokePaths" style="fill:none;stroke:#404040;stroke-width:3;stroke-linecap:round;stroke-linejoin:round;">
		<path d="M24.38,17.5c4.45,1.65,11.5,6.78,12.62,9.34"/>
		<path d="M16.75,41.25c4.68,1.23,12.08,5.08,13.25,7"/>
		<path d="M16.25,89.2c1.91,0.73,3.09,0.08,4.18-1.7c3.2-5.18,6.4-11.52,9.32-18.13"/>
		<path d="M65.71,13.25c0.83,0.83,1.01,2.12,1.01,3.83c0,10.12-0.01,39.7-0.01,43.15c0,9.77-6.71,2.04-8.21,1.17"/>
		<path d="M52.43,33.92c0.07,1.22,0.08,2.29-0.38,3.43c-2.18,5.4-6.76,14.23-11.64,20.83"/>
		<path d="M78.5,34.25c6.37,3.09,14,10.25,16.5,15.84"/>
		<path d="M84.37,50.33c0.12,1.17-0.13,2.54-0.75,4.2c-5.15,13.68-24.74,36.03-44.86,45.22"/>
	</g>
</svg>
