<?xml version="1.0" encoding="UTF-8"?>
<!DOCTYPE svg PUBLIC "-//W3C//DTD SVG 1.0//EN" "http://www.w3.org/TR/2001/REC-SVG-20010904/DTD/svg10.dtd">
<svg xmlns="http://www.w3.org/2000/svg" width="109" height="109" viewBox="0 0 109 109">
	<g id="HelperGrid" style="opacity:0.75;">
		<rect x="0.5" y="0.5" style="fill:none;stroke:#404040;" width="108" height="108"/> 
		<line style="fill:none;stroke:#404040;" x1="0.5" y1="72.51" x2="108.5" y2="72.51"/>
		<line style="fill:none;stroke:#404040;" x1="0.5" y1="36.49" x2="108.5" y2="36.49"/>
		<line style="fill:none;stroke:#404040;" x1="72.5" y1="0.5" x2="72.5" y2="108.5"/>
		<line style="fill:none;stroke:#404040;" x1="36.5" y1="0.5" x2="36.5" y2="108.5"/>
	</g>
	<g id="Kanji">
		<text transform="matrix(1 0 0 1 0.5 93.3799)" style="font-size:108;">沢</text>
	</g>
	<g id="StrokeNumbers" style="font-size:8;fill:#808080">
		<text transform="matrix(1 0 0 1 11.25 13.6299)">1</text>
		<text transform="matrix(1 0 0 1 3.75 40.5547)">2</text>
		<text transform="matrix(1 0 0 1 3.75 95.9785)">3</text>
		<text transform="matrix(1 0 0 1 51.5 19.5)">4</text>
		<text transform="matrix(1 0 0 1 54.75 42.0547)">5</text>
		<text transform="matrix(1 0 0 1 41.5 29.5)">6</text>
		<text transform="matrix(1 0 0 1 66.75 57.1299)">7</text>
	</g>
	<g id="StrokePaths" style="fill:none;stroke:#404040;stroke-width:3;stroke-linecap:round;stroke-linejoin:round;">
		<path d="M19.63,14c3.31,1.47,8.54,6.05,9.37,8.34"/>
		<path d="M11.25,40.5c3.53,1.37,9.12,5.62,10,7.75"/>
		<path d="M12,90.29c1.75,0.84,3.23,0.3,4.18-1.23C19.88,83.12,23.12,78,27,71.5"/>
		<path d="M46.39,21.57c1.5,0.77,3.43,1,5.02,0.79C59.88,21.25,69,20,75.8,19.31c4.86-0.49,6.87,0.28,5.87,5.42c-0.94,4.9-2.11,10.64-3.67,18.02"/>
		<path d="M50,46.75c3.33-0.2,16.13-1.58,24.02-2.32c2.36-0.22,4.5-0.39,5.54-0.44"/>
		<path d="M48.59,22.87c0.9,0.9,1.25,2.32,1.25,3.63C49.82,48.19,49.42,73.93,33.25,90"/>
		<path d="M58.25,47c6,10.25,14.88,24.62,24.77,35.47C86.25,86.02,89,89,93,92.25"/>
	</g>
</svg>
