<?xml version="1.0" encoding="UTF-8"?>
<!DOCTYPE svg PUBLIC "-//W3C//DTD SVG 1.0//EN" "http://www.w3.org/TR/2001/REC-SVG-20010904/DTD/svg10.dtd">
<svg xmlns="http://www.w3.org/2000/svg" width="109" height="109" viewBox="0 0 109 109">
	<g id="HelperGrid" style="opacity:0.75;">
		<rect x="0.5" y="0.5" style="fill:none;stroke:#404040;" width="108" height="108"/> 
		<line style="fill:none;stroke:#404040;" x1="0.5" y1="72.51" x2="108.5" y2="72.51"/>
		<line style="fill:none;stroke:#404040;" x1="0.5" y1="36.49" x2="108.5" y2="36.49"/>
		<line style="fill:none;stroke:#404040;" x1="72.5" y1="0.5" x2="72.5" y2="108.5"/>
		<line style="fill:none;stroke:#404040;" x1="36.5" y1="0.5" x2="36.5" y2="108.5"/>
	</g>
	<g id="Kanji">
		<text transform="matrix(1 0 0 1 0.5 93.3799)" style="font-size:108;">泡</text>
	</g>
	<g id="StrokeNumbers" style="font-size:8;fill:#808080">
		<text transform="matrix(1 0 0 1 12.75 15.1299)">1</text>
		<text transform="matrix(1 0 0 1 8.25 39.0547)">2</text>
		<text transform="matrix(1 0 0 1 5.25 98.9785)">3</text>
		<text transform="matrix(1 0 0 1 47.25 15.1299)">4</text>
		<text transform="matrix(1 0 0 1 62.25 25.6299)">5</text>
		<text transform="matrix(1 0 0 1 51.75 43.5547)">6</text>
		<text transform="matrix(1 0 0 1 51.75 62.9785)">7</text>
		<text transform="matrix(1 0 0 1 41.25 72.1299)">8</text>
	</g>
	<g id="StrokePaths" style="fill:none;stroke:#404040;stroke-width:3;stroke-linecap:round;stroke-linejoin:round;">
		<path d="M21.62,15.38c4.37,1.49,11.28,6.14,12.38,8.47"/>
		<path d="M15.75,38.5c4.24,1.63,10.94,6.71,12,9.25"/>
		<path d="M14.5,94.48c1.62,0.52,3.11-0.12,4.11-1.75c3.14-5.11,5.79-9.91,8.64-15.74"/>
		<path d="M57.89,12.75c0.07,1.13,0.09,2.1-0.3,3.18c-2.71,7.44-8.44,19.09-16.11,28.52"/>
		<path d="M54.73,29.23c2.52,0.77,5.24,0.45,7.39,0.13c6.38-0.96,19.9-3.43,25.37-4.21c4-0.57,5.96,0.93,5.72,5.1c-0.52,8.81-2.57,22.56-6.13,35.08c-1.59,5.62-3.33,6.76-7.58,2.24"/>
		<path d="M49.48,46.27c2.3,0.89,3.7,0.77,6.15,0.37c5.13-0.84,14.49-2.31,15.58-2.42c1.62-0.16,2.92,1.05,2.32,3.52c-0.52,2.14-2.02,9.01-3.6,15.5"/>
		<path d="M48.08,65.14c0.94,0.24,2.3,0.91,3.92,0.87c5.5-0.13,11.14-0.96,16-1.54c2.06-0.25,3-0.35,4.38-0.05"/>
		<path d="M48.99,66.53c0.93,0.93,1.1,1.93,1.09,3.65C50.05,75.69,50,81.7,50,85.5c0,10.45,1.25,11.19,22.82,11.19c20.93,0,22.21-1.81,22.21-13.09"/>
	</g>
</svg>
