<?xml version="1.0" encoding="UTF-8"?>
<!-- Copyright (C) 2009 Ulrich Apel.
This work is distributed under the conditions of the Creative Commons
Attribution-Share Alike 3.0 Licence. This means you are free:
* to Share - to copy, distribute and transmit the work
* to Remix - to adapt the work

Under the following conditions:
* Attribution. You must attribute the work by stating your use of KanjiVG in
  your own copyright header and linking to KanjiVG's website
  (http://kanjivg.tagaini.net)
* Share Alike. If you alter, transform, or build upon this work, you may
  distribute the resulting work only under the same or similar license to this
  one.

See http://creativecommons.org/licenses/by-sa/3.0/ for more details. -->
<!DOCTYPE svg PUBLIC "-//W3C//DTD SVG 1.0//EN" "http://www.w3.org/TR/2001/REC-SVG-20010904/DTD/svg10.dtd">
<svg xmlns="http://www.w3.org/2000/svg" width="109" height="109" viewBox="0 0 109 109">
	<g id="HelperGrid" style="opacity:0.75;">
		<rect x="0.5" y="0.5" style="fill:none;stroke:#404040;" width="108" height="108"/> 
		<line style="fill:none;stroke:#404040;" x1="0.5" y1="72.51" x2="108.5" y2="72.51"/>
		<line style="fill:none;stroke:#404040;" x1="0.5" y1="36.49" x2="108.5" y2="36.49"/>
		<line style="fill:none;stroke:#404040;" x1="72.5" y1="0.5" x2="72.5" y2="108.5"/>
		<line style="fill:none;stroke:#404040;" x1="36.5" y1="0.5" x2="36.5" y2="108.5"/>
	</g>
	<g id="Kanji">
		<text transform="matrix(1 0 0 1 0.5 93.3799)" style="font-size:108;">泳</text>
	</g>
	<g id="StrokeNumbers" style="font-size:8;fill:#808080">
		<text transform="matrix(1 0 0 1 11.25 22.6299)">1</text>
		<text transform="matrix(1 0 0 1 8.25 45.1299)">2</text>
		<text transform="matrix(1 0 0 1 8.25 97.6299)">3</text>
		<text transform="matrix(1 0 0 1 46.5 13.5)">4</text>
		<text transform="matrix(1 0 0 1 36.75 35.5)">5</text>
		<text transform="matrix(1 0 0 1 32.5 54.1299)">6</text>
		<text transform="matrix(1 0 0 1 77.5 38.5)">7</text>
		<text transform="matrix(1 0 0 1 75.5 59.5)">8</text>
	</g>
	<g id="StrokePaths" style="fill:none;stroke:#404040;stroke-width:3;stroke-linecap:round;stroke-linejoin:round;">
		<path d="M19.88,21.75c3.75,1.16,9.68,4.78,10.62,6.59"/>
		<path d="M15.75,44.5c4.06,1.15,10.48,4.72,11.5,6.5"/>
		<path d="M16,91.21c2,0.42,3.31-0.14,4.25-1.75c2.75-4.7,5-9.95,7.5-15.95"/>
		<path d="M54.25,13.5c4.83,2.47,8.69,5.86,10.14,9.25"/>
		<path d="M44.69,35.25c1.19,0.41,2.78,0.62,4.63,0.31c3.43-0.56,7.89-2.14,12.15-2.64c1.75-0.21,3.78,1.08,3.78,4.33c0,15.75-0.48,47.72-0.49,52.27c-0.01,7.98-6.01,1.98-8.47-0.08"/>
		<path d="M34.25,57.21c1.27,0.23,2.7,0.21,4.03-0.05c4.6-0.91,9.14-2.1,11.25-3c2.12-0.91,3.94,0.73,3.18,2.72c-4.1,10.72-10.92,21.44-19.19,27.75"/>
		<path d="M84.73,39.85c0.02,1.03-0.33,2.13-0.96,2.86c-3.64,4.2-10.51,9.32-16.16,11.43"/>
		<path d="M66.75,54.62c5.68,7.75,14.79,17.92,21.77,23.62c2.11,1.72,3.59,3.26,6.61,4.13"/>
	</g>
</svg>
