<?xml version="1.0" encoding="UTF-8"?>
<!DOCTYPE svg PUBLIC "-//W3C//DTD SVG 1.0//EN" "http://www.w3.org/TR/2001/REC-SVG-20010904/DTD/svg10.dtd">
<svg xmlns="http://www.w3.org/2000/svg" width="109" height="109" viewBox="0 0 109 109">
	<g id="HelperGrid" style="opacity:0.75;">
		<rect x="0.5" y="0.5" style="fill:none;stroke:#404040;" width="108" height="108"/> 
		<line style="fill:none;stroke:#404040;" x1="0.5" y1="72.51" x2="108.5" y2="72.51"/>
		<line style="fill:none;stroke:#404040;" x1="0.5" y1="36.49" x2="108.5" y2="36.49"/>
		<line style="fill:none;stroke:#404040;" x1="72.5" y1="0.5" x2="72.5" y2="108.5"/>
		<line style="fill:none;stroke:#404040;" x1="36.5" y1="0.5" x2="36.5" y2="108.5"/>
	</g>
	<g id="Kanji">
		<text transform="matrix(1 0 0 1 0.5 93.3799)" style="font-size:108;">津</text>
	</g>
	<g id="StrokeNumbers" style="font-size:8;fill:#808080">
		<text transform="matrix(1 0 0 1 13.5 19.5)">1</text>
		<text transform="matrix(1 0 0 1 6.75 42.0547)">2</text>
		<text transform="matrix(1 0 0 1 9.5 92.5)">3</text>
		<text transform="matrix(1 0 0 1 36.75 24.1299)">4</text>
		<text transform="matrix(1 0 0 1 35.25 36.0547)">5</text>
		<text transform="matrix(1 0 0 1 38.25 52.479)">6</text>
		<text transform="matrix(1 0 0 1 38.25 64.4053)">7</text>
		<text transform="matrix(1 0 0 1 35.5 73.5)">8</text>
		<text transform="matrix(1 0 0 1 52.5 10.6299)">9</text>
	</g>
	<g id="StrokePaths" style="fill:none;stroke:#404040;stroke-width:3;stroke-linecap:round;stroke-linejoin:round;">
		<path d="M19.62,17.62c4.02,1.58,10.37,6.51,11.38,8.97"/>
		<path d="M14.25,41.75c3.88,1.59,10.03,6.53,11,9"/>
		<path d="M16.62,88.02c1.47,0.71,2.52,0.28,3.4-1.03C23.11,82.42,26.19,76.83,29,71"/>
		<path d="M44.29,25.31c1.83,0.57,3.77,0.98,5.96,0.72c8.19-0.97,22.67-3.1,29.35-3.52c2.4-0.15,4.04,1.16,3.69,3.56c-0.55,3.79-2.29,15.07-3.45,21.17"/>
		<path d="M37.25,38.88c3.15,0.9,6.19,0.56,9.37,0.18c14.07-1.66,31.15-3.63,42.75-4.45c2.68-0.19,5.01-0.4,7.63,0.27"/>
		<path d="M45.78,51.46c2.06,0.53,4.17,0.48,6.23,0.19c8.46-1.2,15.26-1.94,25.02-2.84c1.86-0.17,3.57-0.33,5.41,0.06"/>
		<path d="M45.46,63.18c1.59,0.69,3.88,0.43,5.55,0.22c8.93-1.14,18.11-2.15,26.49-2.77c1.92-0.14,3.67-0.38,5.56,0.11"/>
		<path d="M36.57,77.01c2.43,0.87,5.47,0.52,7.92,0.2c14.87-1.97,35.46-3.61,46.38-4.22c2.66-0.15,4.81-0.13,7.36,0.58"/>
		<path d="M62.4,11.5c1.05,1.05,1.2,2.38,1.2,4c0,5.25-0.09,54.88-0.09,76.5c0,3.85,0,5.88,0,8"/>
	</g>
</svg>
