<?xml version="1.0" encoding="UTF-8"?>
<!DOCTYPE svg PUBLIC "-//W3C//DTD SVG 1.0//EN" "http://www.w3.org/TR/2001/REC-SVG-20010904/DTD/svg10.dtd">
<svg xmlns="http://www.w3.org/2000/svg" width="109" height="109" viewBox="0 0 109 109">
	<g id="HelperGrid" style="opacity:0.75;">
		<rect x="0.5" y="0.5" style="fill:none;stroke:#404040;" width="108" height="108"/> 
		<line style="fill:none;stroke:#404040;" x1="0.5" y1="72.51" x2="108.5" y2="72.51"/>
		<line style="fill:none;stroke:#404040;" x1="0.5" y1="36.49" x2="108.5" y2="36.49"/>
		<line style="fill:none;stroke:#404040;" x1="72.5" y1="0.5" x2="72.5" y2="108.5"/>
		<line style="fill:none;stroke:#404040;" x1="36.5" y1="0.5" x2="36.5" y2="108.5"/>
	</g>
	<g id="Kanji">
		<text transform="matrix(1 0 0 1 0.5 93.3799)" style="font-size:108;">洸</text>
	</g>
	<g id="StrokeNumbers" style="font-size:8;fill:#808080">
		<text transform="matrix(1 0 0 1 12.25 19.3799)">1</text>
		<text transform="matrix(1 0 0 1 5.25 45.3047)">2</text>
		<text transform="matrix(1 0 0 1 6.75 94.2285)">3</text>
		<text transform="matrix(1 0 0 1 52.25 11.9043)">4</text>
		<text transform="matrix(1 0 0 1 39.25 25.25)">5</text>
		<text transform="matrix(1 0 0 1 75.25 21.25)">6</text>
		<text transform="matrix(1 0 0 1 34.25 47.4297)">7</text>
		<text transform="matrix(1 0 0 1 47.5 61.25)">8</text>
		<text transform="matrix(1 0 0 1 63.25 61.7793)">9</text>
	</g>
	<g id="StrokePaths" style="fill:none;stroke:#404040;stroke-width:3;stroke-linecap:round;stroke-linejoin:round;">
		<path d="M19.63,19.25c4.19,1.38,10.82,5.69,11.87,7.84"/>
		<path d="M13.5,44.75c4.32,1.5,11.17,6.17,12.25,8.5"/>
		<path d="M15,90.98c1.88,0.77,3.03,0.32,4.11-1.25c3.14-4.57,7.04-12.16,9.89-17.99"/>
		<path d="M62.66,13.25c1.23,1.23,1.59,3,1.59,4.87c0,4.75,0,25.62,0,30"/>
		<path d="M41.94,27.83c3.71,2.58,9.58,10.62,10.51,14.63"/>
		<path d="M85.43,22c0.1,1.15-0.05,2.25-0.45,3.33c-2.35,4.92-4.85,9.75-9.23,15.64"/>
		<path d="M36.38,50.92c3.02,0.87,6.7,0.75,9.76,0.31c12.12-1.73,27.39-3.1,38.87-3.72c3.4-0.18,6.64-0.2,10,0.38"/>
		<path d="M56.35,54c0.4,1,0.39,2.34,0.15,3.62C54.47,68.5,47.71,85.5,38.01,92.25"/>
		<path d="M69.4,53.32c1.09,1.09,1.22,2.25,1.22,4.43c0,5.27,0.05,18.79,0.05,26.5c0,7.5,1.45,9.03,12.53,9.03c10.42,0,11.43-1.78,11.43-8.12"/>
	</g>
</svg>
