<?xml version="1.0" encoding="UTF-8"?>
<!DOCTYPE svg PUBLIC "-//W3C//DTD SVG 1.0//EN" "http://www.w3.org/TR/2001/REC-SVG-20010904/DTD/svg10.dtd">
<svg xmlns="http://www.w3.org/2000/svg" width="109" height="109" viewBox="0 0 109 109">
	<g id="HelperGrid" style="opacity:0.75;">
		<rect x="0.5" y="0.5" style="fill:none;stroke:#404040;" width="108" height="108"/> 
		<line style="fill:none;stroke:#404040;" x1="0.5" y1="72.51" x2="108.5" y2="72.51"/>
		<line style="fill:none;stroke:#404040;" x1="0.5" y1="36.49" x2="108.5" y2="36.49"/>
		<line style="fill:none;stroke:#404040;" x1="72.5" y1="0.5" x2="72.5" y2="108.5"/>
		<line style="fill:none;stroke:#404040;" x1="36.5" y1="0.5" x2="36.5" y2="108.5"/>
	</g>
	<g id="Kanji">
		<text transform="matrix(1 0 0 1 0.5 93.3799)" style="font-size:108;">浣</text>
	</g>
	<g id="StrokeNumbers" style="font-size:8;fill:#808080">
		<text transform="matrix(1 0 0 1 8.6934 17.5)">1</text>
		<text transform="matrix(1 0 0 1 4.5 41.0552)">2</text>
		<text transform="matrix(1 0 0 1 4.5 92.5)">3</text>
		<text transform="matrix(1 0 0 1 53.5 12.5)">4</text>
		<text transform="matrix(1 0 0 1 34.5 27.5)">5</text>
		<text transform="matrix(1 0 0 1 44.5 22.5)">6</text>
		<text transform="matrix(1 0 0 1 44.5 38.5)">7</text>
		<text transform="matrix(1 0 0 1 32.5 53.5)">8</text>
		<text transform="matrix(1 0 0 1 47.4434 68.5)">9</text>
		<text transform="matrix(1 0 0 1 60.5 68.5)">10</text>
	</g>
	<g id="StrokePaths" style="fill:none;stroke:#404040;stroke-width:3;stroke-linecap:round;stroke-linejoin:round;">
		<path d="M16.13,17.75c4.45,1.65,11.5,6.78,12.62,9.34"/>
		<path d="M11.75,40.75c4.32,1.9,11.17,7.8,12.25,10.75"/>
		<path d="M12.25,89.23c1.71,1.27,3.78,1.32,4.86-0.25c3.14-4.57,9.29-18.16,12.14-23.99"/>
		<path d="M62.55,12.42c0.85,0.41,2.06,1.47,2.04,2.65c-0.06,3.73-0.06,6.16-0.07,9.55"/>
		<path d="M41.29,24.3c0,3.33-2.81,12.49-4.08,14.71"/>
		<path d="M41.62,26.36c0.98,0.08,42.12-3.19,47.1-3.19c11.03,0,0.95,8.55-0.29,9.38"/>
		<path d="M46.8,41.66c1.05,0.2,2.97,0.27,4.04,0.2c5.66-0.36,15.74-1.41,28.77-2.2c1.74-0.1,2.81,0.1,3.68,0.2"/>
		<path d="M35.58,57.14c1.47,0.28,4.16,0.93,5.63,0.78c9.54-0.92,36.88-3.02,51.14-3.01c2.45,0,4.15,0.09,5.14,0.78"/>
		<path d="M55.66,61.83c0.07,0.82,0.05,2.11-0.13,3.3c-1.35,8.59-9.08,25.54-23.44,31.61"/>
		<path d="M70.29,59.64c0.6,1.16,1.08,2.53,1.11,4.32c0.16,7.99-0.42,15.81-0.42,21.24c0,10.05,1.77,11.25,12.28,11.25c10.99,0,12.21-1.95,12.21-8.9"/>
	</g>
</svg>
