<?xml version="1.0" encoding="UTF-8"?>
<!-- Copyright (C) 2009 Ulrich Apel.
This work is distributed under the conditions of the Creative Commons
Attribution-Share Alike 3.0 Licence. This means you are free:
* to Share - to copy, distribute and transmit the work
* to Remix - to adapt the work

Under the following conditions:
* Attribution. You must attribute the work by stating your use of KanjiVG in
  your own copyright header and linking to KanjiVG's website
  (http://kanjivg.tagaini.net)
* Share Alike. If you alter, transform, or build upon this work, you may
  distribute the resulting work only under the same or similar license to this
  one.

See http://creativecommons.org/licenses/by-sa/3.0/ for more details. -->
<!DOCTYPE svg PUBLIC "-//W3C//DTD SVG 1.0//EN" "http://www.w3.org/TR/2001/REC-SVG-20010904/DTD/svg10.dtd">
<svg xmlns="http://www.w3.org/2000/svg" width="109" height="109" viewBox="0 0 109 109">
	<g id="HelperGrid" style="opacity:0.75;">
		<rect x="0.5" y="0.5" style="fill:none;stroke:#404040;" width="108" height="108"/> 
		<line style="fill:none;stroke:#404040;" x1="0.5" y1="72.51" x2="108.5" y2="72.51"/>
		<line style="fill:none;stroke:#404040;" x1="0.5" y1="36.49" x2="108.5" y2="36.49"/>
		<line style="fill:none;stroke:#404040;" x1="72.5" y1="0.5" x2="72.5" y2="108.5"/>
		<line style="fill:none;stroke:#404040;" x1="36.5" y1="0.5" x2="36.5" y2="108.5"/>
	</g>
	<g id="Kanji">
		<text transform="matrix(1 0 0 1 0.5 93.3799)" style="font-size:108;">浤</text>
	</g>
	<g id="StrokeNumbers" style="font-size:8;fill:#808080">
		<text transform="matrix(1 0 0 1 10.5 16.5)">1</text>
		<text transform="matrix(1 0 0 1 5.5 42.0552)">2</text>
		<text transform="matrix(1 0 0 1 5.5 91.5)">3</text>
		<text transform="matrix(1 0 0 1 55.5 11.5)">4</text>
		<text transform="matrix(1 0 0 1 37.5 25.5)">5</text>
		<text transform="matrix(1 0 0 1 47.5 24.5)">6</text>
		<text transform="matrix(1 0 0 1 33.5 50.5)">7</text>
		<text transform="matrix(1 0 0 1 52.5 36.5)">8</text>
		<text transform="matrix(1 0 0 1 63.5 62.2803)">9</text>
		<text transform="matrix(1 0 0 1 78.5 74.4551)">10</text>
	</g>
	<g id="StrokePaths" style="fill:none;stroke:#404040;stroke-width:3;stroke-linecap:round;stroke-linejoin:round;">
		<path d="M17.38,16.25c4.72,1.65,12.19,6.78,13.37,9.34"/>
		<path d="M14,41.75c4.24,1.63,10.94,6.71,12,9.25"/>
		<path d="M13.25,88.73c1.71,1.27,3.78,1.32,4.86-0.25c3.14-4.57,8.29-13.66,11.14-19.49"/>
		<path d="M64.71,11.5c0.86,0.38,2.1,2.25,2.08,3.35c-0.06,3.46-0.06,7.35-0.07,10.5"/>
		<path d="M43.95,24.87c0,3.31-2.51,12.42-3.66,14.63"/>
		<path d="M43.74,27.85c6.29-0.88,41.1-3.55,46.21-3.88c7.98-0.52,1.69,6.4-0.3,8.29"/>
		<path d="M37.63,53.77c1.52,0.34,4.31,0.5,5.83,0.34c13.3-1.37,33.55-2.87,48.41-3.6c2.53-0.13,4.05,0.16,5.32,0.34"/>
		<path d="M61.72,34.75c0.08,1.43,0.18,4.1-0.17,5.75c-3.8,18-8.55,39.75-30.05,55.04"/>
		<path d="M69.36,63.63c0.4,0.64,0.25,2.29-0.07,3.06c-3.76,8.82-9.25,17.57-14.92,26.44c-1.59,2.49-1.23,2.83,1.3,2.31c5.32-1.08,23.08-4.18,31.98-6.27"/>
		<path d="M78.58,76.1c4.6,3.9,11.87,16.05,13.02,22.12"/>
	</g>
</svg>
