<?xml version="1.0" encoding="UTF-8"?>
<!-- Copyright (C) 2009 Ulrich Apel.
This work is distributed under the conditions of the Creative Commons
Attribution-Share Alike 3.0 Licence. This means you are free:
* to Share - to copy, distribute and transmit the work
* to Remix - to adapt the work

Under the following conditions:
* Attribution. You must attribute the work by stating your use of KanjiVG in
  your own copyright header and linking to KanjiVG's website
  (http://kanjivg.tagaini.net)
* Share Alike. If you alter, transform, or build upon this work, you may
  distribute the resulting work only under the same or similar license to this
  one.

See http://creativecommons.org/licenses/by-sa/3.0/ for more details. -->
<!DOCTYPE svg PUBLIC "-//W3C//DTD SVG 1.0//EN" "http://www.w3.org/TR/2001/REC-SVG-20010904/DTD/svg10.dtd">
<svg xmlns="http://www.w3.org/2000/svg" width="109" height="109" viewBox="0 0 109 109">
	<g id="HelperGrid" style="opacity:0.75;">
		<rect x="0.5" y="0.5" style="fill:none;stroke:#404040;" width="108" height="108"/> 
		<line style="fill:none;stroke:#404040;" x1="0.5" y1="72.51" x2="108.5" y2="72.51"/>
		<line style="fill:none;stroke:#404040;" x1="0.5" y1="36.49" x2="108.5" y2="36.49"/>
		<line style="fill:none;stroke:#404040;" x1="72.5" y1="0.5" x2="72.5" y2="108.5"/>
		<line style="fill:none;stroke:#404040;" x1="36.5" y1="0.5" x2="36.5" y2="108.5"/>
	</g>
	<g id="Kanji">
		<text transform="matrix(1 0 0 1 0.5 93.3799)" style="font-size:108;">浪</text>
	</g>
	<g id="StrokeNumbers" style="font-size:8;fill:#808080">
		<text transform="matrix(1 0 0 1 16.25 19.25)">1</text>
		<text transform="matrix(1 0 0 1 10.25 41.8047)">2</text>
		<text transform="matrix(1 0 0 1 9.25 92.25)">3</text>
		<text transform="matrix(1 0 0 1 52.25 13.25)">4</text>
		<text transform="matrix(1 0 0 1 49.25 26.25)">5</text>
		<text transform="matrix(1 0 0 1 53 38.729)">6</text>
		<text transform="matrix(1 0 0 1 53 52.1553)">7</text>
		<text transform="matrix(1 0 0 1 40.25 37.25)">8</text>
		<text transform="matrix(1 0 0 1 86.25 50.8799)">9</text>
		<text transform="matrix(1 0 0 1 53.25 69.25)">10</text>
	</g>
	<g id="StrokePaths" style="fill:none;stroke:#404040;stroke-width:3;stroke-linecap:round;stroke-linejoin:round;">
		<path d="M22.13,18.5c4.37,1.47,11.27,6.05,12.37,8.34"/>
		<path d="M16.75,41.25c4.06,0.97,10.48,3.99,11.5,5.5"/>
		<path d="M16,87.48c1.71,1.27,3.78,1.32,4.86-0.25C24,82.67,29.64,72.58,32.5,66.75"/>
		<path d="M58.05,13.75c3.16,2,5.58,5,7.34,8.2"/>
		<path d="M48.68,30.05c2.37-0.11,26.47-4.12,28.63-4.26c1.8-0.11,2.83,1.23,2.82,1.9c-0.12,4.76-2.6,22.45-3.63,25.73"/>
		<path d="M48.84,42c4.96-0.44,9.91-1.17,14.85-1.81c1.48-0.19,3.96-0.38,5.39-0.56"/>
		<path d="M48.95,55.28c8.17-0.86,18.88-2.09,27.76-2.91"/>
		<path d="M45.78,28.01c1.35,0.52,2.16,2.35,2.43,3.4c0.27,1.05,0.57,55.53,0.27,58.13c-0.27,2.35-0.83,6.71,2.05,4.16c3.83-3.41,7.54-6.68,12.22-11.12"/>
		<path d="M85.18,52.92c0.31,1.41,0.72,2.09-0.26,3.1c-1.54,1.59-7.86,7.28-10.65,9.25"/>
		<path d="M56.97,59.22c4.47,0,25.16,20.76,31.53,25.8C91,87,93,88,96.17,88.67"/>
	</g>
</svg>
