<?xml version="1.0" encoding="UTF-8"?>
<!DOCTYPE svg PUBLIC "-//W3C//DTD SVG 1.0//EN" "http://www.w3.org/TR/2001/REC-SVG-20010904/DTD/svg10.dtd">
<svg xmlns="http://www.w3.org/2000/svg" width="109" height="109" viewBox="0 0 109 109">
	<g id="HelperGrid" style="opacity:0.75;">
		<rect x="0.5" y="0.5" style="fill:none;stroke:#404040;" width="108" height="108"/> 
		<line style="fill:none;stroke:#404040;" x1="0.5" y1="72.51" x2="108.5" y2="72.51"/>
		<line style="fill:none;stroke:#404040;" x1="0.5" y1="36.49" x2="108.5" y2="36.49"/>
		<line style="fill:none;stroke:#404040;" x1="72.5" y1="0.5" x2="72.5" y2="108.5"/>
		<line style="fill:none;stroke:#404040;" x1="36.5" y1="0.5" x2="36.5" y2="108.5"/>
	</g>
	<g id="Kanji">
		<text transform="matrix(1 0 0 1 0.5 93.3799)" style="font-size:108;">浹</text>
	</g>
	<g id="StrokeNumbers" style="font-size:8;fill:#808080">
		<text transform="matrix(1 0 0 1 10.9434 16.6309)">1</text>
		<text transform="matrix(1 0 0 1 5.9434 42.0552)">2</text>
		<text transform="matrix(1 0 0 1 5.5 92.5)">3</text>
		<text transform="matrix(1 0 0 1 35.5 27.5)">4</text>
		<text transform="matrix(1 0 0 1 40.5 42.5)">5</text>
		<text transform="matrix(1 0 0 1 51.5 54.5)">6</text>
		<text transform="matrix(1 0 0 1 74.5 39.5)">7</text>
		<text transform="matrix(1 0 0 1 86.5 51.5)">8</text>
		<text transform="matrix(1 0 0 1 53.5 11.5)">9</text>
		<text transform="matrix(1 0 0 1 74.5 69.4551)">10</text>
	</g>
	<g id="StrokePaths" style="fill:none;stroke:#404040;stroke-width:3;stroke-linecap:round;stroke-linejoin:round;">
		<path d="M17.38,15.5c4.72,1.78,12.19,7.32,13.37,10.09"/>
		<path d="M14,41.75c4.24,1.63,10.94,6.71,12,9.25"/>
		<path d="M13.25,89.23c1.71,1.27,3.78,1.32,4.86-0.25c3.14-4.57,9.29-16.16,12.14-21.99"/>
		<path d="M37.75,31.15c1.29,0.44,3.65,0.49,4.94,0.44c9.06-0.34,39.58-3.02,47.54-2.52c2.14,0.14,3.44,0.21,4.52,0.43"/>
		<path d="M63.25,12.25c0.48,1.17,1.25,2.52,1.25,5.04c0,46.84-2.99,62.71-31.24,80.21"/>
		<path d="M63.5,53c6.01,12.1,19.23,33.57,27.38,40.53c2.28,1.95,2.89,2.51,3.87,2.72"/>
		<path d="M49.51,40.74c0,0.6,0.05,1.1-0.09,1.8c-1.31,6.52-5.21,14.63-10.95,21.83"/>
		<path d="M47.64,53.71c2.93,1.5,6.68,5.5,8.11,9.29"/>
		<path d="M82.77,38.74c0,0.54,0.08,1.01-0.08,1.62c-1.38,5.28-5.3,14.69-9.97,20.02"/>
		<path d="M80.89,50.71c5.01,2.86,8.86,6.44,11.86,10.79"/>
	</g>
</svg>
