<?xml version="1.0" encoding="UTF-8"?>
<!-- Copyright (C) 2009 Ulrich Apel.
This work is distributed under the conditions of the Creative Commons
Attribution-Share Alike 3.0 Licence. This means you are free:
* to Share - to copy, distribute and transmit the work
* to Remix - to adapt the work

Under the following conditions:
* Attribution. You must attribute the work by stating your use of KanjiVG in
  your own copyright header and linking to KanjiVG's website
  (http://kanjivg.tagaini.net)
* Share Alike. If you alter, transform, or build upon this work, you may
  distribute the resulting work only under the same or similar license to this
  one.

See http://creativecommons.org/licenses/by-sa/3.0/ for more details. -->
<!DOCTYPE svg PUBLIC "-//W3C//DTD SVG 1.0//EN" "http://www.w3.org/TR/2001/REC-SVG-20010904/DTD/svg10.dtd">
<svg xmlns="http://www.w3.org/2000/svg" width="109" height="109" viewBox="0 0 109 109">
	<g id="HelperGrid" style="opacity:0.75;">
		<rect x="0.5" y="0.5" style="fill:none;stroke:#404040;" width="108" height="108"/> 
		<line style="fill:none;stroke:#404040;" x1="0.5" y1="72.51" x2="108.5" y2="72.51"/>
		<line style="fill:none;stroke:#404040;" x1="0.5" y1="36.49" x2="108.5" y2="36.49"/>
		<line style="fill:none;stroke:#404040;" x1="72.5" y1="0.5" x2="72.5" y2="108.5"/>
		<line style="fill:none;stroke:#404040;" x1="36.5" y1="0.5" x2="36.5" y2="108.5"/>
	</g>
	<g id="Kanji">
		<text transform="matrix(1 0 0 1 0.5 93.3799)" style="font-size:108;">消</text>
	</g>
	<g id="StrokeNumbers" style="font-size:8;fill:#808080">
		<text transform="matrix(1 0 0 1 15.75 15.1299)">1</text>
		<text transform="matrix(1 0 0 1 9.75 39.1299)">2</text>
		<text transform="matrix(1 0 0 1 9.75 96.7422)">3</text>
		<text transform="matrix(1 0 0 1 56.5 13.5)">4</text>
		<text transform="matrix(1 0 0 1 40.5 19.6299)">5</text>
		<text transform="matrix(1 0 0 1 80.5 16.5)">6</text>
		<text transform="matrix(1 0 0 1 45.75 50.5)">7</text>
		<text transform="matrix(1 0 0 1 55.5 39.5)">8</text>
		<text transform="matrix(1 0 0 1 57.75 52.6299)">9</text>
		<text transform="matrix(1 0 0 1 56.5 66.5)">10</text>
	</g>
	<g id="StrokePaths" style="fill:none;stroke:#404040;stroke-width:3;stroke-linecap:round;stroke-linejoin:round;">
		<path d="M22.88,16.25c3.31,1.47,9.54,5.55,10.37,7.84"/>
		<path d="M18.25,39c3.79,1.15,9.8,6.72,10.75,8.5"/>
		<path d="M16.25,89.71c1.5,1.31,3.31,1.36,4.25-0.25C23.25,84.75,27.5,76,30,70"/>
		<path d="M65.99,11.5c0.12,0.38,1.67,1.95,1.67,4.34c0,8.16,0.09,21.01,0.09,24.91"/>
		<path d="M43.56,22.58c3.11,1.96,7.04,6.69,7.82,9.74"/>
		<path d="M90.21,15.6c0.03,0.4,0.06,1.04-0.06,1.62c-0.75,3.41-4.4,8.78-8.51,12.55"/>
		<path d="M51.86,41.94c0.62,0.93,1.04,1.85,1.24,2.78c0.21,0.93,0.29,48.02,0.21,50.1"/>
		<path d="M54.34,42.87c2.49-0.23,24.89-3.68,26.74-3.94c3.32-0.46,4.15,2.94,4.15,4.4c0,9.99-0.62,28.4-0.62,47.17c0,11.25-5.59,2.58-7.46,0.96"/>
		<path d="M54.34,56.19c5.06-0.83,9.2-1.24,14.31-1.65c1.37-0.11,2.72-0.21,4.05-0.31"/>
		<path d="M53.72,70.36c4.81-0.5,9.62-1,14.43-1.48c1.41-0.14,2.82-0.27,4.21-0.4"/>
	</g>
</svg>
