<?xml version="1.0" encoding="UTF-8"?>
<!-- Copyright (C) 2009 Ulrich Apel.
This work is distributed under the conditions of the Creative Commons
Attribution-Share Alike 3.0 Licence. This means you are free:
* to Share - to copy, distribute and transmit the work
* to Remix - to adapt the work

Under the following conditions:
* Attribution. You must attribute the work by stating your use of KanjiVG in
  your own copyright header and linking to KanjiVG's website
  (http://kanjivg.tagaini.net)
* Share Alike. If you alter, transform, or build upon this work, you may
  distribute the resulting work only under the same or similar license to this
  one.

See http://creativecommons.org/licenses/by-sa/3.0/ for more details. -->
<!DOCTYPE svg PUBLIC "-//W3C//DTD SVG 1.0//EN" "http://www.w3.org/TR/2001/REC-SVG-20010904/DTD/svg10.dtd">
<svg xmlns="http://www.w3.org/2000/svg" width="109" height="109" viewBox="0 0 109 109">
	<g id="HelperGrid" style="opacity:0.75;">
		<rect x="0.5" y="0.5" style="fill:none;stroke:#404040;" width="108" height="108"/> 
		<line style="fill:none;stroke:#404040;" x1="0.5" y1="72.51" x2="108.5" y2="72.51"/>
		<line style="fill:none;stroke:#404040;" x1="0.5" y1="36.49" x2="108.5" y2="36.49"/>
		<line style="fill:none;stroke:#404040;" x1="72.5" y1="0.5" x2="72.5" y2="108.5"/>
		<line style="fill:none;stroke:#404040;" x1="36.5" y1="0.5" x2="36.5" y2="108.5"/>
	</g>
	<g id="Kanji">
		<text transform="matrix(1 0 0 1 0.5 93.3799)" style="font-size:108;">淘</text>
	</g>
	<g id="StrokeNumbers" style="font-size:8;fill:#808080">
		<text transform="matrix(1 0 0 1 11.5 18.5)">1</text>
		<text transform="matrix(1 0 0 1 7.5 43.5)">2</text>
		<text transform="matrix(1 0 0 1 8.5 88.9785)">3</text>
		<text transform="matrix(1 0 0 1 45.5 13.5)">4</text>
		<text transform="matrix(1 0 0 1 58.5 23.5)">5</text>
		<text transform="matrix(1 0 0 1 46.5 37.5)">6</text>
		<text transform="matrix(1 0 0 1 59.5 41.5)">7</text>
		<text transform="matrix(1 0 0 1 32.5 60.5)">8</text>
		<text transform="matrix(1 0 0 1 54.5 52.5)">9</text>
		<text transform="matrix(1 0 0 1 34.5 69.5)">10</text>
		<text transform="matrix(1 0 0 1 66.5 66.5)">11</text>
	</g>
	<g id="StrokePaths" style="fill:none;stroke:#404040;stroke-width:3;stroke-linecap:round;stroke-linejoin:round;">
		<path d="M18.38,18c4.54,1.34,11.73,5.51,12.87,7.59"/>
		<path d="M15.75,42.75c3.27,1.28,8.43,5.26,9.25,7.25"/>
		<path d="M16.25,90.21c1.5,1.31,3.31,1.36,4.25-0.25c2.75-4.7,5.5-10.45,8-16.45"/>
		<path d="M54.02,12.5c0.05,0.65,0.1,1.66-0.1,2.59c-1.19,5.46-8.04,17.45-17.42,24.79"/>
		<path d="M50.5,26.25c0.99,0.75,3.31,0.71,4.95,0.5c5.8-0.75,27.8-2.75,32.69-3.5c3.91-0.6,6.27,0,6.15,4.25C93.75,47,91.25,69.25,87,90c-1.01,4.91-4.13,2.63-6.47-0.5"/>
		<path d="M54.98,32.39c0.03,0.49,0.07,1.27-0.07,1.97c-0.79,4.16-5.34,13.29-11.56,18.87"/>
		<path d="M52.11,43.43c0.54,0.28,1.53,0.34,2.08,0.28c6.64-0.77,16.73-2.11,22.7-3.09c0.89-0.15,1.44,0.13,1.89,0.27"/>
		<path d="M38.63,58.85c0.88,0.35,2.49,0.39,3.37,0.35c10.25-0.45,26.68-3.54,40.04-3.68c1.47-0.02,2.35,0.17,3.08,0.34"/>
		<path d="M60.74,44.54c0.49,0.8,1.04,1.39,1.04,2.5c0,3.9-0.55,29.76-0.63,33.06"/>
		<path d="M46.05,66.94c0.39,0.26,0.82,1.38,0.78,1.91C46.5,74,46,77,45.83,81.25c-0.05,1.21,0.81,2.43,1.78,2.21c9.64-2.21,17.64-3.96,29.6-4.15"/>
		<path d="M77.98,64.31c0.45,0.3,0.97,2.26,0.9,2.86c-0.44,3.71-0.89,8.06-1.63,14.96"/>
	</g>
</svg>
