<?xml version="1.0" encoding="UTF-8"?>
<!-- Copyright (C) 2009 Ulrich Apel.
This work is distributed under the conditions of the Creative Commons
Attribution-Share Alike 3.0 Licence. This means you are free:
* to Share - to copy, distribute and transmit the work
* to Remix - to adapt the work

Under the following conditions:
* Attribution. You must attribute the work by stating your use of KanjiVG in
  your own copyright header and linking to KanjiVG's website
  (http://kanjivg.tagaini.net)
* Share Alike. If you alter, transform, or build upon this work, you may
  distribute the resulting work only under the same or similar license to this
  one.

See http://creativecommons.org/licenses/by-sa/3.0/ for more details. -->
<!DOCTYPE svg PUBLIC "-//W3C//DTD SVG 1.0//EN" "http://www.w3.org/TR/2001/REC-SVG-20010904/DTD/svg10.dtd">
<svg xmlns="http://www.w3.org/2000/svg" width="109" height="109" viewBox="0 0 109 109">
	<g id="HelperGrid" style="opacity:0.75;">
		<rect x="0.5" y="0.5" style="fill:none;stroke:#404040;" width="108" height="108"/> 
		<line style="fill:none;stroke:#404040;" x1="0.5" y1="72.51" x2="108.5" y2="72.51"/>
		<line style="fill:none;stroke:#404040;" x1="0.5" y1="36.49" x2="108.5" y2="36.49"/>
		<line style="fill:none;stroke:#404040;" x1="72.5" y1="0.5" x2="72.5" y2="108.5"/>
		<line style="fill:none;stroke:#404040;" x1="36.5" y1="0.5" x2="36.5" y2="108.5"/>
	</g>
	<g id="Kanji">
		<text transform="matrix(1 0 0 1 0.5 93.3799)" style="font-size:108;">淤</text>
	</g>
	<g id="StrokeNumbers" style="font-size:8;fill:#808080">
		<text transform="matrix(1 0 0 1 7.5 15.5)">1</text>
		<text transform="matrix(1 0 0 1 4.5 43.5)">2</text>
		<text transform="matrix(1 0 0 1 3.5 90.5)">3</text>
		<text transform="matrix(1 0 0 1 35.5 14.5)">4</text>
		<text transform="matrix(1 0 0 1 30.5 29.5)">5</text>
		<text transform="matrix(1 0 0 1 52.5 43.5)">6</text>
		<text transform="matrix(1 0 0 1 37.5 45.5)">7</text>
		<text transform="matrix(1 0 0 1 68.5 13.5)">8</text>
		<text transform="matrix(1 0 0 1 83.5 27.5)">9</text>
		<text transform="matrix(1 0 0 1 70.5 54.5)">10</text>
		<text transform="matrix(1 0 0 1 62.5 78.8799)">11</text>
	</g>
	<g id="StrokePaths" style="fill:none;stroke:#404040;stroke-width:3;stroke-linecap:round;stroke-linejoin:round;">
		<path d="M14.88,15.75c4.54,1.56,11.73,6.41,12.87,8.84"/>
		<path d="M12.75,43c4.5,1.5,11.62,6.17,12.75,8.5"/>
		<path d="M10.75,88.23c1.71,1.27,3.78,1.32,4.86-0.25c3.14-4.57,8.79-16.66,11.64-22.49"/>
		<path d="M42.52,14.75c2.48,3,4.48,8,5.44,12.7"/>
		<path d="M28.68,33.05c0.83,0.17,2.59,0.27,3.36,0.23c7.58-0.41,18.49-1.28,28.78-2.18c1.28-0.11,2.47-0.23,3.44,0.05"/>
		<path d="M45.72,44.77c1.75,0.79,7.77,1.78,10.42,2.58c0.93,0.28,1.63,2.11,1.46,3.63c-1.32,11.91-8.25,32.19-13.08,40.51c-2.96,5.11-6.52-1.25-7.76-3.39"/>
		<path d="M45.62,36.28c0.27,1.37,0.22,2.91-0.1,4.46c-2.24,10.63-8.7,32.12-18.75,42.17"/>
		<path d="M77.16,13.53c0.04,1.02,0.2,2.67-0.09,4.1c-1.88,9.34-4.32,28.12-14.98,39.26"/>
		<path d="M77.13,22.18c2.54,6.27,13.46,26.75,16.25,31.34c0.95,1.56,2.17,2.23,3.11,2.67"/>
		<path d="M72.67,57.13c4.4,2.09,11.36,8.59,12.46,11.85"/>
		<path d="M66.74,80.95c7.43,2.65,19.18,10.9,21.04,15.02"/>
	</g>
</svg>
