<?xml version="1.0" encoding="UTF-8"?>
<!DOCTYPE svg PUBLIC "-//W3C//DTD SVG 1.0//EN" "http://www.w3.org/TR/2001/REC-SVG-20010904/DTD/svg10.dtd">
<svg xmlns="http://www.w3.org/2000/svg" width="109" height="109" viewBox="0 0 109 109">
	<g id="HelperGrid" style="opacity:0.75;">
		<rect x="0.5" y="0.5" style="fill:none;stroke:#404040;" width="108" height="108"/> 
		<line style="fill:none;stroke:#404040;" x1="0.5" y1="72.51" x2="108.5" y2="72.51"/>
		<line style="fill:none;stroke:#404040;" x1="0.5" y1="36.49" x2="108.5" y2="36.49"/>
		<line style="fill:none;stroke:#404040;" x1="72.5" y1="0.5" x2="72.5" y2="108.5"/>
		<line style="fill:none;stroke:#404040;" x1="36.5" y1="0.5" x2="36.5" y2="108.5"/>
	</g>
	<g id="Kanji">
		<text transform="matrix(1 0 0 1 0.5 93.3799)" style="font-size:108;">渝</text>
	</g>
	<g id="StrokeNumbers" style="font-size:8;fill:#808080">
		<text transform="matrix(1 0 0 1 10.5 17.5)">1</text>
		<text transform="matrix(1 0 0 1 7.25 44.5)">2</text>
		<text transform="matrix(1 0 0 1 8.5 93.5)">3</text>
		<text transform="matrix(1 0 0 1 55.5 13.5)">4</text>
		<text transform="matrix(1 0 0 1 69.5 18.5)">5</text>
		<text transform="matrix(1 0 0 1 55.5 37.5)">6</text>
		<text transform="matrix(1 0 0 1 36.5 59.5)">7</text>
		<text transform="matrix(1 0 0 1 47.5 50.5)">8</text>
		<text transform="matrix(1 0 0 1 52.5 59.5)">9</text>
		<text transform="matrix(1 0 0 1 48.5 73.5)">10</text>
		<text transform="matrix(1 0 0 1 64.5 49.5)">11</text>
		<text transform="matrix(1 0 0 1 77.5 48.5)">12</text>
	</g>
	<g id="StrokePaths" style="fill:none;stroke:#404040;stroke-width:3;stroke-linecap:round;stroke-linejoin:round;">
		<path d="M17.63,16.5c4.45,1.78,11.5,7.32,12.62,10.09"/>
		<path d="M14.5,43.25c4.24,1.72,10.94,7.07,12,9.75"/>
		<path d="M15.75,89.73c1.71,1.27,3.78,1.32,4.86-0.25c3.14-4.57,6.29-10.16,9.14-15.99"/>
		<path d="M63.09,10.75c0.07,0.81,0.26,2.16-0.14,3.26C60.53,20.72,51,35.75,39,46.25"/>
		<path d="M62.9,15.11c4.14,4.91,21.96,20.93,26.52,24.53c1.55,1.22,3.54,1.74,5.08,2.09"/>
		<path d="M52.69,40.22c0.56,0.03,2.46,0.64,3.16,0.63c4.66-0.07,15.4-1.35,20.95-1.57c1.15-0.04,1.85,0.06,2.43,0.13"/>
		<path d="M43.61,50.75c0.56,1,0.93,2,1.12,3S45,93.75,44.92,96"/>
		<path d="M45.85,52.69c1.25-0.14,12.71-2.05,13.64-2.21c1.67-0.28,2.29,1.85,2.08,2.71c-0.2,0.82-0.31,25.06-0.31,36.6c0,10.21-4.7,2.56-5.75,1.28"/>
		<path d="M50,59.33c2.07,0.95,5.34,3.91,5.86,5.38"/>
		<path d="M49.58,74.33c1.94,0.99,5.02,4.09,5.5,5.63"/>
		<path d="M75.37,49.12c0.29,1.03,1.08,2.81,0.65,4.22c-1.3,4.33-5.25,12.02-9.19,17.2c-1.08,1.42-0.01,2.32,0.28,2.61c4.78,4.74,7.61,11.11,10.01,21.36"/>
		<path d="M88.44,48.12c0.32,1.08,1.2,2.94,0.73,4.42c-1.44,4.53-4.84,11.19-9.21,16.6c-1.19,1.49-0.01,2.43,0.31,2.74c5.29,4.96,8.47,11.64,11.01,22.37"/>
	</g>
</svg>
