<?xml version="1.0" encoding="UTF-8"?>
<!DOCTYPE svg PUBLIC "-//W3C//DTD SVG 1.0//EN" "http://www.w3.org/TR/2001/REC-SVG-20010904/DTD/svg10.dtd">
<svg xmlns="http://www.w3.org/2000/svg" width="109" height="109" viewBox="0 0 109 109">
	<g id="HelperGrid" style="opacity:0.75;">
		<rect x="0.5" y="0.5" style="fill:none;stroke:#404040;" width="108" height="108"/> 
		<line style="fill:none;stroke:#404040;" x1="0.5" y1="72.51" x2="108.5" y2="72.51"/>
		<line style="fill:none;stroke:#404040;" x1="0.5" y1="36.49" x2="108.5" y2="36.49"/>
		<line style="fill:none;stroke:#404040;" x1="72.5" y1="0.5" x2="72.5" y2="108.5"/>
		<line style="fill:none;stroke:#404040;" x1="36.5" y1="0.5" x2="36.5" y2="108.5"/>
	</g>
	<g id="Kanji">
		<text transform="matrix(1 0 0 1 0.5 93.3799)" style="font-size:108;">測</text>
	</g>
	<g id="StrokeNumbers" style="font-size:8;fill:#808080">
		<text transform="matrix(1 0 0 1 9.75 16.5)">1</text>
		<text transform="matrix(1 0 0 1 6.5 43.5)">2</text>
		<text transform="matrix(1 0 0 1 4.5 91.5)">3</text>
		<text transform="matrix(1 0 0 1 30.75 31.6299)">4</text>
		<text transform="matrix(1 0 0 1 39.5 19.5)">5</text>
		<text transform="matrix(1 0 0 1 42.75 33.0547)">6</text>
		<text transform="matrix(1 0 0 1 42.75 46.479)">7</text>
		<text transform="matrix(1 0 0 1 42.75 61.4043)">8</text>
		<text transform="matrix(1 0 0 1 34.5 76.5)">9</text>
		<text transform="matrix(1 0 0 1 46.5 72.5)">10</text>
		<text transform="matrix(1 0 0 1 68.5 25.5)">11</text>
		<text transform="matrix(1 0 0 1 79.5 15.5)">12</text>
	</g>
	<g id="StrokePaths" style="fill:none;stroke:#404040;stroke-width:3;stroke-linecap:round;stroke-linejoin:round;">
		<path d="M16.88,17.25c3.31,1.47,8.54,6.05,9.37,8.34"/>
		<path d="M13.25,43c3.79,1.15,9.8,4.72,10.75,6.5"/>
		<path d="M11.75,87.71c1.5,1.31,3.31,1.36,4.25-0.25C18.75,82.75,21.5,77,24,71"/>
		<path d="M37.43,22.54c0.37,1.04,0.91,1.82,0.91,3.21c0,1.39-0.25,38.25-0.25,38.95c0,0.69,0.12,0.69,0.25,2.08"/>
		<path d="M38.96,22.97c2.1-0.17,18.07-2.4,19.97-2.61c1.59-0.17,2.85,0.97,2.71,2.26c-0.17,1.64-0.62,24.86-0.62,40.16c0,1.57-0.12,2.26-0.12,3.3"/>
		<path d="M38.93,37.16c3.37-0.41,6.74-0.81,10.12-1.2c1.01-0.12,2.03-0.23,3.04-0.34"/>
		<path d="M39.1,50.45c3.44-0.37,6.87-0.79,10.31-1.17c0.89-0.1,1.79-0.19,2.67-0.28"/>
		<path d="M39.64,65.22c5.03-0.75,14.29-1.79,20.7-2.09"/>
		<path d="M42.98,73.66c0.31,1.26,0.57,1.57,0,2.52c-2.56,4.25-7.07,9.56-10.73,12.83"/>
		<path d="M55.39,74.02c4.18,4.04,9.11,11.35,10.26,14.88"/>
		<path d="M74.71,28.61c0.96,0.9,1.63,1.94,1.72,4.91c0.39,14.25-0.02,27.59-0.02,32.45"/>
		<path d="M91.15,16.07c0.89,0.91,1.51,1.98,1.59,4.99c0.36,14.46-0.23,63.25-0.23,68.17c0,5-1.37,5.99-3.57,3.97c-1.71-1.57-2.94-2.48-4.29-3.73"/>
	</g>
</svg>
