<?xml version="1.0" encoding="UTF-8"?>
<!DOCTYPE svg PUBLIC "-//W3C//DTD SVG 1.0//EN" "http://www.w3.org/TR/2001/REC-SVG-20010904/DTD/svg10.dtd">
<svg xmlns="http://www.w3.org/2000/svg" width="109" height="109" viewBox="0 0 109 109">
	<g id="HelperGrid" style="opacity:0.75;">
		<rect x="0.5" y="0.5" style="fill:none;stroke:#404040;" width="108" height="108"/> 
		<line style="fill:none;stroke:#404040;" x1="0.5" y1="72.51" x2="108.5" y2="72.51"/>
		<line style="fill:none;stroke:#404040;" x1="0.5" y1="36.49" x2="108.5" y2="36.49"/>
		<line style="fill:none;stroke:#404040;" x1="72.5" y1="0.5" x2="72.5" y2="108.5"/>
		<line style="fill:none;stroke:#404040;" x1="36.5" y1="0.5" x2="36.5" y2="108.5"/>
	</g>
	<g id="Kanji">
		<text transform="matrix(1 0 0 1 0.5 93.3799)" style="font-size:108;">湃</text>
	</g>
	<g id="StrokeNumbers" style="font-size:8;fill:#808080">
		<text transform="matrix(1 0 0 1 8.5 16.5)">1</text>
		<text transform="matrix(1 0 0 1 3.5 43.0547)">2</text>
		<text transform="matrix(1 0 0 1 3.5 91.5)">3</text>
		<text transform="matrix(1 0 0 1 44.5 15.1543)">4</text>
		<text transform="matrix(1 0 0 1 28.5 40.5)">5</text>
		<text transform="matrix(1 0 0 1 30.5 62.5)">6</text>
		<text transform="matrix(1 0 0 1 40 33.5)">7</text>
		<text transform="matrix(1 0 0 1 60.5 16.5)">8</text>
		<text transform="matrix(1 0 0 1 62.5 33.0293)">9</text>
		<text transform="matrix(1 0 0 1 61.5 49.5)">10</text>
		<text transform="matrix(1 0 0 1 54.5 66.5)">11</text>
		<text transform="matrix(1 0 0 1 67.5 29.5)">12</text>
	</g>
	<g id="StrokePaths" style="fill:none;stroke:#404040;stroke-width:3;stroke-linecap:round;stroke-linejoin:round;">
		<path d="M15.13,16c4.45,1.78,11.5,7.32,12.62,10.09"/>
		<path d="M12,44c4.24,1.5,10.94,6.17,12,8.5"/>
		<path d="M10.75,89.23c1.71,1.27,3.92,0.41,4.86-1.25C19,82,22.25,74.25,25.25,66.5"/>
		<path d="M53.2,15.5c0.05,0.29,0.21,0.84-0.11,1.17c-3.89,4.11-9.63,7.89-19.77,11.21"/>
		<path d="M30.32,43.55c0.86,0.25,2.43,0.3,3.3,0.25c7.14-0.35,17.59-2.01,24.26-2.26c1.44-0.05,2.3,0.12,3.02,0.25"/>
		<path d="M30.75,67.07c1.52,0.81,2.79,1.16,4.31,0.46c0.9-0.41,18.84-8.4,22.64-10.37"/>
		<path d="M46.7,25.44c0.8,1.56,0.87,2.79,0.96,5.08C49.25,69,48.75,85,30.84,98.06"/>
		<path d="M62.55,20.03c0.95,0.25,2.67,0.3,3.63,0.25c7.85-0.35,19.33-2.01,26.66-2.26c1.58-0.05,2.53,0.12,3.31,0.25"/>
		<path d="M56.78,69.47c1.21,0.33,3.42,0.95,4.64,0.83c11.08-1.06,23.83-1.81,33.09-2.96c2.01-0.25,3.23,0.16,4.24,0.33"/>
		<path d="M63.92,36.52c0.85,0.29,2.39,0.34,3.25,0.29c7.03-0.4,17.31-1.79,23.87-2.06c1.42-0.06,2.26,0.14,2.97,0.29"/>
		<path d="M64.12,52.04c0.88,0.28,3.99,0.82,4.88,0.78c7.32-0.38,16.53-2.2,23.36-2.46c1.47-0.06,2.35,0.13,3.09,0.27"/>
		<path d="M76.13,23.1c0.88,0.48,1.41,2.18,1.59,3.15c0.18,0.97,0,65.68-0.18,71.74"/>
	</g>
</svg>
