<?xml version="1.0" encoding="UTF-8"?>
<!-- Copyright (C) 2009 Ulrich Apel.
This work is distributed under the conditions of the Creative Commons
Attribution-Share Alike 3.0 Licence. This means you are free:
* to Share - to copy, distribute and transmit the work
* to Remix - to adapt the work

Under the following conditions:
* Attribution. You must attribute the work by stating your use of KanjiVG in
  your own copyright header and linking to KanjiVG's website
  (http://kanjivg.tagaini.net)
* Share Alike. If you alter, transform, or build upon this work, you may
  distribute the resulting work only under the same or similar license to this
  one.

See http://creativecommons.org/licenses/by-sa/3.0/ for more details. -->
<!DOCTYPE svg PUBLIC "-//W3C//DTD SVG 1.0//EN" "http://www.w3.org/TR/2001/REC-SVG-20010904/DTD/svg10.dtd">
<svg xmlns="http://www.w3.org/2000/svg" width="109" height="109" viewBox="0 0 109 109">
	<g id="HelperGrid" style="opacity:0.75;">
		<rect x="0.5" y="0.5" style="fill:none;stroke:#404040;" width="108" height="108"/> 
		<line style="fill:none;stroke:#404040;" x1="0.5" y1="72.51" x2="108.5" y2="72.51"/>
		<line style="fill:none;stroke:#404040;" x1="0.5" y1="36.49" x2="108.5" y2="36.49"/>
		<line style="fill:none;stroke:#404040;" x1="72.5" y1="0.5" x2="72.5" y2="108.5"/>
		<line style="fill:none;stroke:#404040;" x1="36.5" y1="0.5" x2="36.5" y2="108.5"/>
	</g>
	<g id="Kanji">
		<text transform="matrix(1 0 0 1 0.5 93.3799)" style="font-size:108;">湖</text>
	</g>
	<g id="StrokeNumbers" style="font-size:8;fill:#808080">
		<text transform="matrix(1 0 0 1 11.25 18.1299)">1</text>
		<text transform="matrix(1 0 0 1 7.5 40.6299)">2</text>
		<text transform="matrix(1 0 0 1 7.5 87.5)">3</text>
		<text transform="matrix(1 0 0 1 29.25 38.5)">4</text>
		<text transform="matrix(1 0 0 1 39.5 14.5)">5</text>
		<text transform="matrix(1 0 0 1 30.75 67.5)">6</text>
		<text transform="matrix(1 0 0 1 38.5 57.5)">7</text>
		<text transform="matrix(1 0 0 1 44.5 74.5)">8</text>
		<text transform="matrix(1 0 0 1 65.25 28.5)">9</text>
		<text transform="matrix(1 0 0 1 72.75 17.5)">10</text>
		<text transform="matrix(1 0 0 1 77.25 37.6924)">11</text>
		<text transform="matrix(1 0 0 1 77.25 55.5)">12</text>
	</g>
	<g id="StrokePaths" style="fill:none;stroke:#404040;stroke-width:3;stroke-linecap:round;stroke-linejoin:round;">
		<path d="M20.38,16.75c3.31,1.47,8.54,6.05,9.37,8.34"/>
		<path d="M14.75,37.5c3.79,1.15,9.8,5.72,10.75,7.5"/>
		<path d="M14.75,81.21c1.5,1.31,3.31,1.36,4.25-0.25c2.75-4.7,5.5-10.45,8-16.45"/>
		<path d="M32.25,40.75c0.37,0.21,2.5,0.5,5.5,0.5c5.58,0,17.66-3.25,23.5-3.25c1,0,3.63,0.04,4.25,0.25"/>
		<path d="M49.48,15.88c0.67,0.41,1.2,1.83,1.2,2.68c0,14.43,0,35.22-0.13,40.38"/>
		<path d="M37.15,59.79c0.21,0.63,0.45,1.06,0.52,1.54c0.51,3.47,1.66,13.04,2.39,19.62"/>
		<path d="M38.2,60.8c5.79-0.7,18.12-2.47,22.07-2.58c1.63-0.05,2.51,0.98,2.37,2.04c-0.54,4-1.59,10.03-2.47,15.34"/>
		<path d="M40.37,78.17c4.79-0.29,15.77-1.67,21.53-2.05"/>
		<path d="M72.24,20.25c0.37,0.95,0.61,1.89,0.72,2.83c0.12,0.94-0.07,35.14-0.13,37.24C72.52,70.38,69.25,80.25,60.75,89"/>
		<path d="M73.72,21.22c1.49-0.19,15.14-2.77,16.25-3.01c1.98-0.41,2.7,3.12,2.45,4.52c-0.25,1.34-0.5,45.13-0.82,64.1c-0.09,5.42-1.84,6.42-3.77,4.87C86.8,90.88,85,89.5,83,87.75"/>
		<path d="M73.46,41.19c3.1-0.54,5.71-1.02,8.82-1.44c0.83-0.11,1.66-0.22,2.47-0.33"/>
		<path d="M73.64,59.31c2.85-0.2,5.69-0.57,8.53-0.87c0.82-0.08,1.65-0.17,2.47-0.24"/>
	</g>
</svg>
