<?xml version="1.0" encoding="UTF-8"?>
<!-- Copyright (C) 2009 Ulrich Apel.
This work is distributed under the conditions of the Creative Commons
Attribution-Share Alike 3.0 Licence. This means you are free:
* to Share - to copy, distribute and transmit the work
* to Remix - to adapt the work

Under the following conditions:
* Attribution. You must attribute the work by stating your use of KanjiVG in
  your own copyright header and linking to KanjiVG's website
  (http://kanjivg.tagaini.net)
* Share Alike. If you alter, transform, or build upon this work, you may
  distribute the resulting work only under the same or similar license to this
  one.

See http://creativecommons.org/licenses/by-sa/3.0/ for more details. -->
<!DOCTYPE svg PUBLIC "-//W3C//DTD SVG 1.0//EN" "http://www.w3.org/TR/2001/REC-SVG-20010904/DTD/svg10.dtd">
<svg xmlns="http://www.w3.org/2000/svg" width="109" height="109" viewBox="0 0 109 109">
	<g id="HelperGrid" style="opacity:0.75;">
		<rect x="0.5" y="0.5" style="fill:none;stroke:#404040;" width="108" height="108"/> 
		<line style="fill:none;stroke:#404040;" x1="0.5" y1="72.51" x2="108.5" y2="72.51"/>
		<line style="fill:none;stroke:#404040;" x1="0.5" y1="36.49" x2="108.5" y2="36.49"/>
		<line style="fill:none;stroke:#404040;" x1="72.5" y1="0.5" x2="72.5" y2="108.5"/>
		<line style="fill:none;stroke:#404040;" x1="36.5" y1="0.5" x2="36.5" y2="108.5"/>
	</g>
	<g id="Kanji">
		<text transform="matrix(1 0 0 1 0.5 93.3799)" style="font-size:108;">湯</text>
	</g>
	<g id="StrokeNumbers" style="font-size:8;fill:#808080">
		<text transform="matrix(1 0 0 1 13.5 18.5)">1</text>
		<text transform="matrix(1 0 0 1 8.25 45.1299)">2</text>
		<text transform="matrix(1 0 0 1 8.5 94.5)">3</text>
		<text transform="matrix(1 0 0 1 42.5 22.5)">4</text>
		<text transform="matrix(1 0 0 1 48.5 11.5)">5</text>
		<text transform="matrix(1 0 0 1 55 23.5)">6</text>
		<text transform="matrix(1 0 0 1 56.5 35.5)">7</text>
		<text transform="matrix(1 0 0 1 39.75 48.1299)">8</text>
		<text transform="matrix(1 0 0 1 43.5 60.5)">9</text>
		<text transform="matrix(1 0 0 1 59.5 59.5)">10</text>
		<text transform="matrix(1 0 0 1 48.5 71.5)">11</text>
		<text transform="matrix(1 0 0 1 64.5 70.5)">12</text>
	</g>
	<g id="StrokePaths" style="fill:none;stroke:#404040;stroke-width:3;stroke-linecap:round;stroke-linejoin:round;">
		<path d="M21.76,17.5c3.79,1.38,9.79,5.69,10.74,7.84"/>
		<path d="M15.62,43.75C19.64,45.12,26,49.37,27,51.5"/>
		<path d="M17.41,90.95c1.34,0.3,2.96,0.02,3.59-1.24c3.12-6.33,5.75-12.2,8.25-18.2"/>
		<path d="M47.55,13.84c0.81,0.81,1.68,1.97,1.83,2.8c1,5.49,2.61,15.52,3.69,21.97c0.31,1.84,0.51,3.08,0.54,3.29"/>
		<path d="M49.84,15.36c4.93-0.73,18.17-2.49,26.43-3.34c3.64-0.37,6.47,1.11,6.01,5c-0.74,6.25-1.97,13.21-2.87,18.51c-0.2,1.15-0.38,2.23-0.53,3.2"/>
		<path d="M52.2,26.76c7.55-0.88,22.92-2.63,28.04-3.02"/>
		<path d="M54.19,38.96c4.51-0.62,18.23-2.19,23.85-2.73"/>
		<path d="M38,50.76c3,0.36,6.6,0.25,9.59-0.08c12.75-1.44,27.91-2.8,40.36-4c3.1-0.3,6.2-0.34,9.28,0.19"/>
		<path d="M54,53.25c0.09,0.64-0.23,1.59-0.58,2.26c-2.51,4.8-8.98,11.46-16.49,16.92"/>
		<path d="M51.69,62.7c1.69,0.55,3.6,0.33,5.13,0.17C64.12,62.12,77.38,60.38,87,59c5.15-0.74,6.83,0.75,6.07,5.9c-1.32,8.85-3.69,20.72-11.15,31.17c-2.26,3.17-4.79,1.31-7.38-2.15"/>
		<path d="M59.45,65.85c0.05,0.9-0.25,2.04-0.57,2.6c-3.26,5.67-9.51,11.8-19.01,17.05"/>
		<path d="M75.25,64.12c0.09,1.41-0.14,2.37-0.7,3.68C71,76.12,60.62,90,45.38,97.5"/>
	</g>
</svg>
