<?xml version="1.0" encoding="UTF-8"?>
<!-- Copyright (C) 2009 Ulrich Apel.
This work is distributed under the conditions of the Creative Commons
Attribution-Share Alike 3.0 Licence. This means you are free:
* to Share - to copy, distribute and transmit the work
* to Remix - to adapt the work

Under the following conditions:
* Attribution. You must attribute the work by stating your use of KanjiVG in
  your own copyright header and linking to KanjiVG's website
  (http://kanjivg.tagaini.net)
* Share Alike. If you alter, transform, or build upon this work, you may
  distribute the resulting work only under the same or similar license to this
  one.

See http://creativecommons.org/licenses/by-sa/3.0/ for more details. -->
<!DOCTYPE svg PUBLIC "-//W3C//DTD SVG 1.0//EN" "http://www.w3.org/TR/2001/REC-SVG-20010904/DTD/svg10.dtd">
<svg xmlns="http://www.w3.org/2000/svg" width="109" height="109" viewBox="0 0 109 109">
	<g id="HelperGrid" style="opacity:0.75;">
		<rect x="0.5" y="0.5" style="fill:none;stroke:#404040;" width="108" height="108"/> 
		<line style="fill:none;stroke:#404040;" x1="0.5" y1="72.51" x2="108.5" y2="72.51"/>
		<line style="fill:none;stroke:#404040;" x1="0.5" y1="36.49" x2="108.5" y2="36.49"/>
		<line style="fill:none;stroke:#404040;" x1="72.5" y1="0.5" x2="72.5" y2="108.5"/>
		<line style="fill:none;stroke:#404040;" x1="36.5" y1="0.5" x2="36.5" y2="108.5"/>
	</g>
	<g id="Kanji">
		<text transform="matrix(1 0 0 1 0.5 93.3799)" style="font-size:108;">溯</text>
	</g>
	<g id="StrokeNumbers" style="font-size:8;fill:#808080">
		<text transform="matrix(1 0 0 1 10.5 17.5)">1</text>
		<text transform="matrix(1 0 0 1 4.5 42.5547)">2</text>
		<text transform="matrix(1 0 0 1 5.5 91.5)">3</text>
		<text transform="matrix(1 0 0 1 30.5 16.5)">4</text>
		<text transform="matrix(1 0 0 1 52.5 13.5)">5</text>
		<text transform="matrix(1 0 0 1 30.5 33.7549)">6</text>
		<text transform="matrix(1 0 0 1 31.5 46.5)">7</text>
		<text transform="matrix(1 0 0 1 56.5 43.5)">8</text>
		<text transform="matrix(1 0 0 1 43.5 44.5)">9</text>
		<text transform="matrix(1 0 0 1 63.5 26.5)">10</text>
		<text transform="matrix(1 0 0 1 75.5 17.5)">11</text>
		<text transform="matrix(1 0 0 1 79.5 38.5)">12</text>
		<text transform="matrix(1 0 0 1 78.5 57.5)">13</text>
	</g>
	<g id="StrokePaths" style="fill:none;stroke:#404040;stroke-width:3;stroke-linecap:round;stroke-linejoin:round;">
		<path d="M17.13,17c4.1,1.6,10.59,6.6,11.62,9.09"/>
		<path d="M13,42.5c4.24,1.41,10.94,5.8,12,8"/>
		<path d="M13.25,90.23c2.5,0.77,4.95,0.43,5.86-1.25c3.39-6.24,5.79-13.66,8.64-19.49"/>
		<path d="M37.53,16.71c2.57,2.44,6.65,10.05,7.29,13.85"/>
		<path d="M61.16,14.14c0.02,0.44,0.05,1.13-0.05,1.76c-0.58,3.71-3.9,11.85-8.45,16.83"/>
		<path d="M30.75,36.39c1.12,0.38,3.16,0.42,4.28,0.38c9.09-0.27,22.06-4.83,28.94-4.38c1.85,0.12,2.98,0.18,3.91,0.37"/>
		<path d="M37.48,47.38c0.63,0.45,1.35,2.35,1.27,3.25C38.27,56,37.06,60,36.91,65.13c-0.06,2.06,0.69,3.09,2.25,2.75c6.42-1.38,14.08-3.38,23.76-4"/>
		<path d="M63.49,42.63c0.64,0.45,1.31,3.34,1.27,4.25c-0.27,6.37-0.98,10.12-1.54,21"/>
		<path d="M50.06,37.75c0.62,1.61,1.51,2.88,1.51,4.89c0,18.38-0.57,39.11-18.64,54.33"/>
		<path d="M73.77,19.75c0.96,1,1.42,2,1.42,2.99c0,1.05,0.32,19.87,0.32,22.12c0,18.39-4.79,41.64-14.41,50.39"/>
		<path d="M76.57,22c2.51-0.23,13.39-2.74,15.26-3c3.34-0.46,4.6,3,4.18,4.38c-0.4,1.33-0.63,45.47-0.63,64.16c0,13.96-5.76,5.65-7.85,3.58"/>
		<path d="M75.74,42.5c5.02-0.5,13.17-1.25,19.23-2"/>
		<path d="M75.95,61.75c6.69-0.75,10.87-1.5,18.6-2"/>
	</g>
</svg>
