<?xml version="1.0" encoding="UTF-8"?>
<!-- Copyright (C) 2009 Ulrich Apel.
This work is distributed under the conditions of the Creative Commons
Attribution-Share Alike 3.0 Licence. This means you are free:
* to Share - to copy, distribute and transmit the work
* to Remix - to adapt the work

Under the following conditions:
* Attribution. You must attribute the work by stating your use of KanjiVG in
  your own copyright header and linking to KanjiVG's website
  (http://kanjivg.tagaini.net)
* Share Alike. If you alter, transform, or build upon this work, you may
  distribute the resulting work only under the same or similar license to this
  one.

See http://creativecommons.org/licenses/by-sa/3.0/ for more details. -->
<!DOCTYPE svg PUBLIC "-//W3C//DTD SVG 1.0//EN" "http://www.w3.org/TR/2001/REC-SVG-20010904/DTD/svg10.dtd">
<svg xmlns="http://www.w3.org/2000/svg" width="109" height="109" viewBox="0 0 109 109">
	<g id="HelperGrid" style="opacity:0.75;">
		<rect x="0.5" y="0.5" style="fill:none;stroke:#404040;" width="108" height="108"/> 
		<line style="fill:none;stroke:#404040;" x1="0.5" y1="72.51" x2="108.5" y2="72.51"/>
		<line style="fill:none;stroke:#404040;" x1="0.5" y1="36.49" x2="108.5" y2="36.49"/>
		<line style="fill:none;stroke:#404040;" x1="72.5" y1="0.5" x2="72.5" y2="108.5"/>
		<line style="fill:none;stroke:#404040;" x1="36.5" y1="0.5" x2="36.5" y2="108.5"/>
	</g>
	<g id="Kanji">
		<text transform="matrix(1 0 0 1 0.5 93.3799)" style="font-size:108;">溲</text>
	</g>
	<g id="StrokeNumbers" style="font-size:8;fill:#808080">
		<text transform="matrix(1 0 0 1 11.75 16.1299)">1</text>
		<text transform="matrix(1 0 0 1 7.75 41.5547)">2</text>
		<text transform="matrix(1 0 0 1 8.25 94.2285)">3</text>
		<text transform="matrix(1 0 0 1 58.5 8.5)">4</text>
		<text transform="matrix(1 0 0 1 47.5 17.5)">5</text>
		<text transform="matrix(1 0 0 1 34.5 36.5)">6</text>
		<text transform="matrix(1 0 0 1 48.5 35.5)">7</text>
		<text transform="matrix(1 0 0 1 48.5 49.5)">8</text>
		<text transform="matrix(1 0 0 1 72.5 20.5)">9</text>
		<text transform="matrix(1 0 0 1 70.5 32.2041)">10</text>
		<text transform="matrix(1 0 0 1 70.5 46.3799)">11</text>
		<text transform="matrix(1 0 0 1 37.75 64.5)">12</text>
		<text transform="matrix(1 0 0 1 42.5 75.5)">13</text>
	</g>
	<g id="StrokePaths" style="fill:none;stroke:#404040;stroke-width:3;stroke-linecap:round;stroke-linejoin:round;">
		<path d="M19.88,15.75c4.19,1.56,10.82,6.41,11.87,8.84"/>
		<path d="M15,39.5c4.41,1.85,11.4,7.62,12.5,10.5"/>
		<path d="M16.25,89.73c1.71,1.27,3.78,1.32,4.86-0.25c3.14-4.57,9.79-16.66,12.64-22.49"/>
		<path d="M64.13,11.75c1.04,0.48,1.66,2.17,1.87,3.14s0,40.35-0.21,46.39"/>
		<path d="M55.87,17.53c0.04,0.29-0.21,1.4-0.45,1.71c-3.21,4.09-5.7,7.17-13.01,10.43"/>
		<path d="M40.11,27.68c0.92,0.73,1.29,2.36,1.52,3.86c0.83,5.47,2.41,16.12,3.25,23.52"/>
		<path d="M42.73,39.27c3.82-0.33,12.53-2.13,13.44-2.13c0.91,0,2.18,0,2.91,0"/>
		<path d="M44.98,53.02c3.47-0.33,11.38-1.63,12.2-1.63s1.98,0,2.64,0"/>
		<path d="M72.98,22.93c0.83,0.16,1.49,0.49,2.64,0.49s11.54-1.98,12.86-2.14s2.41,0.82,2.31,1.81c-0.99,9.56-2.72,28.07-2.88,28.73"/>
		<path d="M72.89,34.99c0.83,0.16,1.49,0.49,2.64,0.49s12.54-1.33,13.86-1.5"/>
		<path d="M72.39,48.99c0.83,0.16,1.49,0.49,2.64,0.49s11.54-0.83,12.86-1"/>
		<path d="M47.89,64.41c1.66,0.27,1.89,0.88,5.19,0.27c5.19-0.96,27.7-3.47,29.99-3.89c2.28-0.41,3.27,2.61,2.28,3.98C73.52,81.38,56.62,92.28,37.93,99"/>
		<path d="M51.72,71.3c5.85,0.14,22.93,16.11,36.49,22.48c2.11,0.99,3.65,1.65,5.62,1.98"/>
	</g>
</svg>
