<?xml version="1.0" encoding="UTF-8"?>
<!-- Copyright (C) 2009 Ulrich Apel.
This work is distributed under the conditions of the Creative Commons
Attribution-Share Alike 3.0 Licence. This means you are free:
* to Share - to copy, distribute and transmit the work
* to Remix - to adapt the work

Under the following conditions:
* Attribution. You must attribute the work by stating your use of KanjiVG in
  your own copyright header and linking to KanjiVG's website
  (http://kanjivg.tagaini.net)
* Share Alike. If you alter, transform, or build upon this work, you may
  distribute the resulting work only under the same or similar license to this
  one.

See http://creativecommons.org/licenses/by-sa/3.0/ for more details. -->
<!DOCTYPE svg PUBLIC "-//W3C//DTD SVG 1.0//EN" "http://www.w3.org/TR/2001/REC-SVG-20010904/DTD/svg10.dtd">
<svg xmlns="http://www.w3.org/2000/svg" width="109" height="109" viewBox="0 0 109 109">
	<g id="HelperGrid" style="opacity:0.75;">
		<rect x="0.5" y="0.5" style="fill:none;stroke:#404040;" width="108" height="108"/> 
		<line style="fill:none;stroke:#404040;" x1="0.5" y1="72.51" x2="108.5" y2="72.51"/>
		<line style="fill:none;stroke:#404040;" x1="0.5" y1="36.49" x2="108.5" y2="36.49"/>
		<line style="fill:none;stroke:#404040;" x1="72.5" y1="0.5" x2="72.5" y2="108.5"/>
		<line style="fill:none;stroke:#404040;" x1="36.5" y1="0.5" x2="36.5" y2="108.5"/>
	</g>
	<g id="Kanji">
		<text transform="matrix(1 0 0 1 0.5 93.3799)" style="font-size:108;">滂</text>
	</g>
	<g id="StrokeNumbers" style="font-size:8;fill:#808080">
		<text transform="matrix(1 0 0 1 9.5 16.5)">1</text>
		<text transform="matrix(1 0 0 1 4.5 42.5)">2</text>
		<text transform="matrix(1 0 0 1 6 91.5)">3</text>
		<text transform="matrix(1 0 0 1 52.5 10.9043)">4</text>
		<text transform="matrix(1 0 0 1 38.5 20.5)">5</text>
		<text transform="matrix(1 0 0 1 44.5 33.5)">6</text>
		<text transform="matrix(1 0 0 1 68.5 32.9297)">7</text>
		<text transform="matrix(1 0 0 1 31.5 44.604)">8</text>
		<text transform="matrix(1 0 0 1 42.75 39.5)">9</text>
		<text transform="matrix(1 0 0 1 50.5 49.5)">10</text>
		<text transform="matrix(1 0 0 1 41.5 56.5)">11</text>
		<text transform="matrix(1 0 0 1 77.5 65.5)">12</text>
		<text transform="matrix(1 0 0 1 48.5 70.7285)">13</text>
	</g>
	<g id="StrokePaths" style="fill:none;stroke:#404040;stroke-width:3;stroke-linecap:round;stroke-linejoin:round;">
		<path d="M16.13,16c4.45,1.78,11.5,7.32,12.62,10.09"/>
		<path d="M12,42c4.59,1.76,11.85,7.26,13,10"/>
		<path d="M13.25,88.73c1.71,1.27,3.78,1.32,4.86-0.25c3.14-4.57,6.29-10.16,9.14-15.99"/>
		<path d="M59.3,9.75c1.45,1.5,3.45,4.25,4.3,7.98"/>
		<path d="M40.23,23.8c1.38,0.32,2.99,0.37,4.36,0.32c7.77-0.28,27.03-2,38.77-2.23c2.29-0.05,3.67,0.15,4.82,0.32"/>
		<path d="M49.77,27.08c2.9,3.97,4.74,8.74,5,11.36"/>
		<path d="M77.49,25.59c0.26,1.11,0.48,2.02,0.27,2.32c-2.01,3-5.46,8.69-6.9,10.52"/>
		<path d="M39.52,41.73c-0.17,3.36-4.12,12.13-5.52,14.13"/>
		<path d="M39.61,43.55c7.64-0.94,34.26-3.85,49.13-4.25c9.09-0.24,2.87,5.64-0.52,9.32"/>
		<path d="M60.56,45.62c1.79,1.29,4.02,5.29,4.74,8.82"/>
		<path d="M40.05,59.11c1.4,0.13,4.58,0.79,5.95,0.69C57.5,59,71.25,58,87.57,58c2.31,0,3.48,0.06,5.2,0.88"/>
		<path d="M61.32,65c4.05,1.47,12.32,1.99,16.57,2.67c1.91,0.31,2.82,1.22,2.35,2.95c-1.58,5.75-8.68,16.59-13.59,23.12c-4.15,5.51-6.15,0.51-7.62-2.22"/>
		<path d="M61.01,62.2c0.32,0.8,0.25,1.69-0.12,2.59c-2.6,6.18-10.12,18.65-21.8,24.49"/>
	</g>
</svg>
