<?xml version="1.0" encoding="UTF-8"?>
<!-- Copyright (C) 2009 Ulrich Apel.
This work is distributed under the conditions of the Creative Commons
Attribution-Share Alike 3.0 Licence. This means you are free:
* to Share - to copy, distribute and transmit the work
* to Remix - to adapt the work

Under the following conditions:
* Attribution. You must attribute the work by stating your use of KanjiVG in
  your own copyright header and linking to KanjiVG's website
  (http://kanjivg.tagaini.net)
* Share Alike. If you alter, transform, or build upon this work, you may
  distribute the resulting work only under the same or similar license to this
  one.

See http://creativecommons.org/licenses/by-sa/3.0/ for more details. -->
<!DOCTYPE svg PUBLIC "-//W3C//DTD SVG 1.0//EN" "http://www.w3.org/TR/2001/REC-SVG-20010904/DTD/svg10.dtd">
<svg xmlns="http://www.w3.org/2000/svg" width="109" height="109" viewBox="0 0 109 109">
	<g id="HelperGrid" style="opacity:0.75;">
		<rect x="0.5" y="0.5" style="fill:none;stroke:#404040;" width="108" height="108"/> 
		<line style="fill:none;stroke:#404040;" x1="0.5" y1="72.51" x2="108.5" y2="72.51"/>
		<line style="fill:none;stroke:#404040;" x1="0.5" y1="36.49" x2="108.5" y2="36.49"/>
		<line style="fill:none;stroke:#404040;" x1="72.5" y1="0.5" x2="72.5" y2="108.5"/>
		<line style="fill:none;stroke:#404040;" x1="36.5" y1="0.5" x2="36.5" y2="108.5"/>
	</g>
	<g id="Kanji">
		<text transform="matrix(1 0 0 1 0.5 93.3799)" style="font-size:108;">滷</text>
	</g>
	<g id="StrokeNumbers" style="font-size:8;fill:#808080">
		<text transform="matrix(1 0 0 1 12.5 17.5)">1</text>
		<text transform="matrix(1 0 0 1 7.5 43.5)">2</text>
		<text transform="matrix(1 0 0 1 8.75 89.5)">3</text>
		<text transform="matrix(1 0 0 1 52.5 13.5)">4</text>
		<text transform="matrix(1 0 0 1 68.5 20.5)">5</text>
		<text transform="matrix(1 0 0 1 36.5 47.5)">6</text>
		<text transform="matrix(1 0 0 1 46.5 37.5)">7</text>
		<text transform="matrix(1 0 0 1 69.75 47.5)">8</text>
		<text transform="matrix(1 0 0 1 46.75 53.5293)">9</text>
		<text transform="matrix(1 0 0 1 52.75 49.5)">10</text>
		<text transform="matrix(1 0 0 1 49.5 61.5)">11</text>
		<text transform="matrix(1 0 0 1 79.5 61.3047)">12</text>
		<text transform="matrix(1 0 0 1 64.5 78.5)">13</text>
		<text transform="matrix(1 0 0 1 50.5 91.5)">14</text>
	</g>
	<g id="StrokePaths" style="fill:none;stroke:#404040;stroke-width:3;stroke-linecap:round;stroke-linejoin:round;">
		<path d="M18.38,17.5c4.37,1.52,11.27,6.23,12.37,8.59"/>
		<path d="M15.5,43c4.41,1.59,11.4,6.53,12.5,9"/>
		<path d="M18.25,90.23c2.25,0.27,2.78-0.18,3.86-1.75c3.14-4.57,6.29-10.16,9.14-15.99"/>
		<path d="M61.35,12.41c0.7,0.4,2.18,2.98,2.32,3.78c0.14,0.8,0.42,18.67,0.29,23.65"/>
		<path d="M64.29,24.59c2.77-0.23,20.23-2.11,23.17-2.57c1.5-0.23,3.55,0,4.79,0.23"/>
		<path d="M42.7,39.16c0.51,1.2,1.26,2.1,1.27,3.69c0.1,11.95,0.1,32.55-0.21,55.37"/>
		<path d="M45.08,41.61c14.05-1.26,41.12-4.02,43.28-4.02c2.36,0,3.19,2.08,3.15,4.61c-0.17,13.19-0.68,35.3-0.34,53.93"/>
		<path d="M77.91,45.35c0.42,0.99,0.68,2.3-0.12,3.91c-7.89,15.76-14.94,26.45-26.04,36.3"/>
		<path d="M53.58,51.26c10.62,7.4,22.29,21.47,27.91,32.64"/>
		<path d="M62.22,45.97c2.16,1.7,4.53,4.92,5.67,7.48"/>
		<path d="M50.34,62.57c2.11,1.5,4.44,4.34,5.56,6.6"/>
		<path d="M78.78,62.71c2.19,1.99,4.61,5.77,5.77,8.77"/>
		<path d="M65.46,79.63c1.74,1.85,3.65,5.35,4.58,8.13"/>
		<path d="M44.41,94.72c8.96,0,33.89-1.76,46.27-2.1"/>
	</g>
</svg>
