<?xml version="1.0" encoding="UTF-8"?>
<!DOCTYPE svg PUBLIC "-//W3C//DTD SVG 1.0//EN" "http://www.w3.org/TR/2001/REC-SVG-20010904/DTD/svg10.dtd">
<svg xmlns="http://www.w3.org/2000/svg" width="109" height="109" viewBox="0 0 109 109">
	<g id="HelperGrid" style="opacity:0.75;">
		<rect x="0.5" y="0.5" style="fill:none;stroke:#404040;" width="108" height="108"/> 
		<line style="fill:none;stroke:#404040;" x1="0.5" y1="72.51" x2="108.5" y2="72.51"/>
		<line style="fill:none;stroke:#404040;" x1="0.5" y1="36.49" x2="108.5" y2="36.49"/>
		<line style="fill:none;stroke:#404040;" x1="72.5" y1="0.5" x2="72.5" y2="108.5"/>
		<line style="fill:none;stroke:#404040;" x1="36.5" y1="0.5" x2="36.5" y2="108.5"/>
	</g>
	<g id="Kanji">
		<text transform="matrix(1 0 0 1 0.5 93.3799)" style="font-size:108;">滾</text>
	</g>
	<g id="StrokeNumbers" style="font-size:8;fill:#808080">
		<text transform="matrix(1 0 0 1 10.5 15.8799)">1</text>
		<text transform="matrix(1 0 0 1 7.5 42.5)">2</text>
		<text transform="matrix(1 0 0 1 9.5 93.5)">3</text>
		<text transform="matrix(1 0 0 1 54.75 10.6543)">4</text>
		<text transform="matrix(1 0 0 1 43.5 18.3291)">5</text>
		<text transform="matrix(1 0 0 1 45.5 33.5)">6</text>
		<text transform="matrix(1 0 0 1 65.5 32.5)">7</text>
		<text transform="matrix(1 0 0 1 43.5 50.5)">8</text>
		<text transform="matrix(1 0 0 1 56.5 39.5)">9</text>
		<text transform="matrix(1 0 0 1 56.5 53.5)">10</text>
		<text transform="matrix(1 0 0 1 45.5 67.5)">11</text>
		<text transform="matrix(1 0 0 1 43.5 86.5)">12</text>
		<text transform="matrix(1 0 0 1 75.25 63.9785)">13</text>
		<text transform="matrix(1 0 0 1 60.5 72.1543)">14</text>
	</g>
	<g id="StrokePaths" style="fill:none;stroke:#404040;stroke-width:3;stroke-linecap:round;stroke-linejoin:round;">
		<path d="M18.63,16c4.45,1.78,11.5,7.32,12.62,10.09"/>
		<path d="M15,42.5c4.77,1.85,12.31,7.62,13.5,10.5"/>
		<path d="M17.75,90.23c1.71,1.27,3.78,1.32,4.86-0.25c3.14-4.57,6.29-10.16,9.14-15.99"/>
		<path d="M61.43,10.85c2.23,1.9,4.37,4.9,5.41,7.87"/>
		<path d="M40.11,24.74c1.29,0.12,4.22,0.8,5.47,0.63c10.1-1.33,29.57-2.64,43.29-2.98c2.12-0.05,3.2,0.05,4.78,0.81"/>
		<path d="M54.69,29.39c0.04,0.32,0.09,0.83-0.08,1.28c-1,2.71-6.74,8.65-14.6,12.29"/>
		<path d="M74.44,28.33c6.26,2.19,16.17,8.98,17.74,12.38"/>
		<path d="M49.74,42.47c0.32,0.29,0.66,0.54,0.8,0.91c1.13,2.91,2.06,10.37,2.83,15.59"/>
		<path d="M51.76,43.46c7.95-1.22,22.95-2.79,27.05-3.2c1.5-0.15,2.9,2.02,2.68,2.9c-0.89,3.66-1.57,5.54-3.05,11.67"/>
		<path d="M54.1,57.11c4.81-0.46,20.1-1.35,26.21-1.82"/>
		<path d="M62.53,58.41c0.08,0.56-0.08,2.08-0.65,2.75C57.75,66,50,75,35.56,82.17"/>
		<path d="M53.12,74.75c0.38,0.46,0.79,0.9,0.78,1.7c-0.02,10.04-0.75,15.88-0.75,17.58c0,1.7,1.93,2.17,3.1,0.89c1.18-1.27,13.26-10.07,14.83-11.34"/>
		<path d="M85.2,62.39c0.03,0.27,0.3,1.3,0.13,1.65c-1.05,2.22-4.34,5.4-9.69,9.82"/>
		<path d="M64.99,63.08c5.64,6.2,19.94,21.21,23.95,24.61c1.51,1.28,2.8,1.83,4.31,2.2"/>
	</g>
</svg>
