<?xml version="1.0" encoding="UTF-8"?>
<!-- Copyright (C) 2009 Ulrich Apel.
This work is distributed under the conditions of the Creative Commons
Attribution-Share Alike 3.0 Licence. This means you are free:
* to Share - to copy, distribute and transmit the work
* to Remix - to adapt the work

Under the following conditions:
* Attribution. You must attribute the work by stating your use of KanjiVG in
  your own copyright header and linking to KanjiVG's website
  (http://kanjivg.tagaini.net)
* Share Alike. If you alter, transform, or build upon this work, you may
  distribute the resulting work only under the same or similar license to this
  one.

See http://creativecommons.org/licenses/by-sa/3.0/ for more details. -->
<!DOCTYPE svg PUBLIC "-//W3C//DTD SVG 1.0//EN" "http://www.w3.org/TR/2001/REC-SVG-20010904/DTD/svg10.dtd">
<svg xmlns="http://www.w3.org/2000/svg" width="109" height="109" viewBox="0 0 109 109">
	<g id="HelperGrid" style="opacity:0.75;">
		<rect x="0.5" y="0.5" style="fill:none;stroke:#404040;" width="108" height="108"/> 
		<line style="fill:none;stroke:#404040;" x1="0.5" y1="72.51" x2="108.5" y2="72.51"/>
		<line style="fill:none;stroke:#404040;" x1="0.5" y1="36.49" x2="108.5" y2="36.49"/>
		<line style="fill:none;stroke:#404040;" x1="72.5" y1="0.5" x2="72.5" y2="108.5"/>
		<line style="fill:none;stroke:#404040;" x1="36.5" y1="0.5" x2="36.5" y2="108.5"/>
	</g>
	<g id="Kanji">
		<text transform="matrix(1 0 0 1 0.5 93.3799)" style="font-size:108;">漕</text>
	</g>
	<g id="StrokeNumbers" style="font-size:8;fill:#808080">
		<text transform="matrix(1 0 0 1 12.5 17.5)">1</text>
		<text transform="matrix(1 0 0 1 6.5 44.5)">2</text>
		<text transform="matrix(1 0 0 1 6.5 91.7285)">3</text>
		<text transform="matrix(1 0 0 1 37.5 21.5)">4</text>
		<text transform="matrix(1 0 0 1 33.5 41.5)">5</text>
		<text transform="matrix(1 0 0 1 43.5 32.0049)">6</text>
		<text transform="matrix(1 0 0 1 48.5 53.7041)">8</text>
		<text transform="matrix(1 0 0 1 46.5 13.5)">9</text>
		<text transform="matrix(1 0 0 1 40.5 72.5)">10</text>
		<text transform="matrix(1 0 0 1 61.75 11.5)">10</text>
		<text transform="matrix(1 0 0 1 47.5 43.5)">7</text>
		<text transform="matrix(1 0 0 1 52.5 63.5)">12</text>
		<text transform="matrix(1 0 0 1 55.5 76.5)">13</text>
		<text transform="matrix(1 0 0 1 55.5 91.5)">14</text>
	</g>
	<g id="StrokePaths" style="fill:none;stroke:#404040;stroke-width:3;stroke-linecap:round;stroke-linejoin:round;">
		<path d="M18.38,17.25c4.19,1.56,10.82,6.41,11.87,8.84"/>
		<path d="M14.25,44.25c3.97,1.37,10.26,5.62,11.25,7.75"/>
		<path d="M14.75,90.21c1.75,0.04,3.81,0.36,4.75-1.25C22.25,84.25,26.5,75,29,69"/>
		<path d="M37.58,24.02c1.09,0.46,3.09,0.56,4.2,0.46c11.16-0.98,38.06-4.59,49.55-3.95c1.82,0.1,2.92,0.22,3.83,0.45"/>
		<path d="M40.74,34.39c0.34,0.59,1,1.85,1.1,2.63c0.32,2.57,4.11,20.94,4.22,21.73"/>
		<path d="M42.82,35.49c3.18-0.37,42.92-4.83,45.72-4.7c1.48,0.07,3.38,1.85,3.28,3.84c-0.26,5.04-5.23,20.18-5.89,21.31"/>
		<path d="M44.15,45.54c10.16-0.84,20.35-1.49,30.53-2.16c1.17-0.08,3.81-0.15,4.9-0.22"/>
		<path d="M47.41,56.29c5.38-0.38,31.35-2.42,38.05-2.75"/>
		<path d="M73.06,10.25c0.69,0.38,1.29,1.68,1.25,2.44c-1.33,22.76-1.47,25.6-2.42,41.4"/>
		<path d="M54.8,13.15c0.69,0.38,1.2,1.68,1.25,2.45c1.08,16.99,2.54,32.47,3.01,39.43"/>
		<path d="M49.75,65.44c0.43,0.73,0.86,1.1,0.86,2.07s-0.29,29.06-0.29,29.54"/>
		<path d="M51.33,65.58c2.42-0.08,26.44-2.51,28.65-2.62c1.84-0.09,3.03,1.38,2.88,2.1c-0.29,1.44-1.12,29.85-1.12,30.58"/>
		<path d="M51.25,80.17c5,0.08,10.15-0.82,15.11-1.31c1.69-0.17,3.38-0.33,5-0.49"/>
		<path d="M51.6,94.3c6.68-0.42,21.36-1.56,29.68-1.88"/>
	</g>
</svg>
