<?xml version="1.0" encoding="UTF-8"?>
<!-- Copyright (C) 2009 Ulrich Apel.
This work is distributed under the conditions of the Creative Commons
Attribution-Share Alike 3.0 Licence. This means you are free:
* to Share - to copy, distribute and transmit the work
* to Remix - to adapt the work

Under the following conditions:
* Attribution. You must attribute the work by stating your use of KanjiVG in
  your own copyright header and linking to KanjiVG's website
  (http://kanjivg.tagaini.net)
* Share Alike. If you alter, transform, or build upon this work, you may
  distribute the resulting work only under the same or similar license to this
  one.

See http://creativecommons.org/licenses/by-sa/3.0/ for more details. -->
<!DOCTYPE svg PUBLIC "-//W3C//DTD SVG 1.0//EN" "http://www.w3.org/TR/2001/REC-SVG-20010904/DTD/svg10.dtd">
<svg xmlns="http://www.w3.org/2000/svg" width="109" height="109" viewBox="0 0 109 109">
	<g id="HelperGrid" style="opacity:0.75;">
		<rect x="0.5" y="0.5" style="fill:none;stroke:#404040;" width="108" height="108"/> 
		<line style="fill:none;stroke:#404040;" x1="0.5" y1="72.51" x2="108.5" y2="72.51"/>
		<line style="fill:none;stroke:#404040;" x1="0.5" y1="36.49" x2="108.5" y2="36.49"/>
		<line style="fill:none;stroke:#404040;" x1="72.5" y1="0.5" x2="72.5" y2="108.5"/>
		<line style="fill:none;stroke:#404040;" x1="36.5" y1="0.5" x2="36.5" y2="108.5"/>
	</g>
	<g id="Kanji">
		<text transform="matrix(1 0 0 1 0.5 93.3799)" style="font-size:108;">激</text>
	</g>
	<g id="StrokeNumbers" style="font-size:8;fill:#808080">
		<text transform="matrix(1 0 0 1 9.5 19.5)">1</text>
		<text transform="matrix(1 0 0 1 4.5 43.5547)">2</text>
		<text transform="matrix(1 0 0 1 2.5 90.5)">3</text>
		<text transform="matrix(1 0 0 1 38.5 13.5)">4</text>
		<text transform="matrix(1 0 0 1 27.75 40.5547)">5</text>
		<text transform="matrix(1 0 0 1 33.75 29.979)">6</text>
		<text transform="matrix(1 0 0 1 39.75 39.5)">7</text>
		<text transform="matrix(1 0 0 1 39.75 49.3291)">8</text>
		<text transform="matrix(1 0 0 1 38.5 60.5)">9</text>
		<text transform="matrix(1 0 0 1 26.5 63.5)">10</text>
		<text transform="matrix(1 0 0 1 48.5 71.6035)">11</text>
		<text transform="matrix(1 0 0 1 29.5 76.0293)">12</text>
		<text transform="matrix(1 0 0 1 62.5 16.5)">13</text>
		<text transform="matrix(1 0 0 1 74.5 38.5)">14</text>
		<text transform="matrix(1 0 0 1 74.5 50.979)">15</text>
		<text transform="matrix(1 0 0 1 71.5 57.5)">16</text>
	</g>
	<g id="StrokePaths" style="fill:none;stroke:#404040;stroke-width:3;stroke-linecap:round;stroke-linejoin:round;">
		<path d="M16.38,19.5c3.48,1.34,8.99,5.51,9.87,7.59"/>
		<path d="M11.25,42.5c3.79,1.15,9.8,4.72,10.75,6.5"/>
		<path d="M10.25,87.21c1.5,1.31,3.31,1.36,4.25-0.25c2.75-4.7,5.5-10.45,8-16.45"/>
		<path d="M46.74,13.5c0.25,0.58,0.29,1.29,0.23,1.8c-0.35,2.99-3.4,10.15-6.17,14.17"/>
		<path d="M33.5,32.5c0.36,0.53,0.73,0.8,0.73,1.5c0,0.71,2.24,15.51,2.39,19"/>
		<path d="M34.45,33.75c2.06-0.09,18.23-4.41,20.11-4.51c1.57-0.09,3.77,0.79,3.45,2.62c-0.76,4.4-1.51,11.65-2.76,20.02"/>
		<path d="M36.31,42.35c3.32-0.35,6.63-0.8,9.94-1.25c0.89-0.12,1.77-0.25,2.65-0.37"/>
		<path d="M38.23,51.53c6.02-0.78,9.77-1.28,16.43-1.98"/>
		<path d="M42.86,53.75c1.89,1,4.42,4.19,5.19,5.47"/>
		<path d="M28.94,65.69c0.85,0.06,2.79,0.41,3.61,0.33c6.67-0.69,18.45-3.52,26.35-4.7c1.38-0.21,2.11-0.47,3.16-0.08"/>
		<path d="M44.15,71.77c3.88,0.46,5.6,2.55,8.73,2.29c2.03-0.18,2.6,0.79,2.49,2.02c-0.3,3.25-4.82,13.54-7.36,16.17c-2.76,2.86-4.6-0.11-5.42-0.49"/>
		<path d="M44.01,65.98c0.05,0.63,0.18,1.64-0.11,2.53c-2.22,6.68-7.49,17.32-19.52,24.18"/>
		<path d="M73.77,15.64c0.04,0.94,0.16,2.46-0.07,3.77C72.25,27.75,68.5,44,61,55.5"/>
		<path d="M70.28,42.36c0.44,0.37,1.23,0.41,1.67,0.37c4.54-0.42,14.79-4.47,19.11-5.21c0.77-0.13,1.26-0.02,1.46,0.07"/>
		<path d="M83.73,43.43c0.42,1.23,0.65,2.12,0.21,4.38C79.91,68.31,71.75,85.5,57.48,93.75"/>
		<path d="M68.5,52.4c4.65,7,16.06,29.89,22.98,37.77c1.33,1.52,2.18,1.77,3.27,1.93"/>
	</g>
</svg>
