<?xml version="1.0" encoding="UTF-8"?>
<!DOCTYPE svg PUBLIC "-//W3C//DTD SVG 1.0//EN" "http://www.w3.org/TR/2001/REC-SVG-20010904/DTD/svg10.dtd">
<svg xmlns="http://www.w3.org/2000/svg" width="109" height="109" viewBox="0 0 109 109">
	<g id="HelperGrid" style="opacity:0.75;">
		<rect x="0.5" y="0.5" style="fill:none;stroke:#404040;" width="108" height="108"/> 
		<line style="fill:none;stroke:#404040;" x1="0.5" y1="72.51" x2="108.5" y2="72.51"/>
		<line style="fill:none;stroke:#404040;" x1="0.5" y1="36.49" x2="108.5" y2="36.49"/>
		<line style="fill:none;stroke:#404040;" x1="72.5" y1="0.5" x2="72.5" y2="108.5"/>
		<line style="fill:none;stroke:#404040;" x1="36.5" y1="0.5" x2="36.5" y2="108.5"/>
	</g>
	<g id="Kanji">
		<text transform="matrix(1 0 0 1 0.5 93.3799)" style="font-size:108;">炮</text>
	</g>
	<g id="StrokeNumbers" style="font-size:8;fill:#808080">
		<text transform="matrix(1 0 0 1 5.5 36.5)">1</text>
		<text transform="matrix(1 0 0 1 34.5 26.5)">2</text>
		<text transform="matrix(1 0 0 1 17.5 15.5)">3</text>
		<text transform="matrix(1 0 0 1 32.5361 67.5)">4</text>
		<text transform="matrix(1 0 0 1 50.5 12.5)">5</text>
		<text transform="matrix(1 0 0 1 63.5 24.5)">6</text>
		<text transform="matrix(1 0 0 1 55.5 41.5)">7</text>
		<text transform="matrix(1 0 0 1 59.5 57.5)">8</text>
		<text transform="matrix(1 0 0 1 46.5 52.5)">9</text>
	</g>
	<g id="StrokePaths" style="fill:none;stroke:#404040;stroke-width:3;stroke-linecap:round;stroke-linejoin:round;">
		<path d="M12.24,37.25c2.69,3.72,6.61,14.28,7.34,18"/>
		<path d="M41.58,30.25c0.71,0.87,0.54,2.53-0.11,3.88c-0.64,1.35-7.27,11.46-10.49,14.62"/>
		<path d="M26.75,14.25c0.76,0.78,1.52,1.83,1.53,3.14C28.5,71.2,24.5,81.92,12,95.5"/>
		<path d="M29.25,67c4.95,3,11.2,12.5,12.5,16.75"/>
		<path d="M59.12,12.5c0.04,0.78,0.23,2.07-0.09,3.12c-2.1,6.88-7.82,19.81-15.67,29.86"/>
		<path d="M57.49,27.68c0.98,0.61,2.35,0.82,3.92,0.41s22.59-3.28,26.49-3.64c1.85-0.17,3.87,1.12,3.87,3.41c-0.02,8.64-3.02,27.14-7.6,40.21c-1.44,4.11-4.96,3.03-7.27,0.48"/>
		<path d="M51.03,43.85c1.28,0.81,2.37,0.81,4.25,0.54c3.81-0.54,16.14-2.3,17.3-2.41c1.54-0.13,3.17,1.05,2.2,2.97c-1.03,2.05-1.53,6.3-2.62,12.53"/>
		<path d="M54.74,60.85c4.12-0.45,14.07-1.79,19.93-2.18"/>
		<path d="M53.52,46.02c0.48,0.98,0.52,1.39,0.51,3.09C54,54.54,54.17,74.86,54.17,79.6c0,12.4,3.08,14.58,21.57,14.58c19.26,0,21.4-1.94,21.4-13.39"/>
	</g>
</svg>
