<?xml version="1.0" encoding="UTF-8"?>
<!-- Copyright (C) 2009 Ulrich Apel.
This work is distributed under the conditions of the Creative Commons
Attribution-Share Alike 3.0 Licence. This means you are free:
* to Share - to copy, distribute and transmit the work
* to Remix - to adapt the work

Under the following conditions:
* Attribution. You must attribute the work by stating your use of KanjiVG in
  your own copyright header and linking to KanjiVG's website
  (http://kanjivg.tagaini.net)
* Share Alike. If you alter, transform, or build upon this work, you may
  distribute the resulting work only under the same or similar license to this
  one.

See http://creativecommons.org/licenses/by-sa/3.0/ for more details. -->
<!DOCTYPE svg PUBLIC "-//W3C//DTD SVG 1.0//EN" "http://www.w3.org/TR/2001/REC-SVG-20010904/DTD/svg10.dtd">
<svg xmlns="http://www.w3.org/2000/svg" width="109" height="109" viewBox="0 0 109 109">
	<g id="HelperGrid" style="opacity:0.75;">
		<rect x="0.5" y="0.5" style="fill:none;stroke:#404040;" width="108" height="108"/> 
		<line style="fill:none;stroke:#404040;" x1="0.5" y1="72.51" x2="108.5" y2="72.51"/>
		<line style="fill:none;stroke:#404040;" x1="0.5" y1="36.49" x2="108.5" y2="36.49"/>
		<line style="fill:none;stroke:#404040;" x1="72.5" y1="0.5" x2="72.5" y2="108.5"/>
		<line style="fill:none;stroke:#404040;" x1="36.5" y1="0.5" x2="36.5" y2="108.5"/>
	</g>
	<g id="Kanji">
		<text transform="matrix(1 0 0 1 0.5 93.3799)" style="font-size:108;">為</text>
	</g>
	<g id="StrokeNumbers" style="font-size:8;fill:#808080">
		<text transform="matrix(1 0 0 1 26.5 17.5)">1</text>
		<text transform="matrix(1 0 0 1 51.5 14.5)">2</text>
		<text transform="matrix(1 0 0 1 20.5 37.6299)">3</text>
		<text transform="matrix(1 0 0 1 54.5 45.1299)">4</text>
		<text transform="matrix(1 0 0 1 45.5 60.0547)">5</text>
		<text transform="matrix(1 0 0 1 20.25 85.5)">6</text>
		<text transform="matrix(1 0 0 1 32.5 80.5)">7</text>
		<text transform="matrix(1 0 0 1 46.5 76.5)">8</text>
		<text transform="matrix(1 0 0 1 61.5 72.5)">9</text>
	</g>
	<g id="StrokePaths" style="fill:none;stroke:#404040;stroke-width:3;stroke-linecap:round;stroke-linejoin:round;">
		<path d="M32.77,17.58c3.19,2.05,8.24,8.44,9.04,11.63"/>
		<path d="M60.44,15.14c0.12,1.56-0.22,2.85-1,5C53.38,37,39.75,64.75,15.31,80.47"/>
		<path d="M27.37,36.75c2.46,0.39,5,0.57,7.53,0.29c9.95-1.08,28.26-3.76,34.47-4.55c2.47-0.31,4.79-0.23,3.79,2.95c-0.65,2.07-2.06,6.21-3.42,10.06"/>
		<path d="M45.77,49.34c9.08-0.91,23.91-2.76,28.12-3.24c2.28-0.26,3.61,0.6,2.76,2.95c-0.86,2.36-2.99,7.41-4.41,11.44"/>
		<path d="M39.25,63c1.25,0.75,2.95,0.75,5,0.5C48.38,63,79.82,60.02,88,59.36c4.75-0.39,5.92,0.95,4.84,5.57C91.25,71.69,87.45,82.49,82,92.25c-2.64,4.72-5.05,1.88-8-1.25"/>
		<path d="M26.12,79.88c0.95,2,2.45,8.23,2.68,11.34"/>
		<path d="M38.75,76.08c1.79,1.88,4.62,7.71,5.06,10.63"/>
		<path d="M53,73.83c1.79,1.66,4.62,6.81,5.06,9.38"/>
		<path d="M67.75,70.62c2.14,1.65,5.53,6.78,6.07,9.34"/>
	</g>
</svg>
