<?xml version="1.0" encoding="UTF-8"?>
<!-- Copyright (C) 2009 Ulrich Apel.
This work is distributed under the conditions of the Creative Commons
Attribution-Share Alike 3.0 Licence. This means you are free:
* to Share - to copy, distribute and transmit the work
* to Remix - to adapt the work

Under the following conditions:
* Attribution. You must attribute the work by stating your use of KanjiVG in
  your own copyright header and linking to KanjiVG's website
  (http://kanjivg.tagaini.net)
* Share Alike. If you alter, transform, or build upon this work, you may
  distribute the resulting work only under the same or similar license to this
  one.

See http://creativecommons.org/licenses/by-sa/3.0/ for more details. -->
<!DOCTYPE svg PUBLIC "-//W3C//DTD SVG 1.0//EN" "http://www.w3.org/TR/2001/REC-SVG-20010904/DTD/svg10.dtd">
<svg xmlns="http://www.w3.org/2000/svg" width="109" height="109" viewBox="0 0 109 109">
	<g id="HelperGrid" style="opacity:0.75;">
		<rect x="0.5" y="0.5" style="fill:none;stroke:#404040;" width="108" height="108"/> 
		<line style="fill:none;stroke:#404040;" x1="0.5" y1="72.51" x2="108.5" y2="72.51"/>
		<line style="fill:none;stroke:#404040;" x1="0.5" y1="36.49" x2="108.5" y2="36.49"/>
		<line style="fill:none;stroke:#404040;" x1="72.5" y1="0.5" x2="72.5" y2="108.5"/>
		<line style="fill:none;stroke:#404040;" x1="36.5" y1="0.5" x2="36.5" y2="108.5"/>
	</g>
	<g id="Kanji">
		<text transform="matrix(1 0 0 1 0.5 93.3799)" style="font-size:108;">煉</text>
	</g>
	<g id="StrokeNumbers" style="font-size:8;fill:#808080">
		<text transform="matrix(1 0 0 1 4.5 38.5)">1</text>
		<text transform="matrix(1 0 0 1 32.5 28.5)">2</text>
		<text transform="matrix(1 0 0 1 15.5 17.5)">3</text>
		<text transform="matrix(1 0 0 1 29.5 68.5)">4</text>
		<text transform="matrix(1 0 0 1 44.5 23.5)">5</text>
		<text transform="matrix(1 0 0 1 39.5 47.5)">6</text>
		<text transform="matrix(1 0 0 1 47.5 36.5)">7</text>
		<text transform="matrix(1 0 0 1 52.5 47.5)">8</text>
		<text transform="matrix(1 0 0 1 53.5 58.5)">9</text>
		<text transform="matrix(1 0 0 1 51.5 12.5)">10</text>
		<text transform="matrix(1 0 0 1 46.5 73.5)">11</text>
		<text transform="matrix(1 0 0 1 77.5 70.3047)">12</text>
	</g>
	<g id="StrokePaths" style="fill:none;stroke:#404040;stroke-width:3;stroke-linecap:round;stroke-linejoin:round;">
		<path d="M11.24,39.25c1.78,3.31,4.36,12.69,4.84,16"/>
		<path d="M38,32c0.78,0.78,0.64,2.31-0.06,3.52C37.24,36.73,31,45.68,27.48,48.5"/>
		<path d="M23.61,17.25c0.59,0.76,1.13,1.77,1.17,3.03C26.5,68.25,23.75,83,10,94.75"/>
		<path d="M24.75,67.5c5.34,2.64,12.09,11.01,13.5,14.75"/>
		<path d="M46.21,26.17c0.82,0.38,2.32,0.42,3.15,0.38c8.55-0.44,24.39-3.05,35.19-3.38c1.37-0.04,2.19,0.18,2.88,0.37"/>
		<path d="M44.91,38.39c0.34,0.36,1.38,1.47,1.38,2.34c0,0.86,3.29,21.79,3.29,22.22c0,0.43,0.15,0.43,0.29,1.3"/>
		<path d="M47.03,39.39c6.47-0.64,36.17-4.02,38.43-4.15c1.89-0.11,3.05,2.63,2.96,3.28c-0.92,6.98-1.67,12.23-3.62,22.74"/>
		<path d="M48.57,50.34c6.36-0.71,34.58-3.45,38.39-3.45"/>
		<path d="M50.89,61.82c6.86-0.46,24.78-2.15,33.32-2.55"/>
		<path d="M64.44,11.75c1.09,0.5,1.75,2.25,1.97,3.25s0,76.75-0.22,83"/>
		<path d="M64.69,61.75c-4.65,9.9-16.76,23.9-26.44,29.5"/>
		<path d="M66.69,60.75c6.94,9.5,21.37,23.87,26.07,26.73c1.61,0.98,2.76,1.9,4.24,2.27"/>
	</g>
</svg>
