<?xml version="1.0" encoding="UTF-8"?>
<!-- Copyright (C) 2009 Ulrich Apel.
This work is distributed under the conditions of the Creative Commons
Attribution-Share Alike 3.0 Licence. This means you are free:
* to Share - to copy, distribute and transmit the work
* to Remix - to adapt the work

Under the following conditions:
* Attribution. You must attribute the work by stating your use of KanjiVG in
  your own copyright header and linking to KanjiVG's website
  (http://kanjivg.tagaini.net)
* Share Alike. If you alter, transform, or build upon this work, you may
  distribute the resulting work only under the same or similar license to this
  one.

See http://creativecommons.org/licenses/by-sa/3.0/ for more details. -->
<!DOCTYPE svg PUBLIC "-//W3C//DTD SVG 1.0//EN" "http://www.w3.org/TR/2001/REC-SVG-20010904/DTD/svg10.dtd">
<svg xmlns="http://www.w3.org/2000/svg" width="109" height="109" viewBox="0 0 109 109">
	<g id="HelperGrid" style="opacity:0.75;">
		<rect x="0.5" y="0.5" style="fill:none;stroke:#404040;" width="108" height="108"/> 
		<line style="fill:none;stroke:#404040;" x1="0.5" y1="72.51" x2="108.5" y2="72.51"/>
		<line style="fill:none;stroke:#404040;" x1="0.5" y1="36.49" x2="108.5" y2="36.49"/>
		<line style="fill:none;stroke:#404040;" x1="72.5" y1="0.5" x2="72.5" y2="108.5"/>
		<line style="fill:none;stroke:#404040;" x1="36.5" y1="0.5" x2="36.5" y2="108.5"/>
	</g>
	<g id="Kanji">
		<text transform="matrix(1 0 0 1 0.5 93.3799)" style="font-size:108;">照</text>
	</g>
	<g id="StrokeNumbers" style="font-size:8;fill:#808080">
		<text transform="matrix(1 0 0 1 15.5 30.5)">1</text>
		<text transform="matrix(1 0 0 1 24.75 19.6299)">2</text>
		<text transform="matrix(1 0 0 1 26.5 38.5)">3</text>
		<text transform="matrix(1 0 0 1 26.5 58.4053)">4</text>
		<text transform="matrix(1 0 0 1 53.5 15.5)">5</text>
		<text transform="matrix(1 0 0 1 58.5 29.5)">6</text>
		<text transform="matrix(1 0 0 1 48.4922 58.5)">7</text>
		<text transform="matrix(1 0 0 1 60.5 47.5)">8</text>
		<text transform="matrix(1 0 0 1 62.25 63.1299)">9</text>
		<text transform="matrix(1 0 0 1 11.5 78.1299)">10</text>
		<text transform="matrix(1 0 0 1 31.5 78.8809)">11</text>
		<text transform="matrix(1 0 0 1 52.5 79.6299)">12</text>
		<text transform="matrix(1 0 0 1 74.5 78.7295)">13</text>
	</g>
	<g id="StrokePaths" style="fill:none;stroke:#404040;stroke-width:3;stroke-linecap:round;stroke-linejoin:round;">
		<path d="M21.5,22.08c0.5,1.17,0.7,2.91,0.7,4.2c0,1.29-0.23,35.43-0.23,36.07c0,0.64,0.12,1.64,0.23,2.92"/>
		<path d="M22.77,23.66c1.96-0.27,16.87-3.04,18.66-3.34c1.49-0.25,2.45,1.64,2.33,2.6c-0.23,1.95-0.35,22.23-0.34,36.4c0,1.46-0.12,3.1-0.12,4.07"/>
		<path d="M23.12,42.32c3.19-0.19,6.4-0.87,9.56-1.36c1.03-0.16,2.07-0.32,3.07-0.47"/>
		<path d="M22.77,62.46c3.92-0.23,14.42-2.12,19.49-2.42"/>
		<path d="M53.01,18.89c0.67,0.33,2.71,0.6,3.76,0.51c8.56-0.77,22.45-3.15,27.2-3.44c3.09-0.19,4.35,0.91,4.29,2.21c-0.21,4.28-4.16,14.94-7.26,20.85c-2.75,5.24-7.55,0.01-8.23-0.64"/>
		<path d="M68.5,20.85c0.05,0.55,0.14,1.44-0.1,2.23c-2.43,8.02-6.79,14.75-16.52,22.71"/>
		<path d="M54.6,49.68c0.32,0.28,0.69,1,0.78,1.37c0.86,3.45,1.85,13.67,2.6,18.7"/>
		<path d="M56.59,51c7.35-0.92,20.41-2.57,26.33-2.94c1.96-0.12,3.87,1.18,3.68,3.02c-0.35,3.42-3.02,8.87-4.22,13.39"/>
		<path d="M58.14,66.79c4.38-0.42,17.16-1.63,25.6-1.91"/>
		<path d="M21.56,76.25c0,5.97-8.18,14.79-10.31,16.5"/>
		<path d="M39.6,77.08c2.83,2.95,5.52,11.05,6.23,15.63"/>
		<path d="M63.25,76.33c2.69,2.67,6.96,10.98,7.63,15.13"/>
		<path d="M85.1,75.83c3.87,2.93,9.4,10.67,10.96,15.63"/>
	</g>
</svg>
