<?xml version="1.0" encoding="UTF-8"?>
<!-- Copyright (C) 2009 Ulrich Apel.
This work is distributed under the conditions of the Creative Commons
Attribution-Share Alike 3.0 Licence. This means you are free:
* to Share - to copy, distribute and transmit the work
* to Remix - to adapt the work

Under the following conditions:
* Attribution. You must attribute the work by stating your use of KanjiVG in
  your own copyright header and linking to KanjiVG's website
  (http://kanjivg.tagaini.net)
* Share Alike. If you alter, transform, or build upon this work, you may
  distribute the resulting work only under the same or similar license to this
  one.

See http://creativecommons.org/licenses/by-sa/3.0/ for more details. -->
<!DOCTYPE svg PUBLIC "-//W3C//DTD SVG 1.0//EN" "http://www.w3.org/TR/2001/REC-SVG-20010904/DTD/svg10.dtd">
<svg xmlns="http://www.w3.org/2000/svg" width="109" height="109" viewBox="0 0 109 109">
	<g id="HelperGrid" style="opacity:0.75;">
		<rect x="0.5" y="0.5" style="fill:none;stroke:#404040;" width="108" height="108"/> 
		<line style="fill:none;stroke:#404040;" x1="0.5" y1="72.51" x2="108.5" y2="72.51"/>
		<line style="fill:none;stroke:#404040;" x1="0.5" y1="36.49" x2="108.5" y2="36.49"/>
		<line style="fill:none;stroke:#404040;" x1="72.5" y1="0.5" x2="72.5" y2="108.5"/>
		<line style="fill:none;stroke:#404040;" x1="36.5" y1="0.5" x2="36.5" y2="108.5"/>
	</g>
	<g id="Kanji">
		<text transform="matrix(1 0 0 1 0.5 93.3799)" style="font-size:108;">熈</text>
	</g>
	<g id="StrokeNumbers" style="font-size:8;fill:#808080">
		<text transform="matrix(1 0 0 1 16.5 16.6299)">1</text>
		<text transform="matrix(1 0 0 1 30.5 23.5)">2</text>
		<text transform="matrix(1 0 0 1 40.5 13.5)">3</text>
		<text transform="matrix(1 0 0 1 52.5 24.5)">4</text>
		<text transform="matrix(1 0 0 1 40.5 28.5)">5</text>
		<text transform="matrix(1 0 0 1 40.5 43.5)">6</text>
		<text transform="matrix(1 0 0 1 52.5 54.5)">7</text>
		<text transform="matrix(1 0 0 1 40.5 59.5)">8</text>
		<text transform="matrix(1 0 0 1 69.5 12.5)">9</text>
		<text transform="matrix(1 0 0 1 73.5 33.5)">10</text>
		<text transform="matrix(1 0 0 1 59.5 24.5)">11</text>
		<text transform="matrix(1 0 0 1 13.5 76.5)">12</text>
		<text transform="matrix(1 0 0 1 28.5 78.5)">13</text>
		<text transform="matrix(1 0 0 1 50.25 77.5)">14</text>
		<text transform="matrix(1 0 0 1 69.5 75.5)">15</text>
	</g>
	<g id="StrokePaths" style="fill:none;stroke:#404040;stroke-width:3;stroke-linecap:round;stroke-linejoin:round;">
		<path d="M24.23,15.75c0.48,1.43,1.16,2.55,1.16,4.33c0,16.28-1.89,35.92-14.34,47.64"/>
		<path d="M35.37,14.75c1.09,0.5,1.74,2.25,1.96,3.25c0.22,1,0,41.25-0.22,47.5"/>
		<path d="M37.25,16.5c0.63,0.29,1.78,0.32,2.41,0.29C44.5,16.5,53,16,59.05,15.37c1.04-0.11,2.18,0.14,2.7,0.28"/>
		<path d="M48.35,17.25c0.58,0.27,0.93,1.2,1.04,1.73c0.12,0.53,0,8.45-0.12,11.77"/>
		<path d="M37.91,32.16c7.59-0.66,16.2-1.52,20.26-1.94c1.48-0.15,2.37,0.91,2.16,1.81c-0.88,3.74-1.4,7.25-2.71,12.42"/>
		<path d="M37.72,46.95c4.76-0.48,15.33-1.3,21.87-2.03"/>
		<path d="M48.35,47.25c0.58,0.27,0.93,1.2,1.04,1.73c0.12,0.53,0,8.95-0.12,12.27"/>
		<path d="M37.25,63c0.63,0.29,1.78,0.32,2.41,0.29C44.5,63,54.5,62,60.55,61.37c1.04-0.11,2.18,0.14,2.7,0.28"/>
		<path d="M67,14.99c1.19,0.89,2.21,0.89,3.95,0.6c3.54-0.6,15.24-1.5,16.32-1.61c1.43-0.15,3.05,0.48,2.54,2.79c-0.15,0.69-2.11,11.86-3.11,18.46"/>
		<path d="M70.25,36.68c2.75,0,13.86-1.03,19.21-1.33"/>
		<path d="M69.36,16.3c-0.02,4.9,0.09,30.21,0.09,34.65C69.45,61,71,62,82.69,62c12.06,0,12.88-2,12.88-8.22"/>
		<path d="M22.5,76.75c0,6.43-6.74,15.91-8.5,17.75"/>
		<path d="M38.67,75.62c2.59,3.44,4.53,12.85,4.8,18.16"/>
		<path d="M60.52,75.01c2.94,3.32,7.1,13.59,7.41,18.71"/>
		<path d="M80.52,72.76c4.89,3.77,12.04,15.42,12.76,21.21"/>
	</g>
</svg>
