<?xml version="1.0" encoding="UTF-8"?>
<!DOCTYPE svg PUBLIC "-//W3C//DTD SVG 1.0//EN" "http://www.w3.org/TR/2001/REC-SVG-20010904/DTD/svg10.dtd">
<svg xmlns="http://www.w3.org/2000/svg" width="109" height="109" viewBox="0 0 109 109">
	<g id="HelperGrid" style="opacity:0.75;">
		<rect x="0.5" y="0.5" style="fill:none;stroke:#404040;" width="108" height="108"/> 
		<line style="fill:none;stroke:#404040;" x1="0.5" y1="72.51" x2="108.5" y2="72.51"/>
		<line style="fill:none;stroke:#404040;" x1="0.5" y1="36.49" x2="108.5" y2="36.49"/>
		<line style="fill:none;stroke:#404040;" x1="72.5" y1="0.5" x2="72.5" y2="108.5"/>
		<line style="fill:none;stroke:#404040;" x1="36.5" y1="0.5" x2="36.5" y2="108.5"/>
	</g>
	<g id="Kanji">
		<text transform="matrix(1 0 0 1 0.5 93.3799)" style="font-size:108;">熙</text>
	</g>
	<g id="StrokeNumbers" style="font-size:8;fill:#808080">
		<text transform="matrix(1 0 0 1 12.25 23.25)">1</text>
		<text transform="matrix(1 0 0 1 23.25 13.25)">2</text>
		<text transform="matrix(1 0 0 1 41.25 23.229)">3</text>
		<text transform="matrix(1 0 0 1 23.25 43.25)">4</text>
		<text transform="matrix(1 0 0 1 30 28.0791)">5</text>
		<text transform="matrix(1 0 0 1 34.25 42.25)">6</text>
		<text transform="matrix(1 0 0 1 33 53.9297)">7</text>
		<text transform="matrix(1 0 0 1 24.25 59.25)">8</text>
		<text transform="matrix(1 0 0 1 63.25 13.25)">9</text>
		<text transform="matrix(1 0 0 1 67 33.25)">10</text>
		<text transform="matrix(1 0 0 1 52.25 23.6299)">11</text>
		<text transform="matrix(1 0 0 1 14.25 77.25)">12</text>
		<text transform="matrix(1 0 0 1 30.25 76.25)">13</text>
		<text transform="matrix(1 0 0 1 50.25 76.25)">14</text>
		<text transform="matrix(1 0 0 1 69.25 75.25)">15</text>
	</g>
	<g id="StrokePaths" style="fill:none;stroke:#404040;stroke-width:3;stroke-linecap:round;stroke-linejoin:round;">
		<path d="M18.62,14.5c1.06,1.06,1.21,2.38,1.21,3.75c0,0.85,0.02,28.59,0.03,41.88c0,2.63,0,4.7,0,5.88"/>
		<path d="M20.41,16.54c4.23-0.25,19.13-1.81,26.61-2.62c1.84-0.2,3.66-0.51,5.48-0.02"/>
		<path d="M37.85,16.5c0.7,0.7,0.78,1.5,0.78,2.75c0,2.65,0,6.88,0,10"/>
		<path d="M26.88,29.86c0.73,0.71,1.12,1.58,1.18,2.62c0.5,3.19,1.28,7.44,1.9,11.35c0.23,1.46,0.44,2.88,0.6,4.17"/>
		<path d="M28.66,31.41c7.04-1.01,14.1-1.98,18.48-2.49c2.49-0.29,4.38,0.08,3.66,3c-0.82,3.34-1.27,6.15-2.44,10.79"/>
		<path d="M31.47,45.7c3.84-0.38,9.82-0.99,15.42-1.59c1.35-0.15,2.68-0.29,3.95-0.43"/>
		<path d="M39.35,46.5c0.7,0.7,0.79,1.5,0.79,2.48c0,0.54-0.02,7.27-0.02,10.77"/>
		<path d="M21.16,62.54c4.09-0.24,19.15-1.71,27.21-2.54c2.11-0.22,4.53-0.42,6.62,0.15"/>
		<path d="M59.25,15.24c1.88,0.76,3.2,0.82,4.95,0.6c5.42-0.69,15.56-1.95,19.69-2.43c2.91-0.34,4.51,1.16,4.1,4.34c-0.28,2.17-1.64,9.8-2.54,15.73"/>
		<path d="M63.25,37.17c2.86-0.34,12.1-1.56,20.28-2.48c1.86-0.21,3.62-0.4,5.18-0.56"/>
		<path d="M61.11,16.3c0.98,0.98,1.25,1.97,1.25,3.7c0.01,8.27-0.12,23.33-0.11,27C62.29,59.57,63,61,78.94,61c13.31,0,14.63-1.88,14.63-7.97"/>
		<path d="M22.75,79c0,5.25-5.75,13-7.25,14.5"/>
		<path d="M40.15,77.12c2.34,2.97,4.09,11.08,4.34,15.66"/>
		<path d="M60.02,75.51c2.65,2.87,6.38,11.78,6.66,16.21"/>
		<path d="M80.27,73.01c4.11,4.24,10.17,15.51,10.76,20.96"/>
	</g>
</svg>
