<?xml version="1.0" encoding="UTF-8"?>
<!DOCTYPE svg PUBLIC "-//W3C//DTD SVG 1.0//EN" "http://www.w3.org/TR/2001/REC-SVG-20010904/DTD/svg10.dtd">
<svg xmlns="http://www.w3.org/2000/svg" width="109" height="109" viewBox="0 0 109 109">
	<g id="HelperGrid" style="opacity:0.75;">
		<rect x="0.5" y="0.5" style="fill:none;stroke:#404040;" width="108" height="108"/> 
		<line style="fill:none;stroke:#404040;" x1="0.5" y1="72.51" x2="108.5" y2="72.51"/>
		<line style="fill:none;stroke:#404040;" x1="0.5" y1="36.49" x2="108.5" y2="36.49"/>
		<line style="fill:none;stroke:#404040;" x1="72.5" y1="0.5" x2="72.5" y2="108.5"/>
		<line style="fill:none;stroke:#404040;" x1="36.5" y1="0.5" x2="36.5" y2="108.5"/>
	</g>
	<g id="Kanji">
		<text transform="matrix(1 0 0 1 0.5 93.3799)" style="font-size:108;">牙</text>
	</g>
	<g id="StrokeNumbers" style="font-size:8;fill:#808080">
		<text transform="matrix(1 0 0 1 31.5 17.5)">1</text>
		<text transform="matrix(1 0 0 1 19.5 32.5)">2</text>
		<text transform="matrix(1 0 0 1 57.5 29.75)">3</text>
		<text transform="matrix(1 0 0 1 46.75 59.75)">4</text>
	</g>
	<g id="StrokePaths" style="fill:none;stroke:#404040;stroke-width:3;stroke-linecap:round;stroke-linejoin:round;">
		<path d="M28.22,20.44c1.14,0.49,3.22,0.54,4.36,0.49c8.67-0.42,39.39-3.43,50.76-3.74c1.9-0.05,3.03,0.23,3.98,0.48"/>
		<path d="M26.52,32.26c0,0.65,0.15,1.63-0.52,3.24c-2,4.75-4.75,11.5-6.5,14.75c-1.07,1.99-1.62,5.09,1.51,2.88c5.49-3.88,60.75-6.74,70.08-6.74c1.9,0,3.03,0.23,3.98,0.47"/>
		<path d="M65.67,20.38c0.09,0.63,1.31,3.26,1.4,7.24c0.45,19.09-0.29,54.63-0.29,61.13c0,13-8.05,1.97-9.72,0.33"/>
		<path d="M65.22,48.23c-0.32,0.82-1.27,2.24-1.86,3.23C57.44,61.49,38.72,78.74,13.25,90"/>
	</g>
</svg>
