<?xml version="1.0" encoding="UTF-8"?>
<!DOCTYPE svg PUBLIC "-//W3C//DTD SVG 1.0//EN" "http://www.w3.org/TR/2001/REC-SVG-20010904/DTD/svg10.dtd">
<svg xmlns="http://www.w3.org/2000/svg" width="109" height="109" viewBox="0 0 109 109">
	<g id="HelperGrid" style="opacity:0.75;">
		<rect x="0.5" y="0.5" style="fill:none;stroke:#404040;" width="108" height="108"/> 
		<line style="fill:none;stroke:#404040;" x1="0.5" y1="72.51" x2="108.5" y2="72.51"/>
		<line style="fill:none;stroke:#404040;" x1="0.5" y1="36.49" x2="108.5" y2="36.49"/>
		<line style="fill:none;stroke:#404040;" x1="72.5" y1="0.5" x2="72.5" y2="108.5"/>
		<line style="fill:none;stroke:#404040;" x1="36.5" y1="0.5" x2="36.5" y2="108.5"/>
	</g>
	<g id="Kanji">
		<text transform="matrix(1 0 0 1 0.5 93.3799)" style="font-size:108;">犁</text>
	</g>
	<g id="StrokeNumbers" style="font-size:8;fill:#808080">
		<text transform="matrix(1 0 0 1 35.5 10.5)">1</text>
		<text transform="matrix(1 0 0 1 7.5 33.5547)">2</text>
		<text transform="matrix(1 0 0 1 29.25 27.5)">3</text>
		<text transform="matrix(1 0 0 1 20.5 42.5)">4</text>
		<text transform="matrix(1 0 0 1 44.5 37.5)">5</text>
		<text transform="matrix(1 0 0 1 56.5 16.5)">6</text>
		<text transform="matrix(1 0 0 1 75.5 12.1797)">7</text>
		<text transform="matrix(1 0 0 1 31.5 63.5)">8</text>
		<text transform="matrix(1 0 0 1 46.25 61.0293)">9</text>
		<text transform="matrix(1 0 0 1 6.25 81.9541)">10</text>
		<text transform="matrix(1 0 0 1 50.25 46.8799)">11</text>
	</g>
	<g id="StrokePaths" style="fill:none;stroke:#404040;stroke-width:3;stroke-linecap:round;stroke-linejoin:round;">
		<path d="M43.78,10.95c0.06,0.26,0.13,0.66-0.13,1.02c-1.53,2.16-10.3,6.91-22.31,9.81"/>
		<path d="M15.05,31.91c0.56,0.24,2.08,0.84,3.58,0.71c9.37-0.86,18.61-2.32,28.97-3.5c1.5-0.17,1.88-0.23,2.83,0"/>
		<path d="M34.39,20.35c0.81,0.33,1.45,2.5,1.45,3.16c0,3.88-0.16,27.56-0.16,26.68c0,9.82-3.81,2.19-4.68,1.32"/>
		<path d="M34.3,31.41c-3.9,6.7-10.05,15.09-19.24,20.45"/>
		<path d="M37.5,36.25c4,1.83,7.39,5.48,9.55,7.82"/>
		<path d="M64.38,18.33c0.89,0.62,1.52,1.35,1.59,3.4c0.37,9.86-0.02,21.94-0.02,25.3"/>
		<path d="M84.26,11.5c0.89,0.62,1.59,1.34,1.59,3.4c0,15.6-0.23,32.69-0.23,36.04c0,10.81-6.09,1.02-7.45,0.17"/>
		<path d="M42.83,53.77c0.04,0.48,0.24,1.29-0.08,1.91C40,61,35.5,68.25,29.12,73.94"/>
		<path d="M40.04,64.96c0.72,0.29,2.04,0.36,2.77,0.29c8.85-0.81,24.61-2.38,32.55-3.41c1.19-0.15,1.92,0.14,2.53,0.29"/>
		<path d="M17.05,80.34c1.5,0.53,4.24,0.62,5.74,0.53c15.58-0.89,44.46-2.87,67.17-3.42c2.49-0.06,3.99,0.25,5.24,0.52"/>
		<path d="M54.7,49.38c0.58,0.34,1.82,2.58,1.93,3.27c0.12,0.69-0.08,44.8-0.19,49.1"/>
	</g>
</svg>
