<?xml version="1.0" encoding="UTF-8"?>
<!-- Copyright (C) 2009 Ulrich Apel.
This work is distributed under the conditions of the Creative Commons
Attribution-Share Alike 3.0 Licence. This means you are free:
* to Share - to copy, distribute and transmit the work
* to Remix - to adapt the work

Under the following conditions:
* Attribution. You must attribute the work by stating your use of KanjiVG in
  your own copyright header and linking to KanjiVG's website
  (http://kanjivg.tagaini.net)
* Share Alike. If you alter, transform, or build upon this work, you may
  distribute the resulting work only under the same or similar license to this
  one.

See http://creativecommons.org/licenses/by-sa/3.0/ for more details. -->
<!DOCTYPE svg PUBLIC "-//W3C//DTD SVG 1.0//EN" "http://www.w3.org/TR/2001/REC-SVG-20010904/DTD/svg10.dtd">
<svg xmlns="http://www.w3.org/2000/svg" width="109" height="109" viewBox="0 0 109 109">
	<g id="HelperGrid" style="opacity:0.75;">
		<rect x="0.5" y="0.5" style="fill:none;stroke:#404040;" width="108" height="108"/> 
		<line style="fill:none;stroke:#404040;" x1="0.5" y1="72.51" x2="108.5" y2="72.51"/>
		<line style="fill:none;stroke:#404040;" x1="0.5" y1="36.49" x2="108.5" y2="36.49"/>
		<line style="fill:none;stroke:#404040;" x1="72.5" y1="0.5" x2="72.5" y2="108.5"/>
		<line style="fill:none;stroke:#404040;" x1="36.5" y1="0.5" x2="36.5" y2="108.5"/>
	</g>
	<g id="Kanji">
		<text transform="matrix(1 0 0 1 0.5 93.3799)" style="font-size:108;">狂</text>
	</g>
	<g id="StrokeNumbers" style="font-size:8;fill:#808080">
		<text transform="matrix(1 0 0 1 31.5 17.5)">1</text>
		<text transform="matrix(1 0 0 1 11.5 21.0547)">2</text>
		<text transform="matrix(1 0 0 1 23.25 46.6299)">3</text>
		<text transform="matrix(1 0 0 1 47.5 23.5)">4</text>
		<text transform="matrix(1 0 0 1 42.5 55.5)">5</text>
		<text transform="matrix(1 0 0 1 42.5 82.5)">6</text>
		<text transform="matrix(1 0 0 1 59.5 37.6299)">7</text>
	</g>
	<g id="StrokePaths" style="fill:none;stroke:#404040;stroke-width:3;stroke-linecap:round;stroke-linejoin:round;">
		<path d="M38.8,18c0.07,0.59,0.31,1.73-0.14,2.37C33,28.5,27.25,34.25,13.5,43.04"/>
		<path d="M19,20c23.5,19.75,18.75,79,8,67"/>
		<path d="M30.83,43.5c0.05,0.64,0.22,1.89-0.1,2.58c-4.1,8.86-8.27,15.13-18.23,24.71"/>
		<path d="M48.4,26.88c0.76,0.45,3.25,0.16,4.02,0.03c3.59-0.61,24.75-3.24,33.4-3.7c1.18-0.06,2.25,0.09,3.22,0.47"/>
		<path d="M49.46,55.03c0.71,0.49,3.05,0.3,3.78,0.22c7.55-0.86,20.96-2.59,29.83-3.47c0.89-0.09,2.83-0.2,4.16,0.23"/>
		<path d="M42,86.02c1.75,0.48,3.98,0.53,5.08,0.5c11.42-0.27,27.16-2.81,43.44-3.49c1.75-0.07,3.85,0.46,4.73,0.89"/>
		<path d="M66.4,28c1.92,2.4,1.92,3.83,1.92,5.75c0,13.41-0.02,29.25-0.02,50.75"/>
	</g>
</svg>
