<?xml version="1.0" encoding="UTF-8"?>
<!DOCTYPE svg PUBLIC "-//W3C//DTD SVG 1.0//EN" "http://www.w3.org/TR/2001/REC-SVG-20010904/DTD/svg10.dtd">
<svg xmlns="http://www.w3.org/2000/svg" width="109" height="109" viewBox="0 0 109 109">
	<g id="HelperGrid" style="opacity:0.75;">
		<rect x="0.5" y="0.5" style="fill:none;stroke:#404040;" width="108" height="108"/> 
		<line style="fill:none;stroke:#404040;" x1="0.5" y1="72.51" x2="108.5" y2="72.51"/>
		<line style="fill:none;stroke:#404040;" x1="0.5" y1="36.49" x2="108.5" y2="36.49"/>
		<line style="fill:none;stroke:#404040;" x1="72.5" y1="0.5" x2="72.5" y2="108.5"/>
		<line style="fill:none;stroke:#404040;" x1="36.5" y1="0.5" x2="36.5" y2="108.5"/>
	</g>
	<g id="Kanji">
		<text transform="matrix(1 0 0 1 0.5 93.3799)" style="font-size:108;">猖</text>
	</g>
	<g id="StrokeNumbers" style="font-size:8;fill:#808080">
		<text transform="matrix(1 0 0 1 30.5 15.5)">1</text>
		<text transform="matrix(1 0 0 1 10.5 18.5)">2</text>
		<text transform="matrix(1 0 0 1 23.5 44.5)">3</text>
		<text transform="matrix(1 0 0 1 43.5 27.5)">4</text>
		<text transform="matrix(1 0 0 1 53.5 18.3291)">5</text>
		<text transform="matrix(1 0 0 1 56.5 30.5)">6</text>
		<text transform="matrix(1 0 0 1 58.5 43.5)">7</text>
		<text transform="matrix(1 0 0 1 41.5 67.5)">8</text>
		<text transform="matrix(1 0 0 1 52.5 58.5)">9</text>
		<text transform="matrix(1 0 0 1 54.5 71.5)">10</text>
		<text transform="matrix(1 0 0 1 56.5 87.5)">11</text>
	</g>
	<g id="StrokePaths" style="fill:none;stroke:#404040;stroke-width:3;stroke-linecap:round;stroke-linejoin:round;">
		<path d="M38.04,16.25c0.07,0.61,0.33,1.8-0.15,2.46C31.84,27.17,25.7,33.15,11,42.29"/>
		<path d="M18,18.75c30.25,24.25,17.96,84.03,6.25,71"/>
		<path d="M31.33,43c0.05,0.69,0.24,2.02-0.11,2.77c-4.38,9.51-8.83,16.24-19.47,26.52"/>
		<path d="M49.77,21.13c0.39,0.64,1.28,1.88,1.28,2.73c0,0.85,3.37,23.79,3.5,24.64"/>
		<path d="M51.69,22.16c2.2-0.11,34.41-3.04,36.42-3.17c1.67-0.11,3.39,1.62,3.11,3.19C90.24,27.8,90,35.82,86.84,46.22"/>
		<path d="M53.08,34.15c6.3-0.53,12.6-0.97,18.91-1.44c1.87-0.14,3.72-0.28,5.48-0.41"/>
		<path d="M54.44,46.11c6.06-0.46,25.31-1.68,32.85-2.07"/>
		<path d="M48.52,60.41c0.52,0.75,0.92,1.61,1.05,2.63c0.3,2.42,3.8,28.57,3.8,29.08c0,0.51,0.17,1.96,0.35,2.98"/>
		<path d="M50.44,61.44c2.95-0.22,38.29-3.86,40.98-4.1c2.24-0.2,3.59,1.41,3.59,3.79c0,6.11-3.87,23.12-5.28,30.85"/>
		<path d="M51.91,75.8c7.26-0.83,14.55-1.46,21.83-2.11c2.14-0.19,4.24-0.37,6.24-0.54"/>
		<path d="M54,90.76c8.14-0.82,26.17-1.89,36.31-2.7"/>
	</g>
</svg>
