<?xml version="1.0" encoding="UTF-8"?>
<!DOCTYPE svg PUBLIC "-//W3C//DTD SVG 1.0//EN" "http://www.w3.org/TR/2001/REC-SVG-20010904/DTD/svg10.dtd">
<svg xmlns="http://www.w3.org/2000/svg" width="109" height="109" viewBox="0 0 109 109">
	<g id="HelperGrid" style="opacity:0.75;">
		<rect x="0.5" y="0.5" style="fill:none;stroke:#404040;" width="108" height="108"/> 
		<line style="fill:none;stroke:#404040;" x1="0.5" y1="72.51" x2="108.5" y2="72.51"/>
		<line style="fill:none;stroke:#404040;" x1="0.5" y1="36.49" x2="108.5" y2="36.49"/>
		<line style="fill:none;stroke:#404040;" x1="72.5" y1="0.5" x2="72.5" y2="108.5"/>
		<line style="fill:none;stroke:#404040;" x1="36.5" y1="0.5" x2="36.5" y2="108.5"/>
	</g>
	<g id="Kanji">
		<text transform="matrix(1 0 0 1 0.5 93.3799)" style="font-size:108;">猯</text>
	</g>
	<g id="StrokeNumbers" style="font-size:8;fill:#808080">
		<text transform="matrix(1 0 0 1 30.5 15.1299)">1</text>
		<text transform="matrix(1 0 0 1 11.25 18.0547)">2</text>
		<text transform="matrix(1 0 0 1 23.5 44.5)">3</text>
		<text transform="matrix(1 0 0 1 59.5 10.5)">4</text>
		<text transform="matrix(1 0 0 1 45.5 17.5)">5</text>
		<text transform="matrix(1 0 0 1 85.5 14.5)">6</text>
		<text transform="matrix(1 0 0 1 40 45.5)">7</text>
		<text transform="matrix(1 0 0 1 56.5 54.5)">8</text>
		<text transform="matrix(1 0 0 1 40.5 66.5)">9</text>
		<text transform="matrix(1 0 0 1 47 57.5)">10</text>
		<text transform="matrix(1 0 0 1 54.5 68.5)">11</text>
		<text transform="matrix(1 0 0 1 65.75 67.5)">12</text>
	</g>
	<g id="StrokePaths" style="fill:none;stroke:#404040;stroke-width:3;stroke-linecap:round;stroke-linejoin:round;">
		<path d="M38.04,16.25c0.07,0.6,0.32,1.75-0.14,2.39c-5.83,8.21-11.75,14.02-25.9,22.9"/>
		<path d="M17.75,19.25c30.62,22.86,18.92,82.72,6.23,70.05"/>
		<path d="M30.83,44c0.05,0.66,0.22,1.94-0.1,2.65c-4.1,9.11-8.27,15.54-18.23,25.39"/>
		<path d="M67.29,13c1.35,1.35,2.03,2,2.03,3.43c0,6.07-0.08,12.75-0.2,17.28"/>
		<path d="M49.75,20.61c0.61,0.44,1.31,2.31,1.22,3.19c-0.4,3.93-1.97,7.43-2.52,11.16c-0.29,2,0.69,2.16,2.21,1.86c6.84-1.33,30.75-4.55,38.42-4.79"/>
		<path d="M89.28,17.96c0.62,0.36,1.32,2.71,1.22,3.43c-0.61,4.44-1.01,9.1-1.72,13.35"/>
		<path d="M43.79,46.84c1.56,0.35,4.43,0.46,5.99,0.35c12.71-0.93,26.46-2.43,41.53-2.99c2.6-0.1,4.17,0.17,5.47,0.34"/>
		<path d="M65.47,48.56c0.02,0.22,0.03,0.56-0.03,0.87c-0.39,1.84-2.59,5.89-5.61,8.36"/>
		<path d="M47.56,59.82c0.58,0.94,0.64,2.43,0.78,4.13c0.19,2.44-0.23,29.06-0.23,31.87"/>
		<path d="M48.41,61.25c11.59-2,39.73-3.92,40.83-4.13c2.62-0.51,4.26,1.02,4.26,3.05c0,6.84,0,22.34-0.65,29.29c-0.71,7.6-4.77,3.22-6.74,1.02"/>
		<path d="M62.26,61.43c0.65,0.62,1.15,1.35,1.15,3.4c0,10.48-0.2,18.17-0.2,27.63"/>
		<path d="M74.64,60.72c0.65,0.62,1.15,1.35,1.15,3.4c0,11.63-0.33,21.13-0.33,27.68"/>
	</g>
</svg>
