<?xml version="1.0" encoding="UTF-8"?>
<!DOCTYPE svg PUBLIC "-//W3C//DTD SVG 1.0//EN" "http://www.w3.org/TR/2001/REC-SVG-20010904/DTD/svg10.dtd">
<svg xmlns="http://www.w3.org/2000/svg" width="109" height="109" viewBox="0 0 109 109">
	<g id="HelperGrid" style="opacity:0.75;">
		<rect x="0.5" y="0.5" style="fill:none;stroke:#404040;" width="108" height="108"/> 
		<line style="fill:none;stroke:#404040;" x1="0.5" y1="72.51" x2="108.5" y2="72.51"/>
		<line style="fill:none;stroke:#404040;" x1="0.5" y1="36.49" x2="108.5" y2="36.49"/>
		<line style="fill:none;stroke:#404040;" x1="72.5" y1="0.5" x2="72.5" y2="108.5"/>
		<line style="fill:none;stroke:#404040;" x1="36.5" y1="0.5" x2="36.5" y2="108.5"/>
	</g>
	<g id="Kanji">
		<text transform="matrix(1 0 0 1 0.5 93.3799)" style="font-size:108;">率</text>
	</g>
	<g id="StrokeNumbers" style="font-size:8;fill:#808080">
		<text transform="matrix(1 0 0 1 44.5 11.5)">1</text>
		<text transform="matrix(1 0 0 1 14.5 25.5)">2</text>
		<text transform="matrix(1 0 0 1 40.5 32.5)">3</text>
		<text transform="matrix(1 0 0 1 54.5 31.5)">4</text>
		<text transform="matrix(1 0 0 1 61.5 44.5)">5</text>
		<text transform="matrix(1 0 0 1 12.75 35.5)">6</text>
		<text transform="matrix(1 0 0 1 9.75 62.5)">7</text>
		<text transform="matrix(1 0 0 1 73.5 29.5)">8</text>
		<text transform="matrix(1 0 0 1 78.75 46.5547)">9</text>
		<text transform="matrix(1 0 0 1 0.75 76.6299)">10</text>
		<text transform="matrix(1 0 0 1 41.25 67.6299)">11</text>
	</g>
	<g id="StrokePaths" style="fill:none;stroke:#404040;stroke-width:3;stroke-linecap:round;stroke-linejoin:round;">
		<path d="M49.91,10.25c1.8,0.97,4.27,3.54,5.76,7.16"/>
		<path d="M22.03,24.72c1.14,0.08,3.74,0.55,4.84,0.44c8.94-0.92,42.12-4.32,54.87-4.96c1.88-0.09,2.83,0.04,4.23,0.56"/>
		<path d="M49.76,26.12c0.28,0.84,0.47,1.51-0.14,2.38c-3.12,4.5-3.12,5.25-7.16,8.94c-0.52,0.47-0.56,1.94,0,2.1c2.94,0.84,5.17,2.74,7.7,4.29"/>
		<path d="M61.28,28.95c0.28,0.42,0.4,1.8,0,2.24C56,37,47.39,47.43,40.66,54.31c-0.91,0.92-0.56,1.4,0.56,1.12c4.69-1.17,14.41-4.15,20.44-5.27"/>
		<path d="M59.85,45.62c2.57,1.7,6.63,7,7.27,9.65"/>
		<path d="M20.6,32.62c3.45,1.39,8.91,5.73,9.77,7.9"/>
		<path d="M17.5,58.66c1.52,1.59,2.79,2.27,4.32,0.91c0.9-0.8,8.12-7.96,11.93-11.82"/>
		<path d="M81.28,27.64c0.03,0.28,0.06,0.73-0.05,1.14c-0.66,2.41-4.46,7.7-9.66,10.93"/>
		<path d="M74.1,46.12c3.89,1.97,10.05,8.09,11.02,11.15"/>
		<path d="M12.88,73.98c1.52,0.54,4.31,0.68,5.82,0.54C38,72.75,77,70,90.31,69.79c2.53-0.04,4.05,0.26,5.31,0.53"/>
		<path d="M51.81,59.88c0.76,0.6,2.51,3.01,2.51,4.23c0,4.39-0.1,27.85-0.25,35.39"/>
	</g>
</svg>
