<?xml version="1.0" encoding="UTF-8"?>
<!DOCTYPE svg PUBLIC "-//W3C//DTD SVG 1.0//EN" "http://www.w3.org/TR/2001/REC-SVG-20010904/DTD/svg10.dtd">
<svg xmlns="http://www.w3.org/2000/svg" width="109" height="109" viewBox="0 0 109 109">
	<g id="HelperGrid" style="opacity:0.75;">
		<rect x="0.5" y="0.5" style="fill:none;stroke:#404040;" width="108" height="108"/> 
		<line style="fill:none;stroke:#404040;" x1="0.5" y1="72.51" x2="108.5" y2="72.51"/>
		<line style="fill:none;stroke:#404040;" x1="0.5" y1="36.49" x2="108.5" y2="36.49"/>
		<line style="fill:none;stroke:#404040;" x1="72.5" y1="0.5" x2="72.5" y2="108.5"/>
		<line style="fill:none;stroke:#404040;" x1="36.5" y1="0.5" x2="36.5" y2="108.5"/>
	</g>
	<g id="Kanji">
		<text transform="matrix(1 0 0 1 0.5 93.3799)" style="font-size:108;">玲</text>
	</g>
	<g id="StrokeNumbers" style="font-size:8;fill:#808080">
		<text transform="matrix(1 0 0 1 3.5977 28.25)">1</text>
		<text transform="matrix(1 0 0 1 3.25 52.25)">2</text>
		<text transform="matrix(1 0 0 1 3.25 81.25)">3</text>
		<text transform="matrix(1 0 0 1 15.25 39.25)">4</text>
		<text transform="matrix(1 0 0 1 54.25 15.25)">5</text>
		<text transform="matrix(1 0 0 1 69.25 22.25)">6</text>
		<text transform="matrix(1 0 0 1 59.25 39.25)">7</text>
		<text transform="matrix(1 0 0 1 44.25 60.25)">8</text>
		<text transform="matrix(1 0 0 1 45.25 79.25)">9</text>
	</g>
	<g id="StrokePaths" style="fill:none;stroke:#404040;stroke-width:3;stroke-linecap:round;stroke-linejoin:round;">
		<path d="M9.65,28.33c0.56,0.3,3.56,0.37,4.12,0.28c2.61-0.41,13.22-2.23,19.48-2.68c0.85-0.06,2.44-0.22,3.15,0.04"/>
		<path d="M9.91,51.87c0.49,0.33,3.93,0.38,4.43,0.31c2.87-0.44,14.14-3.25,18.11-3.73c0.61-0.07,2.34-0.14,3.25,0.16"/>
		<path d="M9.77,77.95c1.03,0.83,2.78,1.18,3.51,0.83c4.64-2.27,11.68-6,18.75-9.92"/>
		<path d="M22.42,30.21c0.77,0.73,1.31,2.3,1.31,2.88c0,4.92,0.04,36.9-0.11,40.17"/>
		<path d="M62.39,12.75c0.08,0.95,0.32,2.5-0.15,3.83C59.29,24.98,49.95,42.14,39,52.35"/>
		<path d="M63.17,17.04c5.07,5.2,23.53,26.25,27.81,30.57c1.45,1.47,3.32,2.1,4.77,2.51"/>
		<path d="M58.2,41.33c3.7,2.05,9.57,8.44,10.49,11.63"/>
		<path d="M43.94,62.62c1.07,0.88,3.33,1.31,4.55,1.08c2.41-0.44,30.75-4.81,33.29-5.25c2.54-0.44,3.18,1.04,1.35,3.38c-4.28,5.48-17.57,20.99-19.18,22.75"/>
		<path d="M53.25,75.9c4.66,2.66,16.73,12.89,18.92,19.85"/>
	</g>
</svg>
