<?xml version="1.0" encoding="UTF-8"?>
<!DOCTYPE svg PUBLIC "-//W3C//DTD SVG 1.0//EN" "http://www.w3.org/TR/2001/REC-SVG-20010904/DTD/svg10.dtd">
<svg xmlns="http://www.w3.org/2000/svg" width="109" height="109" viewBox="0 0 109 109">
	<g id="HelperGrid" style="opacity:0.75;">
		<rect x="0.5" y="0.5" style="fill:none;stroke:#404040;" width="108" height="108"/> 
		<line style="fill:none;stroke:#404040;" x1="0.5" y1="72.51" x2="108.5" y2="72.51"/>
		<line style="fill:none;stroke:#404040;" x1="0.5" y1="36.49" x2="108.5" y2="36.49"/>
		<line style="fill:none;stroke:#404040;" x1="72.5" y1="0.5" x2="72.5" y2="108.5"/>
		<line style="fill:none;stroke:#404040;" x1="36.5" y1="0.5" x2="36.5" y2="108.5"/>
	</g>
	<g id="Kanji">
		<text transform="matrix(1 0 0 1 0.5 93.3799)" style="font-size:108;">玳</text>
	</g>
	<g id="StrokeNumbers" style="font-size:8;fill:#808080">
		<text transform="matrix(1 0 0 1 5.5 23.5)">1</text>
		<text transform="matrix(1 0 0 1 18.6602 33.5)">2</text>
		<text transform="matrix(1 0 0 1 5.5 49.5)">3</text>
		<text transform="matrix(1 0 0 1 4.5361 84.5)">4</text>
		<text transform="matrix(1 0 0 1 48.5 16.5)">5</text>
		<text transform="matrix(1 0 0 1 44.5 58.5)">6</text>
		<text transform="matrix(1 0 0 1 57.5 38.5)">7</text>
		<text transform="matrix(1 0 0 1 62.5 9.5)">8</text>
		<text transform="matrix(1 0 0 1 75.5 14.5)">9</text>
	</g>
	<g id="StrokePaths" style="fill:none;stroke:#404040;stroke-width:3;stroke-linecap:round;stroke-linejoin:round;">
		<path d="M11.75,23.05c0.57,0.25,3.65,0.26,4.24,0.24c5.44-0.24,13.59-1.44,20.03-1.81c0.88-0.05,2.51-0.18,3.23,0.03"/>
		<path d="M24.57,25.52c0.87,0.88,1.48,2.78,1.48,3.48c0,5.95,0.02,45.12-0.15,49.07"/>
		<path d="M12.5,49.19c0.52,0.22,4.18,0.25,4.71,0.2c3.05-0.28,14.32-1.94,18.54-2.25c0.65-0.05,3.02-0.09,3.99,0.1"/>
		<path d="M12.75,85.16c2.4,1.11,2.89,0.58,4.74-0.58c5.42-3.43,11.84-7.29,20.26-12.83"/>
		<path d="M58.13,16c0.21,2.05-0.06,4.73-0.72,6.49c-4.22,11.19-8.26,21.18-17.92,34.8"/>
		<path d="M50.61,43c0.86,1,1.07,3.12,1.11,4.48c0.31,11.9-0.62,40.59-0.33,47.77"/>
		<path d="M57.13,41.6c1.08,0.32,3.07,0.48,4.13,0.32c4.37-0.63,18.6-4.7,27.62-6.14c1.76-0.28,2.71-0.25,3.77,0.01"/>
		<path d="M67.42,12.5c1.24,1.66,1.88,2.11,2.02,5.69c0.93,24.66,9.32,57.56,22.51,71.65c4.19,4.47,4.19,0.21,3.57-7.14"/>
		<path d="M77.32,17.22c4.16,2.35,10.82,7.71,12.77,11.74"/>
	</g>
</svg>
