<?xml version="1.0" encoding="UTF-8"?>
<!-- Copyright (C) 2009 Ulrich Apel.
This work is distributed under the conditions of the Creative Commons
Attribution-Share Alike 3.0 Licence. This means you are free:
* to Share - to copy, distribute and transmit the work
* to Remix - to adapt the work

Under the following conditions:
* Attribution. You must attribute the work by stating your use of KanjiVG in
  your own copyright header and linking to KanjiVG's website
  (http://kanjivg.tagaini.net)
* Share Alike. If you alter, transform, or build upon this work, you may
  distribute the resulting work only under the same or similar license to this
  one.

See http://creativecommons.org/licenses/by-sa/3.0/ for more details. -->
<!DOCTYPE svg PUBLIC "-//W3C//DTD SVG 1.0//EN" "http://www.w3.org/TR/2001/REC-SVG-20010904/DTD/svg10.dtd">
<svg xmlns="http://www.w3.org/2000/svg" width="109" height="109" viewBox="0 0 109 109">
	<g id="HelperGrid" style="opacity:0.75;">
		<rect x="0.5" y="0.5" style="fill:none;stroke:#404040;" width="108" height="108"/> 
		<line style="fill:none;stroke:#404040;" x1="0.5" y1="72.51" x2="108.5" y2="72.51"/>
		<line style="fill:none;stroke:#404040;" x1="0.5" y1="36.49" x2="108.5" y2="36.49"/>
		<line style="fill:none;stroke:#404040;" x1="72.5" y1="0.5" x2="72.5" y2="108.5"/>
		<line style="fill:none;stroke:#404040;" x1="36.5" y1="0.5" x2="36.5" y2="108.5"/>
	</g>
	<g id="Kanji">
		<text transform="matrix(1 0 0 1 0.5 93.3799)" style="font-size:108;">玻</text>
	</g>
	<g id="StrokeNumbers" style="font-size:8;fill:#808080">
		<text transform="matrix(1 0 0 1 5.5 24.5)">1</text>
		<text transform="matrix(1 0 0 1 18.6602 34.8477)">2</text>
		<text transform="matrix(1 0 0 1 5.5 52.5)">3</text>
		<text transform="matrix(1 0 0 1 4.5361 84.5)">4</text>
		<text transform="matrix(1 0 0 1 42.5 33.5)">5</text>
		<text transform="matrix(1 0 0 1 53.5 24.5)">6</text>
		<text transform="matrix(1 0 0 1 59.5 11.5)">7</text>
		<text transform="matrix(1 0 0 1 56.5 47.5)">8</text>
		<text transform="matrix(1 0 0 1 62.5 59.5)">9</text>
	</g>
	<g id="StrokePaths" style="fill:none;stroke:#404040;stroke-width:3;stroke-linecap:round;stroke-linejoin:round;">
		<path d="M11.5,24.5c0.65,0.28,4.16,0.34,4.82,0.26c3.05-0.37,15.44-1.57,22.76-1.98c1-0.06,2.85-0.2,3.68,0.03"/>
		<path d="M25.57,26.02c0.87,0.88,1.48,2.78,1.48,3.48c0,5.95,0.02,44.12-0.15,48.07"/>
		<path d="M12,51.74c0.55,0.17,4.45,0.19,5.01,0.15c3.25-0.22,15.24-1.52,19.73-1.76c0.69-0.04,3.22-0.07,4.25,0.08"/>
		<path d="M11.25,83.75c1.24,0.52,2.25,1,4.5,0C21.17,81.34,32,75.5,40,70.75"/>
		<path d="M49.75,26.46c0.62,1.23,1.54,4.57,1.53,7.13c-0.12,28.81-5.53,50.97-16.41,60.67"/>
		<path d="M51.13,28.37c13.62-2.37,31.88-4.5,37.01-4.88c9.03-0.66-0.85,9.94-2.13,10.92"/>
		<path d="M67.47,11.75c1.5,0.56,2.39,2.53,2.69,3.65c0.3,1.12-0.11,21.38-0.11,32.89"/>
		<path d="M53.25,50.5c1.54,0.37,2.9,0.57,5.96-0.07C66,49,76.94,47.22,83.48,46.36c2.18-0.29,3.82,2.14,2.88,4.06C76.63,70.15,64.25,89.5,42.62,98.07"/>
		<path d="M56.79,54.02C60.25,61,76,82.5,88.85,93.46c1.94,1.65,3.21,2.9,4.93,3.48"/>
	</g>
</svg>
