<?xml version="1.0" encoding="UTF-8"?>
<!-- Copyright (C) 2009 Ulrich Apel.
This work is distributed under the conditions of the Creative Commons
Attribution-Share Alike 3.0 Licence. This means you are free:
* to Share - to copy, distribute and transmit the work
* to Remix - to adapt the work

Under the following conditions:
* Attribution. You must attribute the work by stating your use of KanjiVG in
  your own copyright header and linking to KanjiVG's website
  (http://kanjivg.tagaini.net)
* Share Alike. If you alter, transform, or build upon this work, you may
  distribute the resulting work only under the same or similar license to this
  one.

See http://creativecommons.org/licenses/by-sa/3.0/ for more details. -->
<!DOCTYPE svg PUBLIC "-//W3C//DTD SVG 1.0//EN" "http://www.w3.org/TR/2001/REC-SVG-20010904/DTD/svg10.dtd">
<svg xmlns="http://www.w3.org/2000/svg" width="109" height="109" viewBox="0 0 109 109">
	<g id="HelperGrid" style="opacity:0.75;">
		<rect x="0.5" y="0.5" style="fill:none;stroke:#404040;" width="108" height="108"/> 
		<line style="fill:none;stroke:#404040;" x1="0.5" y1="72.51" x2="108.5" y2="72.51"/>
		<line style="fill:none;stroke:#404040;" x1="0.5" y1="36.49" x2="108.5" y2="36.49"/>
		<line style="fill:none;stroke:#404040;" x1="72.5" y1="0.5" x2="72.5" y2="108.5"/>
		<line style="fill:none;stroke:#404040;" x1="36.5" y1="0.5" x2="36.5" y2="108.5"/>
	</g>
	<g id="Kanji">
		<text transform="matrix(1 0 0 1 0.5 93.3799)" style="font-size:108;">琳</text>
	</g>
	<g id="StrokeNumbers" style="font-size:8;fill:#808080">
		<text transform="matrix(1 0 0 1 4.25 27.25)">1</text>
		<text transform="matrix(1 0 0 1 16.25 36.25)">2</text>
		<text transform="matrix(1 0 0 1 3.25 53.25)">3</text>
		<text transform="matrix(1 0 0 1 4.25 85.25)">4</text>
		<text transform="matrix(1 0 0 1 35.25 37.25)">5</text>
		<text transform="matrix(1 0 0 1 41.25 16.25)">6</text>
		<text transform="matrix(1 0 0 1 42.25 50.25)">7</text>
		<text transform="matrix(1 0 0 1 55.25 48.25)">8</text>
		<text transform="matrix(1 0 0 1 66 33.25)">9</text>
		<text transform="matrix(1 0 0 1 64.25 14.25)">10</text>
		<text transform="matrix(1 0 0 1 66.25 47.25)">11</text>
		<text transform="matrix(1 0 0 1 82.25 46.25)">12</text>
	</g>
	<g id="StrokePaths" style="fill:none;stroke:#404040;stroke-width:3;stroke-linecap:round;stroke-linejoin:round;">
		<path d="M9.86,26.89c0.59,0.35,3.77,0.41,4.37,0.33C17.5,26.75,26.25,25,32.86,24.2c0.9-0.11,2.58-0.25,3.33,0.04"/>
		<path d="M22.89,29.05c0.82,0.84,1.39,2.64,1.39,3.32c0,5.67,0.05,42.52-0.11,46.28"/>
		<path d="M10.16,52.35c0.52,0.38,3.66,0.44,4.19,0.35c3.04-0.51,14.88-3.02,19.09-3.57c0.65-0.08,1.51-0.16,2.48,0.18"/>
		<path d="M11.49,83.39c1.11,1.1,2.97,1.57,3.75,1.1c4.96-3.02,12.5-7.95,20.06-13.16"/>
		<path d="M37.5,39.94c0.58,0.28,2.34,0.24,3.88,0c5.44-0.84,11.85-2.81,17.67-3.38c1.55-0.15,2.72-0.28,3.69,0"/>
		<path d="M49.25,15.75c1.25,0.5,2,2.25,2.25,3.25s-0.25,71.23-0.25,72.5c0,10.5-5.38,1.88-6.25,1"/>
		<path d="M51.5,39.75c-2.64,11.56-10.51,30.95-16,37.5"/>
		<path d="M53.5,50c3.31,2.11,6.86,6.32,8.75,10"/>
		<path d="M67.5,36.64c0.39,0.17,1.24,0.27,2.27,0.17c3.66-0.34,13.48-1.55,20.63-2.41c1.04-0.12,1.94-0.17,2.59,0"/>
		<path d="M75.5,14.25c1.25,0.5,2,2.25,2.25,3.25s-0.25,65.75-0.25,72c0,10.5-4.25,2.75-5.5,1.5"/>
		<path d="M77.5,39.25c-2.76,13.26-11.35,31.71-17.75,38.5"/>
		<path d="M78,38.5c4.92,13.42,12.78,30.64,16.77,35.94c1.14,1.51,1.77,2.55,2.73,3.06"/>
	</g>
</svg>
