<?xml version="1.0" encoding="UTF-8"?>
<!DOCTYPE svg PUBLIC "-//W3C//DTD SVG 1.0//EN" "http://www.w3.org/TR/2001/REC-SVG-20010904/DTD/svg10.dtd">
<svg xmlns="http://www.w3.org/2000/svg" width="109" height="109" viewBox="0 0 109 109">
	<g id="HelperGrid" style="opacity:0.75;">
		<rect x="0.5" y="0.5" style="fill:none;stroke:#404040;" width="108" height="108"/> 
		<line style="fill:none;stroke:#404040;" x1="0.5" y1="72.51" x2="108.5" y2="72.51"/>
		<line style="fill:none;stroke:#404040;" x1="0.5" y1="36.49" x2="108.5" y2="36.49"/>
		<line style="fill:none;stroke:#404040;" x1="72.5" y1="0.5" x2="72.5" y2="108.5"/>
		<line style="fill:none;stroke:#404040;" x1="36.5" y1="0.5" x2="36.5" y2="108.5"/>
	</g>
	<g id="Kanji">
		<text transform="matrix(1 0 0 1 0.5 93.3799)" style="font-size:108;">瑚</text>
	</g>
	<g id="StrokeNumbers" style="font-size:8;fill:#808080">
		<text transform="matrix(1 0 0 1 4.25 25.25)">1</text>
		<text transform="matrix(1 0 0 1 18.25 35.25)">2</text>
		<text transform="matrix(1 0 0 1 3.25 51.25)">3</text>
		<text transform="matrix(1 0 0 1 9.25 76.25)">4</text>
		<text transform="matrix(1 0 0 1 34.25 38.25)">5</text>
		<text transform="matrix(1 0 0 1 41.5 15.25)">6</text>
		<text transform="matrix(1 0 0 1 36.25 76.9297)">7</text>
		<text transform="matrix(1 0 0 1 43.5 58.25)">8</text>
		<text transform="matrix(1 0 0 1 47.25 74.25)">9</text>
		<text transform="matrix(1 0 0 1 65.25 27.7041)">10</text>
		<text transform="matrix(1 0 0 1 76.25 17.25)">11</text>
		<text transform="matrix(1 0 0 1 79.25 37.25)">12</text>
		<text transform="matrix(1 0 0 1 79.25 56.25)">13</text>
	</g>
	<g id="StrokePaths" style="fill:none;stroke:#404040;stroke-width:3;stroke-linecap:round;stroke-linejoin:round;">
		<path d="M10.5,25.5c0.56,0.37,3.6,0.45,4.16,0.34c2.63-0.5,14.34-2.09,20.66-2.64c0.86-0.07,2.46-0.26,3.18,0.04"/>
		<path d="M24.32,27.77c0.87,0.88,1.48,2.78,1.48,3.48c0,5.95,0.52,37.62,0.35,41.57"/>
		<path d="M10.25,50.75c0.55,0.4,4.45,0.46,5.01,0.37C18.51,50.59,30.5,48,35,47.43c0.69-0.09,1.22-0.16,2.25,0.19"/>
		<path d="M11.5,80.5c0.54,0.23,2.68,1.93,3.5,1.5c5.25-2.75,11.25-7.25,19.25-12"/>
		<path d="M36.26,41.3c0.43,0.21,1.58,0.68,2.74,0.62c6.49-0.32,20.11-3.96,26.9-3.96c1.16,0,1.44-0.21,2.17,0"/>
		<path d="M52.19,15.88c0.58,0.41,1.04,1.84,1.04,2.69c0,14.47,0,34.32-0.12,39.49"/>
		<path d="M41.4,59.51c0.19,0.68,0.41,1.15,0.48,1.67c0.47,3.77,1.53,13.08,2.2,20.22"/>
		<path d="M42.37,60.61c5.32-0.76,17.5-3.11,21.13-3.22c1.5-0.05,2.31,1.07,2.18,2.22c-0.5,4.34-2.3,9.81-3.11,15.58"/>
		<path d="M44.36,77.97c4.41-0.32,15.26-1.82,20.55-2.22"/>
		<path d="M74.76,19.63c0.46,0.94,0.76,1.88,0.91,2.82c0.15,0.94,0.22,33.14,0.15,35.25c-0.3,10.1-4.33,25.8-12.97,32.67"/>
		<path d="M76.59,20.96c1.82-0.24,14.06-2.2,15.42-2.46c2.43-0.47,3.35,3.05,3.04,4.46c-0.29,1.36-0.46,46.29-0.46,65.32c0,9.1-5.12,2.16-7.02,0.26"/>
		<path d="M76.43,41c3.14-0.51,5.28-1.02,8.44-1.46c0.77-0.11,1.54-0.21,2.29-0.3"/>
		<path d="M76.81,59.67c2.74-0.22,5.48-0.57,8.22-0.85c0.73-0.08,1.47-0.15,2.2-0.22"/>
	</g>
</svg>
