<?xml version="1.0" encoding="UTF-8"?>
<!DOCTYPE svg PUBLIC "-//W3C//DTD SVG 1.0//EN" "http://www.w3.org/TR/2001/REC-SVG-20010904/DTD/svg10.dtd">
<svg xmlns="http://www.w3.org/2000/svg" width="109" height="109" viewBox="0 0 109 109">
	<g id="HelperGrid" style="opacity:0.75;">
		<rect x="0.5" y="0.5" style="fill:none;stroke:#404040;" width="108" height="108"/> 
		<line style="fill:none;stroke:#404040;" x1="0.5" y1="72.51" x2="108.5" y2="72.51"/>
		<line style="fill:none;stroke:#404040;" x1="0.5" y1="36.49" x2="108.5" y2="36.49"/>
		<line style="fill:none;stroke:#404040;" x1="72.5" y1="0.5" x2="72.5" y2="108.5"/>
		<line style="fill:none;stroke:#404040;" x1="36.5" y1="0.5" x2="36.5" y2="108.5"/>
	</g>
	<g id="Kanji">
		<text transform="matrix(1 0 0 1 0.5 93.3799)" style="font-size:108;">瑶</text>
	</g>
	<g id="StrokeNumbers" style="font-size:8;fill:#808080">
		<text transform="matrix(1 0 0 1 5.25 21.5986)">1</text>
		<text transform="matrix(1 0 0 1 5.25 50.25)">2</text>
		<text transform="matrix(1 0 0 1 4.2861 87.25)">3</text>
		<text transform="matrix(1 0 0 1 19.25 31.25)">4</text>
		<text transform="matrix(1 0 0 1 78.5 10.25)">5</text>
		<text transform="matrix(1 0 0 1 41.5 33.0049)">6</text>
		<text transform="matrix(1 0 0 1 57.25 30.9297)">7</text>
		<text transform="matrix(1 0 0 1 84.25 25.25)">8</text>
		<text transform="matrix(1 0 0 1 45.25 49.7793)">9</text>
		<text transform="matrix(1 0 0 1 45.25 68.25)">10</text>
		<text transform="matrix(1 0 0 1 60.5 63.25)">11</text>
		<text transform="matrix(1 0 0 1 39.25 82.5547)">12</text>
		<text transform="matrix(1 0 0 1 80.5 78.4785)">13</text>
	</g>
	<g id="StrokePaths" style="fill:none;stroke:#404040;stroke-width:3;stroke-linecap:round;stroke-linejoin:round;">
		<path d="M11.25,21.24c0.61,0.4,3.93,0.49,4.55,0.37c2.88-0.54,16.07-1.79,22.98-2.38c0.94-0.08,2.69-0.29,3.47,0.05"/>
		<path d="M11.75,49.75c0.55,0.4,4.45,0.46,5.01,0.37C20.01,49.59,32.5,48,37,47.43c0.69-0.09,3.22-0.16,4.25,0.19"/>
		<path d="M12,84.36c1,1.14,2,1.14,3.89,0.13C21.1,81.72,30.25,75.66,38,70.5"/>
		<path d="M25.76,23.71c0.95,0.97,1.62,3.03,1.62,3.8c0,6.5,0.57,44.98,0.38,49.29"/>
		<path d="M88.71,11.14c0.11,0.27,0.23,0.71-0.22,1.1c-2.64,2.33-17.82,7.44-38.59,10.57"/>
		<path d="M48.27,32.64c3.01,2.45,7.76,10.07,8.52,13.88"/>
		<path d="M63.87,28.19c3.21,2.53,8.29,10.41,9.09,14.34"/>
		<path d="M93.77,24.44c0.04,0.48,0.07,1.25-0.07,1.94c-0.81,4.1-5.49,13.09-11.89,18.59"/>
		<path d="M49,54.02c0.89,0.23,3.63,0.28,4.53,0.23c10.94-0.63,25.32-2.13,35.14-2.93c1.47-0.12,2.38,0.11,3.12,0.22"/>
		<path d="M44.9,71.34c1.07,0.4,3.03,0.47,4.09,0.4c11.11-0.67,28.89-3.12,45.11-3.28c1.78-0.02,2.85,0.19,3.74,0.39"/>
		<path d="M69.73,57.15c0.66,1.02,1.42,1.76,1.42,3.16c0,4.91-0.07,29.19-0.17,33.35"/>
		<path d="M50.85,80.33c0.55,0.33,1.22,1.75,1.1,2.41c-0.63,3.61-1.67,7.31-2.59,11.62c-0.32,1.5-0.26,3.12,1.09,2.78c7.34-1.82,33.85-4.74,40.77-4.92"/>
		<path d="M91.48,76.2c0.53,0.33,1.11,2.48,1.07,3.16c-0.3,4.5-1.55,13.89-1.94,17.78"/>
	</g>
</svg>
