<?xml version="1.0" encoding="UTF-8"?>
<!DOCTYPE svg PUBLIC "-//W3C//DTD SVG 1.0//EN" "http://www.w3.org/TR/2001/REC-SVG-20010904/DTD/svg10.dtd">
<svg xmlns="http://www.w3.org/2000/svg" width="109" height="109" viewBox="0 0 109 109">
	<g id="HelperGrid" style="opacity:0.75;">
		<rect x="0.5" y="0.5" style="fill:none;stroke:#404040;" width="108" height="108"/> 
		<line style="fill:none;stroke:#404040;" x1="0.5" y1="72.51" x2="108.5" y2="72.51"/>
		<line style="fill:none;stroke:#404040;" x1="0.5" y1="36.49" x2="108.5" y2="36.49"/>
		<line style="fill:none;stroke:#404040;" x1="72.5" y1="0.5" x2="72.5" y2="108.5"/>
		<line style="fill:none;stroke:#404040;" x1="36.5" y1="0.5" x2="36.5" y2="108.5"/>
	</g>
	<g id="Kanji">
		<text transform="matrix(1 0 0 1 0.5 93.3799)" style="font-size:108;">璃</text>
	</g>
	<g id="StrokeNumbers" style="font-size:8;fill:#808080">
		<text transform="matrix(1 0 0 1 5.25 26.25)">1</text>
		<text transform="matrix(1 0 0 1 18.25 35.25)">2</text>
		<text transform="matrix(1 0 0 1 4.25 51.25)">3</text>
		<text transform="matrix(1 0 0 1 3.25 83.5977)">4</text>
		<text transform="matrix(1 0 0 1 57.25 11.25)">5</text>
		<text transform="matrix(1 0 0 1 44.25 21.25)">6</text>
		<text transform="matrix(1 0 0 1 69.25 31.25)">7</text>
		<text transform="matrix(1 0 0 1 57.25 40.25)">8</text>
		<text transform="matrix(1 0 0 1 42.25 34.2793)">9</text>
		<text transform="matrix(1 0 0 1 79.25 35.25)">10</text>
		<text transform="matrix(1 0 0 1 37.25 78.25)">11</text>
		<text transform="matrix(1 0 0 1 47.5 63.25)">12</text>
		<text transform="matrix(1 0 0 1 58.25 59.25)">13</text>
		<text transform="matrix(1 0 0 1 77.25 71.25)">14</text>
	</g>
	<g id="StrokePaths" style="fill:none;stroke:#404040;stroke-width:3;stroke-linecap:round;stroke-linejoin:round;">
		<path d="M11.35,24.75c1.24,0.68,3.63,0.46,4.99,0.34c4.96-0.45,10.35-1.04,17.44-2.02c1.45-0.2,3.25-0.59,4.67-0.07"/>
		<path d="M25.05,27.77c1.09,1.09,1.33,2.36,1.33,3.98c0,5.95-0.01,38.8-0.01,45.12"/>
		<path d="M12.27,51.25c1.86,0.38,3.32,0.42,5.15,0.1c4.7-0.83,12.24-2.75,16.46-3.55c1.36-0.26,2.48-0.47,3.87-0.21"/>
		<path d="M11,82.75c1.38,1.38,2.62,1.62,4.49,0.75c5.65-2.65,12.01-6.25,21.92-11.5"/>
		<path d="M66.04,10.03c0.96,0.96,1.21,2.12,1.21,3.47c0,2.37,0.05,4.75,0.05,7.48"/>
		<path d="M45.17,23.9c3.01,0.48,5.82,0.11,8.83-0.21c8.95-0.94,23.18-2.7,32.49-3.33c2.48-0.17,5.16-0.59,7.58,0.14"/>
		<path d="M76.28,27.18c0.1,0.82,0.17,1.68-0.35,2.51c-3.68,5.94-8.8,11.81-17.66,17.99"/>
		<path d="M60.31,31.6C66.5,34,75.16,40.58,78.4,45.05"/>
		<path d="M50.42,31.3c0.7,0.7,1.13,1.7,1.13,2.86c0,2.2,0.09,10.03-0.01,14.34c-0.07,2.85-0.02,4.25,3.12,3.81c6.16-0.87,28.63-3.43,32.26-3.6"/>
		<path d="M87.38,27.08c0.96,0.96,1.39,2.02,1.34,3.17c-0.13,2.84-0.29,10.01-0.62,15.99c-0.11,1.95-0.2,3.8-0.28,5.37"/>
		<path d="M44.77,64.23c0.94,0.94,1.34,2.37,1.46,4.04c0.23,3.11,0.99,15.5,1.4,23.36c0.17,3.16,0.28,5.58,0.28,6.38"/>
		<path d="M46.88,65.96c5.89-0.67,35.91-4.21,43.88-5.04c3.63-0.38,5.3,0.33,4.91,4.21c-0.62,6.14-3.09,20.95-4.2,25.6c-2.06,8.65-5.59,4.14-8.24,0.94"/>
		<path d="M68.29,53.5c0.34,1.12,0.34,1.88-0.15,3.08c-3.48,8.52-6.42,14.27-10.34,21.76c-1.38,2.64-0.86,3.5,1.57,2.76c4.84-1.45,13.11-4.14,18.82-6.21"/>
		<path d="M74.12,69c2.89,2.29,7.47,9.41,8.19,12.97"/>
	</g>
</svg>
