<?xml version="1.0" encoding="UTF-8"?>
<!-- Copyright (C) 2009 Ulrich Apel.
This work is distributed under the conditions of the Creative Commons
Attribution-Share Alike 3.0 Licence. This means you are free:
* to Share - to copy, distribute and transmit the work
* to Remix - to adapt the work

Under the following conditions:
* Attribution. You must attribute the work by stating your use of KanjiVG in
  your own copyright header and linking to KanjiVG's website
  (http://kanjivg.tagaini.net)
* Share Alike. If you alter, transform, or build upon this work, you may
  distribute the resulting work only under the same or similar license to this
  one.

See http://creativecommons.org/licenses/by-sa/3.0/ for more details. -->
<!DOCTYPE svg PUBLIC "-//W3C//DTD SVG 1.0//EN" "http://www.w3.org/TR/2001/REC-SVG-20010904/DTD/svg10.dtd">
<svg xmlns="http://www.w3.org/2000/svg" width="109" height="109" viewBox="0 0 109 109">
	<g id="HelperGrid" style="opacity:0.75;">
		<rect x="0.5" y="0.5" style="fill:none;stroke:#404040;" width="108" height="108"/> 
		<line style="fill:none;stroke:#404040;" x1="0.5" y1="72.51" x2="108.5" y2="72.51"/>
		<line style="fill:none;stroke:#404040;" x1="0.5" y1="36.49" x2="108.5" y2="36.49"/>
		<line style="fill:none;stroke:#404040;" x1="72.5" y1="0.5" x2="72.5" y2="108.5"/>
		<line style="fill:none;stroke:#404040;" x1="36.5" y1="0.5" x2="36.5" y2="108.5"/>
	</g>
	<g id="Kanji">
		<text transform="matrix(1 0 0 1 0.5 93.3799)" style="font-size:108;">璋</text>
	</g>
	<g id="StrokeNumbers" style="font-size:8;fill:#808080">
		<text transform="matrix(1 0 0 1 5.5 22.5)">1</text>
		<text transform="matrix(1 0 0 1 19.5 31.5)">2</text>
		<text transform="matrix(1 0 0 1 5.5 50.5)">3</text>
		<text transform="matrix(1 0 0 1 4.5361 85.5)">4</text>
		<text transform="matrix(1 0 0 1 58.5 10.5)">5</text>
		<text transform="matrix(1 0 0 1 45.5 20.5)">6</text>
		<text transform="matrix(1 0 0 1 51.5 32.5)">7</text>
		<text transform="matrix(1 0 0 1 73.5 30.5)">8</text>
		<text transform="matrix(1 0 0 1 40.5 35.5)">9</text>
		<text transform="matrix(1 0 0 1 45.25 56.9541)">10</text>
		<text transform="matrix(1 0 0 1 56.5 45.5)">11</text>
		<text transform="matrix(1 0 0 1 59.5 53.5)">12</text>
		<text transform="matrix(1 0 0 1 60.5 63.5)">13</text>
		<text transform="matrix(1 0 0 1 44.5 74.5)">14</text>
		<text transform="matrix(1 0 0 1 59.5 72.5)">15</text>
	</g>
	<g id="StrokePaths" style="fill:none;stroke:#404040;stroke-width:3;stroke-linecap:round;stroke-linejoin:round;">
		<path d="M11.1,21.25c0.67,0.37,4.31,0.45,4.99,0.34c3.16-0.5,14.48-1.59,22.06-2.14c1.03-0.07,2.95-0.26,3.8,0.04"/>
		<path d="M26.05,24.02c0.93,0.88,1.58,2.78,1.58,3.48c0,5.95,0.05,46.62-0.13,50.57"/>
		<path d="M12.52,50c0.59,0.4,4.75,0.46,5.36,0.37c3.47-0.53,13.78-1.62,18.58-2.19c0.74-0.09,3.44-0.16,4.54,0.19"/>
		<path d="M11.75,83.61c1.25,1.12,3.36,1.61,4.24,1.12c5.61-3.09,14.12-8.14,22.67-13.48"/>
		<path d="M65.65,9.25c2.85,1.75,5.35,5,6.42,7.69"/>
		<path d="M48.04,23.99c1.28,0.43,2.79,0.55,4.06,0.43c9.4-0.92,28.65-3.42,37.35-3.52c2.14-0.03,3.42,0.2,4.49,0.42"/>
		<path d="M56.3,26.08c3.36,3.32,5.2,6.88,5.51,9.06"/>
		<path d="M82.42,24.42c0.08,0.83,0.04,1.54-0.01,1.83c-0.39,2.02-3.49,7.34-4.47,8.88"/>
		<path d="M42.23,38.95c1.41,0.37,3.06,0.46,4.46,0.37c10.28-0.66,29.6-3.47,47.14-3.76c2.35-0.04,3.76,0.18,4.94,0.37"/>
		<path d="M51.59,45.83c0.63,0.96,0.94,1.45,1.67,2.56c1.04,1.6,2.75,13.19,3.78,18.85"/>
		<path d="M53.64,47.26c3.56-0.16,28.41-3.34,31.65-3.34c2.17,0,2.78,1.46,2.38,4.47c-0.21,1.61-1.62,9.94-3.6,17.03"/>
		<path d="M55.69,56.4c5.14-0.69,10.32-1.15,15.49-1.59c1.47-0.13,2.94-0.25,4.36-0.36"/>
		<path d="M57.29,65.53c9.24-1.04,21.96-1.88,26.42-1.88"/>
		<path d="M42.78,77.51c1.63,0.37,4.63,0.51,6.24,0.37C59.25,77,78.25,75,93.55,74.41c2.71-0.11,4.34,0.18,5.7,0.36"/>
		<path d="M69.13,67.73c0.33,0.35,1.02,2.65,1.09,3.35c0.06,0.71-0.04,24.75-0.11,29.17"/>
	</g>
</svg>
