<?xml version="1.0" encoding="UTF-8"?>
<!-- Copyright (C) 2009 Ulrich Apel.
This work is distributed under the conditions of the Creative Commons
Attribution-Share Alike 3.0 Licence. This means you are free:
* to Share - to copy, distribute and transmit the work
* to Remix - to adapt the work

Under the following conditions:
* Attribution. You must attribute the work by stating your use of KanjiVG in
  your own copyright header and linking to KanjiVG's website
  (http://kanjivg.tagaini.net)
* Share Alike. If you alter, transform, or build upon this work, you may
  distribute the resulting work only under the same or similar license to this
  one.

See http://creativecommons.org/licenses/by-sa/3.0/ for more details. -->
<!DOCTYPE svg PUBLIC "-//W3C//DTD SVG 1.0//EN" "http://www.w3.org/TR/2001/REC-SVG-20010904/DTD/svg10.dtd">
<svg xmlns="http://www.w3.org/2000/svg" width="109" height="109" viewBox="0 0 109 109">
	<g id="HelperGrid" style="opacity:0.75;">
		<rect x="0.5" y="0.5" style="fill:none;stroke:#404040;" width="108" height="108"/> 
		<line style="fill:none;stroke:#404040;" x1="0.5" y1="72.51" x2="108.5" y2="72.51"/>
		<line style="fill:none;stroke:#404040;" x1="0.5" y1="36.49" x2="108.5" y2="36.49"/>
		<line style="fill:none;stroke:#404040;" x1="72.5" y1="0.5" x2="72.5" y2="108.5"/>
		<line style="fill:none;stroke:#404040;" x1="36.5" y1="0.5" x2="36.5" y2="108.5"/>
	</g>
	<g id="Kanji">
		<text transform="matrix(1 0 0 1 0.5 93.3799)" style="font-size:108;">瓣</text>
	</g>
	<g id="StrokeNumbers" style="font-size:8;fill:#808080">
		<text transform="matrix(1 0 0 1 14.5 13.5)">1</text>
		<text transform="matrix(1 0 0 1 2.5 27.5)">2</text>
		<text transform="matrix(1 0 0 1 7.75 36.5)">3</text>
		<text transform="matrix(1 0 0 1 25.5 34.5)">4</text>
		<text transform="matrix(1 0 0 1 1.5 48.5)">5</text>
		<text transform="matrix(1 0 0 1 2.5 70.5)">6</text>
		<text transform="matrix(1 0 0 1 17.5 59.5)">7</text>
		<text transform="matrix(1 0 0 1 55.5 15.5)">8</text>
		<text transform="matrix(1 0 0 1 37.5 37.5)">9</text>
		<text transform="matrix(1 0 0 1 45.75 39.5)">10</text>
		<text transform="matrix(1 0 0 1 40.5 83.5)">11</text>
		<text transform="matrix(1 0 0 1 56.75 68.8047)">12</text>
		<text transform="matrix(1 0 0 1 59.5 28.729)">13</text>
		<text transform="matrix(1 0 0 1 69.5 12.5)">14</text>
		<text transform="matrix(1 0 0 1 68.5 23.5)">15</text>
		<text transform="matrix(1 0 0 1 64.5 35.5)">16</text>
		<text transform="matrix(1 0 0 1 82.75 34.4297)">17</text>
		<text transform="matrix(1 0 0 1 65.75 44.5)">18</text>
		<text transform="matrix(1 0 0 1 68.5 60.5)">19</text>
		<text transform="matrix(1 0 0 1 74.5 55.5)">20</text>
	</g>
	<g id="StrokePaths" style="fill:none;stroke:#404040;stroke-width:3;stroke-linecap:round;stroke-linejoin:round;">
		<path d="M23.62,13.75c1.01,1.31,1.51,1.31,1.51,4.35c0,3.05,0,3.65,0,7.65"/>
		<path d="M9.35,27.2c0.83,0.33,1.8,0.38,2.62,0.33c4.67-0.28,17.74-2.53,24.81-2.77c1.38-0.05,2.21,0.16,2.9,0.32"/>
		<path d="M15.2,32.5c2.88,4.57,4.19,9.24,4.45,12.25"/>
		<path d="M33.26,28.25c0.54,0.54,0.61,1.82,0.54,2.27c-0.43,3.08-4.09,11.87-5.17,14.23"/>
		<path d="M9,48.8c1.04,0.39,2.26,0.53,3.29,0.39C17.5,48.5,28.75,47,34.87,46.7c1.73-0.09,2.77,0.19,3.63,0.38"/>
		<path d="M10.18,69.73c0.66,0.9,1.88,1.13,2.54,0.9C21.13,67.69,31.5,63,37.9,60.27"/>
		<path d="M23.88,51.63c0.65,0.58,1.45,2.12,1.47,3.28c0.18,9.01,0.53,26.42-13.1,41.34"/>
		<path d="M64.35,16c0.05,0.32-0.07,1.33-0.35,1.68c-3.51,4.45-8.44,8.11-17.59,11.7"/>
		<path d="M43.33,30.28c0.4,0.71,1.02,1.96,1.13,3.99c1.09,21.13-0.72,45.87-13.9,55.94"/>
		<path d="M52.39,29.76c0.73,0.62,1.31,2.75,1.31,4.01c0,6.44-0.14,40.09-0.14,50.55"/>
		<path d="M42.43,87.93c0.53,0.54,2.56,1.08,3.67,0.5c5.86-3.1,9.29-5.39,15.56-8.83"/>
		<path d="M59.34,71.43c1.63,3.15,4.22,12.96,4.62,17.87"/>
		<path d="M59.06,28.17c0.18,0,0.76,0.6,0.96,1.8c2.2,13.17,5.88,41.13,13.51,57.54c1.16,2.49,2.39,4.04,3.22,4.85"/>
		<path d="M81.56,12.75c1.41,1.31,2.12,1.31,2.12,4.35c0,3.05,0,4.15,0,8.15"/>
		<path d="M68.83,26.2c0.69,0.33,1.5,0.38,2.19,0.33c3.91-0.28,19.27-2.03,25.18-2.27c1.15-0.05,1.85,0.16,2.42,0.32"/>
		<path d="M74.65,31.5c2.71,4.66,3.94,9.43,4.18,12.5"/>
		<path d="M92.66,28.25c0.53,0.5,0.59,1.68,0.53,2.1c-0.43,2.85-4.01,10.97-5.07,13.15"/>
		<path d="M68.75,47.8c0.87,0.39,1.88,0.47,2.75,0.39c7.25-0.69,18.75-2.69,26.72-2.5c1.45,0.04,2.31,0.19,3.04,0.38"/>
		<path d="M71.38,63.95c0.89,0.47,2.53,0.53,3.43,0.47c6.13-0.42,14.99-1.92,21.48-2.4c1.49-0.11,2.39,0.22,3.13,0.46"/>
		<path d="M83.14,48.63c0.66,0.52,1.68,2.62,1.68,4.96c0,6.05-0.19,42.74-0.22,44.29"/>
	</g>
</svg>
