<?xml version="1.0" encoding="UTF-8"?>
<!-- Copyright (C) 2009 Ulrich Apel.
This work is distributed under the conditions of the Creative Commons
Attribution-Share Alike 3.0 Licence. This means you are free:
* to Share - to copy, distribute and transmit the work
* to Remix - to adapt the work

Under the following conditions:
* Attribution. You must attribute the work by stating your use of KanjiVG in
  your own copyright header and linking to KanjiVG's website
  (http://kanjivg.tagaini.net)
* Share Alike. If you alter, transform, or build upon this work, you may
  distribute the resulting work only under the same or similar license to this
  one.

See http://creativecommons.org/licenses/by-sa/3.0/ for more details. -->
<!DOCTYPE svg PUBLIC "-//W3C//DTD SVG 1.0//EN" "http://www.w3.org/TR/2001/REC-SVG-20010904/DTD/svg10.dtd">
<svg xmlns="http://www.w3.org/2000/svg" width="109" height="109" viewBox="0 0 109 109">
	<g id="HelperGrid" style="opacity:0.75;">
		<rect x="0.5" y="0.5" style="fill:none;stroke:#404040;" width="108" height="108"/> 
		<line style="fill:none;stroke:#404040;" x1="0.5" y1="72.51" x2="108.5" y2="72.51"/>
		<line style="fill:none;stroke:#404040;" x1="0.5" y1="36.49" x2="108.5" y2="36.49"/>
		<line style="fill:none;stroke:#404040;" x1="72.5" y1="0.5" x2="72.5" y2="108.5"/>
		<line style="fill:none;stroke:#404040;" x1="36.5" y1="0.5" x2="36.5" y2="108.5"/>
	</g>
	<g id="Kanji">
		<text transform="matrix(1 0 0 1 0.5 93.3799)" style="font-size:108;">男</text>
	</g>
	<g id="StrokeNumbers" style="font-size:8;fill:#808080">
		<text transform="matrix(1 0 0 1 18.75 19.5)">1</text>
		<text transform="matrix(1 0 0 1 31.5 12.5)">2</text>
		<text transform="matrix(1 0 0 1 47.5 24.1299)">3</text>
		<text transform="matrix(1 0 0 1 34 27.5)">4</text>
		<text transform="matrix(1 0 0 1 34.5 41.5)">5</text>
		<text transform="matrix(1 0 0 1 11.5 63.5)">6</text>
		<text transform="matrix(1 0 0 1 45.5 52.5)">7</text>
	</g>
	<g id="StrokePaths" style="fill:none;stroke:#404040;stroke-width:3;stroke-linecap:round;stroke-linejoin:round;">
		<path d="M26.5,14.25c0.88,0.88,1.56,1.99,1.73,2.98c0.84,4.77,2.47,16.75,3.34,26.04c0.18,1.95,0.37,2.37,0.55,4.23"/>
		<path d="M29,15.95c11.38-1.45,41.21-4.57,49.56-4.71c3.9-0.07,5.44,1.51,4.91,5.29c-0.45,3.21-3.15,15.19-4.94,22.23c-0.41,1.62-0.79,2.99-1.4,4.19"/>
		<path d="M54,15.97c0.77,0.77,1,1.91,1,2.79c0.02,6.32,0.2,22,0.2,22.75"/>
		<path d="M30.98,30.82C45,29.12,57.12,28,80.53,26.34"/>
		<path d="M32.87,44.74c11.38-1.24,28.38-2.99,44.14-3.7"/>
		<path d="M19.98,60.98c2.15,0.67,4.58,0.78,6.77,0.53c13.46-1.53,42.24-5.66,51.88-6.86c5.26-0.66,6.86,1.04,5.72,6.27c-1.92,8.83-9,27.39-15.66,33.19c-5.11,4.45-7.44,2.14-9.69-0.86"/>
		<path d="M53.22,46.43c0.28,1.32,0.29,3.04-0.2,4.57C49.12,63.12,38,81.25,17.14,92.06"/>
	</g>
</svg>
