<?xml version="1.0" encoding="UTF-8"?>
<!DOCTYPE svg PUBLIC "-//W3C//DTD SVG 1.0//EN" "http://www.w3.org/TR/2001/REC-SVG-20010904/DTD/svg10.dtd">
<svg xmlns="http://www.w3.org/2000/svg" width="109" height="109" viewBox="0 0 109 109">
	<g id="HelperGrid" style="opacity:0.75;">
		<rect x="0.5" y="0.5" style="fill:none;stroke:#404040;" width="108" height="108"/> 
		<line style="fill:none;stroke:#404040;" x1="0.5" y1="72.51" x2="108.5" y2="72.51"/>
		<line style="fill:none;stroke:#404040;" x1="0.5" y1="36.49" x2="108.5" y2="36.49"/>
		<line style="fill:none;stroke:#404040;" x1="72.5" y1="0.5" x2="72.5" y2="108.5"/>
		<line style="fill:none;stroke:#404040;" x1="36.5" y1="0.5" x2="36.5" y2="108.5"/>
	</g>
	<g id="Kanji">
		<text transform="matrix(1 0 0 1 0.5 93.3799)" style="font-size:108;">界</text>
	</g>
	<g id="StrokeNumbers" style="font-size:8;fill:#808080">
		<text transform="matrix(1 0 0 1 23.5 25.5)">1</text>
		<text transform="matrix(1 0 0 1 31.5 14.5)">2</text>
		<text transform="matrix(1 0 0 1 46.5 24.1299)">3</text>
		<text transform="matrix(1 0 0 1 35.5 26.5)">4</text>
		<text transform="matrix(1 0 0 1 36.5 39.1299)">5</text>
		<text transform="matrix(1 0 0 1 33.5 53.5)">6</text>
		<text transform="matrix(1 0 0 1 73.5 51.5)">7</text>
		<text transform="matrix(1 0 0 1 35.25 71.5)">8</text>
		<text transform="matrix(1 0 0 1 59.25 66.5)">9</text>
	</g>
	<g id="StrokePaths" style="fill:none;stroke:#404040;stroke-width:3;stroke-linecap:round;stroke-linejoin:round;">
		<path d="M28.72,16.97c0.36,0.46,0.37,0.78,0.56,1.37c1.61,4.8,3.06,16.93,4,25.89"/>
		<path d="M30.42,17.61c12.77-1.23,34.67-3.31,44.21-4.33c3.5-0.38,5.3,1.94,5.09,3.26c-1.22,7.96-2.47,16.21-4.23,24.49"/>
		<path d="M53,17.75c1.5,0.75,1.37,1,1.36,2.5c-0.02,6.11,0.23,18.06,0.23,20.03"/>
		<path d="M32.7,30.03c9.9-1.13,19.85-1.97,29.77-2.9c1.19-0.11,2.35-0.22,3.46-0.32"/>
		<path d="M33.95,42.92c9.19-0.53,28.96-2.81,41.65-3.67"/>
		<path d="M46.41,43c0.08,0.72,0.38,1.93-0.17,2.88C42.75,52,31.25,64.75,16.74,73.44"/>
		<path d="M60,43.02c6.47,6.82,22.44,20.13,30.76,25.57c1.84,1.2,4,1.86,5.75,2.23"/>
		<path d="M41.75,61.93c0.35,1.02,0.85,1.82,0.85,3.1c0,11.65,0.31,26.4-10.46,34.44"/>
		<path d="M64.89,58.6c0.86,0.39,1.37,1.77,1.54,2.56c0.17,0.79,0,32.02-0.17,36.94"/>
	</g>
</svg>
