<?xml version="1.0" encoding="UTF-8"?>
<!-- Copyright (C) 2009 Ulrich Apel.
This work is distributed under the conditions of the Creative Commons
Attribution-Share Alike 3.0 Licence. This means you are free:
* to Share - to copy, distribute and transmit the work
* to Remix - to adapt the work

Under the following conditions:
* Attribution. You must attribute the work by stating your use of KanjiVG in
  your own copyright header and linking to KanjiVG's website
  (http://kanjivg.tagaini.net)
* Share Alike. If you alter, transform, or build upon this work, you may
  distribute the resulting work only under the same or similar license to this
  one.

See http://creativecommons.org/licenses/by-sa/3.0/ for more details. -->
<!DOCTYPE svg PUBLIC "-//W3C//DTD SVG 1.0//EN" "http://www.w3.org/TR/2001/REC-SVG-20010904/DTD/svg10.dtd">
<svg xmlns="http://www.w3.org/2000/svg" width="109" height="109" viewBox="0 0 109 109">
	<g id="HelperGrid" style="opacity:0.75;">
		<rect x="0.5" y="0.5" style="fill:none;stroke:#404040;" width="108" height="108"/> 
		<line style="fill:none;stroke:#404040;" x1="0.5" y1="72.51" x2="108.5" y2="72.51"/>
		<line style="fill:none;stroke:#404040;" x1="0.5" y1="36.49" x2="108.5" y2="36.49"/>
		<line style="fill:none;stroke:#404040;" x1="72.5" y1="0.5" x2="72.5" y2="108.5"/>
		<line style="fill:none;stroke:#404040;" x1="36.5" y1="0.5" x2="36.5" y2="108.5"/>
	</g>
	<g id="Kanji">
		<text transform="matrix(1 0 0 1 0.5 93.3799)" style="font-size:108;">留</text>
	</g>
	<g id="StrokeNumbers" style="font-size:8;fill:#808080">
		<text transform="matrix(1 0 0 1 34.5 11.5)">1</text>
		<text transform="matrix(1 0 0 1 15.75 32.5)">2</text>
		<text transform="matrix(1 0 0 1 33.5 31.5)">3</text>
		<text transform="matrix(1 0 0 1 52.5 14.5)">4</text>
		<text transform="matrix(1 0 0 1 60.5 28.5)">5</text>
		<text transform="matrix(1 0 0 1 19.5 71.5)">6</text>
		<text transform="matrix(1 0 0 1 29.25 60.1299)">7</text>
		<text transform="matrix(1 0 0 1 46.5 70.5)">8</text>
		<text transform="matrix(1 0 0 1 33.5 75.0547)">9</text>
		<text transform="matrix(1 0 0 1 33.5 92.9785)">10</text>
	</g>
	<g id="StrokePaths" style="fill:none;stroke:#404040;stroke-width:3;stroke-linecap:round;stroke-linejoin:round;">
		<path d="M41.07,11.69c0,0.69-0.1,1.38-0.94,2.06c-4.01,3.25-8.68,6.14-14.99,9.14"/>
		<path d="M21.12,23.1c0.77,0.77,1.32,1.4,1.32,2.59c0,0.81,0.15,17.07,0.15,20.95c0,3,0.66,3.62,3.43,1.91c4.93-3.04,13.1-8.41,18.3-11.81"/>
		<path d="M40.78,29.37C45,34,48.38,39,50.81,44.65"/>
		<path d="M57.94,17.74c1.12,0.41,2.53,0.36,3.51,0.22c7.98-1.14,20.44-4.34,24.87-4.76c2.88-0.27,4.31,1.17,4.19,4.27c-0.19,5.06-3.76,21.65-7.44,28.63c-2.37,4.49-4.26,1.86-6.41-0.87"/>
		<path d="M69.43,20.25c0.32,0.75,0.39,1.79,0.17,2.74c-2.22,9.39-6.1,19.26-14.05,27.9"/>
		<path d="M25.19,61.37c0.9,0.91,1.44,2.17,1.58,3.15C28,73.12,29,82.62,30.2,93.74c0.17,1.55,0.27,3.06,0.4,4.51"/>
		<path d="M27.36,63.34c17.89-2.09,41.39-4.24,52.16-4.87c3.96-0.23,5.87,2.28,5.5,5.6c-0.78,7.05-2.12,17.31-4.09,27.66c-0.26,1.36-0.53,2.7-0.8,4"/>
		<path d="M52.95,62.16c0.82,0.82,1.19,2.21,1.19,3.58c0,7.95,0.01,24.57,0.01,27.17"/>
		<path d="M29.94,78.32C41,77.38,64.5,75,82.79,74.39"/>
		<path d="M31.6,95.58c12.4-0.83,34.15-2.21,47.91-2.6"/>
	</g>
</svg>
