<?xml version="1.0" encoding="UTF-8"?>
<!-- Copyright (C) 2009 Ulrich Apel.
This work is distributed under the conditions of the Creative Commons
Attribution-Share Alike 3.0 Licence. This means you are free:
* to Share - to copy, distribute and transmit the work
* to Remix - to adapt the work

Under the following conditions:
* Attribution. You must attribute the work by stating your use of KanjiVG in
  your own copyright header and linking to KanjiVG's website
  (http://kanjivg.tagaini.net)
* Share Alike. If you alter, transform, or build upon this work, you may
  distribute the resulting work only under the same or similar license to this
  one.

See http://creativecommons.org/licenses/by-sa/3.0/ for more details. -->
<!DOCTYPE svg PUBLIC "-//W3C//DTD SVG 1.0//EN" "http://www.w3.org/TR/2001/REC-SVG-20010904/DTD/svg10.dtd">
<svg xmlns="http://www.w3.org/2000/svg" width="109" height="109" viewBox="0 0 109 109">
	<g id="HelperGrid" style="opacity:0.75;">
		<rect x="0.5" y="0.5" style="fill:none;stroke:#404040;" width="108" height="108"/> 
		<line style="fill:none;stroke:#404040;" x1="0.5" y1="72.51" x2="108.5" y2="72.51"/>
		<line style="fill:none;stroke:#404040;" x1="0.5" y1="36.49" x2="108.5" y2="36.49"/>
		<line style="fill:none;stroke:#404040;" x1="72.5" y1="0.5" x2="72.5" y2="108.5"/>
		<line style="fill:none;stroke:#404040;" x1="36.5" y1="0.5" x2="36.5" y2="108.5"/>
	</g>
	<g id="Kanji">
		<text transform="matrix(1 0 0 1 0.5 93.3799)" style="font-size:108;">番</text>
	</g>
	<g id="StrokeNumbers" style="font-size:8;fill:#808080">
		<text transform="matrix(1 0 0 1 56.5 9.5)">1</text>
		<text transform="matrix(1 0 0 1 24.75 31.6299)">2</text>
		<text transform="matrix(1 0 0 1 65.5 21.5)">3</text>
		<text transform="matrix(1 0 0 1 11.25 43.6299)">4</text>
		<text transform="matrix(1 0 0 1 46.5 29.5)">5</text>
		<text transform="matrix(1 0 0 1 33.5 49.5)">6</text>
		<text transform="matrix(1 0 0 1 71.5 46.5)">7</text>
		<text transform="matrix(1 0 0 1 23.25 75.5)">8</text>
		<text transform="matrix(1 0 0 1 36.5 64.5)">9</text>
		<text transform="matrix(1 0 0 1 43.5 74.5)">10</text>
		<text transform="matrix(1 0 0 1 35 77.1289)">11</text>
		<text transform="matrix(1 0 0 1 34.5 93.1299)">12</text>
	</g>
	<g id="StrokePaths" style="fill:none;stroke:#404040;stroke-width:3;stroke-linecap:round;stroke-linejoin:round;">
		<path d="M65.01,10.25c0.1,0.3,0.14,0.72-0.19,1.2c-2.71,3.93-17.39,7.63-34.82,10.8"/>
		<path d="M32.51,27.54c2.34,1.22,5.87,4.68,6.45,6.59"/>
		<path d="M74.01,19.25c0.03,0.35,0.15,0.93-0.05,1.4c-1.57,3.78-4.08,8.22-9.25,13.41"/>
		<path d="M18.27,40.91c0.67,0.16,2.45,0.41,4.23,0.47c4.9,0.15,52.07-6.03,59.86-5.72c1.78,0.07,2.22-0.15,3.34,0"/>
		<path d="M51.65,21c1.11,0.31,1.78,1.4,2,2.02c0.22,0.62,0,32.49-0.22,36.37"/>
		<path d="M50.75,38.75c-5.33,8.72-18.27,20.97-30.25,26"/>
		<path d="M55.88,38.6c4.46,2.98,27.05,19.08,31.9,22.01c1.64,0.99,3.05,1.42,4.7,1.7"/>
		<path d="M29.31,65.17c0.34,0.58,0.34,0.97,0.53,1.68c1.5,5.88,2.85,21.56,3.74,32.4"/>
		<path d="M30.9,67.06c11.92-0.59,33.35-3.59,42.25-4.17c3.27-0.21,4.93,1.49,4.75,3.07C77.17,72.46,75,88.75,72.5,98.75"/>
		<path d="M52.29,65.89C53,67,53.25,67.45,53.25,69c-0.02,7.31,0.22,23.59,0.22,25.97"/>
		<path d="M33.03,81.15c9.55-0.73,19.1-1.4,28.65-2.05c1.15-0.08,2.27-0.16,3.33-0.23"/>
		<path d="M34.2,96.72c8.58,0,26.96-1.57,38.8-1.72"/>
	</g>
</svg>
