<?xml version="1.0" encoding="UTF-8"?>
<!DOCTYPE svg PUBLIC "-//W3C//DTD SVG 1.0//EN" "http://www.w3.org/TR/2001/REC-SVG-20010904/DTD/svg10.dtd">
<svg xmlns="http://www.w3.org/2000/svg" width="109" height="109" viewBox="0 0 109 109">
	<g id="HelperGrid" style="opacity:0.75;">
		<rect x="0.5" y="0.5" style="fill:none;stroke:#404040;" width="108" height="108"/> 
		<line style="fill:none;stroke:#404040;" x1="0.5" y1="72.51" x2="108.5" y2="72.51"/>
		<line style="fill:none;stroke:#404040;" x1="0.5" y1="36.49" x2="108.5" y2="36.49"/>
		<line style="fill:none;stroke:#404040;" x1="72.5" y1="0.5" x2="72.5" y2="108.5"/>
		<line style="fill:none;stroke:#404040;" x1="36.5" y1="0.5" x2="36.5" y2="108.5"/>
	</g>
	<g id="Kanji">
		<text transform="matrix(1 0 0 1 0.5 93.3799)" style="font-size:108;">疹</text>
	</g>
	<g id="StrokeNumbers" style="font-size:8;fill:#808080">
		<text transform="matrix(1 0 0 1 47.5 12.5)">1</text>
		<text transform="matrix(1 0 0 1 29.6602 22.5)">2</text>
		<text transform="matrix(1 0 0 1 23.708 35.8477)">3</text>
		<text transform="matrix(1 0 0 1 3.5 37.5)">4</text>
		<text transform="matrix(1 0 0 1 2.5 69.5)">5</text>
		<text transform="matrix(1 0 0 1 49.5 35.5)">6</text>
		<text transform="matrix(1 0 0 1 67.5 35.6797)">7</text>
		<text transform="matrix(1 0 0 1 56.4434 50.6045)">8</text>
		<text transform="matrix(1 0 0 1 65.4434 61.5303)">9</text>
		<text transform="matrix(1 0 0 1 71.4434 73.4551)">10</text>
	</g>
	<g id="StrokePaths" style="fill:none;stroke:#404040;stroke-width:3;stroke-linecap:round;stroke-linejoin:round;">
		<path d="M56.56,12.38c0.97,0.97,1.26,2.62,1.26,3.9c0,0.79-0.07,2.59-0.07,7.46"/>
		<path d="M27.13,25.23c3.12,0.59,6.24,0.7,9.37,0.33c14.84-0.92,34.92-2.5,48.11-3.06c3.12-0.13,6.19,0.25,9.26,0.82"/>
		<path d="M29.74,26.25c0.88,0.88,1.05,2.33,0.98,4.12c-1.23,32.5-4.48,47.5-16.17,64.09"/>
		<path d="M11.25,36.75C15.13,38.51,21.03,43.26,22,46"/>
		<path d="M9.92,66.54c1.53,0.67,2.76,0.22,4.1-0.59c5.45-3.28,7.6-4.62,11.72-7.45"/>
		<path d="M58.91,29.25c0.06,0.82-0.19,2.17-0.63,3.29C55.25,40.25,48,51.75,34.73,63.5"/>
		<path d="M60.62,32.83c3.88,4.92,13.9,14.97,21.45,21.61c3.37,3.02,7.19,5.22,11.45,6.61"/>
		<path d="M64.59,49c0,1.12-0.32,1.85-0.88,2.55c-4.08,5.08-12.07,13.12-25.25,19.25"/>
		<path d="M74.61,60.63c-0.03,1.38-0.52,2.46-1.48,3.25c-5.44,5.24-15.89,12.74-35.01,20.11"/>
		<path d="M84.51,72.97c0,1.28-0.63,2.52-1.56,3.46c-6.45,5.83-21.45,14.2-48.88,22.33"/>
	</g>
</svg>
