<?xml version="1.0" encoding="UTF-8"?>
<!-- Copyright (C) 2009 Ulrich Apel.
This work is distributed under the conditions of the Creative Commons
Attribution-Share Alike 3.0 Licence. This means you are free:
* to Share - to copy, distribute and transmit the work
* to Remix - to adapt the work

Under the following conditions:
* Attribution. You must attribute the work by stating your use of KanjiVG in
  your own copyright header and linking to KanjiVG's website
  (http://kanjivg.tagaini.net)
* Share Alike. If you alter, transform, or build upon this work, you may
  distribute the resulting work only under the same or similar license to this
  one.

See http://creativecommons.org/licenses/by-sa/3.0/ for more details. -->
<!DOCTYPE svg PUBLIC "-//W3C//DTD SVG 1.0//EN" "http://www.w3.org/TR/2001/REC-SVG-20010904/DTD/svg10.dtd">
<svg xmlns="http://www.w3.org/2000/svg" width="109" height="109" viewBox="0 0 109 109">
	<g id="HelperGrid" style="opacity:0.75;">
		<rect x="0.5" y="0.5" style="fill:none;stroke:#404040;" width="108" height="108"/> 
		<line style="fill:none;stroke:#404040;" x1="0.5" y1="72.51" x2="108.5" y2="72.51"/>
		<line style="fill:none;stroke:#404040;" x1="0.5" y1="36.49" x2="108.5" y2="36.49"/>
		<line style="fill:none;stroke:#404040;" x1="72.5" y1="0.5" x2="72.5" y2="108.5"/>
		<line style="fill:none;stroke:#404040;" x1="36.5" y1="0.5" x2="36.5" y2="108.5"/>
	</g>
	<g id="Kanji">
		<text transform="matrix(1 0 0 1 0.5 93.3799)" style="font-size:108;">疽</text>
	</g>
	<g id="StrokeNumbers" style="font-size:8;fill:#808080">
		<text transform="matrix(1 0 0 1 47.3477 11.3477)">1</text>
		<text transform="matrix(1 0 0 1 25.5 22.5)">2</text>
		<text transform="matrix(1 0 0 1 23.708 35.8477)">3</text>
		<text transform="matrix(1 0 0 1 5.5 36.5)">4</text>
		<text transform="matrix(1 0 0 1 3.7158 71.5)">5</text>
		<text transform="matrix(1 0 0 1 40.4434 45.5)">6</text>
		<text transform="matrix(1 0 0 1 51.5 34.5)">7</text>
		<text transform="matrix(1 0 0 1 52.5 52.6045)">8</text>
		<text transform="matrix(1 0 0 1 52.5 69.5)">9</text>
		<text transform="matrix(1 0 0 1 26.5 90.5)">10</text>
	</g>
	<g id="StrokePaths" style="fill:none;stroke:#404040;stroke-width:3;stroke-linecap:round;stroke-linejoin:round;">
		<path d="M53.59,11.13c1.78,0.9,5.54,6.71,5.89,8.5"/>
		<path d="M24.63,25.34c1.82,0.65,5.15,0.75,6.97,0.65c18.91-1.08,38.35-1.82,55.18-2.67c3.02-0.15,4.84,0.31,6.36,0.63"/>
		<path d="M30.49,26.5c0,1.27-0.01,2.52-0.02,3.75C30.2,57.71,25,79.5,14.31,90.97"/>
		<path d="M12.5,35.75c3.18,2.12,8.21,8.71,9,12"/>
		<path d="M10.67,66.57c1.44,0.61,1.88,0.43,3.15-0.31c5.11-3,8.06-4.92,11.93-7.51"/>
		<path d="M46.56,37.2c0.58,0.84,0.97,2.16,1.17,2.98c0.2,0.82,0.43,49.38,0.36,51.19"/>
		<path d="M48.88,38.63c2.31-0.08,23.46-2.41,25.17-2.55c3.08-0.25,4.25,2.83,3.87,4.02c-0.37,1.14-0.18,32.5-0.29,48.82"/>
		<path d="M48.96,55.74c4.72-0.48,9.46-0.79,14.2-1.07c1.27-0.07,2.53-0.14,3.76-0.21"/>
		<path d="M48.42,72.58c4.75-0.22,10-0.55,14.75-0.83c1.41-0.08,2.83-0.16,4.22-0.23"/>
		<path d="M27.81,93.15c1.79,0.56,5.07,0.65,6.86,0.56c18.62-0.94,22.67-2.57,56.95-2.72c2.98-0.01,4.77,0.27,6.26,0.55"/>
	</g>
</svg>
