<?xml version="1.0" encoding="UTF-8"?>
<!DOCTYPE svg PUBLIC "-//W3C//DTD SVG 1.0//EN" "http://www.w3.org/TR/2001/REC-SVG-20010904/DTD/svg10.dtd">
<svg xmlns="http://www.w3.org/2000/svg" width="109" height="109" viewBox="0 0 109 109">
	<g id="HelperGrid" style="opacity:0.75;">
		<rect x="0.5" y="0.5" style="fill:none;stroke:#404040;" width="108" height="108"/> 
		<line style="fill:none;stroke:#404040;" x1="0.5" y1="72.51" x2="108.5" y2="72.51"/>
		<line style="fill:none;stroke:#404040;" x1="0.5" y1="36.49" x2="108.5" y2="36.49"/>
		<line style="fill:none;stroke:#404040;" x1="72.5" y1="0.5" x2="72.5" y2="108.5"/>
		<line style="fill:none;stroke:#404040;" x1="36.5" y1="0.5" x2="36.5" y2="108.5"/>
	</g>
	<g id="Kanji">
		<text transform="matrix(1 0 0 1 0.5 93.3799)" style="font-size:108;">痂</text>
	</g>
	<g id="StrokeNumbers" style="font-size:8;fill:#808080">
		<text transform="matrix(1 0 0 1 46.5 11.8477)">1</text>
		<text transform="matrix(1 0 0 1 28.5 21.5)">2</text>
		<text transform="matrix(1 0 0 1 22.5 34.5)">3</text>
		<text transform="matrix(1 0 0 1 5.5 37.5)">4</text>
		<text transform="matrix(1 0 0 1 2.5 66.5)">5</text>
		<text transform="matrix(1 0 0 1 34.5 44.5)">6</text>
		<text transform="matrix(1 0 0 1 40.5 35.5)">7</text>
		<text transform="matrix(1 0 0 1 62.5 58.5)">8</text>
		<text transform="matrix(1 0 0 1 69.5 40.5)">9</text>
		<text transform="matrix(1 0 0 1 72.5 86.5)">10</text>
	</g>
	<g id="StrokePaths" style="fill:none;stroke:#404040;stroke-width:3;stroke-linecap:round;stroke-linejoin:round;">
		<path d="M35.16,47.53c1.22,0.61,2.74,0.95,3.81,0.83c5.28-0.61,12.64-1.41,17.44-2.03c3.13-0.4,4.08,0.42,3.82,4.65c-0.76,12.27-2.74,24.28-6.91,36.15c-3.65,10.38-6.08,2.28-7.34,1.39"/>
		<path d="M49.63,32.93c0.22,0.33,0.26,1.78,0.15,3.43c-1.01,15.37-7.09,42.54-21.45,55.92"/>
		<path d="M66.74,42.35c0.39,0.87,1.29,2.6,1.46,3.69c1.36,8.64,1.91,33.21,1.91,46.47"/>
		<path d="M67.99,43.92c8.77-1.26,13.26-2.17,18.39-2.64c1.61-0.15,3.12,0.97,3.05,3.27C89.28,49.5,88,77,87.61,88.11"/>
		<path d="M70.42,90.61c5.14-0.51,12.67-1.86,19.38-2.49"/>
		<path d="M53.59,11.13c1.63,0.82,5.07,6.12,5.39,7.75"/>
		<path d="M24.63,24.73c1.52,0.54,4.3,0.63,5.82,0.54c15.8-0.91,42.55-2.52,56.61-3.23c2.53-0.13,4.05,0.26,5.31,0.53"/>
		<path d="M29.99,26c0,36.42-2.99,53.5-15.19,68.22"/>
		<path d="M13.5,37c3.35,2.25,8.66,9.25,9.5,12.75"/>
		<path d="M9.67,66.07c1.44,0.61,1.88,0.43,3.15-0.31c5.11-3,8.06-4.92,11.93-7.51"/>
	</g>
</svg>
