<?xml version="1.0" encoding="UTF-8"?>
<!-- Copyright (C) 2009 Ulrich Apel.
This work is distributed under the conditions of the Creative Commons
Attribution-Share Alike 3.0 Licence. This means you are free:
* to Share - to copy, distribute and transmit the work
* to Remix - to adapt the work

Under the following conditions:
* Attribution. You must attribute the work by stating your use of KanjiVG in
  your own copyright header and linking to KanjiVG's website
  (http://kanjivg.tagaini.net)
* Share Alike. If you alter, transform, or build upon this work, you may
  distribute the resulting work only under the same or similar license to this
  one.

See http://creativecommons.org/licenses/by-sa/3.0/ for more details. -->
<!DOCTYPE svg PUBLIC "-//W3C//DTD SVG 1.0//EN" "http://www.w3.org/TR/2001/REC-SVG-20010904/DTD/svg10.dtd">
<svg xmlns="http://www.w3.org/2000/svg" width="109" height="109" viewBox="0 0 109 109">
	<g id="HelperGrid" style="opacity:0.75;">
		<rect x="0.5" y="0.5" style="fill:none;stroke:#404040;" width="108" height="108"/> 
		<line style="fill:none;stroke:#404040;" x1="0.5" y1="72.51" x2="108.5" y2="72.51"/>
		<line style="fill:none;stroke:#404040;" x1="0.5" y1="36.49" x2="108.5" y2="36.49"/>
		<line style="fill:none;stroke:#404040;" x1="72.5" y1="0.5" x2="72.5" y2="108.5"/>
		<line style="fill:none;stroke:#404040;" x1="36.5" y1="0.5" x2="36.5" y2="108.5"/>
	</g>
	<g id="Kanji">
		<text transform="matrix(1 0 0 1 0.5 93.3799)" style="font-size:108;">症</text>
	</g>
	<g id="StrokeNumbers" style="font-size:8;fill:#808080">
		<text transform="matrix(1 0 0 1 48.25 13.5)">1</text>
		<text transform="matrix(1 0 0 1 32.25 25.5)">2</text>
		<text transform="matrix(1 0 0 1 26.5 38.5)">3</text>
		<text transform="matrix(1 0 0 1 8.25 40.5)">4</text>
		<text transform="matrix(1 0 0 1 5.5 72.5)">5</text>
		<text transform="matrix(1 0 0 1 45.75 39.1299)">6</text>
		<text transform="matrix(1 0 0 1 54.75 54.1299)">7</text>
		<text transform="matrix(1 0 0 1 68.5 60.5)">8</text>
		<text transform="matrix(1 0 0 1 36.5 58.5)">9</text>
		<text transform="matrix(1 0 0 1 32.25 85.5547)">10</text>
	</g>
	<g id="StrokePaths" style="fill:none;stroke:#404040;stroke-width:3;stroke-linecap:round;stroke-linejoin:round;">
		<path d="M53.59,12.13c2.84,1.11,8.87,8.33,9.43,10.55"/>
		<path d="M29.63,28.73c1.52,0.54,4.3,0.63,5.82,0.54c15.8-0.91,35.55-3.02,49.61-3.73c2.53-0.13,4.05,0.26,5.31,0.53"/>
		<path d="M33.49,30.5c0,30.5-2.24,46-14.69,63.97"/>
		<path d="M16.75,41c2.74,1.63,7.07,6.71,7.75,9.25"/>
		<path d="M13.67,68.47c1.58,0.78,2.07,0.55,3.46-0.39c5.62-3.83,8.87-6.27,13.12-9.58"/>
		<path d="M44.31,43.5c0.71,0.26,2.01,0.3,2.72,0.26c7.12-0.38,21.29-3.32,31.26-3.47c1.18-0.02,1.89,0.12,2.48,0.25"/>
		<path d="M61.71,44.28c0.79,0.97,1.72,2.61,1.81,5.78c0.42,15.25,0.23,31.67,0.23,36.86"/>
		<path d="M66.38,63.62c0.3,0.11,0.85,0.17,1.15,0.11c1.21-0.22,8.23-1.48,13.82-1.78c0.5-0.03,0.8,0.05,1.05,0.11"/>
		<path d="M44.44,59.42c0.15,0.4,2.12,2.08,2.12,4.63c0,6.7-0.43,15.45-0.43,24.37"/>
		<path d="M32.51,88.92c1.17,0.39,3.68,0.96,4.79,0.86c11.66-0.97,29.48-3.12,50.97-3.17c1.87-0.01,3.5,0.58,4.47,1.17"/>
	</g>
</svg>
