<?xml version="1.0" encoding="UTF-8"?>
<!-- Copyright (C) 2009 Ulrich Apel.
This work is distributed under the conditions of the Creative Commons
Attribution-Share Alike 3.0 Licence. This means you are free:
* to Share - to copy, distribute and transmit the work
* to Remix - to adapt the work

Under the following conditions:
* Attribution. You must attribute the work by stating your use of KanjiVG in
  your own copyright header and linking to KanjiVG's website
  (http://kanjivg.tagaini.net)
* Share Alike. If you alter, transform, or build upon this work, you may
  distribute the resulting work only under the same or similar license to this
  one.

See http://creativecommons.org/licenses/by-sa/3.0/ for more details. -->
<!DOCTYPE svg PUBLIC "-//W3C//DTD SVG 1.0//EN" "http://www.w3.org/TR/2001/REC-SVG-20010904/DTD/svg10.dtd">
<svg xmlns="http://www.w3.org/2000/svg" width="109" height="109" viewBox="0 0 109 109">
	<g id="HelperGrid" style="opacity:0.75;">
		<rect x="0.5" y="0.5" style="fill:none;stroke:#404040;" width="108" height="108"/> 
		<line style="fill:none;stroke:#404040;" x1="0.5" y1="72.51" x2="108.5" y2="72.51"/>
		<line style="fill:none;stroke:#404040;" x1="0.5" y1="36.49" x2="108.5" y2="36.49"/>
		<line style="fill:none;stroke:#404040;" x1="72.5" y1="0.5" x2="72.5" y2="108.5"/>
		<line style="fill:none;stroke:#404040;" x1="36.5" y1="0.5" x2="36.5" y2="108.5"/>
	</g>
	<g id="Kanji">
		<text transform="matrix(1 0 0 1 0.5 93.3799)" style="font-size:108;">痊</text>
	</g>
	<g id="StrokeNumbers" style="font-size:8;fill:#808080">
		<text transform="matrix(1 0 0 1 47.5 13.5)">1</text>
		<text transform="matrix(1 0 0 1 30.5 22.5)">2</text>
		<text transform="matrix(1 0 0 1 23.708 34.5)">3</text>
		<text transform="matrix(1 0 0 1 7.5 37.5)">4</text>
		<text transform="matrix(1 0 0 1 3.7158 67.5)">5</text>
		<text transform="matrix(1 0 0 1 51.5 34.5)">6</text>
		<text transform="matrix(1 0 0 1 66.5 38.5)">7</text>
		<text transform="matrix(1 0 0 1 48.5 58.5)">8</text>
		<text transform="matrix(1 0 0 1 36.25 77.5)">9</text>
		<text transform="matrix(1 0 0 1 31.5 90.8799)">10</text>
		<text transform="matrix(1 0 0 1 50.75 70.5)">11</text>
	</g>
	<g id="StrokePaths" style="fill:none;stroke:#404040;stroke-width:3;stroke-linecap:round;stroke-linejoin:round;">
		<path d="M53.34,12.63c1.78,0.87,5.54,6.51,5.89,8.25"/>
		<path d="M28.13,25.73c1.52,0.54,4.3,0.63,5.82,0.54c15.8-0.91,37.55-1.52,51.61-2.23c2.53-0.13,4.05,0.26,5.31,0.53"/>
		<path d="M30.99,27c0,1.1,0,2.18-0.01,3.25c-0.24,33.26-4.38,49.18-16.67,62.72"/>
		<path d="M14.25,36.75c2.91,2.12,7.52,8.71,8.25,12"/>
		<path d="M10.67,64.98c1.63,0.76,2.13,0.54,3.56-0.38c5.79-3.74,7.63-4.62,12.01-7.85"/>
		<path d="M59.43,31.5c0.07,0.7,0.25,1.84-0.14,2.81c-2.43,6.02-11.54,17.94-24.04,26.85"/>
		<path d="M59.19,34.94c5.08,4.12,22.1,18.22,26.69,21.35c1.56,1.06,3.56,1.52,5.12,1.82"/>
		<path d="M45.38,60.57c0.81,0.36,3.43,0.56,4.25,0.52C56.75,60.75,65.5,59,72.89,58.4c1.24-0.1,2.38,0.07,3.4,0.37"/>
		<path d="M44,76.31c0.77,0.45,3.31,0.28,4.1,0.2c8.2-0.79,16.02-1.5,25.65-2.31c0.96-0.08,3.08-0.18,4.51,0.21"/>
		<path d="M33.82,93.55c2.26,0.45,4.76,0.61,6.05,0.5c18.16-1.55,25.76-1.8,45.17-2.34c2.09-0.06,4.59,0.37,5.63,0.71"/>
		<path d="M59.62,60.72c0.71,0.86,0.71,1.38,0.71,2.07c0,4.83,0.36,24.61,0.18,29.44"/>
	</g>
</svg>
