<?xml version="1.0" encoding="UTF-8"?>
<!-- Copyright (C) 2009 Ulrich Apel.
This work is distributed under the conditions of the Creative Commons
Attribution-Share Alike 3.0 Licence. This means you are free:
* to Share - to copy, distribute and transmit the work
* to Remix - to adapt the work

Under the following conditions:
* Attribution. You must attribute the work by stating your use of KanjiVG in
  your own copyright header and linking to KanjiVG's website
  (http://kanjivg.tagaini.net)
* Share Alike. If you alter, transform, or build upon this work, you may
  distribute the resulting work only under the same or similar license to this
  one.

See http://creativecommons.org/licenses/by-sa/3.0/ for more details. -->
<!DOCTYPE svg PUBLIC "-//W3C//DTD SVG 1.0//EN" "http://www.w3.org/TR/2001/REC-SVG-20010904/DTD/svg10.dtd">
<svg xmlns="http://www.w3.org/2000/svg" width="109" height="109" viewBox="0 0 109 109">
	<g id="HelperGrid" style="opacity:0.75;">
		<rect x="0.5" y="0.5" style="fill:none;stroke:#404040;" width="108" height="108"/> 
		<line style="fill:none;stroke:#404040;" x1="0.5" y1="72.51" x2="108.5" y2="72.51"/>
		<line style="fill:none;stroke:#404040;" x1="0.5" y1="36.49" x2="108.5" y2="36.49"/>
		<line style="fill:none;stroke:#404040;" x1="72.5" y1="0.5" x2="72.5" y2="108.5"/>
		<line style="fill:none;stroke:#404040;" x1="36.5" y1="0.5" x2="36.5" y2="108.5"/>
	</g>
	<g id="Kanji">
		<text transform="matrix(1 0 0 1 0.5 93.3799)" style="font-size:108;">瘋</text>
	</g>
	<g id="StrokeNumbers" style="font-size:8;fill:#808080">
		<text transform="matrix(1 0 0 1 47.5 11.5)">1</text>
		<text transform="matrix(1 0 0 1 29.6602 21.8477)">2</text>
		<text transform="matrix(1 0 0 1 22.5 34.5)">3</text>
		<text transform="matrix(1 0 0 1 5.5 38.5)">4</text>
		<text transform="matrix(1 0 0 1 2.5 67.5)">5</text>
		<text transform="matrix(1 0 0 1 34.5 43.5)">6</text>
		<text transform="matrix(1 0 0 1 44.5 34.5)">7</text>
		<text transform="matrix(1 0 0 1 60.5 43.604)">8</text>
		<text transform="matrix(1 0 0 1 43.5 66.5293)">9</text>
		<text transform="matrix(1 0 0 1 49.5 56.5)">10</text>
		<text transform="matrix(1 0 0 1 53.5 68.5)">11</text>
		<text transform="matrix(1 0 0 1 64.5 52.5)">12</text>
		<text transform="matrix(1 0 0 1 40.5 87.5)">13</text>
		<text transform="matrix(1 0 0 1 71.5 77.5)">14</text>
	</g>
	<g id="StrokePaths" style="fill:none;stroke:#404040;stroke-width:3;stroke-linecap:round;stroke-linejoin:round;">
		<path d="M55.41,11.13c0.7,0.36,2.32,1.87,2.32,3.37c0,0.72,0.07,4.3-0.07,8.74"/>
		<path d="M25.63,25.23c1.84,0.54,5.22,0.63,7.07,0.54c19.18-0.91,38.41-2.52,55.48-3.23c3.07-0.13,4.92,0.26,6.45,0.53"/>
		<path d="M29.99,26.5c0,1.02,0,2.02-0.01,3c-0.17,34.99-3.45,48.19-14.18,66.22"/>
		<path d="M12.5,37.5c3.35,1.9,8.66,7.8,9.5,10.75"/>
		<path d="M10.17,65.07c1.44,0.61,1.88,0.43,3.15-0.31c5.11-3,8.06-4.92,11.93-7.51"/>
		<path d="M40.69,36.11c0.46,1.66,1.12,2.96,1.12,5.03C41.81,60.03,42.5,82,28,97"/>
		<path d="M41.51,37.98c10.99-0.73,35.24-3.73,38.46-3.73c3.22,0,4.85,0.89,4.43,4.36c-2.65,22.14-0.9,39.14,6.76,52.49c4.41,7.68,6.08,8.15,6.33-4.25"/>
		<path d="M71.61,40.36c0.07,0.21,0.14,0.54-0.13,0.84c-1.58,1.78-10.66,5.68-23.08,8.06"/>
		<path d="M48.03,58.31c0.43,0.33,0.97,0.58,1.05,1.01c0.58,3.13,1.18,7.25,1.99,13.18"/>
		<path d="M49.4,59.01c6.51-0.63,20.29-2.49,25-2.72c1.83-0.09,2.68,0.89,2.46,1.83c-0.78,3.21-0.92,5.88-2.19,11.22"/>
		<path d="M51.31,71.24c5.24-0.63,16.86-1.44,24.19-2.02"/>
		<path d="M60.89,49.64c0.52,0.24,0.84,1.07,0.94,1.55s0,33.27-0.1,36.26"/>
		<path d="M45.08,91.77c0.67,0.66,1.18,1.79,2.74,1.31c11.67-3.58,17.67-5.83,27.3-8.7"/>
		<path d="M69.38,77.12c4.12,3.13,9.34,11.33,10.38,15.19"/>
	</g>
</svg>
