<?xml version="1.0" encoding="UTF-8"?>
<!-- Copyright (C) 2009 Ulrich Apel.
This work is distributed under the conditions of the Creative Commons
Attribution-Share Alike 3.0 Licence. This means you are free:
* to Share - to copy, distribute and transmit the work
* to Remix - to adapt the work

Under the following conditions:
* Attribution. You must attribute the work by stating your use of KanjiVG in
  your own copyright header and linking to KanjiVG's website
  (http://kanjivg.tagaini.net)
* Share Alike. If you alter, transform, or build upon this work, you may
  distribute the resulting work only under the same or similar license to this
  one.

See http://creativecommons.org/licenses/by-sa/3.0/ for more details. -->
<!DOCTYPE svg PUBLIC "-//W3C//DTD SVG 1.0//EN" "http://www.w3.org/TR/2001/REC-SVG-20010904/DTD/svg10.dtd">
<svg xmlns="http://www.w3.org/2000/svg" width="109" height="109" viewBox="0 0 109 109">
	<g id="HelperGrid" style="opacity:0.75;">
		<rect x="0.5" y="0.5" style="fill:none;stroke:#404040;" width="108" height="108"/> 
		<line style="fill:none;stroke:#404040;" x1="0.5" y1="72.51" x2="108.5" y2="72.51"/>
		<line style="fill:none;stroke:#404040;" x1="0.5" y1="36.49" x2="108.5" y2="36.49"/>
		<line style="fill:none;stroke:#404040;" x1="72.5" y1="0.5" x2="72.5" y2="108.5"/>
		<line style="fill:none;stroke:#404040;" x1="36.5" y1="0.5" x2="36.5" y2="108.5"/>
	</g>
	<g id="Kanji">
		<text transform="matrix(1 0 0 1 0.5 93.3799)" style="font-size:108;">癜</text>
	</g>
	<g id="StrokeNumbers" style="font-size:8;fill:#808080">
		<text transform="matrix(1 0 0 1 46.5 11.3486)">1</text>
		<text transform="matrix(1 0 0 1 26.5 20.5)">2</text>
		<text transform="matrix(1 0 0 1 21.5 33.5)">3</text>
		<text transform="matrix(1 0 0 1 5.5 36.5)">4</text>
		<text transform="matrix(1 0 0 1 2.5 68.5)">5</text>
		<text transform="matrix(1 0 0 1 41.5 32.5)">6</text>
		<text transform="matrix(1 0 0 1 44.5 43.5)">7</text>
		<text transform="matrix(1 0 0 1 33.5 41.5)">8</text>
		<text transform="matrix(1 0 0 1 41.25 58.5)">9</text>
		<text transform="matrix(1 0 0 1 48.5 55.5)">10</text>
		<text transform="matrix(1 0 0 1 58.25 53.5)">11</text>
		<text transform="matrix(1 0 0 1 38.5 72.8047)">12</text>
		<text transform="matrix(1 0 0 1 36.5 83.5)">13</text>
		<text transform="matrix(1 0 0 1 49.25 89.5)">14</text>
		<text transform="matrix(1 0 0 1 61.75 41.5)">15</text>
		<text transform="matrix(1 0 0 1 72.5 29.5)">16</text>
		<text transform="matrix(1 0 0 1 67.5 59.5)">17</text>
		<text transform="matrix(1 0 0 1 65.25 78.5)">18</text>
	</g>
	<g id="StrokePaths" style="fill:none;stroke:#404040;stroke-width:3;stroke-linecap:round;stroke-linejoin:round;">
		<path d="M52.09,10.63c1.55,0.71,4.84,5.33,5.14,6.75"/>
		<path d="M24.13,23.73c1.52,0.54,4.3,0.63,5.82,0.54c15.8-0.91,40.55-3.02,54.61-3.73c2.53-0.13,4.05,0.26,5.31,0.53"/>
		<path d="M28.99,25c0,36.68-1.49,50.75-14.44,68.72"/>
		<path d="M13,36.25c3.35,2.2,8.66,9.07,9.5,12.5"/>
		<path d="M9.67,66.57c1.44,0.61,1.88,0.43,3.15-0.31c5.11-3,8.06-4.92,11.93-7.51"/>
		<path d="M37.29,34.6c1.1,0.44,2.5,0.82,3.67,0.73c6.31-0.48,15.61-2.47,18.14-2.64c1.25-0.09,1.8,1.07,1.8,2.38c0,2.19-1.19,5.12-2.15,9.75"/>
		<path d="M40.37,46.9c3.17-0.15,17.04-1.78,20.35-1.93"/>
		<path d="M40.05,35.78c0,1.47,0.27,1.56,0.23,4.35c-0.23,15.26-3.72,38.17-13.04,48.6"/>
		<path d="M41.48,61.12c0.35,0.13,1.01,0.19,1.36,0.13c1.43-0.25,14.88-1.79,18.25-1.79c0.59,0,0.94,0.06,1.24,0.13"/>
		<path d="M45.7,52c0.34,0.23,0.57,1.05,0.61,1.52c0.36,4.01,0.68,16.52,0.84,20.39"/>
		<path d="M55.69,50.91c0.34,0.23,0.63,1.05,0.62,1.52c-0.18,6.45-0.02,12.43-1.04,20.77"/>
		<path d="M38.11,75.14c0.48,0.25,1.35,0.32,1.83,0.25c3.11-0.47,17.7-1.67,21.68-1.89c0.79-0.05,1.27,0.12,1.67,0.25"/>
		<path d="M45.83,81c0.04,0.33,0.08,0.85-0.07,1.32c-0.87,2.78-6.6,8.14-12.71,12.6"/>
		<path d="M54.4,80.17c2.11,1.49,5.46,6.13,5.99,8.45"/>
		<path d="M69.18,31.44c0.82,0.81,0.98,1.91,0.97,2.71C70.04,42.37,71,48,65.65,54.29"/>
		<path d="M70.48,32.98C72.01,33.21,79,32,82.05,31.32c1.65-0.37,2.51-0.02,2.14,1.51c-0.94,3.92-1.83,8.51-1.83,11.59c0,6.6,0.77,7.34,5.82,7.34c4.34,0,5.09-1.33,5.09-6.1"/>
		<path d="M68.15,61.98c0.92,0.28,2.5,0.7,4.34,0.28c1.84-0.42,11.04-1.58,12.31-2.01s2.29,1.63,1.72,3.09C80.7,78.39,72.33,87.7,61.3,94.69"/>
		<path d="M66.95,67.61c2.57,0.63,15.14,17.6,24.09,24.56c1.39,1.08,2.41,1.81,3.71,2.17"/>
	</g>
</svg>
