<?xml version="1.0" encoding="UTF-8"?>
<!-- Copyright (C) 2009 Ulrich Apel.
This work is distributed under the conditions of the Creative Commons
Attribution-Share Alike 3.0 Licence. This means you are free:
* to Share - to copy, distribute and transmit the work
* to Remix - to adapt the work

Under the following conditions:
* Attribution. You must attribute the work by stating your use of KanjiVG in
  your own copyright header and linking to KanjiVG's website
  (http://kanjivg.tagaini.net)
* Share Alike. If you alter, transform, or build upon this work, you may
  distribute the resulting work only under the same or similar license to this
  one.

See http://creativecommons.org/licenses/by-sa/3.0/ for more details. -->
<!DOCTYPE svg PUBLIC "-//W3C//DTD SVG 1.0//EN" "http://www.w3.org/TR/2001/REC-SVG-20010904/DTD/svg10.dtd">
<svg xmlns="http://www.w3.org/2000/svg" width="109" height="109" viewBox="0 0 109 109">
	<g id="HelperGrid" style="opacity:0.75;">
		<rect x="0.5" y="0.5" style="fill:none;stroke:#404040;" width="108" height="108"/> 
		<line style="fill:none;stroke:#404040;" x1="0.5" y1="72.51" x2="108.5" y2="72.51"/>
		<line style="fill:none;stroke:#404040;" x1="0.5" y1="36.49" x2="108.5" y2="36.49"/>
		<line style="fill:none;stroke:#404040;" x1="72.5" y1="0.5" x2="72.5" y2="108.5"/>
		<line style="fill:none;stroke:#404040;" x1="36.5" y1="0.5" x2="36.5" y2="108.5"/>
	</g>
	<g id="Kanji">
		<text transform="matrix(1 0 0 1 0.5 93.3799)" style="font-size:108;">癨</text>
	</g>
	<g id="StrokeNumbers" style="font-size:8;fill:#808080">
		<text transform="matrix(1 0 0 1 46.5 11.8486)">1</text>
		<text transform="matrix(1 0 0 1 27.5 20.5)">2</text>
		<text transform="matrix(1 0 0 1 21.5 33.5)">3</text>
		<text transform="matrix(1 0 0 1 4.5 34.5)">4</text>
		<text transform="matrix(1 0 0 1 1.5 64.5)">5</text>
		<text transform="matrix(1 0 0 1 36.5 31.5)">6</text>
		<text transform="matrix(1 0 0 1 34.5 39.5)">7</text>
		<text transform="matrix(1 0 0 1 43.5 38.5)">8</text>
		<text transform="matrix(1 0 0 1 55.5 37.0293)">9</text>
		<text transform="matrix(1 0 0 1 40.5 47.5)">10</text>
		<text transform="matrix(1 0 0 1 39.5 53.5)">11</text>
		<text transform="matrix(1 0 0 1 64.5 45.5)">12</text>
		<text transform="matrix(1 0 0 1 64.5 51.5)">13</text>
		<text transform="matrix(1 0 0 1 36.5 60.5)">14</text>
		<text transform="matrix(1 0 0 1 35.5 82.5)">15</text>
		<text transform="matrix(1 0 0 1 58.25 61.5)">16</text>
		<text transform="matrix(1 0 0 1 49.25 63.4297)">17</text>
		<text transform="matrix(1 0 0 1 68.5 72.5)">18</text>
		<text transform="matrix(1 0 0 1 49.272 73.5)">19</text>
		<text transform="matrix(1 0 0 1 49.272 82.2041)">20</text>
		<text transform="matrix(1 0 0 1 49.5 92.1289)">21</text>
	</g>
	<g id="StrokePaths" style="fill:none;stroke:#404040;stroke-width:3;stroke-linecap:round;stroke-linejoin:round;">
		<path d="M52.59,10.63c1.78,0.68,5.54,5.13,5.89,6.5"/>
		<path d="M24.63,23.73c1.52,0.54,4.3,0.63,5.82,0.54c15.8-0.91,41.05-3.02,55.11-3.73c2.53-0.13,4.05,0.26,5.31,0.53"/>
		<path d="M29.49,24.5c0,0.93,0,1.85-0.01,2.75c-0.18,35.17-4.03,48.9-16.68,66.97"/>
		<path d="M11.75,34.25c3.44,2.2,8.89,9.07,9.75,12.5"/>
		<path d="M9.17,62.57c1.44,0.61,1.88,0.43,3.15-0.31c5.11-3,8.06-4.92,11.93-7.51"/>
		<path d="M43.88,31.16c1.26,0.05,3.59,0.25,4.82,0.13c6.56-0.64,23.51-2.22,29.42-2.31c1.72-0.03,2.21-0.12,3.8,0.09"/>
		<path d="M39.9,38.09c-0.21,3.98-2.1,8.38-3.5,12.4"/>
		<path d="M40.04,40.58c6.05-0.8,33.3-3.57,46.15-3.57c7.44,0,0.95,4.95-0.23,6.21"/>
		<path d="M61.63,32.9c0.74,1.07,1.07,1.77,1.08,2.82c0.01,0.38-0.22,18.04-0.22,19.07"/>
		<path d="M48.38,45.01c2.45,0.53,5.79,2.12,7.12,3"/>
		<path d="M45.93,51.23c2.52,0.67,6.41,3.13,7.79,4.25"/>
		<path d="M70.44,43.67c3.31,1.18,7.06,3.54,8.38,4.52"/>
		<path d="M71.92,51.67c2.46,0.92,5.82,3.7,7.16,5.24"/>
		<path d="M46.95,56.79c0.15,1.04-0.04,2.41-0.51,3.3c-3.01,5.7-6.83,10.52-13.73,17.46"/>
		<path d="M44.17,66.81c0.69,0.47,1.22,1.5,1.27,2.23c0.41,6.48-0.56,28.09-0.22,31.47"/>
		<path d="M68.82,56.97c0.04,0.35-0.01,0.81-0.12,1.11c-0.72,1.91-1.64,3.39-3.29,5.72"/>
		<path d="M44.24,66.95c8.02-0.61,41.04-2.89,44.48-3.22"/>
		<path d="M64.36,66.1c0.39,0.24,0.7,0.57,0.7,0.98c0,4.2,0.04,19.25-0.19,25.87"/>
		<path d="M46.31,75.92c7.57-0.5,36.69-1.98,39.94-2.25"/>
		<path d="M45.9,84.96c7.98-0.43,37.51-2.29,40.93-2.52"/>
		<path d="M45.4,94.86c8.02-0.61,42.71-2.28,46.15-2.61"/>
	</g>
</svg>
