<?xml version="1.0" encoding="UTF-8"?>
<!DOCTYPE svg PUBLIC "-//W3C//DTD SVG 1.0//EN" "http://www.w3.org/TR/2001/REC-SVG-20010904/DTD/svg10.dtd">
<svg xmlns="http://www.w3.org/2000/svg" width="109" height="109" viewBox="0 0 109 109">
	<g id="HelperGrid" style="opacity:0.75;">
		<rect x="0.5" y="0.5" style="fill:none;stroke:#404040;" width="108" height="108"/> 
		<line style="fill:none;stroke:#404040;" x1="0.5" y1="72.51" x2="108.5" y2="72.51"/>
		<line style="fill:none;stroke:#404040;" x1="0.5" y1="36.49" x2="108.5" y2="36.49"/>
		<line style="fill:none;stroke:#404040;" x1="72.5" y1="0.5" x2="72.5" y2="108.5"/>
		<line style="fill:none;stroke:#404040;" x1="36.5" y1="0.5" x2="36.5" y2="108.5"/>
	</g>
	<g id="Kanji">
		<text transform="matrix(1 0 0 1 0.5 93.3799)" style="font-size:108;">癶</text>
	</g>
	<g id="StrokeNumbers" style="font-size:8;fill:#808080">
		<text transform="matrix(1 0 0 1 21.5 28.5)">1</text>
		<text transform="matrix(1 0 0 1 11.5 43.5)">2</text>
		<text transform="matrix(1 0 0 1 52.5 23.4043)">3</text>
		<text transform="matrix(1 0 0 1 67.5 23.5)">4</text>
		<text transform="matrix(1 0 0 1 88.5 35.3291)">5</text>
	</g>
	<g id="StrokePaths" style="fill:none;stroke:#404040;stroke-width:3;stroke-linecap:round;stroke-linejoin:round;">
		<path d="M22.5,32c1.5,0.75,2.07,0.61,4.5,0.25c6.31-0.93,8.75-1.75,15.49-2.94C46.48,28.6,47.28,29.95,46,34c-3,9.5-21.25,37.25-35.5,42.25"/>
		<path d="M19.02,43.33c3.9,2.1,10.07,8.62,11.04,11.88"/>
		<path d="M53.25,26.25c2.5,0.25,30.34,38.44,36.27,45.12c2.01,2.27,3.73,3.24,5.73,3.88"/>
		<path d="M75.78,24.64c0.03,0.3,0.06,0.78-0.05,1.21c-0.65,2.56-4.35,8.17-9.42,11.61"/>
		<path d="M86.27,36.89c0.03,0.28,0.06,0.73-0.06,1.14c-0.75,2.41-5.04,7.7-10.9,10.93"/>
	</g>
</svg>
