<?xml version="1.0" encoding="UTF-8"?>
<!-- Copyright (C) 2009 Ulrich Apel.
This work is distributed under the conditions of the Creative Commons
Attribution-Share Alike 3.0 Licence. This means you are free:
* to Share - to copy, distribute and transmit the work
* to Remix - to adapt the work

Under the following conditions:
* Attribution. You must attribute the work by stating your use of KanjiVG in
  your own copyright header and linking to KanjiVG's website
  (http://kanjivg.tagaini.net)
* Share Alike. If you alter, transform, or build upon this work, you may
  distribute the resulting work only under the same or similar license to this
  one.

See http://creativecommons.org/licenses/by-sa/3.0/ for more details. -->
<!DOCTYPE svg PUBLIC "-//W3C//DTD SVG 1.0//EN" "http://www.w3.org/TR/2001/REC-SVG-20010904/DTD/svg10.dtd">
<svg xmlns="http://www.w3.org/2000/svg" width="109" height="109" viewBox="0 0 109 109">
	<g id="HelperGrid" style="opacity:0.75;">
		<rect x="0.5" y="0.5" style="fill:none;stroke:#404040;" width="108" height="108"/> 
		<line style="fill:none;stroke:#404040;" x1="0.5" y1="72.51" x2="108.5" y2="72.51"/>
		<line style="fill:none;stroke:#404040;" x1="0.5" y1="36.49" x2="108.5" y2="36.49"/>
		<line style="fill:none;stroke:#404040;" x1="72.5" y1="0.5" x2="72.5" y2="108.5"/>
		<line style="fill:none;stroke:#404040;" x1="36.5" y1="0.5" x2="36.5" y2="108.5"/>
	</g>
	<g id="Kanji">
		<text transform="matrix(1 0 0 1 0.5 93.3799)" style="font-size:108;">發</text>
	</g>
	<g id="StrokeNumbers" style="font-size:8;fill:#808080">
		<text transform="matrix(1 0 0 1 23.5 14.5)">1</text>
		<text transform="matrix(1 0 0 1 15.5 25.5)">2</text>
		<text transform="matrix(1 0 0 1 64.5 7.5)">3</text>
		<text transform="matrix(1 0 0 1 56.5 16.5)">4</text>
		<text transform="matrix(1 0 0 1 80.5 15.5)">5</text>
		<text transform="matrix(1 0 0 1 39.5 40.5)">6</text>
		<text transform="matrix(1 0 0 1 29.5 56.5)">7</text>
		<text transform="matrix(1 0 0 1 18.5 60.5)">8</text>
		<text transform="matrix(1 0 0 1 47.5 48.5)">9</text>
		<text transform="matrix(1 0 0 1 55.5 39.5)">10</text>
		<text transform="matrix(1 0 0 1 53.5 66.5)">11</text>
		<text transform="matrix(1 0 0 1 45.5 85.3047)">12</text>
	</g>
	<g id="StrokePaths" style="fill:none;stroke:#404040;stroke-width:3;stroke-linecap:round;stroke-linejoin:round;">
		<path d="M29.15,15.18c1.39,0.62,1.93,0.5,4.18,0.21c5.86-0.76,6.63-0.94,12.89-1.92c3.71-0.58,4.97,0.76,3.27,3.85C42.5,30,31.5,41.75,14,51"/>
		<path d="M22.75,25c2.62,1.63,6.77,6.7,7.42,9.24"/>
		<path d="M72.16,10.64c0.08,0.79-0.05,1.01-0.5,1.7c-1.47,2.31-4.06,6.28-8.3,8.82"/>
		<path d="M52.47,17.21c3.78,2.04,26.78,24.04,35.64,28.97c2.14,1.19,3.66,2.08,5.64,2.49"/>
		<path d="M83.91,20.2c0.11,0.69-0.09,1.28-0.58,1.78c-1.54,2.27-4.48,5.16-9.6,8.13"/>
		<path d="M29.12,43.99c0.71,0.88,1.37,1.14,2.27,0.98c0.9-0.16,8.08-0.78,9.88-1.27c1.8-0.49,2.31,1.17,1.76,2.47c-0.37,0.9-1.65,5.31-2.47,8.6c-0.37,1.48-0.65,2.73-0.72,3.32"/>
		<path d="M26.75,59.44c1.79,0,10.65-1.5,11.93-1.5s2.55,0.12,3.57,0.12"/>
		<path d="M25.84,57.72c0.54,0.65,0.46,2.42,0.11,3.45c-0.4,1.18-4.03,9.31-4.21,9.96c-0.18,0.65,0.07,2.72,1.44,1.95c1.03-0.58,13.16-2.94,16.05-3.43c2.89-0.49,3.52,0.61,3.48,2.94c-0.11,6.12-4.46,16.17-8.96,21.25c-2.66,3-4.25-0.11-5.08-1.37"/>
		<path d="M53.99,41.8c0.51,0.7,0.88,1.85,0.87,2.59c-0.11,7.6-1.1,16.15-4.21,19.54"/>
		<path d="M56.04,43.42c0.51,0.06,1.53-0.08,2.73-0.31c2.72-0.52,6.38-1.52,7.15-1.77c1.65-0.55,2.48,1.18,2.31,2.4c-0.33,2.4-1,8.96-1,11.35c0,3.92,1.33,5.72,6.76,5.72c5.27,0,6.42-1.8,6.42-5.7"/>
		<path d="M50.5,70.86c1.06,0.24,1.19,0.61,3.32,0.24c2.12-0.37,17.38-2.83,18.84-3.2c1.46-0.37,2.64,1.42,1.99,2.69C67.93,83.68,57,92,46.5,97.17"/>
		<path d="M52.02,78.06c3.05,0.46,17.97,12.82,28.6,17.88c1.65,0.79,2.86,1.31,4.4,1.58"/>
	</g>
</svg>
