<?xml version="1.0" encoding="UTF-8"?>
<!DOCTYPE svg PUBLIC "-//W3C//DTD SVG 1.0//EN" "http://www.w3.org/TR/2001/REC-SVG-20010904/DTD/svg10.dtd">
<svg xmlns="http://www.w3.org/2000/svg" width="109" height="109" viewBox="0 0 109 109">
	<g id="HelperGrid" style="opacity:0.75;">
		<rect x="0.5" y="0.5" style="fill:none;stroke:#404040;" width="108" height="108"/> 
		<line style="fill:none;stroke:#404040;" x1="0.5" y1="72.51" x2="108.5" y2="72.51"/>
		<line style="fill:none;stroke:#404040;" x1="0.5" y1="36.49" x2="108.5" y2="36.49"/>
		<line style="fill:none;stroke:#404040;" x1="72.5" y1="0.5" x2="72.5" y2="108.5"/>
		<line style="fill:none;stroke:#404040;" x1="36.5" y1="0.5" x2="36.5" y2="108.5"/>
	</g>
	<g id="Kanji">
		<text transform="matrix(1 0 0 1 0.5 93.3799)" style="font-size:108;">皓</text>
	</g>
	<g id="StrokeNumbers" style="font-size:8;fill:#808080">
		<text transform="matrix(1 0 0 1 19.25 16.25)">1</text>
		<text transform="matrix(1 0 0 1 5.25 42.25)">2</text>
		<text transform="matrix(1 0 0 1 14.25 32.5981)">3</text>
		<text transform="matrix(1 0 0 1 20.0703 54.25)">4</text>
		<text transform="matrix(1 0 0 1 20.25 77.25)">5</text>
		<text transform="matrix(1 0 0 1 46.25 20.25)">6</text>
		<text transform="matrix(1 0 0 1 59 30.25)">7</text>
		<text transform="matrix(1 0 0 1 58.25 13.25)">8</text>
		<text transform="matrix(1 0 0 1 44.25 52.25)">9</text>
		<text transform="matrix(1 0 0 1 40.25 73.25)">10</text>
		<text transform="matrix(1 0 0 1 51.25 64.25)">11</text>
		<text transform="matrix(1 0 0 1 57.25 88.25)">12</text>
	</g>
	<g id="StrokePaths" style="fill:none;stroke:#404040;stroke-width:3;stroke-linecap:round;stroke-linejoin:round;">
		<path d="M27.23,16.75c0.33,0.61,0.38,1.36,0.3,1.9c-0.46,3.16-4.42,10.71-8.03,14.95"/>
		<path d="M13.75,34.38c0.34,1.19,0.69,1.79,0.69,3.38c0,1.59,1.46,38.16,1.6,45.99"/>
		<path d="M14.64,36.13c1.94-0.2,17.55-2.29,19.31-2.53c1.47-0.2,2.42,1.33,2.3,2.51c-0.23,2.39-0.5,33.4-0.68,46.1"/>
		<path d="M15.85,58.08c3.22,0,6.5-0.54,9.7-0.87c1.05-0.11,2.11-0.22,3.13-0.32"/>
		<path d="M16.61,80.97c5.53-0.73,12.03-1.56,18.44-1.77"/>
		<path d="M54.83,20.13c0.03,0.59,0.06,1.52-0.06,2.36c-0.72,4.98-4.82,15.9-10.44,22.59"/>
		<path d="M54.88,32.57c0.69,0.35,2.96,0.43,3.65,0.35c8.48-0.97,20.61-2.28,28.4-2.59c1.15-0.05,1.84,0.17,2.42,0.34"/>
		<path d="M67.51,12.63c0.56,0.41,1.74,3.1,1.85,3.93c0.11,0.83-0.07,30.3-0.18,35.48"/>
		<path d="M42.08,54.03c1.12,0.5,3.17,0.58,4.29,0.5c11.63-0.84,30.11-2.88,47.65-3.76c1.86-0.09,2.98,0.24,3.91,0.49"/>
		<path d="M49.08,65.46c0.39,0.47,0.79,0.87,0.97,1.46c1.36,4.69,3.1,19.12,4.03,27.54"/>
		<path d="M50.75,67.08C61.25,66,80,64.53,84.95,63.86c1.81-0.24,2.9,2.44,2.64,3.87c-1.07,5.9-2.19,13.5-4.48,22.01"/>
		<path d="M54.85,91.87c9.1-0.63,23.92-1.31,30.45-1.89"/>
	</g>
</svg>
