<?xml version="1.0" encoding="UTF-8"?>
<!-- Copyright (C) 2009 Ulrich Apel.
This work is distributed under the conditions of the Creative Commons
Attribution-Share Alike 3.0 Licence. This means you are free:
* to Share - to copy, distribute and transmit the work
* to Remix - to adapt the work

Under the following conditions:
* Attribution. You must attribute the work by stating your use of KanjiVG in
  your own copyright header and linking to KanjiVG's website
  (http://kanjivg.tagaini.net)
* Share Alike. If you alter, transform, or build upon this work, you may
  distribute the resulting work only under the same or similar license to this
  one.

See http://creativecommons.org/licenses/by-sa/3.0/ for more details. -->
<!DOCTYPE svg PUBLIC "-//W3C//DTD SVG 1.0//EN" "http://www.w3.org/TR/2001/REC-SVG-20010904/DTD/svg10.dtd">
<svg xmlns="http://www.w3.org/2000/svg" width="109" height="109" viewBox="0 0 109 109">
	<g id="HelperGrid" style="opacity:0.75;">
		<rect x="0.5" y="0.5" style="fill:none;stroke:#404040;" width="108" height="108"/> 
		<line style="fill:none;stroke:#404040;" x1="0.5" y1="72.51" x2="108.5" y2="72.51"/>
		<line style="fill:none;stroke:#404040;" x1="0.5" y1="36.49" x2="108.5" y2="36.49"/>
		<line style="fill:none;stroke:#404040;" x1="72.5" y1="0.5" x2="72.5" y2="108.5"/>
		<line style="fill:none;stroke:#404040;" x1="36.5" y1="0.5" x2="36.5" y2="108.5"/>
	</g>
	<g id="Kanji">
		<text transform="matrix(1 0 0 1 0.5 93.3799)" style="font-size:108;">盾</text>
	</g>
	<g id="StrokeNumbers" style="font-size:8;fill:#808080">
		<text transform="matrix(1 0 0 1 58.5 12.1299)">1</text>
		<text transform="matrix(1 0 0 1 19.5 34.5)">2</text>
		<text transform="matrix(1 0 0 1 48.5 32.5)">3</text>
		<text transform="matrix(1 0 0 1 33.5 37.5)">4</text>
		<text transform="matrix(1 0 0 1 34.5 60.5)">5</text>
		<text transform="matrix(1 0 0 1 44.25 50.5)">6</text>
		<text transform="matrix(1 0 0 1 47.25 62.5)">7</text>
		<text transform="matrix(1 0 0 1 47.2139 74.9785)">8</text>
		<text transform="matrix(1 0 0 1 47.2061 88.4043)">9</text>
	</g>
	<g id="StrokePaths" style="fill:none;stroke:#404040;stroke-width:3;stroke-linecap:round;stroke-linejoin:round;">
		<path d="M68.99,13.25c-0.24,1.38-1.29,2.16-2.42,2.77c-8.14,4.39-17.35,8.11-35.07,11.78"/>
		<path d="M26.52,26.5c1.12,1.12,1.36,2.6,1.36,4.94c0,21.41,0.24,47.56-16.82,63.78"/>
		<path d="M31.14,40.08c2.86,0.55,5.39,0.45,7.87,0.11c11.9-1.62,33.56-4.25,45.12-4.97c2.68-0.17,5.34-0.31,7.99,0.26"/>
		<path d="M56.56,26.63c1.03,1.03,1.19,2.24,1.25,3.55c0.04,0.97-0.58,14.71-0.7,20.7"/>
		<path d="M40.52,52.16c0.85,0.85,1.35,2.16,1.35,3.42c0,0.98,0.03,24.2-0.07,34.66c-0.03,2.99-0.05,4.96-0.05,5.1"/>
		<path d="M42.7,53.4c5.43-0.52,26.68-2.96,29.52-3.15c2.36-0.16,4.03,0.76,4.03,3.56c0,1.21,0.05,25.24-0.02,34.95c-0.02,2.38-0.04,3.93-0.08,4.12"/>
		<path d="M42.98,65.62c7.52-0.62,27.13-2.76,32.13-2.76"/>
		<path d="M42.99,77.89c9.64-0.64,23.26-2.14,32.01-2.4"/>
		<path d="M42.97,91.38c7.28-0.38,24.09-1.42,32.1-1.42"/>
	</g>
</svg>
