<?xml version="1.0" encoding="UTF-8"?>
<!DOCTYPE svg PUBLIC "-//W3C//DTD SVG 1.0//EN" "http://www.w3.org/TR/2001/REC-SVG-20010904/DTD/svg10.dtd">
<svg xmlns="http://www.w3.org/2000/svg" width="109" height="109" viewBox="0 0 109 109">
	<g id="HelperGrid" style="opacity:0.75;">
		<rect x="0.5" y="0.5" style="fill:none;stroke:#404040;" width="108" height="108"/> 
		<line style="fill:none;stroke:#404040;" x1="0.5" y1="72.51" x2="108.5" y2="72.51"/>
		<line style="fill:none;stroke:#404040;" x1="0.5" y1="36.49" x2="108.5" y2="36.49"/>
		<line style="fill:none;stroke:#404040;" x1="72.5" y1="0.5" x2="72.5" y2="108.5"/>
		<line style="fill:none;stroke:#404040;" x1="36.5" y1="0.5" x2="36.5" y2="108.5"/>
	</g>
	<g id="Kanji">
		<text transform="matrix(1 0 0 1 0.5 93.3799)" style="font-size:108;">看</text>
	</g>
	<g id="StrokeNumbers" style="font-size:8;fill:#808080">
		<text transform="matrix(1 0 0 1 59.75 7.6299)">1</text>
		<text transform="matrix(1 0 0 1 14.5 34.6299)">2</text>
		<text transform="matrix(1 0 0 1 4.5 49.5547)">3</text>
		<text transform="matrix(1 0 0 1 42.5 26.5)">4</text>
		<text transform="matrix(1 0 0 1 34.5 70.5)">5</text>
		<text transform="matrix(1 0 0 1 45.5 55.5)">6</text>
		<text transform="matrix(1 0 0 1 46.5 68.5)">7</text>
		<text transform="matrix(1 0 0 1 46.4639 80.9785)">8</text>
		<text transform="matrix(1 0 0 1 46.4561 94.4043)">9</text>
	</g>
	<g id="StrokePaths" style="fill:none;stroke:#404040;stroke-width:3;stroke-linecap:round;stroke-linejoin:round;">
		<path d="M67.96,9c0,1-0.56,1.72-1.37,2.17c-4.9,2.73-19.62,7.15-37.34,10.58"/>
		<path d="M22.38,33.42c2.75,0.33,5.1,0.12,7.26-0.27c12.13-2.18,32.3-5.26,41.24-6.19c2.25-0.23,4.99-0.21,7.24,0.08"/>
		<path d="M12.15,47.62c3.73,0.76,8.07,0.6,11.47,0.11c17.88-2.6,43-5.73,61.38-7.25c3.31-0.27,7.01-0.19,10.28,0.39"/>
		<path d="M49.13,20.3c0.49,1.2,0.6,2.23,0.41,3.46C47,39.62,35,63.88,17.5,75.75"/>
		<path d="M40.72,56.02c0.82,0.82,1.09,2.27,1.09,3.63c0,4.14,0,27,0,37.48c0,2.45,0,4.21,0,4.88"/>
		<path d="M42.88,58.58c9.74-1.58,24.88-3.99,27.67-4.34c2.94-0.37,3.98,0.76,3.98,3.95c0,1.96,0,22.52,0,35.55c0,2.39,0,4.53,0,6.25"/>
		<path d="M42.91,71.16C51.5,70,67,68,73.44,67.5"/>
		<path d="M42.91,84.08c9.97-1.46,21.84-2.83,30.41-3.53"/>
		<path d="M42.88,98.05c9.62-1.18,20.87-2.55,30.52-3.02"/>
	</g>
</svg>
