<?xml version="1.0" encoding="UTF-8"?>
<!-- Copyright (C) 2009 Ulrich Apel.
This work is distributed under the conditions of the Creative Commons
Attribution-Share Alike 3.0 Licence. This means you are free:
* to Share - to copy, distribute and transmit the work
* to Remix - to adapt the work

Under the following conditions:
* Attribution. You must attribute the work by stating your use of KanjiVG in
  your own copyright header and linking to KanjiVG's website
  (http://kanjivg.tagaini.net)
* Share Alike. If you alter, transform, or build upon this work, you may
  distribute the resulting work only under the same or similar license to this
  one.

See http://creativecommons.org/licenses/by-sa/3.0/ for more details. -->
<!DOCTYPE svg PUBLIC "-//W3C//DTD SVG 1.0//EN" "http://www.w3.org/TR/2001/REC-SVG-20010904/DTD/svg10.dtd">
<svg xmlns="http://www.w3.org/2000/svg" width="109" height="109" viewBox="0 0 109 109">
	<g id="HelperGrid" style="opacity:0.75;">
		<rect x="0.5" y="0.5" style="fill:none;stroke:#404040;" width="108" height="108"/> 
		<line style="fill:none;stroke:#404040;" x1="0.5" y1="72.51" x2="108.5" y2="72.51"/>
		<line style="fill:none;stroke:#404040;" x1="0.5" y1="36.49" x2="108.5" y2="36.49"/>
		<line style="fill:none;stroke:#404040;" x1="72.5" y1="0.5" x2="72.5" y2="108.5"/>
		<line style="fill:none;stroke:#404040;" x1="36.5" y1="0.5" x2="36.5" y2="108.5"/>
	</g>
	<g id="Kanji">
		<text transform="matrix(1 0 0 1 0.5 93.3799)" style="font-size:108;">уюд</text>
	</g>
	<g id="StrokeNumbers" style="font-size:8;fill:#808080">
		<text transform="matrix(1 0 0 1 6.25 30.5)">1</text>
		<text transform="matrix(1 0 0 1 15.5 20.5)">2</text>
		<text transform="matrix(1 0 0 1 17.5 40.5)">3</text>
		<text transform="matrix(1 0 0 1 17.5 58.5)">4</text>
		<text transform="matrix(1 0 0 1 17.5 79.5)">5</text>
		<text transform="matrix(1 0 0 1 37.5 41.5)">8</text>
		<text transform="matrix(1 0 0 1 43.5 14.5)">7</text>
		<text transform="matrix(1 0 0 1 59.5 41.5)">6</text>
		<text transform="matrix(1 0 0 1 28.5 94.5)">9</text>
		<text transform="matrix(1 0 0 1 82.5 31.5)">10</text>
		<text transform="matrix(1 0 0 1 62.5 12.5)">11</text>
	</g>
	<g id="StrokePaths" style="fill:none;stroke:#404040;stroke-width:3;stroke-linecap:round;stroke-linejoin:round;">
		<path d="M12.38,23.08c0.62,0.92,0.78,2.44,0.78,4.23c0,1.79-0.11,56.36,0,58.17"/>
		<path d="M13.7,24.28c1.8-0.02,14.96-1.34,16.6-1.43c1.37-0.07,2.33,1.51,2.33,3.18c0,6.14-0.63,43.6-0.63,57.61"/>
		<path d="M13.67,44.69c3.05-0.29,6.09-0.64,9.14-0.91c0.82-0.07,1.63-0.14,2.41-0.2"/>
		<path d="M13.81,62.27c2.78-0.12,5.56-0.39,8.34-0.6c0.77-0.06,1.56-0.12,2.36-0.17"/>
		<path d="M13.11,82.69c4.9-0.26,12.62-1.42,18.81-1.39"/>
		<path d="M55.21,45.79c3.51-0.8,7.04-1.04,11.88-1.69c0.87-0.12,1.07-0.27,1.61,0"/>
		<path d="M53.33,14.87c0.85,0.57,1.36,2.57,1.53,3.72c0.17,1.14-0.06,55.03-0.06,67.33"/>
		<path d="M42.21,44.59c0.87,0.59,1.57,2.62,1.57,3.82c0,6.47,0.73,33.98,0.73,42.51"/>
		<path d="M36.99,92.89c0.39,0.86,2.76,1.15,3.74,0.64c11.52-6.03,17.72-9.09,26.57-13.99"/>
		<path d="M94.73,33c0.14,0.33,0.22,1.28-0.13,1.79c-2.31,3.27-10.22,12.27-17.67,15.61"/>
		<path d="M73.78,13.25c0.78,1.27,0.83,2.11,1.09,3.8c0.26,1.69,0.08,52.81,0.08,64.32c0,11.51,2.2,12.67,11.75,12.67S97.75,92,97.51,81.27"/>
	</g>
</svg>
