<?xml version="1.0" encoding="UTF-8"?>
<!-- Copyright (C) 2009 Ulrich Apel.
This work is distributed under the conditions of the Creative Commons
Attribution-Share Alike 3.0 Licence. This means you are free:
* to Share - to copy, distribute and transmit the work
* to Remix - to adapt the work

Under the following conditions:
* Attribution. You must attribute the work by stating your use of KanjiVG in
  your own copyright header and linking to KanjiVG's website
  (http://kanjivg.tagaini.net)
* Share Alike. If you alter, transform, or build upon this work, you may
  distribute the resulting work only under the same or similar license to this
  one.

See http://creativecommons.org/licenses/by-sa/3.0/ for more details. -->
<!DOCTYPE svg PUBLIC "-//W3C//DTD SVG 1.0//EN" "http://www.w3.org/TR/2001/REC-SVG-20010904/DTD/svg10.dtd">
<svg xmlns="http://www.w3.org/2000/svg" width="109" height="109" viewBox="0 0 109 109">
	<g id="HelperGrid" style="opacity:0.75;">
		<rect x="0.5" y="0.5" style="fill:none;stroke:#404040;" width="108" height="108"/> 
		<line style="fill:none;stroke:#404040;" x1="0.5" y1="72.51" x2="108.5" y2="72.51"/>
		<line style="fill:none;stroke:#404040;" x1="0.5" y1="36.49" x2="108.5" y2="36.49"/>
		<line style="fill:none;stroke:#404040;" x1="72.5" y1="0.5" x2="72.5" y2="108.5"/>
		<line style="fill:none;stroke:#404040;" x1="36.5" y1="0.5" x2="36.5" y2="108.5"/>
	</g>
	<g id="Kanji">
		<text transform="matrix(1 0 0 1 0.5 93.3799)" style="font-size:108;">眼</text>
	</g>
	<g id="StrokeNumbers" style="font-size:8;fill:#808080">
		<text transform="matrix(1 0 0 1 9.5 36.5)">1</text>
		<text transform="matrix(1 0 0 1 17.25 26.5)">2</text>
		<text transform="matrix(1 0 0 1 20.25 42.2803)">3</text>
		<text transform="matrix(1 0 0 1 20.25 58.7051)">4</text>
		<text transform="matrix(1 0 0 1 20.25 77.5)">5</text>
		<text transform="matrix(1 0 0 1 53.5 17.5)">6</text>
		<text transform="matrix(1 0 0 1 56.5 30.5)">7</text>
		<text transform="matrix(1 0 0 1 56.5 44.5)">8</text>
		<text transform="matrix(1 0 0 1 45.5 28.6299)">9</text>
		<text transform="matrix(1 0 0 1 82.5 45.5)">10</text>
		<text transform="matrix(1 0 0 1 62.5 54.8804)">11</text>
	</g>
	<g id="StrokePaths" style="fill:none;stroke:#404040;stroke-width:3;stroke-linecap:round;stroke-linejoin:round;">
		<path d="M14.88,29.14c0.37,1.26,0.92,2.21,0.92,3.89c0,1.69-0.12,51.54,0,53.22"/>
		<path d="M16.43,29.66c2.12-0.21,18.27-2.91,20.2-3.16c1.61-0.21,2.74,1.17,2.74,2.74c0,5.76-0.75,41.01-0.75,54.17"/>
		<path d="M16.39,45.97c3.69-0.61,7.39-1.14,11.09-1.62c1-0.13,2-0.25,2.96-0.37"/>
		<path d="M16.57,62.47c3.43-0.43,6.84-0.96,10.26-1.41c0.96-0.13,1.94-0.25,2.92-0.37"/>
		<path d="M15.73,81.26C21.5,80.5,31.25,79,38.54,78.37"/>
		<path d="M52.08,20.92c2.1-0.12,24.06-3.41,25.97-3.55c1.59-0.12,2.61,1.32,2.49,2.03c-1.04,6.59-4.29,24-5.21,27.5"/>
		<path d="M52.37,34.2c4.14-0.45,8.26-1.1,12.38-1.69c1.21-0.17,2.93-0.35,4.1-0.51"/>
		<path d="M52.32,47.83c7.22-0.91,15.35-2.23,23.19-3.11"/>
		<path d="M50.01,18.74c0.74,0.76,2.15,2.55,2.15,3.72c0,20.29,0,60.26-0.26,63.1c-0.24,2.57-1.05,6.56,1.81,4.56c2.86-2,10.35-9.16,12.73-11.74"/>
		<path d="M85.13,47.69c0.24,1.43,0.48,1.72,0.48,3.15c0,1.43-11.24,11.4-13.38,13.41"/>
		<path d="M61.52,55.92c4.09,0,25.52,27.55,28.86,29.61c4.81,2.96,5.53,2.96,7.94,3.62"/>
	</g>
</svg>
