<?xml version="1.0" encoding="UTF-8"?>
<!DOCTYPE svg PUBLIC "-//W3C//DTD SVG 1.0//EN" "http://www.w3.org/TR/2001/REC-SVG-20010904/DTD/svg10.dtd">
<svg xmlns="http://www.w3.org/2000/svg" width="109" height="109" viewBox="0 0 109 109">
	<g id="HelperGrid" style="opacity:0.75;">
		<rect x="0.5" y="0.5" style="fill:none;stroke:#404040;" width="108" height="108"/> 
		<line style="fill:none;stroke:#404040;" x1="0.5" y1="72.51" x2="108.5" y2="72.51"/>
		<line style="fill:none;stroke:#404040;" x1="0.5" y1="36.49" x2="108.5" y2="36.49"/>
		<line style="fill:none;stroke:#404040;" x1="72.5" y1="0.5" x2="72.5" y2="108.5"/>
		<line style="fill:none;stroke:#404040;" x1="36.5" y1="0.5" x2="36.5" y2="108.5"/>
	</g>
	<g id="Kanji">
		<text transform="matrix(1 0 0 1 0.5 93.3799)" style="font-size:108;">瞑</text>
	</g>
	<g id="StrokeNumbers" style="font-size:8;fill:#808080">
		<text transform="matrix(1 0 0 1 5.5 29.5)">1</text>
		<text transform="matrix(1 0 0 1 14.5 18.5)">2</text>
		<text transform="matrix(1 0 0 1 16.6719 37.8481)">3</text>
		<text transform="matrix(1 0 0 1 16.5 56.8477)">4</text>
		<text transform="matrix(1 0 0 1 16.6797 77.8477)">5</text>
		<text transform="matrix(1 0 0 1 35.25 15.5)">6</text>
		<text transform="matrix(1 0 0 1 44.5 14.5)">7</text>
		<text transform="matrix(1 0 0 1 42.25 38.5)">8</text>
		<text transform="matrix(1 0 0 1 52.5 28.5)">9</text>
		<text transform="matrix(1 0 0 1 54.5 39.4541)">10</text>
		<text transform="matrix(1 0 0 1 56.5 51)">11</text>
		<text transform="matrix(1 0 0 1 53.5 63.5)">12</text>
		<text transform="matrix(1 0 0 1 35.5 68.5)">13</text>
		<text transform="matrix(1 0 0 1 44.5 81.5)">14</text>
		<text transform="matrix(1 0 0 1 65.5 82.5)">15</text>
	</g>
	<g id="StrokePaths" style="fill:none;stroke:#404040;stroke-width:3;stroke-linecap:round;stroke-linejoin:round;">
		<path d="M11.88,20.57c0.29,1.36,0.71,2.4,0.71,4.16c0,1.77-0.1,57.47,0,59.25"/>
		<path d="M13.07,21.76c1.62-0.02,13.48-1.82,14.96-1.9c1.23-0.07,2.1,1.49,2.1,3.13c0,6.04-0.57,44.89-0.57,58.68"/>
		<path d="M13.04,41.34C17.52,40.88,24,40,29.39,39.55"/>
		<path d="M12.67,60.14c4.3-0.21,11.08-1.14,16.79-1.58"/>
		<path d="M12.54,79.75c4.41-0.25,11.37-1.4,16.95-1.37"/>
		<path d="M64.73,58.12c0.57,0.48,1.51,2.35,1.51,3.32c0,3.81-0.02,7.19-0.08,9.93"/>
		<path d="M36.88,72.06c1.37,0.69,3.62,0.94,6.37,0.8c16.69-0.87,28.67-2.17,47.51-3.07c2.47-0.12,4.74,0.21,6.57,1.02"/>
		<path d="M55.57,79.08c0.45,0.83,0.23,3.01-0.53,4C50.89,88.45,44.28,93.33,35.69,98"/>
		<path d="M75.25,77.65c8.22,6.12,15,13.19,19.11,20.63"/>
		<path d="M41.56,14.83c0,4.07-2.82,15.28-4.11,17.99"/>
		<path d="M41.87,17.61c7.17-0.86,43.71-3.4,49.52-3.78c9.94-0.65,1.37,7.37-0.9,9.22"/>
		<path d="M47.4,30.18c0.24,0.29,0.83,1.4,1.23,2.51c1.73,4.8,2.85,13.85,3.92,22.81"/>
		<path d="M48.84,31.9c8.56-1.21,27.03-3.39,33.5-3.72C86,28,87,29.5,86.77,31.95c-0.46,4.84-2,13.49-4.27,22.7"/>
		<path d="M51.44,42.76c2.79-0.47,29.56-2.51,33.81-2.44"/>
		<path d="M52.95,53.77c6.17-0.52,19.3-1.27,29.89-1.39"/>
	</g>
</svg>
