<?xml version="1.0" encoding="UTF-8"?>
<!-- Copyright (C) 2009 Ulrich Apel.
This work is distributed under the conditions of the Creative Commons
Attribution-Share Alike 3.0 Licence. This means you are free:
* to Share - to copy, distribute and transmit the work
* to Remix - to adapt the work

Under the following conditions:
* Attribution. You must attribute the work by stating your use of KanjiVG in
  your own copyright header and linking to KanjiVG's website
  (http://kanjivg.tagaini.net)
* Share Alike. If you alter, transform, or build upon this work, you may
  distribute the resulting work only under the same or similar license to this
  one.

See http://creativecommons.org/licenses/by-sa/3.0/ for more details. -->
<!DOCTYPE svg PUBLIC "-//W3C//DTD SVG 1.0//EN" "http://www.w3.org/TR/2001/REC-SVG-20010904/DTD/svg10.dtd">
<svg xmlns="http://www.w3.org/2000/svg" width="109" height="109" viewBox="0 0 109 109">
	<g id="HelperGrid" style="opacity:0.75;">
		<rect x="0.5" y="0.5" style="fill:none;stroke:#404040;" width="108" height="108"/> 
		<line style="fill:none;stroke:#404040;" x1="0.5" y1="72.51" x2="108.5" y2="72.51"/>
		<line style="fill:none;stroke:#404040;" x1="0.5" y1="36.49" x2="108.5" y2="36.49"/>
		<line style="fill:none;stroke:#404040;" x1="72.5" y1="0.5" x2="72.5" y2="108.5"/>
		<line style="fill:none;stroke:#404040;" x1="36.5" y1="0.5" x2="36.5" y2="108.5"/>
	</g>
	<g id="Kanji">
		<text transform="matrix(1 0 0 1 0.5 93.3799)" style="font-size:108;">瞭</text>
	</g>
	<g id="StrokeNumbers" style="font-size:8;fill:#808080">
		<text transform="matrix(1 0 0 1 6.5981 34.25)">1</text>
		<text transform="matrix(1 0 0 1 15.25 24.25)">2</text>
		<text transform="matrix(1 0 0 1 17.4219 41.25)">3</text>
		<text transform="matrix(1 0 0 1 17.25 59.25)">4</text>
		<text transform="matrix(1 0 0 1 17.4297 79.25)">5</text>
		<text transform="matrix(1 0 0 1 37.25 21.25)">6</text>
		<text transform="matrix(1 0 0 1 55.25 10.9297)">7</text>
		<text transform="matrix(1 0 0 1 77 27.854)">8</text>
		<text transform="matrix(1 0 0 1 45.25 32.25)">9</text>
		<text transform="matrix(1 0 0 1 92.25 28.7041)">10</text>
		<text transform="matrix(1 0 0 1 41.25 56.6299)">11</text>
		<text transform="matrix(1 0 0 1 56 43.5547)">12</text>
		<text transform="matrix(1 0 0 1 56 53.25)">13</text>
		<text transform="matrix(1 0 0 1 56 63.25)">14</text>
		<text transform="matrix(1 0 0 1 56.25 74.25)">15</text>
		<text transform="matrix(1 0 0 1 42.25 76.25)">16</text>
		<text transform="matrix(1 0 0 1 81 74.1797)">17</text>
	</g>
	<g id="StrokePaths" style="fill:none;stroke:#404040;stroke-width:3;stroke-linecap:round;stroke-linejoin:round;">
		<path d="M12.37,25.59c0.9,0.9,0.91,1.8,0.91,3.69c0,1.47,0.07,55.99,0.07,56.73"/>
		<path d="M14.22,27.39c2.45-0.41,9.18-1.57,12.4-2.05c2.83-0.42,3.55,0.87,3.57,3.67c0.06,7.32,0.03,39.88,0.04,54.7"/>
		<path d="M14.2,44.82c4.59-0.47,9.99-1.19,14.74-1.67"/>
		<path d="M14.32,63.24c4.89-0.49,10.93-1.24,14.86-1.4"/>
		<path d="M14.21,83.24c3.85-0.65,10.26-1.38,15.01-1.41"/>
		<path d="M40.73,23.6c3.52,0.77,6.88,0.29,9.38-0.06c9.01-1.29,22.73-2.72,32.28-3.43c2.86-0.21,5.77-0.57,8.6,0.07"/>
		<path d="M62.26,12.5c0.49,1,0.46,2.13,0.14,3.26C58.5,29.75,51.5,41.38,36.25,51.51"/>
		<path d="M68.93,22.42c4.49,4.14,13.12,13.06,19.27,18.26C90.5,42.62,92.5,44,95,45.25"/>
		<path d="M40.27,31.83c2.57,1.17,6.65,4.81,7.29,6.63"/>
		<path d="M88.77,26.14c0.04,0.29,0.08,0.74-0.08,1.15c-0.49,1.29-2.22,3.4-4.82,5.58"/>
		<path d="M47.74,46.32c0.72,0.72,1.13,1.43,1.38,2.58c0.85,3.9,1.82,8.69,2.68,13.37c0.3,1.62,0.58,3.22,0.85,4.77"/>
		<path d="M49.87,47.53c7.72-0.87,21.49-2.26,28.63-3.1c3.66-0.43,5.24,0.69,4.69,3.95c-0.56,3.29-1.42,8.06-2.2,12.49c-0.29,1.64-0.56,3.23-0.8,4.68"/>
		<path d="M51.7,56.1c2.75-0.37,27.95-2.35,30.22-2.5"/>
		<path d="M53.59,65.54c6.09-0.41,16.66-1.42,25.86-1.8"/>
		<path d="M66.36,67.37c0.95,0.95,1.27,2.38,1.27,4.23c0,11.82-0.01,16.88-0.01,20.9c0,9.14-5.55,0.73-6.77-0.29"/>
		<path d="M52.95,74.68c0.13,1.02-0.09,1.95-0.68,2.79c-1.94,3.26-7.35,7.82-16.52,13.79"/>
		<path d="M80.21,74.37C84.81,76.95,92.1,84.98,93.25,89"/>
	</g>
</svg>
