<?xml version="1.0" encoding="UTF-8"?>
<!-- Copyright (C) 2009 Ulrich Apel.
This work is distributed under the conditions of the Creative Commons
Attribution-Share Alike 3.0 Licence. This means you are free:
* to Share - to copy, distribute and transmit the work
* to Remix - to adapt the work

Under the following conditions:
* Attribution. You must attribute the work by stating your use of KanjiVG in
  your own copyright header and linking to KanjiVG's website
  (http://kanjivg.tagaini.net)
* Share Alike. If you alter, transform, or build upon this work, you may
  distribute the resulting work only under the same or similar license to this
  one.

See http://creativecommons.org/licenses/by-sa/3.0/ for more details. -->
<!DOCTYPE svg PUBLIC "-//W3C//DTD SVG 1.0//EN" "http://www.w3.org/TR/2001/REC-SVG-20010904/DTD/svg10.dtd">
<svg xmlns="http://www.w3.org/2000/svg" width="109" height="109" viewBox="0 0 109 109">
	<g id="HelperGrid" style="opacity:0.75;">
		<rect x="0.5" y="0.5" style="fill:none;stroke:#404040;" width="108" height="108"/> 
		<line style="fill:none;stroke:#404040;" x1="0.5" y1="72.51" x2="108.5" y2="72.51"/>
		<line style="fill:none;stroke:#404040;" x1="0.5" y1="36.49" x2="108.5" y2="36.49"/>
		<line style="fill:none;stroke:#404040;" x1="72.5" y1="0.5" x2="72.5" y2="108.5"/>
		<line style="fill:none;stroke:#404040;" x1="36.5" y1="0.5" x2="36.5" y2="108.5"/>
	</g>
	<g id="Kanji">
		<text transform="matrix(1 0 0 1 0.5 93.3799)" style="font-size:108;">碑</text>
	</g>
	<g id="StrokeNumbers" style="font-size:8;fill:#808080">
		<text transform="matrix(1 0 0 1 6.5 25.6299)">1</text>
		<text transform="matrix(1 0 0 1 18.5 35.5)">2</text>
		<text transform="matrix(1 0 0 1 15.5 67.5)">3</text>
		<text transform="matrix(1 0 0 1 26.5 50.5)">4</text>
		<text transform="matrix(1 0 0 1 26.5 74.5)">5</text>
		<text transform="matrix(1 0 0 1 60.5 10.5)">6</text>
		<text transform="matrix(1 0 0 1 45.75 36.1299)">7</text>
		<text transform="matrix(1 0 0 1 54.5 23.5)">8</text>
		<text transform="matrix(1 0 0 1 75.75 33.1299)">9</text>
		<text transform="matrix(1 0 0 1 57.75 35.5)">10</text>
		<text transform="matrix(1 0 0 1 57.75 47.5)">11</text>
		<text transform="matrix(1 0 0 1 51.5 60.5)">12</text>
		<text transform="matrix(1 0 0 1 44.25 67.4053)">13</text>
		<text transform="matrix(1 0 0 1 69.5 58.5)">14</text>
	</g>
	<g id="StrokePaths" style="fill:none;stroke:#404040;stroke-width:3;stroke-linecap:round;stroke-linejoin:round;">
		<path d="M12.38,25.46c0.69,0.22,1.96,0.28,2.64,0.22c8.63-0.77,14.67-1.38,26.2-2.71c1.14-0.13,1.84,0.1,2.41,0.21"/>
		<path d="M27.2,27.64c0.05,0.85,0.1,2.21-0.09,3.44c-1.14,7.25-7.67,23.16-16.61,32.9"/>
		<path d="M20.5,52.81c0.28,0.46,0.64,0.83,0.68,1.42c0.57,7.02,1.12,18.6,1.78,26.77"/>
		<path d="M22.23,54.8c6.77-1.76,15.11-2.31,18.37-2.91c1.19-0.22,1.9,1.3,1.73,2.58c-0.71,5.31-3.53,14.74-4.58,22.08"/>
		<path d="M23.09,78.6c5.91-1.1,10.16-1.35,17.85-1.88"/>
		<path d="M69.29,10.64c0.02,0.33,0.04,0.84-0.03,1.31c-0.41,2.76-2.75,8.81-5.94,12.52"/>
		<path d="M51.99,26.59c0.29,0.43,0.3,0.73,0.46,1.27c1.33,4.46,2.58,16.02,3.4,24.35"/>
		<path d="M53.37,27.69c10.29-1.12,28.23-3.46,35.92-4.4c2.82-0.35,3.92,0.6,3.72,2.96c-0.38,4.52-2.25,15.82-3.54,23.34"/>
		<path d="M70.2,26.97c0.85,1.07,1.28,1.22,1.3,1.92c0.24,6.31,0.09,15.93,0.09,19.41"/>
		<path d="M55.29,38.73c7.86-1.03,15.76-1.8,23.64-2.66c0.94-0.1,1.86-0.2,2.74-0.3"/>
		<path d="M56.39,50.21c7.41-0.48,22.85-1.98,33.08-2.76"/>
		<path d="M63.48,53.43c0.03,0.43,0.18,1.14-0.06,1.71c-1.7,4.13-5.25,10.36-9.92,16.36"/>
		<path d="M48.25,70.81c0.65,0.25,2.4,0.93,4.14,0.75c11.72-1.24,31.25-3.82,42.38-4.06c1.74-0.04,3.15,0.07,4.24,0.32"/>
		<path d="M77.87,51.25c1.09,0.5,1.74,2.25,1.96,3.25c0.22,1,0,38.25-0.22,44.5"/>
	</g>
</svg>
