<?xml version="1.0" encoding="UTF-8"?>
<!-- Copyright (C) 2009 Ulrich Apel.
This work is distributed under the conditions of the Creative Commons
Attribution-Share Alike 3.0 Licence. This means you are free:
* to Share - to copy, distribute and transmit the work
* to Remix - to adapt the work

Under the following conditions:
* Attribution. You must attribute the work by stating your use of KanjiVG in
  your own copyright header and linking to KanjiVG's website
  (http://kanjivg.tagaini.net)
* Share Alike. If you alter, transform, or build upon this work, you may
  distribute the resulting work only under the same or similar license to this
  one.

See http://creativecommons.org/licenses/by-sa/3.0/ for more details. -->
<!DOCTYPE svg PUBLIC "-//W3C//DTD SVG 1.0//EN" "http://www.w3.org/TR/2001/REC-SVG-20010904/DTD/svg10.dtd">
<svg xmlns="http://www.w3.org/2000/svg" width="109" height="109" viewBox="0 0 109 109">
	<g id="HelperGrid" style="opacity:0.75;">
		<rect x="0.5" y="0.5" style="fill:none;stroke:#404040;" width="108" height="108"/> 
		<line style="fill:none;stroke:#404040;" x1="0.5" y1="72.51" x2="108.5" y2="72.51"/>
		<line style="fill:none;stroke:#404040;" x1="0.5" y1="36.49" x2="108.5" y2="36.49"/>
		<line style="fill:none;stroke:#404040;" x1="72.5" y1="0.5" x2="72.5" y2="108.5"/>
		<line style="fill:none;stroke:#404040;" x1="36.5" y1="0.5" x2="36.5" y2="108.5"/>
	</g>
	<g id="Kanji">
		<text transform="matrix(1 0 0 1 0.5 93.3799)" style="font-size:108;">磆</text>
	</g>
	<g id="StrokeNumbers" style="font-size:8;fill:#808080">
		<text transform="matrix(1 0 0 1 11.25 20.3799)">1</text>
		<text transform="matrix(1 0 0 1 17.5 34.5)">2</text>
		<text transform="matrix(1 0 0 1 14 67.5)">3</text>
		<text transform="matrix(1 0 0 1 22.5 52.5)">4</text>
		<text transform="matrix(1 0 0 1 25.5 75.5)">5</text>
		<text transform="matrix(1 0 0 1 48 19.5)">6</text>
		<text transform="matrix(1 0 0 1 57.5 12.1748)">7</text>
		<text transform="matrix(1 0 0 1 70.25 20.5244)">8</text>
		<text transform="matrix(1 0 0 1 63.25 30.8491)">9</text>
		<text transform="matrix(1 0 0 1 37.25 39.6992)">10</text>
		<text transform="matrix(1 0 0 1 47.25 36.625)">11</text>
		<text transform="matrix(1 0 0 1 46.25 56.5498)">12</text>
		<text transform="matrix(1 0 0 1 56.25 47.4741)">13</text>
		<text transform="matrix(1 0 0 1 58.25 60.3994)">14</text>
		<text transform="matrix(1 0 0 1 58.25 73.3242)">15</text>
	</g>
	<g id="StrokePaths" style="fill:none;stroke:#404040;stroke-width:3;stroke-linecap:round;stroke-linejoin:round;">
		<path d="M12.38,23.75c0.72,0.21,2.05,0.27,2.77,0.21c9.05-0.74,15.37-1.29,27.46-2.57c1.2-0.13,1.93,0.1,2.53,0.21"/>
		<path d="M26.2,26.43c0.05,0.93,0.11,2.39-0.1,3.72c-1.26,7.85-7.97,24.56-17.84,35.1"/>
		<path d="M18.79,55.79c0.3,0.46,0.6,0.85,0.73,1.43c1.03,4.6,1.77,17.27,2.48,25.53"/>
		<path d="M20.25,56.25c7.22-1.98,14.75-2.33,18.23-3.01c1.27-0.25,2.03,1.46,1.85,2.9c-1.06,8.42-1.96,14.18-2.83,20.61"/>
		<path d="M23.25,79.5c4.75-0.27,9.96-1.57,16.19-1.91"/>
		<path d="M54.22,13.21c0.4,0.54,0.76,1.75,0.81,2.47c0.26,3.7,1.1,22.26,1.1,22.62"/>
		<path d="M55.75,14.5c2.22-0.09,26.99-2.16,29.01-2.26c1.68-0.09,2.76,0.95,2.64,1.47c-0.88,3.77-1.85,12.76-2.83,21.76"/>
		<path d="M71,23.72c2.05-0.06,12.67-1.41,14.53-1.58"/>
		<path d="M69.27,22.5c0.15,0.51,0.79,1.63,0.81,2.31c0.1,3.02,0.23,12.33,0.23,12.67"/>
		<path d="M47.5,37.25c0,3.15-2.57,11.4-3.46,13.5"/>
		<path d="M48,39.5c8.09-1.25,39.91-2.87,45.22-3.19c8.29-0.49,1.76,5.12-0.31,6.9"/>
		<path d="M55.11,49.12c0.56,0.7,0.93,1.4,1.11,2.1s0.26,45.01,0.19,46.58"/>
		<path d="M57.34,49.85c2.17-0.18,22.01-1.68,23.62-1.87c2.88-0.35,3.97,2.3,3.61,3.36c-0.35,1.02-0.54,26.14-0.54,40.45c0,9.19-4.33,3.18-6.13,1.59"/>
		<path d="M57.35,63.23c4.56-0.31,9.12-0.71,13.67-1.08c1.22-0.1,2.43-0.2,3.62-0.29"/>
		<path d="M56.89,75.88c4.35-0.2,9.69-0.54,14.03-0.83c1.27-0.09,2.55-0.17,3.81-0.25"/>
	</g>
</svg>
