<?xml version="1.0" encoding="UTF-8"?>
<!DOCTYPE svg PUBLIC "-//W3C//DTD SVG 1.0//EN" "http://www.w3.org/TR/2001/REC-SVG-20010904/DTD/svg10.dtd">
<svg xmlns="http://www.w3.org/2000/svg" width="109" height="109" viewBox="0 0 109 109">
	<g id="HelperGrid" style="opacity:0.75;">
		<rect x="0.5" y="0.5" style="fill:none;stroke:#404040;" width="108" height="108"/> 
		<line style="fill:none;stroke:#404040;" x1="0.5" y1="72.51" x2="108.5" y2="72.51"/>
		<line style="fill:none;stroke:#404040;" x1="0.5" y1="36.49" x2="108.5" y2="36.49"/>
		<line style="fill:none;stroke:#404040;" x1="72.5" y1="0.5" x2="72.5" y2="108.5"/>
		<line style="fill:none;stroke:#404040;" x1="36.5" y1="0.5" x2="36.5" y2="108.5"/>
	</g>
	<g id="Kanji">
		<text transform="matrix(1 0 0 1 0.5 93.3799)" style="font-size:108;">神</text>
	</g>
	<g id="StrokeNumbers" style="font-size:8;fill:#808080">
		<text transform="matrix(1 0 0 1 20.25 17.5)">1</text>
		<text transform="matrix(1 0 0 1 6.75 39.1299)">2</text>
		<text transform="matrix(1 0 0 1 26.25 65.5)">3</text>
		<text transform="matrix(1 0 0 1 39.5 51.5)">4</text>
		<text transform="matrix(1 0 0 1 46.5 40.6299)">5</text>
		<text transform="matrix(1 0 0 1 54.5 28.6299)">6</text>
		<text transform="matrix(1 0 0 1 59.5 42.1299)">7</text>
		<text transform="matrix(1 0 0 1 60.5 58.5)">8</text>
		<text transform="matrix(1 0 0 1 63.5 11.5)">9</text>
	</g>
	<g id="StrokePaths" style="fill:none;stroke:#404040;stroke-width:3;stroke-linecap:round;stroke-linejoin:round;">
		<path d="M27.5,16.25c3.33,1.82,7.25,5,9.25,7.5"/>
		<path d="M14.25,39c2,0.75,3.14,0.81,5.25,0.5c4.25-0.62,13-2.75,17.5-4.25c2.48-0.83,3.89,1.18,2.5,3.5c-5.25,8.75-17.5,23.5-29.25,31.5"/>
		<path d="M31.43,51.87c0.73,0.73,1.38,1.78,1.38,3.64c0,9.81,0.02,25.74,0.02,33.62c0,2.16,0,3.72,0,4.37"/>
		<path d="M33.75,50.62c4.51,2.61,10.38,7.05,14.25,11.62"/>
		<path d="M51.5,30.24c0.88,0.88,1.62,2,1.73,2.76c1.02,7.12,2.54,18.05,3.43,28.36c0.11,1.27,0.21,2.53,0.29,3.77"/>
		<path d="M53.94,31.67c14.58-2.39,28.61-4.67,36.95-5.45c3.64-0.34,6.23,0.81,5.79,4.8c-0.66,5.93-2.39,17.44-4.34,26.25c-0.24,1.07-0.48,2.1-0.72,3.07"/>
		<path d="M56.21,45.72c3.52-0.3,33.67-3.22,37.86-3.47"/>
		<path d="M58.01,61.78C68,61,79,59.75,90.8,59.18"/>
		<path d="M72.87,10.25c1.07,1.06,1.71,2.75,1.71,4.5c0,3.63-0.17,55.28-0.21,77.5c-0.01,3.03-0.01,5.51-0.01,7.25"/>
	</g>
</svg>
