<?xml version="1.0" encoding="UTF-8"?>
<!DOCTYPE svg PUBLIC "-//W3C//DTD SVG 1.0//EN" "http://www.w3.org/TR/2001/REC-SVG-20010904/DTD/svg10.dtd">
<svg xmlns="http://www.w3.org/2000/svg" width="109" height="109" viewBox="0 0 109 109">
	<g id="HelperGrid" style="opacity:0.75;">
		<rect x="0.5" y="0.5" style="fill:none;stroke:#404040;" width="108" height="108"/> 
		<line style="fill:none;stroke:#404040;" x1="0.5" y1="72.51" x2="108.5" y2="72.51"/>
		<line style="fill:none;stroke:#404040;" x1="0.5" y1="36.49" x2="108.5" y2="36.49"/>
		<line style="fill:none;stroke:#404040;" x1="72.5" y1="0.5" x2="72.5" y2="108.5"/>
		<line style="fill:none;stroke:#404040;" x1="36.5" y1="0.5" x2="36.5" y2="108.5"/>
	</g>
	<g id="Kanji">
		<text transform="matrix(1 0 0 1 0.5 93.3799)" style="font-size:108;">秋</text>
	</g>
	<g id="StrokeNumbers" style="font-size:8;fill:#808080">
		<text transform="matrix(1 0 0 1 39.75 10.6299)">1</text>
		<text transform="matrix(1 0 0 1 2.25 42.1299)">2</text>
		<text transform="matrix(1 0 0 1 36.75 33.1299)">3</text>
		<text transform="matrix(1 0 0 1 18.75 55.6299)">4</text>
		<text transform="matrix(1 0 0 1 39.75 52.6299)">5</text>
		<text transform="matrix(1 0 0 1 54.75 39.1299)">6</text>
		<text transform="matrix(1 0 0 1 90.75 33.1299)">7</text>
		<text transform="matrix(1 0 0 1 59.25 13.6299)">8</text>
		<text transform="matrix(1 0 0 1 77.25 64.6299)">9</text>
	</g>
	<g id="StrokePaths" style="fill:none;stroke:#404040;stroke-width:3;stroke-linecap:round;stroke-linejoin:round;">
		<path d="M39.62,15.38c-0.12,1.25-0.96,2.35-1.7,2.99c-5.2,4.45-12.22,8.98-23.42,13.39"/>
		<path d="M8.74,43.6c0.75,0.21,2.75,0.47,4.74,0.37c7.21-0.34,16.66-1.97,27.75-3.64c1.97-0.3,3-0.46,4.24-0.25"/>
		<path d="M29.08,28.16c1.01,1.01,1.42,2.59,1.42,4.09c0,6.99-0.05,40.67-0.05,55.5c0,2.25-0.03,4.04-0.04,5"/>
		<path d="M29.43,42.97c0,1.53-0.82,3.59-1.12,4.4c-3.6,9.6-8.94,20.27-16.31,27.88"/>
		<path d="M34,52c3.3,1.92,6.1,5.77,7.88,8.25"/>
		<path d="M51,41c1.92,2.82,4.72,10.81,5.25,13.62"/>
		<path d="M87,35.75c0.25,1.38-0.09,2.6-0.94,4.18c-1.52,2.81-5.43,9.2-9.56,13.07"/>
		<path d="M66.46,16.75c1.17,1.12,1.83,2.7,1.86,3.92C69.38,59.88,62,78.5,41.75,91.5"/>
		<path d="M67.32,55.54c6.72,12.87,16.04,24.3,22.59,30.72c1.95,1.91,3.71,3.68,6.34,4.48"/>
	</g>
</svg>
