<?xml version="1.0" encoding="UTF-8"?>
<!DOCTYPE svg PUBLIC "-//W3C//DTD SVG 1.0//EN" "http://www.w3.org/TR/2001/REC-SVG-20010904/DTD/svg10.dtd">
<svg xmlns="http://www.w3.org/2000/svg" width="109" height="109" viewBox="0 0 109 109">
	<g id="HelperGrid" style="opacity:0.75;">
		<rect x="0.5" y="0.5" style="fill:none;stroke:#404040;" width="108" height="108"/> 
		<line style="fill:none;stroke:#404040;" x1="0.5" y1="72.51" x2="108.5" y2="72.51"/>
		<line style="fill:none;stroke:#404040;" x1="0.5" y1="36.49" x2="108.5" y2="36.49"/>
		<line style="fill:none;stroke:#404040;" x1="72.5" y1="0.5" x2="72.5" y2="108.5"/>
		<line style="fill:none;stroke:#404040;" x1="36.5" y1="0.5" x2="36.5" y2="108.5"/>
	</g>
	<g id="Kanji">
		<text transform="matrix(1 0 0 1 0.5 93.3799)" style="font-size:108;">称</text>
	</g>
	<g id="StrokeNumbers" style="font-size:8;fill:#808080">
		<text transform="matrix(1 0 0 1 34.5 16.6299)">1</text>
		<text transform="matrix(1 0 0 1 4.5 47.5)">2</text>
		<text transform="matrix(1 0 0 1 24.75 37.5)">3</text>
		<text transform="matrix(1 0 0 1 20.25 57.0547)">4</text>
		<text transform="matrix(1 0 0 1 37.5 53.5)">5</text>
		<text transform="matrix(1 0 0 1 56.5 16.5)">6</text>
		<text transform="matrix(1 0 0 1 66.75 34.5547)">7</text>
		<text transform="matrix(1 0 0 1 64.5 47.979)">8</text>
		<text transform="matrix(1 0 0 1 51.5 59.5)">9</text>
		<text transform="matrix(1 0 0 1 81.5 53.5)">10</text>
	</g>
	<g id="StrokePaths" style="fill:none;stroke:#404040;stroke-width:3;stroke-linecap:round;stroke-linejoin:round;">
		<path d="M42.75,16.75c0.07,0.34,0.25,0.95-0.14,1.35c-3.36,3.4-11.36,8.15-23.86,12.9"/>
		<path d="M11.37,46.08c0.37,0.17,1.36,0.45,2.34,0.51c2.71,0.17,24.9-2.56,31.68-3.41c0.98-0.12,1.23-0.17,1.85,0"/>
		<path d="M31.83,27.66c0.17,0.84,1.08,2.86,1.16,3.69c0.07,0.83-0.07,58.71-0.07,58.9c0,9-5.04,3.12-6.41,1.75"/>
		<path d="M32.93,46.72C28.99,56.97,22.42,69.62,13.5,78"/>
		<path d="M36.25,54.75c3.25,1.75,6,5.25,7.75,7.5"/>
		<path d="M65.51,16.14c0.05,0.85,0.25,2.22-0.11,3.41c-2.15,7.2-8.96,22.97-19.4,32.63"/>
		<path d="M56.98,38.24c1.48,0.08,2.61,0.01,3.54-0.04c12.24-0.69,23.04-3.97,29.34-4.35c1.53-0.09,2.46,0.18,3.23,0.37"/>
		<path d="M71.12,39.69c0.07,0.4,0.99,2.11,1.06,4.67c0.34,12.32-0.22,40.77-0.22,44.97c0,9.52-6.1,1.27-7.37,0.21"/>
		<path d="M58.65,56.38c0.04,0.61,0.07,1.57-0.07,2.45c-0.86,5.16-5.81,16.5-12.59,23.43"/>
		<path d="M86.3,56.31c4.15,4.21,10.72,17.29,11.76,23.84"/>
	</g>
</svg>
