<?xml version="1.0" encoding="UTF-8"?>
<!DOCTYPE svg PUBLIC "-//W3C//DTD SVG 1.0//EN" "http://www.w3.org/TR/2001/REC-SVG-20010904/DTD/svg10.dtd">
<svg xmlns="http://www.w3.org/2000/svg" width="109" height="109" viewBox="0 0 109 109">
	<g id="HelperGrid" style="opacity:0.75;">
		<rect x="0.5" y="0.5" style="fill:none;stroke:#404040;" width="108" height="108"/> 
		<line style="fill:none;stroke:#404040;" x1="0.5" y1="72.51" x2="108.5" y2="72.51"/>
		<line style="fill:none;stroke:#404040;" x1="0.5" y1="36.49" x2="108.5" y2="36.49"/>
		<line style="fill:none;stroke:#404040;" x1="72.5" y1="0.5" x2="72.5" y2="108.5"/>
		<line style="fill:none;stroke:#404040;" x1="36.5" y1="0.5" x2="36.5" y2="108.5"/>
	</g>
	<g id="Kanji">
		<text transform="matrix(1 0 0 1 0.5 93.3799)" style="font-size:108;">穂</text>
	</g>
	<g id="StrokeNumbers" style="font-size:8;fill:#808080">
		<text transform="matrix(1 0 0 1 30.75 15.1299)">1</text>
		<text transform="matrix(1 0 0 1 4.5 44.5)">2</text>
		<text transform="matrix(1 0 0 1 23.25 34.5)">3</text>
		<text transform="matrix(1 0 0 1 18.5 55.5)">4</text>
		<text transform="matrix(1 0 0 1 34.5 50.5)">5</text>
		<text transform="matrix(1 0 0 1 45.5 22.5)">6</text>
		<text transform="matrix(1 0 0 1 42.5 48.5)">7</text>
		<text transform="matrix(1 0 0 1 51.5 35.5)">8</text>
		<text transform="matrix(1 0 0 1 54.75 46.5547)">9</text>
		<text transform="matrix(1 0 0 1 54.75 58.4785)">10</text>
		<text transform="matrix(1 0 0 1 54.75 12.5)">11</text>
		<text transform="matrix(1 0 0 1 36.75 79.5)">12</text>
		<text transform="matrix(1 0 0 1 49.5 87.5)">13</text>
		<text transform="matrix(1 0 0 1 58.5 74.5)">14</text>
		<text transform="matrix(1 0 0 1 79.5 76.5)">15</text>
	</g>
	<g id="StrokePaths" style="fill:none;stroke:#404040;stroke-width:3;stroke-linecap:round;stroke-linejoin:round;">
		<path d="M38.25,14.75c0.07,0.34,0.14,0.87-0.14,1.35c-1.63,2.84-11.02,9.08-23.86,12.9"/>
		<path d="M11.87,43.58c0.3,0.17,1.12,0.45,1.93,0.51c2.24,0.17,21.06-3.06,26.66-3.91c0.81-0.12,1.02-0.17,1.53,0"/>
		<path d="M28.83,26.16c0.17,0.84,1.08,2.86,1.16,3.69c0.07,0.83-0.07,62.21-0.07,62.4c0,11.5-4.79,3.12-5.91,2"/>
		<path d="M29.93,44.47C26.4,54.55,20.5,67,12.5,75.25"/>
		<path d="M32.5,50.75c3.35,2.45,6.19,7.35,8,10.5"/>
		<path d="M47.13,25.36c0.74,0.41,2.11,0.52,2.85,0.41c4.73-0.7,31.03-4.1,35.61-3.63c1.23,0.13,1.98,0.19,2.6,0.4"/>
		<path d="M47.39,36.72c0.27,0.47,1.04,2.24,1.18,2.83c1.16,4.81,1.86,13.33,3.15,23.44"/>
		<path d="M49.46,38.38c9.86-0.97,28.64-3.56,36.04-3.93c1.73-0.09,3.65,0.72,3.26,3.06c-0.78,4.76-2.21,16.72-4.24,23.01"/>
		<path d="M51.24,49.68c8.07-0.96,16.19-1.6,24.29-2.35c0.98-0.09,1.92-0.18,2.83-0.26"/>
		<path d="M52.77,61.65c8.12-0.73,21.96-2.21,31.75-2.81"/>
		<path d="M65.79,12.07c0.97,1.18,1.54,2.88,1.54,4.43c0.03,15.3,0.18,39.45,0.18,43.44"/>
		<path d="M45.96,78.57c0.2,2.07-2.02,11.22-3.63,14.67"/>
		<path d="M53.41,72.75C60,86,69,96,85.67,96.68c6.48,0.27,6.4-2.81,2-7.7"/>
		<path d="M68.92,71.75c1.61,5.25,3.96,10.5,5.68,2.46"/>
		<path d="M86.6,68.98c4.54,2.62,7.95,5.01,11.63,13.11"/>
	</g>
</svg>
