<?xml version="1.0" encoding="UTF-8"?>
<!DOCTYPE svg PUBLIC "-//W3C//DTD SVG 1.0//EN" "http://www.w3.org/TR/2001/REC-SVG-20010904/DTD/svg10.dtd">
<svg xmlns="http://www.w3.org/2000/svg" width="109" height="109" viewBox="0 0 109 109">
	<g id="HelperGrid" style="opacity:0.75;">
		<rect x="0.5" y="0.5" style="fill:none;stroke:#404040;" width="108" height="108"/> 
		<line style="fill:none;stroke:#404040;" x1="0.5" y1="72.51" x2="108.5" y2="72.51"/>
		<line style="fill:none;stroke:#404040;" x1="0.5" y1="36.49" x2="108.5" y2="36.49"/>
		<line style="fill:none;stroke:#404040;" x1="72.5" y1="0.5" x2="72.5" y2="108.5"/>
		<line style="fill:none;stroke:#404040;" x1="36.5" y1="0.5" x2="36.5" y2="108.5"/>
	</g>
	<g id="Kanji">
		<text transform="matrix(1 0 0 1 0.5 93.3799)" style="font-size:108;">穽</text>
	</g>
	<g id="StrokeNumbers" style="font-size:8;fill:#808080">
		<text transform="matrix(1 0 0 1 43.8477 8.5)">1</text>
		<text transform="matrix(1 0 0 1 13.5 22.5)">2</text>
		<text transform="matrix(1 0 0 1 23.708 20.5)">3</text>
		<text transform="matrix(1 0 0 1 30.5 33.5)">4</text>
		<text transform="matrix(1 0 0 1 54.5 31.5)">5</text>
		<text transform="matrix(1 0 0 1 17.5 55.5)">6</text>
		<text transform="matrix(1 0 0 1 8.5 72.5)">7</text>
		<text transform="matrix(1 0 0 1 32.5 48.5)">8</text>
		<text transform="matrix(1 0 0 1 54.5 45.5)">9</text>
	</g>
	<g id="StrokePaths" style="fill:none;stroke:#404040;stroke-width:3;stroke-linecap:round;stroke-linejoin:round;">
		<path d="M49.87,8c3.51,1.82,5.64,4.54,6.97,8.61"/>
		<path d="M19.98,21.26c0,3.85-3.06,14.43-4.46,16.99"/>
		<path d="M20.1,24.29c13.9-0.79,56.51-4.46,65.44-4.17c11.55,0.36,2.32,7.05-0.59,9.06"/>
		<path d="M40.76,27c0.04,0.41,0.18,1.1-0.09,1.65c-2.47,5.06-7.64,10.9-15.69,15.77"/>
		<path d="M62.59,24.37c0.38,0.47,0.71,1.03,0.71,1.77c0,1.95-0.27,5.34-0.27,7.57c0,5.19,5.51,4.6,10.02,4.6c4.75,0,8.82-0.67,9.49-1.05"/>
		<path d="M26.07,55.89c1.18,0.36,3.28,0.23,4.42,0.16c8.89-0.54,40.27-1.76,52.1-1.97c1.92-0.03,3.16-0.08,4.54,0.66"/>
		<path d="M15.99,72.72c1.81,0.29,5.14,0.4,6.94,0.33c10.66-0.45,48.5-2.46,64.24-2.74c3.01-0.06,4.83,0.16,6.34,0.31"/>
		<path d="M40.16,44.67c0.91,0.68,1.51,1.86,1.81,2.54c0.3,0.68-0.2,20.92-0.2,22.45c0,15.13-9.37,25.33-23.27,30.09"/>
		<path d="M63.06,44.25c1.01,0.32,1.61,1.46,1.81,2.1c0.2,0.65,0,51.6-0.2,55.65"/>
	</g>
</svg>
