<?xml version="1.0" encoding="UTF-8"?>
<!-- Copyright (C) 2009 Ulrich Apel.
This work is distributed under the conditions of the Creative Commons
Attribution-Share Alike 3.0 Licence. This means you are free:
* to Share - to copy, distribute and transmit the work
* to Remix - to adapt the work

Under the following conditions:
* Attribution. You must attribute the work by stating your use of KanjiVG in
  your own copyright header and linking to KanjiVG's website
  (http://kanjivg.tagaini.net)
* Share Alike. If you alter, transform, or build upon this work, you may
  distribute the resulting work only under the same or similar license to this
  one.

See http://creativecommons.org/licenses/by-sa/3.0/ for more details. -->
<!DOCTYPE svg PUBLIC "-//W3C//DTD SVG 1.0//EN" "http://www.w3.org/TR/2001/REC-SVG-20010904/DTD/svg10.dtd">
<svg xmlns="http://www.w3.org/2000/svg" width="109" height="109" viewBox="0 0 109 109">
	<g id="HelperGrid" style="opacity:0.75;">
		<rect x="0.5" y="0.5" style="fill:none;stroke:#404040;" width="108" height="108"/> 
		<line style="fill:none;stroke:#404040;" x1="0.5" y1="72.51" x2="108.5" y2="72.51"/>
		<line style="fill:none;stroke:#404040;" x1="0.5" y1="36.49" x2="108.5" y2="36.49"/>
		<line style="fill:none;stroke:#404040;" x1="72.5" y1="0.5" x2="72.5" y2="108.5"/>
		<line style="fill:none;stroke:#404040;" x1="36.5" y1="0.5" x2="36.5" y2="108.5"/>
	</g>
	<g id="Kanji">
		<text transform="matrix(1 0 0 1 0.5 93.3799)" style="font-size:108;">窓</text>
	</g>
	<g id="StrokeNumbers" style="font-size:8;fill:#808080">
		<text transform="matrix(1 0 0 1 44.5 10.5)">1</text>
		<text transform="matrix(1 0 0 1 17.25 30.1299)">2</text>
		<text transform="matrix(1 0 0 1 29.25 21.1299)">3</text>
		<text transform="matrix(1 0 0 1 31.5 34.5)">4</text>
		<text transform="matrix(1 0 0 1 53.5 30.5)">5</text>
		<text transform="matrix(1 0 0 1 44.25 43.5)">6</text>
		<text transform="matrix(1 0 0 1 56.5 49.5)">7</text>
		<text transform="matrix(1 0 0 1 18.5 78.1299)">8</text>
		<text transform="matrix(1 0 0 1 30.5 89.5)">9</text>
		<text transform="matrix(1 0 0 1 40.5 73.5)">10</text>
		<text transform="matrix(1 0 0 1 65.5 74.5)">11</text>
	</g>
	<g id="StrokePaths" style="fill:none;stroke:#404040;stroke-width:3;stroke-linecap:round;stroke-linejoin:round;">
		<path d="M52.76,10.25c0.99,0.99,1.58,2.25,1.58,3.7c0,3.05-0.09,4.49-0.09,7.27"/>
		<path d="M24.44,22.38c0,4.1-1.86,15.38-2.71,18.12"/>
		<path d="M25.07,26.24c17.68-3.12,40.18-5.99,56.02-6.63c10.79-0.44,2.29,6.66-0.4,8.55"/>
		<path d="M40.02,31.5c0.1,1.1-0.08,1.79-0.54,2.8c-1.93,4.27-5.95,9.64-12.57,14.62"/>
		<path d="M61.99,26.62c0.63,0.63,1.08,1.75,1.08,2.95c0,3.14-0.07,4.31-0.07,6.82c0,3.61,1.13,4.42,10.38,4.42c5.56,0,9.23-0.64,10.01-1.01"/>
		<path d="M51.75,42.25c0.38,1.25-0.06,2.17-0.77,3.08c-4.98,6.42-7.86,9.55-14.43,16c-1.77,1.74-1.9,2.99,0.92,2.24c10.65-2.82,20.03-5.44,29.52-7.65"/>
		<path d="M62.08,50.55c3.54,2.19,9.15,9.01,10.03,12.42"/>
		<path d="M24.75,78.12c0.35,2.49-3.46,13.48-6.23,17.62"/>
		<path d="M32.5,76.21c9.88,17.17,23.25,23.17,44.96,22.29c9.05,0.25,8.8-4.25,3.33-7.73"/>
		<path d="M50.03,70.12c1.6,4.26,5.15,8.87,6.13,4.78"/>
		<path d="M76.1,71.34c4.06,1.52,8.15,3.91,10.9,7.62"/>
	</g>
</svg>
