<?xml version="1.0" encoding="UTF-8"?>
<!DOCTYPE svg PUBLIC "-//W3C//DTD SVG 1.0//EN" "http://www.w3.org/TR/2001/REC-SVG-20010904/DTD/svg10.dtd">
<svg xmlns="http://www.w3.org/2000/svg" width="109" height="109" viewBox="0 0 109 109">
	<g id="HelperGrid" style="opacity:0.75;">
		<rect x="0.5" y="0.5" style="fill:none;stroke:#404040;" width="108" height="108"/> 
		<line style="fill:none;stroke:#404040;" x1="0.5" y1="72.51" x2="108.5" y2="72.51"/>
		<line style="fill:none;stroke:#404040;" x1="0.5" y1="36.49" x2="108.5" y2="36.49"/>
		<line style="fill:none;stroke:#404040;" x1="72.5" y1="0.5" x2="72.5" y2="108.5"/>
		<line style="fill:none;stroke:#404040;" x1="36.5" y1="0.5" x2="36.5" y2="108.5"/>
	</g>
	<g id="Kanji">
		<text transform="matrix(1 0 0 1 0.5 93.3799)" style="font-size:108;">窺</text>
	</g>
	<g id="StrokeNumbers" style="font-size:8;fill:#808080">
		<text transform="matrix(1 0 0 1 44.5 8.5)">1</text>
		<text transform="matrix(1 0 0 1 12.5 21.5)">2</text>
		<text transform="matrix(1 0 0 1 22.5 19.5)">3</text>
		<text transform="matrix(1 0 0 1 31.5 29.5)">4</text>
		<text transform="matrix(1 0 0 1 56.5 28.5)">5</text>
		<text transform="matrix(1 0 0 1 11.5 52.5)">6</text>
		<text transform="matrix(1 0 0 1 5.5 66.5)">7</text>
		<text transform="matrix(1 0 0 1 23.5 46.5)">8</text>
		<text transform="matrix(1 0 0 1 38.5 76.5)">9</text>
		<text transform="matrix(1 0 0 1 46.5 48.5)">10</text>
		<text transform="matrix(1 0 0 1 60.25 40.5)">11</text>
		<text transform="matrix(1 0 0 1 60.25 50.8047)">12</text>
		<text transform="matrix(1 0 0 1 60.25 61.7285)">13</text>
		<text transform="matrix(1 0 0 1 60.25 74.1543)">14</text>
		<text transform="matrix(1 0 0 1 51.75 86.5791)">15</text>
		<text transform="matrix(1 0 0 1 63.75 92.0039)">16</text>
	</g>
	<g id="StrokePaths" style="fill:none;stroke:#404040;stroke-width:3;stroke-linecap:round;stroke-linejoin:round;">
		<path d="M50.23,8.5c2.6,0.67,5.29,3.25,6.26,5.9"/>
		<path d="M19.27,19.51c0,3.23-2.42,12.09-3.52,14.24"/>
		<path d="M19.37,22.74c12.8-1.99,58.5-4.99,67.84-4.88c12.09,0.14,2.56,6.41-0.45,8.3"/>
		<path d="M43.71,24c0.05,0.32,0.2,0.86-0.1,1.29c-2.77,3.97-8.59,8.56-17.63,12.37"/>
		<path d="M63.09,20.87c0.4,0.43,0.75,0.94,0.75,1.61c0,1.77-0.29,4.87-0.29,6.89c0,4.73,5.86,4.19,10.64,4.19c5.05,0,9.37-0.61,10.08-0.95"/>
		<path d="M17.9,52.29c0.76,0.13,2.15,0.15,2.92,0.13c4.12-0.11,14.06-2.27,21.62-2.93c1.26-0.11,2.03,0.06,2.66,0.12"/>
		<path d="M12.64,66.89c0.89,0.15,2.52,0.2,3.4,0.15c5.83-0.29,20.73-2.77,30.32-3.09c1.47-0.05,2.37,0.07,3.11,0.15"/>
		<path d="M31.6,41.37c0.31,0.85,0.42,1.65,0.42,3.3c0.12,30.46-2.77,41.84-17.75,52.07"/>
		<path d="M32.93,74.38c5.61,3.71,10.87,9.57,13.46,14.63"/>
		<path d="M55.65,41.52c0.43,0.82,0.95,2.44,1.05,3.53c0.45,4.87,0.83,27.13,0.82,33.06"/>
		<path d="M57.42,43.63c2.43-0.14,22.25-2.66,24.46-2.82c1.84-0.14,3.3,0.76,3.14,1.78c-0.2,1.29-0.86,33.38-0.86,34.2"/>
		<path d="M58.7,53.41c4.18,0,8.41-0.53,12.57-0.86c1.36-0.11,2.73-0.22,4.04-0.32"/>
		<path d="M58.9,64.48c4.97,0,9.97-0.71,14.92-1.12c0.57-0.05,1.14-0.09,1.7-0.14"/>
		<path d="M59.02,76.1c4.83,0,18.24-1.64,24.48-1.64"/>
		<path d="M62.82,80.33c0.05,0.49,0.12,1.26-0.11,1.96C61.33,86.42,55,95.5,43.09,101.01"/>
		<path d="M72.7,77.51c0.55,0.86,0.98,1.87,1.01,3.19c0.09,3.55-0.41,5.17-0.41,9.33c0,6.8,0.19,8.97,10.45,8.97c11.23,0,11.55-1.5,11.55-6.58"/>
	</g>
</svg>
