<?xml version="1.0" encoding="UTF-8"?>
<!DOCTYPE svg PUBLIC "-//W3C//DTD SVG 1.0//EN" "http://www.w3.org/TR/2001/REC-SVG-20010904/DTD/svg10.dtd">
<svg xmlns="http://www.w3.org/2000/svg" width="109" height="109" viewBox="0 0 109 109">
	<g id="HelperGrid" style="opacity:0.75;">
		<rect x="0.5" y="0.5" style="fill:none;stroke:#404040;" width="108" height="108"/> 
		<line style="fill:none;stroke:#404040;" x1="0.5" y1="72.51" x2="108.5" y2="72.51"/>
		<line style="fill:none;stroke:#404040;" x1="0.5" y1="36.49" x2="108.5" y2="36.49"/>
		<line style="fill:none;stroke:#404040;" x1="72.5" y1="0.5" x2="72.5" y2="108.5"/>
		<line style="fill:none;stroke:#404040;" x1="36.5" y1="0.5" x2="36.5" y2="108.5"/>
	</g>
	<g id="Kanji">
		<text transform="matrix(1 0 0 1 0.5 93.3799)" style="font-size:108;">窿</text>
	</g>
	<g id="StrokeNumbers" style="font-size:8;fill:#808080">
		<text transform="matrix(1 0 0 1 43.8477 10.5)">1</text>
		<text transform="matrix(1 0 0 1 12.5 18.5)">2</text>
		<text transform="matrix(1 0 0 1 23.708 17.5)">3</text>
		<text transform="matrix(1 0 0 1 29.5 29.5)">4</text>
		<text transform="matrix(1 0 0 1 55.5 27.3477)">5</text>
		<text transform="matrix(1 0 0 1 25.5 42.5)">6</text>
		<text transform="matrix(1 0 0 1 23.5 68.5)">7</text>
		<text transform="matrix(1 0 0 1 11.5 51.604)">8</text>
		<text transform="matrix(1 0 0 1 45.5 39.5)">9</text>
		<text transform="matrix(1 0 0 1 58.5 39.5)">10</text>
		<text transform="matrix(1 0 0 1 60.5 48.5)">11</text>
		<text transform="matrix(1 0 0 1 63.5 62.5)">12</text>
		<text transform="matrix(1 0 0 1 41.5 74.5)">13</text>
		<text transform="matrix(1 0 0 1 55.25 74.1543)">14</text>
		<text transform="matrix(1 0 0 1 69.5 73.5)">15</text>
		<text transform="matrix(1 0 0 1 50.5 84.5)">16</text>
		<text transform="matrix(1 0 0 1 41.5 94.0039)">17</text>
	</g>
	<g id="StrokePaths" style="fill:none;stroke:#404040;stroke-width:3;stroke-linecap:round;stroke-linejoin:round;">
		<path d="M50.6,9.25c1.98,0.55,3.9,3.25,4.76,5.32"/>
		<path d="M19.18,19.26c0,3.51-3.33,13.15-4.84,15.49"/>
		<path d="M19.37,21.48c12.88-1.48,59.39-4.25,68.8-4.12c12.17,0.16,2.57,7.37-0.46,9.55"/>
		<path d="M42.7,23c0.06,0.35,0.22,0.93-0.11,1.4c-3.08,4.29-9.54,9.23-19.59,13.35"/>
		<path d="M63.59,19.87c0.35,0.46,0.65,0.99,0.65,1.7c0,1.87-0.25,5.13-0.25,7.26c0,4.98,5.1,4.42,9.26,4.42c4.39,0,8.16-0.64,8.77-1.01"/>
		<path d="M17.25,44c1.5,0.5,3.1,1.07,3.75,1c5.33-0.6,11.4-1.58,14.13-2.12c3.19-0.63,4.88,1.63,3.46,3.1C37.18,47.44,32,57.5,29.25,60.75"/>
		<path d="M30.19,61.01c10.94,8.47,8.21,32.54-1.51,26.44"/>
		<path d="M19.18,45.92c0.15,0.74,0,49.45-0.15,54.08"/>
		<path d="M55.25,34.25c0.04,0.49,0.08,1.26-0.08,1.96C54.23,40.35,48.86,49.44,41.5,55"/>
		<path d="M55,42c2.25,0.25,3.51,0.61,5.56,0.33c4.19-0.58,11.75-2.39,15.59-3c2.64-0.42,3.57,1.61,2.71,2.62C73.75,48,56.56,62.97,40.1,66.18"/>
		<path d="M52.43,45.13c4.92,3,27.2,14.41,33.82,17.16c1.98,0.82,3.58,1.22,5.5,1.46"/>
		<path d="M53.25,65.75c3.97-0.18,20.82-1.98,24.24-2.18"/>
		<path d="M52.69,70.65c0.03,0.39,0.07,1.01-0.07,1.57c-0.8,3.31-5.4,10.57-11.69,15.01"/>
		<path d="M53.11,77.38c0.72,0.09,2.02,0.11,2.74,0.09c5.16-0.13,22.64-1.73,27.09-1.88c1.19-0.04,1.68-0.02,2.31,0"/>
		<path d="M65.16,68.72c0.49,0.2,1.53,1.5,1.62,1.9c0.1,0.4-0.06,23.18-0.16,25.68"/>
		<path d="M51.04,87.52c0.62,0.07,1.76,0.08,2.38,0.07c4.47-0.1,23.47-1.52,27.33-1.63c1.03-0.03,1.46-0.02,2.01,0"/>
		<path d="M38.4,97.23c1.12,0.11,3.16,0.14,4.27,0.11c8.04-0.16,40.37-1.36,47.3-1.53c1.85-0.05,3.41,0.09,5.12,0.37"/>
	</g>
</svg>
