<?xml version="1.0" encoding="UTF-8"?>
<!DOCTYPE svg PUBLIC "-//W3C//DTD SVG 1.0//EN" "http://www.w3.org/TR/2001/REC-SVG-20010904/DTD/svg10.dtd">
<svg xmlns="http://www.w3.org/2000/svg" width="109" height="109" viewBox="0 0 109 109">
	<g id="HelperGrid" style="opacity:0.75;">
		<rect x="0.5" y="0.5" style="fill:none;stroke:#404040;" width="108" height="108"/> 
		<line style="fill:none;stroke:#404040;" x1="0.5" y1="72.51" x2="108.5" y2="72.51"/>
		<line style="fill:none;stroke:#404040;" x1="0.5" y1="36.49" x2="108.5" y2="36.49"/>
		<line style="fill:none;stroke:#404040;" x1="72.5" y1="0.5" x2="72.5" y2="108.5"/>
		<line style="fill:none;stroke:#404040;" x1="36.5" y1="0.5" x2="36.5" y2="108.5"/>
	</g>
	<g id="Kanji">
		<text transform="matrix(1 0 0 1 0.5 93.3799)" style="font-size:108;">竍</text>
	</g>
	<g id="StrokeNumbers" style="font-size:8;fill:#808080">
		<text transform="matrix(1 0 0 1 16.8477 14.5)">1</text>
		<text transform="matrix(1 0 0 1 2.6602 35.5)">2</text>
		<text transform="matrix(1 0 0 1 6.5 47.5)">3</text>
		<text transform="matrix(1 0 0 1 31.5 44.5)">4</text>
		<text transform="matrix(1 0 0 1 3.5 93.5)">5</text>
		<text transform="matrix(1 0 0 1 46.5 45.5)">6</text>
		<text transform="matrix(1 0 0 1 63.5 14.1797)">7</text>
	</g>
	<g id="StrokePaths" style="fill:none;stroke:#404040;stroke-width:3;stroke-linecap:round;stroke-linejoin:round;">
		<path d="M20.37,14c3.28,2.75,9.84,9,11.68,13.83"/>
		<path d="M10,35.25c1.16,0.32,2.53,0.37,3.68,0.32c6.57-0.28,19.57-1.57,28.49-2.22c1.93-0.14,3.1,0.15,4.07,0.32"/>
		<path d="M14,46.45c5.83,11.04,8.47,22.33,9,29.6"/>
		<path d="M40.22,42.26c1.21,1.36,0.68,4.21,0.42,5.3C37.98,58.76,32.38,76.72,30,82.53"/>
		<path d="M12,91.32c0.95,1.2,3.06,1.18,4,0.7C26.31,86.81,34.75,82,43.9,77.71"/>
		<path d="M48,48.61c1.75,0.57,3.74,0.75,5.75,0.57c10.25-0.93,24.5-1.68,40-2.78c2-0.14,3.25,0.1,5.25,0.5"/>
		<path d="M70.75,14.25C72,14.75,73,16.47,73,17.5c0,10.5,0,74.75-0.25,81"/>
	</g>
</svg>
