<?xml version="1.0" encoding="UTF-8"?>
<!-- Copyright (C) 2009 Ulrich Apel.
This work is distributed under the conditions of the Creative Commons
Attribution-Share Alike 3.0 Licence. This means you are free:
* to Share - to copy, distribute and transmit the work
* to Remix - to adapt the work

Under the following conditions:
* Attribution. You must attribute the work by stating your use of KanjiVG in
  your own copyright header and linking to KanjiVG's website
  (http://kanjivg.tagaini.net)
* Share Alike. If you alter, transform, or build upon this work, you may
  distribute the resulting work only under the same or similar license to this
  one.

See http://creativecommons.org/licenses/by-sa/3.0/ for more details. -->
<!DOCTYPE svg PUBLIC "-//W3C//DTD SVG 1.0//EN" "http://www.w3.org/TR/2001/REC-SVG-20010904/DTD/svg10.dtd">
<svg xmlns="http://www.w3.org/2000/svg" width="109" height="109" viewBox="0 0 109 109">
	<g id="HelperGrid" style="opacity:0.75;">
		<rect x="0.5" y="0.5" style="fill:none;stroke:#404040;" width="108" height="108"/> 
		<line style="fill:none;stroke:#404040;" x1="0.5" y1="72.51" x2="108.5" y2="72.51"/>
		<line style="fill:none;stroke:#404040;" x1="0.5" y1="36.49" x2="108.5" y2="36.49"/>
		<line style="fill:none;stroke:#404040;" x1="72.5" y1="0.5" x2="72.5" y2="108.5"/>
		<line style="fill:none;stroke:#404040;" x1="36.5" y1="0.5" x2="36.5" y2="108.5"/>
	</g>
	<g id="Kanji">
		<text transform="matrix(1 0 0 1 0.5 93.3799)" style="font-size:108;">竟</text>
	</g>
	<g id="StrokeNumbers" style="font-size:8;fill:#808080">
		<text transform="matrix(1 0 0 1 43.5 9.5)">1</text>
		<text transform="matrix(1 0 0 1 26.5 18.5)">2</text>
		<text transform="matrix(1 0 0 1 32.25 30.479)">3</text>
		<text transform="matrix(1 0 0 1 59.5 27.5)">4</text>
		<text transform="matrix(1 0 0 1 14.5 35.3291)">5</text>
		<text transform="matrix(1 0 0 1 25.25 54.5)">6</text>
		<text transform="matrix(1 0 0 1 35.5 46.6797)">7</text>
		<text transform="matrix(1 0 0 1 40.5 56.6035)">8</text>
		<text transform="matrix(1 0 0 1 40.5 68.5)">9</text>
		<text transform="matrix(1 0 0 1 31.5 82.5)">10</text>
		<text transform="matrix(1 0 0 1 51.25 81.8799)">11</text>
	</g>
	<g id="StrokePaths" style="fill:none;stroke:#404040;stroke-width:3;stroke-linecap:round;stroke-linejoin:round;">
		<path d="M49.39,7.9c3.05,1.28,5.82,4.77,6.91,7.16"/>
		<path d="M26.5,21.05c0.89,0.1,2.94,0.59,3.8,0.49c3.54-0.39,36.7-3.3,48.1-3.6c1.47-0.04,2.36-0.03,3.1,0.01"/>
		<path d="M39,24.55c3.69,3.87,4.45,7.44,4.98,10.05"/>
		<path d="M67.14,22.03c1.09,0.61,1.02,1.57,0.87,1.92c-1.53,3.53-3.96,9.51-5.1,11.51"/>
		<path d="M15.75,39.14c1.57,0.14,3.93,0.18,5.42,0.08c14.08-0.97,49.33-4.22,64.82-4.6c2.58-0.06,5.45,0.21,7.01,0.72"/>
		<path d="M32.05,47.6c0.58,0.64,1.45,2.15,1.58,3c0.61,3.9,4.12,21.97,4.12,22.39"/>
		<path d="M33.1,48.9c3.29-0.09,38.93-3.08,41.83-3.49c2.9-0.42,4.41,2.4,4.26,3.47C78,57.25,77,61.75,74.75,70.52"/>
		<path d="M35.69,59.93c6.83,0.01,13.73-0.77,20.53-1.23c2.3-0.16,4.6-0.31,6.8-0.45"/>
		<path d="M37.61,71.26c6.58,0.02,28.68-1.77,37.19-1.74"/>
		<path d="M44.46,74.35c0.06,0.59,0.13,1.54-0.12,2.39c-1.5,5.05-9.38,17.09-21.83,22.92"/>
		<path d="M60.46,72.87c0.65,1.04,1.16,2.26,1.2,3.86c0.17,7.13,0.04,6.56,0.04,11.41c0,11.32,7.76,10.04,15.39,10.04c8.06,0,13.36-1.46,14.49-2.29c2.4-1.74,1.74-2.61,1.96-5.66"/>
	</g>
</svg>
