<?xml version="1.0" encoding="UTF-8"?>
<!-- Copyright (C) 2009 Ulrich Apel.
This work is distributed under the conditions of the Creative Commons
Attribution-Share Alike 3.0 Licence. This means you are free:
* to Share - to copy, distribute and transmit the work
* to Remix - to adapt the work

Under the following conditions:
* Attribution. You must attribute the work by stating your use of KanjiVG in
  your own copyright header and linking to KanjiVG's website
  (http://kanjivg.tagaini.net)
* Share Alike. If you alter, transform, or build upon this work, you may
  distribute the resulting work only under the same or similar license to this
  one.

See http://creativecommons.org/licenses/by-sa/3.0/ for more details. -->
<!DOCTYPE svg PUBLIC "-//W3C//DTD SVG 1.0//EN" "http://www.w3.org/TR/2001/REC-SVG-20010904/DTD/svg10.dtd">
<svg xmlns="http://www.w3.org/2000/svg" width="109" height="109" viewBox="0 0 109 109">
	<g id="HelperGrid" style="opacity:0.75;">
		<rect x="0.5" y="0.5" style="fill:none;stroke:#404040;" width="108" height="108"/> 
		<line style="fill:none;stroke:#404040;" x1="0.5" y1="72.51" x2="108.5" y2="72.51"/>
		<line style="fill:none;stroke:#404040;" x1="0.5" y1="36.49" x2="108.5" y2="36.49"/>
		<line style="fill:none;stroke:#404040;" x1="72.5" y1="0.5" x2="72.5" y2="108.5"/>
		<line style="fill:none;stroke:#404040;" x1="36.5" y1="0.5" x2="36.5" y2="108.5"/>
	</g>
	<g id="Kanji">
		<text transform="matrix(1 0 0 1 0.5 93.3799)" style="font-size:108;">笈</text>
	</g>
	<g id="StrokeNumbers" style="font-size:8;fill:#808080">
		<text transform="matrix(1 0 0 1 22.5 11.5)">1</text>
		<text transform="matrix(1 0 0 1 35.5 20.5)">2</text>
		<text transform="matrix(1 0 0 1 28.25 33.479)">3</text>
		<text transform="matrix(1 0 0 1 55.25 9.5)">4</text>
		<text transform="matrix(1 0 0 1 68.5 18.5)">5</text>
		<text transform="matrix(1 0 0 1 64.25 30.5)">6</text>
		<text transform="matrix(1 0 0 1 35.25 54.75)">7</text>
		<text transform="matrix(1 0 0 1 21.5 44.5)">8</text>
		<text transform="matrix(1 0 0 1 47.5 56.5)">9</text>
		<text transform="matrix(1 0 0 1 40.75 71.75)">10</text>
	</g>
	<g id="StrokePaths" style="fill:none;stroke:#404040;stroke-width:3;stroke-linecap:round;stroke-linejoin:round;">
		<path d="M30,11.75c0.04,0.58,0.09,1.51-0.08,2.34c-1,4.94-6.77,15.77-14.66,22.41"/>
		<path d="M28.73,24.79c3.71,0,19.61-3.79,23.77-3.79"/>
		<path d="M33.52,27.08c2.31,1.83,5.97,7.53,6.54,10.38"/>
		<path d="M64.23,10.5c0.04,0.5,0.16,1.29-0.08,1.99c-1.8,5.2-6.79,12.62-13.4,19.01"/>
		<path d="M62.98,22.16c4.73,0,22.58-3.57,27.9-3.57"/>
		<path d="M74.27,24.75c0.02,0.21,0.04,0.53-0.04,0.83c-0.43,1.75-2.88,5.58-6.24,7.92"/>
		<path d="M42.15,46.21c0.85,1.29,1.21,3.11,0.87,4.83C40.49,63.78,35,84.5,16.14,97.23"/>
		<path d="M46,58.75c0.93,0.14,2.42,0.18,4.25,0.16c8-0.11,22.57-1.57,26.14-2.26c3.04-0.59,3.64,1.52,2.89,3.41c-6.49,16.19-26.74,34.63-48.19,40.45"/>
		<path d="M27.58,42.79c1.17,0.71,3.38,1.01,6.25,0.62c4.92-0.66,27.73-1.94,32.24-2.98c2.92-0.68,3.67-0.18,2.43,3.7c-0.92,2.87-4.31,9.41-6.57,13.77"/>
		<path d="M43.24,61.24c8.57,6.49,32.89,30.21,41.53,34.85c2.76,1.48,4.54,2.67,6.98,3.2"/>
	</g>
</svg>
