<?xml version="1.0" encoding="UTF-8"?>
<!-- Copyright (C) 2009 Ulrich Apel.
This work is distributed under the conditions of the Creative Commons
Attribution-Share Alike 3.0 Licence. This means you are free:
* to Share - to copy, distribute and transmit the work
* to Remix - to adapt the work

Under the following conditions:
* Attribution. You must attribute the work by stating your use of KanjiVG in
  your own copyright header and linking to KanjiVG's website
  (http://kanjivg.tagaini.net)
* Share Alike. If you alter, transform, or build upon this work, you may
  distribute the resulting work only under the same or similar license to this
  one.

See http://creativecommons.org/licenses/by-sa/3.0/ for more details. -->
<!DOCTYPE svg PUBLIC "-//W3C//DTD SVG 1.0//EN" "http://www.w3.org/TR/2001/REC-SVG-20010904/DTD/svg10.dtd">
<svg xmlns="http://www.w3.org/2000/svg" width="109" height="109" viewBox="0 0 109 109">
	<g id="HelperGrid" style="opacity:0.75;">
		<rect x="0.5" y="0.5" style="fill:none;stroke:#404040;" width="108" height="108"/> 
		<line style="fill:none;stroke:#404040;" x1="0.5" y1="72.51" x2="108.5" y2="72.51"/>
		<line style="fill:none;stroke:#404040;" x1="0.5" y1="36.49" x2="108.5" y2="36.49"/>
		<line style="fill:none;stroke:#404040;" x1="72.5" y1="0.5" x2="72.5" y2="108.5"/>
		<line style="fill:none;stroke:#404040;" x1="36.5" y1="0.5" x2="36.5" y2="108.5"/>
	</g>
	<g id="Kanji">
		<text transform="matrix(1 0 0 1 0.5 93.3799)" style="font-size:108;">уга</text>
	</g>
	<g id="StrokeNumbers" style="font-size:8;fill:#808080">
		<text transform="matrix(1 0 0 1 23.5 14.5)">1</text>
		<text transform="matrix(1 0 0 1 36.5 25.5)">2</text>
		<text transform="matrix(1 0 0 1 28.5 38.479)">3</text>
		<text transform="matrix(1 0 0 1 56.75 12.5)">4</text>
		<text transform="matrix(1 0 0 1 70.5 22.5)">5</text>
		<text transform="matrix(1 0 0 1 65.5 35.5)">6</text>
		<text transform="matrix(1 0 0 1 43.25 43.5)">7</text>
		<text transform="matrix(1 0 0 1 18.75 56.1035)">8</text>
		<text transform="matrix(1 0 0 1 30.5 66.5)">9</text>
		<text transform="matrix(1 0 0 1 58.5 62.5)">10</text>
		<text transform="matrix(1 0 0 1 12.5 85.5)">11</text>
	</g>
	<g id="StrokePaths" style="fill:none;stroke:#404040;stroke-width:3;stroke-linecap:round;stroke-linejoin:round;">
		<path d="M31.24,15c0.13,1.19,0.12,2.39-0.37,3.46c-3,6.54-7.12,13.92-15.62,22.29"/>
		<path d="M28.73,29.79c0.95,0,2.58-0.22,4.54-0.54c3.6-0.59,8.84-1.29,12.6-1.9c2.16-0.35,4-0.59,5.13-0.59"/>
		<path d="M34.27,32.33c1.78,2.01,4.6,8.01,5.04,11.13"/>
		<path d="M66.49,13c0.15,1.38-0.07,2.69-0.66,3.94c-2.46,5.69-6.05,12.26-11.08,18.31"/>
		<path d="M65.23,26.91c0.81,0,1.95-0.1,3.3-0.26c4.63-0.56,11.78-1.88,17.1-2.59c2.14-0.29,3.99-0.47,5.25-0.47"/>
		<path d="M75.28,29.5c0.05,0.61-0.03,1.19-0.24,1.76c-0.72,2.24-2.86,5.85-5.29,8.49"/>
		<path d="M51.48,42c1.07,1.07,1.29,2.76,1.29,4.35c0,2.52,0-0.69,0,6.15"/>
		<path d="M26.5,55.29c3.17,0.35,6.34,0.33,9.5-0.07c10.25-1.06,27.99-2.57,37.25-3.06c2.83-0.23,5.67-0.2,8.5,0.09"/>
		<path d="M36.75,59.25C40.8,68.24,42.63,78.57,43,84.5"/>
		<path d="M69.95,56c0.3,1.12,0.1,2.28-0.1,3.02c-1.54,5.85-6.19,20.36-7.73,24.36"/>
		<path d="M15.75,88.8c4.17,0.54,8.31,0.28,12.5-0.06c19.77-1.6,39.5-2.62,56.88-3.38c3.73-0.16,7.12,0.13,11.12,0.96"/>
	</g>
</svg>
