<?xml version="1.0" encoding="UTF-8"?>
<!-- Copyright (C) 2009 Ulrich Apel.
This work is distributed under the conditions of the Creative Commons
Attribution-Share Alike 3.0 Licence. This means you are free:
* to Share - to copy, distribute and transmit the work
* to Remix - to adapt the work

Under the following conditions:
* Attribution. You must attribute the work by stating your use of KanjiVG in
  your own copyright header and linking to KanjiVG's website
  (http://kanjivg.tagaini.net)
* Share Alike. If you alter, transform, or build upon this work, you may
  distribute the resulting work only under the same or similar license to this
  one.

See http://creativecommons.org/licenses/by-sa/3.0/ for more details. -->
<!DOCTYPE svg PUBLIC "-//W3C//DTD SVG 1.0//EN" "http://www.w3.org/TR/2001/REC-SVG-20010904/DTD/svg10.dtd">
<svg xmlns="http://www.w3.org/2000/svg" width="109" height="109" viewBox="0 0 109 109">
	<g id="HelperGrid" style="opacity:0.75;">
		<rect x="0.5" y="0.5" style="fill:none;stroke:#404040;" width="108" height="108"/> 
		<line style="fill:none;stroke:#404040;" x1="0.5" y1="72.51" x2="108.5" y2="72.51"/>
		<line style="fill:none;stroke:#404040;" x1="0.5" y1="36.49" x2="108.5" y2="36.49"/>
		<line style="fill:none;stroke:#404040;" x1="72.5" y1="0.5" x2="72.5" y2="108.5"/>
		<line style="fill:none;stroke:#404040;" x1="36.5" y1="0.5" x2="36.5" y2="108.5"/>
	</g>
	<g id="Kanji">
		<text transform="matrix(1 0 0 1 0.5 93.3799)" style="font-size:108;">筱</text>
	</g>
	<g id="StrokeNumbers" style="font-size:8;fill:#808080">
		<text transform="matrix(1 0 0 1 20.5 10.5)">1</text>
		<text transform="matrix(1 0 0 1 32.5 18.5)">2</text>
		<text transform="matrix(1 0 0 1 28.5 31.5)">3</text>
		<text transform="matrix(1 0 0 1 52.5 9.5)">4</text>
		<text transform="matrix(1 0 0 1 66.5 17.5)">5</text>
		<text transform="matrix(1 0 0 1 64.5 29.5)">6</text>
		<text transform="matrix(1 0 0 1 22.5 40.1797)">7</text>
		<text transform="matrix(1 0 0 1 19.75 70.5)">8</text>
		<text transform="matrix(1 0 0 1 33.5 55.5)">9</text>
		<text transform="matrix(1 0 0 1 49.5 39.5)">10</text>
		<text transform="matrix(1 0 0 1 65.5 44.5)">11</text>
		<text transform="matrix(1 0 0 1 69.75 56.5)">12</text>
		<text transform="matrix(1 0 0 1 61.5 60.5)">13</text>
	</g>
	<g id="StrokePaths" style="fill:none;stroke:#404040;stroke-width:3;stroke-linecap:round;stroke-linejoin:round;">
		<path d="M28.5,11c0.04,0.58,0.09,1.49-0.09,2.32C27.32,18.2,21.06,28.93,12.5,35.5"/>
		<path d="M26.73,23.06c4.27,0,17.98-3.08,22.77-3.08"/>
		<path d="M34.52,24.83c2.22,1.7,5.74,6.99,6.29,9.63"/>
		<path d="M61.51,10.75c0.04,0.52,0.16,1.35-0.08,2.08c-1.77,5.45-6.68,13.23-13.18,19.92"/>
		<path d="M60.75,20.97c5.83,0,27.2-3.72,33.75-3.72"/>
		<path d="M78.24,22.5c0.03,0.24,0.06,0.62-0.06,0.97c-0.7,2.05-4.7,6.53-10.18,9.28"/>
		<path d="M32.5,35.75c0.22,1.79-0.06,4.13-0.77,5.66C27.18,51.17,21.42,60.33,11,72.21"/>
		<path d="M24.98,53.47c0.62,0.82,1.57,1.59,1.66,2.66c0.96,10.38-0.53,37.59,0.22,43.62"/>
		<path d="M39.42,46.66c0.7,0.7,1.19,1.53,1.25,3.86c0.29,11.19-0.02,35.81-0.02,39.62"/>
		<path d="M62,35c0.04,0.66,0.27,1.74-0.08,2.65c-2.25,5.83-8.36,19.03-16.16,27.1"/>
		<path d="M59.97,47.48c0.04-0.2,1.86,0.57,2.52,0.52c6.83-0.59,18.53-2.7,28.96-3.65c1.17-0.11,1.89-0.03,2.2,0.1"/>
		<path d="M81.96,48.67c0.63,1.25,0.97,2.15,0.32,4.44C76.3,73.93,62.67,92.53,43,99.75"/>
		<path d="M56,54c7.75,10.75,24.02,34.04,35.04,42.24c2.12,1.58,3.47,1.84,5.21,2.01"/>
	</g>
</svg>
