<?xml version="1.0" encoding="UTF-8"?>
<!DOCTYPE svg PUBLIC "-//W3C//DTD SVG 1.0//EN" "http://www.w3.org/TR/2001/REC-SVG-20010904/DTD/svg10.dtd">
<svg xmlns="http://www.w3.org/2000/svg" width="109" height="109" viewBox="0 0 109 109">
	<g id="HelperGrid" style="opacity:0.75;">
		<rect x="0.5" y="0.5" style="fill:none;stroke:#404040;" width="108" height="108"/> 
		<line style="fill:none;stroke:#404040;" x1="0.5" y1="72.51" x2="108.5" y2="72.51"/>
		<line style="fill:none;stroke:#404040;" x1="0.5" y1="36.49" x2="108.5" y2="36.49"/>
		<line style="fill:none;stroke:#404040;" x1="72.5" y1="0.5" x2="72.5" y2="108.5"/>
		<line style="fill:none;stroke:#404040;" x1="36.5" y1="0.5" x2="36.5" y2="108.5"/>
	</g>
	<g id="Kanji">
		<text transform="matrix(1 0 0 1 0.5 93.3799)" style="font-size:108;">篁</text>
	</g>
	<g id="StrokeNumbers" style="font-size:8;fill:#808080">
		<text transform="matrix(1 0 0 1 23.5 10.5)">1</text>
		<text transform="matrix(1 0 0 1 36.5 17.5)">2</text>
		<text transform="matrix(1 0 0 1 29.5 29.5)">3</text>
		<text transform="matrix(1 0 0 1 55.5 10.5)">4</text>
		<text transform="matrix(1 0 0 1 69.5 15.8477)">5</text>
		<text transform="matrix(1 0 0 1 64.5 28.5)">6</text>
		<text transform="matrix(1 0 0 1 44.5 28.5)">7</text>
		<text transform="matrix(1 0 0 1 24.5 44.5)">8</text>
		<text transform="matrix(1 0 0 1 34.5 38.5)">9</text>
		<text transform="matrix(1 0 0 1 38.5 49.5)">10</text>
		<text transform="matrix(1 0 0 1 40.5 59.5)">11</text>
		<text transform="matrix(1 0 0 1 18.5 71.5)">12</text>
		<text transform="matrix(1 0 0 1 20.25 84.5)">13</text>
		<text transform="matrix(1 0 0 1 7.5 96.5)">14</text>
		<text transform="matrix(1 0 0 1 44.5 79.5)">15</text>
	</g>
	<g id="StrokePaths" style="fill:none;stroke:#404040;stroke-width:3;stroke-linecap:round;stroke-linejoin:round;">
		<path d="M31,9.75c0.04,0.55,0.08,1.43-0.08,2.22c-0.97,4.69-6.54,14.98-14.17,21.28"/>
		<path d="M29.23,21.07c4.32,0,19.67-1.85,24.52-1.85"/>
		<path d="M34.25,22.25c2.38,1.81,6.16,7.44,6.75,10.25"/>
		<path d="M64.24,9.5c0.03,0.45,0.12,1.17-0.06,1.8c-1.34,4.71-5.04,11.42-9.94,17.2"/>
		<path d="M64.98,19.74c4.82,0,23.49-2.23,28.9-2.23"/>
		<path d="M77.5,22c0.03,0.26,0.06,0.67-0.06,1.04C76.7,25.24,72.5,30.05,66.75,33"/>
		<path d="M50.07,30.75c0.28,0.35,0.32,0.77,0.25,1.07c-0.39,1.78-3.76,6.04-6.83,8.43"/>
		<path d="M32.93,40.48c0.45,0.59,0.8,1.68,0.9,2.45c0.53,4.3,1.96,16.97,2.14,20.85"/>
		<path d="M34.72,42.1c10.72-1.06,35.47-2.4,39.42-2.78c1.9-0.18,3.13,1.56,2.72,3.18c-0.93,3.6-1.96,12.85-3.81,19.74"/>
		<path d="M35.31,52.48c6.67-0.78,13.4-1.17,20.11-1.56c1.87-0.11,3.72-0.21,5.49-0.3"/>
		<path d="M37.57,61.97c11.05-0.38,25.82-1.99,34.94-1.98"/>
		<path d="M29.06,71.91c1.05,0.46,4.48,0.16,5.55,0.03c4.95-0.62,30.28-1.9,42.2-2.38c1.62-0.06,3.1,0.09,4.44,0.48"/>
		<path d="M30.75,83.6c0.94,0.58,4.03,0.35,4.99,0.25c9.98-1.01,24.63-1.99,36.36-3.02c1.17-0.1,3.74-0.23,5.49,0.27"/>
		<path d="M17.48,95.67c0.86,0.43,5.38,0.98,6.86,0.89c17.74-1.01,40.44-2.76,62.55-3.26c3.71-0.09,5.35,0.45,6.92,1.2"/>
		<path d="M53.56,72.39c0.84,1.66,0.84,2.65,0.84,3.98c0,9.29-0.05,6.43-0.05,17.99"/>
	</g>
</svg>
