<?xml version="1.0" encoding="UTF-8"?>
<!DOCTYPE svg PUBLIC "-//W3C//DTD SVG 1.0//EN" "http://www.w3.org/TR/2001/REC-SVG-20010904/DTD/svg10.dtd">
<svg xmlns="http://www.w3.org/2000/svg" width="109" height="109" viewBox="0 0 109 109">
	<g id="HelperGrid" style="opacity:0.75;">
		<rect x="0.5" y="0.5" style="fill:none;stroke:#404040;" width="108" height="108"/> 
		<line style="fill:none;stroke:#404040;" x1="0.5" y1="72.51" x2="108.5" y2="72.51"/>
		<line style="fill:none;stroke:#404040;" x1="0.5" y1="36.49" x2="108.5" y2="36.49"/>
		<line style="fill:none;stroke:#404040;" x1="72.5" y1="0.5" x2="72.5" y2="108.5"/>
		<line style="fill:none;stroke:#404040;" x1="36.5" y1="0.5" x2="36.5" y2="108.5"/>
	</g>
	<g id="Kanji">
		<text transform="matrix(1 0 0 1 0.5 93.3799)" style="font-size:108;">篇</text>
	</g>
	<g id="StrokeNumbers" style="font-size:8;fill:#808080">
		<text transform="matrix(1 0 0 1 21.5 10.5)">1</text>
		<text transform="matrix(1 0 0 1 33.5 16.5)">2</text>
		<text transform="matrix(1 0 0 1 31.5 29.5)">3</text>
		<text transform="matrix(1 0 0 1 54.5 9.5)">4</text>
		<text transform="matrix(1 0 0 1 67.5 14.5)">5</text>
		<text transform="matrix(1 0 0 1 64.5 26.5)">6</text>
		<text transform="matrix(1 0 0 1 61.5 34.25)">7</text>
		<text transform="matrix(1 0 0 1 24.75 40.5)">8</text>
		<text transform="matrix(1 0 0 1 35 45.75)">9</text>
		<text transform="matrix(1 0 0 1 34.25 57.25)">10</text>
		<text transform="matrix(1 0 0 1 26.5 88.5)">11</text>
		<text transform="matrix(1 0 0 1 37.5 67.5)">12</text>
		<text transform="matrix(1 0 0 1 38.5 80.2285)">13</text>
		<text transform="matrix(1 0 0 1 52.5 77.1543)">14</text>
		<text transform="matrix(1 0 0 1 68.5 75.5)">15</text>
	</g>
	<g id="StrokePaths" style="fill:none;stroke:#404040;stroke-width:3;stroke-linecap:round;stroke-linejoin:round;">
		<path d="M29,11.25c0.03,0.48,0.06,1.23-0.06,1.92C28.19,17.2,23.89,26.07,18,31.5"/>
		<path d="M29.73,20.38c3.89,0,16.4-2.47,20.77-2.47"/>
		<path d="M37.52,22.33c1.6,1.44,4.14,5.9,4.54,8.13"/>
		<path d="M63.25,10c0.03,0.38,0.11,1-0.05,1.54c-1.2,4.02-4.53,9.77-8.95,14.71"/>
		<path d="M62.98,18.16c4.73,0,20.58-2.57,25.9-2.57"/>
		<path d="M74.27,20.75c0.02,0.19,0.04,0.49-0.04,0.76c-0.43,1.6-2.88,5.1-6.24,7.24"/>
		<path d="M32.25,47.58c12-0.83,37.89-4.63,46.25-5.18c1.75-0.11,3.92,0.76,2.94,2.96c-1.46,3.27-1.57,6-3.1,9.89"/>
		<path d="M30.68,59.81c7.22,0,37.63-4.25,50.32-4.66"/>
		<path d="M31.19,37.95c0.32,1.15,0.62,3.5,0.56,5.47c-0.8,24.67-2.92,38.5-17.16,52.3"/>
		<path d="M34.24,68.75c0.49,0.52,0.67,1.35,0.65,2.3c-0.14,5.7,1.72,27.38,1.72,28.95"/>
		<path d="M35.53,70.48c6.19-0.42,45.27-5.18,46.49-5.32c2.61-0.31,3.8,1.93,3.8,2.49c0,5.55-4.31,23.61-5.48,27.52c-1.57,5.25-3.36,1.99-5.32,0.63"/>
		<path d="M49.15,70.8c1.1,0.7,1.64,1.95,1.64,2.42c0,2.03,0,20.56-0.18,23.29"/>
		<path d="M65,69.63c0.75,0.62,1.14,1.95,1.14,2.42c0,3.45,0,19.89-0.18,22.62"/>
		<path d="M37.96,82.95c7.07-0.32,29.64-2.67,45.1-2.88"/>
		<path d="M75.72,31.5c0.11,0.19-0.56,1.05-1.23,1.26c-8.31,2.67-19.59,4.63-41.25,6.78"/>
	</g>
</svg>
