<?xml version="1.0" encoding="UTF-8"?>
<!-- Copyright (C) 2009 Ulrich Apel.
This work is distributed under the conditions of the Creative Commons
Attribution-Share Alike 3.0 Licence. This means you are free:
* to Share - to copy, distribute and transmit the work
* to Remix - to adapt the work

Under the following conditions:
* Attribution. You must attribute the work by stating your use of KanjiVG in
  your own copyright header and linking to KanjiVG's website
  (http://kanjivg.tagaini.net)
* Share Alike. If you alter, transform, or build upon this work, you may
  distribute the resulting work only under the same or similar license to this
  one.

See http://creativecommons.org/licenses/by-sa/3.0/ for more details. -->
<!DOCTYPE svg PUBLIC "-//W3C//DTD SVG 1.0//EN" "http://www.w3.org/TR/2001/REC-SVG-20010904/DTD/svg10.dtd">
<svg xmlns="http://www.w3.org/2000/svg" width="109" height="109" viewBox="0 0 109 109">
	<g id="HelperGrid" style="opacity:0.75;">
		<rect x="0.5" y="0.5" style="fill:none;stroke:#404040;" width="108" height="108"/> 
		<line style="fill:none;stroke:#404040;" x1="0.5" y1="72.51" x2="108.5" y2="72.51"/>
		<line style="fill:none;stroke:#404040;" x1="0.5" y1="36.49" x2="108.5" y2="36.49"/>
		<line style="fill:none;stroke:#404040;" x1="72.5" y1="0.5" x2="72.5" y2="108.5"/>
		<line style="fill:none;stroke:#404040;" x1="36.5" y1="0.5" x2="36.5" y2="108.5"/>
	</g>
	<g id="Kanji">
		<text transform="matrix(1 0 0 1 0.5 93.3799)" style="font-size:108;">篥</text>
	</g>
	<g id="StrokeNumbers" style="font-size:8;fill:#808080">
		<text transform="matrix(1 0 0 1 22.5 9.5)">1</text>
		<text transform="matrix(1 0 0 1 35.5 15.5)">2</text>
		<text transform="matrix(1 0 0 1 29.5 28.5)">3</text>
		<text transform="matrix(1 0 0 1 53.5 9.5)">4</text>
		<text transform="matrix(1 0 0 1 66.5 15.5)">5</text>
		<text transform="matrix(1 0 0 1 63.5 26.5)">6</text>
		<text transform="matrix(1 0 0 1 14.5 39.5)">7</text>
		<text transform="matrix(1 0 0 1 15.5 50.5)">8</text>
		<text transform="matrix(1 0 0 1 26.5 44.5)">9</text>
		<text transform="matrix(1 0 0 1 34.25 42.9541)">10</text>
		<text transform="matrix(1 0 0 1 54.5 41.5)">11</text>
		<text transform="matrix(1 0 0 1 30.5 57.5)">12</text>
		<text transform="matrix(1 0 0 1 6.5 74.5)">13</text>
		<text transform="matrix(1 0 0 1 41.5 68.6543)">14</text>
		<text transform="matrix(1 0 0 1 33.5 82.5791)">15</text>
		<text transform="matrix(1 0 0 1 67.5 79.5)">16</text>
	</g>
	<g id="StrokePaths" style="fill:none;stroke:#404040;stroke-width:3;stroke-linecap:round;stroke-linejoin:round;">
		<path d="M30.74,9c0.04,0.55,0.09,1.41-0.09,2.2c-1.06,4.64-7.11,14.82-15.4,21.05"/>
		<path d="M28.23,20.29c4.22,0,17.78-3.29,22.52-3.29"/>
		<path d="M35.77,22.08c2.04,1.3,5.28,5.36,5.79,7.38"/>
		<path d="M62.25,9.75c0.03,0.42,0.12,1.11-0.06,1.7c-1.37,4.46-5.16,10.82-10.19,16.3"/>
		<path d="M61.23,18.6c5.06,0,24.59-3.1,30.27-3.1"/>
		<path d="M76.77,20.3c0.03,0.2,0.06,0.53-0.06,0.82c-0.68,1.73-4.6,5.54-9.96,7.87"/>
		<path d="M21.99,35.88c1.42,0.67,4.02,0.79,5.45,0.71c13.11-0.8,46.07-5.08,55.1-5.37c2.38-0.07,3.79,0.35,4.98,0.69"/>
		<path d="M23.88,46.37c0.32,0.28,0.64,0.52,0.78,0.87c1.3,3.35,2.44,11.04,3.09,15.48"/>
		<path d="M25.79,47.34c10.25-1.1,51.69-4.71,56.98-5.08c1.93-0.13,3,1.34,2.82,2.17c-1.35,6.32-1.97,9.56-4.42,14.32"/>
		<path d="M43.12,36.32c0.78,0.47,1.34,2.07,1.42,3.01c0.28,2.77,0.96,13.57,1.65,20.03"/>
		<path d="M62.85,36.02c0.9,0.98,1.57,2.32,1.25,4.27c-0.82,5.13-0.82,9.4-2.19,17.73"/>
		<path d="M27.99,60.72c5.8-0.26,46.31-3.54,53.68-3.81"/>
		<path d="M17.83,73.14c1.8,0.34,3.84,0.44,5.91,0.31c10.52-0.64,45.99-3.55,61.9-4.32c2.05-0.1,3.34,0.04,5.39,0.27"/>
		<path d="M53.59,61c0.4,0.39,0.71,1.72,0.71,2.52c0,8.14-0.08,32.4-0.08,32.23c0,11.25-4.97,2.75-5.97,1.75"/>
		<path d="M53.5,71.75C45.78,81.22,32.91,92.76,15.25,98"/>
		<path d="M54.79,72.57c5.21,4.93,23.96,17.68,32,21.89c1.79,0.94,3.22,1.49,4.96,1.79"/>
	</g>
</svg>
