<?xml version="1.0" encoding="UTF-8"?>
<!DOCTYPE svg PUBLIC "-//W3C//DTD SVG 1.0//EN" "http://www.w3.org/TR/2001/REC-SVG-20010904/DTD/svg10.dtd">
<svg xmlns="http://www.w3.org/2000/svg" width="109" height="109" viewBox="0 0 109 109">
	<g id="HelperGrid" style="opacity:0.75;">
		<rect x="0.5" y="0.5" style="fill:none;stroke:#404040;" width="108" height="108"/> 
		<line style="fill:none;stroke:#404040;" x1="0.5" y1="72.51" x2="108.5" y2="72.51"/>
		<line style="fill:none;stroke:#404040;" x1="0.5" y1="36.49" x2="108.5" y2="36.49"/>
		<line style="fill:none;stroke:#404040;" x1="72.5" y1="0.5" x2="72.5" y2="108.5"/>
		<line style="fill:none;stroke:#404040;" x1="36.5" y1="0.5" x2="36.5" y2="108.5"/>
	</g>
	<g id="Kanji">
		<text transform="matrix(1 0 0 1 0.5 93.3799)" style="font-size:108;">簣</text>
	</g>
	<g id="StrokeNumbers" style="font-size:8;fill:#808080">
		<text transform="matrix(1 0 0 1 21.5 10.5)">1</text>
		<text transform="matrix(1 0 0 1 37.5 15.5)">2</text>
		<text transform="matrix(1 0 0 1 30.5 26.5)">3</text>
		<text transform="matrix(1 0 0 1 52.5 9.5)">4</text>
		<text transform="matrix(1 0 0 1 69.5 13.5)">5</text>
		<text transform="matrix(1 0 0 1 62.5 25.5)">6</text>
		<text transform="matrix(1 0 0 1 21.5 38.5)">7</text>
		<text transform="matrix(1 0 0 1 33.5 32.5)">8</text>
		<text transform="matrix(1 0 0 1 36.5 42.5)">9</text>
		<text transform="matrix(1 0 0 1 42.5 31.5)">10</text>
		<text transform="matrix(1 0 0 1 4.25 53.3799)">11</text>
		<text transform="matrix(1 0 0 1 22.25 63.5)">12</text>
		<text transform="matrix(1 0 0 1 37.25 57.7285)">13</text>
		<text transform="matrix(1 0 0 1 38.5 65.1543)">14</text>
		<text transform="matrix(1 0 0 1 38.6572 74.0791)">15</text>
		<text transform="matrix(1 0 0 1 38.5386 84.5)">16</text>
		<text transform="matrix(1 0 0 1 25.5 96.9297)">17</text>
		<text transform="matrix(1 0 0 1 54.5 96.5)">18</text>
	</g>
	<g id="StrokePaths" style="fill:none;stroke:#404040;stroke-width:3;stroke-linecap:round;stroke-linejoin:round;">
		<path d="M29.5,9c0.04,0.49,0.08,1.26-0.08,1.96C28.5,15.1,23.22,24.19,16,29.75"/>
		<path d="M28.75,19.07c4.31,0,18.16-2.14,23-2.14"/>
		<path d="M35.27,20.83c1.6,1.17,4.14,4.81,4.54,6.63"/>
		<path d="M61.25,8.25c0.02,0.37,0.1,0.95-0.05,1.47c-1.14,3.84-4.29,9.32-8.46,14.03"/>
		<path d="M60.98,17.16c4.73,0,24.08-3.07,29.4-3.07"/>
		<path d="M75.74,18c0.03,0.19,0.06,0.5-0.05,0.78c-0.63,1.65-4.24,5.26-9.19,7.47"/>
		<path d="M29.75,34.57c0.31,0.13,0.92,0.44,1.02,0.77c0.7,2.38,1.55,6.09,2.54,10.59"/>
		<path d="M31.88,35.18c10.97-0.4,36.36-3.5,44.3-3.44c1.83,0.01,2.63,1.34,2.29,2.88c-0.33,1.47-0.97,2.69-3.02,5.98"/>
		<path d="M33.38,44.8c8.97-0.55,31.99-2.73,44.54-3.25"/>
		<path d="M52.4,27c0.88,0.37,1.59,1.63,1.59,2.39c0,7.01,0,15.96-0.18,20.56"/>
		<path d="M14.52,52.49c1.52,0.48,4.32,0.65,5.83,0.51c12.97-1.2,50.57-4.18,69.31-4.48c2.54-0.04,4.06,0.25,5.32,0.49"/>
		<path d="M33.42,57.93c0.39,0.71,0.67,2.66,0.67,3.6c0,0.95,0.04,28.02,0.04,28.49"/>
		<path d="M35.33,59.14c7.92-0.64,33.48-2.52,36.97-2.66c2.9-0.12,3.93,0.96,3.93,3.45c0,4.32-0.84,26.5-0.84,27.21"/>
		<path d="M34.75,67.92c6.6-0.43,13.19-0.87,19.79-1.27c2.02-0.12,4.04-0.24,5.97-0.35"/>
		<path d="M34.5,77.44c6.51,0,13.06-0.7,19.54-1.18c2-0.15,4.01-0.29,5.99-0.43"/>
		<path d="M36.06,86.73c7.19,0,28.85-1.92,38.15-1.92"/>
		<path d="M42.14,91.49c-0.14,1.01,0.09,1.62-1,2.26c-3.33,1.96-11.51,6.2-18.14,8.5"/>
		<path d="M64.55,90.27c8.42,2.98,18.36,8.38,20.66,10.98"/>
	</g>
</svg>
