<?xml version="1.0" encoding="UTF-8"?>
<!DOCTYPE svg PUBLIC "-//W3C//DTD SVG 1.0//EN" "http://www.w3.org/TR/2001/REC-SVG-20010904/DTD/svg10.dtd">
<svg xmlns="http://www.w3.org/2000/svg" width="109" height="109" viewBox="0 0 109 109">
	<g id="HelperGrid" style="opacity:0.75;">
		<rect x="0.5" y="0.5" style="fill:none;stroke:#404040;" width="108" height="108"/> 
		<line style="fill:none;stroke:#404040;" x1="0.5" y1="72.51" x2="108.5" y2="72.51"/>
		<line style="fill:none;stroke:#404040;" x1="0.5" y1="36.49" x2="108.5" y2="36.49"/>
		<line style="fill:none;stroke:#404040;" x1="72.5" y1="0.5" x2="72.5" y2="108.5"/>
		<line style="fill:none;stroke:#404040;" x1="36.5" y1="0.5" x2="36.5" y2="108.5"/>
	</g>
	<g id="Kanji">
		<text transform="matrix(1 0 0 1 0.5 93.3799)" style="font-size:108;">粗</text>
	</g>
	<g id="StrokeNumbers" style="font-size:8;fill:#808080">
		<text transform="matrix(1 0 0 1 9.75 27.5)">1</text>
		<text transform="matrix(1 0 0 1 37.5 21.5)">2</text>
		<text transform="matrix(1 0 0 1 5.25 48.1299)">3</text>
		<text transform="matrix(1 0 0 1 20.5 15.1299)">4</text>
		<text transform="matrix(1 0 0 1 19.5 58.5)">5</text>
		<text transform="matrix(1 0 0 1 39.5 55.5)">6</text>
		<text transform="matrix(1 0 0 1 48.5 35.5)">7</text>
		<text transform="matrix(1 0 0 1 56.5 23.5)">8</text>
		<text transform="matrix(1 0 0 1 60.75 43.5)">9</text>
		<text transform="matrix(1 0 0 1 59.5 62.9785)">10</text>
		<text transform="matrix(1 0 0 1 40.5 86.5)">11</text>
	</g>
	<g id="StrokePaths" style="fill:none;stroke:#404040;stroke-width:3;stroke-linecap:round;stroke-linejoin:round;">
		<path d="M16.69,28.14c2.29,2.31,5.74,8.82,6.31,12.41"/>
		<path d="M45.01,23.97c0.02,0.32,0.04,0.83-0.04,1.28c-0.46,2.71-3.07,8.65-6.66,12.29"/>
		<path d="M12.1,47.27c0.53,0.23,1.94,0.8,3.35,0.68c5.05-0.45,22.05-1.7,27.76-2.42c1.4-0.18,1.76-0.23,2.65,0"/>
		<path d="M29.52,15.46c0.88,0.45,1.41,2.03,1.59,2.94s-0.18,66.24-0.18,71.89c0,12.21-5.56,2.59-6.68,1.46"/>
		<path d="M31.02,48.46C27.5,59.37,21.5,71,11,82.98"/>
		<path d="M33.87,53.82c4.46,2.84,6.63,5.93,9.4,10.9"/>
		<path d="M54.7,25.72c0.58,0.97,0.97,1.93,1.16,2.88c0.19,0.95,0.43,57.37,0.35,59.47"/>
		<path d="M57.01,26.79c2.24-0.1,22.79-2.8,24.46-2.96c2.99-0.29,4.12,3.29,3.76,4.68c-0.35,1.33-0.18,36.76-0.28,55.72"/>
		<path d="M57.09,46.67c4.59-0.56,9.19-1.07,13.79-1.53c1.23-0.12,2.46-0.24,3.65-0.35"/>
		<path d="M57.54,65.88c4.21-0.24,8.42-0.63,12.63-0.96c1.22-0.09,2.45-0.19,3.65-0.27"/>
		<path d="M42.43,89.59c1.16,0.41,3.27,0.48,4.43,0.41c12.02-0.68,36.72-3.23,48.82-3.23c1.92,0,3.08,0.2,4.04,0.4"/>
	</g>
</svg>
