<?xml version="1.0" encoding="UTF-8"?>
<!-- Copyright (C) 2009 Ulrich Apel.
This work is distributed under the conditions of the Creative Commons
Attribution-Share Alike 3.0 Licence. This means you are free:
* to Share - to copy, distribute and transmit the work
* to Remix - to adapt the work

Under the following conditions:
* Attribution. You must attribute the work by stating your use of KanjiVG in
  your own copyright header and linking to KanjiVG's website
  (http://kanjivg.tagaini.net)
* Share Alike. If you alter, transform, or build upon this work, you may
  distribute the resulting work only under the same or similar license to this
  one.

See http://creativecommons.org/licenses/by-sa/3.0/ for more details. -->
<!DOCTYPE svg PUBLIC "-//W3C//DTD SVG 1.0//EN" "http://www.w3.org/TR/2001/REC-SVG-20010904/DTD/svg10.dtd">
<svg xmlns="http://www.w3.org/2000/svg" width="109" height="109" viewBox="0 0 109 109">
	<g id="HelperGrid" style="opacity:0.75;">
		<rect x="0.5" y="0.5" style="fill:none;stroke:#404040;" width="108" height="108"/> 
		<line style="fill:none;stroke:#404040;" x1="0.5" y1="72.51" x2="108.5" y2="72.51"/>
		<line style="fill:none;stroke:#404040;" x1="0.5" y1="36.49" x2="108.5" y2="36.49"/>
		<line style="fill:none;stroke:#404040;" x1="72.5" y1="0.5" x2="72.5" y2="108.5"/>
		<line style="fill:none;stroke:#404040;" x1="36.5" y1="0.5" x2="36.5" y2="108.5"/>
	</g>
	<g id="Kanji">
		<text transform="matrix(1 0 0 1 0.5 93.3799)" style="font-size:108;">粟</text>
	</g>
	<g id="StrokeNumbers" style="font-size:8;fill:#808080">
		<text transform="matrix(1 0 0 1 19.5 15.8486)">1</text>
		<text transform="matrix(1 0 0 1 16.5 36.8477)">2</text>
		<text transform="matrix(1 0 0 1 26.5 27.8481)">3</text>
		<text transform="matrix(1 0 0 1 34.5 25.5)">4</text>
		<text transform="matrix(1 0 0 1 56.7158 22.8486)">5</text>
		<text transform="matrix(1 0 0 1 31.5 40.5)">6</text>
		<text transform="matrix(1 0 0 1 24.5 55.5)">7</text>
		<text transform="matrix(1 0 0 1 67.5 49.5)">8</text>
		<text transform="matrix(1 0 0 1 9.5 68.5)">9</text>
		<text transform="matrix(1 0 0 1 41.5 51.5)">10</text>
		<text transform="matrix(1 0 0 1 31.5 76.5)">11</text>
		<text transform="matrix(1 0 0 1 67.5 73.3047)">12</text>
	</g>
	<g id="StrokePaths" style="fill:none;stroke:#404040;stroke-width:3;stroke-linecap:round;stroke-linejoin:round;">
		<path d="M25.75,15.72c0.98,0.48,2.79,0.55,3.77,0.48c9.07-0.65,39.23-4.2,46.78-4.23c1.64-0.01,2.63,0.23,3.45,0.47"/>
		<path d="M23.25,29.44c0.41,0.32,0.83,0.58,1.01,0.98c1.42,3.16,2.61,10.37,3.58,16.04"/>
		<path d="M25.79,30.53c10.01-1.32,51.39-6.06,56.55-6.51c1.89-0.16,3.02,1.65,2.75,2.61c-1.12,3.98-1.4,8.9-3.79,14.63"/>
		<path d="M40.87,18.75c1.09,0.5,1.82,2.24,1.96,3.25c0.42,3,1.42,13.75,2.42,20.75"/>
		<path d="M63.37,16.25c1.09,0.5,1.42,2.71,1.13,5c-0.75,6-2.25,13.5-3.5,18.75"/>
		<path d="M28.25,44.38c6.06-0.51,46.25-4.62,53.95-5.13"/>
		<path d="M31.52,51.58C34.5,53.33,39,58.28,39.75,61"/>
		<path d="M75.78,45.89c0.02,0.3,0.15,0.82-0.05,1.21c-1.98,3.89-5.23,8.14-8.67,11.61"/>
		<path d="M17.25,67.81c0.84,0.23,3.07,0.82,5.3,0.69c12.7-0.75,51.7-5.5,64.27-6.01c2.23-0.09,3.79,0.27,5.18,0.5"/>
		<path d="M52.75,47.5c1.25,0.5,2,2.25,2.25,3.25s-0.25,37.75-0.25,44c0,12-5,3-6.25,1.75"/>
		<path d="M50.75,66c-6.34,8.97-21.75,21.57-36,26.75"/>
		<path d="M55.5,66.25c4.95,3.4,26.66,19.47,32.04,22.81c1.82,1.13,3.39,1.62,5.21,1.94"/>
	</g>
</svg>
