<?xml version="1.0" encoding="UTF-8"?>
<!DOCTYPE svg PUBLIC "-//W3C//DTD SVG 1.0//EN" "http://www.w3.org/TR/2001/REC-SVG-20010904/DTD/svg10.dtd">
<svg xmlns="http://www.w3.org/2000/svg" width="109" height="109" viewBox="0 0 109 109">
	<g id="HelperGrid" style="opacity:0.75;">
		<rect x="0.5" y="0.5" style="fill:none;stroke:#404040;" width="108" height="108"/> 
		<line style="fill:none;stroke:#404040;" x1="0.5" y1="72.51" x2="108.5" y2="72.51"/>
		<line style="fill:none;stroke:#404040;" x1="0.5" y1="36.49" x2="108.5" y2="36.49"/>
		<line style="fill:none;stroke:#404040;" x1="72.5" y1="0.5" x2="72.5" y2="108.5"/>
		<line style="fill:none;stroke:#404040;" x1="36.5" y1="0.5" x2="36.5" y2="108.5"/>
	</g>
	<g id="Kanji">
		<text transform="matrix(1 0 0 1 0.5 93.3799)" style="font-size:108;">粥</text>
	</g>
	<g id="StrokeNumbers" style="font-size:8;fill:#808080">
		<text transform="matrix(1 0 0 1 36.5 34.5)">1</text>
		<text transform="matrix(1 0 0 1 60.5 21.5)">2</text>
		<text transform="matrix(1 0 0 1 36.5 42.5)">3</text>
		<text transform="matrix(1 0 0 1 43.25 14.5)">4</text>
		<text transform="matrix(1 0 0 1 43.5 55.5)">5</text>
		<text transform="matrix(1 0 0 1 59.5 52.5)">6</text>
		<text transform="matrix(1 0 0 1 13.5 17.5)">7</text>
		<text transform="matrix(1 0 0 1 17.5 33.5)">8</text>
		<text transform="matrix(1 0 0 1 9.5 42.5)">9</text>
		<text transform="matrix(1 0 0 1 71.5 13.4541)">10</text>
		<text transform="matrix(1 0 0 1 75.5 32.5)">11</text>
		<text transform="matrix(1 0 0 1 63.5 40.5)">12</text>
	</g>
	<g id="StrokePaths" style="fill:none;stroke:#404040;stroke-width:3;stroke-linecap:round;stroke-linejoin:round;">
		<path d="M13.5,19.88c1.25,0.62,4.01,0.8,5.19,0.54c0.96-0.2,11.67-2.46,14.27-3.29c2.4-0.76,2.7,1.84,1.74,3.89c-0.95,2.04-3.31,11.03-3.96,14.01"/>
		<path d="M18.25,37.25c2.29,0,8.52-1.5,10.16-1.5s3.28-0.5,4.59-0.5"/>
		<path d="M17.63,36.47c0.55,0.96,0.46,4.56,0.11,6.08c-0.41,1.74-3.88,8.77-4.24,9.68c-1,2.56-0.25,4.56,2.75,3.06c1.21-0.6,10.25-2.75,14.46-3.19c2.99-0.31,2,5.21,1.79,6.94c-1.09,8.88-3.97,25.7-7.75,32c-3.75,6.25-6.36-0.31-7.19-2.17"/>
		<path d="M39.69,25.14c2.47,2.12,6.19,8.11,6.81,11.41"/>
		<path d="M68.26,20.97c0.02,0.31,0.16,0.85-0.04,1.26c-1.22,2.52-3.42,8.49-7.4,12.06"/>
		<path d="M37.35,45.15c0.47,0.2,1.73,0.71,2.98,0.6c4.49-0.4,19.34-2.4,24.42-3.04c1.25-0.16,1.57-0.2,2.35,0"/>
		<path d="M52.52,13.46c0.88,0.45,1.41,2.03,1.59,2.94s-0.18,68.24-0.18,73.89c0,12.46-6.05,3.34-7.68,1.71"/>
		<path d="M54.02,44.46C50.94,55.87,43.44,71.89,36.5,78.48"/>
		<path d="M56.62,52.32c4.82,3.23,8.36,6.95,10.15,12.4"/>
		<path d="M72.5,16.38c0.75,0.62,2.51,1.3,3.69,1.04c0.96-0.2,12.67-1.46,15.27-2.29c2.4-0.76,2.7,1.84,1.74,3.89c-0.95,2.04-3.31,11.03-3.96,14.01"/>
		<path d="M75.5,36.25c2.41,0,8.96-1.5,10.68-1.5s3.44-0.5,4.82-0.5"/>
		<path d="M75.13,34.97c0.55,0.96,0.46,4.56,0.11,6.08c-0.41,1.74-2.88,8.77-3.24,9.68c-1,2.56-0.51,3.86,2.75,3.06C79,52.75,87.5,51.54,91.71,51.1c2.99-0.31,2,5.21,1.79,6.94c-1.09,8.88-4.97,27.2-8.75,33.5c-3.75,6.25-6.36-0.31-7.19-2.17"/>
	</g>
</svg>
