<?xml version="1.0" encoding="UTF-8"?>
<!-- Copyright (C) 2009 Ulrich Apel.
This work is distributed under the conditions of the Creative Commons
Attribution-Share Alike 3.0 Licence. This means you are free:
* to Share - to copy, distribute and transmit the work
* to Remix - to adapt the work

Under the following conditions:
* Attribution. You must attribute the work by stating your use of KanjiVG in
  your own copyright header and linking to KanjiVG's website
  (http://kanjivg.tagaini.net)
* Share Alike. If you alter, transform, or build upon this work, you may
  distribute the resulting work only under the same or similar license to this
  one.

See http://creativecommons.org/licenses/by-sa/3.0/ for more details. -->
<!DOCTYPE svg PUBLIC "-//W3C//DTD SVG 1.0//EN" "http://www.w3.org/TR/2001/REC-SVG-20010904/DTD/svg10.dtd">
<svg xmlns="http://www.w3.org/2000/svg" width="109" height="109" viewBox="0 0 109 109">
	<g id="HelperGrid" style="opacity:0.75;">
		<rect x="0.5" y="0.5" style="fill:none;stroke:#404040;" width="108" height="108"/> 
		<line style="fill:none;stroke:#404040;" x1="0.5" y1="72.51" x2="108.5" y2="72.51"/>
		<line style="fill:none;stroke:#404040;" x1="0.5" y1="36.49" x2="108.5" y2="36.49"/>
		<line style="fill:none;stroke:#404040;" x1="72.5" y1="0.5" x2="72.5" y2="108.5"/>
		<line style="fill:none;stroke:#404040;" x1="36.5" y1="0.5" x2="36.5" y2="108.5"/>
	</g>
	<g id="Kanji">
		<text transform="matrix(1 0 0 1 0.5 93.3799)" style="font-size:108;">糺</text>
	</g>
	<g id="StrokeNumbers" style="font-size:8;fill:#808080">
		<text transform="matrix(1 0 0 1 24.5 12.5)">1</text>
		<text transform="matrix(1 0 0 1 37.5 20.5547)">2</text>
		<text transform="matrix(1 0 0 1 41.5 44.5)">3</text>
		<text transform="matrix(1 0 0 1 26.25 68.4043)">4</text>
		<text transform="matrix(1 0 0 1 15.5 72.5)">5</text>
		<text transform="matrix(1 0 0 1 38.5 67.5)">6</text>
		<text transform="matrix(1 0 0 1 53.5 13.5)">7</text>
	</g>
	<g id="StrokePaths" style="fill:none;stroke:#404040;stroke-width:3;stroke-linecap:round;stroke-linejoin:round;">
		<path d="M30.97,12.25c0.41,1.31,0.59,2.3-0.2,3.72C27.25,22.25,20.88,30,16.82,33.06c-0.83,0.63-0.81,3.03,0,3.28c4.27,1.31,10.25,3.5,13.91,5.9"/>
		<path d="M45.09,21.94c0.34,0.63,0.45,2.68,0,3.35c-6.68,9.82-16.64,23.5-25.81,32.46c-2.1,2.05,0.52,3.23,1.89,2.81c5.74-1.75,17.65-4.87,25.02-6.54"/>
		<path d="M41.25,47c2.91,2.52,7.52,10.34,8.25,14.25"/>
		<path d="M32.72,60.76c0.07,0.29,0.91,1.48,0.98,3.28c0.31,8.64-0.2,30.27-0.2,33.21"/>
		<path d="M23.76,71.5c0.2,1.09,0.17,3.23-0.2,4.01c-2.4,5.08-8.41,14.88-11.81,19.24"/>
		<path d="M41.5,69.25c4.38,3.67,7.73,12.18,8.75,15.5"/>
		<path d="M61.49,13.87c0.83,0.92,1.68,2.72,1.71,4.64c0.17,8.58-0.45,59.86-0.45,65.69c0,10.74,3.09,12.08,17.76,12.08c11.87,0,13.38-2.65,13.38-9.56"/>
	</g>
</svg>
