<?xml version="1.0" encoding="UTF-8"?>
<!-- Copyright (C) 2009 Ulrich Apel.
This work is distributed under the conditions of the Creative Commons
Attribution-Share Alike 3.0 Licence. This means you are free:
* to Share - to copy, distribute and transmit the work
* to Remix - to adapt the work

Under the following conditions:
* Attribution. You must attribute the work by stating your use of KanjiVG in
  your own copyright header and linking to KanjiVG's website
  (http://kanjivg.tagaini.net)
* Share Alike. If you alter, transform, or build upon this work, you may
  distribute the resulting work only under the same or similar license to this
  one.

See http://creativecommons.org/licenses/by-sa/3.0/ for more details. -->
<!DOCTYPE svg PUBLIC "-//W3C//DTD SVG 1.0//EN" "http://www.w3.org/TR/2001/REC-SVG-20010904/DTD/svg10.dtd">
<svg xmlns="http://www.w3.org/2000/svg" width="109" height="109" viewBox="0 0 109 109">
	<g id="HelperGrid" style="opacity:0.75;">
		<rect x="0.5" y="0.5" style="fill:none;stroke:#404040;" width="108" height="108"/> 
		<line style="fill:none;stroke:#404040;" x1="0.5" y1="72.51" x2="108.5" y2="72.51"/>
		<line style="fill:none;stroke:#404040;" x1="0.5" y1="36.49" x2="108.5" y2="36.49"/>
		<line style="fill:none;stroke:#404040;" x1="72.5" y1="0.5" x2="72.5" y2="108.5"/>
		<line style="fill:none;stroke:#404040;" x1="36.5" y1="0.5" x2="36.5" y2="108.5"/>
	</g>
	<g id="Kanji">
		<text transform="matrix(1 0 0 1 0.5 93.3799)" style="font-size:108;">紂</text>
	</g>
	<g id="StrokeNumbers" style="font-size:8;fill:#808080">
		<text transform="matrix(1 0 0 1 22.5 11.5)">1</text>
		<text transform="matrix(1 0 0 1 35.5 25.5547)">2</text>
		<text transform="matrix(1 0 0 1 38.5 45.5)">3</text>
		<text transform="matrix(1 0 0 1 23.5 68.5)">4</text>
		<text transform="matrix(1 0 0 1 12.5 72.3291)">5</text>
		<text transform="matrix(1 0 0 1 37.25 65.2549)">6</text>
		<text transform="matrix(1 0 0 1 47.5 34.5)">7</text>
		<text transform="matrix(1 0 0 1 70.25 14.5)">8</text>
		<text transform="matrix(1 0 0 1 52.5 49.5)">9</text>
	</g>
	<g id="StrokePaths" style="fill:none;stroke:#404040;stroke-width:3;stroke-linecap:round;stroke-linejoin:round;">
		<path d="M29.4,10.92c0.36,1.42,0.38,2.47-0.18,4.01c-2.46,6.81-7.46,14.56-12.28,20.01c-0.67,0.75-0.72,3.27,0,3.54c3.81,1.42,8.64,3.28,11.91,5.88"/>
		<path d="M42.3,25.68c0.3,0.58,0.37,2.46,0,3.09c-5.8,9.73-16.99,21.18-24.98,29.44c-1.83,1.89,0.46,2.98,1.65,2.59c5-1.61,16.87-4.49,23.29-6.03"/>
		<path d="M36.5,47c3.44,2.34,8.89,9.61,9.75,13.25"/>
		<path d="M29.64,60.87c0.07,0.36,0.91,1.85,0.98,4.09c0.31,10.79-0.2,28.79-0.2,32.46"/>
		<path d="M21.34,70.6c0.19,0.93,0.16,2.76-0.18,3.42c-2.22,4.33-7.76,12.69-10.9,16.41"/>
		<path d="M38.18,68.79c3.87,3.77,6.84,12.52,7.74,15.94"/>
		<path d="M47,38.18c1.18,0.26,3.33,0.32,4.52,0.26c13.06-0.72,28.22-2.19,42.61-2.58c1.96-0.05,3.14,0.12,4.12,0.25"/>
		<path d="M80.13,14.08c0.09,0.46,1.27,2.4,1.27,5.32c0,19.66-0.26,63.27-0.26,68.05c0,11.6-5.69,3.89-7.78,1.21"/>
		<path d="M56.75,53c3.56,2.45,9.19,10.06,10.08,13.87"/>
	</g>
</svg>
