<?xml version="1.0" encoding="UTF-8"?>
<!DOCTYPE svg PUBLIC "-//W3C//DTD SVG 1.0//EN" "http://www.w3.org/TR/2001/REC-SVG-20010904/DTD/svg10.dtd">
<svg xmlns="http://www.w3.org/2000/svg" width="109" height="109" viewBox="0 0 109 109">
	<g id="HelperGrid" style="opacity:0.75;">
		<rect x="0.5" y="0.5" style="fill:none;stroke:#404040;" width="108" height="108"/> 
		<line style="fill:none;stroke:#404040;" x1="0.5" y1="72.51" x2="108.5" y2="72.51"/>
		<line style="fill:none;stroke:#404040;" x1="0.5" y1="36.49" x2="108.5" y2="36.49"/>
		<line style="fill:none;stroke:#404040;" x1="72.5" y1="0.5" x2="72.5" y2="108.5"/>
		<line style="fill:none;stroke:#404040;" x1="36.5" y1="0.5" x2="36.5" y2="108.5"/>
	</g>
	<g id="Kanji">
		<text transform="matrix(1 0 0 1 0.5 93.3799)" style="font-size:108;">紲</text>
	</g>
	<g id="StrokeNumbers" style="font-size:8;fill:#808080">
		<text transform="matrix(1 0 0 1 19.5 12.5)">1</text>
		<text transform="matrix(1 0 0 1 33.5 23.5)">2</text>
		<text transform="matrix(1 0 0 1 31.5 49.5)">3</text>
		<text transform="matrix(1 0 0 1 2.75 82.5)">4</text>
		<text transform="matrix(1 0 0 1 14.5 77.5)">5</text>
		<text transform="matrix(1 0 0 1 26.5 73.5)">6</text>
		<text transform="matrix(1 0 0 1 38.5 41.5)">7</text>
		<text transform="matrix(1 0 0 1 60.5 15.5)">8</text>
		<text transform="matrix(1 0 0 1 74.5 15.5)">9</text>
		<text transform="matrix(1 0 0 1 70.25 65.7041)">10</text>
		<text transform="matrix(1 0 0 1 43.5 18.5)">11</text>
	</g>
	<g id="StrokePaths" style="fill:none;stroke:#404040;stroke-width:3;stroke-linecap:round;stroke-linejoin:round;">
		<path d="M24.85,12.75c0.34,1.48,0.42,2.6-0.17,4.18c-2.96,7.97-6.48,13.75-10.08,20.42c-0.48,0.9-0.67,3.41,0,3.69c3.53,1.48,8.48,3.94,11.51,6.65"/>
		<path d="M37.44,26.05c0.31,0.67,0.4,2.86,0,3.57C31.45,40.1,22.52,54.69,14.3,64.24c-1.89,2.19,0.47,3.44,1.7,3c5.15-1.87,15.82-5.19,22.44-6.98"/>
		<path d="M34.16,51.65c2.67,2.68,6.91,11.02,7.58,15.19"/>
		<path d="M9.27,80.83c4.06,3.35,7.17,11.14,8.12,14.17"/>
		<path d="M20.9,76.5c4.6,2.9,8.13,9.65,9.2,12.28"/>
		<path d="M32.54,71.36c4.46,2.33,7.89,7.74,8.93,9.85"/>
		<path d="M38.75,44.2c1.52,0.54,4.3,0.61,5.82,0.54c11.68-0.49,31.93-3.49,51.11-3.73c2.53-0.03,3.8,0.2,5.31,0.53"/>
		<path d="M64.87,18.25c1.09,0.5,1.74,2.25,1.96,3.25c0.22,1,0.5,44.25,0.28,50.5"/>
		<path d="M82.37,16.25c1.09,0.5,1.74,2.25,1.96,3.25c0.22,1-1.08,39-1.72,49.5"/>
		<path d="M67.25,70c4,0,15.25-1,17.5-1"/>
		<path d="M50.12,21.75c1.09,0.5,1.74,2.25,1.96,3.25c0.22,1-0.33,47.25-1.08,61.75c-0.23,4.36,1.07,4.43,3.75,4.25c11-0.75,25.75-1.25,36.25-1.75c3.26-0.16,6,1,7.25,1.25"/>
	</g>
</svg>
