<?xml version="1.0" encoding="UTF-8"?>
<!-- Copyright (C) 2009 Ulrich Apel.
This work is distributed under the conditions of the Creative Commons
Attribution-Share Alike 3.0 Licence. This means you are free:
* to Share - to copy, distribute and transmit the work
* to Remix - to adapt the work

Under the following conditions:
* Attribution. You must attribute the work by stating your use of KanjiVG in
  your own copyright header and linking to KanjiVG's website
  (http://kanjivg.tagaini.net)
* Share Alike. If you alter, transform, or build upon this work, you may
  distribute the resulting work only under the same or similar license to this
  one.

See http://creativecommons.org/licenses/by-sa/3.0/ for more details. -->
<!DOCTYPE svg PUBLIC "-//W3C//DTD SVG 1.0//EN" "http://www.w3.org/TR/2001/REC-SVG-20010904/DTD/svg10.dtd">
<svg xmlns="http://www.w3.org/2000/svg" width="109" height="109" viewBox="0 0 109 109">
	<g id="HelperGrid" style="opacity:0.75;">
		<rect x="0.5" y="0.5" style="fill:none;stroke:#404040;" width="108" height="108"/> 
		<line style="fill:none;stroke:#404040;" x1="0.5" y1="72.51" x2="108.5" y2="72.51"/>
		<line style="fill:none;stroke:#404040;" x1="0.5" y1="36.49" x2="108.5" y2="36.49"/>
		<line style="fill:none;stroke:#404040;" x1="72.5" y1="0.5" x2="72.5" y2="108.5"/>
		<line style="fill:none;stroke:#404040;" x1="36.5" y1="0.5" x2="36.5" y2="108.5"/>
	</g>
	<g id="Kanji">
		<text transform="matrix(1 0 0 1 0.5 93.3799)" style="font-size:108;">絃</text>
	</g>
	<g id="StrokeNumbers" style="font-size:8;fill:#808080">
		<text transform="matrix(1 0 0 1 20.25 16.25)">1</text>
		<text transform="matrix(1 0 0 1 31.25 30.25)">2</text>
		<text transform="matrix(1 0 0 1 35.25 51.25)">3</text>
		<text transform="matrix(1 0 0 1 4.25 83.25)">4</text>
		<text transform="matrix(1 0 0 1 16.25 78.25)">5</text>
		<text transform="matrix(1 0 0 1 27.25 74.25)">6</text>
		<text transform="matrix(1 0 0 1 57.25 14.25)">7</text>
		<text transform="matrix(1 0 0 1 43.25 27.25)">8</text>
		<text transform="matrix(1 0 0 1 57.25 38.25)">9</text>
		<text transform="matrix(1 0 0 1 71.25 41.25)">10</text>
		<text transform="matrix(1 0 0 1 79.25 69.25)">11</text>
	</g>
	<g id="StrokePaths" style="fill:none;stroke:#404040;stroke-width:3;stroke-linecap:round;stroke-linejoin:round;">
		<path d="M25.62,16c0.32,1.42,0.4,2.5-0.16,4.02c-2.84,7.66-6.21,13.2-9.65,19.61c-0.46,0.86-0.64,3.28,0,3.55c3.38,1.42,8.12,3.78,11.02,6.38"/>
		<path d="M37.68,28.78c0.3,0.64,0.39,2.75,0,3.43C31.95,42.27,23.4,56.28,15.53,65.46c-1.81,2.1,0.45,3.31,1.62,2.88c4.93-1.79,15.15-4.99,21.48-6.7"/>
		<path d="M34.54,53.36c2.56,2.58,6.61,10.59,7.25,14.59"/>
		<path d="M10.71,81.39c3.89,3.22,6.87,10.7,7.77,13.61"/>
		<path d="M21.85,77.23c4.4,2.79,7.78,9.27,8.81,11.8"/>
		<path d="M32.99,72.29c4.27,2.24,7.55,7.43,8.55,9.46"/>
		<path d="M62.06,15.25c2.19,0.25,7.19,4.25,8.25,8.26"/>
		<path d="M44.44,29.54c1.13,0.1,3.71,0.61,4.82,0.55C60,29.5,79.16,27.2,91.85,26.4c1.87-0.12,2.82,0.05,4.21,0.7"/>
		<path d="M65.14,31.05c0.29,1.31,0.48,2.36-0.14,3.71c-2.71,5.89-7.79,15.37-11.76,19.03c-0.63,0.58-0.58,3.03,0,3.28c3.06,1.31,11,4.37,13.62,6.77"/>
		<path d="M80.95,40.51c0.43,1.38,0.17,4.21-0.4,4.98c-8.3,11.26-19.66,28.32-31.23,42.14c-1.33,1.59-0.82,2.34,0.8,1.99c9.78-2.11,27.35-4.99,35.9-6.98"/>
		<path d="M81.45,72.68c3.3,3.65,9.02,15.01,9.85,20.69"/>
	</g>
</svg>
