<?xml version="1.0" encoding="UTF-8"?>
<!-- Copyright (C) 2009 Ulrich Apel.
This work is distributed under the conditions of the Creative Commons
Attribution-Share Alike 3.0 Licence. This means you are free:
* to Share - to copy, distribute and transmit the work
* to Remix - to adapt the work

Under the following conditions:
* Attribution. You must attribute the work by stating your use of KanjiVG in
  your own copyright header and linking to KanjiVG's website
  (http://kanjivg.tagaini.net)
* Share Alike. If you alter, transform, or build upon this work, you may
  distribute the resulting work only under the same or similar license to this
  one.

See http://creativecommons.org/licenses/by-sa/3.0/ for more details. -->
<!DOCTYPE svg PUBLIC "-//W3C//DTD SVG 1.0//EN" "http://www.w3.org/TR/2001/REC-SVG-20010904/DTD/svg10.dtd">
<svg xmlns="http://www.w3.org/2000/svg" width="109" height="109" viewBox="0 0 109 109">
	<g id="HelperGrid" style="opacity:0.75;">
		<rect x="0.5" y="0.5" style="fill:none;stroke:#404040;" width="108" height="108"/> 
		<line style="fill:none;stroke:#404040;" x1="0.5" y1="72.51" x2="108.5" y2="72.51"/>
		<line style="fill:none;stroke:#404040;" x1="0.5" y1="36.49" x2="108.5" y2="36.49"/>
		<line style="fill:none;stroke:#404040;" x1="72.5" y1="0.5" x2="72.5" y2="108.5"/>
		<line style="fill:none;stroke:#404040;" x1="36.5" y1="0.5" x2="36.5" y2="108.5"/>
	</g>
	<g id="Kanji">
		<text transform="matrix(1 0 0 1 0.5 93.3799)" style="font-size:108;">絅</text>
	</g>
	<g id="StrokeNumbers" style="font-size:8;fill:#808080">
		<text transform="matrix(1 0 0 1 22.5 11.5)">1</text>
		<text transform="matrix(1 0 0 1 32.5 25.5)">2</text>
		<text transform="matrix(1 0 0 1 37.5 45.5)">3</text>
		<text transform="matrix(1 0 0 1 21.25 68.4043)">4</text>
		<text transform="matrix(1 0 0 1 11.5 73.5)">5</text>
		<text transform="matrix(1 0 0 1 34.5 66.5)">6</text>
		<text transform="matrix(1 0 0 1 43.5 24.5)">7</text>
		<text transform="matrix(1 0 0 1 54.5 15.5)">8</text>
		<text transform="matrix(1 0 0 1 55.5 47.0293)">9</text>
		<text transform="matrix(1 0 0 1 61.5 36.5)">10</text>
		<text transform="matrix(1 0 0 1 66.5 63.5)">11</text>
	</g>
	<g id="StrokePaths" style="fill:none;stroke:#404040;stroke-width:3;stroke-linecap:round;stroke-linejoin:round;">
		<path d="M29.36,13.17c0.41,1.34,0.43,2.34-0.21,3.8c-2.8,6.45-10.18,15.32-15.65,20.47c-0.76,0.71-0.82,3.1,0,3.35c4.32,1.34,9.04,1.74,12.75,4.2"/>
		<path d="M39.8,26.68c0.3,0.58,0.37,2.46,0,3.09C34,39.5,22.31,50.94,14.32,59.21c-1.83,1.89,0.46,2.98,1.65,2.59c5-1.61,17.87-5.49,24.29-7.03"/>
		<path d="M34.38,46.63c3.57,2.62,9.23,10.77,10.12,14.85"/>
		<path d="M27.64,60.87c0.07,0.36,0.91,1.85,0.98,4.09c0.31,10.79-0.2,28.79-0.2,32.46"/>
		<path d="M20.35,71.1c0.16,0.94,0.13,2.79-0.16,3.47c-1.87,4.39-6.55,12.85-9.2,16.62"/>
		<path d="M36.93,69.54c3.5,3.47,6.18,11.54,6.99,14.69"/>
		<path d="M50.81,17.03c1.12,1.31,1.5,2.3,1.5,4.68c0,4.79-0.12,70.37-0.12,74.29"/>
		<path d="M53.16,18.65c6.11-0.58,35.69-2.03,37.03-2.03c2.32,0,4.66,2.12,4.66,5.14c0,2.36-0.34,60.05-0.34,65.48c0,14-5.5,5.5-7.35,2.95"/>
		<path d="M62.13,39c0.87,1.25,1.26,2.42,1.32,3.05c0.45,4.97,0.98,17.18,1.29,26.11"/>
		<path d="M63.17,40.07c6.58-0.82,12.95-2.02,16.21-1.89c1.62,0.07,2.18,1.98,1.98,3.66c-0.91,7.57-1.61,14.41-2.86,22.91"/>
		<path d="M66.5,66.85c3.74-0.44,8-0.6,14.01-0.87"/>
	</g>
</svg>
