<?xml version="1.0" encoding="UTF-8"?>
<!-- Copyright (C) 2009 Ulrich Apel.
This work is distributed under the conditions of the Creative Commons
Attribution-Share Alike 3.0 Licence. This means you are free:
* to Share - to copy, distribute and transmit the work
* to Remix - to adapt the work

Under the following conditions:
* Attribution. You must attribute the work by stating your use of KanjiVG in
  your own copyright header and linking to KanjiVG's website
  (http://kanjivg.tagaini.net)
* Share Alike. If you alter, transform, or build upon this work, you may
  distribute the resulting work only under the same or similar license to this
  one.

See http://creativecommons.org/licenses/by-sa/3.0/ for more details. -->
<!DOCTYPE svg PUBLIC "-//W3C//DTD SVG 1.0//EN" "http://www.w3.org/TR/2001/REC-SVG-20010904/DTD/svg10.dtd">
<svg xmlns="http://www.w3.org/2000/svg" width="109" height="109" viewBox="0 0 109 109">
	<g id="HelperGrid" style="opacity:0.75;">
		<rect x="0.5" y="0.5" style="fill:none;stroke:#404040;" width="108" height="108"/> 
		<line style="fill:none;stroke:#404040;" x1="0.5" y1="72.51" x2="108.5" y2="72.51"/>
		<line style="fill:none;stroke:#404040;" x1="0.5" y1="36.49" x2="108.5" y2="36.49"/>
		<line style="fill:none;stroke:#404040;" x1="72.5" y1="0.5" x2="72.5" y2="108.5"/>
		<line style="fill:none;stroke:#404040;" x1="36.5" y1="0.5" x2="36.5" y2="108.5"/>
	</g>
	<g id="Kanji">
		<text transform="matrix(1 0 0 1 0.5 93.3799)" style="font-size:108;">絖</text>
	</g>
	<g id="StrokeNumbers" style="font-size:8;fill:#808080">
		<text transform="matrix(1 0 0 1 20.5 12.5)">1</text>
		<text transform="matrix(1 0 0 1 31.5 24.5)">2</text>
		<text transform="matrix(1 0 0 1 33.5 45.5)">3</text>
		<text transform="matrix(1 0 0 1 21.5 69.5)">4</text>
		<text transform="matrix(1 0 0 1 9.5 72.5)">5</text>
		<text transform="matrix(1 0 0 1 34.5 66.5)">6</text>
		<text transform="matrix(1 0 0 1 58.5 11.5)">7</text>
		<text transform="matrix(1 0 0 1 44.5 20.5)">8</text>
		<text transform="matrix(1 0 0 1 81.5 17.5)">9</text>
		<text transform="matrix(1 0 0 1 43.5 45.5)">10</text>
		<text transform="matrix(1 0 0 1 50.5 58.3799)">11</text>
		<text transform="matrix(1 0 0 1 63.5 59.5)">12</text>
	</g>
	<g id="StrokePaths" style="fill:none;stroke:#404040;stroke-width:3;stroke-linecap:round;stroke-linejoin:round;">
		<path d="M27.9,12.42c0.36,1.42,0.71,2.63-0.18,4.01C23,23.75,19.25,29.5,14.43,34.94c-0.67,0.75-0.72,3.27,0,3.54c3.81,1.42,8.14,3.28,11.41,5.88"/>
		<path d="M38.3,24.68c0.3,0.58,0.37,2.46,0,3.09c-5.8,9.73-15.99,22.18-23.98,30.44c-1.83,1.89,0.46,2.98,1.65,2.59c5-1.61,17.37-4.49,23.79-6.03"/>
		<path d="M34.88,48.38c2.87,2.31,7.4,9.5,8.12,13.1"/>
		<path d="M27.64,60.87c0.07,0.36,0.91,1.85,0.98,4.09c0.31,10.79-0.2,29.79-0.2,33.46"/>
		<path d="M17.86,71.1c0.15,0.96,0.12,2.86-0.15,3.55c-1.77,4.5-6.2,13.17-8.71,17.03"/>
		<path d="M37.18,70.29c3.12,3.65,5.52,12.13,6.24,15.44"/>
		<path d="M66.73,12.87c0.1,0.27,1.37,1.41,1.46,3.13c0.47,8.26-0.3,27.8-0.3,30.62"/>
		<path d="M47.25,24.5c3.6,2.95,9.29,12.13,10.2,16.72"/>
		<path d="M88.24,20.5c0.03,0.46,0.07,1.18-0.07,1.84c-0.82,3.89-5.67,11.16-11.93,17.63"/>
		<path d="M43.51,48.36c1,0.29,2.82,0.33,3.82,0.28c10.35-0.5,26.89-3.3,45.95-3.4c1.66-0.01,2.66,0.13,3.48,0.28"/>
		<path d="M60,51c0.05,1.1,0.39,2.83,0.39,4.42c0,12.58-4.14,34.08-19.13,42.33"/>
		<path d="M73.82,49.62c0.47,1.38,0.84,3.01,0.86,5.15c0.09,6.59-0.26,19.86-0.26,28.98c0,9,1.33,12,11.3,12c10.78,0,12.17-2.5,12.17-9.45"/>
	</g>
</svg>
