<?xml version="1.0" encoding="UTF-8"?>
<!-- Copyright (C) 2009 Ulrich Apel.
This work is distributed under the conditions of the Creative Commons
Attribution-Share Alike 3.0 Licence. This means you are free:
* to Share - to copy, distribute and transmit the work
* to Remix - to adapt the work

Under the following conditions:
* Attribution. You must attribute the work by stating your use of KanjiVG in
  your own copyright header and linking to KanjiVG's website
  (http://kanjivg.tagaini.net)
* Share Alike. If you alter, transform, or build upon this work, you may
  distribute the resulting work only under the same or similar license to this
  one.

See http://creativecommons.org/licenses/by-sa/3.0/ for more details. -->
<!DOCTYPE svg PUBLIC "-//W3C//DTD SVG 1.0//EN" "http://www.w3.org/TR/2001/REC-SVG-20010904/DTD/svg10.dtd">
<svg xmlns="http://www.w3.org/2000/svg" width="109" height="109" viewBox="0 0 109 109">
	<g id="HelperGrid" style="opacity:0.75;">
		<rect x="0.5" y="0.5" style="fill:none;stroke:#404040;" width="108" height="108"/> 
		<line style="fill:none;stroke:#404040;" x1="0.5" y1="72.51" x2="108.5" y2="72.51"/>
		<line style="fill:none;stroke:#404040;" x1="0.5" y1="36.49" x2="108.5" y2="36.49"/>
		<line style="fill:none;stroke:#404040;" x1="72.5" y1="0.5" x2="72.5" y2="108.5"/>
		<line style="fill:none;stroke:#404040;" x1="36.5" y1="0.5" x2="36.5" y2="108.5"/>
	</g>
	<g id="Kanji">
		<text transform="matrix(1 0 0 1 0.5 93.3799)" style="font-size:108;">綣</text>
	</g>
	<g id="StrokeNumbers" style="font-size:8;fill:#808080">
		<text transform="matrix(1 0 0 1 19.5 11.5)">1</text>
		<text transform="matrix(1 0 0 1 31.5 25.5)">2</text>
		<text transform="matrix(1 0 0 1 32.5 48.5)">3</text>
		<text transform="matrix(1 0 0 1 3.5 82.5)">4</text>
		<text transform="matrix(1 0 0 1 15.5 77.5)">5</text>
		<text transform="matrix(1 0 0 1 26.5 72.5)">6</text>
		<text transform="matrix(1 0 0 1 48.5 15.5)">7</text>
		<text transform="matrix(1 0 0 1 75.5 13.5)">8</text>
		<text transform="matrix(1 0 0 1 55.5 30.5)">9</text>
		<text transform="matrix(1 0 0 1 39.5 44.5)">10</text>
		<text transform="matrix(1 0 0 1 57.5 10.5)">11</text>
		<text transform="matrix(1 0 0 1 78.5 41.5)">12</text>
		<text transform="matrix(1 0 0 1 57 58.4785)">13</text>
		<text transform="matrix(1 0 0 1 46.5 71.5)">14</text>
	</g>
	<g id="StrokePaths" style="fill:none;stroke:#404040;stroke-width:3;stroke-linecap:round;stroke-linejoin:round;">
		<path d="M24.85,12.25c0.34,1.48,0.42,2.6-0.17,4.18c-2.96,7.97-6.48,13.75-10.08,20.42c-0.48,0.9-0.67,3.41,0,3.69c3.53,1.48,8.48,3.94,11.51,6.65"/>
		<path d="M37.44,25.55c0.31,0.67,0.4,2.86,0,3.57C31.45,39.6,22.52,54.19,14.3,63.74c-1.89,2.19,0.47,3.44,1.7,3c5.15-1.87,15.82-6.19,22.44-7.98"/>
		<path d="M34.16,51.15c2.23,2.2,5.77,9.03,6.33,12.44"/>
		<path d="M9.27,80.33c4.06,3.35,7.17,11.14,8.12,14.17"/>
		<path d="M20.9,76c4.6,2.9,8.13,9.65,9.2,12.28"/>
		<path d="M32.54,70.86c4.46,2.33,7.89,7.74,8.93,9.85"/>
		<path d="M55.85,17.27c0.04,0.4,0.07,1.03-0.07,1.61C54.9,22.26,50.07,28.05,43,34.25"/>
		<path d="M78,17c5.77,2.44,14.05,9.45,15.5,13.25"/>
		<path d="M48.36,34.13c1.07,0.19,3.04,0.24,4.11,0.19c6.83-0.33,22.75-2.23,31.28-2.41c1.79-0.04,2.86,0.09,3.76,0.18"/>
		<path d="M42.25,47.74c1.57,0.49,4.44,0.49,6.01,0.49c9.34-0.02,28.74-2.84,45.19-3.05c2.61-0.03,4.18,0.23,5.49,0.48"/>
		<path d="M67.24,12.25c0.53,0.84,0.85,2.1,0.55,3.97c-1,6.23-12.54,40.28-26.54,51.28"/>
		<path d="M71.75,34.5c3.3,5.85,17.54,24.97,21.19,29.26c1.24,1.46,2.83,2.08,4.06,2.49"/>
		<path d="M55.57,61.62c0.54,0.06,1.99,0.18,3.08,0.05c4.25-0.52,17.4-2.42,18.83-2.83c2.14-0.62,3.63,0.68,3.65,2.69c0.04,3.41-2,11.12-4.56,16.68c-1.87,4.06-4.31,0.79-5.32-0.48"/>
		<path d="M57.55,62.23c0,2.02,0.08,3.28,0.08,5.16c0,11.22,0.21,10.54,0.21,16.25c0,11.47,1.97,11.82,16.92,11.82c15.53,0,17.55-0.96,17.55-9.35"/>
	</g>
</svg>
