<?xml version="1.0" encoding="UTF-8"?>
<!-- Copyright (C) 2009 Ulrich Apel.
This work is distributed under the conditions of the Creative Commons
Attribution-Share Alike 3.0 Licence. This means you are free:
* to Share - to copy, distribute and transmit the work
* to Remix - to adapt the work

Under the following conditions:
* Attribution. You must attribute the work by stating your use of KanjiVG in
  your own copyright header and linking to KanjiVG's website
  (http://kanjivg.tagaini.net)
* Share Alike. If you alter, transform, or build upon this work, you may
  distribute the resulting work only under the same or similar license to this
  one.

See http://creativecommons.org/licenses/by-sa/3.0/ for more details. -->
<!DOCTYPE svg PUBLIC "-//W3C//DTD SVG 1.0//EN" "http://www.w3.org/TR/2001/REC-SVG-20010904/DTD/svg10.dtd">
<svg xmlns="http://www.w3.org/2000/svg" width="109" height="109" viewBox="0 0 109 109">
	<g id="HelperGrid" style="opacity:0.75;">
		<rect x="0.5" y="0.5" style="fill:none;stroke:#404040;" width="108" height="108"/> 
		<line style="fill:none;stroke:#404040;" x1="0.5" y1="72.51" x2="108.5" y2="72.51"/>
		<line style="fill:none;stroke:#404040;" x1="0.5" y1="36.49" x2="108.5" y2="36.49"/>
		<line style="fill:none;stroke:#404040;" x1="72.5" y1="0.5" x2="72.5" y2="108.5"/>
		<line style="fill:none;stroke:#404040;" x1="36.5" y1="0.5" x2="36.5" y2="108.5"/>
	</g>
	<g id="Kanji">
		<text transform="matrix(1 0 0 1 0.5 93.3799)" style="font-size:108;">綵</text>
	</g>
	<g id="StrokeNumbers" style="font-size:8;fill:#808080">
		<text transform="matrix(1 0 0 1 20.5 12.5)">1</text>
		<text transform="matrix(1 0 0 1 32.75 24.5)">2</text>
		<text transform="matrix(1 0 0 1 34.5 48.5)">3</text>
		<text transform="matrix(1 0 0 1 3.5 82.5)">4</text>
		<text transform="matrix(1 0 0 1 15.5 77.5)">5</text>
		<text transform="matrix(1 0 0 1 27.5 72.5)">6</text>
		<text transform="matrix(1 0 0 1 76.5 8.5)">7</text>
		<text transform="matrix(1 0 0 1 45.5 28.604)">8</text>
		<text transform="matrix(1 0 0 1 58.5 27.5)">9</text>
		<text transform="matrix(1 0 0 1 70.5 25.5)">10</text>
		<text transform="matrix(1 0 0 1 44.5 54.5)">11</text>
		<text transform="matrix(1 0 0 1 55.75 45.5)">12</text>
		<text transform="matrix(1 0 0 1 53.5 66.5)">13</text>
		<text transform="matrix(1 0 0 1 75.5 65.5)">14</text>
	</g>
	<g id="StrokePaths" style="fill:none;stroke:#404040;stroke-width:3;stroke-linecap:round;stroke-linejoin:round;">
		<path d="M25.85,12.25c0.34,1.48,0.42,2.6-0.17,4.18c-2.96,7.97-6.48,13.75-10.08,20.42c-0.48,0.9-0.67,3.41,0,3.69c3.53,1.48,8.48,3.94,11.51,6.65"/>
		<path d="M38.44,25.55c0.31,0.67,0.4,2.86,0,3.57C32.45,39.6,23.52,54.19,15.3,63.74c-1.89,2.19,0.47,3.44,1.7,3c5.15-1.87,15.82-5.19,22.44-6.98"/>
		<path d="M35.16,51.15c2.67,2.68,6.91,11.02,7.58,15.19"/>
		<path d="M10.27,80.33c4.06,3.35,7.17,11.14,8.12,14.17"/>
		<path d="M21.9,76c4.6,2.9,8.13,9.65,9.2,12.28"/>
		<path d="M33.54,70.86c4.46,2.33,7.89,7.74,8.93,9.85"/>
		<path d="M84,10.5c0.09,0.21,0.2,0.55-0.19,0.85C81.49,13.15,68.2,17.09,50,19.5"/>
		<path d="M53.69,27.53c0.03,0.44,0.13,1.17-0.05,1.77c-1.22,3.94-5.04,11.45-9.89,16.95"/>
		<path d="M65.52,26.11c2.64,2.49,6.82,10.26,7.48,14.14"/>
		<path d="M81.36,23.2C86.17,26.25,93.79,35.75,95,40.5"/>
		<path d="M47.41,57.03c1.33,0,3.32,0.16,5.08,0.25c4.86,0.25,27.35-2.05,40.39-2.56c1.76-0.07,2.21-0.26,3.31,0"/>
		<path d="M67.87,45.25c0.88,0.31,1.58,2.95,1.58,3.6c0,3.97-0.18,42.73-0.18,46.65c0,11-5.77,3-6.77,1.75"/>
		<path d="M68.15,58.65c-3.48,9.87-16.26,26.8-25.65,32"/>
		<path d="M69.25,58.75c4.5,6.5,17.25,23.5,23.65,28.7c1.4,1.14,2.5,1.71,3.85,2.05"/>
	</g>
</svg>
