<?xml version="1.0" encoding="UTF-8"?>
<!-- Copyright (C) 2009 Ulrich Apel.
This work is distributed under the conditions of the Creative Commons
Attribution-Share Alike 3.0 Licence. This means you are free:
* to Share - to copy, distribute and transmit the work
* to Remix - to adapt the work

Under the following conditions:
* Attribution. You must attribute the work by stating your use of KanjiVG in
  your own copyright header and linking to KanjiVG's website
  (http://kanjivg.tagaini.net)
* Share Alike. If you alter, transform, or build upon this work, you may
  distribute the resulting work only under the same or similar license to this
  one.

See http://creativecommons.org/licenses/by-sa/3.0/ for more details. -->
<!DOCTYPE svg PUBLIC "-//W3C//DTD SVG 1.0//EN" "http://www.w3.org/TR/2001/REC-SVG-20010904/DTD/svg10.dtd">
<svg xmlns="http://www.w3.org/2000/svg" width="109" height="109" viewBox="0 0 109 109">
	<g id="HelperGrid" style="opacity:0.75;">
		<rect x="0.5" y="0.5" style="fill:none;stroke:#404040;" width="108" height="108"/> 
		<line style="fill:none;stroke:#404040;" x1="0.5" y1="72.51" x2="108.5" y2="72.51"/>
		<line style="fill:none;stroke:#404040;" x1="0.5" y1="36.49" x2="108.5" y2="36.49"/>
		<line style="fill:none;stroke:#404040;" x1="72.5" y1="0.5" x2="72.5" y2="108.5"/>
		<line style="fill:none;stroke:#404040;" x1="36.5" y1="0.5" x2="36.5" y2="108.5"/>
	</g>
	<g id="Kanji">
		<text transform="matrix(1 0 0 1 0.5 93.3799)" style="font-size:108;">綸</text>
	</g>
	<g id="StrokeNumbers" style="font-size:8;fill:#808080">
		<text transform="matrix(1 0 0 1 19.25 13.25)">1</text>
		<text transform="matrix(1 0 0 1 31.25 26.8047)">2</text>
		<text transform="matrix(1 0 0 1 33.25 49.25)">3</text>
		<text transform="matrix(1 0 0 1 4.25 82.25)">4</text>
		<text transform="matrix(1 0 0 1 15.25 78.25)">5</text>
		<text transform="matrix(1 0 0 1 26.25 72.25)">6</text>
		<text transform="matrix(1 0 0 1 58.25 11.25)">7</text>
		<text transform="matrix(1 0 0 1 72.25 20.25)">8</text>
		<text transform="matrix(1 0 0 1 57.25 42.25)">9</text>
		<text transform="matrix(1 0 0 1 39.25 58.25)">10</text>
		<text transform="matrix(1 0 0 1 50.25 55.25)">11</text>
		<text transform="matrix(1 0 0 1 50.25 72.0547)">12</text>
		<text transform="matrix(1 0 0 1 63.25 66.25)">13</text>
		<text transform="matrix(1 0 0 1 76.5 66.25)">14</text>
	</g>
	<g id="StrokePaths" style="fill:none;stroke:#404040;stroke-width:3;stroke-linecap:round;stroke-linejoin:round;">
		<path d="M25.12,13.5c0.32,1.46,0.4,2.58-0.16,4.14c-2.84,7.9-6.21,13.62-9.65,20.23c-0.46,0.89-0.64,3.38,0,3.66c3.38,1.46,8.12,3.9,11.02,6.58"/>
		<path d="M37.18,26.68c0.3,0.66,0.39,2.83,0,3.54C31.45,40.6,22.9,55.05,15.03,64.52c-1.81,2.17,0.45,3.41,1.62,2.97c4.93-1.85,15.15-5.15,21.48-6.91"/>
		<path d="M34.04,52.04c2.56,2.66,6.61,10.92,7.25,15.06"/>
		<path d="M10.21,80.96c3.89,3.32,6.87,11.04,7.77,14.04"/>
		<path d="M21.35,76.66c4.4,2.88,7.78,9.56,8.81,12.17"/>
		<path d="M32.49,71.57c4.27,2.31,7.55,7.67,8.55,9.76"/>
		<path d="M66.33,10.4c0.07,0.87,0.14,2.25-0.13,3.5c-1.61,7.39-9.76,22.97-22.96,33.98"/>
		<path d="M65.62,16.13c5.2,4.82,21.87,23.35,26.26,27.36c1.49,1.36,3.4,1.94,4.89,2.33"/>
		<path d="M54.41,45.1c0.76,0.31,2.16,0.4,2.92,0.31c4.86-0.54,15.71-1.47,21.16-1.77c1.27-0.07,2.04,0.15,2.67,0.3"/>
		<path d="M47.32,56.38c0.5,0.63,1.11,1.63,1.19,2.78c0.46,6.19-0.26,29.73,0.38,36.02"/>
		<path d="M49.04,58.71c6.31-0.51,36-2.72,37.24-2.9c2.66-0.38,3.63,2.66,3.65,3.92c0.15,6.76-0.43,17.9-0.43,29.95c0,7.96-3.03,4.35-6.4,1.57"/>
		<path d="M49.03,74.48c5.06-0.43,28.66-1.69,32.22-1.9"/>
		<path d="M60,59.77c0.74,0.79,1.25,1.72,1.32,4.35c0.3,12.63-0.02,24.86-0.02,29.16"/>
		<path d="M72.61,58.67c0.74,0.79,1.25,1.72,1.31,4.35c0.3,12.63-0.02,25.52-0.02,29.82"/>
	</g>
</svg>
