<?xml version="1.0" encoding="UTF-8"?>
<!-- Copyright (C) 2009 Ulrich Apel.
This work is distributed under the conditions of the Creative Commons
Attribution-Share Alike 3.0 Licence. This means you are free:
* to Share - to copy, distribute and transmit the work
* to Remix - to adapt the work

Under the following conditions:
* Attribution. You must attribute the work by stating your use of KanjiVG in
  your own copyright header and linking to KanjiVG's website
  (http://kanjivg.tagaini.net)
* Share Alike. If you alter, transform, or build upon this work, you may
  distribute the resulting work only under the same or similar license to this
  one.

See http://creativecommons.org/licenses/by-sa/3.0/ for more details. -->
<!DOCTYPE svg PUBLIC "-//W3C//DTD SVG 1.0//EN" "http://www.w3.org/TR/2001/REC-SVG-20010904/DTD/svg10.dtd">
<svg xmlns="http://www.w3.org/2000/svg" width="109" height="109" viewBox="0 0 109 109">
	<g id="HelperGrid" style="opacity:0.75;">
		<rect x="0.5" y="0.5" style="fill:none;stroke:#404040;" width="108" height="108"/> 
		<line style="fill:none;stroke:#404040;" x1="0.5" y1="72.51" x2="108.5" y2="72.51"/>
		<line style="fill:none;stroke:#404040;" x1="0.5" y1="36.49" x2="108.5" y2="36.49"/>
		<line style="fill:none;stroke:#404040;" x1="72.5" y1="0.5" x2="72.5" y2="108.5"/>
		<line style="fill:none;stroke:#404040;" x1="36.5" y1="0.5" x2="36.5" y2="108.5"/>
	</g>
	<g id="Kanji">
		<text transform="matrix(1 0 0 1 0.5 93.3799)" style="font-size:108;">綾</text>
	</g>
	<g id="StrokeNumbers" style="font-size:8;fill:#808080">
		<text transform="matrix(1 0 0 1 24.25 14.25)">1</text>
		<text transform="matrix(1 0 0 1 33.25 25.8047)">2</text>
		<text transform="matrix(1 0 0 1 36.25 46.729)">3</text>
		<text transform="matrix(1 0 0 1 23 70.25)">4</text>
		<text transform="matrix(1 0 0 1 11.75 77.0791)">5</text>
		<text transform="matrix(1 0 0 1 35.25 68.7549)">6</text>
		<text transform="matrix(1 0 0 1 51.25 23.1797)">7</text>
		<text transform="matrix(1 0 0 1 56.25 13.25)">8</text>
		<text transform="matrix(1 0 0 1 45.25 38.2793)">9</text>
		<text transform="matrix(1 0 0 1 46.5 50.25)">10</text>
		<text transform="matrix(1 0 0 1 66.75 47.6299)">11</text>
		<text transform="matrix(1 0 0 1 52.25 62.25)">12</text>
		<text transform="matrix(1 0 0 1 65.25 60.25)">13</text>
		<text transform="matrix(1 0 0 1 59.75 73.25)">14</text>
	</g>
	<g id="StrokePaths" style="fill:none;stroke:#404040;stroke-width:3;stroke-linecap:round;stroke-linejoin:round;">
		<path d="M31.13,13.92c0.34,1.34,0.25,2.4-0.42,3.8c-2.83,5.9-6.45,12.15-11.3,17.72c-0.85,0.98-0.78,2.93,0.5,3.6c3.62,1.9,5.88,3.61,8.97,6.06"/>
		<path d="M41.55,25.18c0.2,0.95-0.13,2.71-0.5,3.34c-5.74,9.63-13.3,20.36-21.73,31.44c-1.59,2.1,0.46,2.98,1.65,2.59c5-1.61,13.28-4.55,19.54-6.53"/>
		<path d="M37.88,50c2.21,2.05,5.7,8.43,6.25,11.62"/>
		<path d="M29.64,62.87c0.75,0.75,0.98,1.51,0.98,3.34c0,7.42-0.09,17.79-0.09,25.29c0,2.96-0.03,4.1-0.03,5.25"/>
		<path d="M20.86,73.1c0.14,0.92-0.13,2.22-0.39,2.88c-1.72,4.28-5.78,12.28-8.22,15.95"/>
		<path d="M37.62,72.25c3.15,3.01,5.57,10,6.3,12.72"/>
		<path d="M54.16,25.75c1.59,0.25,3.25,0.13,4.73-0.04c5.83-0.67,12.23-1.84,18.11-2.21c1.71-0.11,3.48-0.31,5.17,0.08"/>
		<path d="M65.75,13.12c0.69,0.69,1.15,1.46,1.15,2.94c0,4.65-0.03,14.95-0.03,21.95"/>
		<path d="M44.67,40.51c3.08,0.49,5.55,0.24,7.97-0.04c10.2-1.18,23.96-2.94,33.37-3.65c2.39-0.18,4.71-0.5,7.04,0.19"/>
		<path d="M59.15,43.47c0.06,0.47,0.13,1.21-0.12,1.88c-0.97,2.67-4.74,7.82-10.76,12.3"/>
		<path d="M75.14,39.92c0.72,0.72,0.88,1.33,0.88,2.71c0,3.16,0.01,4.47,0.01,6.62c0,3.26,0.97,4.2,6.88,4.2c4.25,0,7.81-0.4,8.4-0.76"/>
		<path d="M61.71,57.62c0.1,1.12-0.04,1.76-0.53,2.78c-1.93,4.05-5.64,10.67-12.56,16.85"/>
		<path d="M62.96,63.25c0.25,0.03,1.59-0.01,2.31-0.08c3.18-0.31,6.47-1.69,9.81-2.47c2.29-0.54,3.81,0.8,2.86,3.08c-3.32,7.96-18.42,26.38-34.65,31.97"/>
		<path d="M56.49,71.44C61,74.88,73.37,84.05,82,89.58c2.93,1.88,6.13,3.67,9.35,4.42"/>
	</g>
</svg>
