<?xml version="1.0" encoding="UTF-8"?>
<!DOCTYPE svg PUBLIC "-//W3C//DTD SVG 1.0//EN" "http://www.w3.org/TR/2001/REC-SVG-20010904/DTD/svg10.dtd">
<svg xmlns="http://www.w3.org/2000/svg" width="109" height="109" viewBox="0 0 109 109">
	<g id="HelperGrid" style="opacity:0.75;">
		<rect x="0.5" y="0.5" style="fill:none;stroke:#404040;" width="108" height="108"/> 
		<line style="fill:none;stroke:#404040;" x1="0.5" y1="72.51" x2="108.5" y2="72.51"/>
		<line style="fill:none;stroke:#404040;" x1="0.5" y1="36.49" x2="108.5" y2="36.49"/>
		<line style="fill:none;stroke:#404040;" x1="72.5" y1="0.5" x2="72.5" y2="108.5"/>
		<line style="fill:none;stroke:#404040;" x1="36.5" y1="0.5" x2="36.5" y2="108.5"/>
	</g>
	<g id="Kanji">
		<text transform="matrix(1 0 0 1 0.5 93.3799)" style="font-size:108;">総</text>
	</g>
	<g id="StrokeNumbers" style="font-size:8;fill:#808080">
		<text transform="matrix(1 0 0 1 21.75 15.1299)">1</text>
		<text transform="matrix(1 0 0 1 29.5 28.5)">2</text>
		<text transform="matrix(1 0 0 1 35.25 46.5547)">3</text>
		<text transform="matrix(1 0 0 1 23.25 65.9785)">4</text>
		<text transform="matrix(1 0 0 1 12.5 71.5)">5</text>
		<text transform="matrix(1 0 0 1 35.5 63.5)">6</text>
		<text transform="matrix(1 0 0 1 52.5 16.6299)">7</text>
		<text transform="matrix(1 0 0 1 64.5 12.5)">8</text>
		<text transform="matrix(1 0 0 1 60.75 32.979)">9</text>
		<text transform="matrix(1 0 0 1 68.6992 47.9043)">10</text>
		<text transform="matrix(1 0 0 1 45.5 70.5)">11</text>
		<text transform="matrix(1 0 0 1 48.5 63.5)">12</text>
		<text transform="matrix(1 0 0 1 61.5 63.1299)">13</text>
		<text transform="matrix(1 0 0 1 79.5 63.5)">14</text>
	</g>
	<g id="StrokePaths" style="fill:none;stroke:#404040;stroke-width:3;stroke-linecap:round;stroke-linejoin:round;">
		<path d="M28.15,15c0.31,1.21,0.42,2.16-0.16,3.44c-2.74,6.06-5.62,10.4-10.07,16.04c-0.8,1.01-0.67,2.39,0.5,3.04c2.41,1.33,5.84,3.74,8.64,5.97"/>
		<path d="M37.03,26.94c0.34,1.18,0.38,2.37-0.25,3.44c-5.16,8.74-12.03,18.12-18.63,25.73c-1.64,1.89-0.78,3.51,1.32,2.97c4.83-1.26,13.28-3.58,19.98-5.74"/>
		<path d="M36.75,47.62c2.21,2.01,5.7,8.25,6.25,11.38"/>
		<path d="M28.83,59.01c0.77,0.77,1.28,2.12,1.28,3.28c0,7.09-0.09,18.96-0.09,26.71c0,2.96-0.07,5.18-0.07,6"/>
		<path d="M21.5,69.5c0.25,1,0.25,2-0.12,3.05c-1.27,3.62-5.08,10.4-7.13,13.45"/>
		<path d="M37.5,66.25c2.12,3.37,3.76,11.2,4.25,14.25"/>
		<path d="M60.5,17.27c0.21,0.56,0.24,1.72-0.04,2.4c-2.01,4.92-5.81,10.96-11.91,15.71"/>
		<path d="M69.8,12.5c3.45,0.62,12.23,12.03,18.21,16.99c2.03,1.68,3.99,3.26,6.44,4.19"/>
		<path d="M67.4,31.3c0.23,1.08,0.1,2.58-0.51,3.59C62.97,41.34,60,45.62,55.54,51.31c-1.79,2.28-0.86,3.91,1.3,3.31c6.04-1.67,15.66-3.62,24.62-5.41"/>
		<path d="M78,42.88c3.01,2.23,7.78,9.16,8.54,12.62"/>
		<path d="M50.62,75.12c0.22,1.96-2.19,10.59-3.94,13.85"/>
		<path d="M56.61,68.32C64.88,85.25,71.58,91.06,86.6,91.1c7.03,0.02,6.65-2.6,2.03-6.56"/>
		<path d="M70.48,64.5c2.39,5.38,4.36,6.86,5.07,3.11"/>
		<path d="M89.1,65.51c2.85,2.02,5.4,5.37,7.31,10.11"/>
	</g>
</svg>
