<?xml version="1.0" encoding="UTF-8"?>
<!DOCTYPE svg PUBLIC "-//W3C//DTD SVG 1.0//EN" "http://www.w3.org/TR/2001/REC-SVG-20010904/DTD/svg10.dtd">
<svg xmlns="http://www.w3.org/2000/svg" width="109" height="109" viewBox="0 0 109 109">
	<g id="HelperGrid" style="opacity:0.75;">
		<rect x="0.5" y="0.5" style="fill:none;stroke:#404040;" width="108" height="108"/> 
		<line style="fill:none;stroke:#404040;" x1="0.5" y1="72.51" x2="108.5" y2="72.51"/>
		<line style="fill:none;stroke:#404040;" x1="0.5" y1="36.49" x2="108.5" y2="36.49"/>
		<line style="fill:none;stroke:#404040;" x1="72.5" y1="0.5" x2="72.5" y2="108.5"/>
		<line style="fill:none;stroke:#404040;" x1="36.5" y1="0.5" x2="36.5" y2="108.5"/>
	</g>
	<g id="Kanji">
		<text transform="matrix(1 0 0 1 0.5 93.3799)" style="font-size:108;">練</text>
	</g>
	<g id="StrokeNumbers" style="font-size:8;fill:#808080">
		<text transform="matrix(1 0 0 1 20.5 15.5)">1</text>
		<text transform="matrix(1 0 0 1 35.25 22.6299)">2</text>
		<text transform="matrix(1 0 0 1 32.25 49.6299)">3</text>
		<text transform="matrix(1 0 0 1 21.75 69.5)">4</text>
		<text transform="matrix(1 0 0 1 11.5 75.1299)">5</text>
		<text transform="matrix(1 0 0 1 34.5 68.5)">6</text>
		<text transform="matrix(1 0 0 1 46.5 23.5)">7</text>
		<text transform="matrix(1 0 0 1 41.25 48.1299)">8</text>
		<text transform="matrix(1 0 0 1 48.75 36.5)">9</text>
		<text transform="matrix(1 0 0 1 53.25 48.1299)">10</text>
		<text transform="matrix(1 0 0 1 53.5 59.5)">11</text>
		<text transform="matrix(1 0 0 1 53.5 12.5)">12</text>
		<text transform="matrix(1 0 0 1 49.5 73.6299)">13</text>
		<text transform="matrix(1 0 0 1 81.5 72.5)">14</text>
	</g>
	<g id="StrokePaths" style="fill:none;stroke:#404040;stroke-width:3;stroke-linecap:round;stroke-linejoin:round;">
		<path d="M27.4,15.25c0.31,1.21,0.23,2.68-0.41,3.94c-2.86,5.68-6.67,11.69-10.07,16.79c-0.92,1.39-1.05,2.64,0.5,3.04c3.37,0.87,6.33,2.23,10.39,3.97"/>
		<path d="M39.28,25.44c0.47,0.93,0.34,2.43-0.5,3.69C33.08,37.64,24,50.25,16.65,59.61c-1.55,1.97,0.43,2.83,1.57,2.47c4.75-1.53,13.12-3.27,19.23-4.74"/>
		<path d="M34.5,50.5c2.38,2.21,6.15,9.07,6.75,12.5"/>
		<path d="M27.58,61.26c0.89,0.89,1.49,2.03,1.53,3.53c0.17,6.05,0.03,18.2-0.08,25.96c-0.04,3.34-0.08,5.87-0.08,6.75"/>
		<path d="M19.51,72.25c0.11,0.85,0.09,2.27-0.11,2.88c-1.28,3.96-4.47,11.6-6.28,15"/>
		<path d="M37.25,70.75c2.75,2.78,4.86,9.23,5.5,11.75"/>
		<path d="M47.46,26.42c2.42,0.33,5.01,0.42,7.05,0.07c9.37-1.61,18.24-2.36,28.49-3.41c1.98-0.2,3.98-0.32,5.92,0.22"/>
		<path d="M46.41,38.89c0.34,0.36,1.22,1.49,1.38,2.34c0.25,1.32,2.12,12.15,3.24,18.64c0.38,2.21,0.68,3.92,0.8,4.58"/>
		<path d="M48.53,39.89c5.79-0.57,29.48-3.33,36.11-4c2.54-0.26,4.82,0.96,4.43,3.87c-0.71,5.34-1.18,9.49-2.34,16.26c-0.27,1.59-0.58,3.32-0.93,5.24"/>
		<path d="M50.57,50.84c6.36-0.71,32.58-3.2,36.39-3.2"/>
		<path d="M52.89,62.07c7.73-0.69,23.78-2.4,32.32-2.8"/>
		<path d="M65.44,12c1.28,1.28,1.97,3,1.97,4.5c0,0.88,0.02,54.06,0.03,74.88c0,3.3,0,5.79,0,7.12"/>
		<path d="M65.44,61.5c0,1.12-0.15,2.31-0.68,3.26c-5.23,9.46-15.14,21.37-25.14,26.37"/>
		<path d="M68.69,61.5c5.75,7.99,16.89,19.54,22.63,24.22c1.75,1.43,3.95,3.2,6.19,3.78"/>
	</g>
</svg>
