<?xml version="1.0" encoding="UTF-8"?>
<!DOCTYPE svg PUBLIC "-//W3C//DTD SVG 1.0//EN" "http://www.w3.org/TR/2001/REC-SVG-20010904/DTD/svg10.dtd">
<svg xmlns="http://www.w3.org/2000/svg" width="109" height="109" viewBox="0 0 109 109">
	<g id="HelperGrid" style="opacity:0.75;">
		<rect x="0.5" y="0.5" style="fill:none;stroke:#404040;" width="108" height="108"/> 
		<line style="fill:none;stroke:#404040;" x1="0.5" y1="72.51" x2="108.5" y2="72.51"/>
		<line style="fill:none;stroke:#404040;" x1="0.5" y1="36.49" x2="108.5" y2="36.49"/>
		<line style="fill:none;stroke:#404040;" x1="72.5" y1="0.5" x2="72.5" y2="108.5"/>
		<line style="fill:none;stroke:#404040;" x1="36.5" y1="0.5" x2="36.5" y2="108.5"/>
	</g>
	<g id="Kanji">
		<text transform="matrix(1 0 0 1 0.5 93.3799)" style="font-size:108;">縉</text>
	</g>
	<g id="StrokeNumbers" style="font-size:8;fill:#808080">
		<text transform="matrix(1 0 0 1 17.25 11.25)">1</text>
		<text transform="matrix(1 0 0 1 27.25 23.25)">2</text>
		<text transform="matrix(1 0 0 1 33.25 44.25)">3</text>
		<text transform="matrix(1 0 0 1 20.25 68.25)">4</text>
		<text transform="matrix(1 0 0 1 9.25 72.0791)">5</text>
		<text transform="matrix(1 0 0 1 31.25 65.25)">6</text>
		<text transform="matrix(1 0 0 1 42.25 14.25)">7</text>
		<text transform="matrix(1 0 0 1 46.25 28.25)">8</text>
		<text transform="matrix(1 0 0 1 60 31.7793)">9</text>
		<text transform="matrix(1 0 0 1 69.25 26.25)">10</text>
		<text transform="matrix(1 0 0 1 88.25 31.25)">11</text>
		<text transform="matrix(1 0 0 1 46.25 52.25)">12</text>
		<text transform="matrix(1 0 0 1 43.25 70.25)">13</text>
		<text transform="matrix(1 0 0 1 55.25 61.25)">14</text>
		<text transform="matrix(1 0 0 1 58.25 75.25)">15</text>
		<text transform="matrix(1 0 0 1 59.25 90.0039)">16</text>
	</g>
	<g id="StrokePaths" style="fill:none;stroke:#404040;stroke-width:3;stroke-linecap:round;stroke-linejoin:round;">
		<path d="M24.03,12c0.32,1.38,0.34,2.4-0.16,3.91c-2.19,6.64-6.96,14.21-11.24,19.52c-0.59,0.73-0.64,3.19,0,3.45c3.38,1.38,7.57,2.7,10.47,5.23"/>
		<path d="M34.73,24.18c0.26,0.58,0.33,2.48,0,3.11c-5.13,9.8-14.18,22.33-21.23,30.65c-1.62,1.91,0.4,3,1.46,2.61c4.41-1.62,14.9-4.52,20.57-6.08"/>
		<path d="M30.75,45.75C34.01,48.49,39.18,57,40,61.25"/>
		<path d="M25.89,60.62c0.07,0.36,0.91,1.85,0.98,4.09c0.31,10.79-0.2,28.79-0.2,32.46"/>
		<path d="M17.61,70.85c0.15,0.98,0.12,2.91-0.15,3.61c-1.77,4.57-6.2,13.38-8.71,17.3"/>
		<path d="M34,68.25c3.96,4.19,7,13.93,7.92,17.72"/>
		<path d="M44.29,17.83c1.31,0.21,3.72,0.26,5.04,0.21c7.77-0.3,28.38-2.05,39.07-2.45c2.18-0.08,3.51,0.1,4.6,0.21"/>
		<path d="M53.96,23.98c0.24,0.38,0.39,0.88,0.24,1.38c-1.79,6.19-6.53,14.01-9.86,18.35c-1.06,1.38-1.06,1.68,0.49,1.38c3.25-0.64,12.2-2.45,17.08-3.13"/>
		<path d="M59.75,34.5c2.12,2.07,5.47,8.52,6,11.75"/>
		<path d="M80.66,21.5c0.22,0.4,0.34,0.91,0.22,1.43c-1.59,6.41-4.92,13.47-7.89,17.97c-0.94,1.43-0.94,1.74,0.43,1.43c2.89-0.67,13.87-3.03,18.21-3.75"/>
		<path d="M86.61,32.05c2.61,2.15,6.73,8.85,7.39,12.2"/>
		<path d="M43.75,54c1.23,0.27,3.5,0.27,4.73,0.27c11.77,0,33.73-2.54,45.7-2.53c2.06,0,3.29,0.13,4.32,0.26"/>
		<path d="M53.83,63.73c0.31,0.61,0.4,1.01,0.49,1.79c0.93,8.23,1.68,17.73,2.59,30.44"/>
		<path d="M55.02,64.75c7.18-1.34,20.98-2,28.94-2.7c2-0.18,2.98,1.04,2.88,2.51c-0.37,5.36-1.79,20.99-2.69,29.94"/>
		<path d="M57.72,78.99c2.16-0.38,24.43-2.07,26.22-2.22"/>
		<path d="M57.66,93.52c4.92-0.3,18.93-0.75,25.72-1.25"/>
	</g>
</svg>
