<?xml version="1.0" encoding="UTF-8"?>
<!DOCTYPE svg PUBLIC "-//W3C//DTD SVG 1.0//EN" "http://www.w3.org/TR/2001/REC-SVG-20010904/DTD/svg10.dtd">
<svg xmlns="http://www.w3.org/2000/svg" width="109" height="109" viewBox="0 0 109 109">
	<g id="HelperGrid" style="opacity:0.75;">
		<rect x="0.5" y="0.5" style="fill:none;stroke:#404040;" width="108" height="108"/> 
		<line style="fill:none;stroke:#404040;" x1="0.5" y1="72.51" x2="108.5" y2="72.51"/>
		<line style="fill:none;stroke:#404040;" x1="0.5" y1="36.49" x2="108.5" y2="36.49"/>
		<line style="fill:none;stroke:#404040;" x1="72.5" y1="0.5" x2="72.5" y2="108.5"/>
		<line style="fill:none;stroke:#404040;" x1="36.5" y1="0.5" x2="36.5" y2="108.5"/>
	</g>
	<g id="Kanji">
		<text transform="matrix(1 0 0 1 0.5 93.3799)" style="font-size:108;">縛</text>
	</g>
	<g id="StrokeNumbers" style="font-size:8;fill:#808080">
		<text transform="matrix(1 0 0 1 21.5 16.5)">1</text>
		<text transform="matrix(1 0 0 1 33.5 29.5)">2</text>
		<text transform="matrix(1 0 0 1 36.5 51.5)">3</text>
		<text transform="matrix(1 0 0 1 7.5 84.5)">4</text>
		<text transform="matrix(1 0 0 1 18.5 79.5)">5</text>
		<text transform="matrix(1 0 0 1 29.5 74.5)">6</text>
		<text transform="matrix(1 0 0 1 50.5 21.5)">7</text>
		<text transform="matrix(1 0 0 1 44.25 43.5547)">8</text>
		<text transform="matrix(1 0 0 1 53.5 33.5)">9</text>
		<text transform="matrix(1 0 0 1 56.25 43.5547)">10</text>
		<text transform="matrix(1 0 0 1 57.5 54.5)">11</text>
		<text transform="matrix(1 0 0 1 57.75 12.5)">12</text>
		<text transform="matrix(1 0 0 1 75.5 10.5)">13</text>
		<text transform="matrix(1 0 0 1 46.5 67.5)">14</text>
		<text transform="matrix(1 0 0 1 70.5 63.5)">15</text>
		<text transform="matrix(1 0 0 1 50.25 85.5)">16</text>
	</g>
	<g id="StrokePaths" style="fill:none;stroke:#404040;stroke-width:3;stroke-linecap:round;stroke-linejoin:round;">
		<path d="M27.87,16.25c0.32,1.42,0.4,2.5-0.16,4.02c-2.84,7.66-6.21,13.2-9.65,19.61c-0.46,0.86-0.64,3.28,0,3.55c3.38,1.42,8.12,3.78,11.02,6.38"/>
		<path d="M39.93,29.03c0.3,0.64,0.39,2.75,0,3.43C34.2,42.52,25.65,56.53,17.78,65.71c-1.81,2.1,0.45,3.31,1.62,2.88c4.93-1.79,15.15-4.99,21.48-6.7"/>
		<path d="M36.79,53.61c2.56,2.58,6.61,10.59,7.25,14.59"/>
		<path d="M12.96,81.64c3.89,3.22,6.87,10.7,7.77,13.61"/>
		<path d="M24.1,77.48c4.4,2.79,7.78,9.27,8.81,11.8"/>
		<path d="M35.24,72.54c4.27,2.24,7.55,7.43,8.55,9.46"/>
		<path d="M49.38,24.68c1.03,0.36,2.92,0.38,3.95,0.36c6.68-0.12,26.3-2.52,32.61-3.25c1.71-0.2,2.75,0.17,3.61,0.35"/>
		<path d="M50.2,34.08c0.54,0.56,0.99,2.32,1.08,2.91c0.5,3.32,2.85,17.55,2.87,22.58"/>
		<path d="M52.87,36.17c7.88-1.42,33.66-4.66,35.2-4.66s3.59,0.89,3.08,3.27c-0.51,2.38-1.02,9.2-4.03,21.24"/>
		<path d="M52.87,46.34c8.88-1.09,18.63-2.59,26.99-2.76"/>
		<path d="M55.59,57.38c5.74-0.42,24.07-2.35,30.7-2.63"/>
		<path d="M68.36,12.26c1,0.45,1.8,2,1.8,2.92c0,8.07,0.31,25.32,0.31,40.06"/>
		<path d="M85.89,10.5c3.12,1.46,8.05,6.02,8.83,8.3"/>
		<path d="M48.5,69.5c1.07,0.46,3.03,0.58,4.12,0.46c11.9-1.29,29.94-2.63,43.05-3.33c1.79-0.1,2.86,0.22,3.76,0.45"/>
		<path d="M79.66,57.73c0.06,0.28,0.85,1.45,0.85,3.21c0,11.88,0.33,27.31,0.33,30.19c0,7.01-5.09,1.04-6.58,0.15"/>
		<path d="M57.46,76.58c2.36,1.55,6.1,6.38,6.69,8.79"/>
	</g>
</svg>
