<?xml version="1.0" encoding="UTF-8"?>
<!-- Copyright (C) 2009 Ulrich Apel.
This work is distributed under the conditions of the Creative Commons
Attribution-Share Alike 3.0 Licence. This means you are free:
* to Share - to copy, distribute and transmit the work
* to Remix - to adapt the work

Under the following conditions:
* Attribution. You must attribute the work by stating your use of KanjiVG in
  your own copyright header and linking to KanjiVG's website
  (http://kanjivg.tagaini.net)
* Share Alike. If you alter, transform, or build upon this work, you may
  distribute the resulting work only under the same or similar license to this
  one.

See http://creativecommons.org/licenses/by-sa/3.0/ for more details. -->
<!DOCTYPE svg PUBLIC "-//W3C//DTD SVG 1.0//EN" "http://www.w3.org/TR/2001/REC-SVG-20010904/DTD/svg10.dtd">
<svg xmlns="http://www.w3.org/2000/svg" width="109" height="109" viewBox="0 0 109 109">
	<g id="HelperGrid" style="opacity:0.75;">
		<rect x="0.5" y="0.5" style="fill:none;stroke:#404040;" width="108" height="108"/> 
		<line style="fill:none;stroke:#404040;" x1="0.5" y1="72.51" x2="108.5" y2="72.51"/>
		<line style="fill:none;stroke:#404040;" x1="0.5" y1="36.49" x2="108.5" y2="36.49"/>
		<line style="fill:none;stroke:#404040;" x1="72.5" y1="0.5" x2="72.5" y2="108.5"/>
		<line style="fill:none;stroke:#404040;" x1="36.5" y1="0.5" x2="36.5" y2="108.5"/>
	</g>
	<g id="Kanji">
		<text transform="matrix(1 0 0 1 0.5 93.3799)" style="font-size:108;">縦</text>
	</g>
	<g id="StrokeNumbers" style="font-size:8;fill:#808080">
		<text transform="matrix(1 0 0 1 18.5 16.5)">1</text>
		<text transform="matrix(1 0 0 1 29.5 27.5)">2</text>
		<text transform="matrix(1 0 0 1 31.5 48.5)">3</text>
		<text transform="matrix(1 0 0 1 3.75 77.75)">4</text>
		<text transform="matrix(1 0 0 1 14.5 74.5)">5</text>
		<text transform="matrix(1 0 0 1 25.5 70.5)">6</text>
		<text transform="matrix(1 0 0 1 48.5 17.5)">7</text>
		<text transform="matrix(1 0 0 1 48.5 39.5)">8</text>
		<text transform="matrix(1 0 0 1 43.5 71.5)">9</text>
		<text transform="matrix(1 0 0 1 59.5 19.5)">10</text>
		<text transform="matrix(1 0 0 1 77.5 16.5)">11</text>
		<text transform="matrix(1 0 0 1 59.5 43.6299)">12</text>
		<text transform="matrix(1 0 0 1 66.5 55.6299)">13</text>
		<text transform="matrix(1 0 0 1 80.25 60.5)">14</text>
		<text transform="matrix(1 0 0 1 56.5 58.5)">15</text>
		<text transform="matrix(1 0 0 1 66.5 77.5)">16</text>
	</g>
	<g id="StrokePaths" style="fill:none;stroke:#404040;stroke-width:3;stroke-linecap:round;stroke-linejoin:round;">
		<path d="M53.48,17.2c0.04,0.43,0.19,1.18-0.08,1.71c-1.88,3.69-7.56,12.58-13.08,16.33"/>
		<path d="M55.36,36.28c0.05,0.7,0.15,1.92-0.1,2.82c-2.01,7.4-8.31,20.77-16.59,29.45"/>
		<path d="M49.33,55.54c0.31,0.25,0.93,1.61,0.99,2.11c0.06,0.5,0,34.25-0.06,37.36"/>
		<path d="M63.49,21.77c2.31,2.35,5.98,9.68,6.56,13.34"/>
		<path d="M86.25,16.14c0.87,0.66,1.39,2.14,1.15,3c-1.78,6.1-6.3,15.08-11.36,23.49"/>
		<path d="M59.28,46.31c0.69,0.36,1.94,0.4,2.63,0.36c4.49-0.26,26.68-3.22,31.22-3.56c1.14-0.09,1.83,0.17,2.4,0.35"/>
		<path d="M75.97,47.62c0.65,0.38,1.04,1.71,1.17,2.48c0.13,0.76,0.3,29.2,0.17,33.96"/>
		<path d="M77.48,64.83c4.26-0.57,7.26-1.11,13.68-2.26c1.03-0.18,1.3-0.19,1.95,0"/>
		<path d="M64.5,61.56c0.75,0.94,0.56,2.3,0.45,3.3C64.25,71,61.75,84,55.92,91.33"/>
		<path d="M62.87,75.85c4.47,2.49,24.07,14.28,28.93,16.73c1.65,0.83,3.06,1.19,4.7,1.42"/>
		<path d="M24.29,15.61c0.3,1.32,0.37,2.32-0.15,3.73c-2.63,7.1-5.76,12.25-8.95,18.19c-0.43,0.8-0.59,3.04,0,3.29c3.14,1.32,7.54,3.51,10.23,5.92"/>
		<path d="M35.48,27.46c0.27,0.6,0.36,2.55,0,3.18c-5.32,9.33-13.25,22.33-20.55,30.85c-1.67,1.95,0.42,3.07,1.51,2.67c4.57-1.66,14.05-4.63,19.93-6.22"/>
		<path d="M32.56,50.27c2.38,2.39,5.64,8.32,6.23,12.04"/>
		<path d="M10.46,76.26c3.6,2.99,6.37,9.92,7.21,12.63"/>
		<path d="M20.79,72.4c4.08,2.59,7.22,8.6,8.17,10.94"/>
		<path d="M31.12,67.82c3.96,2.07,7.01,6.89,7.93,8.77"/>
	</g>
</svg>
