<?xml version="1.0" encoding="UTF-8"?>
<!DOCTYPE svg PUBLIC "-//W3C//DTD SVG 1.0//EN" "http://www.w3.org/TR/2001/REC-SVG-20010904/DTD/svg10.dtd">
<svg xmlns="http://www.w3.org/2000/svg" width="109" height="109" viewBox="0 0 109 109">
	<g id="HelperGrid" style="opacity:0.75;">
		<rect x="0.5" y="0.5" style="fill:none;stroke:#404040;" width="108" height="108"/> 
		<line style="fill:none;stroke:#404040;" x1="0.5" y1="72.51" x2="108.5" y2="72.51"/>
		<line style="fill:none;stroke:#404040;" x1="0.5" y1="36.49" x2="108.5" y2="36.49"/>
		<line style="fill:none;stroke:#404040;" x1="72.5" y1="0.5" x2="72.5" y2="108.5"/>
		<line style="fill:none;stroke:#404040;" x1="36.5" y1="0.5" x2="36.5" y2="108.5"/>
	</g>
	<g id="Kanji">
		<text transform="matrix(1 0 0 1 0.5 93.3799)" style="font-size:108;">縷</text>
	</g>
	<g id="StrokeNumbers" style="font-size:8;fill:#808080">
		<text transform="matrix(1 0 0 1 20.25 14.25)">1</text>
		<text transform="matrix(1 0 0 1 33.25 24.25)">2</text>
		<text transform="matrix(1 0 0 1 34.25 49.25)">3</text>
		<text transform="matrix(1 0 0 1 4.25 82.25)">4</text>
		<text transform="matrix(1 0 0 1 16.25 77.25)">5</text>
		<text transform="matrix(1 0 0 1 27.25 72.25)">6</text>
		<text transform="matrix(1 0 0 1 44.25 20.25)">7</text>
		<text transform="matrix(1 0 0 1 52.25 17.25)">8</text>
		<text transform="matrix(1 0 0 1 42.25 27.25)">9</text>
		<text transform="matrix(1 0 0 1 55.25 36.25)">10</text>
		<text transform="matrix(1 0 0 1 44.25 52.25)">11</text>
		<text transform="matrix(1 0 0 1 53.25 45.25)">12</text>
		<text transform="matrix(1 0 0 1 56.25 54.25)">13</text>
		<text transform="matrix(1 0 0 1 59.25 8.25)">14</text>
		<text transform="matrix(1 0 0 1 57.25 64.25)">15</text>
		<text transform="matrix(1 0 0 1 71.25 65.25)">16</text>
		<text transform="matrix(1 0 0 1 42.25 70.25)">17</text>
	</g>
	<g id="StrokePaths" style="fill:none;stroke:#404040;stroke-width:3;stroke-linecap:round;stroke-linejoin:round;">
		<path d="M25.62,13c0.32,1.46,0.4,2.58-0.16,4.14c-2.84,7.9-6.21,13.62-9.65,20.23c-0.46,0.89-0.64,3.38,0,3.66c3.38,1.46,8.12,3.9,11.02,6.58"/>
		<path d="M37.68,26.18c0.3,0.66,0.39,2.83,0,3.54C31.95,40.1,23.4,54.55,15.53,64.02c-1.81,2.17,0.45,3.41,1.62,2.97c4.93-1.85,15.15-5.15,21.48-6.91"/>
		<path d="M34.54,51.54c2.56,2.66,6.61,10.92,7.25,15.06"/>
		<path d="M10.71,80.46c3.89,3.32,6.87,11.04,7.77,14.04"/>
		<path d="M21.85,76.16c4.4,2.88,7.78,9.56,8.81,12.17"/>
		<path d="M32.99,71.07c4.27,2.31,7.55,7.67,8.55,9.76"/>
		<path d="M49.03,19.23c0.56,0.25,1.6,1.33,1.79,2.27c1.24,6.13,1.84,13.43,2.92,17.47"/>
		<path d="M50.13,20.34c10.34-1,24.74-1.64,32.91-2.51c2.61-0.28,4.1,1.44,3.77,3.35C85.47,28.8,84.52,32.77,83.77,37"/>
		<path d="M42.3,29.55c1.26,0.43,3.58,0.52,4.84,0.43c11.11-0.73,31.61-2.98,45.06-3.98c1.81-0.13,3.57,0.64,4.92,0.92"/>
		<path d="M53.7,37.74c2.56-0.17,26.52-2.06,29.81-2.23"/>
		<path d="M50.51,45.98c0.45,0.44,1.23,1.02,1.45,1.98c0.78,3.54,1.94,7.03,2.76,10.3"/>
		<path d="M51.45,47.07c9.8-0.92,23.46-2.44,31.21-3.24c2.47-0.25,3.9,1.33,3.57,3.1C85.85,49,85,52.25,83.99,56"/>
		<path d="M55.45,56.56c2.3-0.16,25.33-1.46,28.3-1.62"/>
		<path d="M66.31,10.5c0.83,0.46,1.32,2.08,1.48,3.01c0.16,0.93,0,35.45-0.17,41.24"/>
		<path d="M66.44,58.87c0.37,0.92,0.11,2.09-0.18,3.24c-1.44,5.63-7.59,13.41-12.18,19.88c-1,1.41-0.21,1.68,0.55,1.69C65.28,83.83,82.74,90.76,88.25,98"/>
		<path d="M80.98,64.25c0.11,0.81,0.19,2.78-0.22,3.96c-3.29,9.5-10.66,23.83-36.23,30.04"/>
		<path d="M44.63,72.71c1.69,0.3,3.49,0.48,4.3,0.46c12.71-0.29,28.22-3.66,44.54-3.79c1.35-0.01,3.68,0.19,4.78,0.53"/>
	</g>
</svg>
