<?xml version="1.0" encoding="UTF-8"?>
<!-- Copyright (C) 2009 Ulrich Apel.
This work is distributed under the conditions of the Creative Commons
Attribution-Share Alike 3.0 Licence. This means you are free:
* to Share - to copy, distribute and transmit the work
* to Remix - to adapt the work

Under the following conditions:
* Attribution. You must attribute the work by stating your use of KanjiVG in
  your own copyright header and linking to KanjiVG's website
  (http://kanjivg.tagaini.net)
* Share Alike. If you alter, transform, or build upon this work, you may
  distribute the resulting work only under the same or similar license to this
  one.

See http://creativecommons.org/licenses/by-sa/3.0/ for more details. -->
<!DOCTYPE svg PUBLIC "-//W3C//DTD SVG 1.0//EN" "http://www.w3.org/TR/2001/REC-SVG-20010904/DTD/svg10.dtd">
<svg xmlns="http://www.w3.org/2000/svg" width="109" height="109" viewBox="0 0 109 109">
	<g id="HelperGrid" style="opacity:0.75;">
		<rect x="0.5" y="0.5" style="fill:none;stroke:#404040;" width="108" height="108"/> 
		<line style="fill:none;stroke:#404040;" x1="0.5" y1="72.51" x2="108.5" y2="72.51"/>
		<line style="fill:none;stroke:#404040;" x1="0.5" y1="36.49" x2="108.5" y2="36.49"/>
		<line style="fill:none;stroke:#404040;" x1="72.5" y1="0.5" x2="72.5" y2="108.5"/>
		<line style="fill:none;stroke:#404040;" x1="36.5" y1="0.5" x2="36.5" y2="108.5"/>
	</g>
	<g id="Kanji">
		<text transform="matrix(1 0 0 1 0.5 93.3799)" style="font-size:108;">纒</text>
	</g>
	<g id="StrokeNumbers" style="font-size:8;fill:#808080">
		<text transform="matrix(1 0 0 1 19.25 13.3799)">1</text>
		<text transform="matrix(1 0 0 1 31.25 24.25)">2</text>
		<text transform="matrix(1 0 0 1 35.25 46.25)">3</text>
		<text transform="matrix(1 0 0 1 19 68.25)">4</text>
		<text transform="matrix(1 0 0 1 8 71.25)">5</text>
		<text transform="matrix(1 0 0 1 32.25 64.25)">6</text>
		<text transform="matrix(1 0 0 1 50.25 13.25)">7</text>
		<text transform="matrix(1 0 0 1 43.25 24.25)">8</text>
		<text transform="matrix(1 0 0 1 53.25 35.25)">9</text>
		<text transform="matrix(1 0 0 1 58.25 23.25)">10</text>
		<text transform="matrix(1 0 0 1 62.25 31.25)">11</text>
		<text transform="matrix(1 0 0 1 62.25 39.25)">12</text>
		<text transform="matrix(1 0 0 1 75 29.25)">13</text>
		<text transform="matrix(1 0 0 1 61.25 47.25)">14</text>
		<text transform="matrix(1 0 0 1 52.25 55.25)">15</text>
		<text transform="matrix(1 0 0 1 50 63.2539)">16</text>
		<text transform="matrix(1 0 0 1 57.25 69.25)">17</text>
		<text transform="matrix(1 0 0 1 71.25 68.25)">18</text>
		<text transform="matrix(1 0 0 1 84.25 67.25)">19</text>
		<text transform="matrix(1 0 0 1 54.25 79.25)">20</text>
		<text transform="matrix(1 0 0 1 78.25 76.25)">21</text>
		<text transform="matrix(1 0 0 1 46.25 91.25)">22</text>
	</g>
	<g id="StrokePaths" style="fill:none;stroke:#404040;stroke-width:3;stroke-linecap:round;stroke-linejoin:round;">
		<path d="M25.77,13c0.33,1.32,0.34,2.29-0.17,3.73C23.38,23.06,20,29.5,14.13,35.86c-0.63,0.68-0.65,3.04,0,3.29c3.45,1.32,8.23,3.05,11.19,5.46"/>
		<path d="M38.05,24.43c0.3,0.58,0.37,2.46,0,3.09c-5.8,9.73-15.99,21.68-23.98,29.94c-1.83,1.89,0.46,2.98,1.65,2.59c5-1.61,15.37-3.99,21.79-5.53"/>
		<path d="M32.75,46.75c2.65,2.47,6.84,10.14,7.5,13.98"/>
		<path d="M26.39,60.62c0.07,0.36,0.91,1.85,0.98,4.09c0.31,10.79-0.2,28.79-0.2,32.46"/>
		<path d="M17.62,69.85c0.14,1.01,0.11,3.01-0.13,3.74C15.86,78.32,11.8,87.44,9.5,91.5"/>
		<path d="M33,66.5c2.75,2.6,4.86,8.64,5.5,11"/>
		<path d="M46.4,15.6c1.14,0.39,3.23,0.45,4.37,0.39c13.05-0.73,25.37-2.67,40.24-2.82c1.9-0.02,3.04,0.19,3.99,0.38"/>
		<path d="M51,16c0.05,1.83-0.03,4.73-0.09,7.36C50.5,41.25,49.75,75.25,35.5,93.25"/>
		<path d="M57.46,24.42c0.25,0.29,0.55,1.14,0.69,1.5c1.11,3.01,2.16,10.94,2.85,16.56"/>
		<path d="M58.16,25.43c8.41-0.69,22.97-2.18,29.24-2.76c2.31-0.21,3.48,1.34,3.37,2.43c-0.28,2.78-1.63,9.79-3.34,14.67"/>
		<path d="M59.75,33.25c7.43-0.75,23-2.5,28.87-2.31"/>
		<path d="M60.63,40.32c6.06-0.29,19.08-1.66,27.45-2.14"/>
		<path d="M72.67,24.01c0.46,0.44,0.68,0.7,0.7,1.24c0.21,6.19,0.09,27.72,0.09,29.9"/>
		<path d="M59.16,49.18c0.6,0.14,1.69,0.16,2.29,0.14c6.21-0.16,13.98-1.58,25.4-1.62c0.99,0,1.59,0.07,2.09,0.14"/>
		<path d="M54.35,57.16c0.97,0.27,2.74,0.31,3.71,0.27c10.08-0.45,21.22-1.86,35.29-1.86c1.62,0,2.58,0.13,3.39,0.27"/>
		<path d="M56.25,64.5c-0.59,3.83-3.45,8.29-4.22,9.25"/>
		<path d="M64.04,63.75c2.14,1.25,3.87,3.87,4.71,6.62"/>
		<path d="M77.73,61.53c2.25,1.45,5.52,5.66,5.52,8.22"/>
		<path d="M90.5,61.5c2.67,1.51,6.89,6.22,7.56,8.58"/>
		<path d="M55.75,82.06c0.96,0.27,2.73,0.34,3.69,0.27c12.38-0.9,17.79-2.15,30.25-2.39c1.61-0.03,2.57,0.13,3.37,0.26"/>
		<path d="M74.07,72.75c0.05,0.21,0.73,1.07,0.73,2.38c0,3.65-0.15,13.39-0.15,16.78"/>
		<path d="M48.67,94.6c1.3,0.49,3.69,0.6,4.98,0.49c16.09-1.38,26.22-2.12,40.62-2.77c2.17-0.1,3.47,0.23,4.55,0.48"/>
	</g>
</svg>
