<?xml version="1.0" encoding="UTF-8"?>
<!DOCTYPE svg PUBLIC "-//W3C//DTD SVG 1.0//EN" "http://www.w3.org/TR/2001/REC-SVG-20010904/DTD/svg10.dtd">
<svg xmlns="http://www.w3.org/2000/svg" width="109" height="109" viewBox="0 0 109 109">
	<g id="HelperGrid" style="opacity:0.75;">
		<rect x="0.5" y="0.5" style="fill:none;stroke:#404040;" width="108" height="108"/> 
		<line style="fill:none;stroke:#404040;" x1="0.5" y1="72.51" x2="108.5" y2="72.51"/>
		<line style="fill:none;stroke:#404040;" x1="0.5" y1="36.49" x2="108.5" y2="36.49"/>
		<line style="fill:none;stroke:#404040;" x1="72.5" y1="0.5" x2="72.5" y2="108.5"/>
		<line style="fill:none;stroke:#404040;" x1="36.5" y1="0.5" x2="36.5" y2="108.5"/>
	</g>
	<g id="Kanji">
		<text transform="matrix(1 0 0 1 0.5 93.3799)" style="font-size:108;">纔</text>
	</g>
	<g id="StrokeNumbers" style="font-size:8;fill:#808080">
		<text transform="matrix(1 0 0 1 19.25 14.25)">1</text>
		<text transform="matrix(1 0 0 1 30.25 27.25)">2</text>
		<text transform="matrix(1 0 0 1 34.25 49.25)">3</text>
		<text transform="matrix(1 0 0 1 3.25 81.25)">4</text>
		<text transform="matrix(1 0 0 1 15.25 77.25)">5</text>
		<text transform="matrix(1 0 0 1 26.25 72.25)">6</text>
		<text transform="matrix(1 0 0 1 52.25 11.25)">7</text>
		<text transform="matrix(1 0 0 1 68.25 11.25)">8</text>
		<text transform="matrix(1 0 0 1 45.25 33.25)">9</text>
		<text transform="matrix(1 0 0 1 58 23.25)">10</text>
		<text transform="matrix(1 0 0 1 59 32.25)">11</text>
		<text transform="matrix(1 0 0 1 55.25 42.25)">12</text>
		<text transform="matrix(1 0 0 1 41.25 44.479)">13</text>
		<text transform="matrix(1 0 0 1 75.25 41.25)">14</text>
		<text transform="matrix(1 0 0 1 63.25 40.25)">15</text>
		<text transform="matrix(1 0 0 1 43.25 63.25)">16</text>
		<text transform="matrix(1 0 0 1 66 57.25)">17</text>
		<text transform="matrix(1 0 0 1 43 77.25)">18</text>
		<text transform="matrix(1 0 0 1 59 65.25)">19</text>
		<text transform="matrix(1 0 0 1 57 75.25)">20</text>
		<text transform="matrix(1 0 0 1 75.25 73.25)">21</text>
		<text transform="matrix(1 0 0 1 64.25 93.25)">22</text>
		<text transform="matrix(1 0 0 1 88.25 84.25)">23</text>
	</g>
	<g id="StrokePaths" style="fill:none;stroke:#404040;stroke-width:3;stroke-linecap:round;stroke-linejoin:round;">
		<path d="M24.62,14.5c0.32,1.42,0.4,2.5-0.16,4.02c-2.84,7.66-6.21,13.2-9.65,19.61c-0.46,0.86-0.64,3.28,0,3.55c3.38,1.42,8.12,3.78,11.02,6.38"/>
		<path d="M36.68,27.28c0.3,0.64,0.39,2.75,0,3.43C30.95,40.77,22.4,54.78,14.53,63.96c-1.81,2.1,0.45,3.31,1.62,2.88c4.93-1.79,15.15-4.99,21.48-6.7"/>
		<path d="M33.54,51.86c2.56,2.58,6.61,10.59,7.25,14.59"/>
		<path d="M9.71,79.89c3.89,3.22,6.87,10.7,7.77,13.61"/>
		<path d="M20.85,75.73c4.4,2.79,7.78,9.27,8.81,11.8"/>
		<path d="M31.99,70.79c4.27,2.24,7.55,7.43,8.55,9.46"/>
		<path d="M53.3,44.69c3.82-0.09,7.67-1,11-1.15c0.98-0.05,1.6-0.04,2.1-0.02"/>
		<path d="M51.75,39.26c0.71,0.33,1.33,1.89,1.33,2.33c0,1.23-0.23,9.76-0.23,11.67c0,1.6-0.2,2.77,2.88,0.92c4.02-2.41,6.02-2.72,10.41-4.63"/>
		<path d="M53.3,44.69c3.82-0.09,7.67-1,11-1.15c0.98-0.05,1.6-0.04,2.1-0.02"/>
		<path d="M51.75,39.26c0.71,0.33,1.33,1.89,1.33,2.33c0,1.23-0.23,9.76-0.23,11.67c0,1.6-0.2,2.77,2.88,0.92c4.02-2.41,6.02-2.72,10.41-4.63"/>
		<path d="M73.25,44.25c3.82-0.09,7.67-1,11-1.15c0.98-0.05,1.6-0.04,2.1-0.02"/>
		<path d="M71.65,37.75c0.84,0.37,1.56,1.57,1.56,2.03c0,1.23,0.08,5.57,0.08,7.01c0,6.74,5.74,5.81,11.39,5.81c4.39,0,8.83-0.19,10.48-1.23c1.65-1.04,0.73-1.83,0.89-2.86"/>
		<path d="M53.3,44.69c3.82-0.09,7.67-1,11-1.15c0.98-0.05,1.6-0.04,2.1-0.02"/>
		<path d="M51.75,39.26c0.71,0.33,1.33,1.89,1.33,2.33c0,1.23-0.23,9.76-0.23,11.67c0,1.6-0.2,2.77,2.88,0.92c4.02-2.41,6.02-2.72,10.41-4.63"/>
		<path d="M53.3,44.69c3.82-0.09,7.67-1,11-1.15c0.98-0.05,1.6-0.04,2.1-0.02"/>
		<path d="M51.75,39.26c0.71,0.33,1.33,1.89,1.33,2.33c0,1.23-0.23,9.76-0.23,11.67c0,1.6-0.2,2.77,2.88,0.92c4.02-2.41,6.02-2.72,10.41-4.63"/>
		<path d="M73.25,44.25c3.82-0.09,7.67-1,11-1.15c0.98-0.05,1.6-0.04,2.1-0.02"/>
		<path d="M71.65,37.75c0.84,0.37,1.56,1.57,1.56,2.03c0,1.23,0.08,5.57,0.08,7.01c0,6.74,5.74,5.81,11.39,5.81c4.39,0,8.83-0.19,10.48-1.23c1.65-1.04,0.73-1.83,0.89-2.86"/>
		<path d="M61.5,9.4c0.04,0.36,0.17,0.96-0.09,1.43c-1.88,3.49-7.99,10-15.17,14.17"/>
		<path d="M58.54,16.11c1.44,0,19.85-3.35,21.36-3.48c1.3-0.11,1.7,1.18,1.16,1.72c-2.28,2.29-5.49,5.19-9.09,8.86"/>
		<path d="M51.61,24.27c0.3,0.27,0.6,0.5,0.73,0.84c1.03,2.69,1.35,5.95,2.06,10.79"/>
		<path d="M53.42,25.58c7.83-0.58,31.47-2.78,34.78-3.11c1.21-0.12,1.94,1.22,1.76,1.94c-0.72,2.95-0.99,3.59-3.1,7.74"/>
		<path d="M54.81,34.47c2.57-0.22,30.8-1.81,33.63-1.92"/>
		<path d="M62.5,54.5c0.05,0.31,0.1,0.81-0.1,1.25c-1.19,2.64-8.03,8.95-17.4,12.5"/>
		<path d="M62.04,59.54c5.98-0.25,11.26-1.31,15.26-2.2c1.56-0.35,1.94,1.01,1.44,1.59c-2,2.32-3.56,4.41-5.72,6.28"/>
		<path d="M52.34,66.64c0.17,0.25,0.34,0.47,0.42,0.79c0.59,2.53,1.28,7.57,1.68,12.12"/>
		<path d="M52.68,68.24c6.36-1.12,34.5-3.15,37.78-3.52c1.2-0.14,1.92,1.39,1.75,2.2c-0.71,3.35-1.95,5.33-3.63,9.87"/>
		<path d="M54.59,77.73c2.42-0.29,31.65-2.48,34.32-2.62"/>
		<path d="M70.8,68.5c0.31,0.61,0.58,1.71,0.33,2.7C69.4,77.9,63.05,92.48,44,97.5"/>
		<path d="M73.73,78.68c0.5,0.6,0.9,1.3,0.93,2.23c0.13,4.12-0.36,7.11-0.36,9.92c0,6.54,6.01,6.55,11.92,6.55c9.02,0,12.74-2.13,12.74-5.09"/>
		<path d="M82,82.25c2.65,1.32,6.84,5.44,7.5,7.5"/>
	</g>
</svg>
