<?xml version="1.0" encoding="UTF-8"?>
<!-- Copyright (C) 2009 Ulrich Apel.
This work is distributed under the conditions of the Creative Commons
Attribution-Share Alike 3.0 Licence. This means you are free:
* to Share - to copy, distribute and transmit the work
* to Remix - to adapt the work

Under the following conditions:
* Attribution. You must attribute the work by stating your use of KanjiVG in
  your own copyright header and linking to KanjiVG's website
  (http://kanjivg.tagaini.net)
* Share Alike. If you alter, transform, or build upon this work, you may
  distribute the resulting work only under the same or similar license to this
  one.

See http://creativecommons.org/licenses/by-sa/3.0/ for more details. -->
<!DOCTYPE svg PUBLIC "-//W3C//DTD SVG 1.0//EN" "http://www.w3.org/TR/2001/REC-SVG-20010904/DTD/svg10.dtd">
<svg xmlns="http://www.w3.org/2000/svg" width="109" height="109" viewBox="0 0 109 109">
	<g id="HelperGrid" style="opacity:0.75;">
		<rect x="0.5" y="0.5" style="fill:none;stroke:#404040;" width="108" height="108"/> 
		<line style="fill:none;stroke:#404040;" x1="0.5" y1="72.51" x2="108.5" y2="72.51"/>
		<line style="fill:none;stroke:#404040;" x1="0.5" y1="36.49" x2="108.5" y2="36.49"/>
		<line style="fill:none;stroke:#404040;" x1="72.5" y1="0.5" x2="72.5" y2="108.5"/>
		<line style="fill:none;stroke:#404040;" x1="36.5" y1="0.5" x2="36.5" y2="108.5"/>
	</g>
	<g id="Kanji">
		<text transform="matrix(1 0 0 1 0.5 93.3799)" style="font-size:108;">罫</text>
	</g>
	<g id="StrokeNumbers" style="font-size:8;fill:#808080">
		<text transform="matrix(1 0 0 1 16.5 21.5)">1</text>
		<text transform="matrix(1 0 0 1 25.5 11.5)">2</text>
		<text transform="matrix(1 0 0 1 37.5 22.5)">3</text>
		<text transform="matrix(1 0 0 1 58.75 20.4043)">4</text>
		<text transform="matrix(1 0 0 1 29.5 25.5)">5</text>
		<text transform="matrix(1 0 0 1 11.5 46.5)">6</text>
		<text transform="matrix(1 0 0 1 24.5 39.5)">7</text>
		<text transform="matrix(1 0 0 1 5.5 60.5)">8</text>
		<text transform="matrix(1 0 0 1 11.5 77.5)">9</text>
		<text transform="matrix(1 0 0 1 22.5 67.5)">10</text>
		<text transform="matrix(1 0 0 1 6.5 96.5)">11</text>
		<text transform="matrix(1 0 0 1 53.5 37.5)">12</text>
		<text transform="matrix(1 0 0 1 74.5 53.5)">13</text>
	</g>
	<g id="StrokePaths" style="fill:none;stroke:#404040;stroke-width:3;stroke-linecap:round;stroke-linejoin:round;">
		<path d="M21.62,13.16c0.61,0.61,0.76,1.24,0.91,1.99c0.98,4.81,1.58,7.91,2.26,11.71c0.25,1.41,0.52,2.91,0.81,4.63"/>
		<path d="M23.61,14.96c13.33-1.31,50.53-3.99,61.9-4.35c2.29-0.07,4.86,0.51,4.28,3.54c-0.48,2.56-1.29,5.83-2.24,9.14c-0.42,1.47-0.87,2.94-1.33,4.37"/>
		<path d="M44.19,14.57c0.69,0.69,0.93,1.15,1.06,2.08c0.63,4.6,1.04,7.72,1.49,10.23"/>
		<path d="M66.19,13.01c0.31,0.61,0.43,1.4,0.37,2.12c-0.3,3.92-0.82,7.61-1.25,10.99"/>
		<path d="M26.76,29.51c13.74-0.89,50.11-3.26,58.87-3.18"/>
		<path d="M18.6,45.97c2.27,0.28,3.85,0.35,5.78,0.33c6.79-0.56,13.56-1.82,20.12-2.39c2.01-0.18,3.87-0.41,6.05-0.24"/>
		<path d="M34.03,34.5c1.05,1.04,1.23,2.38,1.23,4.17c0,3.58-0.01,12.8-0.01,18.33"/>
		<path d="M13.13,59.88c2.94,0.54,5.84,0.12,8.8-0.3C32.12,58.12,38,57,47.63,56.42c2.53-0.15,5.01-0.29,7.5,0.16"/>
		<path d="M18.54,75.82c1.91,0.52,3.85,0.75,5.84,0.68c7.24-0.75,16.31-2.23,23.14-3.15c1.59-0.28,3.19-0.39,4.8-0.33"/>
		<path d="M34.93,63.49c0.79,0.79,1.27,1.89,1.27,3.47c0,8.74-0.08,17.41-0.08,22.17"/>
		<path d="M17.38,94.87c1,0.88,2.78,0.89,3.67,0.59c12.33-4.27,21.38-7.13,33.01-11.07"/>
		<path d="M67.06,33.53c0.83,0.83,1.26,2.35,1.26,3.59c0,0.53,0,36.41,0,53.25c0,4.27,0,7.32,0,8.26"/>
		<path d="M72,54.8c8.47,2.88,19.75,8.82,23.5,15.34"/>
	</g>
</svg>
