<?xml version="1.0" encoding="UTF-8"?>
<!-- Copyright (C) 2009 Ulrich Apel.
This work is distributed under the conditions of the Creative Commons
Attribution-Share Alike 3.0 Licence. This means you are free:
* to Share - to copy, distribute and transmit the work
* to Remix - to adapt the work

Under the following conditions:
* Attribution. You must attribute the work by stating your use of KanjiVG in
  your own copyright header and linking to KanjiVG's website
  (http://kanjivg.tagaini.net)
* Share Alike. If you alter, transform, or build upon this work, you may
  distribute the resulting work only under the same or similar license to this
  one.

See http://creativecommons.org/licenses/by-sa/3.0/ for more details. -->
<!DOCTYPE svg PUBLIC "-//W3C//DTD SVG 1.0//EN" "http://www.w3.org/TR/2001/REC-SVG-20010904/DTD/svg10.dtd">
<svg xmlns="http://www.w3.org/2000/svg" width="109" height="109" viewBox="0 0 109 109">
	<g id="HelperGrid" style="opacity:0.75;">
		<rect x="0.5" y="0.5" style="fill:none;stroke:#404040;" width="108" height="108"/> 
		<line style="fill:none;stroke:#404040;" x1="0.5" y1="72.51" x2="108.5" y2="72.51"/>
		<line style="fill:none;stroke:#404040;" x1="0.5" y1="36.49" x2="108.5" y2="36.49"/>
		<line style="fill:none;stroke:#404040;" x1="72.5" y1="0.5" x2="72.5" y2="108.5"/>
		<line style="fill:none;stroke:#404040;" x1="36.5" y1="0.5" x2="36.5" y2="108.5"/>
	</g>
	<g id="Kanji">
		<text transform="matrix(1 0 0 1 0.5 93.3799)" style="font-size:108;">翌</text>
	</g>
	<g id="StrokeNumbers" style="font-size:8;fill:#808080">
		<text transform="matrix(1 0 0 1 11.5 19.6299)">1</text>
		<text transform="matrix(1 0 0 1 14.5 30.0547)">2</text>
		<text transform="matrix(1 0 0 1 9.75 52.479)">3</text>
		<text transform="matrix(1 0 0 1 49.5 16.5)">4</text>
		<text transform="matrix(1 0 0 1 53.5 28.5547)">5</text>
		<text transform="matrix(1 0 0 1 49.5 43.5)">6</text>
		<text transform="matrix(1 0 0 1 46.5 59.5)">7</text>
		<text transform="matrix(1 0 0 1 21.5 68.5)">8</text>
		<text transform="matrix(1 0 0 1 31.5 77.7549)">9</text>
		<text transform="matrix(1 0 0 1 57.5 73.5)">10</text>
		<text transform="matrix(1 0 0 1 15.5 91.5)">11</text>
	</g>
	<g id="StrokePaths" style="fill:none;stroke:#404040;stroke-width:3;stroke-linecap:round;stroke-linejoin:round;">
		<path d="M18.23,20c1.77,1,3.22,1,5.76,0.59c5.16-0.84,13.96-2.41,15.54-2.6c2.85-0.36,4.18,0.39,4.18,2.8c0,4.35,0.03,18.56,0.03,29.32c0,8.19-5.62,0.96-6.27,0.29"/>
		<path d="M21.88,27.75c3.02,1.1,7.79,4.51,8.55,6.22"/>
		<path d="M17.19,48.81c1.25,0.62,2.41,0.72,3.74-0.07c1.05-0.63,9.46-6.21,13.9-9.23"/>
		<path d="M57.08,17c1.55,0.62,3.22,0.75,5.76,0.34c5.17-0.84,16.2-3.25,17.75-3.6c2.67-0.61,4.18,1.14,4.18,2.8c0,3.26-0.01,22.25-0.01,32.29c0,7.22-6.1,0.89-6.81,0.27"/>
		<path d="M61.05,25.08c2.81,1.08,7.25,4.45,7.95,6.13"/>
		<path d="M57.03,45.06c1.39,0.83,2.63,1.07,4.08,0.21c1-0.6,9.9-6.07,13.29-8.76"/>
		<path d="M52.25,51.75c1,0.75,1.5,2.25,1.5,4s0,3.5,0,8.25"/>
		<path d="M28.5,66.96c2.2,0.62,5.14,0.42,7.39,0.18c8.66-0.92,25.94-3.26,35.62-4.07c2.67-0.22,5.33-0.19,7.99,0.26"/>
		<path d="M38.5,74.5c3.25,3.63,5.38,7.5,6.5,11.75"/>
		<path d="M68.75,67c0.62,1.38,0.5,2.75,0,4.25c-2.85,8.55-4.75,13-7.25,19.5"/>
		<path d="M16.75,94.3c2.89,0.77,6.67,0.66,9.62,0.34c17.03-1.83,38.84-3.78,56.5-4.31c3.63-0.11,7.28,0.17,10.88,0.75"/>
	</g>
</svg>
