<?xml version="1.0" encoding="UTF-8"?>
<!DOCTYPE svg PUBLIC "-//W3C//DTD SVG 1.0//EN" "http://www.w3.org/TR/2001/REC-SVG-20010904/DTD/svg10.dtd">
<svg xmlns="http://www.w3.org/2000/svg" width="109" height="109" viewBox="0 0 109 109">
	<g id="HelperGrid" style="opacity:0.75;">
		<rect x="0.5" y="0.5" style="fill:none;stroke:#404040;" width="108" height="108"/> 
		<line style="fill:none;stroke:#404040;" x1="0.5" y1="72.51" x2="108.5" y2="72.51"/>
		<line style="fill:none;stroke:#404040;" x1="0.5" y1="36.49" x2="108.5" y2="36.49"/>
		<line style="fill:none;stroke:#404040;" x1="72.5" y1="0.5" x2="72.5" y2="108.5"/>
		<line style="fill:none;stroke:#404040;" x1="36.5" y1="0.5" x2="36.5" y2="108.5"/>
	</g>
	<g id="Kanji">
		<text transform="matrix(1 0 0 1 0.5 93.3799)" style="font-size:108;">翰</text>
	</g>
	<g id="StrokeNumbers" style="font-size:8;fill:#808080">
		<text transform="matrix(1 0 0 1 5.5 30.5)">1</text>
		<text transform="matrix(1 0 0 1 16.5 13.5)">2</text>
		<text transform="matrix(1 0 0 1 7.5 50.479)">3</text>
		<text transform="matrix(1 0 0 1 16.25 40.4043)">4</text>
		<text transform="matrix(1 0 0 1 19.5 49.3291)">5</text>
		<text transform="matrix(1 0 0 1 20.5 59.5)">6</text>
		<text transform="matrix(1 0 0 1 4.5 77.5)">7</text>
		<text transform="matrix(1 0 0 1 20.5 70.5)">8</text>
		<text transform="matrix(1 0 0 1 58.5 14.5)">9</text>
		<text transform="matrix(1 0 0 1 73.5 21.5)">10</text>
		<text transform="matrix(1 0 0 1 52.5 47.5)">11</text>
		<text transform="matrix(1 0 0 1 43.5 65.5)">12</text>
		<text transform="matrix(1 0 0 1 44.5 79.5)">13</text>
		<text transform="matrix(1 0 0 1 69.5 46.5)">14</text>
		<text transform="matrix(1 0 0 1 68.5 64.5791)">15</text>
		<text transform="matrix(1 0 0 1 69.5 77.5)">16</text>
	</g>
	<g id="StrokePaths" style="fill:none;stroke:#404040;stroke-width:3;stroke-linecap:round;stroke-linejoin:round;">
		<path d="M11.68,30.13c1.81,0.26,3.64,0.42,5.45,0.11c6.61-1.12,14.62-2.15,20.25-2.77c2.06-0.4,4.12-0.44,6.17-0.11"/>
		<path d="M25.95,13.88c0.9,0.9,1.17,1.99,1.17,2.74c0,0.48-0.12,20.5-0.12,24.51"/>
		<path d="M13.52,42.91c0.48,1.07,0.71,1.61,1.26,2.86c0.79,1.79,2.09,12.61,2.87,17.26"/>
		<path d="M15.08,43.41c3.35-0.44,16.31-2.22,22.42-2.92c3.25-0.37,4.42,0.81,4.08,3.63c-0.45,3.75-1.6,10.9-2.87,16.97"/>
		<path d="M17.24,52.38c5.39-0.63,17.14-2.25,22.49-2.75"/>
		<path d="M18.7,61.56c6.8-0.81,14.18-1.69,19.23-2.14"/>
		<path d="M10.49,77.32c2.21,0.49,4.42,0.45,6.62-0.11c6.35-0.92,14.71-2.32,20.51-2.88c1.8-0.3,3.59-0.26,5.38,0.14"/>
		<path d="M26.57,62.99c0.72,0.72,1.07,1.89,1.07,2.99c0,0.58-0.01,14.36-0.01,24.02c0,3.46,0,6.39,0,8"/>
		<path d="M68.08,12.75c0,1.38-0.3,2.99-0.98,4.32c-3.98,7.8-9.61,19.18-21.03,29.18"/>
		<path d="M68.5,18.38c4.62,4.5,11.07,11.24,17.13,16.73c2.97,3.02,6.4,5.31,10.29,6.89"/>
		<path d="M48.59,49.73c1.54,0.52,2.69,0.61,4.22,0.33c2.39-0.45,6.78-1.38,9.12-1.82c3.5-0.67,4.04,0.07,4.04,2.88c0,7.32-0.08,33.13-0.08,40.88c0,6.27-4.6,0.73-5.13,0.22"/>
		<path d="M50.94,58.42c2.5,1.39,6.46,5.7,7.09,7.85"/>
		<path d="M47.5,83.33c1.5,0.79,2.82,0.39,3.95-0.59c0.66-0.58,5.51-4.73,8.33-7.51"/>
		<path d="M71.72,48.87c1.9,0.38,3.51,0.47,5.19,0.06c3.91-0.95,6.46-1.43,9.87-2.44c2.18-0.65,3.52,1.02,3.5,3.01c-0.05,7.27-0.04,34.9-0.04,42.37c0,5.84-4.7,0.89-5.24,0.39"/>
		<path d="M75.51,57.23c2.68,1.39,6.49,5.4,7.59,7.85"/>
		<path d="M73.32,81.64c1.55,0.74,2.64,0.33,3.75-0.6c2.43-2.04,5.74-5.47,7.78-7.51"/>
	</g>
</svg>
