<?xml version="1.0" encoding="UTF-8"?>
<!DOCTYPE svg PUBLIC "-//W3C//DTD SVG 1.0//EN" "http://www.w3.org/TR/2001/REC-SVG-20010904/DTD/svg10.dtd">
<svg xmlns="http://www.w3.org/2000/svg" width="109" height="109" viewBox="0 0 109 109">
	<g id="HelperGrid" style="opacity:0.75;">
		<rect x="0.5" y="0.5" style="fill:none;stroke:#404040;" width="108" height="108"/> 
		<line style="fill:none;stroke:#404040;" x1="0.5" y1="72.51" x2="108.5" y2="72.51"/>
		<line style="fill:none;stroke:#404040;" x1="0.5" y1="36.49" x2="108.5" y2="36.49"/>
		<line style="fill:none;stroke:#404040;" x1="72.5" y1="0.5" x2="72.5" y2="108.5"/>
		<line style="fill:none;stroke:#404040;" x1="36.5" y1="0.5" x2="36.5" y2="108.5"/>
	</g>
	<g id="Kanji">
		<text transform="matrix(1 0 0 1 0.5 93.3799)" style="font-size:108;">耒</text>
	</g>
	<g id="StrokeNumbers" style="font-size:8;fill:#808080">
		<text transform="matrix(1 0 0 1 69.25 16.25)">1</text>
		<text transform="matrix(1 0 0 1 20.25 43.25)">2</text>
		<text transform="matrix(1 0 0 1 9.25 58.25)">3</text>
		<text transform="matrix(1 0 0 1 42.25 12.1543)">4</text>
		<text transform="matrix(1 0 0 1 39.25 66.25)">5</text>
		<text transform="matrix(1 0 0 1 69.25 68.25)">6</text>
	</g>
	<g id="StrokePaths" style="fill:none;stroke:#404040;stroke-width:3;stroke-linecap:round;stroke-linejoin:round;">
		<path d="M76.96,17.25c0.04,1.25-0.97,2.22-2.24,2.69c-6.97,2.56-18.97,8.31-41.97,10.36"/>
		<path d="M27.63,42.27c0.88,0.28,2.49,0.31,3.37,0.28c9.16-0.32,36-2.8,49.14-3.23c1.47-0.05,2.35,0.13,3.08,0.27"/>
		<path d="M16.94,56.75c0.89,0.25,3.27,0.82,5.64,0.75c8.92-0.25,44.17-3.25,62.91-3.5c2.37-0.03,4.47,0.25,5.95,0.5"/>
		<path d="M51.16,11.5c1.48,0.5,2.67,3.71,2.67,4.75c0,4,0.5,75.75,0.2,82"/>
		<path d="M53.5,56.25C46.71,66.79,29.13,82.78,15,88.75"/>
		<path d="M54.25,56c5,6.36,26.14,24.53,33.59,29.84c1.86,1.33,3.35,2,5.16,2.41"/>
	</g>
</svg>
