<?xml version="1.0" encoding="UTF-8"?>
<!DOCTYPE svg PUBLIC "-//W3C//DTD SVG 1.0//EN" "http://www.w3.org/TR/2001/REC-SVG-20010904/DTD/svg10.dtd">
<svg xmlns="http://www.w3.org/2000/svg" width="109" height="109" viewBox="0 0 109 109">
	<g id="HelperGrid" style="opacity:0.75;">
		<rect x="0.5" y="0.5" style="fill:none;stroke:#404040;" width="108" height="108"/> 
		<line style="fill:none;stroke:#404040;" x1="0.5" y1="72.51" x2="108.5" y2="72.51"/>
		<line style="fill:none;stroke:#404040;" x1="0.5" y1="36.49" x2="108.5" y2="36.49"/>
		<line style="fill:none;stroke:#404040;" x1="72.5" y1="0.5" x2="72.5" y2="108.5"/>
		<line style="fill:none;stroke:#404040;" x1="36.5" y1="0.5" x2="36.5" y2="108.5"/>
	</g>
	<g id="Kanji">
		<text transform="matrix(1 0 0 1 0.5 93.3799)" style="font-size:108;">聴</text>
	</g>
	<g id="StrokeNumbers" style="font-size:8;fill:#808080">
		<text transform="matrix(1 0 0 1 5.5 22.5)">1</text>
		<text transform="matrix(1 0 0 1 14.5 32.5)">2</text>
		<text transform="matrix(1 0 0 1 26.25 34.6299)">3</text>
		<text transform="matrix(1 0 0 1 26.25 50.5)">4</text>
		<text transform="matrix(1 0 0 1 5.5 79.5)">5</text>
		<text transform="matrix(1 0 0 1 32.5 28.5)">6</text>
		<text transform="matrix(1 0 0 1 52.5 24.5)">7</text>
		<text transform="matrix(1 0 0 1 60.75 11.5)">8</text>
		<text transform="matrix(1 0 0 1 45.5 47.5)">9</text>
		<text transform="matrix(1 0 0 1 51.75 37.5)">10</text>
		<text transform="matrix(1 0 0 1 56 47.5)">11</text>
		<text transform="matrix(1 0 0 1 68.5 45.5)">12</text>
		<text transform="matrix(1 0 0 1 56.25 55.6299)">13</text>
		<text transform="matrix(1 0 0 1 44.25 71.5)">14</text>
		<text transform="matrix(1 0 0 1 53.5 89.5)">15</text>
		<text transform="matrix(1 0 0 1 58.5 69.5)">16</text>
		<text transform="matrix(1 0 0 1 78.5 68.5)">17</text>
	</g>
	<g id="StrokePaths" style="fill:none;stroke:#404040;stroke-width:3;stroke-linecap:round;stroke-linejoin:round;">
		<path d="M11.44,22.12c2.44,0.47,4.86,0.46,6.85,0.17c7.71-1.16,15.34-2.78,24.09-3.94c2.1-0.28,4.56-0.21,6.62,0.2"/>
		<path d="M20.96,24.72c0.85,0.85,0.95,1.94,0.95,3.25c0,1.3-0.03,42.85-0.03,47.54"/>
		<path d="M22.93,39.24c8.6-1.63,9.53-1.87,17.13-2.66"/>
		<path d="M22.64,54.71c7.02-1.13,8.42-1.6,16.98-2.4"/>
		<path d="M14.11,78.82c0.85,0.85,2.01,0.93,3.41,0.25c3.14-1.53,17.91-9.31,22.63-11.97"/>
		<path d="M39.72,21.8c0.86,0.86,1.03,2.13,1.03,3.43c0,1.08-0.15,42.54-0.12,63.27c0.01,4.31,0.01,7.66,0.01,9.5"/>
		<path d="M51.93,26.94c0.82,0.34,2.32,0.41,3.13,0.34c8.94-0.78,25.01-3.73,32.17-3.86c1.36-0.02,2.18,0.16,2.86,0.33"/>
		<path d="M70.61,11.88c0.88,0.88,1.01,1.99,0.85,3.3c-0.09,0.75-1.97,16.56-3.13,22.2"/>
		<path d="M50.55,39.17c1.01,1.02,1.57,1.83,1.87,3.62c0.81,4.91,1.17,8.44,2.17,13.9c0.22,1.22,0.48,2.56,0.77,4.07"/>
		<path d="M53,40.85c5.53-1.07,25.04-3.69,33.13-4.76c4.12-0.55,5.85,0.89,5.02,5.06c-0.8,4.06-1.27,7.58-2.47,11.66c-0.37,1.26-0.79,3.05-1.27,4.39"/>
		<path d="M63.44,40.35c0.86,0.86,1.19,1.78,1.33,3.09c0.56,5.42,1.36,10.45,1.46,12.42"/>
		<path d="M77.65,38.6c0.48,0.9,0.65,1.73,0.44,3.17c-0.58,3.98-0.83,8.6-1.35,12.79"/>
		<path d="M56.26,58.54C59,58.01,82.22,55,86.95,54.87"/>
		<path d="M51.4,74.98c0.17,2.13-1.65,11.52-2.96,15.06"/>
		<path d="M57.95,76.1c6.55,11.65,12.8,19.4,30.41,19.78c9.39,0.2,9.39-1.88,2.47-6.8"/>
		<path d="M68.51,68c1.14,2.49,4.12,6.32,4.84,2.8"/>
		<path d="M87.26,66.82c4.19,2.01,7.33,3.84,10.74,10.06"/>
	</g>
</svg>
