<?xml version="1.0" encoding="UTF-8"?>
<!-- Copyright (C) 2009 Ulrich Apel.
This work is distributed under the conditions of the Creative Commons
Attribution-Share Alike 3.0 Licence. This means you are free:
* to Share - to copy, distribute and transmit the work
* to Remix - to adapt the work

Under the following conditions:
* Attribution. You must attribute the work by stating your use of KanjiVG in
  your own copyright header and linking to KanjiVG's website
  (http://kanjivg.tagaini.net)
* Share Alike. If you alter, transform, or build upon this work, you may
  distribute the resulting work only under the same or similar license to this
  one.

See http://creativecommons.org/licenses/by-sa/3.0/ for more details. -->
<!DOCTYPE svg PUBLIC "-//W3C//DTD SVG 1.0//EN" "http://www.w3.org/TR/2001/REC-SVG-20010904/DTD/svg10.dtd">
<svg xmlns="http://www.w3.org/2000/svg" width="109" height="109" viewBox="0 0 109 109">
	<g id="HelperGrid" style="opacity:0.75;">
		<rect x="0.5" y="0.5" style="fill:none;stroke:#404040;" width="108" height="108"/> 
		<line style="fill:none;stroke:#404040;" x1="0.5" y1="72.51" x2="108.5" y2="72.51"/>
		<line style="fill:none;stroke:#404040;" x1="0.5" y1="36.49" x2="108.5" y2="36.49"/>
		<line style="fill:none;stroke:#404040;" x1="72.5" y1="0.5" x2="72.5" y2="108.5"/>
		<line style="fill:none;stroke:#404040;" x1="36.5" y1="0.5" x2="36.5" y2="108.5"/>
	</g>
	<g id="Kanji">
		<text transform="matrix(1 0 0 1 0.5 93.3799)" style="font-size:108;">聶</text>
	</g>
	<g id="StrokeNumbers" style="font-size:8;fill:#808080">
		<text transform="matrix(1 0 0 1 18.25 13.25)">1</text>
		<text transform="matrix(1 0 0 1 29.25 24.25)">2</text>
		<text transform="matrix(1 0 0 1 62.25 18.25)">3</text>
		<text transform="matrix(1 0 0 1 41.25 19.25)">4</text>
		<text transform="matrix(1 0 0 1 41.25 28.6543)">5</text>
		<text transform="matrix(1 0 0 1 13 40.5791)">6</text>
		<text transform="matrix(1 0 0 1 6 53.4297)">7</text>
		<text transform="matrix(1 0 0 1 16 64.3535)">8</text>
		<text transform="matrix(1 0 0 1 29.25 70.25)">11</text>
		<text transform="matrix(1 0 0 1 30.25 61.25)">10</text>
		<text transform="matrix(1 0 0 1 47 60.25)">9</text>
		<text transform="matrix(1 0 0 1 4 89.1299)">12</text>
		<text transform="matrix(1 0 0 1 54 50.25)">13</text>
		<text transform="matrix(1 0 0 1 55.25 63.25)">14</text>
		<text transform="matrix(1 0 0 1 68.25 68.7539)">17</text>
		<text transform="matrix(1 0 0 1 68.25 60.25)">16</text>
		<text transform="matrix(1 0 0 1 87.25 60.25)">15</text>
		<text transform="matrix(1 0 0 1 51 81.25)">18</text>
	</g>
	<g id="StrokePaths" style="fill:none;stroke:#404040;stroke-width:3;stroke-linecap:round;stroke-linejoin:round;">
		<path d="M24.75,12.98c1.08,0.26,3.06,0.36,4.14,0.26c12.99-1.18,28.14-2.23,49.83-3.01c1.79-0.06,2.88,0.12,3.78,0.26"/>
		<path d="M34.93,15.19c1.07,0.78,1.64,2.83,1.64,4.94c0,2.11-0.33,12.33-0.33,19.93"/>
		<path d="M69.5,11.01c0.5,1.05,1.25,2.35,1.25,3.66c0,1.31,0.25,22.12,0.25,32.83"/>
		<path d="M38.25,21.99c4.85,0,9.75-0.6,14.58-0.97c1.57-0.12,3.17-0.24,4.75-0.36"/>
		<path d="M36.25,30.66c5.51-0.38,11-0.92,16.5-1.41c1.5-0.13,3.02-0.27,4.54-0.4"/>
		<path d="M21.25,41.56c0.49,0.66,1.72,1.59,3.43,1.32c6.86-1.1,47.04-7.68,57.57-9.43"/>
		<path d="M16.12,54.61c0.66,0.3,1.86,0.37,2.52,0.3c5.86-0.66,16.12-2.02,29.31-2.9c1.09-0.07,1.75,0.14,2.3,0.29"/>
		<path d="M24.5,55.94c0.57,0.44,0.88,1.61,0.88,2.8S25.2,80.87,25.2,85.18"/>
		<path d="M43.47,53.57c0.27,0.59,0.67,1.33,0.67,2.08s0.13,36.02,0.13,42.1"/>
		<path d="M25.77,64.16c2.75-0.3,5.49-0.76,8.23-1.15c0.83-0.12,1.67-0.24,2.51-0.35"/>
		<path d="M25.5,73.5c2.87,0,5.79-0.65,8.61-1.07c0.9-0.13,1.81-0.27,2.71-0.39"/>
		<path d="M15.5,87.36c0.75,0.64,1.79,0.99,2.57,0.74c3.15-1.03,20.6-6.71,25.44-8.36"/>
		<path d="M56.17,53.47c0.76,0.31,2.16,0.34,2.92,0.31c6.4-0.28,15.39-2.61,30.73-3.53c1.27-0.08,2.04,0.15,2.67,0.3"/>
		<path d="M63.14,54.36c0.62,0.46,0.95,1.67,0.95,2.91c0,1.24-0.19,21.38-0.19,25.84"/>
		<path d="M83.22,51.9c0.29,0.62,0.73,1.38,0.73,2.15s0.15,38.9,0.15,45.2"/>
		<path d="M65.07,62.35c2.81,0,5.68-0.57,8.47-0.92c0.91-0.12,1.84-0.23,2.76-0.34"/>
		<path d="M64.78,71.54c2.85,0,5.73-0.5,8.55-0.85c0.88-0.11,1.76-0.21,2.64-0.31"/>
		<path d="M56.75,85.07c0.25,0.63,0.89,1.53,1.77,1.27c3.53-1.06,24.21-7.4,29.64-9.1"/>
	</g>
</svg>
