<?xml version="1.0" encoding="UTF-8"?>
<!DOCTYPE svg PUBLIC "-//W3C//DTD SVG 1.0//EN" "http://www.w3.org/TR/2001/REC-SVG-20010904/DTD/svg10.dtd">
<svg xmlns="http://www.w3.org/2000/svg" width="109" height="109" viewBox="0 0 109 109">
	<g id="HelperGrid" style="opacity:0.75;">
		<rect x="0.5" y="0.5" style="fill:none;stroke:#404040;" width="108" height="108"/> 
		<line style="fill:none;stroke:#404040;" x1="0.5" y1="72.51" x2="108.5" y2="72.51"/>
		<line style="fill:none;stroke:#404040;" x1="0.5" y1="36.49" x2="108.5" y2="36.49"/>
		<line style="fill:none;stroke:#404040;" x1="72.5" y1="0.5" x2="72.5" y2="108.5"/>
		<line style="fill:none;stroke:#404040;" x1="36.5" y1="0.5" x2="36.5" y2="108.5"/>
	</g>
	<g id="Kanji">
		<text transform="matrix(1 0 0 1 0.5 93.3799)" style="font-size:108;">肌</text>
	</g>
	<g id="StrokeNumbers" style="font-size:8;fill:#808080">
		<text transform="matrix(1 0 0 1 12.75 28.6299)">1</text>
		<text transform="matrix(1 0 0 1 21.75 17.5)">2</text>
		<text transform="matrix(1 0 0 1 24.75 36.5)">3</text>
		<text transform="matrix(1 0 0 1 24.5781 53.5)">4</text>
		<text transform="matrix(1 0 0 1 48.75 28.6299)">5</text>
		<text transform="matrix(1 0 0 1 59.25 16.6299)">6</text>
	</g>
	<g id="StrokePaths" style="fill:none;stroke:#404040;stroke-width:3;stroke-linecap:round;stroke-linejoin:round;">
		<path d="M18.71,19.97c0.85,0.85,0.98,2.09,1,3.01c0.54,37.27-3.55,53.97-10.21,67.41"/>
		<path d="M20.71,22.01c3.08-0.63,8.54-2.01,12.45-2.62c2.68-0.42,3.88,0.34,3.88,3.23c0,6.85,0,43.98,0,61.03c0,12.77-4.63,5.58-7.23,2.5"/>
		<path d="M20.71,40.41c5.36-0.69,10.18-1.42,15.22-2.04"/>
		<path d="M19.4,57.12c4.6-0.37,11.55-1.01,16.44-1.42"/>
		<path d="M55.22,18.5c1.14,1.14,1.34,2.25,1.36,4.25C56.88,51.12,57.75,78,42.2,91.25"/>
		<path d="M57.7,20.75c3.75-0.75,12.5-2.5,15.5-3.25s4.75,0.5,4.75,3.25c0,3.82,0,58.75,0,61.5c0,6.58,1.38,8.5,9.3,8.5c7.25,0,8.45-1.33,8.45-9.75"/>
	</g>
</svg>
