<?xml version="1.0" encoding="UTF-8"?>
<!-- Copyright (C) 2009 Ulrich Apel.
This work is distributed under the conditions of the Creative Commons
Attribution-Share Alike 3.0 Licence. This means you are free:
* to Share - to copy, distribute and transmit the work
* to Remix - to adapt the work

Under the following conditions:
* Attribution. You must attribute the work by stating your use of KanjiVG in
  your own copyright header and linking to KanjiVG's website
  (http://kanjivg.tagaini.net)
* Share Alike. If you alter, transform, or build upon this work, you may
  distribute the resulting work only under the same or similar license to this
  one.

See http://creativecommons.org/licenses/by-sa/3.0/ for more details. -->
<!DOCTYPE svg PUBLIC "-//W3C//DTD SVG 1.0//EN" "http://www.w3.org/TR/2001/REC-SVG-20010904/DTD/svg10.dtd">
<svg xmlns="http://www.w3.org/2000/svg" width="109" height="109" viewBox="0 0 109 109">
	<g id="HelperGrid" style="opacity:0.75;">
		<rect x="0.5" y="0.5" style="fill:none;stroke:#404040;" width="108" height="108"/> 
		<line style="fill:none;stroke:#404040;" x1="0.5" y1="72.51" x2="108.5" y2="72.51"/>
		<line style="fill:none;stroke:#404040;" x1="0.5" y1="36.49" x2="108.5" y2="36.49"/>
		<line style="fill:none;stroke:#404040;" x1="72.5" y1="0.5" x2="72.5" y2="108.5"/>
		<line style="fill:none;stroke:#404040;" x1="36.5" y1="0.5" x2="36.5" y2="108.5"/>
	</g>
	<g id="Kanji">
		<text transform="matrix(1 0 0 1 0.5 93.3799)" style="font-size:108;">胞</text>
	</g>
	<g id="StrokeNumbers" style="font-size:8;fill:#808080">
		<text transform="matrix(1 0 0 1 12.5 27.5)">1</text>
		<text transform="matrix(1 0 0 1 21.75 17.5)">2</text>
		<text transform="matrix(1 0 0 1 23.5 36.0547)">3</text>
		<text transform="matrix(1 0 0 1 23.3281 53.5)">4</text>
		<text transform="matrix(1 0 0 1 52.5 17.5)">5</text>
		<text transform="matrix(1 0 0 1 64.5 26.5)">6</text>
		<text transform="matrix(1 0 0 1 55.5 43.5)">7</text>
		<text transform="matrix(1 0 0 1 57.5 57.5)">8</text>
		<text transform="matrix(1 0 0 1 46.5 65.9043)">9</text>
	</g>
	<g id="StrokePaths" style="fill:none;stroke:#404040;stroke-width:3;stroke-linecap:round;stroke-linejoin:round;">
		<path d="M17.7,19.71c0.98,0.98,1.2,2.16,1.2,3.68c0,40.86-1.28,55.86-8.65,71.52"/>
		<path d="M20.06,21.52c4.82-0.64,13.32-2.3,15.07-2.42c3.13-0.22,3.91,1.28,3.91,2.62c0,3.17-0.04,45.76-0.04,63.78c0,12.39-6.4,3.17-8.4,1.68"/>
		<path d="M20.06,39.59C26,39,32.25,38.12,37.89,37.81"/>
		<path d="M19.74,56.97c5.26-0.47,12.25-1.25,18-1.67"/>
		<path d="M60.87,17c0.04,0.68,0.01,1.56-0.33,2.47C58,26.25,53.22,36.47,45.86,45.23"/>
		<path d="M58.99,29.93c2.37,0.5,4.23,0.37,6.55-0.1c4.74-0.95,15.18-2.9,20.12-3.62c3.67-0.54,6.12,0.47,5.8,4.55c-0.71,8.99-2.34,18.37-5.89,30.14c-1.63,5.4-2.92,8.37-7.43,3.39"/>
		<path d="M53.28,45.46c1.59,0.54,2.95,0.6,4.69,0.32c2.96-0.48,10.42-2.05,13.39-2.61c2.17-0.41,3.77,0.39,3.18,2.93c-0.15,0.65-1.37,5.55-3.07,11.38"/>
		<path d="M51.24,59.6c0.83,0.34,2.29,0.74,3.73,0.61c5.04-0.46,9.07-0.81,13.54-1.42c2.06-0.28,3.95-0.27,5.41-0.37"/>
		<path d="M52.52,60.77c0.79,0.79,1.01,1.73,1.01,3.09c0,5.43-0.03,10.53-0.03,15.27c0,10.3,2.25,12.06,20.24,12.06c17.28,0,20.4-3.07,20.4-12.89"/>
	</g>
</svg>
