<?xml version="1.0" encoding="UTF-8"?>
<!DOCTYPE svg PUBLIC "-//W3C//DTD SVG 1.0//EN" "http://www.w3.org/TR/2001/REC-SVG-20010904/DTD/svg10.dtd">
<svg xmlns="http://www.w3.org/2000/svg" width="109" height="109" viewBox="0 0 109 109">
	<g id="HelperGrid" style="opacity:0.75;">
		<rect x="0.5" y="0.5" style="fill:none;stroke:#404040;" width="108" height="108"/> 
		<line style="fill:none;stroke:#404040;" x1="0.5" y1="72.51" x2="108.5" y2="72.51"/>
		<line style="fill:none;stroke:#404040;" x1="0.5" y1="36.49" x2="108.5" y2="36.49"/>
		<line style="fill:none;stroke:#404040;" x1="72.5" y1="0.5" x2="72.5" y2="108.5"/>
		<line style="fill:none;stroke:#404040;" x1="36.5" y1="0.5" x2="36.5" y2="108.5"/>
	</g>
	<g id="Kanji">
		<text transform="matrix(1 0 0 1 0.5 93.3799)" style="font-size:108;">脇</text>
	</g>
	<g id="StrokeNumbers" style="font-size:8;fill:#808080">
		<text transform="matrix(1 0 0 1 10.5 24.5)">1</text>
		<text transform="matrix(1 0 0 1 20.5 15.5)">2</text>
		<text transform="matrix(1 0 0 1 22.5 33.5)">3</text>
		<text transform="matrix(1 0 0 1 22.5 51.5)">4</text>
		<text transform="matrix(1 0 0 1 40.5 27.5)">5</text>
		<text transform="matrix(1 0 0 1 59.5 12.5)">6</text>
		<text transform="matrix(1 0 0 1 37.5 64.5)">7</text>
		<text transform="matrix(1 0 0 1 43.5 59.5)">8</text>
		<text transform="matrix(1 0 0 1 68.5 62.5)">9</text>
		<text transform="matrix(1 0 0 1 72.5 58.5)">10</text>
	</g>
	<g id="StrokePaths" style="fill:none;stroke:#404040;stroke-width:3;stroke-linecap:round;stroke-linejoin:round;">
		<path d="M16.47,17.24c0.52,0.95,0.88,1.88,1.05,2.8c0.17,0.92,0.15,25.9-0.41,33.63c-0.8,11-1.61,24.08-8.61,36.22"/>
		<path d="M18.07,19.31C23,18.5,27.25,18,30.29,17.35c2.75-0.59,3.5,1.31,3.5,2.67c0,3.23-0.53,44.22-0.53,62.55c0,12.61-5.41,4.05-7.2,2.54"/>
		<path d="M17.57,37.2c2.68-0.21,5.34-0.58,8-0.91c0.7-0.09,1.4-0.17,2.09-0.25"/>
		<path d="M17.01,55.15c2.47-0.05,5.44-0.41,7.88-0.72c0.71-0.09,1.42-0.18,2.14-0.28"/>
		<path d="M48.19,27.39c2.06,0.11,3.97,0.28,4.74,0.17c6.23-0.9,31.13-4.28,34.59-4.61c2.25-0.21,2.87,0.97,2.75,2.47c-0.33,3.96-6.75,20.15-10.23,22.84c-3.25,2.51-5.08,0.15-5.99-0.32"/>
		<path d="M69.16,12.43c0.06,0.91,0.16,2.36-0.13,3.66c-2.68,12.17-8.79,25.41-22.65,35.03"/>
		<path d="M39.86,67.29c0.69,0.35,1.54,0.25,2.15,0.19c6.74-0.72,17.54-2.57,20.24-2.93c1.76-0.23,2.25,1.05,2.15,2.69c-0.26,4.33-6.3,21.49-9.03,24.43c-2.54,2.74-3.99,0.16-4.7-0.35"/>
		<path d="M52.23,55.68c0.04,0.88,0.1,2.27-0.08,3.53c-1.4,9.32-5.71,24.21-14.89,33.81"/>
		<path d="M70.86,65.94c0.71,0.41,2.6,0.32,3.23,0.22c5.91-0.91,17.26-2.69,20.08-3.11c1.83-0.27,2.34,1.23,2.24,3.16c-0.27,5.07-6.5,25.29-9.34,28.74c-2.64,3.22-4.14,0.19-4.88-0.41"/>
		<path d="M83.22,54.43c0.05,0.98,0.13,2.55-0.11,3.96C81.31,68.83,75.78,85.51,64,96.27"/>
	</g>
</svg>
