<?xml version="1.0" encoding="UTF-8"?>
<!-- Copyright (C) 2009 Ulrich Apel.
This work is distributed under the conditions of the Creative Commons
Attribution-Share Alike 3.0 Licence. This means you are free:
* to Share - to copy, distribute and transmit the work
* to Remix - to adapt the work

Under the following conditions:
* Attribution. You must attribute the work by stating your use of KanjiVG in
  your own copyright header and linking to KanjiVG's website
  (http://kanjivg.tagaini.net)
* Share Alike. If you alter, transform, or build upon this work, you may
  distribute the resulting work only under the same or similar license to this
  one.

See http://creativecommons.org/licenses/by-sa/3.0/ for more details. -->
<!DOCTYPE svg PUBLIC "-//W3C//DTD SVG 1.0//EN" "http://www.w3.org/TR/2001/REC-SVG-20010904/DTD/svg10.dtd">
<svg xmlns="http://www.w3.org/2000/svg" width="109" height="109" viewBox="0 0 109 109">
	<g id="HelperGrid" style="opacity:0.75;">
		<rect x="0.5" y="0.5" style="fill:none;stroke:#404040;" width="108" height="108"/> 
		<line style="fill:none;stroke:#404040;" x1="0.5" y1="72.51" x2="108.5" y2="72.51"/>
		<line style="fill:none;stroke:#404040;" x1="0.5" y1="36.49" x2="108.5" y2="36.49"/>
		<line style="fill:none;stroke:#404040;" x1="72.5" y1="0.5" x2="72.5" y2="108.5"/>
		<line style="fill:none;stroke:#404040;" x1="36.5" y1="0.5" x2="36.5" y2="108.5"/>
	</g>
	<g id="Kanji">
		<text transform="matrix(1 0 0 1 0.5 93.3799)" style="font-size:108;">脣</text>
	</g>
	<g id="StrokeNumbers" style="font-size:8;fill:#808080">
		<text transform="matrix(1 0 0 1 28.25 12.25)">1</text>
		<text transform="matrix(1 0 0 1 20.25 23.25)">2</text>
		<text transform="matrix(1 0 0 1 34.25 23.229)">3</text>
		<text transform="matrix(1 0 0 1 34.25 30.1543)">4</text>
		<text transform="matrix(1 0 0 1 33.25 43.25)">5</text>
		<text transform="matrix(1 0 0 1 79.25 39.25)">6</text>
		<text transform="matrix(1 0 0 1 51.25 43.25)">7</text>
		<text transform="matrix(1 0 0 1 32.25 67.25)">8</text>
		<text transform="matrix(1 0 0 1 45.25 58.25)">9</text>
		<text transform="matrix(1 0 0 1 45.022 68.25)">10</text>
		<text transform="matrix(1 0 0 1 45.25 78.25)">11</text>
	</g>
	<g id="StrokePaths" style="fill:none;stroke:#404040;stroke-width:3;stroke-linecap:round;stroke-linejoin:round;">
		<path d="M26.75,14.92c1.37,0.41,4.13,1.09,5.5,1c11.11-0.77,35.57-2.98,41.5-3.33c2.28-0.13,5.69,0.29,6.83,0.5"/>
		<path d="M29.3,16.92c0.05,1.57-0.09,4.04-0.09,6.29c0,14.5-3.58,36.39-15.45,50.68"/>
		<path d="M40.08,23.58c0.85,0.34,3.03,0.8,3.88,0.71c5.43-0.58,20.21-1.84,25.62-2.38c1.41-0.14,3.62-0.34,4.33-0.17"/>
		<path d="M32.58,32.42c0.77,0.27,4.39,0.83,5.17,0.83c6.25,0,34.68-3.42,40-3.5c1.29-0.02,5.19,0.03,5.83,0.17"/>
		<path d="M40.25,32.92c1.17,0.91,0.42,0.74,0.42,2.04c0,6.15-0.26,14.58-0.26,15.63c0,1.04,0.87,2.11,2.5,1.33c1.63-0.78,10.09-5.25,12.26-6.04"/>
		<path d="M51,32.23c6.55,1.57,25.13,17.19,30.25,20.19c1.74,1.01,3.5,0.44,5.24,0.73"/>
		<path d="M75.78,34.54c0.02,0.16,0.05,0.41-0.05,0.64c-0.56,1.34-3.76,4.29-8.14,6.1"/>
		<path d="M38.25,58.92c0.67,0.52,1.84,2.08,1.84,3.79c0,0.58,0.25,34.01,0.16,35.21"/>
		<path d="M40.1,60.67c6.65-0.42,28.31-2.79,30.29-2.97c3.54-0.32,4.44,0.56,4.44,3c0,2.04-0.07,20.37-0.07,31.32c0,10.74-6.61,2.4-7.49,1.74"/>
		<path d="M41.46,71.39c5.44-0.55,10.89-1.08,16.34-1.58c1.46-0.13,2.91-0.26,4.32-0.39"/>
		<path d="M42.16,81.46c5.13-0.4,10.25-0.93,15.38-1.41c1.5-0.14,3-0.28,4.48-0.41"/>
	</g>
</svg>
