<?xml version="1.0" encoding="UTF-8"?>
<!DOCTYPE svg PUBLIC "-//W3C//DTD SVG 1.0//EN" "http://www.w3.org/TR/2001/REC-SVG-20010904/DTD/svg10.dtd">
<svg xmlns="http://www.w3.org/2000/svg" width="109" height="109" viewBox="0 0 109 109">
	<g id="HelperGrid" style="opacity:0.75;">
		<rect x="0.5" y="0.5" style="fill:none;stroke:#404040;" width="108" height="108"/> 
		<line style="fill:none;stroke:#404040;" x1="0.5" y1="72.51" x2="108.5" y2="72.51"/>
		<line style="fill:none;stroke:#404040;" x1="0.5" y1="36.49" x2="108.5" y2="36.49"/>
		<line style="fill:none;stroke:#404040;" x1="72.5" y1="0.5" x2="72.5" y2="108.5"/>
		<line style="fill:none;stroke:#404040;" x1="36.5" y1="0.5" x2="36.5" y2="108.5"/>
	</g>
	<g id="Kanji">
		<text transform="matrix(1 0 0 1 0.5 93.3799)" style="font-size:108;">膀</text>
	</g>
	<g id="StrokeNumbers" style="font-size:8;fill:#808080">
		<text transform="matrix(1 0 0 1 10.25 22.25)">1</text>
		<text transform="matrix(1 0 0 1 20.25 16.25)">2</text>
		<text transform="matrix(1 0 0 1 24.25 35.25)">3</text>
		<text transform="matrix(1 0 0 1 23.25 54.25)">4</text>
		<text transform="matrix(1 0 0 1 57.25 10.25)">5</text>
		<text transform="matrix(1 0 0 1 44.25 20.25)">6</text>
		<text transform="matrix(1 0 0 1 50.25 33.25)">7</text>
		<text transform="matrix(1 0 0 1 71.25 31.25)">8</text>
		<text transform="matrix(1 0 0 1 39.25 37.25)">9</text>
		<text transform="matrix(1 0 0 1 47.25 38.2041)">10</text>
		<text transform="matrix(1 0 0 1 56.25 47.25)">11</text>
		<text transform="matrix(1 0 0 1 48.25 53.3047)">12</text>
		<text transform="matrix(1 0 0 1 76.25 62.25)">13</text>
		<text transform="matrix(1 0 0 1 53.25 66.6543)">14</text>
	</g>
	<g id="StrokePaths" style="fill:none;stroke:#404040;stroke-width:3;stroke-linecap:round;stroke-linejoin:round;">
		<path d="M19.08,18.25c0.58,0.97,1,2.71,1,3.67c0,3.08,0.01,23.81-0.6,31.69C18.6,64.81,17.7,76.1,9.42,88.97"/>
		<path d="M20.82,19.56c1.8-0.06,10.39-1.83,11.72-1.96c2.39-0.23,2.99,1.3,2.99,2.66c0,3.22-0.45,45.61-0.45,63.9c0,12.58-5.81,5.27-7.34,3.76"/>
		<path d="M20.99,39.01c3.8-0.26,10.75-1.49,14.08-1.51"/>
		<path d="M20.1,57.51c3.23-0.07,9.9-1.19,14.29-1.59"/>
		<path d="M65.25,11.92c1,0.83,1.92,1.75,1.92,2.94c0,1.88,0,1.15,0,6.26"/>
		<path d="M46.42,23.96c2.08,0.54,4.96,0.76,5.83,0.62c7-1.08,25-3.33,33.5-4.17c1.46-0.14,4.27,0.24,5,0.48"/>
		<path d="M55.19,27.74c2.27,2.73,3.35,6.54,3.56,8.34"/>
		<path d="M80.21,23.5c0.16,0.89-0.21,2.12-0.33,2.36c-1.24,2.41-2.57,6.74-3.46,8.22"/>
		<path d="M46.2,36.73c-0.09,3.53-2.15,12.77-2.88,14.88"/>
		<path d="M45.75,40.92c6.95-0.84,31.47-4.98,45-5.33c8.27-0.22,3.09,4.7,0,8"/>
		<path d="M65.25,42.75c0.98,0.53,3.17,2.96,3.17,4c0,3.85-0.38,4.58-0.2,7.84"/>
		<path d="M45.92,55.58c1.58,0.42,3.83,0.92,6.33,0.83c6.65-0.22,28.89-2.98,37.83-3.67c1.38-0.11,4.14,0.1,5.17,0.67"/>
		<path d="M67.16,61.75c3.34,2.75,11.58,4.64,14.76,5.34c1.43,0.32,2.35,1.89,2,3.67c-1.18,5.91-5.93,16.19-10.33,22c-2.63,3.46-6.25-1.76-6.83-2.33"/>
		<path d="M65.58,57.92c0.35,0.93,0.43,2.68,0.02,3.72c-3.86,9.86-8.36,20.86-20.69,27.14"/>
	</g>
</svg>
