<?xml version="1.0" encoding="UTF-8"?>
<!DOCTYPE svg PUBLIC "-//W3C//DTD SVG 1.0//EN" "http://www.w3.org/TR/2001/REC-SVG-20010904/DTD/svg10.dtd">
<svg xmlns="http://www.w3.org/2000/svg" width="109" height="109" viewBox="0 0 109 109">
	<g id="HelperGrid" style="opacity:0.75;">
		<rect x="0.5" y="0.5" style="fill:none;stroke:#404040;" width="108" height="108"/> 
		<line style="fill:none;stroke:#404040;" x1="0.5" y1="72.51" x2="108.5" y2="72.51"/>
		<line style="fill:none;stroke:#404040;" x1="0.5" y1="36.49" x2="108.5" y2="36.49"/>
		<line style="fill:none;stroke:#404040;" x1="72.5" y1="0.5" x2="72.5" y2="108.5"/>
		<line style="fill:none;stroke:#404040;" x1="36.5" y1="0.5" x2="36.5" y2="108.5"/>
	</g>
	<g id="Kanji">
		<text transform="matrix(1 0 0 1 0.5 93.3799)" style="font-size:108;">膣</text>
	</g>
	<g id="StrokeNumbers" style="font-size:8;fill:#808080">
		<text transform="matrix(1 0 0 1 9.25 23.25)">1</text>
		<text transform="matrix(1 0 0 1 19.25 17.3047)">2</text>
		<text transform="matrix(1 0 0 1 23.25 37.25)">3</text>
		<text transform="matrix(1 0 0 1 23.25 54.25)">4</text>
		<text transform="matrix(1 0 0 1 57.25 9.25)">5</text>
		<text transform="matrix(1 0 0 1 41.25 22.0049)">6</text>
		<text transform="matrix(1 0 0 1 52.25 21.25)">7</text>
		<text transform="matrix(1 0 0 1 51.25 33.25)">8</text>
		<text transform="matrix(1 0 0 1 66.25 32.25)">9</text>
		<text transform="matrix(1 0 0 1 53 48.25)">10</text>
		<text transform="matrix(1 0 0 1 50.25 60.25)">11</text>
		<text transform="matrix(1 0 0 1 69.25 58.25)">12</text>
		<text transform="matrix(1 0 0 1 58.25 75.25)">13</text>
		<text transform="matrix(1 0 0 1 40.25 80.25)">14</text>
		<text transform="matrix(1 0 0 1 40.25 90.25)">15</text>
	</g>
	<g id="StrokePaths" style="fill:none;stroke:#404040;stroke-width:3;stroke-linecap:round;stroke-linejoin:round;">
		<path d="M17.42,18.75c1.08,1.25,1.49,2.06,1.67,3c0.18,0.94,0.34,26.71-0.23,34.6c-0.81,11.23-1.64,22.54-9.27,35.45"/>
		<path d="M19.82,20.37c1.98-0.06,11.44-2.31,12.92-2.44c2.64-0.23,3.3,1.29,3.3,2.64c0,3.19-0.5,45.69-0.5,63.82c0,12.46-5.44,5.53-7.12,4.03"/>
		<path d="M20.15,40.71c2.56-0.19,5.11-0.53,7.65-0.83c0.69-0.08,1.37-0.16,2.04-0.23"/>
		<path d="M19.42,57.58c2.43-0.05,4.85-0.31,7.26-0.54c0.7-0.07,1.41-0.14,2.12-0.21"/>
		<path d="M63.82,11.42c2.18,1.08,4.18,4.33,5.27,6.5"/>
		<path d="M47.32,21.86c0,3.54-1.97,13.25-2.87,15.61"/>
		<path d="M48.87,25.3c8.79-1.58,36.37-4.35,42.79-4.26c8.29,0.11,1.82,6.88-0.24,8.37"/>
		<path d="M59.63,29.24c0.04,0.37,0.09,0.95-0.08,1.48c-0.97,3.13-6.06,10.6-14.11,14.21"/>
		<path d="M72.92,25.05c0.43,0.46,0.78,1,0.8,1.71c0.12,3.16-0.31,6.22-0.31,8.37c0,5.01,5.22,4.45,10.37,4.45c5.42,0,9.38-0.63,10.13-0.99"/>
		<path d="M48.92,50.26c0.64,0.25,2.58,0.99,5,0.82c8.75-0.6,22.83-2.08,30-2.83c1.06-0.11,3.47,0.15,4,0.27"/>
		<path d="M64.42,53.08c0.38,0.33-0.38,2.61-0.67,3c-3.33,4.46-5.97,5.73-10.58,10.03c-1.48,1.38-1.59,2.32,0.79,1.91c5.56-0.96,20.1-4.07,30.55-6.57"/>
		<path d="M77.93,55.94c4.32,2.24,11.15,9.22,12.23,12.71"/>
		<path d="M67.69,68.85c1.06,0.9,1.5,2.25,1.45,3.79c-0.27,8.77-0.03,16.6-0.03,19.11"/>
		<path d="M50.08,78.92c0.86,0.32,4.15,0.74,5,0.67c4.17-0.33,19.42-1.83,28.67-2.5c1.43-0.1,4.28,0.17,5,0.33"/>
		<path d="M43.92,92.92c1.03,0.36,4.47,0.38,5.5,0.33c10.83-0.5,28.83-2,44.5-2.33c1.72-0.04,4.14,0.99,5,1.17"/>
	</g>
</svg>
