<?xml version="1.0" encoding="UTF-8"?>
<!DOCTYPE svg PUBLIC "-//W3C//DTD SVG 1.0//EN" "http://www.w3.org/TR/2001/REC-SVG-20010904/DTD/svg10.dtd">
<svg xmlns="http://www.w3.org/2000/svg" width="109" height="109" viewBox="0 0 109 109">
	<g id="HelperGrid" style="opacity:0.75;">
		<rect x="0.5" y="0.5" style="fill:none;stroke:#404040;" width="108" height="108"/> 
		<line style="fill:none;stroke:#404040;" x1="0.5" y1="72.51" x2="108.5" y2="72.51"/>
		<line style="fill:none;stroke:#404040;" x1="0.5" y1="36.49" x2="108.5" y2="36.49"/>
		<line style="fill:none;stroke:#404040;" x1="72.5" y1="0.5" x2="72.5" y2="108.5"/>
		<line style="fill:none;stroke:#404040;" x1="36.5" y1="0.5" x2="36.5" y2="108.5"/>
	</g>
	<g id="Kanji">
		<text transform="matrix(1 0 0 1 0.5 93.3799)" style="font-size:108;">臚</text>
	</g>
	<g id="StrokeNumbers" style="font-size:8;fill:#808080">
		<text transform="matrix(1 0 0 1 11.25 26.25)">1</text>
		<text transform="matrix(1 0 0 1 19.25 17.25)">2</text>
		<text transform="matrix(1 0 0 1 22.25 38.25)">3</text>
		<text transform="matrix(1 0 0 1 21.25 58.25)">4</text>
		<text transform="matrix(1 0 0 1 73.25 15.25)">5</text>
		<text transform="matrix(1 0 0 1 56.25 13.25)">6</text>
		<text transform="matrix(1 0 0 1 49.25 26.25)">7</text>
		<text transform="matrix(1 0 0 1 40.25 37.25)">8</text>
		<text transform="matrix(1 0 0 1 53.25 35.25)">9</text>
		<text transform="matrix(1 0 0 1 70.25 34.25)">10</text>
		<text transform="matrix(1 0 0 1 48.25 61.25)">11</text>
		<text transform="matrix(1 0 0 1 55.25 50.7256)">12</text>
		<text transform="matrix(1 0 0 1 74.25 58.25)">13</text>
		<text transform="matrix(1 0 0 1 59.25 59.25)">14</text>
		<text transform="matrix(1 0 0 1 60.25 67.25)">15</text>
		<text transform="matrix(1 0 0 1 45.25 82.25)">16</text>
		<text transform="matrix(1 0 0 1 56.25 76.6797)">17</text>
		<text transform="matrix(1 0 0 1 57.25 85.25)">18</text>
		<text transform="matrix(1 0 0 1 68.25 84.25)">19</text>
		<text transform="matrix(1 0 0 1 43 89.25)">20</text>
	</g>
	<g id="StrokePaths" style="fill:none;stroke:#404040;stroke-width:3;stroke-linecap:round;stroke-linejoin:round;">
		<path d="M17.25,19.75c1.75,1,1.7,4.26,1.52,3.31c-0.25-1.32,0.31,21.81-0.43,31.89c-0.84,11.41-1.7,24.91-9.59,38.02"/>
		<path d="M18.75,21.42c1.8-0.06,11.46-2.19,12.79-2.32c2.39-0.22,2.99,1.28,2.99,2.61c0,5.95-0.45,44.58-0.45,63.24c0,12.35-4.14,6.12-5.67,4.64"/>
		<path d="M19.82,41.78c2.38-0.11,3.76-0.37,6.13-0.58c0.65-0.06,1.29-0.12,1.92-0.17"/>
		<path d="M18.75,61.58c2.27-0.05,4.55-0.22,6.81-0.39c0.67-0.05,1.34-0.1,2.01-0.15"/>
		<path d="M66.28,19.22c5.11-0.75,11.79-1.05,16.97-1.64c1.71-0.19,3.64-0.02,4.5,0.17"/>
		<path d="M63.92,11.92c0.82,0.88,2,1.24,2,4.17c0,5.7,0,6.21,0,11"/>
		<path d="M47.75,29.42c0.94,0.14,3.15-0.12,4.67-0.33c10.81-1.49,28.12-2.88,37.37-3c9.75-0.13,2.72,4.11,0.29,5.67"/>
		<path d="M46.08,26.55c0.48,0.59,1.58,2.83,1.53,4.96C47,54,46.25,76.5,36.95,94.17"/>
		<path d="M52.58,37.19c1.17,0.31,2.17,1.1,4.22,0.98c7.69-0.42,16.92-2.16,23.94-2.58c1.08-0.06,2.79,0.09,3.33,0.18"/>
		<path d="M65.08,29.92c0.44,0.4,1.18,1.63,1.18,2.19c0,4.44-0.08,5.64-0.08,7.62c0,5.9,2.43,5.45,8.71,5.45c2.34,0,8.14-0.46,10.15-1.25"/>
		<path d="M53.92,51.75c0.25,0.4,1.53,2.68,1.67,3.17c1.09,4.04,1.63,8.62,2.28,16.05"/>
		<path d="M55.25,53.42c9.7-1.14,25.15-2.84,31.14-2.72c1.46,0.03,2.35,1.31,2.35,2.52c0,5.57-1.15,10.37-2.32,15.7"/>
		<path d="M70.58,53.43c0.67,0.82,1.2,2.2,1.2,2.8c-0.02,3.98,0.11,10.43,0.11,11.87"/>
		<path d="M57.58,61.25c6.81-0.46,13.6-1.08,20.41-1.6c0.82-0.06,1.62-0.12,2.39-0.18"/>
		<path d="M58.75,69.08c5.68,0,19.32-1.41,27.17-1.5"/>
		<path d="M52.42,75.25c0.56,0.83,1.75,1.95,1.83,2.67c0.5,4.33,0.46,6.56,1.33,14"/>
		<path d="M54.92,77.42c8.19-0.95,30.19-2.63,33.17-2.5c1.28,0.05,2.49,1.58,2.32,3.38c-0.25,2.66-1.04,8.2-1.99,11.79"/>
		<path d="M65.11,77.43c0.29,0.43,0.72,1.78,0.72,2.33c0,3.86,0.78,8.68,0.78,12.22"/>
		<path d="M76.73,76.84c0.4,0.5,0.75,1.34,0.72,1.99C77.25,83,76.89,87,76.89,90.69"/>
		<path d="M44.42,91.92c1,0.37,3.33,1.33,5.7,1.24c10.4-0.43,23.54-2.32,42.66-2.17C95,91,96.75,91.5,98.58,92.25"/>
	</g>
</svg>
