<?xml version="1.0" encoding="UTF-8"?>
<!DOCTYPE svg PUBLIC "-//W3C//DTD SVG 1.0//EN" "http://www.w3.org/TR/2001/REC-SVG-20010904/DTD/svg10.dtd">
<svg xmlns="http://www.w3.org/2000/svg" width="109" height="109" viewBox="0 0 109 109">
	<g id="HelperGrid" style="opacity:0.75;">
		<rect x="0.5" y="0.5" style="fill:none;stroke:#404040;" width="108" height="108"/> 
		<line style="fill:none;stroke:#404040;" x1="0.5" y1="72.51" x2="108.5" y2="72.51"/>
		<line style="fill:none;stroke:#404040;" x1="0.5" y1="36.49" x2="108.5" y2="36.49"/>
		<line style="fill:none;stroke:#404040;" x1="72.5" y1="0.5" x2="72.5" y2="108.5"/>
		<line style="fill:none;stroke:#404040;" x1="36.5" y1="0.5" x2="36.5" y2="108.5"/>
	</g>
	<g id="Kanji">
		<text transform="matrix(1 0 0 1 0.5 93.3799)" style="font-size:108;">臣</text>
	</g>
	<g id="StrokeNumbers" style="font-size:8;fill:#808080">
		<text transform="matrix(1 0 0 1 29.5 14.5)">1</text>
		<text transform="matrix(1 0 0 1 18.4922 25.6309)">2</text>
		<text transform="matrix(1 0 0 1 47.5 26.9805)">3</text>
		<text transform="matrix(1 0 0 1 30.3203 38.5)">4</text>
		<text transform="matrix(1 0 0 1 30.5 61.5)">5</text>
		<text transform="matrix(1 0 0 1 48.75 73.6299)">6</text>
		<text transform="matrix(1 0 0 1 30.416 89.5)">7</text>
	</g>
	<g id="StrokePaths" style="fill:none;stroke:#404040;stroke-width:3;stroke-linecap:round;stroke-linejoin:round;">
		<path d="M26.07,18.74C33.25,18,66,15.25,82.69,14.51c2.53-0.11,4.05-0.24,5.31,0.03"/>
		<path d="M23.87,16.25c1.09,0.5,1.74,2.25,1.96,3.25c0.22,1,0,72.25-0.22,78.5"/>
		<path d="M53.87,16.75c1.09,0.5,1.74,2.25,1.96,3.25c0.22,1,0.14,13.5-0.08,19.75"/>
		<path d="M26.5,42.75c17.19-1.84,39.82-3.74,51.75-5c4.83-0.51,6.17,1.56,5.5,4.25c-1.22,4.88-3.01,11.88-4.25,17.75"/>
		<path d="M26.57,65.24c7.18-0.74,48.68-3.74,55.43-4.2"/>
		<path d="M54.62,63.5c1.09,0.5,1.74,2.25,1.96,3.25c0.22,1,0.14,18-0.08,24.25"/>
		<path d="M26.07,93.74C33.25,93,71,90.75,87.69,90.01c2.53-0.11,4.05-0.24,5.31,0.03"/>
	</g>
</svg>
