<?xml version="1.0" encoding="UTF-8"?>
<!DOCTYPE svg PUBLIC "-//W3C//DTD SVG 1.0//EN" "http://www.w3.org/TR/2001/REC-SVG-20010904/DTD/svg10.dtd">
<svg xmlns="http://www.w3.org/2000/svg" width="109" height="109" viewBox="0 0 109 109">
	<g id="HelperGrid" style="opacity:0.75;">
		<rect x="0.5" y="0.5" style="fill:none;stroke:#404040;" width="108" height="108"/> 
		<line style="fill:none;stroke:#404040;" x1="0.5" y1="72.51" x2="108.5" y2="72.51"/>
		<line style="fill:none;stroke:#404040;" x1="0.5" y1="36.49" x2="108.5" y2="36.49"/>
		<line style="fill:none;stroke:#404040;" x1="72.5" y1="0.5" x2="72.5" y2="108.5"/>
		<line style="fill:none;stroke:#404040;" x1="36.5" y1="0.5" x2="36.5" y2="108.5"/>
	</g>
	<g id="Kanji">
		<text transform="matrix(1 0 0 1 0.5 93.3799)" style="font-size:108;">臥</text>
	</g>
	<g id="StrokeNumbers" style="font-size:8;fill:#808080">
		<text transform="matrix(1 0 0 1 16.25 18.5)">1</text>
		<text transform="matrix(1 0 0 1 7.5 29.5)">2</text>
		<text transform="matrix(1 0 0 1 23.5 29.479)">3</text>
		<text transform="matrix(1 0 0 1 19.5 39.5)">4</text>
		<text transform="matrix(1 0 0 1 19.25 57.3291)">5</text>
		<text transform="matrix(1 0 0 1 22.5 69.5)">6</text>
		<text transform="matrix(1 0 0 1 18.5 80.5)">7</text>
		<text transform="matrix(1 0 0 1 54.25 15.5)">8</text>
		<text transform="matrix(1 0 0 1 68.5 49.5)">9</text>
	</g>
	<g id="StrokePaths" style="fill:none;stroke:#404040;stroke-width:3;stroke-linecap:round;stroke-linejoin:round;">
		<path d="M14.74,22.51c3.54-0.62,21.67-2.91,29.89-3.52c1.25-0.09,1.99-0.2,2.62,0.02"/>
		<path d="M13.66,20.44c0.54,0.42,0.86,1.87,0.96,2.71c0.11,0.83,0,64.15-0.11,69.36"/>
		<path d="M29.44,21.85c0.54,0.42,0.86,1.87,0.96,2.71c0.11,0.83,0.07,11.24-0.04,16.44"/>
		<path d="M14.95,43.5c8.47-1.53,19.12-2.61,24.99-3.66c2.38-0.43,3.04,1.29,2.71,3.54c-0.6,4.06-1.98,9.39-2.59,14.28"/>
		<path d="M14.99,61.23c3.54-0.62,23.98-3.11,27.31-3.5"/>
		<path d="M28.31,61.78c0.54,0.42,0.86,1.87,0.97,2.71c0.11,0.83,0.07,13.49-0.04,18.69"/>
		<path d="M14.74,84.95c3.54-0.62,15.63-1.49,23.85-2.11c1.25-0.09,2-0.2,2.62,0.03"/>
		<path d="M64.22,16c0.53,1.25,0.9,2.12,0.85,4.72C64.75,36.75,61.5,74,38,93.33"/>
		<path d="M63.02,45.14C68,55.5,83.5,80.75,91.04,87.86c1.96,1.85,3.8,3.03,5.46,3.64"/>
	</g>
</svg>
