<?xml version="1.0" encoding="UTF-8"?>
<!DOCTYPE svg PUBLIC "-//W3C//DTD SVG 1.0//EN" "http://www.w3.org/TR/2001/REC-SVG-20010904/DTD/svg10.dtd">
<svg xmlns="http://www.w3.org/2000/svg" width="109" height="109" viewBox="0 0 109 109">
	<g id="HelperGrid" style="opacity:0.75;">
		<rect x="0.5" y="0.5" style="fill:none;stroke:#404040;" width="108" height="108"/> 
		<line style="fill:none;stroke:#404040;" x1="0.5" y1="72.51" x2="108.5" y2="72.51"/>
		<line style="fill:none;stroke:#404040;" x1="0.5" y1="36.49" x2="108.5" y2="36.49"/>
		<line style="fill:none;stroke:#404040;" x1="72.5" y1="0.5" x2="72.5" y2="108.5"/>
		<line style="fill:none;stroke:#404040;" x1="36.5" y1="0.5" x2="36.5" y2="108.5"/>
	</g>
	<g id="Kanji">
		<text transform="matrix(1 0 0 1 0.5 93.3799)" style="font-size:108;">致</text>
	</g>
	<g id="StrokeNumbers" style="font-size:8;fill:#808080">
		<text transform="matrix(1 0 0 1 6.5 28.5)">1</text>
		<text transform="matrix(1 0 0 1 19.5 36.5)">2</text>
		<text transform="matrix(1 0 0 1 34.5 38.5)">3</text>
		<text transform="matrix(1 0 0 1 22.5 58.5)">4</text>
		<text transform="matrix(1 0 0 1 6.75 66.1299)">5</text>
		<text transform="matrix(1 0 0 1 5.25 93.1299)">6</text>
		<text transform="matrix(1 0 0 1 55.5 19.5)">7</text>
		<text transform="matrix(1 0 0 1 65.5 38.5)">8</text>
		<text transform="matrix(1 0 0 1 65.5 50.5)">9</text>
		<text transform="matrix(1 0 0 1 49.5 63.5)">10</text>
	</g>
	<g id="StrokePaths" style="fill:none;stroke:#404040;stroke-width:3;stroke-linecap:round;stroke-linejoin:round;">
		<path d="M13,26.69C13.6,27,14.72,27.06,15.32,27c8.34-0.83,21.15-3.33,31.31-3.71c1.01-0.04,1.62,0.15,2.12,0.3"/>
		<path d="M31.17,27.75c0.36,0.43,0.48,1.78,0.21,2.29c-3.13,5.83-8.16,11.07-12.48,16.69c-1.39,1.81-1.49,3.03,0.74,2.5c5.21-1.25,17.42-4.58,25.64-6.64"/>
		<path d="M40.4,35.24c3.08,2.17,7.97,8.91,8.74,12.28"/>
		<path d="M30.69,53.28c0.12,0.33,1.78,1.7,1.78,3.78c0,10.44,0.06,21.44,0.06,24.83"/>
		<path d="M14.69,66.37c1.06,0.13,3.15,0.29,3.74,0.25c6.82-0.38,17.32-3.13,23.6-3.98c0.97-0.13,3.06,0.12,3.55,0.25"/>
		<path d="M13.85,89.17C15,90,17,89.77,17.91,89.29C27,84.5,34.75,81.25,47.24,74.62"/>
		<path d="M64,19.39c0.04,0.82,0.21,2.16-0.08,3.31c-2.13,8.33-6.93,22.45-14.3,32.5"/>
		<path d="M59.12,41.53c1.35,0.29,3.87,0,4.6-0.04c7.57-0.47,13.53-2.49,21.4-3.76c1.29-0.21,2.1-0.02,2.43,0.08"/>
		<path d="M74.02,44.71c0.57,1.17,0.88,2,0.28,4.13C68.89,68.21,58,84.75,38.72,92.5"/>
		<path d="M54.18,54.67c1.47,0,2.34,0.92,3.51,2.18c7.92,8.54,22.48,25.06,33.05,33.15c1.95,1.49,4.01,2.48,5.65,2.63"/>
	</g>
</svg>
