<?xml version="1.0" encoding="UTF-8"?>
<!DOCTYPE svg PUBLIC "-//W3C//DTD SVG 1.0//EN" "http://www.w3.org/TR/2001/REC-SVG-20010904/DTD/svg10.dtd">
<svg xmlns="http://www.w3.org/2000/svg" width="109" height="109" viewBox="0 0 109 109">
	<g id="HelperGrid" style="opacity:0.75;">
		<rect x="0.5" y="0.5" style="fill:none;stroke:#404040;" width="108" height="108"/> 
		<line style="fill:none;stroke:#404040;" x1="0.5" y1="72.51" x2="108.5" y2="72.51"/>
		<line style="fill:none;stroke:#404040;" x1="0.5" y1="36.49" x2="108.5" y2="36.49"/>
		<line style="fill:none;stroke:#404040;" x1="72.5" y1="0.5" x2="72.5" y2="108.5"/>
		<line style="fill:none;stroke:#404040;" x1="36.5" y1="0.5" x2="36.5" y2="108.5"/>
	</g>
	<g id="Kanji">
		<text transform="matrix(1 0 0 1 0.5 93.3799)" style="font-size:108;">芦</text>
	</g>
	<g id="StrokeNumbers" style="font-size:8;fill:#808080">
		<text transform="matrix(1 0 0 1 13.5 27.5)">1</text>
		<text transform="matrix(1 0 0 1 28.5 14.5)">2</text>
		<text transform="matrix(1 0 0 1 57.5 11.5)">3</text>
		<text transform="matrix(1 0 0 1 74.5 34.5)">4</text>
		<text transform="matrix(1 0 0 1 23.5 43.5)">5</text>
		<text transform="matrix(1 0 0 1 32.5 49.5)">6</text>
		<text transform="matrix(1 0 0 1 32.5 66.5)">7</text>
	</g>
	<g id="StrokePaths" style="fill:none;stroke:#404040;stroke-width:3;stroke-linecap:round;stroke-linejoin:round;">
		<path d="M20,26.77c1.29,0.53,2.8,0.63,4.1,0.53C36,26.33,71,23.33,84.72,23.26c2.16-0.01,3.45,0.25,4.53,0.51"/>
		<path d="M37.75,14c1.75,1.43,2.31,1.87,2.5,2.75C42,25,42.5,32,43,35"/>
		<path d="M67.25,12.25c0.42,1.18,0.83,2.02,0.5,3.5c-1,4.5-2,10.5-3.5,16.75"/>
		<path d="M82.25,35.5c0.1,0.17-1.29,0.94-1.74,1.03C66.95,39.12,48.59,41.71,30,43"/>
		<path d="M29.5,40.5c0.25,1,0.52,1.92,0.38,4.03c-1.79,27.51-5.63,41.72-16.38,55.22"/>
		<path d="M29.86,52.52c12.89-1.02,38.3-3.71,46.16-4.27c2.13-0.15,4.27,1.05,3.47,3.36c-1.42,4.09-1.94,7.47-3.81,14.4"/>
		<path d="M26.75,69.75c8.75,0.25,38-2.75,52-3.75"/>
	</g>
</svg>
