<?xml version="1.0" encoding="UTF-8"?>
<!-- Copyright (C) 2009 Ulrich Apel.
This work is distributed under the conditions of the Creative Commons
Attribution-Share Alike 3.0 Licence. This means you are free:
* to Share - to copy, distribute and transmit the work
* to Remix - to adapt the work

Under the following conditions:
* Attribution. You must attribute the work by stating your use of KanjiVG in
  your own copyright header and linking to KanjiVG's website
  (http://kanjivg.tagaini.net)
* Share Alike. If you alter, transform, or build upon this work, you may
  distribute the resulting work only under the same or similar license to this
  one.

See http://creativecommons.org/licenses/by-sa/3.0/ for more details. -->
<!DOCTYPE svg PUBLIC "-//W3C//DTD SVG 1.0//EN" "http://www.w3.org/TR/2001/REC-SVG-20010904/DTD/svg10.dtd">
<svg xmlns="http://www.w3.org/2000/svg" width="109" height="109" viewBox="0 0 109 109">
	<g id="HelperGrid" style="opacity:0.75;">
		<rect x="0.5" y="0.5" style="fill:none;stroke:#404040;" width="108" height="108"/> 
		<line style="fill:none;stroke:#404040;" x1="0.5" y1="72.51" x2="108.5" y2="72.51"/>
		<line style="fill:none;stroke:#404040;" x1="0.5" y1="36.49" x2="108.5" y2="36.49"/>
		<line style="fill:none;stroke:#404040;" x1="72.5" y1="0.5" x2="72.5" y2="108.5"/>
		<line style="fill:none;stroke:#404040;" x1="36.5" y1="0.5" x2="36.5" y2="108.5"/>
	</g>
	<g id="Kanji">
		<text transform="matrix(1 0 0 1 0.5 93.3799)" style="font-size:108;">苔</text>
	</g>
	<g id="StrokeNumbers" style="font-size:8;fill:#808080">
		<text transform="matrix(1 0 0 1 12.5 26.5)">1</text>
		<text transform="matrix(1 0 0 1 29.5 13.5)">2</text>
		<text transform="matrix(1 0 0 1 57.5 10.5)">3</text>
		<text transform="matrix(1 0 0 1 45.5 33.5)">4</text>
		<text transform="matrix(1 0 0 1 61.5 43.5)">5</text>
		<text transform="matrix(1 0 0 1 24.25 76.5)">6</text>
		<text transform="matrix(1 0 0 1 35.5 66.5)">7</text>
		<text transform="matrix(1 0 0 1 41.5 91.5)">8</text>
	</g>
	<g id="StrokePaths" style="fill:none;stroke:#404040;stroke-width:3;stroke-linecap:round;stroke-linejoin:round;">
		<path d="M19,25.81c1.33,0.54,2.87,0.65,4.2,0.54c12.2-0.99,48.09-4.57,62.15-4.65c2.21-0.01,3.54,0.26,4.65,0.53"/>
		<path d="M37.25,13c1.75,1.43,2.31,1.87,2.5,2.75C41.5,24,42,31,42.5,34"/>
		<path d="M66.75,10.75c1.12,1,1.37,2.52,1,4c-1.12,4.5-1.88,12.5-3.5,18.25"/>
		<path d="M52.18,32.5c0.07,1.5,0.17,3.1-1.17,4.37c-8.62,8.11-12.88,11.89-20.74,19c-3.1,2.8-2.82,3.47,1.35,2.59c8.99-1.9,31.78-4.79,46.6-7.21"/>
		<path d="M68.78,42.12c5.99,3.09,15.48,12.72,16.97,17.53"/>
		<path d="M30.41,68.59c0.59,0.5,1.19,0.91,1.45,1.52c2.05,4.9,4.49,18.41,5.89,27.21"/>
		<path d="M32.18,70.14c16.11-2.26,32.25-3.39,42.12-4.37c3.37-0.33,5.24,2.19,4.92,3.7C77.5,77.5,76.25,84,74.74,90.94"/>
		<path d="M37.84,94.83C43.5,94.25,69,92.5,76.69,91.99"/>
	</g>
</svg>
