<?xml version="1.0" encoding="UTF-8"?>
<!DOCTYPE svg PUBLIC "-//W3C//DTD SVG 1.0//EN" "http://www.w3.org/TR/2001/REC-SVG-20010904/DTD/svg10.dtd">
<svg xmlns="http://www.w3.org/2000/svg" width="109" height="109" viewBox="0 0 109 109">
	<g id="HelperGrid" style="opacity:0.75;">
		<rect x="0.5" y="0.5" style="fill:none;stroke:#404040;" width="108" height="108"/> 
		<line style="fill:none;stroke:#404040;" x1="0.5" y1="72.51" x2="108.5" y2="72.51"/>
		<line style="fill:none;stroke:#404040;" x1="0.5" y1="36.49" x2="108.5" y2="36.49"/>
		<line style="fill:none;stroke:#404040;" x1="72.5" y1="0.5" x2="72.5" y2="108.5"/>
		<line style="fill:none;stroke:#404040;" x1="36.5" y1="0.5" x2="36.5" y2="108.5"/>
	</g>
	<g id="Kanji">
		<text transform="matrix(1 0 0 1 0.5 93.3799)" style="font-size:108;">茄</text>
	</g>
	<g id="StrokeNumbers" style="font-size:8;fill:#808080">
		<text transform="matrix(1 0 0 1 12.25 28.25)">1</text>
		<text transform="matrix(1 0 0 1 28.25 15.25)">2</text>
		<text transform="matrix(1 0 0 1 61 11.229)">3</text>
		<text transform="matrix(1 0 0 1 11.25 54.25)">4</text>
		<text transform="matrix(1 0 0 1 28.25 40.25)">5</text>
		<text transform="matrix(1 0 0 1 56 70.25)">6</text>
		<text transform="matrix(1 0 0 1 66.25 47.25)">7</text>
		<text transform="matrix(1 0 0 1 69.25 86.25)">8</text>
	</g>
	<g id="StrokePaths" style="fill:none;stroke:#404040;stroke-width:3;stroke-linecap:round;stroke-linejoin:round;">
		<path d="M19,27.77c2.9,1.12,6.87,0.61,9.89,0.31c14.61-1.45,37.61-3.7,53.37-4.16c3.33-0.1,6.99-0.14,10.25,0.61"/>
		<path d="M37.25,15.5c1.25,1,1.75,2.12,2,3.75c1.28,8.34,2,13.5,2.5,16.5"/>
		<path d="M69.74,12.75c0.43,1.22,0.55,2.59,0.26,4.13c-1.42,7.49-2.58,13.69-3.87,19.37"/>
		<path d="M17.67,54.53c1.8,1.14,5.17,0.57,7.1,0.21c7.2-1.32,19.25-3.25,24.12-4.04c3.25-0.53,4.54,0.43,4.37,3.89c-0.32,6.68-4.78,29.03-9.25,37.19c-3.66,6.68-5.63,0.72-6.4-0.79"/>
		<path d="M37.5,40.18c0.23,0.3,0.27,1.63,0.16,3.15c-1.07,14.13-8.28,40.04-23.31,51.16"/>
		<path d="M60.38,49.38c0.94,0.94,1.29,3.03,1.52,4.75c1.01,7.42,2.11,21.34,2.91,32.8c0.15,2.17,0.29,4.25,0.42,6.18"/>
		<path d="M62.53,50.91c7.95-1.37,15.08-2.68,20.06-3.24c4.21-0.47,5.85-0.16,5.35,4.44c-1.29,11.66-2.37,20.93-4.22,34.76"/>
		<path d="M66.02,90.08c5.15-0.51,9.91-1.08,15.97-1.7c1.37-0.14,2.81-0.28,4.34-0.43"/>
	</g>
</svg>
