<?xml version="1.0" encoding="UTF-8"?>
<!DOCTYPE svg PUBLIC "-//W3C//DTD SVG 1.0//EN" "http://www.w3.org/TR/2001/REC-SVG-20010904/DTD/svg10.dtd">
<svg xmlns="http://www.w3.org/2000/svg" width="109" height="109" viewBox="0 0 109 109">
	<g id="HelperGrid" style="opacity:0.75;">
		<rect x="0.5" y="0.5" style="fill:none;stroke:#404040;" width="108" height="108"/> 
		<line style="fill:none;stroke:#404040;" x1="0.5" y1="72.51" x2="108.5" y2="72.51"/>
		<line style="fill:none;stroke:#404040;" x1="0.5" y1="36.49" x2="108.5" y2="36.49"/>
		<line style="fill:none;stroke:#404040;" x1="72.5" y1="0.5" x2="72.5" y2="108.5"/>
		<line style="fill:none;stroke:#404040;" x1="36.5" y1="0.5" x2="36.5" y2="108.5"/>
	</g>
	<g id="Kanji">
		<text transform="matrix(1 0 0 1 0.5 93.3799)" style="font-size:108;">莵</text>
	</g>
	<g id="StrokeNumbers" style="font-size:8;fill:#808080">
		<text transform="matrix(1 0 0 1 9.5 24.5)">1</text>
		<text transform="matrix(1 0 0 1 28.6602 13.5)">2</text>
		<text transform="matrix(1 0 0 1 57.5 12.8477)">3</text>
		<text transform="matrix(1 0 0 1 57 29.5)">4</text>
		<text transform="matrix(1 0 0 1 18.5 50.8296)">5</text>
		<text transform="matrix(1 0 0 1 29.5 39.5)">6</text>
		<text transform="matrix(1 0 0 1 33.5 56.5)">7</text>
		<text transform="matrix(1 0 0 1 44.5 50.5)">8</text>
		<text transform="matrix(1 0 0 1 51.5 71.5303)">9</text>
		<text transform="matrix(1 0 0 1 69.4434 67.4551)">10</text>
	</g>
	<g id="StrokePaths" style="fill:none;stroke:#404040;stroke-width:3;stroke-linecap:round;stroke-linejoin:round;">
		<path d="M16.83,23.33c2.42,0.92,4.18,1.31,8,1c11.9-0.96,43.95-4.15,57.67-4.5c3.25-0.08,7.92,0.24,9,0.5"/>
		<path d="M37.25,12.67c1.81,1.33,2.39,1.74,2.58,2.56c1.81,7.67,1.32,14.15,1.84,16.94"/>
		<path d="M65.67,10.33c0.58,1.17,1.27,2.96,1.07,4.43c-0.74,5.28-1.48,9.99-3.15,16.07"/>
		<path d="M52.44,27.5c0.02,0.26-0.19,1.32-0.32,1.66c-1.78,4.43-3.8,6.15-8.9,9.3"/>
		<path d="M24.67,40.83c0.42,0.44,1.04,1.91,1.22,2.46c1.46,4.35,2.77,12.06,3.78,19.88"/>
		<path d="M27.12,43.15c12.99-1.82,45.39-4.68,52.09-5.29c2.45-0.22,3.92,2.26,3.57,3.59c-1.45,5.47-2,9.35-5.11,17.23"/>
		<path d="M29.9,60.38c13.99-1.63,34.5-2.63,48-2.88"/>
		<path d="M53.17,43c0.83,1.5,1.27,1.96,0.83,3.83C48.86,69.14,41,85.75,17.58,98"/>
		<path d="M58,59.83c0.71,1.19,1.08,2.81,1.12,4.65c0.19,8.22-0.5,14.71-0.5,20.3c0,9.72,2.38,12.58,18.75,12.58c15.38,0,17.47-2.11,17.47-14.03"/>
		<path d="M70.17,70.42c3.49,2.34,9.02,9.61,9.9,13.25"/>
	</g>
</svg>
