<?xml version="1.0" encoding="UTF-8"?>
<!-- Copyright (C) 2009 Ulrich Apel.
This work is distributed under the conditions of the Creative Commons
Attribution-Share Alike 3.0 Licence. This means you are free:
* to Share - to copy, distribute and transmit the work
* to Remix - to adapt the work

Under the following conditions:
* Attribution. You must attribute the work by stating your use of KanjiVG in
  your own copyright header and linking to KanjiVG's website
  (http://kanjivg.tagaini.net)
* Share Alike. If you alter, transform, or build upon this work, you may
  distribute the resulting work only under the same or similar license to this
  one.

See http://creativecommons.org/licenses/by-sa/3.0/ for more details. -->
<!DOCTYPE svg PUBLIC "-//W3C//DTD SVG 1.0//EN" "http://www.w3.org/TR/2001/REC-SVG-20010904/DTD/svg10.dtd">
<svg xmlns="http://www.w3.org/2000/svg" width="109" height="109" viewBox="0 0 109 109">
	<g id="HelperGrid" style="opacity:0.75;">
		<rect x="0.5" y="0.5" style="fill:none;stroke:#404040;" width="108" height="108"/> 
		<line style="fill:none;stroke:#404040;" x1="0.5" y1="72.51" x2="108.5" y2="72.51"/>
		<line style="fill:none;stroke:#404040;" x1="0.5" y1="36.49" x2="108.5" y2="36.49"/>
		<line style="fill:none;stroke:#404040;" x1="72.5" y1="0.5" x2="72.5" y2="108.5"/>
		<line style="fill:none;stroke:#404040;" x1="36.5" y1="0.5" x2="36.5" y2="108.5"/>
	</g>
	<g id="Kanji">
		<text transform="matrix(1 0 0 1 0.5 93.3799)" style="font-size:108;">菅</text>
	</g>
	<g id="StrokeNumbers" style="font-size:8;fill:#808080">
		<text transform="matrix(1 0 0 1 13.8477 22.5)">1</text>
		<text transform="matrix(1 0 0 1 27.5 11.8477)">2</text>
		<text transform="matrix(1 0 0 1 62.5 10.5)">3</text>
		<text transform="matrix(1 0 0 1 44.5 33.5)">4</text>
		<text transform="matrix(1 0 0 1 15.5 41.5)">5</text>
		<text transform="matrix(1 0 0 1 25.5 40.5)">6</text>
		<text transform="matrix(1 0 0 1 29.25 60.5)">7</text>
		<text transform="matrix(1 0 0 1 40.5 51.5)">8</text>
		<text transform="matrix(1 0 0 1 41.5 64.5)">9</text>
		<text transform="matrix(1 0 0 1 40.5 77.5)">10</text>
		<text transform="matrix(1 0 0 1 40.5 93.5)">11</text>
	</g>
	<g id="StrokePaths" style="fill:none;stroke:#404040;stroke-width:3;stroke-linecap:round;stroke-linejoin:round;">
		<path d="M19.5,21.89c1.38,0.56,2.99,0.67,4.38,0.56c12.72-1.03,49.62-3.77,64.28-3.85c2.31-0.01,3.69,0.27,4.84,0.55"/>
		<path d="M35.75,10.5c1.75,1.4,2.31,1.82,2.5,2.69C40,21.24,40.5,28.57,41,31.5"/>
		<path d="M71.25,9.75c1.12,1,1.37,3.02,1,4.5c-1.12,4.5-2.5,8-5.5,15.75"/>
		<path d="M49.59,29.82c2.98,1.03,6.23,3.9,7.16,6.65"/>
		<path d="M21.78,40.66c0,3.93-2.5,16.15-3.64,18.77"/>
		<path d="M22.74,43.61c1.18,0.05,55.42-5.18,61.41-5.4c12.6-0.46,3.35,5.79-0.35,8.87"/>
		<path d="M35.37,52.23c0.88,0.77,1.74,2.29,1.96,3.08c0.22,0.79,0,40.72-0.22,45.69"/>
		<path d="M37.25,54.23c9-1.19,27.26-4.13,32.19-4.69c2.56-0.29,3.81,1.46,3.63,3.25c-0.38,3.75-1.82,5.9-3.41,10.9"/>
		<path d="M38.25,67.33c5.8-0.46,24.75-2.49,32.71-3.19"/>
		<path d="M37.5,81.03c9.75-1.19,28.99-3.73,33.94-4.08c2.81-0.2,3.81,1.3,3.63,3.42c-0.35,4.08-1.82,7.22-3.41,12.69"/>
		<path d="M37.75,96.42c5.8-0.5,27.25-2.1,35.21-2.87"/>
	</g>
</svg>
