<?xml version="1.0" encoding="UTF-8"?>
<!-- Copyright (C) 2009 Ulrich Apel.
This work is distributed under the conditions of the Creative Commons
Attribution-Share Alike 3.0 Licence. This means you are free:
* to Share - to copy, distribute and transmit the work
* to Remix - to adapt the work

Under the following conditions:
* Attribution. You must attribute the work by stating your use of KanjiVG in
  your own copyright header and linking to KanjiVG's website
  (http://kanjivg.tagaini.net)
* Share Alike. If you alter, transform, or build upon this work, you may
  distribute the resulting work only under the same or similar license to this
  one.

See http://creativecommons.org/licenses/by-sa/3.0/ for more details. -->
<!DOCTYPE svg PUBLIC "-//W3C//DTD SVG 1.0//EN" "http://www.w3.org/TR/2001/REC-SVG-20010904/DTD/svg10.dtd">
<svg xmlns="http://www.w3.org/2000/svg" width="109" height="109" viewBox="0 0 109 109">
	<g id="HelperGrid" style="opacity:0.75;">
		<rect x="0.5" y="0.5" style="fill:none;stroke:#404040;" width="108" height="108"/> 
		<line style="fill:none;stroke:#404040;" x1="0.5" y1="72.51" x2="108.5" y2="72.51"/>
		<line style="fill:none;stroke:#404040;" x1="0.5" y1="36.49" x2="108.5" y2="36.49"/>
		<line style="fill:none;stroke:#404040;" x1="72.5" y1="0.5" x2="72.5" y2="108.5"/>
		<line style="fill:none;stroke:#404040;" x1="36.5" y1="0.5" x2="36.5" y2="108.5"/>
	</g>
	<g id="Kanji">
		<text transform="matrix(1 0 0 1 0.5 93.3799)" style="font-size:108;">菴</text>
	</g>
	<g id="StrokeNumbers" style="font-size:8;fill:#808080">
		<text transform="matrix(1 0 0 1 12.5 19.5)">1</text>
		<text transform="matrix(1 0 0 1 27.5 10.5)">2</text>
		<text transform="matrix(1 0 0 1 59.708 9.5)">3</text>
		<text transform="matrix(1 0 0 1 9 38.5)">4</text>
		<text transform="matrix(1 0 0 1 43.5 27.5)">5</text>
		<text transform="matrix(1 0 0 1 73.5 45.5)">6</text>
		<text transform="matrix(1 0 0 1 24.5 69.5)">7</text>
		<text transform="matrix(1 0 0 1 37.5 56.5)">8</text>
		<text transform="matrix(1 0 0 1 36.5 66.5293)">9</text>
		<text transform="matrix(1 0 0 1 36.5 77.5)">10</text>
		<text transform="matrix(1 0 0 1 43.5 49.5)">11</text>
	</g>
	<g id="StrokePaths" style="fill:none;stroke:#404040;stroke-width:3;stroke-linecap:round;stroke-linejoin:round;">
		<path d="M18.5,20.67c1.29,0.53,5,0.58,8,0.5c11.94-0.33,42.8-3.3,56.5-4c3.25-0.17,6.59,0.57,7.67,0.83"/>
		<path d="M36.17,10.33c1.83,0.5,2.74,2.19,2.79,3.08c0.29,5.08,1.37,14.08,1.71,17.08"/>
		<path d="M68.5,9c1.18,0.93,1.61,2.41,1.5,3.83c-0.34,4.2-1.67,10.33-3,16.33"/>
		<path d="M16.83,39c1.22,0.64,4.42,1.25,9.83,1c17.56-0.81,39.5-2.86,55.19-3.78c2.7-0.16,7.38-0.39,9.81,0.11"/>
		<path d="M49.93,24.25c0.41,1.1-0.06,2.73-0.56,3.99C43.75,42.25,26,60.75,12.25,68.46"/>
		<path d="M63.97,38.47C70,46.5,75,52.75,88.09,60.12c1.92,1.08,2.55,1.34,3.41,1.46"/>
		<path d="M29.67,57.5c0.37,0.52,1.19,2.85,1.29,3.59c0.29,2.16,2.58,21.84,2.71,22.57"/>
		<path d="M31.67,59.67c3.46-0.36,35.85-3.14,39-3.5c2.62-0.3,3.41,2.55,3.17,4.33c-0.5,3.64-1.78,11.46-3.33,20.17"/>
		<path d="M34.26,68.88c4.65-0.28,32.98-2.9,38.24-3.21"/>
		<path d="M34.17,80.83c7.66-0.74,30.15-2.74,36.17-3.17"/>
		<path d="M51.5,43.83c1.5,0.67,1.63,2.39,1.67,4.17c0.18,7.94-0.43,36.96-0.43,42.36c0,9.22,4.52,9.5,19.21,9.5c13.51,0,15.41-1.97,15.41-10.79"/>
	</g>
</svg>
