<?xml version="1.0" encoding="UTF-8"?>
<!-- Copyright (C) 2009 Ulrich Apel.
This work is distributed under the conditions of the Creative Commons
Attribution-Share Alike 3.0 Licence. This means you are free:
* to Share - to copy, distribute and transmit the work
* to Remix - to adapt the work

Under the following conditions:
* Attribution. You must attribute the work by stating your use of KanjiVG in
  your own copyright header and linking to KanjiVG's website
  (http://kanjivg.tagaini.net)
* Share Alike. If you alter, transform, or build upon this work, you may
  distribute the resulting work only under the same or similar license to this
  one.

See http://creativecommons.org/licenses/by-sa/3.0/ for more details. -->
<!DOCTYPE svg PUBLIC "-//W3C//DTD SVG 1.0//EN" "http://www.w3.org/TR/2001/REC-SVG-20010904/DTD/svg10.dtd">
<svg xmlns="http://www.w3.org/2000/svg" width="109" height="109" viewBox="0 0 109 109">
	<g id="HelperGrid" style="opacity:0.75;">
		<rect x="0.5" y="0.5" style="fill:none;stroke:#404040;" width="108" height="108"/> 
		<line style="fill:none;stroke:#404040;" x1="0.5" y1="72.51" x2="108.5" y2="72.51"/>
		<line style="fill:none;stroke:#404040;" x1="0.5" y1="36.49" x2="108.5" y2="36.49"/>
		<line style="fill:none;stroke:#404040;" x1="72.5" y1="0.5" x2="72.5" y2="108.5"/>
		<line style="fill:none;stroke:#404040;" x1="36.5" y1="0.5" x2="36.5" y2="108.5"/>
	</g>
	<g id="Kanji">
		<text transform="matrix(1 0 0 1 0.5 93.3799)" style="font-size:108;">萩</text>
	</g>
	<g id="StrokeNumbers" style="font-size:8;fill:#808080">
		<text transform="matrix(1 0 0 1 8.25 23.25)">1</text>
		<text transform="matrix(1 0 0 1 28.4102 13.25)">2</text>
		<text transform="matrix(1 0 0 1 59.458 12.5981)">3</text>
		<text transform="matrix(1 0 0 1 30.25 36.6543)">4</text>
		<text transform="matrix(1 0 0 1 5.25 62.25)">5</text>
		<text transform="matrix(1 0 0 1 27.25 54.25)">6</text>
		<text transform="matrix(1 0 0 1 21 70.4297)">7</text>
		<text transform="matrix(1 0 0 1 40 65.25)">8</text>
		<text transform="matrix(1 0 0 1 47.25 47.2793)">9</text>
		<text transform="matrix(1 0 0 1 81.25 44.25)">10</text>
		<text transform="matrix(1 0 0 1 59 39.25)">11</text>
		<text transform="matrix(1 0 0 1 80.25 72.0547)">12</text>
	</g>
	<g id="StrokePaths" style="fill:none;stroke:#404040;stroke-width:3;stroke-linecap:round;stroke-linejoin:round;">
		<path d="M15.25,23.21c1.46,0.43,3.15,0.52,4.61,0.43c13.39-0.79,52.77-4.87,68.21-4.93c2.43-0.01,3.89,0.2,5.1,0.42"/>
		<path d="M36.94,12.45c1.74,1.23,2.3,1.6,2.49,2.36c1.74,7.08,1.99,12.94,2.23,15.94"/>
		<path d="M67.69,10.17c0.46,1.12,0.86,1.89,0.55,3.33c-1.11,5.08-3.33,12.85-4.96,17.53"/>
		<path d="M38.77,35.72c0.06,0.35,0.12,0.9-0.12,1.4c-1.41,2.95-9.51,9.41-20.59,13.37"/>
		<path d="M12.62,61.06c0.36,0.17,1.32,0.43,2.28,0.49c2.64,0.16,25.8-4.96,32.39-5.78c0.96-0.12,1.2-0.16,1.8,0"/>
		<path d="M32.69,46.64c0.35,0.33,1.53,2.48,1.6,3.13c0.07,0.66-0.07,43.92-0.07,43.01c0,10.47-4.35,2.59-5.48,1.47"/>
		<path d="M33.78,59.05c-4.44,9.05-11.84,20.22-21.89,27.62"/>
		<path d="M37.46,65.71c3.78,2.2,6.97,6.61,9.01,9.44"/>
		<path d="M54.68,49.5c1.89,2.66,4.64,10.19,5.16,12.85"/>
		<path d="M91.08,45.06c0.79,0.77,0.67,2.28-0.05,3.47c-0.72,1.19-7.59,10-11.17,12.78"/>
		<path d="M70.43,35.61c0.99,0.61,1.5,2.25,1.51,3.26c0.41,26.06-4.3,48.73-24.99,58.92"/>
		<path d="M70.72,61.27c7.11,13.85,17.05,25.63,23.11,31.02c1.76,1.57,2.05,1.49,3.42,1.91"/>
	</g>
</svg>
