<?xml version="1.0" encoding="UTF-8"?>
<!-- Copyright (C) 2009 Ulrich Apel.
This work is distributed under the conditions of the Creative Commons
Attribution-Share Alike 3.0 Licence. This means you are free:
* to Share - to copy, distribute and transmit the work
* to Remix - to adapt the work

Under the following conditions:
* Attribution. You must attribute the work by stating your use of KanjiVG in
  your own copyright header and linking to KanjiVG's website
  (http://kanjivg.tagaini.net)
* Share Alike. If you alter, transform, or build upon this work, you may
  distribute the resulting work only under the same or similar license to this
  one.

See http://creativecommons.org/licenses/by-sa/3.0/ for more details. -->
<!DOCTYPE svg PUBLIC "-//W3C//DTD SVG 1.0//EN" "http://www.w3.org/TR/2001/REC-SVG-20010904/DTD/svg10.dtd">
<svg xmlns="http://www.w3.org/2000/svg" width="109" height="109" viewBox="0 0 109 109">
	<g id="HelperGrid" style="opacity:0.75;">
		<rect x="0.5" y="0.5" style="fill:none;stroke:#404040;" width="108" height="108"/> 
		<line style="fill:none;stroke:#404040;" x1="0.5" y1="72.51" x2="108.5" y2="72.51"/>
		<line style="fill:none;stroke:#404040;" x1="0.5" y1="36.49" x2="108.5" y2="36.49"/>
		<line style="fill:none;stroke:#404040;" x1="72.5" y1="0.5" x2="72.5" y2="108.5"/>
		<line style="fill:none;stroke:#404040;" x1="36.5" y1="0.5" x2="36.5" y2="108.5"/>
	</g>
	<g id="Kanji">
		<text transform="matrix(1 0 0 1 0.5 93.3799)" style="font-size:108;">萸</text>
	</g>
	<g id="StrokeNumbers" style="font-size:8;fill:#808080">
		<text transform="matrix(1 0 0 1 10.5 21.5)">1</text>
		<text transform="matrix(1 0 0 1 28.5 11.5)">2</text>
		<text transform="matrix(1 0 0 1 59.5 9.5)">3</text>
		<text transform="matrix(1 0 0 1 35.5 35.5)">4</text>
		<text transform="matrix(1 0 0 1 16.5 50.5)">5</text>
		<text transform="matrix(1 0 0 1 30.5 51.5)">6</text>
		<text transform="matrix(1 0 0 1 32.5 67.5)">7</text>
		<text transform="matrix(1 0 0 1 68.5 35.5)">8</text>
		<text transform="matrix(1 0 0 1 62.5 49.5)">9</text>
		<text transform="matrix(1 0 0 1 59.5 63.4541)">10</text>
		<text transform="matrix(1 0 0 1 44 27.6299)">11</text>
		<text transform="matrix(1 0 0 1 65.75 77.3047)">12</text>
	</g>
	<g id="StrokePaths" style="fill:none;stroke:#404040;stroke-width:3;stroke-linecap:round;stroke-linejoin:round;">
		<path d="M17,21.77c1.68,0.53,3.64,0.63,5.33,0.53c15.47-0.96,47.96-3.96,65.78-4.03c2.8-0.01,4.49,0.25,5.89,0.51"/>
		<path d="M36.75,11c1.75,1.43,2.31,1.87,2.5,2.75C41,22,41,26.5,41.5,29.5"/>
		<path d="M67.75,9.25c1.12,1,1.87,2.52,1.5,4c-1.12,4.5-1.88,10.5-3.5,16.25"/>
		<path d="M45.6,34.43c0.05,0.24-0.28,1.16-0.59,1.41c-4.21,3.37-8.14,5.9-17.75,8.58"/>
		<path d="M24.11,43.3c0.79,0.77,1.11,2.48,1.31,4.05c0.71,5.75,2.99,17.83,3.71,25.6"/>
		<path d="M26.92,55.4c4.11-0.32,15-1.64,15.98-1.64c0.98,0,2.35,0,3.13,0"/>
		<path d="M29,70.73c4.11-0.32,13-1.64,13.98-1.64c0.98,0,2.35,0,3.13,0"/>
		<path d="M63.22,38.5c1.04,0.16,1.86,0.49,3.31,0.49s14.71-2.48,16.37-2.64c1.65-0.16,3.03,1.82,2.89,2.81c-1.24,9.55-3.68,30.57-3.89,31.22"/>
		<path d="M62.37,52.75c1.04,0.17,1.87,0.5,3.33,0.5c1.46,0,16.43-0.85,18.09-1.02"/>
		<path d="M61.77,67.25c1.04,0.16,1.88,0.47,3.34,0.47s15.41-0.8,17.08-0.96"/>
		<path d="M53.5,29c0.75,1,1.24,2.37,1.28,4.85c0.61,33.29-1.95,52.99-33.79,65.9"/>
		<path d="M53,67.38C62.5,77,73,88.5,84.34,96.99c1.92,1.43,4.11,2.07,5.91,2.49"/>
	</g>
</svg>
