<?xml version="1.0" encoding="UTF-8"?>
<!DOCTYPE svg PUBLIC "-//W3C//DTD SVG 1.0//EN" "http://www.w3.org/TR/2001/REC-SVG-20010904/DTD/svg10.dtd">
<svg xmlns="http://www.w3.org/2000/svg" width="109" height="109" viewBox="0 0 109 109">
	<g id="HelperGrid" style="opacity:0.75;">
		<rect x="0.5" y="0.5" style="fill:none;stroke:#404040;" width="108" height="108"/> 
		<line style="fill:none;stroke:#404040;" x1="0.5" y1="72.51" x2="108.5" y2="72.51"/>
		<line style="fill:none;stroke:#404040;" x1="0.5" y1="36.49" x2="108.5" y2="36.49"/>
		<line style="fill:none;stroke:#404040;" x1="72.5" y1="0.5" x2="72.5" y2="108.5"/>
		<line style="fill:none;stroke:#404040;" x1="36.5" y1="0.5" x2="36.5" y2="108.5"/>
	</g>
	<g id="Kanji">
		<text transform="matrix(1 0 0 1 0.5 93.3799)" style="font-size:108;">著</text>
	</g>
	<g id="StrokeNumbers" style="font-size:8;fill:#808080">
		<text transform="matrix(1 0 0 1 15.5 25.6299)">1</text>
		<text transform="matrix(1 0 0 1 28.5 14.5)">2</text>
		<text transform="matrix(1 0 0 1 60.5 9.5)">3</text>
		<text transform="matrix(1 0 0 1 27.5 40.6299)">4</text>
		<text transform="matrix(1 0 0 1 44.5 36.5)">5</text>
		<text transform="matrix(1 0 0 1 8.5 57.5)">6</text>
		<text transform="matrix(1 0 0 1 70.5 29.5)">7</text>
		<text transform="matrix(1 0 0 1 35.25 82.6299)">8</text>
		<text transform="matrix(1 0 0 1 63.75 61.6299)">9</text>
		<text transform="matrix(1 0 0 1 47.2397 77.5)">10</text>
		<text transform="matrix(1 0 0 1 47.5 93.5)">11</text>
	</g>
	<g id="StrokePaths" style="fill:none;stroke:#404040;stroke-width:3;stroke-linecap:round;stroke-linejoin:round;">
		<path d="M22.36,24.32c1.17,0.48,2.53,0.57,3.7,0.48c10.75-0.87,42.35-5.88,54.73-5.95c1.95-0.01,3.12,0.23,4.09,0.46"/>
		<path d="M36.29,12.93c1.46,1.2,1.93,1.56,2.09,2.3c1.46,6.9,2.72,14.01,3.14,16.52"/>
		<path d="M68.71,8.5c0.34,1,0.77,1.75,0.4,2.98c-2.2,7.24-3.19,10.86-5.59,17.67"/>
		<path d="M34.21,40.23c0.76,0.29,2.15,0.33,2.91,0.29C42,40.25,54.5,38,63.22,37.12c1.26-0.13,2.03,0.14,2.66,0.29"/>
		<path d="M50.25,28.37c0.12,0.26,1.62,1.36,1.74,3.02c0.56,7.98,0.3,18,0.3,20.72"/>
		<path d="M15.25,55.93c1.72,0.42,4.36,0.78,5.91,0.62c8.58-0.87,58.63-8.28,68.58-8.47c2.57-0.05,4.11,0.29,5.39,0.6"/>
		<path d="M77.85,27.48c0.17,1.23,0.74,3.33-0.34,4.94c-14,20.83-32.25,38.08-63.05,49.84"/>
		<path d="M42.25,64.91c0.44,0.8,0.89,2.2,0.89,3.26c0,1.06-0.3,30.7-0.3,31.23"/>
		<path d="M43.88,66.05c2.51-0.13,28.41-3.22,30.7-3.38c1.91-0.13,3.13,1.47,2.99,2.26c-0.3,1.59-0.09,31.73-0.09,32.52"/>
		<path d="M44.33,80.43c5.2,0,10.46-0.58,15.64-0.93c1.75-0.12,3.5-0.23,5.18-0.34"/>
		<path d="M44.17,96.52c6.92-0.57,23.14-1.1,31.77-1.58"/>
	</g>
</svg>
