<?xml version="1.0" encoding="UTF-8"?>
<!-- Copyright (C) 2009 Ulrich Apel.
This work is distributed under the conditions of the Creative Commons
Attribution-Share Alike 3.0 Licence. This means you are free:
* to Share - to copy, distribute and transmit the work
* to Remix - to adapt the work

Under the following conditions:
* Attribution. You must attribute the work by stating your use of KanjiVG in
  your own copyright header and linking to KanjiVG's website
  (http://kanjivg.tagaini.net)
* Share Alike. If you alter, transform, or build upon this work, you may
  distribute the resulting work only under the same or similar license to this
  one.

See http://creativecommons.org/licenses/by-sa/3.0/ for more details. -->
<!DOCTYPE svg PUBLIC "-//W3C//DTD SVG 1.0//EN" "http://www.w3.org/TR/2001/REC-SVG-20010904/DTD/svg10.dtd">
<svg xmlns="http://www.w3.org/2000/svg" width="109" height="109" viewBox="0 0 109 109">
	<g id="HelperGrid" style="opacity:0.75;">
		<rect x="0.5" y="0.5" style="fill:none;stroke:#404040;" width="108" height="108"/> 
		<line style="fill:none;stroke:#404040;" x1="0.5" y1="72.51" x2="108.5" y2="72.51"/>
		<line style="fill:none;stroke:#404040;" x1="0.5" y1="36.49" x2="108.5" y2="36.49"/>
		<line style="fill:none;stroke:#404040;" x1="72.5" y1="0.5" x2="72.5" y2="108.5"/>
		<line style="fill:none;stroke:#404040;" x1="36.5" y1="0.5" x2="36.5" y2="108.5"/>
	</g>
	<g id="Kanji">
		<text transform="matrix(1 0 0 1 0.5 93.3799)" style="font-size:108;">葮</text>
	</g>
	<g id="StrokeNumbers" style="font-size:8;fill:#808080">
		<text transform="matrix(1 0 0 1 10.5 22.5)">1</text>
		<text transform="matrix(1 0 0 1 26.5 11.8477)">2</text>
		<text transform="matrix(1 0 0 1 58.5 10.5)">3</text>
		<text transform="matrix(1 0 0 1 35.5 36.5)">4</text>
		<text transform="matrix(1 0 0 1 16.5 51.5)">5</text>
		<text transform="matrix(1 0 0 1 29.5 51.5)">6</text>
		<text transform="matrix(1 0 0 1 29.5 63.5)">7</text>
		<text transform="matrix(1 0 0 1 7.5 84.5)">8</text>
		<text transform="matrix(1 0 0 1 51.5 40.5)">9</text>
		<text transform="matrix(1 0 0 1 67.667 29.333)">10</text>
		<text transform="matrix(1 0 0 1 57.5 58.5)">11</text>
		<text transform="matrix(1 0 0 1 52.5 78.5)">12</text>
	</g>
	<g id="StrokePaths" style="fill:none;stroke:#404040;stroke-width:3;stroke-linecap:round;stroke-linejoin:round;">
		<path d="M17.33,22c1.29,0.53,4.42,1.25,7.33,1.17c11.94-0.34,45.95-2.97,59.67-3.33c3.17-0.08,6.92,0.4,8,0.67"/>
		<path d="M35.17,11.17C37,11.75,37.85,12.75,38,13.5c1.5,7.33,2.33,13,2.5,15.83"/>
		<path d="M66.17,9.83c1.67,0.67,2.2,2.36,1.83,3.83c-1.12,4.5-2.04,10.42-3.67,16.17"/>
		<path d="M44.85,34.17c0.05,0.27,0.19,0.78-0.1,1.08c-3.63,3.79-9,7.28-18.46,10.34"/>
		<path d="M23.11,44.2c1.02,0.43,1.64,1.93,1.84,2.79c0.2,0.86,0.25,47.49,0.05,52.85"/>
		<path d="M26.15,53.83c6.14-0.66,15.46-2.53,16.59-2.63c1.27-0.11,3.29-0.09,4.43,0.13"/>
		<path d="M25.85,66.34c5.91-0.64,16.2-2.46,17.29-2.56c1.23-0.11,3.27,0,4.36,0.22"/>
		<path d="M15,82.5c1.17,0.94,2.84,1.3,5,0.67c1.27-0.38,23.98-7.79,29.39-9.59"/>
		<path d="M58.98,33c0.5,0.44,0.53,1.53,0.52,2.26c-0.13,7.54-1.9,16.46-6.02,19.63"/>
		<path d="M59.83,35.17c2.99-0.21,11.92-2,14.54-2.25c2.1-0.2,2.53,0.76,2.31,2.26c-0.38,2.6-1.54,6.99-1.54,9.59c0,3.6,0.11,6.07,9.53,6.07c7.58,0,9-1.08,9-8.5"/>
		<path d="M55.33,61c2.17,0.83,3.29,0.98,6.5,0.5c3.21-0.48,15.46-3.02,17.67-3.5c2.21-0.48,3.4,1.2,2.58,2.92C74,78.11,60.03,90.04,42.1,97.33"/>
		<path d="M54.83,66.12c3.51,0.75,20.64,20.72,32.84,28.91c1.9,1.27,3.29,2.12,5.06,2.55"/>
	</g>
</svg>
