<?xml version="1.0" encoding="UTF-8"?>
<!-- Copyright (C) 2009 Ulrich Apel.
This work is distributed under the conditions of the Creative Commons
Attribution-Share Alike 3.0 Licence. This means you are free:
* to Share - to copy, distribute and transmit the work
* to Remix - to adapt the work

Under the following conditions:
* Attribution. You must attribute the work by stating your use of KanjiVG in
  your own copyright header and linking to KanjiVG's website
  (http://kanjivg.tagaini.net)
* Share Alike. If you alter, transform, or build upon this work, you may
  distribute the resulting work only under the same or similar license to this
  one.

See http://creativecommons.org/licenses/by-sa/3.0/ for more details. -->
<!DOCTYPE svg PUBLIC "-//W3C//DTD SVG 1.0//EN" "http://www.w3.org/TR/2001/REC-SVG-20010904/DTD/svg10.dtd">
<svg xmlns="http://www.w3.org/2000/svg" width="109" height="109" viewBox="0 0 109 109">
	<g id="HelperGrid" style="opacity:0.75;">
		<rect x="0.5" y="0.5" style="fill:none;stroke:#404040;" width="108" height="108"/> 
		<line style="fill:none;stroke:#404040;" x1="0.5" y1="72.51" x2="108.5" y2="72.51"/>
		<line style="fill:none;stroke:#404040;" x1="0.5" y1="36.49" x2="108.5" y2="36.49"/>
		<line style="fill:none;stroke:#404040;" x1="72.5" y1="0.5" x2="72.5" y2="108.5"/>
		<line style="fill:none;stroke:#404040;" x1="36.5" y1="0.5" x2="36.5" y2="108.5"/>
	</g>
	<g id="Kanji">
		<text transform="matrix(1 0 0 1 0.5 93.3799)" style="font-size:108;">蓐</text>
	</g>
	<g id="StrokeNumbers" style="font-size:8;fill:#808080">
		<text transform="matrix(1 0 0 1 12.5 21.5)">1</text>
		<text transform="matrix(1 0 0 1 29.5 9.5)">2</text>
		<text transform="matrix(1 0 0 1 57.5 8.5)">3</text>
		<text transform="matrix(1 0 0 1 31.5 29.5)">4</text>
		<text transform="matrix(1 0 0 1 18.75 39.3291)">5</text>
		<text transform="matrix(1 0 0 1 32.5 40.5)">6</text>
		<text transform="matrix(1 0 0 1 35.5 45.5)">7</text>
		<text transform="matrix(1 0 0 1 34.5 56.1035)">8</text>
		<text transform="matrix(1 0 0 1 72.75 53.5)">9</text>
		<text transform="matrix(1 0 0 1 45.5 56.5)">10</text>
		<text transform="matrix(1 0 0 1 21.5 74.5)">11</text>
		<text transform="matrix(1 0 0 1 57.5 66.5)">12</text>
		<text transform="matrix(1 0 0 1 31.5 86.5)">13</text>
	</g>
	<g id="StrokePaths" style="fill:none;stroke:#404040;stroke-width:3;stroke-linecap:round;stroke-linejoin:round;">
		<path d="M19,20.55c1.67,0.68,3.61,0.81,5.29,0.68c15.36-1.24,41.66-2.82,59.36-2.92c2.78-0.02,4.46,0.32,5.85,0.66"/>
		<path d="M37.75,9.5c1.75,1.43,2.31,1.87,2.5,2.75C42,20.5,41.5,24,42,27"/>
		<path d="M65.69,8.5c0.8,0.71,1.33,1.8,1.07,2.85c-0.8,3.21-1.34,8.55-2.49,12.65"/>
		<path d="M26.37,30.74c1.51,0.4,4.29,0.99,5.8,0.9c12.25-0.75,40.91-2.23,47.44-2.57c2.51-0.13,4.03,0.19,5.29,0.39"/>
		<path d="M29.6,32.26c0.03,1.06-0.06,2.72-0.06,4.24c0,9.77-3.28,25.21-11.78,34.85"/>
		<path d="M37.01,39.06c1.01,0.22,2.86,0.28,3.87,0.22c6.44-0.39,21.62-1.91,28.04-2.27c1.68-0.09,2.7,0.11,3.54,0.22"/>
		<path d="M31.28,47.58c0.91,0.27,2.58,0.35,3.49,0.27c5.8-0.47,37.81-3.25,44.08-3.33c1.52-0.02,4.37,0.13,5.13,0.27"/>
		<path d="M39.23,47.92c1.45,1.25,1.35,1.78,1.35,3.56c0,8.41-0.44,11.25-0.44,12.68s1.54,2.11,3.62,1.16c3.48-1.57,6.48-2.57,13.82-5.27"/>
		<path d="M70.42,47.63c0.02,0.16,0.04,0.42-0.04,0.66c-0.5,1.39-3.39,4.45-7.35,6.32"/>
		<path d="M48.46,48.97c8.29,3.78,24.04,11.78,31.43,13.77c1.86,0.5,3.32,1.04,5.11,1.25"/>
		<path d="M19.19,77.14c1.7,0.63,4.78,0.73,6.5,0.63C39.5,77,67,74.25,86.88,74.36c2.82,0.01,4.52,0.3,5.93,0.62"/>
		<path d="M67.43,63.39c0.07,0.35,1.05,1.82,1.05,4.04c0,14.94,0.25,23.21,0.25,26.84c0,8.81-4.73,2.48-6.64,0.68"/>
		<path d="M41.58,82.68c3.55,1.6,9.17,6.58,10.06,9.07"/>
	</g>
</svg>
