<?xml version="1.0" encoding="UTF-8"?>
<!DOCTYPE svg PUBLIC "-//W3C//DTD SVG 1.0//EN" "http://www.w3.org/TR/2001/REC-SVG-20010904/DTD/svg10.dtd">
<svg xmlns="http://www.w3.org/2000/svg" width="109" height="109" viewBox="0 0 109 109">
	<g id="HelperGrid" style="opacity:0.75;">
		<rect x="0.5" y="0.5" style="fill:none;stroke:#404040;" width="108" height="108"/> 
		<line style="fill:none;stroke:#404040;" x1="0.5" y1="72.51" x2="108.5" y2="72.51"/>
		<line style="fill:none;stroke:#404040;" x1="0.5" y1="36.49" x2="108.5" y2="36.49"/>
		<line style="fill:none;stroke:#404040;" x1="72.5" y1="0.5" x2="72.5" y2="108.5"/>
		<line style="fill:none;stroke:#404040;" x1="36.5" y1="0.5" x2="36.5" y2="108.5"/>
	</g>
	<g id="Kanji">
		<text transform="matrix(1 0 0 1 0.5 93.3799)" style="font-size:108;">蕪</text>
	</g>
	<g id="StrokeNumbers" style="font-size:8;fill:#808080">
		<text transform="matrix(1 0 0 1 13.8477 22.5)">1</text>
		<text transform="matrix(1 0 0 1 28.5 12.5)">2</text>
		<text transform="matrix(1 0 0 1 58.5 10.5)">3</text>
		<text transform="matrix(1 0 0 1 25.5 32.5)">4</text>
		<text transform="matrix(1 0 0 1 37.5 38.5)">5</text>
		<text transform="matrix(1 0 0 1 7.5 61.2549)">6</text>
		<text transform="matrix(1 0 0 1 9.5 77.5)">7</text>
		<text transform="matrix(1 0 0 1 26.5 53.5)">8</text>
		<text transform="matrix(1 0 0 1 40.5 50.5)">9</text>
		<text transform="matrix(1 0 0 1 52 48.0293)">10</text>
		<text transform="matrix(1 0 0 1 65.5 47.5)">11</text>
		<text transform="matrix(1 0 0 1 13.5 87.5)">12</text>
		<text transform="matrix(1 0 0 1 28.5 89.5)">13</text>
		<text transform="matrix(1 0 0 1 49.5 87.5)">14</text>
		<text transform="matrix(1 0 0 1 68.5 84.5)">15</text>
	</g>
	<g id="StrokePaths" style="fill:none;stroke:#404040;stroke-width:3;stroke-linecap:round;stroke-linejoin:round;">
		<path d="M20.5,22.77c1.29,0.53,2.8,0.63,4.1,0.53c11.9-0.96,44.4-3.96,58.12-4.03c2.16-0.01,3.45,0.25,4.53,0.51"/>
		<path d="M37.25,12c1.58,1.27,2.09,1.65,2.26,2.43C41.1,21.72,41.55,28.35,42,31"/>
		<path d="M66.53,9.75c1.27,0.91,2.1,2.29,1.69,3.63c-1.27,4.09-2.11,10.9-3.94,16.12"/>
		<path d="M33.34,31.5c0.04,0.5,0.15,1.43-0.08,1.99c-2.9,6.99-7.2,13.4-14.76,19.04"/>
		<path d="M31.25,41.56c9.1-0.3,38.01-4.67,46.73-5.42c2.03-0.17,3.25,0.22,4.27,0.45"/>
		<path d="M14.75,59.42c1.52,0.44,4.32,0.65,5.82,0.44C26.72,59,71.75,55.8,88.19,55.2c2.53-0.09,4.05,0.21,5.31,0.43"/>
		<path d="M19.25,76.53c1.52,0.44,4.31,0.54,5.82,0.44c8.68-0.6,42.68-3.43,59.11-4.03c2.53-0.09,4.05,0.21,5.31,0.43"/>
		<path d="M32.37,43.62c0.78,0.49,1.24,2.22,1.4,3.2c0.15,0.99,1.19,18.04,1.73,29.13"/>
		<path d="M46.1,41.56c0.65,0.69,1.38,2.29,1.45,3.34c0.45,6.35,0.95,22.35,1.21,30.04"/>
		<path d="M61.37,40.34c0.38,0.91,1.03,2.81,0.96,3.64c-0.58,6.49-1.08,16.36-1.83,29.15"/>
		<path d="M74.87,39.25c0.63,1,0.71,2.33,0.46,3.95C74.5,48.5,74,60.75,72,73.13"/>
		<path d="M23.25,85.98c0,4.72-5.35,11.67-6.75,13.02"/>
		<path d="M38.27,83.42c2.93,2.79,5.7,10.47,6.44,14.82"/>
		<path d="M58.62,81.91c3.15,2.75,8.15,11.33,8.93,15.61"/>
		<path d="M78.52,80.61c4.25,2.97,10.98,12.21,12.04,16.83"/>
	</g>
</svg>
