<?xml version="1.0" encoding="UTF-8"?>
<!DOCTYPE svg PUBLIC "-//W3C//DTD SVG 1.0//EN" "http://www.w3.org/TR/2001/REC-SVG-20010904/DTD/svg10.dtd">
<svg xmlns="http://www.w3.org/2000/svg" width="109" height="109" viewBox="0 0 109 109">
	<g id="HelperGrid" style="opacity:0.75;">
		<rect x="0.5" y="0.5" style="fill:none;stroke:#404040;" width="108" height="108"/> 
		<line style="fill:none;stroke:#404040;" x1="0.5" y1="72.51" x2="108.5" y2="72.51"/>
		<line style="fill:none;stroke:#404040;" x1="0.5" y1="36.49" x2="108.5" y2="36.49"/>
		<line style="fill:none;stroke:#404040;" x1="72.5" y1="0.5" x2="72.5" y2="108.5"/>
		<line style="fill:none;stroke:#404040;" x1="36.5" y1="0.5" x2="36.5" y2="108.5"/>
	</g>
	<g id="Kanji">
		<text transform="matrix(1 0 0 1 0.5 93.3799)" style="font-size:108;">薄</text>
	</g>
	<g id="StrokeNumbers" style="font-size:8;fill:#808080">
		<text transform="matrix(1 0 0 1 15.75 24.1299)">1</text>
		<text transform="matrix(1 0 0 1 26.5 14.5)">2</text>
		<text transform="matrix(1 0 0 1 58.5 12.5)">3</text>
		<text transform="matrix(1 0 0 1 14.25 37.6299)">4</text>
		<text transform="matrix(1 0 0 1 9.75 52.5547)">5</text>
		<text transform="matrix(1 0 0 1 6.75 94.4785)">6</text>
		<text transform="matrix(1 0 0 1 39.75 40.6299)">7</text>
		<text transform="matrix(1 0 0 1 39.75 55.5547)">8</text>
		<text transform="matrix(1 0 0 1 50.25 45.3701)">9</text>
		<text transform="matrix(1 0 0 1 50.25 53.9248)">10</text>
		<text transform="matrix(1 0 0 1 51.5 61.5)">11</text>
		<text transform="matrix(1 0 0 1 51.5 32.5)">12</text>
		<text transform="matrix(1 0 0 1 76 29)">13</text>
		<text transform="matrix(1 0 0 1 35.25 75.1299)">14</text>
		<text transform="matrix(1 0 0 1 63.75 70.5)">15</text>
		<text transform="matrix(1 0 0 1 42.75 90.1299)">16</text>
	</g>
	<g id="StrokePaths" style="fill:none;stroke:#404040;stroke-width:3;stroke-linecap:round;stroke-linejoin:round;">
		<path d="M21.25,23.77c3.12,0.98,6.65,0.44,9.51,0.04c14.99-2.06,35.68-3.82,48.99-4.43c3.13-0.14,5.95-0.11,9,0.64"/>
		<path d="M35.5,13.75c1.25,0.75,1.84,1.61,2,2.5c1,5.5,1.75,11.5,2.25,14.5"/>
		<path d="M67.25,12.25c0.5,1,0.55,1.76,0.25,3.25C67,18,66.5,22,65.75,26"/>
		<path d="M23.36,37.43c3.47,1.27,8.14,4.7,9.82,6.92"/>
		<path d="M16.96,52.27c3.96,1.15,10.22,4.99,11.21,6.78"/>
		<path d="M16.41,90.47c1.61,0.96,3.02,0.17,3.8-1.19c2.54-4.41,4.16-7.91,7.32-12.9"/>
		<path d="M46.6,37.05c1.92,0.56,4.06,0.63,6.03,0.42c7.49-0.78,19.24-2.2,25.37-2.89c1.83-0.21,3.4-0.2,5.2,0.11"/>
		<path d="M45.2,46.21c0.79,0.79,1.23,1.71,1.42,2.67c0.62,3.12,1.44,8.46,2.1,13.56c0.2,1.56,0.33,2.93,0.34,3.88"/>
		<path d="M47.31,47.9c8.69-1.15,33.17-3.71,34.68-3.71c2.5,0,3.53,1.65,3.04,3.82c-0.39,1.76-0.96,4.9-2.59,10.62c-0.33,1.17-0.71,2.45-1.14,3.86"/>
		<path d="M49.06,55.87c9.57-1.25,27.39-2.96,33.71-3.29"/>
		<path d="M49.97,64.15c6.4-0.78,24.04-2.71,30.53-2.94"/>
		<path d="M63.71,29.68c0.86,0.86,1.26,1.82,1.26,3.12c0,0.75-0.1,23.81-0.1,28.83"/>
		<path d="M86.09,28.75c2.87,1.61,7.41,6.61,8.13,9.1"/>
		<path d="M35.62,76.37c2.53,1.03,5.69,0.88,8.29,0.52C56.1,75.2,74.89,73.39,87,72.7c2.66-0.15,5.12,0.09,7.67,0.72"/>
		<path d="M74.41,64.34c0.94,0.94,1.1,2.16,1.1,3.53c0,11.21,0.08,22.72,0.08,25.45c0,6.8-4.46,1.8-6.58-0.36"/>
		<path d="M52.71,82.64c2.54,1.21,5.79,4.23,7.19,6.88"/>
	</g>
</svg>
