<?xml version="1.0" encoding="UTF-8"?>
<!-- Copyright (C) 2009 Ulrich Apel.
This work is distributed under the conditions of the Creative Commons
Attribution-Share Alike 3.0 Licence. This means you are free:
* to Share - to copy, distribute and transmit the work
* to Remix - to adapt the work

Under the following conditions:
* Attribution. You must attribute the work by stating your use of KanjiVG in
  your own copyright header and linking to KanjiVG's website
  (http://kanjivg.tagaini.net)
* Share Alike. If you alter, transform, or build upon this work, you may
  distribute the resulting work only under the same or similar license to this
  one.

See http://creativecommons.org/licenses/by-sa/3.0/ for more details. -->
<!DOCTYPE svg PUBLIC "-//W3C//DTD SVG 1.0//EN" "http://www.w3.org/TR/2001/REC-SVG-20010904/DTD/svg10.dtd">
<svg xmlns="http://www.w3.org/2000/svg" width="109" height="109" viewBox="0 0 109 109">
	<g id="HelperGrid" style="opacity:0.75;">
		<rect x="0.5" y="0.5" style="fill:none;stroke:#404040;" width="108" height="108"/> 
		<line style="fill:none;stroke:#404040;" x1="0.5" y1="72.51" x2="108.5" y2="72.51"/>
		<line style="fill:none;stroke:#404040;" x1="0.5" y1="36.49" x2="108.5" y2="36.49"/>
		<line style="fill:none;stroke:#404040;" x1="72.5" y1="0.5" x2="72.5" y2="108.5"/>
		<line style="fill:none;stroke:#404040;" x1="36.5" y1="0.5" x2="36.5" y2="108.5"/>
	</g>
	<g id="Kanji">
		<text transform="matrix(1 0 0 1 0.5 93.3799)" style="font-size:108;">薐</text>
	</g>
	<g id="StrokeNumbers" style="font-size:8;fill:#808080">
		<text transform="matrix(1 0 0 1 31.5 10.5)">1</text>
		<text transform="matrix(1 0 0 1 56.5 8.5)">2</text>
		<text transform="matrix(1 0 0 1 9.5 20.5)">3</text>
		<text transform="matrix(1 0 0 1 31.5 31.5)">4</text>
		<text transform="matrix(1 0 0 1 6.5 53.3291)">5</text>
		<text transform="matrix(1 0 0 1 24.25 48.5)">6</text>
		<text transform="matrix(1 0 0 1 22.5 62.5)">7</text>
		<text transform="matrix(1 0 0 1 39.5 60.5)">8</text>
		<text transform="matrix(1 0 0 1 46.5 37.5)">9</text>
		<text transform="matrix(1 0 0 1 57.5 34.5)">10</text>
		<text transform="matrix(1 0 0 1 44.5 45.5)">11</text>
		<text transform="matrix(1 0 0 1 48.5 57.5)">12</text>
		<text transform="matrix(1 0 0 1 66.5 55.5)">13</text>
		<text transform="matrix(1 0 0 1 51.5 68.5)">14</text>
		<text transform="matrix(1 0 0 1 68.5 62.5)">15</text>
		<text transform="matrix(1 0 0 1 64.5 74.5)">16</text>
	</g>
	<g id="StrokePaths" style="fill:none;stroke:#404040;stroke-width:3;stroke-linecap:round;stroke-linejoin:round;">
		<path d="M16.5,20.61c1.4,0.44,3.02,0.53,4.42,0.44c12.85-0.8,50.63-4.98,65.44-5.04c2.33-0.01,3.73,0.21,4.89,0.43"/>
		<path d="M38.75,9.75c1.33,1.13,1.76,1.47,1.9,2.17c1.33,6.51,2.47,13.21,2.85,15.58"/>
		<path d="M66.81,8.75c0.23,0.81,0.53,1.42,0.27,2.42c-1.5,5.87-2.08,8.08-3.33,14.33"/>
		<path d="M39.47,31c0.06,0.27,0.13,0.71-0.12,1.1c-1.5,2.33-10.1,7.45-21.87,10.58"/>
		<path d="M14.06,52.58c0.34,0.19,1.25,0.5,2.17,0.57c2.51,0.19,20.09-1.86,26.36-2.82c0.91-0.14,1.14-0.19,1.71,0"/>
		<path d="M30.6,39.78c0.34,0.38,1.6,2.47,1.6,4.48c0,0.77,0,49.72-0.07,54.49"/>
		<path d="M32.48,52.65c-4.07,10.11-10.85,22.59-20.06,30.86"/>
		<path d="M35.21,61.32c3.52,2.02,6.5,6.06,8.39,8.66"/>
		<path d="M52.2,38.32c0.68,0.2,1.92,0.25,2.6,0.2c8.71-0.66,22.52-2.49,31.28-2.66c1.13-0.02,1.81,0.09,2.37,0.19"/>
		<path d="M67.7,29.12c0.08,0.19,1.17,1,1.17,2.23c0,3.86,0.17,9.43,0.17,15.25"/>
		<path d="M48.71,48.44c0.86,0.38,3.44,0.46,4.3,0.38c10.68-1.06,28.2-3.16,37.74-3.66c1.44-0.07,2.3,0.18,3.02,0.37"/>
		<path d="M60.69,49.69c0.03,0.37,0.07,0.96-0.06,1.49c-0.75,3.13-4.71,10.61-10.95,14.23"/>
		<path d="M75.63,47.86c0.35,0.39,0.63,0.86,0.65,1.47c0.09,2.72-0.25,3.35-0.25,5.2c0,4.31,4.24,3.82,8.41,3.82c4.4,0,7.3-0.56,7.92-0.87"/>
		<path d="M64.79,58.71c0.06,0.51,0.29,1.38-0.11,2.06c-2.59,4.42-7.98,12.59-18.81,20.17"/>
		<path d="M63.78,65.88c0.27,0.03,1.73,0.25,2.51,0.18c3.46-0.32,9.01-0.99,12.64-1.8c2.49-0.55,3.2,0.63,2.56,2.13C77.99,74.62,60.93,93.75,43.3,99.5"/>
		<path d="M58.66,70.54c4.51,4.5,24.98,21.62,31.06,25.73c1.81,1.23,3.28,1.82,5.05,2.19"/>
	</g>
</svg>
