<?xml version="1.0" encoding="UTF-8"?>
<!-- Copyright (C) 2009 Ulrich Apel.
This work is distributed under the conditions of the Creative Commons
Attribution-Share Alike 3.0 Licence. This means you are free:
* to Share - to copy, distribute and transmit the work
* to Remix - to adapt the work

Under the following conditions:
* Attribution. You must attribute the work by stating your use of KanjiVG in
  your own copyright header and linking to KanjiVG's website
  (http://kanjivg.tagaini.net)
* Share Alike. If you alter, transform, or build upon this work, you may
  distribute the resulting work only under the same or similar license to this
  one.

See http://creativecommons.org/licenses/by-sa/3.0/ for more details. -->
<!DOCTYPE svg PUBLIC "-//W3C//DTD SVG 1.0//EN" "http://www.w3.org/TR/2001/REC-SVG-20010904/DTD/svg10.dtd">
<svg xmlns="http://www.w3.org/2000/svg" width="109" height="109" viewBox="0 0 109 109">
	<g id="HelperGrid" style="opacity:0.75;">
		<rect x="0.5" y="0.5" style="fill:none;stroke:#404040;" width="108" height="108"/> 
		<line style="fill:none;stroke:#404040;" x1="0.5" y1="72.51" x2="108.5" y2="72.51"/>
		<line style="fill:none;stroke:#404040;" x1="0.5" y1="36.49" x2="108.5" y2="36.49"/>
		<line style="fill:none;stroke:#404040;" x1="72.5" y1="0.5" x2="72.5" y2="108.5"/>
		<line style="fill:none;stroke:#404040;" x1="36.5" y1="0.5" x2="36.5" y2="108.5"/>
	</g>
	<g id="Kanji">
		<text transform="matrix(1 0 0 1 0.5 93.3799)" style="font-size:108;">薙</text>
	</g>
	<g id="StrokeNumbers" style="font-size:8;fill:#808080">
		<text transform="matrix(1 0 0 1 15.5 23.5)">1</text>
		<text transform="matrix(1 0 0 1 29.5 11.8477)">2</text>
		<text transform="matrix(1 0 0 1 59.708 8.5)">3</text>
		<text transform="matrix(1 0 0 1 18.5 33.5)">4</text>
		<text transform="matrix(1 0 0 1 32.25 43.5)">5</text>
		<text transform="matrix(1 0 0 1 6.5 68.5)">6</text>
		<text transform="matrix(1 0 0 1 25.5 55.5)">7</text>
		<text transform="matrix(1 0 0 1 35.5 75.1035)">8</text>
		<text transform="matrix(1 0 0 1 52.25 33.5)">9</text>
		<text transform="matrix(1 0 0 1 45.25 73.9541)">10</text>
		<text transform="matrix(1 0 0 1 70.5 32.8799)">11</text>
		<text transform="matrix(1 0 0 1 62.25 46.5)">12</text>
		<text transform="matrix(1 0 0 1 77.5 56.7285)">13</text>
		<text transform="matrix(1 0 0 1 59.3203 60.6543)">14</text>
		<text transform="matrix(1 0 0 1 59.5 74.5)">15</text>
		<text transform="matrix(1 0 0 1 59.3633 92.5)">16</text>
	</g>
	<g id="StrokePaths" style="fill:none;stroke:#404040;stroke-width:3;stroke-linecap:round;stroke-linejoin:round;">
		<path d="M22.5,22.77c1.29,0.53,2.8,0.63,4.1,0.53c11.9-0.96,45.4-3.46,59.12-3.53c2.16-0.01,3.45,0.25,4.53,0.51"/>
		<path d="M38.25,11c1.75,1.23,2.31,1.61,2.5,2.37C42.5,20.46,43,26.92,43.5,29.5"/>
		<path d="M67.22,8.25c0.96,0.85,1.59,2.15,1.28,3.4c-0.96,3.83-1.6,10.21-2.98,15.1"/>
		<path d="M26.97,34.2c0.04,0.56,0.08,1.44-0.08,2.24c-0.96,4.73-4.9,14.65-12.03,22.45"/>
		<path d="M23.67,46.73c1.67,0,2.04,0.09,2.87,0c4.46-0.48,11.71-1.23,16.01-1.47c1.4-0.08,2.71-0.2,3.4-0.03"/>
		<path d="M13.22,67.67c0.54,0.22,3.66,0.35,4.25,0.31c8.75-0.65,18.91-3.01,27.59-3.25c0.75-0.02,2.4-0.14,4.07,0.24"/>
		<path d="M33.05,49.59c0.34,1.17,0.49,2.32,0.49,3.77c-0.16,25.13-7.44,38.39-20.35,46.11"/>
		<path d="M32.1,74.85c7.32,4.18,13.88,11.36,15.16,15.87"/>
		<path d="M61.68,32.25c0.14,1.33-0.04,3.06-0.49,4.2c-2.87,7.24-6.52,13.36-13.11,22.17"/>
		<path d="M54.53,50.22c0.6,0.75,1.06,2.38,1.1,3.54c0.36,10.3-0.01,42.14,0.29,47.5"/>
		<path d="M80.44,32.25c0.07,0.78-0.02,1.81-0.23,2.48c-1.38,4.28-3.14,7.58-6.31,12.79"/>
		<path d="M56.47,49.79c8.46-0.99,33.01-2.44,36.01-2.97"/>
		<path d="M74.47,49.86c0.37,0.42,0.66,0.99,0.66,1.71c0,7.32,0.04,31.33-0.18,42.86"/>
		<path d="M55.92,64.08c6.59-0.8,30.06-2.36,32.88-2.8"/>
		<path d="M56.58,78.49c6.96-0.68,30.7-2.55,33.68-2.92"/>
		<path d="M56.58,95.82c6.99-0.97,34.92-2.05,37.92-2.58"/>
	</g>
</svg>
