<?xml version="1.0" encoding="UTF-8"?>
<!-- Copyright (C) 2009 Ulrich Apel.
This work is distributed under the conditions of the Creative Commons
Attribution-Share Alike 3.0 Licence. This means you are free:
* to Share - to copy, distribute and transmit the work
* to Remix - to adapt the work

Under the following conditions:
* Attribution. You must attribute the work by stating your use of KanjiVG in
  your own copyright header and linking to KanjiVG's website
  (http://kanjivg.tagaini.net)
* Share Alike. If you alter, transform, or build upon this work, you may
  distribute the resulting work only under the same or similar license to this
  one.

See http://creativecommons.org/licenses/by-sa/3.0/ for more details. -->
<!DOCTYPE svg PUBLIC "-//W3C//DTD SVG 1.0//EN" "http://www.w3.org/TR/2001/REC-SVG-20010904/DTD/svg10.dtd">
<svg xmlns="http://www.w3.org/2000/svg" width="109" height="109" viewBox="0 0 109 109">
	<g id="HelperGrid" style="opacity:0.75;">
		<rect x="0.5" y="0.5" style="fill:none;stroke:#404040;" width="108" height="108"/> 
		<line style="fill:none;stroke:#404040;" x1="0.5" y1="72.51" x2="108.5" y2="72.51"/>
		<line style="fill:none;stroke:#404040;" x1="0.5" y1="36.49" x2="108.5" y2="36.49"/>
		<line style="fill:none;stroke:#404040;" x1="72.5" y1="0.5" x2="72.5" y2="108.5"/>
		<line style="fill:none;stroke:#404040;" x1="36.5" y1="0.5" x2="36.5" y2="108.5"/>
	</g>
	<g id="Kanji">
		<text transform="matrix(1 0 0 1 0.5 93.3799)" style="font-size:108;">薪</text>
	</g>
	<g id="StrokeNumbers" style="font-size:8;fill:#808080">
		<text transform="matrix(1 0 0 1 16.5 22.5)">1</text>
		<text transform="matrix(1 0 0 1 30.5 13.6299)">2</text>
		<text transform="matrix(1 0 0 1 59.5 10.6299)">3</text>
		<text transform="matrix(1 0 0 1 26.25 33.1299)">4</text>
		<text transform="matrix(1 0 0 1 13.5 41.5)">5</text>
		<text transform="matrix(1 0 0 1 21.75 51.5)">6</text>
		<text transform="matrix(1 0 0 1 36.5 49.5)">7</text>
		<text transform="matrix(1 0 0 1 9.75 57.1299)">8</text>
		<text transform="matrix(1 0 0 1 11.5 69.5)">9</text>
		<text transform="matrix(1 0 0 1 27.5 63.5)">10</text>
		<text transform="matrix(1 0 0 1 21.5 77.5)">11</text>
		<text transform="matrix(1 0 0 1 45.75 73.6299)">12</text>
		<text transform="matrix(1 0 0 1 70.5 29.5)">13</text>
		<text transform="matrix(1 0 0 1 50.5 49.5)">14</text>
		<text transform="matrix(1 0 0 1 65.5 50.5)">15</text>
		<text transform="matrix(1 0 0 1 68.5 62.5)">16</text>
	</g>
	<g id="StrokePaths" style="fill:none;stroke:#404040;stroke-width:3;stroke-linecap:round;stroke-linejoin:round;">
		<path d="M22.25,22.19c1.27,0.52,2.75,0.62,4.02,0.52c11.69-0.94,45.05-3.85,58.53-3.93c2.12-0.01,3.39,0.25,4.45,0.5"/>
		<path d="M38.19,12.36c1.41,1.16,1.87,1.51,2.02,2.22c1.41,6.66,2.62,13.52,3.03,15.94"/>
		<path d="M67.82,10.23c0.31,0.93,0.71,1.61,0.37,2.75c-2.03,6.69-2.95,10.03-5.16,16.32"/>
		<path d="M33.22,31.51c2.03,1.24,3.78,3.24,4.5,5.57"/>
		<path d="M21.02,41.74c0.54,0.1,2.67,0.03,3.22,0.03c4.26-0.02,15.44-1.98,25.84-2.67c0.9-0.06,1.45-0.03,1.9,0.02"/>
		<path d="M27.37,44.66c2.25,3.26,2.67,5.47,2.88,7.68"/>
		<path d="M43.98,42.66c0.34,0.31,0.38,0.47,0.34,0.75c-0.27,1.87-2.76,7.33-3.44,8.79"/>
		<path d="M17.21,56.84c0.68,0.12,3.31,0.12,3.99,0.03c4.81-0.67,21.55-3.45,28.59-3.46c1.14,0,2.73-0.04,3.3,0.01"/>
		<path d="M19.32,67.95c0.55,0.21,2.01,0.73,3.46,0.62c6.88-0.54,19.59-3.1,26.7-3.7c1.45-0.12,1.82-0.21,2.73,0"/>
		<path d="M36.21,57.2c1.04,0.41,1.66,1.85,1.86,2.68c0.34,1.33-0.21,32.43-0.21,32.77c0,9.85-4.74,1.47-5.62,0.6"/>
		<path d="M37.21,68.3c-3.36,7.68-12.09,18.55-19.07,22.9"/>
		<path d="M40.43,71.41c4.57,2.34,7.07,5.34,9.14,9.38"/>
		<path d="M82,29.24c0.06,0.33,0.21,0.94-0.11,1.31c-4.03,4.62-10.53,8.49-20.5,12.59"/>
		<path d="M60.14,42.86c0.88,1.38,1.39,3.2,1.37,4.71c-0.07,4.55-0.13,6.41-0.13,11.83c0,9.91-4,25-10.1,30.82"/>
		<path d="M62.95,53.56c0.38,0.16,24.99-2.5,31.25-3c1.01-0.08,2.75-0.16,3.38,0"/>
		<path d="M77.78,55.14c0.81,0.5,1.3,2.25,1.46,3.24c0.16,1,0.25,35.13,0.09,41.37"/>
	</g>
</svg>
