<?xml version="1.0" encoding="UTF-8"?>
<!-- Copyright (C) 2009 Ulrich Apel.
This work is distributed under the conditions of the Creative Commons
Attribution-Share Alike 3.0 Licence. This means you are free:
* to Share - to copy, distribute and transmit the work
* to Remix - to adapt the work

Under the following conditions:
* Attribution. You must attribute the work by stating your use of KanjiVG in
  your own copyright header and linking to KanjiVG's website
  (http://kanjivg.tagaini.net)
* Share Alike. If you alter, transform, or build upon this work, you may
  distribute the resulting work only under the same or similar license to this
  one.

See http://creativecommons.org/licenses/by-sa/3.0/ for more details. -->
<!DOCTYPE svg PUBLIC "-//W3C//DTD SVG 1.0//EN" "http://www.w3.org/TR/2001/REC-SVG-20010904/DTD/svg10.dtd">
<svg xmlns="http://www.w3.org/2000/svg" width="109" height="109" viewBox="0 0 109 109">
	<g id="HelperGrid" style="opacity:0.75;">
		<rect x="0.5" y="0.5" style="fill:none;stroke:#404040;" width="108" height="108"/> 
		<line style="fill:none;stroke:#404040;" x1="0.5" y1="72.51" x2="108.5" y2="72.51"/>
		<line style="fill:none;stroke:#404040;" x1="0.5" y1="36.49" x2="108.5" y2="36.49"/>
		<line style="fill:none;stroke:#404040;" x1="72.5" y1="0.5" x2="72.5" y2="108.5"/>
		<line style="fill:none;stroke:#404040;" x1="36.5" y1="0.5" x2="36.5" y2="108.5"/>
	</g>
	<g id="Kanji">
		<text transform="matrix(1 0 0 1 0.5 93.3799)" style="font-size:108;">藜</text>
	</g>
	<g id="StrokeNumbers" style="font-size:8;fill:#808080">
		<text transform="matrix(1 0 0 1 11.5 20.5)">1</text>
		<text transform="matrix(1 0 0 1 28.6602 11.8477)">2</text>
		<text transform="matrix(1 0 0 1 58.5 9.5)">3</text>
		<text transform="matrix(1 0 0 1 34.5 30.5)">4</text>
		<text transform="matrix(1 0 0 1 11.25 44.8291)">5</text>
		<text transform="matrix(1 0 0 1 30.5 41.5)">6</text>
		<text transform="matrix(1 0 0 1 22.25 51.5)">7</text>
		<text transform="matrix(1 0 0 1 45.5 47.604)">8</text>
		<text transform="matrix(1 0 0 1 53.5 28.5)">9</text>
		<text transform="matrix(1 0 0 1 67.5 31.5)">10</text>
		<text transform="matrix(1 0 0 1 61.5 42.5)">11</text>
		<text transform="matrix(1 0 0 1 28.5 63.5)">12</text>
		<text transform="matrix(1 0 0 1 65.5 55.5)">13</text>
		<text transform="matrix(1 0 0 1 45.5 67.5)">14</text>
		<text transform="matrix(1 0 0 1 30.25 79.0791)">15</text>
		<text transform="matrix(1 0 0 1 23.5 87.5)">16</text>
		<text transform="matrix(1 0 0 1 63.5 68.5)">17</text>
		<text transform="matrix(1 0 0 1 60.5 90.5)">18</text>
	</g>
	<g id="StrokePaths" style="fill:none;stroke:#404040;stroke-width:3;stroke-linecap:round;stroke-linejoin:round;">
		<path d="M18.5,20.08c1.71,0.7,3.7,0.81,5.42,0.7C36,20,66.11,16.86,84.26,16.77c2.85-0.02,4.57,0.33,5.99,0.68"/>
		<path d="M37.48,11c1.26,1.03,1.67,1.35,1.8,1.98c1.26,5.95,1.62,11.35,1.98,13.52"/>
		<path d="M67.27,9c0.88,0.78,1.46,1.97,1.17,3.13c-0.88,3.52-1.47,9.38-2.74,13.87"/>
		<path d="M47.88,27.9c0.06,0.2,0.13,0.52-0.13,0.8c-1.53,1.7-10.29,5.41-22.28,7.69"/>
		<path d="M17.12,42.74c0.33,0.08,3.65,0.26,4.53,0.23c6.1-0.22,18.85-2.2,25.77-2.73c0.88-0.07,1.98,0.09,2.53,0.17"/>
		<path d="M37.36,35.43c0.29,0.39,0.85,1.36,0.9,2.14c0.05,0.62-0.43,11.33-0.43,16.66c0,5.26-3.33,1.76-4.33,0.76"/>
		<path d="M36.54,41.56c-3.45,4.58-9.46,11.29-17.04,13.99"/>
		<path d="M40.5,44.65c2.78,1.7,4.32,3.4,5.25,5.78"/>
		<path d="M61.93,28.01c0.02,0.33,0.05,0.84-0.04,1.31c-0.54,2.76-3.64,8.82-7.89,12.53"/>
		<path d="M61.95,34.52c0.6,0.29,2.44,0.38,3.4,0.19C66.3,34.52,82.7,32.09,85.1,32c2.4-0.1,2.71,0.94,2.52,2.97c-0.37,3.9-1.62,10.79-5.16,17.3c-1.09,2-3.92,1.22-5.34,0.02"/>
		<path d="M71.78,34.99c0.02,0.34,0.05,0.88-0.05,1.37c-0.56,2.89-3.77,9.25-8.17,13.14"/>
		<path d="M53.75,46.93c0.11,0.7-0.07,1.99-0.7,2.82c-5.07,6.7-17.34,20.21-37.55,26.97"/>
		<path d="M54.5,49.74c5.17,4.2,27.44,17.91,33.15,20.98c1.94,1.04,4.42,1.49,6.35,1.79"/>
		<path d="M54.59,60.72c0.07,0.32,1.49,1.67,1.49,3.71c0,12.2-0.2,25.87-0.2,29.2c0,7.08-5.7,1.01-6.88,0.17"/>
		<path d="M36,71.02c3.88,1.28,10.03,5.25,11,7.23"/>
		<path d="M27.5,92.36c1.25,0.64,2.11,1.52,4.08,0.61c1.16-0.54,12-5.34,16.92-7.93"/>
		<path d="M72.03,67.49c0.03,0.21,0.05,0.55-0.05,0.86c-0.58,1.83-3.89,5.83-8.42,8.28"/>
		<path d="M63.75,81.25C68,82.7,79.62,89.69,83.32,95.13"/>
	</g>
</svg>
