<?xml version="1.0" encoding="UTF-8"?>
<!-- Copyright (C) 2009 Ulrich Apel.
This work is distributed under the conditions of the Creative Commons
Attribution-Share Alike 3.0 Licence. This means you are free:
* to Share - to copy, distribute and transmit the work
* to Remix - to adapt the work

Under the following conditions:
* Attribution. You must attribute the work by stating your use of KanjiVG in
  your own copyright header and linking to KanjiVG's website
  (http://kanjivg.tagaini.net)
* Share Alike. If you alter, transform, or build upon this work, you may
  distribute the resulting work only under the same or similar license to this
  one.

See http://creativecommons.org/licenses/by-sa/3.0/ for more details. -->
<!DOCTYPE svg PUBLIC "-//W3C//DTD SVG 1.0//EN" "http://www.w3.org/TR/2001/REC-SVG-20010904/DTD/svg10.dtd">
<svg xmlns="http://www.w3.org/2000/svg" width="109" height="109" viewBox="0 0 109 109">
	<g id="HelperGrid" style="opacity:0.75;">
		<rect x="0.5" y="0.5" style="fill:none;stroke:#404040;" width="108" height="108"/> 
		<line style="fill:none;stroke:#404040;" x1="0.5" y1="72.51" x2="108.5" y2="72.51"/>
		<line style="fill:none;stroke:#404040;" x1="0.5" y1="36.49" x2="108.5" y2="36.49"/>
		<line style="fill:none;stroke:#404040;" x1="72.5" y1="0.5" x2="72.5" y2="108.5"/>
		<line style="fill:none;stroke:#404040;" x1="36.5" y1="0.5" x2="36.5" y2="108.5"/>
	</g>
	<g id="Kanji">
		<text transform="matrix(1 0 0 1 0.5 93.3799)" style="font-size:108;">蘊</text>
	</g>
	<g id="StrokeNumbers" style="font-size:8;fill:#808080">
		<text transform="matrix(1 0 0 1 14.5 21.5)">1</text>
		<text transform="matrix(1 0 0 1 30.5 11.5)">2</text>
		<text transform="matrix(1 0 0 1 58.5 10.5)">3</text>
		<text transform="matrix(1 0 0 1 21.5 31.5)">4</text>
		<text transform="matrix(1 0 0 1 34.5 39.5)">5</text>
		<text transform="matrix(1 0 0 1 38.5 59.5)">6</text>
		<text transform="matrix(1 0 0 1 8.5 86.5)">7</text>
		<text transform="matrix(1 0 0 1 18.5 83.5)">8</text>
		<text transform="matrix(1 0 0 1 30.5 78.5)">9</text>
		<text transform="matrix(1 0 0 1 45.5 43.5)">10</text>
		<text transform="matrix(1 0 0 1 55.5 32.5)">11</text>
		<text transform="matrix(1 0 0 1 60.25 43.5)">12</text>
		<text transform="matrix(1 0 0 1 73.25 42.729)">13</text>
		<text transform="matrix(1 0 0 1 69.25 55.6543)">14</text>
		<text transform="matrix(1 0 0 1 45.5 77.5)">15</text>
		<text transform="matrix(1 0 0 1 53.5 67.5039)">16</text>
		<text transform="matrix(1 0 0 1 57.5 78.5)">17</text>
		<text transform="matrix(1 0 0 1 68.5 77.3535)">18</text>
		<text transform="matrix(1 0 0 1 45.5 92.5)">19</text>
	</g>
	<g id="StrokePaths" style="fill:none;stroke:#404040;stroke-width:3;stroke-linecap:round;stroke-linejoin:round;">
		<path d="M20.5,21c1.61,0.65,3.47,0.78,5.08,0.65c14.75-1.19,40.05-3.17,57.05-3.26c2.68-0.01,4.28,0.31,5.62,0.64"/>
		<path d="M36.36,11c1.55,1.27,2.04,1.65,2.21,2.43C40.12,20.72,40.56,27.35,41,30"/>
		<path d="M65.79,9.75c0.89,0.79,1.48,2,1.19,3.17c-0.89,3.57-1.49,9.52-2.78,14.08"/>
		<path d="M28.37,29.5c0.32,1.19,0.4,2.1-0.16,3.37c-2.84,6.42-6.21,11.07-9.65,16.44c-0.46,0.72-0.64,2.75,0,2.97c3.38,1.19,8.12,3.17,11.02,5.35"/>
		<path d="M40.43,40.22c0.3,0.54,0.39,2.3,0,2.88c-5.73,8.44-14.28,20.19-22.16,27.88c-1.81,1.76,0.45,2.78,1.62,2.42c4.93-1.5,15.15-4.18,21.48-5.62"/>
		<path d="M37.29,60.83c2.56,2.16,6.61,8.88,7.25,12.24"/>
		<path d="M13.46,84.33c3.89,2.7,6.87,8.97,7.77,11.42"/>
		<path d="M24.6,80.85c4.4,2.34,7.78,7.77,8.81,9.89"/>
		<path d="M35.74,76.71c4.27,1.88,7.55,6.23,8.55,7.93"/>
		<path d="M53.13,35.04c0.36,0.42,0.81,1.56,0.9,2.11c0.78,4.59,2.94,13.89,3.74,23.18"/>
		<path d="M54.39,36.13c9.93-1.21,26.16-2.35,32-2.86c2.35-0.21,2.78,1.03,2.57,2.84c-0.68,5.73-2.31,15.42-3.63,22.36"/>
		<path d="M69.89,39.01c0.05,0.33,0.2,1.04,0.11,1.54c-0.54,2.97-2.75,7.45-6.91,12.48"/>
		<path d="M70.91,44.83c3.21,0.99,7.87,4.95,8.67,6.88"/>
		<path d="M57.8,57.94c6.35,0,18.75-1.94,27.52-2.06"/>
		<path d="M52.98,69.17c0.46,0.65,1.13,1.36,1.16,1.92C54.5,77.5,55.08,87,55.08,94.48"/>
		<path d="M54.86,71.05c8.3-0.91,30.89-3.42,33.9-3.61c1.89-0.12,2.94,0.87,2.75,2.67c-0.28,2.55-2.6,19.64-3.57,23.08"/>
		<path d="M65.02,71.26c0.19,0.42,0.39,0.77,0.47,1.29c0.67,4.16,1.16,14.08,1.62,21.56"/>
		<path d="M76.62,70.41c0.35,0.5,0.69,1.36,0.63,2.01c-0.58,6.44,0.07,12.35-0.64,20.6"/>
		<path d="M43.58,95.27c1.33,0.43,3.78,0.5,5.12,0.43c13.89-0.72,18.74-2.45,44.31-2.56c2.22-0.01,3.56,0.2,4.67,0.42"/>
	</g>
</svg>
