<?xml version="1.0" encoding="UTF-8"?>
<!-- Copyright (C) 2009 Ulrich Apel.
This work is distributed under the conditions of the Creative Commons
Attribution-Share Alike 3.0 Licence. This means you are free:
* to Share - to copy, distribute and transmit the work
* to Remix - to adapt the work

Under the following conditions:
* Attribution. You must attribute the work by stating your use of KanjiVG in
  your own copyright header and linking to KanjiVG's website
  (http://kanjivg.tagaini.net)
* Share Alike. If you alter, transform, or build upon this work, you may
  distribute the resulting work only under the same or similar license to this
  one.

See http://creativecommons.org/licenses/by-sa/3.0/ for more details. -->
<!DOCTYPE svg PUBLIC "-//W3C//DTD SVG 1.0//EN" "http://www.w3.org/TR/2001/REC-SVG-20010904/DTD/svg10.dtd">
<svg xmlns="http://www.w3.org/2000/svg" width="109" height="109" viewBox="0 0 109 109">
	<g id="HelperGrid" style="opacity:0.75;">
		<rect x="0.5" y="0.5" style="fill:none;stroke:#404040;" width="108" height="108"/> 
		<line style="fill:none;stroke:#404040;" x1="0.5" y1="72.51" x2="108.5" y2="72.51"/>
		<line style="fill:none;stroke:#404040;" x1="0.5" y1="36.49" x2="108.5" y2="36.49"/>
		<line style="fill:none;stroke:#404040;" x1="72.5" y1="0.5" x2="72.5" y2="108.5"/>
		<line style="fill:none;stroke:#404040;" x1="36.5" y1="0.5" x2="36.5" y2="108.5"/>
	</g>
	<g id="Kanji">
		<text transform="matrix(1 0 0 1 0.5 93.3799)" style="font-size:108;">虔</text>
	</g>
	<g id="StrokeNumbers" style="font-size:8;fill:#808080">
		<text transform="matrix(1 0 0 1 58.5 14.5)">1</text>
		<text transform="matrix(1 0 0 1 41.4434 10.5)">2</text>
		<text transform="matrix(1 0 0 1 29.5 28.5)">3</text>
		<text transform="matrix(1 0 0 1 16.5 31.5)">4</text>
		<text transform="matrix(1 0 0 1 32.5 40.5)">5</text>
		<text transform="matrix(1 0 0 1 56.5 36.5)">6</text>
		<text transform="matrix(1 0 0 1 47.5 57.5)">7</text>
		<text transform="matrix(1 0 0 1 31.5 63.5)">8</text>
		<text transform="matrix(1 0 0 1 59.5 73.5303)">9</text>
		<text transform="matrix(1 0 0 1 36.4434 77.5)">10</text>
	</g>
	<g id="StrokePaths" style="fill:none;stroke:#404040;stroke-width:3;stroke-linecap:round;stroke-linejoin:round;">
		<path d="M53.35,18.48C60,18,66.65,16.91,73.49,16.19c2.25-0.24,3.63-0.29,4.76-0.06"/>
		<path d="M50.31,10.08c1.21,1.13,2.16,2.44,2.16,6.18c0,7.26-0.03,6.39-0.03,12.49"/>
		<path d="M27.74,31.74c1.16,0.19,3.25,0.01,5.14-0.22c14.37-1.77,40.37-5.02,51.81-5.18c12.07-0.17,3.55,5.66,0.55,7.78"/>
		<path d="M26.4,29.18c0.63,0.6,1.22,2.85,1.19,5.02C27.25,63,24.07,81.32,13.5,95.75"/>
		<path d="M35.25,43.21c0.87,0.35,3.02,0.51,3.88,0.35c8.56-1.57,23.41-3.87,32.82-4.73C73.4,38.7,74.27,39,75,39.17"/>
		<path d="M51.5,31.18c0.64,0.54,1.5,2.67,1.5,3.42c0,6-0.12,5.6-0.12,8.28c0,7.97,3.58,7.37,12.81,7.37c3.44,0,12.6,0,15.56-1.07"/>
		<path d="M53.28,54.75c1.97,1.5,3.97,3.5,4.92,5.69"/>
		<path d="M33,66.82c1.26,0.05,3.64,0.33,4.87,0.29c10.28-0.27,30.45-3.42,43.91-3.58c2.08-0.02,3.14,0.03,4.69,0.37"/>
		<path d="M67.53,67.97c0.54,0.7,0.29,1.57-0.23,2.96C63.5,81,51,93.5,24.75,99.25"/>
		<path d="M43.34,71.07c10.41,6.43,24.27,17.57,36.61,24.28c2.32,1.26,5.03,2.24,7.04,2.35"/>
	</g>
</svg>
