<?xml version="1.0" encoding="UTF-8"?>
<!-- Copyright (C) 2009 Ulrich Apel.
This work is distributed under the conditions of the Creative Commons
Attribution-Share Alike 3.0 Licence. This means you are free:
* to Share - to copy, distribute and transmit the work
* to Remix - to adapt the work

Under the following conditions:
* Attribution. You must attribute the work by stating your use of KanjiVG in
  your own copyright header and linking to KanjiVG's website
  (http://kanjivg.tagaini.net)
* Share Alike. If you alter, transform, or build upon this work, you may
  distribute the resulting work only under the same or similar license to this
  one.

See http://creativecommons.org/licenses/by-sa/3.0/ for more details. -->
<!DOCTYPE svg PUBLIC "-//W3C//DTD SVG 1.0//EN" "http://www.w3.org/TR/2001/REC-SVG-20010904/DTD/svg10.dtd">
<svg xmlns="http://www.w3.org/2000/svg" width="109" height="109" viewBox="0 0 109 109">
	<g id="HelperGrid" style="opacity:0.75;">
		<rect x="0.5" y="0.5" style="fill:none;stroke:#404040;" width="108" height="108"/> 
		<line style="fill:none;stroke:#404040;" x1="0.5" y1="72.51" x2="108.5" y2="72.51"/>
		<line style="fill:none;stroke:#404040;" x1="0.5" y1="36.49" x2="108.5" y2="36.49"/>
		<line style="fill:none;stroke:#404040;" x1="72.5" y1="0.5" x2="72.5" y2="108.5"/>
		<line style="fill:none;stroke:#404040;" x1="36.5" y1="0.5" x2="36.5" y2="108.5"/>
	</g>
	<g id="Kanji">
		<text transform="matrix(1 0 0 1 0.5 93.3799)" style="font-size:108;">蛩</text>
	</g>
	<g id="StrokeNumbers" style="font-size:8;fill:#808080">
		<text transform="matrix(1 0 0 1 11.5 14.5)">1</text>
		<text transform="matrix(1 0 0 1 26.5 28.5)">2</text>
		<text transform="matrix(1 0 0 1 11.5 38.5)">3</text>
		<text transform="matrix(1 0 0 1 49.5 24.4043)">4</text>
		<text transform="matrix(1 0 0 1 58.5 11.5)">5</text>
		<text transform="matrix(1 0 0 1 65.5 23.5)">6</text>
		<text transform="matrix(1 0 0 1 20.5 63.5)">7</text>
		<text transform="matrix(1 0 0 1 28.5 54.5)">8</text>
		<text transform="matrix(1 0 0 1 32.5 69.5)">9</text>
		<text transform="matrix(1 0 0 1 41.5 50.5)">10</text>
		<text transform="matrix(1 0 0 1 22.25 89.5)">11</text>
		<text transform="matrix(1 0 0 1 77.5 79.3047)">12</text>
	</g>
	<g id="StrokePaths" style="fill:none;stroke:#404040;stroke-width:3;stroke-linecap:round;stroke-linejoin:round;">
		<path d="M13.76,19.06c0.83,0.27,3.54,0.3,4.4,0.28c5.6-0.13,20.54-1.87,27.93-2.65c1.27-0.13,2.46,0.05,3.52,0.28"/>
		<path d="M31.84,19.69c1.75,1.49,1.75,2.38,1.75,3.57c0,4.91-0.05,12.56-0.05,14.91"/>
		<path d="M15.74,42.76c0.41,0.54,2.43,0.78,3.12,0.53c7.49-2.68,22.82-7.79,28.63-9.65"/>
		<path d="M56.27,13.91c0.31,0.68,0.79,1.21,0.76,2.05c-0.39,8.89-0.39,17.8-9.19,25.29"/>
		<path d="M57.77,14.91c2.44-0.38,16.47-2.13,18.43-2.51c1.95-0.38,4.09,0.38,3.58,2.26c-1.53,5.59-1.63,12.09-1.63,16.94c0,7.4,0.35,9.14,7.8,9.14c9.55,0,10.27-1.5,10.27-5.39"/>
		<path d="M62.75,23.25c4.19,3.74,6.59,7.71,7.89,11.21"/>
		<path d="M25.95,56.27c0.82,0.58,1.4,2.02,1.55,2.79c1.11,5.55,0.75,4.69,2.3,15.2"/>
		<path d="M28.11,58.1c12.73-1.2,40.62-3.49,49.83-3.94c3.59-0.18,4.02,1.98,3.4,4.59c-0.87,3.66-1.65,6.02-2.8,10.59"/>
		<path d="M30.32,72.72c10.24-1.21,35.53-2.48,49.86-3.61"/>
		<path d="M52.98,45.75c1,0.45,1.6,2.03,1.8,2.93c0.2,0.9,0,33.8-0.2,39.44"/>
		<path d="M20.85,92.67c1.17,0.54,1.87,1.21,3.04,1.07s50.39-7.29,57.63-8.36"/>
		<path d="M69.61,75.92c7.24,3.63,18.69,14.92,20.5,20.57"/>
	</g>
</svg>
