<?xml version="1.0" encoding="UTF-8"?>
<!DOCTYPE svg PUBLIC "-//W3C//DTD SVG 1.0//EN" "http://www.w3.org/TR/2001/REC-SVG-20010904/DTD/svg10.dtd">
<svg xmlns="http://www.w3.org/2000/svg" width="109" height="109" viewBox="0 0 109 109">
	<g id="HelperGrid" style="opacity:0.75;">
		<rect x="0.5" y="0.5" style="fill:none;stroke:#404040;" width="108" height="108"/> 
		<line style="fill:none;stroke:#404040;" x1="0.5" y1="72.51" x2="108.5" y2="72.51"/>
		<line style="fill:none;stroke:#404040;" x1="0.5" y1="36.49" x2="108.5" y2="36.49"/>
		<line style="fill:none;stroke:#404040;" x1="72.5" y1="0.5" x2="72.5" y2="108.5"/>
		<line style="fill:none;stroke:#404040;" x1="36.5" y1="0.5" x2="36.5" y2="108.5"/>
	</g>
	<g id="Kanji">
		<text transform="matrix(1 0 0 1 0.5 93.3799)" style="font-size:108;">蜷</text>
	</g>
	<g id="StrokeNumbers" style="font-size:8;fill:#808080">
		<text transform="matrix(1 0 0 1 5.5 41.5)">1</text>
		<text transform="matrix(1 0 0 1 15.5 31.5)">2</text>
		<text transform="matrix(1 0 0 1 17.5 57.5)">3</text>
		<text transform="matrix(1 0 0 1 14.5 12.5)">4</text>
		<text transform="matrix(1 0 0 1 2.5 89.5)">5</text>
		<text transform="matrix(1 0 0 1 36.5 68.5)">6</text>
		<text transform="matrix(1 0 0 1 50.5 18.5)">7</text>
		<text transform="matrix(1 0 0 1 75.5 18.5)">8</text>
		<text transform="matrix(1 0 0 1 56.75 33.5)">9</text>
		<text transform="matrix(1 0 0 1 41.5 46.5)">10</text>
		<text transform="matrix(1 0 0 1 57.5 11.5)">11</text>
		<text transform="matrix(1 0 0 1 76.5 42.5)">12</text>
		<text transform="matrix(1 0 0 1 60.5 60.5)">13</text>
		<text transform="matrix(1 0 0 1 48.5 74.1543)">14</text>
	</g>
	<g id="StrokePaths" style="fill:none;stroke:#404040;stroke-width:3;stroke-linecap:round;stroke-linejoin:round;">
		<path d="M11.26,33.9c0.54,0.62,1.2,1.7,1.32,2.51C13.6,43.47,14,52.5,15.25,63.14"/>
		<path d="M12.22,35.48c6.93-0.97,19.61-2.83,24.63-3.2c1.96-0.14,2.86,1.38,2.62,2.83c-0.83,4.98-1.98,14.84-3.33,23.12"/>
		<path d="M15.26,61.43c5.58-0.98,14.96-1.98,22.76-2.89"/>
		<path d="M23.42,12.75c1.08,1,2.26,2.75,2.26,4.47c0,4.78-0.2,51.28-0.2,64.66"/>
		<path d="M10.57,87.45c0.52,0.95,2.15,0.91,2.67,0.67c0.52-0.24,21.4-10.35,24.65-12.25"/>
		<path d="M34,68.25c2.49,2.94,6.43,12.08,7.06,16.64"/>
		<path d="M58.02,18.42c0.03,0.42,0.07,1.09-0.07,1.7c-0.83,3.57-5.41,9.67-12.11,16.22"/>
		<path d="M78.33,20.39c5.31,2.01,12.92,7.77,14.24,10.89"/>
		<path d="M52.44,35.17c0.78,0.24,2.71,0.26,3.49,0.24c6.07-0.16,20.32-1.66,26.2-2.21c1.29-0.12,2.58,0.11,3.23,0.23"/>
		<path d="M44.5,48.6c1.27,0.7,3.6,0.78,4.89,0.7c9.36-0.55,28.65-2.78,42.02-3.09c2.12-0.05,3.4,0.33,4.46,0.69"/>
		<path d="M68.46,12.75c0.51,0.89,0.83,2.23,0.54,4.21c-1.73,11.83-7.52,42.34-25.75,54.37"/>
		<path d="M71.18,34.48c3.25,6.03,17.24,25.71,20.83,30.12c1.21,1.5,2.77,2.14,3.99,2.56"/>
		<path d="M56.73,63.32c0.52,0.1,2.42,0.8,3.48,0.72c4.14-0.3,15.52-2.08,16.93-2.42c2.11-0.52,3.48,0.91,3.39,2.98c-0.14,3.52-0.56,10.42-3.33,16.01c-2.02,4.08-4.46,1.14-5.71-1.21"/>
		<path d="M58.46,64.35c0.59,1.34,0.48,2.5,0.48,4.57c0,12.31,0.17,10.07,0.17,16.33c0,10.76,0.14,10.97,17.95,10.97c12.81,0,14.97-1.06,14.97-10.26"/>
	</g>
</svg>
