<?xml version="1.0" encoding="UTF-8"?>
<!DOCTYPE svg PUBLIC "-//W3C//DTD SVG 1.0//EN" "http://www.w3.org/TR/2001/REC-SVG-20010904/DTD/svg10.dtd">
<svg xmlns="http://www.w3.org/2000/svg" width="109" height="109" viewBox="0 0 109 109">
	<g id="HelperGrid" style="opacity:0.75;">
		<rect x="0.5" y="0.5" style="fill:none;stroke:#404040;" width="108" height="108"/> 
		<line style="fill:none;stroke:#404040;" x1="0.5" y1="72.51" x2="108.5" y2="72.51"/>
		<line style="fill:none;stroke:#404040;" x1="0.5" y1="36.49" x2="108.5" y2="36.49"/>
		<line style="fill:none;stroke:#404040;" x1="72.5" y1="0.5" x2="72.5" y2="108.5"/>
		<line style="fill:none;stroke:#404040;" x1="36.5" y1="0.5" x2="36.5" y2="108.5"/>
	</g>
	<g id="Kanji">
		<text transform="matrix(1 0 0 1 0.5 93.3799)" style="font-size:108;">蝓</text>
	</g>
	<g id="StrokeNumbers" style="font-size:8;fill:#808080">
		<text transform="matrix(1 0 0 1 5.5 43.5)">1</text>
		<text transform="matrix(1 0 0 1 13.5 34.5)">2</text>
		<text transform="matrix(1 0 0 1 18.5 56.5)">3</text>
		<text transform="matrix(1 0 0 1 14.5 16.5)">4</text>
		<text transform="matrix(1 0 0 1 3.7158 88.5)">5</text>
		<text transform="matrix(1 0 0 1 38.5 68.5)">6</text>
		<text transform="matrix(1 0 0 1 58.5 12.5)">7</text>
		<text transform="matrix(1 0 0 1 72.5 18.5)">8</text>
		<text transform="matrix(1 0 0 1 58.5 41.5)">9</text>
		<text transform="matrix(1 0 0 1 40.5 61.5)">10</text>
		<text transform="matrix(1 0 0 1 49.75 53.3799)">11</text>
		<text transform="matrix(1 0 0 1 54.5 63.0547)">12</text>
		<text transform="matrix(1 0 0 1 52.5 74.5)">13</text>
		<text transform="matrix(1 0 0 1 68.5 53.5)">14</text>
		<text transform="matrix(1 0 0 1 79.75 52.5)">15</text>
	</g>
	<g id="StrokePaths" style="fill:none;stroke:#404040;stroke-width:3;stroke-linecap:round;stroke-linejoin:round;">
		<path d="M11.26,36.98c0.42,0.53,0.95,1.45,1.04,2.14c0.8,6.01,1.73,13.8,2.9,22.77"/>
		<path d="M13.08,38.14c6.43-1.01,20.05-2.98,24.71-3.36c1.81-0.15,2.65,1.43,2.43,2.94c-0.77,5.17-1.84,10.72-3.09,19.31"/>
		<path d="M15.43,59.86c5.18-1.01,16.67-2.08,23.91-3.02"/>
		<path d="M23.92,16.25c1.08,1,2.26,2.75,2.26,4.47c0,4.78-0.2,45.78-0.2,59.16"/>
		<path d="M11.07,86.77c0.6,1.16,2.46,1.11,3.06,0.82c0.6-0.29,21.04-11.65,24.76-13.97"/>
		<path d="M33.5,63.75c3.2,3.03,8.26,12.44,9.06,17.14"/>
		<path d="M66.25,12.25c0.06,0.85,0.24,2.25-0.13,3.41c-2.23,7-9.89,23.02-22.12,32.59"/>
		<path d="M67.03,16.61c3.82,5.23,20.3,22.31,24.52,26.14c1.43,1.3,3.27,1.86,4.7,2.23"/>
		<path d="M55.72,43.89c0.7,0.26,1.98,0.28,2.69,0.26C64,44,73.25,42.75,77.83,42.01c1.15-0.19,1.87,0.12,2.46,0.25"/>
		<path d="M47.67,54.95c0.54,0.94,0.9,1.88,1.07,2.82c0.18,0.94,0.25,37.64,0.18,39.76"/>
		<path d="M49.81,56.78c1.2-0.13,12.18-2.4,13.07-2.55c1.6-0.27,2.2,1.74,2,2.55c-0.19,0.77-0.3,25.46-0.3,36.32c0,9.61-3.55,2.41-4.55,1.21"/>
		<path d="M52.81,62.74c2.32,1.2,5.99,4.91,6.57,6.77"/>
		<path d="M54.11,76c1.95,1.14,5.03,4.7,5.51,6.48"/>
		<path d="M78.11,52.69c0.21,0.93,0.8,2.53,0.48,3.8c-0.96,3.89-4.52,12.77-7.43,17.43c-0.8,1.28-0.01,2.09,0.21,2.35C74.91,80.54,77,86.78,78.78,96"/>
		<path d="M90.12,52.62c0.23,1.01,0.87,2.75,0.53,4.14c-1.05,4.24-4.66,10.93-7.83,16c-0.87,1.39-0.01,2.27,0.23,2.56c3.85,4.64,6.89,10.89,8.74,20.93"/>
	</g>
</svg>
