<?xml version="1.0" encoding="UTF-8"?>
<!-- Copyright (C) 2009 Ulrich Apel.
This work is distributed under the conditions of the Creative Commons
Attribution-Share Alike 3.0 Licence. This means you are free:
* to Share - to copy, distribute and transmit the work
* to Remix - to adapt the work

Under the following conditions:
* Attribution. You must attribute the work by stating your use of KanjiVG in
  your own copyright header and linking to KanjiVG's website
  (http://kanjivg.tagaini.net)
* Share Alike. If you alter, transform, or build upon this work, you may
  distribute the resulting work only under the same or similar license to this
  one.

See http://creativecommons.org/licenses/by-sa/3.0/ for more details. -->
<!DOCTYPE svg PUBLIC "-//W3C//DTD SVG 1.0//EN" "http://www.w3.org/TR/2001/REC-SVG-20010904/DTD/svg10.dtd">
<svg xmlns="http://www.w3.org/2000/svg" width="109" height="109" viewBox="0 0 109 109">
	<g id="HelperGrid" style="opacity:0.75;">
		<rect x="0.5" y="0.5" style="fill:none;stroke:#404040;" width="108" height="108"/> 
		<line style="fill:none;stroke:#404040;" x1="0.5" y1="72.51" x2="108.5" y2="72.51"/>
		<line style="fill:none;stroke:#404040;" x1="0.5" y1="36.49" x2="108.5" y2="36.49"/>
		<line style="fill:none;stroke:#404040;" x1="72.5" y1="0.5" x2="72.5" y2="108.5"/>
		<line style="fill:none;stroke:#404040;" x1="36.5" y1="0.5" x2="36.5" y2="108.5"/>
	</g>
	<g id="Kanji">
		<text transform="matrix(1 0 0 1 0.5 93.3799)" style="font-size:108;">蝸</text>
	</g>
	<g id="StrokeNumbers" style="font-size:8;fill:#808080">
		<text transform="matrix(1 0 0 1 5.5 44.5)">1</text>
		<text transform="matrix(1 0 0 1 14.6602 34.5)">2</text>
		<text transform="matrix(1 0 0 1 17.5 59.5)">3</text>
		<text transform="matrix(1 0 0 1 14.5 14.5)">4</text>
		<text transform="matrix(1 0 0 1 3.7158 92.8477)">5</text>
		<text transform="matrix(1 0 0 1 35.5 72.5)">6</text>
		<text transform="matrix(1 0 0 1 47.5 24.5)">7</text>
		<text transform="matrix(1 0 0 1 56.5 13.5)">8</text>
		<text transform="matrix(1 0 0 1 71.25 25.5)">9</text>
		<text transform="matrix(1 0 0 1 63.5 37.5)">10</text>
		<text transform="matrix(1 0 0 1 40.5 57.5)">11</text>
		<text transform="matrix(1 0 0 1 47.5 47.5)">12</text>
		<text transform="matrix(1 0 0 1 53.25 69.5)">13</text>
		<text transform="matrix(1 0 0 1 63.5 59.5)">14</text>
		<text transform="matrix(1 0 0 1 66.25 73.5791)">15</text>
	</g>
	<g id="StrokePaths" style="fill:none;stroke:#404040;stroke-width:3;stroke-linecap:round;stroke-linejoin:round;">
		<path d="M10.76,36.4c0.51,0.62,1.14,1.72,1.25,2.54c0.97,7.12,2.09,16.34,3.49,26.96"/>
		<path d="M11.72,38.48c6.93-0.97,21.11-3.33,26.13-3.7c1.96-0.14,2.86,1.38,2.62,2.83c-0.83,4.98-2.48,14.84-3.83,23.12"/>
		<path d="M15.26,62.93c5.58-0.98,15.96-1.48,23.76-2.39"/>
		<path d="M23.42,14.25c1.08,1,2.26,2.75,2.26,4.47c0,4.78-0.2,52.78-0.2,66.16"/>
		<path d="M12.07,89.27c0.6,1.16,2.46,1.11,3.06,0.82c0.6-0.29,16.37-7.34,22.26-9.97"/>
		<path d="M32.75,71.5c2.75,2.81,7.12,11.53,7.81,15.89"/>
		<path d="M54.2,16.3c0.52,1.15,1.41,3.03,1.55,5.11c0.52,7.6,0.4,19.74,0.92,29.18"/>
		<path d="M55.75,17.79c7.01-0.96,26.54-3.28,29.67-3.79c1.48-0.24,2.95,0.76,2.58,2.87c-0.74,4.31-2.21,23.46-2.95,30.17"/>
		<path d="M71,29.66c2.45-0.23,11.83-1.34,15.33-1.8"/>
		<path d="M69.52,27.74c0.76,0.46,1.22,2.07,1.37,2.99c0.15,0.92,0.6,13.45,0.44,19.21"/>
		<path d="M47.66,49.09c0.52,1.15,1.66,3.01,1.9,5.07c0.35,3,1.69,33.34,1.65,40.09"/>
		<path d="M49.06,51.9c6.64-0.92,41.78-3.71,43.09-4.03c2.8-0.69,4.09,1.62,4.19,2.76c0.35,3.92-2.13,31.99-3.22,37.09c-1.92,8.98-5.97,4.38-8.07,1.38"/>
		<path d="M59.64,61.12c0.29,0.31,0.58,0.57,0.71,0.96c1,3.09,2.85,10.83,3.54,16.39"/>
		<path d="M61.1,63.33c6.57-1.42,12.69-1.88,17.84-2.5c1.88-0.23,3.01,1.34,2.74,2.68c-1.12,5.52-1.57,6.26-2.66,11.25"/>
		<path d="M64.02,76.66c3.96-0.46,11.29-0.75,16.73-1.46"/>
	</g>
</svg>
