<?xml version="1.0" encoding="UTF-8"?>
<!DOCTYPE svg PUBLIC "-//W3C//DTD SVG 1.0//EN" "http://www.w3.org/TR/2001/REC-SVG-20010904/DTD/svg10.dtd">
<svg xmlns="http://www.w3.org/2000/svg" width="109" height="109" viewBox="0 0 109 109">
	<g id="HelperGrid" style="opacity:0.75;">
		<rect x="0.5" y="0.5" style="fill:none;stroke:#404040;" width="108" height="108"/> 
		<line style="fill:none;stroke:#404040;" x1="0.5" y1="72.51" x2="108.5" y2="72.51"/>
		<line style="fill:none;stroke:#404040;" x1="0.5" y1="36.49" x2="108.5" y2="36.49"/>
		<line style="fill:none;stroke:#404040;" x1="72.5" y1="0.5" x2="72.5" y2="108.5"/>
		<line style="fill:none;stroke:#404040;" x1="36.5" y1="0.5" x2="36.5" y2="108.5"/>
	</g>
	<g id="Kanji">
		<text transform="matrix(1 0 0 1 0.5 93.3799)" style="font-size:108;">螫</text>
	</g>
	<g id="StrokeNumbers" style="font-size:8;fill:#808080">
		<text transform="matrix(1 0 0 1 10.5 21.5)">1</text>
		<text transform="matrix(1 0 0 1 22.75 11.3047)">2</text>
		<text transform="matrix(1 0 0 1 5.25 32.5)">3</text>
		<text transform="matrix(1 0 0 1 22.5 38.5)">4</text>
		<text transform="matrix(1 0 0 1 32.5 39.5)">5</text>
		<text transform="matrix(1 0 0 1 11.25 42.5049)">6</text>
		<text transform="matrix(1 0 0 1 44.5 36.5)">7</text>
		<text transform="matrix(1 0 0 1 54.5 14.5)">8</text>
		<text transform="matrix(1 0 0 1 67.5 20.5)">9</text>
		<text transform="matrix(1 0 0 1 67.5 31.5)">10</text>
		<text transform="matrix(1 0 0 1 57.5 39.5)">11</text>
		<text transform="matrix(1 0 0 1 21.25 75.5)">12</text>
		<text transform="matrix(1 0 0 1 34.5 67.5)">13</text>
		<text transform="matrix(1 0 0 1 37.75 78.5)">14</text>
		<text transform="matrix(1 0 0 1 42.5 63.5)">15</text>
		<text transform="matrix(1 0 0 1 11.5 95.5)">16</text>
		<text transform="matrix(1 0 0 1 79.5 86.5)">17</text>
	</g>
	<g id="StrokePaths" style="fill:none;stroke:#404040;stroke-width:3;stroke-linecap:round;stroke-linejoin:round;">
		<path d="M16.26,20.91c0.9,0.39,2.54,0.43,3.44,0.39c7.05-0.3,18.8-1.05,26.15-1.99c1.49-0.19,2.4,0.19,3.15,0.38"/>
		<path d="M30.61,10.95c1.31,0.67,2.61,1.87,2.61,3.67c0,5.4,0.16,10.25,0,15.09"/>
		<path d="M11.88,31.87c1.02,0.25,3.81,0.31,4.83,0.25c9.62-0.53,21.04-2.38,31.61-3.23c1.69-0.14,2.71,0.12,3.56,0.25"/>
		<path d="M27.96,33.55c0.48,0.57,1.05,2.38,0.96,3.34C27.88,47.39,27,55,20.59,61.32"/>
		<path d="M37.82,31.81c0.08,0.3,1.09,0.92,1.09,2.81c0,12.13-0.12,16.36-0.12,19.44c0,7.62-4.54,1.55-5.85,0.78"/>
		<path d="M19.23,38.83c0.02,0.38,0.05,0.99-0.04,1.53c-0.54,3.24-2.83,9.47-7.05,13.81"/>
		<path d="M45.62,38.99c2.08,1.79,5.38,7.37,5.9,10.16"/>
		<path d="M62.84,13.62c0.02,0.51,0.14,1.36-0.04,2.07c-1.16,4.54-3.96,13.76-7.97,20.05"/>
		<path d="M62.91,23.79c0.96,0.14,2.75,0,3.27-0.02C71.56,23.55,80.5,22,88.6,20.63c0.88-0.15,3.05-0.1,3.59,0.04"/>
		<path d="M79.92,24.21c0.42,0.73-0.01,2.41-0.79,3.59C72.25,38.25,66,47.5,53.79,54.48"/>
		<path d="M59.41,29.95c6.41,6.22,18.21,18.26,26.77,24.15c1.58,1.08,3.25,1.81,4.57,1.92"/>
		<path d="M30.95,67.81c0.74,0.53,1.27,1.85,1.41,2.55c1.01,5.09,1.18,3.79,2.59,13.43"/>
		<path d="M32.92,69.36c11.3-1.02,35.01-2.95,43.19-3.34c3.19-0.15,3.57,1.68,3.02,3.88c-0.77,3.1-1.91,5.1-2.93,8.97"/>
		<path d="M35.38,81.74c9.09-1.02,31.05-2.1,43.77-3.06"/>
		<path d="M52.98,56.75c1,0.39,1.6,1.75,1.8,2.52c0.2,0.78,0,28.09-0.2,32.94"/>
		<path d="M22.85,95.23c1.16,0.52,1.85,1.16,3.01,1.03c1.16-0.13,44.48-6.05,51.66-7.08"/>
		<path d="M71.11,83.75c6,2.51,15.5,10.33,17,14.24"/>
	</g>
</svg>
