<?xml version="1.0" encoding="UTF-8"?>
<!DOCTYPE svg PUBLIC "-//W3C//DTD SVG 1.0//EN" "http://www.w3.org/TR/2001/REC-SVG-20010904/DTD/svg10.dtd">
<svg xmlns="http://www.w3.org/2000/svg" width="109" height="109" viewBox="0 0 109 109">
	<g id="HelperGrid" style="opacity:0.75;">
		<rect x="0.5" y="0.5" style="fill:none;stroke:#404040;" width="108" height="108"/> 
		<line style="fill:none;stroke:#404040;" x1="0.5" y1="72.51" x2="108.5" y2="72.51"/>
		<line style="fill:none;stroke:#404040;" x1="0.5" y1="36.49" x2="108.5" y2="36.49"/>
		<line style="fill:none;stroke:#404040;" x1="72.5" y1="0.5" x2="72.5" y2="108.5"/>
		<line style="fill:none;stroke:#404040;" x1="36.5" y1="0.5" x2="36.5" y2="108.5"/>
	</g>
	<g id="Kanji">
		<text transform="matrix(1 0 0 1 0.5 93.3799)" style="font-size:108;">衛</text>
	</g>
	<g id="StrokeNumbers" style="font-size:8;fill:#808080">
		<text transform="matrix(1 0 0 1 22.5 18.5)">1</text>
		<text transform="matrix(1 0 0 1 20.25 40.6299)">2</text>
		<text transform="matrix(1 0 0 1 17.5 66.5)">3</text>
		<text transform="matrix(1 0 0 1 38.25 21.5)">4</text>
		<text transform="matrix(1 0 0 1 43.5 11.5)">5</text>
		<text transform="matrix(1 0 0 1 33.5 33.5)">6</text>
		<text transform="matrix(1 0 0 1 33.75 52.5)">7</text>
		<text transform="matrix(1 0 0 1 41.25 43.1299)">8</text>
		<text transform="matrix(1 0 0 1 45.75 52.6299)">9</text>
		<text transform="matrix(1 0 0 1 38.5 62.5)">10</text>
		<text transform="matrix(1 0 0 1 30.75 67.5)">11</text>
		<text transform="matrix(1 0 0 1 28.5 76.5)">12</text>
		<text transform="matrix(1 0 0 1 56.5 60.5)">13</text>
		<text transform="matrix(1 0 0 1 72.5 25.5)">14</text>
		<text transform="matrix(1 0 0 1 69.5 43.5)">15</text>
		<text transform="matrix(1 0 0 1 74.5 55.6299)">16</text>
	</g>
	<g id="StrokePaths" style="fill:none;stroke:#404040;stroke-width:3;stroke-linecap:round;stroke-linejoin:round;">
		<path d="M29.38,17.62c0.03,0.37-0.09,1.04-0.31,1.5c-1.53,3.23-5.56,8.85-11.18,14.32"/>
		<path d="M27.53,38.08c0.05,0.6,0.16,1.62-0.09,2.39c-2.04,6.15-8.37,14.25-16.69,22.59"/>
		<path d="M24,50.49c0.69,0.69,1.18,1.76,1.18,2.75c0,0.59,0,24.25-0.03,34.13c-0.01,2.09-0.01,3.56-0.02,4.08"/>
		<path d="M48.77,14.26c0.48,0.99,0.83,1.63,0.66,2.71c-1.05,6.65-2.66,14.57-3.34,17.5"/>
		<path d="M38.11,24.18c1.34,0.86,2.64,0.79,4.11,0.6c5.86-0.75,13.7-1.94,17.03-2.5c2.37-0.4,3.59,0.74,2.91,2.96C61,29,60.62,30.38,59.8,32.93"/>
		<path d="M34.94,36c1.56,0.38,3.74,0.21,5.2,0.09c5.46-0.46,15.8-1.53,24.74-2.15c1.63-0.11,3.31-0.36,4.91,0.1"/>
		<path d="M38.7,43.67c0.76,0.76,1.3,1.98,1.38,2.95c0.48,2.1,1.01,4.12,1.57,6.61c0.23,1.01,0.46,2.1,0.7,3.31"/>
		<path d="M40.46,44.59c5.92-0.84,18.24-2.05,21.06-2.47c2.48-0.37,2.98,1.13,2.5,2.75c-0.36,1.22-1.81,6.22-1.97,7.1"/>
		<path d="M43.26,54.95c3.42-0.28,10.94-1.14,16.11-1.62c1.55-0.14,2.89-0.26,3.85-0.31"/>
		<path d="M38.7,64.54c0.61,0.24,2.38,0.71,2.99,0.66c5.31-0.46,15.56-1.96,22.5-3.11c1-0.17,1.62,0.11,2.12,0.24"/>
		<path d="M39.61,65c0.63,0.63,0.89,1.63,1.03,2.75c0.42,3.3,0.48,5.88,0.8,10.27"/>
		<path d="M33.37,79.26c2,0.49,4.09,0.29,6.11,0c8.87-1.3,20.39-2.89,27.28-3.21c1.87-0.09,3.62-0.29,5.59,0.03"/>
		<path d="M53.33,56.29c0.88,0.88,1.4,2.34,1.4,3.88c0,0.6-0.03,19.39-0.07,29.71c-0.01,2.8-0.03,4.98-0.04,6"/>
		<path d="M76.13,27.67c1,0.21,1.93,0.22,2.62,0.13c2.25-0.3,6.75-1.55,10.64-2.05c1.13-0.15,1.82-0.07,2.39,0.12"/>
		<path d="M70.38,46.17c0.94,0.38,2.66,0.48,3.6,0.38c5.52-0.55,15.77-2.17,20.86-2.63c1.56-0.14,2.5-0.07,3.29,0.12"/>
		<path d="M83.52,47.83c0.95,0.95,1.51,2.42,1.51,4.52c0,14.56-0.26,33.41-0.26,38.37c0,8.03-6.71-0.25-8.21-1.5"/>
	</g>
</svg>
