<?xml version="1.0" encoding="UTF-8"?>
<!-- Copyright (C) 2009 Ulrich Apel.
This work is distributed under the conditions of the Creative Commons
Attribution-Share Alike 3.0 Licence. This means you are free:
* to Share - to copy, distribute and transmit the work
* to Remix - to adapt the work

Under the following conditions:
* Attribution. You must attribute the work by stating your use of KanjiVG in
  your own copyright header and linking to KanjiVG's website
  (http://kanjivg.tagaini.net)
* Share Alike. If you alter, transform, or build upon this work, you may
  distribute the resulting work only under the same or similar license to this
  one.

See http://creativecommons.org/licenses/by-sa/3.0/ for more details. -->
<!DOCTYPE svg PUBLIC "-//W3C//DTD SVG 1.0//EN" "http://www.w3.org/TR/2001/REC-SVG-20010904/DTD/svg10.dtd">
<svg xmlns="http://www.w3.org/2000/svg" width="109" height="109" viewBox="0 0 109 109">
	<g id="HelperGrid" style="opacity:0.75;">
		<rect x="0.5" y="0.5" style="fill:none;stroke:#404040;" width="108" height="108"/> 
		<line style="fill:none;stroke:#404040;" x1="0.5" y1="72.51" x2="108.5" y2="72.51"/>
		<line style="fill:none;stroke:#404040;" x1="0.5" y1="36.49" x2="108.5" y2="36.49"/>
		<line style="fill:none;stroke:#404040;" x1="72.5" y1="0.5" x2="72.5" y2="108.5"/>
		<line style="fill:none;stroke:#404040;" x1="36.5" y1="0.5" x2="36.5" y2="108.5"/>
	</g>
	<g id="Kanji">
		<text transform="matrix(1 0 0 1 0.5 93.3799)" style="font-size:108;">被</text>
	</g>
	<g id="StrokeNumbers" style="font-size:8;fill:#808080">
		<text transform="matrix(1 0 0 1 17.25 13.6299)">1</text>
		<text transform="matrix(1 0 0 1 12.75 31.5547)">2</text>
		<text transform="matrix(1 0 0 1 23.25 69.1299)">3</text>
		<text transform="matrix(1 0 0 1 42.75 55.6299)">4</text>
		<text transform="matrix(1 0 0 1 35.25 72.1299)">5</text>
		<text transform="matrix(1 0 0 1 45.75 40.6299)">6</text>
		<text transform="matrix(1 0 0 1 53.25 30.1299)">7</text>
		<text transform="matrix(1 0 0 1 63.75 12.1299)">8</text>
		<text transform="matrix(1 0 0 1 60.75 48.1299)">9</text>
		<text transform="matrix(1 0 0 1 57.75 70.5547)">10</text>
	</g>
	<g id="StrokePaths" style="fill:none;stroke:#404040;stroke-width:3;stroke-linecap:round;stroke-linejoin:round;">
		<path d="M23.12,16c2.8,1.7,5.8,4.26,8.2,7.25"/>
		<path d="M13.2,34.86c0.94,0.39,2.86,0.78,4.46,0.61c3.22-0.34,16.87-4.33,19.19-4.99c2.33-0.66,4.01,1.29,2.76,3.35C32.5,45.5,23.75,56.62,10.5,69"/>
		<path d="M28.25,52.11c1.07,1.07,1.52,2.26,1.52,3.64c0,9.34,0.03,22.36,0.05,33.01c0,3.31,0.01,6.37,0.01,8.98"/>
		<path d="M41.43,45.64c0,0.86-0.47,1.67-1,2.2c-1.6,1.6-4.48,3.77-7.68,5.66"/>
		<path d="M32.83,56.5c3.07,2.53,6.37,5.82,9,10.25"/>
		<path d="M51.2,31.95c1.12,1.12,1.22,2.71,1.27,5.06C53,60.12,51.25,80,40.05,93.34"/>
		<path d="M53.29,33.79C65,32.12,77.5,30.25,87.48,28.65c10.21-1.64,4.35,4.07,0.37,8.17"/>
		<path d="M70.58,15.75c1.08,1.09,1.27,2.38,1.27,3.85c0,0.98-0.07,19.19-0.07,28.98"/>
		<path d="M59.75,51.44c1.28,0.36,2.59,0.41,5.16-0.13c2.57-0.53,16.52-3.89,18.29-4.42c1.77-0.54,3.48,1.33,2.68,3.18c-7.5,17.44-19.25,34.06-37.56,44.44"/>
		<path d="M59.08,59.23c4.08,0.58,16.67,17.52,27.92,28.88c2.37,2.4,5.16,4.51,8.09,6.19"/>
	</g>
</svg>
