<?xml version="1.0" encoding="UTF-8"?>
<!DOCTYPE svg PUBLIC "-//W3C//DTD SVG 1.0//EN" "http://www.w3.org/TR/2001/REC-SVG-20010904/DTD/svg10.dtd">
<svg xmlns="http://www.w3.org/2000/svg" width="109" height="109" viewBox="0 0 109 109">
	<g id="HelperGrid" style="opacity:0.75;">
		<rect x="0.5" y="0.5" style="fill:none;stroke:#404040;" width="108" height="108"/> 
		<line style="fill:none;stroke:#404040;" x1="0.5" y1="72.51" x2="108.5" y2="72.51"/>
		<line style="fill:none;stroke:#404040;" x1="0.5" y1="36.49" x2="108.5" y2="36.49"/>
		<line style="fill:none;stroke:#404040;" x1="72.5" y1="0.5" x2="72.5" y2="108.5"/>
		<line style="fill:none;stroke:#404040;" x1="36.5" y1="0.5" x2="36.5" y2="108.5"/>
	</g>
	<g id="Kanji">
		<text transform="matrix(1 0 0 1 0.5 93.3799)" style="font-size:108;">袴</text>
	</g>
	<g id="StrokeNumbers" style="font-size:8;fill:#808080">
		<text transform="matrix(1 0 0 1 16.5 12.5)">1</text>
		<text transform="matrix(1 0 0 1 4.5 33.5)">2</text>
		<text transform="matrix(1 0 0 1 21.25 63.5)">3</text>
		<text transform="matrix(1 0 0 1 39.5 40.5)">4</text>
		<text transform="matrix(1 0 0 1 31.5 66.5)">5</text>
		<text transform="matrix(1 0 0 1 42.5 22.5)">6</text>
		<text transform="matrix(1 0 0 1 58.5 11.5)">7</text>
		<text transform="matrix(1 0 0 1 79.5 31.104)">8</text>
		<text transform="matrix(1 0 0 1 60.5 43.5)">9</text>
		<text transform="matrix(1 0 0 1 49.5 55.5)">10</text>
		<text transform="matrix(1 0 0 1 47.5 67.5)">11</text>
	</g>
	<g id="StrokePaths" style="fill:none;stroke:#404040;stroke-width:3;stroke-linecap:round;stroke-linejoin:round;">
		<path d="M22.08,11.25c3.24,2.65,7.05,6.75,9,11"/>
		<path d="M11.87,33.51c2.51,0.76,5.03,0.8,7.56,0.12c5.47-1.2,13.16-3.64,14.93-4.15c2.22-0.64,3.86,1.06,2.6,3.04C29.58,44.08,20.11,57.15,9.25,65.93"/>
		<path d="M27.25,48.5c0.88,0.88,1.02,2,1.02,3.5c0,6.22,0.03,23.19,0.04,34c0.01,4.75,0.01,8.32,0.01,9.25"/>
		<path d="M41.52,43.14c0.02,1.13-0.3,2.13-0.94,2.99c-1.36,2.07-3.83,4.56-5.82,6.62"/>
		<path d="M32.33,55.25c3.33,2.35,5.4,5.13,8.25,9.25"/>
		<path d="M46.16,25.55c2.65,0.5,5.28,0.25,7.98-0.02c11.35-1.16,21.62-2.51,29.99-3.17c2.68-0.41,5.33-0.26,7.95,0.46"/>
		<path d="M66.06,12.5c0.19,1.5,0.08,2.96-0.33,4.4C61.5,31,55.25,44.75,42.15,54.44"/>
		<path d="M71,25.5c3.72,4.12,10.21,11.99,15.93,18.08c3.32,3.54,5.07,5.04,9.17,7.29"/>
		<path d="M56.34,45.85c1.46,0.25,2.94,0.33,4.42,0.26c3.43-0.36,7.49-0.86,11.67-1.63c1.49-0.27,2.88-0.56,4.36-0.18"/>
		<path d="M48.26,58.18c2.65,0.45,5.31,0.44,7.99-0.04c6.5-0.68,16.79-1.74,23.76-2.33c2.52-0.53,5.03-0.56,7.52-0.1"/>
		<path d="M60.13,59.82c0.25,1.18,0.12,2.06-0.43,3.48c-0.62,1.6-1.45,2.83-2.88,5.2c-1.66,2.75-0.36,4.04,2.44,3.48c8.74-1.73,15.13-2.31,21.21-3.33c3.54-0.59,3.92,1.71,3.28,4.26c-1.77,7.04-4.99,15.61-10.14,21.42c-4.79,5.39-5.6-0.08-7-1.64"/>
	</g>
</svg>
