<?xml version="1.0" encoding="UTF-8"?>
<!DOCTYPE svg PUBLIC "-//W3C//DTD SVG 1.0//EN" "http://www.w3.org/TR/2001/REC-SVG-20010904/DTD/svg10.dtd">
<svg xmlns="http://www.w3.org/2000/svg" width="109" height="109" viewBox="0 0 109 109">
	<g id="HelperGrid" style="opacity:0.75;">
		<rect x="0.5" y="0.5" style="fill:none;stroke:#404040;" width="108" height="108"/> 
		<line style="fill:none;stroke:#404040;" x1="0.5" y1="72.51" x2="108.5" y2="72.51"/>
		<line style="fill:none;stroke:#404040;" x1="0.5" y1="36.49" x2="108.5" y2="36.49"/>
		<line style="fill:none;stroke:#404040;" x1="72.5" y1="0.5" x2="72.5" y2="108.5"/>
		<line style="fill:none;stroke:#404040;" x1="36.5" y1="0.5" x2="36.5" y2="108.5"/>
	</g>
	<g id="Kanji">
		<text transform="matrix(1 0 0 1 0.5 93.3799)" style="font-size:108;">装</text>
	</g>
	<g id="StrokeNumbers" style="font-size:8;fill:#808080">
		<text transform="matrix(1 0 0 1 30.75 12.1299)">1</text>
		<text transform="matrix(1 0 0 1 15.75 20.5)">2</text>
		<text transform="matrix(1 0 0 1 12.75 46.5)">3</text>
		<text transform="matrix(1 0 0 1 47.5 24.5)">4</text>
		<text transform="matrix(1 0 0 1 57.75 12.5)">5</text>
		<text transform="matrix(1 0 0 1 49.5 40.5)">6</text>
		<text transform="matrix(1 0 0 1 45.75 51.5)">7</text>
		<text transform="matrix(1 0 0 1 11.25 62.9043)">8</text>
		<text transform="matrix(1 0 0 1 32.25 70.3291)">9</text>
		<text transform="matrix(1 0 0 1 30.5 87.5)">10</text>
		<text transform="matrix(1 0 0 1 65.5 65.5)">11</text>
		<text transform="matrix(1 0 0 1 57.5 69.5)">12</text>
	</g>
	<g id="StrokePaths" style="fill:none;stroke:#404040;stroke-width:3;stroke-linecap:round;stroke-linejoin:round;">
		<path d="M38.81,12.75c0.84,0.38,1.34,1.73,1.5,2.5c0.17,0.77,0,30.7-0.17,35.5"/>
		<path d="M23.52,19.29c2.84,1.37,7.34,5.64,8.05,7.78"/>
		<path d="M20.66,45.29c1.73,0.55,2.89,0.31,3.98-0.36c3.18-1.98,6.35-4.4,9.24-6.92"/>
		<path d="M48.96,26.86c0.75,0.42,2.12,0.48,2.87,0.42c7.79-0.7,25.46-2.66,34.27-3.4c1.24-0.1,1.99,0.2,2.62,0.41"/>
		<path d="M65.99,12.4c0.96,0.38,1.54,1.73,1.73,2.5c0.19,0.77-0.19,14.92-0.19,26.63"/>
		<path d="M50.9,42.68c0.74,0.29,2.09,0.31,2.83,0.29c9.75-0.34,19.08-2.51,29.37-2.48c1.23,0,1.97,0.14,2.58,0.28"/>
		<path d="M51,48.73c2.12,0.79,5.21,3.89,5.62,5.44"/>
		<path d="M18.75,61.18c1.35,0.1,4.42,0.65,5.72,0.52C35.04,60.6,71.64,57.62,86,57.34c2.22-0.04,3.35,0.04,5,0.66"/>
		<path d="M48.13,59.66c0.09,0.62,0.36,1.64-0.18,2.47C44.48,67.5,33.18,77.29,15.8,85.77"/>
		<path d="M39.62,73.91c0.88,1.09,1.44,1.84,1.44,3.39c0,11.16-0.31,16.9-0.31,18.79c0,1.89,1.12,2.96,2.53,1.54c1.42-1.42,13.55-11.19,15.44-12.6"/>
		<path d="M74.63,62.92c0.03,0.3,0.3,1.45,0.13,1.85c-1.08,2.48-4.46,6.03-9.96,10.97"/>
		<path d="M52.25,67.75c3.96,0.18,29.44,20.3,34.53,23.91c1.91,1.36,3.56,1.94,5.47,2.33"/>
	</g>
</svg>
