<?xml version="1.0" encoding="UTF-8"?>
<!-- Copyright (C) 2009 Ulrich Apel.
This work is distributed under the conditions of the Creative Commons
Attribution-Share Alike 3.0 Licence. This means you are free:
* to Share - to copy, distribute and transmit the work
* to Remix - to adapt the work

Under the following conditions:
* Attribution. You must attribute the work by stating your use of KanjiVG in
  your own copyright header and linking to KanjiVG's website
  (http://kanjivg.tagaini.net)
* Share Alike. If you alter, transform, or build upon this work, you may
  distribute the resulting work only under the same or similar license to this
  one.

See http://creativecommons.org/licenses/by-sa/3.0/ for more details. -->
<!DOCTYPE svg PUBLIC "-//W3C//DTD SVG 1.0//EN" "http://www.w3.org/TR/2001/REC-SVG-20010904/DTD/svg10.dtd">
<svg xmlns="http://www.w3.org/2000/svg" width="109" height="109" viewBox="0 0 109 109">
	<g id="HelperGrid" style="opacity:0.75;">
		<rect x="0.5" y="0.5" style="fill:none;stroke:#404040;" width="108" height="108"/> 
		<line style="fill:none;stroke:#404040;" x1="0.5" y1="72.51" x2="108.5" y2="72.51"/>
		<line style="fill:none;stroke:#404040;" x1="0.5" y1="36.49" x2="108.5" y2="36.49"/>
		<line style="fill:none;stroke:#404040;" x1="72.5" y1="0.5" x2="72.5" y2="108.5"/>
		<line style="fill:none;stroke:#404040;" x1="36.5" y1="0.5" x2="36.5" y2="108.5"/>
	</g>
	<g id="Kanji">
		<text transform="matrix(1 0 0 1 0.5 93.3799)" style="font-size:108;">裹</text>
	</g>
	<g id="StrokeNumbers" style="font-size:8;fill:#808080">
		<text transform="matrix(1 0 0 1 43.5 9.5)">1</text>
		<text transform="matrix(1 0 0 1 12.5 21.5)">2</text>
		<text transform="matrix(1 0 0 1 22.5 35.5)">3</text>
		<text transform="matrix(1 0 0 1 33.5 28.5)">4</text>
		<text transform="matrix(1 0 0 1 37.5 36.5)">5</text>
		<text transform="matrix(1 0 0 1 38.5 44.5)">6</text>
		<text transform="matrix(1 0 0 1 12.5 54.6797)">7</text>
		<text transform="matrix(1 0 0 1 58.5 33.5)">8</text>
		<text transform="matrix(1 0 0 1 29.5 61.5)">9</text>
		<text transform="matrix(1 0 0 1 77.5 56.4541)">10</text>
		<text transform="matrix(1 0 0 1 41.5 64.5)">11</text>
		<text transform="matrix(1 0 0 1 30.75 89.5)">12</text>
		<text transform="matrix(1 0 0 1 63.5 64.5)">13</text>
		<text transform="matrix(1 0 0 1 50.5 75.5)">14</text>
	</g>
	<g id="StrokePaths" style="fill:none;stroke:#404040;stroke-width:3;stroke-linecap:round;stroke-linejoin:round;">
		<path d="M51.79,9.75c0.66,0.35,1.75,1.59,1.75,2.42c0,1.35-0.09,5.27-0.09,6.76"/>
		<path d="M19.5,21.25c1.42,0.06,4.64,0.4,6.02,0.33c15.35-0.7,40.63-4.17,55.74-4.35c2.33-0.03,3.52,0.03,5.26,0.43"/>
		<path d="M29.59,29.22c0.55,0.38,1.33,0.83,1.33,1.39c0,0.56,3.67,15.21,3.67,15.49c0,0.28,0.1,0.27,0.19,0.83"/>
		<path d="M31.03,30.05c1.64-0.17,41.78-4.28,43.28-4.37c1.97-0.12,3.69,1.07,3.7,2.37c0.02,2.21-3.29,14.67-3.29,15.09"/>
		<path d="M32.94,37.83c2.22-0.14,41.13-4,43.64-4.16"/>
		<path d="M35.46,45.59c4.53-0.59,33.32-3.32,38.96-3.94"/>
		<path d="M19.86,52.77c1.23,0.11,4.52,0.26,7.81,0.2c9.04-0.15,28.86-3.1,55.17-4.32c3.29-0.15,4.11,0.02,6.16,0.1"/>
		<path d="M51.9,28.33c1.08,0.26,1.72,1.19,1.94,1.72c0.21,0.53,0,24.4-0.22,27.7"/>
		<path d="M38.91,57.67c0.05,0.89-0.26,1.61-0.57,2.02c-3.46,4.63-10.82,9.69-16.59,12.16"/>
		<path d="M68.84,54.65c6.41,1.85,12.41,5.6,16.6,10.11"/>
		<path d="M51.42,61.16c0.1,0.65,0.38,1.72-0.19,2.6c-3.69,5.65-19.17,17.92-34.17,24.89"/>
		<path d="M40.22,77.17c0.45,0.31,0.94,1.62,0.94,2.16c-0.03,6.85-0.3,15.67-0.3,16.83c0,1.16,1.11,1.82,2.52,0.95c1.41-0.87,10.88-8.86,16.34-12.74"/>
		<path d="M74.02,62.62c0.02,0.24,0.26,1.16,0.11,1.48c-0.91,1.98-3.74,4.81-8.35,8.76"/>
		<path d="M55.54,65.83c1.42,0.83,3.7,3.18,4.09,3.54c5.82,5.24,19.96,18.63,23.89,21.71c1.48,1.17,2.75,1.66,4.23,1.99"/>
	</g>
</svg>
