<?xml version="1.0" encoding="UTF-8"?>
<!-- Copyright (C) 2009 Ulrich Apel.
This work is distributed under the conditions of the Creative Commons
Attribution-Share Alike 3.0 Licence. This means you are free:
* to Share - to copy, distribute and transmit the work
* to Remix - to adapt the work

Under the following conditions:
* Attribution. You must attribute the work by stating your use of KanjiVG in
  your own copyright header and linking to KanjiVG's website
  (http://kanjivg.tagaini.net)
* Share Alike. If you alter, transform, or build upon this work, you may
  distribute the resulting work only under the same or similar license to this
  one.

See http://creativecommons.org/licenses/by-sa/3.0/ for more details. -->
<!DOCTYPE svg PUBLIC "-//W3C//DTD SVG 1.0//EN" "http://www.w3.org/TR/2001/REC-SVG-20010904/DTD/svg10.dtd">
<svg xmlns="http://www.w3.org/2000/svg" width="109" height="109" viewBox="0 0 109 109">
	<g id="HelperGrid" style="opacity:0.75;">
		<rect x="0.5" y="0.5" style="fill:none;stroke:#404040;" width="108" height="108"/> 
		<line style="fill:none;stroke:#404040;" x1="0.5" y1="72.51" x2="108.5" y2="72.51"/>
		<line style="fill:none;stroke:#404040;" x1="0.5" y1="36.49" x2="108.5" y2="36.49"/>
		<line style="fill:none;stroke:#404040;" x1="72.5" y1="0.5" x2="72.5" y2="108.5"/>
		<line style="fill:none;stroke:#404040;" x1="36.5" y1="0.5" x2="36.5" y2="108.5"/>
	</g>
	<g id="Kanji">
		<text transform="matrix(1 0 0 1 0.5 93.3799)" style="font-size:108;">褂</text>
	</g>
	<g id="StrokeNumbers" style="font-size:8;fill:#808080">
		<text transform="matrix(1 0 0 1 13.5 14.5)">1</text>
		<text transform="matrix(1 0 0 1 3.5 34.5)">2</text>
		<text transform="matrix(1 0 0 1 20.5 65.5)">3</text>
		<text transform="matrix(1 0 0 1 36.5 44.5)">4</text>
		<text transform="matrix(1 0 0 1 29.5 68.5)">5</text>
		<text transform="matrix(1 0 0 1 43.5 32.5)">6</text>
		<text transform="matrix(1 0 0 1 49 19.5)">7</text>
		<text transform="matrix(1 0 0 1 43.5 47.5)">8</text>
		<text transform="matrix(1 0 0 1 42.5 65.5)">9</text>
		<text transform="matrix(1 0 0 1 43.25 58.5)">10</text>
		<text transform="matrix(1 0 0 1 36 82.3799)">11</text>
		<text transform="matrix(1 0 0 1 65.5 13.5)">12</text>
		<text transform="matrix(1 0 0 1 84.5 45.5)">13</text>
	</g>
	<g id="StrokePaths" style="fill:none;stroke:#404040;stroke-width:3;stroke-linecap:round;stroke-linejoin:round;">
		<path d="M20.58,15.25c3.33,2.35,6.9,5.88,9.75,10"/>
		<path d="M10.7,34.86c1.8,0.64,4.41,1.05,5.96,0.61c1.9-0.54,15.37-4.83,17.69-5.49c2.33-0.66,4.58,0.83,3.26,2.85C29.86,44.65,23,55,10,67"/>
		<path d="M25.5,51.11c0.12,0.29,1.65,1.53,1.77,3.39c0.57,8.93,0.06,38.2,0.06,41.25"/>
		<path d="M38.31,46.89c0.15,0.77,0.3,0.98,0,1.53c-0.92,1.69-3.76,5.83-5.61,7.83"/>
		<path d="M30.08,56.75c2.9,2.18,6.01,5.44,8.5,9.25"/>
		<path d="M44.21,35.72c0.51,0.25,2.45,0.3,2.96,0.25c5.08-0.47,11.83-1.72,18.83-2.93c0.84-0.14,1.36,0.12,1.79,0.25"/>
		<path d="M55.48,21c0.09,0.24,1.36,1.27,1.36,2.83c0,10.02,0.11,12.46,0.11,25.72"/>
		<path d="M43.61,50.48c0.86,0.42,2.44,0.51,3.29,0.42c6.1-0.65,12.35-1.65,21.57-3.26c1.41-0.25,1.79-0.3,2.51-0.09"/>
		<path d="M43.16,68.44c0.48,0.26,2.36,0.3,2.85,0.26c6.6-0.6,14.33-2.17,20.58-2.99c0.79-0.1,1.28,0.12,1.69,0.25"/>
		<path d="M55.59,56c0.07,0.23,1,1.2,1,2.67c0,9.46,0.08,10.9,0.08,23.4"/>
		<path d="M42.29,86.54c1.23,0.85,2.33,0.95,3.08,0.62c10.34-4.52,15.24-6.77,24.99-10.94"/>
		<path d="M78.43,14.05c0.6,0.43,1.86,3.23,1.98,4.09c0.12,0.86-0.08,73.84-0.2,79.24"/>
		<path d="M82,45.75c5.73,2.78,14.74,10.18,16.25,15.75"/>
	</g>
</svg>
