<?xml version="1.0" encoding="UTF-8"?>
<!DOCTYPE svg PUBLIC "-//W3C//DTD SVG 1.0//EN" "http://www.w3.org/TR/2001/REC-SVG-20010904/DTD/svg10.dtd">
<svg xmlns="http://www.w3.org/2000/svg" width="109" height="109" viewBox="0 0 109 109">
	<g id="HelperGrid" style="opacity:0.75;">
		<rect x="0.5" y="0.5" style="fill:none;stroke:#404040;" width="108" height="108"/> 
		<line style="fill:none;stroke:#404040;" x1="0.5" y1="72.51" x2="108.5" y2="72.51"/>
		<line style="fill:none;stroke:#404040;" x1="0.5" y1="36.49" x2="108.5" y2="36.49"/>
		<line style="fill:none;stroke:#404040;" x1="72.5" y1="0.5" x2="72.5" y2="108.5"/>
		<line style="fill:none;stroke:#404040;" x1="36.5" y1="0.5" x2="36.5" y2="108.5"/>
	</g>
	<g id="Kanji">
		<text transform="matrix(1 0 0 1 0.5 93.3799)" style="font-size:108;">襴</text>
	</g>
	<g id="StrokeNumbers" style="font-size:8;fill:#808080">
		<text transform="matrix(1 0 0 1 14.5 14.5)">1</text>
		<text transform="matrix(1 0 0 1 6.5 36.5)">2</text>
		<text transform="matrix(1 0 0 1 21.5 67.5)">3</text>
		<text transform="matrix(1 0 0 1 38.5 44.5)">4</text>
		<text transform="matrix(1 0 0 1 30.5 71.5)">5</text>
		<text transform="matrix(1 0 0 1 40.25 26.5)">6</text>
		<text transform="matrix(1 0 0 1 49.25 16.5)">7</text>
		<text transform="matrix(1 0 0 1 52.5 28.5)">8</text>
		<text transform="matrix(1 0 0 1 52.5 39.5)">9</text>
		<text transform="matrix(1 0 0 1 67.5 23.9541)">10</text>
		<text transform="matrix(1 0 0 1 79.25 14.5)">11</text>
		<text transform="matrix(1 0 0 1 80.25 25.5)">12</text>
		<text transform="matrix(1 0 0 1 80.75 36.5)">13</text>
		<text transform="matrix(1 0 0 1 54.5 47.5)">14</text>
		<text transform="matrix(1 0 0 1 50.25 65.5)">15</text>
		<text transform="matrix(1 0 0 1 54.25 56.5)">16</text>
		<text transform="matrix(1 0 0 1 63.5 63.5)">17</text>
		<text transform="matrix(1 0 0 1 71.75 62.5)">18</text>
		<text transform="matrix(1 0 0 1 60.5 69.5293)">19</text>
		<text transform="matrix(1 0 0 1 80.25 76.3789)">21</text>
		<text transform="matrix(1 0 0 1 67.25 41.5)">20</text>
		<text transform="matrix(1 0 0 1 55.25 77.3799)">22</text>
	</g>
	<g id="StrokePaths" style="fill:none;stroke:#404040;stroke-width:3;stroke-linecap:round;stroke-linejoin:round;">
		<path d="M20.58,14.25c3.5,2.82,7.25,7.06,10.25,12"/>
		<path d="M13.38,35.83c0.84,0.39,3.11,0.77,4.56,0.61c3.81-0.44,15.18-3.81,17.27-4.46c2.09-0.65,4.12,0.82,2.93,2.83C31.17,46.56,21.76,59.83,11.5,68.75"/>
		<path d="M26.5,53.11c0.12,0.29,1.65,1.53,1.77,3.39c0.57,8.93,0.06,36.2,0.06,39.25"/>
		<path d="M40.79,47.89c0.17,0.87,0.33,1.1,0,1.74c-1,1.91-4.09,6.61-6.09,8.87"/>
		<path d="M31.33,59.5c3.33,2.71,6.9,6.76,9.75,11.5"/>
		<path d="M46.14,18c0.52,0.45,1.63,3.41,1.73,4.31c0.1,0.91-0.07,66.69-0.17,72.37"/>
		<path d="M48.02,20.23c1.74-0.1,14.18-2.62,15.76-2.74c1.32-0.1,2,0.89,2.07,1.68c0.1,1.21-0.61,14.83-1.46,22.08"/>
		<path d="M48.33,30.82c4.27-0.58,12.48-1.57,17.37-1.7"/>
		<path d="M48.49,42.15c5.78-1.13,10.26-1.99,15.37-2.5"/>
		<path d="M76.18,16.5c0.31,0.47,0.63,1.98,0.63,2.61c0,0.63,0.17,21.83,0.17,22.15"/>
		<path d="M77.34,17.98c1.78-0.09,15.43-2.38,17.05-2.49c1.35-0.09,2.13,0.98,2.12,1.53c-0.35,16.61-0.35,61.37-0.35,73.42c0,7.81-3.88,3.06-6.12,0.46"/>
		<path d="M77.62,27.99c5.02-0.49,14.65-1.24,18.68-1.91"/>
		<path d="M77.72,39.34c3.56,0,12.83-1.26,17.43-1.26"/>
		<path d="M57.28,49.91c1.34,0.27,2.57,0.41,3.8,0.31c5.24-0.44,13.57-1.3,19.01-2.04c1.34-0.18,2.9-0.04,3.8,0.03"/>
		<path d="M57.12,57.14c0.18,0.24,0.86,1.44,0.94,1.74c0.62,2.38,1.83,7.93,2.26,12.2"/>
		<path d="M58.29,57.99c5.37-0.95,22.79-2.57,24.89-2.79c1.31-0.14,2.49,1.29,2.29,2.62c-0.59,3.86-2.1,7.62-2.83,10.23"/>
		<path d="M63.09,60.19c1.04,1.06,2.69,4.36,2.95,6.01"/>
		<path d="M79.03,59.45c0.01,0.15,0.02,0.38-0.02,0.59c-0.23,1.25-1.55,3.99-3.35,5.67"/>
		<path d="M60.18,70.31c5.85-0.54,19.08-1.56,24.55-1.83"/>
		<path d="M69.11,43c0.56,0.29,1.36,2.31,1.47,2.89c0.11,0.58,0,44.09-0.11,47.73"/>
		<path d="M70.56,69.62c-2.76,5.49-9.93,13.25-15.67,16.35"/>
		<path d="M74.86,73.92c3.39,1.58,8.39,7.08,10.62,10.53"/>
	</g>
</svg>
