<?xml version="1.0" encoding="UTF-8"?>
<!-- Copyright (C) 2009 Ulrich Apel.
This work is distributed under the conditions of the Creative Commons
Attribution-Share Alike 3.0 Licence. This means you are free:
* to Share - to copy, distribute and transmit the work
* to Remix - to adapt the work

Under the following conditions:
* Attribution. You must attribute the work by stating your use of KanjiVG in
  your own copyright header and linking to KanjiVG's website
  (http://kanjivg.tagaini.net)
* Share Alike. If you alter, transform, or build upon this work, you may
  distribute the resulting work only under the same or similar license to this
  one.

See http://creativecommons.org/licenses/by-sa/3.0/ for more details. -->
<!DOCTYPE svg PUBLIC "-//W3C//DTD SVG 1.0//EN" "http://www.w3.org/TR/2001/REC-SVG-20010904/DTD/svg10.dtd">
<svg xmlns="http://www.w3.org/2000/svg" width="109" height="109" viewBox="0 0 109 109">
	<g id="HelperGrid" style="opacity:0.75;">
		<rect x="0.5" y="0.5" style="fill:none;stroke:#404040;" width="108" height="108"/> 
		<line style="fill:none;stroke:#404040;" x1="0.5" y1="72.51" x2="108.5" y2="72.51"/>
		<line style="fill:none;stroke:#404040;" x1="0.5" y1="36.49" x2="108.5" y2="36.49"/>
		<line style="fill:none;stroke:#404040;" x1="72.5" y1="0.5" x2="72.5" y2="108.5"/>
		<line style="fill:none;stroke:#404040;" x1="36.5" y1="0.5" x2="36.5" y2="108.5"/>
	</g>
	<g id="Kanji">
		<text transform="matrix(1 0 0 1 0.5 93.3799)" style="font-size:108;">規</text>
	</g>
	<g id="StrokeNumbers" style="font-size:8;fill:#808080">
		<text transform="matrix(1 0 0 1 9.75 35.5)">1</text>
		<text transform="matrix(1 0 0 1 5.25 52.6299)">2</text>
		<text transform="matrix(1 0 0 1 21.5 16.5)">3</text>
		<text transform="matrix(1 0 0 1 36.75 60.1299)">4</text>
		<text transform="matrix(1 0 0 1 47.25 25.5)">5</text>
		<text transform="matrix(1 0 0 1 57.5 15.3545)">6</text>
		<text transform="matrix(1 0 0 1 60.75 28.7803)">7</text>
		<text transform="matrix(1 0 0 1 60.7139 42.2046)">8</text>
		<text transform="matrix(1 0 0 1 60.7061 56.5)">9</text>
		<text transform="matrix(1 0 0 1 50.25 72.1299)">10</text>
		<text transform="matrix(1 0 0 1 75.5 70.5)">11</text>
	</g>
	<g id="StrokePaths" style="fill:none;stroke:#404040;stroke-width:3;stroke-linecap:round;stroke-linejoin:round;">
		<path d="M15.56,33.93c0.8,0.17,2.28,0.2,3.08,0.17c4.36-0.15,14.86-2.35,22.85-3.21c1.33-0.14,2.15,0.08,2.81,0.17"/>
		<path d="M12.64,51.58c0.8,0.16,2.28,0.21,3.08,0.16C21,51.43,34.5,48.8,43.2,48.47c1.34-0.05,2.15,0.08,2.82,0.16"/>
		<path d="M31.09,15.5c0.32,1.09,0.44,2.11,0.45,4.23C31.67,58.79,25.25,75,12.79,86.5"/>
		<path d="M31.97,60.54c4.38,3.73,8.5,9.65,10.53,14.74"/>
		<path d="M53.79,17.86c0.49,1.01,1.08,1.77,1.2,3.12C55.5,27,56.5,54.5,56.49,61.83"/>
		<path d="M55.8,19.23c2.76-0.17,25.26-3.29,27.77-3.49c2.09-0.17,3.74,0.94,3.57,2.2c-0.22,1.59-0.97,41.25-0.97,42.26"/>
		<path d="M57.25,32.56c4.55,0,9.2-0.85,13.71-1.37c1.47-0.17,2.95-0.34,4.38-0.5"/>
		<path d="M57.48,45c4.34,0,9.2-0.6,13.51-1.01c1.31-0.13,2.63-0.25,3.93-0.37"/>
		<path d="M58.19,59.36c5.48,0,20.14-2.03,27.22-2.03"/>
		<path d="M63.08,65.78c0.05,0.63,0.12,1.62-0.11,2.53c-1.39,5.33-8.85,17.03-19.74,24.19"/>
		<path d="M72.02,62.04c0.62,1.13,1.12,2.47,1.15,4.23c0.1,4.71-0.47,11.49-0.47,16.98c0,9,0.05,11.88,13.56,11.88c12.74,0,10.27-5.38,10.27-8.71"/>
	</g>
</svg>
