<?xml version="1.0" encoding="UTF-8"?>
<!DOCTYPE svg PUBLIC "-//W3C//DTD SVG 1.0//EN" "http://www.w3.org/TR/2001/REC-SVG-20010904/DTD/svg10.dtd">
<svg xmlns="http://www.w3.org/2000/svg" width="109" height="109" viewBox="0 0 109 109">
	<g id="HelperGrid" style="opacity:0.75;">
		<rect x="0.5" y="0.5" style="fill:none;stroke:#404040;" width="108" height="108"/> 
		<line style="fill:none;stroke:#404040;" x1="0.5" y1="72.51" x2="108.5" y2="72.51"/>
		<line style="fill:none;stroke:#404040;" x1="0.5" y1="36.49" x2="108.5" y2="36.49"/>
		<line style="fill:none;stroke:#404040;" x1="72.5" y1="0.5" x2="72.5" y2="108.5"/>
		<line style="fill:none;stroke:#404040;" x1="36.5" y1="0.5" x2="36.5" y2="108.5"/>
	</g>
	<g id="Kanji">
		<text transform="matrix(1 0 0 1 0.5 93.3799)" style="font-size:108;">訴</text>
	</g>
	<g id="StrokeNumbers" style="font-size:8;fill:#808080">
		<text transform="matrix(1 0 0 1 20.25 14.5)">1</text>
		<text transform="matrix(1 0 0 1 5.25 34.5547)">2</text>
		<text transform="matrix(1 0 0 1 12.5 49.479)">3</text>
		<text transform="matrix(1 0 0 1 13.5 63.5)">4</text>
		<text transform="matrix(1 0 0 1 12.5 80.8291)">5</text>
		<text transform="matrix(1 0 0 1 22.5 72.1299)">6</text>
		<text transform="matrix(1 0 0 1 27.5 88.5)">7</text>
		<text transform="matrix(1 0 0 1 69.5 14.5)">8</text>
		<text transform="matrix(1 0 0 1 48.5 40.5)">9</text>
		<text transform="matrix(1 0 0 1 60.75 41.5)">10</text>
		<text transform="matrix(1 0 0 1 70.5 52.5547)">11</text>
		<text transform="matrix(1 0 0 1 62.25 57.5)">12</text>
	</g>
	<g id="StrokePaths" style="fill:none;stroke:#404040;stroke-width:3;stroke-linecap:round;stroke-linejoin:round;">
		<path d="M26.43,14.5c2.65,1.77,6.84,7.25,7.5,10"/>
		<path d="M12.62,34.83c1.61,0.53,3.72,0.26,5.39,0.16C25.82,34.55,34.6,33.45,41,32.5c1.43-0.21,3.42-0.36,4.84-0.08"/>
		<path d="M19.68,48.31c1.22,0.35,2.81,0.16,4.07,0.1c4.08-0.21,9.22-1.03,13.38-1.65c1.45-0.22,3.19-0.5,4.64-0.25"/>
		<path d="M21.3,61.58c1.13,0.35,2.66,0.15,3.84,0.08c3.72-0.21,9.02-1.09,13.12-1.79c1.26-0.21,2.82-0.38,4.07-0.15"/>
		<path d="M19.51,74.3c0.84,0.84,1.23,1.85,1.45,2.84c0.73,3.3,1.56,8.49,2.32,13.1c0.25,1.51,0.49,2.96,0.72,4.26"/>
		<path d="M21.59,75.44c6.24-0.79,12.32-1.6,18.05-2.39c2.6-0.36,3.83,0.29,3.28,2.99c-0.74,3.6-1.67,7.23-3.14,13.26"/>
		<path d="M24.79,91.99c4.02-0.41,8.25-1.01,13.22-1.54c1.21-0.13,2.61-0.17,3.82-0.17"/>
		<path d="M79.14,14.5c0.15,1.16-0.19,1.91-1.01,2.75c-4.88,5-10.75,9.75-19.83,14.39"/>
		<path d="M54.84,31.79c1.19,1.19,1.35,2.3,1.37,4.29c0.29,33.68-1.76,45.54-8.19,54.7"/>
		<path d="M58.78,44.75c1.97,0,3.28-0.23,4.53-0.39c8.36-1.04,18.98-2.78,27.74-4.27c1.91-0.33,4.07-0.79,6-0.31"/>
		<path d="M78.75,44.6c1.26,1.26,1.56,2.77,1.56,4.49c0,0.73,0.05,27.71,0.06,41.9c0,4.76,0,8.08-0.01,8.5"/>
		<path d="M68.91,59.73c9.71,3.27,21.84,9.9,26.58,15.47"/>
	</g>
</svg>
