<?xml version="1.0" encoding="UTF-8"?>
<!DOCTYPE svg PUBLIC "-//W3C//DTD SVG 1.0//EN" "http://www.w3.org/TR/2001/REC-SVG-20010904/DTD/svg10.dtd">
<svg xmlns="http://www.w3.org/2000/svg" width="109" height="109" viewBox="0 0 109 109">
	<g id="HelperGrid" style="opacity:0.75;">
		<rect x="0.5" y="0.5" style="fill:none;stroke:#404040;" width="108" height="108"/> 
		<line style="fill:none;stroke:#404040;" x1="0.5" y1="72.51" x2="108.5" y2="72.51"/>
		<line style="fill:none;stroke:#404040;" x1="0.5" y1="36.49" x2="108.5" y2="36.49"/>
		<line style="fill:none;stroke:#404040;" x1="72.5" y1="0.5" x2="72.5" y2="108.5"/>
		<line style="fill:none;stroke:#404040;" x1="36.5" y1="0.5" x2="36.5" y2="108.5"/>
	</g>
	<g id="Kanji">
		<text transform="matrix(1 0 0 1 0.5 93.3799)" style="font-size:108;">詁</text>
	</g>
	<g id="StrokeNumbers" style="font-size:8;fill:#808080">
		<text transform="matrix(1 0 0 1 13.5 16.5)">1</text>
		<text transform="matrix(1 0 0 1 4.5 35.5)">2</text>
		<text transform="matrix(1 0 0 1 10.5 46.5)">3</text>
		<text transform="matrix(1 0 0 1 8.5 59.9043)">4</text>
		<text transform="matrix(1 0 0 1 10.5 81.5)">5</text>
		<text transform="matrix(1 0 0 1 19.5 70.5)">6</text>
		<text transform="matrix(1 0 0 1 23.5 89.5)">7</text>
		<text transform="matrix(1 0 0 1 46.5 40.5)">8</text>
		<text transform="matrix(1 0 0 1 58.5 13.5)">9</text>
		<text transform="matrix(1 0 0 1 42.5 79.9541)">10</text>
		<text transform="matrix(1 0 0 1 53.5 67.5)">11</text>
		<text transform="matrix(1 0 0 1 58.5 89.5)">12</text>
	</g>
	<g id="StrokePaths" style="fill:none;stroke:#404040;stroke-width:3;stroke-linecap:round;stroke-linejoin:round;">
		<path d="M20.38,16c3.48,1.72,9,7.07,9.87,9.75"/>
		<path d="M11.37,34.68c0.69,0.2,3.29,0.23,3.98,0.2c8.46-0.37,17.9-1.88,24.56-2.51c1.14-0.11,2.86,0.1,3.43,0.2"/>
		<path d="M17.73,45.56c0.38,0.12,2.71,0.13,3.1,0.12c3.97-0.14,10.42-0.93,14.21-1.55c0.63-0.1,3.29,0.06,3.61,0.12"/>
		<path d="M15.73,58.83c0.43,0.12,3.07,0.13,3.5,0.12c4.49-0.13,11.8-2.11,16.22-2.09c0.72,0,3.72,0.06,4.08,0.11"/>
		<path d="M15.64,72.9c0.37,0.39,0.79,0.69,0.91,1.2C17.6,78.57,18.94,87.95,20,94.5"/>
		<path d="M16.81,74.45c7.24-1.09,13.47-1.96,20.15-3.07c1.68-0.27,2.69,1.27,2.45,2.53c-1,5.21-1.87,7.13-3.64,15.81"/>
		<path d="M19.97,92.05c4.8-0.54,12.1-0.97,18.69-1.81"/>
		<path d="M44.55,43.23c0.84,0.3,3.1,0.57,5.35,0.41c12.88-0.96,29.13-3.93,42.38-3.93c2.26,0,2.82-0.3,4.23,0"/>
		<path d="M66.65,13.5c1.43,0.66,2.58,2.93,2.58,4.28c0,22.97-0.29,40.97-0.29,50.83"/>
		<path d="M51.54,69.39c0.3,0.8,0.65,1.36,0.75,1.97c0.75,4.46,2.41,16.44,3.46,24.89"/>
		<path d="M53.06,70.69c8.39-0.89,27.24-3.17,32.96-3.31c2.37-0.06,3.64,1.26,3.43,2.62c-0.78,5.13-2.3,13.37-3.58,20.18"/>
		<path d="M56.2,93.47c6.94-0.38,23.89-1.65,32.22-2.13"/>
	</g>
</svg>
