<?xml version="1.0" encoding="UTF-8"?>
<!-- Copyright (C) 2009 Ulrich Apel.
This work is distributed under the conditions of the Creative Commons
Attribution-Share Alike 3.0 Licence. This means you are free:
* to Share - to copy, distribute and transmit the work
* to Remix - to adapt the work

Under the following conditions:
* Attribution. You must attribute the work by stating your use of KanjiVG in
  your own copyright header and linking to KanjiVG's website
  (http://kanjivg.tagaini.net)
* Share Alike. If you alter, transform, or build upon this work, you may
  distribute the resulting work only under the same or similar license to this
  one.

See http://creativecommons.org/licenses/by-sa/3.0/ for more details. -->
<!DOCTYPE svg PUBLIC "-//W3C//DTD SVG 1.0//EN" "http://www.w3.org/TR/2001/REC-SVG-20010904/DTD/svg10.dtd">
<svg xmlns="http://www.w3.org/2000/svg" width="109" height="109" viewBox="0 0 109 109">
	<g id="HelperGrid" style="opacity:0.75;">
		<rect x="0.5" y="0.5" style="fill:none;stroke:#404040;" width="108" height="108"/> 
		<line style="fill:none;stroke:#404040;" x1="0.5" y1="72.51" x2="108.5" y2="72.51"/>
		<line style="fill:none;stroke:#404040;" x1="0.5" y1="36.49" x2="108.5" y2="36.49"/>
		<line style="fill:none;stroke:#404040;" x1="72.5" y1="0.5" x2="72.5" y2="108.5"/>
		<line style="fill:none;stroke:#404040;" x1="36.5" y1="0.5" x2="36.5" y2="108.5"/>
	</g>
	<g id="Kanji">
		<text transform="matrix(1 0 0 1 0.5 93.3799)" style="font-size:108;">誼</text>
	</g>
	<g id="StrokeNumbers" style="font-size:8;fill:#808080">
		<text transform="matrix(1 0 0 1 15.25 15.25)">1</text>
		<text transform="matrix(1 0 0 1 2.5 36.125)">2</text>
		<text transform="matrix(1 0 0 1 9.25 48.25)">3</text>
		<text transform="matrix(1 0 0 1 9.25 61.25)">4</text>
		<text transform="matrix(1 0 0 1 9.25 80.25)">5</text>
		<text transform="matrix(1 0 0 1 19.25 70.25)">6</text>
		<text transform="matrix(1 0 0 1 23.25 87.25)">7</text>
		<text transform="matrix(1 0 0 1 56.25 13.25)">8</text>
		<text transform="matrix(1 0 0 1 41 27.25)">9</text>
		<text transform="matrix(1 0 0 1 50.25 26.25)">10</text>
		<text transform="matrix(1 0 0 1 45.25 55.6299)">11</text>
		<text transform="matrix(1 0 0 1 56.25 45.25)">12</text>
		<text transform="matrix(1 0 0 1 59.25 58.25)">13</text>
		<text transform="matrix(1 0 0 1 59.0781 72.25)">14</text>
		<text transform="matrix(1 0 0 1 42.25 90.25)">15</text>
	</g>
	<g id="StrokePaths" style="fill:none;stroke:#404040;stroke-width:3;stroke-linecap:round;stroke-linejoin:round;">
		<path d="M22.3,15.5c2.52,1.5,6.5,6.17,7.13,8.5"/>
		<path d="M8.87,33.83c0.71,0.23,3.4,0.27,4.1,0.23c8.73-0.42,18.48-2.67,24.83-2.87c1.18-0.04,2.95,0.11,3.54,0.23"/>
		<path d="M15.93,47.31c0.43,0.12,3.04,0.13,3.47,0.12c4.44-0.14,11.36-1.93,15.84-2.55c0.7-0.1,1.18,0.06,1.54,0.12"/>
		<path d="M17.55,60.08c0.38,0.12,2.71,0.13,3.1,0.12c3.97-0.13,10.93-2.11,14.83-2.09c0.63,0,1.79,0.06,2.1,0.11"/>
		<path d="M15.16,72.76c0.36,0.34,0.77,1.07,0.89,1.52c1.03,3.9,2.2,10.73,3.34,18.23"/>
		<path d="M16.49,74.12c6.69-0.83,14.37-2.41,20.54-3.25c1.55-0.21,2.48,0.96,2.26,1.91c-0.92,3.94-1.76,8.09-3.4,14.65"/>
		<path d="M20.18,90.06c4.99-0.5,9.91-0.9,16.76-1.68"/>
		<path d="M63.13,13.5c2.6,1.5,6.47,5.64,7.11,7.59"/>
		<path d="M47.96,27.42c0,3.33-2.61,12.5-3.8,14.72"/>
		<path d="M48.13,30.2c11.62-1.7,36.61-4.5,42.12-4.77c8.6-0.42,2.83,6.43-1.26,9.45"/>
		<path d="M54.18,47.03c0.53,0.69,0.89,1.36,1.07,2.03c0.18,0.67,0.46,40.82,0.4,42.3"/>
		<path d="M56.3,48.12c2.11-0.07,21.55-2.93,23.12-3.04c2.82-0.2,3.54,1.12,3.54,3.3c0,6.14-0.17,26.33-0.27,39.7"/>
		<path d="M56.44,62.07c4.49-0.41,8.96-1.02,13.43-1.56c1.21-0.15,2.42-0.29,3.6-0.42"/>
		<path d="M56.87,76.3c4.33-0.68,8.67-1.28,13.03-1.74c1.06-0.11,2.12-0.21,3.17-0.31"/>
		<path d="M42.76,92.84c1.26,0.41,3.56,0.47,4.82,0.41c13.07-0.68,26.68-2.5,46.94-2.67c2.09-0.02,3.35,0.2,4.4,0.4"/>
	</g>
</svg>
