<?xml version="1.0" encoding="UTF-8"?>
<!-- Copyright (C) 2009 Ulrich Apel.
This work is distributed under the conditions of the Creative Commons
Attribution-Share Alike 3.0 Licence. This means you are free:
* to Share - to copy, distribute and transmit the work
* to Remix - to adapt the work

Under the following conditions:
* Attribution. You must attribute the work by stating your use of KanjiVG in
  your own copyright header and linking to KanjiVG's website
  (http://kanjivg.tagaini.net)
* Share Alike. If you alter, transform, or build upon this work, you may
  distribute the resulting work only under the same or similar license to this
  one.

See http://creativecommons.org/licenses/by-sa/3.0/ for more details. -->
<!DOCTYPE svg PUBLIC "-//W3C//DTD SVG 1.0//EN" "http://www.w3.org/TR/2001/REC-SVG-20010904/DTD/svg10.dtd">
<svg xmlns="http://www.w3.org/2000/svg" width="109" height="109" viewBox="0 0 109 109">
	<g id="HelperGrid" style="opacity:0.75;">
		<rect x="0.5" y="0.5" style="fill:none;stroke:#404040;" width="108" height="108"/> 
		<line style="fill:none;stroke:#404040;" x1="0.5" y1="72.51" x2="108.5" y2="72.51"/>
		<line style="fill:none;stroke:#404040;" x1="0.5" y1="36.49" x2="108.5" y2="36.49"/>
		<line style="fill:none;stroke:#404040;" x1="72.5" y1="0.5" x2="72.5" y2="108.5"/>
		<line style="fill:none;stroke:#404040;" x1="36.5" y1="0.5" x2="36.5" y2="108.5"/>
	</g>
	<g id="Kanji">
		<text transform="matrix(1 0 0 1 0.5 93.3799)" style="font-size:108;">諜</text>
	</g>
	<g id="StrokeNumbers" style="font-size:8;fill:#808080">
		<text transform="matrix(1 0 0 1 15.5 17.5)">1</text>
		<text transform="matrix(1 0 0 1 3.5 36.375)">2</text>
		<text transform="matrix(1 0 0 1 9.5 49.5)">3</text>
		<text transform="matrix(1 0 0 1 10.5 61.5)">4</text>
		<text transform="matrix(1 0 0 1 9.5 79.5)">5</text>
		<text transform="matrix(1 0 0 1 19.5 70.5)">6</text>
		<text transform="matrix(1 0 0 1 24 86.5)">7</text>
		<text transform="matrix(1 0 0 1 40.25 27.5)">8</text>
		<text transform="matrix(1 0 0 1 55.5 12.5)">9</text>
		<text transform="matrix(1 0 0 1 70.5 9.5)">10</text>
		<text transform="matrix(1 0 0 1 68.5 37.5)">11</text>
		<text transform="matrix(1 0 0 1 41.5 15.5)">12</text>
		<text transform="matrix(1 0 0 1 39.5 62.7285)">13</text>
		<text transform="matrix(1 0 0 1 55.5 59.5)">14</text>
		<text transform="matrix(1 0 0 1 48.5 74.5)">15</text>
		<text transform="matrix(1 0 0 1 77.5 72.0039)">16</text>
	</g>
	<g id="StrokePaths" style="fill:none;stroke:#404040;stroke-width:3;stroke-linecap:round;stroke-linejoin:round;">
		<path d="M22.88,16.75c2.25,1.5,5.81,6.17,6.37,8.5"/>
		<path d="M10.37,35.08c0.63,0.23,3.04,0.27,3.67,0.23c7.8-0.42,15.47-2.67,21.14-2.87c1.05-0.04,2.64,0.11,3.16,0.23"/>
		<path d="M16.73,48.06c0.38,0.12,2.71,0.13,3.1,0.12c3.97-0.14,9.8-2.06,13.71-2.05c0.63,0,3.29,0.06,3.61,0.12"/>
		<path d="M17.73,60.33c0.34,0.12,2.42,0.13,2.77,0.12c3.55-0.13,9.32-2.11,12.81-2.09c0.57,0,2.94,0.06,3.22,0.11"/>
		<path d="M15.64,72.4c0.35,0.36,0.75,0.65,0.86,1.13c0.99,4.21,2.25,13.04,3.25,19.21"/>
		<path d="M16.81,73.87c6.44-0.89,13.48-2.1,19.42-3c1.49-0.22,2.39,1.04,2.18,2.06c-0.89,4.25-1.66,7.22-3.24,14.28"/>
		<path d="M20.97,90.05c4.8-0.54,9.1-1.47,15.69-2.31"/>
		<path d="M41.25,29.88c0.94,0.34,2.66,0.38,3.6,0.34c7.23-0.31,35.4-3.96,46.61-4.59c1.56-0.09,2.5,0.16,3.29,0.33"/>
		<path d="M63.89,13c0.67,0.31,1.08,1.41,1.21,2.03s1.43,23.7,1.29,27.61"/>
		<path d="M79.55,11.25c0.67,0.31,1.08,1.41,1.21,2.03c0.13,0.63-1.79,19.35-2.18,25.92"/>
		<path d="M66.79,40.64c2.48,0,12.84-1.25,14.24-1.25"/>
		<path d="M50,19.07c0.67,0.31,1.08,1.41,1.21,2.03s0.5,18.83,0.02,26.02c-0.15,2.35-0.24,4.12,2.32,3.91C64.42,50.16,75.25,49,85.97,48.7c2.02-0.06,3.71,0.13,4.49,0.28"/>
		<path d="M42.49,65.65c1.36,0.45,2.91,0.59,4.47,0.45c7.96-0.73,31.58-2.28,43.62-3.14c1.55-0.11,2.53,0.08,4.08,0.39"/>
		<path d="M66.32,54.5c0.72,0.29,1.29,1.29,1.29,1.88c0,6.09-0.14,38.5-0.14,37.12c0,10-4.59,3.12-6.46,1.25"/>
		<path d="M59.35,74.73c-1.81,5.5-6.65,13.91-10.41,17.02"/>
		<path d="M75.68,74.09c0.94,0.99,7.79,9.84,11.9,13.75"/>
	</g>
</svg>
