<?xml version="1.0" encoding="UTF-8"?>
<!-- Copyright (C) 2009 Ulrich Apel.
This work is distributed under the conditions of the Creative Commons
Attribution-Share Alike 3.0 Licence. This means you are free:
* to Share - to copy, distribute and transmit the work
* to Remix - to adapt the work

Under the following conditions:
* Attribution. You must attribute the work by stating your use of KanjiVG in
  your own copyright header and linking to KanjiVG's website
  (http://kanjivg.tagaini.net)
* Share Alike. If you alter, transform, or build upon this work, you may
  distribute the resulting work only under the same or similar license to this
  one.

See http://creativecommons.org/licenses/by-sa/3.0/ for more details. -->
<!DOCTYPE svg PUBLIC "-//W3C//DTD SVG 1.0//EN" "http://www.w3.org/TR/2001/REC-SVG-20010904/DTD/svg10.dtd">
<svg xmlns="http://www.w3.org/2000/svg" width="109" height="109" viewBox="0 0 109 109">
	<g id="HelperGrid" style="opacity:0.75;">
		<rect x="0.5" y="0.5" style="fill:none;stroke:#404040;" width="108" height="108"/> 
		<line style="fill:none;stroke:#404040;" x1="0.5" y1="72.51" x2="108.5" y2="72.51"/>
		<line style="fill:none;stroke:#404040;" x1="0.5" y1="36.49" x2="108.5" y2="36.49"/>
		<line style="fill:none;stroke:#404040;" x1="72.5" y1="0.5" x2="72.5" y2="108.5"/>
		<line style="fill:none;stroke:#404040;" x1="36.5" y1="0.5" x2="36.5" y2="108.5"/>
	</g>
	<g id="Kanji">
		<text transform="matrix(1 0 0 1 0.5 93.3799)" style="font-size:108;">諳</text>
	</g>
	<g id="StrokeNumbers" style="font-size:8;fill:#808080">
		<text transform="matrix(1 0 0 1 15.5 13.5)">1</text>
		<text transform="matrix(1 0 0 1 5.25 33.5547)">2</text>
		<text transform="matrix(1 0 0 1 9.5 46.5)">3</text>
		<text transform="matrix(1 0 0 1 8.5 59.5)">4</text>
		<text transform="matrix(1 0 0 1 8.5 77.5)">5</text>
		<text transform="matrix(1 0 0 1 18.5 69.5)">6</text>
		<text transform="matrix(1 0 0 1 22.5 88.5)">7</text>
		<text transform="matrix(1 0 0 1 57.5 13.7505)">8</text>
		<text transform="matrix(1 0 0 1 45.5 25.5)">9</text>
		<text transform="matrix(1 0 0 1 44.5 39.8506)">10</text>
		<text transform="matrix(1 0 0 1 71.5 36.5)">11</text>
		<text transform="matrix(1 0 0 1 39.5 49.7012)">12</text>
		<text transform="matrix(1 0 0 1 45 70.5)">13</text>
		<text transform="matrix(1 0 0 1 55.5 60.5)">14</text>
		<text transform="matrix(1 0 0 1 59.5 75.2256)">15</text>
		<text transform="matrix(1 0 0 1 59.5 91.5)">16</text>
	</g>
	<g id="StrokePaths" style="fill:none;stroke:#404040;stroke-width:3;stroke-linecap:round;stroke-linejoin:round;">
		<path d="M22.3,14c3.66,1.99,9.46,8.16,10.38,11.25"/>
		<path d="M11.12,33.08c0.71,0.23,3.4,0.27,4.1,0.23c8.73-0.42,15.98-2.17,22.33-2.37c1.18-0.04,2.95,0.11,3.54,0.23"/>
		<path d="M16.18,46.06c0.43,0.12,3.04,0.13,3.47,0.12c4.44-0.14,8.86-1.43,13.34-2.05c0.7-0.1,3.68-0.44,4.04-0.38"/>
		<path d="M14.8,58.33c0.38,0.12,2.71,0.13,3.1,0.12c3.97-0.13,10.11-0.95,14.83-1.59c0.63-0.09,3.29-0.44,3.6-0.39"/>
		<path d="M16.01,71.49c0.39,0.38,0.83,1.2,0.96,1.7c1.11,4.38,1.78,14.31,2.64,21.56"/>
		<path d="M17.44,72.52c7.2-0.93,12.9-2.71,19.55-3.64c1.67-0.23,2.68,1.08,2.44,2.15c-0.99,4.42-1.86,11.07-3.62,18.43"/>
		<path d="M19.42,92.39c5.37-0.56,11.68-1.51,19.06-2.38"/>
		<path d="M63.96,12.99c3.37,2.26,6.68,5.76,7.79,9.48"/>
		<path d="M47.27,28.97c1.33,0.11,4.34,0.6,5.66,0.57c10.29-0.25,11.36-1.07,36.48-3.21c2.19-0.19,3.51-0.19,4.61-0.17"/>
		<path d="M55,36c3.63,4.94,4.38,9.68,4.89,13.15"/>
		<path d="M81.55,30.7c0.46,1.17,0.75,2.85,0.56,3.3c-1.83,4.57-4.25,11.41-5.61,14"/>
		<path d="M42.3,52.99c1.2,0.26,3.36,0.5,4.63,0.36C59.5,52,79.5,51,91.82,50.32c2.16-0.12,4.57,0,5.88,0.59"/>
		<path d="M54.59,62.88c0.47,0.78,0.95,1.74,0.95,2.81c0,1.07-0.11,30.49-0.11,31.57"/>
		<path d="M56.31,64.47c2.65-0.28,20.19-2.72,24.74-3.36c2.41-0.34,3.68,0.36,3.43,2.94c-0.13,1.35-0.26,30.84-0.66,32.16"/>
		<path d="M56.79,78.92c4.39-0.24,8.78-0.72,13.16-1.11c1.43-0.13,2.86-0.25,4.24-0.38"/>
		<path d="M56.32,95.17c5.3-0.28,19.48-1.61,26.33-1.98"/>
	</g>
</svg>
