<?xml version="1.0" encoding="UTF-8"?>
<!DOCTYPE svg PUBLIC "-//W3C//DTD SVG 1.0//EN" "http://www.w3.org/TR/2001/REC-SVG-20010904/DTD/svg10.dtd">
<svg xmlns="http://www.w3.org/2000/svg" width="109" height="109" viewBox="0 0 109 109">
	<g id="HelperGrid" style="opacity:0.75;">
		<rect x="0.5" y="0.5" style="fill:none;stroke:#404040;" width="108" height="108"/> 
		<line style="fill:none;stroke:#404040;" x1="0.5" y1="72.51" x2="108.5" y2="72.51"/>
		<line style="fill:none;stroke:#404040;" x1="0.5" y1="36.49" x2="108.5" y2="36.49"/>
		<line style="fill:none;stroke:#404040;" x1="72.5" y1="0.5" x2="72.5" y2="108.5"/>
		<line style="fill:none;stroke:#404040;" x1="36.5" y1="0.5" x2="36.5" y2="108.5"/>
	</g>
	<g id="Kanji">
		<text transform="matrix(1 0 0 1 0.5 93.3799)" style="font-size:108;">謹</text>
	</g>
	<g id="StrokeNumbers" style="font-size:8;fill:#808080">
		<text transform="matrix(1 0 0 1 16.5 14.5)">1</text>
		<text transform="matrix(1 0 0 1 3.75 34.5547)">2</text>
		<text transform="matrix(1 0 0 1 11.25 48.5)">3</text>
		<text transform="matrix(1 0 0 1 11.25 60.5)">4</text>
		<text transform="matrix(1 0 0 1 11.25 81.5)">5</text>
		<text transform="matrix(1 0 0 1 19.5 71.5)">6</text>
		<text transform="matrix(1 0 0 1 24.75 87.0547)">7</text>
		<text transform="matrix(1 0 0 1 44.5 24.1299)">8</text>
		<text transform="matrix(1 0 0 1 53.25 13.6299)">9</text>
		<text transform="matrix(1 0 0 1 68.5 11.5)">10</text>
		<text transform="matrix(1 0 0 1 42.75 51.1299)">11</text>
		<text transform="matrix(1 0 0 1 48.75 39.1299)">12</text>
		<text transform="matrix(1 0 0 1 56.25 54.0547)">13</text>
		<text transform="matrix(1 0 0 1 51.75 67.5547)">14</text>
		<text transform="matrix(1 0 0 1 51.75 78.5)">15</text>
		<text transform="matrix(1 0 0 1 44.5 90.5)">16</text>
		<text transform="matrix(1 0 0 1 72.5 49.6299)">17</text>
	</g>
	<g id="StrokePaths" style="fill:none;stroke:#404040;stroke-width:3;stroke-linecap:round;stroke-linejoin:round;">
		<path d="M23.55,15.75c2.52,1.5,6.5,6.17,7.13,8.5"/>
		<path d="M10.62,34.58c0.71,0.23,3.4,0.27,4.1,0.23c8.73-0.42,17.28-2.56,23.83-3.37c1.17-0.15,2.95,0.11,3.54,0.23"/>
		<path d="M17.68,48.17c0.43,0.11,3.04,0.12,3.47,0.11c4.44-0.12,8.86-1.69,13.34-2.23c0.7-0.08,3.68,0.05,4.04,0.1"/>
		<path d="M18.3,60.83c0.38,0.12,2.71,0.13,3.1,0.12c3.97-0.13,9.93-2.11,13.83-2.09c0.63,0,3.29,0.06,3.6,0.11"/>
		<path d="M16.51,73.51c0.38,0.34,0.81,1.07,0.93,1.52c1.08,3.9,2.43,13,3.52,18.73"/>
		<path d="M17.4,74.87c6.99-0.83,13.97-2.41,20.42-3.25c1.62-0.21,2.6,0.96,2.36,1.91c-0.96,3.94-2.32,9.09-4.03,15.65"/>
		<path d="M21.26,91.31c5.21-0.5,10.36-1.4,17.51-2.18"/>
		<path d="M45.75,27.24c0.92,0.51,1.99,0.61,2.91,0.51c8.46-0.94,33.86-3.78,43.61-3.85c1.54-0.01,2.46,0.24,3.22,0.5"/>
		<path d="M56.56,16.05c0.69,0.49,1.74,1.55,1.84,2.28c0.94,6.84,1.74,15.41,2,17.9"/>
		<path d="M79.63,13.87c0.12,0.89,0.52,2.72,0.27,3.92c-1.47,7.05-2.14,10.07-3.74,16.7"/>
		<path d="M50.25,41.45c0.38,0.3,0.77,0.55,0.94,0.93c1.32,2.98,2.4,11.2,3.3,16.55"/>
		<path d="M52.62,42.98c9.31-1.25,29.38-2.89,34.17-3.31c1.76-0.15,2.81,1.55,2.56,2.46c-1.04,3.75-1.73,6.97-3.96,12.38"/>
		<path d="M54.86,56.96c5.64-0.47,25.13-2.01,32.29-2.49"/>
		<path d="M50.88,69.16c0.62,0.19,2.51,0.23,3.14,0.19c5.72-0.35,23.76-2.02,32.39-3.01c1.03-0.12,2.83,0.09,3.35,0.18"/>
		<path d="M53.5,80.07c0.62,0.19,3.68,0.21,4.31,0.19c8.25-0.24,17.69-2.01,25.64-2.51c1.03-0.07,2.83,0.09,3.35,0.18"/>
		<path d="M44.88,92.73c0.98,0.3,2.29,0.89,3.26,0.8C63.25,92,79,90.75,92.91,90.51c1.62-0.03,4.44,0.14,5.26,0.29"/>
		<path d="M67.22,43.98c1.25,0.58,2,2.62,2.25,3.79c0.25,1.17,0,36.87-0.25,44.16"/>
	</g>
</svg>
