<?xml version="1.0" encoding="UTF-8"?>
<!DOCTYPE svg PUBLIC "-//W3C//DTD SVG 1.0//EN" "http://www.w3.org/TR/2001/REC-SVG-20010904/DTD/svg10.dtd">
<svg xmlns="http://www.w3.org/2000/svg" width="109" height="109" viewBox="0 0 109 109">
	<g id="HelperGrid" style="opacity:0.75;">
		<rect x="0.5" y="0.5" style="fill:none;stroke:#404040;" width="108" height="108"/> 
		<line style="fill:none;stroke:#404040;" x1="0.5" y1="72.51" x2="108.5" y2="72.51"/>
		<line style="fill:none;stroke:#404040;" x1="0.5" y1="36.49" x2="108.5" y2="36.49"/>
		<line style="fill:none;stroke:#404040;" x1="72.5" y1="0.5" x2="72.5" y2="108.5"/>
		<line style="fill:none;stroke:#404040;" x1="36.5" y1="0.5" x2="36.5" y2="108.5"/>
	</g>
	<g id="Kanji">
		<text transform="matrix(1 0 0 1 0.5 93.3799)" style="font-size:108;">豐</text>
	</g>
	<g id="StrokeNumbers" style="font-size:8;fill:#808080">
		<text transform="matrix(1 0 0 1 43.5 9.5)">1</text>
		<text transform="matrix(1 0 0 1 29.5 16.8047)">2</text>
		<text transform="matrix(1 0 0 1 29.5 26.729)">3</text>
		<text transform="matrix(1 0 0 1 29.5 34.1543)">4</text>
		<text transform="matrix(1 0 0 1 27.5 9.5)">5</text>
		<text transform="matrix(1 0 0 1 59.5 14.0049)">6</text>
		<text transform="matrix(1 0 0 1 59.5 24.9297)">7</text>
		<text transform="matrix(1 0 0 1 59.5 33.354)">8</text>
		<text transform="matrix(1 0 0 1 64.25 7.0293)">9</text>
		<text transform="matrix(1 0 0 1 11.5 18.5)">10</text>
		<text transform="matrix(1 0 0 1 78.5 9.5)">11</text>
		<text transform="matrix(1 0 0 1 20.5 57.5)">12</text>
		<text transform="matrix(1 0 0 1 24.5 71.5)">13</text>
		<text transform="matrix(1 0 0 1 36.5 63.5)">14</text>
		<text transform="matrix(1 0 0 1 40.5 74.5)">15</text>
		<text transform="matrix(1 0 0 1 55.25 85.0039)">16</text>
		<text transform="matrix(1 0 0 1 29.5 88.5)">17</text>
		<text transform="matrix(1 0 0 1 10.5 96.8535)">18</text>
	</g>
	<g id="StrokePaths" style="fill:none;stroke:#404040;stroke-width:3;stroke-linecap:round;stroke-linejoin:round;">
		<path d="M52.49,9.88c0.65,0.38,2.03,2.88,2.16,3.65c0.13,0.77-0.08,26.04-0.21,30.85"/>
		<path d="M29,19.5c1.25,0.25,2.18,0.59,2.67,0.55C36,19.74,40.25,19,45.6,18.3c0.73-0.1,0.9-0.05,2.15-0.05"/>
		<path d="M29,27.25c1.25,0.25,2.18,0.59,2.67,0.55c4.33-0.31,8.58-1.05,13.94-1.75c0.73-0.1,0.9-0.05,2.15-0.05"/>
		<path d="M29.25,35.75c1.25,0.25,2.18,0.59,2.67,0.55c4.33-0.31,8.58-1.05,13.94-1.75c0.73-0.1,0.9-0.05,2.15-0.05"/>
		<path d="M35.99,10.88c0.65,0.38,2.12,2.87,2.16,3.65c0.35,6.96,1.1,24.21,1.79,30.85"/>
		<path d="M60,17c1.25,0.25,2.18,0.59,2.67,0.55C67,17.24,71.25,17.5,76.6,16.8c0.73-0.1,0.9-0.05,2.15-0.05"/>
		<path d="M60.5,26.25c1.25,0.25,2.18,0.53,2.67,0.55c3.58,0.2,7.58-0.05,12.94-0.75C76.84,25.96,77,26,78.25,26"/>
		<path d="M59.75,34.75C61,35,61.93,35.31,62.42,35.3c3.08-0.05,8.58-0.55,13.94-1.25c0.73-0.1,0.9-0.05,2.15-0.05"/>
		<path d="M68.99,10.88c0.65,0.38,2.22,2.87,2.16,3.65C70.5,23,69,36.25,68.44,43.38"/>
		<path d="M21.74,17.5c0.76,0.45,1.47,2.34,1.51,3.25c0.25,5.25,1.5,13,2.5,22.5c0.22,2.05-0.38,4.03,1.5,3.75c6.75-1,45-3.75,54.5-4"/>
		<path d="M83.99,12.88c0.51,1.12,1.23,2.88,1.16,3.65c-0.4,4.71-2.4,22.96-3.21,29.35"/>
		<path d="M30.77,55.9c0.86,0.35,2.42,0.39,3.28,0.35c8.91-0.4,22.65-2.49,39.05-2.59c1.43-0.01,2.28,0.17,3,0.34"/>
		<path d="M33.78,65.66c0.37,0.26,0.85,0.96,0.92,1.3c0.51,2.47,1.39,8.32,2.53,13.24"/>
		<path d="M35.22,67.08c5.68-0.5,31.18-3.58,35.05-3.66c1.6-0.03,2.68,0.64,2.32,2.08c-0.65,2.58-1.55,5.11-3.5,10.04"/>
		<path d="M37.53,78.43c4.19,0,28.73-2.8,34.52-2.88"/>
		<path d="M38.78,84c2.02,1.61,5.21,6.63,5.71,9.14"/>
		<path d="M67.9,81.75c0.02,0.3,0.04,0.77-0.04,1.2c-0.49,2.53-3.3,8.08-7.14,11.48"/>
		<path d="M20.19,97.03c1.38,0.49,3.92,0.57,5.31,0.49c14.41-0.83,43.14-2.6,58.47-2.94c2.31-0.05,3.69,0.23,4.85,0.48"/>
	</g>
</svg>
