<?xml version="1.0" encoding="UTF-8"?>
<!DOCTYPE svg PUBLIC "-//W3C//DTD SVG 1.0//EN" "http://www.w3.org/TR/2001/REC-SVG-20010904/DTD/svg10.dtd">
<svg xmlns="http://www.w3.org/2000/svg" width="109" height="109" viewBox="0 0 109 109">
	<g id="HelperGrid" style="opacity:0.75;">
		<rect x="0.5" y="0.5" style="fill:none;stroke:#404040;" width="108" height="108"/> 
		<line style="fill:none;stroke:#404040;" x1="0.5" y1="72.51" x2="108.5" y2="72.51"/>
		<line style="fill:none;stroke:#404040;" x1="0.5" y1="36.49" x2="108.5" y2="36.49"/>
		<line style="fill:none;stroke:#404040;" x1="72.5" y1="0.5" x2="72.5" y2="108.5"/>
		<line style="fill:none;stroke:#404040;" x1="36.5" y1="0.5" x2="36.5" y2="108.5"/>
	</g>
	<g id="Kanji">
		<text transform="matrix(1 0 0 1 0.5 93.3799)" style="font-size:108;">貢</text>
	</g>
	<g id="StrokeNumbers" style="font-size:8;fill:#808080">
		<text transform="matrix(1 0 0 1 27.5 17.5)">1</text>
		<text transform="matrix(1 0 0 1 47.25 25.6299)">2</text>
		<text transform="matrix(1 0 0 1 8.25 36.5)">3</text>
		<text transform="matrix(1 0 0 1 26.25 51.1299)">4</text>
		<text transform="matrix(1 0 0 1 37.5 41.5)">5</text>
		<text transform="matrix(1 0 0 1 41.25 52.5547)">6</text>
		<text transform="matrix(1 0 0 1 41.25 62.9785)">7</text>
		<text transform="matrix(1 0 0 1 41.25 73.4043)">8</text>
		<text transform="matrix(1 0 0 1 29.25 86.8291)">9</text>
		<text transform="matrix(1 0 0 1 54.5 85.5)">10</text>
	</g>
	<g id="StrokePaths" style="fill:none;stroke:#404040;stroke-width:3;stroke-linecap:round;stroke-linejoin:round;">
		<path d="M34.5,16.91c0.78,0.43,3.33,0.56,4.12,0.44c3.68-0.58,26.9-2.91,33.08-3.36c1.21-0.09,2.3,0.09,3.3,0.44"/>
		<path d="M52.46,16.5c1.58,1.98,1.58,3.16,1.58,4.74c0,4.01-0.05,5.01-0.05,10.26"/>
		<path d="M15,35.05c0.92,0.32,5.2,0.65,6.75,0.51c16.75-1.55,49-5.3,65.75-6.28c2.5-0.15,7,0.53,8.25,1.03"/>
		<path d="M33.64,42.94c0.65,0.82,1.61,2.93,1.61,4.03s0,28.51,0,32.78"/>
		<path d="M35.34,44.77c3.71-0.14,32.96-3.89,36.33-4.05c2.81-0.14,3.8,0.78,3.8,3.78c0,4.75-0.31,31.88-0.31,32.7"/>
		<path d="M36.27,54.83c6.46-0.58,12.92-1.24,19.38-1.83c2.01-0.18,4.01-0.36,5.94-0.53"/>
		<path d="M35.58,65.4c6.45-0.7,13.9-1.42,20.36-2.07c1.76-0.18,3.53-0.35,5.27-0.51"/>
		<path d="M35.53,76.52c8.97-0.52,30.08-2.64,39.62-2.64"/>
		<path d="M39.94,82.79c0.5,1.23-0.01,2.56-1,3.46c-2.99,2.7-11.21,8.33-17.19,11.52"/>
		<path d="M66.08,82.72c7.2,3.29,15.71,9.25,17.67,12.12"/>
	</g>
</svg>
