<?xml version="1.0" encoding="UTF-8"?>
<!-- Copyright (C) 2009 Ulrich Apel.
This work is distributed under the conditions of the Creative Commons
Attribution-Share Alike 3.0 Licence. This means you are free:
* to Share - to copy, distribute and transmit the work
* to Remix - to adapt the work

Under the following conditions:
* Attribution. You must attribute the work by stating your use of KanjiVG in
  your own copyright header and linking to KanjiVG's website
  (http://kanjivg.tagaini.net)
* Share Alike. If you alter, transform, or build upon this work, you may
  distribute the resulting work only under the same or similar license to this
  one.

See http://creativecommons.org/licenses/by-sa/3.0/ for more details. -->
<!DOCTYPE svg PUBLIC "-//W3C//DTD SVG 1.0//EN" "http://www.w3.org/TR/2001/REC-SVG-20010904/DTD/svg10.dtd">
<svg xmlns="http://www.w3.org/2000/svg" width="109" height="109" viewBox="0 0 109 109">
	<g id="HelperGrid" style="opacity:0.75;">
		<rect x="0.5" y="0.5" style="fill:none;stroke:#404040;" width="108" height="108"/> 
		<line style="fill:none;stroke:#404040;" x1="0.5" y1="72.51" x2="108.5" y2="72.51"/>
		<line style="fill:none;stroke:#404040;" x1="0.5" y1="36.49" x2="108.5" y2="36.49"/>
		<line style="fill:none;stroke:#404040;" x1="72.5" y1="0.5" x2="72.5" y2="108.5"/>
		<line style="fill:none;stroke:#404040;" x1="36.5" y1="0.5" x2="36.5" y2="108.5"/>
	</g>
	<g id="Kanji">
		<text transform="matrix(1 0 0 1 0.5 93.3799)" style="font-size:108;">貪</text>
	</g>
	<g id="StrokeNumbers" style="font-size:8;fill:#808080">
		<text transform="matrix(1 0 0 1 45.5 8.5)">1</text>
		<text transform="matrix(1 0 0 1 61.5 12.5)">2</text>
		<text transform="matrix(1 0 0 1 46.5 25.5)">3</text>
		<text transform="matrix(1 0 0 1 33.5 35.5)">4</text>
		<text transform="matrix(1 0 0 1 27.5 59.5)">5</text>
		<text transform="matrix(1 0 0 1 38.5 51.5)">6</text>
		<text transform="matrix(1 0 0 1 40.25 62.5)">7</text>
		<text transform="matrix(1 0 0 1 40.25 71.5)">8</text>
		<text transform="matrix(1 0 0 1 40.25 82.5)">9</text>
		<text transform="matrix(1 0 0 1 26.5 93.5)">10</text>
		<text transform="matrix(1 0 0 1 55.5 93.8799)">11</text>
	</g>
	<g id="StrokePaths" style="fill:none;stroke:#404040;stroke-width:3;stroke-linecap:round;stroke-linejoin:round;">
		<path d="M52.91,8c0.11,0.7,0.55,1.88-0.23,2.82C47.25,17.32,34.41,28.66,12,37.8"/>
		<path d="M54.16,10.38C61,14.25,80.62,29.77,86.12,33.1c1.87,1.13,4.26,1.61,6.13,1.93"/>
		<path d="M40.23,27.49c0.38,0.12,2.71,0.13,3.1,0.12c3.97-0.13,14.8-1.83,18.71-1.82c0.63,0,3.29,0.05,3.61,0.11"/>
		<path d="M32,37.91c1.5,0.33,4.07,0.72,6.5,0.49c6.31-0.6,21.25-3.26,27.99-4.03c3.99-0.45,4.55,2.02,2.01,4.37c-3.25,3-5.5,6-9.75,10.25"/>
		<path d="M34.24,52.8c0.57,0.75,1.4,1.8,1.4,2.82c0,1.02,0.08,24.63,0.08,31.08"/>
		<path d="M36.59,54.62c3.22-0.22,30.3-3.33,33.21-3.8c1.95-0.32,3.45,0.93,3.75,2.55c0.43,2.3-0.72,31.26-0.72,32.02"/>
		<path d="M35.7,63.93c6.28-0.48,12.56-0.95,18.85-1.4c1.97-0.14,3.92-0.28,5.8-0.41"/>
		<path d="M35.96,74.11c6.06-0.55,13.13-0.94,19.21-1.32c1.72-0.11,3.44-0.21,5.13-0.31"/>
		<path d="M36.05,84.68c9.09-0.68,28.45-1.79,36.74-2.03"/>
		<path d="M42.2,89.4c0.54,1.01-0.41,2-1.47,2.74c-3.22,2.23-11.66,6.98-18.1,9.61"/>
		<path d="M63.02,86.48c7.48,3.81,16.31,10.72,18.35,14.06"/>
	</g>
</svg>
