<?xml version="1.0" encoding="UTF-8"?>
<!DOCTYPE svg PUBLIC "-//W3C//DTD SVG 1.0//EN" "http://www.w3.org/TR/2001/REC-SVG-20010904/DTD/svg10.dtd">
<svg xmlns="http://www.w3.org/2000/svg" width="109" height="109" viewBox="0 0 109 109">
	<g id="HelperGrid" style="opacity:0.75;">
		<rect x="0.5" y="0.5" style="fill:none;stroke:#404040;" width="108" height="108"/> 
		<line style="fill:none;stroke:#404040;" x1="0.5" y1="72.51" x2="108.5" y2="72.51"/>
		<line style="fill:none;stroke:#404040;" x1="0.5" y1="36.49" x2="108.5" y2="36.49"/>
		<line style="fill:none;stroke:#404040;" x1="72.5" y1="0.5" x2="72.5" y2="108.5"/>
		<line style="fill:none;stroke:#404040;" x1="36.5" y1="0.5" x2="36.5" y2="108.5"/>
	</g>
	<g id="Kanji">
		<text transform="matrix(1 0 0 1 0.5 93.3799)" style="font-size:108;">貫</text>
	</g>
	<g id="StrokeNumbers" style="font-size:8;fill:#808080">
		<text transform="matrix(1 0 0 1 31.5 22.5)">1</text>
		<text transform="matrix(1 0 0 1 39.5 13.5)">2</text>
		<text transform="matrix(1 0 0 1 47.25 24.0547)">3</text>
		<text transform="matrix(1 0 0 1 5.5 31.5)">4</text>
		<text transform="matrix(1 0 0 1 29.25 52.4043)">5</text>
		<text transform="matrix(1 0 0 1 40.5 46.6299)">6</text>
		<text transform="matrix(1 0 0 1 42.5 57.5)">7</text>
		<text transform="matrix(1 0 0 1 42.5 67.5)">8</text>
		<text transform="matrix(1 0 0 1 42.5 77.9043)">9</text>
		<text transform="matrix(1 0 0 1 27.5 90.5)">10</text>
		<text transform="matrix(1 0 0 1 56.5 89.5)">11</text>
	</g>
	<g id="StrokePaths" style="fill:none;stroke:#404040;stroke-width:3;stroke-linecap:round;stroke-linejoin:round;">
		<path d="M73.25,36.75c-3.25-0.5-5.47-0.44-7.75-0.33c-10.87,0.53-19.84,1.95-28.61,3.69c-1.58,0.31-1.97-0.44-1.51-2.18c1.5-5.68,2.38-13.9,2.71-19.52c0.07-1.19-0.09-2.41-0.95-3.27"/>
		<path d="M39.4,17.1c9.85-1.1,26.98-3.48,33.08-4.09c1.76-0.18,2.85,1.09,2.46,2.94C73.75,21.5,72,30,70.75,35.5"/>
		<path d="M54.25,17c0.81,0.81,0.83,2.13,0.72,3.3c-0.34,3.57-0.84,6.95-1.87,14.9"/>
		<path d="M12.63,30.08c4.75,0.92,9.3,0.29,13.62-0.29c15.13-2.04,36.95-4.57,56.25-5.87c4.04-0.27,8.75-0.17,12.13,0.57"/>
		<path d="M36.69,47.02c0.8,0.8,0.93,1.91,0.93,2.98c0,0.82-0.02,19.47,0.01,28.75c0.01,2.92,0.02,4.87,0.02,5"/>
		<path d="M38.51,48.75c6.12-0.63,28.63-3.6,31.63-3.77c2.5-0.13,3.76,0.76,3.76,3.25c0,3.7,0.02,15.69,0.03,26.51c0,1.72,0,3.41,0.01,5.03"/>
		<path d="M38.7,59.86C49.75,58.62,63,57,72.88,56.17"/>
		<path d="M38.72,70.5C50,69,61,67.12,72.74,66.13"/>
		<path d="M38.82,80.41c12.68-1.66,22.68-3.16,33.77-4.11"/>
		<path d="M43.76,84.85c0,1.27-0.52,2.03-1.5,2.9C39.3,90.39,31.92,94.88,26,98"/>
		<path d="M66.38,84.75c7.08,3.61,15.44,10.15,17.38,13.3"/>
	</g>
</svg>
