<?xml version="1.0" encoding="UTF-8"?>
<!DOCTYPE svg PUBLIC "-//W3C//DTD SVG 1.0//EN" "http://www.w3.org/TR/2001/REC-SVG-20010904/DTD/svg10.dtd">
<svg xmlns="http://www.w3.org/2000/svg" width="109" height="109" viewBox="0 0 109 109">
	<g id="HelperGrid" style="opacity:0.75;">
		<rect x="0.5" y="0.5" style="fill:none;stroke:#404040;" width="108" height="108"/> 
		<line style="fill:none;stroke:#404040;" x1="0.5" y1="72.51" x2="108.5" y2="72.51"/>
		<line style="fill:none;stroke:#404040;" x1="0.5" y1="36.49" x2="108.5" y2="36.49"/>
		<line style="fill:none;stroke:#404040;" x1="72.5" y1="0.5" x2="72.5" y2="108.5"/>
		<line style="fill:none;stroke:#404040;" x1="36.5" y1="0.5" x2="36.5" y2="108.5"/>
	</g>
	<g id="Kanji">
		<text transform="matrix(1 0 0 1 0.5 93.3799)" style="font-size:108;">賀</text>
	</g>
	<g id="StrokeNumbers" style="font-size:8;fill:#808080">
		<text transform="matrix(1 0 0 1 9.5 20.5)">1</text>
		<text transform="matrix(1 0 0 1 25.5 9.1299)">2</text>
		<text transform="matrix(1 0 0 1 56.25 27.5)">3</text>
		<text transform="matrix(1 0 0 1 63.5 14.5)">4</text>
		<text transform="matrix(1 0 0 1 68.5 32.5)">5</text>
		<text transform="matrix(1 0 0 1 29.25 57.1299)">6</text>
		<text transform="matrix(1 0 0 1 50.5 45.5)">7</text>
		<text transform="matrix(1 0 0 1 42.5 57.0547)">8</text>
		<text transform="matrix(1 0 0 1 42.5 68.9785)">9</text>
		<text transform="matrix(1 0 0 1 41.5 80.5)">10</text>
		<text transform="matrix(1 0 0 1 29.5 93.8809)">11</text>
		<text transform="matrix(1 0 0 1 55.5 92.5)">12</text>
	</g>
	<g id="StrokePaths" style="fill:none;stroke:#404040;stroke-width:3;stroke-linecap:round;stroke-linejoin:round;">
		<path d="M16.9,21.64c0.94,0.36,2.13,0.31,2.95,0.19c6.72-0.99,25.13-3.34,28.86-3.71c2.42-0.24,3.1,1.07,2.96,2.73c-0.35,4.39-1.43,11.64-6.01,18.44c-3.01,4.47-5.17,0.7-5.97,0.14"/>
		<path d="M35.36,8.93c0.19,0.21,0.22,1.15,0.13,2.22c-0.87,9.93-6.07,27.48-18.36,36.12"/>
		<path d="M60.86,16.61c0.28,0.4,0.56,0.73,0.69,1.23c0.96,3.94,3.12,12.82,3.78,19.9"/>
		<path d="M61.79,17.89c8.34-0.82,19.22-2.87,23.9-3.09c3.3-0.16,3.93,1.65,3.47,4.04c-1.17,6.03-1.97,7.18-3.26,14.83"/>
		<path d="M65.6,35.98c5.94-0.38,14.32-1.81,22.08-2.27"/>
		<path d="M35.47,47.78c0.63,0.86,1.55,2.49,1.54,3.63C37,56.25,36.5,79.5,36.52,85.05"/>
		<path d="M38.06,49.13c3.55-0.14,30.6-3.47,33.83-3.64c2.7-0.14,4.59,0.01,4.59,3.35c0.01,7.91-1.25,34.28-1.25,35.14"/>
		<path d="M38,60.17c6.22-0.66,12.45-1.22,18.69-1.7c1.66-0.13,3.32-0.25,4.97-0.36"/>
		<path d="M37.29,71.66c6.08-0.5,12.65-1.03,18.73-1.55c1.61-0.14,3.24-0.28,4.88-0.42"/>
		<path d="M37.21,83.27c9.54-0.77,27.04-2.52,38.06-2.71"/>
		<path d="M44.4,87.44c0.47,1.11,0.92,1.41,0,2.22c-2.79,2.45-10.15,8.08-16.97,11.33"/>
		<path d="M67.69,89.18c6.87,3.35,15,9.41,16.87,12.34"/>
	</g>
</svg>
