<?xml version="1.0" encoding="UTF-8"?>
<!-- Copyright (C) 2009 Ulrich Apel.
This work is distributed under the conditions of the Creative Commons
Attribution-Share Alike 3.0 Licence. This means you are free:
* to Share - to copy, distribute and transmit the work
* to Remix - to adapt the work

Under the following conditions:
* Attribution. You must attribute the work by stating your use of KanjiVG in
  your own copyright header and linking to KanjiVG's website
  (http://kanjivg.tagaini.net)
* Share Alike. If you alter, transform, or build upon this work, you may
  distribute the resulting work only under the same or similar license to this
  one.

See http://creativecommons.org/licenses/by-sa/3.0/ for more details. -->
<!DOCTYPE svg PUBLIC "-//W3C//DTD SVG 1.0//EN" "http://www.w3.org/TR/2001/REC-SVG-20010904/DTD/svg10.dtd">
<svg xmlns="http://www.w3.org/2000/svg" width="109" height="109" viewBox="0 0 109 109">
	<g id="HelperGrid" style="opacity:0.75;">
		<rect x="0.5" y="0.5" style="fill:none;stroke:#404040;" width="108" height="108"/> 
		<line style="fill:none;stroke:#404040;" x1="0.5" y1="72.51" x2="108.5" y2="72.51"/>
		<line style="fill:none;stroke:#404040;" x1="0.5" y1="36.49" x2="108.5" y2="36.49"/>
		<line style="fill:none;stroke:#404040;" x1="72.5" y1="0.5" x2="72.5" y2="108.5"/>
		<line style="fill:none;stroke:#404040;" x1="36.5" y1="0.5" x2="36.5" y2="108.5"/>
	</g>
	<g id="Kanji">
		<text transform="matrix(1 0 0 1 0.5 93.3799)" style="font-size:108;">賠</text>
	</g>
	<g id="StrokeNumbers" style="font-size:8;fill:#808080">
		<text transform="matrix(1 0 0 1 10.5 31.5)">1</text>
		<text transform="matrix(1 0 0 1 18.75 21.1299)">2</text>
		<text transform="matrix(1 0 0 1 21.5 35.5)">3</text>
		<text transform="matrix(1 0 0 1 21.5 50.979)">4</text>
		<text transform="matrix(1 0 0 1 21.5 66.5)">5</text>
		<text transform="matrix(1 0 0 1 14.5 82.5)">6</text>
		<text transform="matrix(1 0 0 1 28.5 81.5)">7</text>
		<text transform="matrix(1 0 0 1 60.5 17.5)">8</text>
		<text transform="matrix(1 0 0 1 48.75 28.5)">9</text>
		<text transform="matrix(1 0 0 1 47.5 42.0547)">10</text>
		<text transform="matrix(1 0 0 1 71.5 39.1299)">11</text>
		<text transform="matrix(1 0 0 1 43.5 54.1299)">12</text>
		<text transform="matrix(1 0 0 1 45.5 78.0547)">13</text>
		<text transform="matrix(1 0 0 1 57.5 68.5)">14</text>
		<text transform="matrix(1 0 0 1 60.75 88.5)">15</text>
	</g>
	<g id="StrokePaths" style="fill:none;stroke:#404040;stroke-width:3;stroke-linecap:round;stroke-linejoin:round;">
		<path d="M16.04,23.75c0.79,0.79,1.1,1.95,1.1,3.44c0,0.93,0.04,27.34,0.03,39.94c0,3.9-0.03,4.5-0.03,6.07"/>
		<path d="M17.72,25.54c3.77-0.74,12.45-2.45,16.57-3.2c3.17-0.57,4.3,0.13,4.3,3.53c0,7.51,0.07,27.59-0.03,38.47c-0.03,3.34-0.05,5.54-0.05,5.79"/>
		<path d="M18.43,39.02c3.65-0.43,15.8-2.52,18.93-2.52"/>
		<path d="M18.34,53.88c5.51-0.82,13.46-1.98,19.29-2.15"/>
		<path d="M18.33,69.77c5.51-0.61,14.03-1.98,19.05-1.98"/>
		<path d="M23.43,78.4c0.28,1.18,0.05,2-0.5,2.85c-1.65,2.59-6.25,8.44-9.55,11.5"/>
		<path d="M35.43,76.98c2.83,4.02,6.17,11.29,6.94,14.81"/>
		<path d="M69.35,16c1.14,1.14,1.39,2.12,1.39,3.5c0,1.75,0,5.75,0,10.5"/>
		<path d="M51.38,31.7c2,0.61,4.33,0.59,6.38,0.46c7.55-0.48,20.04-2.34,28.11-3.25c1.84-0.21,3.41-0.17,5.22,0.16"/>
		<path d="M57,38.75c3.49,4.47,5.08,9.05,5.4,12"/>
		<path d="M82.45,34.25c0.42,1,0.15,1.97-0.03,2.46c-1.42,3.91-5.63,12.82-7.08,15.54"/>
		<path d="M45.5,57.05c2.21,0.64,4.87,0.58,7.14,0.31c12.79-1.5,24.52-3.24,39.24-4.03c2.51-0.13,4.89,0.07,7.37,0.5"/>
		<path d="M54.48,69.87c0.84,0.73,1.31,1.65,1.4,2.76c0.63,4.87,1.38,10.03,1.95,15.62c0.2,1.9,0.39,3.69,0.6,5.25"/>
		<path d="M57.17,71.75c7.42-1.14,20.77-2.66,26.72-3.32c3.15-0.35,4.51,0.31,3.79,3.58c-1,4.54-2.69,10.29-4,15.84"/>
		<path d="M59.37,91.35c4.66-0.5,15.72-1.3,23.41-2.08c1.21-0.12,2.85-0.11,3.84-0.11"/>
	</g>
</svg>
