<?xml version="1.0" encoding="UTF-8"?>
<!DOCTYPE svg PUBLIC "-//W3C//DTD SVG 1.0//EN" "http://www.w3.org/TR/2001/REC-SVG-20010904/DTD/svg10.dtd">
<svg xmlns="http://www.w3.org/2000/svg" width="109" height="109" viewBox="0 0 109 109">
	<g id="HelperGrid" style="opacity:0.75;">
		<rect x="0.5" y="0.5" style="fill:none;stroke:#404040;" width="108" height="108"/> 
		<line style="fill:none;stroke:#404040;" x1="0.5" y1="72.51" x2="108.5" y2="72.51"/>
		<line style="fill:none;stroke:#404040;" x1="0.5" y1="36.49" x2="108.5" y2="36.49"/>
		<line style="fill:none;stroke:#404040;" x1="72.5" y1="0.5" x2="72.5" y2="108.5"/>
		<line style="fill:none;stroke:#404040;" x1="36.5" y1="0.5" x2="36.5" y2="108.5"/>
	</g>
	<g id="Kanji">
		<text transform="matrix(1 0 0 1 0.5 93.3799)" style="font-size:108;">賽</text>
	</g>
	<g id="StrokeNumbers" style="font-size:8;fill:#808080">
		<text transform="matrix(1 0 0 1 44.5 8.5)">1</text>
		<text transform="matrix(1 0 0 1 14.5 19.5)">2</text>
		<text transform="matrix(1 0 0 1 23.5 18.5)">3</text>
		<text transform="matrix(1 0 0 1 22.5 30.4043)">4</text>
		<text transform="matrix(1 0 0 1 33.5 27.5)">5</text>
		<text transform="matrix(1 0 0 1 56.5 26.5)">6</text>
		<text transform="matrix(1 0 0 1 20.5 39.5)">7</text>
		<text transform="matrix(1 0 0 1 7.25 48.5)">8</text>
		<text transform="matrix(1 0 0 1 25.5 56.5)">9</text>
		<text transform="matrix(1 0 0 1 77.5 53.5)">10</text>
		<text transform="matrix(1 0 0 1 26.5 70.5)">11</text>
		<text transform="matrix(1 0 0 1 42.5 55.8047)">12</text>
		<text transform="matrix(1 0 0 1 40.5 65.5)">13</text>
		<text transform="matrix(1 0 0 1 40.5 73.5)">14</text>
		<text transform="matrix(1 0 0 1 40.5 82.5)">15</text>
		<text transform="matrix(1 0 0 1 25.5 94.5)">16</text>
		<text transform="matrix(1 0 0 1 57.5 97.5)">17</text>
	</g>
	<g id="StrokePaths" style="fill:none;stroke:#404040;stroke-width:3;stroke-linecap:round;stroke-linejoin:round;">
		<path d="M52.52,8c0.73,0.75,1.92,2.17,1.9,3.12c-0.09,2.98-0.09,4.63-0.09,7.35"/>
		<path d="M21.53,19.21c0,2.98-3.9,12.01-5.16,14"/>
		<path d="M21.62,21.56c1.39,0.07,57.19-4.25,64.25-4.25c14.13,0,2.36,6.94,0.59,7.6"/>
		<path d="M29,30.15c1.36,0.37,3.87,0.43,5.23,0.37c8.16-0.38,29.55-2.66,38.5-2.94c2.27-0.07,3.64,0.18,4.77,0.36"/>
		<path d="M40.31,25.47c0.4,0.32,1.23,2.38,1.31,3.01c0.08,0.63,0.61,12.14,0.88,17.81"/>
		<path d="M63.81,21.75c0.76,0.38,1.52,2.79,1.51,3.56c-0.07,5.94-0.57,13.19-0.82,19.19"/>
		<path d="M26.5,37.72c1.23,0.31,3.47,0.31,4.69,0.31C40.63,38,63.5,36.5,75.71,35.46c2.03-0.17,3.27,0.15,4.29,0.3"/>
		<path d="M14.5,47.51c1.82,0.55,5.17,0.63,6.98,0.55c14.02-0.57,48.09-4.02,65.4-4.02c3.04,0,4.86,0.26,6.37,0.54"/>
		<path d="M39.21,47.67c0.45,0.6-0.21,1.21-0.64,2.02c-4.32,8.23-20.82,17.97-28.07,20.06"/>
		<path d="M64.5,45.91c9.05,6.77,18.44,14.94,25.05,18.2c2.55,1.26,3.47,1.93,5.95,2.34"/>
		<path d="M34.24,58.8c0.57,0.75,1.4,1.3,1.4,2.32c0,1.02,0.26,22.28-0.42,26.58"/>
		<path d="M36.59,59.62c3.22-0.22,29.3-2.33,32.21-2.8c1.95-0.32,3.45,0.93,3.75,2.55c0.43,2.3-0.72,26.76-0.72,27.52"/>
		<path d="M35.7,67.93c6.02-0.47,30.88-2.42,36.05-2.57"/>
		<path d="M35.96,76.11c9.09-0.82,26.19-1.92,35.82-2.31"/>
		<path d="M35.55,85.18c9.09-0.68,27.95-1.79,36.24-2.03"/>
		<path d="M44.67,87.9c0.62,1.14-0.48,2.25-1.71,3.07c-3.75,2.5-13.59,7.83-21.08,10.78"/>
		<path d="M63.77,88.98c8.8,3.54,19.2,9.96,21.6,13.06"/>
	</g>
</svg>
