<?xml version="1.0" encoding="UTF-8"?>
<!-- Copyright (C) 2009 Ulrich Apel.
This work is distributed under the conditions of the Creative Commons
Attribution-Share Alike 3.0 Licence. This means you are free:
* to Share - to copy, distribute and transmit the work
* to Remix - to adapt the work

Under the following conditions:
* Attribution. You must attribute the work by stating your use of KanjiVG in
  your own copyright header and linking to KanjiVG's website
  (http://kanjivg.tagaini.net)
* Share Alike. If you alter, transform, or build upon this work, you may
  distribute the resulting work only under the same or similar license to this
  one.

See http://creativecommons.org/licenses/by-sa/3.0/ for more details. -->
<!DOCTYPE svg PUBLIC "-//W3C//DTD SVG 1.0//EN" "http://www.w3.org/TR/2001/REC-SVG-20010904/DTD/svg10.dtd">
<svg xmlns="http://www.w3.org/2000/svg" width="109" height="109" viewBox="0 0 109 109">
	<g id="HelperGrid" style="opacity:0.75;">
		<rect x="0.5" y="0.5" style="fill:none;stroke:#404040;" width="108" height="108"/> 
		<line style="fill:none;stroke:#404040;" x1="0.5" y1="72.51" x2="108.5" y2="72.51"/>
		<line style="fill:none;stroke:#404040;" x1="0.5" y1="36.49" x2="108.5" y2="36.49"/>
		<line style="fill:none;stroke:#404040;" x1="72.5" y1="0.5" x2="72.5" y2="108.5"/>
		<line style="fill:none;stroke:#404040;" x1="36.5" y1="0.5" x2="36.5" y2="108.5"/>
	</g>
	<g id="Kanji">
		<text transform="matrix(1 0 0 1 0.5 93.3799)" style="font-size:108;">蹉</text>
	</g>
	<g id="StrokeNumbers" style="font-size:8;fill:#808080">
		<text transform="matrix(1 0 0 1 9.8477 26.5)">1</text>
		<text transform="matrix(1 0 0 1 18.5 16.5)">2</text>
		<text transform="matrix(1 0 0 1 21.708 34.5)">3</text>
		<text transform="matrix(1 0 0 1 22.5361 47.5)">4</text>
		<text transform="matrix(1 0 0 1 32.5 53.5)">5</text>
		<text transform="matrix(1 0 0 1 7.5 52.5)">6</text>
		<text transform="matrix(1 0 0 1 4.5 90.5)">7</text>
		<text transform="matrix(1 0 0 1 48.5 14.5)">8</text>
		<text transform="matrix(1 0 0 1 75.5 11.5)">9</text>
		<text transform="matrix(1 0 0 1 47.5 25.5)">10</text>
		<text transform="matrix(1 0 0 1 48.5 37.5)">11</text>
		<text transform="matrix(1 0 0 1 44.5 50.5)">12</text>
		<text transform="matrix(1 0 0 1 62.5 36.8799)">13</text>
		<text transform="matrix(1 0 0 1 48.5 62.5)">14</text>
		<text transform="matrix(1 0 0 1 61.5 67.5)">15</text>
		<text transform="matrix(1 0 0 1 61.5 79.5)">16</text>
		<text transform="matrix(1 0 0 1 47.5 89.5)">17</text>
	</g>
	<g id="StrokePaths" style="fill:none;stroke:#404040;stroke-width:3;stroke-linecap:round;stroke-linejoin:round;">
		<path d="M14.78,19.21c0.37,0.32,0.75,0.58,0.91,0.97c1.28,3.13,2.35,14.2,3.23,19.82"/>
		<path d="M16.61,20.9c8.39-1.65,16.79-3,21.13-3.41c1.58-0.15,2.54,0.89,2.31,1.77c-1.04,4.06-2.15,11.35-3.43,16"/>
		<path d="M19.56,37.69c5.09-0.46,11.65-0.84,18.64-1.55"/>
		<path d="M27.37,39.24c1.09,0.5,1.96,2.23,1.96,3.25c0,5.51,0.28,28.01,0.28,38"/>
		<path d="M29.88,57.74c3.37-0.49,5.87-1.24,9.35-1.5c1.74-0.13,2.18-0.25,3.26,0"/>
		<path d="M15.87,52.49c1.09,0.5,1.74,2.25,1.96,3.25c0.22,1,0.42,20.01,0.42,31.76"/>
		<path d="M12,89.07c0.34,0.8,2.87,0.85,3.7,0.4C23.91,85,31.44,79.5,40.5,74.49"/>
		<path d="M55.7,14.08c2.88,1.74,7.46,7.16,8.18,9.87"/>
		<path d="M83.07,12.52c0.02,0.29,0.05,0.74-0.05,1.15c-0.54,2.42-3.68,7.73-7.98,10.98"/>
		<path d="M50.88,28.68c0.81,0.34,3.79,0.34,4.61,0.34c4.76,0,23.26-1.77,31.17-2.68c1.34-0.16,3.66,0.16,4.34,0.33"/>
		<path d="M52.34,40.72c1.02,0.34,2.88,0.38,3.91,0.34c8.44-0.31,17.63-2.81,29.19-2.96c1.7-0.02,2.72,0.16,3.57,0.33"/>
		<path d="M45.52,53.37c1.31,0.48,3.71,0.55,5.02,0.48c7.28-0.35,29.09-2.35,42.87-2.66c2.18-0.05,3.5,0.23,4.59,0.47"/>
		<path d="M68.57,28.93c1.08,0.45,1.73,2.01,1.94,2.9s0.5,14.86,0.28,20.43"/>
		<path d="M59.73,56.02c0.07,0.81,0.27,2.19-0.14,3.27c-3.02,7.89-10.71,20.72-24.27,30.61"/>
		<path d="M57.78,69.86c0.78,0.45,3.34,0.6,4.13,0.46c3.69-0.61,18.99-2.15,25.19-2.62c1.21-0.09,2.31,0.09,3.31,0.47"/>
		<path d="M71.03,72.04c0.83,1.09,0.83,1.75,0.83,2.62c0,6.11,0,11.3-0.21,17.41"/>
		<path d="M49.25,92.82c0.76,0.28,3.05,0.62,4.34,0.5C69,92,79.82,91.76,92.42,91.35c2.07-0.07,4.55,0.46,5.58,0.9"/>
	</g>
</svg>
