<?xml version="1.0" encoding="UTF-8"?>
<!-- Copyright (C) 2009 Ulrich Apel.
This work is distributed under the conditions of the Creative Commons
Attribution-Share Alike 3.0 Licence. This means you are free:
* to Share - to copy, distribute and transmit the work
* to Remix - to adapt the work

Under the following conditions:
* Attribution. You must attribute the work by stating your use of KanjiVG in
  your own copyright header and linking to KanjiVG's website
  (http://kanjivg.tagaini.net)
* Share Alike. If you alter, transform, or build upon this work, you may
  distribute the resulting work only under the same or similar license to this
  one.

See http://creativecommons.org/licenses/by-sa/3.0/ for more details. -->
<!DOCTYPE svg PUBLIC "-//W3C//DTD SVG 1.0//EN" "http://www.w3.org/TR/2001/REC-SVG-20010904/DTD/svg10.dtd">
<svg xmlns="http://www.w3.org/2000/svg" width="109" height="109" viewBox="0 0 109 109">
	<g id="HelperGrid" style="opacity:0.75;">
		<rect x="0.5" y="0.5" style="fill:none;stroke:#404040;" width="108" height="108"/> 
		<line style="fill:none;stroke:#404040;" x1="0.5" y1="72.51" x2="108.5" y2="72.51"/>
		<line style="fill:none;stroke:#404040;" x1="0.5" y1="36.49" x2="108.5" y2="36.49"/>
		<line style="fill:none;stroke:#404040;" x1="72.5" y1="0.5" x2="72.5" y2="108.5"/>
		<line style="fill:none;stroke:#404040;" x1="36.5" y1="0.5" x2="36.5" y2="108.5"/>
	</g>
	<g id="Kanji">
		<text transform="matrix(1 0 0 1 0.5 93.3799)" style="font-size:108;">躍</text>
	</g>
	<g id="StrokeNumbers" style="font-size:8;fill:#808080">
		<text transform="matrix(1 0 0 1 10.25 26.25)">1</text>
		<text transform="matrix(1 0 0 1 19.25 17.25)">2</text>
		<text transform="matrix(1 0 0 1 22.25 34.3047)">3</text>
		<text transform="matrix(1 0 0 1 21.5 49.229)">4</text>
		<text transform="matrix(1 0 0 1 33.5 50.6543)">5</text>
		<text transform="matrix(1 0 0 1 6.5 55.3799)">6</text>
		<text transform="matrix(1 0 0 1 3.5 88.3047)">7</text>
		<text transform="matrix(1 0 0 1 46.25 11.25)">8</text>
		<text transform="matrix(1 0 0 1 46.25 23.25)">9</text>
		<text transform="matrix(1 0 0 1 45.25 34.25)">10</text>
		<text transform="matrix(1 0 0 1 73.25 10.25)">11</text>
		<text transform="matrix(1 0 0 1 74.25 21.25)">12</text>
		<text transform="matrix(1 0 0 1 74.25 33.25)">13</text>
		<text transform="matrix(1 0 0 1 45.5 49.3799)">14</text>
		<text transform="matrix(1 0 0 1 41 86.8047)">15</text>
		<text transform="matrix(1 0 0 1 64.25 48.25)">16</text>
		<text transform="matrix(1 0 0 1 62 55.3799)">17</text>
		<text transform="matrix(1 0 0 1 77.25 64.3799)">18</text>
		<text transform="matrix(1 0 0 1 58.25 67.3799)">19</text>
		<text transform="matrix(1 0 0 1 58.25 79.3047)">20</text>
		<text transform="matrix(1 0 0 1 58.25 91.2285)">21</text>
	</g>
	<g id="StrokePaths" style="fill:none;stroke:#404040;stroke-width:3;stroke-linecap:round;stroke-linejoin:round;">
		<path d="M14.78,18.72c0.84,0.69,1.31,1.58,1.42,2.67c0.85,3.31,1.6,8.89,2.26,13.86c0.21,1.59,0.42,3.12,0.61,4.5"/>
		<path d="M16.93,20.4c4.28-0.69,14.1-2.28,19.45-2.96c2.9-0.37,4.57,0.04,3.85,3.2c-0.91,3.99-1.7,8.98-3,14.15"/>
		<path d="M20,38.09c4.24-0.43,9.09-1.42,14.98-2.22c1.47-0.2,2.94-0.39,4.39-0.55"/>
		<path d="M27.62,38.74c0.88,0.88,1.21,2.01,1.21,3.5c0,1.02,0.03,28.38,0.03,35.5"/>
		<path d="M30.13,54.99c3.37-0.49,5.24-1.12,9.1-1.75c1.72-0.28,2.93-0.5,4.01-0.25"/>
		<path d="M16.87,54.99c0.88,0.88,0.96,1.96,0.96,3.5c0,3.13,0.03,18.76,0.03,26"/>
		<path d="M12.5,85.52c0.93,0.93,2.12,1.23,3.49,0.46c7.1-4,14.09-7.9,22.01-12.24"/>
		<path d="M47,13.75c1.5,0.75,2.75,0.75,5,0.5s9-1.72,10.5-2c2-0.38,3.5,0.88,3.5,3c0,1.06,0.05,11.88,0.05,20c0,3.01-0.05,5.59-0.05,6.25"/>
		<path d="M47.5,25.75c1.46,0.59,3.55,0.47,5.11,0.17C55.94,25.27,63.2,23.7,65,23.5"/>
		<path d="M46.5,37c1.52,0.61,3.64,0.46,5.24,0.08c3.7-0.9,10.96-2.62,12.76-2.83"/>
		<path d="M75,12.75c1.5,0.75,2.5,0.75,4.75,0.5s9.99-1.82,11.5-2c2.12-0.25,3.5,0.88,3.5,3c0,0.99,0.14,10.95,0.07,18.24c-0.04,3.73-0.07,6.75-0.07,7.51"/>
		<path d="M76,24c1.49,0.6,3.84,0.44,5.38,0.17C86.7,23.24,91.49,22.22,93.5,22"/>
		<path d="M76.75,36.25c1.6,0.64,3.95,0.42,5.64,0.09c4.06-0.79,8.97-1.88,10.86-2.09"/>
		<path d="M58.75,45.5c0.16,1.57-0.05,2.38-0.57,3.72c-3.33,8.58-8.05,16.59-15.68,27.03"/>
		<path d="M53.3,61.29c0.83,0.83,0.95,2.09,0.95,3.46c0,4.93,0.02,18.22,0.02,27.75c0,2.56,0,4.74,0,6.25"/>
		<path d="M76.01,45.25c0.04,0.6,0.04,1.4-0.13,1.9c-0.88,2.6-1.68,4.56-3.37,8.55"/>
		<path d="M53.98,59.53c5.66-0.69,25.05-2.81,34.55-4.02c2.57-0.33,4.42-0.57,5.08-0.67"/>
		<path d="M73.33,59.13c0.89,0.89,1.12,1.74,1.12,3.37c0,6.89-0.08,24.37-0.08,29.5"/>
		<path d="M55.51,70.61c5.28-0.53,20.86-2.17,29-3.04c2.32-0.25,4.02-0.44,4.66-0.52"/>
		<path d="M55.43,81.96c5.58-0.45,21.27-1.87,29.83-2.63c2.42-0.21,4.19-0.37,4.87-0.44"/>
		<path d="M55.61,94.27c6.89-0.4,25.25-1.8,35.4-2.6c2.91-0.23,4.99-0.41,5.68-0.51"/>
	</g>
</svg>
