<?xml version="1.0" encoding="UTF-8"?>
<!-- Copyright (C) 2009 Ulrich Apel.
This work is distributed under the conditions of the Creative Commons
Attribution-Share Alike 3.0 Licence. This means you are free:
* to Share - to copy, distribute and transmit the work
* to Remix - to adapt the work

Under the following conditions:
* Attribution. You must attribute the work by stating your use of KanjiVG in
  your own copyright header and linking to KanjiVG's website
  (http://kanjivg.tagaini.net)
* Share Alike. If you alter, transform, or build upon this work, you may
  distribute the resulting work only under the same or similar license to this
  one.

See http://creativecommons.org/licenses/by-sa/3.0/ for more details. -->
<!DOCTYPE svg PUBLIC "-//W3C//DTD SVG 1.0//EN" "http://www.w3.org/TR/2001/REC-SVG-20010904/DTD/svg10.dtd">
<svg xmlns="http://www.w3.org/2000/svg" width="109" height="109" viewBox="0 0 109 109">
	<g id="HelperGrid" style="opacity:0.75;">
		<rect x="0.5" y="0.5" style="fill:none;stroke:#404040;" width="108" height="108"/> 
		<line style="fill:none;stroke:#404040;" x1="0.5" y1="72.51" x2="108.5" y2="72.51"/>
		<line style="fill:none;stroke:#404040;" x1="0.5" y1="36.49" x2="108.5" y2="36.49"/>
		<line style="fill:none;stroke:#404040;" x1="72.5" y1="0.5" x2="72.5" y2="108.5"/>
		<line style="fill:none;stroke:#404040;" x1="36.5" y1="0.5" x2="36.5" y2="108.5"/>
	</g>
	<g id="Kanji">
		<text transform="matrix(1 0 0 1 0.5 93.3799)" style="font-size:108;">軸</text>
	</g>
	<g id="StrokeNumbers" style="font-size:8;fill:#808080">
		<text transform="matrix(1 0 0 1 6.75 31.5)">1</text>
		<text transform="matrix(1 0 0 1 8.5 50.5)">2</text>
		<text transform="matrix(1 0 0 1 16.5 40.6299)">3</text>
		<text transform="matrix(1 0 0 1 21.75 51.1299)">4</text>
		<text transform="matrix(1 0 0 1 21.75 61.5)">5</text>
		<text transform="matrix(1 0 0 1 7.5 75.5)">6</text>
		<text transform="matrix(1 0 0 1 23.25 16.6299)">7</text>
		<text transform="matrix(1 0 0 1 50.5 60.5)">8</text>
		<text transform="matrix(1 0 0 1 56.25 48.1299)">9</text>
		<text transform="matrix(1 0 0 1 60.5 21.5)">10</text>
		<text transform="matrix(1 0 0 1 60.75 64.0762)">11</text>
		<text transform="matrix(1 0 0 1 60.5615 83.5)">12</text>
	</g>
	<g id="StrokePaths" style="fill:none;stroke:#404040;stroke-width:3;stroke-linecap:round;stroke-linejoin:round;">
		<path d="M13.58,30.52c1.17,0.48,3.42,0.46,4.1,0.35c6.5-1.02,18.52-2.53,28.13-3.59c1.13-0.12,1.81,0.19,2.37,0.4"/>
		<path d="M13.81,42.77c0.53,0.44,1.2,0.77,1.3,1.35c0.72,4.18,2.69,14.48,3.7,22.39"/>
		<path d="M15.85,44.35c8.9-1.35,25.21-4.84,30.69-4.97c2.27-0.05,2.73,1.14,2.64,2.46c-0.33,4.5-1.72,12.38-3.52,19.76"/>
		<path d="M17.74,53.78c6.44-0.74,12.84-1.72,19.28-2.39c0.66-0.07,1.32-0.13,2-0.2"/>
		<path d="M18.85,64.21c7.04-0.87,16.51-2.35,26.8-3.47"/>
		<path d="M9.53,78.33c1.17,0,2.94,0.04,4-0.03C25,77.5,39.24,74.14,47.57,74c1.74-0.03,2.78,0.24,3.65,0.49"/>
		<path d="M30.8,15.63c0.45,0.57,1.89,2.26,1.98,3.4c0.09,1.14-0.06,70.25-0.15,77.35"/>
		<path d="M54.93,49.95c0.29,0.73,1.38,3.2,1.45,4.11C57.25,65,57.24,76.19,58,89.75"/>
		<path d="M56.3,52.07c11.95-1.82,26.2-4.32,35.14-4.84c2.83-0.16,4.26,1.87,4.11,3.84C94.98,58.3,94,74.5,92.13,87.34"/>
		<path d="M72.74,20.57c1.26,1.18,2,2.88,2.01,4.43c0.04,15.3,0.23,56.45,0.23,60.44"/>
		<path d="M57.53,68.02c8.28-0.89,16.55-1.83,24.83-2.7c1-0.1,1.96-0.2,2.89-0.3"/>
		<path d="M58.54,87.03c8.48-0.52,22.94-2.96,33.18-3.15"/>
	</g>
</svg>
