<?xml version="1.0" encoding="UTF-8"?>
<!-- Copyright (C) 2009 Ulrich Apel.
This work is distributed under the conditions of the Creative Commons
Attribution-Share Alike 3.0 Licence. This means you are free:
* to Share - to copy, distribute and transmit the work
* to Remix - to adapt the work

Under the following conditions:
* Attribution. You must attribute the work by stating your use of KanjiVG in
  your own copyright header and linking to KanjiVG's website
  (http://kanjivg.tagaini.net)
* Share Alike. If you alter, transform, or build upon this work, you may
  distribute the resulting work only under the same or similar license to this
  one.

See http://creativecommons.org/licenses/by-sa/3.0/ for more details. -->
<!DOCTYPE svg PUBLIC "-//W3C//DTD SVG 1.0//EN" "http://www.w3.org/TR/2001/REC-SVG-20010904/DTD/svg10.dtd">
<svg xmlns="http://www.w3.org/2000/svg" width="109" height="109" viewBox="0 0 109 109">
	<g id="HelperGrid" style="opacity:0.75;">
		<rect x="0.5" y="0.5" style="fill:none;stroke:#404040;" width="108" height="108"/> 
		<line style="fill:none;stroke:#404040;" x1="0.5" y1="72.51" x2="108.5" y2="72.51"/>
		<line style="fill:none;stroke:#404040;" x1="0.5" y1="36.49" x2="108.5" y2="36.49"/>
		<line style="fill:none;stroke:#404040;" x1="72.5" y1="0.5" x2="72.5" y2="108.5"/>
		<line style="fill:none;stroke:#404040;" x1="36.5" y1="0.5" x2="36.5" y2="108.5"/>
	</g>
	<g id="Kanji">
		<text transform="matrix(1 0 0 1 0.5 93.3799)" style="font-size:108;">輩</text>
	</g>
	<g id="StrokeNumbers" style="font-size:8;fill:#808080">
		<text transform="matrix(1 0 0 1 33.75 13.5)">1</text>
		<text transform="matrix(1 0 0 1 13.4521 24.5)">2</text>
		<text transform="matrix(1 0 0 1 13.5 34.479)">3</text>
		<text transform="matrix(1 0 0 1 9.5 47.5)">4</text>
		<text transform="matrix(1 0 0 1 54.75 10.5)">5</text>
		<text transform="matrix(1 0 0 1 68.5 17.5)">6</text>
		<text transform="matrix(1 0 0 1 68.7852 27.5)">7</text>
		<text transform="matrix(1 0 0 1 68.7539 35.979)">8</text>
		<text transform="matrix(1 0 0 1 41.25 45.5)">9</text>
		<text transform="matrix(1 0 0 1 22.5 64.5)">10</text>
		<text transform="matrix(1 0 0 1 35.25 56.5)">11</text>
		<text transform="matrix(1 0 0 1 38.25 64.5)">12</text>
		<text transform="matrix(1 0 0 1 39.5 73.4785)">13</text>
		<text transform="matrix(1 0 0 1 12.5 84.1299)">14</text>
		<text transform="matrix(1 0 0 1 46.5 33.1299)">15</text>
	</g>
	<g id="StrokePaths" style="fill:none;stroke:#404040;stroke-width:3;stroke-linecap:round;stroke-linejoin:round;">
		<path d="M40.12,12c1.09,0.5,1.96,2.23,1.96,3.25c0,16.5,0.92,26.25-15.58,35"/>
		<path d="M21.5,23.5c1.33,0,2.88,0.25,4.21,0S37.45,21.75,39,21"/>
		<path d="M20.75,33.25c1.36,0,2.94,0.25,4.3,0C26.41,33,36.38,31,40,30.25"/>
		<path d="M15.5,42.07c1.32,0.88,2.25,1.18,3.8,0.87c1.3-0.26,14-2.91,19.45-4.44"/>
		<path d="M62.37,10.75c1.09,0.5,1.74,2.25,1.96,3.25c0.22,1,0,21.75-0.22,28"/>
		<path d="M65.25,21.25c4.5-0.38,14.62-2.12,18-2.75c1.23-0.23,0.38-0.12,2.5-0.12"/>
		<path d="M65.62,29.5c4.5-0.38,12.62-1.62,16-2.25c1.23-0.23,0.38-0.12,2.5-0.12"/>
		<path d="M65.5,36.88C70,36.5,84.62,35.25,88,34.62c1.23-0.23,0.38-0.12,2.5-0.12"/>
		<path d="M35.41,48.39c0.76,0.28,2.16,0.37,2.92,0.28c11.08-1.38,24.33-2.48,35.11-3.21c1.27-0.09,2.03,0.13,2.66,0.27"/>
		<path d="M31.95,57.99c0.67,0.38,1.52,1.79,1.65,2.29c0.91,3.61,2.5,10.89,3.78,17.73"/>
		<path d="M34.53,58.85c10.2-0.72,32.01-3.5,38.97-3.5c2,0,3.64,1.17,3.35,3.12c-0.6,4.02-1.96,10.77-4.25,17.15"/>
		<path d="M36.94,67.38c8.18-0.2,16.35-1.56,24.5-2.2c0.91-0.07,1.82-0.14,2.73-0.2"/>
		<path d="M36.94,76.38c8.94-0.75,24.53-3,36.17-3"/>
		<path d="M15.14,86.82c1.47,0.61,4.14,0.75,5.62,0.61c18.79-1.83,47.44-4.2,64.72-4.6c2.45-0.05,3.91,0.29,5.13,0.59"/>
		<path d="M53.2,36.63c0.66,0.44,1.68,1.87,1.68,3.67c0,5.45-0.08,53.59-0.22,59.08"/>
	</g>
</svg>
