<?xml version="1.0" encoding="UTF-8"?>
<!-- Copyright (C) 2009 Ulrich Apel.
This work is distributed under the conditions of the Creative Commons
Attribution-Share Alike 3.0 Licence. This means you are free:
* to Share - to copy, distribute and transmit the work
* to Remix - to adapt the work

Under the following conditions:
* Attribution. You must attribute the work by stating your use of KanjiVG in
  your own copyright header and linking to KanjiVG's website
  (http://kanjivg.tagaini.net)
* Share Alike. If you alter, transform, or build upon this work, you may
  distribute the resulting work only under the same or similar license to this
  one.

See http://creativecommons.org/licenses/by-sa/3.0/ for more details. -->
<!DOCTYPE svg PUBLIC "-//W3C//DTD SVG 1.0//EN" "http://www.w3.org/TR/2001/REC-SVG-20010904/DTD/svg10.dtd">
<svg xmlns="http://www.w3.org/2000/svg" width="109" height="109" viewBox="0 0 109 109">
	<g id="HelperGrid" style="opacity:0.75;">
		<rect x="0.5" y="0.5" style="fill:none;stroke:#404040;" width="108" height="108"/> 
		<line style="fill:none;stroke:#404040;" x1="0.5" y1="72.51" x2="108.5" y2="72.51"/>
		<line style="fill:none;stroke:#404040;" x1="0.5" y1="36.49" x2="108.5" y2="36.49"/>
		<line style="fill:none;stroke:#404040;" x1="72.5" y1="0.5" x2="72.5" y2="108.5"/>
		<line style="fill:none;stroke:#404040;" x1="36.5" y1="0.5" x2="36.5" y2="108.5"/>
	</g>
	<g id="Kanji">
		<text transform="matrix(1 0 0 1 0.5 93.3799)" style="font-size:108;">輸</text>
	</g>
	<g id="StrokeNumbers" style="font-size:8;fill:#808080">
		<text transform="matrix(1 0 0 1 3.75 28.6299)">1</text>
		<text transform="matrix(1 0 0 1 5.25 45.0547)">2</text>
		<text transform="matrix(1 0 0 1 14.25 37.479)">3</text>
		<text transform="matrix(1 0 0 1 17.25 47.9043)">4</text>
		<text transform="matrix(1 0 0 1 18.5 56.8291)">5</text>
		<text transform="matrix(1 0 0 1 2.25 74.7549)">6</text>
		<text transform="matrix(1 0 0 1 16.5 12.1299)">7</text>
		<text transform="matrix(1 0 0 1 55.5 18.1299)">8</text>
		<text transform="matrix(1 0 0 1 73.5 19.5)">9</text>
		<text transform="matrix(1 0 0 1 57.5 38.5)">10</text>
		<text transform="matrix(1 0 0 1 41.5 64.5)">11</text>
		<text transform="matrix(1 0 0 1 49.5 51.5)">12</text>
		<text transform="matrix(1 0 0 1 53.25 63.0547)">13</text>
		<text transform="matrix(1 0 0 1 53.25 73.4785)">14</text>
		<text transform="matrix(1 0 0 1 68.5 51.1299)">15</text>
		<text transform="matrix(1 0 0 1 76.5 48.5)">16</text>
	</g>
	<g id="StrokePaths" style="fill:none;stroke:#404040;stroke-width:3;stroke-linecap:round;stroke-linejoin:round;">
		<path d="M11.08,27.3c1.17,0.45,3.72,0.42,4.34,0.36c6.77-0.64,14.29-2.54,22.48-3.54c1.11-0.14,2.44-0.42,3.54-0.03"/>
		<path d="M11.81,39.02c0.71,0.71,1.06,1.77,1.14,2.35c0.52,3.41,1.27,9.16,2.19,16.11c0.21,1.56,0.4,3.08,0.56,4.53"/>
		<path d="M13.85,40.6c7.42-1.66,18.11-4.03,23.77-4.6c3.2-0.32,4.24,0.77,3.98,3.88c-0.33,3.83-0.92,9.55-2.03,15.13c-0.24,1.19-0.48,2.39-0.74,3.59"/>
		<path d="M15.27,50.03c8.1-1.53,17.23-3.16,24.5-3.76"/>
		<path d="M16.75,59.21c6.2-0.87,13.25-2.08,21.33-2.72"/>
		<path d="M10.03,73.96c1.61,0.29,3.57,0.12,4.83-0.03c9.78-1.18,14.76-2.81,22.57-3.56c2.09-0.2,3.36-0.28,4.41-0.04"/>
		<path d="M24.8,12.38c1.09,1.09,1.39,2.51,1.48,3.65c0.08,0.95-0.02,50.61-0.1,70.97c-0.02,3.92-0.03,6.74-0.05,7.88"/>
		<path d="M64.82,12c0.06,0.8,0.07,2.15-0.37,3.2c-2.7,6.42-9.7,18.92-19.7,29.4"/>
		<path d="M65.59,14.9c3.27,3.91,16.15,16.49,22.61,22.14c1.34,1.17,3.67,2.58,5.29,3.72"/>
		<path d="M55.34,41.8c1.54,0.32,3.05,0.32,4.14,0.17c4.07-0.56,11.31-1.78,15.28-2.19c1.27-0.13,2.55-0.32,3.79,0.06"/>
		<path d="M49.31,53.73c0.67,0.67,0.98,1.64,0.98,3.05c0,5.09-0.06,20.3-0.06,31.21c0,3.94-0.01,6.81-0.03,7.37"/>
		<path d="M51.52,55.11c3.19-0.72,6.66-1.6,8.84-2.17c2.14-0.56,3.9,0.94,3.83,3.68c-0.13,5.54,0.05,24.7,0.05,34c0,9.53-3.84,1.96-4.75,0.76"/>
		<path d="M51.56,65.79C55,65.25,59.25,64.5,62.75,64"/>
		<path d="M51.63,76.28c3.87-0.28,6.62-1.03,11.23-1.32"/>
		<path d="M74.53,54.21c0.88,0.88,1.36,2.16,1.36,3.68c0,6.13,0.11,13.41,0.05,18.87c-0.03,2.75-0.06,4.92-0.06,5.97"/>
		<path d="M87.44,48.13c0.96,0.96,1.36,2.37,1.36,3.93c0,9.22,0.09,37.3,0.09,40.44c0,7.75-4.56,0.95-5.51,0.16"/>
	</g>
</svg>
