<?xml version="1.0" encoding="UTF-8"?>
<!DOCTYPE svg PUBLIC "-//W3C//DTD SVG 1.0//EN" "http://www.w3.org/TR/2001/REC-SVG-20010904/DTD/svg10.dtd">
<svg xmlns="http://www.w3.org/2000/svg" width="109" height="109" viewBox="0 0 109 109">
	<g id="HelperGrid" style="opacity:0.75;">
		<rect x="0.5" y="0.5" style="fill:none;stroke:#404040;" width="108" height="108"/> 
		<line style="fill:none;stroke:#404040;" x1="0.5" y1="72.51" x2="108.5" y2="72.51"/>
		<line style="fill:none;stroke:#404040;" x1="0.5" y1="36.49" x2="108.5" y2="36.49"/>
		<line style="fill:none;stroke:#404040;" x1="72.5" y1="0.5" x2="72.5" y2="108.5"/>
		<line style="fill:none;stroke:#404040;" x1="36.5" y1="0.5" x2="36.5" y2="108.5"/>
	</g>
	<g id="Kanji">
		<text transform="matrix(1 0 0 1 0.5 93.3799)" style="font-size:108;">農</text>
	</g>
	<g id="StrokeNumbers" style="font-size:8;fill:#808080">
		<text transform="matrix(1 0 0 1 23.5 28.6299)">1</text>
		<text transform="matrix(1 0 0 1 30.5 17.5)">2</text>
		<text transform="matrix(1 0 0 1 38.5 8.5)">3</text>
		<text transform="matrix(1 0 0 1 52.5 8.5)">4</text>
		<text transform="matrix(1 0 0 1 36.75 27.5)">5</text>
		<text transform="matrix(1 0 0 1 37.5 37.6299)">6</text>
		<text transform="matrix(1 0 0 1 27.75 48.5)">7</text>
		<text transform="matrix(1 0 0 1 22.5 58.5)">8</text>
		<text transform="matrix(1 0 0 1 34.5 59.5)">9</text>
		<text transform="matrix(1 0 0 1 33.75 67.6299)">10</text>
		<text transform="matrix(1 0 0 1 34.5 81.5)">11</text>
		<text transform="matrix(1 0 0 1 79.5 76.998)">12</text>
		<text transform="matrix(1 0 0 1 49.5 83.5)">13</text>
	</g>
	<g id="StrokePaths" style="fill:none;stroke:#404040;stroke-width:3;stroke-linecap:round;stroke-linejoin:round;">
		<path d="M29.05,19.67c0.35,0.52,0.7,0.77,0.7,1.46s4.45,19.26,4.45,19.61c0,0.34,0.12,0.34,0.23,1.03"/>
		<path d="M30.34,20.63c3.23-0.32,43.42-3.69,46.27-3.78c2.89-0.1,3.64,1.4,3.33,3.18c-0.62,3.49-2.19,8.98-4.83,18.79"/>
		<path d="M42.89,10.91c1.01,0.46,2.21,2.07,2.32,3.02c1.29,11.57,1.29,13.82,2.51,25.04"/>
		<path d="M61.62,9.23c1.01,0.46,1.42,2.07,1.32,3.02c-0.94,9-2.44,19.75-3.19,25"/>
		<path d="M32.35,29.86c10.03,0,20.21-1.41,30.2-2.15c1.25-0.09,4.47-0.18,5.63-0.27"/>
		<path d="M35.24,40.03c5.46-0.33,32.56-2.71,39.36-3"/>
		<path d="M27.23,50c1.38,0.41,3.92,0.51,5.3,0.41c11.19-0.78,41.49-3.53,47.46-3.88c2.3-0.14,2.52,0.22,4.83,0.41"/>
		<path d="M30.66,52.12c0.03,1.3-0.07,3.34-0.07,5.21c0,17.17-6.84,32.42-16.72,41.8"/>
		<path d="M40.89,59.3c0.85,0.29,2.42,0.37,3.28,0.29c5.44-0.5,21.66-2.5,27.08-2.97c1.42-0.12,2.28,0.14,2.99,0.28"/>
		<path d="M33.71,70.4c0.86,0.29,2.42,0.37,3.28,0.29c5.44-0.5,35.63-3.53,41.51-3.62c1.42-0.02,4.1,0.14,4.81,0.29"/>
		<path d="M42.58,72.78c1.37,1.34,1.27,1.91,1.27,3.83c0,9.04-0.09,18.64-0.91,20.13c-0.74,1.34,1,2.9,2.9,1.75c1.9-1.15,12.37-9.18,14.91-10.33"/>
		<path d="M54.02,75.42c7.17,1.77,27.81,18.19,33.42,21.55c1.9,1.14,3.53,1.63,5.43,1.96"/>
		<path d="M75.59,71.93c0.02,0.22,0.04,0.57-0.04,0.88c-0.51,1.85-3.44,5.93-7.44,8.42"/>
	</g>
</svg>
