<?xml version="1.0" encoding="UTF-8"?>
<!-- Copyright (C) 2009 Ulrich Apel.
This work is distributed under the conditions of the Creative Commons
Attribution-Share Alike 3.0 Licence. This means you are free:
* to Share - to copy, distribute and transmit the work
* to Remix - to adapt the work

Under the following conditions:
* Attribution. You must attribute the work by stating your use of KanjiVG in
  your own copyright header and linking to KanjiVG's website
  (http://kanjivg.tagaini.net)
* Share Alike. If you alter, transform, or build upon this work, you may
  distribute the resulting work only under the same or similar license to this
  one.

See http://creativecommons.org/licenses/by-sa/3.0/ for more details. -->
<!DOCTYPE svg PUBLIC "-//W3C//DTD SVG 1.0//EN" "http://www.w3.org/TR/2001/REC-SVG-20010904/DTD/svg10.dtd">
<svg xmlns="http://www.w3.org/2000/svg" width="109" height="109" viewBox="0 0 109 109">
	<g id="HelperGrid" style="opacity:0.75;">
		<rect x="0.5" y="0.5" style="fill:none;stroke:#404040;" width="108" height="108"/> 
		<line style="fill:none;stroke:#404040;" x1="0.5" y1="72.51" x2="108.5" y2="72.51"/>
		<line style="fill:none;stroke:#404040;" x1="0.5" y1="36.49" x2="108.5" y2="36.49"/>
		<line style="fill:none;stroke:#404040;" x1="72.5" y1="0.5" x2="72.5" y2="108.5"/>
		<line style="fill:none;stroke:#404040;" x1="36.5" y1="0.5" x2="36.5" y2="108.5"/>
	</g>
	<g id="Kanji">
		<text transform="matrix(1 0 0 1 0.5 93.3799)" style="font-size:108;">速</text>
	</g>
	<g id="StrokeNumbers" style="font-size:8;fill:#808080">
		<text transform="matrix(1 0 0 1 37.5 27.1299)">1</text>
		<text transform="matrix(1 0 0 1 40.5 45.1299)">2</text>
		<text transform="matrix(1 0 0 1 48.75 35.5)">3</text>
		<text transform="matrix(1 0 0 1 54.75 48.1299)">4</text>
		<text transform="matrix(1 0 0 1 56.5 12.5)">5</text>
		<text transform="matrix(1 0 0 1 50.25 63.1299)">6</text>
		<text transform="matrix(1 0 0 1 78.5 59.5)">7</text>
		<text transform="matrix(1 0 0 1 12.75 19.5)">8</text>
		<text transform="matrix(1 0 0 1 5.25 50.5)">9</text>
		<text transform="matrix(1 0 0 1 5.5 83.5)">10</text>
	</g>
	<g id="StrokePaths" style="fill:none;stroke:#404040;stroke-width:3;stroke-linecap:round;stroke-linejoin:round;">
		<path d="M44.4,24.93c0.79,0.32,2.23,0.37,3.02,0.32c6.62-0.44,31.81-4.21,38.9-4.51c1.31-0.06,2.1,0.15,2.75,0.31"/>
		<path d="M46.92,36.15c0.34,0.32,0.68,0.59,0.83,0.99c1.16,3.17,2.55,11.9,3.35,17.59"/>
		<path d="M49,37.88c10.06-1.37,29.8-3.99,33.73-4.31c2.45-0.2,4,2.05,3.35,3.89c-1.73,4.92-2.15,6.59-3.53,10.35"/>
		<path d="M51.25,52.37c9.7-1.2,23.68-3.5,32.74-4.1"/>
		<path d="M65.02,10.75c1.05,0.42,1.67,1.88,1.88,2.72C67.12,14.31,66.7,72.76,66.7,78c0,12.25-5.2,2.75-6.45,1.5"/>
		<path d="M65.45,50.88c-4.54,8.87-16.34,21.42-25.78,26.43"/>
		<path d="M68.83,56.92c6.19,1.33,18.49,12.08,22.59,18.73"/>
		<path d="M21.21,18.75c3.63,1.74,9.38,7.17,10.29,9.88"/>
		<path d="M14.5,50.25c2.25,1,3.75,0.5,4.75,0.25s8-3.5,9.5-4s3.75,1.25,2.75,2.75s-4,7.25-4.75,8.5s-0.5,3.5,1,5.25s2.75,3.75,3.5,5.25s0.75,2.75-0.75,4S21.5,80.5,20,81"/>
		<path d="M15.75,82.5c3-0.5,9-1.75,13.5-0.75s30.07,7.71,34.5,9c12,3.5,21.25,4.5,30.25,2.75"/>
	</g>
</svg>
