<?xml version="1.0" encoding="UTF-8"?>
<!-- Copyright (C) 2009 Ulrich Apel.
This work is distributed under the conditions of the Creative Commons
Attribution-Share Alike 3.0 Licence. This means you are free:
* to Share - to copy, distribute and transmit the work
* to Remix - to adapt the work

Under the following conditions:
* Attribution. You must attribute the work by stating your use of KanjiVG in
  your own copyright header and linking to KanjiVG's website
  (http://kanjivg.tagaini.net)
* Share Alike. If you alter, transform, or build upon this work, you may
  distribute the resulting work only under the same or similar license to this
  one.

See http://creativecommons.org/licenses/by-sa/3.0/ for more details. -->
<!DOCTYPE svg PUBLIC "-//W3C//DTD SVG 1.0//EN" "http://www.w3.org/TR/2001/REC-SVG-20010904/DTD/svg10.dtd">
<svg xmlns="http://www.w3.org/2000/svg" width="109" height="109" viewBox="0 0 109 109">
	<g id="HelperGrid" style="opacity:0.75;">
		<rect x="0.5" y="0.5" style="fill:none;stroke:#404040;" width="108" height="108"/> 
		<line style="fill:none;stroke:#404040;" x1="0.5" y1="72.51" x2="108.5" y2="72.51"/>
		<line style="fill:none;stroke:#404040;" x1="0.5" y1="36.49" x2="108.5" y2="36.49"/>
		<line style="fill:none;stroke:#404040;" x1="72.5" y1="0.5" x2="72.5" y2="108.5"/>
		<line style="fill:none;stroke:#404040;" x1="36.5" y1="0.5" x2="36.5" y2="108.5"/>
	</g>
	<g id="Kanji">
		<text transform="matrix(1 0 0 1 0.5 93.3799)" style="font-size:108;">遭</text>
	</g>
	<g id="StrokeNumbers" style="font-size:8;fill:#808080">
		<text transform="matrix(1 0 0 1 35.25 21.1299)">1</text>
		<text transform="matrix(1 0 0 1 35.5 37.5)">2</text>
		<text transform="matrix(1 0 0 1 45.5 28.5)">3</text>
		<text transform="matrix(1 0 0 1 45.75 10.6299)">4</text>
		<text transform="matrix(1 0 0 1 62.25 9.1299)">5</text>
		<text transform="matrix(1 0 0 1 48.75 38.5)">6</text>
		<text transform="matrix(1 0 0 1 49.5 47.5)">7</text>
		<text transform="matrix(1 0 0 1 42.75 67.4785)">8</text>
		<text transform="matrix(1 0 0 1 52.5 56.5)">9</text>
		<text transform="matrix(1 0 0 1 56.5 66.5762)">10</text>
		<text transform="matrix(1 0 0 1 56.5 78.5)">11</text>
		<text transform="matrix(1 0 0 1 8.25 19.6299)">12</text>
		<text transform="matrix(1 0 0 1 2.5 52.6299)">13</text>
		<text transform="matrix(1 0 0 1 4.5 84.0547)">14</text>
	</g>
	<g id="StrokePaths" style="fill:none;stroke:#404040;stroke-width:3;stroke-linecap:round;stroke-linejoin:round;">
		<path d="M40.71,20.36c0.94,0.4,2.65,0.48,3.59,0.4c9.52-0.85,29.61-2.99,41.71-3.29c1.56-0.04,2.5,0.19,3.28,0.39"/>
		<path d="M41.86,30.89c0.33,0.51,0.95,1.61,1.04,2.29c0.3,2.24,2.6,13.07,3.55,18.22"/>
		<path d="M43.33,31.85c3.02-0.32,39.72-4.64,42.38-4.53c1.41,0.06,3.21,1.61,3.11,3.34c-0.25,4.39-3.97,17.44-4.59,18.42"/>
		<path d="M55.71,12.28c0.66,0.33,1.14,1.46,1.19,2.13c1.02,14.79,1.41,28.27,1.86,34.32"/>
		<path d="M71.54,9.75c0.66,0.33,1.23,1.46,1.18,2.13c-1.26,19.81-0.89,22.28-1.8,36.03"/>
		<path d="M44.59,40.97c9.55-0.72,19.09-1.66,28.64-2.47c1.1-0.09,2.67-0.18,3.68-0.27"/>
		<path d="M47.21,50.26c5.1-0.33,29.74-2.54,36.1-2.83"/>
		<path d="M49.15,58.16c0.23,0.41,0.73,1.69,0.86,2.21c1.03,4.23,2.92,15.44,3.55,23.27"/>
		<path d="M50.3,59.68c7.97-0.64,22.56-2.13,28.51-2.71c2.19-0.21,3.31,0.99,3.2,2.14c-0.41,4.19-1.93,16.42-2.93,23.4"/>
		<path d="M52.21,70.15c4.63-0.5,9.3-0.8,13.95-1.17c1.57-0.13,3.14-0.25,4.63-0.37"/>
		<path d="M53.56,81.81c5.74-0.15,17.59-1.39,25.52-1.72"/>
		<path d="M20.71,19.25c3.63,1.74,9.38,7.17,10.29,9.88"/>
		<path d="M14,50.75c2.25,1,3.75,0.5,4.75,0.25s8-3.5,9.5-4S32,48.25,31,49.75s-4,7.25-4.75,8.5s-0.5,3.5,1,5.25s2.75,3.75,3.5,5.25s0.75,2.75-0.75,4S21,81,19.5,81.5"/>
		<path d="M15.25,83c3-0.5,9-1.75,13.5-0.75s30.07,7.71,34.5,9c12,3.5,21.25,4.5,30.25,2.75"/>
	</g>
</svg>
