<?xml version="1.0" encoding="UTF-8"?>
<!-- Copyright (C) 2009 Ulrich Apel.
This work is distributed under the conditions of the Creative Commons
Attribution-Share Alike 3.0 Licence. This means you are free:
* to Share - to copy, distribute and transmit the work
* to Remix - to adapt the work

Under the following conditions:
* Attribution. You must attribute the work by stating your use of KanjiVG in
  your own copyright header and linking to KanjiVG's website
  (http://kanjivg.tagaini.net)
* Share Alike. If you alter, transform, or build upon this work, you may
  distribute the resulting work only under the same or similar license to this
  one.

See http://creativecommons.org/licenses/by-sa/3.0/ for more details. -->
<!DOCTYPE svg PUBLIC "-//W3C//DTD SVG 1.0//EN" "http://www.w3.org/TR/2001/REC-SVG-20010904/DTD/svg10.dtd">
<svg xmlns="http://www.w3.org/2000/svg" width="109" height="109" viewBox="0 0 109 109">
	<g id="HelperGrid" style="opacity:0.75;">
		<rect x="0.5" y="0.5" style="fill:none;stroke:#404040;" width="108" height="108"/> 
		<line style="fill:none;stroke:#404040;" x1="0.5" y1="72.51" x2="108.5" y2="72.51"/>
		<line style="fill:none;stroke:#404040;" x1="0.5" y1="36.49" x2="108.5" y2="36.49"/>
		<line style="fill:none;stroke:#404040;" x1="72.5" y1="0.5" x2="72.5" y2="108.5"/>
		<line style="fill:none;stroke:#404040;" x1="36.5" y1="0.5" x2="36.5" y2="108.5"/>
	</g>
	<g id="Kanji">
		<text transform="matrix(1 0 0 1 0.5 93.3799)" style="font-size:108;">遲</text>
	</g>
	<g id="StrokeNumbers" style="font-size:8;fill:#808080">
		<text transform="matrix(1 0 0 1 47.5 12.5)">1</text>
		<text transform="matrix(1 0 0 1 49.5 24.5)">2</text>
		<text transform="matrix(1 0 0 1 37.5 21.5)">3</text>
		<text transform="matrix(1 0 0 1 59.5 33.4043)">4</text>
		<text transform="matrix(1 0 0 1 49.5 34.5)">5</text>
		<text transform="matrix(1 0 0 1 49.5 42.5)">6</text>
		<text transform="matrix(1 0 0 1 72.5 32.1797)">7</text>
		<text transform="matrix(1 0 0 1 73.5 40.5)">8</text>
		<text transform="matrix(1 0 0 1 48.5 53.5)">9</text>
		<text transform="matrix(1 0 0 1 58.25 56.5)">10</text>
		<text transform="matrix(1 0 0 1 50.5 69.5)">11</text>
		<text transform="matrix(1 0 0 1 70.5 52.5)">12</text>
		<text transform="matrix(1 0 0 1 10.5 11.5)">13</text>
		<text transform="matrix(1 0 0 1 5.5 30.5)">14</text>
		<text transform="matrix(1 0 0 1 0.5 53.5)">15</text>
		<text transform="matrix(1 0 0 1 1.5 81.5)">16</text>
	</g>
	<g id="StrokePaths" style="fill:none;stroke:#404040;stroke-width:3;stroke-linecap:round;stroke-linejoin:round;">
		<path d="M41.98,14.41c1.57,0.67,3.38,0.79,5.05,0.67c10.58-0.81,34.15-3.38,37.73-3.93c2.36-0.37,2.74,1.61,2.57,2.66c-0.54,3.32-2.14,6.22-2.85,10.19"/>
		<path d="M47.26,27.78c4.51-0.22,35.38-3.84,40.09-4.06"/>
		<path d="M45.1,15.45c0.15,1.3-0.06,2.3-0.06,5.37c0,19.68-2.29,45.43-12.04,54.06"/>
		<path d="M67.05,31.35c0.81,0.65,1.37,1.42,1.44,3.57c0.33,10.36-0.02,6.54-0.02,10.07"/>
		<path d="M49.28,36.15c0.63,0.11,1.77,0.11,2.4,0.11c2.58,0,6.08-1,7.98-1.14c1.03-0.07,1.67,0.05,2.19,0.11"/>
		<path d="M49.21,44.35c0.62,0.11,1.77,0.1,2.4,0.11c2.64,0.04,5.89-0.96,8.48-1.14c1.03-0.07,1.16,0.05,1.69,0.11"/>
		<path d="M74.15,33.53c0.59,0.11,1.65,0.13,2.23,0.11C80,33.5,84.25,32.5,87.32,32c0.95-0.15,1.55,0.05,2.04,0.11"/>
		<path d="M75.15,41.57c0.65,0.12,1.84,0.6,2.49,0.62c2.36,0.06,7.36-1.44,9.98-1.71c1.07-0.11,1.73,0.06,2.27,0.12"/>
		<path d="M56.25,50.31c0.03,0.37,0.05,0.96-0.05,1.5c-0.61,3.17-4.09,10.11-8.85,14.36"/>
		<path d="M54.34,58.77c0.94,0.27,2.67,0.34,3.62,0.27c7.04-0.54,17.37-2.12,27.76-3.07c1.56-0.14,2.52,0.13,3.3,0.26"/>
		<path d="M42.91,72.49c1.39,0.31,3.94,0.37,5.34,0.31c14.48-0.53,21.38-2.92,42.52-3.04c2.32-0.02,3.71,0.15,4.87,0.31"/>
		<path d="M67.18,50.98c0.33,0.22,1.02,1.62,1.08,2.06c0.07,0.43-0.04,34-0.11,36.71"/>
		<path d="M20.96,12c3.9,1.66,10.07,6.81,11.04,9.38"/>
		<path d="M16.71,30.5c4.25,1.35,10.98,5.54,12.04,7.63"/>
		<path d="M11,53.44c2.25,0.85,3.75,0.43,4.75,0.21c1-0.21,8.5-2.49,10-2.92c1.5-0.43,3.75,1.07,2.75,2.35s-4.5,6.19-5.25,7.26c-0.75,1.07-0.5,2.99,1,4.48s2.75,2.7,3.5,3.98c0.75,1.28,0.75,2.35-0.75,3.42c-1.5,1.07-10.5,7.54-12,7.97"/>
		<path d="M11.25,81.35c2.95-0.59,11-2.1,17.5,0.15c4.33,1.5,24.88,8.57,29.23,10.1C69.79,95.73,76.25,97,85.75,97"/>
	</g>
</svg>
