<?xml version="1.0" encoding="UTF-8"?>
<!DOCTYPE svg PUBLIC "-//W3C//DTD SVG 1.0//EN" "http://www.w3.org/TR/2001/REC-SVG-20010904/DTD/svg10.dtd">
<svg xmlns="http://www.w3.org/2000/svg" width="109" height="109" viewBox="0 0 109 109">
	<g id="HelperGrid" style="opacity:0.75;">
		<rect x="0.5" y="0.5" style="fill:none;stroke:#404040;" width="108" height="108"/> 
		<line style="fill:none;stroke:#404040;" x1="0.5" y1="72.51" x2="108.5" y2="72.51"/>
		<line style="fill:none;stroke:#404040;" x1="0.5" y1="36.49" x2="108.5" y2="36.49"/>
		<line style="fill:none;stroke:#404040;" x1="72.5" y1="0.5" x2="72.5" y2="108.5"/>
		<line style="fill:none;stroke:#404040;" x1="36.5" y1="0.5" x2="36.5" y2="108.5"/>
	</g>
	<g id="Kanji">
		<text transform="matrix(1 0 0 1 0.5 93.3799)" style="font-size:108;">邏</text>
	</g>
	<g id="StrokeNumbers" style="font-size:8;fill:#808080">
		<text transform="matrix(1 0 0 1 33.5 21.5)">1</text>
		<text transform="matrix(1 0 0 1 42.5 12.5)">2</text>
		<text transform="matrix(1 0 0 1 58.5 21.479)">3</text>
		<text transform="matrix(1 0 0 1 74.5 21.5)">4</text>
		<text transform="matrix(1 0 0 1 46.5 24.5)">5</text>
		<text transform="matrix(1 0 0 1 40.5 37.5)">6</text>
		<text transform="matrix(1 0 0 1 52.5 42.5)">7</text>
		<text transform="matrix(1 0 0 1 55.5 56.5)">8</text>
		<text transform="matrix(1 0 0 1 30.5 77.5)">9</text>
		<text transform="matrix(1 0 0 1 36.5 73.5)">10</text>
		<text transform="matrix(1 0 0 1 45.5 71.5)">11</text>
		<text transform="matrix(1 0 0 1 62.5 33.5)">12</text>
		<text transform="matrix(1 0 0 1 61.25 55.5)">13</text>
		<text transform="matrix(1 0 0 1 75.25 32.5)">14</text>
		<text transform="matrix(1 0 0 1 72.5 42.5)">15</text>
		<text transform="matrix(1 0 0 1 84.25 50.5)">16</text>
		<text transform="matrix(1 0 0 1 71.25 52.5)">17</text>
		<text transform="matrix(1 0 0 1 71.25 63.8535)">18</text>
		<text transform="matrix(1 0 0 1 71.25 76.5)">19</text>
		<text transform="matrix(1 0 0 1 8.5 16.5)">20</text>
		<text transform="matrix(1 0 0 1 5.5 33.5)">21</text>
		<text transform="matrix(1 0 0 1 0.5 57.1299)">22</text>
		<text transform="matrix(1 0 0 1 2.5 85.5)">23</text>
	</g>
	<g id="StrokePaths" style="fill:none;stroke:#404040;stroke-width:3;stroke-linecap:round;stroke-linejoin:round;">
		<path d="M39.13,14.21c0.32,0.27,0.65,0.49,0.79,0.83c1.12,2.66,2.45,10.01,3.22,14.8"/>
		<path d="M40.76,15.34c5.97-0.94,44.4-3.05,47.57-3.36c1.16-0.12,2.73,0.81,2.42,2.17c-0.65,2.82-1.74,8.17-3.47,12.2"/>
		<path d="M54.86,14.5c0.18,1.6,0.96,9.93,1.14,11.73"/>
		<path d="M71,14c-0.18,2.61-0.09,10.42-0.46,12.03"/>
		<path d="M43.3,27.52c3.73-0.36,38.79-2.18,43.91-2.73"/>
		<path d="M47.42,33.78c0.24,0.91,0.29,1.59-0.12,2.56c-2.08,4.89-4.56,8.43-7.09,12.52c-0.34,0.55-0.47,2.09,0,2.26c2.48,0.91,5.97,2.42,8.1,4.08"/>
		<path d="M56.27,41.94c0.22,0.41,0.29,1.75,0,2.19C52.06,50.55,45.78,59.5,40,65.36c-1.33,1.34,0.33,2.11,1.19,1.84c3.62-1.14,11.13-3.19,15.78-4.28"/>
		<path d="M53.96,57.63c1.88,1.64,4.86,6.76,5.33,9.32"/>
		<path d="M36.46,75.53c2.85,2.05,5.04,6.83,5.71,8.69"/>
		<path d="M44.64,72.87c3.23,1.78,5.72,5.92,6.47,7.53"/>
		<path d="M52.82,69.72c3.14,1.43,5.55,4.74,6.28,6.04"/>
		<path d="M72.4,31.92c0.11,0.89-0.03,2.05-0.37,2.8c-2.15,4.84-4.88,8.93-9.82,14.82"/>
		<path d="M68.89,45.89c0.61,5.37-0.29,34.07-0.02,38.79"/>
		<path d="M85.68,32.53c0.05,0.53-0.01,1.22-0.18,1.67c-1.05,2.88-2.39,5.1-4.81,8.6"/>
		<path d="M68.63,45.19c5.79-0.77,23.01-2.5,25.49-2.92"/>
		<path d="M81.32,45.33c0.28,0.3,0.5,0.71,0.5,1.23c0,5.29,0.03,23.41-0.14,31.74"/>
		<path d="M69.66,55.89c5.47-0.63,20.58-1.31,22.93-1.65"/>
		<path d="M69,66.62c5.77-0.54,21.89-1.46,24.37-1.75"/>
		<path d="M69.24,79.66c5.8-0.77,24.44-1.4,26.93-1.82"/>
		<path d="M17.71,15.5c3.81,1.74,9.84,7.17,10.79,9.88"/>
		<path d="M14.96,34.5c3.46,1.35,8.93,5.54,9.79,7.63"/>
		<path d="M11,56.94c2.25,0.85,3.75,0.43,4.75,0.21c1-0.21,7.5-1.99,9-2.42c1.5-0.43,3.75,1.07,2.75,2.35s-4.5,5.69-5.25,6.76c-0.75,1.07-0.5,2.99,1,4.48s2.75,2.7,3.5,3.98c0.75,1.28,0.75,2.35-0.75,3.42c-1.5,1.07-9,7.54-10.5,7.97"/>
		<path d="M11.75,85.57c2.95-0.47,8.76-0.79,13.29-0.7c6.21,0.13,27.21,6.63,33.95,8.38c8.7,2.26,16.27,2.75,25.27,3"/>
	</g>
</svg>
