<?xml version="1.0" encoding="UTF-8"?>
<!DOCTYPE svg PUBLIC "-//W3C//DTD SVG 1.0//EN" "http://www.w3.org/TR/2001/REC-SVG-20010904/DTD/svg10.dtd">
<svg xmlns="http://www.w3.org/2000/svg" width="109" height="109" viewBox="0 0 109 109">
	<g id="HelperGrid" style="opacity:0.75;">
		<rect x="0.5" y="0.5" style="fill:none;stroke:#404040;" width="108" height="108"/> 
		<line style="fill:none;stroke:#404040;" x1="0.5" y1="72.51" x2="108.5" y2="72.51"/>
		<line style="fill:none;stroke:#404040;" x1="0.5" y1="36.49" x2="108.5" y2="36.49"/>
		<line style="fill:none;stroke:#404040;" x1="72.5" y1="0.5" x2="72.5" y2="108.5"/>
		<line style="fill:none;stroke:#404040;" x1="36.5" y1="0.5" x2="36.5" y2="108.5"/>
	</g>
	<g id="Kanji">
		<text transform="matrix(1 0 0 1 0.5 93.3799)" style="font-size:108;">那</text>
	</g>
	<g id="StrokeNumbers" style="font-size:8;fill:#808080">
		<text transform="matrix(1 0 0 1 8.25 21.25)">1</text>
		<text transform="matrix(1 0 0 1 8.25 42.25)">2</text>
		<text transform="matrix(1 0 0 1 5.25 60.25)">3</text>
		<text transform="matrix(1 0 0 1 24.25 31.1543)">4</text>
		<text transform="matrix(1 0 0 1 68.25 20.25)">5</text>
		<text transform="matrix(1 0 0 1 76.25 50.25)">6</text>
		<text transform="matrix(1 0 0 1 60.25 31.25)">7</text>
	</g>
	<g id="StrokePaths" style="fill:none;stroke:#404040;stroke-width:3;stroke-linecap:round;stroke-linejoin:round;">
		<path d="M14.75,22.25c2.11,1.07,5.63,0.54,7.89,0.22c8.42-1.17,18.14-2.8,23.61-3.57c4.26-0.6,5.62,0.72,5.75,5.6c0.29,11-1.64,48.05-7.03,60.5c-4.22,9.75-8.33,0.34-9.87-0.75"/>
		<path d="M15,42.14c1.88,0.76,4.71,0.52,6.66,0.23c5.42-0.79,12.98-2.38,18.1-3.16c2.01-0.3,3.75-0.44,5.74,0.05"/>
		<path d="M13,58.89c1.91,0.78,4.79,0.5,6.77,0.21c5.35-0.78,13.61-2.51,18.98-3.35c2.1-0.33,3.92-0.5,6,0"/>
		<path d="M30.77,25.28c1.22,1.22,1.36,2.64,1.33,4.84c-0.35,28-3.98,48.63-22.54,59.63"/>
		<path d="M65.42,22.42c1.08,0.46,2.58,0.56,3.9,0.44c6.19-0.6,12.56-2.1,16.35-2.94c3.09-0.68,4.98,1.62,3.92,4.08c-0.77,1.79-5.21,9.38-9.33,17.25"/>
		<path d="M80.25,41.25c22.5,12,16.25,42.5,1.23,32.16"/>
		<path d="M67.33,23.25c0.71,0.71,0.75,2.08,0.75,3.37c0,11.99,0.02,45.21,0.03,63.01c0,3.84,0,7,0,9.12"/>
	</g>
</svg>
