<?xml version="1.0" encoding="UTF-8"?>
<!-- Copyright (C) 2009 Ulrich Apel.
This work is distributed under the conditions of the Creative Commons
Attribution-Share Alike 3.0 Licence. This means you are free:
* to Share - to copy, distribute and transmit the work
* to Remix - to adapt the work

Under the following conditions:
* Attribution. You must attribute the work by stating your use of KanjiVG in
  your own copyright header and linking to KanjiVG's website
  (http://kanjivg.tagaini.net)
* Share Alike. If you alter, transform, or build upon this work, you may
  distribute the resulting work only under the same or similar license to this
  one.

See http://creativecommons.org/licenses/by-sa/3.0/ for more details. -->
<!DOCTYPE svg PUBLIC "-//W3C//DTD SVG 1.0//EN" "http://www.w3.org/TR/2001/REC-SVG-20010904/DTD/svg10.dtd">
<svg xmlns="http://www.w3.org/2000/svg" width="109" height="109" viewBox="0 0 109 109">
	<g id="HelperGrid" style="opacity:0.75;">
		<rect x="0.5" y="0.5" style="fill:none;stroke:#404040;" width="108" height="108"/> 
		<line style="fill:none;stroke:#404040;" x1="0.5" y1="72.51" x2="108.5" y2="72.51"/>
		<line style="fill:none;stroke:#404040;" x1="0.5" y1="36.49" x2="108.5" y2="36.49"/>
		<line style="fill:none;stroke:#404040;" x1="72.5" y1="0.5" x2="72.5" y2="108.5"/>
		<line style="fill:none;stroke:#404040;" x1="36.5" y1="0.5" x2="36.5" y2="108.5"/>
	</g>
	<g id="Kanji">
		<text transform="matrix(1 0 0 1 0.5 93.3799)" style="font-size:108;">郛</text>
	</g>
	<g id="StrokeNumbers" style="font-size:8;fill:#808080">
		<text transform="matrix(1 0 0 1 42.5 10.5)">1</text>
		<text transform="matrix(1 0 0 1 13.5 28.5)">2</text>
		<text transform="matrix(1 0 0 1 26.5 32.9805)">3</text>
		<text transform="matrix(1 0 0 1 41.5 28.5)">4</text>
		<text transform="matrix(1 0 0 1 12.4434 46.8296)">5</text>
		<text transform="matrix(1 0 0 1 27.5 61.5)">6</text>
		<text transform="matrix(1 0 0 1 8.5 78.5)">7</text>
		<text transform="matrix(1 0 0 1 68.5 14.5)">8</text>
		<text transform="matrix(1 0 0 1 77.5 48.5)">9</text>
		<text transform="matrix(1 0 0 1 55.4434 25.5)">10</text>
	</g>
	<g id="StrokePaths" style="fill:none;stroke:#404040;stroke-width:3;stroke-linecap:round;stroke-linejoin:round;">
		<path d="M48.92,11.54c0.08,0.21,0.17,0.54-0.17,0.85c-2.01,1.78-14.16,6.5-29.39,8.09"/>
		<path d="M20.67,26.34c0.03,0.37,0.06,0.94-0.06,1.47c-0.68,3.09-4.6,9.88-9.96,14.03"/>
		<path d="M30.77,25.49c2.79,1.73,7.21,7.14,7.91,9.84"/>
		<path d="M45.86,22.01c4.39,2.48,11.34,10.22,12.43,14.09"/>
		<path d="M19.17,44.62c0.85,0.26,2.45,0.67,3.73,0.44c1.56-0.28,24.95-3.81,26.41-4.06c2.94-0.5,3.69,1.5,1.7,3.84c-1.39,1.64-11.81,10.99-15.57,13.82"/>
		<path d="M34.14,59.16C48.5,69,42,108,31.4,90.92"/>
		<path d="M16,73.19c0.78,1.5,3.25,1.32,4,1c8-3.44,25.75-11.44,33.82-14.27"/>
		<path d="M62.92,17.17c0.83,0.08,2.31,1,3.4,0.94c5.94-0.35,18.19-2.1,22.1-2.94c3.09-0.66,5,1.5,3.67,3.83c-1.33,2.33-8.83,16.5-11.33,21"/>
		<path d="M80.75,41C100,54.5,93.5,92.5,78.48,76.66"/>
		<path d="M66.08,18.5c0.02,0.1,0.04,0.99,0.05,2.5c0.12,13.01-0.08,72.4-0.27,78"/>
	</g>
</svg>
