<?xml version="1.0" encoding="UTF-8"?>
<!-- Copyright (C) 2009 Ulrich Apel.
This work is distributed under the conditions of the Creative Commons
Attribution-Share Alike 3.0 Licence. This means you are free:
* to Share - to copy, distribute and transmit the work
* to Remix - to adapt the work

Under the following conditions:
* Attribution. You must attribute the work by stating your use of KanjiVG in
  your own copyright header and linking to KanjiVG's website
  (http://kanjivg.tagaini.net)
* Share Alike. If you alter, transform, or build upon this work, you may
  distribute the resulting work only under the same or similar license to this
  one.

See http://creativecommons.org/licenses/by-sa/3.0/ for more details. -->
<!DOCTYPE svg PUBLIC "-//W3C//DTD SVG 1.0//EN" "http://www.w3.org/TR/2001/REC-SVG-20010904/DTD/svg10.dtd">
<svg xmlns="http://www.w3.org/2000/svg" width="109" height="109" viewBox="0 0 109 109">
	<g id="HelperGrid" style="opacity:0.75;">
		<rect x="0.5" y="0.5" style="fill:none;stroke:#404040;" width="108" height="108"/> 
		<line style="fill:none;stroke:#404040;" x1="0.5" y1="72.51" x2="108.5" y2="72.51"/>
		<line style="fill:none;stroke:#404040;" x1="0.5" y1="36.49" x2="108.5" y2="36.49"/>
		<line style="fill:none;stroke:#404040;" x1="72.5" y1="0.5" x2="72.5" y2="108.5"/>
		<line style="fill:none;stroke:#404040;" x1="36.5" y1="0.5" x2="36.5" y2="108.5"/>
	</g>
	<g id="Kanji">
		<text transform="matrix(1 0 0 1 0.5 93.3799)" style="font-size:108;">郵</text>
	</g>
	<g id="StrokeNumbers" style="font-size:8;fill:#808080">
		<text transform="matrix(1 0 0 1 38.25 12.1299)">1</text>
		<text transform="matrix(1 0 0 1 8.25 36.1299)">2</text>
		<text transform="matrix(1 0 0 1 3.75 52.6299)">3</text>
		<text transform="matrix(1 0 0 1 14.25 46.6299)">4</text>
		<text transform="matrix(1 0 0 1 44.25 42.1299)">5</text>
		<text transform="matrix(1 0 0 1 8.25 67.6299)">6</text>
		<text transform="matrix(1 0 0 1 9.75 91.6299)">7</text>
		<text transform="matrix(1 0 0 1 30.5 30.5)">8</text>
		<text transform="matrix(1 0 0 1 72.5 20.5)">9</text>
		<text transform="matrix(1 0 0 1 75.75 54.1299)">10</text>
		<text transform="matrix(1 0 0 1 60.75 32.6299)">11</text>
	</g>
	<g id="StrokePaths" style="fill:none;stroke:#404040;stroke-width:3;stroke-linecap:round;stroke-linejoin:round;">
		<path d="M46.58,12.25c0.07,0.32,0.26,0.93-0.14,1.29c-4.94,4.53-12.25,8.69-25.13,12.35"/>
		<path d="M15.92,34.24c0.94,0.38,2.67,0.49,3.61,0.38c6-0.66,27.72-3.87,34.51-4.32c1.56-0.1,2.51,0.18,3.3,0.37"/>
		<path d="M11.7,50.3c0.96,0.39,2.08,0.47,3.05,0.39c8.84-0.71,33.91-4.81,44.29-5.36c1.6-0.08,2.57,0.19,3.37,0.38"/>
		<path d="M21.41,41.17c1.12,1.44,1.48,1.88,1.6,2.77c1.12,8.31,2.08,16.88,2.4,19.9"/>
		<path d="M52.2,37.24c0.3,0.51,1.01,2.22,0.76,3.44c-1.45,7.13-2.11,12.2-3.7,18.92"/>
		<path d="M16.34,65.94c0.94,0.38,2.67,0.49,3.61,0.38c6-0.66,25.3-4.33,33.23-5.46c1.55-0.22,2.51,0.18,3.29,0.37"/>
		<path d="M17.7,85.43c0.69,1.11,1.95,1.38,2.65,1.11C25.5,84.5,50,76.25,57.75,74.04"/>
		<path d="M36.05,23.18c1.07,0.43,1.71,1.93,1.93,2.79c0.21,0.86,0.21,45.42,0.21,53.99"/>
		<path d="M70.67,25.02c7.43-1.11,14.91-2.72,18.43-3.83c3.52-1.11,5.04,1.61,3.48,4.2C91,27.98,83.86,41.06,81.12,44.76"/>
		<path d="M81.12,44.76c20.63,13.49,13.38,45.74,2.46,31.68"/>
		<path d="M68.37,22.25c1.09,0.5,1.74,2.25,1.96,3.25c0.22,1,0,67.25-0.22,73.5"/>
	</g>
</svg>
