<?xml version="1.0" encoding="UTF-8"?>
<!-- Copyright (C) 2009 Ulrich Apel.
This work is distributed under the conditions of the Creative Commons
Attribution-Share Alike 3.0 Licence. This means you are free:
* to Share - to copy, distribute and transmit the work
* to Remix - to adapt the work

Under the following conditions:
* Attribution. You must attribute the work by stating your use of KanjiVG in
  your own copyright header and linking to KanjiVG's website
  (http://kanjivg.tagaini.net)
* Share Alike. If you alter, transform, or build upon this work, you may
  distribute the resulting work only under the same or similar license to this
  one.

See http://creativecommons.org/licenses/by-sa/3.0/ for more details. -->
<!DOCTYPE svg PUBLIC "-//W3C//DTD SVG 1.0//EN" "http://www.w3.org/TR/2001/REC-SVG-20010904/DTD/svg10.dtd">
<svg xmlns="http://www.w3.org/2000/svg" width="109" height="109" viewBox="0 0 109 109">
	<g id="HelperGrid" style="opacity:0.75;">
		<rect x="0.5" y="0.5" style="fill:none;stroke:#404040;" width="108" height="108"/> 
		<line style="fill:none;stroke:#404040;" x1="0.5" y1="72.51" x2="108.5" y2="72.51"/>
		<line style="fill:none;stroke:#404040;" x1="0.5" y1="36.49" x2="108.5" y2="36.49"/>
		<line style="fill:none;stroke:#404040;" x1="72.5" y1="0.5" x2="72.5" y2="108.5"/>
		<line style="fill:none;stroke:#404040;" x1="36.5" y1="0.5" x2="36.5" y2="108.5"/>
	</g>
	<g id="Kanji">
		<text transform="matrix(1 0 0 1 0.5 93.3799)" style="font-size:108;">酋</text>
	</g>
	<g id="StrokeNumbers" style="font-size:8;fill:#808080">
		<text transform="matrix(1 0 0 1 28.5 13.5)">1</text>
		<text transform="matrix(1 0 0 1 62.25 10.5)">2</text>
		<text transform="matrix(1 0 0 1 11.5 32.5)">3</text>
		<text transform="matrix(1 0 0 1 23.5 52.5)">4</text>
		<text transform="matrix(1 0 0 1 33.25 42.5)">5</text>
		<text transform="matrix(1 0 0 1 40.5 39.2549)">6</text>
		<text transform="matrix(1 0 0 1 53.5 38.5)">7</text>
		<text transform="matrix(1 0 0 1 38.5 73.5)">8</text>
		<text transform="matrix(1 0 0 1 38.25 89.5)">9</text>
	</g>
	<g id="StrokePaths" style="fill:none;stroke:#404040;stroke-width:3;stroke-linecap:round;stroke-linejoin:round;">
		<path d="M34.52,14.02c3.37,1.97,8.7,8.09,9.54,11.16"/>
		<path d="M70.78,10.96c0.02,0.41,0.05,1.06-0.05,1.65c-0.6,3.48-4.01,11.12-8.69,15.8"/>
		<path d="M18.4,32.11c1.2,0.47,4.9,0.6,6.1,0.47c8-0.84,49.26-4.32,60.66-4.32c2,0,4.2,0.23,5.2,0.46"/>
		<path d="M30.48,44.22c0.65,0.7,0.9,2.39,0.9,3.32s-0.43,46.34-0.43,46.8c0,0.47,0.22,0.47,0.43,1.4"/>
		<path d="M32.47,46.68c3.7-0.12,40.6-3.73,43.97-3.87c2.81-0.12,4.81,1.12,4.81,3.77c0,1.48-0.39,35.32-0.38,45.59c0,1.06-0.22,1.52-0.22,2.22"/>
		<path d="M47.48,31.64c1.22,1.09,0.81,2.58,0.82,4.07c0.15,14.65-0.8,26.79-12.33,33.24"/>
		<path d="M60.02,32.02c0.66,1.15,1.18,2.5,1.22,4.27c0.12,5.63-0.29,13.2-0.35,20.14c-0.05,6.03,1.85,6.78,8.12,6.78c3.98,0,7.93-0.75,8.39-1.43"/>
		<path d="M40.99,76.17c0.85-0.04,2.36-0.11,4.27-0.19c5.71-0.26,15.01-0.69,21-0.97c2.23-0.1,4-0.18,4.96-0.22"/>
		<path d="M32.39,92.63c10.2-0.5,34.85-1.34,47.55-1.77"/>
	</g>
</svg>
