<?xml version="1.0" encoding="UTF-8"?>
<!DOCTYPE svg PUBLIC "-//W3C//DTD SVG 1.0//EN" "http://www.w3.org/TR/2001/REC-SVG-20010904/DTD/svg10.dtd">
<svg xmlns="http://www.w3.org/2000/svg" width="109" height="109" viewBox="0 0 109 109">
	<g id="HelperGrid" style="opacity:0.75;">
		<rect x="0.5" y="0.5" style="fill:none;stroke:#404040;" width="108" height="108"/> 
		<line style="fill:none;stroke:#404040;" x1="0.5" y1="72.51" x2="108.5" y2="72.51"/>
		<line style="fill:none;stroke:#404040;" x1="0.5" y1="36.49" x2="108.5" y2="36.49"/>
		<line style="fill:none;stroke:#404040;" x1="72.5" y1="0.5" x2="72.5" y2="108.5"/>
		<line style="fill:none;stroke:#404040;" x1="36.5" y1="0.5" x2="36.5" y2="108.5"/>
	</g>
	<g id="Kanji">
		<text transform="matrix(1 0 0 1 0.5 93.3799)" style="font-size:108;">醺</text>
	</g>
	<g id="StrokeNumbers" style="font-size:8;fill:#808080">
		<text transform="matrix(1 0 0 1 4.5 22.5)">1</text>
		<text transform="matrix(1 0 0 1 7.25 45.3047)">2</text>
		<text transform="matrix(1 0 0 1 15.5 36.5)">3</text>
		<text transform="matrix(1 0 0 1 17.25 30.5)">4</text>
		<text transform="matrix(1 0 0 1 26.25 30.5791)">5</text>
		<text transform="matrix(1 0 0 1 19.25 70.5)">6</text>
		<text transform="matrix(1 0 0 1 19.5 86.5)">7</text>
		<text transform="matrix(1 0 0 1 77 11.5249)">8</text>
		<text transform="matrix(1 0 0 1 45.5 27.5)">9</text>
		<text transform="matrix(1 0 0 1 45 47.5)">10</text>
		<text transform="matrix(1 0 0 1 53.5 38.8008)">11</text>
		<text transform="matrix(1 0 0 1 62.5 46.7256)">12</text>
		<text transform="matrix(1 0 0 1 73.5 45.5)">13</text>
		<text transform="matrix(1 0 0 1 56.5 53.5)">14</text>
		<text transform="matrix(1 0 0 1 61.5 27.5)">15</text>
		<text transform="matrix(1 0 0 1 45.5 60.5)">16</text>
		<text transform="matrix(1 0 0 1 46.5 71.5)">17</text>
		<text transform="matrix(1 0 0 1 44.5 85.5)">18</text>
		<text transform="matrix(1 0 0 1 54.75 89.5)">19</text>
		<text transform="matrix(1 0 0 1 69 88.5)">20</text>
		<text transform="matrix(1 0 0 1 82.5 87.5)">21</text>
	</g>
	<g id="StrokePaths" style="fill:none;stroke:#404040;stroke-width:3;stroke-linecap:round;stroke-linejoin:round;">
		<path d="M11.24,22.36c0.55,0.4,3.31,0.99,3.87,0.93c5.78-0.57,22.07-2.25,24.51-2.53c1.38-0.15,2.94-0.66,4.13-0.14"/>
		<path d="M14.05,37.81c0.37,0.73,0.51,2.48,0.51,3.45c0,0.97-0.12,50.52,0,51.49"/>
		<path d="M14.73,39.81c2.1-0.12,21.54-2.24,23.44-2.54c1.98-0.32,3.61,1.17,3.61,3.92c0,1.54-0.31,49.78-0.31,50.51"/>
		<path d="M23.25,25.39c0.5,1.21,0.82,2.87,0.74,4.53c-0.69,15.36-2.09,24.29-5.11,31.73"/>
		<path d="M31.27,24.23c0.37,1.19,0.67,2.6,0.69,4.44c0.07,5.84-0.16,14.77-0.2,21.98c-0.03,6.26,1.61,7.56,4.25,7.56c2.66,0,4.5-0.21,4.75-0.92"/>
		<path d="M15.1,74.36c2.84,0,22.77-1.66,25.98-1.66"/>
		<path d="M14.97,89.5c5.78-0.52,18.9-1.42,26.09-1.87"/>
		<path d="M85.61,12.17c0.09,0.26-0.71,1.56-1.18,1.88c-4.68,3.2-16.43,6.7-30.23,8.47"/>
		<path d="M46.67,30.4c1.23,0.38,4.36,0.71,5.58,0.6c11.64-1.08,30.15-2.16,40.45-2.72c2.05-0.11,3.29,0.18,4.32,0.37"/>
		<path d="M51.75,39.41c0.31,0.33,0.7,1.28,0.88,1.69c1.42,3.39,2.62,11.65,3.12,15.61"/>
		<path d="M53.47,40.55c10.03-0.77,27.99-2.45,35.48-3.1c2.75-0.24,3.65,1.95,3.52,3.17c-0.33,3.12-1.54,8.18-3.58,13.67"/>
		<path d="M59.15,43.86c1.69,1.09,4.36,4.5,4.79,6.21"/>
		<path d="M82.58,41.63c0.01,0.22,0.03,0.56-0.02,0.88c-0.29,1.85-1.96,5.91-4.24,8.39"/>
		<path d="M56.42,55.34c7.22-0.33,22.76-1.93,32.74-2.47"/>
		<path d="M69.67,21.36c0.5,0.42,1.56,3.17,1.66,4.02s-0.06,42.18-0.17,47.47"/>
		<path d="M52.72,63.69c1,0.27,2.84,0.33,3.85,0.27c7.68-0.46,23.18-2.21,30.52-2.04c1.67,0.04,2.68,0.13,3.51,0.26"/>
		<path d="M49.63,74.01c1.27,0.46,3.6,0.54,4.87,0.46c13.21-0.77,20.77-2.38,39.22-2.38c2.12,0,3.39,0.22,4.44,0.45"/>
		<path d="M53.05,86.22c-0.96,5.08-5.58,11.01-6.83,12.28"/>
		<path d="M61.67,82.39c2.29,2.91,5.68,10.65,5.03,15.46"/>
		<path d="M75.08,81.96c3.05,2.65,7.48,10.35,7.48,15.03"/>
		<path d="M87.57,81.08c3.79,2.92,9.79,12.01,10.74,16.56"/>
	</g>
</svg>
