<?xml version="1.0" encoding="UTF-8"?>
<!-- Copyright (C) 2009 Ulrich Apel.
This work is distributed under the conditions of the Creative Commons
Attribution-Share Alike 3.0 Licence. This means you are free:
* to Share - to copy, distribute and transmit the work
* to Remix - to adapt the work

Under the following conditions:
* Attribution. You must attribute the work by stating your use of KanjiVG in
  your own copyright header and linking to KanjiVG's website
  (http://kanjivg.tagaini.net)
* Share Alike. If you alter, transform, or build upon this work, you may
  distribute the resulting work only under the same or similar license to this
  one.

See http://creativecommons.org/licenses/by-sa/3.0/ for more details. -->
<!DOCTYPE svg PUBLIC "-//W3C//DTD SVG 1.0//EN" "http://www.w3.org/TR/2001/REC-SVG-20010904/DTD/svg10.dtd">
<svg xmlns="http://www.w3.org/2000/svg" width="109" height="109" viewBox="0 0 109 109">
	<g id="HelperGrid" style="opacity:0.75;">
		<rect x="0.5" y="0.5" style="fill:none;stroke:#404040;" width="108" height="108"/> 
		<line style="fill:none;stroke:#404040;" x1="0.5" y1="72.51" x2="108.5" y2="72.51"/>
		<line style="fill:none;stroke:#404040;" x1="0.5" y1="36.49" x2="108.5" y2="36.49"/>
		<line style="fill:none;stroke:#404040;" x1="72.5" y1="0.5" x2="72.5" y2="108.5"/>
		<line style="fill:none;stroke:#404040;" x1="36.5" y1="0.5" x2="36.5" y2="108.5"/>
	</g>
	<g id="Kanji">
		<text transform="matrix(1 0 0 1 0.5 93.3799)" style="font-size:108;">重</text>
	</g>
	<g id="StrokeNumbers" style="font-size:8;fill:#808080">
		<text transform="matrix(1 0 0 1 57.5 9.5)">1</text>
		<text transform="matrix(1 0 0 1 5.25 34.5)">2</text>
		<text transform="matrix(1 0 0 1 23.25 54.5)">3</text>
		<text transform="matrix(1 0 0 1 31.5 43.5)">4</text>
		<text transform="matrix(1 0 0 1 36.5 53.5)">5</text>
		<text transform="matrix(1 0 0 1 37.5 64.5)">6</text>
		<text transform="matrix(1 0 0 1 46.5 28.5)">7</text>
		<text transform="matrix(1 0 0 1 24.5 81.5)">8</text>
		<text transform="matrix(1 0 0 1 9.75 98.5)">9</text>
	</g>
	<g id="StrokePaths" style="fill:none;stroke:#404040;stroke-width:3;stroke-linecap:round;stroke-linejoin:round;">
		<path d="M67.38,11.17c0.11,0.3-0.85,1.88-1.46,2.2c-4.71,2.46-16.66,6.5-37.53,9.92"/>
		<path d="M12.75,34.2c1.52,0.54,4.31,0.71,5.82,0.54c8.93-0.99,53.93-5.24,70.11-5.73c2.53-0.08,4.05,0.26,5.31,0.53"/>
		<path d="M28.69,45.28c0.38,0.41,0.39,0.7,0.6,1.22c1.72,4.3,3.33,17.14,4.39,25.15"/>
		<path d="M30.46,46.36c13.29-1.08,35.58-4.42,45.51-5.32c3.65-0.33,5.51,0.85,5.33,2.03c-0.69,4.33-3.38,15.62-5.05,22.86"/>
		<path d="M32.44,55.97c10.31-1,20.66-1.73,30.98-2.56c1.24-0.1,2.45-0.19,3.6-0.29"/>
		<path d="M33.86,67.99C48,66.25,63.03,64.6,76.25,63.85"/>
		<path d="M52.25,21.75c1.25,0.5,2,2.25,2.25,3.25s0,62.75-0.25,69"/>
		<path d="M31.41,80.89c0.92,0.33,2.6,0.36,3.53,0.33C44.51,80.85,64,77.75,74.44,77c1.53-0.11,2.45,0.15,3.22,0.32"/>
		<path d="M17.14,96.31c1.49,0.46,4.22,0.53,5.71,0.46c15.49-0.77,43.91-4.02,60.82-4.43c2.48-0.06,3.97,0.22,5.21,0.45"/>
	</g>
</svg>
