<?xml version="1.0" encoding="UTF-8"?>
<!DOCTYPE svg PUBLIC "-//W3C//DTD SVG 1.0//EN" "http://www.w3.org/TR/2001/REC-SVG-20010904/DTD/svg10.dtd">
<svg xmlns="http://www.w3.org/2000/svg" width="109" height="109" viewBox="0 0 109 109">
	<g id="HelperGrid" style="opacity:0.75;">
		<rect x="0.5" y="0.5" style="fill:none;stroke:#404040;" width="108" height="108"/> 
		<line style="fill:none;stroke:#404040;" x1="0.5" y1="72.51" x2="108.5" y2="72.51"/>
		<line style="fill:none;stroke:#404040;" x1="0.5" y1="36.49" x2="108.5" y2="36.49"/>
		<line style="fill:none;stroke:#404040;" x1="72.5" y1="0.5" x2="72.5" y2="108.5"/>
		<line style="fill:none;stroke:#404040;" x1="36.5" y1="0.5" x2="36.5" y2="108.5"/>
	</g>
	<g id="Kanji">
		<text transform="matrix(1 0 0 1 0.5 93.3799)" style="font-size:108;">釼</text>
	</g>
	<g id="StrokeNumbers" style="font-size:8;fill:#808080">
		<text transform="matrix(1 0 0 1 22.5 15.5)">1</text>
		<text transform="matrix(1 0 0 1 36.6602 20.5)">2</text>
		<text transform="matrix(1 0 0 1 23.5 39.5)">3</text>
		<text transform="matrix(1 0 0 1 6.5 57.5)">4</text>
		<text transform="matrix(1 0 0 1 22.5 51.8486)">5</text>
		<text transform="matrix(1 0 0 1 7.5 69.5)">6</text>
		<text transform="matrix(1 0 0 1 34.5 65.5)">7</text>
		<text transform="matrix(1 0 0 1 5.5 91.5)">8</text>
		<text transform="matrix(1 0 0 1 45.5 20.5)">9</text>
		<text transform="matrix(1 0 0 1 56.5 33.5)">10</text>
		<text transform="matrix(1 0 0 1 44.25 50.8799)">11</text>
	</g>
	<g id="StrokePaths" style="fill:none;stroke:#404040;stroke-width:3;stroke-linecap:round;stroke-linejoin:round;">
		<path d="M30.25,15.49c0,0.71,0.05,1.27-0.14,2.13c-0.97,4.43-10.22,19.21-18.14,25.76"/>
		<path d="M33.14,22.96c4.2,1.62,9.57,5.94,11.61,10.04"/>
		<path d="M19.25,42c1.69,0,2.45,0.09,3,0.06c4.87-0.31,9.36-1.03,15.09-1.25c0.83-0.03,1.01-0.05,2.41-0.05"/>
		<path d="M14.09,56.81c0.59,0.33,2.56,0.43,3.17,0.43c6.74,0.01,18.49-1.49,23.28-2.17c0.74-0.1,2.38-0.13,3.49,0.15"/>
		<path d="M28.95,43.69c1.24,0.78,1.24,2.52,1.24,3.14c0,4.35,0.62,32.63,0.31,36.98"/>
		<path d="M14.89,68.51c4.08,3.26,6.07,6.79,6.9,8.69"/>
		<path d="M42.29,62.05c0.23,0.71,0.35,1.75,0.26,2.35c-0.23,1.54-2.05,4.36-4.63,8.88"/>
		<path d="M13.5,87.75c1.25,1.25,2.92,1.68,4,1.25c1.25-0.5,8.75-4,24.25-9.75"/>
		<path d="M48.16,23.9c1.57,0.83,3.52,0.57,4.91,0.45c9.98-0.85,24.52-1.74,30.72-2.59c4.03-0.55,5.82,1.66,5.6,5.55c-0.59,10.25-8.15,48.44-15.11,60.41c-4.75,8.16-6.31,5.81-9.32,0.26"/>
		<path d="M67.32,27.33c0.08,1.44,0.11,3.72-0.16,5.8C64.56,53.43,57,78.25,40.5,92.11"/>
		<path d="M49.12,42.25c1.51,0,2.42,0.54,3.11,1.33c8.15,9.2,28.47,34.69,38.2,41.81c2.37,1.74,3.94,3.01,6.06,3.61"/>
	</g>
</svg>
