<?xml version="1.0" encoding="UTF-8"?>
<!-- Copyright (C) 2009 Ulrich Apel.
This work is distributed under the conditions of the Creative Commons
Attribution-Share Alike 3.0 Licence. This means you are free:
* to Share - to copy, distribute and transmit the work
* to Remix - to adapt the work

Under the following conditions:
* Attribution. You must attribute the work by stating your use of KanjiVG in
  your own copyright header and linking to KanjiVG's website
  (http://kanjivg.tagaini.net)
* Share Alike. If you alter, transform, or build upon this work, you may
  distribute the resulting work only under the same or similar license to this
  one.

See http://creativecommons.org/licenses/by-sa/3.0/ for more details. -->
<!DOCTYPE svg PUBLIC "-//W3C//DTD SVG 1.0//EN" "http://www.w3.org/TR/2001/REC-SVG-20010904/DTD/svg10.dtd">
<svg xmlns="http://www.w3.org/2000/svg" width="109" height="109" viewBox="0 0 109 109">
	<g id="HelperGrid" style="opacity:0.75;">
		<rect x="0.5" y="0.5" style="fill:none;stroke:#404040;" width="108" height="108"/> 
		<line style="fill:none;stroke:#404040;" x1="0.5" y1="72.51" x2="108.5" y2="72.51"/>
		<line style="fill:none;stroke:#404040;" x1="0.5" y1="36.49" x2="108.5" y2="36.49"/>
		<line style="fill:none;stroke:#404040;" x1="72.5" y1="0.5" x2="72.5" y2="108.5"/>
		<line style="fill:none;stroke:#404040;" x1="36.5" y1="0.5" x2="36.5" y2="108.5"/>
	</g>
	<g id="Kanji">
		<text transform="matrix(1 0 0 1 0.5 93.3799)" style="font-size:108;">錠</text>
	</g>
	<g id="StrokeNumbers" style="font-size:8;fill:#808080">
		<text transform="matrix(1 0 0 1 23.5 16.5)">1</text>
		<text transform="matrix(1 0 0 1 37.5 20.5)">2</text>
		<text transform="matrix(1 0 0 1 26.5 37.5)">3</text>
		<text transform="matrix(1 0 0 1 8.5 55.5)">4</text>
		<text transform="matrix(1 0 0 1 22.5 50.5)">5</text>
		<text transform="matrix(1 0 0 1 8.5 65.5)">6</text>
		<text transform="matrix(1 0 0 1 36.75 63.5)">7</text>
		<text transform="matrix(1 0 0 1 6.75 93.1299)">8</text>
		<text transform="matrix(1 0 0 1 60.5 15.5)">9</text>
		<text transform="matrix(1 0 0 1 43.5 38.5)">10</text>
		<text transform="matrix(1 0 0 1 57.5 28.6299)">11</text>
		<text transform="matrix(1 0 0 1 57.5 45.0547)">12</text>
		<text transform="matrix(1 0 0 1 62.25 57.5)">13</text>
		<text transform="matrix(1 0 0 1 76.5 61.6299)">14</text>
		<text transform="matrix(1 0 0 1 49.5 62.5)">15</text>
		<text transform="matrix(1 0 0 1 61.5 77.5)">16</text>
	</g>
	<g id="StrokePaths" style="fill:none;stroke:#404040;stroke-width:3;stroke-linecap:round;stroke-linejoin:round;">
		<path d="M30.75,14.99c0,0.74,0.05,1.33-0.14,2.22c-0.99,4.63-10.36,20.07-18.39,26.91"/>
		<path d="M32.89,20.96c4.2,1.54,9.57,5.65,11.61,9.54"/>
		<path d="M21,40.5c1.5,0,2.18,0.09,2.67,0.06C28,40.24,33,39.03,38.1,38.8c0.74-0.03,0.9-0.05,2.15-0.05"/>
		<path d="M14.09,55.81c0.59,0.33,2.56,0.48,3.17,0.43c5.49-0.49,16.99-2.24,24.78-3.17c0.74-0.09,2.38-0.13,3.49,0.15"/>
		<path d="M29.45,42.19c1.24,0.78,1.24,2.52,1.24,3.14c0,4.35,0.62,35.63,0.31,39.98"/>
		<path d="M17.39,67.51c2.6,4.01,3.87,8.35,4.4,10.69"/>
		<path d="M43.29,61.55c0.23,0.71,0.35,1.75,0.26,2.35c-0.23,1.54-2.05,4.36-4.63,8.88"/>
		<path d="M14.5,90.25c0.52,0.23,2.92,2.18,4,1.75c1.25-0.5,11.25-5.75,24.25-11.75"/>
		<path d="M66.91,14.92c2.88,1.86,5.76,5,7.76,9.05"/>
		<path d="M54.83,30.41c0,3.09-2.3,11.58-3.35,13.64"/>
		<path d="M55.62,32.64C65,31,80.82,28.26,89.65,27.86c8.1-0.36,2.56,4.83,0.04,6.97"/>
		<path d="M57.32,47.96c2.07,0.42,4.07,0.33,6.17,0c4.97-0.78,18.71-2.9,22-2.9c2.84,0,1.83,0.12,4.11,0.12"/>
		<path d="M71.41,46.95c0.81,0.42,1.3,1.9,1.46,2.75c0.16,0.85,0.37,30.08,0.21,35.37"/>
		<path d="M73.28,65.97c5.3-0.63,7.41-1.27,15.4-2.54c1.29-0.2,1.62-0.21,2.43,0"/>
		<path d="M60.03,61.46c0.04,0.79,0.09,2.04-0.09,3.17c-1.1,6.69-7.5,20.06-16.13,29.04"/>
		<path d="M55.69,76.3c5.42,2.6,29.2,14.9,35.09,17.46c2,0.87,3.71,1.24,5.71,1.49"/>
	</g>
</svg>
