<?xml version="1.0" encoding="UTF-8"?>
<!DOCTYPE svg PUBLIC "-//W3C//DTD SVG 1.0//EN" "http://www.w3.org/TR/2001/REC-SVG-20010904/DTD/svg10.dtd">
<svg xmlns="http://www.w3.org/2000/svg" width="109" height="109" viewBox="0 0 109 109">
	<g id="HelperGrid" style="opacity:0.75;">
		<rect x="0.5" y="0.5" style="fill:none;stroke:#404040;" width="108" height="108"/> 
		<line style="fill:none;stroke:#404040;" x1="0.5" y1="72.51" x2="108.5" y2="72.51"/>
		<line style="fill:none;stroke:#404040;" x1="0.5" y1="36.49" x2="108.5" y2="36.49"/>
		<line style="fill:none;stroke:#404040;" x1="72.5" y1="0.5" x2="72.5" y2="108.5"/>
		<line style="fill:none;stroke:#404040;" x1="36.5" y1="0.5" x2="36.5" y2="108.5"/>
	</g>
	<g id="Kanji">
		<text transform="matrix(1 0 0 1 0.5 93.3799)" style="font-size:108;">鍖</text>
	</g>
	<g id="StrokeNumbers" style="font-size:8;fill:#808080">
		<text transform="matrix(1 0 0 1 19.5 16.5)">1</text>
		<text transform="matrix(1 0 0 1 33.5835 21.2217)">2</text>
		<text transform="matrix(1 0 0 1 22.9165 38.8125)">3</text>
		<text transform="matrix(1 0 0 1 4.5 57.7383)">4</text>
		<text transform="matrix(1 0 0 1 20.917 52.6621)">5</text>
		<text transform="matrix(1 0 0 1 7.5 71.5)">6</text>
		<text transform="matrix(1 0 0 1 32.5 65.8457)">7</text>
		<text transform="matrix(1 0 0 1 4.9165 94.7715)">8</text>
		<text transform="matrix(1 0 0 1 44.917 22)">9</text>
		<text transform="matrix(1 0 0 1 45.5 12.5)">10</text>
		<text transform="matrix(1 0 0 1 68.917 13.5)">11</text>
		<text transform="matrix(1 0 0 1 61.4531 34.5254)">12</text>
		<text transform="matrix(1 0 0 1 61.5 46.6997)">13</text>
		<text transform="matrix(1 0 0 1 45.167 60.375)">14</text>
		<text transform="matrix(1 0 0 1 54.667 71.5)">15</text>
		<text transform="matrix(1 0 0 1 78.417 69.4746)">16</text>
		<text transform="matrix(1 0 0 1 41.167 77.9004)">17</text>
	</g>
	<g id="StrokePaths" style="fill:none;stroke:#404040;stroke-width:3;stroke-linecap:round;stroke-linejoin:round;">
		<path d="M27.25,15.5c0,0.79,0.05,1.43-0.14,2.38c-0.96,4.96-10.07,21.52-17.86,28.87"/>
		<path d="M29.5,21.75c4.79,1.97,10.92,7.21,13.25,12.18"/>
		<path d="M16.5,42.97c1.5,0,2.18,0.1,2.67,0.06C23.5,42.7,33,41.4,38.1,41.16c0.74-0.03,0.9-0.06,2.15-0.06"/>
		<path d="M11.59,57.32c0.59,0.35,2.56,0.51,3.17,0.46c5.49-0.52,17.74-2.16,24.78-2.34c0.75-0.02,2.38-0.14,3.49,0.16"/>
		<path d="M26.95,45.28c1.24,0.83,1.24,2.69,1.24,3.35c0,4.64,0.62,34.84,0.31,39.47"/>
		<path d="M14.75,69.25c3.27,5.04,4.87,10.49,5.54,13.43"/>
		<path d="M39.67,63.44c0.33,1,0.49,2.46,0.37,3.3c-0.33,2.17-2.9,6.14-6.54,12.51"/>
		<path d="M12,93.38c0.52,0.25,2.92,2.33,4,1.87c1.25-0.53,11.25-6.14,24.25-12.54"/>
		<path d="M46.56,25.55c0.95,0.49,2.71,0.7,3.66,0.65c7.03-0.36,29.19-2.84,41.36-3.06c1.59-0.03,2.55,0.36,3.34,0.62"/>
		<path d="M56.68,14.5c0.83,0.53,1.33,2.24,1.5,3.21c0.17,0.97,0.16,38.69,0.02,43.63"/>
		<path d="M79.2,12.62c0.86,0.55,1.37,2.31,1.54,3.31s0.24,39.52,0.1,44.46"/>
		<path d="M58.76,37.74c3.68-0.33,6.88-0.48,10.56-0.67c1.2-0.06,2.4-0.13,3.54-0.18"/>
		<path d="M58.76,49.42c3.6,0.04,7.23-0.37,10.81-0.64c1.09-0.08,2.18-0.17,3.23-0.25"/>
		<path d="M44.25,62.19c1.13,0.51,3.19,0.7,4.32,0.7c11.73-0.03,34.27-2.98,45.74-3.05c1.88-0.01,3,0.39,3.94,0.67"/>
		<path d="M65.04,64.56c0.28,0.3,0.61,1.06,0.54,1.64c-0.55,4.68-3.08,10.8-7.82,15.86"/>
		<path d="M74.36,64.15c0.61,0.91,1.13,1.98,1.13,3.33c0,1.95-0.14,1.62-0.14,5.05C75.25,77,76,78.25,82.43,78.6c4.53,0.27,9.41-0.44,10.17-1.22"/>
		<path d="M50.61,63.52c0.39,1.48,0.37,5.06,0.37,7.15c0,3.02-0.09,6.49-0.09,10.98c0,10.59-0.13,10.94,22.06,10.94c12.31,0,18.77-0.84,21.14-1.8"/>
	</g>
</svg>
