<?xml version="1.0" encoding="UTF-8"?>
<!DOCTYPE svg PUBLIC "-//W3C//DTD SVG 1.0//EN" "http://www.w3.org/TR/2001/REC-SVG-20010904/DTD/svg10.dtd">
<svg xmlns="http://www.w3.org/2000/svg" width="109" height="109" viewBox="0 0 109 109">
	<g id="HelperGrid" style="opacity:0.75;">
		<rect x="0.5" y="0.5" style="fill:none;stroke:#404040;" width="108" height="108"/> 
		<line style="fill:none;stroke:#404040;" x1="0.5" y1="72.51" x2="108.5" y2="72.51"/>
		<line style="fill:none;stroke:#404040;" x1="0.5" y1="36.49" x2="108.5" y2="36.49"/>
		<line style="fill:none;stroke:#404040;" x1="72.5" y1="0.5" x2="72.5" y2="108.5"/>
		<line style="fill:none;stroke:#404040;" x1="36.5" y1="0.5" x2="36.5" y2="108.5"/>
	</g>
	<g id="Kanji">
		<text transform="matrix(1 0 0 1 0.5 93.3799)" style="font-size:108;">鎗</text>
	</g>
	<g id="StrokeNumbers" style="font-size:8;fill:#808080">
		<text transform="matrix(1 0 0 1 21.5 13.5)">1</text>
		<text transform="matrix(1 0 0 1 35.5 19.5)">2</text>
		<text transform="matrix(1 0 0 1 24.5 36.5)">3</text>
		<text transform="matrix(1 0 0 1 5.5 55.5)">4</text>
		<text transform="matrix(1 0 0 1 21.5 48.8291)">5</text>
		<text transform="matrix(1 0 0 1 7.5 66.5)">6</text>
		<text transform="matrix(1 0 0 1 34.5 62.5)">7</text>
		<text transform="matrix(1 0 0 1 6.25 92.6035)">8</text>
		<text transform="matrix(1 0 0 1 60.5 13.5)">9</text>
		<text transform="matrix(1 0 0 1 74.5 18.5)">10</text>
		<text transform="matrix(1 0 0 1 63.5 34.5)">11</text>
		<text transform="matrix(1 0 0 1 57.5 44.5)">12</text>
		<text transform="matrix(1 0 0 1 60.5 52.229)">13</text>
		<text transform="matrix(1 0 0 1 60.5 62.5)">14</text>
		<text transform="matrix(1 0 0 1 46.5 53.5)">15</text>
		<text transform="matrix(1 0 0 1 50.25 88.0039)">16</text>
		<text transform="matrix(1 0 0 1 60.5 74.5)">17</text>
		<text transform="matrix(1 0 0 1 63.5 90.5)">18</text>
	</g>
	<g id="StrokePaths" style="fill:none;stroke:#404040;stroke-width:3;stroke-linecap:round;stroke-linejoin:round;">
		<path d="M30,13.99c0,0.78-0.04,1.45-0.4,2.33c-3.97,9.92-9.85,19.17-19.38,28.3"/>
		<path d="M31.89,20.46c4.61,2.66,9.36,6.66,12.36,11.54"/>
		<path d="M18.75,40.11c1.3,0.13,2.59,0.12,3.88-0.01c4.25-0.38,8.52-1.28,14.23-2.09c1.12-0.16,2.26-0.11,3.39-0.12"/>
		<path d="M12.59,55.06c2.13,0.46,4.27,0.57,6.44,0.33c5.68-0.68,12.98-2.14,19.74-2.9c1.51-0.17,2.99-0.57,4.51-0.26"/>
		<path d="M27.95,42.19c1.06,1.06,1.24,2.18,1.24,3.64c0,4.35,0.06,30.67,0.06,37.98"/>
		<path d="M15.14,66.76c3.34,4.57,4.97,9.27,5.65,11.94"/>
		<path d="M42.45,60.8c0,1.08-0.3,2.14-0.66,2.76c-2.17,3.81-2.46,4.38-5.87,9.72"/>
		<path d="M14.25,90.63c1.25,0.99,2.63,0.89,3.64,0.36c7.03-3.69,11.86-6.5,25.36-13.75"/>
		<path d="M68.71,12.25c0.07,0.82-0.33,2.23-0.88,3.31C63.5,24,57.75,35,45,46.75"/>
		<path d="M70.25,16.88c3.29,4.04,11.3,11.85,17.6,17.5c2.63,2.66,5.6,4.86,8.9,6.62"/>
		<path d="M59.11,37.23c1.23,0.15,2.44,0.12,3.64-0.1c3.14-0.4,8-1.38,12.6-1.88c1.3-0.14,2.58-0.3,3.9-0.08"/>
		<path d="M57.2,46.51c1.65-0.15,19.79-2.52,24.93-3.11c3.48-0.4,4.31,1.14,3.86,3.83c-1.11,6.52-1.36,7.77-2.43,14.34"/>
		<path d="M56.95,55.34c9.27-0.98,18.3-1.97,27.33-2.66"/>
		<path d="M56.11,65.13c2.55-0.3,14.58-1.5,23.64-2.38c2.37-0.23,4.53-0.44,6.27-0.6"/>
		<path d="M55.45,46.25c0.96,0.96,0.91,2.43,0.85,3.94c-0.55,14.68-2.47,31.37-13.39,40.56"/>
		<path d="M56.21,76.13c0.89,0.89,1.16,1.87,1.31,2.57c0.54,2.49,1.44,7.36,2.21,12.18c0.32,2.03,0.62,4.05,0.85,5.87"/>
		<path d="M58.52,76.96c6.43-1.08,20.31-2.61,25.86-3.29c2.34-0.29,3.81,0.78,3.29,3.22c-0.82,3.8-1.91,8.54-3.01,13.43"/>
		<path d="M61.24,93.99c3.52-0.39,13.28-1.41,20.64-2.1c2.15-0.2,4.04-0.15,5.45-0.32"/>
	</g>
</svg>
