<?xml version="1.0" encoding="UTF-8"?>
<!DOCTYPE svg PUBLIC "-//W3C//DTD SVG 1.0//EN" "http://www.w3.org/TR/2001/REC-SVG-20010904/DTD/svg10.dtd">
<svg xmlns="http://www.w3.org/2000/svg" width="109" height="109" viewBox="0 0 109 109">
	<g id="HelperGrid" style="opacity:0.75;">
		<rect x="0.5" y="0.5" style="fill:none;stroke:#404040;" width="108" height="108"/> 
		<line style="fill:none;stroke:#404040;" x1="0.5" y1="72.51" x2="108.5" y2="72.51"/>
		<line style="fill:none;stroke:#404040;" x1="0.5" y1="36.49" x2="108.5" y2="36.49"/>
		<line style="fill:none;stroke:#404040;" x1="72.5" y1="0.5" x2="72.5" y2="108.5"/>
		<line style="fill:none;stroke:#404040;" x1="36.5" y1="0.5" x2="36.5" y2="108.5"/>
	</g>
	<g id="Kanji">
		<text transform="matrix(1 0 0 1 0.5 93.3799)" style="font-size:108;">門</text>
	</g>
	<g id="StrokeNumbers" style="font-size:8;fill:#808080">
		<text transform="matrix(1 0 0 1 9.5 22.5)">1</text>
		<text transform="matrix(1 0 0 1 20.5 13.5)">2</text>
		<text transform="matrix(1 0 0 1 22.5 26.5)">3</text>
		<text transform="matrix(1 0 0 1 22.5 39.5)">4</text>
		<text transform="matrix(1 0 0 1 53.5 19.5)">5</text>
		<text transform="matrix(1 0 0 1 63.5 11.5)">6</text>
		<text transform="matrix(1 0 0 1 66.5 23.5)">7</text>
		<text transform="matrix(1 0 0 1 66.5 35.5)">8</text>
	</g>
	<g id="StrokePaths" style="fill:none;stroke:#404040;stroke-width:3;stroke-linecap:round;stroke-linejoin:round;">
		<path d="M17.39,14.97c0.94,0.94,1.26,2.28,1.26,4c0,0.77-0.18,49.78-0.18,69.28c0,3.3-0.04,4.11-0.07,4.97"/>
		<path d="M19.77,17.18c6.04-0.81,20.02-2.86,21.83-2.97c1.91-0.12,2.9,1.04,3,1.96c0.11,1.07-1.17,15.69-1.78,22.84c-0.19,2.21-0.31,3.71-0.31,3.87"/>
		<path d="M20.06,30.18C27,29,36.5,27.75,42.46,27.02"/>
		<path d="M19.61,43.82c8.39-1.32,14.14-2.57,21.55-3.17"/>
		<path d="M61.96,13.47c0.89,1.19,0.92,2.64,0.91,4.04c-0.02,3.82-0.08,14.92-0.05,20.49c0.01,1.84,0.03,3.07,0.06,3.25"/>
		<path d="M63.98,15.09c6.63-0.9,21.65-3.51,23.46-3.6c1.96-0.1,3.82,1.63,3.82,2.98c0,18.78-0.52,61.53-0.51,75.14c0.01,11.13-5.24,3.63-9.49-0.12"/>
		<path d="M64.34,26.89c6.16-0.89,20.29-2.39,25.5-2.67"/>
		<path d="M64.13,39.63c8.99-1,15.87-1.63,25.9-2.47"/>
	</g>
</svg>
