<?xml version="1.0" encoding="UTF-8"?>
<!DOCTYPE svg PUBLIC "-//W3C//DTD SVG 1.0//EN" "http://www.w3.org/TR/2001/REC-SVG-20010904/DTD/svg10.dtd">
<svg xmlns="http://www.w3.org/2000/svg" width="109" height="109" viewBox="0 0 109 109">
	<g id="HelperGrid" style="opacity:0.75;">
		<rect x="0.5" y="0.5" style="fill:none;stroke:#404040;" width="108" height="108"/> 
		<line style="fill:none;stroke:#404040;" x1="0.5" y1="72.51" x2="108.5" y2="72.51"/>
		<line style="fill:none;stroke:#404040;" x1="0.5" y1="36.49" x2="108.5" y2="36.49"/>
		<line style="fill:none;stroke:#404040;" x1="72.5" y1="0.5" x2="72.5" y2="108.5"/>
		<line style="fill:none;stroke:#404040;" x1="36.5" y1="0.5" x2="36.5" y2="108.5"/>
	</g>
	<g id="Kanji">
		<text transform="matrix(1 0 0 1 0.5 93.3799)" style="font-size:108;">閥</text>
	</g>
	<g id="StrokeNumbers" style="font-size:8;fill:#808080">
		<text transform="matrix(1 0 0 1 11.25 27.1299)">1</text>
		<text transform="matrix(1 0 0 1 21.75 17.5)">2</text>
		<text transform="matrix(1 0 0 1 24.5 27.5)">3</text>
		<text transform="matrix(1 0 0 1 24.3491 39.5)">4</text>
		<text transform="matrix(1 0 0 1 58.5 23.5)">5</text>
		<text transform="matrix(1 0 0 1 66.5 13.5)">6</text>
		<text transform="matrix(1 0 0 1 69.5 23.5)">7</text>
		<text transform="matrix(1 0 0 1 69.4688 34.5)">8</text>
		<text transform="matrix(1 0 0 1 33.5 50.5)">9</text>
		<text transform="matrix(1 0 0 1 28.5 79.5)">10</text>
		<text transform="matrix(1 0 0 1 45.75 58.5)">11</text>
		<text transform="matrix(1 0 0 1 50.5 43.6299)">12</text>
		<text transform="matrix(1 0 0 1 63.5 65.5)">13</text>
		<text transform="matrix(1 0 0 1 63.5 49.5)">14</text>
	</g>
	<g id="StrokePaths" style="fill:none;stroke:#404040;stroke-width:3;stroke-linecap:round;stroke-linejoin:round;">
		<path d="M18.39,18.54c0.66,0.44,1.57,2.82,1.71,3.7c0.13,0.89-0.09,67.36-0.22,72.9"/>
		<path d="M20.28,20.7c2.21-0.1,17.99-3.06,20-3.18c1.68-0.1,2.67,0.87,2.63,1.63c-0.16,2.84-1.66,14.59-2.77,23.04"/>
		<path d="M20.67,31.01c3.42-0.36,6.83-0.83,10.23-1.3c0.94-0.13,1.87-0.26,2.79-0.38"/>
		<path d="M20.28,43.01c7.36-1.1,12.56-2.43,19.07-2.94"/>
		<path d="M64.44,14.51c0.44,0.55,0.88,1.74,0.88,2.48c0,0.74-0.29,22.81-0.29,23.17"/>
		<path d="M66.05,16.66c2.49-0.11,19.71-3.29,21.99-3.42c1.9-0.11,2.98,1.15,2.97,1.8c-0.49,19.46-0.5,60.29-0.5,74.4c0,13.31-5.95,1.66-7.4,0.36"/>
		<path d="M66.49,26.72c3.74,0,7.6-0.85,11.29-1.37c1.21-0.17,2.42-0.34,3.58-0.5"/>
		<path d="M66.05,37.26c4.99,0,16.59-2.06,23.05-2.06"/>
		<path d="M42.91,49.15c0.1,0.65,0.17,1.46-0.09,2.25c-1.63,5.02-7.94,14.73-15.54,21.53"/>
		<path d="M38.18,62.96c0.36,0.38,0.47,1.22,0.47,1.99c0,8.04-0.18,24.78-0.18,30.19"/>
		<path d="M45.61,61.27c1.39,0.15,2.62,0.46,4.15,0.13c4.72-1.02,16.49-4.4,23.38-5.52c0.99-0.16,1.91,0.21,2.41,0.43"/>
		<path d="M56.97,45.5c0.84,0.99,0.98,1.26,1.15,3.39c1.47,17.77,7.45,33.54,16.58,41.76c2.94,2.65,2.83,0.42,2.41-3.95"/>
		<path d="M73.59,63.87c0.07,0.56,0.14,1.43-0.14,2.23c-1.66,4.7-11.16,15.53-24.17,21.84"/>
		<path d="M71.08,43.85c2.62,1.28,6.8,4.22,8.02,6.42"/>
	</g>
</svg>
