<?xml version="1.0" encoding="UTF-8"?>
<!DOCTYPE svg PUBLIC "-//W3C//DTD SVG 1.0//EN" "http://www.w3.org/TR/2001/REC-SVG-20010904/DTD/svg10.dtd">
<svg xmlns="http://www.w3.org/2000/svg" width="109" height="109" viewBox="0 0 109 109">
	<g id="HelperGrid" style="opacity:0.75;">
		<rect x="0.5" y="0.5" style="fill:none;stroke:#404040;" width="108" height="108"/> 
		<line style="fill:none;stroke:#404040;" x1="0.5" y1="72.51" x2="108.5" y2="72.51"/>
		<line style="fill:none;stroke:#404040;" x1="0.5" y1="36.49" x2="108.5" y2="36.49"/>
		<line style="fill:none;stroke:#404040;" x1="72.5" y1="0.5" x2="72.5" y2="108.5"/>
		<line style="fill:none;stroke:#404040;" x1="36.5" y1="0.5" x2="36.5" y2="108.5"/>
	</g>
	<g id="Kanji">
		<text transform="matrix(1 0 0 1 0.5 93.3799)" style="font-size:108;">陂</text>
	</g>
	<g id="StrokeNumbers" style="font-size:8;fill:#808080">
		<text transform="matrix(1 0 0 1 18.5 14.5)">1</text>
		<text transform="matrix(1 0 0 1 24.25 48.0547)">2</text>
		<text transform="matrix(1 0 0 1 9.5 23.5)">3</text>
		<text transform="matrix(1 0 0 1 41.5 33.5)">4</text>
		<text transform="matrix(1 0 0 1 50.5 25.5)">5</text>
		<text transform="matrix(1 0 0 1 56.5 11.5)">6</text>
		<text transform="matrix(1 0 0 1 54.25 49.5)">7</text>
		<text transform="matrix(1 0 0 1 52.5 67.8535)">8</text>
	</g>
	<g id="StrokePaths" style="fill:none;stroke:#404040;stroke-width:3;stroke-linecap:round;stroke-linejoin:round;">
		<path d="M15.87,17.16c0.38,0.34,2.13,0.89,3.39,0.65c5.49-1.05,10.06-2.22,12.38-3.1c3.06-1.15,6.12,1.15,4.76,3.83c-1.36,2.68-6.4,14.96-9.51,21.55"/>
		<path d="M26.88,40.09C43.25,53.25,37.5,83,28.58,72.93"/>
		<path d="M17.04,18.53c0.21,1.22,0.28,2.59,0.5,3.74c0.22,1.15,0,66.8-0.22,73.99"/>
		<path d="M47.61,27.77c0.82,1.28,2.03,4.79,2.02,7.46c-0.16,30.15-3.13,47.52-17.01,59.81"/>
		<path d="M48.97,29.66c14.53-2.41,34.85-4.45,40.32-4.82c9.63-0.65-0.24,7.86-1.61,8.83"/>
		<path d="M66.56,12c0.94,0.75,1.7,2.16,1.98,3.12c0.27,0.96-0.1,25.93-0.1,35.78"/>
		<path d="M51.92,52.1c1.53,0.36,1.87,0.97,4.93,0.43c6.53-1.17,21.6-3.18,28.1-4.03c2.17-0.29,3.89,2.17,2.86,4.03C76.75,72.5,64,87.5,43.36,96.83"/>
		<path d="M55.81,58.06c3.61,5.07,20.81,25.28,33.13,35.26c1.92,1.56,3.31,2.59,5.1,3.11"/>
	</g>
</svg>
