<?xml version="1.0" encoding="UTF-8"?>
<!-- Copyright (C) 2009 Ulrich Apel.
This work is distributed under the conditions of the Creative Commons
Attribution-Share Alike 3.0 Licence. This means you are free:
* to Share - to copy, distribute and transmit the work
* to Remix - to adapt the work

Under the following conditions:
* Attribution. You must attribute the work by stating your use of KanjiVG in
  your own copyright header and linking to KanjiVG's website
  (http://kanjivg.tagaini.net)
* Share Alike. If you alter, transform, or build upon this work, you may
  distribute the resulting work only under the same or similar license to this
  one.

See http://creativecommons.org/licenses/by-sa/3.0/ for more details. -->
<!DOCTYPE svg PUBLIC "-//W3C//DTD SVG 1.0//EN" "http://www.w3.org/TR/2001/REC-SVG-20010904/DTD/svg10.dtd">
<svg xmlns="http://www.w3.org/2000/svg" width="109" height="109" viewBox="0 0 109 109">
	<g id="HelperGrid" style="opacity:0.75;">
		<rect x="0.5" y="0.5" style="fill:none;stroke:#404040;" width="108" height="108"/> 
		<line style="fill:none;stroke:#404040;" x1="0.5" y1="72.51" x2="108.5" y2="72.51"/>
		<line style="fill:none;stroke:#404040;" x1="0.5" y1="36.49" x2="108.5" y2="36.49"/>
		<line style="fill:none;stroke:#404040;" x1="72.5" y1="0.5" x2="72.5" y2="108.5"/>
		<line style="fill:none;stroke:#404040;" x1="36.5" y1="0.5" x2="36.5" y2="108.5"/>
	</g>
	<g id="Kanji">
		<text transform="matrix(1 0 0 1 0.5 93.3799)" style="font-size:108;">陶</text>
	</g>
	<g id="StrokeNumbers" style="font-size:8;fill:#808080">
		<text transform="matrix(1 0 0 1 19.5 16.6299)">1</text>
		<text transform="matrix(1 0 0 1 23.25 45.0547)">2</text>
		<text transform="matrix(1 0 0 1 10.5 27.5)">3</text>
		<text transform="matrix(1 0 0 1 45.75 16.5)">4</text>
		<text transform="matrix(1 0 0 1 58.5 27.0547)">5</text>
		<text transform="matrix(1 0 0 1 46.5 42.5)">6</text>
		<text transform="matrix(1 0 0 1 60.5 44.5)">7</text>
		<text transform="matrix(1 0 0 1 48.75 60.0547)">8</text>
		<text transform="matrix(1 0 0 1 54.5 55.5)">9</text>
		<text transform="matrix(1 0 0 1 36.5 73.5)">10</text>
		<text transform="matrix(1 0 0 1 66.5 69.5)">11</text>
	</g>
	<g id="StrokePaths" style="fill:none;stroke:#404040;stroke-width:3;stroke-linecap:round;stroke-linejoin:round;">
		<path d="M15.17,19.67c1.46,0.71,2.84,0.78,4.11,0.62c5.98-0.78,12.48-1.91,16.39-2.87c3.07-0.75,4.5,1,3.17,3.33c-1.33,2.33-8,13.67-10.33,17"/>
		<path d="M28.5,38.25c13.33,8.33,10,36-1.83,27.25"/>
		<path d="M17.12,21c0.81,0.81,0.96,2,0.96,3.75c0,6.8,0.02,45.67,0.03,62.75c0,4.59,0,7.6,0,8"/>
		<path d="M55.03,15.75c0.04,0.6,0,1.59-0.32,2.4c-2.46,6.1-6.08,13.72-12.96,22.23"/>
		<path d="M52,30.5c3,0.75,4.85,0.51,6.88,0.16c6.73-1.15,25.16-4.49,29.52-5.16c3.91-0.6,6.02,0.25,5.9,4.5c-0.5,17.69-1.05,37.12-5.7,56.66c-1.34,5.63-4.85,10.83-9.32,4.84"/>
		<path d="M54.49,38.89c0.12,0.78,0.04,1.52-0.22,2.24c-1.27,4.13-3.97,9.4-8.16,15.11"/>
		<path d="M55.11,47.68c1.17,0.1,2.26,0.03,3.41-0.18c5.47-0.97,10.74-2.01,15.74-2.9c1.64-0.29,3.14-0.73,4.76-0.22"/>
		<path d="M43.38,62.05c1.58,0.82,4.47,0.57,6.15,0.28c8.72-1.46,16.72-2.84,27.11-3.93c1.93-0.2,4.12-0.59,5.99,0"/>
		<path d="M60.99,48.54c0.8,0.8,1.04,1.89,1.04,3c0,3.9-0.03,22.35-0.03,26.33"/>
		<path d="M46.8,70.19c0.75,0.75,0.99,1.69,0.78,2.66c-0.58,2.77-1.12,5.55-2,7.64c-0.58,1.38,0.57,2.49,2.07,2.09c9.09-2.46,16.78-4.13,27.55-5.28"/>
		<path d="M76.24,65.81c0.79,0.79,0.88,2.07,0.78,3.25c-0.23,2.6-0.37,5.05-0.81,9.22c-0.11,1.04-0.23,2.15-0.36,3.36"/>
	</g>
</svg>
