<?xml version="1.0" encoding="UTF-8"?>
<!-- Copyright (C) 2009 Ulrich Apel.
This work is distributed under the conditions of the Creative Commons
Attribution-Share Alike 3.0 Licence. This means you are free:
* to Share - to copy, distribute and transmit the work
* to Remix - to adapt the work

Under the following conditions:
* Attribution. You must attribute the work by stating your use of KanjiVG in
  your own copyright header and linking to KanjiVG's website
  (http://kanjivg.tagaini.net)
* Share Alike. If you alter, transform, or build upon this work, you may
  distribute the resulting work only under the same or similar license to this
  one.

See http://creativecommons.org/licenses/by-sa/3.0/ for more details. -->
<!DOCTYPE svg PUBLIC "-//W3C//DTD SVG 1.0//EN" "http://www.w3.org/TR/2001/REC-SVG-20010904/DTD/svg10.dtd">
<svg xmlns="http://www.w3.org/2000/svg" width="109" height="109" viewBox="0 0 109 109">
	<g id="HelperGrid" style="opacity:0.75;">
		<rect x="0.5" y="0.5" style="fill:none;stroke:#404040;" width="108" height="108"/> 
		<line style="fill:none;stroke:#404040;" x1="0.5" y1="72.51" x2="108.5" y2="72.51"/>
		<line style="fill:none;stroke:#404040;" x1="0.5" y1="36.49" x2="108.5" y2="36.49"/>
		<line style="fill:none;stroke:#404040;" x1="72.5" y1="0.5" x2="72.5" y2="108.5"/>
		<line style="fill:none;stroke:#404040;" x1="36.5" y1="0.5" x2="36.5" y2="108.5"/>
	</g>
	<g id="Kanji">
		<text transform="matrix(1 0 0 1 0.5 93.3799)" style="font-size:108;">隅</text>
	</g>
	<g id="StrokeNumbers" style="font-size:8;fill:#808080">
		<text transform="matrix(1 0 0 1 17.25 15.1299)">1</text>
		<text transform="matrix(1 0 0 1 21.75 43.5)">2</text>
		<text transform="matrix(1 0 0 1 8.5 25.5)">3</text>
		<text transform="matrix(1 0 0 1 39.5 27.5)">4</text>
		<text transform="matrix(1 0 0 1 46.5 16.5)">5</text>
		<text transform="matrix(1 0 0 1 53.25 28.5)">6</text>
		<text transform="matrix(1 0 0 1 53.25 40.5)">7</text>
		<text transform="matrix(1 0 0 1 36.5 66.5)">8</text>
		<text transform="matrix(1 0 0 1 45.5 53.5)">9</text>
		<text transform="matrix(1 0 0 1 68.5 25.5)">10</text>
		<text transform="matrix(1 0 0 1 49.5 73.5)">11</text>
		<text transform="matrix(1 0 0 1 78.5 63.5)">12</text>
	</g>
	<g id="StrokePaths" style="fill:none;stroke:#404040;stroke-width:3;stroke-linecap:round;stroke-linejoin:round;">
		<path d="M12.67,19.67c1.18,0.11,2.41,0.26,3.6,0.03c5.98-1.19,11.46-2.21,13.9-3.03c3-1,6,1,4.67,3.33c-1.33,2.33-6.5,12.67-8.83,16"/>
		<path d="M26,36.5c12.25,9.25,9.67,32.83-2.33,28.5"/>
		<path d="M15.87,20.75c0.38,1,0.24,2.25,0.46,3.25c0.22,1,0,66.25-0.22,72.5"/>
		<path d="M45.08,18.98c0.3,0.5,1.3,2.83,1.46,3.44c1.32,5.02,2.96,14.09,4.69,24.21"/>
		<path d="M46.48,20.2c12.77-1.95,30.25-4.23,38.11-4.72c2.89-0.18,3.93,0.98,3.7,4.03C87.9,24.46,86.5,35,84.33,42.94"/>
		<path d="M48.96,32.07c8.5-0.6,16.99-1.7,25.47-2.54c1.02-0.1,2.02-0.2,2.97-0.29"/>
		<path d="M51.39,44.4c12.61-1.65,20.36-2.65,33.03-3.67"/>
		<path d="M40.32,55.49c1.39,0.63,2.37,2.35,2.47,3.48c0.48,5.54,2.76,28.85,3.54,35.03"/>
		<path d="M42.76,58.11c6.86-0.88,46.72-5.04,48.07-5.35c2.89-0.66,4.8,1.61,4.7,3.55c-0.25,4.69-2.28,24.19-4.5,32.29c-2.11,7.67-3.88,5.08-6.43,0.45"/>
		<path d="M65.45,19.21c0.45,0.87,1.15,1.74,1.15,3.28c-0.01,6.76,0.19,48.91,0.19,50.99"/>
		<path d="M52.99,77.57c1.19,1.2,2.51,1.87,3.57,1.44c2.98-1.2,17.7-7.24,23.93-9.4"/>
		<path d="M75.74,63.35c3.45,2.57,8.92,10.58,9.78,14.58"/>
	</g>
</svg>
