<?xml version="1.0" encoding="UTF-8"?>
<!-- Copyright (C) 2009 Ulrich Apel.
This work is distributed under the conditions of the Creative Commons
Attribution-Share Alike 3.0 Licence. This means you are free:
* to Share - to copy, distribute and transmit the work
* to Remix - to adapt the work

Under the following conditions:
* Attribution. You must attribute the work by stating your use of KanjiVG in
  your own copyright header and linking to KanjiVG's website
  (http://kanjivg.tagaini.net)
* Share Alike. If you alter, transform, or build upon this work, you may
  distribute the resulting work only under the same or similar license to this
  one.

See http://creativecommons.org/licenses/by-sa/3.0/ for more details. -->
<!DOCTYPE svg PUBLIC "-//W3C//DTD SVG 1.0//EN" "http://www.w3.org/TR/2001/REC-SVG-20010904/DTD/svg10.dtd">
<svg xmlns="http://www.w3.org/2000/svg" width="109" height="109" viewBox="0 0 109 109">
	<g id="HelperGrid" style="opacity:0.75;">
		<rect x="0.5" y="0.5" style="fill:none;stroke:#404040;" width="108" height="108"/> 
		<line style="fill:none;stroke:#404040;" x1="0.5" y1="72.51" x2="108.5" y2="72.51"/>
		<line style="fill:none;stroke:#404040;" x1="0.5" y1="36.49" x2="108.5" y2="36.49"/>
		<line style="fill:none;stroke:#404040;" x1="72.5" y1="0.5" x2="72.5" y2="108.5"/>
		<line style="fill:none;stroke:#404040;" x1="36.5" y1="0.5" x2="36.5" y2="108.5"/>
	</g>
	<g id="Kanji">
		<text transform="matrix(1 0 0 1 0.5 93.3799)" style="font-size:108;">隆</text>
	</g>
	<g id="StrokeNumbers" style="font-size:8;fill:#808080">
		<text transform="matrix(1 0 0 1 20 17.8799)">1</text>
		<text transform="matrix(1 0 0 1 23 47.8047)">2</text>
		<text transform="matrix(1 0 0 1 9.5 31.3799)">3</text>
		<text transform="matrix(1 0 0 1 50 16.3799)">4</text>
		<text transform="matrix(1 0 0 1 66.5 16.3799)">5</text>
		<text transform="matrix(1 0 0 1 51.5 38.8047)">6</text>
		<text transform="matrix(1 0 0 1 46.25 59.25)">7</text>
		<text transform="matrix(1 0 0 1 58.25 62.25)">8</text>
		<text transform="matrix(1 0 0 1 49.25 76.25)">9</text>
		<text transform="matrix(1 0 0 1 34.25 89.25)">10</text>
		<text transform="matrix(1 0 0 1 57.25 54.25)">11</text>
	</g>
	<g id="StrokePaths" style="fill:none;stroke:#404040;stroke-width:3;stroke-linecap:round;stroke-linejoin:round;">
		<path d="M15.92,22.42c0.82,0.23,2.16,0.58,2.96,0.42c5.38-1.08,10.42-3.04,13.04-3.92c3-1,6,1,4.67,3.33c-1.33,2.33-7,13.67-9.33,17"/>
		<path d="M27.25,39.75c13.33,8.33,10,32-1.83,26"/>
		<path d="M17.62,23.5c0.38,1.25,0.24,2.25,0.46,3.25c0.22,1,0,63.75-0.22,70"/>
		<path d="M59.29,13c0.04,0.55,0.09,1.43-0.08,2.22c-1.04,4.69-6.99,14.97-15.14,21.27"/>
		<path d="M60.08,20.14c0.26,0.03,1.69,0.25,2.44,0.18c3.37-0.32,10.34-2.49,13.87-3.3c2.42-0.55,3.11,0.63,2.49,2.13c-3.39,8.23-20.5,28.36-35.63,32.6"/>
		<path d="M53.14,27.44c5.29,4.05,29.3,19.42,36.44,23.12c2.13,1.1,3.85,1.64,5.92,1.97"/>
		<path d="M53.72,53.85c0.03,0.46,0.06,1.2-0.05,1.86c-0.63,3.93-4.25,12.56-9.21,17.85"/>
		<path d="M53.62,64.54c0.68,0.21,1.94,0.25,2.62,0.21c4.93-0.31,21.66-2.8,25.91-3.12c1.13-0.09,1.61-0.05,2.21-0.01"/>
		<path d="M49.62,78.58c0.68,0.2,1.94,0.24,2.62,0.2c4.93-0.28,25.88-3.02,30.14-3.33c1.14-0.08,1.61-0.04,2.21-0.01"/>
		<path d="M37.15,92.72c1.12,0.18,3.18,0.21,4.3,0.18c8.09-0.25,40.64-2.13,47.62-2.41c1.86-0.07,3.43,0.15,5.16,0.58"/>
		<path d="M64.88,50.38c0.55,0.29,1.72,2.2,1.83,2.78c0.11,0.59-0.07,33.94-0.18,37.6"/>
	</g>
</svg>
