<?xml version="1.0" encoding="UTF-8"?>
<!-- Copyright (C) 2009 Ulrich Apel.
This work is distributed under the conditions of the Creative Commons
Attribution-Share Alike 3.0 Licence. This means you are free:
* to Share - to copy, distribute and transmit the work
* to Remix - to adapt the work

Under the following conditions:
* Attribution. You must attribute the work by stating your use of KanjiVG in
  your own copyright header and linking to KanjiVG's website
  (http://kanjivg.tagaini.net)
* Share Alike. If you alter, transform, or build upon this work, you may
  distribute the resulting work only under the same or similar license to this
  one.

See http://creativecommons.org/licenses/by-sa/3.0/ for more details. -->
<!DOCTYPE svg PUBLIC "-//W3C//DTD SVG 1.0//EN" "http://www.w3.org/TR/2001/REC-SVG-20010904/DTD/svg10.dtd">
<svg xmlns="http://www.w3.org/2000/svg" width="109" height="109" viewBox="0 0 109 109">
	<g id="HelperGrid" style="opacity:0.75;">
		<rect x="0.5" y="0.5" style="fill:none;stroke:#404040;" width="108" height="108"/> 
		<line style="fill:none;stroke:#404040;" x1="0.5" y1="72.51" x2="108.5" y2="72.51"/>
		<line style="fill:none;stroke:#404040;" x1="0.5" y1="36.49" x2="108.5" y2="36.49"/>
		<line style="fill:none;stroke:#404040;" x1="72.5" y1="0.5" x2="72.5" y2="108.5"/>
		<line style="fill:none;stroke:#404040;" x1="36.5" y1="0.5" x2="36.5" y2="108.5"/>
	</g>
	<g id="Kanji">
		<text transform="matrix(1 0 0 1 0.5 93.3799)" style="font-size:108;">隙</text>
	</g>
	<g id="StrokeNumbers" style="font-size:8;fill:#808080">
		<text transform="matrix(1 0 0 1 19.5 13.5)">1</text>
		<text transform="matrix(1 0 0 1 22.5 48.5)">2</text>
		<text transform="matrix(1 0 0 1 9.5 24.5)">3</text>
		<text transform="matrix(1 0 0 1 58.5 10.5)">4</text>
		<text transform="matrix(1 0 0 1 47.5 18.5)">5</text>
		<text transform="matrix(1 0 0 1 74.5 15.5)">6</text>
		<text transform="matrix(1 0 0 1 41.5 49.5)">7</text>
		<text transform="matrix(1 0 0 1 51.5 40.5)">8</text>
		<text transform="matrix(1 0 0 1 54.5 51.5293)">9</text>
		<text transform="matrix(1 0 0 1 53.5 61.5)">10</text>
		<text transform="matrix(1 0 0 1 58.5 73.1299)">11</text>
		<text transform="matrix(1 0 0 1 43.5 74.5547)">12</text>
		<text transform="matrix(1 0 0 1 72.5 81.5)">13</text>
	</g>
	<g id="StrokePaths" style="fill:none;stroke:#404040;stroke-width:3;stroke-linecap:round;stroke-linejoin:round;">
		<path d="M14.5,15.75c1.5,0.5,3.01,0.52,4.84,0.29c6.16-0.79,10.92-1.5,13.14-2.34c2.97-1.12,5.93,1.12,4.61,3.74c-1.32,2.62-6.6,13.31-11.23,20.59"/>
		<path d="M26.37,39.04c13.18,9.36,13.13,40.21,1.65,32.57"/>
		<path d="M16.59,97.75c0.22-7.02,0.43-76.5,0.22-77.62c-0.22-1.12-0.56-2.38-0.94-3.65"/>
		<path d="M66.86,10.37c0.06,0.2,0.77,1.03,0.82,2.29c0.26,6.04-0.17,20.18-0.17,22.23c0,8.61-4.72,0.62-5.71,0.1"/>
		<path d="M54.95,18.82c0.04,0.41,0.09,1.06-0.09,1.66c-1.07,3.49-7.21,11.16-15.61,15.85"/>
		<path d="M78.07,19.4c5.18,2.72,13.39,11.18,14.68,15.41"/>
		<path d="M48.74,43.9c0.27,0.37,0.28,0.62,0.43,1.08c1.24,3.8,2.4,13.39,3.17,20.48"/>
		<path d="M50.02,44.41c9.58-0.96,25.99-2.58,33.14-3.38c2.62-0.3,3.97,0.75,3.84,1.79c-0.49,3.83-1.71,14.26-2.92,20.66"/>
		<path d="M51.81,54.23c5.57-0.66,11.17-1.16,16.75-1.71c1.89-0.19,3.78-0.37,5.56-0.55"/>
		<path d="M52.83,64.42c6.9-0.41,21.73-2.11,31.25-2.77"/>
		<path d="M66.86,65.87c0.06,0.2,0.77,1.03,0.82,2.29c0.26,6.04-0.17,22.67-0.17,24.73c0,6.61-4.77,1.36-6.71-1.4"/>
		<path d="M54.45,73.82c0.04,0.41,0.09,1.06-0.09,1.66c-1.07,3.49-7.21,11.16-15.61,15.85"/>
		<path d="M79.82,74.4c5.09,2.99,13.16,12.27,14.43,16.91"/>
	</g>
</svg>
