<?xml version="1.0" encoding="UTF-8"?>
<!-- Copyright (C) 2009 Ulrich Apel.
This work is distributed under the conditions of the Creative Commons
Attribution-Share Alike 3.0 Licence. This means you are free:
* to Share - to copy, distribute and transmit the work
* to Remix - to adapt the work

Under the following conditions:
* Attribution. You must attribute the work by stating your use of KanjiVG in
  your own copyright header and linking to KanjiVG's website
  (http://kanjivg.tagaini.net)
* Share Alike. If you alter, transform, or build upon this work, you may
  distribute the resulting work only under the same or similar license to this
  one.

See http://creativecommons.org/licenses/by-sa/3.0/ for more details. -->
<!DOCTYPE svg PUBLIC "-//W3C//DTD SVG 1.0//EN" "http://www.w3.org/TR/2001/REC-SVG-20010904/DTD/svg10.dtd">
<svg xmlns="http://www.w3.org/2000/svg" width="109" height="109" viewBox="0 0 109 109">
	<g id="HelperGrid" style="opacity:0.75;">
		<rect x="0.5" y="0.5" style="fill:none;stroke:#404040;" width="108" height="108"/> 
		<line style="fill:none;stroke:#404040;" x1="0.5" y1="72.51" x2="108.5" y2="72.51"/>
		<line style="fill:none;stroke:#404040;" x1="0.5" y1="36.49" x2="108.5" y2="36.49"/>
		<line style="fill:none;stroke:#404040;" x1="72.5" y1="0.5" x2="72.5" y2="108.5"/>
		<line style="fill:none;stroke:#404040;" x1="36.5" y1="0.5" x2="36.5" y2="108.5"/>
	</g>
	<g id="Kanji">
		<text transform="matrix(1 0 0 1 0.5 93.3799)" style="font-size:108;">雪</text>
	</g>
	<g id="StrokeNumbers" style="font-size:8;fill:#808080">
		<text transform="matrix(1 0 0 1 23.5 18.5)">1</text>
		<text transform="matrix(1 0 0 1 12.5 31.5)">2</text>
		<text transform="matrix(1 0 0 1 23.25 29.5)">3</text>
		<text transform="matrix(1 0 0 1 46.125 23.875)">4</text>
		<text transform="matrix(1 0 0 1 24.5 41.5)">5</text>
		<text transform="matrix(1 0 0 1 21.75 51.1299)">6</text>
		<text transform="matrix(1 0 0 1 59.25 36.5)">7</text>
		<text transform="matrix(1 0 0 1 58.5 45.5)">8</text>
		<text transform="matrix(1 0 0 1 22.5 63.5)">9</text>
		<text transform="matrix(1 0 0 1 19.25 77.5)">10</text>
		<text transform="matrix(1 0 0 1 19 95.5)">11</text>
	</g>
	<g id="StrokePaths" style="fill:none;stroke:#404040;stroke-width:3;stroke-linecap:round;stroke-linejoin:round;">
		<path d="M30.3,17.75c1.99,0.19,4.32,0.06,6.11-0.13C47,16.5,63.12,14.5,73.79,13.82c2.52-0.16,4.62-0.16,6.94,0.11"/>
		<path d="M19.13,30.26c-0.21,5.23-2.03,10.97-3.37,16.26"/>
		<path d="M20.02,32.66c15.86-2.03,51.76-6.3,68.93-7.13c11.07-0.53,1.22,7.12-0.29,8.94"/>
		<path d="M52.65,18.92c1.15,1.15,1.61,2.83,1.61,4.57c0,3.62,0.08,17.53,0.11,25.25c0.01,2.43,0.02,4.15,0.02,4.58"/>
		<path d="M32.73,38.9c3.62,0.74,8.54,2.95,10.52,4.17"/>
		<path d="M29.33,47.1c3.77,0.75,9.61,3.5,11.67,4.75"/>
		<path d="M66.56,34.1c4.13,1.22,8.75,3.64,10.44,4.68"/>
		<path d="M66.12,44.62c3.71,0.91,8.77,3.66,10.79,5.19"/>
		<path d="M29.41,61.93c2.47,1.07,4.77,1.19,7.87,0.77c14.22-1.95,29.22-3,39.71-4.03c3.21-0.32,5.45,1.48,4.96,4.45c-1.11,6.65-2.32,16.37-3.74,26.12"/>
		<path d="M29.89,76.19c2.11,1.06,4.69,1.23,7.11,0.96c13.56-1.49,33.99-3.4,42.96-3.97"/>
		<path d="M27.88,93.44c2.12,0.68,4.38,0.94,6.91,0.72C47,93.11,62.36,91.46,74.25,90.4c2.4-0.21,5.06-0.46,7.46,0.02"/>
	</g>
</svg>
