<?xml version="1.0" encoding="UTF-8"?>
<!-- Copyright (C) 2009 Ulrich Apel.
This work is distributed under the conditions of the Creative Commons
Attribution-Share Alike 3.0 Licence. This means you are free:
* to Share - to copy, distribute and transmit the work
* to Remix - to adapt the work

Under the following conditions:
* Attribution. You must attribute the work by stating your use of KanjiVG in
  your own copyright header and linking to KanjiVG's website
  (http://kanjivg.tagaini.net)
* Share Alike. If you alter, transform, or build upon this work, you may
  distribute the resulting work only under the same or similar license to this
  one.

See http://creativecommons.org/licenses/by-sa/3.0/ for more details. -->
<!DOCTYPE svg PUBLIC "-//W3C//DTD SVG 1.0//EN" "http://www.w3.org/TR/2001/REC-SVG-20010904/DTD/svg10.dtd">
<svg xmlns="http://www.w3.org/2000/svg" width="109" height="109" viewBox="0 0 109 109">
	<g id="HelperGrid" style="opacity:0.75;">
		<rect x="0.5" y="0.5" style="fill:none;stroke:#404040;" width="108" height="108"/> 
		<line style="fill:none;stroke:#404040;" x1="0.5" y1="72.51" x2="108.5" y2="72.51"/>
		<line style="fill:none;stroke:#404040;" x1="0.5" y1="36.49" x2="108.5" y2="36.49"/>
		<line style="fill:none;stroke:#404040;" x1="72.5" y1="0.5" x2="72.5" y2="108.5"/>
		<line style="fill:none;stroke:#404040;" x1="36.5" y1="0.5" x2="36.5" y2="108.5"/>
	</g>
	<g id="Kanji">
		<text transform="matrix(1 0 0 1 0.5 93.3799)" style="font-size:108;">雰</text>
	</g>
	<g id="StrokeNumbers" style="font-size:8;fill:#808080">
		<text transform="matrix(1 0 0 1 26.5 15.5)">1</text>
		<text transform="matrix(1 0 0 1 12.75 28.5547)">2</text>
		<text transform="matrix(1 0 0 1 24.75 23.5)">3</text>
		<text transform="matrix(1 0 0 1 45.75 21.1299)">4</text>
		<text transform="matrix(1 0 0 1 24.75 36.1299)">5</text>
		<text transform="matrix(1 0 0 1 21.75 43.6299)">6</text>
		<text transform="matrix(1 0 0 1 57.75 33.1299)">7</text>
		<text transform="matrix(1 0 0 1 57.75 43.6299)">8</text>
		<text transform="matrix(1 0 0 1 34.5 56.5)">9</text>
		<text transform="matrix(1 0 0 1 50.25 58.5)">10</text>
		<text transform="matrix(1 0 0 1 39.5 69.1299)">11</text>
		<text transform="matrix(1 0 0 1 35.25 82.6299)">12</text>
	</g>
	<g id="StrokePaths" style="fill:none;stroke:#404040;stroke-width:3;stroke-linecap:round;stroke-linejoin:round;">
		<path d="M32.31,14.13c2.56,0.74,4.9,0.6,7.34,0.3c6.14-0.77,18.32-2.02,28.36-2.67c2.32-0.15,4.66-0.34,6.97-0.02"/>
		<path d="M20.91,24.42c-0.32,5.48-3.28,12.71-5.21,17.09"/>
		<path d="M21.61,26.71c21.26-1.83,51.19-4.91,67.08-4.91c8.22,0,3.55,4.45-1.28,8.18"/>
		<path d="M52.81,16.22c1.11,1.11,1.35,2.53,1.35,3.98c0,0.35-0.02,10.71-0.03,18.06c0,3.01-0.01,5.27-0.01,5.66"/>
		<path d="M31.5,32.25c3.86,0.81,9.11,3.22,11.22,4.57"/>
		<path d="M28.62,41.62c3.61,0.87,9.2,4.07,11.17,5.53"/>
		<path d="M65.14,29.98c4.46,1.28,9.52,3.85,11.31,4.92"/>
		<path d="M64.72,41.36c4.01,0.97,9.48,3.88,11.67,5.49"/>
		<path d="M43.92,53.47c0,1.39-0.67,2.24-1.57,3.23C36.96,62.61,25.38,70.12,15,73.11"/>
		<path d="M54.69,50c8.68,1.12,21.43,14,31.12,19.05c3.43,1.79,4.56,2.33,8.44,3.23"/>
		<path d="M30.35,72.01c2.77,0.86,5.01,1.05,7.76,0.62c11.81-1.87,25.01-3.65,30.89-4.16c3.03-0.27,5.15,0.61,4.62,4.04c-0.7,4.48-3.74,16.72-7.88,22.1c-4.12,5.36-4.49,4.64-7.34-0.28"/>
		<path d="M49.26,74.23c0.14,1.1,0.01,1.92-0.48,2.91c-4.1,8.19-10.23,14.61-23.28,21.34"/>
	</g>
</svg>
