<?xml version="1.0" encoding="UTF-8"?>
<!-- Copyright (C) 2009 Ulrich Apel.
This work is distributed under the conditions of the Creative Commons
Attribution-Share Alike 3.0 Licence. This means you are free:
* to Share - to copy, distribute and transmit the work
* to Remix - to adapt the work

Under the following conditions:
* Attribution. You must attribute the work by stating your use of KanjiVG in
  your own copyright header and linking to KanjiVG's website
  (http://kanjivg.tagaini.net)
* Share Alike. If you alter, transform, or build upon this work, you may
  distribute the resulting work only under the same or similar license to this
  one.

See http://creativecommons.org/licenses/by-sa/3.0/ for more details. -->
<!DOCTYPE svg PUBLIC "-//W3C//DTD SVG 1.0//EN" "http://www.w3.org/TR/2001/REC-SVG-20010904/DTD/svg10.dtd">
<svg xmlns="http://www.w3.org/2000/svg" width="109" height="109" viewBox="0 0 109 109">
	<g id="HelperGrid" style="opacity:0.75;">
		<rect x="0.5" y="0.5" style="fill:none;stroke:#404040;" width="108" height="108"/> 
		<line style="fill:none;stroke:#404040;" x1="0.5" y1="72.51" x2="108.5" y2="72.51"/>
		<line style="fill:none;stroke:#404040;" x1="0.5" y1="36.49" x2="108.5" y2="36.49"/>
		<line style="fill:none;stroke:#404040;" x1="72.5" y1="0.5" x2="72.5" y2="108.5"/>
		<line style="fill:none;stroke:#404040;" x1="36.5" y1="0.5" x2="36.5" y2="108.5"/>
	</g>
	<g id="Kanji">
		<text transform="matrix(1 0 0 1 0.5 93.3799)" style="font-size:108;">霙</text>
	</g>
	<g id="StrokeNumbers" style="font-size:8;fill:#808080">
		<text transform="matrix(1 0 0 1 26.5 12.5)">1</text>
		<text transform="matrix(1 0 0 1 11.5 26.5)">2</text>
		<text transform="matrix(1 0 0 1 21.5 21.5)">3</text>
		<text transform="matrix(1 0 0 1 46.5 19.5)">4</text>
		<text transform="matrix(1 0 0 1 26.5 31.5)">5</text>
		<text transform="matrix(1 0 0 1 21.5 37.5)">6</text>
		<text transform="matrix(1 0 0 1 58.5 29.5)">7</text>
		<text transform="matrix(1 0 0 1 58.5 36.5)">8</text>
		<text transform="matrix(1 0 0 1 13.5 54.5)">9</text>
		<text transform="matrix(1 0 0 1 28.5 46.9541)">10</text>
		<text transform="matrix(1 0 0 1 57.5 44.5)">11</text>
		<text transform="matrix(1 0 0 1 20.5 71.5)">12</text>
		<text transform="matrix(1 0 0 1 32.5 63.7285)">13</text>
		<text transform="matrix(1 0 0 1 4.5 79.5)">14</text>
		<text transform="matrix(1 0 0 1 44.25 58.5)">15</text>
		<text transform="matrix(1 0 0 1 67.5 86.5)">16</text>
	</g>
	<g id="StrokePaths" style="fill:none;stroke:#404040;stroke-width:3;stroke-linecap:round;stroke-linejoin:round;">
		<path d="M32.66,12.56c1.34,0.05,3.82,0.28,5.12,0.15c6.97-0.71,24.97-1.97,31.25-2.06c1.83-0.03,2.35-0.14,4.03,0.1"/>
		<path d="M18.68,22.92C18.41,28,17.1,34.13,15.4,39.27"/>
		<path d="M18.85,24.82c7.4-1.02,52.84-4.84,68.55-4.84c9.1,0,1.17,6.33-0.28,7.93"/>
		<path d="M52.92,12.82c0.91,1.36,1.31,2.26,1.33,3.6c0.01,0.48-0.27,25.27-0.27,26.59"/>
		<path d="M34,27.93c2.99,0.68,7.08,2.71,8.71,3.83"/>
		<path d="M29,35.51c3.08,0.72,7.84,3.37,9.52,4.57"/>
		<path d="M64.5,25.3c4.25,1.46,9.07,4.37,10.78,5.58"/>
		<path d="M65.29,33.98c3.51,1.1,8.29,4.38,10.2,6.21"/>
		<path d="M20.5,52.37c1.56,0.48,3.38,0.57,4.95,0.48c14.37-0.87,41.52-4.29,58.08-4.35c2.61-0.01,4.17,0.23,5.47,0.46"/>
		<path d="M38.5,45.05c1.54,0.97,2.03,1.26,2.2,1.85c1.54,5.56,1.8,9.35,2.3,12.95"/>
		<path d="M67.46,42c0.29,0.75,0.49,1.27,0.34,2.24C67,49.5,66.5,53,65.5,57.49"/>
		<path d="M30.82,65.92c1.06,0.64,1.2,1.14,1.35,1.92c1.08,5.47,1.82,9.61,2.09,10.5"/>
		<path d="M32.28,66.32c3.6-0.26,38.02-3.34,42.89-3.72c4.87-0.39,4.82,0.58,4.79,2.71c-0.02,1.2-2.68,8.68-3.1,10.1"/>
		<path d="M15.55,79.32c1.07,0.3,3.82,0.48,4.99,0.41c16.17-0.99,40.85-2.9,66.86-4.02c1.48-0.06,3.59,0.11,6.92,0.62"/>
		<path d="M54.35,56.98c0.4,0.77,0.41,1.79,0.38,3.08c-0.48,22.2-14.5,34.27-36.67,40.95"/>
		<path d="M54.51,77.59c7.3,6.6,22.3,16.34,29.59,20.75c2.48,1.5,3.34,1.72,4.47,1.87"/>
	</g>
</svg>
