<?xml version="1.0" encoding="UTF-8"?>
<!DOCTYPE svg PUBLIC "-//W3C//DTD SVG 1.0//EN" "http://www.w3.org/TR/2001/REC-SVG-20010904/DTD/svg10.dtd">
<svg xmlns="http://www.w3.org/2000/svg" width="109" height="109" viewBox="0 0 109 109">
	<g id="HelperGrid" style="opacity:0.75;">
		<rect x="0.5" y="0.5" style="fill:none;stroke:#404040;" width="108" height="108"/> 
		<line style="fill:none;stroke:#404040;" x1="0.5" y1="72.51" x2="108.5" y2="72.51"/>
		<line style="fill:none;stroke:#404040;" x1="0.5" y1="36.49" x2="108.5" y2="36.49"/>
		<line style="fill:none;stroke:#404040;" x1="72.5" y1="0.5" x2="72.5" y2="108.5"/>
		<line style="fill:none;stroke:#404040;" x1="36.5" y1="0.5" x2="36.5" y2="108.5"/>
	</g>
	<g id="Kanji">
		<text transform="matrix(1 0 0 1 0.5 93.3799)" style="font-size:108;">霤</text>
	</g>
	<g id="StrokeNumbers" style="font-size:8;fill:#808080">
		<text transform="matrix(1 0 0 1 28.5 9.5)">1</text>
		<text transform="matrix(1 0 0 1 10.6602 26.5)">2</text>
		<text transform="matrix(1 0 0 1 20.708 19.5)">3</text>
		<text transform="matrix(1 0 0 1 45.5361 18.5)">4</text>
		<text transform="matrix(1 0 0 1 23.5 29.5)">5</text>
		<text transform="matrix(1 0 0 1 20.5 37.5)">6</text>
		<text transform="matrix(1 0 0 1 58.5 27.5)">7</text>
		<text transform="matrix(1 0 0 1 57.5 35.5)">8</text>
		<text transform="matrix(1 0 0 1 30.5 46.5)">9</text>
		<text transform="matrix(1 0 0 1 10.5 56.5)">10</text>
		<text transform="matrix(1 0 0 1 43.5 52.5)">11</text>
		<text transform="matrix(1 0 0 1 57.5 42.3047)">12</text>
		<text transform="matrix(1 0 0 1 58.5 53.5)">13</text>
		<text transform="matrix(1 0 0 1 17.5 81.5)">14</text>
		<text transform="matrix(1 0 0 1 32.5 71.5)">15</text>
		<text transform="matrix(1 0 0 1 58.5 80.5)">16</text>
		<text transform="matrix(1 0 0 1 33.5 82.5)">17</text>
		<text transform="matrix(1 0 0 1 33.75 93.5)">18</text>
	</g>
	<g id="StrokePaths" style="fill:none;stroke:#404040;stroke-width:3;stroke-linecap:round;stroke-linejoin:round;">
		<path d="M30.66,12.72c1.52,0.06,4.34,0.32,5.82,0.17c7.92-0.81,28.37-2.3,35.5-2.41c2.08-0.03,2.67-0.16,4.58,0.11"/>
		<path d="M17.68,21.42c-0.26,5.08-2.57,11.21-4.28,16.34"/>
		<path d="M18.35,22.82c7.4-1.02,52.84-4.34,68.55-4.34c9.1,0,1.17,6.33-0.28,7.93"/>
		<path d="M52.42,14.32c0.91,1.36,1.31,2.26,1.33,3.6c0.01,0.48-0.27,19.27-0.27,20.59"/>
		<path d="M31,26.46c4.03,0.93,9.51,3.72,11.71,5.27"/>
		<path d="M27.5,34.26c3.57,1,9.07,4.66,11.02,6.32"/>
		<path d="M65.25,23.72c3.96,1.11,8.44,3.32,10.03,4.24"/>
		<path d="M64.04,32.48c3.59,1.01,8.49,4.03,10.45,5.71"/>
		<path d="M46.79,40.25c0.06,0.27,0.25,0.78-0.13,1.09c-4.67,3.81-11.58,7.31-23.77,10.39"/>
		<path d="M19.62,49.85c0.74,0.27,1.18,1.73,1.32,2.28c0.15,0.55,0.31,12.55,0.15,13.91c-0.15,1.23,0.1,2.41,1.94,1.6C26.75,66,38.25,62,46.32,58.54"/>
		<path d="M39.28,51.74c5.46,3.24,8.93,8.04,11.02,12.77"/>
		<path d="M57.94,45.31c1.12,0.25,2.53,0.22,3.51,0.13c7.98-0.68,20.94-2.31,25.37-2.56c2.88-0.16,3.6,1.42,3.44,2.56c-0.42,3.03-3.51,13.58-7.44,17.07c-2.85,2.53-4.51,1.72-6.66,0.08"/>
		<path d="M69.43,46.97c0.04,0.41,0.13,1.08-0.08,1.65c-2.28,6.22-5.36,10.25-13.8,16.77"/>
		<path d="M25.94,73.7c0.41,0.43,0.42,0.73,0.64,1.26c1.81,4.42,2.95,15.95,4.02,24.09"/>
		<path d="M27.36,74.87c16.39-1.1,41.14-3.07,51.91-3.5c3.96-0.16,5.97,0.7,5.75,2.99c-0.42,4.36-2.28,15.38-4.64,23.11"/>
		<path d="M52.95,74.21c0.8,0.4,1.45,1.23,1.44,2.29c-0.03,5.47-0.24,17.77-0.24,19.56"/>
		<path d="M29.94,85.02c4.7-0.21,48.97-2.53,52.85-2.53"/>
		<path d="M31.35,97.22c12.4-0.57,34.83-1.68,49.16-1.79"/>
	</g>
</svg>
