<?xml version="1.0" encoding="UTF-8"?>
<!-- Copyright (C) 2009 Ulrich Apel.
This work is distributed under the conditions of the Creative Commons
Attribution-Share Alike 3.0 Licence. This means you are free:
* to Share - to copy, distribute and transmit the work
* to Remix - to adapt the work

Under the following conditions:
* Attribution. You must attribute the work by stating your use of KanjiVG in
  your own copyright header and linking to KanjiVG's website
  (http://kanjivg.tagaini.net)
* Share Alike. If you alter, transform, or build upon this work, you may
  distribute the resulting work only under the same or similar license to this
  one.

See http://creativecommons.org/licenses/by-sa/3.0/ for more details. -->
<!DOCTYPE svg PUBLIC "-//W3C//DTD SVG 1.0//EN" "http://www.w3.org/TR/2001/REC-SVG-20010904/DTD/svg10.dtd">
<svg xmlns="http://www.w3.org/2000/svg" width="109" height="109" viewBox="0 0 109 109">
	<g id="HelperGrid" style="opacity:0.75;">
		<rect x="0.5" y="0.5" style="fill:none;stroke:#404040;" width="108" height="108"/> 
		<line style="fill:none;stroke:#404040;" x1="0.5" y1="72.51" x2="108.5" y2="72.51"/>
		<line style="fill:none;stroke:#404040;" x1="0.5" y1="36.49" x2="108.5" y2="36.49"/>
		<line style="fill:none;stroke:#404040;" x1="72.5" y1="0.5" x2="72.5" y2="108.5"/>
		<line style="fill:none;stroke:#404040;" x1="36.5" y1="0.5" x2="36.5" y2="108.5"/>
	</g>
	<g id="Kanji">
		<text transform="matrix(1 0 0 1 0.5 93.3799)" style="font-size:108;">靄</text>
	</g>
	<g id="StrokeNumbers" style="font-size:8;fill:#808080">
		<text transform="matrix(1 0 0 1 28.5 10.5)">1</text>
		<text transform="matrix(1 0 0 1 12.5 25.5)">2</text>
		<text transform="matrix(1 0 0 1 22.5 21.5)">3</text>
		<text transform="matrix(1 0 0 1 45.5361 20.5)">4</text>
		<text transform="matrix(1 0 0 1 26.5 31.5)">5</text>
		<text transform="matrix(1 0 0 1 23.5 38.5)">6</text>
		<text transform="matrix(1 0 0 1 59.6318 28.5)">7</text>
		<text transform="matrix(1 0 0 1 57.5 35.5)">8</text>
		<text transform="matrix(1 0 0 1 17.25 46.5)">9</text>
		<text transform="matrix(1 0 0 1 2.5 58.5)">10</text>
		<text transform="matrix(1 0 0 1 12.25 66.5)">11</text>
		<text transform="matrix(1 0 0 1 11.5 75.5)">12</text>
		<text transform="matrix(1 0 0 1 9.5 88.5)">13</text>
		<text transform="matrix(1 0 0 1 21.5 80.5)">14</text>
		<text transform="matrix(1 0 0 1 24.5 92.5)">15</text>
		<text transform="matrix(1 0 0 1 47.25 52.5)">16</text>
		<text transform="matrix(1 0 0 1 58.5 44.5)">17</text>
		<text transform="matrix(1 0 0 1 61.5 51.5)">18</text>
		<text transform="matrix(1 0 0 1 61.5 59.2793)">19</text>
		<text transform="matrix(1 0 0 1 46.5 85.5)">24</text>
		<text transform="matrix(1 0 0 1 67.5 68.5)">21</text>
		<text transform="matrix(1 0 0 1 58.75 79.1299)">22</text>
		<text transform="matrix(1 0 0 1 75.5 78.5)">23</text>
		<text transform="matrix(1 0 0 1 49.5 69.5)">20</text>
	</g>
	<g id="StrokePaths" style="fill:none;stroke:#404040;stroke-width:3;stroke-linecap:round;stroke-linejoin:round;">
		<path d="M31.16,14.35c1.51,0.07,4.29,0.35,5.75,0.18c7.83-0.89,28.06-3.08,35.12-3.21c2.06-0.04,2.64-0.17,4.53,0.12"/>
		<path d="M19.68,21.42c-0.26,4.92-2.57,10.37-4.28,15.34"/>
		<path d="M19.85,25.32c7.4-1.02,51.34-5.34,67.05-5.34c9.1,0,1.17,6.33-0.28,7.93"/>
		<path d="M52.42,15.82c0.91,1.36,1.31,2.26,1.33,3.6c0.01,0.48-0.27,18.77-0.27,20.09"/>
		<path d="M33.25,28.2c3.08,0.89,7.28,3.55,8.96,5.03"/>
		<path d="M31.25,36.51c3,0.8,7.63,3.74,9.27,5.07"/>
		<path d="M67.5,25.75c3.66,1.22,7.81,3.67,9.28,4.69"/>
		<path d="M63.79,32.98c4.02,1.18,9.51,4.74,11.7,6.71"/>
		<path d="M24.52,43.25c3.37,1.07,8.69,4.42,9.53,6.09"/>
		<path d="M13.15,56.99c0.7,0.21,3.34,0.24,4.03,0.21c8.58-0.38,18.66-2.4,24.9-2.58c1.16-0.03,2.9,0.1,3.48,0.21"/>
		<path d="M21.2,64.9c0.36,0.09,2.57,0.1,2.93,0.09c3.76-0.11,9.28-1.6,12.98-1.59c0.6,0,3.11,0.04,3.41,0.09"/>
		<path d="M21.15,73.91c0.36,0.09,2.55,0.1,2.91,0.09c3.74-0.1,9.82-1.63,13.5-1.62c0.6,0,3.09,0.04,3.39,0.09"/>
		<path d="M18.14,81.49c0.33,0.28,0.71,0.51,0.81,0.88c0.94,3.26,2.13,11.1,3.08,15.89"/>
		<path d="M19.7,82.9c6.1-0.69,15.35-1.74,20.97-2.44c1.41-0.17,2.27,0.8,2.06,1.6c-0.84,3.29-1.57,6.82-3.07,12.29"/>
		<path d="M22.72,95.54c4.55-0.42,12.12-0.64,18.36-1.29"/>
		<path d="M55.81,45.08c0.23,0.3,0.23,0.51,0.36,0.89c1.03,3.12,2.15,11.31,2.79,17.14"/>
		<path d="M56.55,46.4c7.08-0.67,20.24-1.95,26.79-2.39c1.95-0.13,2.34,1.18,2.24,1.91c-0.37,2.68-2.7,11.78-3.59,16.25"/>
		<path d="M58.03,53.8c4.06-0.24,23.67-1.6,25.72-1.67"/>
		<path d="M59,61.61c7.22-0.3,16.03-0.93,23.29-1.07"/>
		<path d="M62.78,63.58c0.04,0.34,0.2,0.9-0.08,1.37c-2.11,3.5-6.91,8.64-14.95,13.13"/>
		<path d="M61.72,70.71c0.81,0.33,1.94,0.44,3.23,0.22c1.29-0.22,23.06-3.34,26.29-3.6c1.99-0.16,3.31,0.85,3.05,3.15c-1.03,9.01-2.78,17.76-7.13,26.93c-1.5,3.15-4.25,2.7-6.37-0.54"/>
		<path d="M70.47,73.14c0.23,0.21-0.03,1.32-0.19,1.73c-1.57,4.06-3.13,7.48-8.76,12.36"/>
		<path d="M71.92,79.36c2.81,0.96,6.39,3.5,7.76,5.91"/>
		<path d="M54.71,77.31c0.59,0.3,0.94,1.35,1.06,1.94c0.11,0.54-1.02,7.5-1.41,11.83c-0.11,1.22,0.48,2,2.1,1.86c3.77-0.32,15.34-1.46,21.93-1.87c1.44-0.09,2.59,0.25,3.3,0.25"/>
	</g>
</svg>
