<?xml version="1.0" encoding="UTF-8"?>
<!DOCTYPE svg PUBLIC "-//W3C//DTD SVG 1.0//EN" "http://www.w3.org/TR/2001/REC-SVG-20010904/DTD/svg10.dtd">
<svg xmlns="http://www.w3.org/2000/svg" width="109" height="109" viewBox="0 0 109 109">
	<g id="HelperGrid" style="opacity:0.75;">
		<rect x="0.5" y="0.5" style="fill:none;stroke:#404040;" width="108" height="108"/> 
		<line style="fill:none;stroke:#404040;" x1="0.5" y1="72.51" x2="108.5" y2="72.51"/>
		<line style="fill:none;stroke:#404040;" x1="0.5" y1="36.49" x2="108.5" y2="36.49"/>
		<line style="fill:none;stroke:#404040;" x1="72.5" y1="0.5" x2="72.5" y2="108.5"/>
		<line style="fill:none;stroke:#404040;" x1="36.5" y1="0.5" x2="36.5" y2="108.5"/>
	</g>
	<g id="Kanji">
		<text transform="matrix(1 0 0 1 0.5 93.3799)" style="font-size:108;">靼</text>
	</g>
	<g id="StrokeNumbers" style="font-size:8;fill:#808080">
		<text transform="matrix(1 0 0 1 2.5 25.5)">1</text>
		<text transform="matrix(1 0 0 1 11.5 12.5)">2</text>
		<text transform="matrix(1 0 0 1 29.5 9.5)">3</text>
		<text transform="matrix(1 0 0 1 25.5 34.5)">4</text>
		<text transform="matrix(1 0 0 1 8.7158 56.5)">5</text>
		<text transform="matrix(1 0 0 1 16.5801 46.5)">6</text>
		<text transform="matrix(1 0 0 1 20.5 60.5)">7</text>
		<text transform="matrix(1 0 0 1 1.5957 76.5)">8</text>
		<text transform="matrix(1 0 0 1 33.5 43.5)">9</text>
		<text transform="matrix(1 0 0 1 48.5 30.5)">10</text>
		<text transform="matrix(1 0 0 1 60.5 20.5)">11</text>
		<text transform="matrix(1 0 0 1 64.4512 44.5)">12</text>
		<text transform="matrix(1 0 0 1 64.5 70.5)">13</text>
		<text transform="matrix(1 0 0 1 45.5 88.5)">14</text>
	</g>
	<g id="StrokePaths" style="fill:none;stroke:#404040;stroke-width:3;stroke-linecap:round;stroke-linejoin:round;">
		<path d="M8.9,25.14c0.83,0.25,3.36,0.79,4.19,0.75c4.35-0.23,24.16-2.89,33.21-4.06c1.38-0.18,2.22,0.12,2.91,0.24"/>
		<path d="M19.42,14.46c0.61,0.42,0.98,1.9,1.1,2.75c1.06,7.58,0.93,12.7,1.58,22.29"/>
		<path d="M37.55,12.75c0.53,0.38,1.03,1.68,0.96,2.45c-0.74,7.85-0.37,10.28-1.79,20.83"/>
		<path d="M22.33,37.25c1.77,0,14.68-1.23,16.27-1.37"/>
		<path d="M14.26,48.6c0.29,0.47,0.58,0.86,0.7,1.45c0.99,4.66,1.83,7.53,2.5,15.91"/>
		<path d="M15.48,49.71c8.4-1.71,25.42-3.53,29.02-4.19c1.32-0.24,2.43,1.45,2.2,2.85c-0.47,2.88-1.75,6.38-2.78,11.4"/>
		<path d="M17.25,63.88c4.23-0.75,21-2.88,27.98-3.38"/>
		<path d="M9.25,75.12c1.04,0.61,3.45,1.17,4.51,1.11c8.99-0.48,20.94-2.02,31.59-3.7c1.72-0.27,2.79,0.29,3.66,0.6"/>
		<path d="M29.96,37.25c0.36,1,0.54,2.23,0.54,3.25c0,8.5,0,52.25-0.12,58.5"/>
		<path d="M58.06,22.75c0.94,1,1.62,2.36,1.86,3.98c0.82,5.52,1.36,47.78,1.5,49.41"/>
		<path d="M60.15,24.61c2.44-0.21,22.98-3.12,25.2-3.36c1.85-0.2,3.04,2.27,2.9,3.48c-0.29,2.45-0.57,48.88-0.57,50.1"/>
		<path d="M61.72,47.83c3.3,0,22.07-2.05,25.8-2.05"/>
		<path d="M61.29,74.45c7.54-0.94,19.28-2.32,26.37-2.74"/>
		<path d="M48.8,91.73c1.37,0.55,3.89,0.68,5.25,0.55C67,91,81,90,94.66,89.29c2.28-0.12,3.65,0.26,4.79,0.53"/>
	</g>
</svg>
