<?xml version="1.0" encoding="UTF-8"?>
<!-- Copyright (C) 2009 Ulrich Apel.
This work is distributed under the conditions of the Creative Commons
Attribution-Share Alike 3.0 Licence. This means you are free:
* to Share - to copy, distribute and transmit the work
* to Remix - to adapt the work

Under the following conditions:
* Attribution. You must attribute the work by stating your use of KanjiVG in
  your own copyright header and linking to KanjiVG's website
  (http://kanjivg.tagaini.net)
* Share Alike. If you alter, transform, or build upon this work, you may
  distribute the resulting work only under the same or similar license to this
  one.

See http://creativecommons.org/licenses/by-sa/3.0/ for more details. -->
<!DOCTYPE svg PUBLIC "-//W3C//DTD SVG 1.0//EN" "http://www.w3.org/TR/2001/REC-SVG-20010904/DTD/svg10.dtd">
<svg xmlns="http://www.w3.org/2000/svg" width="109" height="109" viewBox="0 0 109 109">
	<g id="HelperGrid" style="opacity:0.75;">
		<rect x="0.5" y="0.5" style="fill:none;stroke:#404040;" width="108" height="108"/> 
		<line style="fill:none;stroke:#404040;" x1="0.5" y1="72.51" x2="108.5" y2="72.51"/>
		<line style="fill:none;stroke:#404040;" x1="0.5" y1="36.49" x2="108.5" y2="36.49"/>
		<line style="fill:none;stroke:#404040;" x1="72.5" y1="0.5" x2="72.5" y2="108.5"/>
		<line style="fill:none;stroke:#404040;" x1="36.5" y1="0.5" x2="36.5" y2="108.5"/>
	</g>
	<g id="Kanji">
		<text transform="matrix(1 0 0 1 0.5 93.3799)" style="font-size:108;">鞋</text>
	</g>
	<g id="StrokeNumbers" style="font-size:8;fill:#808080">
		<text transform="matrix(1 0 0 1 3.5 25.5)">1</text>
		<text transform="matrix(1 0 0 1 11.5 14.5)">2</text>
		<text transform="matrix(1 0 0 1 30.5 10.5)">3</text>
		<text transform="matrix(1 0 0 1 26.5 34.5)">4</text>
		<text transform="matrix(1 0 0 1 7.5 54.5)">5</text>
		<text transform="matrix(1 0 0 1 17.5 46.5)">6</text>
		<text transform="matrix(1 0 0 1 22.25 60.1797)">7</text>
		<text transform="matrix(1 0 0 1 3.5 76.5)">8</text>
		<text transform="matrix(1 0 0 1 34.5 44.0293)">9</text>
		<text transform="matrix(1 0 0 1 52.5 28.5)">10</text>
		<text transform="matrix(1 0 0 1 58.5 12.5)">11</text>
		<text transform="matrix(1 0 0 1 51.5 45.5)">12</text>
		<text transform="matrix(1 0 0 1 52.5 68.5)">13</text>
		<text transform="matrix(1 0 0 1 58.5 57.5)">14</text>
		<text transform="matrix(1 0 0 1 46.5 89.5)">15</text>
	</g>
	<g id="StrokePaths" style="fill:none;stroke:#404040;stroke-width:3;stroke-linecap:round;stroke-linejoin:round;">
		<path d="M9.65,25.22c0.9,0.51,3.04,0.54,3.95,0.51C21,25.5,39.75,23,48.3,21.36c1.47-0.28,1.9-0.26,2.65,0"/>
		<path d="M20.6,14.93c0.57,0.36,0.91,1.62,1.02,2.34c0.11,0.72,1.5,14.13,2.11,22.28"/>
		<path d="M38.67,12.5c0.57,0.36,1.1,1.61,1.02,2.34c-0.41,3.89,0,8.79-1.6,20.44"/>
		<path d="M24.15,37.62c2.16,0,14.41-1.87,16.36-2.03"/>
		<path d="M15.05,48.56c0.25,0.43,0.51,0.78,0.62,1.31c0.88,4.22,1.89,9.09,3.36,17.04"/>
		<path d="M16.13,49.7c8.87-0.95,25.92-3.22,29.48-3.85c1.3-0.23,2.41,1.37,2.18,2.69c-0.47,2.72-1.73,6.34-2.75,11.08"/>
		<path d="M19.65,63.97c4.19-0.7,21.38-2.95,26.69-3.66"/>
		<path d="M10.78,75.78c1.03,0.58,2.9,0.62,3.94,0.58c8.08-0.34,23.01-2.5,32-3.42c1.7-0.17,2.74-0.28,3.59,0.01"/>
		<path d="M30.42,39.36c0.66,0.48,1.05,2.16,1.19,3.12c0.13,0.96,0,49.53-0.13,55.52"/>
		<path d="M54.55,31.74c0.95,0.48,2.7,0.55,3.66,0.48c9-0.61,18.15-2.87,30.5-3.3c1.59-0.06,2.55,0.23,3.34,0.47"/>
		<path d="M70.95,13.37c0.13,0.32,1.91,1.65,1.91,3.66c0,12.97,0.15,12.71,0.15,29.86"/>
		<path d="M54.2,48.15c1.44,0.51,3.08,0.58,4.53,0.51C67.25,48.25,82,46,91.45,45.63c2.4-0.09,3.33,0.24,4.55,0.5"/>
		<path d="M55.32,71.46c0.98,0.38,2.76,0.49,3.74,0.38C69,70.75,79,69.5,90.09,68.69c1.62-0.12,2.6,0.18,3.41,0.37"/>
		<path d="M72.1,54.32c0.12,0.28,1.68,1.45,1.68,3.22c0,11.39,0.13,17.64,0.13,32.7"/>
		<path d="M50.3,93.01c1.44,0.51,3.09,0.64,4.53,0.51c11.92-1.02,24.36-2.86,40.33-3.54c2.4-0.1,3.34,0.25,4.55,0.5"/>
	</g>
</svg>
