<?xml version="1.0" encoding="UTF-8"?>
<!DOCTYPE svg PUBLIC "-//W3C//DTD SVG 1.0//EN" "http://www.w3.org/TR/2001/REC-SVG-20010904/DTD/svg10.dtd">
<svg xmlns="http://www.w3.org/2000/svg" width="109" height="109" viewBox="0 0 109 109">
	<g id="HelperGrid" style="opacity:0.75;">
		<rect x="0.5" y="0.5" style="fill:none;stroke:#404040;" width="108" height="108"/> 
		<line style="fill:none;stroke:#404040;" x1="0.5" y1="72.51" x2="108.5" y2="72.51"/>
		<line style="fill:none;stroke:#404040;" x1="0.5" y1="36.49" x2="108.5" y2="36.49"/>
		<line style="fill:none;stroke:#404040;" x1="72.5" y1="0.5" x2="72.5" y2="108.5"/>
		<line style="fill:none;stroke:#404040;" x1="36.5" y1="0.5" x2="36.5" y2="108.5"/>
	</g>
	<g id="Kanji">
		<text transform="matrix(1 0 0 1 0.5 93.3799)" style="font-size:108;">韭</text>
	</g>
	<g id="StrokeNumbers" style="font-size:8;fill:#808080">
		<text transform="matrix(1 0 0 1 34.5 13.5)">1</text>
		<text transform="matrix(1 0 0 1 54.5 8.5)">2</text>
		<text transform="matrix(1 0 0 1 7.5 37.0005)">3</text>
		<text transform="matrix(1 0 0 1 8.5 56.5)">4</text>
		<text transform="matrix(1 0 0 1 6.5 74.5)">5</text>
		<text transform="matrix(1 0 0 1 67.5 29.5)">6</text>
		<text transform="matrix(1 0 0 1 67.5 47.5)">7</text>
		<text transform="matrix(1 0 0 1 67.5 66.5)">8</text>
		<text transform="matrix(1 0 0 1 5.5 95.5)">9</text>
	</g>
	<g id="StrokePaths" style="fill:none;stroke:#404040;stroke-width:3;stroke-linecap:round;stroke-linejoin:round;">
		<path d="M43.37,13.75c1.09,0.5,1.74,2.25,1.96,3.25c0.22,1,0,69.75-0.22,76"/>
		<path d="M61.12,11.75c1.09,0.5,1.74,2.25,1.96,3.25c0.22,1,0,70.75-0.22,77"/>
		<path d="M14.75,36.39c0.94,0.38,2.66,0.38,3.6,0.38C26,36.75,35,35.25,41.96,34.89c1.56-0.08,2.29-0.14,3.29-0.14"/>
		<path d="M15,55.39c0.94,0.38,2.66,0.38,3.6,0.38c7.65-0.02,16.15-2.02,23.11-2.38c1.56-0.08,2.29-0.14,3.29-0.14"/>
		<path d="M13.5,74.39c0.94,0.38,2.66,0.38,3.6,0.38c7.65-0.02,17.15-2.02,24.61-3.38c1.54-0.28,2.29-0.14,3.29-0.14"/>
		<path d="M63.5,33.64c1.25,0,1.16-0.01,2.1-0.12c5.98-0.66,19.4-1.77,25.11-2.38c1.56-0.17,2.5,0.18,3.29,0.37"/>
		<path d="M63.25,51.14c1.25,0,1.16-0.01,2.1-0.12c5.98-0.66,19.9-1.77,25.61-2.38c1.56-0.17,2.5,0.18,3.29,0.37"/>
		<path d="M63.5,70.14c1.25,0,1.16-0.01,2.1-0.12c5.98-0.66,20.9-1.77,26.61-2.38c1.56-0.17,2.5,0.18,3.29,0.37"/>
		<path d="M12.5,94.7c1.55,0.54,4.4,0.68,5.95,0.54c20.05-1.74,56.85-4.49,73.12-3.73c2.58,0.12,4.14,0.26,5.43,0.53"/>
	</g>
</svg>
