<?xml version="1.0" encoding="UTF-8"?>
<!DOCTYPE svg PUBLIC "-//W3C//DTD SVG 1.0//EN" "http://www.w3.org/TR/2001/REC-SVG-20010904/DTD/svg10.dtd">
<svg xmlns="http://www.w3.org/2000/svg" width="109" height="109" viewBox="0 0 109 109">
	<g id="HelperGrid" style="opacity:0.75;">
		<rect x="0.5" y="0.5" style="fill:none;stroke:#404040;" width="108" height="108"/> 
		<line style="fill:none;stroke:#404040;" x1="0.5" y1="72.51" x2="108.5" y2="72.51"/>
		<line style="fill:none;stroke:#404040;" x1="0.5" y1="36.49" x2="108.5" y2="36.49"/>
		<line style="fill:none;stroke:#404040;" x1="72.5" y1="0.5" x2="72.5" y2="108.5"/>
		<line style="fill:none;stroke:#404040;" x1="36.5" y1="0.5" x2="36.5" y2="108.5"/>
	</g>
	<g id="Kanji">
		<text transform="matrix(1 0 0 1 0.5 93.3799)" style="font-size:108;">韶</text>
	</g>
	<g id="StrokeNumbers" style="font-size:8;fill:#808080">
		<text transform="matrix(1 0 0 1 21.5 11.5)">1</text>
		<text transform="matrix(1 0 0 1 4.5 26.5)">2</text>
		<text transform="matrix(1 0 0 1 11.5 36.5)">3</text>
		<text transform="matrix(1 0 0 1 36.5 34.9043)">4</text>
		<text transform="matrix(1 0 0 1 1.5 50.5)">5</text>
		<text transform="matrix(1 0 0 1 11.5 68.7549)">6</text>
		<text transform="matrix(1 0 0 1 20.5 58.5)">7</text>
		<text transform="matrix(1 0 0 1 23.5 71.6035)">8</text>
		<text transform="matrix(1 0 0 1 24.75 89.5)">9</text>
		<text transform="matrix(1 0 0 1 54.5 15.5)">10</text>
		<text transform="matrix(1 0 0 1 62.5 29.5)">11</text>
		<text transform="matrix(1 0 0 1 47.75 75.5)">12</text>
		<text transform="matrix(1 0 0 1 57.5 62.5)">13</text>
		<text transform="matrix(1 0 0 1 63.5 89.5)">14</text>
	</g>
	<g id="StrokePaths" style="fill:none;stroke:#404040;stroke-width:3;stroke-linecap:round;stroke-linejoin:round;">
		<path d="M27.67,11.46c1.83,1.54,5.2,4.79,6,7.63"/>
		<path d="M11.2,26.84c0.85,0.07,2.76,0.39,3.6,0.36c8.87-0.32,23.86-2.78,33.61-3.15c1.4-0.05,2.23-0.12,2.93-0.11"/>
		<path d="M18.38,31.83c2.98,2.82,5.76,11.06,6.44,14.24"/>
		<path d="M45.35,27.32c0.15,0.68,0.36,2.33,0.23,2.75c-1.28,4.28-3.77,10.57-5.82,13.97"/>
		<path d="M10.35,50.23c1.4,0.27,3.42,0.06,4.48-0.12c11.87-1.97,25.1-3.42,35.55-3.98c1.39-0.1,2.94,0,3.79,0.52"/>
		<path d="M16.85,60.25c0.46,0.79,0.84,1.4,1.03,2.47c0.84,4.71,2.81,32.21,2.81,33.32"/>
		<path d="M18.23,61.68c2.63-0.28,19.77-2.93,23.46-3.01c2.42-0.05,3.91,0.52,3.91,3.31c0,3.12-0.32,30.43-0.72,31.77"/>
		<path d="M19.77,75.8c4.52-0.7,9.08-1.11,13.63-1.52c1.26-0.12,2.51-0.23,3.7-0.33"/>
		<path d="M21.58,93.1c5.27-0.29,15.88-1.65,22.7-2.02"/>
		<path d="M57.21,18.05c0.79,0.45,3.2,0.84,4.43,0.71c10.09-1.07,22.47-3.39,28.06-3.79c3.64-0.26,5.13,1.26,5.05,3.07C94.5,24,90,40.88,85.65,47.99c-4.15,6.76-6.4,1.26-8.7-1.39"/>
		<path d="M73.51,20.89c0.05,0.71,0.15,1.84-0.1,2.85C70.91,34,66.42,42.61,56.39,52.78"/>
		<path d="M55.5,65.29c0.38,0.46,0.76,0.85,0.92,1.43c1.3,4.59,3.36,20.79,4.25,29.03"/>
		<path d="M57.84,66.64C69,66,82.25,64.09,89.23,63.49c2.31-0.2,5.02,2.08,4.34,4.96c-1.24,5.28-3.06,14.87-4.48,22.29"/>
		<path d="M60.84,93.72C66,93.04,81.25,91.86,91.2,91.4"/>
	</g>
</svg>
