<?xml version="1.0" encoding="UTF-8"?>
<!-- Copyright (C) 2009 Ulrich Apel.
This work is distributed under the conditions of the Creative Commons
Attribution-Share Alike 3.0 Licence. This means you are free:
* to Share - to copy, distribute and transmit the work
* to Remix - to adapt the work

Under the following conditions:
* Attribution. You must attribute the work by stating your use of KanjiVG in
  your own copyright header and linking to KanjiVG's website
  (http://kanjivg.tagaini.net)
* Share Alike. If you alter, transform, or build upon this work, you may
  distribute the resulting work only under the same or similar license to this
  one.

See http://creativecommons.org/licenses/by-sa/3.0/ for more details. -->
<!DOCTYPE svg PUBLIC "-//W3C//DTD SVG 1.0//EN" "http://www.w3.org/TR/2001/REC-SVG-20010904/DTD/svg10.dtd">
<svg xmlns="http://www.w3.org/2000/svg" width="109" height="109" viewBox="0 0 109 109">
	<g id="HelperGrid" style="opacity:0.75;">
		<rect x="0.5" y="0.5" style="fill:none;stroke:#404040;" width="108" height="108"/> 
		<line style="fill:none;stroke:#404040;" x1="0.5" y1="72.51" x2="108.5" y2="72.51"/>
		<line style="fill:none;stroke:#404040;" x1="0.5" y1="36.49" x2="108.5" y2="36.49"/>
		<line style="fill:none;stroke:#404040;" x1="72.5" y1="0.5" x2="72.5" y2="108.5"/>
		<line style="fill:none;stroke:#404040;" x1="36.5" y1="0.5" x2="36.5" y2="108.5"/>
	</g>
	<g id="Kanji">
		<text transform="matrix(1 0 0 1 0.5 93.3799)" style="font-size:108;">韻</text>
	</g>
	<g id="StrokeNumbers" style="font-size:8;fill:#808080">
		<text transform="matrix(1 0 0 1 24.75 14.5)">1</text>
		<text transform="matrix(1 0 0 1 8.5 28.5)">2</text>
		<text transform="matrix(1 0 0 1 17.25 38.979)">3</text>
		<text transform="matrix(1 0 0 1 33.75 35.5)">4</text>
		<text transform="matrix(1 0 0 1 5.5 49.5)">5</text>
		<text transform="matrix(1 0 0 1 13.5 65.5)">6</text>
		<text transform="matrix(1 0 0 1 23.5 56.5)">7</text>
		<text transform="matrix(1 0 0 1 26.5 66.0547)">8</text>
		<text transform="matrix(1 0 0 1 27.75 79.4785)">9</text>
		<text transform="matrix(1 0 0 1 48.75 20.5)">10</text>
		<text transform="matrix(1 0 0 1 60.5 15.5)">11</text>
		<text transform="matrix(1 0 0 1 64.5 29.5)">12</text>
		<text transform="matrix(1 0 0 1 62.5 40.5)">13</text>
		<text transform="matrix(1 0 0 1 49.5 54.5)">14</text>
		<text transform="matrix(1 0 0 1 64.5 51.1299)">15</text>
		<text transform="matrix(1 0 0 1 64.5 61.5547)">16</text>
		<text transform="matrix(1 0 0 1 64.5 73.4785)">17</text>
		<text transform="matrix(1 0 0 1 52.5 88.6299)">18</text>
		<text transform="matrix(1 0 0 1 73.5 91.5)">19</text>
	</g>
	<g id="StrokePaths" style="fill:none;stroke:#404040;stroke-width:3;stroke-linecap:round;stroke-linejoin:round;">
		<path d="M32.43,13.71c0.87,0.87,1.07,1.92,1.07,3.42c0,3.05-0.16,5.82-0.07,8.4"/>
		<path d="M16.4,28.52c1.93,0.22,3.5,0.2,5.47-0.15c6.45-1.15,15.89-2.49,22.51-3.06c1.72-0.15,3.33-0.1,5.03-0.06"/>
		<path d="M23.62,34.5c1.67,1.99,3.22,7.81,3.6,10.05"/>
		<path d="M42.43,28.32c0.32,0.8,0.33,2.1,0.2,2.52c-1.23,4.32-3.14,9.41-5.1,12.84"/>
		<path d="M13.02,49.27c2.04,0.15,4.08,0.24,6.12-0.1c8.86-1.48,18.77-3.34,26.73-3.98c1.7-0.14,4.14-0.31,5.64,0.04"/>
		<path d="M19.11,57.16c0.62,0.62,0.99,1.43,1.16,2.35c0.56,3.02,1.93,16.1,2.57,22.71c0.21,2.14,0.34,3.6,0.34,3.82"/>
		<path d="M21.19,58.63c2.16-0.22,15.36-2.32,20.56-3.22c2.92-0.51,4.06-0.09,3.96,3.09c-0.11,3.65-0.45,15.14-0.88,21.28c-0.15,2.14-0.28,3.63-0.37,3.9"/>
		<path d="M22.86,70.34c7.02-1.34,17.82-2.92,21.36-3.11"/>
		<path d="M24.2,83.55c5.3-0.55,12.42-1.67,19.25-2.39"/>
		<path d="M57.73,17.09c0.63,0.71,0.97,1.55,1.04,2.51c0.64,2.96,1.2,7.46,1.76,11.9c0.14,1.14,0.28,2.26,0.39,3.33"/>
		<path d="M59.7,18.87c5.85-0.95,20.27-2.82,26.21-3.6c2.64-0.35,4.23-0.27,3.62,2.88c-0.65,3.35-1.4,5.78-2.32,10.61"/>
		<path d="M61.8,32.99c3.19-0.42,16.17-2.21,23.47-3.06c1.38-0.16,2.36-0.18,3.37-0.18"/>
		<path d="M59.02,41.48c0.75,0.75,0.93,1.74,0.93,2.88c0,0.93-0.05,23.14-0.06,31.64c0,1.93-0.01,3.15-0.01,3.26"/>
		<path d="M60.76,42.83c2.72-0.14,22.47-3.19,24.95-3.38c2.55-0.2,3.52,1.05,3.52,2.85c0,1.77-0.07,18.01-0.09,30.2c0,2.11-0.01,4.1-0.01,5.88"/>
		<path d="M60.71,54.11c6.67-0.61,21.04-2.36,27.43-2.56"/>
		<path d="M61.18,64.84c7.07-0.59,19.94-2.22,26.89-2.46"/>
		<path d="M61.38,77.18c6.87-0.56,18.87-1.93,26.64-2.21"/>
		<path d="M67.1,82.43c0.28,1.07-0.12,2.15-1,3.09c-2.66,2.85-9.59,9.11-14.9,12.48"/>
		<path d="M81.6,83.35c5.89,3.98,12.85,11.2,14.45,14.68"/>
	</g>
</svg>
