<?xml version="1.0" encoding="UTF-8"?>
<!DOCTYPE svg PUBLIC "-//W3C//DTD SVG 1.0//EN" "http://www.w3.org/TR/2001/REC-SVG-20010904/DTD/svg10.dtd">
<svg xmlns="http://www.w3.org/2000/svg" width="109" height="109" viewBox="0 0 109 109">
	<g id="HelperGrid" style="opacity:0.75;">
		<rect x="0.5" y="0.5" style="fill:none;stroke:#404040;" width="108" height="108"/> 
		<line style="fill:none;stroke:#404040;" x1="0.5" y1="72.51" x2="108.5" y2="72.51"/>
		<line style="fill:none;stroke:#404040;" x1="0.5" y1="36.49" x2="108.5" y2="36.49"/>
		<line style="fill:none;stroke:#404040;" x1="72.5" y1="0.5" x2="72.5" y2="108.5"/>
		<line style="fill:none;stroke:#404040;" x1="36.5" y1="0.5" x2="36.5" y2="108.5"/>
	</g>
	<g id="Kanji">
		<text transform="matrix(1 0 0 1 0.5 93.3799)" style="font-size:108;">頑</text>
	</g>
	<g id="StrokeNumbers" style="font-size:8;fill:#808080">
		<text transform="matrix(1 0 0 1 10.5 23.5)">1</text>
		<text transform="matrix(1 0 0 1 5.25 46.5547)">2</text>
		<text transform="matrix(1 0 0 1 17.5 54.5005)">3</text>
		<text transform="matrix(1 0 0 1 30.5 51.5)">4</text>
		<text transform="matrix(1 0 0 1 53.5 17.5)">5</text>
		<text transform="matrix(1 0 0 1 64.5 27.1299)">6</text>
		<text transform="matrix(1 0 0 1 53.25 39.5)">7</text>
		<text transform="matrix(1 0 0 1 61.5 32.5)">8</text>
		<text transform="matrix(1 0 0 1 65.25 45.0547)">9</text>
		<text transform="matrix(1 0 0 1 65.25 57.5)">10</text>
		<text transform="matrix(1 0 0 1 65.25 71.9053)">11</text>
		<text transform="matrix(1 0 0 1 56.5 85.5)">12</text>
		<text transform="matrix(1 0 0 1 73.5 85.5)">13</text>
	</g>
	<g id="StrokePaths" style="fill:none;stroke:#404040;stroke-width:3;stroke-linecap:round;stroke-linejoin:round;">
		<path d="M16.48,22.46c1.52,0.41,3.66,0.19,4.91,0.07c4.98-0.49,12.18-1.62,18.09-2.27c1.69-0.19,3.85-0.37,5.49,0.21"/>
		<path d="M12.05,44.68c1.95,0.32,3.8,0.11,5.44-0.11c7.57-1.02,20.6-3.31,28.38-4.37c1.97-0.27,3.86-0.64,5.78,0.06"/>
		<path d="M24.09,46.19c0.92,0.92,1.25,2.29,1.19,3.86C24.75,66.25,22.62,82.12,12.5,93"/>
		<path d="M36.13,44.7c1.02,1.02,1.5,2.43,1.5,4.22c0,10.11,0.12,31.21,0.12,36.46c0,4.75,1.5,5.38,4.75,1.88c3.27-3.52,4.75-5.75,8.22-10.01"/>
		<path d="M55.81,20.53c2.23,0.25,4.35,0.14,6.56-0.09c10.53-1.12,19.42-3.05,28.01-3.61c2.17-0.14,5.06-0.63,7.13,0.21"/>
		<path d="M72.88,22.01c0.25,0.99,0.12,1.74-0.28,2.6c-1.21,2.59-3.05,5.3-5.1,8.24"/>
		<path d="M59.81,34.08c0.44,0.67,1.09,1.92,1.08,3.31c0,0.73,0.06,21.19,0.08,33.73c0,2.33,0.01,4.39,0.01,6"/>
		<path d="M62.16,35.14c5.09-0.52,20.34-2.39,24.67-2.66c1.93-0.12,3.27,0.89,3.27,3.52c0,1.41-0.02,23.21-0.02,36.12c0,2.01,0,3.8,0,5.27"/>
		<path d="M62.01,47.84c5.61-0.47,20.61-1.84,26.96-1.98"/>
		<path d="M62.13,60.63C71,60,79,59.25,89.17,59.03"/>
		<path d="M62.68,75.47c5.87-0.48,18.9-1.49,26.3-1.31"/>
		<path d="M67.31,81.96c0.19,1.16-0.42,2.25-1.27,3.08C62,89,56.5,92.25,51.03,95"/>
		<path d="M83.5,82.25c5,3.74,10.9,10.24,12.25,13.25"/>
	</g>
</svg>
