<?xml version="1.0" encoding="UTF-8"?>
<!-- Copyright (C) 2009 Ulrich Apel.
This work is distributed under the conditions of the Creative Commons
Attribution-Share Alike 3.0 Licence. This means you are free:
* to Share - to copy, distribute and transmit the work
* to Remix - to adapt the work

Under the following conditions:
* Attribution. You must attribute the work by stating your use of KanjiVG in
  your own copyright header and linking to KanjiVG's website
  (http://kanjivg.tagaini.net)
* Share Alike. If you alter, transform, or build upon this work, you may
  distribute the resulting work only under the same or similar license to this
  one.

See http://creativecommons.org/licenses/by-sa/3.0/ for more details. -->
<!DOCTYPE svg PUBLIC "-//W3C//DTD SVG 1.0//EN" "http://www.w3.org/TR/2001/REC-SVG-20010904/DTD/svg10.dtd">
<svg xmlns="http://www.w3.org/2000/svg" width="109" height="109" viewBox="0 0 109 109">
	<g id="HelperGrid" style="opacity:0.75;">
		<rect x="0.5" y="0.5" style="fill:none;stroke:#404040;" width="108" height="108"/> 
		<line style="fill:none;stroke:#404040;" x1="0.5" y1="72.51" x2="108.5" y2="72.51"/>
		<line style="fill:none;stroke:#404040;" x1="0.5" y1="36.49" x2="108.5" y2="36.49"/>
		<line style="fill:none;stroke:#404040;" x1="72.5" y1="0.5" x2="72.5" y2="108.5"/>
		<line style="fill:none;stroke:#404040;" x1="36.5" y1="0.5" x2="36.5" y2="108.5"/>
	</g>
	<g id="Kanji">
		<text transform="matrix(1 0 0 1 0.5 93.3799)" style="font-size:108;">顔</text>
	</g>
	<g id="StrokeNumbers" style="font-size:8;fill:#808080">
		<text transform="matrix(1 0 0 1 25.5 14.5)">1</text>
		<text transform="matrix(1 0 0 1 11.25 26.5)">2</text>
		<text transform="matrix(1 0 0 1 19.5 36.1299)">3</text>
		<text transform="matrix(1 0 0 1 37.5 33.5)">4</text>
		<text transform="matrix(1 0 0 1 20.25 43.5)">5</text>
		<text transform="matrix(1 0 0 1 12.5 53.5)">6</text>
		<text transform="matrix(1 0 0 1 36.5 54.5)">7</text>
		<text transform="matrix(1 0 0 1 37.5 67.5)">8</text>
		<text transform="matrix(1 0 0 1 38.5 80.5)">9</text>
		<text transform="matrix(1 0 0 1 56.5 17.5)">10</text>
		<text transform="matrix(1 0 0 1 78.5 27.5)">11</text>
		<text transform="matrix(1 0 0 1 52.5 41.1299)">12</text>
		<text transform="matrix(1 0 0 1 59.5 31.9355)">13</text>
		<text transform="matrix(1 0 0 1 64.3203 43.5)">14</text>
		<text transform="matrix(1 0 0 1 64.5 55.5)">15</text>
		<text transform="matrix(1 0 0 1 64.3633 68.5)">16</text>
		<text transform="matrix(1 0 0 1 56.25 83.5)">17</text>
		<text transform="matrix(1 0 0 1 75.5 86.5)">18</text>
	</g>
	<g id="StrokePaths" style="fill:none;stroke:#404040;stroke-width:3;stroke-linecap:round;stroke-linejoin:round;">
		<path d="M31.52,13.18c1.77,1.05,4.84,4.07,5.21,6.89"/>
		<path d="M19.58,26.29c0.58,0.29,1.24,0.33,1.82,0.29c5.6-0.33,18.85-3.08,26.99-3.38c0.96-0.04,1.54,0.14,2.02,0.29"/>
		<path d="M25.43,30.98C28.22,35.75,29.75,40.85,30,44"/>
		<path d="M45.21,27.5c0.54,0.48,0.6,0.73,0.54,1.13c-0.43,2.74-4.42,11.28-5.5,13.37"/>
		<path d="M17.9,46.27c0.61,0.23,3.31,0.27,3.92,0.23c9.68-0.5,19.68-1.75,28.31-2.98c1-0.14,2.61,0.11,3.12,0.23"/>
		<path d="M19,47.75c0.32,0.36,1.32,2.94,1.33,4.09C20.5,69,16.11,86.79,10.25,92.5"/>
		<path d="M44.01,51.71c0.04,0.29,0.09,0.75-0.09,1.16C42.86,55.32,36.8,60.71,28.5,64"/>
		<path d="M46.32,63.76c0.05,0.33,0.11,0.85-0.1,1.32c-1.23,2.79-8.31,8.92-17.99,12.67"/>
		<path d="M48.2,76.03c0.06,0.41,0.13,1.05-0.13,1.63c-1.53,3.44-10.31,10.98-22.32,15.59"/>
		<path d="M58.38,20.57c0.92,0.46,2.6,0.52,3.52,0.46c7.6-0.53,22.1-3.28,28.01-3.5c1.53-0.06,2.45,0.22,3.22,0.45"/>
		<path d="M74.66,21.1c0.01,0.26,0.02,0.67-0.02,1.05c-0.24,2.21-2.61,7.07-4.48,10.04"/>
		<path d="M61.78,33.8c0.41,0.99,1.02,1.72,1.02,3.04c0,1.32-0.28,35.17-0.28,35.83c0,0.66,0.14,0.66,0.28,1.97"/>
		<path d="M63.49,35.11c2.34-0.16,20.82-3.08,22.96-3.28c1.78-0.16,3.18,1.83,3.03,3.04c-0.19,1.55-0.7,19.79-0.69,34.26c0,1.49-0.14,2.14-0.14,3.12"/>
		<path d="M63.45,46.59c3.92,0,7.92-0.7,11.8-1.15c1.29-0.15,2.6-0.3,3.87-0.45"/>
		<path d="M63.64,58.19c4.21-0.22,8.42-0.57,12.62-0.93c1.02-0.09,2.03-0.18,3.02-0.27"/>
		<path d="M64.24,72.25c5.41-0.98,16.95-2.29,23.77-2.79"/>
		<path d="M68.64,78.83c0.36,1.2,0.71,1.53,0,2.4c-2.16,2.64-9.82,9.14-14.14,12.26"/>
		<path d="M82.75,78.5c4.28,3.88,9.35,10.93,10.52,14.33"/>
	</g>
</svg>
