<?xml version="1.0" encoding="UTF-8"?>
<!DOCTYPE svg PUBLIC "-//W3C//DTD SVG 1.0//EN" "http://www.w3.org/TR/2001/REC-SVG-20010904/DTD/svg10.dtd">
<svg xmlns="http://www.w3.org/2000/svg" width="109" height="109" viewBox="0 0 109 109">
	<g id="HelperGrid" style="opacity:0.75;">
		<rect x="0.5" y="0.5" style="fill:none;stroke:#404040;" width="108" height="108"/> 
		<line style="fill:none;stroke:#404040;" x1="0.5" y1="72.51" x2="108.5" y2="72.51"/>
		<line style="fill:none;stroke:#404040;" x1="0.5" y1="36.49" x2="108.5" y2="36.49"/>
		<line style="fill:none;stroke:#404040;" x1="72.5" y1="0.5" x2="72.5" y2="108.5"/>
		<line style="fill:none;stroke:#404040;" x1="36.5" y1="0.5" x2="36.5" y2="108.5"/>
	</g>
	<g id="Kanji">
		<text transform="matrix(1 0 0 1 0.5 93.3799)" style="font-size:108;">風</text>
	</g>
	<g id="StrokeNumbers" style="font-size:8;fill:#808080">
		<text transform="matrix(1 0 0 1 18.5 30.5)">1</text>
		<text transform="matrix(1 0 0 1 28.5 20.5)">2</text>
		<text transform="matrix(1 0 0 1 52.5 28.5)">3</text>
		<text transform="matrix(1 0 0 1 29.5 60.5)">4</text>
		<text transform="matrix(1 0 0 1 35.5 47.5)">5</text>
		<text transform="matrix(1 0 0 1 40.5 60.1299)">6</text>
		<text transform="matrix(1 0 0 1 44.5 44.5)">7</text>
		<text transform="matrix(1 0 0 1 32.5 78.5)">8</text>
		<text transform="matrix(1 0 0 1 56.5 71.5)">9</text>
	</g>
	<g id="StrokePaths" style="fill:none;stroke:#404040;stroke-width:3;stroke-linecap:round;stroke-linejoin:round;">
		<path d="M24.55,22.25c0.95,1.25,1.37,3.05,1.37,5.36c0,22.76,1.59,50.26-10.66,62.39"/>
		<path d="M26.75,23.5c1.48-0.24,3.35-0.52,5.49-0.84C46.03,20.62,63,17.75,74,17.25c4-0.18,6.09,0.97,5.5,4.75C76.25,42.75,77.25,71.75,92,87.75c6.95,7.54,5.75,1,6-5.5"/>
		<path d="M63.5,24.75C63.25,26,62.62,27,61.32,27.8C57.3,30.23,48.46,34.95,35.88,38"/>
		<path d="M33.23,49.47c0.71,0.71,1.46,1.63,1.56,2.1c0.6,2.87,1.22,5.5,2.01,10.42c0.15,0.93,0.3,1.91,0.47,2.94"/>
		<path d="M35.85,50.73c11.9-1.98,23.66-3.81,29.48-4.1c2.56-0.13,3.98,0.77,3.42,3.09c-0.81,3.38-1.49,4.52-2.56,8.52"/>
		<path d="M38.3,62.81c5.71-0.6,17.05-2.28,26.2-3.3c1.27-0.14,2.47-0.25,3.58-0.33"/>
		<path d="M50.07,36.5c1.09,1.09,1.35,2.25,1.35,3.64c0,3.86-0.26,30.86-0.26,37.81"/>
		<path d="M32.92,82.16c1.2,0.71,2.64,0.8,3.36,0.59c6.59-1.88,24.47-7.13,30.34-8.88"/>
		<path d="M63.75,67.85c3.5,3.52,7.62,10.15,9.36,15.31"/>
	</g>
</svg>
