<?xml version="1.0" encoding="UTF-8"?>
<!-- Copyright (C) 2009 Ulrich Apel.
This work is distributed under the conditions of the Creative Commons
Attribution-Share Alike 3.0 Licence. This means you are free:
* to Share - to copy, distribute and transmit the work
* to Remix - to adapt the work

Under the following conditions:
* Attribution. You must attribute the work by stating your use of KanjiVG in
  your own copyright header and linking to KanjiVG's website
  (http://kanjivg.tagaini.net)
* Share Alike. If you alter, transform, or build upon this work, you may
  distribute the resulting work only under the same or similar license to this
  one.

See http://creativecommons.org/licenses/by-sa/3.0/ for more details. -->
<!DOCTYPE svg PUBLIC "-//W3C//DTD SVG 1.0//EN" "http://www.w3.org/TR/2001/REC-SVG-20010904/DTD/svg10.dtd">
<svg xmlns="http://www.w3.org/2000/svg" width="109" height="109" viewBox="0 0 109 109">
	<g id="HelperGrid" style="opacity:0.75;">
		<rect x="0.5" y="0.5" style="fill:none;stroke:#404040;" width="108" height="108"/> 
		<line style="fill:none;stroke:#404040;" x1="0.5" y1="72.51" x2="108.5" y2="72.51"/>
		<line style="fill:none;stroke:#404040;" x1="0.5" y1="36.49" x2="108.5" y2="36.49"/>
		<line style="fill:none;stroke:#404040;" x1="72.5" y1="0.5" x2="72.5" y2="108.5"/>
		<line style="fill:none;stroke:#404040;" x1="36.5" y1="0.5" x2="36.5" y2="108.5"/>
	</g>
	<g id="Kanji">
		<text transform="matrix(1 0 0 1 0.5 93.3799)" style="font-size:108;">香</text>
	</g>
	<g id="StrokeNumbers" style="font-size:8;fill:#808080">
		<text transform="matrix(1 0 0 1 57.75 9.1299)">1</text>
		<text transform="matrix(1 0 0 1 12.5 37.5)">2</text>
		<text transform="matrix(1 0 0 1 45.75 28.5)">3</text>
		<text transform="matrix(1 0 0 1 30.75 46.6299)">4</text>
		<text transform="matrix(1 0 0 1 71.25 43.6299)">5</text>
		<text transform="matrix(1 0 0 1 27.5 74.5)">6</text>
		<text transform="matrix(1 0 0 1 38.25 63.5)">7</text>
		<text transform="matrix(1 0 0 1 41.25 76.5)">8</text>
		<text transform="matrix(1 0 0 1 41.2422 90.5)">9</text>
	</g>
	<g id="StrokePaths" style="fill:none;stroke:#404040;stroke-width:3;stroke-linecap:round;stroke-linejoin:round;">
		<path d="M64.98,10.73c0.1,0.29,0.21,0.74-0.19,1.15c-2.36,2.42-15.94,7.74-34.51,10.99"/>
		<path d="M19.83,37.55c0.66,0.2,3.32,0.74,5.09,0.6c7.96-0.6,40.59-6.16,54.22-7.04c1.76-0.11,3.48,0.24,4.59,0.44"/>
		<path d="M51.73,19.81c1.15,0.59,2.08,2.64,2.08,3.85c0,7.59-0.31,22.32-0.31,33.59"/>
		<path d="M49.23,35.16C42.29,44.6,28.5,58,15,63.97"/>
		<path d="M56.04,34.46c4.79,3.45,26.7,19.78,31.91,23.18c1.77,1.15,3.28,1.64,5.04,1.97"/>
		<path d="M33.27,65.47c0.39,0.73,1.12,2.11,1.28,3.07c1.2,7.21,2.2,21.21,3.5,29.71"/>
		<path d="M34.69,67.59c9.56-1.59,36.93-4.8,38.92-5.1c1.64-0.24,4.34,1.77,4.11,4.07C77,74,76,84.25,74.71,94.87"/>
		<path d="M36.58,80.77c6.94-1.23,14.04-1.82,21.04-2.53c2.12-0.22,4.21-0.42,6.19-0.61"/>
		<path d="M37.94,94.51c6.06-0.52,28.31-2.42,35.85-2.87"/>
	</g>
</svg>
