<?xml version="1.0" encoding="UTF-8"?>
<!-- Copyright (C) 2009 Ulrich Apel.
This work is distributed under the conditions of the Creative Commons
Attribution-Share Alike 3.0 Licence. This means you are free:
* to Share - to copy, distribute and transmit the work
* to Remix - to adapt the work

Under the following conditions:
* Attribution. You must attribute the work by stating your use of KanjiVG in
  your own copyright header and linking to KanjiVG's website
  (http://kanjivg.tagaini.net)
* Share Alike. If you alter, transform, or build upon this work, you may
  distribute the resulting work only under the same or similar license to this
  one.

See http://creativecommons.org/licenses/by-sa/3.0/ for more details. -->
<!DOCTYPE svg PUBLIC "-//W3C//DTD SVG 1.0//EN" "http://www.w3.org/TR/2001/REC-SVG-20010904/DTD/svg10.dtd">
<svg xmlns="http://www.w3.org/2000/svg" width="109" height="109" viewBox="0 0 109 109">
	<g id="HelperGrid" style="opacity:0.75;">
		<rect x="0.5" y="0.5" style="fill:none;stroke:#404040;" width="108" height="108"/> 
		<line style="fill:none;stroke:#404040;" x1="0.5" y1="72.51" x2="108.5" y2="72.51"/>
		<line style="fill:none;stroke:#404040;" x1="0.5" y1="36.49" x2="108.5" y2="36.49"/>
		<line style="fill:none;stroke:#404040;" x1="72.5" y1="0.5" x2="72.5" y2="108.5"/>
		<line style="fill:none;stroke:#404040;" x1="36.5" y1="0.5" x2="36.5" y2="108.5"/>
	</g>
	<g id="Kanji">
		<text transform="matrix(1 0 0 1 0.5 93.3799)" style="font-size:108;">駈</text>
	</g>
	<g id="StrokeNumbers" style="font-size:8;fill:#808080">
		<text transform="matrix(1 0 0 1 8.8477 26.5)">1</text>
		<text transform="matrix(1 0 0 1 16.6602 15.5)">2</text>
		<text transform="matrix(1 0 0 1 19.3203 28.499)">3</text>
		<text transform="matrix(1 0 0 1 19.5 41.499)">4</text>
		<text transform="matrix(1 0 0 1 19.5 55.5)">5</text>
		<text transform="matrix(1 0 0 1 30.5 26.5)">6</text>
		<text transform="matrix(1 0 0 1 6.5 72.8477)">7</text>
		<text transform="matrix(1 0 0 1 17.25 67.5)">8</text>
		<text transform="matrix(1 0 0 1 25.25 66.5)">9</text>
		<text transform="matrix(1 0 0 1 32.5 64.9541)">10</text>
		<text transform="matrix(1 0 0 1 68.25 16.8799)">11</text>
		<text transform="matrix(1 0 0 1 42.25 42.5)">12</text>
		<text transform="matrix(1 0 0 1 57.5 46.729)">13</text>
		<text transform="matrix(1 0 0 1 70.5 57.5)">14</text>
		<text transform="matrix(1 0 0 1 44.5 87.5)">15</text>
	</g>
	<g id="StrokePaths" style="fill:none;stroke:#404040;stroke-width:3;stroke-linecap:round;stroke-linejoin:round;">
		<path d="M15.59,19.52c-0.02,5.01-0.21,38-0.97,40.91"/>
		<path d="M13.38,19.31c0.78-0.02,2.69-0.06,3.71-0.13c7.66-0.51,19.98-2.26,22.3-2.6c0.92-0.13,2.47-0.24,2.94-0.02"/>
		<path d="M16,32.61c6.13-0.57,18.85-2.55,21.48-2.93c0.92-0.13,2.48-0.24,2.94-0.02"/>
		<path d="M16.1,45.27c6.13-0.57,18.84-2.54,21.47-2.92c0.92-0.13,2.47-0.24,2.94-0.03"/>
		<path d="M15.34,59.85c6.05-1.37,21.59-3.92,24.91-4.5c4.24-0.74,4.1,2.73,3.87,6.27c-0.66,10.05-3.37,22.7-6.5,29.21c-2.69,5.58-5.71,0.4-6.59-0.84"/>
		<path d="M27.9,19.24c0.25,0.37,0.94,0.85,0.93,1.44c-0.02,5.99-0.06,27.15-0.25,36.57"/>
		<path d="M11.67,72.3C12.05,78.53,10.9,84,10.5,85.24"/>
		<path d="M18.31,71.85c1.06,2.04,1.96,4.61,2.2,8.25"/>
		<path d="M25.16,68.68c0.62,1,2.82,4.29,3.09,7.55"/>
		<path d="M31.74,65.79c1.22,1.95,3.23,3.97,3.67,6.55"/>
		<path d="M80.22,16.5c0.08,0.44,0.29,1.26-0.15,1.75C74.66,24.4,66.67,30.04,52.57,35"/>
		<path d="M51.37,34.13c1.38,0.87,1.85,2.67,1.98,5.26c0.46,9.6,3.12,41.81,3.67,51.11"/>
		<path d="M54.03,51.31c7.21-0.96,25.21-2.79,33.96-4c1.31-0.18,3.6-0.15,4.42,0"/>
		<path d="M79.43,49.3c0.87,0.66,1.6,2.92,1.56,4.26C80.57,67,79.62,78.25,78.71,88.75"/>
		<path d="M46,91c0.97,0.29,2.76,0.33,3.73,0.29C57,91,83.97,89.28,94.34,88.75c1.62-0.08,2.59,0.14,3.41,0.28"/>
	</g>
</svg>
