<?xml version="1.0" encoding="UTF-8"?>
<!-- Copyright (C) 2009 Ulrich Apel.
This work is distributed under the conditions of the Creative Commons
Attribution-Share Alike 3.0 Licence. This means you are free:
* to Share - to copy, distribute and transmit the work
* to Remix - to adapt the work

Under the following conditions:
* Attribution. You must attribute the work by stating your use of KanjiVG in
  your own copyright header and linking to KanjiVG's website
  (http://kanjivg.tagaini.net)
* Share Alike. If you alter, transform, or build upon this work, you may
  distribute the resulting work only under the same or similar license to this
  one.

See http://creativecommons.org/licenses/by-sa/3.0/ for more details. -->
<!DOCTYPE svg PUBLIC "-//W3C//DTD SVG 1.0//EN" "http://www.w3.org/TR/2001/REC-SVG-20010904/DTD/svg10.dtd">
<svg xmlns="http://www.w3.org/2000/svg" width="109" height="109" viewBox="0 0 109 109">
	<g id="HelperGrid" style="opacity:0.75;">
		<rect x="0.5" y="0.5" style="fill:none;stroke:#404040;" width="108" height="108"/> 
		<line style="fill:none;stroke:#404040;" x1="0.5" y1="72.51" x2="108.5" y2="72.51"/>
		<line style="fill:none;stroke:#404040;" x1="0.5" y1="36.49" x2="108.5" y2="36.49"/>
		<line style="fill:none;stroke:#404040;" x1="72.5" y1="0.5" x2="72.5" y2="108.5"/>
		<line style="fill:none;stroke:#404040;" x1="36.5" y1="0.5" x2="36.5" y2="108.5"/>
	</g>
	<g id="Kanji">
		<text transform="matrix(1 0 0 1 0.5 93.3799)" style="font-size:108;">騷</text>
	</g>
	<g id="StrokeNumbers" style="font-size:8;fill:#808080">
		<text transform="matrix(1 0 0 1 9.5 28.5)">1</text>
		<text transform="matrix(1 0 0 1 17.5 16.8477)">2</text>
		<text transform="matrix(1 0 0 1 33.5 26.5)">3</text>
		<text transform="matrix(1 0 0 1 20.5 30.5)">4</text>
		<text transform="matrix(1 0 0 1 20.5 42.5)">5</text>
		<text transform="matrix(1 0 0 1 20.5 57.5)">6</text>
		<text transform="matrix(1 0 0 1 7.6318 77.5)">7</text>
		<text transform="matrix(1 0 0 1 15.5 82.5)">8</text>
		<text transform="matrix(1 0 0 1 23.3379 79.5977)">9</text>
		<text transform="matrix(1 0 0 1 28.5 74.5)">10</text>
		<text transform="matrix(1 0 0 1 53.5 14.5)">11</text>
		<text transform="matrix(1 0 0 1 44.75 26.5)">12</text>
		<text transform="matrix(1 0 0 1 58.5 26.5)">13</text>
		<text transform="matrix(1 0 0 1 44.5 40.5)">14</text>
		<text transform="matrix(1 0 0 1 45.5 70.6992)">15</text>
		<text transform="matrix(1 0 0 1 56.5 60.5)">16</text>
		<text transform="matrix(1 0 0 1 59.75 73.5)">17</text>
		<text transform="matrix(1 0 0 1 75.5 54.5)">18</text>
		<text transform="matrix(1 0 0 1 48.5 90.5)">19</text>
		<text transform="matrix(1 0 0 1 89.5 83.5)">20</text>
	</g>
	<g id="StrokePaths" style="fill:none;stroke:#404040;stroke-width:3;stroke-linecap:round;stroke-linejoin:round;">
		<path d="M15.14,18.68c0.86,1.07,0.99,3.45,0.98,5.07c-0.06,10.43-0.31,37.23-0.99,39.88"/>
		<path d="M16.71,20.32c7.98-0.53,21.81-2.87,24.23-3.23c0.96-0.14,2.58-0.25,3.06-0.03"/>
		<path d="M28.97,19.88c0.26,0.38,0.97,0.9,0.97,1.51c-0.02,6.29-0.07,28.5-0.26,38.39"/>
		<path d="M16.57,34.41c6.39-0.6,20.66-2.63,23.4-3.03c0.96-0.14,2.58-0.25,3.06-0.02"/>
		<path d="M16.67,46.7c6.39-0.6,20.17-2.64,22.91-3.04c0.96-0.14,2.58-0.25,3.06-0.03"/>
		<path d="M15.88,63.01c6.3-1.44,20.99-4.11,24.46-4.72c4.42-0.78,4.27,2.36,4.03,6.08c-0.68,10.55-2.46,22.25-5.74,29.08c-2.81,5.86-5.43,0.42-6.34-0.88"/>
		<path d="M13.06,75.63c0.29,6.53-1.09,12.28-1.39,13.58"/>
		<path d="M19.94,75.6c1.1,2.14,2.04,4.84,2.3,8.66"/>
		<path d="M26.41,72c0.68,1.08,3.1,4.65,3.4,8.18"/>
		<path d="M33.51,68.72c1.27,2.05,3.37,4.17,3.83,6.88"/>
		<path d="M56.45,17.64c1.13,0.29,1.24,0.5,3.53,0.29c4.77-0.43,20.75-3.54,22.3-3.97c1.56-0.43,2.82,1.68,2.12,3.18C77,33.25,64.75,48,52.25,56.96"/>
		<path d="M54.35,23.77c3.83,0.72,22.54,20.08,35.88,28.02c2.08,1.23,3.59,2.06,5.52,2.47"/>
		<path d="M67.17,21.88c1.48,1.01,3.82,4.14,4.19,5.71"/>
		<path d="M51.94,34.13c1.52,1.58,3.94,6.5,4.32,8.96"/>
		<path d="M54.39,62.48c0.55,0.38,0.94,1.31,1.05,1.8c0.75,3.59,1.51,8.33,2.56,15.14"/>
		<path d="M55.84,63.93c8.38-0.72,25.87-3.29,31.93-3.57c2.37-0.11,2.47,1.15,2.24,2.75c-0.54,3.71-0.81,5.36-2.44,11.49"/>
		<path d="M58.3,77.47c6.74-0.72,21.84-2.34,31.28-3.01"/>
		<path d="M70.95,50.22c0.86,0.35,1.38,1.57,1.55,2.27c0.17,0.7,0,33.29-0.17,37.66"/>
		<path d="M50.96,94.54c0.88,0.72,2.7,1.12,3.57,0.94c0.88-0.18,27.75-6.94,33.17-8.38"/>
		<path d="M83.71,80.84c3.82,2.69,9.86,11.06,10.81,15.24"/>
	</g>
</svg>
