<?xml version="1.0" encoding="UTF-8"?>
<!DOCTYPE svg PUBLIC "-//W3C//DTD SVG 1.0//EN" "http://www.w3.org/TR/2001/REC-SVG-20010904/DTD/svg10.dtd">
<svg xmlns="http://www.w3.org/2000/svg" width="109" height="109" viewBox="0 0 109 109">
	<g id="HelperGrid" style="opacity:0.75;">
		<rect x="0.5" y="0.5" style="fill:none;stroke:#404040;" width="108" height="108"/> 
		<line style="fill:none;stroke:#404040;" x1="0.5" y1="72.51" x2="108.5" y2="72.51"/>
		<line style="fill:none;stroke:#404040;" x1="0.5" y1="36.49" x2="108.5" y2="36.49"/>
		<line style="fill:none;stroke:#404040;" x1="72.5" y1="0.5" x2="72.5" y2="108.5"/>
		<line style="fill:none;stroke:#404040;" x1="36.5" y1="0.5" x2="36.5" y2="108.5"/>
	</g>
	<g id="Kanji">
		<text transform="matrix(1 0 0 1 0.5 93.3799)" style="font-size:108;">髞</text>
	</g>
	<g id="StrokeNumbers" style="font-size:8;fill:#808080">
		<text transform="matrix(1 0 0 1 18.25 13.5)">1</text>
		<text transform="matrix(1 0 0 1 3.5 26.5)">2</text>
		<text transform="matrix(1 0 0 1 11.25 43.5)">3</text>
		<text transform="matrix(1 0 0 1 20.5 33.5)">4</text>
		<text transform="matrix(1 0 0 1 24.5 45.5)">5</text>
		<text transform="matrix(1 0 0 1 7.5 66.5)">6</text>
		<text transform="matrix(1 0 0 1 16.25 57.5)">7</text>
		<text transform="matrix(1 0 0 1 17.5 74.6035)">8</text>
		<text transform="matrix(1 0 0 1 23.75 65.5)">9</text>
		<text transform="matrix(1 0 0 1 25.5 75.5)">10</text>
		<text transform="matrix(1 0 0 1 51.25 24.5)">11</text>
		<text transform="matrix(1 0 0 1 59.5 15.5)">12</text>
		<text transform="matrix(1 0 0 1 64.5 27.5)">13</text>
		<text transform="matrix(1 0 0 1 42.5 48.5)">14</text>
		<text transform="matrix(1 0 0 1 50.5 38.5)">15</text>
		<text transform="matrix(1 0 0 1 55.5 49.5)">16</text>
		<text transform="matrix(1 0 0 1 69.25 48.5)">17</text>
		<text transform="matrix(1 0 0 1 76.5 37.5)">18</text>
		<text transform="matrix(1 0 0 1 80.5 47.5)">19</text>
		<text transform="matrix(1 0 0 1 62.5 60.1289)">21</text>
		<text transform="matrix(1 0 0 1 49.5 63.5)">20</text>
		<text transform="matrix(1 0 0 1 51.75 74.1299)">22</text>
		<text transform="matrix(1 0 0 1 80.5 72.5)">23</text>
	</g>
	<g id="StrokePaths" style="fill:none;stroke:#404040;stroke-width:3;stroke-linecap:round;stroke-linejoin:round;">
		<path d="M26.92,13.75c0.51,0.49,1.36,2.38,1.36,3.35c0,3.58-0.16,3.68-0.07,6.71"/>
		<path d="M10.15,25.95c0.84,0.08,2.74,0.46,3.57,0.44c6.9-0.14,22.96-3.25,31.91-3.48c1.38-0.04,2.09,0.04,3.12,0.56"/>
		<path d="M17.18,36.11c0.3,0.25,0.6,0.46,0.73,0.77c1.03,2.46,2.67,8.75,3.38,13.17"/>
		<path d="M19.04,37.78c6.08-1.28,16.44-3.7,19.93-4.03c1.27-0.12,2.04,1.47,1.86,2.16c-0.75,2.88-1.59,6.31-2.71,10.28"/>
		<path d="M21.43,48.89c4.09-0.37,12.33-1.77,17.95-2.33"/>
		<path d="M12.75,57.51c1,0.99,1.45,2.15,1.57,4.32c0.29,5.07,1.18,21.92,1.44,29.67"/>
		<path d="M14.59,59.9c7.16-0.65,26.08-4.48,27.08-4.77c2.46-0.72,3.42,1.37,3.42,3.98c0,8.99-0.09,21.14-1.51,28.81c-1.18,6.34-4.18,1.69-5.63,0"/>
		<path d="M21.71,67.49c0.2,0.24,0.4,0.44,0.49,0.74c0.69,2.39,2.01,8.48,2.48,12.76"/>
		<path d="M22.95,69.11c4.06-1.24,8.98-2.99,11.3-3.44c0.94-0.18,1.85,0.98,1.76,2.13c-0.23,2.87-1.09,5.38-1.84,9.24"/>
		<path d="M24.78,78.9c2.73-0.35,7.49-0.97,11.23-1.51"/>
		<path d="M57.04,17.22c0.4,0.27,0.8,0.5,0.98,0.84c1.38,2.71,2.91,8.91,3.86,13.78"/>
		<path d="M59.09,19.04c8.12-1.41,17.92-3.7,22.58-4.05c1.7-0.13,2.72,1.53,2.48,2.3c-1.01,3.17-1.38,5.99-2.88,10.37"/>
		<path d="M63.17,30c5.46-0.4,12-1.34,19.5-1.96"/>
		<path d="M49.75,40.85c0.25,0.27,0.51,0.5,0.62,0.84c0.88,2.71,2.66,8.19,3.26,13.06"/>
		<path d="M51.32,42.15c6.39-0.99,11.65-2.42,14.6-2.78c1.08-0.13,1.73,0.77,1.58,1.54c-0.64,3.17-1.39,6.25-2.34,10.63"/>
		<path d="M53.75,52.89c3.47-0.4,5.82-0.37,12.29-0.96"/>
		<path d="M74.92,39.2c0.26,0.27,0.53,0.5,0.65,0.84c0.91,2.71,1.95,6.91,2.58,11.78"/>
		<path d="M76.56,40.26c6.67-0.99,12.79-2.2,15.88-2.56c1.13-0.13,1.81,0.77,1.64,1.54c-0.67,3.17-1.45,5.79-2.44,10.17"/>
		<path d="M78.55,50.74c5.05-0.35,7.18-0.48,15.05-0.94"/>
		<path d="M50.15,66.05c1.41,0.41,3.02,0.54,4.64,0.41c8.27-0.67,24.48-3.53,37-4.32c1.61-0.1,2.62,0.07,4.24,0.36"/>
		<path d="M69.04,54.67c1.35,0.54,2.43,2.4,2.43,3.51c0,11.34-0.27,31.82-0.27,39.16"/>
		<path d="M68.3,65.43C64.6,72.83,54.69,84.16,47,88.35"/>
		<path d="M71.79,65.25C75.5,70,88.5,83.75,93.62,86.53c1.37,0.74,2.2,1.45,3.38,1.74"/>
	</g>
</svg>
