<?xml version="1.0" encoding="UTF-8"?>
<!DOCTYPE svg PUBLIC "-//W3C//DTD SVG 1.0//EN" "http://www.w3.org/TR/2001/REC-SVG-20010904/DTD/svg10.dtd">
<svg xmlns="http://www.w3.org/2000/svg" width="109" height="109" viewBox="0 0 109 109">
	<g id="HelperGrid" style="opacity:0.75;">
		<rect x="0.5" y="0.5" style="fill:none;stroke:#404040;" width="108" height="108"/> 
		<line style="fill:none;stroke:#404040;" x1="0.5" y1="72.51" x2="108.5" y2="72.51"/>
		<line style="fill:none;stroke:#404040;" x1="0.5" y1="36.49" x2="108.5" y2="36.49"/>
		<line style="fill:none;stroke:#404040;" x1="72.5" y1="0.5" x2="72.5" y2="108.5"/>
		<line style="fill:none;stroke:#404040;" x1="36.5" y1="0.5" x2="36.5" y2="108.5"/>
	</g>
	<g id="Kanji">
		<text transform="matrix(1 0 0 1 0.5 93.3799)" style="font-size:108;">鬨</text>
	</g>
	<g id="StrokeNumbers" style="font-size:8;fill:#808080">
		<text transform="matrix(1 0 0 1 10.5 24.5)">1</text>
		<text transform="matrix(1 0 0 1 22.5 14.5)">2</text>
		<text transform="matrix(1 0 0 1 29.5 24.5)">3</text>
		<text transform="matrix(1 0 0 1 22.5 25.5)">4</text>
		<text transform="matrix(1 0 0 1 22.5 34.5)">5</text>
		<text transform="matrix(1 0 0 1 55.5 12.5)">6</text>
		<text transform="matrix(1 0 0 1 64.5 22.5)">7</text>
		<text transform="matrix(1 0 0 1 52.5 25.5)">8</text>
		<text transform="matrix(1 0 0 1 55.5 32.5)">9</text>
		<text transform="matrix(1 0 0 1 83.5 9.5)">10</text>
		<text transform="matrix(1 0 0 1 26.5 55.5)">11</text>
		<text transform="matrix(1 0 0 1 32.5 46.5)">12</text>
		<text transform="matrix(1 0 0 1 54.25 44.5)">13</text>
		<text transform="matrix(1 0 0 1 24.5 66.6543)">14</text>
		<text transform="matrix(1 0 0 1 35.5 78.5)">15</text>
		<text transform="matrix(1 0 0 1 53.5 81.5)">16</text>
	</g>
	<g id="StrokePaths" style="fill:none;stroke:#404040;stroke-width:3;stroke-linecap:round;stroke-linejoin:round;">
		<path d="M15.87,16.25c1.09,0.5,1.74,2.25,1.96,3.25c0.22,1,0,72.75-0.22,79"/>
		<path d="M23.97,17.02c0.46,0.25,1.96,0.07,2.43,0.02c5.11-0.61,14.95-1.82,20.18-2.09c0.71-0.04,1.36,0.05,1.95,0.26"/>
		<path d="M35.11,16.9c0.93,1.16,0.93,1.86,0.93,2.8c0,3.05,0.49,9.8,0.49,16.3"/>
		<path d="M24.47,27.45c0.43,0.24,1.82,0.07,2.26,0.02c4.74-0.57,13.89-1.69,18.74-1.94c0.66-0.03,1.26,0.05,1.81,0.24"/>
		<path d="M22.97,37.64c0.52,0.29,2.2,0.08,2.73,0.02c5.73-0.68,16.78-2.05,22.65-2.34c0.8-0.04,1.53,0.06,2.19,0.29"/>
		<path d="M58.25,15.52c0.47,0.25,2.02,0.07,2.5,0.02c5.24-0.61,16.36-1.82,21.73-2.09c0.73-0.04,1.4,0.05,2,0.26"/>
		<path d="M70.19,15.4c0.96,1.16,0.96,1.86,0.96,2.8c0,6.52,0.5,10.8,0.5,15.8"/>
		<path d="M59.76,25.45c0.44,0.24,1.87,0.07,2.32,0.02c4.87-0.57,14.27-1.69,19.25-1.94c0.68-0.03,1.3,0.05,1.86,0.24"/>
		<path d="M58.22,35.64c0.53,0.29,2.26,0.08,2.8,0.02c5.89-0.68,17.24-2.05,23.26-2.34c0.82-0.04,1.57,0.06,2.25,0.29"/>
		<path d="M90.27,11.83c0.98,0.92,1.76,1.99,1.76,5.02c0,19.9,0.24,71.16,0.24,76.12c0,10.39-7.21,1.5-8.71,0.25"/>
		<path d="M35.9,54.6c0.93,0.23,2.64,0.28,3.56,0.23c6.11-0.33,24.44-2.5,33.28-2.5c1.55,0,2.48,0.11,3.25,0.22"/>
		<path d="M43.91,44.28c0.68,0.31,1.2,1.37,1.22,1.99c0.11,4.45,1.38,17.06,1.7,22.12"/>
		<path d="M65.38,41.75c0.68,0.31,1.29,1.37,1.22,1.99C65.5,53,64.75,58.5,62.46,67.32"/>
		<path d="M28.9,69.51c1.25,0.33,3.54,0.42,4.78,0.33c8.15-0.61,33.14-2.64,43.56-2.94c2.08-0.06,3.33,0.16,4.36,0.33"/>
		<path d="M46.85,75.39c0.04,0.38,0.09,0.97-0.08,1.52c-1,3.2-7.55,9.37-14.55,14.51"/>
		<path d="M60.89,74.33c4.53,2.85,11.69,11.71,12.83,16.14"/>
	</g>
</svg>
