<?xml version="1.0" encoding="UTF-8"?>
<!DOCTYPE svg PUBLIC "-//W3C//DTD SVG 1.0//EN" "http://www.w3.org/TR/2001/REC-SVG-20010904/DTD/svg10.dtd">
<svg xmlns="http://www.w3.org/2000/svg" width="109" height="109" viewBox="0 0 109 109">
	<g id="HelperGrid" style="opacity:0.75;">
		<rect x="0.5" y="0.5" style="fill:none;stroke:#404040;" width="108" height="108"/> 
		<line style="fill:none;stroke:#404040;" x1="0.5" y1="72.51" x2="108.5" y2="72.51"/>
		<line style="fill:none;stroke:#404040;" x1="0.5" y1="36.49" x2="108.5" y2="36.49"/>
		<line style="fill:none;stroke:#404040;" x1="72.5" y1="0.5" x2="72.5" y2="108.5"/>
		<line style="fill:none;stroke:#404040;" x1="36.5" y1="0.5" x2="36.5" y2="108.5"/>
	</g>
	<g id="Kanji">
		<text transform="matrix(1 0 0 1 0.5 93.3799)" style="font-size:108;">鬪</text>
	</g>
	<g id="StrokeNumbers" style="font-size:8;fill:#808080">
		<text transform="matrix(1 0 0 1 10.5 24.5)">1</text>
		<text transform="matrix(1 0 0 1 23.5 13.5)">2</text>
		<text transform="matrix(1 0 0 1 22.5 25.5)">3</text>
		<text transform="matrix(1 0 0 1 22.5 34.5)">4</text>
		<text transform="matrix(1 0 0 1 29.5 24.5)">5</text>
		<text transform="matrix(1 0 0 1 55.5 12.5)">6</text>
		<text transform="matrix(1 0 0 1 52.5 25.5)">7</text>
		<text transform="matrix(1 0 0 1 55.5 32.5)">8</text>
		<text transform="matrix(1 0 0 1 64.5 22.5)">9</text>
		<text transform="matrix(1 0 0 1 82.5 8.5)">10</text>
		<text transform="matrix(1 0 0 1 24.5 45.5)">11</text>
		<text transform="matrix(1 0 0 1 21.5 61.5)">12</text>
		<text transform="matrix(1 0 0 1 29.5 53.5)">13</text>
		<text transform="matrix(1 0 0 1 33.75 64.5)">14</text>
		<text transform="matrix(1 0 0 1 22.5 77.5)">15</text>
		<text transform="matrix(1 0 0 1 37.75 74.5)">16</text>
		<text transform="matrix(1 0 0 1 22.75 87.5)">17</text>
		<text transform="matrix(1 0 0 1 54.75 54.5)">18</text>
		<text transform="matrix(1 0 0 1 59.5 43.5)">19</text>
		<text transform="matrix(1 0 0 1 55.5 64.5)">20</text>
	</g>
	<g id="StrokePaths" style="fill:none;stroke:#404040;stroke-width:3;stroke-linecap:round;stroke-linejoin:round;">
		<path d="M15.87,16.25c1.09,0.5,1.74,2.25,1.96,3.25c0.22,1,0,72.75-0.22,79"/>
		<path d="M23.97,17.02c0.46,0.25,1.96,0.07,2.43,0.02c5.11-0.61,14.95-1.82,20.18-2.09c0.71-0.04,1.36,0.05,1.95,0.26"/>
		<path d="M24.47,27.45c0.43,0.24,1.82,0.07,2.26,0.02c4.74-0.57,13.89-1.69,18.74-1.94c0.66-0.03,1.26,0.05,1.81,0.24"/>
		<path d="M22.97,37.64c0.52,0.29,2.2,0.08,2.73,0.02c5.73-0.68,16.78-2.05,22.65-2.34c0.8-0.04,1.53,0.06,2.19,0.29"/>
		<path d="M35.11,16.9c0.93,1.16,0.93,1.86,0.93,2.8c0,3.05,0.49,9.8,0.49,16.3"/>
		<path d="M57.75,15.52c0.47,0.25,2.02,0.07,2.5,0.02c5.24-0.61,16.36-1.82,21.73-2.09c0.73-0.04,1.4,0.05,2,0.26"/>
		<path d="M59.26,25.45c0.44,0.24,1.87,0.07,2.32,0.02c4.87-0.57,14.27-1.69,19.25-1.94c0.68-0.03,1.3,0.05,1.86,0.24"/>
		<path d="M57.72,35.64c0.53,0.29,2.26,0.08,2.8,0.02c5.89-0.68,17.24-2.05,23.26-2.34c0.82-0.04,1.57,0.06,2.25,0.29"/>
		<path d="M70.19,15.4c0.96,1.16,0.96,1.86,0.96,2.8c0,6.52,0.5,10.8,0.5,15.8"/>
		<path d="M90.27,11.83c0.98,0.92,1.76,1.99,1.76,5.02c0,19.9,0.24,71.16,0.24,76.12c0,10.39-7.21,1.5-8.71,0.25"/>
		<path d="M27.13,47.1c2.37,0.4,1.62,0.5,3.79,0.31c6.34-0.54,9.84-1.18,18.51-2.24c0.77-0.09,2.24,0.12,2.63,0.24"/>
		<path d="M29.34,54.83c0.29,0.24,0.66,0.98,0.72,1.3c0.4,2.33,1.48,7.87,2.37,12.51"/>
		<path d="M30.46,55.78c4.43-0.47,16.16-2.05,19.18-2.12c1.25-0.03,2.1,0.61,1.82,1.97c-0.5,2.44-1.6,5.38-3.12,10.03"/>
		<path d="M32.66,67.45c4.28-0.42,12.47-1.23,16.99-1.3"/>
		<path d="M31.4,73.76c1.34,1.86,3.46,8.48,3.8,11.37"/>
		<path d="M48.16,71.62c0.01,0.33,0.03,0.85-0.03,1.33c-0.33,2.8-2.23,8.94-4.83,12.7"/>
		<path d="M28.22,91.58c0.78,0.92,1.89,1.17,3.14,0.73c5.89-2.05,14.02-4.8,21.06-7.74"/>
		<path d="M56.89,56.96c1.05,0.49,2.98,0.63,4.04,0.49c6.67-0.93,13.18-1.93,20.75-2.39c1.75-0.11,2.81,0.23,3.69,0.48"/>
		<path d="M72.02,43.71c0.05,0.33,0.77,1.74,0.77,3.85c0,14.25-0.16,39.99-0.16,43.46c0,8.4-4.6,1.24-5.95,0.17"/>
		<path d="M58.82,66.58c2.03,1.57,5.24,6.46,5.75,8.91"/>
	</g>
</svg>
