<?xml version="1.0" encoding="UTF-8"?>
<!-- Copyright (C) 2009 Ulrich Apel.
This work is distributed under the conditions of the Creative Commons
Attribution-Share Alike 3.0 Licence. This means you are free:
* to Share - to copy, distribute and transmit the work
* to Remix - to adapt the work

Under the following conditions:
* Attribution. You must attribute the work by stating your use of KanjiVG in
  your own copyright header and linking to KanjiVG's website
  (http://kanjivg.tagaini.net)
* Share Alike. If you alter, transform, or build upon this work, you may
  distribute the resulting work only under the same or similar license to this
  one.

See http://creativecommons.org/licenses/by-sa/3.0/ for more details. -->
<!DOCTYPE svg PUBLIC "-//W3C//DTD SVG 1.0//EN" "http://www.w3.org/TR/2001/REC-SVG-20010904/DTD/svg10.dtd">
<svg xmlns="http://www.w3.org/2000/svg" width="109" height="109" viewBox="0 0 109 109">
	<g id="HelperGrid" style="opacity:0.75;">
		<rect x="0.5" y="0.5" style="fill:none;stroke:#404040;" width="108" height="108"/> 
		<line style="fill:none;stroke:#404040;" x1="0.5" y1="72.51" x2="108.5" y2="72.51"/>
		<line style="fill:none;stroke:#404040;" x1="0.5" y1="36.49" x2="108.5" y2="36.49"/>
		<line style="fill:none;stroke:#404040;" x1="72.5" y1="0.5" x2="72.5" y2="108.5"/>
		<line style="fill:none;stroke:#404040;" x1="36.5" y1="0.5" x2="36.5" y2="108.5"/>
	</g>
	<g id="Kanji">
		<text transform="matrix(1 0 0 1 0.5 93.3799)" style="font-size:108;">魄</text>
	</g>
	<g id="StrokeNumbers" style="font-size:8;fill:#808080">
		<text transform="matrix(1 0 0 1 19.5 14.5)">1</text>
		<text transform="matrix(1 0 0 1 5.5 41.5)">2</text>
		<text transform="matrix(1 0 0 1 25.5 32.5)">3</text>
		<text transform="matrix(1 0 0 1 18.5 52.5)">4</text>
		<text transform="matrix(1 0 0 1 18.5 73.5)">5</text>
		<text transform="matrix(1 0 0 1 56.5 11.5)">6</text>
		<text transform="matrix(1 0 0 1 40 38.5)">7</text>
		<text transform="matrix(1 0 0 1 48.5 28.5)">8</text>
		<text transform="matrix(1 0 0 1 70.5 36.5)">9</text>
		<text transform="matrix(1 0 0 1 52.5 40.5)">10</text>
		<text transform="matrix(1 0 0 1 53.5 53.5)">11</text>
		<text transform="matrix(1 0 0 1 46.5 67.5)">12</text>
		<text transform="matrix(1 0 0 1 59.25 71.5)">13</text>
		<text transform="matrix(1 0 0 1 72.5 62.5)">14</text>
		<text transform="matrix(1 0 0 1 87.5 70.5)">15</text>
	</g>
	<g id="StrokePaths" style="fill:none;stroke:#404040;stroke-width:3;stroke-linecap:round;stroke-linejoin:round;">
		<path d="M26.91,16c0.4,0.66,0.46,1.47,0.37,2.04c-0.56,3.39-5.38,11.51-9.77,16.06"/>
		<path d="M12.5,34.97c0.75,1.03,1.2,2.18,1.2,3.68c0,1.5-0.03,34.48,0.11,41.85"/>
		<path d="M13.9,37.11c1.96-0.19,16.24-2.54,18.03-2.76c1.49-0.19,2.45,1.25,2.33,2.36c-0.23,2.25-0.51,30.44-0.7,42.4"/>
		<path d="M14.12,55.86c3.18,0,6.4-0.47,9.56-0.76c1.03-0.09,2.07-0.19,3.07-0.28"/>
		<path d="M13.88,77.44c5.59-0.69,13.16-1.94,19.64-2.14"/>
		<path d="M64.46,12c0.03,0.4,0.1,1.14-0.05,1.58c-1.91,5.57-4.72,10.68-9.69,15.17"/>
		<path d="M46.25,29.67c0.28,0.55,0.28,0.92,0.44,1.6c1.24,5.59,3.27,17.51,4,27.8"/>
		<path d="M47.57,31.02c9.86-0.56,29.01-3.05,36.37-3.6c2.71-0.2,3.81,1.6,3.52,3.93c-0.68,5.46-2.06,14.94-4.44,24.72"/>
		<path d="M62.82,30.66c0.38,2.17,2.5,13.15,3.75,20.22c0.29,1.62,1.03,2.91,1.79,3.25"/>
		<path d="M49.83,43.84c7.29-0.62,14.57-1.31,21.85-1.93c0.93-0.08,1.86-0.16,2.76-0.23"/>
		<path d="M51.21,56.61c10.51-1.92,20.28-1.43,30.97-2.94"/>
		<path d="M57.5,60.25c0.28,0.76,0.87,2.27,0.41,3.48C54.75,72.1,46.09,87.99,31.75,97"/>
		<path d="M66.91,57.87c0.66,1.19,1.18,2.59,1.22,4.43c0.18,8.19-0.29,12.51-0.29,23.61c0,8.35,2.17,9.3,15.15,9.3C96.25,95.2,97,93.5,97,86.26"/>
		<path d="M81.96,60.3c0.23,0.47,0.14,2.61-0.07,3.19c-1.98,5.26-3.48,10.05-6.62,15.4c-0.99,1.7,0.08,3.4,1.49,2.82c4.91-2.02,8.55-2.99,13.32-5.11"/>
		<path d="M87.39,70.45c1.76,1.89,5.63,9.38,6.06,12.33"/>
	</g>
</svg>
