<?xml version="1.0" encoding="UTF-8"?>
<!-- Copyright (C) 2009 Ulrich Apel.
This work is distributed under the conditions of the Creative Commons
Attribution-Share Alike 3.0 Licence. This means you are free:
* to Share - to copy, distribute and transmit the work
* to Remix - to adapt the work

Under the following conditions:
* Attribution. You must attribute the work by stating your use of KanjiVG in
  your own copyright header and linking to KanjiVG's website
  (http://kanjivg.tagaini.net)
* Share Alike. If you alter, transform, or build upon this work, you may
  distribute the resulting work only under the same or similar license to this
  one.

See http://creativecommons.org/licenses/by-sa/3.0/ for more details. -->
<!DOCTYPE svg PUBLIC "-//W3C//DTD SVG 1.0//EN" "http://www.w3.org/TR/2001/REC-SVG-20010904/DTD/svg10.dtd">
<svg xmlns="http://www.w3.org/2000/svg" width="109" height="109" viewBox="0 0 109 109">
	<g id="HelperGrid" style="opacity:0.75;">
		<rect x="0.5" y="0.5" style="fill:none;stroke:#404040;" width="108" height="108"/> 
		<line style="fill:none;stroke:#404040;" x1="0.5" y1="72.51" x2="108.5" y2="72.51"/>
		<line style="fill:none;stroke:#404040;" x1="0.5" y1="36.49" x2="108.5" y2="36.49"/>
		<line style="fill:none;stroke:#404040;" x1="72.5" y1="0.5" x2="72.5" y2="108.5"/>
		<line style="fill:none;stroke:#404040;" x1="36.5" y1="0.5" x2="36.5" y2="108.5"/>
	</g>
	<g id="Kanji">
		<text transform="matrix(1 0 0 1 0.5 93.3799)" style="font-size:108;">魏</text>
	</g>
	<g id="StrokeNumbers" style="font-size:8;fill:#808080">
		<text transform="matrix(1 0 0 1 34.5 13.5)">1</text>
		<text transform="matrix(1 0 0 1 5.5 34.5)">2</text>
		<text transform="matrix(1 0 0 1 25.5 31.5)">3</text>
		<text transform="matrix(1 0 0 1 16.5 44.5)">4</text>
		<text transform="matrix(1 0 0 1 42.5 40.5)">5</text>
		<text transform="matrix(1 0 0 1 23.5 56.5)">6</text>
		<text transform="matrix(1 0 0 1 38.5 58.5)">7</text>
		<text transform="matrix(1 0 0 1 3.5835 66.5)">8</text>
		<text transform="matrix(1 0 0 1 64.249 11.6665)">9</text>
		<text transform="matrix(1 0 0 1 47.5005 39.5)">10</text>
		<text transform="matrix(1 0 0 1 56.5 25.5)">11</text>
		<text transform="matrix(1 0 0 1 74.5 34.5)">12</text>
		<text transform="matrix(1 0 0 1 60.5 37.5)">13</text>
		<text transform="matrix(1 0 0 1 62.5 50.5)">14</text>
		<text transform="matrix(1 0 0 1 55.5 62.5)">15</text>
		<text transform="matrix(1 0 0 1 64.5 75.5)">16</text>
		<text transform="matrix(1 0 0 1 77.5 60.5)">17</text>
		<text transform="matrix(1 0 0 1 90.25 71.5)">18</text>
	</g>
	<g id="StrokePaths" style="fill:none;stroke:#404040;stroke-width:3;stroke-linecap:round;stroke-linejoin:round;">
		<path d="M42.59,14c0.08,0.32,0.17,0.82-0.16,1.28c-1.92,2.7-12.96,8.62-28.06,12.24"/>
		<path d="M13.4,34.84c0.49,0.13,1.81,0.43,3.13,0.38c5.27-0.19,21.33-2.43,31.53-2.7c1.31-0.04,1.65-0.13,2.47,0"/>
		<path d="M30.89,25.03c0.54,0.3,0.87,1.34,0.98,1.94c0.11,0.6,0,21.13-0.11,24.87"/>
		<path d="M31.05,35.24C26.7,42.01,18.71,49.85,10.3,53.22"/>
		<path d="M34.26,38.17c5.24,2.58,11.24,7.33,15.58,12.28"/>
		<path d="M30.37,55.89c0.24,0.93,0.13,2.13-0.12,3.24c-1.4,6.21-3.75,12.62-7.79,18.08c-0.92,1.25-0.59,2.24,0.59,2.35c7.2,0.69,16.2,5.19,21.04,13.31"/>
		<path d="M41.91,62.89c0.09,0.81,0.17,2.8-0.18,3.97C38.77,76.88,30.68,91.1,11.86,97"/>
		<path d="M10.81,67c0.62,0.28,1.98,0.92,3.52,0.78c8.47-0.77,23.09-2.73,35.01-2.81c1.04-0.01,2.82,0.26,3.67,0.74"/>
		<path d="M72.47,11.5c0.02,0.36,0.09,1.04-0.05,1.44c-1.66,5.07-4.12,9.72-8.45,13.81"/>
		<path d="M55.42,27.89c0.24,0.53,0.25,0.89,0.38,1.54c1.09,5.39,2.93,15.39,3.57,25.31"/>
		<path d="M56.57,28.69c8.64-0.54,23.53-2.9,29.98-3.43c2.37-0.19,3.34,1.54,3.08,3.79c-0.6,5.27-0.8,15.4-2.89,24.83"/>
		<path d="M69.39,28.82c0.37,2.09,2.23,11.72,3.43,18.54c0.28,1.57,0.95,2.81,1.62,3.15"/>
		<path d="M58.11,40.54c6.73-0.63,13.45-1.36,20.16-2.07c0.83-0.09,1.64-0.17,2.42-0.26"/>
		<path d="M59.82,52.85c8.93-0.85,15.93-1.1,26.68-1.79"/>
		<path d="M65.06,57.75c0.26,0.82,0.62,2.4,0.37,3.74C63.5,72,55.75,90.75,41.75,97.25"/>
		<path d="M72.91,54.37c0.66,1.19,1.18,2.59,1.22,4.43c0.18,8.19,0.03,15.51-0.29,26.61s3.67,10.8,12.15,10.8c8.52,0,12.52-1.2,12.52-8.44"/>
		<path d="M85.74,59.72c0.22,0.42,0.14,2.33-0.07,2.84c-1.92,4.68-3.37,11.46-6.42,16.23c-0.97,1.51,0.08,3.03,1.45,2.51c3.72-1.41,5.76-2.13,11.43-4.44"/>
		<path d="M89.27,71.68c1.65,1.5,5.27,7.45,5.68,9.79"/>
	</g>
</svg>
