<?xml version="1.0" encoding="UTF-8"?>
<!DOCTYPE svg PUBLIC "-//W3C//DTD SVG 1.0//EN" "http://www.w3.org/TR/2001/REC-SVG-20010904/DTD/svg10.dtd">
<svg xmlns="http://www.w3.org/2000/svg" width="109" height="109" viewBox="0 0 109 109">
	<g id="HelperGrid" style="opacity:0.75;">
		<rect x="0.5" y="0.5" style="fill:none;stroke:#404040;" width="108" height="108"/> 
		<line style="fill:none;stroke:#404040;" x1="0.5" y1="72.51" x2="108.5" y2="72.51"/>
		<line style="fill:none;stroke:#404040;" x1="0.5" y1="36.49" x2="108.5" y2="36.49"/>
		<line style="fill:none;stroke:#404040;" x1="72.5" y1="0.5" x2="72.5" y2="108.5"/>
		<line style="fill:none;stroke:#404040;" x1="36.5" y1="0.5" x2="36.5" y2="108.5"/>
	</g>
	<g id="Kanji">
		<text transform="matrix(1 0 0 1 0.5 93.3799)" style="font-size:108;">鮒</text>
	</g>
	<g id="StrokeNumbers" style="font-size:8;fill:#808080">
		<text transform="matrix(1 0 0 1 21.5 14.5)">1</text>
		<text transform="matrix(1 0 0 1 32.5 18.5)">2</text>
		<text transform="matrix(1 0 0 1 11.5 51.5)">3</text>
		<text transform="matrix(1 0 0 1 20.5 39.8477)">4</text>
		<text transform="matrix(1 0 0 1 36.5 49.5)">5</text>
		<text transform="matrix(1 0 0 1 23.5 52.5)">6</text>
		<text transform="matrix(1 0 0 1 24.5 64.5)">7</text>
		<text transform="matrix(1 0 0 1 10.5 80.5)">8</text>
		<text transform="matrix(1 0 0 1 18.5 79.5)">9</text>
		<text transform="matrix(1 0 0 1 23.5 77.8486)">10</text>
		<text transform="matrix(1 0 0 1 34.5 75.5)">11</text>
		<text transform="matrix(1 0 0 1 54.5 14.5)">12</text>
		<text transform="matrix(1 0 0 1 50.5 60.5)">13</text>
		<text transform="matrix(1 0 0 1 65.5 38.5)">14</text>
		<text transform="matrix(1 0 0 1 74.5 13.5)">15</text>
		<text transform="matrix(1 0 0 1 63.5 63.5)">16</text>
	</g>
	<g id="StrokePaths" style="fill:none;stroke:#404040;stroke-width:3;stroke-linecap:round;stroke-linejoin:round;">
		<path d="M28,14.25c0.04,0.57,0.09,1.48-0.08,2.31c-0.97,4.86-6.54,15.53-14.18,22.06"/>
		<path d="M26.89,22.38c1.93,0,13.32-2.44,15.35-2.73c1.74-0.25,2.63,1.67,1.91,2.9c-3.05,5.19-5.98,8.66-10.95,16.9"/>
		<path d="M17.72,41.56c0.21,0.48,0.22,0.81,0.33,1.41c0.96,4.95,2.98,17.97,3.57,27.21"/>
		<path d="M18.71,43.28c7.43-1.25,22.14-3.41,27.69-4.46c2.04-0.38,3.08,0.97,2.98,2.34c-0.38,4.99-2.18,16.6-3.81,25.94"/>
		<path d="M32.14,40.87c0.84,0.62,1.49,2.63,1.51,4.23c0.11,7.06,0.02,17.05,0.02,20.55"/>
		<path d="M21.07,55.03c2.42-0.48,24.19-3.06,26.19-3.26"/>
		<path d="M22.01,67.79c5.35-0.53,16.52-1.75,23.9-2.62"/>
		<path d="M15.71,81.82c0,5.32-2.28,13.16-2.87,14.68"/>
		<path d="M23.89,79.58c1.41,2.32,2.75,8.69,3.11,12.29"/>
		<path d="M33.02,77.44c1.68,1.98,4.35,8.14,4.78,11.21"/>
		<path d="M42.05,74.87c2.1,1.81,5.42,7.46,5.95,10.28"/>
		<path d="M66.67,14.71c0.14,1.61-0.04,3.71-0.48,5.09c-2.84,8.78-6.71,19.83-13.21,30.52"/>
		<path d="M59.61,46.22c0.32,0.83,0.83,2.56,0.87,3.71c0.37,10.42-0.71,38.94-0.38,44.92"/>
		<path d="M66.34,42.06c0.87,0.64,2.45,0.41,3.32,0.24c6.04-1.19,16.71-3.4,24.96-4.18c1.44-0.14,2.31-0.1,3.03,0.22"/>
		<path d="M86.42,14.43c0.58,0.82,1.52,2.12,1.59,5.92c0.35,18.26-0.22,61.75-0.22,67.97c0,11.64-5.67,2.24-7.57,0.31"/>
		<path d="M71.02,54.2c2.28,2.08,5.88,8.58,6.45,11.82"/>
	</g>
</svg>
