<?xml version="1.0" encoding="UTF-8"?>
<!DOCTYPE svg PUBLIC "-//W3C//DTD SVG 1.0//EN" "http://www.w3.org/TR/2001/REC-SVG-20010904/DTD/svg10.dtd">
<svg xmlns="http://www.w3.org/2000/svg" width="109" height="109" viewBox="0 0 109 109">
	<g id="HelperGrid" style="opacity:0.75;">
		<rect x="0.5" y="0.5" style="fill:none;stroke:#404040;" width="108" height="108"/> 
		<line style="fill:none;stroke:#404040;" x1="0.5" y1="72.51" x2="108.5" y2="72.51"/>
		<line style="fill:none;stroke:#404040;" x1="0.5" y1="36.49" x2="108.5" y2="36.49"/>
		<line style="fill:none;stroke:#404040;" x1="72.5" y1="0.5" x2="72.5" y2="108.5"/>
		<line style="fill:none;stroke:#404040;" x1="36.5" y1="0.5" x2="36.5" y2="108.5"/>
	</g>
	<g id="Kanji">
		<text transform="matrix(1 0 0 1 0.5 93.3799)" style="font-size:108;">鯑</text>
	</g>
	<g id="StrokeNumbers" style="font-size:8;fill:#808080">
		<text transform="matrix(1 0 0 1 20.5 12.5)">1</text>
		<text transform="matrix(1 0 0 1 32.5 15.5)">2</text>
		<text transform="matrix(1 0 0 1 10.5 47.5)">3</text>
		<text transform="matrix(1 0 0 1 20.5 35.5)">4</text>
		<text transform="matrix(1 0 0 1 33.5 45.5)">5</text>
		<text transform="matrix(1 0 0 1 21.5 49.5)">6</text>
		<text transform="matrix(1 0 0 1 23.5 64.5)">7</text>
		<text transform="matrix(1 0 0 1 9.5 79.5)">8</text>
		<text transform="matrix(1 0 0 1 18.5 83.5)">9</text>
		<text transform="matrix(1 0 0 1 25.5 82.5)">10</text>
		<text transform="matrix(1 0 0 1 33.5 78.5)">11</text>
		<text transform="matrix(1 0 0 1 73.5 9.5)">12</text>
		<text transform="matrix(1 0 0 1 52.5 13.5)">13</text>
		<text transform="matrix(1 0 0 1 59.5 36.5)">14</text>
		<text transform="matrix(1 0 0 1 47.5 40.0791)">15</text>
		<text transform="matrix(1 0 0 1 53.5 77.5)">16</text>
		<text transform="matrix(1 0 0 1 65.5 58.5)">17</text>
		<text transform="matrix(1 0 0 1 80.25 49.5)">18</text>
	</g>
	<g id="StrokePaths" style="fill:none;stroke:#404040;stroke-width:3;stroke-linecap:round;stroke-linejoin:round;">
		<path d="M27.99,12.25c0.05,0.59,0.29,1.59-0.1,2.38C25,20.5,19.5,29.75,10.99,37.37"/>
		<path d="M25.89,19.38c1.93,0,10.32-1.94,12.35-2.23c1.74-0.25,2.63,2.17,1.91,3.4c-3.05,5.19-4.48,8.16-9.45,16.4"/>
		<path d="M15.95,38.38c0.2,0.52,0.18,0.87,0.3,1.51c1.24,6.61,2.62,19.58,3.03,29.36"/>
		<path d="M16.91,40.25c7.4-0.82,19.06-3.27,24.58-4c2.03-0.27,3.04,1.23,2.91,2.66c-0.48,5.24-1.01,18.97-2.81,28.71"/>
		<path d="M28.77,38.58c0.82,0.71,1.42,2.88,1.42,4.56c-0.02,7.45,0.2,19.98,0.13,23.67"/>
		<path d="M18.52,52.77c5.39-0.77,10.81-1.33,16.21-1.95c0.65-0.07,1.27-0.14,1.88-0.21"/>
		<path d="M19.72,67.76c5.32-0.2,14.44-1.79,21.78-2.21"/>
		<path d="M15.02,79.07c0,5.23-2.18,12.94-2.74,14.43"/>
		<path d="M23.89,79.83c1.08,2.36,2.1,8.87,2.37,12.54"/>
		<path d="M31.75,77.69c1.79,1.93,4.62,7.95,5.07,10.96"/>
		<path d="M39.3,75.12c2.01,1.77,5.2,7.28,5.7,10.03"/>
		<path d="M84.65,10.68c0.22,1.19-0.27,1.87-1.11,2.67c-7.16,6.84-17.4,14.93-29.83,19.59"/>
		<path d="M58.66,16.47c10.86,1.52,23.45,8.79,30.17,17.28"/>
		<path d="M69.53,32.67c0.06,0.96-0.1,2.55-0.47,3.85c-2.83,10-8.01,23.76-19.12,36.88"/>
		<path d="M48.39,43.04c1.32,0.58,3.74,0.73,5.06,0.58C64,42.5,80.25,40,93.08,38.69c2.19-0.22,3.52,0.28,4.62,0.57"/>
		<path d="M60.85,60.1c0.36,0.3,1.13,2.21,1.2,2.8c0.07,0.59,0.45,24.75,0.38,28.44"/>
		<path d="M61.94,61.79c2.26-0.21,26.45-3.82,28.14-3.95c1.99-0.15,3.2,1.41,3.2,3.95c0,9.09-0.03,15.88-0.03,22.65c0,10.55-5.4,2.55-6.15,1.51"/>
		<path d="M76.36,47c0.36,0.3,1.13,2.21,1.2,2.8c0.07,0.59-0.05,46.51-0.12,50.2"/>
	</g>
</svg>
