<?xml version="1.0" encoding="UTF-8"?>
<!DOCTYPE svg PUBLIC "-//W3C//DTD SVG 1.0//EN" "http://www.w3.org/TR/2001/REC-SVG-20010904/DTD/svg10.dtd">
<svg xmlns="http://www.w3.org/2000/svg" width="109" height="109" viewBox="0 0 109 109">
	<g id="HelperGrid" style="opacity:0.75;">
		<rect x="0.5" y="0.5" style="fill:none;stroke:#404040;" width="108" height="108"/> 
		<line style="fill:none;stroke:#404040;" x1="0.5" y1="72.51" x2="108.5" y2="72.51"/>
		<line style="fill:none;stroke:#404040;" x1="0.5" y1="36.49" x2="108.5" y2="36.49"/>
		<line style="fill:none;stroke:#404040;" x1="72.5" y1="0.5" x2="72.5" y2="108.5"/>
		<line style="fill:none;stroke:#404040;" x1="36.5" y1="0.5" x2="36.5" y2="108.5"/>
	</g>
	<g id="Kanji">
		<text transform="matrix(1 0 0 1 0.5 93.3799)" style="font-size:108;">鰯</text>
	</g>
	<g id="StrokeNumbers" style="font-size:8;fill:#808080">
		<text transform="matrix(1 0 0 1 18.5 13.5)">1</text>
		<text transform="matrix(1 0 0 1 32.5 20.5)">2</text>
		<text transform="matrix(1 0 0 1 9.5 49.8481)">3</text>
		<text transform="matrix(1 0 0 1 20.5 39.5)">4</text>
		<text transform="matrix(1 0 0 1 33.5 48.5)">5</text>
		<text transform="matrix(1 0 0 1 21.5 52.5)">6</text>
		<text transform="matrix(1 0 0 1 22.5 65.5)">7</text>
		<text transform="matrix(1 0 0 1 11.5 78.5)">8</text>
		<text transform="matrix(1 0 0 1 18.5 77.499)">9</text>
		<text transform="matrix(1 0 0 1 22.5 77.5)">10</text>
		<text transform="matrix(1 0 0 1 32.1006 75.5)">11</text>
		<text transform="matrix(1 0 0 1 49.5 16.5)">12</text>
		<text transform="matrix(1 0 0 1 53.5 32.5)">13</text>
		<text transform="matrix(1 0 0 1 47.5 42.5)">14</text>
		<text transform="matrix(1 0 0 1 54.25 60.3291)">15</text>
		<text transform="matrix(1 0 0 1 47.5 75.5)">16</text>
		<text transform="matrix(1 0 0 1 73.5 13.5)">17</text>
		<text transform="matrix(1 0 0 1 74.5 29.5)">18</text>
		<text transform="matrix(1 0 0 1 68.5 42.5)">19</text>
		<text transform="matrix(1 0 0 1 80.5 57.5)">20</text>
		<text transform="matrix(1 0 0 1 72.5 75.5)">21</text>
	</g>
	<g id="StrokePaths" style="fill:none;stroke:#404040;stroke-width:3;stroke-linecap:round;stroke-linejoin:round;">
		<path d="M26.82,12.25c0.05,0.69,0.1,1.78-0.09,2.77c-1.13,5.83-7.61,18.63-16.5,26.47"/>
		<path d="M23.83,24.21c0.45,0,1.95,0.36,3.23,0.13c4.34-0.75,11.52-2.92,13.13-3.12c1.79-0.23,2.2,1.98,1.45,3.1c-3.15,4.73-6.24,9.27-11.37,16.78"/>
		<path d="M15.54,41.83c0.2,0.46,0.71,1.78,0.82,2.37c0.8,4.15,1.65,14.14,2.23,22.55c0.09,1.31,0.18,2.59,0.25,3.79"/>
		<path d="M17,43.49c1.07-0.18,2.26-0.37,3.53-0.56c7.27-1.1,17.18-2.36,21.73-3.22c1.96-0.37,2.97,0.94,2.87,2.26c-0.32,4.19-1.3,13.89-2.58,22.29c-0.2,1.3-0.4,2.57-0.61,3.78"/>
		<path d="M29.46,42.16c0.81,0.6,1.43,2.55,1.46,4.1c0.11,6.83,0.02,16.51,0.02,19.9"/>
		<path d="M18.79,55.37c5.44-1.09,11.19-1.28,16.71-1.83c0.67-0.07,1.32-0.13,1.94-0.19"/>
		<path d="M19.21,68.23c5.16-0.51,15.93-1.66,23.06-2.5"/>
		<path d="M16.77,81.1c0,4.85-3.12,12.02-3.94,13.4"/>
		<path d="M24.06,78.83c1.04,2.4,2.03,9,2.29,12.74"/>
		<path d="M32.18,77.67c1.75,2.05,4.52,8.45,4.96,11.64"/>
		<path d="M40.97,75.31c1.96,1.84,5.07,7.58,5.55,10.45"/>
		<path d="M50.81,19.41c0.65,1.31,2.76,0.7,3.58,0.45c0.83-0.24,11.18-2.39,12.83-3.12c1.66-0.73,2.62-0.26,2.12,1.68c-0.5,1.94-1.85,10.08-3.05,14.28"/>
		<path d="M57.25,36.25c1.75,0,6.5-1.5,7.75-1.5s2.5-0.5,3.5-0.5"/>
		<path d="M56.1,35.62c0.39,0.97,0.74,2.1,0.49,3.63C56.3,41,52.52,49.33,52.13,50.06c-1.17,2.19-0.12,3.41,1.03,2.91c2.75-1.22,11-2.91,13.12-3.08c1.72-0.14,2.34,1.27,2.41,4.6C69,69.5,68.55,82.9,64.64,93.58c-1.53,4.17-4.64,2.17-7.13-0.53"/>
		<path d="M52.75,60.5c2.17,1.32,5.6,5.43,6.14,7.49"/>
		<path d="M51,79.6c1.2,1,2.76,0.84,3.6,0c0.82-0.82,4.25-4.49,9.08-8.6"/>
		<path d="M74.81,16.41c0.65,1.31,2.76,0.7,3.58,0.45c0.83-0.24,11.18-2.39,12.83-3.12c1.66-0.73,2.62-0.26,2.12,1.68c-0.5,1.94-1.85,10.08-3.05,14.28"/>
		<path d="M80.75,32.75c1.75,0,6.5-1.5,7.75-1.5s2.5-0.5,3.5-0.5"/>
		<path d="M78.6,32.62c0.39,0.97,0.74,2.1,0.49,3.63c-0.29,1.76-2.57,9.09-2.96,9.82c-1.17,2.19-0.12,3.41,1.03,2.91c2.75-1.22,13-2.91,15.12-3.08c1.72-0.14,2.34,1.27,2.41,4.6C95,65.5,93.55,81.9,89.64,92.58c-1.53,4.17-4.64,2.17-7.13-0.53"/>
		<path d="M78.25,57.5c2.34,1.5,6.06,6.16,6.64,8.49"/>
		<path d="M75.5,80.1c1.2,1,2.76,0.84,3.6,0c0.82-0.82,4.25-4.49,9.08-8.6"/>
	</g>
</svg>
