<?xml version="1.0" encoding="UTF-8"?>
<!DOCTYPE svg PUBLIC "-//W3C//DTD SVG 1.0//EN" "http://www.w3.org/TR/2001/REC-SVG-20010904/DTD/svg10.dtd">
<svg xmlns="http://www.w3.org/2000/svg" width="109" height="109" viewBox="0 0 109 109">
	<g id="HelperGrid" style="opacity:0.75;">
		<rect x="0.5" y="0.5" style="fill:none;stroke:#404040;" width="108" height="108"/> 
		<line style="fill:none;stroke:#404040;" x1="0.5" y1="72.51" x2="108.5" y2="72.51"/>
		<line style="fill:none;stroke:#404040;" x1="0.5" y1="36.49" x2="108.5" y2="36.49"/>
		<line style="fill:none;stroke:#404040;" x1="72.5" y1="0.5" x2="72.5" y2="108.5"/>
		<line style="fill:none;stroke:#404040;" x1="36.5" y1="0.5" x2="36.5" y2="108.5"/>
	</g>
	<g id="Kanji">
		<text transform="matrix(1 0 0 1 0.5 93.3799)" style="font-size:108;">鳩</text>
	</g>
	<g id="StrokeNumbers" style="font-size:8;fill:#808080">
		<text transform="matrix(1 0 0 1 18.25 16.25)">1</text>
		<text transform="matrix(1 0 0 1 5.5 39.5547)">2</text>
		<text transform="matrix(1 0 0 1 52.25 32.25)">3</text>
		<text transform="matrix(1 0 0 1 63.25 10.1543)">4</text>
		<text transform="matrix(1 0 0 1 75.25 21.25)">5</text>
		<text transform="matrix(1 0 0 1 65.1982 33.25)">6</text>
		<text transform="matrix(1 0 0 1 65.25 43.9297)">7</text>
		<text transform="matrix(1 0 0 1 65.2139 54.8535)">8</text>
		<text transform="matrix(1 0 0 1 65.2061 64.7793)">9</text>
		<text transform="matrix(1 0 0 1 44.5 89.25)">10</text>
		<text transform="matrix(1 0 0 1 56.25 88.25)">11</text>
		<text transform="matrix(1 0 0 1 63.5 84.25)">12</text>
		<text transform="matrix(1 0 0 1 73.25 80.25)">13</text>
	</g>
	<g id="StrokePaths" style="fill:none;stroke:#404040;stroke-width:3;stroke-linecap:round;stroke-linejoin:round;">
		<path d="M27.14,16.12c0.23,1.61,0.61,2.48,0.63,3.6C28.15,59.58,23.07,77.09,10.25,90"/>
		<path d="M13.75,39.42c0.55,0.64,2.59,0.21,3.28,0S37.94,33.05,38.56,33c1.37-0.11,2.74-0.19,2.32,2.19c-0.61,3.51-2.21,19.91-3.32,28.47C35.64,78.32,38,79.12,43.73,79.12c5.52,0,7.11-0.48,7.25-8.18"/>
		<path d="M72.38,10.93c0.02,0.3,0.04,0.77-0.04,1.19c-0.51,2.51-3.44,8.01-7.45,11.38"/>
		<path d="M59.29,25.32c0.36,0.38,0.64,0.9,0.64,1.55c0,6.64,0.04,32.13-0.18,42.58"/>
		<path d="M60.38,26.47c1.67-0.1,21.98-3.73,23.6-3.73c2.4,0,3.57,1.76,3.36,3.49c-0.13,1.06-1.76,10.88-3.31,19.02"/>
		<path d="M60.65,36.44c4.06,0,8.37-1.1,12.37-1.69c1.42-0.21,2.85-0.42,4.2-0.62"/>
		<path d="M60.55,47.03c4.16-0.38,18.28-2.88,23.46-3.2"/>
		<path d="M60.78,57.8c8.78-1.3,28.26-3.84,32.03-4.55c1.31-0.25,4.04-0.03,4.71,0.15"/>
		<path d="M59.77,69.65c9.76-2.09,24.41-3.64,29.82-4.4c3.52-0.5,5.33,2.33,4.69,5.75c-1.76,9.5-3.05,15.96-5.93,22c-2.74,5.75-4.89,3.25-7.82,0.25"/>
		<path d="M54.29,82.5c0.38,4.41-0.28,9.74-1.41,12.5"/>
		<path d="M60.33,80.75c1.89,1.56,3.69,5.87,4.16,8.3"/>
		<path d="M69.21,76.5c1.59,1.41,4.1,5.8,4.5,8"/>
		<path d="M77.97,72.75c1.93,1.41,4.99,5.8,5.48,8"/>
	</g>
</svg>
