<?xml version="1.0" encoding="UTF-8"?>
<!DOCTYPE svg PUBLIC "-//W3C//DTD SVG 1.0//EN" "http://www.w3.org/TR/2001/REC-SVG-20010904/DTD/svg10.dtd">
<svg xmlns="http://www.w3.org/2000/svg" width="109" height="109" viewBox="0 0 109 109">
	<g id="HelperGrid" style="opacity:0.75;">
		<rect x="0.5" y="0.5" style="fill:none;stroke:#404040;" width="108" height="108"/> 
		<line style="fill:none;stroke:#404040;" x1="0.5" y1="72.51" x2="108.5" y2="72.51"/>
		<line style="fill:none;stroke:#404040;" x1="0.5" y1="36.49" x2="108.5" y2="36.49"/>
		<line style="fill:none;stroke:#404040;" x1="72.5" y1="0.5" x2="72.5" y2="108.5"/>
		<line style="fill:none;stroke:#404040;" x1="36.5" y1="0.5" x2="36.5" y2="108.5"/>
	</g>
	<g id="Kanji">
		<text transform="matrix(1 0 0 1 0.5 93.3799)" style="font-size:108;">鳳</text>
	</g>
	<g id="StrokeNumbers" style="font-size:8;fill:#808080">
		<text transform="matrix(1 0 0 1 20.25 24.25)">1</text>
		<text transform="matrix(1 0 0 1 30.25 15.25)">2</text>
		<text transform="matrix(1 0 0 1 37.25 25.25)">3</text>
		<text transform="matrix(1 0 0 1 41.25 34.6543)">4</text>
		<text transform="matrix(1 0 0 1 31.5 48.5791)">5</text>
		<text transform="matrix(1 0 0 1 52.5 36.25)">6</text>
		<text transform="matrix(1 0 0 1 44.25 46.25)">7</text>
		<text transform="matrix(1 0 0 1 44.2188 53.25)">8</text>
		<text transform="matrix(1 0 0 1 44.2119 62.25)">9</text>
		<text transform="matrix(1 0 0 1 42.7661 70.2041)">10</text>
		<text transform="matrix(1 0 0 1 22.25 83.25)">11</text>
		<text transform="matrix(1 0 0 1 31.25 82.25)">12</text>
		<text transform="matrix(1 0 0 1 41.5 80.25)">13</text>
		<text transform="matrix(1 0 0 1 51.25 77.25)">14</text>
	</g>
	<g id="StrokePaths" style="fill:none;stroke:#404040;stroke-width:3;stroke-linecap:round;stroke-linejoin:round;">
		<path d="M25.76,16.76c0.99,1.49,1.37,2.68,1.37,5.25c0,23.51,0.62,52.24-16.88,70.49"/>
		<path d="M27,18.92c13-1.42,45.25-5.42,49.25-5.42s4.33,0.55,4,4.76C78.5,40.25,78,68,91.75,88.3c6.06,8.95,5.75,3.87,6-3.32"/>
		<path d="M36,26.72c0.58,0.31,1.65,0.38,2.23,0.31c4.52-0.53,22.52-2.53,26.73-3.16c0.96-0.14,1.55,0.15,2.04,0.3"/>
		<path d="M49.8,28.93c0.02,0.2,0.03,0.53-0.03,0.82c-0.39,1.74-2.62,5.55-5.68,7.88"/>
		<path d="M39.85,38.65c0.31,0.29,0.56,1.68,0.56,2.18c0,5.06-0.97,24.52-1.15,32.5"/>
		<path d="M40.79,40.52c1.45-0.07,20.12-3.73,21.53-3.73c2.09,0,3.11,1.34,2.92,2.66c-0.12,0.81-0.5,8.29-0.88,15.64"/>
		<path d="M41.02,47.75c3.87,0,7.94-0.96,11.76-1.48c1.36-0.19,2.73-0.37,4.02-0.54"/>
		<path d="M40.94,55.84c3.62-0.29,18.91-2.08,23.41-2.33"/>
		<path d="M40.64,64.06c7.64-0.99,23.96-3.69,27.24-4.24c1.14-0.19,3.08-0.41,3.66-0.27"/>
		<path d="M39.26,73.48c8.49-1.59,24.51-4.3,29.22-4.89c3.06-0.38,4.63,1.78,4.08,4.39c-1.53,7.25-3.96,14.47-6.47,19.08c-2.38,4.39-4.26,2.48-6.81,0.19"/>
		<path d="M28.75,81.03c0.42,4.14-0.3,9.14-1.54,11.72"/>
		<path d="M38.1,80.19c1.69,1.65,3.28,6.18,3.71,8.74"/>
		<path d="M49.4,77.84c1.47,1.21,3.79,4.97,4.16,6.86"/>
		<path d="M59.01,75.55c1.68,1.13,4.34,4.66,4.76,6.43"/>
	</g>
</svg>
