<?xml version="1.0" encoding="UTF-8"?>
<!DOCTYPE svg PUBLIC "-//W3C//DTD SVG 1.0//EN" "http://www.w3.org/TR/2001/REC-SVG-20010904/DTD/svg10.dtd">
<svg xmlns="http://www.w3.org/2000/svg" width="109" height="109" viewBox="0 0 109 109">
	<g id="HelperGrid" style="opacity:0.75;">
		<rect x="0.5" y="0.5" style="fill:none;stroke:#404040;" width="108" height="108"/> 
		<line style="fill:none;stroke:#404040;" x1="0.5" y1="72.51" x2="108.5" y2="72.51"/>
		<line style="fill:none;stroke:#404040;" x1="0.5" y1="36.49" x2="108.5" y2="36.49"/>
		<line style="fill:none;stroke:#404040;" x1="72.5" y1="0.5" x2="72.5" y2="108.5"/>
		<line style="fill:none;stroke:#404040;" x1="36.5" y1="0.5" x2="36.5" y2="108.5"/>
	</g>
	<g id="Kanji">
		<text transform="matrix(1 0 0 1 0.5 93.3799)" style="font-size:108;">鴎</text>
	</g>
	<g id="StrokeNumbers" style="font-size:8;fill:#808080">
		<text transform="matrix(1 0 0 1 17.5 20.5)">1</text>
		<text transform="matrix(1 0 0 1 33.5 31.5)">2</text>
		<text transform="matrix(1 0 0 1 20.5 50.5)">3</text>
		<text transform="matrix(1 0 0 1 7.25 29.4043)">4</text>
		<text transform="matrix(1 0 0 1 59.5 8.3291)">5</text>
		<text transform="matrix(1 0 0 1 49.5 29.2549)">6</text>
		<text transform="matrix(1 0 0 1 57.25 19.5)">7</text>
		<text transform="matrix(1 0 0 1 61.25 30.5)">8</text>
		<text transform="matrix(1 0 0 1 61.5 42.5)">9</text>
		<text transform="matrix(1 0 0 1 59.5 54.5)">10</text>
		<text transform="matrix(1 0 0 1 59.5 66.5)">11</text>
		<text transform="matrix(1 0 0 1 44.5 79.8047)">12</text>
		<text transform="matrix(1 0 0 1 53.5 77.7285)">13</text>
		<text transform="matrix(1 0 0 1 61.5 76.5)">14</text>
		<text transform="matrix(1 0 0 1 70.5 75.5)">15</text>
	</g>
	<g id="StrokePaths" style="fill:none;stroke:#404040;stroke-width:3;stroke-linecap:round;stroke-linejoin:round;">
		<path d="M12.9,22.45c0.88,0.52,2.48,0.61,3.36,0.52C25.39,22.09,35.5,21,44.52,19.9c1.47-0.18,3.22-0.28,3.95-0.02"/>
		<path d="M41.36,29.45c0.34,1.14,0.75,2.05,0.17,4.05c-5.28,18.25-11.78,33-20.64,43.1"/>
		<path d="M24.21,41.81c7.61,6.3,16.24,20.93,20.84,31.08"/>
		<path d="M15.14,23.8c0,3.58,0,58.09,0,61.44c0,6.03,0.57,3.69,1.59,3.57c5.77-0.67,23.3-3.39,25.17-3.39s3.46-0.31,4.62,0.14"/>
		<path d="M68.38,9.91c0.02,0.28,0.04,0.72-0.03,1.1c-0.42,2.3-2.85,7.23-6.16,10.09"/>
		<path d="M56.62,21.58c0.35,0.43,0.62,1.01,0.62,1.71c0,7.17-0.46,35.22-0.67,46.49"/>
		<path d="M57.67,22.89c1.62,0,21.83-3.14,23.4-3.03c2.33,0.16,3.46,2.13,3.25,3.98c-0.13,1.14-1.71,13.08-3.21,21.78"/>
		<path d="M57.93,34.12c3.95,0.27,8.36-0.82,12.25-1.29c1.41-0.17,2.83-0.34,4.17-0.5"/>
		<path d="M57.83,46.06c4.03-0.14,18.25-2.46,23.27-2.48"/>
		<path d="M58.06,58.2c8.51-0.83,27.33-2.83,30.99-3.35c1.27-0.18,3.44-0.35,4.08-0.1"/>
		<path d="M56.58,70c9.46-1.62,30.16-3.89,35.41-4.37c3.42-0.31,5.17,0.88,4.55,4.53c-1.71,10.15-4.24,19.79-7.21,26.03c-2.98,6.27-6.21,1.04-7.59-0.24"/>
		<path d="M52.41,81.63c0.46,4.13-0.33,9.07-1.7,11.6"/>
		<path d="M59.7,80.15c1.91,1.82,3.72,6.61,4.2,9.29"/>
		<path d="M69.93,78.46c1.39,1.4,3.6,5.63,3.95,7.7"/>
		<path d="M79.23,76.17c1.78,1.34,4.6,5.37,5.05,7.33"/>
	</g>
</svg>
