<?xml version="1.0" encoding="UTF-8"?>
<!DOCTYPE svg PUBLIC "-//W3C//DTD SVG 1.0//EN" "http://www.w3.org/TR/2001/REC-SVG-20010904/DTD/svg10.dtd">
<svg xmlns="http://www.w3.org/2000/svg" width="109" height="109" viewBox="0 0 109 109">
	<g id="HelperGrid" style="opacity:0.75;">
		<rect x="0.5" y="0.5" style="fill:none;stroke:#404040;" width="108" height="108"/> 
		<line style="fill:none;stroke:#404040;" x1="0.5" y1="72.51" x2="108.5" y2="72.51"/>
		<line style="fill:none;stroke:#404040;" x1="0.5" y1="36.49" x2="108.5" y2="36.49"/>
		<line style="fill:none;stroke:#404040;" x1="72.5" y1="0.5" x2="72.5" y2="108.5"/>
		<line style="fill:none;stroke:#404040;" x1="36.5" y1="0.5" x2="36.5" y2="108.5"/>
	</g>
	<g id="Kanji">
		<text transform="matrix(1 0 0 1 0.5 93.3799)" style="font-size:108;">鵁</text>
	</g>
	<g id="StrokeNumbers" style="font-size:8;fill:#808080">
		<text transform="matrix(1 0 0 1 21.5 13.5)">1</text>
		<text transform="matrix(1 0 0 1 4.5 30.5)">2</text>
		<text transform="matrix(1 0 0 1 15.5 39.5)">3</text>
		<text transform="matrix(1 0 0 1 45.5 35.4043)">4</text>
		<text transform="matrix(1 0 0 1 33.5 44.5)">5</text>
		<text transform="matrix(1 0 0 1 22.5 54.5)">6</text>
		<text transform="matrix(1 0 0 1 62.5 9.5)">7</text>
		<text transform="matrix(1 0 0 1 52.5 34)">8</text>
		<text transform="matrix(1 0 0 1 60 22.5)">9</text>
		<text transform="matrix(1 0 0 1 64 33.5)">10</text>
		<text transform="matrix(1 0 0 1 64.5 45.5)">11</text>
		<text transform="matrix(1 0 0 1 64.5 56.5)">12</text>
		<text transform="matrix(1 0 0 1 64.5 67.2988)">13</text>
		<text transform="matrix(1 0 0 1 40.5 88.5)">14</text>
		<text transform="matrix(1 0 0 1 52.75 84.6494)">15</text>
		<text transform="matrix(1 0 0 1 61 80.8242)">16</text>
		<text transform="matrix(1 0 0 1 69.75 77.5)">17</text>
	</g>
	<g id="StrokePaths" style="fill:none;stroke:#404040;stroke-width:3;stroke-linecap:round;stroke-linejoin:round;">
		<path d="M26.85,14.5c2.95,1.29,6.59,5.37,7.79,8.82"/>
		<path d="M11.84,31.51c0.79,0.08,2.6,0.49,3.38,0.41C24.5,31,39.83,28.19,48.68,27.2c1.3-0.15,1.98,0.04,2.95,0.52"/>
		<path d="M23.48,36.01c0.26,0.74-0.01,2.47-0.63,3.68c-2.44,4.79-6.85,9.98-11.84,14.16"/>
		<path d="M39.17,34.11c5.22,3.44,9.52,7.41,12.13,11.58"/>
		<path d="M41.26,45.61c0.37,1.03,0.51,2.86-0.12,4.72C35.31,67.58,25.33,82.8,12.52,92.12"/>
		<path d="M21.38,56.35c7.17,2.67,16.94,13.29,23.04,23.95"/>
		<path d="M70.24,10.25c0.01,0.34,0.03,0.88-0.03,1.36c-0.34,2.83-2.28,8.9-4.93,12.43"/>
		<path d="M58.99,23.27c0.33,0.43,0.6,1.02,0.6,1.73c0,7.23,0.04,35.01-0.17,46.38"/>
		<path d="M60,26.09c1.55,0,21.5-3.17,23.01-3.06c2.24,0.16,3.33,2.15,3.13,4.02C86.02,28.2,85,39.74,83.56,48.51"/>
		<path d="M60.25,36.93c3.86,0.28,8.22-0.83,12.03-1.3c1.39-0.17,2.78-0.34,4.1-0.5"/>
		<path d="M60.16,48.96c3.88-0.14,18.55-2.48,23.38-2.5"/>
		<path d="M60.38,60.21c8.18-0.84,26.79-2.86,30.3-3.38c1.22-0.19,3.3-0.35,3.92-0.11"/>
		<path d="M59.43,71.6c9.1-1.63,26.63-3.42,31.67-3.9c3.28-0.31,4.97,0.89,4.38,4.57c-1.64,10.24-4.08,19.96-6.93,26.25c-2.86,6.33-5.97,1.04-7.3-0.24"/>
		<path d="M52.46,83.58C52,87.5,51.25,92.25,49.5,95.02"/>
		<path d="M60.51,81.84c1.38,2.13,2.7,7.74,3.04,10.87"/>
		<path d="M69.9,79.88c1.34,1.64,3.46,6.59,3.8,9.01"/>
		<path d="M78.35,76.57c1.54,1.49,3.97,5.96,4.36,8.14"/>
	</g>
</svg>
