<?xml version="1.0" encoding="UTF-8"?>
<!DOCTYPE svg PUBLIC "-//W3C//DTD SVG 1.0//EN" "http://www.w3.org/TR/2001/REC-SVG-20010904/DTD/svg10.dtd">
<svg xmlns="http://www.w3.org/2000/svg" width="109" height="109" viewBox="0 0 109 109">
	<g id="HelperGrid" style="opacity:0.75;">
		<rect x="0.5" y="0.5" style="fill:none;stroke:#404040;" width="108" height="108"/> 
		<line style="fill:none;stroke:#404040;" x1="0.5" y1="72.51" x2="108.5" y2="72.51"/>
		<line style="fill:none;stroke:#404040;" x1="0.5" y1="36.49" x2="108.5" y2="36.49"/>
		<line style="fill:none;stroke:#404040;" x1="72.5" y1="0.5" x2="72.5" y2="108.5"/>
		<line style="fill:none;stroke:#404040;" x1="36.5" y1="0.5" x2="36.5" y2="108.5"/>
	</g>
	<g id="Kanji">
		<text transform="matrix(1 0 0 1 0.5 93.3799)" style="font-size:108;">鷂</text>
	</g>
	<g id="StrokeNumbers" style="font-size:8;fill:#808080">
		<text transform="matrix(1 0 0 1 27.5 13.5)">1</text>
		<text transform="matrix(1 0 0 1 37.5 17.5)">2</text>
		<text transform="matrix(1 0 0 1 33.5 28.5)">3</text>
		<text transform="matrix(1 0 0 1 16.5 42.5)">4</text>
		<text transform="matrix(1 0 0 1 16.5 58.5)">5</text>
		<text transform="matrix(1 0 0 1 31.5 50.5)">6</text>
		<text transform="matrix(1 0 0 1 5.25 69.1797)">7</text>
		<text transform="matrix(1 0 0 1 24.5 62.5)">8</text>
		<text transform="matrix(1 0 0 1 10.5 78.5)">9</text>
		<text transform="matrix(1 0 0 1 35.5 75.9541)">10</text>
		<text transform="matrix(1 0 0 1 63.5 11.5)">11</text>
		<text transform="matrix(1 0 0 1 50.5 28.5)">12</text>
		<text transform="matrix(1 0 0 1 59.5 20.5)">13</text>
		<text transform="matrix(1 0 0 1 64 31.5)">14</text>
		<text transform="matrix(1 0 0 1 64.5 42.5)">15</text>
		<text transform="matrix(1 0 0 1 64.5 53.5)">16</text>
		<text transform="matrix(1 0 0 1 64.5 65.5)">17</text>
		<text transform="matrix(1 0 0 1 48.5 75.5)">18</text>
		<text transform="matrix(1 0 0 1 55.5 84.5)">19</text>
		<text transform="matrix(1 0 0 1 63.5 80.2041)">20</text>
		<text transform="matrix(1 0 0 1 73.5 76.5)">21</text>
	</g>
	<g id="StrokePaths" style="fill:none;stroke:#404040;stroke-width:3;stroke-linecap:round;stroke-linejoin:round;">
		<path d="M32.9,13c0.8,0.88,0.18,2.9-0.54,4.05C28.77,22.79,20.5,31.5,11.9,36.83"/>
		<path d="M31.78,21.01c1.15,0.44,1.09,1,2.71,0.55c4.76-1.32,8.61-2.75,11.24-3.5c2.1-0.6,3.53,1.33,2.41,3.38C43.27,30.4,30.75,46.5,11.13,54.11"/>
		<path d="M27.61,27.69c1.05,0.53,5.26,3.74,7.36,6.94"/>
		<path d="M18.95,33.84c1.31,1.16,5.26,6.09,6.35,8.69"/>
		<path d="M28.26,45.48c0.03,0.43,0.19,1.15-0.07,1.72C26.25,51.5,22,58.75,16.43,63.65"/>
		<path d="M25.29,53.86c0.47,0.19,1.34,0.23,1.82,0.19c5.82-0.53,12.59-2.58,17.81-3.26c0.78-0.1,1.26,0.09,1.66,0.19"/>
		<path d="M12.32,68.11c0.97,0.27,3.26,0.37,4.24,0.27c11.2-1.13,20.95-2.13,32.23-3.58c1.61-0.21,2.6,0.13,3.41,0.26"/>
		<path d="M30.72,55.83c0.47,0.69,1.02,1.19,1.02,2.13c0,3.32-0.63,21.04-0.63,28.47"/>
		<path d="M17.84,76.64c0.38,0.22,0.77,1.18,0.76,1.63c-0.04,2.82-0.98,5.12-1.57,9.99c-0.12,1.03-0.15,2.2,0.76,1.88C26.75,87,41.19,85,45.99,84.87"/>
		<path d="M46.03,72.95c0.38,0.23,0.83,1.68,0.76,2.13c-0.38,2.76-0.71,7.81-1.03,13.55"/>
		<path d="M73.04,11.16c0.02,0.27,0.04,0.71-0.04,1.09c-0.51,2.27-3.42,7.13-7.42,9.95"/>
		<path d="M60.3,22.92c0.33,0.43,0.6,1.02,0.6,1.73c0,7.23,0.04,32.51-0.17,43.88"/>
		<path d="M61.31,24.25c1.55,0,20.5-3.17,22.01-3.06c2.24,0.16,3.33,2.15,3.13,4.02c-0.12,1.15-0.64,11.69-2.08,20.46"/>
		<path d="M61.56,34.58c1.9,0.13,21.6-2.74,23.75-2.59"/>
		<path d="M61.47,45.62c3.88-0.14,18.05-2.48,22.88-2.5"/>
		<path d="M61.69,56.36c8.18-0.84,26.29-2.86,29.8-3.38c1.22-0.19,3.3-0.35,3.92-0.11"/>
		<path d="M60.74,68.75c9.1-1.63,25.13-3.42,30.17-3.9c3.28-0.31,4.97,0.89,4.38,4.57c-1.64,10.24-4.08,19.96-6.93,26.25c-2.86,6.33-5.97,1.04-7.3-0.24"/>
		<path d="M54.1,77.23c0.52,4.6-0.38,10.12-1.91,12.94"/>
		<path d="M60.82,77.24c1.38,2.38,2.7,8.63,3.04,12.12"/>
		<path d="M70.22,76.79c1.51,1.69,3.89,6.78,4.27,9.26"/>
		<path d="M79.91,74.98c1.63,1.71,4.2,6.88,4.61,9.39"/>
	</g>
</svg>
