<?xml version="1.0" encoding="UTF-8"?>
<!DOCTYPE svg PUBLIC "-//W3C//DTD SVG 1.0//EN" "http://www.w3.org/TR/2001/REC-SVG-20010904/DTD/svg10.dtd">
<svg xmlns="http://www.w3.org/2000/svg" width="109" height="109" viewBox="0 0 109 109">
	<g id="HelperGrid" style="opacity:0.75;">
		<rect x="0.5" y="0.5" style="fill:none;stroke:#404040;" width="108" height="108"/> 
		<line style="fill:none;stroke:#404040;" x1="0.5" y1="72.51" x2="108.5" y2="72.51"/>
		<line style="fill:none;stroke:#404040;" x1="0.5" y1="36.49" x2="108.5" y2="36.49"/>
		<line style="fill:none;stroke:#404040;" x1="72.5" y1="0.5" x2="72.5" y2="108.5"/>
		<line style="fill:none;stroke:#404040;" x1="36.5" y1="0.5" x2="36.5" y2="108.5"/>
	</g>
	<g id="Kanji">
		<text transform="matrix(1 0 0 1 0.5 93.3799)" style="font-size:108;">жид</text>
	</g>
	<g id="StrokeNumbers" style="font-size:8;fill:#808080">
		<text transform="matrix(1 0 0 1 20.25 12.6299)">1</text>
		<text transform="matrix(1 0 0 1 14.5 47.5)">2</text>
		<text transform="matrix(1 0 0 1 34.25 12.5)">3</text>
		<text transform="matrix(1 0 0 1 27.5 28.5)">4</text>
		<text transform="matrix(1 0 0 1 39.5 37.5)">5</text>
		<text transform="matrix(1 0 0 1 25.4551 40.6504)">6</text>
		<text transform="matrix(1 0 0 1 25.5 52.5752)">7</text>
		<text transform="matrix(1 0 0 1 25.4688 66.5)">8</text>
		<text transform="matrix(1 0 0 1 10.5 82.5)">9</text>
		<text transform="matrix(1 0 0 1 17.25 86.5)">10</text>
		<text transform="matrix(1 0 0 1 28.5 85.5)">11</text>
		<text transform="matrix(1 0 0 1 37.5 82.8047)">12</text>
		<text transform="matrix(1 0 0 1 60.5 9.5)">13</text>
		<text transform="matrix(1 0 0 1 50.5 32.6543)">14</text>
		<text transform="matrix(1 0 0 1 57.5 21.5)">15</text>
		<text transform="matrix(1 0 0 1 63.5 31.5)">16</text>
		<text transform="matrix(1 0 0 1 63.5449 42.9297)">17</text>
		<text transform="matrix(1 0 0 1 63.5137 53.5)">18</text>
		<text transform="matrix(1 0 0 1 63.5059 64.2793)">19</text>
		<text transform="matrix(1 0 0 1 48.5 77.5)">20</text>
		<text transform="matrix(1 0 0 1 58.5 85.5)">21</text>
		<text transform="matrix(1 0 0 1 66.75 83.5)">22</text>
		<text transform="matrix(1 0 0 1 75.25 80.6299)">23</text>
	</g>
	<g id="StrokePaths" style="fill:none;stroke:#404040;stroke-width:3;stroke-linecap:round;stroke-linejoin:round;">
		<path d="M27.31,13.5c0.16,1.45-0.04,3.35-0.54,4.59C23.58,26,19.54,32.7,12.24,42.33"/>
		<path d="M20.57,31.4c0.33,0.67,0.7,1.64,0.73,2.86c0.24,9.25-0.39,34.49-0.16,38.83"/>
		<path d="M40.81,12.24c0.06,0.8-0.02,1.85-0.22,2.54c-1.28,4.38-2.91,7.76-5.85,13.09"/>
		<path d="M21.15,31.61c5.39-0.8,26.38-2.62,28.69-3.06"/>
		<path d="M35.39,31.96c0.26,0.31,0.76,2.7,0.76,3.24c0,5.5,0.03,24.29-0.13,32.95"/>
		<path d="M21.87,44.05c5.09-0.66,23.7-2.59,25.89-2.95"/>
		<path d="M21.26,56.21c5.37-0.56,24.92-2.69,27.23-3"/>
		<path d="M21.26,69.49c5.39-0.8,27.98-2.33,30.29-2.76"/>
		<path d="M16.58,80.2c0,5-3.12,12.37-3.81,13.8"/>
		<path d="M24.48,79.16c1.29,2.66,2.52,9.98,2.85,14.12"/>
		<path d="M33.8,77.7c1.79,2.28,4.63,9.37,5.08,12.92"/>
		<path d="M43.41,75.97c1.82,1.79,4.69,7.36,5.15,10.14"/>
		<path d="M72.04,10.16c0.02,0.25,0.16,0.7-0.03,1.01C70.25,14,68.5,18.5,64.58,22.85"/>
		<path d="M59.3,23.78c0.33,0.39,0.6,0.92,0.6,1.56c0,6.53,0.04,31.61-0.17,41.87"/>
		<path d="M60.31,24.97c1.55,0,22-3.36,23.51-3.26c2.24,0.14,3.33,1.94,3.13,3.63c-0.12,1.04-1.45,10.41-2.08,18.83"/>
		<path d="M60.56,34.61c1.9,0.12,22.1-2.48,24.25-2.34"/>
		<path d="M60.47,45.03c3.88-0.12,19.05-2.24,23.88-2.25"/>
		<path d="M60.19,56.08c8.18-0.76,27.29-3.58,30.8-4.05c1.22-0.17,3.3-0.32,3.92-0.1"/>
		<path d="M59.74,67.42c9.1-1.47,25.13-3.08,30.17-3.52c3.28-0.28,4.97,0.81,4.38,4.13c-1.64,9.24-4.08,21.02-6.93,26.7c-2.86,5.71-6.47,0.94-7.8-0.22"/>
		<path d="M56.27,80.23c-0.52,3.77-1.29,9.16-2.46,11.44"/>
		<path d="M63.57,77.74c1.73,2.38,3.36,8.63,3.79,12.12"/>
		<path d="M70.72,75.04c1.86,2.01,4.79,8.06,5.26,11.01"/>
		<path d="M80.91,73.48c1.45,1.53,3.75,6.14,4.11,8.39"/>
	</g>
</svg>
