<?xml version="1.0" encoding="UTF-8"?>
<!-- Copyright (C) 2009 Ulrich Apel.
This work is distributed under the conditions of the Creative Commons
Attribution-Share Alike 3.0 Licence. This means you are free:
* to Share - to copy, distribute and transmit the work
* to Remix - to adapt the work

Under the following conditions:
* Attribution. You must attribute the work by stating your use of KanjiVG in
  your own copyright header and linking to KanjiVG's website
  (http://kanjivg.tagaini.net)
* Share Alike. If you alter, transform, or build upon this work, you may
  distribute the resulting work only under the same or similar license to this
  one.

See http://creativecommons.org/licenses/by-sa/3.0/ for more details. -->
<!DOCTYPE svg PUBLIC "-//W3C//DTD SVG 1.0//EN" "http://www.w3.org/TR/2001/REC-SVG-20010904/DTD/svg10.dtd">
<svg xmlns="http://www.w3.org/2000/svg" width="109" height="109" viewBox="0 0 109 109">
	<g id="HelperGrid" style="opacity:0.75;">
		<rect x="0.5" y="0.5" style="fill:none;stroke:#404040;" width="108" height="108"/> 
		<line style="fill:none;stroke:#404040;" x1="0.5" y1="72.51" x2="108.5" y2="72.51"/>
		<line style="fill:none;stroke:#404040;" x1="0.5" y1="36.49" x2="108.5" y2="36.49"/>
		<line style="fill:none;stroke:#404040;" x1="72.5" y1="0.5" x2="72.5" y2="108.5"/>
		<line style="fill:none;stroke:#404040;" x1="36.5" y1="0.5" x2="36.5" y2="108.5"/>
	</g>
	<g id="Kanji">
		<text transform="matrix(1 0 0 1 0.5 93.3799)" style="font-size:108;">麪</text>
	</g>
	<g id="StrokeNumbers" style="font-size:8;fill:#808080">
		<text transform="matrix(1 0 0 1 10.5 26.5)">1</text>
		<text transform="matrix(1 0 0 1 15.75 35.5)">2</text>
		<text transform="matrix(1 0 0 1 27.5 40.5)">3</text>
		<text transform="matrix(1 0 0 1 42.5 32.9043)">4</text>
		<text transform="matrix(1 0 0 1 51.5 38.5)">5</text>
		<text transform="matrix(1 0 0 1 24.5 10.7549)">6</text>
		<text transform="matrix(1 0 0 1 23.5 52.5)">7</text>
		<text transform="matrix(1 0 0 1 45.5 49.5)">8</text>
		<text transform="matrix(1 0 0 1 23.5 64.5)">9</text>
		<text transform="matrix(1 0 0 1 37.5 61.5)">10</text>
		<text transform="matrix(1 0 0 1 24.5 80.5)">11</text>
		<text transform="matrix(1 0 0 1 59.25 16.8799)">12</text>
		<text transform="matrix(1 0 0 1 66.5 29.5)">13</text>
		<text transform="matrix(1 0 0 1 56.5 33.5)">14</text>
		<text transform="matrix(1 0 0 1 79.5 35.5)">15</text>
	</g>
	<g id="StrokePaths" style="fill:none;stroke:#404040;stroke-width:3;stroke-linecap:round;stroke-linejoin:round;">
		<path d="M16.46,25.74c1.31,0.4,2.8,0.43,4.31,0.4c7.98-0.14,15.82-1.93,27.44-2.7c1.5-0.1,2.44,0.07,3.94,0.35"/>
		<path d="M23.63,32.02c0,0.42,0.05,0.76-0.07,1.24c-1.13,4.5-4.49,10.11-9.43,15.08"/>
		<path d="M23.35,39.76c1.87,0.98,4.27,3.59,5.18,6.06"/>
		<path d="M49.79,30.11c0,0.35,0.07,0.65-0.07,1.04c-1.17,3.39-4.51,9.42-8.49,12.84"/>
		<path d="M48.31,38.35c2.67,1.93,4.72,4.34,6.32,7.27"/>
		<path d="M33.44,10.75c1.1,0.44,1.99,1.96,1.99,2.87c0,9.27-0.22,32.88-0.22,41.38"/>
		<path d="M34.93,44.2c-3.94,6.74-14.49,17.04-22.68,20.86"/>
		<path d="M38.32,47.66c5.68,2.09,12.43,7.59,15.59,12.98"/>
		<path d="M32.37,58.75c0.06,0.53,0.25,1.41-0.11,2.11c-2.76,5.39-9.51,12.89-19.75,20.2"/>
		<path d="M32.07,65.77c0.26,0.03,1.67,0.29,2.42,0.2c3.34-0.36,6.22-1.21,9.72-2.12c2.4-0.63,3.08,0.72,2.47,2.44c-3.36,9.39-17.43,25.46-34.32,32.21"/>
		<path d="M24.89,70.78c8,4.25,44.27,20.38,55.05,24.26c3.22,1.16,5.82,1.72,8.95,2.06"/>
		<path d="M57.75,20.39c0.94,0.38,2.66,0.42,3.6,0.38c6.9-0.27,26.82-3.33,32.61-2.88c1.56,0.12,2.5,0.18,3.29,0.37"/>
		<path d="M74.19,22.5c1.1,0.44,1.99,1.96,1.99,2.87c0,9.27-0.22,25.88-0.22,34.38"/>
		<path d="M60.94,36.25c1.1,0.44,2.08,1.96,1.99,2.87C62,48,61.04,51.69,60.2,60c-0.2,2-0.45,2.25,2.3,1.75s25.5-4,29.75-4"/>
		<path d="M76.11,41.04c5.93-1.69,13.5-3.68,16.79-4.3c2.14-0.4,2.73,1.82,2.61,4.66c-0.31,7.48-4.43,38.02-7.74,43.11c-3.09,4.75-6.34,0.28-7.2-0.61"/>
	</g>
</svg>
