<?xml version="1.0" encoding="UTF-8"?>
<!-- Copyright (C) 2009 Ulrich Apel.
This work is distributed under the conditions of the Creative Commons
Attribution-Share Alike 3.0 Licence. This means you are free:
* to Share - to copy, distribute and transmit the work
* to Remix - to adapt the work

Under the following conditions:
* Attribution. You must attribute the work by stating your use of KanjiVG in
  your own copyright header and linking to KanjiVG's website
  (http://kanjivg.tagaini.net)
* Share Alike. If you alter, transform, or build upon this work, you may
  distribute the resulting work only under the same or similar license to this
  one.

See http://creativecommons.org/licenses/by-sa/3.0/ for more details. -->
<!DOCTYPE svg PUBLIC "-//W3C//DTD SVG 1.0//EN" "http://www.w3.org/TR/2001/REC-SVG-20010904/DTD/svg10.dtd">
<svg xmlns="http://www.w3.org/2000/svg" width="109" height="109" viewBox="0 0 109 109">
	<g id="HelperGrid" style="opacity:0.75;">
		<rect x="0.5" y="0.5" style="fill:none;stroke:#404040;" width="108" height="108"/> 
		<line style="fill:none;stroke:#404040;" x1="0.5" y1="72.51" x2="108.5" y2="72.51"/>
		<line style="fill:none;stroke:#404040;" x1="0.5" y1="36.49" x2="108.5" y2="36.49"/>
		<line style="fill:none;stroke:#404040;" x1="72.5" y1="0.5" x2="72.5" y2="108.5"/>
		<line style="fill:none;stroke:#404040;" x1="36.5" y1="0.5" x2="36.5" y2="108.5"/>
	</g>
	<g id="Kanji">
		<text transform="matrix(1 0 0 1 0.5 93.3799)" style="font-size:108;">麻</text>
	</g>
	<g id="StrokeNumbers" style="font-size:8;fill:#808080">
		<text transform="matrix(1 0 0 1 43.5 11.5)">1</text>
		<text transform="matrix(1 0 0 1 24.75 24.1299)">2</text>
		<text transform="matrix(1 0 0 1 17.5 36.5)">3</text>
		<text transform="matrix(1 0 0 1 29.25 49.6299)">4</text>
		<text transform="matrix(1 0 0 1 31.5 37.5)">5</text>
		<text transform="matrix(1 0 0 1 30.75 63.5)">6</text>
		<text transform="matrix(1 0 0 1 47.5 60.5)">7</text>
		<text transform="matrix(1 0 0 1 57.5 46.6299)">8</text>
		<text transform="matrix(1 0 0 1 62.25 33.5)">9</text>
		<text transform="matrix(1 0 0 1 58.5 60.5)">10</text>
		<text transform="matrix(1 0 0 1 77.5 57.5)">11</text>
	</g>
	<g id="StrokePaths" style="fill:none;stroke:#404040;stroke-width:3;stroke-linecap:round;stroke-linejoin:round;">
		<path d="M49.3,10.63c2.27,0.9,7.08,6.75,7.53,8.55"/>
		<path d="M20.13,26.73c1.52,0.54,4.3,0.63,5.82,0.54c15.8-0.91,34.8-4.52,54.61-4.73c2.53-0.03,4.05,0.26,5.31,0.53"/>
		<path d="M24.99,29.5c0.04,1.49,0.09,3.86-0.09,6c-1.06,12.65-3.44,43.34-14.85,56.97"/>
		<path d="M29.39,52.62c0.51,0.21,2.03,0.18,3.38,0c4.73-0.63,12.14-2.18,17.2-2.61c1.35-0.11,2.36-0.13,3.21,0.08"/>
		<path d="M39.97,36.43c1.05,0.42,1.68,1.89,1.89,2.74c0.21,0.84-0.21,53.24-0.21,53.58c0,10.5-5.28,2.88-6.65,1.5"/>
		<path d="M41.02,54.17C37.5,64.53,27,81.91,19.68,87.78"/>
		<path d="M45.14,60.68c3.42,1.95,7.08,5.84,9.04,9.25"/>
		<path d="M58.52,49.17c0.51,0.21,1.62,0.33,2.98,0.21c4.81-0.42,12.69-2.39,22.09-3.45c1.36-0.15,2.55-0.21,3.4,0"/>
		<path d="M70.49,32.25c1.05,0.42,1.69,1.89,1.9,2.74c0.21,0.84-0.21,52.07-0.21,57.34c0,11.17-4.43,3.17-5.43,2.17"/>
		<path d="M72.58,48.15c-3.14,13.1-12.92,31.32-20.2,38.04"/>
		<path d="M73.02,50.17c5.81,11.16,15.11,25.47,19.83,29.88c1.34,1.25,2.1,2.12,3.22,2.54"/>
	</g>
</svg>
