<?xml version="1.0" encoding="UTF-8"?>
<!DOCTYPE svg PUBLIC "-//W3C//DTD SVG 1.0//EN" "http://www.w3.org/TR/2001/REC-SVG-20010904/DTD/svg10.dtd">
<svg xmlns="http://www.w3.org/2000/svg" width="109" height="109" viewBox="0 0 109 109">
	<g id="HelperGrid" style="opacity:0.75;">
		<rect x="0.5" y="0.5" style="fill:none;stroke:#404040;" width="108" height="108"/> 
		<line style="fill:none;stroke:#404040;" x1="0.5" y1="72.51" x2="108.5" y2="72.51"/>
		<line style="fill:none;stroke:#404040;" x1="0.5" y1="36.49" x2="108.5" y2="36.49"/>
		<line style="fill:none;stroke:#404040;" x1="72.5" y1="0.5" x2="72.5" y2="108.5"/>
		<line style="fill:none;stroke:#404040;" x1="36.5" y1="0.5" x2="36.5" y2="108.5"/>
	</g>
	<g id="Kanji">
		<text transform="matrix(1 0 0 1 0.5 93.3799)" style="font-size:108;">黯</text>
	</g>
	<g id="StrokeNumbers" style="font-size:8;fill:#808080">
		<text transform="matrix(1 0 0 1 13.5 18.5)">1</text>
		<text transform="matrix(1 0 0 1 4.5 27.5547)">2</text>
		<text transform="matrix(1 0 0 1 16.5 32.5)">3</text>
		<text transform="matrix(1 0 0 1 36.5 25.9043)">4</text>
		<text transform="matrix(1 0 0 1 19.5 37.5)">5</text>
		<text transform="matrix(1 0 0 1 24.5 27.5)">6</text>
		<text transform="matrix(1 0 0 1 7.5 54.5)">7</text>
		<text transform="matrix(1 0 0 1 5.5 71.3535)">8</text>
		<text transform="matrix(1 0 0 1 8.5 83.5)">9</text>
		<text transform="matrix(1 0 0 1 16.5 87.5)">10</text>
		<text transform="matrix(1 0 0 1 27.5 82.5)">11</text>
		<text transform="matrix(1 0 0 1 36.5 78.5)">12</text>
		<text transform="matrix(1 0 0 1 60.5 13.5)">13</text>
		<text transform="matrix(1 0 0 1 54.5 25.6543)">14</text>
		<text transform="matrix(1 0 0 1 53.25 37.5)">15</text>
		<text transform="matrix(1 0 0 1 76.5 36.5)">16</text>
		<text transform="matrix(1 0 0 1 52.5 47.1797)">17</text>
		<text transform="matrix(1 0 0 1 51.5 70.5)">18</text>
		<text transform="matrix(1 0 0 1 62.5 60.5)">19</text>
		<text transform="matrix(1 0 0 1 66.5 74.4541)">20</text>
		<text transform="matrix(1 0 0 1 67.25 90.5)">21</text>
	</g>
	<g id="StrokePaths" style="fill:none;stroke:#404040;stroke-width:3;stroke-linecap:round;stroke-linejoin:round;">
		<path d="M11.5,19.71c0.29,0.42,0.66,1.63,0.82,2.16c1.33,4.33,2.08,11.74,2.91,19.83"/>
		<path d="M13.12,21.17c9.44-0.99,27.35-2.64,34.4-3.47c2.59-0.31,3.9,1.21,3.78,2.78c-0.31,4-1.4,10.73-3.31,17.76"/>
		<path d="M18.9,25.19c2.34,1.68,6.04,6.92,6.62,9.53"/>
		<path d="M43.75,22.87c0.01,0.25,0.03,0.63-0.03,0.99c-0.35,2.08-2.37,6.64-5.12,9.43"/>
		<path d="M15.39,39.8c6.8-0.42,23.43-2.11,32.82-2.8"/>
		<path d="M30.91,19.55c0.52,0.63,0.77,1.01,0.79,1.78c0.24,8.9,0.1,41.88,0.1,45.01"/>
		<path d="M13.9,53.99c0.8,0.32,2.25,0.35,3.05,0.32c8.28-0.36,20.05-2.06,28.73-3.04c1.32-0.15,2.12,0.15,2.78,0.31"/>
		<path d="M13.01,70.17c0.81,0.78,2.83,1,3.6,0.78c10.71-3.12,19.15-5.87,30.39-9.69"/>
		<path d="M14.57,83.08c-0.4,5.55-2.3,12.03-2.82,13.41"/>
		<path d="M22.84,79.73c2.16,2.77,3.66,9.02,3.97,13.61"/>
		<path d="M33.18,76.88c2.72,2.22,6.67,8.68,6.67,12.61"/>
		<path d="M43.36,73.09c2.45,1.94,5.83,8.99,6.45,12.02"/>
		<path d="M70.53,12.5c3.76,2.96,5.51,5.89,6.48,9.18"/>
		<path d="M56.28,28.5c0.9,0.11,2.93-0.1,3.83-0.13c7.2-0.24,22.33-2.46,31.83-3.01c1.49-0.09,2.68,0.18,3.86,0.55"/>
		<path d="M61.18,32.25c4.3,5.28,5.19,10.35,5.8,14.06"/>
		<path d="M86.72,29c0.28,0.75,0.65,2.53,0.48,3c-1.71,4.75-3.93,12.29-5.21,15"/>
		<path d="M52.5,50c2,0.5,4.32,0.48,5.36,0.37C68.75,49.25,83.5,48,95.71,47.51c1.76-0.07,3.72,0,4.79,0.54"/>
		<path d="M60.36,61.86c0.97,1.13,1.47,2.13,1.47,3.68s1.52,30.14,1.52,31.71"/>
		<path d="M61.94,63.79c2.25-0.26,23.42-3.06,25.39-3.68c1.98-0.63,3.04,1.19,2.91,2.47c-0.13,1.28-2.64,31.93-2.98,33.18"/>
		<path d="M62.84,77.5c4.32-0.26,8.63-0.68,12.95-1.04c1.43-0.12,2.87-0.24,4.25-0.35"/>
		<path d="M63.45,93.91c4.49-0.27,18.01-1.5,23.82-1.85"/>
	</g>
</svg>
