<?xml version="1.0" encoding="UTF-8"?>
<!DOCTYPE svg PUBLIC "-//W3C//DTD SVG 1.0//EN" "http://www.w3.org/TR/2001/REC-SVG-20010904/DTD/svg10.dtd">
<svg xmlns="http://www.w3.org/2000/svg" width="109" height="109" viewBox="0 0 109 109">
	<g id="HelperGrid" style="opacity:0.75;">
		<rect x="0.5" y="0.5" style="fill:none;stroke:#404040;" width="108" height="108"/> 
		<line style="fill:none;stroke:#404040;" x1="0.5" y1="72.51" x2="108.5" y2="72.51"/>
		<line style="fill:none;stroke:#404040;" x1="0.5" y1="36.49" x2="108.5" y2="36.49"/>
		<line style="fill:none;stroke:#404040;" x1="72.5" y1="0.5" x2="72.5" y2="108.5"/>
		<line style="fill:none;stroke:#404040;" x1="36.5" y1="0.5" x2="36.5" y2="108.5"/>
	</g>
	<g id="Kanji">
		<text transform="matrix(1 0 0 1 0.5 93.3799)" style="font-size:108;">鼇</text>
	</g>
	<g id="StrokeNumbers" style="font-size:8;fill:#808080">
		<text transform="matrix(1 0 0 1 13.25 16.6299)">1</text>
		<text transform="matrix(1 0 0 1 23.25 9.5547)">2</text>
		<text transform="matrix(1 0 0 1 8.25 25.479)">3</text>
		<text transform="matrix(1 0 0 1 26.25 30.4043)">4</text>
		<text transform="matrix(1 0 0 1 7.25 33.3291)">5</text>
		<text transform="matrix(1 0 0 1 46.5 37.5)">6</text>
		<text transform="matrix(1 0 0 1 20.25 39.1797)">7</text>
		<text transform="matrix(1 0 0 1 55.5 12.5)">8</text>
		<text transform="matrix(1 0 0 1 72.25 15.0293)">9</text>
		<text transform="matrix(1 0 0 1 69.5 27.5)">10</text>
		<text transform="matrix(1 0 0 1 58.25 34.8799)">11</text>
		<text transform="matrix(1 0 0 1 13.5 60.5)">12</text>
		<text transform="matrix(1 0 0 1 25.25 52.5)">13</text>
		<text transform="matrix(1 0 0 1 25.75 61.6543)">14</text>
		<text transform="matrix(1 0 0 1 63.6572 58.5)">15</text>
		<text transform="matrix(1 0 0 1 37.25 60.2539)">16</text>
		<text transform="matrix(1 0 0 1 51.25 60.1797)">17</text>
		<text transform="matrix(1 0 0 1 11.5 80.6035)">18</text>
		<text transform="matrix(1 0 0 1 26.5 69.5)">19</text>
		<text transform="matrix(1 0 0 1 25.5 78.7041)">20</text>
		<text transform="matrix(1 0 0 1 26.5 87.5)">21</text>
		<text transform="matrix(1 0 0 1 63.6084 66.5)">22</text>
		<text transform="matrix(1 0 0 1 63.6504 75.8799)">23</text>
		<text transform="matrix(1 0 0 1 63.5 85.5)">24</text>
	</g>
	<g id="StrokePaths" style="fill:none;stroke:#404040;stroke-width:3;stroke-linecap:round;stroke-linejoin:round;">
		<path d="M18.82,17.38c0.8,0.33,2.25,0.38,3.05,0.33c6.1-0.37,16.24-1.34,23.65-2.28c1.32-0.17,2.12,0.16,2.79,0.32"/>
		<path d="M31.53,10c0.11,0.14,1.56,1.24,1.56,2.15c0,5.83-0.32,3.54-0.32,11.25"/>
		<path d="M13.91,24.33c1.34,0.69,3.81,0.76,5.16,0.69c4.24-0.23,23.36-2.76,29.31-3.05c2.24-0.11,3.59,0.33,4.71,0.68"/>
		<path d="M32.25,25.36c0.34,0.23,0.89,1.14,0.89,1.6c0,1.71-0.11,2.67-0.04,4.12"/>
		<path d="M13.75,32.26c0.89,0.22,2.77,0.29,3.6,0.31c7.08,0.14,23.47-1.69,31.25-2.42c1.39-0.13,2.11,0.03,3.15,0.4"/>
		<path d="M33.29,36.38c2.19,0.87,9.82,1.69,12.26,2.12c0.41,0.07,0.82,0.38,0.75,0.96c-0.18,1.54-4.51,7.86-6.08,9.11c-1.7,1.36-3.23,0.17-4.34-1.24"/>
		<path d="M31.08,33.94c0.22,0.48,0.17,1.02-0.08,1.56c-1.78,3.71-6.94,11.22-14.95,14.73"/>
		<path d="M64.09,11.35c0.04,0.54,0.1,1.4-0.08,2.16c-1.26,5.21-4.51,13.24-9.99,19.53"/>
		<path d="M62.83,20.56c0.03-0.12,1.8,0.34,2.44,0.3c6.63-0.35,14.47-2.24,24.6-2.79c1.14-0.06,1.83-0.01,2.13,0.06"/>
		<path d="M80.58,21.98c0.38,0.64,0.27,1.68-0.31,2.76C74.75,35,68.5,42.5,57.37,48"/>
		<path d="M59.74,24.29C65.75,30,76.5,38.5,85.08,44.05c1.48,0.96,3.61,1.38,4.92,1.46"/>
		<path d="M22.22,54.05c0.66,0.7,0.83,1.13,1.05,2.06c0.73,3.14,1.23,6.39,1.69,8.97"/>
		<path d="M23.54,55.66c9.21-1.44,52.24-3.59,58.08-4.54c2.15-0.35,3.7,1.02,3.13,2.14c-1.01,1.99-2.26,4.49-2.88,6.7"/>
		<path d="M25.25,62.97c2.75,0,18.5-1.75,20.75-1.75"/>
		<path d="M61.5,59.97c5-0.5,18.25-1.25,21.25-1.25"/>
		<path d="M47.36,55.77c0,12.45-0.03,24.14-0.03,29.7c0,13,1.92,13.53,23.17,13.53c22.25,0,23.89-1.78,23.89-11.12"/>
		<path d="M59.83,53.47c0.22,1,0,33.75-0.22,40"/>
		<path d="M18.87,71.25c1.09,0.5,1.74,2.25,1.96,3.25c0.67,3,1.67,13,2.42,18"/>
		<path d="M20.75,72.5c2.75,0,23.5-2.25,25.75-2.25"/>
		<path d="M22.75,81c2.75,0,22-2.25,24.25-2.25"/>
		<path d="M24.5,89.75c2.75,0,20-1.25,22.25-1.25"/>
		<path d="M60.04,69.66c9.21-1.44,20.74-1.59,26.58-2.54c2.15-0.35,3.28,0.9,3.13,2.14c-0.76,6.71-1.51,11.96-2.38,18.7"/>
		<path d="M60.25,78.22c2.75,0,26-1.75,28.25-1.75"/>
		<path d="M60.5,87.47c2.75,0,24.5-1.75,26.75-1.75"/>
	</g>
</svg>
