<?xml version="1.0" encoding="UTF-8"?>
<!-- Copyright (C) 2009 Ulrich Apel.
This work is distributed under the conditions of the Creative Commons
Attribution-Share Alike 3.0 Licence. This means you are free:
* to Share - to copy, distribute and transmit the work
* to Remix - to adapt the work

Under the following conditions:
* Attribution. You must attribute the work by stating your use of KanjiVG in
  your own copyright header and linking to KanjiVG's website
  (http://kanjivg.tagaini.net)
* Share Alike. If you alter, transform, or build upon this work, you may
  distribute the resulting work only under the same or similar license to this
  one.

See http://creativecommons.org/licenses/by-sa/3.0/ for more details. -->
<!DOCTYPE svg PUBLIC "-//W3C//DTD SVG 1.0//EN" "http://www.w3.org/TR/2001/REC-SVG-20010904/DTD/svg10.dtd">
<svg xmlns="http://www.w3.org/2000/svg" width="109" height="109" viewBox="0 0 109 109">
	<g id="HelperGrid" style="opacity:0.75;">
		<rect x="0.5" y="0.5" style="fill:none;stroke:#404040;" width="108" height="108"/> 
		<line style="fill:none;stroke:#404040;" x1="0.5" y1="72.51" x2="108.5" y2="72.51"/>
		<line style="fill:none;stroke:#404040;" x1="0.5" y1="36.49" x2="108.5" y2="36.49"/>
		<line style="fill:none;stroke:#404040;" x1="72.5" y1="0.5" x2="72.5" y2="108.5"/>
		<line style="fill:none;stroke:#404040;" x1="36.5" y1="0.5" x2="36.5" y2="108.5"/>
	</g>
	<g id="Kanji">
		<text transform="matrix(1 0 0 1 0.5 93.3799)" style="font-size:108;">齢</text>
	</g>
	<g id="StrokeNumbers" style="font-size:8;fill:#808080">
		<text transform="matrix(1 0 0 1 38.25 23.25)">1</text>
		<text transform="matrix(1 0 0 1 23.25 15.25)">2</text>
		<text transform="matrix(1 0 0 1 8.25 23.8799)">3</text>
		<text transform="matrix(1 0 0 1 3.25 42.25)">4</text>
		<text transform="matrix(1 0 0 1 17 51.25)">5</text>
		<text transform="matrix(1 0 0 1 37.25 48.25)">6</text>
		<text transform="matrix(1 0 0 1 26.25 48.25)">7</text>
		<text transform="matrix(1 0 0 1 19.25 61.25)">8</text>
		<text transform="matrix(1 0 0 1 22.25 72.25)">9</text>
		<text transform="matrix(1 0 0 1 39.5 70.1543)">10</text>
		<text transform="matrix(1 0 0 1 5.25 55.25)">11</text>
		<text transform="matrix(1 0 0 1 42.25 46.3799)">12</text>
		<text transform="matrix(1 0 0 1 62.25 18.25)">13</text>
		<text transform="matrix(1 0 0 1 80.25 26.8799)">14</text>
		<text transform="matrix(1 0 0 1 67.25 44.8047)">15</text>
		<text transform="matrix(1 0 0 1 58.25 64.25)">16</text>
		<text transform="matrix(1 0 0 1 58.25 79.25)">17</text>
	</g>
	<g id="StrokePaths" style="fill:none;stroke:#404040;stroke-width:3;stroke-linecap:round;stroke-linejoin:round;">
		<path d="M33.59,26.69c4.22-0.72,9.9-1.42,14.34-1.89c1.03-0.11,1.29-0.24,1.94,0"/>
		<path d="M31.6,14c0.65,0.48,1.66,2.13,1.66,3.11c0,5.03,0.17,8.62,0.17,22.27"/>
		<path d="M17.45,23.62c0.65,0.48,1.03,2.16,1.16,3.11c0.13,0.96,1,7.86,0.87,13.85"/>
		<path d="M9.64,42.02c0.49,0.24,1.79,0.81,3.09,0.72c7-0.48,32.7-4.79,39.32-4.79c1.3,0,3.56,0.48,4.3,0.72"/>
		<path d="M23.04,51.19c1.53,1.48,3.85,5.64,4.23,7.94"/>
		<path d="M44.27,48.34c0.35,0.61,0.62,1.8,0.08,2.6c-2.27,3.35-3.64,4.79-5.46,6.47"/>
		<path d="M21.39,63.87c0.24,0.13,0.88,0.34,1.51,0.38c1.75,0.13,18.14-2.81,20.93-2.56c0.64,0.06,0.8-0.13,1.19,0"/>
		<path d="M32.04,45.59c0.4,0.25,1.14,1.65,1.22,2.16c0.08,0.51,0,33.71-0.08,36.9"/>
		<path d="M32.94,63.61c-2.21,5.97-7.59,14.34-12.57,17.78"/>
		<path d="M35.89,68.86c2.46,1.17,6.4,4.11,8.54,7.83"/>
		<path d="M14.47,50.29c0.45,0.43,1.41,3.21,1.5,4.07c0.09,0.86,0.05,35.05,0,36.36c-0.04,1.31,0.69,1.92,1.59,1.81c9.75-1.22,24.86-3.09,34-3.57"/>
		<path d="M50.99,45.02c0.28,0.43,0.89,3.21,0.94,4.07c0.06,0.86-0.42,24.3-0.39,44.3"/>
		<path d="M73.24,15c0.06,0.89,0.12,2.29-0.12,3.56c-1.4,7.51-8.45,23.37-19.88,34.57"/>
		<path d="M72.49,20.73c4.03,4.33,17.81,22.23,21.22,25.83c1.16,1.22,2.64,1.74,3.79,2.09"/>
		<path d="M69.74,47.57c3.49,1.57,9.01,6.48,9.88,8.93"/>
		<path d="M60.08,66.53c0.84,0.68,2.62,1,3.58,0.83c1.9-0.34,25.66-3.97,27.67-4.31c2.01-0.34,2.51,0.8,1.07,2.6c-3.37,4.22-16.14,19.31-17.41,20.67"/>
		<path d="M66.77,79.53c3.26,2.04,11.68,9.89,13.21,15.22"/>
	</g>
</svg>
