<?xml version="1.0" encoding="utf-8"?>
<svg xmlns:xs="http://www.w3.org/2001/XMLSchema" xmlns:kvg="http://kanjivg.tagaini.net" viewBox="0 0 109 109" height="109" width="109" xmlns="http://www.w3.org/2000/svg">
	<g style="fill:none;stroke:#000000;stroke-width:3;stroke-linecap:round;stroke-linejoin:round;" id="kvg:StrokePaths_03047">
		<g id="kvg:03047">
			<path id="kvg:03047-s1" d="M46.63,30.47c4.74,1.79,6.92,2.41,10.84,2.53c11.71,0.35,3.21,1.51-0.32,4.13" />
			<path id="kvg:03047-s2" d="M39.78,56.18c1.47,0.98,3.52,1.37,5.77,0.49c2.57-1.01,13.29-6.16,16.61-7.72c3.32-1.56,6.5,0.03,3.42,3.62c-9.58,11.13-21.31,24.62-30.89,34.68c-2.55,2.68-0.45,2.77,1.17,1.08c10.55-11.04,14.17-15.73,18.47-15.73c5.57,0,2.74,13.09,5.28,17.49c2.54,4.4,14.95,2.93,20.42,1.66" />
		</g>
	</g>
	<g style="font-size:8;fill:#808080" id="kvg:StrokeNumbers_03047">
		<text transform="matrix(1 0 0 1 40.3 29.13)">1</text>
		<text transform="matrix(1 0 0 1 33.18 54.25)">2</text>
	</g>
</svg>