<?xml version="1.0" encoding="utf-8"?>
<svg xmlns:xs="http://www.w3.org/2001/XMLSchema" xmlns:kvg="http://kanjivg.tagaini.net" viewBox="0 0 109 109" height="109" width="109" xmlns="http://www.w3.org/2000/svg">
	<g style="fill:none;stroke:#000000;stroke-width:3;stroke-linecap:round;stroke-linejoin:round;" id="kvg:StrokePaths_03079">
		<g id="kvg:03079">
			<path id="kvg:03079-s1" d="M15,48.75c2.25,1.62,5,1.38,7.62-1c3.89-3.52,6.12-5.75,10.62-9.88c5.88-5.37,8.49-4.75,13.14-0.87c12.12,10.12,30.38,25.12,33.38,27.38c3,2.26,12.37,10.37,13.87,11.62" />
			<path id="kvg:03079-s2" d="M66.76,26.75c2.75,1.75,6,5.38,7.75,8.5" />
			<path id="kvg:03079-s3" d="M73.13,21.88c3.06,1.57,6.68,4.82,8.62,7.62" />
		</g>
	</g>
	<g style="font-size:8;fill:#808080" id="kvg:StrokeNumbers_03079">
		<text transform="matrix(1 0 0 1 9.88 42.75)">1</text>
		<text transform="matrix(1 0 0 1 59.13 25.75)">2</text>
		<text transform="matrix(1 0 0 1 65.26 20.63)">3</text>
	</g>
</svg>