<?xml version="1.0" encoding="UTF-8"?>
<!--
Copyright (C) 2009/2010/2011 Ulrich Apel.
This work is distributed under the conditions of the Creative Commons
Attribution-Share Alike 3.0 Licence. This means you are free:
* to Share - to copy, distribute and transmit the work
* to Remix - to adapt the work

Under the following conditions:
* Attribution. You must attribute the work by stating your use of KanjiVG in
  your own copyright header and linking to KanjiVG's website
  (http://kanjivg.tagaini.net)
* Share Alike. If you alter, transform, or build upon this work, you may
  distribute the resulting work only under the same or similar license to this
  one.

See http://creativecommons.org/licenses/by-sa/3.0/ for more details.
-->
<!DOCTYPE svg PUBLIC "-//W3C//DTD SVG 1.0//EN" "http://www.w3.org/TR/2001/REC-SVG-20010904/DTD/svg10.dtd" [
<!ATTLIST g
xmlns:kvg CDATA #FIXED "http://kanjivg.tagaini.net"
kvg:element CDATA #IMPLIED
kvg:variant CDATA #IMPLIED
kvg:partial CDATA #IMPLIED
kvg:original CDATA #IMPLIED
kvg:part CDATA #IMPLIED
kvg:number CDATA #IMPLIED
kvg:tradForm CDATA #IMPLIED
kvg:radicalForm CDATA #IMPLIED
kvg:position CDATA #IMPLIED
kvg:radical CDATA #IMPLIED
kvg:phon CDATA #IMPLIED >
<!ATTLIST path
xmlns:kvg CDATA #FIXED "http://kanjivg.tagaini.net"
kvg:type CDATA #IMPLIED >
]>
<svg xmlns="http://www.w3.org/2000/svg" width="109" height="109" viewBox="0 0 109 109">
<g id="kvg:StrokePaths_03077" style="fill:none;stroke:#000000;stroke-width:3;stroke-linecap:round;stroke-linejoin:round;">
<g id="kvg:03077">
	<path id="kvg:03077-s1" d="M42.13,15.62c3.62,3.38,7.5,5.38,12.74,6.13c9.59,1.37,3.5,3.38-1.88,6.12"/>
	<path id="kvg:03077-s2" d="M43.13,46.88c1.88,4.62,7.5,9.41,14.25,17.5c10.62,12.74,0.49,30-19.13,21.62"/>
	<path id="kvg:03077-s3" d="M16.5,73.88c0.75,4,1.88,8.12,5,10.12c1.16,0.74,0.12-3.38,13.25-9.12"/>
	<path id="kvg:03077-s4" d="M79.63,61.88c5.5,3.38,10.28,7.49,11.38,8.88c6.75,8.5-0.25,4.62-4.62,7.12"/>
	<path id="kvg:03077-s5" d="M80.87,26.62c-9.62,0-9.25-14.25,0-14.25c9.76,0.01,9.5,14.25,0,14.25"/>
</g>
</g>
<g id="kvg:StrokeNumbers_03077" style="font-size:8;fill:#808080">
	<text transform="matrix(1 0 0 1 36.25 13.88)">1</text>
	<text transform="matrix(1 0 0 1 37.25 43.88)">2</text>
	<text transform="matrix(1 0 0 1 13 67.63)">3</text>
	<text transform="matrix(1 0 0 1 68.88 59.13)">4</text>
	<text transform="matrix(1 0 0 1 75 33.13)">5</text>
</g>
</svg>
