<?xml version="1.0" encoding="utf-8"?>
<svg xmlns:xs="http://www.w3.org/2001/XMLSchema" xmlns:kvg="http://kanjivg.tagaini.net" viewBox="0 0 109 109" height="109" width="109" xmlns="http://www.w3.org/2000/svg">
	<g style="fill:none;stroke:#000000;stroke-width:3;stroke-linecap:round;stroke-linejoin:round;" id="kvg:StrokePaths_030ac">
		<g id="kvg:030ac">
			<path id="kvg:030ac-s1" d="M25.5,40.62c1.88,1.25,4.51,1.87,7.12,1.5c17.88-2.5,32.78-4.51,42.5-5.88c7.12-1,10.59,0.24,8.62,7.88c-2.12,8.25-4.47,17.81-9.25,29.12c-10.49,24.88-14.11,14.51-19.24,11.88" />
			<path id="kvg:030ac-s2" d="M55.88,17.12c0.88,1.62,1.29,3.83,0.75,6.75c-4.25,22.88-15.88,45.25-30.25,58.88" />
			<path id="kvg:030ac-s3" d="M83,19.75c2.75,1.75,6,5.38,7.75,8.5" />
			<path id="kvg:030ac-s4" d="M89.38,14.88c3.06,1.57,6.68,4.82,8.62,7.62" />
		</g>
	</g>
	<g style="font-size:8;fill:#808080" id="kvg:StrokeNumbers_030ac">
		<text transform="matrix(1 0 0 1 18.13 41.13)">1</text>
		<text transform="matrix(1 0 0 1 46.25 17.25)">2</text>
		<text transform="matrix(1 0 0 1 75.38 18.75)">3</text>
		<text transform="matrix(1 0 0 1 81.5 13.63)">4</text>
	</g>
</svg>