<?xml version="1.0" encoding="utf-8"?>
<svg xmlns:xs="http://www.w3.org/2001/XMLSchema" xmlns:kvg="http://kanjivg.tagaini.net" viewBox="0 0 109 109" height="109" width="109" xmlns="http://www.w3.org/2000/svg">
	<g style="fill:none;stroke:#000000;stroke-width:3;stroke-linecap:round;stroke-linejoin:round;" id="kvg:StrokePaths_030c5">
		<g id="kvg:030c5">
			<path id="kvg:030c5-s1" d="M20.5,30.62c2.38,3,5,9.38,5.38,13.88" />
			<path id="kvg:030c5-s2" d="M44.87,23c3.38,3.5,6.62,9.5,7,14.88" />
			<path id="kvg:030c5-s3" d="M83.62,27.62c0.75,2.25,0.39,5.26-0.75,8c-7.63,18.38-21.25,41.38-46,52.76" />
			<path id="kvg:030c5-s4" d="M85.5,14.58c2.61,1.91,5.7,5.88,7.36,9.3" />
			<path id="kvg:030c5-s5" d="M91.68,9.62c2.73,1.8,5.95,5.53,7.69,8.75" />
		</g>
	</g>
	<g style="font-size:8;fill:#808080" id="kvg:StrokeNumbers_030c5">
		<text transform="matrix(1 0 0 1 15.62 27.13)">1</text>
		<text transform="matrix(1 0 0 1 37.75 20.88)">2</text>
		<text transform="matrix(1 0 0 1 74.62 25.75)">3</text>
		<text transform="matrix(1 0 0 1 78.5 12.88)">4</text>
		<text transform="matrix(1 0 0 1 84.37 8)">5</text>
	</g>
</svg>