<?xml version="1.0" encoding="utf-8"?>
<svg xmlns:xs="http://www.w3.org/2001/XMLSchema" xmlns:kvg="http://kanjivg.tagaini.net" viewBox="0 0 109 109" height="109" width="109" xmlns="http://www.w3.org/2000/svg">
	<g style="fill:none;stroke:#000000;stroke-width:3;stroke-linecap:round;stroke-linejoin:round;" id="kvg:StrokePaths_030da">
		<g id="kvg:030da">
			<path id="kvg:030da-s1" d="M17,49.25c2.75,1.5,5.33,0.62,6.88-0.88c4-3.88,9.12-8.75,11.62-11.25c3.12-3.12,7.23-5.08,11.87-1.12c11.13,9.5,26.25,22,36.87,30.62c4.23,3.43,7.62,6.62,11.12,9.25" />
			<path id="kvg:030da-s2" d="M74.24,36.12c-9.62,0-9.25-14.25,0-14.25c9.76,0.01,9.5,14.25,0,14.25" />
		</g>
	</g>
	<g style="font-size:8;fill:#808080" id="kvg:StrokeNumbers_030da">
		<text transform="matrix(1 0 0 1 13 43.63)">1</text>
		<text transform="matrix(1 0 0 1 71.25 43.5)">2</text>
	</g>
</svg>