<?xml version="1.0" encoding="utf-8"?>
<svg xmlns:xs="http://www.w3.org/2001/XMLSchema" xmlns:kvg="http://kanjivg.tagaini.net" viewBox="0 0 109 109" height="109" width="109" xmlns="http://www.w3.org/2000/svg">
	<g style="fill:none;stroke:#000000;stroke-width:3;stroke-linecap:round;stroke-linejoin:round;" id="kvg:StrokePaths_030d3">
		<g id="kvg:030d3">
			<path id="kvg:030d3-s1" d="M35.38,44.5c1.75,1.38,4.51,2.19,6.88,1.88c10.24-1.38,17.24-2.88,24.24-4.26c3.01-0.59,7.12-1,9.38-0.88" />
			<path id="kvg:030d3-s2" d="M31,17.62c1.38,1.26,1.88,3.38,1.88,6.13c0,2.75-0.88,44-0.88,47.25c0,9.75,4,14.62,13.75,14.62c6,0,16.38,0.12,21.38,0c5-0.12,9.5-0.62,13.5-1.5" />
			<path id="kvg:030d3-s3" d="M78.13,26.25c2.75,1.75,6,5.38,7.75,8.5" />
			<path id="kvg:030d3-s4" d="M84.5,21.38c3.06,1.57,6.68,4.82,8.62,7.62" />
		</g>
	</g>
	<g style="font-size:8;fill:#808080" id="kvg:StrokeNumbers_030d3">
		<text transform="matrix(1 0 0 1 36.88 41.88)">1</text>
		<text transform="matrix(1 0 0 1 23.88 15.13)">2</text>
		<text transform="matrix(1 0 0 1 70.51 25.25)">3</text>
		<text transform="matrix(1 0 0 1 76.63 20.88)">4</text>
	</g>
</svg>