<?xml version="1.0" encoding="utf-8"?>
<svg xmlns:xs="http://www.w3.org/2001/XMLSchema" xmlns:kvg="http://kanjivg.tagaini.net" viewBox="0 0 109 109" height="109" width="109" xmlns="http://www.w3.org/2000/svg">
	<g style="fill:none;stroke:#000000;stroke-width:3;stroke-linecap:round;stroke-linejoin:round;" id="kvg:StrokePaths_030fa">
		<g id="kvg:030fa">
			<path id="kvg:030fa-s1" d="M32.74,25.14c2.38,1.7,5.11,2.13,9.25,1.7c12.32-1.29,21.94-2.6,30.48-3.64c2.81-0.34,5.51-0.65,8.14-0.93" />
			<path id="kvg:030fa-s2" d="M31.5,46.69c2.25,1.44,4.44,1.9,8.05,1.4c8.19-1.15,19.93-2.64,28.56-3.79c2.38-0.31,4.65-0.62,6.75-0.92" />
			<path id="kvg:030fa-s3" d="M80.5,22.88c0.88,2,0.62,4.64,0.12,7c-4.88,22.5-23.5,47.12-44.12,60.74" />
			<path id="kvg:030fa-s4" d="M86.12,12.88c2.61,1.93,5.7,5.93,7.36,9.37" />
			<path id="kvg:030fa-s5" d="M92.18,7.75c2.82,1.78,6.15,5.48,7.94,8.66" />
		</g>
	</g>
	<g style="font-size:8;fill:#808080" id="kvg:StrokeNumbers_030fa">
		<text transform="matrix(1 0 0 1 29.5 20.38)">1</text>
		<text transform="matrix(1 0 0 1 27.62 43)">2</text>
		<text transform="matrix(1 0 0 1 83.5 27.25)">3</text>
		<text transform="matrix(1 0 0 1 79.5 13.25)">4</text>
		<text transform="matrix(1 0 0 1 85.87 6.88)">5</text>
	</g>
</svg>