<?xml version="1.0" encoding="utf-8"?>
<svg xmlns:xs="http://www.w3.org/2001/XMLSchema" xmlns:kvg="http://kanjivg.tagaini.net" viewBox="0 0 109 109" height="109" width="109" xmlns="http://www.w3.org/2000/svg">
	<g style="fill:none;stroke:#000000;stroke-width:3;stroke-linecap:round;stroke-linejoin:round;" id="kvg:StrokePaths_030f1">
		<g id="kvg:030f1">
			<path id="kvg:030f1-s1" d="M21.25,28.32c2.62,2.18,5.86,2.38,8.75,1.98c12.12-1.68,19.01-2.14,31.75-3.93c3.73-0.52,6.93,2.16,3,6C59,38,50.12,46,48.12,47.62" />
			<path id="kvg:030f1-s2" d="M43.21,47.12c1.08,1.48,1.3,2.96,1.21,4.71c-0.54,11.29-0.67,15.08-0.81,21.54" />
			<path id="kvg:030f1-s3" d="M6.38,76.23c2.54,1.09,5.3,1.98,8.75,1.55c21.5-2.66,36.66-3.44,56.57-3.59c4.83-0.04,8.88,0.62,12.18,2.02" />
		</g>
	</g>
	<g style="font-size:8;fill:#808080" id="kvg:StrokeNumbers_030f1">
		<text transform="matrix(1 0 0 1 15.38 24.38)">1</text>
		<text transform="matrix(1 0 0 1 33.5 47)">2</text>
		<text transform="matrix(1 0 0 1 2.5 69.63)">3</text>
	</g>
</svg>