<?xml version="1.0" encoding="UTF-8"?>
<!--
Copyright (C) 2009/2010/2011 Ulrich Apel.
This work is distributed under the conditions of the Creative Commons 
Attribution-Share Alike 3.0 Licence. This means you are free:
* to Share - to copy, distribute and transmit the work
* to Remix - to adapt the work

Under the following conditions:
* Attribution. You must attribute the work by stating your use of KanjiVG in
  your own copyright header and linking to KanjiVG's website
  (http://kanjivg.tagaini.net)
* Share Alike. If you alter, transform, or build upon this work, you may
  distribute the resulting work only under the same or similar license to this
  one.

See http://creativecommons.org/licenses/by-sa/3.0/ for more details.
-->
<!DOCTYPE svg PUBLIC "-//W3C//DTD SVG 1.0//EN" "http://www.w3.org/TR/2001/REC-SVG-20010904/DTD/svg10.dtd" [
<!ATTLIST g
xmlns:kvg CDATA #FIXED "http://kanjivg.tagaini.net"
kvg:element CDATA #IMPLIED
kvg:variant CDATA #IMPLIED
kvg:partial CDATA #IMPLIED
kvg:original CDATA #IMPLIED
kvg:part CDATA #IMPLIED
kvg:number CDATA #IMPLIED
kvg:tradForm CDATA #IMPLIED
kvg:radicalForm CDATA #IMPLIED
kvg:position CDATA #IMPLIED
kvg:radical CDATA #IMPLIED
kvg:phon CDATA #IMPLIED >
<!ATTLIST path
xmlns:kvg CDATA #FIXED "http://kanjivg.tagaini.net"
kvg:type CDATA #IMPLIED >
]>
<svg xmlns="http://www.w3.org/2000/svg" width="109" height="109" viewBox="0 0 109 109">
<g id="kvg:StrokePaths_030f6" style="fill:none;stroke:#000000;stroke-width:3;stroke-linecap:round;stroke-linejoin:round;">
<g id="kvg:030f6">
	<path id="kvg:030f6-s1" d="M43.63,36.96c0.35,1.53,0.32,3.55-0.47,5.22c-3.88,8.28-7.4,15.8-15.16,24.59"/>
	<path id="kvg:030f6-s2" d="M41.15,52.82c1.71,0.7,3.34,0.83,5.32,0.4c10.14-2.21,20.48-3.92,28.71-5.22c2.9-0.46,5.02-0.6,7.43-0.4"/>
	<path id="kvg:030f6-s3" d="M62.5,53.83c0.35,1.53,0.4,3.43-0.07,5.22c-2.91,11.04-7.43,25.1-19.78,35.24"/>
</g>
</g>
<g id="kvg:StrokeNumbers_030f6" style="font-size:8;fill:#808080">
	<text transform="matrix(1 0 0 1 36.23 35.25)">1</text>
	<text transform="matrix(1 0 0 1 46.36 49.63)">2</text>
	<text transform="matrix(1 0 0 1 54.48 59.88)">3</text>
</g>
</svg>
