<?xml version="1.0" encoding="UTF-8"?>
<!--
Copyright (C) 2009/2010/2011 Ulrich Apel.
This work is distributed under the conditions of the Creative Commons 
Attribution-Share Alike 3.0 Licence. This means you are free:
* to Share - to copy, distribute and transmit the work
* to Remix - to adapt the work

Under the following conditions:
* Attribution. You must attribute the work by stating your use of KanjiVG in
  your own copyright header and linking to KanjiVG's website
  (http://kanjivg.tagaini.net)
* Share Alike. If you alter, transform, or build upon this work, you may
  distribute the resulting work only under the same or similar license to this
  one.

See http://creativecommons.org/licenses/by-sa/3.0/ for more details.
-->
<!DOCTYPE svg PUBLIC "-//W3C//DTD SVG 1.0//EN" "http://www.w3.org/TR/2001/REC-SVG-20010904/DTD/svg10.dtd" [
<!ATTLIST g
xmlns:kvg CDATA #FIXED "http://kanjivg.tagaini.net"
kvg:element CDATA #IMPLIED
kvg:variant CDATA #IMPLIED
kvg:partial CDATA #IMPLIED
kvg:original CDATA #IMPLIED
kvg:part CDATA #IMPLIED
kvg:number CDATA #IMPLIED
kvg:tradForm CDATA #IMPLIED
kvg:radicalForm CDATA #IMPLIED
kvg:position CDATA #IMPLIED
kvg:radical CDATA #IMPLIED
kvg:phon CDATA #IMPLIED >
<!ATTLIST path
xmlns:kvg CDATA #FIXED "http://kanjivg.tagaini.net"
kvg:type CDATA #IMPLIED >
]>
<svg xmlns="http://www.w3.org/2000/svg" width="109" height="109" viewBox="0 0 109 109">
<g id="kvg:StrokePaths_030f8" style="fill:none;stroke:#000000;stroke-width:3;stroke-linecap:round;stroke-linejoin:round;">
<g id="kvg:030f8">
	<path id="kvg:030f8-s1" d="M28.12,35c3,1.25,5.87,1.17,8.75,0.88c14.88-1.5,25.25-2.5,40.25-4c3.73-0.37,6.88,0,8.88,0.38"/>
	<path id="kvg:030f8-s2" d="M38.62,38.88c1,1.38,1.22,2.75,1.12,4.38c-0.5,8.25-1.12,15.12-1.5,20"/>
	<path id="kvg:030f8-s3" d="M18,65.25c2.5,0.88,5.25,1.03,8.62,0.5c23-3.62,38.88-5.12,57.25-5.5c4.76-0.1,8.75,0.5,12,1.62"/>
	<path id="kvg:030f8-s4" d="M60.12,14.38c2,1.62,2.75,3.5,2.75,6.12c0,2.62,0,56,0,59.38c0,3.38,0,10.62,0,13.88"/>
	<path id="kvg:030f8-s5" d="M84.24,13.25c2.75,1.75,6,5.38,7.75,8.5"/>
	<path id="kvg:030f8-s6" d="M90.62,8.38c3.06,1.57,6.68,4.82,8.62,7.62"/>
</g>
</g>
<g id="kvg:StrokeNumbers_030f8" style="font-size:8;fill:#808080">
	<text transform="matrix(1 0 0 1 19.87 32.13)">1</text>
	<text transform="matrix(1 0 0 1 31.87 45.5)">2</text>
	<text transform="matrix(1 0 0 1 15.5 60.5)">3</text>
	<text transform="matrix(1 0 0 1 52.62 13.38)">4</text>
	<text transform="matrix(1 0 0 1 76.62 12.25)">5</text>
	<text transform="matrix(1 0 0 1 82.75 7.13)">6</text>
</g>
</svg>
