<?xml version="1.0" encoding="utf-8"?>
<svg xmlns:xs="http://www.w3.org/2001/XMLSchema" xmlns:kvg="http://kanjivg.tagaini.net" viewBox="0 0 109 109" height="109" width="109" xmlns="http://www.w3.org/2000/svg">
	<g style="fill:none;stroke:#000000;stroke-width:3;stroke-linecap:round;stroke-linejoin:round;" id="kvg:StrokePaths_030f8">
		<g id="kvg:030f8">
			<path id="kvg:030f8-s1" d="M16.5,35c3,1.25,5.87,1.17,8.75,0.88c14.88-1.5,25.25-2.5,40.25-4c3.73-0.37,6.88,0,8.88,0.38" />
			<path id="kvg:030f8-s2" d="M27,38.88c1,1.38,1.22,2.75,1.12,4.38c-0.5,8.25-1.12,15.12-1.5,20" />
			<path id="kvg:030f8-s3" d="M6.38,65.25c2.5,0.88,5.25,1.03,8.62,0.5c23-3.62,38.88-5.12,57.25-5.5c4.76-0.1,8.75,0.5,12,1.62" />
			<path id="kvg:030f8-s4" d="M48.5,14.38c2,1.62,2.75,3.5,2.75,6.12s0,56,0,59.38s0,10.62,0,13.88" />
			<path id="kvg:030f8-s5" d="M72.62,13.25c2.75,1.75,6,5.38,7.75,8.5" />
			<path id="kvg:030f8-s6" d="M79,8.38c3.06,1.57,6.68,4.82,8.62,7.62" />
		</g>
	</g>
	<g style="font-size:8;fill:#808080" id="kvg:StrokeNumbers_030f8">
		<text transform="matrix(1 0 0 1 8.25 32.13)">1</text>
		<text transform="matrix(1 0 0 1 20.25 45.5)">2</text>
		<text transform="matrix(1 0 0 1 3.88 60.5)">3</text>
		<text transform="matrix(1 0 0 1 41 13.38)">4</text>
		<text transform="matrix(1 0 0 1 65 12.25)">5</text>
		<text transform="matrix(1 0 0 1 71.13 7.13)">6</text>
	</g>
</svg>