<?xml version="1.0" encoding="utf-8"?>
<svg xmlns:xs="http://www.w3.org/2001/XMLSchema" xmlns:kvg="http://kanjivg.tagaini.net" viewBox="0 0 109 109" height="109" width="109" xmlns="http://www.w3.org/2000/svg">
	<g style="fill:none;stroke:#000000;stroke-width:3;stroke-linecap:round;stroke-linejoin:round;" id="kvg:StrokePaths_0342c">
		<g kvg:element="㐬" id="kvg:0342c">
			<g id="kvg:0342c-g1" kvg:position="top">
				<g kvg:element="亠" id="kvg:0342c-g2">
					<path id="kvg:0342c-s1" kvg:type="㇑a" d="M49.006179,6.3643159C50.501036,7.4395806,50.949493,8.8159195,50.949493,9.7191418C50.949493,13.009452,51.054132,18.72986,51.054132,22.396513" />
					<path id="kvg:0342c-s2" kvg:type="㇐" d="M17.031205,25.47177C21.426083,25.83736,24.909098,25.762091,28.885415,25.374996C41.980355,24.063173,65.748569,21.407269,79.725474,20.654584C82.999209,20.482541,86.571916,20.159962,89.726062,21.009421" />
				</g>
				<g kvg:element="厶" id="kvg:0342c-g3">
					<path id="kvg:0342c-s3" kvg:type="㇜" d="M46.569564,26.514776C47.018021,27.858857,46.479873,29.235196,46.001519,29.729818C42.712835,33.235181,36.73341,38.740536,32.413276,42.353425C28.720981,45.439435,30.215837,46.503947,34.595766,45.665241C46.524718,43.38568,56.764483,41.331924,71.115103,39.020105" />
					<path id="kvg:0342c-s4" kvg:type="㇔" d="M62.51968,30.009387C68.768178,33.138407,78.649178,42.8588,80.203828,47.718996" />
				</g>
			</g>
			<g kvg:variant="true" kvg:element="川" id="kvg:0342c-g4" kvg:position="bottom" kvg:original="巛">
				<path id="kvg:0342c-s5" kvg:type="㇒" d="M29.064798,59.192071C29.991609,59.858735,30.156043,61.192063,30.096249,62.460875C29.45346,76.912433,25.71632,87.944649,9.3625931,95.568275" />
				<path id="kvg:0342c-s6" kvg:type="㇑" d="M47.421632,52.987793C48.916488,54.063058,49.305151,55.417892,49.305151,57.310357C49.305151,64.643663,49.305151,77.105981,49.305151,84.987671C49.305151,88.826366,49.305151,91.579043,49.305151,92.105923" />
				<path id="kvg:0342c-s7" kvg:type="㇟" d="M69.216635,51.912529C70.636749,52.93403,70.890874,54.331874,70.890874,56.407135C70.890874,65.213553,70.846029,77.79415,70.846029,83.772622C70.846029,93.450004,72.430576,94.28871,83.059004,94.28871C95.227133,94.28871,96.348275,92.912372,96.348275,84.482296" />
			</g>
		</g>
	</g>
	<g style="font-size:8;fill:#808080" id="kvg:StrokeNumbers_0342c">
		<text transform="matrix(1 0 0 1 54.25 9.25)">1</text>
		<text transform="matrix(1 0 0 1 16.25 22.3)">2</text>
		<text transform="matrix(1 0 0 1 49.25 34.25)">3</text>
		<text transform="matrix(1 0 0 1 71.25 33.25)">4</text>
		<text transform="matrix(1 0 0 1 20.25 59.25)">5</text>
		<text transform="matrix(1 0 0 1 38.25 58.25)">6</text>
		<text transform="matrix(1 0 0 1 62.25 55.25)">7</text>
	</g>
</svg>