<?xml version="1.0" encoding="UTF-8"?>
<!--
Copyright (C) 2009/2010/2011 Ulrich Apel.
This work is distributed under the conditions of the Creative Commons 
Attribution-Share Alike 3.0 Licence. This means you are free:
* to Share - to copy, distribute and transmit the work
* to Remix - to adapt the work

Under the following conditions:
* Attribution. You must attribute the work by stating your use of KanjiVG in
  your own copyright header and linking to KanjiVG's website
  (http://kanjivg.tagaini.net)
* Share Alike. If you alter, transform, or build upon this work, you may
  distribute the resulting work only under the same or similar license to this
  one.

See http://creativecommons.org/licenses/by-sa/3.0/ for more details.
-->
<!DOCTYPE svg PUBLIC "-//W3C//DTD SVG 1.0//EN" "http://www.w3.org/TR/2001/REC-SVG-20010904/DTD/svg10.dtd" [
<!ATTLIST g
xmlns:kvg CDATA #FIXED "http://kanjivg.tagaini.net"
kvg:element CDATA #IMPLIED
kvg:variant CDATA #IMPLIED
kvg:partial CDATA #IMPLIED
kvg:original CDATA #IMPLIED
kvg:part CDATA #IMPLIED
kvg:number CDATA #IMPLIED
kvg:tradForm CDATA #IMPLIED
kvg:radicalForm CDATA #IMPLIED
kvg:position CDATA #IMPLIED
kvg:radical CDATA #IMPLIED
kvg:phon CDATA #IMPLIED >
<!ATTLIST path
xmlns:kvg CDATA #FIXED "http://kanjivg.tagaini.net"
kvg:type CDATA #IMPLIED >
]>
<svg xmlns="http://www.w3.org/2000/svg" width="109" height="109" viewBox="0 0 109 109">
<g id="kvg:StrokePaths_04e19" style="fill:none;stroke:#000000;stroke-width:3;stroke-linecap:round;stroke-linejoin:round;">
<g id="kvg:04e19" kvg:element="丙">
	<g id="kvg:04e19-g1" kvg:element="一" kvg:radical="general">
		<path id="kvg:04e19-s1" kvg:type="㇐" d="M21.88,21.64c3.04,1.11,6.87,0.73,10,0.4c10.7-1.16,35.17-3.56,47.87-3.96c2.85-0.09,5.72,0.06,8.53,0.67"/>
	</g>
	<g id="kvg:04e19-g2" kvg:element="内">
		<g id="kvg:04e19-g3" kvg:element="冂">
			<path id="kvg:04e19-s2" kvg:type="㇑" d="M21.43,43.31c0.71,0.79,1.34,2.44,1.44,3.88c0.38,5.27,1.1,25.35,1.44,36.17c0.12,3.7,0.19,6.31,0.19,6.88"/>
			<path id="kvg:04e19-s3" kvg:type="㇆a" d="M23.48,45.54C36.12,44,70.12,40,83.62,39.1c4.01-0.27,6.38,1.9,6.2,6.9c-0.43,11.51-3.06,30.75-6.03,40.71c-2.23,7.49-4.79,4.04-7.47,0.32"/>
		</g>
		<g id="kvg:04e19-g4" kvg:element="人">
			<path id="kvg:04e19-s4" kvg:type="㇒" d="M51.81,22.04c1.26,1.26,1.59,2.59,1.7,4.47C54.62,45.62,50.5,63,32.25,72.75"/>
			<path id="kvg:04e19-s5" kvg:type="㇔/㇏" d="M56.42,52.83C62.88,56.62,71,63.38,75.14,69.78"/>
		</g>
	</g>
</g>
</g>
<g id="kvg:StrokeNumbers_04e19" style="font-size:8;fill:#808080">
	<text transform="matrix(1 0 0 1 15.75 22.50)">1</text>
	<text transform="matrix(1 0 0 1 15.50 53.50)">2</text>
	<text transform="matrix(1 0 0 1 24.75 41.50)">3</text>
	<text transform="matrix(1 0 0 1 45.50 30.50)">4</text>
	<text transform="matrix(1 0 0 1 58.50 51.50)">5</text>
</g>
</svg>
