<?xml version="1.0" encoding="UTF-8"?>
<!--
Copyright (C) 2009/2010/2011 Ulrich Apel.
This work is distributed under the conditions of the Creative Commons 
Attribution-Share Alike 3.0 Licence. This means you are free:
* to Share - to copy, distribute and transmit the work
* to Remix - to adapt the work

Under the following conditions:
* Attribution. You must attribute the work by stating your use of KanjiVG in
  your own copyright header and linking to KanjiVG's website
  (http://kanjivg.tagaini.net)
* Share Alike. If you alter, transform, or build upon this work, you may
  distribute the resulting work only under the same or similar license to this
  one.

See http://creativecommons.org/licenses/by-sa/3.0/ for more details.
-->
<!DOCTYPE svg PUBLIC "-//W3C//DTD SVG 1.0//EN" "http://www.w3.org/TR/2001/REC-SVG-20010904/DTD/svg10.dtd" [
<!ATTLIST g
xmlns:kvg CDATA #FIXED "http://kanjivg.tagaini.net"
kvg:element CDATA #IMPLIED
kvg:variant CDATA #IMPLIED
kvg:partial CDATA #IMPLIED
kvg:original CDATA #IMPLIED
kvg:part CDATA #IMPLIED
kvg:number CDATA #IMPLIED
kvg:tradForm CDATA #IMPLIED
kvg:radicalForm CDATA #IMPLIED
kvg:position CDATA #IMPLIED
kvg:radical CDATA #IMPLIED
kvg:phon CDATA #IMPLIED >
<!ATTLIST path
xmlns:kvg CDATA #FIXED "http://kanjivg.tagaini.net"
kvg:type CDATA #IMPLIED >
]>
<svg xmlns="http://www.w3.org/2000/svg" width="109" height="109" viewBox="0 0 109 109">
<g id="kvg:StrokePaths_04ed7" style="fill:none;stroke:#000000;stroke-width:3;stroke-linecap:round;stroke-linejoin:round;">
<g id="kvg:04ed7" kvg:element="仗">
	<g id="kvg:04ed7-g1" kvg:element="亻" kvg:variant="true" kvg:original="人" kvg:position="left" kvg:radical="general">
		<path id="kvg:04ed7-s1" kvg:type="㇒" d="M33.99,18.39c0.14,1.16,0.25,2.62-0.13,4.05c-2.37,9.04-11.52,26.52-22.55,38.77"/>
		<path id="kvg:04ed7-s2" kvg:type="㇑" d="M25.53,46.5c0.59,0.61,0.76,1.97,0.76,3.23c0,13.02-0.29,35.65-0.29,44.4"/>
	</g>
	<g id="kvg:04ed7-g2" kvg:element="丈" kvg:position="right">
		<g id="kvg:04ed7-g3" kvg:element="一">
			<path id="kvg:04ed7-s3" kvg:type="㇐" d="M36.15,38.26c1.25,0.49,3.53,0.55,4.79,0.49c5.82-0.25,33.32-4.75,44.85-5.49c2.08-0.13,3.33,0.23,4.37,0.48"/>
		</g>
		<g id="kvg:04ed7-g4" kvg:element="乂">
			<g id="kvg:04ed7-g5" kvg:element="丿">
				<path id="kvg:04ed7-s4" kvg:type="㇒" d="M65.88,15.18c0.43,1.93,0.79,3.31,0.8,6.85C66.81,55.62,65.25,79.25,39,94"/>
			</g>
			<path id="kvg:04ed7-s5" kvg:type="㇏" d="M42.59,48c4.66,0,29.91,30,45.07,40.62c2.53,1.77,5.23,2.95,7.34,3.12"/>
		</g>
	</g>
</g>
</g>
<g id="kvg:StrokeNumbers_04ed7" style="font-size:8;fill:#808080">
	<text transform="matrix(1 0 0 1 25.50 17.50)">1</text>
	<text transform="matrix(1 0 0 1 18.66 61.85)">2</text>
	<text transform="matrix(1 0 0 1 37.50 35.50)">3</text>
	<text transform="matrix(1 0 0 1 56.50 15.50)">4</text>
	<text transform="matrix(1 0 0 1 38.50 56.50)">5</text>
</g>
</svg>
