<?xml version="1.0" encoding="UTF-8"?>
<!--
Copyright (C) 2009/2010/2011 Ulrich Apel.
This work is distributed under the conditions of the Creative Commons 
Attribution-Share Alike 3.0 Licence. This means you are free:
* to Share - to copy, distribute and transmit the work
* to Remix - to adapt the work

Under the following conditions:
* Attribution. You must attribute the work by stating your use of KanjiVG in
  your own copyright header and linking to KanjiVG's website
  (http://kanjivg.tagaini.net)
* Share Alike. If you alter, transform, or build upon this work, you may
  distribute the resulting work only under the same or similar license to this
  one.

See http://creativecommons.org/licenses/by-sa/3.0/ for more details.
-->
<!DOCTYPE svg PUBLIC "-//W3C//DTD SVG 1.0//EN" "http://www.w3.org/TR/2001/REC-SVG-20010904/DTD/svg10.dtd" [
<!ATTLIST g
xmlns:kvg CDATA #FIXED "http://kanjivg.tagaini.net"
kvg:element CDATA #IMPLIED
kvg:variant CDATA #IMPLIED
kvg:partial CDATA #IMPLIED
kvg:original CDATA #IMPLIED
kvg:part CDATA #IMPLIED
kvg:number CDATA #IMPLIED
kvg:tradForm CDATA #IMPLIED
kvg:radicalForm CDATA #IMPLIED
kvg:position CDATA #IMPLIED
kvg:radical CDATA #IMPLIED
kvg:phon CDATA #IMPLIED >
<!ATTLIST path
xmlns:kvg CDATA #FIXED "http://kanjivg.tagaini.net"
kvg:type CDATA #IMPLIED >
]>
<svg xmlns="http://www.w3.org/2000/svg" width="109" height="109" viewBox="0 0 109 109">
<g id="kvg:StrokePaths_04f10" style="fill:none;stroke:#000000;stroke-width:3;stroke-linecap:round;stroke-linejoin:round;">
<g id="kvg:04f10" kvg:element="伐">
	<g id="kvg:04f10-g1" kvg:element="亻" kvg:variant="true" kvg:original="人" kvg:position="left" kvg:radical="general">
		<path id="kvg:04f10-s1" kvg:type="㇒" d="M32.99,15.39c0.13,1.16,0.06,2.38-0.37,3.78C29.62,29,21.35,45.79,10.81,57.97"/>
		<path id="kvg:04f10-s2" kvg:type="㇑" d="M25.53,40.5c1.05,1.05,1.26,2.38,1.26,4.23c0,10.25-0.03,29.62-0.04,41.77c0,3.28,0,6.01,0,7.88"/>
	</g>
	<g id="kvg:04f10-g2" kvg:element="戈" kvg:position="right">
		<g id="kvg:04f10-g3" kvg:element="弋" kvg:part="1">
			<path id="kvg:04f10-s3" kvg:type="㇐" d="M37.75,41.76c2.75,0.49,4.25,0.5,6.73-0.04c7.9-1.71,23.27-6.46,34.8-8.07c2.25-0.31,4.97-0.4,7.22,0.06"/>
			<path id="kvg:04f10-s4" kvg:type="㇂" d="M55,11.75c1.31,1.31,2.16,3.12,2.46,6.17C60.88,52.5,72,78.5,89.51,93.46c5.64,4.82,5.18,1.02,4.38-6.94"/>
		</g>
		<g id="kvg:04f10-g4" kvg:element="丿">
			<path id="kvg:04f10-s5" kvg:type="㇒" d="M84.69,45.39c-0.07,1.73-0.54,3.07-1.5,4.95c-4.57,8.91-18.32,25.41-39.63,35.88"/>
		</g>
		<g id="kvg:04f10-g5" kvg:element="弋" kvg:part="2">
			<g id="kvg:04f10-g6" kvg:element="丶">
				<path id="kvg:04f10-s6" kvg:type="㇔" d="M81.75,14.12c3.18,2.08,8.27,6.82,9.75,10.38"/>
			</g>
		</g>
	</g>
</g>
</g>
<g id="kvg:StrokeNumbers_04f10" style="font-size:8;fill:#808080">
	<text transform="matrix(1 0 0 1 24.50 15.50)">1</text>
	<text transform="matrix(1 0 0 1 19.50 56.50)">2</text>
	<text transform="matrix(1 0 0 1 39.75 37.63)">3</text>
	<text transform="matrix(1 0 0 1 46.50 9.50)">4</text>
	<text transform="matrix(1 0 0 1 75.50 45.13)">5</text>
	<text transform="matrix(1 0 0 1 74.25 13.50)">6</text>
</g>
</svg>
