<?xml version="1.0" encoding="UTF-8"?>
<!--
Copyright (C) 2009/2010/2011 Ulrich Apel.
This work is distributed under the conditions of the Creative Commons 
Attribution-Share Alike 3.0 Licence. This means you are free:
* to Share - to copy, distribute and transmit the work
* to Remix - to adapt the work

Under the following conditions:
* Attribution. You must attribute the work by stating your use of KanjiVG in
  your own copyright header and linking to KanjiVG's website
  (http://kanjivg.tagaini.net)
* Share Alike. If you alter, transform, or build upon this work, you may
  distribute the resulting work only under the same or similar license to this
  one.

See http://creativecommons.org/licenses/by-sa/3.0/ for more details.
-->
<!DOCTYPE svg PUBLIC "-//W3C//DTD SVG 1.0//EN" "http://www.w3.org/TR/2001/REC-SVG-20010904/DTD/svg10.dtd" [
<!ATTLIST g
xmlns:kvg CDATA #FIXED "http://kanjivg.tagaini.net"
kvg:element CDATA #IMPLIED
kvg:variant CDATA #IMPLIED
kvg:partial CDATA #IMPLIED
kvg:original CDATA #IMPLIED
kvg:part CDATA #IMPLIED
kvg:number CDATA #IMPLIED
kvg:tradForm CDATA #IMPLIED
kvg:radicalForm CDATA #IMPLIED
kvg:position CDATA #IMPLIED
kvg:radical CDATA #IMPLIED
kvg:phon CDATA #IMPLIED >
<!ATTLIST path
xmlns:kvg CDATA #FIXED "http://kanjivg.tagaini.net"
kvg:type CDATA #IMPLIED >
]>
<svg xmlns="http://www.w3.org/2000/svg" width="109" height="109" viewBox="0 0 109 109">
<g id="kvg:StrokePaths_04f1a" style="fill:none;stroke:#000000;stroke-width:3;stroke-linecap:round;stroke-linejoin:round;">
<g id="kvg:04f1a" kvg:element="会">
	<g id="kvg:04f1a-g1" kvg:element="人" kvg:position="top" kvg:radical="general">
		<path id="kvg:04f1a-s1" kvg:type="㇒" d="M52.25,14c0.25,2.28-0.52,3.59-1.8,5.62c-5.76,9.14-17.9,27-39.2,39.88"/>
		<path id="kvg:04f1a-s2" kvg:type="㇏" d="M54.5,19.25c6.73,7.3,24.09,24.81,32.95,31.91c2.73,2.18,5.61,3.8,9.05,4.59"/>
	</g>
	<g id="kvg:04f1a-g2" kvg:element="云" kvg:position="bottom">
		<g id="kvg:04f1a-g3" kvg:element="二">
			<path id="kvg:04f1a-s3" kvg:type="㇐" d="M37.36,50.16c1.64,0.34,4.04,0.36,4.98,0.25c6.79-0.79,14.29-1.91,19.66-2.4c1.56-0.14,3.25-0.39,4.66,0"/>
			<path id="kvg:04f1a-s4" kvg:type="㇐" d="M23,65.98c2.12,0.52,4.25,0.64,7.01,0.3c13.77-1.71,30.99-3.66,46.35-3.74c3.04-0.02,4.87,0.14,6.4,0.29"/>
		</g>
		<g id="kvg:04f1a-g4" kvg:element="厶">
			<path id="kvg:04f1a-s5" kvg:type="㇜" d="M47.16,66.38c0.62,1.65-0.03,2.93-0.92,4.28c-5.17,7.8-8.02,11.38-14.99,18.84c-2.11,2.25-1.5,4.18,2,3.75c7.35-0.91,28.19-5.83,40.16-7.95"/>
			<path id="kvg:04f1a-s6" kvg:type="㇔" d="M66.62,77.39c4.52,3.23,11,12.73,13.06,18.82"/>
		</g>
	</g>
</g>
</g>
<g id="kvg:StrokeNumbers_04f1a" style="font-size:8;fill:#808080">
	<text transform="matrix(1 0 0 1 44.25 10.63)">1</text>
	<text transform="matrix(1 0 0 1 60.75 21.13)">2</text>
	<text transform="matrix(1 0 0 1 39.75 46.63)">3</text>
	<text transform="matrix(1 0 0 1 23.25 63.13)">4</text>
	<text transform="matrix(1 0 0 1 33.75 76.63)">5</text>
	<text transform="matrix(1 0 0 1 69.75 76.63)">6</text>
</g>
</svg>
