<?xml version="1.0" encoding="UTF-8"?>
<!--
Copyright (C) 2009/2010/2011 Ulrich Apel.
This work is distributed under the conditions of the Creative Commons 
Attribution-Share Alike 3.0 Licence. This means you are free:
* to Share - to copy, distribute and transmit the work
* to Remix - to adapt the work

Under the following conditions:
* Attribution. You must attribute the work by stating your use of KanjiVG in
  your own copyright header and linking to KanjiVG's website
  (http://kanjivg.tagaini.net)
* Share Alike. If you alter, transform, or build upon this work, you may
  distribute the resulting work only under the same or similar license to this
  one.

See http://creativecommons.org/licenses/by-sa/3.0/ for more details.
-->
<!DOCTYPE svg PUBLIC "-//W3C//DTD SVG 1.0//EN" "http://www.w3.org/TR/2001/REC-SVG-20010904/DTD/svg10.dtd" [
<!ATTLIST g
xmlns:kvg CDATA #FIXED "http://kanjivg.tagaini.net"
kvg:element CDATA #IMPLIED
kvg:variant CDATA #IMPLIED
kvg:partial CDATA #IMPLIED
kvg:original CDATA #IMPLIED
kvg:part CDATA #IMPLIED
kvg:number CDATA #IMPLIED
kvg:tradForm CDATA #IMPLIED
kvg:radicalForm CDATA #IMPLIED
kvg:position CDATA #IMPLIED
kvg:radical CDATA #IMPLIED
kvg:phon CDATA #IMPLIED >
<!ATTLIST path
xmlns:kvg CDATA #FIXED "http://kanjivg.tagaini.net"
kvg:type CDATA #IMPLIED >
]>
<svg xmlns="http://www.w3.org/2000/svg" width="109" height="109" viewBox="0 0 109 109">
<g id="kvg:StrokePaths_04f5d" style="fill:none;stroke:#000000;stroke-width:3;stroke-linecap:round;stroke-linejoin:round;">
<g id="kvg:04f5d" kvg:element="佝">
	<g id="kvg:04f5d-g1" kvg:element="亻" kvg:variant="true" kvg:original="人" kvg:position="left" kvg:radical="general">
		<path id="kvg:04f5d-s1" kvg:type="㇒" d="M32.49,16.89c0.13,1.14,0.24,2.58-0.12,3.98c-2.26,8.88-11.02,26.05-21.56,38.09"/>
		<path id="kvg:04f5d-s2" kvg:type="㇑" d="M26.53,41.5c0.59,0.61,0.76,1.97,0.76,3.23c0,13.02-0.29,41.15-0.29,49.9"/>
	</g>
	<g id="kvg:04f5d-g2" kvg:element="句" kvg:position="right">
		<g id="kvg:04f5d-g3" kvg:element="勹">
			<g id="kvg:04f5d-g4" kvg:element="丿">
				<path id="kvg:04f5d-s3" kvg:type="㇒" d="M53.96,13.35c0.05,0.79,0.1,2.04-0.1,3.18c-1.17,6.7-7.92,21.4-17.15,30.39"/>
			</g>
			<path id="kvg:04f5d-s4" kvg:type="㇆" d="M52.15,29.85c0.91,0.69,3.19,0.91,4.65,0.46c1.46-0.46,27.78-3.79,31.4-4.4c2.74-0.46,3.84,1.59,3.83,4.8C92,46.5,88.25,74.25,81.82,91.88c-2.04,5.6-5.82,3.38-8.84-1.14"/>
		</g>
		<g id="kvg:04f5d-g5" kvg:element="口">
			<path id="kvg:04f5d-s5" kvg:type="㇑" d="M43.86,50.4c0.31,0.31,1.12,2.08,1.26,2.47c1.07,3.12,2.58,18.52,3.31,24.12"/>
			<path id="kvg:04f5d-s6" kvg:type="㇕b" d="M45.05,52.65c7.94-1.76,16.3-3,20.59-3.47c1.56-0.17,2.6,0.81,2.28,2.41c-0.83,4.17-2.66,14.66-3.89,21.39"/>
			<path id="kvg:04f5d-s7" kvg:type="㇐b" d="M48.73,74.85c5.03-0.53,10.83-0.94,17.73-1.75"/>
		</g>
	</g>
</g>
</g>
<g id="kvg:StrokeNumbers_04f5d" style="font-size:8;fill:#808080">
	<text transform="matrix(1 0 0 1 23.50 16.50)">1</text>
	<text transform="matrix(1 0 0 1 20.50 56.50)">2</text>
	<text transform="matrix(1 0 0 1 45.50 13.50)">3</text>
	<text transform="matrix(1 0 0 1 57.50 26.50)">4</text>
	<text transform="matrix(1 0 0 1 37.50 59.50)">5</text>
	<text transform="matrix(1 0 0 1 47.50 48.50)">6</text>
	<text transform="matrix(1 0 0 1 52.50 71.50)">7</text>
</g>
</svg>
