<?xml version="1.0" encoding="UTF-8"?>
<!--
Copyright (C) 2009/2010/2011 Ulrich Apel.
This work is distributed under the conditions of the Creative Commons 
Attribution-Share Alike 3.0 Licence. This means you are free:
* to Share - to copy, distribute and transmit the work
* to Remix - to adapt the work

Under the following conditions:
* Attribution. You must attribute the work by stating your use of KanjiVG in
  your own copyright header and linking to KanjiVG's website
  (http://kanjivg.tagaini.net)
* Share Alike. If you alter, transform, or build upon this work, you may
  distribute the resulting work only under the same or similar license to this
  one.

See http://creativecommons.org/licenses/by-sa/3.0/ for more details.
-->
<!DOCTYPE svg PUBLIC "-//W3C//DTD SVG 1.0//EN" "http://www.w3.org/TR/2001/REC-SVG-20010904/DTD/svg10.dtd" [
<!ATTLIST g
xmlns:kvg CDATA #FIXED "http://kanjivg.tagaini.net"
kvg:element CDATA #IMPLIED
kvg:variant CDATA #IMPLIED
kvg:partial CDATA #IMPLIED
kvg:original CDATA #IMPLIED
kvg:part CDATA #IMPLIED
kvg:number CDATA #IMPLIED
kvg:tradForm CDATA #IMPLIED
kvg:radicalForm CDATA #IMPLIED
kvg:position CDATA #IMPLIED
kvg:radical CDATA #IMPLIED
kvg:phon CDATA #IMPLIED >
<!ATTLIST path
xmlns:kvg CDATA #FIXED "http://kanjivg.tagaini.net"
kvg:type CDATA #IMPLIED >
]>
<svg xmlns="http://www.w3.org/2000/svg" width="109" height="109" viewBox="0 0 109 109">
<g id="kvg:StrokePaths_04f7f" style="fill:none;stroke:#000000;stroke-width:3;stroke-linecap:round;stroke-linejoin:round;">
<g id="kvg:04f7f" kvg:element="使">
	<g id="kvg:04f7f-g1" kvg:element="亻" kvg:variant="true" kvg:original="人" kvg:position="left" kvg:radical="general">
		<path id="kvg:04f7f-s1" kvg:type="㇒" d="M32.51,18.25c0.23,1.89-0.06,4.11-0.8,5.73C27.03,34.28,21.12,45,10.38,56.5"/>
		<path id="kvg:04f7f-s2" kvg:type="㇑" d="M24.53,42.75c0.92,0.92,1.75,2.5,1.74,3.75c-0.03,10.66-0.2,32.7-0.26,44.5C26.01,93.55,26,95.62,26,97"/>
	</g>
	<g id="kvg:04f7f-g2" kvg:element="吏" kvg:position="right">
		<g id="kvg:04f7f-g3" kvg:element="丈" kvg:part="1">
			<g id="kvg:04f7f-g4" kvg:element="一">
				<path id="kvg:04f7f-s3" kvg:type="㇐" d="M44,30.64c1.42,0.38,4.04,0.3,5.45,0.13c8.43-1.02,21.93-2.77,31.57-3.63c2.35-0.21,3.79,0.18,4.98,0.37"/>
			</g>
		</g>
		<g id="kvg:04f7f-g5" kvg:element="口">
			<path id="kvg:04f7f-s4" kvg:type="㇑" d="M42.5,43.19c1.12,0.56,1.99,1.94,2.17,2.75c0.79,3.66,1.69,8.6,2.48,13.44c0.17,1.04,0.33,2.08,0.49,3.09"/>
			<path id="kvg:04f7f-s5" kvg:type="㇕b" d="M45.57,44.79c8.26-1.22,27.06-3.54,36.45-4.38c4.37-0.39,5.86,1.84,4.52,5.21c-1.45,3.66-2.44,5.85-4.3,10.81"/>
			<path id="kvg:04f7f-s6" kvg:type="㇐b" d="M48.26,59.6c4.73-0.44,22.73-1.85,32.87-2.44c1.7-0.1,3.17-0.18,4.33-0.22"/>
		</g>
		<g id="kvg:04f7f-g6" kvg:element="丈" kvg:part="2">
			<g id="kvg:04f7f-g7" kvg:element="乂">
				<g id="kvg:04f7f-g8" kvg:element="丿">
					<path id="kvg:04f7f-s7" kvg:type="㇒" d="M63.38,12.93c1.22,1.22,1.39,2.57,1.44,4.82C66,70,66.62,81.25,36.75,95"/>
				</g>
				<path id="kvg:04f7f-s8" kvg:type="㇏" d="M44,67.88c7.25,0.38,28.04,16.2,40.84,22.59c2.52,1.25,4.41,2.29,7.54,3.04"/>
			</g>
		</g>
	</g>
</g>
</g>
<g id="kvg:StrokeNumbers_04f7f" style="font-size:8;fill:#808080">
	<text transform="matrix(1 0 0 1 24.50 18.13)">1</text>
	<text transform="matrix(1 0 0 1 18.50 58.50)">2</text>
	<text transform="matrix(1 0 0 1 44.25 27.13)">3</text>
	<text transform="matrix(1 0 0 1 37.50 51.50)">4</text>
	<text transform="matrix(1 0 0 1 45.50 41.50)">5</text>
	<text transform="matrix(1 0 0 1 51.50 56.50)">6</text>
	<text transform="matrix(1 0 0 1 56.50 13.50)">7</text>
	<text transform="matrix(1 0 0 1 36.75 69.13)">8</text>
</g>
</svg>
