<?xml version="1.0" encoding="UTF-8"?>
<!--
Copyright (C) 2009/2010/2011 Ulrich Apel.
This work is distributed under the conditions of the Creative Commons 
Attribution-Share Alike 3.0 Licence. This means you are free:
* to Share - to copy, distribute and transmit the work
* to Remix - to adapt the work

Under the following conditions:
* Attribution. You must attribute the work by stating your use of KanjiVG in
  your own copyright header and linking to KanjiVG's website
  (http://kanjivg.tagaini.net)
* Share Alike. If you alter, transform, or build upon this work, you may
  distribute the resulting work only under the same or similar license to this
  one.

See http://creativecommons.org/licenses/by-sa/3.0/ for more details.
-->
<!DOCTYPE svg PUBLIC "-//W3C//DTD SVG 1.0//EN" "http://www.w3.org/TR/2001/REC-SVG-20010904/DTD/svg10.dtd" [
<!ATTLIST g
xmlns:kvg CDATA #FIXED "http://kanjivg.tagaini.net"
kvg:element CDATA #IMPLIED
kvg:variant CDATA #IMPLIED
kvg:partial CDATA #IMPLIED
kvg:original CDATA #IMPLIED
kvg:part CDATA #IMPLIED
kvg:number CDATA #IMPLIED
kvg:tradForm CDATA #IMPLIED
kvg:radicalForm CDATA #IMPLIED
kvg:position CDATA #IMPLIED
kvg:radical CDATA #IMPLIED
kvg:phon CDATA #IMPLIED >
<!ATTLIST path
xmlns:kvg CDATA #FIXED "http://kanjivg.tagaini.net"
kvg:type CDATA #IMPLIED >
]>
<svg xmlns="http://www.w3.org/2000/svg" width="109" height="109" viewBox="0 0 109 109">
<g id="kvg:StrokePaths_0501f-Kaisho" style="fill:none;stroke:#000000;stroke-width:3;stroke-linecap:round;stroke-linejoin:round;">
<g id="kvg:0501f-Kaisho" kvg:element="借">
	<g id="kvg:0501f-Kaisho-g1" kvg:element="亻" kvg:variant="true" kvg:original="人" kvg:position="left" kvg:radical="general">
		<path id="kvg:0501f-Kaisho-s1" kvg:type="㇒" d="M33.01,17.75c0.23,2.22-0.06,5.13-0.79,7.03C27.56,36.9,21.66,48.28,11,63.04"/>
		<path id="kvg:0501f-Kaisho-s2" kvg:type="㇑" d="M26.53,44.5c1.18,9.11-0.82,42.25-0.28,50.25"/>
	</g>
	<g id="kvg:0501f-Kaisho-g2" kvg:element="昔" kvg:position="right">
		<g id="kvg:0501f-Kaisho-g3" kvg:position="top">
			<g id="kvg:0501f-Kaisho-g4" kvg:element="廾" kvg:variant="true">
				<g id="kvg:0501f-Kaisho-g5" kvg:element="十" kvg:part="1">
					<path id="kvg:0501f-Kaisho-s3" kvg:type="㇐" d="M45.15,33.89c0.81,0.38,2.3,0.49,3.11,0.38c5.17-0.66,32.27-3.83,37.28-3.38c1.35,0.12,2.17,0.18,2.84,0.37"/>
				</g>
				<g id="kvg:0501f-Kaisho-g6" kvg:element="丿" kvg:variant="true">
					<path id="kvg:0501f-Kaisho-s4" kvg:type="㇑" d="M53.83,20.25c0.94,0.5,1.51,2.25,1.69,3.25s1.36,17.25,2.01,26.75"/>
				</g>
				<g id="kvg:0501f-Kaisho-g7" kvg:element="十" kvg:part="2">
					<path id="kvg:0501f-Kaisho-s5" kvg:type="㇑" d="M76.88,14.75c0.94,0.5,1.5,2.25,1.69,3.25c0.19,1-2.45,20-3.74,30.25"/>
				</g>
			</g>
			<path id="kvg:0501f-Kaisho-s6" kvg:type="㇐" d="M37.25,52.7c1.31,0.54,3.74,0.8,5.03,0.54c5.32-1.05,32.97-4.49,49.12-5.23c2.19-0.1,3.5,0.26,4.59,0.53"/>
		</g>
		<g id="kvg:0501f-Kaisho-g8" kvg:element="日" kvg:position="bottom">
			<path id="kvg:0501f-Kaisho-s7" kvg:type="㇑" d="M51.43,61.58c0.39,0.79,1.21,2.14,1.21,3.2s-0.26,29.11-0.26,29.64c0,0.53,0.13,0.53,0.26,1.59"/>
			<path id="kvg:0501f-Kaisho-s8" kvg:type="㇕a" d="M53.29,62.66c2.2-0.13,23.9-3.26,25.9-3.42c1.67-0.13,2.74,1.47,2.61,2.25c-0.26,1.59-0.39,18.26-0.39,29.9c0,1.2-0.13,1.72-0.13,2.51"/>
			<path id="kvg:0501f-Kaisho-s9" kvg:type="㇐a" d="M53.68,76.99c4.07,0,8.23-0.74,12.26-1.2c1.39-0.16,2.81-0.33,4.19-0.49"/>
			<path id="kvg:0501f-Kaisho-s10" kvg:type="㇐a" d="M53.54,93.03c6.05-0.57,19.29-2.14,26.83-2.62"/>
		</g>
	</g>
</g>
</g>
<g id="kvg:StrokeNumbers_0501f-Kaisho" style="font-size:8;fill:#808080">
	<text transform="matrix(1 0 0 1 24.49 19.63)">1</text>
	<text transform="matrix(1 0 0 1 18.75 63.13)">2</text>
	<text transform="matrix(1 0 0 1 39.75 31.50)">3</text>
	<text transform="matrix(1 0 0 1 45.50 19.50)">4</text>
	<text transform="matrix(1 0 0 1 67.50 14.50)">5</text>
	<text transform="matrix(1 0 0 1 35.25 49.63)">6</text>
	<text transform="matrix(1 0 0 1 45.50 70.63)">7</text>
	<text transform="matrix(1 0 0 1 54.50 60.13)">8</text>
	<text transform="matrix(1 0 0 1 56.50 73.50)">9</text>
	<text transform="matrix(1 0 0 1 56.50 88.63)">10</text>
</g>
</svg>
