<?xml version="1.0" encoding="UTF-8"?>
<!--
Copyright (C) 2009/2010/2011 Ulrich Apel.
This work is distributed under the conditions of the Creative Commons 
Attribution-Share Alike 3.0 Licence. This means you are free:
* to Share - to copy, distribute and transmit the work
* to Remix - to adapt the work

Under the following conditions:
* Attribution. You must attribute the work by stating your use of KanjiVG in
  your own copyright header and linking to KanjiVG's website
  (http://kanjivg.tagaini.net)
* Share Alike. If you alter, transform, or build upon this work, you may
  distribute the resulting work only under the same or similar license to this
  one.

See http://creativecommons.org/licenses/by-sa/3.0/ for more details.
-->
<!DOCTYPE svg PUBLIC "-//W3C//DTD SVG 1.0//EN" "http://www.w3.org/TR/2001/REC-SVG-20010904/DTD/svg10.dtd" [
<!ATTLIST g
xmlns:kvg CDATA #FIXED "http://kanjivg.tagaini.net"
kvg:element CDATA #IMPLIED
kvg:variant CDATA #IMPLIED
kvg:partial CDATA #IMPLIED
kvg:original CDATA #IMPLIED
kvg:part CDATA #IMPLIED
kvg:number CDATA #IMPLIED
kvg:tradForm CDATA #IMPLIED
kvg:radicalForm CDATA #IMPLIED
kvg:position CDATA #IMPLIED
kvg:radical CDATA #IMPLIED
kvg:phon CDATA #IMPLIED >
<!ATTLIST path
xmlns:kvg CDATA #FIXED "http://kanjivg.tagaini.net"
kvg:type CDATA #IMPLIED >
]>
<svg xmlns="http://www.w3.org/2000/svg" width="109" height="109" viewBox="0 0 109 109">
<g id="kvg:StrokePaths_0502d" style="fill:none;stroke:#000000;stroke-width:3;stroke-linecap:round;stroke-linejoin:round;">
<g id="kvg:0502d" kvg:element="倭">
	<g id="kvg:0502d-g1" kvg:element="亻" kvg:variant="true" kvg:original="人" kvg:position="left" kvg:radical="general">
		<path id="kvg:0502d-s1" kvg:type="㇒" d="M31.44,15.25c0.13,1.23,0.1,2.81-0.36,4.29C28,29.38,21.25,45.25,10.75,60.07"/>
		<path id="kvg:0502d-s2" kvg:type="㇑" d="M23.73,42.36c1.15,1.15,1.51,2.39,1.51,4.48c0,10.16-0.03,29.68-0.04,41.92c0,3.44,0,6.31,0,8.23"/>
	</g>
	<g id="kvg:0502d-g2" kvg:element="委" kvg:position="right">
		<g id="kvg:0502d-g3" kvg:element="禾" kvg:position="top">
			<g id="kvg:0502d-g4" kvg:element="丿" kvg:position="top">
				<path id="kvg:0502d-s3" kvg:type="㇒" d="M77.67,11.25c-0.17,1.12-0.61,1.85-1.99,2.6C68.75,17.62,59,21,40.33,24.77"/>
			</g>
			<g id="kvg:0502d-g5" kvg:element="木" kvg:position="bottom">
				<path id="kvg:0502d-s4" kvg:type="㇐" d="M36.15,32.84c3.43,0.67,6.58,0.12,9.99-0.27c10.36-1.19,27.64-2.81,39.12-3.38c2.71-0.14,5.25,0.27,7.9,0.58"/>
				<path id="kvg:0502d-s5" kvg:type="㇑" d="M61.53,21.53c0.97,0.97,1.04,2.09,1.04,3.19c0,0.51-0.04,13.29-0.07,21.65c-0.01,2.6-0.01,4.76-0.01,6"/>
				<path id="kvg:0502d-s6" kvg:type="㇒" d="M59.25,31.99c0,0.76-1.4,2.48-2.51,3.75C50.49,42.89,41.1,50.25,31.3,53.72"/>
				<path id="kvg:0502d-s7" kvg:type="㇏" d="M63.79,31.84c5.99,5.05,15.54,11.38,22.09,15.28c2.75,1.63,5.25,2.88,8.48,4"/>
			</g>
		</g>
		<g id="kvg:0502d-g6" kvg:element="女" kvg:position="bottom">
			<path id="kvg:0502d-s8" kvg:type="㇛" d="M58.02,53.64c0.43,1.11,0.24,2.56-0.22,3.9c-2.55,7.47-4.39,12.75-9.79,20.54c-1.17,1.7-1.08,2.63,1.08,2.83c10.28,0.96,20.15,4.46,29.52,9.91c3.38,1.96,6.13,4.41,8.25,6.8"/>
			<path id="kvg:0502d-s9" kvg:type="㇒" d="M75.46,60.64c0.11,0.89,0.22,3.07-0.23,4.35C71.41,75.97,62.5,89.75,36.67,98"/>
			<path id="kvg:0502d-s10" kvg:type="㇐" d="M32.88,65.75c3.17,1.06,6.27,0.68,9.52,0.43c11.3-0.87,30.55-2.72,44.35-3.12c3.12-0.09,7.03-0.64,10,0.65"/>
		</g>
	</g>
</g>
</g>
<g id="kvg:StrokeNumbers_0502d" style="font-size:8;fill:#808080">
	<text transform="matrix(1 0 0 1 23.25 15.60)">1</text>
	<text transform="matrix(1 0 0 1 18.25 60.25)">2</text>
	<text transform="matrix(1 0 0 1 68.25 11.73)">3</text>
	<text transform="matrix(1 0 0 1 33.19 31.25)">4</text>
	<text transform="matrix(1 0 0 1 55.19 29.25)">5</text>
	<text transform="matrix(1 0 0 1 42.25 42.25)">6</text>
	<text transform="matrix(1 0 0 1 76.25 39.25)">7</text>
	<text transform="matrix(1 0 0 1 50.25 54.25)">8</text>
	<text transform="matrix(1 0 0 1 69.25 56.25)">9</text>
	<text transform="matrix(1 0 0 1 29.25 63.25)">10</text>
</g>
</svg>
