<?xml version="1.0" encoding="UTF-8"?>
<!--
Copyright (C) 2009/2010/2011 Ulrich Apel.
This work is distributed under the conditions of the Creative Commons 
Attribution-Share Alike 3.0 Licence. This means you are free:
* to Share - to copy, distribute and transmit the work
* to Remix - to adapt the work

Under the following conditions:
* Attribution. You must attribute the work by stating your use of KanjiVG in
  your own copyright header and linking to KanjiVG's website
  (http://kanjivg.tagaini.net)
* Share Alike. If you alter, transform, or build upon this work, you may
  distribute the resulting work only under the same or similar license to this
  one.

See http://creativecommons.org/licenses/by-sa/3.0/ for more details.
-->
<!DOCTYPE svg PUBLIC "-//W3C//DTD SVG 1.0//EN" "http://www.w3.org/TR/2001/REC-SVG-20010904/DTD/svg10.dtd" [
<!ATTLIST g
xmlns:kvg CDATA #FIXED "http://kanjivg.tagaini.net"
kvg:element CDATA #IMPLIED
kvg:variant CDATA #IMPLIED
kvg:partial CDATA #IMPLIED
kvg:original CDATA #IMPLIED
kvg:part CDATA #IMPLIED
kvg:number CDATA #IMPLIED
kvg:tradForm CDATA #IMPLIED
kvg:radicalForm CDATA #IMPLIED
kvg:position CDATA #IMPLIED
kvg:radical CDATA #IMPLIED
kvg:phon CDATA #IMPLIED >
<!ATTLIST path
xmlns:kvg CDATA #FIXED "http://kanjivg.tagaini.net"
kvg:type CDATA #IMPLIED >
]>
<svg xmlns="http://www.w3.org/2000/svg" width="109" height="109" viewBox="0 0 109 109">
<g id="kvg:StrokePaths_05026-Jinmei" style="fill:none;stroke:#000000;stroke-width:3;stroke-linecap:round;stroke-linejoin:round;">
<g id="kvg:05026-Jinmei" kvg:element="倦">
	<g id="kvg:05026-Jinmei-g1" kvg:element="亻" kvg:variant="true" kvg:original="人" kvg:position="left" kvg:radical="general">
		<path id="kvg:05026-Jinmei-s1" kvg:type="㇒" d="M30.49,16.39c0.13,1.16,0.23,2.62-0.12,4.05c-2.21,9.04-10.76,26.52-21.07,38.77"/>
		<path id="kvg:05026-Jinmei-s2" kvg:type="㇑" d="M25.03,40c0.59,0.61,0.76,1.97,0.76,3.23c0,13.02-0.29,41.65-0.29,50.4"/>
	</g>
	<g id="kvg:05026-Jinmei-g2" kvg:element="卷" kvg:variant="true" kvg:original="巻" kvg:position="right">
		<g id="kvg:05026-Jinmei-g3" kvg:position="top">
			<path id="kvg:05026-Jinmei-s3" kvg:type="㇔" d="M50.24,19.06c0.04,0.38,0.08,0.99-0.08,1.54c-0.94,3.25-6.15,8.78-13.77,14.73"/>
			<path id="kvg:05026-Jinmei-s4" kvg:type="㇒" d="M74.12,18.8c6.22,2.34,15.15,9.06,16.71,12.69"/>
			<g id="kvg:05026-Jinmei-g4" kvg:element="二">
				<g id="kvg:05026-Jinmei-g5" kvg:position="top">
					<path id="kvg:05026-Jinmei-s5" kvg:type="㇐" d="M42.16,35.21c1.16,0.18,3.28,0.23,4.43,0.18c7.37-0.31,24.53-2.14,33.72-2.31c1.93-0.04,3.08,0.09,4.05,0.18"/>
				</g>
				<g id="kvg:05026-Jinmei-g6" kvg:position="bottom">
					<path id="kvg:05026-Jinmei-s6" kvg:type="㇐" d="M35.58,48.24c1.69,0.47,4.79,0.47,6.48,0.47c10.07-0.02,30.98-2.72,48.72-2.92c2.82-0.03,4.51,0.22,5.92,0.46"/>
				</g>
			</g>
			<g id="kvg:05026-Jinmei-g7" kvg:element="人">
				<path id="kvg:05026-Jinmei-s7" kvg:type="㇒" d="M62.51,14.25c0.57,0.8,0.92,2.01,0.6,3.8c-1.07,5.97-13.52,38.59-28.61,49.13"/>
				<path id="kvg:05026-Jinmei-s8" kvg:type="㇏" d="M67.38,35.56c3.56,5.61,18.91,23.92,22.84,28.03c1.33,1.39,3.05,1.99,4.38,2.39"/>
			</g>
		</g>
		<g id="kvg:05026-Jinmei-g8" kvg:element="己" kvg:variant="true" kvg:position="bottom">
			<path id="kvg:05026-Jinmei-s9" kvg:type="㇆" d="M49.93,61.54c0.59,0.06,2.15,0.17,3.32,0.05c4.58-0.5,18.76-2.32,20.3-2.71c2.31-0.59,3.91,0.66,3.94,2.58c0.04,3.27-2.16,10.65-4.92,15.98c-2.01,3.89-4.65,0.76-5.73-0.46"/>
			<path id="kvg:05026-Jinmei-s10" kvg:type="㇟" d="M52.08,62.12c0,1.94,0.08,3.14,0.08,4.94c0,10.75,0.22,10.1,0.22,15.57c0,10.99,2.12,11.32,18.24,11.32c16.74,0,18.92-0.92,18.92-8.96"/>
		</g>
	</g>
</g>
</g>
<g id="kvg:StrokeNumbers_05026-Jinmei" style="font-size:8;fill:#808080">
	<text transform="matrix(1 0 0 1 22.50 16.50)">1</text>
	<text transform="matrix(1 0 0 1 18.50 57.50)">2</text>
	<text transform="matrix(1 0 0 1 43.75 19.50)">3</text>
	<text transform="matrix(1 0 0 1 73.75 15.75)">4</text>
	<text transform="matrix(1 0 0 1 48.50 32.50)">5</text>
	<text transform="matrix(1 0 0 1 33.50 46.50)">6</text>
	<text transform="matrix(1 0 0 1 57.50 12.50)">7</text>
	<text transform="matrix(1 0 0 1 73.50 42.50)">8</text>
	<text transform="matrix(1 0 0 1 52.50 59.50)">9</text>
	<text transform="matrix(1 0 0 1 42.50 70.50)">10</text>
</g>
</svg>
