<?xml version="1.0" encoding="UTF-8"?>
<!--
Copyright (C) 2009/2010/2011 Ulrich Apel.
This work is distributed under the conditions of the Creative Commons 
Attribution-Share Alike 3.0 Licence. This means you are free:
* to Share - to copy, distribute and transmit the work
* to Remix - to adapt the work

Under the following conditions:
* Attribution. You must attribute the work by stating your use of KanjiVG in
  your own copyright header and linking to KanjiVG's website
  (http://kanjivg.tagaini.net)
* Share Alike. If you alter, transform, or build upon this work, you may
  distribute the resulting work only under the same or similar license to this
  one.

See http://creativecommons.org/licenses/by-sa/3.0/ for more details.
-->
<!DOCTYPE svg PUBLIC "-//W3C//DTD SVG 1.0//EN" "http://www.w3.org/TR/2001/REC-SVG-20010904/DTD/svg10.dtd" [
<!ATTLIST g
xmlns:kvg CDATA #FIXED "http://kanjivg.tagaini.net"
kvg:element CDATA #IMPLIED
kvg:variant CDATA #IMPLIED
kvg:partial CDATA #IMPLIED
kvg:original CDATA #IMPLIED
kvg:part CDATA #IMPLIED
kvg:number CDATA #IMPLIED
kvg:tradForm CDATA #IMPLIED
kvg:radicalForm CDATA #IMPLIED
kvg:position CDATA #IMPLIED
kvg:radical CDATA #IMPLIED
kvg:phon CDATA #IMPLIED >
<!ATTLIST path
xmlns:kvg CDATA #FIXED "http://kanjivg.tagaini.net"
kvg:type CDATA #IMPLIED >
]>
<svg xmlns="http://www.w3.org/2000/svg" width="109" height="109" viewBox="0 0 109 109">
<g id="kvg:StrokePaths_0502c-KaishoHzFst" style="fill:none;stroke:#000000;stroke-width:3;stroke-linecap:round;stroke-linejoin:round;">
<g id="kvg:0502c-KaishoHzFst" kvg:element="倬">
	<g id="kvg:0502c-KaishoHzFst-g1" kvg:element="亻" kvg:variant="true" kvg:original="人" kvg:position="left" kvg:radical="general">
		<path id="kvg:0502c-KaishoHzFst-s1" kvg:type="㇒" d="M34.98,14.89c0.14,1.16,0.25,2.62-0.13,4.05c-2.37,9.04-11.52,26.52-22.55,38.77"/>
		<path id="kvg:0502c-KaishoHzFst-s2" kvg:type="㇑" d="M27.49,41c0.66,0.68,0.84,2.19,0.84,3.58c0,14.46-0.32,40.58-0.32,50.29"/>
	</g>
	<g id="kvg:0502c-KaishoHzFst-g2" kvg:element="卓" kvg:position="right">
		<g id="kvg:0502c-KaishoHzFst-g3" kvg:element="卜" kvg:original="ト" kvg:position="top">
			<path id="kvg:0502c-KaishoHzFst-s3" kvg:type="㇐" d="M66.25,22.5c2,0,11.67-1.36,17.5-2.27C85.83,19.9,86.75,20.08,88,20"/>
			<path id="kvg:0502c-KaishoHzFst-s4" kvg:type="㇑" d="M63.31,11.38c0.76,0.33,2.01,1.62,2.01,3.62c0,0.67,0.4,15.03,0.25,19.13"/>
		</g>
		<g id="kvg:0502c-KaishoHzFst-g4" kvg:element="早" kvg:position="bottom">
			<g id="kvg:0502c-KaishoHzFst-g5" kvg:element="日" kvg:position="top">
				<path id="kvg:0502c-KaishoHzFst-s5" kvg:type="㇑" d="M46.66,35.36c0.68,1.14,1.58,1.5,1.8,3.03c0.59,4.17,2.67,19.12,2.7,22.62"/>
				<path id="kvg:0502c-KaishoHzFst-s6" kvg:type="㇕a" d="M49.33,36.76c3.84-0.19,33.64-4.25,37.11-3.77c1.38,0.19,2.7,1.68,2.17,3.6c-0.99,3.6-3.06,14.66-4.86,21.09"/>
				<path id="kvg:0502c-KaishoHzFst-s7" kvg:type="㇐a" d="M50.1,47.18c6.1-0.39,12.19-0.99,18.29-1.48c1.87-0.15,3.73-0.3,5.51-0.44"/>
				<path id="kvg:0502c-KaishoHzFst-s8" kvg:type="㇐a" d="M51.82,58.43c9.45-0.72,26.73-2.27,31.53-2.27"/>
			</g>
			<g id="kvg:0502c-KaishoHzFst-g6" kvg:element="十" kvg:position="bottom">
				<path id="kvg:0502c-KaishoHzFst-s9" kvg:type="㇐" d="M38.38,74.71c1.19,0.46,3.38,0.58,4.57,0.46c10.31-1.09,42.32-4.46,52.01-4.42c1.99,0.01,3.18,0.22,4.17,0.45"/>
				<path id="kvg:0502c-KaishoHzFst-s10" kvg:type="㇑" d="M65.23,60.25c0.44,0.55,1.47,2.5,1.47,5.24c0,1.11-0.06,26.12-0.15,33.01"/>
			</g>
		</g>
	</g>
</g>
</g>
<g id="kvg:StrokeNumbers_0502c-KaishoHzFst" style="font-size:8;fill:#808080">
	<text transform="matrix(1 0 0 1 25.50 13.50)">1</text>
	<text transform="matrix(1 0 0 1 20.50 57.50)">2</text>
	<text transform="matrix(1 0 0 1 70.50 18.50)">3</text>
	<text transform="matrix(1 0 0 1 55.50 9.50)">4</text>
	<text transform="matrix(1 0 0 1 39.50 40.50)">5</text>
	<text transform="matrix(1 0 0 1 50.50 33.50)">6</text>
	<text transform="matrix(1 0 0 1 54.50 44.50)">7</text>
	<text transform="matrix(1 0 0 1 55.50 55.50)">8</text>
	<text transform="matrix(1 0 0 1 36.50 71.50)">9</text>
	<text transform="matrix(1 0 0 1 55.50 66.50)">10</text>
</g>
</svg>
