<?xml version="1.0" encoding="UTF-8"?>
<!--
Copyright (C) 2009/2010/2011 Ulrich Apel.
This work is distributed under the conditions of the Creative Commons 
Attribution-Share Alike 3.0 Licence. This means you are free:
* to Share - to copy, distribute and transmit the work
* to Remix - to adapt the work

Under the following conditions:
* Attribution. You must attribute the work by stating your use of KanjiVG in
  your own copyright header and linking to KanjiVG's website
  (http://kanjivg.tagaini.net)
* Share Alike. If you alter, transform, or build upon this work, you may
  distribute the resulting work only under the same or similar license to this
  one.

See http://creativecommons.org/licenses/by-sa/3.0/ for more details.
-->
<!DOCTYPE svg PUBLIC "-//W3C//DTD SVG 1.0//EN" "http://www.w3.org/TR/2001/REC-SVG-20010904/DTD/svg10.dtd" [
<!ATTLIST g
xmlns:kvg CDATA #FIXED "http://kanjivg.tagaini.net"
kvg:element CDATA #IMPLIED
kvg:variant CDATA #IMPLIED
kvg:partial CDATA #IMPLIED
kvg:original CDATA #IMPLIED
kvg:part CDATA #IMPLIED
kvg:number CDATA #IMPLIED
kvg:tradForm CDATA #IMPLIED
kvg:radicalForm CDATA #IMPLIED
kvg:position CDATA #IMPLIED
kvg:radical CDATA #IMPLIED
kvg:phon CDATA #IMPLIED >
<!ATTLIST path
xmlns:kvg CDATA #FIXED "http://kanjivg.tagaini.net"
kvg:type CDATA #IMPLIED >
]>
<svg xmlns="http://www.w3.org/2000/svg" width="109" height="109" viewBox="0 0 109 109">
<g id="kvg:StrokePaths_0504f" style="fill:none;stroke:#000000;stroke-width:3;stroke-linecap:round;stroke-linejoin:round;">
<g id="kvg:0504f" kvg:element="偏">
	<g id="kvg:0504f-g1" kvg:element="亻" kvg:variant="true" kvg:original="人" kvg:position="left" kvg:radical="general">
		<path id="kvg:0504f-s1" kvg:type="㇒" d="M34.98,16.64c0.15,1.12,0,2.03-0.38,3.41c-2.45,8.72-11.23,24.7-23.04,37.91"/>
		<path id="kvg:0504f-s2" kvg:type="㇑" d="M26.53,41.5c0.98,0.98,1.26,2.25,1.26,3.98c0,10.15-0.02,27.61-0.04,39.52c0,3.37-0.01,6.19-0.01,8.12"/>
	</g>
	<g id="kvg:0504f-g2" kvg:element="扁" kvg:position="right" kvg:phon="扁">
		<g id="kvg:0504f-g3" kvg:element="戸" kvg:position="tare">
			<path id="kvg:0504f-s3" kvg:type="㇐" d="M47.51,19.26c2.12,0.49,4.29,0.32,6.13,0.05c8.12-1.19,20.21-3,27.63-3.8c2.11-0.23,4.58-0.32,6.65,0.18"/>
			<path id="kvg:0504f-s4" kvg:type="㇕c" d="M45.31,31.88c1.89,0.6,3.61,0.73,5.57,0.53c11.69-1.16,25.49-3.08,33.24-3.92c3.07-0.33,6.01,0.37,4.94,4.26c-0.69,2.5-1.69,5.25-2.61,9"/>
			<path id="kvg:0504f-s5" kvg:type="㇐b" d="M49.07,46.75c8.06-0.88,20.81-2.25,34.43-3.62c2.08-0.21,4.01-0.31,5.68-0.38"/>
			<path id="kvg:0504f-s6" kvg:type="㇒" d="m47.71,33.43c0.74,0.74,0.79,1.66,0.73,2.82C47.75,50,44.75,69.63,34.75,84.75"/>
		</g>
		<g id="kvg:0504f-g4" kvg:element="冊">
			<g id="kvg:0504f-g5" kvg:element="冂">
				<path id="kvg:0504f-s7" kvg:type="㇑" d="M48.29,60.15c0.84,0.84,1.02,2.08,0.86,3.17c-0.08,0.55-0.01,16.49,0.03,25.55c0.02,3.5,0.03,5.97,0.03,6.13"/>
				<path id="kvg:0504f-s8" kvg:type="㇆a" d="M50.07,61.54c5.07-0.42,29.83-3.33,37.06-4.14c3.12-0.34,5.55,0.24,5.49,3.84c-0.12,6.99-0.08,26.38-0.08,29.53c0,5.84-3.86,2.81-5.7,1.23"/>
			</g>
			<g id="kvg:0504f-g6" kvg:element="廾" kvg:variant="true">
				<g id="kvg:0504f-g7" kvg:element="十" kvg:part="1" kvg:variant="true">
					<path id="kvg:0504f-s9" kvg:type="㇐a" d="M50.21,75.82c10.67-1.07,26.42-2.95,41.05-3.6"/>
				</g>
				<g id="kvg:0504f-g8" kvg:element="丿" kvg:variant="true">
					<path id="kvg:0504f-s10" kvg:type="㇑" d="M61.78,62.7c0.82,0.82,1.05,1.67,1.05,2.9c0,3.68-0.04,13.68-0.07,21.15c-0.02,3.48,0.04,5.49-0.01,6.5"/>
				</g>
				<g id="kvg:0504f-g9" kvg:element="十" kvg:part="2" kvg:variant="true">
					<path id="kvg:0504f-s11" kvg:type="㇑" d="M74.99,60.89c0.88,0.88,1.05,1.99,1.05,3.4c0,4.27,0.04,14.7,0.06,22.21c0.01,2.54,0.01,4.61,0.01,5.75"/>
				</g>
			</g>
		</g>
	</g>
</g>
</g>
<g id="kvg:StrokeNumbers_0504f" style="font-size:8;fill:#808080">
	<text transform="matrix(1 0 0 1 26.50 16.50)">1</text>
	<text transform="matrix(1 0 0 1 20.50 56.50)">2</text>
	<text transform="matrix(1 0 0 1 45.50 15.13)">3</text>
	<text transform="matrix(1 0 0 1 48.50 29.50)">4</text>
	<text transform="matrix(1 0 0 1 52.50 43.50)">5</text>
	<text transform="matrix(1 0 0 1 40.50 39.13)">6</text>
	<text transform="matrix(1 0 0 1 42.75 78.50)">7</text>
	<text transform="matrix(1 0 0 1 51.75 57.13)">8</text>
	<text transform="matrix(1 0 0 1 51.75 73.55)">9</text>
	<text transform="matrix(1 0 0 1 65.50 67.50)">10</text>
	<text transform="matrix(1 0 0 1 78.50 65.50)">11</text>
</g>
</svg>
