<?xml version="1.0" encoding="UTF-8"?>
<!--
Copyright (C) 2009/2010/2011 Ulrich Apel.
This work is distributed under the conditions of the Creative Commons 
Attribution-Share Alike 3.0 Licence. This means you are free:
* to Share - to copy, distribute and transmit the work
* to Remix - to adapt the work

Under the following conditions:
* Attribution. You must attribute the work by stating your use of KanjiVG in
  your own copyright header and linking to KanjiVG's website
  (http://kanjivg.tagaini.net)
* Share Alike. If you alter, transform, or build upon this work, you may
  distribute the resulting work only under the same or similar license to this
  one.

See http://creativecommons.org/licenses/by-sa/3.0/ for more details.
-->
<!DOCTYPE svg PUBLIC "-//W3C//DTD SVG 1.0//EN" "http://www.w3.org/TR/2001/REC-SVG-20010904/DTD/svg10.dtd" [
<!ATTLIST g
xmlns:kvg CDATA #FIXED "http://kanjivg.tagaini.net"
kvg:element CDATA #IMPLIED
kvg:variant CDATA #IMPLIED
kvg:partial CDATA #IMPLIED
kvg:original CDATA #IMPLIED
kvg:part CDATA #IMPLIED
kvg:number CDATA #IMPLIED
kvg:tradForm CDATA #IMPLIED
kvg:radicalForm CDATA #IMPLIED
kvg:position CDATA #IMPLIED
kvg:radical CDATA #IMPLIED
kvg:phon CDATA #IMPLIED >
<!ATTLIST path
xmlns:kvg CDATA #FIXED "http://kanjivg.tagaini.net"
kvg:type CDATA #IMPLIED >
]>
<svg xmlns="http://www.w3.org/2000/svg" width="109" height="109" viewBox="0 0 109 109">
<g id="kvg:StrokePaths_050be-Kaisho" style="fill:none;stroke:#000000;stroke-width:3;stroke-linecap:round;stroke-linejoin:round;">
<g id="kvg:050be-Kaisho" kvg:element="傾">
	<g id="kvg:050be-Kaisho-g1" kvg:element="亻" kvg:variant="true" kvg:original="人" kvg:position="left" kvg:radical="general">
		<path id="kvg:050be-Kaisho-s1" kvg:type="㇒" d="M31.75,15c0.24,2.18-0.07,5.04-0.83,6.91C26.06,33.84,19.9,45.03,8.75,59.54"/>
		<path id="kvg:050be-Kaisho-s2" kvg:type="㇑" d="M24.53,41.5c0.59,0.61,0.7,1.97,0.76,3.23c0.56,11.77-1.02,43.79-0.54,51.02"/>
	</g>
	<g id="kvg:050be-Kaisho-g2" kvg:element="頃" kvg:position="right">
		<g id="kvg:050be-Kaisho-g3" kvg:element="匕" kvg:position="left">
			<path id="kvg:050be-Kaisho-s3" kvg:type="㇐/㇒" d="M39.75,45c3.75,0,6.75-0.75,10.49-1.04c1.33-0.1,2.76-0.71,4.01-0.71"/>
			<path id="kvg:050be-Kaisho-s4" kvg:type="㇙/㇟" d="M38,31.25c0.5,0.66,0.94,1.71,0.94,2.54c0,2.19,0.26,31.83,0.26,34.41c0,3.05,0.63,5.9,3.68,4.37c4.11-2.07,6.36-3.82,9.87-7.31"/>
		</g>
		<g id="kvg:050be-Kaisho-g4" kvg:element="頁" kvg:position="right">
			<g id="kvg:050be-Kaisho-g5" kvg:position="top">
				<path id="kvg:050be-Kaisho-s5" kvg:type="㇐" d="M54.5,16.9c0.89,0.61,2.93,0.89,3.82,0.8c9.85-1,28.34-3.22,37.07-3.91c1.48-0.12,2.37,0.44,3.11,0.77"/>
				<path id="kvg:050be-Kaisho-s6" kvg:type="㇒" d="M75.25,18.45c0.02,0.28,0.03,0.73-0.04,1.13c-0.39,2.36-2.57,7.49-5.54,10.56"/>
			</g>
			<g id="kvg:050be-Kaisho-g6" kvg:element="貝" kvg:position="bottom">
				<g id="kvg:050be-Kaisho-g7" kvg:element="目" kvg:position="top">
					<path id="kvg:050be-Kaisho-s7" kvg:type="㇑" d="M60.79,29.46c0.46,1.11,1.12,1.97,1.12,3.41c-0.01,1.45-0.46,39.71-0.46,40.44c0,0.72,0.15,0.73,0.3,2.19"/>
					<path id="kvg:050be-Kaisho-s8" kvg:type="㇕a" d="M62.68,31.03c2.61-0.01,23.15-2.94,25.52-3c1.98-0.05,3.53,2.24,3.36,3.57c-0.22,1.69-0.86,22.79-0.91,38.69c-0.01,1.63-0.17,2.33-0.17,3.42"/>
					<path id="kvg:050be-Kaisho-s9" kvg:type="㇐a" d="M62.61,45.32c4.73-0.46,9.44-1.16,14.15-1.75c1.4-0.17,2.79-0.34,4.14-0.5"/>
					<path id="kvg:050be-Kaisho-s10" kvg:type="㇐a" d="M62.74,58.11c4.74-0.27,9.47-0.72,14.2-1.12c1.17-0.1,2.33-0.2,3.46-0.29"/>
					<path id="kvg:050be-Kaisho-s11" kvg:type="㇐a" d="M63.36,72.98c6.01-0.67,18.84-1.39,26.42-1.42"/>
				</g>
				<g id="kvg:050be-Kaisho-g8" kvg:position="bottom">
					<path id="kvg:050be-Kaisho-s12" kvg:type="㇒" d="M66.94,78.4c0.55,1.64,1.09,2.1-0.02,3.21c-3.36,3.36-12.37,11.87-20.42,15.33"/>
					<path id="kvg:050be-Kaisho-s13" kvg:type="㇔" d="M85.13,78.77c4.78,4.67,10.41,12.88,11.71,16.73"/>
				</g>
			</g>
		</g>
	</g>
</g>
</g>
<g id="kvg:StrokeNumbers_050be-Kaisho" style="font-size:8;fill:#808080">
	<text transform="matrix(1 0 0 1 22.50 14.50)">1</text>
	<text transform="matrix(1 0 0 1 17.50 57.50)">2</text>
	<text transform="matrix(1 0 0 1 47.50 37.50)">3</text>
	<text transform="matrix(1 0 0 1 37.50 28.63)">4</text>
	<text transform="matrix(1 0 0 1 53.50 14.50)">5</text>
	<text transform="matrix(1 0 0 1 66.50 24.50)">6</text>
	<text transform="matrix(1 0 0 1 55.50 38.50)">7</text>
	<text transform="matrix(1 0 0 1 62.25 28.50)">8</text>
	<text transform="matrix(1 0 0 1 66.75 42.05)">9</text>
	<text transform="matrix(1 0 0 1 66.75 54.50)">10</text>
	<text transform="matrix(1 0 0 1 66.75 68.91)">11</text>
	<text transform="matrix(1 0 0 1 53.25 83.50)">12</text>
	<text transform="matrix(1 0 0 1 75.50 82.63)">13</text>
</g>
</svg>
