<?xml version="1.0" encoding="UTF-8"?>
<!--
Copyright (C) 2009/2010/2011 Ulrich Apel.
This work is distributed under the conditions of the Creative Commons 
Attribution-Share Alike 3.0 Licence. This means you are free:
* to Share - to copy, distribute and transmit the work
* to Remix - to adapt the work

Under the following conditions:
* Attribution. You must attribute the work by stating your use of KanjiVG in
  your own copyright header and linking to KanjiVG's website
  (http://kanjivg.tagaini.net)
* Share Alike. If you alter, transform, or build upon this work, you may
  distribute the resulting work only under the same or similar license to this
  one.

See http://creativecommons.org/licenses/by-sa/3.0/ for more details.
-->
<!DOCTYPE svg PUBLIC "-//W3C//DTD SVG 1.0//EN" "http://www.w3.org/TR/2001/REC-SVG-20010904/DTD/svg10.dtd" [
<!ATTLIST g
xmlns:kvg CDATA #FIXED "http://kanjivg.tagaini.net"
kvg:element CDATA #IMPLIED
kvg:variant CDATA #IMPLIED
kvg:partial CDATA #IMPLIED
kvg:original CDATA #IMPLIED
kvg:part CDATA #IMPLIED
kvg:number CDATA #IMPLIED
kvg:tradForm CDATA #IMPLIED
kvg:radicalForm CDATA #IMPLIED
kvg:position CDATA #IMPLIED
kvg:radical CDATA #IMPLIED
kvg:phon CDATA #IMPLIED >
<!ATTLIST path
xmlns:kvg CDATA #FIXED "http://kanjivg.tagaini.net"
kvg:type CDATA #IMPLIED >
]>
<svg xmlns="http://www.w3.org/2000/svg" width="109" height="109" viewBox="0 0 109 109">
<g id="kvg:StrokePaths_050c5" style="fill:none;stroke:#000000;stroke-width:3;stroke-linecap:round;stroke-linejoin:round;">
<g id="kvg:050c5" kvg:element="僅">
	<g id="kvg:050c5-g1" kvg:element="亻" kvg:variant="true" kvg:original="人" kvg:position="left" kvg:radical="general">
		<path id="kvg:050c5-s1" kvg:type="㇒" d="M30.51,17.39c0.11,1.1-0.06,2.23-0.35,3.59c-1.85,8.56-9.24,25.38-17.86,36.98"/>
		<path id="kvg:050c5-s2" kvg:type="㇑" d="M24.03,41.25c0.8,0.8,1.26,1.88,1.26,3.48c0,9.78-0.02,29.48-0.03,42.4c0,4.28-0.01,7.82-0.01,10"/>
	</g>
	<g id="kvg:050c5-g2" kvg:position="right">
		<g id="kvg:050c5-g3" kvg:element="艹" kvg:variant="true" kvg:original="艸" kvg:position="top">
			<path id="kvg:050c5-s3" kvg:type="㇐" d="M38.5,26.88c3.38,0.5,6.25,0.32,9.38-0.09c11.75-1.53,22.5-2.66,36.38-3.72c2.97-0.23,5.83-0.53,8.74,0.19"/>
			<path id="kvg:050c5-s4" kvg:type="㇑a" d="M51.54,14.55c0.83,0.83,1.09,1.97,1.13,2.78c0.33,8.42,0.83,15.54,1,20.14"/>
			<path id="kvg:050c5-s5" kvg:type="㇑a" d="M76.13,12.37c0.62,1.5,0.52,2.55,0.27,3.89c-1.47,7.9-2.14,11.79-3.74,19.23"/>
		</g>
	</g>
	<g id="kvg:050c5-g4" kvg:position="bottom">
		<path id="kvg:050c5-s6" kvg:type="㇑" d="M43.25,43.45c0.65,0.65,1.17,1.61,1.31,2.44c0.78,3.91,1.44,7.18,2.03,10.32c0.31,1.66,0.61,3.29,0.89,4.96"/>
		<path id="kvg:050c5-s7" kvg:type="㇕" d="M44.87,44.73c8.88-1.19,31.36-4.33,37.63-4.99c1.92-0.2,3.66,1.42,3.08,3.31c-1.05,3.45-2.14,5.99-4.19,10.95"/>
		<path id="kvg:050c5-s8" kvg:type="㇐" d="M48.11,58.96c4.64-0.39,20.56-2.52,30.02-3.52c2.03-0.21,3.76-0.38,5.02-0.46"/>
		<path id="kvg:050c5-s9" kvg:type="㇑" d="M62.97,44.23c0.96,0.96,1,2.35,1,3.54c0,3.73-0.25,34.98-0.25,44.16"/>
		<g id="kvg:050c5-g5" kvg:element="三">
			<g id="kvg:050c5-g6" kvg:element="一" kvg:position="top">
				<path id="kvg:050c5-s10" kvg:type="㇐" d="M47.13,70.75c1.94,0.51,3.9,0.56,5.87,0.16c5.98-0.57,16.16-2.08,22.88-2.87c1.78-0.34,3.57-0.38,5.37-0.12"/>
			</g>
			<g id="kvg:050c5-g7" kvg:position="bottom">
				<g id="kvg:050c5-g8" kvg:element="一">
					<path id="kvg:050c5-s11" kvg:type="㇐" d="M45,81.59c2.77,0.9,5.51,0.62,8.27,0.29c7.95-0.97,15.48-2,22.98-3.15c2.43-0.38,5.11-0.65,7.54-0.31"/>
				</g>
				<g id="kvg:050c5-g9" kvg:element="一">
					<path id="kvg:050c5-s12" kvg:type="㇐" d="M37.38,93.99c2.74,0.84,5.53,0.98,8.36,0.42c13.37-1.42,28.02-3.31,40.51-3.71c3.56-0.11,6.12,0.17,8.67,0.99"/>
				</g>
			</g>
		</g>
	</g>
</g>
</g>
<g id="kvg:StrokeNumbers_050c5" style="font-size:8;fill:#808080">
	<text transform="matrix(1 0 0 1 21.85 16.85)">1</text>
	<text transform="matrix(1 0 0 1 17.50 59.50)">2</text>
	<text transform="matrix(1 0 0 1 36.50 23.50)">3</text>
	<text transform="matrix(1 0 0 1 43.50 12.50)">4</text>
	<text transform="matrix(1 0 0 1 67.50 10.50)">5</text>
	<text transform="matrix(1 0 0 1 37.50 51.50)">6</text>
	<text transform="matrix(1 0 0 1 46.50 41.50)">7</text>
	<text transform="matrix(1 0 0 1 50.50 55.50)">8</text>
	<text transform="matrix(1 0 0 1 67.50 50.50)">9</text>
	<text transform="matrix(1 0 0 1 36.00 72.50)">10</text>
	<text transform="matrix(1 0 0 1 35.25 82.88)">11</text>
	<text transform="matrix(1 0 0 1 33.50 91.50)">12</text>
</g>
</svg>
