<?xml version="1.0" encoding="UTF-8"?>
<!--
Copyright (C) 2009/2010/2011 Ulrich Apel.
This work is distributed under the conditions of the Creative Commons 
Attribution-Share Alike 3.0 Licence. This means you are free:
* to Share - to copy, distribute and transmit the work
* to Remix - to adapt the work

Under the following conditions:
* Attribution. You must attribute the work by stating your use of KanjiVG in
  your own copyright header and linking to KanjiVG's website
  (http://kanjivg.tagaini.net)
* Share Alike. If you alter, transform, or build upon this work, you may
  distribute the resulting work only under the same or similar license to this
  one.

See http://creativecommons.org/licenses/by-sa/3.0/ for more details.
-->
<!DOCTYPE svg PUBLIC "-//W3C//DTD SVG 1.0//EN" "http://www.w3.org/TR/2001/REC-SVG-20010904/DTD/svg10.dtd" [
<!ATTLIST g
xmlns:kvg CDATA #FIXED "http://kanjivg.tagaini.net"
kvg:element CDATA #IMPLIED
kvg:variant CDATA #IMPLIED
kvg:partial CDATA #IMPLIED
kvg:original CDATA #IMPLIED
kvg:part CDATA #IMPLIED
kvg:number CDATA #IMPLIED
kvg:tradForm CDATA #IMPLIED
kvg:radicalForm CDATA #IMPLIED
kvg:position CDATA #IMPLIED
kvg:radical CDATA #IMPLIED
kvg:phon CDATA #IMPLIED >
<!ATTLIST path
xmlns:kvg CDATA #FIXED "http://kanjivg.tagaini.net"
kvg:type CDATA #IMPLIED >
]>
<svg xmlns="http://www.w3.org/2000/svg" width="109" height="109" viewBox="0 0 109 109">
<g id="kvg:StrokePaths_05101" style="fill:none;stroke:#000000;stroke-width:3;stroke-linecap:round;stroke-linejoin:round;">
<g id="kvg:05101" kvg:element="儁">
	<g id="kvg:05101-g1" kvg:element="亻" kvg:variant="true" kvg:original="人" kvg:position="left" kvg:radical="general">
		<path id="kvg:05101-s1" kvg:type="㇒" d="M32.43,16.5c0.13,1.22,0.23,2.74-0.12,4.24C30.08,30.2,21.42,48.5,11,61.32"/>
		<path id="kvg:05101-s2" kvg:type="㇑" d="M26.46,41.61c0.62,0.64,0.79,2.05,0.79,3.37c0,13.58-0.3,41.88-0.3,51.01"/>
	</g>
	<g id="kvg:05101-g2" kvg:element="雋" kvg:position="right">
		<g id="kvg:05101-g3" kvg:element="隹" kvg:position="top">
			<g id="kvg:05101-g4" kvg:element="亻" kvg:variant="true" kvg:original="人" kvg:radicalForm="true">
				<path id="kvg:05101-s3" kvg:type="㇒" d="M50.76,12.75c0.16,1.27-0.04,2.93-0.56,4.02c-3.28,6.94-7.43,12.81-14.95,21.26"/>
				<path id="kvg:05101-s4" kvg:type="㇑" d="M45.18,26.09c0.71,0.54,1.25,1.71,1.3,2.55c0.42,7.42-0.58,27-0.22,30.86"/>
			</g>
			<path id="kvg:05101-s5" kvg:type="㇒" d="M71.79,12.05c0.04,0.53-0.01,1.23-0.15,1.69c-0.87,2.91-1.97,5.16-3.96,8.7"/>
			<path id="kvg:05101-s6" kvg:type="㇐" d="M46.28,26.26c8.22-0.7,40.91-4.28,44.44-4.66"/>
			<path id="kvg:05101-s7" kvg:type="㇑" d="M68.03,25.29c0.4,0.27,0.71,0.65,0.71,1.12c0,4.81,0.04,19.38-0.2,26.95"/>
			<path id="kvg:05101-s8" kvg:type="㇐" d="M47.38,35.88c7.75-0.58,35.8-3.31,39.13-3.63"/>
			<path id="kvg:05101-s9" kvg:type="㇐" d="M46.44,45.15c8.18-0.49,37.29-3.08,40.8-3.34"/>
			<path id="kvg:05101-s10" kvg:type="㇐" d="M46.44,55.42c8.22-0.7,43.54-3.13,47.06-3.51"/>
		</g>
		<g id="kvg:05101-g5" kvg:position="bottom">
			<path id="kvg:05101-s11" kvg:type="㇑" d="M43.84,65.63c0.38,0.25,1.19,1.89,1.27,2.4c0.08,0.51-0.13,28.47-0.13,29.1"/>
			<path id="kvg:05101-s12" kvg:type="㇅" d="M44.92,67.25C46.75,67,55.7,64.89,58.28,64.5c1.65-0.25,2.75,0,2.75,2.5s0,7.5,0,9.25s-0.55,3,1.1,2.75c1.65-0.25,13-2.25,14.65-2.25"/>
			<path id="kvg:05101-s13" kvg:type="㇑" d="M74.72,61.44c0.35,0.96,0.7,1.45,0.7,2.73c0,1.29,0.27,11.86,0.27,12.51"/>
			<path id="kvg:05101-s14" kvg:type="㇆" d="M76.75,62.65c4.15-0.65,11.94-1.89,13.63-2.33c1.1-0.29,1.71,0.79,1.71,2.8c-0.01,7.12,0.12,18.12-0.31,29.6c-0.27,7.27-4.02,3.02-6.17,0.57"/>
		</g>
	</g>
</g>
</g>
<g id="kvg:StrokeNumbers_05101" style="font-size:8;fill:#808080">
	<text transform="matrix(1 0 0 1 24.50 16.50)">1</text>
	<text transform="matrix(1 0 0 1 20.50 58.85)">2</text>
	<text transform="matrix(1 0 0 1 41.50 12.50)">3</text>
	<text transform="matrix(1 0 0 1 39.75 50.90)">4</text>
	<text transform="matrix(1 0 0 1 62.50 11.83)">5</text>
	<text transform="matrix(1 0 0 1 54.50 22.50)">6</text>
	<text transform="matrix(1 0 0 1 72.50 31.50)">7</text>
	<text transform="matrix(1 0 0 1 51.50 33.50)">8</text>
	<text transform="matrix(1 0 0 1 51.50 42.50)">9</text>
	<text transform="matrix(1 0 0 1 50.50 52.50)">10</text>
	<text transform="matrix(1 0 0 1 32.75 76.38)">11</text>
	<text transform="matrix(1 0 0 1 49.25 63.30)">12</text>
	<text transform="matrix(1 0 0 1 66.75 70.23)">13</text>
	<text transform="matrix(1 0 0 1 79.75 60.15)">14</text>
</g>
</svg>
