<?xml version="1.0" encoding="UTF-8"?>
<!--
Copyright (C) 2009/2010/2011 Ulrich Apel.
This work is distributed under the conditions of the Creative Commons 
Attribution-Share Alike 3.0 Licence. This means you are free:
* to Share - to copy, distribute and transmit the work
* to Remix - to adapt the work

Under the following conditions:
* Attribution. You must attribute the work by stating your use of KanjiVG in
  your own copyright header and linking to KanjiVG's website
  (http://kanjivg.tagaini.net)
* Share Alike. If you alter, transform, or build upon this work, you may
  distribute the resulting work only under the same or similar license to this
  one.

See http://creativecommons.org/licenses/by-sa/3.0/ for more details.
-->
<!DOCTYPE svg PUBLIC "-//W3C//DTD SVG 1.0//EN" "http://www.w3.org/TR/2001/REC-SVG-20010904/DTD/svg10.dtd" [
<!ATTLIST g
xmlns:kvg CDATA #FIXED "http://kanjivg.tagaini.net"
kvg:element CDATA #IMPLIED
kvg:variant CDATA #IMPLIED
kvg:partial CDATA #IMPLIED
kvg:original CDATA #IMPLIED
kvg:part CDATA #IMPLIED
kvg:number CDATA #IMPLIED
kvg:tradForm CDATA #IMPLIED
kvg:radicalForm CDATA #IMPLIED
kvg:position CDATA #IMPLIED
kvg:radical CDATA #IMPLIED
kvg:phon CDATA #IMPLIED >
<!ATTLIST path
xmlns:kvg CDATA #FIXED "http://kanjivg.tagaini.net"
kvg:type CDATA #IMPLIED >
]>
<svg xmlns="http://www.w3.org/2000/svg" width="109" height="109" viewBox="0 0 109 109">
<g id="kvg:StrokePaths_05116" style="fill:none;stroke:#000000;stroke-width:3;stroke-linecap:round;stroke-linejoin:round;">
<g id="kvg:05116" kvg:element="儖">
	<g id="kvg:05116-g1" kvg:element="亻" kvg:variant="true" kvg:original="人" kvg:position="left" kvg:radical="general">
		<path id="kvg:05116-s1" kvg:type="㇒" d="M31.94,16c0.13,1.2,0.23,2.7-0.12,4.17c-2.19,9.3-10.64,27.29-20.82,39.9"/>
		<path id="kvg:05116-s2" kvg:type="㇑" d="M26.48,41.11c0.59,0.61,0.76,1.97,0.76,3.23c0,13.02-0.29,40.15-0.29,48.9"/>
	</g>
	<g id="kvg:05116-g2" kvg:element="監" kvg:position="right">
		<g id="kvg:05116-g3" kvg:position="top">
			<g id="kvg:05116-g4" kvg:element="臣" kvg:position="left">
				<path id="kvg:05116-s3" kvg:type="㇑" d="M43.04,18.09c0.4,0.26,0.63,1.66,0.71,2.18c0.08,0.52,0,37.39-0.08,40.61"/>
				<path id="kvg:05116-s4" kvg:type="㇐b" d="M43.84,19.87c3.87-0.19,14.46-2.71,20.5-3.09c0.92-0.06,1.46-0.12,1.92,0.02"/>
				<path id="kvg:05116-s5" kvg:type="㇑a" d="M54.61,19.7c0.68,0.55,0.81,0.97,0.82,2.13c0.02,2.66-0.02,7.64-0.07,9.89"/>
				<path id="kvg:05116-s6" kvg:type="㇕b" d="M43.99,33.27c6.23-0.95,14.42-1.93,18.74-2.58c1.75-0.26,2.23,0.8,1.99,2.2c-0.44,2.52-1.59,7.04-2.04,10.07"/>
				<path id="kvg:05116-s7" kvg:type="㇐b" d="M44.02,46.23c2.6-0.38,17.13-2.38,19.57-2.62"/>
				<path id="kvg:05116-s8" kvg:type="㇑a" d="M54.89,46.19c0.21,0.65,0.82,1.1,0.82,2.01c0,2.97-0.02,6.47-0.07,8.7"/>
				<path id="kvg:05116-s9" kvg:type="㇐b" d="M44.27,58.95c4.75-0.67,14.14-1.63,20.33-2.25c0.91-0.09,1.47-0.12,1.92,0.02"/>
			</g>
			<g id="kvg:05116-g5" kvg:position="right">
				<path id="kvg:05116-s10" kvg:type="㇒" d="M79.52,13.5c0.03,0.61,0.2,1.65-0.06,2.46c-1.91,6-5.38,15.26-10.32,23.55"/>
				<path id="kvg:05116-s11" kvg:type="㇐" d="M75.24,30.67c0.76,0.54,2.16,0.66,2.93,0.54c4.07-0.63,10.58-1.46,15.17-1.73c1.3-0.08,2.44-0.25,3.08,0.02"/>
				<path id="kvg:05116-s12" kvg:type="㇐" d="M71.84,50.02c0.68,0.54,1.9,0.59,2.59,0.54c4.32-0.31,10.02-1.11,15.38-1.78c1.11-0.28,2.16-0.36,3.17-0.04"/>
			</g>
		</g>
		<g id="kvg:05116-g6" kvg:element="皿" kvg:position="bottom">
			<path id="kvg:05116-s13" kvg:type="㇑a" d="M45.84,67.62c0.53,0.66,1.21,0.8,1.33,1.38c0.9,4.55,2.55,16.12,3.18,24.33"/>
			<path id="kvg:05116-s14" kvg:type="㇕b" d="M48.2,69.59C58.25,68.75,86.84,66,88.09,66c2.16,0,2.91,1.25,2.52,3.62c-0.88,5.38-2.32,13.84-4.04,21.01"/>
			<path id="kvg:05116-s15" kvg:type="㇑a" d="M60.38,71.07c0.22,0.43,0.52,0.78,0.54,1.33c0.31,7.4,0.76,12.79,1.31,20.54"/>
			<path id="kvg:05116-s16" kvg:type="㇑a" d="M75.52,69.67c0.4,0.51,0.79,1.39,0.73,2.06c-0.64,6.72-1.3,11.62-2.08,20.23"/>
			<path id="kvg:05116-s17" kvg:type="㇐" d="M37.16,94.23c1.21,0.4,3.41,0.38,4.62,0.31c14.98-0.89,31.91-2.08,54.96-2.8c2-0.06,3.21,0.12,4.21,0.31"/>
		</g>
	</g>
</g>
</g>
<g id="kvg:StrokeNumbers_05116" style="font-size:8;fill:#808080">
	<text transform="matrix(1 0 0 1 23.50 15.85)">1</text>
	<text transform="matrix(1 0 0 1 19.66 58.85)">2</text>
	<text transform="matrix(1 0 0 1 36.50 27.50)">3</text>
	<text transform="matrix(1 0 0 1 45.50 15.50)">4</text>
	<text transform="matrix(1 0 0 1 58.50 25.33)">5</text>
	<text transform="matrix(1 0 0 1 47.50 30.50)">6</text>
	<text transform="matrix(1 0 0 1 47.50 42.50)">7</text>
	<text transform="matrix(1 0 0 1 58.50 51.10)">8</text>
	<text transform="matrix(1 0 0 1 47.50 55.50)">9</text>
	<text transform="matrix(1 0 0 1 68.50 11.50)">10</text>
	<text transform="matrix(1 0 0 1 80.25 28.50)">11</text>
	<text transform="matrix(1 0 0 1 71.50 46.50)">12</text>
	<text transform="matrix(1 0 0 1 37.50 76.50)">13</text>
	<text transform="matrix(1 0 0 1 49.50 66.50)">14</text>
	<text transform="matrix(1 0 0 1 52.50 76.50)">15</text>
	<text transform="matrix(1 0 0 1 66.50 75.50)">16</text>
	<text transform="matrix(1 0 0 1 35.25 91.50)">17</text>
</g>
</svg>
