<?xml version="1.0" encoding="UTF-8"?>
<!--
Copyright (C) 2009/2010/2011 Ulrich Apel.
This work is distributed under the conditions of the Creative Commons
Attribution-Share Alike 3.0 Licence. This means you are free:
* to Share - to copy, distribute and transmit the work
* to Remix - to adapt the work

Under the following conditions:
* Attribution. You must attribute the work by stating your use of KanjiVG in
  your own copyright header and linking to KanjiVG's website
  (http://kanjivg.tagaini.net)
* Share Alike. If you alter, transform, or build upon this work, you may
  distribute the resulting work only under the same or similar license to this
  one.

See http://creativecommons.org/licenses/by-sa/3.0/ for more details.
-->
<!DOCTYPE svg PUBLIC "-//W3C//DTD SVG 1.0//EN" "http://www.w3.org/TR/2001/REC-SVG-20010904/DTD/svg10.dtd" [
<!ATTLIST g
xmlns:kvg CDATA #FIXED "http://kanjivg.tagaini.net"
kvg:element CDATA #IMPLIED
kvg:variant CDATA #IMPLIED
kvg:partial CDATA #IMPLIED
kvg:original CDATA #IMPLIED
kvg:part CDATA #IMPLIED
kvg:number CDATA #IMPLIED
kvg:tradForm CDATA #IMPLIED
kvg:radicalForm CDATA #IMPLIED
kvg:position CDATA #IMPLIED
kvg:radical CDATA #IMPLIED
kvg:phon CDATA #IMPLIED >
<!ATTLIST path
xmlns:kvg CDATA #FIXED "http://kanjivg.tagaini.net"
kvg:type CDATA #IMPLIED >
]>
<svg xmlns="http://www.w3.org/2000/svg" width="109" height="109" viewBox="0 0 109 109" xmlns:kvg="https://kanjivg.tagaini.net/">
<g id="kvg:StrokePaths_05133" style="fill:none;stroke:#000000;stroke-width:3;stroke-linecap:round;stroke-linejoin:round;">
<g id="kvg:05133" kvg:element="儳">
	<g id="kvg:05133-g1" kvg:element="亻" kvg:original="人" kvg:position="left" kvg:radical="general">
		<path id="kvg:05133-s1" kvg:type="㇒" d="M28.5,16.39c0.12,1.16,0.21,2.61-0.11,4.03c-2.03,8.99-9.88,26.36-19.34,38.55"/>
		<path id="kvg:05133-s2" kvg:type="㇑" d="M22.03,43c0.59,0.61,0.76,1.97,0.76,3.23c0,13.02-0.29,44.15-0.29,52.9"/>
	</g>
	<g id="kvg:05133-g2" kvg:element="毚" kvg:position="right">
		<g id="kvg:05133-g3" kvg:element="㲋" kvg:position="top">
			<g id="kvg:05133-g4" kvg:element="𠂊" kvg:variant="true" kvg:original="勹">
				<path id="kvg:05133-s3" kvg:type="㇒" d="M54.03,11.37c0.06,0.35,0.22,0.94-0.11,1.41c-2.46,3.42-10.45,9.8-19.82,13.89"/>
				<path id="kvg:05133-s4" kvg:type="㇇" d="M50.66,17.71c1.65,0,22.68-3.17,24.41-3.29c1.49-0.1,1.94,1.11,1.33,1.63c-2.61,2.16-6.27,4.9-10.39,8.37"/>
			</g>
			<g id="kvg:05133-g5" kvg:element="口">
				<path id="kvg:05133-s5" kvg:type="㇑" d="M42.02,26.37c0.31,0.23,0.63,0.41,0.77,0.69c1.07,2.21,1.42,4.9,2.15,8.88"/>
				<path id="kvg:05133-s6" kvg:type="㇕b" d="M43.95,27.13c7.58-0.93,37.19-3.1,41.1-3.41c1.43-0.11,2.29,1.15,2.08,1.83c-0.85,2.79-1.17,2.92-3.67,6.84"/>
				<path id="kvg:05133-s7" kvg:type="㇐b" d="M45.54,34.98c3.06-0.24,36.76-2.49,40.14-2.61"/>
			</g>
			<g id="kvg:05133-g6" kvg:element="比">
				<g id="kvg:05133-g7" kvg:position="left">
					<path id="kvg:05133-s8" kvg:type="㇐b" d="M44.67,42.53c4.62-0.15,9.27-1.63,13.29-1.89c1.18-0.08,1.93-0.08,2.54-0.03"/>
					<path id="kvg:05133-s9" kvg:type="㇙" d="M42.9,38.4c0.81,0.26,1.52,1.47,1.52,1.82c0,0.95-0.26,8-0.26,9.5c0,1.25-0.23,2.15,3.29,0.72C52.04,48.55,54.33,48.31,59.35,46.82"/>
				</g>
				<g id="kvg:05133-g8" kvg:element="匕" kvg:position="right">
					<path id="kvg:05133-s10" kvg:type="㇒" d="M84.91,36.09c0.17,0.3,0.43,0.8,0.15,1.32c-0.41,0.75-8.91,4.16-14.1,5.78"/>
					<path id="kvg:05133-s11" kvg:type="㇟" d="M66.5,36.27c0.96,0.28,1.81,1.22,1.81,1.58c0,0.95,0.09,5.89,0.09,7c0,5.23,7.2,4.52,13.72,4.52c5.06,0,10.19-0.15,12.1-0.95c1.91-0.8,0.83-1.42,1.03-2.23"/>
				</g>
			</g>
		</g>
		<g id="kvg:05133-g9" kvg:element="兔" kvg:position="bottom">
			<g id="kvg:05133-g10" kvg:element="免" kvg:variant="true">
				<g id="kvg:05133-g11" kvg:position="top">
					<g id="kvg:05133-g12" kvg:element="𠂊" kvg:variant="true" kvg:original="勹">
						<path id="kvg:05133-s12" kvg:type="㇒" d="M50.9,52c0.05,0.33,0.09,0.86-0.09,1.34c-1.09,2.82-7.32,9-15.86,12.77"/>
						<path id="kvg:05133-s13" kvg:type="㇇" d="M49.52,56.92c7.38-0.34,15.95-1.76,22.2-3.29c2.13-0.52,2.89,1.11,1.97,1.63c-3.88,2.16-6.23,5.1-9.18,7.9"/>
					</g>
					<path id="kvg:05133-s14" kvg:type="㇑" d="M40.88,65.45c0.31,0.26,0.63,0.47,0.77,0.8c1.09,2.57,1.43,6.16,2.17,10.78"/>
					<path id="kvg:05133-s15" kvg:type="㇕" d="M41.68,65.87c7.64-1.08,40.84-3.51,44.77-3.88c1.44-0.13,2.31,1.34,2.1,2.13c-0.86,3.24-1.66,4.75-2.56,9.04"/>
					<path id="kvg:05133-s16" kvg:type="㇐" d="M43.86,75.93c3.1-0.27,40.38-2.34,43.79-2.48"/>
				</g>
				<g id="kvg:05133-g13" kvg:element="儿" kvg:original="八" kvg:position="bottom">
					<g id="kvg:05133-g14" kvg:element="丿" kvg:position="left">
						<path id="kvg:05133-s17" kvg:type="㇒" d="M61.96,65.41c0.37,0.62,0.69,1.75,0.39,2.75c-2.02,6.84-9.45,21.72-31.73,26.84"/>
					</g>
					<g id="kvg:05133-g15" kvg:position="right">
						<path id="kvg:05133-s18" kvg:type="㇟" d="M64.02,76.83c0.67,0.54,1.21,1.18,1.25,2.02c0.18,3.73-0.48,6.44-0.48,8.99c0,5.92,8.09,5.48,16.05,5.48c8.4,0,13.94-0.77,15.12-1.2c2.5-0.91,1.82-1.37,2.05-2.97"/>
					</g>
				</g>
			</g>
			<g id="kvg:05133-g16" kvg:element="丶">
				<path id="kvg:05133-s19" kvg:type="㇔" d="M76.52,79.66c2.64,1.1,6.83,4.5,7.48,6.2"/>
			</g>
		</g>
	</g>
</g>
</g>
<g id="kvg:StrokeNumbers_05133" style="font-size:8;fill:#808080">
	<text transform="matrix(1 0 0 1 20.50 16.50)">1</text>
	<text transform="matrix(1 0 0 1 24.89 43.80)">2</text>
	<text transform="matrix(1 0 0 1 44.62 11.23)">3</text>
	<text transform="matrix(1 0 0 1 59.47 14.06)">4</text>
	<text transform="matrix(1 0 0 1 37.31 35.28)">5</text>
	<text transform="matrix(1 0 0 1 51.47 24.46)">6</text>
	<text transform="matrix(1 0 0 1 47.47 36.16)">7</text>
	<text transform="matrix(1 0 0 1 46.60 47.15)">8</text>
	<text transform="matrix(1 0 0 1 33.19 43.35)">9</text>
	<text transform="matrix(1 0 0 1 87.85 35.93)">10</text>
	<text transform="matrix(1 0 0 1 58.22 48.41)">11</text>
	<text transform="matrix(1 0 0 1 37.76 57.53)">12</text>
	<text transform="matrix(1 0 0 1 57.07 59.82)">13</text>
	<text transform="matrix(1 0 0 1 30.77 74.01)">14</text>
	<text transform="matrix(1 0 0 1 26.14 64.18)">15</text>
	<text transform="matrix(1 0 0 1 46.90 72.64)">16</text>
	<text transform="matrix(1 0 0 1 66.33 71.09)">17</text>
	<text transform="matrix(1 0 0 1 68.06 88.22)">18</text>
	<text transform="matrix(1 0 0 1 84.07 82.56)">19</text>
</g>
</svg>
