<?xml version="1.0" encoding="UTF-8"?>
<!--
Copyright (C) 2009/2010/2011 Ulrich Apel.
This work is distributed under the conditions of the Creative Commons 
Attribution-Share Alike 3.0 Licence. This means you are free:
* to Share - to copy, distribute and transmit the work
* to Remix - to adapt the work

Under the following conditions:
* Attribution. You must attribute the work by stating your use of KanjiVG in
  your own copyright header and linking to KanjiVG's website
  (http://kanjivg.tagaini.net)
* Share Alike. If you alter, transform, or build upon this work, you may
  distribute the resulting work only under the same or similar license to this
  one.

See http://creativecommons.org/licenses/by-sa/3.0/ for more details.
-->
<!DOCTYPE svg PUBLIC "-//W3C//DTD SVG 1.0//EN" "http://www.w3.org/TR/2001/REC-SVG-20010904/DTD/svg10.dtd" [
<!ATTLIST g
xmlns:kvg CDATA #FIXED "http://kanjivg.tagaini.net"
kvg:element CDATA #IMPLIED
kvg:variant CDATA #IMPLIED
kvg:partial CDATA #IMPLIED
kvg:original CDATA #IMPLIED
kvg:part CDATA #IMPLIED
kvg:number CDATA #IMPLIED
kvg:tradForm CDATA #IMPLIED
kvg:radicalForm CDATA #IMPLIED
kvg:position CDATA #IMPLIED
kvg:radical CDATA #IMPLIED
kvg:phon CDATA #IMPLIED >
<!ATTLIST path
xmlns:kvg CDATA #FIXED "http://kanjivg.tagaini.net"
kvg:type CDATA #IMPLIED >
]>
<svg xmlns="http://www.w3.org/2000/svg" width="109" height="109" viewBox="0 0 109 109">
<g id="kvg:StrokePaths_05146" style="fill:none;stroke:#000000;stroke-width:3;stroke-linecap:round;stroke-linejoin:round;">
<g id="kvg:05146" kvg:element="兆">
	<g id="kvg:05146-g1" kvg:element="儿" kvg:part="1" kvg:original="八" kvg:position="left" kvg:radical="tradit">
		<g id="kvg:05146-g2" kvg:element="丿">
			<path id="kvg:05146-s1" kvg:type="㇒" d="M39.5,17.25c1.12,1.12,1.6,3,1.62,4.81c0.5,41.19-0.38,59.94-15.88,73.69"/>
		</g>
		<g id="kvg:05146-g3" kvg:element="冫" kvg:radical="nelson">
			<g id="kvg:05146-g4" kvg:position="top">
				<path id="kvg:05146-s2" kvg:type="㇔" d="M19.25,34c5.25,2.75,11.12,7.38,13.5,11.5"/>
			</g>
			<g id="kvg:05146-g5" kvg:position="bottom">
				<path id="kvg:05146-s3" kvg:type="㇀" d="M15.38,72.64c1.49,0.72,2.49,0.24,3.62-0.58C20.56,70.92,31.84,61.49,38,56"/>
			</g>
		</g>
	</g>
	<g id="kvg:05146-g6" kvg:position="right">
		<g id="kvg:05146-g7" kvg:element="儿" kvg:part="2" kvg:original="八" kvg:radical="tradit">
			<path id="kvg:05146-s4" kvg:type="㇟" d="M58.49,11.37c1.2,1.2,1.38,2.84,1.38,4.68c0,9.95-0.03,56.89-0.03,62.45c0,15.62,3.04,16.78,20.17,16.78c14.12,0,16.39-1.78,16.39-10.62"/>
		</g>
		<path id="kvg:05146-s5" kvg:type="㇒" d="M84.76,23.64c0.04,0.38-0.06,1.28-0.34,1.79c-2.05,3.81-7.05,9.06-15.61,14.53"/>
		<path id="kvg:05146-s6" kvg:type="㇔" d="M70.38,54.12C76.24,56.97,84.62,64.88,87,70"/>
	</g>
</g>
</g>
<g id="kvg:StrokeNumbers_05146" style="font-size:8;fill:#808080">
	<text transform="matrix(1 0 0 1 31.50 17.50)">1</text>
	<text transform="matrix(1 0 0 1 11.50 34.63)">2</text>
	<text transform="matrix(1 0 0 1 7.50 77.50)">3</text>
	<text transform="matrix(1 0 0 1 52.50 8.50)">4</text>
	<text transform="matrix(1 0 0 1 76.50 23.50)">5</text>
	<text transform="matrix(1 0 0 1 69.50 51.13)">6</text>
</g>
</svg>
