<?xml version="1.0" encoding="UTF-8"?>
<!--
Copyright (C) 2009/2010/2011 Ulrich Apel.
This work is distributed under the conditions of the Creative Commons 
Attribution-Share Alike 3.0 Licence. This means you are free:
* to Share - to copy, distribute and transmit the work
* to Remix - to adapt the work

Under the following conditions:
* Attribution. You must attribute the work by stating your use of KanjiVG in
  your own copyright header and linking to KanjiVG's website
  (http://kanjivg.tagaini.net)
* Share Alike. If you alter, transform, or build upon this work, you may
  distribute the resulting work only under the same or similar license to this
  one.

See http://creativecommons.org/licenses/by-sa/3.0/ for more details.
-->
<!DOCTYPE svg PUBLIC "-//W3C//DTD SVG 1.0//EN" "http://www.w3.org/TR/2001/REC-SVG-20010904/DTD/svg10.dtd" [
<!ATTLIST g
xmlns:kvg CDATA #FIXED "http://kanjivg.tagaini.net"
kvg:element CDATA #IMPLIED
kvg:variant CDATA #IMPLIED
kvg:partial CDATA #IMPLIED
kvg:original CDATA #IMPLIED
kvg:part CDATA #IMPLIED
kvg:number CDATA #IMPLIED
kvg:tradForm CDATA #IMPLIED
kvg:radicalForm CDATA #IMPLIED
kvg:position CDATA #IMPLIED
kvg:radical CDATA #IMPLIED
kvg:phon CDATA #IMPLIED >
<!ATTLIST path
xmlns:kvg CDATA #FIXED "http://kanjivg.tagaini.net"
kvg:type CDATA #IMPLIED >
]>
<svg xmlns="http://www.w3.org/2000/svg" width="109" height="109" viewBox="0 0 109 109">
<g id="kvg:StrokePaths_0514c" style="fill:none;stroke:#000000;stroke-width:3;stroke-linecap:round;stroke-linejoin:round;">
<g id="kvg:0514c" kvg:element="兌">
	<g id="kvg:0514c-g1" kvg:element="八" kvg:position="top" kvg:radical="nelson">
		<g id="kvg:0514c-g2" kvg:position="left">
			<path id="kvg:0514c-s1" kvg:type="㇒" d="M41.74,16.71c0.07,0.58,0.15,1.5-0.14,2.33c-1.7,4.93-9.05,13.5-22.11,22.35"/>
		</g>
		<g id="kvg:0514c-g3" kvg:position="right">
			<path id="kvg:0514c-s2" kvg:type="㇏" d="M58.75,13c3.32,0.24,27.66,18.82,31.59,21.26c1.63,1.01,3.03,1.45,4.66,1.74"/>
		</g>
	</g>
	<g id="kvg:0514c-g4" kvg:element="兄" kvg:position="bottom">
		<g id="kvg:0514c-g5" kvg:element="口" kvg:position="top">
			<path id="kvg:0514c-s3" kvg:type="㇑" d="M33.56,39.24c0.45,0.64,0.98,1.08,1.13,1.58c1.12,3.62,2.49,13.12,4.07,20"/>
			<path id="kvg:0514c-s4" kvg:type="㇕b" d="M34.82,40.7c8.01-1.24,32.13-3.85,37.84-4.71c1.95-0.29,3.75,1.5,3.37,3.31c-0.94,4.59-3.25,10.74-4.53,16.67"/>
			<path id="kvg:0514c-s5" kvg:type="㇐b" d="M39.62,59.19c5.92-0.38,25.71-2.6,33.88-3.23"/>
		</g>
		<g id="kvg:0514c-g6" kvg:element="儿" kvg:original="八" kvg:position="bottom" kvg:radical="general">
			<g id="kvg:0514c-g7" kvg:element="丿">
				<path id="kvg:0514c-s6" kvg:type="㇒" d="M45.22,64.46c0.08,0.74,0.16,1.92-0.15,2.98C43.24,73.74,33.44,88.46,18.32,96"/>
			</g>
			<path id="kvg:0514c-s7" kvg:type="㇟" d="M59.1,60.75c0.72,0.66,1.13,1.82,1.17,3.64c0.1,5-0.34,12.76-0.34,18.96c0,10.6,1.54,11.7,14.92,11.7c7.25,0,14.86-1.11,15.81-1.81c2.51-1.84,1.7-3.72,1.91-7.18"/>
		</g>
	</g>
</g>
</g>
<g id="kvg:StrokeNumbers_0514c" style="font-size:8;fill:#808080">
	<text transform="matrix(1 0 0 1 33.50 16.50)">1</text>
	<text transform="matrix(1 0 0 1 52.50 16.50)">2</text>
	<text transform="matrix(1 0 0 1 27.50 47.50)">3</text>
	<text transform="matrix(1 0 0 1 38.50 36.50)">4</text>
	<text transform="matrix(1 0 0 1 42.50 55.50)">5</text>
	<text transform="matrix(1 0 0 1 36.50 70.50)">6</text>
	<text transform="matrix(1 0 0 1 51.25 67.50)">7</text>
</g>
</svg>
