<?xml version="1.0" encoding="UTF-8"?>
<!--
Copyright (C) 2009/2010/2011 Ulrich Apel.
This work is distributed under the conditions of the Creative Commons 
Attribution-Share Alike 3.0 Licence. This means you are free:
* to Share - to copy, distribute and transmit the work
* to Remix - to adapt the work

Under the following conditions:
* Attribution. You must attribute the work by stating your use of KanjiVG in
  your own copyright header and linking to KanjiVG's website
  (http://kanjivg.tagaini.net)
* Share Alike. If you alter, transform, or build upon this work, you may
  distribute the resulting work only under the same or similar license to this
  one.

See http://creativecommons.org/licenses/by-sa/3.0/ for more details.
-->
<!DOCTYPE svg PUBLIC "-//W3C//DTD SVG 1.0//EN" "http://www.w3.org/TR/2001/REC-SVG-20010904/DTD/svg10.dtd" [
<!ATTLIST g
xmlns:kvg CDATA #FIXED "http://kanjivg.tagaini.net"
kvg:element CDATA #IMPLIED
kvg:variant CDATA #IMPLIED
kvg:partial CDATA #IMPLIED
kvg:original CDATA #IMPLIED
kvg:part CDATA #IMPLIED
kvg:number CDATA #IMPLIED
kvg:tradForm CDATA #IMPLIED
kvg:radicalForm CDATA #IMPLIED
kvg:position CDATA #IMPLIED
kvg:radical CDATA #IMPLIED
kvg:phon CDATA #IMPLIED >
<!ATTLIST path
xmlns:kvg CDATA #FIXED "http://kanjivg.tagaini.net"
kvg:type CDATA #IMPLIED >
]>
<svg xmlns="http://www.w3.org/2000/svg" width="109" height="109" viewBox="0 0 109 109">
<g id="kvg:StrokePaths_0515c-Kaisho" style="fill:none;stroke:#000000;stroke-width:3;stroke-linecap:round;stroke-linejoin:round;">
<g id="kvg:0515c-Kaisho" kvg:element="兜">
	<g id="kvg:0515c-Kaisho-g1" kvg:position="top">
		<g id="kvg:0515c-Kaisho-g2" kvg:element="白">
			<g id="kvg:0515c-Kaisho-g3" kvg:position="top">
				<path id="kvg:0515c-Kaisho-s1" kvg:type="㇒" d="M53.67,11.75c0.35,0.52,0.48,1.18,0.32,1.6c-1.16,3.14-4.79,9.04-8.69,12.62"/>
			</g>
			<g id="kvg:0515c-Kaisho-g4" kvg:element="日" kvg:position="bottom">
				<path id="kvg:0515c-Kaisho-s2" kvg:type="㇑" d="M43.11,24.83c0.36,0.75,0.65,1.62,0.73,2.61c0.17,2.3,1.74,22.4,1.89,27.3"/>
				<path id="kvg:0515c-Kaisho-s3" kvg:type="㇕a" d="M44.55,25.59c2.05-0.12,19.07-1.89,20.93-2.1c1.18-0.14,1.66,0.82,1.66,2.39c0,2.68-2.06,19.89-2.44,28.11"/>
				<path id="kvg:0515c-Kaisho-s4" kvg:type="㇐a" d="M45.52,38.38c3.46-0.3,6.91-0.7,10.37-1.06c1.01-0.1,2.01-0.2,2.97-0.29"/>
				<path id="kvg:0515c-Kaisho-s5" kvg:type="㇐a" d="M45.93,53.34c5.13-0.4,13.36-1.35,18.83-1.54"/>
			</g>
		</g>
		<path id="kvg:0515c-Kaisho-s6" kvg:type="㇒" d="M35.73,19.25c0.53,0.41,0.22,1.43-0.02,1.76c-1.73,2.48-7.11,6.63-12.91,9.45"/>
		<path id="kvg:0515c-Kaisho-s7" kvg:type="㇗" d="M20.53,30.38c0.88,0.52,1.27,2.73,1.27,3.79c-0.04,5.08-0.29,9.08-0.5,16.83c-0.1,3.81,0.14,4.56,2.25,3.87c3.46-1.13,6.79-1.92,13.26-2.97c0.94-0.15,1.44-0.15,2.63,0.22"/>
		<path id="kvg:0515c-Kaisho-s8" kvg:type="㇕" d="M71.05,23.09c0.4-0.02,1.87,0.39,3.19,0.26c5.43-0.52,14.74-2.19,16.24-2.37c1.18-0.14,1.66,0.82,1.66,2.39c0,2.68-3.14,21.13-3.44,26.61"/>
		<path id="kvg:0515c-Kaisho-s9" kvg:type="㇐" d="M69.5,52.05c1.41,0.14,0.85,0.14,2.37,0.14c2.88,0,11.84-1.4,18.05-2.05"/>
	</g>
	<g id="kvg:0515c-Kaisho-g5" kvg:element="儿" kvg:position="bottom" kvg:radical="tradit">
		<g id="kvg:0515c-Kaisho-g6" kvg:element="八" kvg:variant="true">
			<g id="kvg:0515c-Kaisho-g7" kvg:element="丿" kvg:position="left" kvg:radical="nelson">
				<path id="kvg:0515c-Kaisho-s10" kvg:type="㇒" d="M46.99,62c0.07,0.8,0.16,2.06-0.15,3.21c-1.79,6.77-11.25,22.9-26.18,30.71"/>
			</g>
			<g id="kvg:0515c-Kaisho-g8" kvg:position="right">
				<path id="kvg:0515c-Kaisho-s11" kvg:type="㇟" d="M60.49,59.37c0.73,1.19,1.31,2.59,1.35,4.43c0.2,8.19-0.52,14.14-0.52,19.7c0,13,8.73,11.53,17.32,11.53c9.06,0,15.03-1.68,16.3-2.62c2.7-2,1.96-3,2.21-6.5"/>
			</g>
		</g>
	</g>
</g>
</g>
<g id="kvg:StrokeNumbers_0515c-Kaisho" style="font-size:8;fill:#808080">
	<text transform="matrix(1 0 0 1 45.75 11.13)">1</text>
	<text transform="matrix(1 0 0 1 36.50 32.50)">2</text>
	<text transform="matrix(1 0 0 1 56.50 22.48)">3</text>
	<text transform="matrix(1 0 0 1 48.25 35.40)">4</text>
	<text transform="matrix(1 0 0 1 49.50 50.33)">5</text>
	<text transform="matrix(1 0 0 1 27.50 18.50)">6</text>
	<text transform="matrix(1 0 0 1 14.25 37.50)">7</text>
	<text transform="matrix(1 0 0 1 72.50 19.50)">8</text>
	<text transform="matrix(1 0 0 1 70.50 48.50)">9</text>
	<text transform="matrix(1 0 0 1 35.25 63.50)">10</text>
	<text transform="matrix(1 0 0 1 51.50 65.50)">11</text>
</g>
</svg>
