<?xml version="1.0" encoding="UTF-8"?>
<!--
Copyright (C) 2009/2010/2011 Ulrich Apel.
This work is distributed under the conditions of the Creative Commons 
Attribution-Share Alike 3.0 Licence. This means you are free:
* to Share - to copy, distribute and transmit the work
* to Remix - to adapt the work

Under the following conditions:
* Attribution. You must attribute the work by stating your use of KanjiVG in
  your own copyright header and linking to KanjiVG's website
  (http://kanjivg.tagaini.net)
* Share Alike. If you alter, transform, or build upon this work, you may
  distribute the resulting work only under the same or similar license to this
  one.

See http://creativecommons.org/licenses/by-sa/3.0/ for more details.
-->
<!DOCTYPE svg PUBLIC "-//W3C//DTD SVG 1.0//EN" "http://www.w3.org/TR/2001/REC-SVG-20010904/DTD/svg10.dtd" [
<!ATTLIST g
xmlns:kvg CDATA #FIXED "http://kanjivg.tagaini.net"
kvg:element CDATA #IMPLIED
kvg:variant CDATA #IMPLIED
kvg:partial CDATA #IMPLIED
kvg:original CDATA #IMPLIED
kvg:part CDATA #IMPLIED
kvg:number CDATA #IMPLIED
kvg:tradForm CDATA #IMPLIED
kvg:radicalForm CDATA #IMPLIED
kvg:position CDATA #IMPLIED
kvg:radical CDATA #IMPLIED
kvg:phon CDATA #IMPLIED >
<!ATTLIST path
xmlns:kvg CDATA #FIXED "http://kanjivg.tagaini.net"
kvg:type CDATA #IMPLIED >
]>
<svg xmlns="http://www.w3.org/2000/svg" width="109" height="109" viewBox="0 0 109 109">
<g id="kvg:StrokePaths_05150" style="fill:none;stroke:#000000;stroke-width:3;stroke-linecap:round;stroke-linejoin:round;">
<g id="kvg:05150" kvg:element="児">
	<g id="kvg:05150-g1" kvg:element="旧" kvg:position="top">
		<g id="kvg:05150-g2" kvg:element="丨" kvg:position="left">
			<path id="kvg:05150-s1" kvg:type="㇑" d="M25.37,14c0.81,0.81,1.21,2.25,1.21,3.5c0,0.85,0.02,18.41,0.03,29.12c0,2.16,0,4.01,0,5.38"/>
		</g>
		<g id="kvg:05150-g3" kvg:element="日" kvg:position="right">
			<path id="kvg:05150-s2" kvg:type="㇑" d="M45.74,16.05c0.79,0.79,1.31,2.22,1.31,3.3c0,2.48-0.01,19.6-0.02,27.77c0,1.37,0,2.5,0,3.25"/>
			<path id="kvg:05150-s3" kvg:type="㇕a" d="M47.72,17.44c1.93-0.12,19.5-2.2,26.03-2.95c3.12-0.36,5.12,1.39,4.79,4.77c-0.67,6.82-1.49,15.67-2.4,26.74c-0.1,1.17-0.19,2.37-0.29,3.59"/>
			<path id="kvg:05150-s4" kvg:type="㇐a" d="M48.12,33.08c4.26-0.46,22.63-2.08,28.16-2.15"/>
			<path id="kvg:05150-s5" kvg:type="㇐a" d="M47.98,48.71c7.4-0.46,19.24-1.13,27.04-1.63"/>
		</g>
	</g>
	<g id="kvg:05150-g4" kvg:element="儿" kvg:original="八" kvg:position="bottom" kvg:radical="general">
		<g id="kvg:05150-g5" kvg:element="丿" kvg:position="left">
			<path id="kvg:05150-s6" kvg:type="㇒" d="M39.25,60c0.06,0.82,0.14,2.12-0.13,3.3c-1.59,6.97-9.97,23.58-23.2,31.61"/>
		</g>
		<g id="kvg:05150-g6" kvg:position="right">
			<path id="kvg:05150-s7" kvg:type="㇟" d="M55.74,56.87c1.07,1.07,1.59,2.46,1.59,4.38c0,9.37-0.01,16.89-0.01,22.71c0,10.41,1.69,12.06,17.7,12.06c15.62,0,17.38-1.9,17.38-12.05"/>
		</g>
	</g>
</g>
</g>
<g id="kvg:StrokeNumbers_05150" style="font-size:8;fill:#808080">
	<text transform="matrix(1 0 0 1 17.50 15.50)">1</text>
	<text transform="matrix(1 0 0 1 38.50 22.50)">2</text>
	<text transform="matrix(1 0 0 1 48.75 14.50)">3</text>
	<text transform="matrix(1 0 0 1 51.75 29.50)">4</text>
	<text transform="matrix(1 0 0 1 51.75 45.13)">5</text>
	<text transform="matrix(1 0 0 1 30.50 60.50)">6</text>
	<text transform="matrix(1 0 0 1 47.50 60.50)">7</text>
</g>
</svg>
