<?xml version="1.0" encoding="UTF-8"?>
<!--
Copyright (C) 2009/2010/2011 Ulrich Apel.
This work is distributed under the conditions of the Creative Commons 
Attribution-Share Alike 3.0 Licence. This means you are free:
* to Share - to copy, distribute and transmit the work
* to Remix - to adapt the work

Under the following conditions:
* Attribution. You must attribute the work by stating your use of KanjiVG in
  your own copyright header and linking to KanjiVG's website
  (http://kanjivg.tagaini.net)
* Share Alike. If you alter, transform, or build upon this work, you may
  distribute the resulting work only under the same or similar license to this
  one.

See http://creativecommons.org/licenses/by-sa/3.0/ for more details.
-->
<!DOCTYPE svg PUBLIC "-//W3C//DTD SVG 1.0//EN" "http://www.w3.org/TR/2001/REC-SVG-20010904/DTD/svg10.dtd" [
<!ATTLIST g
xmlns:kvg CDATA #FIXED "http://kanjivg.tagaini.net"
kvg:element CDATA #IMPLIED
kvg:variant CDATA #IMPLIED
kvg:partial CDATA #IMPLIED
kvg:original CDATA #IMPLIED
kvg:part CDATA #IMPLIED
kvg:number CDATA #IMPLIED
kvg:tradForm CDATA #IMPLIED
kvg:radicalForm CDATA #IMPLIED
kvg:position CDATA #IMPLIED
kvg:radical CDATA #IMPLIED
kvg:phon CDATA #IMPLIED >
<!ATTLIST path
xmlns:kvg CDATA #FIXED "http://kanjivg.tagaini.net"
kvg:type CDATA #IMPLIED >
]>
<svg xmlns="http://www.w3.org/2000/svg" width="109" height="109" viewBox="0 0 109 109">
<g id="kvg:StrokePaths_05168-VtLst" style="fill:none;stroke:#000000;stroke-width:3;stroke-linecap:round;stroke-linejoin:round;">
<g id="kvg:05168-VtLst" kvg:element="全">
	<g id="kvg:05168-VtLst-g1" kvg:element="人" kvg:position="top" kvg:radical="general">
		<path id="kvg:05168-VtLst-s1" kvg:type="㇒" d="M50.25,12c0.11,1.15,0.4,3.02-0.21,4.61C46.25,26.5,33.25,47.5,12.5,60.75"/>
		<path id="kvg:05168-VtLst-s2" kvg:type="㇏" d="M51.25,17.13C58.12,23.66,81.13,46,87.34,50.96c2.11,1.68,4.81,2.4,6.91,2.88"/>
	</g>
	<g id="kvg:05168-VtLst-g2" kvg:element="王" kvg:original="玉" kvg:partial="true" kvg:position="bottom">
		<path id="kvg:05168-VtLst-s3" kvg:type="㇐" d="M31.92,53.79c0.85,0.47,3.64,0.17,4.5,0.03c4.01-0.63,21.26-2.37,30.93-2.86c1.32-0.07,2.51,0.09,3.6,0.49"/>
		<path id="kvg:05168-VtLst-s4" kvg:type="㇐" d="M32.7,72.18c0.84,0.51,3.63,0.31,4.5,0.23c9-0.9,17.57-1.7,28.13-2.62c1.05-0.09,3.38-0.21,4.95,0.24"/>
		<path id="kvg:05168-VtLst-s5" kvg:type="㇐" d="M19.85,93.51c0.83,0.29,5.13,0.15,6.52,0c19.57-2.02,33.53-3,54.45-3.7c2.25-0.08,4.95,0.48,6.07,0.93"/>
		<path id="kvg:05168-VtLst-s6" kvg:type="㇑" d="M51.16,53.99c0.9,1.12,0.9,1.8,0.9,2.7c0,6.3,0.45,26.86,0.23,33.15"/>
	</g>
</g>
</g>
<g id="kvg:StrokeNumbers_05168-VtLst" style="font-size:8;fill:#808080">
	<text transform="matrix(1 0 0 1 43.50 12.50)">1</text>
	<text transform="matrix(1 0 0 1 59.50 22.50)">2</text>
	<text transform="matrix(1 0 0 1 37.50 50.50)">3</text>
	<text transform="matrix(1 0 0 1 26.50 73.63)">4</text>
	<text transform="matrix(1 0 0 1 12.75 94.63)">5</text>
	<text transform="matrix(1 0 0 1 44.25 63.13)">6</text>
</g>
</svg>
