<?xml version="1.0" encoding="UTF-8"?>
<!--
Copyright (C) 2009/2010/2011 Ulrich Apel.
This work is distributed under the conditions of the Creative Commons 
Attribution-Share Alike 3.0 Licence. This means you are free:
* to Share - to copy, distribute and transmit the work
* to Remix - to adapt the work

Under the following conditions:
* Attribution. You must attribute the work by stating your use of KanjiVG in
  your own copyright header and linking to KanjiVG's website
  (http://kanjivg.tagaini.net)
* Share Alike. If you alter, transform, or build upon this work, you may
  distribute the resulting work only under the same or similar license to this
  one.

See http://creativecommons.org/licenses/by-sa/3.0/ for more details.
-->
<!DOCTYPE svg PUBLIC "-//W3C//DTD SVG 1.0//EN" "http://www.w3.org/TR/2001/REC-SVG-20010904/DTD/svg10.dtd" [
<!ATTLIST g
xmlns:kvg CDATA #FIXED "http://kanjivg.tagaini.net"
kvg:element CDATA #IMPLIED
kvg:variant CDATA #IMPLIED
kvg:partial CDATA #IMPLIED
kvg:original CDATA #IMPLIED
kvg:part CDATA #IMPLIED
kvg:number CDATA #IMPLIED
kvg:tradForm CDATA #IMPLIED
kvg:radicalForm CDATA #IMPLIED
kvg:position CDATA #IMPLIED
kvg:radical CDATA #IMPLIED
kvg:phon CDATA #IMPLIED >
<!ATTLIST path
xmlns:kvg CDATA #FIXED "http://kanjivg.tagaini.net"
kvg:type CDATA #IMPLIED >
]>
<svg xmlns="http://www.w3.org/2000/svg" width="109" height="109" viewBox="0 0 109 109">
<g id="kvg:StrokePaths_0516d-Kaisho" style="fill:none;stroke:#000000;stroke-width:3;stroke-linecap:round;stroke-linejoin:round;">
<g id="kvg:0516d-Kaisho" kvg:element="六">
	<g id="kvg:0516d-Kaisho-g1" kvg:element="亠" kvg:position="top" kvg:radical="nelson">
		<path id="kvg:0516d-Kaisho-s1" kvg:type="㇑a" d="M46.28,18c5.15,2.19,12.71,10.64,13.58,14.94"/>
		<path id="kvg:0516d-Kaisho-s2" kvg:type="㇐" d="M14.75,43.13c1.35,0.12,4.44,0.76,5.76,0.64c14.23-1.27,52.73-7.02,69.35-6.22c2.24,0.11,3.38,0.06,5.04,0.82"/>
	</g>
	<g id="kvg:0516d-Kaisho-g2" kvg:element="八" kvg:position="bottom" kvg:radical="tradit">
		<path id="kvg:0516d-Kaisho-s3" kvg:type="㇒" d="M37.11,58.35c0.51,1.37,1.14,4.15,0.26,5.79c-4.77,8.87-12.09,16.9-21.96,24.62"/>
		<path id="kvg:0516d-Kaisho-s4" kvg:type="㇏" d="M70.16,59.42c9.96,8.61,18.18,18.54,23.16,28.99"/>
	</g>
</g>
</g>
<g id="kvg:StrokeNumbers_0516d-Kaisho" style="font-size:8;fill:#808080">
	<text transform="matrix(1 0 0 1 40.75 17.63)">1</text>
	<text transform="matrix(1 0 0 1 5.50 43.63)">2</text>
	<text transform="matrix(1 0 0 1 27.50 58.63)">3</text>
	<text transform="matrix(1 0 0 1 60.50 58.63)">4</text>
</g>
</svg>
