<?xml version="1.0" encoding="UTF-8"?>
<!--
Copyright (C) 2009/2010/2011 Ulrich Apel.
This work is distributed under the conditions of the Creative Commons 
Attribution-Share Alike 3.0 Licence. This means you are free:
* to Share - to copy, distribute and transmit the work
* to Remix - to adapt the work

Under the following conditions:
* Attribution. You must attribute the work by stating your use of KanjiVG in
  your own copyright header and linking to KanjiVG's website
  (http://kanjivg.tagaini.net)
* Share Alike. If you alter, transform, or build upon this work, you may
  distribute the resulting work only under the same or similar license to this
  one.

See http://creativecommons.org/licenses/by-sa/3.0/ for more details.
-->
<!DOCTYPE svg PUBLIC "-//W3C//DTD SVG 1.0//EN" "http://www.w3.org/TR/2001/REC-SVG-20010904/DTD/svg10.dtd" [
<!ATTLIST g
xmlns:kvg CDATA #FIXED "http://kanjivg.tagaini.net"
kvg:element CDATA #IMPLIED
kvg:variant CDATA #IMPLIED
kvg:partial CDATA #IMPLIED
kvg:original CDATA #IMPLIED
kvg:part CDATA #IMPLIED
kvg:number CDATA #IMPLIED
kvg:tradForm CDATA #IMPLIED
kvg:radicalForm CDATA #IMPLIED
kvg:position CDATA #IMPLIED
kvg:radical CDATA #IMPLIED
kvg:phon CDATA #IMPLIED >
<!ATTLIST path
xmlns:kvg CDATA #FIXED "http://kanjivg.tagaini.net"
kvg:type CDATA #IMPLIED >
]>
<svg xmlns="http://www.w3.org/2000/svg" width="109" height="109" viewBox="0 0 109 109">
<g id="kvg:StrokePaths_0518d" style="fill:none;stroke:#000000;stroke-width:3;stroke-linecap:round;stroke-linejoin:round;">
<g id="kvg:0518d" kvg:element="再">
	<g id="kvg:0518d-g1" kvg:element="一" kvg:radical="nelson">
		<path id="kvg:0518d-s1" kvg:type="㇐" d="M20.75,17.62c2.88,0.5,5.66,0.36,8.25,0.18c10.51-0.74,34.77-3.08,47.88-3.68C79.6,14,82.32,14.06,85,14.64"/>
	</g>
	<g id="kvg:0518d-g2" kvg:element="冉">
		<g id="kvg:0518d-g3" kvg:element="冂" kvg:radical="tradit">
			<path id="kvg:0518d-s2" kvg:type="㇑" d="M27.95,33.19c0.87,0.87,1.71,2.61,1.71,4.6c0,5.59,0.06,36.62,0.14,51.96c0.02,3.76,0.03,3.62,0.03,7"/>
			<path id="kvg:0518d-s3" kvg:type="㇆a" d="M30.4,35.14c6.16-0.81,29.91-3.74,40.97-4.9c4.95-0.52,6.69-0.16,6.69,5c0,12.41-0.03,49.71-0.03,57.99c0,8.16-5.29,3.01-7.62,1.32"/>
		</g>
		<g id="kvg:0518d-g4" kvg:element="土" kvg:variant="true">
			<path id="kvg:0518d-s4" kvg:type="㇑a" d="M51.92,19.12c0.73,0.73,1.27,2.51,1.27,3.89c0,12-0.07,29.38-0.07,45.12"/>
			<path id="kvg:0518d-s5" kvg:type="㇐a" d="M30.64,52.05c13.11-1.05,29.86-2.67,46.3-3.38"/>
			<path id="kvg:0518d-s6" kvg:type="㇐" d="M11.88,71.73c3.87,0.77,6.97,0.77,10.25,0.43c18.58-1.95,45.25-4.28,63.62-4.88c3.43-0.11,8.25,0.07,11.63,0.79"/>
		</g>
	</g>
</g>
</g>
<g id="kvg:StrokeNumbers_0518d" style="font-size:8;fill:#808080">
	<text transform="matrix(1 0 0 1 13.50 17.50)">1</text>
	<text transform="matrix(1 0 0 1 21.75 41.50)">2</text>
	<text transform="matrix(1 0 0 1 31.50 31.50)">3</text>
	<text transform="matrix(1 0 0 1 44.50 25.63)">4</text>
	<text transform="matrix(1 0 0 1 34.50 48.05)">5</text>
	<text transform="matrix(1 0 0 1 3.75 73.48)">6</text>
</g>
</svg>
