<?xml version="1.0" encoding="UTF-8"?>
<!--
Copyright (C) 2009/2010/2011 Ulrich Apel.
This work is distributed under the conditions of the Creative Commons 
Attribution-Share Alike 3.0 Licence. This means you are free:
* to Share - to copy, distribute and transmit the work
* to Remix - to adapt the work

Under the following conditions:
* Attribution. You must attribute the work by stating your use of KanjiVG in
  your own copyright header and linking to KanjiVG's website
  (http://kanjivg.tagaini.net)
* Share Alike. If you alter, transform, or build upon this work, you may
  distribute the resulting work only under the same or similar license to this
  one.

See http://creativecommons.org/licenses/by-sa/3.0/ for more details.
-->
<!DOCTYPE svg PUBLIC "-//W3C//DTD SVG 1.0//EN" "http://www.w3.org/TR/2001/REC-SVG-20010904/DTD/svg10.dtd" [
<!ATTLIST g
xmlns:kvg CDATA #FIXED "http://kanjivg.tagaini.net"
kvg:element CDATA #IMPLIED
kvg:variant CDATA #IMPLIED
kvg:partial CDATA #IMPLIED
kvg:original CDATA #IMPLIED
kvg:part CDATA #IMPLIED
kvg:number CDATA #IMPLIED
kvg:tradForm CDATA #IMPLIED
kvg:radicalForm CDATA #IMPLIED
kvg:position CDATA #IMPLIED
kvg:radical CDATA #IMPLIED
kvg:phon CDATA #IMPLIED >
<!ATTLIST path
xmlns:kvg CDATA #FIXED "http://kanjivg.tagaini.net"
kvg:type CDATA #IMPLIED >
]>
<svg xmlns="http://www.w3.org/2000/svg" width="109" height="109" viewBox="0 0 109 109">
<g id="kvg:StrokePaths_051a8" style="fill:none;stroke:#000000;stroke-width:3;stroke-linecap:round;stroke-linejoin:round;">
<g id="kvg:051a8" kvg:element="冨">
	<g id="kvg:051a8-g1" kvg:element="冖" kvg:position="top" kvg:radical="general">
		<path id="kvg:051a8-s1" kvg:type="㇔" d="M21.91,15.13c0,3.48-3.03,13.05-4.41,15.37"/>
		<path id="kvg:051a8-s2" kvg:type="㇖b" d="M22.74,17.76c9.51-0.88,56.24-3.59,63.95-3.93c12.05-0.52,2.55,6.39-0.45,8.28"/>
	</g>
	<g id="kvg:051a8-g2" kvg:position="bottom">
		<g id="kvg:051a8-g3" kvg:element="一">
			<path id="kvg:051a8-s3" kvg:type="㇐" d="M30.29,31.07c1.2,0.33,3.39,0.42,4.59,0.33c7.62-0.58,28.82-3.42,37.69-3.52c1.99-0.02,3.19,0.16,4.19,0.33"/>
		</g>
		<g id="kvg:051a8-g4" kvg:element="口">
			<path id="kvg:051a8-s4" kvg:type="㇑" d="M34.33,42.01c0.39,0.29,0.79,0.53,0.96,0.9c1.35,2.88,2.96,10.83,3.88,16"/>
			<path id="kvg:051a8-s5" kvg:type="㇕b" d="M36.75,43.47c9.52-1.21,29.31-3.26,34.22-3.67c1.8-0.15,2.88,1.5,2.62,2.38c-1.07,3.63-2.28,6.75-4.56,11.98"/>
			<path id="kvg:051a8-s6" kvg:type="㇐b" d="M39.56,57c5.77-0.46,25.7-1.93,33.02-2.39"/>
		</g>
		<g id="kvg:051a8-g5" kvg:element="田">
			<path id="kvg:051a8-s7" kvg:type="㇑" d="M26.51,67.43c0.38,0.55,0.39,0.91,0.59,1.58c1.69,5.53,3.22,18.82,4.22,28.99"/>
			<path id="kvg:051a8-s8" kvg:type="㇕a" d="M28.3,70.09c17.59-1.79,39.76-3.33,49.8-3.87c3.69-0.2,5.15,0.52,4.87,3.38c-0.54,5.45-3.55,16.31-5.5,26.94"/>
			<path id="kvg:051a8-s9" kvg:type="㇑a" d="M51.61,68.57c1.44,0.43,2.55,1.24,2.55,2.71c-0.01,6.79,0.24,21.03,0.24,23.22"/>
			<path id="kvg:051a8-s10" kvg:type="㇐a" d="M30.7,82.43c4.38-0.27,46.13-3.25,49.75-3.25"/>
			<path id="kvg:051a8-s11" kvg:type="㇐a" d="M32.02,96.15c15.82-1.08,29.17-1.77,45.56-2.75"/>
		</g>
	</g>
</g>
</g>
<g id="kvg:StrokeNumbers_051a8" style="font-size:8;fill:#808080">
	<text transform="matrix(1 0 0 1 16.50 15.50)">1</text>
	<text transform="matrix(1 0 0 1 26.50 14.50)">2</text>
	<text transform="matrix(1 0 0 1 28.50 28.50)">3</text>
	<text transform="matrix(1 0 0 1 29.50 49.50)">4</text>
	<text transform="matrix(1 0 0 1 38.50 40.50)">5</text>
	<text transform="matrix(1 0 0 1 42.50 53.50)">6</text>
	<text transform="matrix(1 0 0 1 20.50 75.50)">7</text>
	<text transform="matrix(1 0 0 1 30.50 66.50)">8</text>
	<text transform="matrix(1 0 0 1 47.50 77.50)">9</text>
	<text transform="matrix(1 0 0 1 32.50 79.50)">10</text>
	<text transform="matrix(1 0 0 1 33.50 92.50)">11</text>
</g>
</svg>
