<?xml version="1.0" encoding="UTF-8"?>
<!--
Copyright (C) 2009/2010/2011 Ulrich Apel.
This work is distributed under the conditions of the Creative Commons 
Attribution-Share Alike 3.0 Licence. This means you are free:
* to Share - to copy, distribute and transmit the work
* to Remix - to adapt the work

Under the following conditions:
* Attribution. You must attribute the work by stating your use of KanjiVG in
  your own copyright header and linking to KanjiVG's website
  (http://kanjivg.tagaini.net)
* Share Alike. If you alter, transform, or build upon this work, you may
  distribute the resulting work only under the same or similar license to this
  one.

See http://creativecommons.org/licenses/by-sa/3.0/ for more details.
-->
<!DOCTYPE svg PUBLIC "-//W3C//DTD SVG 1.0//EN" "http://www.w3.org/TR/2001/REC-SVG-20010904/DTD/svg10.dtd" [
<!ATTLIST g
xmlns:kvg CDATA #FIXED "http://kanjivg.tagaini.net"
kvg:element CDATA #IMPLIED
kvg:variant CDATA #IMPLIED
kvg:partial CDATA #IMPLIED
kvg:original CDATA #IMPLIED
kvg:part CDATA #IMPLIED
kvg:number CDATA #IMPLIED
kvg:tradForm CDATA #IMPLIED
kvg:radicalForm CDATA #IMPLIED
kvg:position CDATA #IMPLIED
kvg:radical CDATA #IMPLIED
kvg:phon CDATA #IMPLIED >
<!ATTLIST path
xmlns:kvg CDATA #FIXED "http://kanjivg.tagaini.net"
kvg:type CDATA #IMPLIED >
]>
<svg xmlns="http://www.w3.org/2000/svg" width="109" height="109" viewBox="0 0 109 109">
<g id="kvg:StrokePaths_051c4" style="fill:none;stroke:#000000;stroke-width:3;stroke-linecap:round;stroke-linejoin:round;">
<g id="kvg:051c4" kvg:element="凄">
	<g id="kvg:051c4-g1" kvg:element="冫" kvg:position="left" kvg:radical="general">
		<g id="kvg:051c4-g2" kvg:position="top">
			<path id="kvg:051c4-s1" kvg:type="㇔" d="M14.54,22c4.08,1.66,9.46,5.88,11.04,9.16"/>
		</g>
		<g id="kvg:051c4-g3" kvg:position="bottom">
			<path id="kvg:051c4-s2" kvg:type="㇀" d="M13.23,83.67c2.27-0.17,3.59-1.05,4.38-3C19.5,76,22.25,67.5,26.77,55.17"/>
		</g>
	</g>
	<g id="kvg:051c4-g4" kvg:element="妻" kvg:position="right">
		<g id="kvg:051c4-g5" kvg:position="top">
			<path id="kvg:051c4-s3" kvg:type="㇐" d="M36.75,22.64c2.9,0.47,5.77,0.22,8.63-0.25c8.02-1.06,21.72-2.82,29.73-3.36c2.81-0.31,5.61-0.23,8.39,0.24"/>
			<g id="kvg:051c4-g6" kvg:element="⺕" kvg:variant="true" kvg:original="彑">
				<path id="kvg:051c4-s4" kvg:type="㇕" d="M41.39,32.62c2.56,1,5.1,0.95,7.74,0.59c8.36-1.15,18.84-2.85,27.61-3.61c2.96-0.25,5.11,0.24,4.28,3.83c-1.52,6.57-2.08,9.67-3.47,18.37"/>
				<path id="kvg:051c4-s5" kvg:type="㇐" d="M29.64,44.63c3.29,0.53,6.58,0.32,9.88-0.13c15.62-1.71,33.61-4,47.86-5.08c3.11-0.24,6.17-0.29,9.23,0.41"/>
				<path id="kvg:051c4-s6" kvg:type="㇐c" d="M39.68,54.75c2.32,0.48,4.64,0.55,6.95,0.23c8.06-0.81,18.9-2.12,26.14-2.63c2.31-0.22,4.62-0.24,6.93-0.04"/>
			</g>
			<path id="kvg:051c4-s7" kvg:type="㇑" d="M58.87,10.25c0.94,0.94,1.46,2.38,1.46,3.5c0,1.02,0,33-0.22,39.25"/>
		</g>
		<g id="kvg:051c4-g7" kvg:element="女" kvg:position="bottom">
			<path id="kvg:051c4-s8" kvg:type="㇛" d="M58.46,56.87c0,1.26-0.1,2.23-0.75,3.43c-2.08,3.83-5.73,11.95-12.46,18.88c-2.5,2.58-2.25,2.54,0.75,2.78c10.29,0.83,20.27,4.43,28.44,11.62c2.15,1.89,4.18,4.27,6.06,6.63"/>
			<path id="kvg:051c4-s9" kvg:type="㇒" d="M74.62,64.49c0,1.38,0.02,2.91-0.51,4.1C69.25,79.5,58.5,92.12,31.5,99"/>
			<path id="kvg:051c4-s10" kvg:type="㇐" d="M29.38,69.06c3.77,0.42,7.51,0.24,11.27-0.17c11.16-1.2,30.97-3.42,46.73-3.72c2.98-0.16,5.94,0.07,8.88,0.69"/>
		</g>
	</g>
</g>
</g>
<g id="kvg:StrokeNumbers_051c4" style="font-size:8;fill:#808080">
	<text transform="matrix(1 0 0 1 7.50 21.50)">1</text>
	<text transform="matrix(1 0 0 1 4.50 83.50)">2</text>
	<text transform="matrix(1 0 0 1 32.50 19.50)">3</text>
	<text transform="matrix(1 0 0 1 34.50 34.50)">4</text>
	<text transform="matrix(1 0 0 1 27.50 41.50)">5</text>
	<text transform="matrix(1 0 0 1 32.50 56.50)">6</text>
	<text transform="matrix(1 0 0 1 51.50 11.50)">7</text>
	<text transform="matrix(1 0 0 1 48.44 63.50)">8</text>
	<text transform="matrix(1 0 0 1 65.50 62.50)">9</text>
	<text transform="matrix(1 0 0 1 27.50 66.50)">10</text>
</g>
</svg>
