<?xml version="1.0" encoding="UTF-8"?>
<!--
Copyright (C) 2009/2010/2011 Ulrich Apel.
This work is distributed under the conditions of the Creative Commons 
Attribution-Share Alike 3.0 Licence. This means you are free:
* to Share - to copy, distribute and transmit the work
* to Remix - to adapt the work

Under the following conditions:
* Attribution. You must attribute the work by stating your use of KanjiVG in
  your own copyright header and linking to KanjiVG's website
  (http://kanjivg.tagaini.net)
* Share Alike. If you alter, transform, or build upon this work, you may
  distribute the resulting work only under the same or similar license to this
  one.

See http://creativecommons.org/licenses/by-sa/3.0/ for more details.
-->
<!DOCTYPE svg PUBLIC "-//W3C//DTD SVG 1.0//EN" "http://www.w3.org/TR/2001/REC-SVG-20010904/DTD/svg10.dtd" [
<!ATTLIST g
xmlns:kvg CDATA #FIXED "http://kanjivg.tagaini.net"
kvg:element CDATA #IMPLIED
kvg:variant CDATA #IMPLIED
kvg:partial CDATA #IMPLIED
kvg:original CDATA #IMPLIED
kvg:part CDATA #IMPLIED
kvg:number CDATA #IMPLIED
kvg:tradForm CDATA #IMPLIED
kvg:radicalForm CDATA #IMPLIED
kvg:position CDATA #IMPLIED
kvg:radical CDATA #IMPLIED
kvg:phon CDATA #IMPLIED >
<!ATTLIST path
xmlns:kvg CDATA #FIXED "http://kanjivg.tagaini.net"
kvg:type CDATA #IMPLIED >
]>
<svg xmlns="http://www.w3.org/2000/svg" width="109" height="109" viewBox="0 0 109 109">
<g id="kvg:StrokePaths_051e1" style="fill:none;stroke:#000000;stroke-width:3;stroke-linecap:round;stroke-linejoin:round;">
<g id="kvg:051e1" kvg:element="凡">
	<g id="kvg:051e1-g1" kvg:element="几" kvg:radical="general">
		<g id="kvg:051e1-g2" kvg:element="丿">
			<path id="kvg:051e1-s1" kvg:type="㇒" d="M35.55,21.25c1.04,1.04,1.5,2.38,1.57,4.74C37.75,48,38,78.5,17.25,92.5"/>
		</g>
		<path id="kvg:051e1-s2" kvg:type="㇈b" d="M38.25,23.75C42,23,60.5,19.5,63.5,18.75s5.85,0.69,5.5,4.5c-1.75,19.25-2.5,36-2.5,52c0,13.02,2.75,15,14.25,15c12,0,13.5-1.5,13.5-10.5"/>
	</g>
	<g id="kvg:051e1-g3" kvg:element="丶">
		<path id="kvg:051e1-s3" kvg:type="㇔" d="M46,48c5.58,4.67,8.77,9.62,10.5,14"/>
	</g>
</g>
</g>
<g id="kvg:StrokeNumbers_051e1" style="font-size:8;fill:#808080">
	<text transform="matrix(1 0 0 1 30.50 31.63)">1</text>
	<text transform="matrix(1 0 0 1 38.50 19.50)">2</text>
	<text transform="matrix(1 0 0 1 43.50 44.50)">3</text>
</g>
</svg>
