<?xml version="1.0" encoding="UTF-8"?>
<!--
Copyright (C) 2009/2010/2011 Ulrich Apel.
This work is distributed under the conditions of the Creative Commons 
Attribution-Share Alike 3.0 Licence. This means you are free:
* to Share - to copy, distribute and transmit the work
* to Remix - to adapt the work

Under the following conditions:
* Attribution. You must attribute the work by stating your use of KanjiVG in
  your own copyright header and linking to KanjiVG's website
  (http://kanjivg.tagaini.net)
* Share Alike. If you alter, transform, or build upon this work, you may
  distribute the resulting work only under the same or similar license to this
  one.

See http://creativecommons.org/licenses/by-sa/3.0/ for more details.
-->
<!DOCTYPE svg PUBLIC "-//W3C//DTD SVG 1.0//EN" "http://www.w3.org/TR/2001/REC-SVG-20010904/DTD/svg10.dtd" [
<!ATTLIST g
xmlns:kvg CDATA #FIXED "http://kanjivg.tagaini.net"
kvg:element CDATA #IMPLIED
kvg:variant CDATA #IMPLIED
kvg:partial CDATA #IMPLIED
kvg:original CDATA #IMPLIED
kvg:part CDATA #IMPLIED
kvg:number CDATA #IMPLIED
kvg:tradForm CDATA #IMPLIED
kvg:radicalForm CDATA #IMPLIED
kvg:position CDATA #IMPLIED
kvg:radical CDATA #IMPLIED
kvg:phon CDATA #IMPLIED >
<!ATTLIST path
xmlns:kvg CDATA #FIXED "http://kanjivg.tagaini.net"
kvg:type CDATA #IMPLIED >
]>
<svg xmlns="http://www.w3.org/2000/svg" width="109" height="109" viewBox="0 0 109 109">
<g id="kvg:StrokePaths_0520b" style="fill:none;stroke:#000000;stroke-width:3;stroke-linecap:round;stroke-linejoin:round;">
<g id="kvg:0520b" kvg:element="刋">
	<g id="kvg:0520b-g1" kvg:element="千" kvg:position="left">
		<g id="kvg:0520b-g2" kvg:element="丿" kvg:position="top">
			<path id="kvg:0520b-s1" kvg:type="㇒" d="M50.63,13.92c0.1,0.46-0.2,2.54-1.33,3.35C43.75,21.25,36,26.5,17.14,32.91"/>
		</g>
		<g id="kvg:0520b-g3" kvg:element="十" kvg:position="bottom">
			<path id="kvg:0520b-s2" kvg:type="㇐" d="M10.63,51.79c0.85,0.51,2.98,0.55,3.84,0.51c11.03-0.55,26.53-5.05,41.17-6c1.42-0.09,2.28,0.24,2.99,0.5"/>
			<path id="kvg:0520b-s3" kvg:type="㇑" d="M36.41,27.25c0.6,1.79,1.47,3.19,1.47,5.42c0,20.4,0.62,45.08-18.07,60.29"/>
		</g>
	</g>
	<g id="kvg:0520b-g4" kvg:element="刂" kvg:variant="true" kvg:original="刀" kvg:position="right" kvg:radical="general">
		<path id="kvg:0520b-s4" kvg:type="㇑" d="M67.27,31.83c0.98,0.92,1.67,1.99,1.76,5.02C69.42,51.41,69,62.54,69,67.5"/>
		<path id="kvg:0520b-s5" kvg:type="㇚" d="M88.77,16.33c0.98,0.92,1.67,1.99,1.76,5.02c0.4,14.55-0.26,61.16-0.26,66.12c0,13.14-7.21,1.5-8.71,0.25"/>
	</g>
</g>
</g>
<g id="kvg:StrokeNumbers_0520b" style="font-size:8;fill:#808080">
	<text transform="matrix(1 0 0 1 42.50 13.50)">1</text>
	<text transform="matrix(1 0 0 1 3.50 53.50)">2</text>
	<text transform="matrix(1 0 0 1 30.50 38.50)">3</text>
	<text transform="matrix(1 0 0 1 59.50 31.50)">4</text>
	<text transform="matrix(1 0 0 1 78.50 16.50)">5</text>
</g>
</svg>
