<?xml version="1.0" encoding="UTF-8"?>
<!--
Copyright (C) 2009/2010/2011 Ulrich Apel.
This work is distributed under the conditions of the Creative Commons 
Attribution-Share Alike 3.0 Licence. This means you are free:
* to Share - to copy, distribute and transmit the work
* to Remix - to adapt the work

Under the following conditions:
* Attribution. You must attribute the work by stating your use of KanjiVG in
  your own copyright header and linking to KanjiVG's website
  (http://kanjivg.tagaini.net)
* Share Alike. If you alter, transform, or build upon this work, you may
  distribute the resulting work only under the same or similar license to this
  one.

See http://creativecommons.org/licenses/by-sa/3.0/ for more details.
-->
<!DOCTYPE svg PUBLIC "-//W3C//DTD SVG 1.0//EN" "http://www.w3.org/TR/2001/REC-SVG-20010904/DTD/svg10.dtd" [
<!ATTLIST g
xmlns:kvg CDATA #FIXED "http://kanjivg.tagaini.net"
kvg:element CDATA #IMPLIED
kvg:variant CDATA #IMPLIED
kvg:partial CDATA #IMPLIED
kvg:original CDATA #IMPLIED
kvg:part CDATA #IMPLIED
kvg:number CDATA #IMPLIED
kvg:tradForm CDATA #IMPLIED
kvg:radicalForm CDATA #IMPLIED
kvg:position CDATA #IMPLIED
kvg:radical CDATA #IMPLIED
kvg:phon CDATA #IMPLIED >
<!ATTLIST path
xmlns:kvg CDATA #FIXED "http://kanjivg.tagaini.net"
kvg:type CDATA #IMPLIED >
]>
<svg xmlns="http://www.w3.org/2000/svg" width="109" height="109" viewBox="0 0 109 109">
<g id="kvg:StrokePaths_05244" style="fill:none;stroke:#000000;stroke-width:3;stroke-linecap:round;stroke-linejoin:round;">
<g id="kvg:05244" kvg:element="剄">
	<g id="kvg:05244-g1" kvg:position="left">
		<g id="kvg:05244-g2" kvg:element="一">
			<path id="kvg:05244-s1" kvg:type="㇐" d="M14.25,21.31c1.03,0.42,2.91,0.49,3.95,0.42c7.84-0.57,30.86-3.59,37.95-3.71c1.71-0.03,2.75,0.2,3.6,0.41"/>
		</g>
		<g id="kvg:05244-g3" kvg:element="巛">
			<path id="kvg:05244-s2" kvg:type="㇛" d="M22.53,28.34c0.69,0.33,0.15,2.59-0.12,3.36c-1.7,4.95-3.33,9.48-7.82,13.92c-0.87,0.86-0.42,0.88,0,1.11c5.19,2.88,7.96,6.28,10.7,12.14"/>
			<path id="kvg:05244-s3" kvg:type="㇛" d="M39.05,26.04c0.72,0.34,0.15,2.69-0.12,3.48c-1.77,5.13-3.95,9.33-8.6,13.93c-0.9,0.89-0.43,0.91,0,1.15c5.38,2.99,8.93,6.9,11.73,11.58"/>
			<path id="kvg:05244-s4" kvg:type="㇛" d="M54.74,24.66c0.62,0.29,0.13,2.3-0.1,2.98c-1.51,4.4-2.95,9.78-6.94,13.72c-0.77,0.76-0.3,0.68,0,0.99C51.25,46,54,49.5,56.19,54.73"/>
		</g>
		<g id="kvg:05244-g4" kvg:element="工">
			<path id="kvg:05244-s5" kvg:type="㇐" d="M16.39,65.56c0.61,0.4,2.86,1.19,4.56,0.92c6.39-0.98,24.59-3.44,31.52-4.03c0.95-0.08,2.7-0.29,3.48,0.05"/>
			<path id="kvg:05244-s6" kvg:type="㇑a" d="M35.38,66.41c0.96,0.97,1.63,3.04,1.63,3.82c0,6.52,0.02,12.34-0.17,16.67"/>
			<path id="kvg:05244-s7" kvg:type="㇐" d="M14.85,92.76c0.66,0.17,2.19,1.91,4.27,1.11c6.28-2.41,22.64-8.74,32.41-12.26"/>
		</g>
	</g>
	<g id="kvg:05244-g5" kvg:element="刂" kvg:variant="true" kvg:original="刀" kvg:position="right" kvg:radical="general">
		<path id="kvg:05244-s8" kvg:type="㇑" d="M68.77,24.83c0.98,0.92,1.67,1.99,1.76,5.02c0.4,14.55-0.02,36.69-0.02,41.65"/>
		<path id="kvg:05244-s9" kvg:type="㇚" d="M88.77,11.83c0.98,0.92,1.67,1.99,1.76,5.02c0.4,14.55-0.26,68.66-0.26,73.62c0,13.14-7.21,1.5-8.71,0.25"/>
	</g>
</g>
</g>
<g id="kvg:StrokeNumbers_05244" style="font-size:8;fill:#808080">
	<text transform="matrix(1 0 0 1 8.50 20.50)">1</text>
	<text transform="matrix(1 0 0 1 14.50 31.50)">2</text>
	<text transform="matrix(1 0 0 1 30.50 29.50)">3</text>
	<text transform="matrix(1 0 0 1 47.25 27.40)">4</text>
	<text transform="matrix(1 0 0 1 9.50 66.50)">5</text>
	<text transform="matrix(1 0 0 1 29.50 74.50)">6</text>
	<text transform="matrix(1 0 0 1 8.50 92.50)">7</text>
	<text transform="matrix(1 0 0 1 65.50 21.50)">8</text>
	<text transform="matrix(1 0 0 1 78.50 11.50)">9</text>
</g>
</svg>
