<?xml version="1.0" encoding="UTF-8"?>
<!--
Copyright (C) 2009/2010/2011 Ulrich Apel.
This work is distributed under the conditions of the Creative Commons 
Attribution-Share Alike 3.0 Licence. This means you are free:
* to Share - to copy, distribute and transmit the work
* to Remix - to adapt the work

Under the following conditions:
* Attribution. You must attribute the work by stating your use of KanjiVG in
  your own copyright header and linking to KanjiVG's website
  (http://kanjivg.tagaini.net)
* Share Alike. If you alter, transform, or build upon this work, you may
  distribute the resulting work only under the same or similar license to this
  one.

See http://creativecommons.org/licenses/by-sa/3.0/ for more details.
-->
<!DOCTYPE svg PUBLIC "-//W3C//DTD SVG 1.0//EN" "http://www.w3.org/TR/2001/REC-SVG-20010904/DTD/svg10.dtd" [
<!ATTLIST g
xmlns:kvg CDATA #FIXED "http://kanjivg.tagaini.net"
kvg:element CDATA #IMPLIED
kvg:variant CDATA #IMPLIED
kvg:partial CDATA #IMPLIED
kvg:original CDATA #IMPLIED
kvg:part CDATA #IMPLIED
kvg:number CDATA #IMPLIED
kvg:tradForm CDATA #IMPLIED
kvg:radicalForm CDATA #IMPLIED
kvg:position CDATA #IMPLIED
kvg:radical CDATA #IMPLIED
kvg:phon CDATA #IMPLIED >
<!ATTLIST path
xmlns:kvg CDATA #FIXED "http://kanjivg.tagaini.net"
kvg:type CDATA #IMPLIED >
]>
<svg xmlns="http://www.w3.org/2000/svg" width="109" height="109" viewBox="0 0 109 109">
<g id="kvg:StrokePaths_0526f" style="fill:none;stroke:#000000;stroke-width:3;stroke-linecap:round;stroke-linejoin:round;">
<g id="kvg:0526f" kvg:element="副">
	<g id="kvg:0526f-g1" kvg:element="畐" kvg:position="left" kvg:phon="畐">
		<g id="kvg:0526f-g2" kvg:element="一">
			<path id="kvg:0526f-s1" kvg:type="㇐" d="M19.25,19.82c1.39,0.35,3.96,0.29,5.35,0.1c7.9-1.05,17.4-2.55,26.65-3.2c2.31-0.16,3.72-0.08,4.88,0.1"/>
		</g>
		<g id="kvg:0526f-g3" kvg:element="口">
			<path id="kvg:0526f-s2" kvg:type="㇑" d="M20.75,31.01c0.81,0.81,1.43,1.88,1.58,2.83c0.88,2.68,1.67,6.17,2.32,10.03c0.18,1.04,0.34,2.12,0.5,3.21"/>
			<path id="kvg:0526f-s3" kvg:type="㇕b" d="M22.96,32.63c7.69-1.21,18.67-2.88,27.79-3.64c3.7-0.31,4.81,1.03,3.8,4.57c-0.81,2.84-1.69,4.63-2.85,8.16"/>
			<path id="kvg:0526f-s4" kvg:type="㇐b" d="M26.01,45.43c4.44-0.44,16.47-1.69,24.12-2.39c1.41-0.13,2.66-0.24,3.7-0.32"/>
		</g>
		<g id="kvg:0526f-g4" kvg:element="田">
			<path id="kvg:0526f-s5" kvg:type="㇑" d="M18.75,57.38c0.62,0.62,1.18,1.65,1.27,2.35c0.75,6.26,1.75,15.94,2.57,25.15c0.12,1.31,0.23,2.61,0.34,3.88"/>
			<path id="kvg:0526f-s6" kvg:type="㇕a" d="M20.78,58.98c11.47-1.48,23.95-2.96,31.5-3.62c4.02-0.35,5.67,0.42,5.34,4.65c-0.45,5.66-1.49,14.59-2.58,22.38c-0.15,1.09-0.31,2.16-0.47,3.19"/>
			<path id="kvg:0526f-s7" kvg:type="㇑a" d="M37.76,59.08c0.77,0.77,1.05,2.21,1.05,3.68c0,6.99,0.08,16.49,0.08,21.21"/>
			<path id="kvg:0526f-s8" kvg:type="㇐a" d="M22.48,71.93C30.38,71,51,68.88,55.57,68.84"/>
			<path id="kvg:0526f-s9" kvg:type="㇐a" d="M23.92,86.34c8.95-0.71,20.95-1.96,29.72-2.36"/>
		</g>
	</g>
	<g id="kvg:0526f-g5" kvg:element="刂" kvg:variant="true" kvg:original="刀" kvg:position="right" kvg:radical="general">
		<path id="kvg:0526f-s10" kvg:type="㇑" d="M70.27,23.83c0.98,0.92,1.76,2.17,1.76,4.27c0,10.71-0.01,21.72-0.02,28.77c0,2.54,0,4.56,0,5.87"/>
		<path id="kvg:0526f-s11" kvg:type="㇚" d="M88.77,14.08c1.33,1.33,1.76,2.92,1.76,4.77c0,14.56-0.01,63.66-0.01,68.62c0,8.12-4.91,3.42-8.71,0.25"/>
	</g>
</g>
</g>
<g id="kvg:StrokeNumbers_0526f" style="font-size:8;fill:#808080">
	<text transform="matrix(1 0 0 1 12.50 21.50)">1</text>
	<text transform="matrix(1 0 0 1 15.75 39.13)">2</text>
	<text transform="matrix(1 0 0 1 24.49 29.98)">3</text>
	<text transform="matrix(1 0 0 1 28.99 42.50)">4</text>
	<text transform="matrix(1 0 0 1 12.75 67.63)">5</text>
	<text transform="matrix(1 0 0 1 22.50 56.50)">6</text>
	<text transform="matrix(1 0 0 1 32.50 65.50)">7</text>
	<text transform="matrix(1 0 0 1 25.50 68.50)">8</text>
	<text transform="matrix(1 0 0 1 26.50 83.50)">9</text>
	<text transform="matrix(1 0 0 1 63.94 20.50)">10</text>
	<text transform="matrix(1 0 0 1 77.50 14.50)">11</text>
</g>
</svg>
