<?xml version="1.0" encoding="UTF-8"?>
<!--
Copyright (C) 2009/2010/2011 Ulrich Apel.
This work is distributed under the conditions of the Creative Commons 
Attribution-Share Alike 3.0 Licence. This means you are free:
* to Share - to copy, distribute and transmit the work
* to Remix - to adapt the work

Under the following conditions:
* Attribution. You must attribute the work by stating your use of KanjiVG in
  your own copyright header and linking to KanjiVG's website
  (http://kanjivg.tagaini.net)
* Share Alike. If you alter, transform, or build upon this work, you may
  distribute the resulting work only under the same or similar license to this
  one.

See http://creativecommons.org/licenses/by-sa/3.0/ for more details.
-->
<!DOCTYPE svg PUBLIC "-//W3C//DTD SVG 1.0//EN" "http://www.w3.org/TR/2001/REC-SVG-20010904/DTD/svg10.dtd" [
<!ATTLIST g
xmlns:kvg CDATA #FIXED "http://kanjivg.tagaini.net"
kvg:element CDATA #IMPLIED
kvg:variant CDATA #IMPLIED
kvg:partial CDATA #IMPLIED
kvg:original CDATA #IMPLIED
kvg:part CDATA #IMPLIED
kvg:number CDATA #IMPLIED
kvg:tradForm CDATA #IMPLIED
kvg:radicalForm CDATA #IMPLIED
kvg:position CDATA #IMPLIED
kvg:radical CDATA #IMPLIED
kvg:phon CDATA #IMPLIED >
<!ATTLIST path
xmlns:kvg CDATA #FIXED "http://kanjivg.tagaini.net"
kvg:type CDATA #IMPLIED >
]>
<svg xmlns="http://www.w3.org/2000/svg" width="109" height="109" viewBox="0 0 109 109">
<g id="kvg:StrokePaths_05270" style="fill:none;stroke:#000000;stroke-width:3;stroke-linecap:round;stroke-linejoin:round;">
<g id="kvg:05270" kvg:element="剰">
	<g id="kvg:05270-g1" kvg:element="乗" kvg:variant="true" kvg:position="left" kvg:phon="乗">
		<g id="kvg:05270-g2" kvg:element="千" kvg:part="1">
			<g id="kvg:05270-g3" kvg:element="丿">
				<path id="kvg:05270-s1" kvg:type="㇒" d="M46.01,12.39c0,0.73-0.64,1.32-1.26,1.79c-2.81,2.14-10.42,5.25-23.05,8.53"/>
			</g>
			<g id="kvg:05270-g4" kvg:element="十" kvg:part="1">
				<path id="kvg:05270-s2" kvg:type="㇐" d="M14.59,33.2c3.16,0.55,5.85,0.29,8.19-0.09c9.71-1.6,18.34-2.73,29.22-3.95c2.82-0.31,5.52-0.63,8.29,0.13"/>
			</g>
		</g>
		<path id="kvg:05270-s3" kvg:type="㇐" d="M12.25,47.2c3,0.55,5.54,0.23,8-0.09c9.56-1.25,24.21-2.94,36.76-4.08c2.64-0.24,5.01-0.39,7.61,0.26"/>
		<path id="kvg:05270-s4" kvg:type="㇑a" d="M23.42,39.63c1.1,1.1,1.21,2.12,1.4,3.84c0.73,6.51,1.18,9.78,1.9,15.03"/>
		<path id="kvg:05270-s5" kvg:type="㇑a" d="M54.37,35.13c0.5,0.99,0.75,1.87,0.54,3.26c-0.54,3.51-1.16,9.36-2.13,16.36"/>
		<g id="kvg:05270-g5" kvg:element="木" kvg:variant="true">
			<path id="kvg:05270-s6" kvg:type="㇐" d="M17.52,59.95c2.1,0.3,4.38,0.21,6.25-0.06c6.59-0.94,20.1-3.01,29.36-3.89c2.07-0.2,3.62-0.38,6.45,0.04"/>
			<g id="kvg:05270-g6" kvg:element="千">
				<g id="kvg:05270-g7" kvg:element="十" kvg:part="2">
					<path id="kvg:05270-s7" kvg:type="㇑" d="M39.07,21.88c1.27,1.27,1.29,2.24,1.29,4c0,4.46,0.04,45.95-0.06,63.11c-0.02,3.47-0.04,5.94-0.06,6.88"/>
				</g>
			</g>
			<path id="kvg:05270-s8" kvg:type="㇒" d="M39.2,59.25c0,1-0.46,2.41-1.14,3.34C31.5,71.5,22.25,80.25,12.64,87"/>
			<path id="kvg:05270-s9" kvg:type="㇔/㇏" d="M44.34,64.5C49,67.25,55.5,73.25,58.11,78.94"/>
		</g>
	</g>
	<g id="kvg:05270-g8" kvg:element="刂" kvg:variant="true" kvg:original="刀" kvg:position="right" kvg:radical="general">
		<path id="kvg:05270-s10" kvg:type="㇑" d="M73.02,25.58c1.08,1.08,1.26,2.42,1.26,4.27c0,10.77,0.14,22.92,0.04,30.4c-0.04,2.63-0.06,4.71-0.06,6"/>
		<path id="kvg:05270-s11" kvg:type="㇚" d="M91.02,12.83c1.39,1.39,1.51,2.92,1.51,5.02c0,14.56-0.01,66.16-0.01,71.12c0,13.14-6.21,2-7.71,0.75"/>
	</g>
</g>
</g>
<g id="kvg:StrokeNumbers_05270" style="font-size:8;fill:#808080">
	<text transform="matrix(1 0 0 1 36.50 12.13)">1</text>
	<text transform="matrix(1 0 0 1 7.50 34.50)">2</text>
	<text transform="matrix(1 0 0 1 5.50 49.50)">3</text>
	<text transform="matrix(1 0 0 1 15.50 43.50)">4</text>
	<text transform="matrix(1 0 0 1 44.50 39.50)">5</text>
	<text transform="matrix(1 0 0 1 10.50 61.50)">6</text>
	<text transform="matrix(1 0 0 1 31.50 28.50)">7</text>
	<text transform="matrix(1 0 0 1 26.50 69.50)">8</text>
	<text transform="matrix(1 0 0 1 51.50 67.50)">9</text>
	<text transform="matrix(1 0 0 1 64.50 22.50)">10</text>
	<text transform="matrix(1 0 0 1 79.50 14.50)">11</text>
</g>
</svg>
