<?xml version="1.0" encoding="UTF-8"?>
<!--
Copyright (C) 2009/2010/2011 Ulrich Apel.
This work is distributed under the conditions of the Creative Commons 
Attribution-Share Alike 3.0 Licence. This means you are free:
* to Share - to copy, distribute and transmit the work
* to Remix - to adapt the work

Under the following conditions:
* Attribution. You must attribute the work by stating your use of KanjiVG in
  your own copyright header and linking to KanjiVG's website
  (http://kanjivg.tagaini.net)
* Share Alike. If you alter, transform, or build upon this work, you may
  distribute the resulting work only under the same or similar license to this
  one.

See http://creativecommons.org/licenses/by-sa/3.0/ for more details.
-->
<!DOCTYPE svg PUBLIC "-//W3C//DTD SVG 1.0//EN" "http://www.w3.org/TR/2001/REC-SVG-20010904/DTD/svg10.dtd" [
<!ATTLIST g
xmlns:kvg CDATA #FIXED "http://kanjivg.tagaini.net"
kvg:element CDATA #IMPLIED
kvg:variant CDATA #IMPLIED
kvg:partial CDATA #IMPLIED
kvg:original CDATA #IMPLIED
kvg:part CDATA #IMPLIED
kvg:number CDATA #IMPLIED
kvg:tradForm CDATA #IMPLIED
kvg:radicalForm CDATA #IMPLIED
kvg:position CDATA #IMPLIED
kvg:radical CDATA #IMPLIED
kvg:phon CDATA #IMPLIED >
<!ATTLIST path
xmlns:kvg CDATA #FIXED "http://kanjivg.tagaini.net"
kvg:type CDATA #IMPLIED >
]>
<svg xmlns="http://www.w3.org/2000/svg" width="109" height="109" viewBox="0 0 109 109">
<g id="kvg:StrokePaths_052dd-Kaisho" style="fill:none;stroke:#000000;stroke-width:3;stroke-linecap:round;stroke-linejoin:round;">
<g id="kvg:052dd-Kaisho" kvg:element="勝">
	<g id="kvg:052dd-Kaisho-g1" kvg:element="月" kvg:variant="true" kvg:original="肉" kvg:position="left" kvg:radical="nelson">
		<path id="kvg:052dd-Kaisho-s1" kvg:type="㇒" d="M15.98,21.3c0.45,0.99,0.75,1.96,0.9,2.92s0.21,25.47,0.15,27.59C16.73,61.95,13,87,8.25,92.35"/>
		<path id="kvg:052dd-Kaisho-s2" kvg:type="㇆a" d="M17.78,22.42c1.81-0.06,14.39-2.44,15.74-2.57c2.41-0.24,3.31,3.39,3.01,4.78c-0.29,1.34-0.45,43.03-0.45,62.16c0,11.71-6.58,2.21-8.12,0.63"/>
		<path id="kvg:052dd-Kaisho-s3" kvg:type="㇐a" d="M17.78,40.12c3.13-0.41,5.25-0.9,8.38-1.31c0.77-0.1,1.54-0.2,2.3-0.29"/>
		<path id="kvg:052dd-Kaisho-s4" kvg:type="㇐a" d="M18.24,56.33c2.65-0.13,5.29-0.35,7.93-0.56c0.72-0.06,1.46-0.12,2.22-0.18"/>
	</g>
	<g id="kvg:052dd-Kaisho-g2" kvg:element="劵" kvg:variant="true" kvg:position="right">
		<path id="kvg:052dd-Kaisho-s5" kvg:type="㇔" d="M49.27,19.33c2.75,1.92,7.11,7.9,7.79,10.88"/>
		<path id="kvg:052dd-Kaisho-s6" kvg:type="㇒" d="M85.03,17.14c0.03,0.32,0.05,0.83-0.05,1.28c-0.61,2.71-4.12,8.65-8.92,12.29"/>
		<g id="kvg:052dd-Kaisho-g3" kvg:element="二">
			<path id="kvg:052dd-Kaisho-s7" kvg:type="㇐" d="M48.5,37.39c0.94,0.38,2.66,0.49,3.6,0.38c5.98-0.66,19.65-2.52,26.61-2.88c1.56-0.08,2.5,0.18,3.29,0.37"/>
			<path id="kvg:052dd-Kaisho-s8" kvg:type="㇐" d="M42.5,50.14c0.94,0.38,2.66,0.49,3.6,0.38c5.98-0.66,35.82-4.83,41.61-4.38c1.56,0.12,2.5,0.18,3.29,0.37"/>
		</g>
		<g id="kvg:052dd-Kaisho-g4" kvg:element="人">
			<path id="kvg:052dd-Kaisho-s9" kvg:type="㇒" d="M64.88,12.75c0.87,0.75,1.83,3.32,1.86,5.2C67,34,58.5,59.5,42.75,67.75"/>
			<path id="kvg:052dd-Kaisho-s10" kvg:type="㇏" d="M69.43,41.98c3.61,4.32,19.15,18.42,23.13,21.59c1.35,1.07,3.08,1.53,4.43,1.84"/>
		</g>
		<g id="kvg:052dd-Kaisho-g5" kvg:element="力" kvg:radical="tradit">
			<path id="kvg:052dd-Kaisho-s11" kvg:type="㇆" d="M51.11,71.51c0.85,0.35,1.92,0.31,2.66,0.19c6.05-0.96,22.97-4.53,26.33-4.88c2.18-0.23,2.79,1.04,2.67,2.66c-0.32,4.27-4.05,19.72-7.45,22.61c-0.96,0.82-1.7,2.31-3.64,1.16c-1.7-1.01-1.3-1-2.18-1.5"/>
			<path id="kvg:052dd-Kaisho-s12" kvg:type="㇒" d="M67.17,56.93c0.06,0.83,0.15,2.14-0.12,3.32c-1.99,8.77-6.79,27-20.72,34.29"/>
		</g>
	</g>
</g>
</g>
<g id="kvg:StrokeNumbers_052dd-Kaisho" style="font-size:8;fill:#808080">
	<text transform="matrix(1 0 0 1 9.50 30.50)">1</text>
	<text transform="matrix(1 0 0 1 18.50 19.50)">2</text>
	<text transform="matrix(1 0 0 1 20.50 35.24)">3</text>
	<text transform="matrix(1 0 0 1 20.25 52.63)">4</text>
	<text transform="matrix(1 0 0 1 43.50 16.50)">5</text>
	<text transform="matrix(1 0 0 1 76.50 15.50)">6</text>
	<text transform="matrix(1 0 0 1 42.50 37.50)">7</text>
	<text transform="matrix(1 0 0 1 41.25 47.50)">8</text>
	<text transform="matrix(1 0 0 1 57.50 12.50)">9</text>
	<text transform="matrix(1 0 0 1 74.50 43.63)">10</text>
	<text transform="matrix(1 0 0 1 42.75 77.50)">11</text>
	<text transform="matrix(1 0 0 1 57.50 62.50)">12</text>
</g>
</svg>
