<?xml version="1.0" encoding="UTF-8"?>
<!--
Copyright (C) 2009/2010/2011 Ulrich Apel.
This work is distributed under the conditions of the Creative Commons 
Attribution-Share Alike 3.0 Licence. This means you are free:
* to Share - to copy, distribute and transmit the work
* to Remix - to adapt the work

Under the following conditions:
* Attribution. You must attribute the work by stating your use of KanjiVG in
  your own copyright header and linking to KanjiVG's website
  (http://kanjivg.tagaini.net)
* Share Alike. If you alter, transform, or build upon this work, you may
  distribute the resulting work only under the same or similar license to this
  one.

See http://creativecommons.org/licenses/by-sa/3.0/ for more details.
-->
<!DOCTYPE svg PUBLIC "-//W3C//DTD SVG 1.0//EN" "http://www.w3.org/TR/2001/REC-SVG-20010904/DTD/svg10.dtd" [
<!ATTLIST g
xmlns:kvg CDATA #FIXED "http://kanjivg.tagaini.net"
kvg:element CDATA #IMPLIED
kvg:variant CDATA #IMPLIED
kvg:partial CDATA #IMPLIED
kvg:original CDATA #IMPLIED
kvg:part CDATA #IMPLIED
kvg:number CDATA #IMPLIED
kvg:tradForm CDATA #IMPLIED
kvg:radicalForm CDATA #IMPLIED
kvg:position CDATA #IMPLIED
kvg:radical CDATA #IMPLIED
kvg:phon CDATA #IMPLIED >
<!ATTLIST path
xmlns:kvg CDATA #FIXED "http://kanjivg.tagaini.net"
kvg:type CDATA #IMPLIED >
]>
<svg xmlns="http://www.w3.org/2000/svg" width="109" height="109" viewBox="0 0 109 109">
<g id="kvg:StrokePaths_0535a" style="fill:none;stroke:#000000;stroke-width:3;stroke-linecap:round;stroke-linejoin:round;">
<g id="kvg:0535a" kvg:element="博">
	<g id="kvg:0535a-g1" kvg:element="十" kvg:position="left" kvg:radical="general">
		<path id="kvg:0535a-s1" kvg:type="㇐" d="M10,43.29c1.54,0.63,3.66,0.29,5.26,0.13c5.98-0.59,15.74-2.58,20.44-3.6c1.19-0.26,2.44-0.36,3.05-0.21"/>
		<path id="kvg:0535a-s2" kvg:type="㇑" d="M24.68,17.38c1.28,1.28,1.76,3.12,1.76,5.98c0,6.1-0.18,48.56-0.24,66.51c-0.01,3.07-0.01,5.42-0.01,6.76"/>
	</g>
	<g id="kvg:0535a-g2" kvg:element="尃" kvg:position="right" kvg:phon="尃">
		<g id="kvg:0535a-g3" kvg:element="甫" kvg:variant="true" kvg:position="top">
			<path id="kvg:0535a-s3" kvg:type="㇐" d="M41.75,25.89c2.16,0.88,4.8,0.25,7-0.01c7.72-0.91,22.97-3.02,30.64-3.58c2.14-0.16,4.26-0.3,6.36,0.21"/>
			<g id="kvg:0535a-g4" kvg:element="用" kvg:variant="true">
				<path id="kvg:0535a-s4" kvg:type="㇑" d="M45.77,35.81c0.96,0.96,1.25,1.81,1.46,3.13c0.28,1.82,1.14,12.97,1.61,19.44c0.19,2.66,0.32,4.53,0.32,4.64"/>
				<path id="kvg:0535a-s5" kvg:type="㇕a" d="M48.02,37.32c5.33-0.81,25.21-3.72,32.35-4.61c4.15-0.52,5.77,1.65,5.34,4.06c-0.58,3.33-1.57,10.25-2.82,18.01c-0.21,1.3-0.42,2.62-0.65,3.95"/>
				<path id="kvg:0535a-s6" kvg:type="㇐a" d="M49.25,47.97c5.13-0.47,26-3.22,34.23-3.8"/>
				<path id="kvg:0535a-s7" kvg:type="㇐a" d="M50.08,59.67c8.92-1.17,22.36-2.79,31.63-3.62"/>
				<path id="kvg:0535a-s8" kvg:type="㇑a" d="M63.62,11c1.13,1.13,1.71,2.5,1.71,4c0,2.75,0.03,35.12,0.03,41.75"/>
			</g>
			<g id="kvg:0535a-g5" kvg:element="丶">
				<path id="kvg:0535a-s9" kvg:type="㇔" d="M84.62,12.25c3.57,1.85,9.23,7.62,10.12,10.5"/>
			</g>
		</g>
		<g id="kvg:0535a-g6" kvg:element="寸" kvg:position="bottom">
			<path id="kvg:0535a-s10" kvg:type="㇐" d="M36.38,72.68c3,0.69,5.25,0.44,8.22,0.12c14.06-1.55,31.78-3.67,45.9-4.43c3.56-0.19,5.72,0.04,7.5,0.35"/>
			<path id="kvg:0535a-s11" kvg:type="㇚" d="M77.2,61.83c0.98,0.98,1.55,2.79,1.55,4.28c0,14.89-0.05,14.14-0.05,25.51c0,10.62-4.32,3.37-6.52,0.94"/>
			<path id="kvg:0535a-s12" kvg:type="㇔" d="M52.12,79.38c2.06,1.81,5.32,7.45,5.83,10.27"/>
		</g>
	</g>
</g>
</g>
<g id="kvg:StrokeNumbers_0535a" style="font-size:8;fill:#808080">
	<text transform="matrix(1 0 0 1 3.49 45.50)">1</text>
	<text transform="matrix(1 0 0 1 15.75 18.50)">2</text>
	<text transform="matrix(1 0 0 1 42.50 23.50)">3</text>
	<text transform="matrix(1 0 0 1 40.50 44.50)">4</text>
	<text transform="matrix(1 0 0 1 48.75 34.50)">5</text>
	<text transform="matrix(1 0 0 1 52.50 45.13)">6</text>
	<text transform="matrix(1 0 0 1 52.50 57.50)">7</text>
	<text transform="matrix(1 0 0 1 54.50 10.50)">8</text>
	<text transform="matrix(1 0 0 1 78.50 10.63)">9</text>
	<text transform="matrix(1 0 0 1 36.75 70.63)">10</text>
	<text transform="matrix(1 0 0 1 66.94 66.88)">11</text>
	<text transform="matrix(1 0 0 1 42.50 83.50)">12</text>
</g>
</svg>
