<?xml version="1.0" encoding="UTF-8"?>
<!--
Copyright (C) 2009/2010/2011 Ulrich Apel.
This work is distributed under the conditions of the Creative Commons 
Attribution-Share Alike 3.0 Licence. This means you are free:
* to Share - to copy, distribute and transmit the work
* to Remix - to adapt the work

Under the following conditions:
* Attribution. You must attribute the work by stating your use of KanjiVG in
  your own copyright header and linking to KanjiVG's website
  (http://kanjivg.tagaini.net)
* Share Alike. If you alter, transform, or build upon this work, you may
  distribute the resulting work only under the same or similar license to this
  one.

See http://creativecommons.org/licenses/by-sa/3.0/ for more details.
-->
<!DOCTYPE svg PUBLIC "-//W3C//DTD SVG 1.0//EN" "http://www.w3.org/TR/2001/REC-SVG-20010904/DTD/svg10.dtd" [
<!ATTLIST g
xmlns:kvg CDATA #FIXED "http://kanjivg.tagaini.net"
kvg:element CDATA #IMPLIED
kvg:variant CDATA #IMPLIED
kvg:partial CDATA #IMPLIED
kvg:original CDATA #IMPLIED
kvg:part CDATA #IMPLIED
kvg:number CDATA #IMPLIED
kvg:tradForm CDATA #IMPLIED
kvg:radicalForm CDATA #IMPLIED
kvg:position CDATA #IMPLIED
kvg:radical CDATA #IMPLIED
kvg:phon CDATA #IMPLIED >
<!ATTLIST path
xmlns:kvg CDATA #FIXED "http://kanjivg.tagaini.net"
kvg:type CDATA #IMPLIED >
]>
<svg xmlns="http://www.w3.org/2000/svg" width="109" height="109" viewBox="0 0 109 109">
<g id="kvg:StrokePaths_05384" style="fill:none;stroke:#000000;stroke-width:3;stroke-linecap:round;stroke-linejoin:round;">
<g id="kvg:05384" kvg:element="厄">
	<g id="kvg:05384-g1" kvg:element="厂" kvg:position="tare" kvg:radical="general">
		<path id="kvg:05384-s1" kvg:type="㇐" d="M24.44,19.61c2.71,1.06,6.02,0.46,8.81,0.22c13.57-1.21,27.63-2.95,43.5-4.2c2.89-0.23,5.78-0.24,8.63,0.43"/>
		<path id="kvg:05384-s2" kvg:type="㇒" d="M27.96,21.04c0.81,0.81,0.99,2.33,0.89,3.96c-1.23,21.62-3.48,47.62-18.29,62.46"/>
	</g>
	<g id="kvg:05384-g2" kvg:element="卩">
		<path id="kvg:05384-s3" kvg:type="㇆" d="M41.25,39.87c2.22,0.85,4.84,0.74,7.14,0.39c8.99-1.38,19.11-3.13,24.66-3.8c3.74-0.45,5.74,1.24,5.45,4.04c-0.62,5.89-3,17.01-5.76,23.94c-2.33,5.86-5.49,2.32-7.38,0.4"/>
		<path id="kvg:05384-s4" kvg:type="㇟/㇑" d="M42.99,40.87c0.76,0.76,0.97,2,0.97,3.98c0,11.99-0.09,22.75-0.09,30.9c0,14.62,2.62,17.5,22.08,17.5c19.79,0,23.68-2.25,23.68-13.36"/>
	</g>
</g>
</g>
<g id="kvg:StrokeNumbers_05384" style="font-size:8;fill:#808080">
	<text transform="matrix(1 0 0 1 27.25 16.25)">1</text>
	<text transform="matrix(1 0 0 1 20.25 29.25)">2</text>
	<text transform="matrix(1 0 0 1 48.25 37.25)">3</text>
	<text transform="matrix(1 0 0 1 36.25 45.25)">4</text>
</g>
</svg>
