<?xml version="1.0" encoding="UTF-8"?>
<!--
Copyright (C) 2009/2010/2011 Ulrich Apel.
This work is distributed under the conditions of the Creative Commons 
Attribution-Share Alike 3.0 Licence. This means you are free:
* to Share - to copy, distribute and transmit the work
* to Remix - to adapt the work

Under the following conditions:
* Attribution. You must attribute the work by stating your use of KanjiVG in
  your own copyright header and linking to KanjiVG's website
  (http://kanjivg.tagaini.net)
* Share Alike. If you alter, transform, or build upon this work, you may
  distribute the resulting work only under the same or similar license to this
  one.

See http://creativecommons.org/licenses/by-sa/3.0/ for more details.
-->
<!DOCTYPE svg PUBLIC "-//W3C//DTD SVG 1.0//EN" "http://www.w3.org/TR/2001/REC-SVG-20010904/DTD/svg10.dtd" [
<!ATTLIST g
xmlns:kvg CDATA #FIXED "http://kanjivg.tagaini.net"
kvg:element CDATA #IMPLIED
kvg:variant CDATA #IMPLIED
kvg:partial CDATA #IMPLIED
kvg:original CDATA #IMPLIED
kvg:part CDATA #IMPLIED
kvg:number CDATA #IMPLIED
kvg:tradForm CDATA #IMPLIED
kvg:radicalForm CDATA #IMPLIED
kvg:position CDATA #IMPLIED
kvg:radical CDATA #IMPLIED
kvg:phon CDATA #IMPLIED >
<!ATTLIST path
xmlns:kvg CDATA #FIXED "http://kanjivg.tagaini.net"
kvg:type CDATA #IMPLIED >
]>
<svg xmlns="http://www.w3.org/2000/svg" width="109" height="109" viewBox="0 0 109 109">
<g id="kvg:StrokePaths_053a9-Kaisho" style="fill:none;stroke:#000000;stroke-width:3;stroke-linecap:round;stroke-linejoin:round;">
<g id="kvg:053a9-Kaisho" kvg:element="厩">
	<g id="kvg:053a9-Kaisho-g1" kvg:element="厂" kvg:position="tare" kvg:radical="general">
		<path id="kvg:053a9-Kaisho-s1" kvg:type="㇐" d="M20.13,18.73c1.52,0.54,4.3,0.63,5.82,0.54c15.8-0.91,44.3-3.52,59.61-4.23c2.53-0.12,4.05,0.26,5.31,0.53"/>
		<path id="kvg:053a9-Kaisho-s2" kvg:type="㇒" d="M23.5,19.5c0.5,1.5,0.51,1.9,0.43,4.36C23.25,43.5,21.5,74.75,10.81,91.47"/>
	</g>
	<g id="kvg:053a9-Kaisho-g2" kvg:element="既">
		<g id="kvg:053a9-Kaisho-g3" kvg:element="艮" kvg:variant="true" kvg:position="left">
			<path id="kvg:053a9-Kaisho-s3" kvg:type="㇕" d="M32.81,35.79c1.27-0.08,17.25-2.86,18.4-3.02c1.95-0.28,2.4,1.02,2.36,2.31c-0.19,6.84-2.33,23.72-2.8,27.25"/>
			<path id="kvg:053a9-Kaisho-s4" kvg:type="㇐" d="M33.04,48.18c2.28-0.33,7.05-1.19,9.33-1.53c0.88-0.13,1.78-0.27,2.68-0.4"/>
			<path id="kvg:053a9-Kaisho-s5" kvg:type="㇐" d="M32.96,61.89c3.5-0.38,12.75-1.56,17.71-2.11"/>
			<path id="kvg:053a9-Kaisho-s6" kvg:type="㇙" d="M31.25,34.69c0.72,0.4,1.16,1.81,1.3,2.62c0.14,0.81,0.3,49.49,0.14,51.49c-0.14,1.81,0.43,0.8-0.43,2.82c-0.87,2.01-0.87,2.42,0.87,1.01c1.47-1.19,14.62-11.84,18.53-14.2"/>
			<path id="kvg:053a9-Kaisho-s7" kvg:type="㇔" d="M46.59,71.1c2.9,2.48,7.24,9.19,8.48,14.9"/>
		</g>
		<g id="kvg:053a9-Kaisho-g4" kvg:element="旡" kvg:variant="true" kvg:original="无" kvg:position="right">
			<path id="kvg:053a9-Kaisho-s8" kvg:type="㇐" d="M60.54,32.18c0.85,0.31,2.42,0.42,3.27,0.31c4.46-0.57,17.05-2.31,23.34-2.59c1.42-0.06,2.28,0.15,2.99,0.31"/>
			<path id="kvg:053a9-Kaisho-s9" kvg:type="㇑" d="M56.84,56.7c1,0.12,2.15,0.18,3.36,0.06c7.43-0.72,22.34-2.87,31.71-2.93c1.71-0.01,2.35-0.05,4.11,0.2"/>
			<path id="kvg:053a9-Kaisho-s10" kvg:type="㇐" d="M64.92,34.27c0.65,0.39,0.9,2.05,0.86,2.85C65.5,42.75,65,47.75,64.73,56.28"/>
			<g id="kvg:053a9-Kaisho-g5" kvg:element="儿">
				<g id="kvg:053a9-Kaisho-g6" kvg:element="八" kvg:variant="true">
					<g id="kvg:053a9-Kaisho-g7" kvg:element="丿" kvg:position="left">
						<path id="kvg:053a9-Kaisho-s11" kvg:type="㇒" d="M78.57,33.59c0.36,0.86,0.65,2.53,0.45,4.63c-1.66,16.76-7.68,42.7-23.92,57.03"/>
					</g>
					<g id="kvg:053a9-Kaisho-g8" kvg:position="right">
						<path id="kvg:053a9-Kaisho-s12" kvg:type="㇟" d="M77.85,62.7c0.59,1.14,1.06,2.48,1.09,4.23c0.16,7.83-0.48,12.15-0.64,17.88c-0.27,10.04,2.12,11.02,10.25,11.02c7.33,0,9.32-1.7,9.32-8.72"/>
					</g>
				</g>
			</g>
		</g>
	</g>
</g>
</g>
<g id="kvg:StrokeNumbers_053a9-Kaisho" style="font-size:8;fill:#808080">
	<text transform="matrix(1 0 0 1 24.50 15.50)">1</text>
	<text transform="matrix(1 0 0 1 15.50 28.50)">2</text>
	<text transform="matrix(1 0 0 1 36.50 31.50)">3</text>
	<text transform="matrix(1 0 0 1 37.50 44.50)">4</text>
	<text transform="matrix(1 0 0 1 37.50 57.83)">5</text>
	<text transform="matrix(1 0 0 1 25.50 50.50)">6</text>
	<text transform="matrix(1 0 0 1 48.25 66.68)">7</text>
	<text transform="matrix(1 0 0 1 60.25 29.50)">8</text>
	<text transform="matrix(1 0 0 1 58.50 40.50)">9</text>
	<text transform="matrix(1 0 0 1 55.25 53.50)">10</text>
	<text transform="matrix(1 0 0 1 69.50 40.38)">11</text>
	<text transform="matrix(1 0 0 1 82.25 67.50)">12</text>
</g>
</svg>
