<?xml version="1.0" encoding="UTF-8"?>
<!--
Copyright (C) 2009/2010/2011 Ulrich Apel.
This work is distributed under the conditions of the Creative Commons 
Attribution-Share Alike 3.0 Licence. This means you are free:
* to Share - to copy, distribute and transmit the work
* to Remix - to adapt the work

Under the following conditions:
* Attribution. You must attribute the work by stating your use of KanjiVG in
  your own copyright header and linking to KanjiVG's website
  (http://kanjivg.tagaini.net)
* Share Alike. If you alter, transform, or build upon this work, you may
  distribute the resulting work only under the same or similar license to this
  one.

See http://creativecommons.org/licenses/by-sa/3.0/ for more details.
-->
<!DOCTYPE svg PUBLIC "-//W3C//DTD SVG 1.0//EN" "http://www.w3.org/TR/2001/REC-SVG-20010904/DTD/svg10.dtd" [
<!ATTLIST g
xmlns:kvg CDATA #FIXED "http://kanjivg.tagaini.net"
kvg:element CDATA #IMPLIED
kvg:variant CDATA #IMPLIED
kvg:partial CDATA #IMPLIED
kvg:original CDATA #IMPLIED
kvg:part CDATA #IMPLIED
kvg:number CDATA #IMPLIED
kvg:tradForm CDATA #IMPLIED
kvg:radicalForm CDATA #IMPLIED
kvg:position CDATA #IMPLIED
kvg:radical CDATA #IMPLIED
kvg:phon CDATA #IMPLIED >
<!ATTLIST path
xmlns:kvg CDATA #FIXED "http://kanjivg.tagaini.net"
kvg:type CDATA #IMPLIED >
]>
<svg xmlns="http://www.w3.org/2000/svg" width="109" height="109" viewBox="0 0 109 109">
<g id="kvg:StrokePaths_053ae-Kaisho" style="fill:none;stroke:#000000;stroke-width:3;stroke-linecap:round;stroke-linejoin:round;">
<g id="kvg:053ae-Kaisho" kvg:element="厮">
	<g id="kvg:053ae-Kaisho-g1" kvg:element="厂" kvg:position="tare" kvg:radical="general">
		<path id="kvg:053ae-Kaisho-s1" kvg:type="㇐" d="M19.63,18.73c1.52,0.54,4.3,0.63,5.82,0.54c15.8-0.91,45.3-3.52,60.61-4.23c2.53-0.12,4.05,0.26,5.31,0.53"/>
		<path id="kvg:053ae-Kaisho-s2" kvg:type="㇒" d="M23.5,19.5c0.5,1.5,0.51,1.9,0.43,4.36C23.25,43.5,21.5,74.75,10.81,91.47"/>
	</g>
	<g id="kvg:053ae-Kaisho-g2" kvg:element="斯">
		<g id="kvg:053ae-Kaisho-g3" kvg:element="其" kvg:position="left">
			<g id="kvg:053ae-Kaisho-g4" kvg:position="top">
				<g id="kvg:053ae-Kaisho-g5" kvg:element="甘">
					<g id="kvg:053ae-Kaisho-g6" kvg:element="廿" kvg:part="1">
						<g id="kvg:053ae-Kaisho-g7" kvg:element="十">
							<path id="kvg:053ae-Kaisho-s3" kvg:type="㇐" d="M27.21,38.92c1.23,0.15,3.29,0.85,3.88,0.79c5.32-0.64,18.79-2.47,25.32-3.01c0.96-0.08,2.42,0.15,2.9,0.31"/>
							<path id="kvg:053ae-Kaisho-s4" kvg:type="㇑a" d="M34.7,27.85c0.67,0.45,1.07,2.01,1.2,2.91c0.13,0.89,0,37.94-0.13,43.52"/>
						</g>
						<path id="kvg:053ae-Kaisho-s5" kvg:type="㇑a" d="M50.79,25.25c0.67,0.45,1.07,2.01,1.2,2.91c0.13,0.89,0,39.68-0.13,45.27"/>
					</g>
					<path id="kvg:053ae-Kaisho-s6" kvg:type="㇐a" d="M36.66,51.1c2.52-0.23,4.54-0.64,7.04-1c0.79-0.11,1.57-0.22,2.33-0.33"/>
					<g id="kvg:053ae-Kaisho-g8" kvg:element="廿" kvg:part="2">
						<path id="kvg:053ae-Kaisho-s7" kvg:type="㇐a" d="M36.51,62.72c2.45-0.2,4.88-0.58,7.31-0.91c0.75-0.1,1.5-0.21,2.23-0.31"/>
					</g>
				</g>
				<path id="kvg:053ae-Kaisho-s8" kvg:type="㇐" d="M22.13,76.19c1.19,0.06,2.37,0.09,3.22,0c6.46-0.64,22.58-2.28,31.85-3.14c1.4-0.13,2.24,0.23,2.94,0.46"/>
			</g>
			<g id="kvg:053ae-Kaisho-g9" kvg:element="八" kvg:position="bottom">
				<path id="kvg:053ae-Kaisho-s9" kvg:type="㇒" d="M36.21,81.02c0.04,0.38,0.09,0.97-0.08,1.52c-1,3.2-6.74,10.21-14.59,14.51"/>
				<path id="kvg:053ae-Kaisho-s10" kvg:type="㇏" d="M48.1,80.74c2.62,1.82,6.77,7.47,7.43,10.3"/>
			</g>
		</g>
		<g id="kvg:053ae-Kaisho-g10" kvg:element="斤" kvg:position="right">
			<path id="kvg:053ae-Kaisho-s11" kvg:type="㇒" d="M87.3,24.37c0.05,0.36,0.2,1.05-0.09,1.43c-3.92,5.22-8.93,9.18-17.19,13.67"/>
			<path id="kvg:053ae-Kaisho-s12" kvg:type="㇒" d="M66.68,39.35c1.02,1.62,1,3.17,1,4.93c0,22.47-1.82,41.5-9.24,49.66"/>
			<path id="kvg:053ae-Kaisho-s13" kvg:type="㇐" d="M68.81,50.34c0.3,0.16,1.48,0.27,2.28,0.09c4.4-1,17.71-2.49,22.71-2.99c0.8-0.08,2.19-0.16,2.7,0"/>
			<path id="kvg:053ae-Kaisho-s14" kvg:type="㇑" d="M83.06,51.01c0.65,0.5,1.04,2.25,1.17,3.25s0,38.74-0.13,44.99"/>
		</g>
	</g>
</g>
</g>
<g id="kvg:StrokeNumbers_053ae-Kaisho" style="font-size:8;fill:#808080">
	<text transform="matrix(1 0 0 1 18.75 15.13)">1</text>
	<text transform="matrix(1 0 0 1 15.50 29.05)">2</text>
	<text transform="matrix(1 0 0 1 26.50 35.50)">3</text>
	<text transform="matrix(1 0 0 1 35.50 26.90)">4</text>
	<text transform="matrix(1 0 0 1 44.50 30.50)">5</text>
	<text transform="matrix(1 0 0 1 40.50 47.50)">6</text>
	<text transform="matrix(1 0 0 1 40.50 59.68)">7</text>
	<text transform="matrix(1 0 0 1 23.75 73.50)">8</text>
	<text transform="matrix(1 0 0 1 27.50 85.50)">9</text>
	<text transform="matrix(1 0 0 1 40.75 87.45)">10</text>
	<text transform="matrix(1 0 0 1 76.50 25.38)">11</text>
	<text transform="matrix(1 0 0 1 57.50 47.50)">12</text>
	<text transform="matrix(1 0 0 1 72.50 46.50)">13</text>
	<text transform="matrix(1 0 0 1 73.50 59.50)">14</text>
</g>
</svg>
