<?xml version="1.0" encoding="UTF-8"?>
<!--
Copyright (C) 2009/2010/2011 Ulrich Apel.
This work is distributed under the conditions of the Creative Commons
Attribution-Share Alike 3.0 Licence. This means you are free:
* to Share - to copy, distribute and transmit the work
* to Remix - to adapt the work

Under the following conditions:
* Attribution. You must attribute the work by stating your use of KanjiVG in
  your own copyright header and linking to KanjiVG's website
  (http://kanjivg.tagaini.net)
* Share Alike. If you alter, transform, or build upon this work, you may
  distribute the resulting work only under the same or similar license to this
  one.

See http://creativecommons.org/licenses/by-sa/3.0/ for more details.
-->
<!DOCTYPE svg PUBLIC "-//W3C//DTD SVG 1.0//EN" "http://www.w3.org/TR/2001/REC-SVG-20010904/DTD/svg10.dtd" [
<!ATTLIST g
xmlns:kvg CDATA #FIXED "http://kanjivg.tagaini.net"
kvg:element CDATA #IMPLIED
kvg:variant CDATA #IMPLIED
kvg:partial CDATA #IMPLIED
kvg:original CDATA #IMPLIED
kvg:part CDATA #IMPLIED
kvg:number CDATA #IMPLIED
kvg:tradForm CDATA #IMPLIED
kvg:radicalForm CDATA #IMPLIED
kvg:position CDATA #IMPLIED
kvg:radical CDATA #IMPLIED
kvg:phon CDATA #IMPLIED >
<!ATTLIST path
xmlns:kvg CDATA #FIXED "http://kanjivg.tagaini.net"
kvg:type CDATA #IMPLIED >
]>
<svg xmlns="http://www.w3.org/2000/svg" width="109" height="109" viewBox="0 0 109 109" xmlns:kvg="https://kanjivg.tagaini.net/">
<g id="kvg:StrokePaths_053b2" style="fill:none;stroke:#000000;stroke-width:3;stroke-linecap:round;stroke-linejoin:round;">
<g id="kvg:053b2" kvg:element="厲">
	<g id="kvg:053b2-g1" kvg:element="厂" kvg:position="tare" kvg:radical="general">
		<path id="kvg:053b2-s1" kvg:type="㇐" d="M24.47,16.15c1.78,0.61,5.04,0.72,6.82,0.61c18.5-1.03,41.22-3.43,57.67-4.24c2.95-0.15,4.74,0.3,6.23,0.6"/>
		<path id="kvg:053b2-s2" kvg:type="㇒" d="M32.74,17.03c-1.57,33.78-4.53,54.58-20.34,74.34"/>
	</g>
	<g id="kvg:053b2-g2" kvg:element="萬" kvg:position="tarec">
		<g id="kvg:053b2-g3" kvg:element="艹" kvg:variant="true" kvg:original="艸" kvg:position="top">
			<path id="kvg:053b2-s3" kvg:type="㇐" d="M38.52,30.16c1.41,0.49,3.05,0.49,4.48,0.49c9.04,0,34.73-4.26,45.69-4.22c2.36,0.01,3.77,0.24,4.95,0.48"/>
			<path id="kvg:053b2-s4" kvg:type="㇑a" d="M51.27,21.22c1.49,1.34,1.97,1.74,2.14,2.57c1.49,7.69,1.93,10.7,2.34,13.49"/>
			<path id="kvg:053b2-s5" kvg:type="㇑a" d="M74.81,19.58c0.96,0.93,1.59,2.35,1.28,3.72c-0.96,4.19-1.61,7.77-2.99,13.13"/>
		</g>
		<g id="kvg:053b2-g4" kvg:element="禺" kvg:position="bottom">
			<g id="kvg:053b2-g5" kvg:element="日">
				<g id="kvg:053b2-g6" kvg:element="田" kvg:part="1" kvg:variant="true">
					<path id="kvg:053b2-s6" kvg:type="㇑" d="M42.01,40.81c0.32,0.35,0.34,0.59,0.5,1.02c1.45,3.6,4.29,12.84,5.14,19.52"/>
					<path id="kvg:053b2-s7" kvg:type="㇕" d="M43.53,41.65c11.46-0.73,34.2-3.91,42.77-4.53c3.15-0.23,3.85,1.57,3.6,3.79c-0.42,3.61-1.91,10.22-3.76,17.29"/>
					<path id="kvg:053b2-s8" kvg:type="㇐" d="M45.96,50.02c3.74-0.3,39.14-3.12,42.24-3.21"/>
					<path id="kvg:053b2-s9" kvg:type="㇐" d="M47.02,59.29c11.72-1.25,27.81-2.78,39.22-3.24"/>
				</g>
			</g>
			<g id="kvg:053b2-g7" kvg:element="禸">
				<g id="kvg:053b2-g8" kvg:element="冂">
					<path id="kvg:053b2-s10" kvg:type="㇑" d="M37,67.68c0.95,0.39,1.61,1.52,1.67,2.28c0.32,3.76,2.2,22.67,2.73,26.84"/>
					<path id="kvg:053b2-s11" kvg:type="㇆" d="M38.67,68.87c7.48-0.9,50.61-4.58,52.1-4.63c2.25-0.09,4.21,1.19,4.14,3.54c-0.19,6.22-3.56,19.25-5.97,24.9c-2.52,5.95-6.15,4.1-8.93,0.75"/>
				</g>
				<g id="kvg:053b2-g9" kvg:element="田" kvg:part="2" kvg:variant="true">
					<path id="kvg:053b2-s12" kvg:type="㇑" d="M64.21,42.06c0.48,0.68,1.25,1.35,1.25,2.59c0,5.44,0.21,33.72,0.21,35.39"/>
				</g>
				<path id="kvg:053b2-s13" kvg:type="㇐" d="M50.12,83.25c1.3,0.92,2.75,1.41,3.89,1.02c3.24-1.08,16.57-6.02,23.36-7.99"/>
				<path id="kvg:053b2-s14" kvg:type="㇔" d="M74.47,71.66c2.81,1.74,7.26,7.26,7.96,10.06"/>
			</g>
		</g>
	</g>
</g>
</g>
<g id="kvg:StrokeNumbers_053b2" style="font-size:8;fill:#808080">
	<text transform="matrix(1 0 0 1 25.95 12.48)">1</text>
	<text transform="matrix(1 0 0 1 19.53 27.24)">2</text>
	<text transform="matrix(1 0 0 1 37.19 27.24)">3</text>
	<text transform="matrix(1 0 0 1 58.06 22.70)">4</text>
	<text transform="matrix(1 0 0 1 82.15 21.57)">5</text>
	<text transform="matrix(1 0 0 1 35.58 52.22)">6</text>
	<text transform="matrix(1 0 0 1 43.61 38.60)">7</text>
	<text transform="matrix(1 0 0 1 50.03 48.36)">8</text>
	<text transform="matrix(1 0 0 1 51.64 56.80)">9</text>
	<text transform="matrix(1 0 0 1 25.95 77.20)">10</text>
	<text transform="matrix(1 0 0 1 46.02 66.28)">11</text>
	<text transform="matrix(1 0 0 1 69.30 46.55)">12</text>
	<text transform="matrix(1 0 0 1 45.22 80.61)">13</text>
	<text transform="matrix(1 0 0 1 80.02 74.56)">14</text>
</g>
</svg>
