<?xml version="1.0" encoding="UTF-8"?>
<!--
Copyright (C) 2009/2010/2011 Ulrich Apel.
This work is distributed under the conditions of the Creative Commons 
Attribution-Share Alike 3.0 Licence. This means you are free:
* to Share - to copy, distribute and transmit the work
* to Remix - to adapt the work

Under the following conditions:
* Attribution. You must attribute the work by stating your use of KanjiVG in
  your own copyright header and linking to KanjiVG's website
  (http://kanjivg.tagaini.net)
* Share Alike. If you alter, transform, or build upon this work, you may
  distribute the resulting work only under the same or similar license to this
  one.

See http://creativecommons.org/licenses/by-sa/3.0/ for more details.
-->
<!DOCTYPE svg PUBLIC "-//W3C//DTD SVG 1.0//EN" "http://www.w3.org/TR/2001/REC-SVG-20010904/DTD/svg10.dtd" [
<!ATTLIST g
xmlns:kvg CDATA #FIXED "http://kanjivg.tagaini.net"
kvg:element CDATA #IMPLIED
kvg:variant CDATA #IMPLIED
kvg:partial CDATA #IMPLIED
kvg:original CDATA #IMPLIED
kvg:part CDATA #IMPLIED
kvg:number CDATA #IMPLIED
kvg:tradForm CDATA #IMPLIED
kvg:radicalForm CDATA #IMPLIED
kvg:position CDATA #IMPLIED
kvg:radical CDATA #IMPLIED
kvg:phon CDATA #IMPLIED >
<!ATTLIST path
xmlns:kvg CDATA #FIXED "http://kanjivg.tagaini.net"
kvg:type CDATA #IMPLIED >
]>
<svg xmlns="http://www.w3.org/2000/svg" width="109" height="109" viewBox="0 0 109 109">
<g id="kvg:StrokePaths_053ec" style="fill:none;stroke:#000000;stroke-width:3;stroke-linecap:round;stroke-linejoin:round;">
<g id="kvg:053ec" kvg:element="召">
	<g id="kvg:053ec-g1" kvg:element="刀" kvg:position="top" kvg:radical="nelson" kvg:phon="刀">
		<path id="kvg:053ec-s1" kvg:type="㇆" d="M29.54,19.67c2.65,1.34,6.17,0.71,8.95,0.44c12.65-1.2,31.96-3.5,38.25-3.9c4.48-0.28,6,2.03,5.25,6.03c-1.2,6.38-6.25,19.5-13.69,28.24c-6.02,7.08-9.46-0.74-10.45-1.72"/>
		<path id="kvg:053ec-s2" kvg:type="㇒" d="M52.21,21.89c0.08,0.81,0.26,2.12-0.17,3.26C47.62,37,39.88,47.88,23.17,57.85"/>
	</g>
	<g id="kvg:053ec-g2" kvg:element="口" kvg:position="bottom" kvg:radical="tradit">
		<path id="kvg:053ec-s3" kvg:type="㇑" d="M27.89,64.17c0.97,0.75,1.52,1.99,1.65,3.2c1.18,4.73,2.17,14.58,2.98,22.13c0.24,2.27,0.48,4.34,0.72,6"/>
		<path id="kvg:053ec-s4" kvg:type="㇕b" d="M30.87,66.47c12.38-1.34,33.18-2.86,42.09-3.44c2.95-0.19,7.04,0.72,5.53,5.27c-1.67,5.05-3.79,13.8-5.6,20.94"/>
		<path id="kvg:053ec-s5" kvg:type="㇐b" d="M33.96,91.89c7.49-0.26,23.55-0.85,35.99-1.25c2.03-0.06,3.99-0.12,5.81-0.17"/>
	</g>
</g>
</g>
<g id="kvg:StrokeNumbers_053ec" style="font-size:8;fill:#808080">
	<text transform="matrix(1 0 0 1 23.25 19.63)">1</text>
	<text transform="matrix(1 0 0 1 41.50 30.50)">2</text>
	<text transform="matrix(1 0 0 1 22.50 74.50)">3</text>
	<text transform="matrix(1 0 0 1 32.25 62.50)">4</text>
	<text transform="matrix(1 0 0 1 37.50 87.05)">5</text>
</g>
</svg>
