<?xml version="1.0" encoding="UTF-8"?>
<!--
Copyright (C) 2009/2010/2011 Ulrich Apel.
This work is distributed under the conditions of the Creative Commons 
Attribution-Share Alike 3.0 Licence. This means you are free:
* to Share - to copy, distribute and transmit the work
* to Remix - to adapt the work

Under the following conditions:
* Attribution. You must attribute the work by stating your use of KanjiVG in
  your own copyright header and linking to KanjiVG's website
  (http://kanjivg.tagaini.net)
* Share Alike. If you alter, transform, or build upon this work, you may
  distribute the resulting work only under the same or similar license to this
  one.

See http://creativecommons.org/licenses/by-sa/3.0/ for more details.
-->
<!DOCTYPE svg PUBLIC "-//W3C//DTD SVG 1.0//EN" "http://www.w3.org/TR/2001/REC-SVG-20010904/DTD/svg10.dtd" [
<!ATTLIST g
xmlns:kvg CDATA #FIXED "http://kanjivg.tagaini.net"
kvg:element CDATA #IMPLIED
kvg:variant CDATA #IMPLIED
kvg:partial CDATA #IMPLIED
kvg:original CDATA #IMPLIED
kvg:part CDATA #IMPLIED
kvg:number CDATA #IMPLIED
kvg:tradForm CDATA #IMPLIED
kvg:radicalForm CDATA #IMPLIED
kvg:position CDATA #IMPLIED
kvg:radical CDATA #IMPLIED
kvg:phon CDATA #IMPLIED >
<!ATTLIST path
xmlns:kvg CDATA #FIXED "http://kanjivg.tagaini.net"
kvg:type CDATA #IMPLIED >
]>
<svg xmlns="http://www.w3.org/2000/svg" width="109" height="109" viewBox="0 0 109 109">
<g id="kvg:StrokePaths_0540a" style="fill:none;stroke:#000000;stroke-width:3;stroke-linecap:round;stroke-linejoin:round;">
<g id="kvg:0540a" kvg:element="吊">
	<g id="kvg:0540a-g1" kvg:element="口" kvg:position="top" kvg:radical="general">
		<path id="kvg:0540a-s1" kvg:type="㇑" d="M31,12.6c0.5,0.47,1.02,0.86,1.24,1.45c1.75,4.66,3.01,12.94,5.04,20.91"/>
		<path id="kvg:0540a-s2" kvg:type="㇕b" d="M32.14,13.71c11.36-0.96,36.17-2.03,42.55-2.69c2.33-0.24,3.73,2.43,3.4,3.85c-1.38,5.87-2.46,7.93-5.42,16.4"/>
		<path id="kvg:0540a-s3" kvg:type="㇐b" d="M37.29,33.38C44.77,32.63,66.5,32.25,76,31.5"/>
	</g>
	<g id="kvg:0540a-g2" kvg:element="巾" kvg:position="bottom">
		<path id="kvg:0540a-s4" kvg:type="㇑" d="M24.31,50.33c0.76,0.4,2.36,2.97,2.51,3.77c0.15,0.79,2.4,28.66,2.25,33.62"/>
		<path id="kvg:0540a-s5" kvg:type="㇆a" d="M26.5,51.95c4.75-0.28,52.79-4.14,56.34-4.31c4.16-0.2,5.06,3.5,4.91,5.31c-0.75,9.12-1.57,20.34-4,29.27c-1.75,6.43-6.25,0.89-8.25-1.33"/>
		<path id="kvg:0540a-s6" kvg:type="㇑" d="M52.81,35.38c0.76,0.4,2.36,2.97,2.51,3.77c0.15,0.79-0.1,55.77-0.25,60.73"/>
	</g>
</g>
</g>
<g id="kvg:StrokeNumbers_0540a" style="font-size:8;fill:#808080">
	<text transform="matrix(1 0 0 1 24.50 19.50)">1</text>
	<text transform="matrix(1 0 0 1 35.50 9.50)">2</text>
	<text transform="matrix(1 0 0 1 40.50 30.50)">3</text>
	<text transform="matrix(1 0 0 1 19.25 58.40)">4</text>
	<text transform="matrix(1 0 0 1 30.25 47.33)">5</text>
	<text transform="matrix(1 0 0 1 45.50 42.50)">6</text>
</g>
</svg>
