<?xml version="1.0" encoding="UTF-8"?>
<!--
Copyright (C) 2009/2010/2011 Ulrich Apel.
This work is distributed under the conditions of the Creative Commons 
Attribution-Share Alike 3.0 Licence. This means you are free:
* to Share - to copy, distribute and transmit the work
* to Remix - to adapt the work

Under the following conditions:
* Attribution. You must attribute the work by stating your use of KanjiVG in
  your own copyright header and linking to KanjiVG's website
  (http://kanjivg.tagaini.net)
* Share Alike. If you alter, transform, or build upon this work, you may
  distribute the resulting work only under the same or similar license to this
  one.

See http://creativecommons.org/licenses/by-sa/3.0/ for more details.
-->
<!DOCTYPE svg PUBLIC "-//W3C//DTD SVG 1.0//EN" "http://www.w3.org/TR/2001/REC-SVG-20010904/DTD/svg10.dtd" [
<!ATTLIST g
xmlns:kvg CDATA #FIXED "http://kanjivg.tagaini.net"
kvg:element CDATA #IMPLIED
kvg:variant CDATA #IMPLIED
kvg:partial CDATA #IMPLIED
kvg:original CDATA #IMPLIED
kvg:part CDATA #IMPLIED
kvg:number CDATA #IMPLIED
kvg:tradForm CDATA #IMPLIED
kvg:radicalForm CDATA #IMPLIED
kvg:position CDATA #IMPLIED
kvg:radical CDATA #IMPLIED
kvg:phon CDATA #IMPLIED >
<!ATTLIST path
xmlns:kvg CDATA #FIXED "http://kanjivg.tagaini.net"
kvg:type CDATA #IMPLIED >
]>
<svg xmlns="http://www.w3.org/2000/svg" width="109" height="109" viewBox="0 0 109 109">
<g id="kvg:StrokePaths_05410" style="fill:none;stroke:#000000;stroke-width:3;stroke-linecap:round;stroke-linejoin:round;">
<g id="kvg:05410" kvg:element="吐">
	<g id="kvg:05410-g1" kvg:element="口" kvg:position="left" kvg:radical="general">
		<path id="kvg:05410-s1" kvg:type="㇑" d="M13,38.81c0.75,1.04,1,1.77,1.25,3.06c0.87,4.5,1.67,12.81,2.46,20.13c0.27,2.48,0.51,4.87,0.71,7"/>
		<path id="kvg:05410-s2" kvg:type="㇕b" d="M14.84,40.02c9.08-1.74,15.14-2.67,19.45-3.25c3.34-0.45,4.62,0.41,4.09,3.87c-0.84,5.58-1.5,13.48-2.28,19.65"/>
		<path id="kvg:05410-s3" kvg:type="㇐b" d="M17.85,63.27c4-0.59,9.76-1.21,15.45-2c1.66-0.23,3.83-0.49,5.16-0.49"/>
	</g>
	<g id="kvg:05410-g2" kvg:element="土" kvg:position="right" kvg:phon="土">
		<path id="kvg:05410-s4" kvg:type="㇐" d="M46.85,48.92c2.15,0.46,3.78,0.58,5.4,0.4c9.42-1.01,20.76-2.85,29.62-3.48c1.99-0.14,4.02-0.39,5.96,0.2"/>
		<path id="kvg:05410-s5" kvg:type="㇑a" d="M64.67,17.62c0.86,0.85,1.27,2.27,1.27,4.14c0,12-0.07,47.13-0.07,62.75"/>
		<path id="kvg:05410-s6" kvg:type="㇐" d="M36.88,87.23c2.87,0.77,6.09,0.67,8.62,0.38c14.07-1.6,31.24-2.86,43.27-3.52c3.39-0.19,6.33-0.43,9.61,0.48"/>
	</g>
</g>
</g>
<g id="kvg:StrokeNumbers_05410" style="font-size:8;fill:#808080">
	<text transform="matrix(1 0 0 1 8.25 47.50)">1</text>
	<text transform="matrix(1 0 0 1 17.25 36.13)">2</text>
	<text transform="matrix(1 0 0 1 20.50 59.50)">3</text>
	<text transform="matrix(1 0 0 1 44.50 46.50)">4</text>
	<text transform="matrix(1 0 0 1 53.50 18.50)">5</text>
	<text transform="matrix(1 0 0 1 34.50 84.50)">6</text>
</g>
</svg>
