<?xml version="1.0" encoding="UTF-8"?>
<!--
Copyright (C) 2009/2010/2011 Ulrich Apel.
This work is distributed under the conditions of the Creative Commons 
Attribution-Share Alike 3.0 Licence. This means you are free:
* to Share - to copy, distribute and transmit the work
* to Remix - to adapt the work

Under the following conditions:
* Attribution. You must attribute the work by stating your use of KanjiVG in
  your own copyright header and linking to KanjiVG's website
  (http://kanjivg.tagaini.net)
* Share Alike. If you alter, transform, or build upon this work, you may
  distribute the resulting work only under the same or similar license to this
  one.

See http://creativecommons.org/licenses/by-sa/3.0/ for more details.
-->
<!DOCTYPE svg PUBLIC "-//W3C//DTD SVG 1.0//EN" "http://www.w3.org/TR/2001/REC-SVG-20010904/DTD/svg10.dtd" [
<!ATTLIST g
xmlns:kvg CDATA #FIXED "http://kanjivg.tagaini.net"
kvg:element CDATA #IMPLIED
kvg:variant CDATA #IMPLIED
kvg:partial CDATA #IMPLIED
kvg:original CDATA #IMPLIED
kvg:part CDATA #IMPLIED
kvg:number CDATA #IMPLIED
kvg:tradForm CDATA #IMPLIED
kvg:radicalForm CDATA #IMPLIED
kvg:position CDATA #IMPLIED
kvg:radical CDATA #IMPLIED
kvg:phon CDATA #IMPLIED >
<!ATTLIST path
xmlns:kvg CDATA #FIXED "http://kanjivg.tagaini.net"
kvg:type CDATA #IMPLIED >
]>
<svg xmlns="http://www.w3.org/2000/svg" width="109" height="109" viewBox="0 0 109 109">
<g id="kvg:StrokePaths_05411" style="fill:none;stroke:#000000;stroke-width:3;stroke-linecap:round;stroke-linejoin:round;">
<g id="kvg:05411" kvg:element="向">
	<g id="kvg:05411-g1" kvg:element="丿">
		<path id="kvg:05411-s1" kvg:type="㇒" d="M49.51,18.39c0.24,0.98,0.04,2.08-0.33,2.85C45.62,28.5,43,32.75,34.06,42.97"/>
	</g>
	<g id="kvg:05411-g2" kvg:element="冂">
		<g id="kvg:05411-g3" kvg:element="丨" kvg:radical="nelson">
			<path id="kvg:05411-s2" kvg:type="㇑" d="M18.75,42.5c1,1,1.66,2.28,1.78,3.64c0.41,4.91,1.18,24.14,1.58,36.73c0.06,1.78,0.1,3.42,0.14,4.87"/>
		</g>
		<path id="kvg:05411-s3" kvg:type="㇆a" d="M21.35,45.1c16.03-1.85,61.13-7.17,62.97-7.43c2.93-0.42,6.74,1.55,6.66,5.33c-0.22,9.76-3.67,33.44-6.49,42.28C81.12,95.75,78.62,90.12,76,86"/>
	</g>
	<g id="kvg:05411-g4" kvg:element="口" kvg:radical="tradit">
		<path id="kvg:05411-s4" kvg:type="㇑" d="M38.75,55.53c0.8,0.8,1.29,1.9,1.35,2.4c0.67,5.55,1.13,8.83,1.97,14.58c0.13,0.93,0.28,1.92,0.43,2.99"/>
		<path id="kvg:05411-s5" kvg:type="㇕b" d="M41.03,57.28c10.34-1.53,17.23-2.44,24.75-3.54c2.47-0.36,3.35,1.14,2.97,2.76c-1,4.35-2.25,7.5-3.33,13.38"/>
		<path id="kvg:05411-s6" kvg:type="㇐b" d="M43.52,73.26c5.61-0.5,12.98-1.38,21.6-2.24c1.16-0.12,2.32-0.09,3.46-0.11"/>
	</g>
</g>
</g>
<g id="kvg:StrokeNumbers_05411" style="font-size:8;fill:#808080">
	<text transform="matrix(1 0 0 1 40.50 17.50)">1</text>
	<text transform="matrix(1 0 0 1 12.75 52.50)">2</text>
	<text transform="matrix(1 0 0 1 23.50 41.50)">3</text>
	<text transform="matrix(1 0 0 1 33.50 64.63)">4</text>
	<text transform="matrix(1 0 0 1 42.50 53.50)">5</text>
	<text transform="matrix(1 0 0 1 46.50 69.13)">6</text>
</g>
</svg>
