<?xml version="1.0" encoding="UTF-8"?>
<!--
Copyright (C) 2009/2010/2011 Ulrich Apel.
This work is distributed under the conditions of the Creative Commons 
Attribution-Share Alike 3.0 Licence. This means you are free:
* to Share - to copy, distribute and transmit the work
* to Remix - to adapt the work

Under the following conditions:
* Attribution. You must attribute the work by stating your use of KanjiVG in
  your own copyright header and linking to KanjiVG's website
  (http://kanjivg.tagaini.net)
* Share Alike. If you alter, transform, or build upon this work, you may
  distribute the resulting work only under the same or similar license to this
  one.

See http://creativecommons.org/licenses/by-sa/3.0/ for more details.
-->
<!DOCTYPE svg PUBLIC "-//W3C//DTD SVG 1.0//EN" "http://www.w3.org/TR/2001/REC-SVG-20010904/DTD/svg10.dtd" [
<!ATTLIST g
xmlns:kvg CDATA #FIXED "http://kanjivg.tagaini.net"
kvg:element CDATA #IMPLIED
kvg:variant CDATA #IMPLIED
kvg:partial CDATA #IMPLIED
kvg:original CDATA #IMPLIED
kvg:part CDATA #IMPLIED
kvg:number CDATA #IMPLIED
kvg:tradForm CDATA #IMPLIED
kvg:radicalForm CDATA #IMPLIED
kvg:position CDATA #IMPLIED
kvg:radical CDATA #IMPLIED
kvg:phon CDATA #IMPLIED >
<!ATTLIST path
xmlns:kvg CDATA #FIXED "http://kanjivg.tagaini.net"
kvg:type CDATA #IMPLIED >
]>
<svg xmlns="http://www.w3.org/2000/svg" width="109" height="109" viewBox="0 0 109 109">
<g id="kvg:StrokePaths_05516" style="fill:none;stroke:#000000;stroke-width:3;stroke-linecap:round;stroke-linejoin:round;">
<g id="kvg:05516" kvg:element="唖">
	<g id="kvg:05516-g1" kvg:element="口" kvg:position="left" kvg:radical="general">
		<path id="kvg:05516-s1" kvg:type="㇑" d="M12.25,34.29c0.99,1.35,1.19,2.58,1.37,4.19c0.71,6.59,1.39,14.31,2.06,21.53c0.16,1.7,0.32,3.37,0.47,4.99"/>
		<path id="kvg:05516-s2" kvg:type="㇕b" d="M14.08,36.22c8.46-1.4,13.38-2.31,17.46-2.96c3.33-0.53,4.27,1.03,3.82,3.99c-0.88,5.77-1.81,13.31-2.75,21.61"/>
		<path id="kvg:05516-s3" kvg:type="㇐b" d="M16.82,61.8c4.11-0.6,7.51-0.99,13.43-1.66c1.48-0.17,3.12-0.35,4.96-0.55"/>
	</g>
	<g id="kvg:05516-g2" kvg:element="亜" kvg:position="right">
		<g id="kvg:05516-g3" kvg:element="二" kvg:part="1">
			<path id="kvg:05516-s4" kvg:type="㇐" d="M43.09,20.65c2.66,0.73,5.36,0.22,7.67,0.01C60.9,19.75,73.7,18.52,85,17.5c2.75-0.25,5.59-0.32,8.3,0.42"/>
		</g>
		<g id="kvg:05516-g4" kvg:element="口">
			<path id="kvg:05516-s5" kvg:type="㇑" d="M41.64,42.01c1.17,1.18,1.35,2.29,1.63,3.87c0.8,4.42,1.4,10.48,1.99,16.99c0.16,1.83,0.33,3.69,0.49,5.56"/>
			<path id="kvg:05516-s6" kvg:type="㇕a" d="M44.08,44.26c13.29-2.01,31.29-3.89,43.81-5.1c4.64-0.45,5.61,0.84,5.16,5.01c-0.56,5.28-1.54,11.09-2.59,16.84c-0.27,1.46-0.54,2.92-0.81,4.36"/>
			<path id="kvg:05516-s7" kvg:type="㇐a" d="M46.74,66.71c9.26-0.96,28.76-2.96,42.02-3.62"/>
		</g>
		<path id="kvg:05516-s8" kvg:type="㇑a" d="M57.8,22.54c1.21,1.2,1.69,3.17,1.69,4.59c0,9.75-0.11,55.02-0.11,62.5"/>
		<path id="kvg:05516-s9" kvg:type="㇑a" d="M74.67,20.64c0.97,0.97,1.4,2.36,1.4,3.43c0,5.56-0.18,56.43-0.18,64.5"/>
		<g id="kvg:05516-g5" kvg:element="二" kvg:part="2">
			<path id="kvg:05516-s10" kvg:type="㇐" d="M33.88,91.7c2.65,1.18,6.11,0.47,8.87,0.28c15.42-1.07,34.32-2.32,47.51-2.79c3.05-0.11,5.5,0.41,8.37,1.17"/>
		</g>
	</g>
</g>
</g>
<g id="kvg:StrokeNumbers_05516" style="font-size:8;fill:#808080">
	<text transform="matrix(1 0 0 1 6.50 43.50)">1</text>
	<text transform="matrix(1 0 0 1 15.75 32.50)">2</text>
	<text transform="matrix(1 0 0 1 18.75 58.55)">3</text>
	<text transform="matrix(1 0 0 1 42.50 17.50)">4</text>
	<text transform="matrix(1 0 0 1 36.75 53.50)">5</text>
	<text transform="matrix(1 0 0 1 45.75 40.50)">6</text>
	<text transform="matrix(1 0 0 1 48.75 63.05)">7</text>
	<text transform="matrix(1 0 0 1 51.75 30.13)">8</text>
	<text transform="matrix(1 0 0 1 68.25 28.63)">9</text>
	<text transform="matrix(1 0 0 1 33.75 88.63)">10</text>
</g>
</svg>
