<?xml version="1.0" encoding="UTF-8"?>
<!--
Copyright (C) 2009/2010/2011 Ulrich Apel.
This work is distributed under the conditions of the Creative Commons 
Attribution-Share Alike 3.0 Licence. This means you are free:
* to Share - to copy, distribute and transmit the work
* to Remix - to adapt the work

Under the following conditions:
* Attribution. You must attribute the work by stating your use of KanjiVG in
  your own copyright header and linking to KanjiVG's website
  (http://kanjivg.tagaini.net)
* Share Alike. If you alter, transform, or build upon this work, you may
  distribute the resulting work only under the same or similar license to this
  one.

See http://creativecommons.org/licenses/by-sa/3.0/ for more details.
-->
<!DOCTYPE svg PUBLIC "-//W3C//DTD SVG 1.0//EN" "http://www.w3.org/TR/2001/REC-SVG-20010904/DTD/svg10.dtd" [
<!ATTLIST g
xmlns:kvg CDATA #FIXED "http://kanjivg.tagaini.net"
kvg:element CDATA #IMPLIED
kvg:variant CDATA #IMPLIED
kvg:partial CDATA #IMPLIED
kvg:original CDATA #IMPLIED
kvg:part CDATA #IMPLIED
kvg:number CDATA #IMPLIED
kvg:tradForm CDATA #IMPLIED
kvg:radicalForm CDATA #IMPLIED
kvg:position CDATA #IMPLIED
kvg:radical CDATA #IMPLIED
kvg:phon CDATA #IMPLIED >
<!ATTLIST path
xmlns:kvg CDATA #FIXED "http://kanjivg.tagaini.net"
kvg:type CDATA #IMPLIED >
]>
<svg xmlns="http://www.w3.org/2000/svg" width="109" height="109" viewBox="0 0 109 109">
<g id="kvg:StrokePaths_0552f" style="fill:none;stroke:#000000;stroke-width:3;stroke-linecap:round;stroke-linejoin:round;">
<g id="kvg:0552f" kvg:element="唯">
	<g id="kvg:0552f-g1" kvg:element="口" kvg:position="left" kvg:radical="general">
		<path id="kvg:0552f-s1" kvg:type="㇑" d="M13.39,37.93c0.91,1.25,0.98,1.92,1.26,3.55c0.8,4.75,1.89,11.95,2.79,18.53c0.31,2.28,0.6,4.48,0.85,6.49"/>
		<path id="kvg:0552f-s2" kvg:type="㇕b" d="M15.71,40.39c6.35-1.16,12.31-2.09,18.18-3.23c2.92-0.56,4.11,0.64,3.61,3.6c-0.88,5.34-1.71,8.55-3.29,17.91"/>
		<path id="kvg:0552f-s3" kvg:type="㇐b" d="M18.8,61.9c4.26-0.47,8.83-1.22,14.23-1.86c1.33-0.16,2.71-0.33,4.14-0.5"/>
	</g>
	<g id="kvg:0552f-g2" kvg:element="隹" kvg:position="right" kvg:phon="隹">
		<g id="kvg:0552f-g3" kvg:element="亻" kvg:variant="true" kvg:original="人">
			<path id="kvg:0552f-s4" kvg:type="㇒" d="M60.46,13.5c0.19,1.94-0.3,3.23-0.92,4.89c-3.9,10.59-8.85,20.05-17.8,32.94"/>
			<path id="kvg:0552f-s5" kvg:type="㇑" d="M52.72,39.8c1.12,1.12,1.43,2.46,1.43,3.94c0,8.19-0.02,32.39,0,45.64c0.01,4.99,0.05,6.75,0.05,8.88"/>
		</g>
		<path id="kvg:0552f-s6" kvg:type="㇒" d="M77.86,21.75c0.07,0.85,0.04,1.99-0.24,2.7c-1.88,4.8-2.66,6.75-5.85,12.42"/>
		<path id="kvg:0552f-s7" kvg:type="㇐b" d="M54.97,41.54c5.23-0.78,19.44-2.84,28.67-4.09c2.49-0.34,5.02-0.58,7.49-1.05"/>
		<path id="kvg:0552f-s8" kvg:type="㇑a" d="M71.63,42.27c0.93,0.93,1.14,2.11,1.14,3.51c0,7.55,0.07,30.35,0.07,42.49"/>
		<path id="kvg:0552f-s9" kvg:type="㇐b" d="M55.2,57.11c4.91-0.64,17.64-2.29,25.7-3.36c2.23-0.3,4.47-0.56,6.69-0.93"/>
		<path id="kvg:0552f-s10" kvg:type="㇐b" d="M55.11,72.2c5.26-0.55,17.99-2.54,26.17-3.78c2.18-0.33,4.35-0.67,6.53-0.96"/>
		<path id="kvg:0552f-s11" kvg:type="㇐b" d="M55.11,90.55c6.59-0.6,22.62-2.12,32.41-3.05c2.31-0.22,4.7-0.3,6.99-0.74"/>
	</g>
</g>
</g>
<g id="kvg:StrokeNumbers_0552f" style="font-size:8;fill:#808080">
	<text transform="matrix(1 0 0 1 8.00 45.25)">1</text>
	<text transform="matrix(1 0 0 1 18.50 35.88)">2</text>
	<text transform="matrix(1 0 0 1 21.50 58.25)">3</text>
	<text transform="matrix(1 0 0 1 51.25 12.25)">4</text>
	<text transform="matrix(1 0 0 1 47.00 56.80)">5</text>
	<text transform="matrix(1 0 0 1 68.25 22.25)">6</text>
	<text transform="matrix(1 0 0 1 58.25 38.25)">7</text>
	<text transform="matrix(1 0 0 1 65.25 48.25)">8</text>
	<text transform="matrix(1 0 0 1 58.25 53.25)">9</text>
	<text transform="matrix(1 0 0 1 58.25 68.25)">10</text>
	<text transform="matrix(1 0 0 1 58.25 86.25)">11</text>
</g>
</svg>
