<?xml version="1.0" encoding="UTF-8"?>
<!--
Copyright (C) 2009/2010/2011 Ulrich Apel.
This work is distributed under the conditions of the Creative Commons 
Attribution-Share Alike 3.0 Licence. This means you are free:
* to Share - to copy, distribute and transmit the work
* to Remix - to adapt the work

Under the following conditions:
* Attribution. You must attribute the work by stating your use of KanjiVG in
  your own copyright header and linking to KanjiVG's website
  (http://kanjivg.tagaini.net)
* Share Alike. If you alter, transform, or build upon this work, you may
  distribute the resulting work only under the same or similar license to this
  one.

See http://creativecommons.org/licenses/by-sa/3.0/ for more details.
-->
<!DOCTYPE svg PUBLIC "-//W3C//DTD SVG 1.0//EN" "http://www.w3.org/TR/2001/REC-SVG-20010904/DTD/svg10.dtd" [
<!ATTLIST g
xmlns:kvg CDATA #FIXED "http://kanjivg.tagaini.net"
kvg:element CDATA #IMPLIED
kvg:variant CDATA #IMPLIED
kvg:partial CDATA #IMPLIED
kvg:original CDATA #IMPLIED
kvg:part CDATA #IMPLIED
kvg:number CDATA #IMPLIED
kvg:tradForm CDATA #IMPLIED
kvg:radicalForm CDATA #IMPLIED
kvg:position CDATA #IMPLIED
kvg:radical CDATA #IMPLIED
kvg:phon CDATA #IMPLIED >
<!ATTLIST path
xmlns:kvg CDATA #FIXED "http://kanjivg.tagaini.net"
kvg:type CDATA #IMPLIED >
]>
<svg xmlns="http://www.w3.org/2000/svg" width="109" height="109" viewBox="0 0 109 109">
<g id="kvg:StrokePaths_05546-Kaisho" style="fill:none;stroke:#000000;stroke-width:3;stroke-linecap:round;stroke-linejoin:round;">
<g id="kvg:05546-Kaisho" kvg:element="商">
	<g id="kvg:05546-Kaisho-g1" kvg:element="立" kvg:partial="true" kvg:position="top">
		<g id="kvg:05546-Kaisho-g2" kvg:element="亠" kvg:radical="nelson">
			<path id="kvg:05546-Kaisho-s1" kvg:type="㇑a" d="M49.31,11.75c2.97,1.33,7.35,6.48,7.86,9.08"/>
			<path id="kvg:05546-Kaisho-s2" kvg:type="㇐" d="M18.5,27.61c1.42,0.1,4.68,0.69,6.06,0.55C35.75,27,72,24.25,87.2,23.95c2.35-0.05,3.55,0.05,5.3,0.7"/>
		</g>
		<path id="kvg:05546-Kaisho-s3" kvg:type="㇔" d="M34.52,30.58c2.84,2.58,7.33,10.62,8.04,14.63"/>
		<path id="kvg:05546-Kaisho-s4" kvg:type="㇒" d="M70.54,27.64c0.02,0.4,0.04,1.04-0.03,1.62c-0.41,3.41-2.74,10.88-5.94,15.46"/>
	</g>
	<g id="kvg:05546-Kaisho-g3" kvg:element="冏" kvg:position="bottom">
		<g id="kvg:05546-Kaisho-g4" kvg:element="冂">
			<path id="kvg:05546-Kaisho-s5" kvg:type="㇑" d="M22.75,48c0.69,0.81,0.92,1.29,0.92,2.58c0,1.46,0.23,44.24,0.23,46.66"/>
			<path id="kvg:05546-Kaisho-s6" kvg:type="㇆a" d="M25.98,48.65c8.77-0.65,54.58-2.84,56.34-2.91c4.14-0.16,5.54,1.13,5.54,1.94s-0.46,1.13-0.46,2.74c0,1.61-0.08,39.08,0.23,42.79c0.23,2.74-2.31,3.07-4.85,1.94"/>
		</g>
		<g id="kvg:05546-Kaisho-g5" kvg:element="儿" kvg:variant="true" kvg:original="八">
			<g id="kvg:05546-Kaisho-g6" kvg:element="丿">
				<path id="kvg:05546-Kaisho-s7" kvg:type="㇒" d="M45.22,49.68c0.03,0.38-0.05,0.98-0.07,1.53c-0.1,4.2-4.65,9.29-11.93,14.64"/>
			</g>
			<path id="kvg:05546-Kaisho-s8" kvg:type="㇟" d="M60.1,49.37c0.39,0.5,0.71,1.08,0.73,1.85c0.1,3.41,0.22,4.23,0.22,6.55c0,5.42,4.72,4.81,9.36,4.81c4.9,0,8.13-0.7,8.82-1.09"/>
		</g>
		<g id="kvg:05546-Kaisho-g7" kvg:element="口" kvg:radical="tradit">
			<path id="kvg:05546-Kaisho-s9" kvg:type="㇑" d="M39.31,72.82c0.43,0.28,0.87,0.51,1.06,0.86c1.49,2.75,1.76,10.34,2.77,15.28"/>
			<path id="kvg:05546-Kaisho-s10" kvg:type="㇕b" d="M41.98,73.98c8.77-0.9,20.48-2.82,25.5-3.18c1.83-0.13,3.27,0.94,2.67,3.06c-1.01,3.61-1.97,7.93-3.47,12.04"/>
			<path id="kvg:05546-Kaisho-s11" kvg:type="㇐b" d="M43.35,88.4c5.9-0.41,17.08-1.12,25.18-1.74"/>
		</g>
	</g>
</g>
</g>
<g id="kvg:StrokeNumbers_05546-Kaisho" style="font-size:8;fill:#808080">
	<text transform="matrix(1 0 0 1 43.50 13.50)">1</text>
	<text transform="matrix(1 0 0 1 11.25 28.94)">2</text>
	<text transform="matrix(1 0 0 1 29.25 37.63)">3</text>
	<text transform="matrix(1 0 0 1 62.25 34.63)">4</text>
	<text transform="matrix(1 0 0 1 17.25 57.13)">5</text>
	<text transform="matrix(1 0 0 1 26.25 46.63)">6</text>
	<text transform="matrix(1 0 0 1 36.75 57.50)">7</text>
	<text transform="matrix(1 0 0 1 53.50 57.13)">8</text>
	<text transform="matrix(1 0 0 1 33.75 79.63)">9</text>
	<text transform="matrix(1 0 0 1 43.50 70.50)">10</text>
	<text transform="matrix(1 0 0 1 46.50 84.13)">11</text>
</g>
</svg>
