<?xml version="1.0" encoding="UTF-8"?>
<!--
Copyright (C) 2009/2010/2011 Ulrich Apel.
This work is distributed under the conditions of the Creative Commons 
Attribution-Share Alike 3.0 Licence. This means you are free:
* to Share - to copy, distribute and transmit the work
* to Remix - to adapt the work

Under the following conditions:
* Attribution. You must attribute the work by stating your use of KanjiVG in
  your own copyright header and linking to KanjiVG's website
  (http://kanjivg.tagaini.net)
* Share Alike. If you alter, transform, or build upon this work, you may
  distribute the resulting work only under the same or similar license to this
  one.

See http://creativecommons.org/licenses/by-sa/3.0/ for more details.
-->
<!DOCTYPE svg PUBLIC "-//W3C//DTD SVG 1.0//EN" "http://www.w3.org/TR/2001/REC-SVG-20010904/DTD/svg10.dtd" [
<!ATTLIST g
xmlns:kvg CDATA #FIXED "http://kanjivg.tagaini.net"
kvg:element CDATA #IMPLIED
kvg:variant CDATA #IMPLIED
kvg:partial CDATA #IMPLIED
kvg:original CDATA #IMPLIED
kvg:part CDATA #IMPLIED
kvg:number CDATA #IMPLIED
kvg:tradForm CDATA #IMPLIED
kvg:radicalForm CDATA #IMPLIED
kvg:position CDATA #IMPLIED
kvg:radical CDATA #IMPLIED
kvg:phon CDATA #IMPLIED >
<!ATTLIST path
xmlns:kvg CDATA #FIXED "http://kanjivg.tagaini.net"
kvg:type CDATA #IMPLIED >
]>
<svg xmlns="http://www.w3.org/2000/svg" width="109" height="109" viewBox="0 0 109 109">
<g id="kvg:StrokePaths_0554f-Kaisho" style="fill:none;stroke:#000000;stroke-width:3;stroke-linecap:round;stroke-linejoin:round;">
<g id="kvg:0554f-Kaisho" kvg:element="問">
	<g id="kvg:0554f-Kaisho-g1" kvg:element="門" kvg:radical="nelson">
		<g id="kvg:0554f-Kaisho-g2" kvg:position="left">
			<path id="kvg:0554f-Kaisho-s1" kvg:type="㇑" d="M17.89,13.79c0.73,0.52,2.28,3.89,2.43,4.92c0.15,1.04-0.09,73.44-0.24,79.92"/>
			<path id="kvg:0554f-Kaisho-s2" kvg:type="㇕a" d="M20.52,16.91c2.44-0.11,18.77-3.92,20.99-4.05c1.85-0.11,2.81,1.02,2.9,1.91c0.14,1.38-1.06,15.76-1.39,24.98c-0.04,1.02-0.14,1.46-0.14,2.14"/>
			<path id="kvg:0554f-Kaisho-s3" kvg:type="㇐a" d="M20.95,29.49c3.69-0.41,7.36-0.97,11.02-1.52c1-0.15,2-0.3,2.98-0.45"/>
			<path id="kvg:0554f-Kaisho-s4" kvg:type="㇐a" d="M20.52,42.56c8.11-1.29,13.89-2.26,21.06-2.86"/>
		</g>
		<g id="kvg:0554f-Kaisho-g3" kvg:position="right">
			<path id="kvg:0554f-Kaisho-s5" kvg:type="㇑" d="M64.94,12.51c0.44,0.55,0.88,1.74,0.88,2.48c0,0.74-0.29,24.31-0.29,24.67"/>
			<path id="kvg:0554f-Kaisho-s6" kvg:type="㇆a" d="M66.55,14.66c2.49-0.11,19.21-2.79,21.49-2.92c1.9-0.11,2.98,1.15,2.97,1.8c-0.49,19.46-0.5,64.29-0.5,78.4c0,11.06-6.26,2.06-8.9-0.64"/>
			<path id="kvg:0554f-Kaisho-s7" kvg:type="㇐a" d="M66.99,25.22c3.67,0,7.41-0.69,11.04-1.12c1.17-0.14,2.35-0.28,3.49-0.41"/>
			<path id="kvg:0554f-Kaisho-s8" kvg:type="㇐a" d="M66.55,36.76c4.99,0,16.09-2.06,22.55-2.06"/>
		</g>
	</g>
	<g id="kvg:0554f-Kaisho-g4" kvg:element="口" kvg:radical="tradit">
		<path id="kvg:0554f-Kaisho-s9" kvg:type="㇑" d="M36.5,57.86c0.35,0.38,0.72,0.7,0.87,1.17c1.23,3.78,2.7,14.7,3.54,21.48"/>
		<path id="kvg:0554f-Kaisho-s10" kvg:type="㇕b" d="M38.71,59.66C49,58.5,63.74,57,68.22,56.46c1.64-0.19,2.62,1.97,2.38,3.12c-0.97,4.75-2.08,8.85-4.15,15.71"/>
		<path id="kvg:0554f-Kaisho-s11" kvg:type="㇐b" d="M41.76,78.52c5.25-0.61,19.65-2.04,26.32-2.64"/>
	</g>
</g>
</g>
<g id="kvg:StrokeNumbers_0554f-Kaisho" style="font-size:8;fill:#808080">
	<text transform="matrix(1 0 0 1 13.50 25.50)">1</text>
	<text transform="matrix(1 0 0 1 22.50 13.50)">2</text>
	<text transform="matrix(1 0 0 1 25.50 25.63)">3</text>
	<text transform="matrix(1 0 0 1 25.50 39.13)">4</text>
	<text transform="matrix(1 0 0 1 58.50 22.63)">5</text>
	<text transform="matrix(1 0 0 1 68.50 10.50)">6</text>
	<text transform="matrix(1 0 0 1 70.50 22.50)">7</text>
	<text transform="matrix(1 0 0 1 70.50 33.50)">8</text>
	<text transform="matrix(1 0 0 1 30.50 66.50)">9</text>
	<text transform="matrix(1 0 0 1 39.50 56.50)">10</text>
	<text transform="matrix(1 0 0 1 44.50 74.50)">11</text>
</g>
</svg>
