<?xml version="1.0" encoding="UTF-8"?>
<!--
Copyright (C) 2009/2010/2011 Ulrich Apel.
This work is distributed under the conditions of the Creative Commons 
Attribution-Share Alike 3.0 Licence. This means you are free:
* to Share - to copy, distribute and transmit the work
* to Remix - to adapt the work

Under the following conditions:
* Attribution. You must attribute the work by stating your use of KanjiVG in
  your own copyright header and linking to KanjiVG's website
  (http://kanjivg.tagaini.net)
* Share Alike. If you alter, transform, or build upon this work, you may
  distribute the resulting work only under the same or similar license to this
  one.

See http://creativecommons.org/licenses/by-sa/3.0/ for more details.
-->
<!DOCTYPE svg PUBLIC "-//W3C//DTD SVG 1.0//EN" "http://www.w3.org/TR/2001/REC-SVG-20010904/DTD/svg10.dtd" [
<!ATTLIST g
xmlns:kvg CDATA #FIXED "http://kanjivg.tagaini.net"
kvg:element CDATA #IMPLIED
kvg:variant CDATA #IMPLIED
kvg:partial CDATA #IMPLIED
kvg:original CDATA #IMPLIED
kvg:part CDATA #IMPLIED
kvg:number CDATA #IMPLIED
kvg:tradForm CDATA #IMPLIED
kvg:radicalForm CDATA #IMPLIED
kvg:position CDATA #IMPLIED
kvg:radical CDATA #IMPLIED
kvg:phon CDATA #IMPLIED >
<!ATTLIST path
xmlns:kvg CDATA #FIXED "http://kanjivg.tagaini.net"
kvg:type CDATA #IMPLIED >
]>
<svg xmlns="http://www.w3.org/2000/svg" width="109" height="109" viewBox="0 0 109 109">
<g id="kvg:StrokePaths_05540" style="fill:none;stroke:#000000;stroke-width:3;stroke-linecap:round;stroke-linejoin:round;">
<g id="kvg:05540" kvg:element="啀">
	<g id="kvg:05540-g1" kvg:element="口" kvg:position="left" kvg:radical="general">
		<path id="kvg:05540-s1" kvg:type="㇑" d="M10.75,34.66c0.37,0.47,0.76,0.87,0.92,1.46c1.29,4.7,3.34,17.18,4.23,25.63"/>
		<path id="kvg:05540-s2" kvg:type="㇕b" d="M13.08,35.92c9.42-2.06,14.55-2.81,18.92-3.43c1.6-0.23,2.56,1.34,2.33,2.67c-0.95,5.49-2.05,12.49-3.46,20.09"/>
		<path id="kvg:05540-s3" kvg:type="㇐b" d="M16.07,57.98c5.14-0.7,9.18-0.98,17.39-2.05"/>
	</g>
	<g id="kvg:05540-g2" kvg:position="right">
		<g id="kvg:05540-g3" kvg:element="厂">
			<path id="kvg:05540-s4" kvg:type="㇐" d="M43.92,21.3c1.09,0.52,3.09,0.6,4.18,0.52C58.5,21,75.5,19,90.31,18.29c1.81-0.09,2.91,0.25,3.81,0.5"/>
			<path id="kvg:05540-s5" kvg:type="㇒" d="M47.41,22.44c0.04,1.55,0,3.99-0.08,6.22C46.5,53.5,43.74,74.61,33.5,88.75"/>
		</g>
		<g id="kvg:05540-g4" kvg:element="圭">
			<g id="kvg:05540-g5" kvg:element="土" kvg:position="top">
				<path id="kvg:05540-s6" kvg:type="㇐" d="M56.2,40.46c0.62,0.27,1.75,0.34,2.37,0.27c7.94-0.93,20.81-2.98,28.8-3.22c1.03-0.03,1.65,0.13,2.16,0.27"/>
				<path id="kvg:05540-s7" kvg:type="㇑a" d="M70.86,26.62c0.1,0.28,1.48,1.48,1.48,3.29c0,11.66-0.19,10.84-0.19,23.9"/>
				<path id="kvg:05540-s8" kvg:type="㇐" d="M52.62,54.84c1.1,0.45,3.12,0.51,4.23,0.45c8.9-0.54,26.15-2.29,35.5-2.57c1.84-0.06,2.94,0.21,3.86,0.44"/>
			</g>
			<g id="kvg:05540-g6" kvg:element="土" kvg:position="bottom">
				<path id="kvg:05540-s9" kvg:type="㇐" d="M55.09,72.21c0.7,0.27,1.97,0.34,2.67,0.27c8.95-0.93,23.05-2.39,32.06-2.63c1.16-0.03,1.86,0.13,2.44,0.27"/>
				<path id="kvg:05540-s10" kvg:type="㇑a" d="M71.4,59.46c0.09,0.36,1.29,1.86,1.29,4.15c0,14.68-0.19,12.09-0.19,25.15"/>
				<path id="kvg:05540-s11" kvg:type="㇐" d="M46.8,90.33c1.1,0.45,3.13,0.55,4.23,0.45c13.66-1.25,34.09-1.98,46.31-2.57c1.84-0.09,2.94,0.21,3.86,0.44"/>
			</g>
		</g>
	</g>
</g>
</g>
<g id="kvg:StrokeNumbers_05540" style="font-size:8;fill:#808080">
	<text transform="matrix(1 0 0 1 4.50 41.50)">1</text>
	<text transform="matrix(1 0 0 1 13.50 32.50)">2</text>
	<text transform="matrix(1 0 0 1 18.50 54.50)">3</text>
	<text transform="matrix(1 0 0 1 43.50 18.50)">4</text>
	<text transform="matrix(1 0 0 1 39.25 30.33)">5</text>
	<text transform="matrix(1 0 0 1 54.50 37.50)">6</text>
	<text transform="matrix(1 0 0 1 63.25 29.50)">7</text>
	<text transform="matrix(1 0 0 1 50.25 51.50)">8</text>
	<text transform="matrix(1 0 0 1 52.50 69.50)">9</text>
	<text transform="matrix(1 0 0 1 60.25 64.95)">10</text>
	<text transform="matrix(1 0 0 1 43.50 86.50)">11</text>
</g>
</svg>
