<?xml version="1.0" encoding="UTF-8"?>
<!--
Copyright (C) 2009/2010/2011 Ulrich Apel.
This work is distributed under the conditions of the Creative Commons 
Attribution-Share Alike 3.0 Licence. This means you are free:
* to Share - to copy, distribute and transmit the work
* to Remix - to adapt the work

Under the following conditions:
* Attribution. You must attribute the work by stating your use of KanjiVG in
  your own copyright header and linking to KanjiVG's website
  (http://kanjivg.tagaini.net)
* Share Alike. If you alter, transform, or build upon this work, you may
  distribute the resulting work only under the same or similar license to this
  one.

See http://creativecommons.org/licenses/by-sa/3.0/ for more details.
-->
<!DOCTYPE svg PUBLIC "-//W3C//DTD SVG 1.0//EN" "http://www.w3.org/TR/2001/REC-SVG-20010904/DTD/svg10.dtd" [
<!ATTLIST g
xmlns:kvg CDATA #FIXED "http://kanjivg.tagaini.net"
kvg:element CDATA #IMPLIED
kvg:variant CDATA #IMPLIED
kvg:partial CDATA #IMPLIED
kvg:original CDATA #IMPLIED
kvg:part CDATA #IMPLIED
kvg:number CDATA #IMPLIED
kvg:tradForm CDATA #IMPLIED
kvg:radicalForm CDATA #IMPLIED
kvg:position CDATA #IMPLIED
kvg:radical CDATA #IMPLIED
kvg:phon CDATA #IMPLIED >
<!ATTLIST path
xmlns:kvg CDATA #FIXED "http://kanjivg.tagaini.net"
kvg:type CDATA #IMPLIED >
]>
<svg xmlns="http://www.w3.org/2000/svg" width="109" height="109" viewBox="0 0 109 109">
<g id="kvg:StrokePaths_05584" style="fill:none;stroke:#000000;stroke-width:3;stroke-linecap:round;stroke-linejoin:round;">
<g id="kvg:05584" kvg:element="善">
	<g id="kvg:05584-g1" kvg:position="top">
		<g id="kvg:05584-g2" kvg:element="羊">
			<g id="kvg:05584-g3" kvg:element="八" kvg:variant="true" kvg:radical="nelson">
				<path id="kvg:05584-s1" kvg:type="㇔" d="M35.52,12.33c3.63,1.7,9.38,6.99,10.29,9.63"/>
				<path id="kvg:05584-s2" kvg:type="㇒" d="M69.78,9.89c0.07,0.76-0.05,1.48-0.36,2.17c-0.98,2.54-3.55,6.13-8.36,10.4"/>
			</g>
			<path id="kvg:05584-s3" kvg:type="㇐" d="M29,27.64c2.5,0.49,4.82,0.28,7,0.08c9.55-0.87,26.51-2.49,37.25-2.98c1.95-0.09,4.12-0.23,6.25,0.28"/>
			<path id="kvg:05584-s4" kvg:type="㇐" d="M30.25,39.14c2.62,0.61,4.82,0.29,6.99,0.12c9.76-0.77,24.35-2.03,33.39-2.68c2.1-0.15,4.62-0.08,6.62,0.18"/>
			<path id="kvg:05584-s5" kvg:type="㇐" d="M29.25,50.64c2.38,0.61,5.33,0.43,7.52,0.21c10.77-1.09,25.83-2.33,35.6-2.82c2.24-0.11,4.75-0.16,6.63,0.23"/>
			<path id="kvg:05584-s6" kvg:type="㇑a" d="M51.75,26.75C53,27.25,53.75,29,54,30s0,28.75-0.25,35"/>
		</g>
		<path id="kvg:05584-s7" kvg:type="㇔" d="M36.27,55.83c1.78,1.39,4.6,5.72,5.04,7.88"/>
		<path id="kvg:05584-s8" kvg:type="㇒" d="M72.04,51.89c0.08,0.61-0.01,1.19-0.27,1.74c-0.78,2.28-1.89,4.25-4.46,8.09"/>
		<path id="kvg:05584-s9" kvg:type="㇐" d="M13.75,68.45c3.13,1.12,6.98,0.59,10.21,0.21c12.67-1.48,45.53-4.59,62.16-5.08c3.14-0.09,6.29,0.05,9.38,0.71"/>
	</g>
	<g id="kvg:05584-g4" kvg:element="口" kvg:position="bottom" kvg:radical="tradit">
		<path id="kvg:05584-s10" kvg:type="㇑" d="M34.14,76.71c0.88,0.88,1.53,1.96,1.66,3.18c0.95,5.6,1.58,9.84,2.49,15.3c0.23,1.42,0.45,2.77,0.64,4.01"/>
		<path id="kvg:05584-s11" kvg:type="㇕b" d="M36.41,78.17C46.06,76.78,63.3,75.2,71,74.49c3.37-0.31,6.15,0.23,5.08,4.27c-1.13,4.27-2.49,8.77-4.84,14.87"/>
		<path id="kvg:05584-s12" kvg:type="㇐b" d="M39.62,96.93c5.53-0.51,19.55-1.47,28.88-2.29c1.8-0.16,2.75-0.13,4.79-0.14"/>
	</g>
</g>
</g>
<g id="kvg:StrokeNumbers_05584" style="font-size:8;fill:#808080">
	<text transform="matrix(1 0 0 1 29.50 13.50)">1</text>
	<text transform="matrix(1 0 0 1 61.50 9.13)">2</text>
	<text transform="matrix(1 0 0 1 21.75 30.13)">3</text>
	<text transform="matrix(1 0 0 1 23.25 42.05)">4</text>
	<text transform="matrix(1 0 0 1 23.25 53.98)">5</text>
	<text transform="matrix(1 0 0 1 46.50 35.50)">6</text>
	<text transform="matrix(1 0 0 1 29.25 61.63)">7</text>
	<text transform="matrix(1 0 0 1 63.50 57.50)">8</text>
	<text transform="matrix(1 0 0 1 5.25 72.13)">9</text>
	<text transform="matrix(1 0 0 1 24.75 85.63)">10</text>
	<text transform="matrix(1 0 0 1 41.25 75.13)">11</text>
	<text transform="matrix(1 0 0 1 44.25 93.05)">12</text>
</g>
</svg>
