<?xml version="1.0" encoding="UTF-8"?>
<!--
Copyright (C) 2009/2010/2011 Ulrich Apel.
This work is distributed under the conditions of the Creative Commons 
Attribution-Share Alike 3.0 Licence. This means you are free:
* to Share - to copy, distribute and transmit the work
* to Remix - to adapt the work

Under the following conditions:
* Attribution. You must attribute the work by stating your use of KanjiVG in
  your own copyright header and linking to KanjiVG's website
  (http://kanjivg.tagaini.net)
* Share Alike. If you alter, transform, or build upon this work, you may
  distribute the resulting work only under the same or similar license to this
  one.

See http://creativecommons.org/licenses/by-sa/3.0/ for more details.
-->
<!DOCTYPE svg PUBLIC "-//W3C//DTD SVG 1.0//EN" "http://www.w3.org/TR/2001/REC-SVG-20010904/DTD/svg10.dtd" [
<!ATTLIST g
xmlns:kvg CDATA #FIXED "http://kanjivg.tagaini.net"
kvg:element CDATA #IMPLIED
kvg:variant CDATA #IMPLIED
kvg:partial CDATA #IMPLIED
kvg:original CDATA #IMPLIED
kvg:part CDATA #IMPLIED
kvg:number CDATA #IMPLIED
kvg:tradForm CDATA #IMPLIED
kvg:radicalForm CDATA #IMPLIED
kvg:position CDATA #IMPLIED
kvg:radical CDATA #IMPLIED
kvg:phon CDATA #IMPLIED >
<!ATTLIST path
xmlns:kvg CDATA #FIXED "http://kanjivg.tagaini.net"
kvg:type CDATA #IMPLIED >
]>
<svg xmlns="http://www.w3.org/2000/svg" width="109" height="109" viewBox="0 0 109 109">
<g id="kvg:StrokePaths_0559d" style="fill:none;stroke:#000000;stroke-width:3;stroke-linecap:round;stroke-linejoin:round;">
<g id="kvg:0559d" kvg:element="喝">
	<g id="kvg:0559d-g1" kvg:element="口" kvg:position="left" kvg:radical="general">
		<path id="kvg:0559d-s1" kvg:type="㇑" d="M14.25,33.65c0.72,1.06,1.04,1.92,1.23,3.23c0.89,6.25,2.23,14.12,3.01,22.08c0.18,1.87,0.35,3.66,0.5,5.29"/>
		<path id="kvg:0559d-s2" kvg:type="㇕b" d="M16.25,34.96c6.62-0.82,13.25-1.9,17.74-2.63c3-0.49,4.7,0.09,4.2,3.55c-0.88,6.1-1.92,14.57-3.21,22.65"/>
		<path id="kvg:0559d-s3" kvg:type="㇐b" d="M19.16,61.63c4.04-0.64,8.02-1.15,13.56-1.84c1.27-0.16,2.61-0.32,4.06-0.5"/>
	</g>
	<g id="kvg:0559d-g2" kvg:element="曷" kvg:variant="true" kvg:position="right" kvg:phon="曷">
		<g id="kvg:0559d-g3" kvg:element="日" kvg:position="top">
			<path id="kvg:0559d-s4" kvg:type="㇑" d="M48.75,13.77c0.8,0.8,1.12,1.98,1.42,3.24c0.42,3.28,1.24,13.54,1.79,18.99c0.2,2,0.46,3.9,0.59,4.75"/>
			<path id="kvg:0559d-s5" kvg:type="㇕a" d="M50.94,15.37c3.74-0.54,20.39-2.76,26.32-3.43c2.95-0.33,5.22,0.2,4.8,3.58c-0.77,6.25-1.8,12.39-2.79,18.77c-0.27,1.75-0.54,3.52-0.8,5.32"/>
			<path id="kvg:0559d-s6" kvg:type="㇐a" d="M52.33,26.97c5.17-0.47,23.86-3.03,27.22-3.03"/>
			<path id="kvg:0559d-s7" kvg:type="㇐a" d="M53.44,38.86c6.06-0.46,16.81-1.68,24.35-2.07"/>
		</g>
		<g id="kvg:0559d-g4" kvg:element="匂" kvg:position="bottom">
			<g id="kvg:0559d-g5" kvg:element="勹">
				<g id="kvg:0559d-g6" kvg:element="丿">
					<path id="kvg:0559d-s8" kvg:type="㇒" d="M58,42c0.12,1.41-0.27,2.39-0.84,3.69C54.43,52.01,48.92,60.54,40,68.25"/>
				</g>
				<path id="kvg:0559d-s9" kvg:type="㇆" d="M57.7,51.1c2.08,0.22,3.73,0.3,5.82-0.03c5.17-0.81,18.25-3,23.62-3.72c4.47-0.6,6.44,0.25,5.86,4.92c-1.62,13.11-2.86,26.47-10.58,42.05c-1.63,3.3-4.54,2.55-7.69-0.6"/>
				<g id="kvg:0559d-g7" kvg:element="人">
					<g id="kvg:0559d-g8" kvg:element="匕">
						<path id="kvg:0559d-s10" kvg:type="㇒" d="M73.57,60.61c-0.1,1.29-0.79,2.07-1.78,2.7c-3.7,2.35-8.54,4.82-17.22,7.88"/>
						<path id="kvg:0559d-s11" kvg:type="㇟" d="M49.93,62.55c0.78,0.81,1.09,1.32,1.09,2.43c0,2.67-0.02,6.26-0.02,11.39s1.38,5.7,12.38,5.7s12.61-0.95,12.61-6.81"/>
					</g>
				</g>
			</g>
		</g>
	</g>
</g>
</g>
<g id="kvg:StrokeNumbers_0559d" style="font-size:8;fill:#808080">
	<text transform="matrix(1 0 0 1 8.50 40.63)">1</text>
	<text transform="matrix(1 0 0 1 18.75 31.50)">2</text>
	<text transform="matrix(1 0 0 1 21.75 57.05)">3</text>
	<text transform="matrix(1 0 0 1 41.25 22.63)">4</text>
	<text transform="matrix(1 0 0 1 53.50 11.50)">5</text>
	<text transform="matrix(1 0 0 1 56.25 23.50)">6</text>
	<text transform="matrix(1 0 0 1 56.25 35.98)">7</text>
	<text transform="matrix(1 0 0 1 47.25 49.40)">8</text>
	<text transform="matrix(1 0 0 1 63.75 48.13)">9</text>
	<text transform="matrix(1 0 0 1 62.50 60.05)">10</text>
	<text transform="matrix(1 0 0 1 41.50 75.50)">11</text>
</g>
</svg>
