<?xml version="1.0" encoding="UTF-8"?>
<!--
Copyright (C) 2009/2010/2011 Ulrich Apel.
This work is distributed under the conditions of the Creative Commons 
Attribution-Share Alike 3.0 Licence. This means you are free:
* to Share - to copy, distribute and transmit the work
* to Remix - to adapt the work

Under the following conditions:
* Attribution. You must attribute the work by stating your use of KanjiVG in
  your own copyright header and linking to KanjiVG's website
  (http://kanjivg.tagaini.net)
* Share Alike. If you alter, transform, or build upon this work, you may
  distribute the resulting work only under the same or similar license to this
  one.

See http://creativecommons.org/licenses/by-sa/3.0/ for more details.
-->
<!DOCTYPE svg PUBLIC "-//W3C//DTD SVG 1.0//EN" "http://www.w3.org/TR/2001/REC-SVG-20010904/DTD/svg10.dtd" [
<!ATTLIST g
xmlns:kvg CDATA #FIXED "http://kanjivg.tagaini.net"
kvg:element CDATA #IMPLIED
kvg:variant CDATA #IMPLIED
kvg:partial CDATA #IMPLIED
kvg:original CDATA #IMPLIED
kvg:part CDATA #IMPLIED
kvg:number CDATA #IMPLIED
kvg:tradForm CDATA #IMPLIED
kvg:radicalForm CDATA #IMPLIED
kvg:position CDATA #IMPLIED
kvg:radical CDATA #IMPLIED
kvg:phon CDATA #IMPLIED >
<!ATTLIST path
xmlns:kvg CDATA #FIXED "http://kanjivg.tagaini.net"
kvg:type CDATA #IMPLIED >
]>
<svg xmlns="http://www.w3.org/2000/svg" width="109" height="109" viewBox="0 0 109 109">
<g id="kvg:StrokePaths_05599" style="fill:none;stroke:#000000;stroke-width:3;stroke-linecap:round;stroke-linejoin:round;">
<g id="kvg:05599" kvg:element="喙">
	<g id="kvg:05599-g1" kvg:element="口" kvg:position="left" kvg:radical="general">
		<path id="kvg:05599-s1" kvg:type="㇑" d="M9.75,34.09c0.36,0.45,0.72,0.83,0.88,1.4c1.24,4.5,3.73,17.92,4.57,26.01"/>
		<path id="kvg:05599-s2" kvg:type="㇕b" d="M11.98,36.25c9.03-1.98,15.42-3.17,19.61-3.76c1.53-0.22,2.45,1.28,2.23,2.55c-0.91,5.26-2.47,12.89-3.82,20.17"/>
		<path id="kvg:05599-s3" kvg:type="㇐b" d="M14.87,57.83c4.92-0.67,10.86-0.93,17.62-1.96"/>
	</g>
	<g id="kvg:05599-g2" kvg:element="彖" kvg:position="right">
		<g id="kvg:05599-g3" kvg:element="彑" kvg:position="top">
			<path id="kvg:05599-s4" kvg:type="㇗" d="M55.66,10.75c0.59,1.19,0.83,3.07,0.29,4.84c-1.18,3.91-4.98,12.66-6.65,15.93c-0.7,1.37,0.18,2.23,1.62,1.98c5.97-1.02,16.3-3.05,25.17-3.78"/>
			<path id="kvg:05599-s5" kvg:type="㇕" d="M54.32,20.96c4.43-0.21,20.84-2.44,23.17-2.71c1.94-0.23,2.99,1.38,2.41,2.95c-2.4,6.55-4.86,12.55-6.37,18.55"/>
			<g id="kvg:05599-g4" kvg:element="豕" kvg:part="1">
				<path id="kvg:05599-s6" kvg:type="㇐" d="M38,42.71c1.11,0.53,3.14,0.58,4.24,0.53c11.73-0.49,38.76-4.88,50.38-4.13c1.84,0.12,2.95,0.25,3.88,0.52"/>
			</g>
		</g>
		<g id="kvg:05599-g5" kvg:element="豕" kvg:part="2" kvg:position="bottom">
			<path id="kvg:05599-s7" kvg:type="㇒" d="M66.04,42.9c0.07,0.42,0.15,1.09-0.14,1.7c-1.72,3.58-11.58,11.43-25.07,16.24"/>
			<path id="kvg:05599-s8" kvg:type="㇚" d="M58.43,52.9C68.5,60.5,74,77.25,68.35,94.08c-2.33,6.93-8.35,2.92-9.3,0.54"/>
			<path id="kvg:05599-s9" kvg:type="㇒" d="M61.76,58.48c0.06,0.45,0.14,1.15-0.13,1.79c-1.56,3.78-10.5,12.08-22.74,17.17"/>
			<path id="kvg:05599-s10" kvg:type="㇒" d="M65.97,68.95c0.08,0.57,0.16,1.46-0.15,2.27c-1.87,4.78-12.56,15.28-27.21,21.71"/>
			<path id="kvg:05599-s11" kvg:type="㇒" d="M85.82,48.74c0.05,0.37,0.1,0.95-0.1,1.48c-1.17,3.12-7.9,9.97-17.1,14.17"/>
			<path id="kvg:05599-s12" kvg:type="㇏" d="M69.3,65.83c3.69,3.39,19.87,19.44,23.88,22.77c1.36,1.13,2.52,1.61,3.88,1.94"/>
		</g>
	</g>
</g>
</g>
<g id="kvg:StrokeNumbers_05599" style="font-size:8;fill:#808080">
	<text transform="matrix(1 0 0 1 5.35 43.50)">1</text>
	<text transform="matrix(1 0 0 1 13.50 32.50)">2</text>
	<text transform="matrix(1 0 0 1 18.50 54.50)">3</text>
	<text transform="matrix(1 0 0 1 46.50 10.90)">4</text>
	<text transform="matrix(1 0 0 1 61.50 16.50)">5</text>
	<text transform="matrix(1 0 0 1 38.50 40.50)">6</text>
	<text transform="matrix(1 0 0 1 50.50 51.18)">7</text>
	<text transform="matrix(1 0 0 1 64.50 56.50)">8</text>
	<text transform="matrix(1 0 0 1 52.50 62.50)">9</text>
	<text transform="matrix(1 0 0 1 51.50 76.50)">10</text>
	<text transform="matrix(1 0 0 1 74.50 48.50)">11</text>
	<text transform="matrix(1 0 0 1 75.50 69.50)">12</text>
</g>
</svg>
