<?xml version="1.0" encoding="UTF-8"?>
<!--
Copyright (C) 2009/2010/2011 Ulrich Apel.
This work is distributed under the conditions of the Creative Commons 
Attribution-Share Alike 3.0 Licence. This means you are free:
* to Share - to copy, distribute and transmit the work
* to Remix - to adapt the work

Under the following conditions:
* Attribution. You must attribute the work by stating your use of KanjiVG in
  your own copyright header and linking to KanjiVG's website
  (http://kanjivg.tagaini.net)
* Share Alike. If you alter, transform, or build upon this work, you may
  distribute the resulting work only under the same or similar license to this
  one.

See http://creativecommons.org/licenses/by-sa/3.0/ for more details.
-->
<!DOCTYPE svg PUBLIC "-//W3C//DTD SVG 1.0//EN" "http://www.w3.org/TR/2001/REC-SVG-20010904/DTD/svg10.dtd" [
<!ATTLIST g
xmlns:kvg CDATA #FIXED "http://kanjivg.tagaini.net"
kvg:element CDATA #IMPLIED
kvg:variant CDATA #IMPLIED
kvg:partial CDATA #IMPLIED
kvg:original CDATA #IMPLIED
kvg:part CDATA #IMPLIED
kvg:number CDATA #IMPLIED
kvg:tradForm CDATA #IMPLIED
kvg:radicalForm CDATA #IMPLIED
kvg:position CDATA #IMPLIED
kvg:radical CDATA #IMPLIED
kvg:phon CDATA #IMPLIED >
<!ATTLIST path
xmlns:kvg CDATA #FIXED "http://kanjivg.tagaini.net"
kvg:type CDATA #IMPLIED >
]>
<svg xmlns="http://www.w3.org/2000/svg" width="109" height="109" viewBox="0 0 109 109">
<g id="kvg:StrokePaths_05617-Kaisho" style="fill:none;stroke:#000000;stroke-width:3;stroke-linecap:round;stroke-linejoin:round;">
<g id="kvg:05617-Kaisho" kvg:element="嘗">
	<g id="kvg:05617-Kaisho-g1" kvg:element="尚" kvg:variant="true" kvg:position="top">
		<g id="kvg:05617-Kaisho-g2" kvg:element="⺌" kvg:variant="true" kvg:original="小" kvg:position="top" kvg:radical="nelson">
			<path id="kvg:05617-Kaisho-s1" kvg:type="㇑a" d="M52.96,9.37c0.09,0.26,1.17,1.35,1.26,2.99c0.4,7.9,0.24,9.07,0.24,11.76"/>
			<path id="kvg:05617-Kaisho-s2" kvg:type="㇔" d="M32.02,12.08c2.84,1.66,7.33,6.81,8.04,9.38"/>
			<path id="kvg:05617-Kaisho-s3" kvg:type="㇒" d="M75.26,10.25c0.03,0.3,0.06,0.77-0.06,1.2c-0.66,2.54-4.45,8.11-9.64,11.51"/>
		</g>
		<g id="kvg:05617-Kaisho-g3" kvg:position="bottom">
			<g id="kvg:05617-Kaisho-g4" kvg:element="冂" kvg:variant="true">
				<path id="kvg:05617-Kaisho-s4" kvg:type="㇔" d="M21.32,25.13c-0.15,3.7-2.78,12.36-4.07,14.56"/>
				<path id="kvg:05617-Kaisho-s5" kvg:type="㇖a" d="M21.49,27.68c6.76,0.32,47.34-5.53,63.8-5.62c10.96-0.06,4.21,5.44-0.65,8.2"/>
			</g>
			<g id="kvg:05617-Kaisho-g5" kvg:element="口" kvg:radical="tradit">
				<path id="kvg:05617-Kaisho-s6" kvg:type="㇑" d="M37.64,31.88c0.27,0.21,0.59,0.38,0.68,0.66c0.78,2.45,1.77,7.61,2.56,11.21"/>
				<path id="kvg:05617-Kaisho-s7" kvg:type="㇕b" d="M39.35,33.32c5.07-0.52,25.43-2.43,30.11-2.96C70.63,30.23,72,31,71.5,32.5c-0.81,2.44-1.5,3.5-2.88,6.81"/>
				<path id="kvg:05617-Kaisho-s8" kvg:type="㇐b" d="M41.44,41.46C48,40.75,65.61,39.6,70.8,39.12"/>
			</g>
		</g>
	</g>
	<g id="kvg:05617-Kaisho-g6" kvg:element="旨" kvg:position="bottom">
		<g id="kvg:05617-Kaisho-g7" kvg:element="匕" kvg:position="top">
			<path id="kvg:05617-Kaisho-s9" kvg:type="㇒" d="M75.43,44.34c0.18,0.82,0.03,1.32-0.75,1.66c-8.12,3.56-22.38,6.94-39.36,8.99"/>
			<path id="kvg:05617-Kaisho-s10" kvg:type="㇟" d="M30.91,44c1.34,0.5,1.5,2.43,1.5,2.93c0,2.36,0.4,4.32,0.4,7.01c0,7.37,4.16,8.04,26.99,8.04c24.82,0,25.28-2.61,25.28-7.37"/>
		</g>
		<g id="kvg:05617-Kaisho-g8" kvg:element="日" kvg:position="bottom">
			<path id="kvg:05617-Kaisho-s11" kvg:type="㇑" d="M37.8,70.73c0.58,0.69,0.92,1.65,0.92,2.48c0,0.83-0.31,25.35-0.31,25.76"/>
			<path id="kvg:05617-Kaisho-s12" kvg:type="㇕a" d="M39.49,72.56c2.6-0.1,28.88-2.51,31.25-2.64c1.97-0.1,3.24,1.15,3.09,1.76c-0.31,1.24-0.21,25.59-0.21,26.21"/>
			<path id="kvg:05617-Kaisho-s13" kvg:type="㇐a" d="M39.95,84.27c5.14,0,10.34-0.67,15.46-1.07c1.74-0.14,3.49-0.27,5.18-0.4"/>
			<path id="kvg:05617-Kaisho-s14" kvg:type="㇐a" d="M39.78,96.81c7.16-0.44,23.43-1.63,32.35-2.01"/>
		</g>
	</g>
</g>
</g>
<g id="kvg:StrokeNumbers_05617-Kaisho" style="font-size:8;fill:#808080">
	<text transform="matrix(1 0 0 1 44.50 8.50)">1</text>
	<text transform="matrix(1 0 0 1 24.50 12.50)">2</text>
	<text transform="matrix(1 0 0 1 64.08 8.65)">3</text>
	<text transform="matrix(1 0 0 1 14.50 27.50)">4</text>
	<text transform="matrix(1 0 0 1 24.50 24.50)">5</text>
	<text transform="matrix(1 0 0 1 31.42 38.75)">6</text>
	<text transform="matrix(1 0 0 1 42.08 32.50)">7</text>
	<text transform="matrix(1 0 0 1 43.42 39.94)">8</text>
	<text transform="matrix(1 0 0 1 54.75 47.53)">9</text>
	<text transform="matrix(1 0 0 1 20.50 47.50)">10</text>
	<text transform="matrix(1 0 0 1 28.50 78.50)">11</text>
	<text transform="matrix(1 0 0 1 40.50 70.50)">12</text>
	<text transform="matrix(1 0 0 1 42.50 81.50)">13</text>
	<text transform="matrix(1 0 0 1 42.50 93.50)">14</text>
</g>
</svg>
