<?xml version="1.0" encoding="UTF-8"?>
<!--
Copyright (C) 2009/2010/2011 Ulrich Apel.
This work is distributed under the conditions of the Creative Commons 
Attribution-Share Alike 3.0 Licence. This means you are free:
* to Share - to copy, distribute and transmit the work
* to Remix - to adapt the work

Under the following conditions:
* Attribution. You must attribute the work by stating your use of KanjiVG in
  your own copyright header and linking to KanjiVG's website
  (http://kanjivg.tagaini.net)
* Share Alike. If you alter, transform, or build upon this work, you may
  distribute the resulting work only under the same or similar license to this
  one.

See http://creativecommons.org/licenses/by-sa/3.0/ for more details.
-->
<!DOCTYPE svg PUBLIC "-//W3C//DTD SVG 1.0//EN" "http://www.w3.org/TR/2001/REC-SVG-20010904/DTD/svg10.dtd" [
<!ATTLIST g
xmlns:kvg CDATA #FIXED "http://kanjivg.tagaini.net"
kvg:element CDATA #IMPLIED
kvg:variant CDATA #IMPLIED
kvg:partial CDATA #IMPLIED
kvg:original CDATA #IMPLIED
kvg:part CDATA #IMPLIED
kvg:number CDATA #IMPLIED
kvg:tradForm CDATA #IMPLIED
kvg:radicalForm CDATA #IMPLIED
kvg:position CDATA #IMPLIED
kvg:radical CDATA #IMPLIED
kvg:phon CDATA #IMPLIED >
<!ATTLIST path
xmlns:kvg CDATA #FIXED "http://kanjivg.tagaini.net"
kvg:type CDATA #IMPLIED >
]>
<svg xmlns="http://www.w3.org/2000/svg" width="109" height="109" viewBox="0 0 109 109">
<g id="kvg:StrokePaths_0568a" style="fill:none;stroke:#000000;stroke-width:3;stroke-linecap:round;stroke-linejoin:round;">
<g id="kvg:0568a" kvg:element="嚊">
	<g id="kvg:0568a-g1" kvg:element="口" kvg:position="left" kvg:radical="general">
		<path id="kvg:0568a-s1" kvg:type="㇑" d="M11.25,34.06c0.35,0.45,0.72,0.82,0.87,1.38c1.23,4.42,3.7,18.12,4.54,26.06"/>
		<path id="kvg:0568a-s2" kvg:type="㇕b" d="M13.46,36.18c8.94-1.94,15.77-3.11,19.91-3.69c1.52-0.21,2.43,1.26,2.21,2.51c-0.9,5.17-2.45,12.65-3.78,19.8"/>
		<path id="kvg:0568a-s3" kvg:type="㇐b" d="M16.32,57.86c4.87-0.66,11.25-1.42,17.93-2.43"/>
	</g>
	<g id="kvg:0568a-g2" kvg:element="鼻" kvg:variant="true" kvg:position="right">
		<g id="kvg:0568a-g3" kvg:element="自" kvg:position="top">
			<path id="kvg:0568a-s4" kvg:type="㇒" d="M63.48,9.42c0.26,0.08,0.26,1.94,0.09,2.18c-1.08,1.59-3.07,4.89-5.23,8.35"/>
			<g id="kvg:0568a-g4" kvg:element="目">
				<path id="kvg:0568a-s5" kvg:type="㇑" d="M49.75,21.26c0.43,0.54,1.06,0.95,1.06,1.67c0,0.72,2.67,18.88,2.67,19.24c0,0.36,0.14,1.12,0.29,1.84"/>
				<path id="kvg:0568a-s6" kvg:type="㇕a" d="M51.52,21.48c2.43-0.09,24.88-2.68,27.09-2.79c1.85-0.09,3.14,1.22,3.15,3.04c0,0.87-1.22,10.01-2.17,19.8"/>
				<path id="kvg:0568a-s7" kvg:type="㇐a" d="M51.93,27.96c4.79-0.12,25.14-1.61,29.03-1.61"/>
				<path id="kvg:0568a-s8" kvg:type="㇐a" d="M52.63,35.24c6.44-0.3,21.3-2.05,27.55-2.05"/>
				<path id="kvg:0568a-s9" kvg:type="㇐a" d="M53.86,42.6C60,42.25,72.9,40.3,79.15,40.3"/>
			</g>
		</g>
		<g id="kvg:0568a-g5" kvg:position="bottom">
			<g id="kvg:0568a-g6" kvg:element="田">
				<path id="kvg:0568a-s10" kvg:type="㇑" d="M42.99,48.65c0.34,0.3,0.84,1.51,1.03,1.89c1.5,3.13,2.87,11.03,3.76,16.86"/>
				<path id="kvg:0568a-s11" kvg:type="㇕a" d="M45.08,50.08c11.88-0.77,31.25-3.09,40.12-3.74c3.26-0.24,4.55,1.41,4.05,4.41c-0.53,3.17-2,9.5-3.27,14.5"/>
				<path id="kvg:0568a-s12" kvg:type="㇑a" d="M65.9,49.14c-0.16,1.86-0.3,14.19-0.29,15.74"/>
				<path id="kvg:0568a-s13" kvg:type="㇐a" d="M47.22,57.66c3.87-0.3,36.87-2.52,40.07-2.64"/>
				<path id="kvg:0568a-s14" kvg:type="㇐a" d="M48.4,66.55C59,66,73,64.5,86.08,64.24"/>
			</g>
			<g id="kvg:0568a-g7" kvg:element="廾">
				<g id="kvg:0568a-g8" kvg:element="十" kvg:part="1" kvg:variant="true">
					<path id="kvg:0568a-s15" kvg:type="㇐" d="M34.38,75.57c1.26,0.46,3.57,0.53,4.84,0.46c13.13-0.76,39.08-3.6,55.75-3.98c2.1-0.05,3.36,0.22,4.42,0.45"/>
				</g>
				<g id="kvg:0568a-g9" kvg:element="丿">
					<path id="kvg:0568a-s16" kvg:type="㇒" d="M55.65,75.25c0.85,0.85,0.81,1.62,0.81,2.47c0,4.31-4.96,17.53-16.46,22.28"/>
				</g>
				<g id="kvg:0568a-g10" kvg:element="十" kvg:part="2" kvg:variant="true">
					<path id="kvg:0568a-s17" kvg:type="㇑" d="M75.63,73.91c0.82,0.38,1.31,1.69,1.47,2.44c0.16,0.75,0,18.97-0.16,23.66"/>
				</g>
			</g>
		</g>
	</g>
</g>
</g>
<g id="kvg:StrokeNumbers_0568a" style="font-size:8;fill:#808080">
	<text transform="matrix(1 0 0 1 5.50 41.85)">1</text>
	<text transform="matrix(1 0 0 1 15.50 32.50)">2</text>
	<text transform="matrix(1 0 0 1 19.50 54.85)">3</text>
	<text transform="matrix(1 0 0 1 54.50 10.50)">4</text>
	<text transform="matrix(1 0 0 1 42.50 27.50)">5</text>
	<text transform="matrix(1 0 0 1 52.50 18.50)">6</text>
	<text transform="matrix(1 0 0 1 56.50 27.50)">7</text>
	<text transform="matrix(1 0 0 1 56.50 34.10)">8</text>
	<text transform="matrix(1 0 0 1 57.50 40.03)">9</text>
	<text transform="matrix(1 0 0 1 35.50 59.50)">10</text>
	<text transform="matrix(1 0 0 1 44.25 47.88)">11</text>
	<text transform="matrix(1 0 0 1 69.25 53.80)">12</text>
	<text transform="matrix(1 0 0 1 49.50 55.50)">13</text>
	<text transform="matrix(1 0 0 1 50.50 64.50)">14</text>
	<text transform="matrix(1 0 0 1 32.50 72.50)">15</text>
	<text transform="matrix(1 0 0 1 44.50 84.50)">16</text>
	<text transform="matrix(1 0 0 1 66.50 82.50)">17</text>
</g>
</svg>
