<?xml version="1.0" encoding="UTF-8"?>
<!--
Copyright (C) 2009/2010/2011 Ulrich Apel.
This work is distributed under the conditions of the Creative Commons 
Attribution-Share Alike 3.0 Licence. This means you are free:
* to Share - to copy, distribute and transmit the work
* to Remix - to adapt the work

Under the following conditions:
* Attribution. You must attribute the work by stating your use of KanjiVG in
  your own copyright header and linking to KanjiVG's website
  (http://kanjivg.tagaini.net)
* Share Alike. If you alter, transform, or build upon this work, you may
  distribute the resulting work only under the same or similar license to this
  one.

See http://creativecommons.org/licenses/by-sa/3.0/ for more details.
-->
<!DOCTYPE svg PUBLIC "-//W3C//DTD SVG 1.0//EN" "http://www.w3.org/TR/2001/REC-SVG-20010904/DTD/svg10.dtd" [
<!ATTLIST g
xmlns:kvg CDATA #FIXED "http://kanjivg.tagaini.net"
kvg:element CDATA #IMPLIED
kvg:variant CDATA #IMPLIED
kvg:partial CDATA #IMPLIED
kvg:original CDATA #IMPLIED
kvg:part CDATA #IMPLIED
kvg:number CDATA #IMPLIED
kvg:tradForm CDATA #IMPLIED
kvg:radicalForm CDATA #IMPLIED
kvg:position CDATA #IMPLIED
kvg:radical CDATA #IMPLIED
kvg:phon CDATA #IMPLIED >
<!ATTLIST path
xmlns:kvg CDATA #FIXED "http://kanjivg.tagaini.net"
kvg:type CDATA #IMPLIED >
]>
<svg xmlns="http://www.w3.org/2000/svg" width="109" height="109" viewBox="0 0 109 109">
<g id="kvg:StrokePaths_05737" style="fill:none;stroke:#000000;stroke-width:3;stroke-linecap:round;stroke-linejoin:round;">
<g id="kvg:05737" kvg:element="圷">
	<g id="kvg:05737-g1" kvg:element="土" kvg:variant="true" kvg:position="left" kvg:radical="general">
		<path id="kvg:05737-s1" kvg:type="㇐" d="M12.5,45.64c0.76,0.38,2.74,0.46,3.5,0.36c4.82-0.66,17.65-2.89,23-3.5c1.25-0.14,2.62-0.18,3.25,0.01"/>
		<path id="kvg:05737-s2" kvg:type="㇑a" d="M25.87,19c1.09,0.5,1.96,2.23,1.96,3.25c0,7.25,0.03,38.75,0.03,49.5"/>
		<path id="kvg:05737-s3" kvg:type="㇀/㇐" d="M12.5,78.79c0.75,0.96,2.25,1.46,4.5,0.21c6.25-3.5,17.5-9.75,23.75-13.25"/>
	</g>
	<g id="kvg:05737-g2" kvg:element="下" kvg:position="right">
		<g id="kvg:05737-g3" kvg:element="一">
			<path id="kvg:05737-s4" kvg:type="㇐" d="M40,21.5c1.21,0.5,3.16,0.85,3.88,0.75C53.28,21,80.5,16.5,92.13,16c0.86-0.04,3.26,0.25,4.12,0.75"/>
		</g>
		<g id="kvg:05737-g4" kvg:element="卜" kvg:original="ト">
			<path id="kvg:05737-s5" kvg:type="㇐" d="M66.97,22.25c0.93,1.07,1.06,2.8,1.06,4.8c0,10.53-0.29,55.7-0.29,68.95"/>
			<path id="kvg:05737-s6" kvg:type="㇑" d="M70.66,41.42C76,43.75,84.25,52.25,86.78,57.12"/>
		</g>
	</g>
</g>
</g>
<g id="kvg:StrokeNumbers_05737" style="font-size:8;fill:#808080">
	<text transform="matrix(1 0 0 1 6.00 46.88)">1</text>
	<text transform="matrix(1 0 0 1 17.50 18.50)">2</text>
	<text transform="matrix(1 0 0 1 5.00 81.50)">3</text>
	<text transform="matrix(1 0 0 1 38.50 18.50)">4</text>
	<text transform="matrix(1 0 0 1 59.50 31.50)">5</text>
	<text transform="matrix(1 0 0 1 72.50 40.50)">6</text>
</g>
</svg>
