<?xml version="1.0" encoding="UTF-8"?>
<!--
Copyright (C) 2009/2010/2011 Ulrich Apel.
This work is distributed under the conditions of the Creative Commons 
Attribution-Share Alike 3.0 Licence. This means you are free:
* to Share - to copy, distribute and transmit the work
* to Remix - to adapt the work

Under the following conditions:
* Attribution. You must attribute the work by stating your use of KanjiVG in
  your own copyright header and linking to KanjiVG's website
  (http://kanjivg.tagaini.net)
* Share Alike. If you alter, transform, or build upon this work, you may
  distribute the resulting work only under the same or similar license to this
  one.

See http://creativecommons.org/licenses/by-sa/3.0/ for more details.
-->
<!DOCTYPE svg PUBLIC "-//W3C//DTD SVG 1.0//EN" "http://www.w3.org/TR/2001/REC-SVG-20010904/DTD/svg10.dtd" [
<!ATTLIST g
xmlns:kvg CDATA #FIXED "http://kanjivg.tagaini.net"
kvg:element CDATA #IMPLIED
kvg:variant CDATA #IMPLIED
kvg:partial CDATA #IMPLIED
kvg:original CDATA #IMPLIED
kvg:part CDATA #IMPLIED
kvg:number CDATA #IMPLIED
kvg:tradForm CDATA #IMPLIED
kvg:radicalForm CDATA #IMPLIED
kvg:position CDATA #IMPLIED
kvg:radical CDATA #IMPLIED
kvg:phon CDATA #IMPLIED >
<!ATTLIST path
xmlns:kvg CDATA #FIXED "http://kanjivg.tagaini.net"
kvg:type CDATA #IMPLIED >
]>
<svg xmlns="http://www.w3.org/2000/svg" width="109" height="109" viewBox="0 0 109 109">
<g id="kvg:StrokePaths_057d6" style="fill:none;stroke:#000000;stroke-width:3;stroke-linecap:round;stroke-linejoin:round;">
<g id="kvg:057d6" kvg:element="埖">
	<g id="kvg:057d6-g1" kvg:element="土" kvg:variant="true" kvg:position="left" kvg:radical="general">
		<path id="kvg:057d6-s1" kvg:type="㇐" d="M10.5,43.14c0.76,0.38,2.24,0.46,3,0.36c4.82-0.66,18.15-2.89,23.5-3.5c1.25-0.14,2.62-0.18,3.25,0.01"/>
		<path id="kvg:057d6-s2" kvg:type="㇑a" d="M24.87,16c1.09,0.5,1.96,2.23,1.96,3.25c0,7.25,0.03,39.75,0.03,50.5"/>
		<path id="kvg:057d6-s3" kvg:type="㇀/㇐" d="M12.5,76.69c0.71,1.06,2.13,1.62,4.26,0.23c5.92-3.88,16.57-10.79,22.49-14.67"/>
	</g>
	<g id="kvg:057d6-g2" kvg:element="花" kvg:position="right">
		<g id="kvg:057d6-g3" kvg:element="艹" kvg:variant="true" kvg:original="艸" kvg:position="top">
			<path id="kvg:057d6-s4" kvg:type="㇐" d="M41.46,27.09c0.93,0.43,2.01,0.47,2.94,0.43c10.15-0.45,29.5-3.52,47.29-3.64c1.55-0.01,2.48,0.21,3.25,0.42"/>
			<path id="kvg:057d6-s5" kvg:type="㇑a" d="M54.36,15.08c0.98,1.29,1.29,1.68,1.39,2.47c0.98,7.41,1.87,14.44,2.15,17.14"/>
			<path id="kvg:057d6-s6" kvg:type="㇑a" d="M79,12.91c0.25,1.09,0.57,1.9,0.3,3.23c-1.63,7.85-2.37,11.23-4.14,18.61"/>
		</g>
		<g id="kvg:057d6-g4" kvg:element="化" kvg:position="bottom">
			<g id="kvg:057d6-g5" kvg:element="亻" kvg:variant="true" kvg:original="人">
				<path id="kvg:057d6-s7" kvg:type="㇒" d="M55.49,44.37c0,1.34-0.57,3.37-1.15,4.52c-3.73,7.44-11.13,16.77-16.05,21.69"/>
				<path id="kvg:057d6-s8" kvg:type="㇑" d="M50.01,62.64c0.64,1.13,1.01,2.73,1.03,3.89c0.14,8.64-0.48,24.74-0.1,28.97"/>
			</g>
			<g id="kvg:057d6-g6" kvg:element="匕">
				<path id="kvg:057d6-s9" kvg:type="㇒" d="M90.31,51.04c0,1.22,0.04,2.58-1.13,3.56c-5.31,4.46-10.57,8.62-17.62,12.86"/>
				<path id="kvg:057d6-s10" kvg:type="㇟" d="M69.48,43.14c0.54,0.74,1.25,2.69,1.25,3.72c0,3.96-0.53,36.17,0.18,39.14c0.71,2.97,2.85,6.19,5.71,6.44c2.85,0.25,15.34,0.49,17.12-1.73c1.78-2.23,1.96-5.45,2.14-7.68"/>
			</g>
		</g>
	</g>
</g>
</g>
<g id="kvg:StrokeNumbers_057d6" style="font-size:8;fill:#808080">
	<text transform="matrix(1 0 0 1 4.50 43.50)">1</text>
	<text transform="matrix(1 0 0 1 16.50 15.50)">2</text>
	<text transform="matrix(1 0 0 1 5.50 77.50)">3</text>
	<text transform="matrix(1 0 0 1 34.50 27.50)">4</text>
	<text transform="matrix(1 0 0 1 45.50 15.50)">5</text>
	<text transform="matrix(1 0 0 1 70.50 13.50)">6</text>
	<text transform="matrix(1 0 0 1 47.50 45.50)">7</text>
	<text transform="matrix(1 0 0 1 43.50 74.50)">8</text>
	<text transform="matrix(1 0 0 1 82.50 51.50)">9</text>
	<text transform="matrix(1 0 0 1 62.50 40.50)">10</text>
</g>
</svg>
