<?xml version="1.0" encoding="UTF-8"?>
<!--
Copyright (C) 2009/2010/2011 Ulrich Apel.
This work is distributed under the conditions of the Creative Commons 
Attribution-Share Alike 3.0 Licence. This means you are free:
* to Share - to copy, distribute and transmit the work
* to Remix - to adapt the work

Under the following conditions:
* Attribution. You must attribute the work by stating your use of KanjiVG in
  your own copyright header and linking to KanjiVG's website
  (http://kanjivg.tagaini.net)
* Share Alike. If you alter, transform, or build upon this work, you may
  distribute the resulting work only under the same or similar license to this
  one.

See http://creativecommons.org/licenses/by-sa/3.0/ for more details.
-->
<!DOCTYPE svg PUBLIC "-//W3C//DTD SVG 1.0//EN" "http://www.w3.org/TR/2001/REC-SVG-20010904/DTD/svg10.dtd" [
<!ATTLIST g
xmlns:kvg CDATA #FIXED "http://kanjivg.tagaini.net"
kvg:element CDATA #IMPLIED
kvg:variant CDATA #IMPLIED
kvg:partial CDATA #IMPLIED
kvg:original CDATA #IMPLIED
kvg:part CDATA #IMPLIED
kvg:number CDATA #IMPLIED
kvg:tradForm CDATA #IMPLIED
kvg:radicalForm CDATA #IMPLIED
kvg:position CDATA #IMPLIED
kvg:radical CDATA #IMPLIED
kvg:phon CDATA #IMPLIED >
<!ATTLIST path
xmlns:kvg CDATA #FIXED "http://kanjivg.tagaini.net"
kvg:type CDATA #IMPLIED >
]>
<svg xmlns="http://www.w3.org/2000/svg" width="109" height="109" viewBox="0 0 109 109">
<g id="kvg:StrokePaths_057fa" style="fill:none;stroke:#000000;stroke-width:3;stroke-linecap:round;stroke-linejoin:round;">
<g id="kvg:057fa" kvg:element="基">
	<g id="kvg:057fa-g1" kvg:element="其" kvg:position="top" kvg:phon="其">
		<g id="kvg:057fa-g2" kvg:position="top">
			<g id="kvg:057fa-g3" kvg:element="甘">
				<g id="kvg:057fa-g4" kvg:element="廿" kvg:part="1">
					<g id="kvg:057fa-g5" kvg:element="十">
						<path id="kvg:057fa-s1" kvg:type="㇐" d="M24.68,24.71c2.95,0.54,6.74,0.27,9.52,0c12.05-1.21,28.8-2.99,41.31-3.44c2.52-0.09,4.82,0.06,7.32,0.43"/>
						<path id="kvg:057fa-s2" kvg:type="㇑a" d="M39.61,13.27c0.87,0.87,1.31,2.23,1.31,3.45c0,0.78,0.7,29.53,0.8,38.47"/>
					</g>
					<path id="kvg:057fa-s3" kvg:type="㇑a" d="M64.08,11.25c0.9,0.9,1.3,2.17,1.31,2.95c0.11,6.8-0.27,30.3-0.45,39.23"/>
				</g>
				<path id="kvg:057fa-s4" kvg:type="㇐a" d="M42.6,34.7c3.7-0.19,17.79-1.64,21.26-1.82"/>
				<g id="kvg:057fa-g6" kvg:element="廿" kvg:part="2">
					<path id="kvg:057fa-s5" kvg:type="㇐a" d="M42.83,45.26c6.42-0.76,16.19-1.45,21.05-1.82"/>
				</g>
			</g>
			<path id="kvg:057fa-s6" kvg:type="㇐" d="M17.4,57.35c3.97,0.77,7.2,0.52,10.96,0.12c12.9-1.37,38.85-3.48,53.02-4.19c3.35-0.17,6.91-0.15,10.22,0.43"/>
		</g>
		<g id="kvg:057fa-g7" kvg:element="八" kvg:position="bottom">
			<path id="kvg:057fa-s7" kvg:type="㇒" d="M40.72,56.75c0.28,0.62,0.19,1.71-0.34,2.57C36.25,66,27.75,75.5,15.25,81"/>
			<path id="kvg:057fa-s8" kvg:type="㇏" d="M63.12,55.38c7.1,4.77,17.86,17.23,24.91,21.1c2.72,1.49,3.7,2.3,6.34,2.78"/>
		</g>
	</g>
	<g id="kvg:057fa-g8" kvg:element="土" kvg:position="bottom" kvg:radical="general">
		<path id="kvg:057fa-s9" kvg:type="㇐" d="M37.77,76.67c1.61,0.33,3.49,0.2,5.13,0.02c5.17-0.58,14.85-1.72,20.85-2.03c1.81-0.09,3.7-0.21,5.49,0.19"/>
		<path id="kvg:057fa-s10" kvg:type="㇑a" d="M52.18,62.62c1.04,1.04,1.56,2.58,1.56,3.9c0,8.5-0.07,12.68-0.07,23.91"/>
		<path id="kvg:057fa-s11" kvg:type="㇐" d="M24.2,93.62c2.21,0.41,6.29,0.35,8.49,0.16c17.9-1.53,24.6-2.65,43.74-3.23c3.68-0.11,5.9,0.2,7.75,0.4"/>
	</g>
</g>
</g>
<g id="kvg:StrokeNumbers_057fa" style="font-size:8;fill:#808080">
	<text transform="matrix(1 0 0 1 18.49 24.13)">1</text>
	<text transform="matrix(1 0 0 1 30.50 13.50)">2</text>
	<text transform="matrix(1 0 0 1 54.50 12.50)">3</text>
	<text transform="matrix(1 0 0 1 45.50 31.50)">4</text>
	<text transform="matrix(1 0 0 1 45.68 42.50)">5</text>
	<text transform="matrix(1 0 0 1 9.50 58.50)">6</text>
	<text transform="matrix(1 0 0 1 28.50 67.50)">7</text>
	<text transform="matrix(1 0 0 1 60.50 64.63)">8</text>
	<text transform="matrix(1 0 0 1 30.75 79.50)">9</text>
	<text transform="matrix(1 0 0 1 42.50 69.50)">10</text>
	<text transform="matrix(1 0 0 1 14.44 95.50)">11</text>
</g>
</svg>
