<?xml version="1.0" encoding="UTF-8"?>
<!--
Copyright (C) 2009/2010/2011 Ulrich Apel.
This work is distributed under the conditions of the Creative Commons 
Attribution-Share Alike 3.0 Licence. This means you are free:
* to Share - to copy, distribute and transmit the work
* to Remix - to adapt the work

Under the following conditions:
* Attribution. You must attribute the work by stating your use of KanjiVG in
  your own copyright header and linking to KanjiVG's website
  (http://kanjivg.tagaini.net)
* Share Alike. If you alter, transform, or build upon this work, you may
  distribute the resulting work only under the same or similar license to this
  one.

See http://creativecommons.org/licenses/by-sa/3.0/ for more details.
-->
<!DOCTYPE svg PUBLIC "-//W3C//DTD SVG 1.0//EN" "http://www.w3.org/TR/2001/REC-SVG-20010904/DTD/svg10.dtd" [
<!ATTLIST g
xmlns:kvg CDATA #FIXED "http://kanjivg.tagaini.net"
kvg:element CDATA #IMPLIED
kvg:variant CDATA #IMPLIED
kvg:partial CDATA #IMPLIED
kvg:original CDATA #IMPLIED
kvg:part CDATA #IMPLIED
kvg:number CDATA #IMPLIED
kvg:tradForm CDATA #IMPLIED
kvg:radicalForm CDATA #IMPLIED
kvg:position CDATA #IMPLIED
kvg:radical CDATA #IMPLIED
kvg:phon CDATA #IMPLIED >
<!ATTLIST path
xmlns:kvg CDATA #FIXED "http://kanjivg.tagaini.net"
kvg:type CDATA #IMPLIED >
]>
<svg xmlns="http://www.w3.org/2000/svg" width="109" height="109" viewBox="0 0 109 109">
<g id="kvg:StrokePaths_057f9-Kaisho" style="fill:none;stroke:#000000;stroke-width:3;stroke-linecap:round;stroke-linejoin:round;">
<g id="kvg:057f9-Kaisho" kvg:element="培">
	<g id="kvg:057f9-Kaisho-g1" kvg:element="土" kvg:variant="true" kvg:position="left" kvg:radical="general">
		<path id="kvg:057f9-Kaisho-s1" kvg:type="㇐" d="M13,43.64c0.76,0.38,2.24,0.46,3,0.36c4.82-0.66,16.15-2.39,21.5-3c1.25-0.14,2.62-0.18,3.25,0.01"/>
		<path id="kvg:057f9-Kaisho-s2" kvg:type="㇑a" d="M27.37,18.5c1.09,0.5,1.96,2.23,1.96,3.25c0,7.25,0.03,36.25,0.03,47"/>
		<path id="kvg:057f9-Kaisho-s3" kvg:type="㇀/㇐" d="M13.5,76.29c0.75,0.96,2.29,1.53,4.5,0.21C25.5,72,31.5,67,40.25,61.75"/>
	</g>
	<g id="kvg:057f9-Kaisho-g2" kvg:position="right">
		<g id="kvg:057f9-Kaisho-g3" kvg:element="立" kvg:position="top">
			<g id="kvg:057f9-Kaisho-g4" kvg:element="亠" kvg:position="top">
				<path id="kvg:057f9-Kaisho-s4" kvg:type="㇑a" d="M64.4,12.75c3.85,3.21,6.7,7.13,8.62,10.83"/>
				<path id="kvg:057f9-Kaisho-s5" kvg:type="㇐" d="M47.5,30.5c1.16,0.32,2.53,0.37,3.68,0.32c6.57-0.28,25.57-3.49,35.49-3.72c1.94-0.05,3.1,0.15,4.07,0.32"/>
			</g>
			<g id="kvg:057f9-Kaisho-g5" kvg:position="bottom">
				<path id="kvg:057f9-Kaisho-s6" kvg:type="㇔" d="M55.5,37.2c3.56,4.7,5.18,9.5,5.5,12.6"/>
				<path id="kvg:057f9-Kaisho-s7" kvg:type="㇒" d="M81.5,31.01c0.77,0.64,0.43,1.99,0.27,2.5c-1.52,4.73-5.23,13.72-6.77,16.51"/>
				<path id="kvg:057f9-Kaisho-s8" kvg:type="㇐" d="M43.25,55.76c1.46,0.39,3.17,0.54,4.62,0.39c15.88-1.67,26.88-3.64,45.28-4.43c2.43-0.1,3.89,0.18,5.1,0.38"/>
			</g>
		</g>
		<g id="kvg:057f9-Kaisho-g6" kvg:element="口" kvg:position="bottom">
			<path id="kvg:057f9-Kaisho-s9" kvg:type="㇑" d="M52.25,67.94c0.42,0.39,0.85,0.71,1.04,1.2C54.75,72.99,56,85.09,57,92"/>
			<path id="kvg:057f9-Kaisho-s10" kvg:type="㇕b" d="M54.88,69.07c8.87-1.27,25.62-2.75,30.56-3.25c1.8-0.18,2.89,1.1,2.63,2.18c-1.07,4.5-2.82,12.4-4.41,18.62"/>
			<path id="kvg:057f9-Kaisho-s11" kvg:type="㇐b" d="M57.2,89.61c5.8-0.57,20.3-1.56,28.27-2.44"/>
		</g>
	</g>
</g>
</g>
<g id="kvg:StrokeNumbers_057f9-Kaisho" style="font-size:8;fill:#808080">
	<text transform="matrix(1 0 0 1 6.75 43.63)">1</text>
	<text transform="matrix(1 0 0 1 18.75 18.50)">2</text>
	<text transform="matrix(1 0 0 1 6.75 84.13)">3</text>
	<text transform="matrix(1 0 0 1 59.25 12.13)">4</text>
	<text transform="matrix(1 0 0 1 45.50 27.05)">5</text>
	<text transform="matrix(1 0 0 1 48.50 40.48)">6</text>
	<text transform="matrix(1 0 0 1 73.50 37.50)">7</text>
	<text transform="matrix(1 0 0 1 42.50 52.55)">8</text>
	<text transform="matrix(1 0 0 1 45.75 75.50)">9</text>
	<text transform="matrix(1 0 0 1 55.50 65.50)">10</text>
	<text transform="matrix(1 0 0 1 59.50 85.50)">11</text>
</g>
</svg>
