<?xml version="1.0" encoding="UTF-8"?>
<!--
Copyright (C) 2009/2010/2011 Ulrich Apel.
This work is distributed under the conditions of the Creative Commons 
Attribution-Share Alike 3.0 Licence. This means you are free:
* to Share - to copy, distribute and transmit the work
* to Remix - to adapt the work

Under the following conditions:
* Attribution. You must attribute the work by stating your use of KanjiVG in
  your own copyright header and linking to KanjiVG's website
  (http://kanjivg.tagaini.net)
* Share Alike. If you alter, transform, or build upon this work, you may
  distribute the resulting work only under the same or similar license to this
  one.

See http://creativecommons.org/licenses/by-sa/3.0/ for more details.
-->
<!DOCTYPE svg PUBLIC "-//W3C//DTD SVG 1.0//EN" "http://www.w3.org/TR/2001/REC-SVG-20010904/DTD/svg10.dtd" [
<!ATTLIST g
xmlns:kvg CDATA #FIXED "http://kanjivg.tagaini.net"
kvg:element CDATA #IMPLIED
kvg:variant CDATA #IMPLIED
kvg:partial CDATA #IMPLIED
kvg:original CDATA #IMPLIED
kvg:part CDATA #IMPLIED
kvg:number CDATA #IMPLIED
kvg:tradForm CDATA #IMPLIED
kvg:radicalForm CDATA #IMPLIED
kvg:position CDATA #IMPLIED
kvg:radical CDATA #IMPLIED
kvg:phon CDATA #IMPLIED >
<!ATTLIST path
xmlns:kvg CDATA #FIXED "http://kanjivg.tagaini.net"
kvg:type CDATA #IMPLIED >
]>
<svg xmlns="http://www.w3.org/2000/svg" width="109" height="109" viewBox="0 0 109 109">
<g id="kvg:StrokePaths_057f4" style="fill:none;stroke:#000000;stroke-width:3;stroke-linecap:round;stroke-linejoin:round;">
<g id="kvg:057f4" kvg:element="埴">
	<g id="kvg:057f4-g1" kvg:element="土" kvg:variant="true" kvg:position="left" kvg:radical="general">
		<path id="kvg:057f4-s1" kvg:type="㇐" d="M12.75,43.14c2.07,0.45,4.16,0.48,6.25,0.1c4.93-0.84,12-2.22,16.51-2.83c1.49-0.24,2.99-0.29,4.5-0.15"/>
		<path id="kvg:057f4-s2" kvg:type="㇑a" d="M27.12,17.75c1.19,1.19,1.21,2.62,1.21,4c0,1.02,0.03,41,0.03,47.75"/>
		<path id="kvg:057f4-s3" kvg:type="㇀/㇐" d="M12.25,77.78c1.38,0.97,2.88,0.84,4.78-0.24c7.2-4.09,14.24-8.59,21.22-13.05"/>
	</g>
	<g id="kvg:057f4-g2" kvg:element="直" kvg:position="right">
		<g id="kvg:057f4-g3" kvg:element="十">
			<path id="kvg:057f4-s4" kvg:type="㇐" d="M49.66,27.72c2.75,0.52,5.51,0.46,8.32,0.18C67,27,77.13,26.04,87.75,25.4c2.37-0.21,4.71-0.09,7.03,0.37"/>
			<path id="kvg:057f4-s5" kvg:type="㇑a" d="M71.74,13.37c0.94,0.94,1.18,2.14,1.06,3.37c-0.8,7.76-1.42,13.14-2.55,22.64"/>
		</g>
		<g id="kvg:057f4-g4" kvg:element="目">
			<path id="kvg:057f4-s6" kvg:type="㇑" d="M57.1,40.34c0.97,0.97,1.11,2.13,1.11,3.29c0,2.19-0.03,14.74-0.04,25.49c0,3.95-0.01,7.65-0.01,10.51"/>
			<path id="kvg:057f4-s7" kvg:type="㇕a" d="M59.22,41.59c2.47-0.14,19.67-1.94,24.39-2.37c2.53-0.23,4.36,1.21,4.36,3.77c0,3.57-0.05,15.5-0.08,26.01c-0.01,3.48-0.01,6.81-0.01,9.62"/>
			<path id="kvg:057f4-s8" kvg:type="㇐a" d="M58.67,53.27c7.46-0.64,21.96-1.64,27.93-1.84"/>
			<path id="kvg:057f4-s9" kvg:type="㇐a" d="M59.12,65.43c6.79-0.49,20.83-1.74,27.42-1.74"/>
			<path id="kvg:057f4-s10" kvg:type="㇐a" d="M59.63,77.47c4.73-0.44,23.53-1.27,26.94-1.27"/>
		</g>
		<path id="kvg:057f4-s11" kvg:type="㇗" d="M46.43,55.47c0.99,0.99,1.03,2.53,1.03,3.88c0,2.28-0.03,23.15-0.03,25.87c0,2.34,1.15,3.28,3.24,3.17c14.7-0.77,24.55-1.21,37.33-1.66c3.83-0.19,7.88-0.48,11.5,0.15"/>
	</g>
</g>
</g>
<g id="kvg:StrokeNumbers_057f4" style="font-size:8;fill:#808080">
	<text transform="matrix(1 0 0 1 5.50 43.50)">1</text>
	<text transform="matrix(1 0 0 1 17.00 17.50)">2</text>
	<text transform="matrix(1 0 0 1 4.50 81.50)">3</text>
	<text transform="matrix(1 0 0 1 42.50 27.50)">4</text>
	<text transform="matrix(1 0 0 1 61.50 12.50)">5</text>
	<text transform="matrix(1 0 0 1 50.25 46.50)">6</text>
	<text transform="matrix(1 0 0 1 60.50 38.50)">7</text>
	<text transform="matrix(1 0 0 1 62.50 50.50)">8</text>
	<text transform="matrix(1 0 0 1 62.50 62.28)">9</text>
	<text transform="matrix(1 0 0 1 61.50 74.50)">10</text>
	<text transform="matrix(1 0 0 1 39.25 51.38)">11</text>
</g>
</svg>
