<?xml version="1.0" encoding="UTF-8"?>
<!--
Copyright (C) 2009/2010/2011 Ulrich Apel.
This work is distributed under the conditions of the Creative Commons 
Attribution-Share Alike 3.0 Licence. This means you are free:
* to Share - to copy, distribute and transmit the work
* to Remix - to adapt the work

Under the following conditions:
* Attribution. You must attribute the work by stating your use of KanjiVG in
  your own copyright header and linking to KanjiVG's website
  (http://kanjivg.tagaini.net)
* Share Alike. If you alter, transform, or build upon this work, you may
  distribute the resulting work only under the same or similar license to this
  one.

See http://creativecommons.org/licenses/by-sa/3.0/ for more details.
-->
<!DOCTYPE svg PUBLIC "-//W3C//DTD SVG 1.0//EN" "http://www.w3.org/TR/2001/REC-SVG-20010904/DTD/svg10.dtd" [
<!ATTLIST g
xmlns:kvg CDATA #FIXED "http://kanjivg.tagaini.net"
kvg:element CDATA #IMPLIED
kvg:variant CDATA #IMPLIED
kvg:partial CDATA #IMPLIED
kvg:original CDATA #IMPLIED
kvg:part CDATA #IMPLIED
kvg:number CDATA #IMPLIED
kvg:tradForm CDATA #IMPLIED
kvg:radicalForm CDATA #IMPLIED
kvg:position CDATA #IMPLIED
kvg:radical CDATA #IMPLIED
kvg:phon CDATA #IMPLIED >
<!ATTLIST path
xmlns:kvg CDATA #FIXED "http://kanjivg.tagaini.net"
kvg:type CDATA #IMPLIED >
]>
<svg xmlns="http://www.w3.org/2000/svg" width="109" height="109" viewBox="0 0 109 109">
<g id="kvg:StrokePaths_05883-Kaisho" style="fill:none;stroke:#000000;stroke-width:3;stroke-linecap:round;stroke-linejoin:round;">
<g id="kvg:05883-Kaisho" kvg:element="境">
	<g id="kvg:05883-Kaisho-g1" kvg:element="土" kvg:variant="true" kvg:position="left" kvg:radical="general">
		<path id="kvg:05883-Kaisho-s1" kvg:type="㇐" d="M13,40.14c0.76,0.38,2.24,0.46,3,0.36c4.82-0.66,14.65-2.39,20-3c1.25-0.14,2.62-0.18,3.25,0.01"/>
		<path id="kvg:05883-Kaisho-s2" kvg:type="㇑a" d="M25.87,16.5c1.09,0.5,1.96,2.23,1.96,3.25c0,7.25,0.03,36.25,0.03,47"/>
		<path id="kvg:05883-Kaisho-s3" kvg:type="㇀/㇐" d="M12.5,73.79c0.75,0.96,2.25,1.46,4.5,0.21c6.25-3.5,17.5-9.75,23.75-13.25"/>
	</g>
	<g id="kvg:05883-Kaisho-g2" kvg:element="竟" kvg:position="right">
		<g id="kvg:05883-Kaisho-g3" kvg:element="立" kvg:position="top">
			<g id="kvg:05883-Kaisho-g4" kvg:element="音" kvg:part="1">
				<g id="kvg:05883-Kaisho-g5" kvg:element="亠" kvg:position="top">
					<path id="kvg:05883-Kaisho-s4" kvg:type="㇑a" d="M60.29,10.65c3.96,1.69,5.87,4.15,7.31,7.9"/>
					<path id="kvg:05883-Kaisho-s5" kvg:type="㇐" d="M45.45,25.04c0.67,0.09,2.21,0.56,2.86,0.47c2.67-0.38,25.14-3.16,33.72-3.45c1.11-0.04,1.77-0.03,2.33,0.01"/>
				</g>
				<g id="kvg:05883-Kaisho-g6" kvg:position="bottom">
					<path id="kvg:05883-Kaisho-s6" kvg:type="㇔" d="M52.36,28.39c2.78,3.71,3.85,8.13,4.25,10.64"/>
					<path id="kvg:05883-Kaisho-s7" kvg:type="㇒" d="M76.55,25.98c0.2,1.02,0.27,2.51,0.16,2.84c-1.15,3.38-3.98,8.12-4.84,10.03"/>
					<path id="kvg:05883-Kaisho-s8" kvg:type="㇐" d="M40.85,43.38c1.18,0.13,2.96,0.17,4.08,0.08c10.6-0.93,32.15-4.04,43.81-4.41c1.94-0.06,4.11,0.2,5.28,0.69"/>
				</g>
			</g>
		</g>
		<g id="kvg:05883-Kaisho-g7" kvg:position="bottom">
			<g id="kvg:05883-Kaisho-g8" kvg:element="日">
				<g id="kvg:05883-Kaisho-g9" kvg:element="音" kvg:part="2">
					<path id="kvg:05883-Kaisho-s9" kvg:type="㇑" d="M47.63,49.63c0.44,0.51,1.09,1.71,1.19,2.38c0.46,3.1,3.1,17.48,3.1,17.82"/>
					<path id="kvg:05883-Kaisho-s10" kvg:type="㇕" d="M48.42,50.66c2.48-0.08,29.32-2.45,31.5-2.78c2.18-0.33,3.32,1.91,3.21,2.76c-0.9,6.66-1.65,10.75-3.35,17.73"/>
					<path id="kvg:05883-Kaisho-s11" kvg:type="㇐" d="M50.37,59.45c4.81,0.01,9.72-0.79,14.49-1.28c1.65-0.17,4.32-0.34,5.95-0.51"/>
					<path id="kvg:05883-Kaisho-s12" kvg:type="㇐" d="M51.82,68.46c4.95,0.02,18.43-1.96,28.01-2.39"/>
				</g>
			</g>
			<g id="kvg:05883-Kaisho-g10" kvg:element="儿">
				<g id="kvg:05883-Kaisho-g11" kvg:element="丿" kvg:position="left">
					<path id="kvg:05883-Kaisho-s13" kvg:type="㇒" d="M56.47,74.15c0.05,0.55,0.11,1.41-0.1,2.2c-1.26,4.64-7.91,15.71-18.42,21.07"/>
				</g>
				<g id="kvg:05883-Kaisho-g12" kvg:position="right">
					<path id="kvg:05883-Kaisho-s14" kvg:type="㇟" d="M69.02,70.22c0.5,0.99,0.9,2.16,0.93,3.7c0.13,6.84,0.03,8.29,0.03,12.94c0,8.64,3.27,9.63,11.94,9.63c6.25,0,10.36-1.4,11.24-2.19c1.86-1.67,1.35-2.51,1.52-5.43"/>
				</g>
			</g>
		</g>
	</g>
</g>
</g>
<g id="kvg:StrokeNumbers_05883-Kaisho" style="font-size:8;fill:#808080">
	<text transform="matrix(1 0 0 1 6.75 40.50)">1</text>
	<text transform="matrix(1 0 0 1 16.50 16.50)">2</text>
	<text transform="matrix(1 0 0 1 5.25 75.13)">3</text>
	<text transform="matrix(1 0 0 1 54.50 11.50)">4</text>
	<text transform="matrix(1 0 0 1 45.49 22.50)">5</text>
	<text transform="matrix(1 0 0 1 46.50 33.50)">6</text>
	<text transform="matrix(1 0 0 1 69.50 31.50)">7</text>
	<text transform="matrix(1 0 0 1 42.50 40.50)">8</text>
	<text transform="matrix(1 0 0 1 41.25 57.13)">9</text>
	<text transform="matrix(1 0 0 1 49.50 49.50)">10</text>
	<text transform="matrix(1 0 0 1 54.50 57.50)">11</text>
	<text transform="matrix(1 0 0 1 54.50 66.50)">12</text>
	<text transform="matrix(1 0 0 1 45.50 79.50)">13</text>
	<text transform="matrix(1 0 0 1 60.50 84.50)">14</text>
</g>
</svg>
