<?xml version="1.0" encoding="UTF-8"?>
<!--
Copyright (C) 2009/2010/2011 Ulrich Apel.
This work is distributed under the conditions of the Creative Commons 
Attribution-Share Alike 3.0 Licence. This means you are free:
* to Share - to copy, distribute and transmit the work
* to Remix - to adapt the work

Under the following conditions:
* Attribution. You must attribute the work by stating your use of KanjiVG in
  your own copyright header and linking to KanjiVG's website
  (http://kanjivg.tagaini.net)
* Share Alike. If you alter, transform, or build upon this work, you may
  distribute the resulting work only under the same or similar license to this
  one.

See http://creativecommons.org/licenses/by-sa/3.0/ for more details.
-->
<!DOCTYPE svg PUBLIC "-//W3C//DTD SVG 1.0//EN" "http://www.w3.org/TR/2001/REC-SVG-20010904/DTD/svg10.dtd" [
<!ATTLIST g
xmlns:kvg CDATA #FIXED "http://kanjivg.tagaini.net"
kvg:element CDATA #IMPLIED
kvg:variant CDATA #IMPLIED
kvg:partial CDATA #IMPLIED
kvg:original CDATA #IMPLIED
kvg:part CDATA #IMPLIED
kvg:number CDATA #IMPLIED
kvg:tradForm CDATA #IMPLIED
kvg:radicalForm CDATA #IMPLIED
kvg:position CDATA #IMPLIED
kvg:radical CDATA #IMPLIED
kvg:phon CDATA #IMPLIED >
<!ATTLIST path
xmlns:kvg CDATA #FIXED "http://kanjivg.tagaini.net"
kvg:type CDATA #IMPLIED >
]>
<svg xmlns="http://www.w3.org/2000/svg" width="109" height="109" viewBox="0 0 109 109">
<g id="kvg:StrokePaths_05897-Kaisho" style="fill:none;stroke:#000000;stroke-width:3;stroke-linecap:round;stroke-linejoin:round;">
<g id="kvg:05897-Kaisho" kvg:element="増">
	<g id="kvg:05897-Kaisho-g1" kvg:element="土" kvg:variant="true" kvg:position="left" kvg:radical="general">
		<path id="kvg:05897-Kaisho-s1" kvg:type="㇐" d="M12,46.64c0.76,0.38,2.24,0.46,3,0.36c4.82-0.66,13.65-2.39,19-3c1.25-0.14,2.62-0.68,3.25-0.49"/>
		<path id="kvg:05897-Kaisho-s2" kvg:type="㇑a" d="M25.87,21.5c1.09,0.5,1.96,2.23,1.96,3.25c0,7.25,0.03,36.75,0.03,47.5"/>
		<path id="kvg:05897-Kaisho-s3" kvg:type="㇀/㇐" d="M13.5,80.3c0.66,1.2,1.99,1.83,3.98,0.26C23.01,76.19,32.97,68.38,38.5,64"/>
	</g>
	<g id="kvg:05897-Kaisho-g2" kvg:element="曽" kvg:position="right">
		<g id="kvg:05897-Kaisho-g3" kvg:position="top">
			<path id="kvg:05897-Kaisho-s4" kvg:type="㇔" d="M49.01,13.55c2.97,2.15,7.68,8.86,8.43,12.21"/>
			<path id="kvg:05897-Kaisho-s5" kvg:type="㇒" d="M81.08,9.81c0.03,0.36,0.05,0.94-0.05,1.46c-0.61,3.09-4.1,9.86-8.87,14"/>
			<g id="kvg:05897-Kaisho-g4" kvg:element="田">
				<path id="kvg:05897-Kaisho-s6" kvg:type="㇑" d="M43.01,32.44c0.36,0.43,0.36,0.73,0.56,1.27c1.6,4.47,2.71,15.8,3.71,24.16"/>
				<path id="kvg:05897-Kaisho-s7" kvg:type="㇕a" d="M44.67,33.02c12.36-1.28,34.58-4.16,45.67-5.1c3.4-0.29,3.58,2.71,3.41,3.95c-0.63,4.53-2.5,14.7-4.55,22.51"/>
				<path id="kvg:05897-Kaisho-s8" kvg:type="㇑a" d="M66.31,31.84c0.94,0.41,1.51,1.86,1.51,2.91c0,5.19-0.09,11.81-0.02,19.19"/>
				<path id="kvg:05897-Kaisho-s9" kvg:type="㇐a" d="M46.59,45.01c9.95-1.22,19.96-2.08,29.94-3.06c1.2-0.12,2.37-0.23,3.49-0.34"/>
				<path id="kvg:05897-Kaisho-s10" kvg:type="㇐a" d="M47.92,56.14c11.39-1.3,29.08-2.94,41.37-3.88"/>
			</g>
		</g>
		<g id="kvg:05897-Kaisho-g5" kvg:element="日" kvg:position="bottom">
			<path id="kvg:05897-Kaisho-s11" kvg:type="㇑" d="M51.56,66.64c0.61,0.69,1.18,2.49,1.22,3.4c0.42,8.73-0.03,15.21,0.23,28.46"/>
			<path id="kvg:05897-Kaisho-s12" kvg:type="㇕a" d="M52.98,68.21c3.45-0.11,25.49-2.92,28.63-3.06c2.62-0.11,3.28,1.34,3.28,3.4c0,6.2-0.14,13.45-0.68,27.98"/>
			<path id="kvg:05897-Kaisho-s13" kvg:type="㇐a" d="M53.91,81.48c6.09-0.48,9.92-0.8,14.81-1.31c1.57-0.16,3.14-0.33,4.66-0.48"/>
			<path id="kvg:05897-Kaisho-s14" kvg:type="㇐a" d="M54.44,95.77c9.24-0.45,18.56-2.02,29.5-2.42"/>
		</g>
	</g>
</g>
</g>
<g id="kvg:StrokeNumbers_05897-Kaisho" style="font-size:8;fill:#808080">
	<text transform="matrix(1 0 0 1 5.50 47.50)">1</text>
	<text transform="matrix(1 0 0 1 17.50 21.50)">2</text>
	<text transform="matrix(1 0 0 1 5.25 83.50)">3</text>
	<text transform="matrix(1 0 0 1 41.50 13.50)">4</text>
	<text transform="matrix(1 0 0 1 72.50 10.50)">5</text>
	<text transform="matrix(1 0 0 1 36.50 39.13)">6</text>
	<text transform="matrix(1 0 0 1 43.50 30.50)">7</text>
	<text transform="matrix(1 0 0 1 61.00 38.50)">8</text>
	<text transform="matrix(1 0 0 1 49.50 41.50)">9</text>
	<text transform="matrix(1 0 0 1 50.50 52.48)">10</text>
	<text transform="matrix(1 0 0 1 42.50 74.50)">11</text>
	<text transform="matrix(1 0 0 1 53.50 65.50)">12</text>
	<text transform="matrix(1 0 0 1 56.45 77.75)">13</text>
	<text transform="matrix(1 0 0 1 56.50 92.68)">14</text>
</g>
</svg>
