<?xml version="1.0" encoding="UTF-8"?>
<!--
Copyright (C) 2009/2010/2011 Ulrich Apel.
This work is distributed under the conditions of the Creative Commons 
Attribution-Share Alike 3.0 Licence. This means you are free:
* to Share - to copy, distribute and transmit the work
* to Remix - to adapt the work

Under the following conditions:
* Attribution. You must attribute the work by stating your use of KanjiVG in
  your own copyright header and linking to KanjiVG's website
  (http://kanjivg.tagaini.net)
* Share Alike. If you alter, transform, or build upon this work, you may
  distribute the resulting work only under the same or similar license to this
  one.

See http://creativecommons.org/licenses/by-sa/3.0/ for more details.
-->
<!DOCTYPE svg PUBLIC "-//W3C//DTD SVG 1.0//EN" "http://www.w3.org/TR/2001/REC-SVG-20010904/DTD/svg10.dtd" [
<!ATTLIST g
xmlns:kvg CDATA #FIXED "http://kanjivg.tagaini.net"
kvg:element CDATA #IMPLIED
kvg:variant CDATA #IMPLIED
kvg:partial CDATA #IMPLIED
kvg:original CDATA #IMPLIED
kvg:part CDATA #IMPLIED
kvg:number CDATA #IMPLIED
kvg:tradForm CDATA #IMPLIED
kvg:radicalForm CDATA #IMPLIED
kvg:position CDATA #IMPLIED
kvg:radical CDATA #IMPLIED
kvg:phon CDATA #IMPLIED >
<!ATTLIST path
xmlns:kvg CDATA #FIXED "http://kanjivg.tagaini.net"
kvg:type CDATA #IMPLIED >
]>
<svg xmlns="http://www.w3.org/2000/svg" width="109" height="109" viewBox="0 0 109 109">
<g id="kvg:StrokePaths_058fd" style="fill:none;stroke:#000000;stroke-width:3;stroke-linecap:round;stroke-linejoin:round;">
<g id="kvg:058fd" kvg:element="壽">
	<g id="kvg:058fd-g1" kvg:element="士" kvg:variant="true" kvg:original="土" kvg:position="top" kvg:radical="general">
		<path id="kvg:058fd-s1" kvg:type="㇐" d="M25.75,19.13c1.06,0.38,3.01,0.44,4.07,0.38c11.05-0.63,34.09-4.63,46.72-4.61c1.77,0,2.83,0.18,3.71,0.37"/>
		<path id="kvg:058fd-s2" kvg:type="㇑" d="M51.73,8.25c0.87,0.35,1.4,1.57,1.57,2.27s0.5,10.97,0.33,15.34"/>
		<path id="kvg:058fd-s3" kvg:type="㇐" d="M32.93,28.11c0.85,0.26,2.4,0.36,3.24,0.26c9.33-1.12,26.45-3.83,38.26-3.81c1.41,0,2.26,0.12,2.96,0.25"/>
	</g>
	<g id="kvg:058fd-g2" kvg:position="bottom">
		<path id="kvg:058fd-s4" kvg:type="㇖" d="M16.24,37.74c1.51,0.51,2.5,0.42,5.27,0.15c14.24-1.39,57.2-5.22,64.18-5.55c12.05-0.59,3.05,6.66,0.05,8.78"/>
		<g id="kvg:058fd-g3" kvg:element="工">
			<path id="kvg:058fd-s5" kvg:type="㇐" d="M32.7,43.69c0.7,0.38,2.97,0.5,3.67,0.39c3.27-0.52,28.53-2.99,34.03-3.38c1.07-0.08,2.05,0.08,2.94,0.4"/>
			<path id="kvg:058fd-s6" kvg:type="㇑a" d="M52.93,42.54c0.5,0.62,0.5,0.99,0.5,1.48c0,3.46-0.01,2.06-0.01,8"/>
			<path id="kvg:058fd-s7" kvg:type="㇐" d="M29.84,53.86c0.54,0.19,2.49,0.38,3.41,0.3c9.93-0.92,29.63-3.14,38.67-3.42c1.48-0.05,3.26,0.31,4,0.61"/>
		</g>
		<g id="kvg:058fd-g4" kvg:element="一">
			<path id="kvg:058fd-s8" kvg:type="㇐" d="M15.75,63.7c1.52,0.54,4.3,0.66,5.82,0.54c9.68-0.74,50.68-5.99,67.61-5.73c2.53,0.04,4.05,0.26,5.31,0.53"/>
		</g>
		<g id="kvg:058fd-g5" kvg:element="口" kvg:position="left">
			<path id="kvg:058fd-s9" kvg:type="㇑" d="M22.75,72.8c0.33,0.29,0.67,0.53,0.82,0.89c1.15,2.85,2.53,10.7,3.31,15.81"/>
			<path id="kvg:058fd-s10" kvg:type="㇕b" d="M24.82,74.73c6.79-1.48,15.05-3.13,18.94-3.5c1.42-0.14,2.27,0.81,2.07,1.61c-0.84,3.33-1.83,7.34-3.08,11.94"/>
			<path id="kvg:058fd-s11" kvg:type="㇐b" d="M27.04,87c4.57-0.42,10.86-1.15,17.13-1.8"/>
		</g>
		<g id="kvg:058fd-g6" kvg:element="寸" kvg:position="right">
			<path id="kvg:058fd-s12" kvg:type="㇐" d="M53.13,71.71c0.92,0.49,2.6,0.6,3.54,0.49C66.75,71,77.15,70.33,88.4,69.58c1.53-0.1,2.46,0.23,3.23,0.48"/>
			<path id="kvg:058fd-s13" kvg:type="㇚" d="M75.62,62.31c0.07,0.4,0.98,2.06,0.98,4.58c0,16.92-0.2,22.64-0.2,26.75c0,9.98-5.88,1.48-7.6,0.21"/>
			<path id="kvg:058fd-s14" kvg:type="㇔" d="M58.14,79.27c1.72,1.39,4.45,5.71,4.88,7.87"/>
		</g>
	</g>
</g>
</g>
<g id="kvg:StrokeNumbers_058fd" style="font-size:8;fill:#808080">
	<text transform="matrix(1 0 0 1 19.50 19.50)">1</text>
	<text transform="matrix(1 0 0 1 42.50 7.50)">2</text>
	<text transform="matrix(1 0 0 1 25.50 28.50)">3</text>
	<text transform="matrix(1 0 0 1 8.50 37.50)">4</text>
	<text transform="matrix(1 0 0 1 26.50 46.50)">5</text>
	<text transform="matrix(1 0 0 1 45.50 49.50)">6</text>
	<text transform="matrix(1 0 0 1 24.50 55.50)">7</text>
	<text transform="matrix(1 0 0 1 6.75 62.60)">8</text>
	<text transform="matrix(1 0 0 1 17.50 79.50)">9</text>
	<text transform="matrix(1 0 0 1 26.50 70.50)">10</text>
	<text transform="matrix(1 0 0 1 29.75 83.50)">11</text>
	<text transform="matrix(1 0 0 1 50.50 68.50)">12</text>
	<text transform="matrix(1 0 0 1 65.50 67.50)">13</text>
	<text transform="matrix(1 0 0 1 48.50 82.50)">14</text>
</g>
</svg>
