<?xml version="1.0" encoding="UTF-8"?>
<!--
Copyright (C) 2009/2010/2011 Ulrich Apel.
This work is distributed under the conditions of the Creative Commons 
Attribution-Share Alike 3.0 Licence. This means you are free:
* to Share - to copy, distribute and transmit the work
* to Remix - to adapt the work

Under the following conditions:
* Attribution. You must attribute the work by stating your use of KanjiVG in
  your own copyright header and linking to KanjiVG's website
  (http://kanjivg.tagaini.net)
* Share Alike. If you alter, transform, or build upon this work, you may
  distribute the resulting work only under the same or similar license to this
  one.

See http://creativecommons.org/licenses/by-sa/3.0/ for more details.
-->
<!DOCTYPE svg PUBLIC "-//W3C//DTD SVG 1.0//EN" "http://www.w3.org/TR/2001/REC-SVG-20010904/DTD/svg10.dtd" [
<!ATTLIST g
xmlns:kvg CDATA #FIXED "http://kanjivg.tagaini.net"
kvg:element CDATA #IMPLIED
kvg:variant CDATA #IMPLIED
kvg:partial CDATA #IMPLIED
kvg:original CDATA #IMPLIED
kvg:part CDATA #IMPLIED
kvg:number CDATA #IMPLIED
kvg:tradForm CDATA #IMPLIED
kvg:radicalForm CDATA #IMPLIED
kvg:position CDATA #IMPLIED
kvg:radical CDATA #IMPLIED
kvg:phon CDATA #IMPLIED >
<!ATTLIST path
xmlns:kvg CDATA #FIXED "http://kanjivg.tagaini.net"
kvg:type CDATA #IMPLIED >
]>
<svg xmlns="http://www.w3.org/2000/svg" width="109" height="109" viewBox="0 0 109 109">
<g id="kvg:StrokePaths_05902" style="fill:none;stroke:#000000;stroke-width:3;stroke-linecap:round;stroke-linejoin:round;">
<g id="kvg:05902" kvg:element="夂" kvg:radical="general">
	<path id="kvg:05902-s1" kvg:type="㇒" d="M43.56,11.75c0.08,1.09,0.16,2.81-0.15,4.38C41.56,25.35,30.98,45.6,16.5,58"/>
	<path id="kvg:05902-s2" kvg:type="㇇" d="M38.84,34.02c0.44,0.05,2.81,0.48,4.06,0.34c5.6-0.61,21.35-2.86,27.23-4.41c4.03-1.06,5.18,1.21,4.15,4.09C68.63,49.81,40.17,88.38,15,96.5"/>
	<path id="kvg:05902-s3" kvg:type="㇏" d="M33.5,40.75c7.5,8.75,41.5,42,51.61,50c3.02,2.39,5.46,3.54,8.39,4.25"/>
</g>
</g>
<g id="kvg:StrokeNumbers_05902" style="font-size:8;fill:#808080">
	<text transform="matrix(1 0 0 1 35.25 11.50)">1</text>
	<text transform="matrix(1 0 0 1 45.50 30.50)">2</text>
	<text transform="matrix(1 0 0 1 32.25 52.50)">3</text>
</g>
</svg>
