<?xml version="1.0" encoding="UTF-8"?>
<!--
Copyright (C) 2009/2010/2011 Ulrich Apel.
This work is distributed under the conditions of the Creative Commons 
Attribution-Share Alike 3.0 Licence. This means you are free:
* to Share - to copy, distribute and transmit the work
* to Remix - to adapt the work

Under the following conditions:
* Attribution. You must attribute the work by stating your use of KanjiVG in
  your own copyright header and linking to KanjiVG's website
  (http://kanjivg.tagaini.net)
* Share Alike. If you alter, transform, or build upon this work, you may
  distribute the resulting work only under the same or similar license to this
  one.

See http://creativecommons.org/licenses/by-sa/3.0/ for more details.
-->
<!DOCTYPE svg PUBLIC "-//W3C//DTD SVG 1.0//EN" "http://www.w3.org/TR/2001/REC-SVG-20010904/DTD/svg10.dtd" [
<!ATTLIST g
xmlns:kvg CDATA #FIXED "http://kanjivg.tagaini.net"
kvg:element CDATA #IMPLIED
kvg:variant CDATA #IMPLIED
kvg:partial CDATA #IMPLIED
kvg:original CDATA #IMPLIED
kvg:part CDATA #IMPLIED
kvg:number CDATA #IMPLIED
kvg:tradForm CDATA #IMPLIED
kvg:radicalForm CDATA #IMPLIED
kvg:position CDATA #IMPLIED
kvg:radical CDATA #IMPLIED
kvg:phon CDATA #IMPLIED >
<!ATTLIST path
xmlns:kvg CDATA #FIXED "http://kanjivg.tagaini.net"
kvg:type CDATA #IMPLIED >
]>
<svg xmlns="http://www.w3.org/2000/svg" width="109" height="109" viewBox="0 0 109 109">
<g id="kvg:StrokePaths_0591c-Kaisho" style="fill:none;stroke:#000000;stroke-width:3;stroke-linecap:round;stroke-linejoin:round;">
<g id="kvg:0591c-Kaisho" kvg:element="夜">
	<g id="kvg:0591c-Kaisho-g1" kvg:element="亠" kvg:position="top" kvg:radical="nelson">
		<path id="kvg:0591c-Kaisho-s1" kvg:type="㇑a" d="M48.81,10.25c2.99,1.35,7.91,6.58,7.91,9.27"/>
		<path id="kvg:0591c-Kaisho-s2" kvg:type="㇐" d="M20,27.61c1.42,0.1,4.68,0.69,6.06,0.55C37.25,27,68,22.25,83.2,21.95c2.35-0.05,3.55,0.05,5.3,0.7"/>
	</g>
	<g id="kvg:0591c-Kaisho-g2" kvg:position="bottom">
		<g id="kvg:0591c-Kaisho-g3" kvg:element="亻" kvg:variant="true" kvg:original="人">
			<path id="kvg:0591c-Kaisho-s3" kvg:type="㇒" d="M35,36c0.22,1.69-0.06,3.89-0.78,5.34c-4.6,9.2-10.43,17.85-20.97,29.05"/>
			<path id="kvg:0591c-Kaisho-s4" kvg:type="㇑" d="M28.23,55.9c1.06,7.68-0.73,34.35-0.25,41.1"/>
		</g>
		<g id="kvg:0591c-Kaisho-g4" kvg:element="夕" kvg:radical="tradit">
			<path id="kvg:0591c-Kaisho-s5" kvg:type="㇒" d="M59.77,31.25c0.19,0.45,0.57,1.77,0.36,2.66C58.93,39.16,53.41,49.96,44,57"/>
			<path id="kvg:0591c-Kaisho-s6" kvg:type="㇇" d="M60.71,39.36c0.34,0.04,2.79,0,3.77-0.12c3.2-0.4,9.14-1.6,13.4-3.12c3.06-1.09,4.13,1,3.22,3.27C74.75,55.25,59.75,79.5,38,90"/>
			<path id="kvg:0591c-Kaisho-s7" kvg:type="㇔" d="M56,48.5c2.9,1.32,7.5,5.41,8.23,7.46"/>
		</g>
		<path id="kvg:0591c-Kaisho-s8" kvg:type="㇏" d="M45.5,62.5c9.5,3.5,33.5,24,42,28.07c2.42,1.16,4.23,2.03,6.5,2.43"/>
	</g>
</g>
</g>
<g id="kvg:StrokeNumbers_0591c-Kaisho" style="font-size:8;fill:#808080">
	<text transform="matrix(1 0 0 1 43.50 10.50)">1</text>
	<text transform="matrix(1 0 0 1 12.50 28.50)">2</text>
	<text transform="matrix(1 0 0 1 25.50 40.63)">3</text>
	<text transform="matrix(1 0 0 1 21.50 71.50)">4</text>
	<text transform="matrix(1 0 0 1 51.50 35.50)">5</text>
	<text transform="matrix(1 0 0 1 65.50 35.50)">6</text>
	<text transform="matrix(1 0 0 1 60.50 49.50)">7</text>
	<text transform="matrix(1 0 0 1 49.50 62.50)">8</text>
</g>
</svg>
