<?xml version="1.0" encoding="UTF-8"?>
<!--
Copyright (C) 2009/2010/2011 Ulrich Apel.
This work is distributed under the conditions of the Creative Commons 
Attribution-Share Alike 3.0 Licence. This means you are free:
* to Share - to copy, distribute and transmit the work
* to Remix - to adapt the work

Under the following conditions:
* Attribution. You must attribute the work by stating your use of KanjiVG in
  your own copyright header and linking to KanjiVG's website
  (http://kanjivg.tagaini.net)
* Share Alike. If you alter, transform, or build upon this work, you may
  distribute the resulting work only under the same or similar license to this
  one.

See http://creativecommons.org/licenses/by-sa/3.0/ for more details.
-->
<!DOCTYPE svg PUBLIC "-//W3C//DTD SVG 1.0//EN" "http://www.w3.org/TR/2001/REC-SVG-20010904/DTD/svg10.dtd" [
<!ATTLIST g
xmlns:kvg CDATA #FIXED "http://kanjivg.tagaini.net"
kvg:element CDATA #IMPLIED
kvg:variant CDATA #IMPLIED
kvg:partial CDATA #IMPLIED
kvg:original CDATA #IMPLIED
kvg:part CDATA #IMPLIED
kvg:number CDATA #IMPLIED
kvg:tradForm CDATA #IMPLIED
kvg:radicalForm CDATA #IMPLIED
kvg:position CDATA #IMPLIED
kvg:radical CDATA #IMPLIED
kvg:phon CDATA #IMPLIED >
<!ATTLIST path
xmlns:kvg CDATA #FIXED "http://kanjivg.tagaini.net"
kvg:type CDATA #IMPLIED >
]>
<svg xmlns="http://www.w3.org/2000/svg" width="109" height="109" viewBox="0 0 109 109">
<g id="kvg:StrokePaths_05910-Kaisho" style="fill:none;stroke:#000000;stroke-width:3;stroke-linecap:round;stroke-linejoin:round;">
<g id="kvg:05910-Kaisho" kvg:element="夐">
	<g id="kvg:05910-Kaisho-g1" kvg:position="top">
		<g id="kvg:05910-Kaisho-g2" kvg:element="𠂊" kvg:variant="true" kvg:original="勹">
			<path id="kvg:05910-Kaisho-s1" kvg:type="㇒" d="M41,10.5c0.06,0.41,0.13,1.05-0.12,1.64c-1.48,3.45-9.98,11.03-21.63,15.67"/>
			<path id="kvg:05910-Kaisho-s2" kvg:type="㇇" d="M38.5,16.3c2.84,0,20.5-2.8,24.94-3.61c2.53-0.46,2.36,1.41,1.31,2.33C62.5,17,59.25,20.25,56,24"/>
		</g>
		<path id="kvg:05910-Kaisho-s3" kvg:type="㇑" d="M26.71,25.31c0.84,0.57,1.48,1.97,1.6,2.72c0.94,6.22,1.44,9.97,1.91,14.85"/>
		<path id="kvg:05910-Kaisho-s4" kvg:type="㇕" d="M29.43,27.49c12.79-1.09,41.3-4.21,50.55-4.63c3.61-0.16,3.98,1.77,3.42,4.14c-0.65,2.74-1.65,7.99-2.33,11.6"/>
		<path id="kvg:05910-Kaisho-s5" kvg:type="㇒" d="M54.27,27.89c0.04,0.25,0.08,0.64-0.07,1c-0.9,2.11-6.07,6.74-13.13,9.57"/>
		<path id="kvg:05910-Kaisho-s6" kvg:type="㇏" d="M56.27,30.83c5.49,1.04,14.17,4.27,15.54,5.88"/>
	</g>
	<g id="kvg:05910-Kaisho-g3" kvg:position="bottom">
		<g id="kvg:05910-Kaisho-g4" kvg:element="目" kvg:position="left">
			<path id="kvg:05910-Kaisho-s7" kvg:type="㇑" d="M36.45,44.06c0.39,0.88,0.96,1.53,0.96,2.7s0.24,21.27,0.24,21.85"/>
			<path id="kvg:05910-Kaisho-s8" kvg:type="㇕a" d="M37.29,45.19c2.22-0.15,30.88-3.28,32.9-3.45c1.68-0.15,2.88,0.81,2.87,1.9C73,48.25,72.5,60.5,71.67,66.54"/>
			<path id="kvg:05910-Kaisho-s9" kvg:type="㇐a" d="M38.03,52.26c5.84-0.27,11.68-0.98,17.49-1.5c1.9-0.17,3.79-0.34,5.59-0.5"/>
			<path id="kvg:05910-Kaisho-s10" kvg:type="㇐a" d="M38.21,59.56c5.68-0.48,11.85-1.05,17.53-1.56c1.76-0.16,3.52-0.31,5.21-0.45"/>
			<path id="kvg:05910-Kaisho-s11" kvg:type="㇐a" d="M38.12,67.26c5.04-0.26,27.62-2.31,33.31-2.31"/>
		</g>
		<g id="kvg:05910-Kaisho-g5" kvg:element="夂" kvg:position="right" kvg:radical="general">
			<path id="kvg:05910-Kaisho-s12" kvg:type="㇒" d="M44.2,68.75c0.06,0.41,0.12,1.06-0.12,1.65c-1.41,3.49-9.47,11.14-20.52,15.83"/>
			<path id="kvg:05910-Kaisho-s13" kvg:type="㇇" d="M41.93,75.01c0.35,0.02,2.24,0.2,3.24,0.14c4.48-0.25,16.03-3.07,20.77-3.33c1.31-0.07,2.14,1.5,1.31,2.7C62.74,81.08,44.25,96.25,23.37,101"/>
			<path id="kvg:05910-Kaisho-s14" kvg:type="㇏" d="M38.66,77.06c5.81,3.6,32.14,17.28,39.97,20.56c2.33,0.98,4.22,1.46,6.5,1.75"/>
		</g>
	</g>
</g>
</g>
<g id="kvg:StrokeNumbers_05910-Kaisho" style="font-size:8;fill:#808080">
	<text transform="matrix(1 0 0 1 33.50 9.50)">1</text>
	<text transform="matrix(1 0 0 1 46.50 11.50)">2</text>
	<text transform="matrix(1 0 0 1 21.50 35.50)">3</text>
	<text transform="matrix(1 0 0 1 37.50 24.50)">4</text>
	<text transform="matrix(1 0 0 1 42.75 33.50)">5</text>
	<text transform="matrix(1 0 0 1 65.50 31.50)">6</text>
	<text transform="matrix(1 0 0 1 29.75 52.68)">7</text>
	<text transform="matrix(1 0 0 1 49.50 41.50)">8</text>
	<text transform="matrix(1 0 0 1 41.50 50.50)">9</text>
	<text transform="matrix(1 0 0 1 40.50 57.45)">10</text>
	<text transform="matrix(1 0 0 1 41.50 65.38)">11</text>
	<text transform="matrix(1 0 0 1 28.50 75.50)">12</text>
	<text transform="matrix(1 0 0 1 49.50 72.50)">13</text>
	<text transform="matrix(1 0 0 1 35.50 87.50)">14</text>
</g>
</svg>
