<?xml version="1.0" encoding="UTF-8"?>
<!--
Copyright (C) 2009/2010/2011 Ulrich Apel.
This work is distributed under the conditions of the Creative Commons 
Attribution-Share Alike 3.0 Licence. This means you are free:
* to Share - to copy, distribute and transmit the work
* to Remix - to adapt the work

Under the following conditions:
* Attribution. You must attribute the work by stating your use of KanjiVG in
  your own copyright header and linking to KanjiVG's website
  (http://kanjivg.tagaini.net)
* Share Alike. If you alter, transform, or build upon this work, you may
  distribute the resulting work only under the same or similar license to this
  one.

See http://creativecommons.org/licenses/by-sa/3.0/ for more details.
-->
<!DOCTYPE svg PUBLIC "-//W3C//DTD SVG 1.0//EN" "http://www.w3.org/TR/2001/REC-SVG-20010904/DTD/svg10.dtd" [
<!ATTLIST g
xmlns:kvg CDATA #FIXED "http://kanjivg.tagaini.net"
kvg:element CDATA #IMPLIED
kvg:variant CDATA #IMPLIED
kvg:partial CDATA #IMPLIED
kvg:original CDATA #IMPLIED
kvg:part CDATA #IMPLIED
kvg:number CDATA #IMPLIED
kvg:tradForm CDATA #IMPLIED
kvg:radicalForm CDATA #IMPLIED
kvg:position CDATA #IMPLIED
kvg:radical CDATA #IMPLIED
kvg:phon CDATA #IMPLIED >
<!ATTLIST path
xmlns:kvg CDATA #FIXED "http://kanjivg.tagaini.net"
kvg:type CDATA #IMPLIED >
]>
<svg xmlns="http://www.w3.org/2000/svg" width="109" height="109" viewBox="0 0 109 109">
<g id="kvg:StrokePaths_05922" style="fill:none;stroke:#000000;stroke-width:3;stroke-linecap:round;stroke-linejoin:round;">
<g id="kvg:05922" kvg:element="夢">
	<g id="kvg:05922-g1" kvg:position="top">
		<g id="kvg:05922-g2" kvg:element="艹" kvg:variant="true" kvg:original="艸" kvg:radical="nelson">
			<path id="kvg:05922-s1" kvg:type="㇐" d="M24.28,21.48c1.77,0.72,4.35,0.71,6.23,0.51c12.23-1.36,34.88-3.62,47.86-4.25c2.7-0.13,5.44-0.32,8.09,0.33"/>
			<path id="kvg:05922-s2" kvg:type="㇑a" d="M39.8,11.62c0.79,0.79,1.45,1.78,1.61,2.38c1.48,5.64,2.74,11.45,3.16,13.5"/>
			<path id="kvg:05922-s3" kvg:type="㇑a" d="M69.48,10c0.52,0.75,0.62,1.89,0.32,2.87c-1.76,5.76-2.31,7.39-4.23,12.8"/>
		</g>
		<g id="kvg:05922-g3" kvg:element="罒" kvg:variant="true" kvg:original="网">
			<path id="kvg:05922-s4" kvg:type="㇑" d="M29,32.96c1,0.67,1.12,1.81,1.31,2.52c0.81,3.02,1.47,5.3,2.08,8.24c0.28,1.33,0.52,2.62,0.69,3.75"/>
			<path id="kvg:05922-s5" kvg:type="㇕a" d="M31.04,34.63c13.83-1.51,38.46-3.88,49.82-4.64c2.1-0.14,4.14,1.01,3.32,3.87c-0.53,1.86-1.02,3.79-1.97,6.46c-0.57,1.62-0.95,2.49-1.59,3.94"/>
			<path id="kvg:05922-s6" kvg:type="㇑a" d="M47.31,33.75c0.66,0.66,1.19,1.35,1.41,2.75c0.48,3.05,0.95,5.72,1.08,7.03"/>
			<path id="kvg:05922-s7" kvg:type="㇑a" d="M64.75,33.47c0.37,0.65,0.44,1.55,0.24,2.54c-0.75,3.86-1,5.28-1.29,6.53"/>
			<path id="kvg:05922-s8" kvg:type="㇐a" d="M34.24,46.12c9.38-0.99,36.38-2.99,45.84-3.21"/>
		</g>
		<g id="kvg:05922-g4" kvg:element="冖">
			<path id="kvg:05922-s9" kvg:type="㇔" d="M24.25,53.5c-1.5,7.25-4.25,12.62-6.75,15.75"/>
			<path id="kvg:05922-s10" kvg:type="㇖b" d="M24.72,56c3.53,0,40.15-4,62.97-4.75c12.05-0.4,4.06,6-0.44,9.75"/>
		</g>
	</g>
	<g id="kvg:05922-g5" kvg:element="夕" kvg:position="bottom" kvg:radical="tradit">
		<path id="kvg:05922-s11" kvg:type="㇒" d="M52.27,56.64c0.23,1.36-0.36,2.73-0.95,3.49C47.5,65,39.27,72.91,28.66,77.98"/>
		<path id="kvg:05922-s12" kvg:type="㇇" d="M50.49,65.82c1.01,0.18,2.25,0.21,2.99,0.11C56.93,65.5,62,65,67.93,64.52c3.5-0.29,4.17,1.76,2.48,3.83C60.5,80.5,47,92,24.25,100.25"/>
		<path id="kvg:05922-s13" kvg:type="㇔" d="M44.5,74.38c3.1,1.06,8.01,4.35,8.78,5.99"/>
	</g>
</g>
</g>
<g id="kvg:StrokeNumbers_05922" style="font-size:8;fill:#808080">
	<text transform="matrix(1 0 0 1 17.50 22.63)">1</text>
	<text transform="matrix(1 0 0 1 31.50 12.50)">2</text>
	<text transform="matrix(1 0 0 1 60.75 10.50)">3</text>
	<text transform="matrix(1 0 0 1 22.50 39.50)">4</text>
	<text transform="matrix(1 0 0 1 32.50 31.33)">5</text>
	<text transform="matrix(1 0 0 1 41.50 40.50)">6</text>
	<text transform="matrix(1 0 0 1 57.50 40.18)">7</text>
	<text transform="matrix(1 0 0 1 35.50 43.10)">8</text>
	<text transform="matrix(1 0 0 1 16.50 58.63)">9</text>
	<text transform="matrix(1 0 0 1 25.20 53.50)">10</text>
	<text transform="matrix(1 0 0 1 38.50 63.50)">11</text>
	<text transform="matrix(1 0 0 1 57.50 62.91)">12</text>
	<text transform="matrix(1 0 0 1 49.20 74.50)">13</text>
</g>
</svg>
