<?xml version="1.0" encoding="UTF-8"?>
<!--
Copyright (C) 2009/2010/2011 Ulrich Apel.
This work is distributed under the conditions of the Creative Commons 
Attribution-Share Alike 3.0 Licence. This means you are free:
* to Share - to copy, distribute and transmit the work
* to Remix - to adapt the work

Under the following conditions:
* Attribution. You must attribute the work by stating your use of KanjiVG in
  your own copyright header and linking to KanjiVG's website
  (http://kanjivg.tagaini.net)
* Share Alike. If you alter, transform, or build upon this work, you may
  distribute the resulting work only under the same or similar license to this
  one.

See http://creativecommons.org/licenses/by-sa/3.0/ for more details.
-->
<!DOCTYPE svg PUBLIC "-//W3C//DTD SVG 1.0//EN" "http://www.w3.org/TR/2001/REC-SVG-20010904/DTD/svg10.dtd" [
<!ATTLIST g
xmlns:kvg CDATA #FIXED "http://kanjivg.tagaini.net"
kvg:element CDATA #IMPLIED
kvg:variant CDATA #IMPLIED
kvg:partial CDATA #IMPLIED
kvg:original CDATA #IMPLIED
kvg:part CDATA #IMPLIED
kvg:number CDATA #IMPLIED
kvg:tradForm CDATA #IMPLIED
kvg:radicalForm CDATA #IMPLIED
kvg:position CDATA #IMPLIED
kvg:radical CDATA #IMPLIED
kvg:phon CDATA #IMPLIED >
<!ATTLIST path
xmlns:kvg CDATA #FIXED "http://kanjivg.tagaini.net"
kvg:type CDATA #IMPLIED >
]>
<svg xmlns="http://www.w3.org/2000/svg" width="109" height="109" viewBox="0 0 109 109">
<g id="kvg:StrokePaths_05929" style="fill:none;stroke:#000000;stroke-width:3;stroke-linecap:round;stroke-linejoin:round;">
<g id="kvg:05929" kvg:element="天">
	<g id="kvg:05929-g1" kvg:element="一" kvg:radical="nelson">
		<path id="kvg:05929-s1" kvg:type="㇐" d="M21.63,24.83c1.81,0.46,5.14,0.4,6.94,0.21c14.55-1.53,35.18-4.16,50.1-5.25c3.01-0.22,4.83,0.22,6.34,0.45"/>
	</g>
	<g id="kvg:05929-g2" kvg:element="大" kvg:radical="tradit">
		<path id="kvg:05929-s2" kvg:type="㇐" d="M25.31,51.64c2.09,0.31,3.47,0.4,5.94,0.11c10.62-1.25,35.88-4.38,45.96-4.93c1.74-0.1,3.62,0.03,5.99,0.45"/>
		<path id="kvg:05929-s3" kvg:type="㇒" d="M50.32,26c0.68,1,1.3,3.43,1.29,5.37c-0.24,30.51-14.86,50.88-33.86,60.25"/>
		<path id="kvg:05929-s4" kvg:type="㇏" d="M50.1,51.39C58.71,60,75.07,78.48,86.59,87.05c2.33,1.73,4.41,3.08,7.91,4.2"/>
	</g>
</g>
</g>
<g id="kvg:StrokeNumbers_05929" style="font-size:8;fill:#808080">
	<text transform="matrix(1 0 0 1 12.75 22.63)">1</text>
	<text transform="matrix(1 0 0 1 17.25 51.13)">2</text>
	<text transform="matrix(1 0 0 1 42.75 36.13)">3</text>
	<text transform="matrix(1 0 0 1 65.25 61.63)">4</text>
</g>
</svg>
