<?xml version="1.0" encoding="UTF-8"?>
<!--
Copyright (C) 2009/2010/2011 Ulrich Apel.
This work is distributed under the conditions of the Creative Commons 
Attribution-Share Alike 3.0 Licence. This means you are free:
* to Share - to copy, distribute and transmit the work
* to Remix - to adapt the work

Under the following conditions:
* Attribution. You must attribute the work by stating your use of KanjiVG in
  your own copyright header and linking to KanjiVG's website
  (http://kanjivg.tagaini.net)
* Share Alike. If you alter, transform, or build upon this work, you may
  distribute the resulting work only under the same or similar license to this
  one.

See http://creativecommons.org/licenses/by-sa/3.0/ for more details.
-->
<!DOCTYPE svg PUBLIC "-//W3C//DTD SVG 1.0//EN" "http://www.w3.org/TR/2001/REC-SVG-20010904/DTD/svg10.dtd" [
<!ATTLIST g
xmlns:kvg CDATA #FIXED "http://kanjivg.tagaini.net"
kvg:element CDATA #IMPLIED
kvg:variant CDATA #IMPLIED
kvg:partial CDATA #IMPLIED
kvg:original CDATA #IMPLIED
kvg:part CDATA #IMPLIED
kvg:number CDATA #IMPLIED
kvg:tradForm CDATA #IMPLIED
kvg:radicalForm CDATA #IMPLIED
kvg:position CDATA #IMPLIED
kvg:radical CDATA #IMPLIED
kvg:phon CDATA #IMPLIED >
<!ATTLIST path
xmlns:kvg CDATA #FIXED "http://kanjivg.tagaini.net"
kvg:type CDATA #IMPLIED >
]>
<svg xmlns="http://www.w3.org/2000/svg" width="109" height="109" viewBox="0 0 109 109">
<g id="kvg:StrokePaths_05957" style="fill:none;stroke:#000000;stroke-width:3;stroke-linecap:round;stroke-linejoin:round;">
<g id="kvg:05957" kvg:element="套">
	<g id="kvg:05957-g1" kvg:element="大" kvg:position="top" kvg:radical="general">
		<path id="kvg:05957-s1" kvg:type="㇐" d="M22.38,24.54c1.1,0.4,4.03,0.88,6.36,0.7c15.78-1.2,36.5-3.61,50.67-4.19c2.44-0.1,4.39-0.05,6.59,0.26"/>
		<path id="kvg:05957-s2" kvg:type="㇒" d="M53.62,10.75c0.13,1.25,0.5,2.41-0.13,3.48C43.75,30.75,32.25,42.75,17.5,52.75"/>
		<path id="kvg:05957-s3" kvg:type="㇏" d="M55,23c8.04,5.39,26.8,19.12,34.83,22.72c2.73,1.23,3.68,1.41,4.92,1.53"/>
	</g>
	<g id="kvg:05957-g2" kvg:element="長" kvg:variant="true" kvg:position="bottom">
		<path id="kvg:05957-s4" kvg:type="㇑a" d="M41,40.25c0.88,0.88,0.5,0.75,0.5,2.25s0,28.5,0,30.75"/>
		<path id="kvg:05957-s5" kvg:type="㇐b" d="M40,38.5c0.92,0.2,1.92,0.45,2.97,0.42c7.53-0.17,19.22-1.72,21.03-1.72c1.6,0,1.8,0,3.01,0.26"/>
		<path id="kvg:05957-s6" kvg:type="㇐b" d="M41.75,50.5c8.49-0.11,19.35-2,21.23-2c1.48,0,1.67-0.01,2.77,0.22"/>
		<path id="kvg:05957-s7" kvg:type="㇐b" d="M42,61.75c8.85-0.09,17.5-1.4,20.77-1.59c1.53-0.09,3.06-0.07,4.23,0.09"/>
		<path id="kvg:05957-s8" kvg:type="㇐" d="M16.88,75.2c1.39,0.33,3.94,0.38,5.33,0.33c14.47-0.55,46.3-4.56,66.05-5c2.32-0.05,3.71,0.16,4.87,0.32"/>
		<g id="kvg:05957-g3" kvg:element="厶">
			<path id="kvg:05957-s9" kvg:type="㇜" d="M48.49,76.75c0.1,0.92-0.14,1.84-0.48,2.28C43.5,85,39.53,90.45,32.59,94.29c-3.09,1.71-2.07,3.52,0.98,2.83c8.17-1.86,29.17-6.61,40.47-8.02"/>
			<path id="kvg:05957-s10" kvg:type="㇔" d="M64.38,80.13c6.11,3.32,15.78,13.67,17.31,18.84"/>
		</g>
	</g>
</g>
</g>
<g id="kvg:StrokeNumbers_05957" style="font-size:8;fill:#808080">
	<text transform="matrix(1 0 0 1 16.50 24.50)">1</text>
	<text transform="matrix(1 0 0 1 45.50 10.50)">2</text>
	<text transform="matrix(1 0 0 1 72.50 31.50)">3</text>
	<text transform="matrix(1 0 0 1 34.50 48.50)">4</text>
	<text transform="matrix(1 0 0 1 46.50 35.50)">5</text>
	<text transform="matrix(1 0 0 1 46.50 47.50)">6</text>
	<text transform="matrix(1 0 0 1 46.50 59.50)">7</text>
	<text transform="matrix(1 0 0 1 15.50 70.60)">8</text>
	<text transform="matrix(1 0 0 1 38.50 82.53)">9</text>
	<text transform="matrix(1 0 0 1 54.50 83.50)">10</text>
</g>
</svg>
