<?xml version="1.0" encoding="UTF-8"?>
<!--
Copyright (C) 2009/2010/2011 Ulrich Apel.
This work is distributed under the conditions of the Creative Commons 
Attribution-Share Alike 3.0 Licence. This means you are free:
* to Share - to copy, distribute and transmit the work
* to Remix - to adapt the work

Under the following conditions:
* Attribution. You must attribute the work by stating your use of KanjiVG in
  your own copyright header and linking to KanjiVG's website
  (http://kanjivg.tagaini.net)
* Share Alike. If you alter, transform, or build upon this work, you may
  distribute the resulting work only under the same or similar license to this
  one.

See http://creativecommons.org/licenses/by-sa/3.0/ for more details.
-->
<!DOCTYPE svg PUBLIC "-//W3C//DTD SVG 1.0//EN" "http://www.w3.org/TR/2001/REC-SVG-20010904/DTD/svg10.dtd" [
<!ATTLIST g
xmlns:kvg CDATA #FIXED "http://kanjivg.tagaini.net"
kvg:element CDATA #IMPLIED
kvg:variant CDATA #IMPLIED
kvg:partial CDATA #IMPLIED
kvg:original CDATA #IMPLIED
kvg:part CDATA #IMPLIED
kvg:number CDATA #IMPLIED
kvg:tradForm CDATA #IMPLIED
kvg:radicalForm CDATA #IMPLIED
kvg:position CDATA #IMPLIED
kvg:radical CDATA #IMPLIED
kvg:phon CDATA #IMPLIED >
<!ATTLIST path
xmlns:kvg CDATA #FIXED "http://kanjivg.tagaini.net"
kvg:type CDATA #IMPLIED >
]>
<svg xmlns="http://www.w3.org/2000/svg" width="109" height="109" viewBox="0 0 109 109">
<g id="kvg:StrokePaths_05969" style="fill:none;stroke:#000000;stroke-width:3;stroke-linecap:round;stroke-linejoin:round;">
<g id="kvg:05969" kvg:element="奩">
	<g id="kvg:05969-g1" kvg:element="大" kvg:position="top" kvg:radical="tradit">
		<path id="kvg:05969-s1" kvg:type="㇐" d="M18.88,24.49c1.12,0.38,4.12,0.83,6.51,0.66c16.15-1.14,42.36-3.42,56.86-3.96c2.49-0.09,4.5-0.05,6.75,0.25"/>
		<path id="kvg:05969-s2" kvg:type="㇒" d="M50.05,11.25c0.45,1,0.42,2.23-0.05,3.25C42.5,30.75,28.75,41.75,10.25,49.85"/>
		<path id="kvg:05969-s3" kvg:type="㇏" d="M62.25,23.28c6.62,5.33,22.08,18.9,28.69,22.47c2.25,1.21,3.03,1.39,4.06,1.51"/>
	</g>
	<g id="kvg:05969-g2" kvg:element="區" kvg:position="bottom">
		<g id="kvg:05969-g3" kvg:element="匚" kvg:part="1" kvg:position="kamae">
			<path id="kvg:05969-s4" kvg:type="㇐" d="M25.38,47.71c1.35,0.32,3.82,0.38,5.16,0.32c14.02-0.54,28.17-2.71,43.29-3c2.24-0.04,3.59,0.15,4.71,0.32"/>
		</g>
		<g id="kvg:05969-g4" kvg:element="品">
			<g id="kvg:05969-g5" kvg:element="口" kvg:position="top">
				<path id="kvg:05969-s5" kvg:type="㇑" d="M43.68,55.29c0.25,0.21,0.5,0.39,0.61,0.65c0.86,2.1,1.88,7.89,2.47,11.66"/>
				<path id="kvg:05969-s6" kvg:type="㇕b" d="M44.79,56.32c5.89-0.81,16.31-2.25,19.68-2.57c1.23-0.12,1.98,0.7,1.8,1.39c-0.73,2.86-1.74,4.93-2.83,8.89"/>
				<path id="kvg:05969-s7" kvg:type="㇐b" d="M46.72,65.93c3.97-0.36,12.85-0.99,18.29-1.55"/>
			</g>
			<g id="kvg:05969-g6" kvg:position="bottom">
				<g id="kvg:05969-g7" kvg:element="口" kvg:position="left">
					<path id="kvg:05969-s8" kvg:type="㇑" d="M36.25,75.27c0.33,0.23,0.67,0.41,0.82,0.69c1.15,2.22,1.37,9.15,2.16,13.13"/>
					<path id="kvg:05969-s9" kvg:type="㇕b" d="M37.93,76.77c4.23-0.59,8.93-1.87,12.82-2.16c1.42-0.11,2.28,0.63,2.07,1.26c-0.84,2.59-1.43,7.15-2.68,10.73"/>
					<path id="kvg:05969-s10" kvg:type="㇐b" d="M39.15,87.76c4.57-0.33,11.05-1.19,12.8-1.12"/>
				</g>
				<g id="kvg:05969-g8" kvg:element="口" kvg:position="right">
					<path id="kvg:05969-s11" kvg:type="㇑" d="M59.33,74.39c0.27,0.21,0.55,0.39,0.66,0.66c0.94,2.13,1.19,8.23,1.83,12.05"/>
					<path id="kvg:05969-s12" kvg:type="㇕b" d="M60.37,75.29c5.19-0.83,12.39-1.52,15.55-1.8c1.15-0.1,1.85,0.6,1.68,1.21c-0.69,2.49-1.48,5.76-2.5,9.2"/>
					<path id="kvg:05969-s13" kvg:type="㇐b" d="M62.5,85.55c3.71-0.32,8.66-0.32,13.76-0.8"/>
				</g>
			</g>
		</g>
		<g id="kvg:05969-g9" kvg:element="匚" kvg:part="2" kvg:position="kamae">
			<path id="kvg:05969-s14" kvg:type="㇗" d="M28.68,49.31c0,2.39-0.44,38.6-0.44,40.83c0,4.1,2,7.39,7.94,7.39c8.88,0,34.31-0.54,40.22-0.79c2.88-0.12,5.34-0.49,7.59-0.21"/>
		</g>
	</g>
</g>
</g>
<g id="kvg:StrokeNumbers_05969" style="font-size:8;fill:#808080">
	<text transform="matrix(1 0 0 1 12.50 24.50)">1</text>
	<text transform="matrix(1 0 0 1 42.50 10.50)">2</text>
	<text transform="matrix(1 0 0 1 73.50 30.50)">3</text>
	<text transform="matrix(1 0 0 1 31.50 45.50)">4</text>
	<text transform="matrix(1 0 0 1 20.25 56.50)">5</text>
	<text transform="matrix(1 0 0 1 37.50 60.50)">6</text>
	<text transform="matrix(1 0 0 1 45.50 54.50)">7</text>
	<text transform="matrix(1 0 0 1 48.75 63.50)">8</text>
	<text transform="matrix(1 0 0 1 31.50 83.50)">9</text>
	<text transform="matrix(1 0 0 1 38.25 73.50)">10</text>
	<text transform="matrix(1 0 0 1 40.50 85.50)">11</text>
	<text transform="matrix(1 0 0 1 53.25 83.50)">12</text>
	<text transform="matrix(1 0 0 1 60.75 72.50)">13</text>
	<text transform="matrix(1 0 0 1 63.50 83.50)">14</text>
</g>
</svg>
