<?xml version="1.0" encoding="UTF-8"?>
<!--
Copyright (C) 2009/2010/2011 Ulrich Apel.
This work is distributed under the conditions of the Creative Commons 
Attribution-Share Alike 3.0 Licence. This means you are free:
* to Share - to copy, distribute and transmit the work
* to Remix - to adapt the work

Under the following conditions:
* Attribution. You must attribute the work by stating your use of KanjiVG in
  your own copyright header and linking to KanjiVG's website
  (http://kanjivg.tagaini.net)
* Share Alike. If you alter, transform, or build upon this work, you may
  distribute the resulting work only under the same or similar license to this
  one.

See http://creativecommons.org/licenses/by-sa/3.0/ for more details.
-->
<!DOCTYPE svg PUBLIC "-//W3C//DTD SVG 1.0//EN" "http://www.w3.org/TR/2001/REC-SVG-20010904/DTD/svg10.dtd" [
<!ATTLIST g
xmlns:kvg CDATA #FIXED "http://kanjivg.tagaini.net"
kvg:element CDATA #IMPLIED
kvg:variant CDATA #IMPLIED
kvg:partial CDATA #IMPLIED
kvg:original CDATA #IMPLIED
kvg:part CDATA #IMPLIED
kvg:number CDATA #IMPLIED
kvg:tradForm CDATA #IMPLIED
kvg:radicalForm CDATA #IMPLIED
kvg:position CDATA #IMPLIED
kvg:radical CDATA #IMPLIED
kvg:phon CDATA #IMPLIED >
<!ATTLIST path
xmlns:kvg CDATA #FIXED "http://kanjivg.tagaini.net"
kvg:type CDATA #IMPLIED >
]>
<svg xmlns="http://www.w3.org/2000/svg" width="109" height="109" viewBox="0 0 109 109">
<g id="kvg:StrokePaths_05967" style="fill:none;stroke:#000000;stroke-width:3;stroke-linecap:round;stroke-linejoin:round;">
<g id="kvg:05967" kvg:element="奧">
	<g id="kvg:05967-g1" kvg:position="top">
		<path id="kvg:05967-s1" kvg:type="㇒" d="M50.27,10.14c0.03,0.33,0.06,0.84-0.06,1.31c-0.71,2.76-4.81,8.81-10.41,12.52"/>
		<g id="kvg:05967-g2" kvg:element="冂">
			<path id="kvg:05967-s2" kvg:type="㇑" d="M30.24,24.4c0.51,0.85,0.85,2.2,0.68,3.72c-0.17,1.52,0.17,36.34,0.17,38.88"/>
			<path id="kvg:05967-s3" kvg:type="㇆a" d="M30.92,26.09c6.43-0.68,41.69-3.15,42.96-3.38c2.71-0.51,4.69,1.24,4.4,2.03c-0.51,1.35-1.01,33.64-1.01,37.54"/>
		</g>
		<g id="kvg:05967-g3" kvg:element="釆">
			<g id="kvg:05967-g4" kvg:element="丿" kvg:position="top">
				<path id="kvg:05967-s4" kvg:type="㇒" d="M62.88,26.64c0.07,0.22,0.09,0.54-0.13,0.9c-1.85,2.94-12.64,6.85-23.84,8.06"/>
			</g>
			<g id="kvg:05967-g5" kvg:element="米" kvg:variant="true" kvg:position="bottom">
				<path id="kvg:05967-s5" kvg:type="㇔" d="M42.09,38.3c1.42,1.05,3.56,4.04,3.91,5.68"/>
				<path id="kvg:05967-s6" kvg:type="㇒" d="M66.7,33.98c0.02,0.25,0.11,0.68-0.04,1.02c-1.18,2.75-3.06,5.99-6.94,9.78"/>
				<path id="kvg:05967-s7" kvg:type="㇐" d="M37.17,47.6c0.4,0.13,1.48,0.35,2.56,0.4C42.7,48.14,63,45.25,68.73,44.8c1.08-0.08,1.35-0.13,2.02,0"/>
				<path id="kvg:05967-s8" kvg:type="㇑" d="M52.4,34.39c0.67,0.27,1.08,1.2,1.21,1.74c0.13,0.54,0,20.53-0.14,23.87"/>
				<path id="kvg:05967-s9" kvg:type="㇒" d="M53.4,47.54C50.7,52.39,44.13,59.2,38.06,62"/>
				<path id="kvg:05967-s10" kvg:type="㇔/㇏" d="M56.21,49.84c4.57,2.04,10.02,5.49,12.27,8.99"/>
			</g>
		</g>
	</g>
	<g id="kvg:05967-g6" kvg:element="大" kvg:position="bottom" kvg:radical="general">
		<path id="kvg:05967-s11" kvg:type="㇐" d="M15.88,74.33c1.33,0.52,4.89,1.13,7.71,0.91c19.13-1.55,44.25-4.66,61.42-5.41c2.95-0.13,5.33-0.06,7.99,0.34"/>
		<path id="kvg:05967-s12" kvg:type="㇒" d="M51.72,64.25c0.52,0.49,0.93,2.57,0.77,3.61C49.75,86,37.25,96,19.25,101.5"/>
		<path id="kvg:05967-s13" kvg:type="㇏" d="M55,73.5c6.57,5.67,21.91,20.1,28.47,23.9c2.23,1.29,3.01,1.48,4.03,1.6"/>
	</g>
</g>
</g>
<g id="kvg:StrokeNumbers_05967" style="font-size:8;fill:#808080">
	<text transform="matrix(1 0 0 1 42.50 9.50)">1</text>
	<text transform="matrix(1 0 0 1 23.50 32.50)">2</text>
	<text transform="matrix(1 0 0 1 34.25 22.73)">3</text>
	<text transform="matrix(1 0 0 1 49.00 31.50)">4</text>
	<text transform="matrix(1 0 0 1 34.50 40.50)">5</text>
	<text transform="matrix(1 0 0 1 58.50 37.50)">6</text>
	<text transform="matrix(1 0 0 1 47.50 41.50)">7</text>
	<text transform="matrix(1 0 0 1 37.50 45.50)">8</text>
	<text transform="matrix(1 0 0 1 40.50 54.50)">9</text>
	<text transform="matrix(1 0 0 1 63.50 51.50)">10</text>
	<text transform="matrix(1 0 0 1 6.50 74.88)">11</text>
	<text transform="matrix(1 0 0 1 40.50 67.50)">12</text>
	<text transform="matrix(1 0 0 1 64.50 80.50)">13</text>
</g>
</svg>
