<?xml version="1.0" encoding="UTF-8"?>
<!--
Copyright (C) 2009/2010/2011 Ulrich Apel.
This work is distributed under the conditions of the Creative Commons 
Attribution-Share Alike 3.0 Licence. This means you are free:
* to Share - to copy, distribute and transmit the work
* to Remix - to adapt the work

Under the following conditions:
* Attribution. You must attribute the work by stating your use of KanjiVG in
  your own copyright header and linking to KanjiVG's website
  (http://kanjivg.tagaini.net)
* Share Alike. If you alter, transform, or build upon this work, you may
  distribute the resulting work only under the same or similar license to this
  one.

See http://creativecommons.org/licenses/by-sa/3.0/ for more details.
-->
<!DOCTYPE svg PUBLIC "-//W3C//DTD SVG 1.0//EN" "http://www.w3.org/TR/2001/REC-SVG-20010904/DTD/svg10.dtd" [
<!ATTLIST g
xmlns:kvg CDATA #FIXED "http://kanjivg.tagaini.net"
kvg:element CDATA #IMPLIED
kvg:variant CDATA #IMPLIED
kvg:partial CDATA #IMPLIED
kvg:original CDATA #IMPLIED
kvg:part CDATA #IMPLIED
kvg:number CDATA #IMPLIED
kvg:tradForm CDATA #IMPLIED
kvg:radicalForm CDATA #IMPLIED
kvg:position CDATA #IMPLIED
kvg:radical CDATA #IMPLIED
kvg:phon CDATA #IMPLIED >
<!ATTLIST path
xmlns:kvg CDATA #FIXED "http://kanjivg.tagaini.net"
kvg:type CDATA #IMPLIED >
]>
<svg xmlns="http://www.w3.org/2000/svg" width="109" height="109" viewBox="0 0 109 109">
<g id="kvg:StrokePaths_05999" style="fill:none;stroke:#000000;stroke-width:3;stroke-linecap:round;stroke-linejoin:round;">
<g id="kvg:05999" kvg:element="妙">
	<g id="kvg:05999-g1" kvg:element="女" kvg:variant="true" kvg:position="left" kvg:radical="general">
		<path id="kvg:05999-s1" kvg:type="㇛" d="M27.3,18.62c0.37,0.93,0.53,2.44,0.34,3.78c-0.93,6.58-4.39,29.35-7.87,38.58c-0.63,1.67,0.37,2.23,0.84,2.34c6.9,1.56,12.19,4.83,16.09,9.23c1.55,1.75,2.88,3.67,4,5.74"/>
		<path id="kvg:05999-s2" kvg:type="㇒" d="M39.75,34.07c0.5,1.05,0.89,2.59,0.59,4.43c-2.41,14.84-8.71,37.88-27.34,51"/>
		<path id="kvg:05999-s3" kvg:type="㇀/㇐" d="M10,47.47c0.75,1.03,1.79,1.58,3.75,1.14c7.75-1.74,19.75-4.86,30.5-7.23"/>
	</g>
	<g id="kvg:05999-g2" kvg:element="少" kvg:position="right">
		<g id="kvg:05999-g3" kvg:element="小">
			<path id="kvg:05999-s4" kvg:type="㇚" d="M69.96,12.25c0.96,0.96,1.01,2,1.01,3.33c0,10.12-0.01,37.95-0.01,41.4c0,9.77-4.21,2.54-5.71,1.67"/>
			<path id="kvg:05999-s5" kvg:type="㇒" d="M57.95,35.92c0.04,0.54,0.14,1.42-0.08,2.16c-1.54,5.38-8.04,15.76-13.33,20.72"/>
			<path id="kvg:05999-s6" kvg:type="㇔" d="M84.13,34.11c5.4,2.98,12.64,10.65,13.99,15.29"/>
		</g>
		<g id="kvg:05999-g4" kvg:element="丿">
			<path id="kvg:05999-s7" kvg:type="㇒" d="M86.27,48.07c0.11,1.17,0.08,2.79-0.48,4.45c-4.56,13.68-21.55,34.73-39.9,45.23"/>
		</g>
	</g>
</g>
</g>
<g id="kvg:StrokeNumbers_05999" style="font-size:8;fill:#808080">
	<text transform="matrix(1 0 0 1 19.50 18.13)">1</text>
	<text transform="matrix(1 0 0 1 34.75 30.13)">2</text>
	<text transform="matrix(1 0 0 1 3.50 54.13)">3</text>
	<text transform="matrix(1 0 0 1 60.50 12.13)">4</text>
	<text transform="matrix(1 0 0 1 53.50 32.50)">5</text>
	<text transform="matrix(1 0 0 1 78.75 32.50)">6</text>
	<text transform="matrix(1 0 0 1 78.75 47.50)">7</text>
</g>
</svg>
