<?xml version="1.0" encoding="UTF-8"?>
<!--
Copyright (C) 2009/2010/2011 Ulrich Apel.
This work is distributed under the conditions of the Creative Commons 
Attribution-Share Alike 3.0 Licence. This means you are free:
* to Share - to copy, distribute and transmit the work
* to Remix - to adapt the work

Under the following conditions:
* Attribution. You must attribute the work by stating your use of KanjiVG in
  your own copyright header and linking to KanjiVG's website
  (http://kanjivg.tagaini.net)
* Share Alike. If you alter, transform, or build upon this work, you may
  distribute the resulting work only under the same or similar license to this
  one.

See http://creativecommons.org/licenses/by-sa/3.0/ for more details.
-->
<!DOCTYPE svg PUBLIC "-//W3C//DTD SVG 1.0//EN" "http://www.w3.org/TR/2001/REC-SVG-20010904/DTD/svg10.dtd" [
<!ATTLIST g
xmlns:kvg CDATA #FIXED "http://kanjivg.tagaini.net"
kvg:element CDATA #IMPLIED
kvg:variant CDATA #IMPLIED
kvg:partial CDATA #IMPLIED
kvg:original CDATA #IMPLIED
kvg:part CDATA #IMPLIED
kvg:number CDATA #IMPLIED
kvg:tradForm CDATA #IMPLIED
kvg:radicalForm CDATA #IMPLIED
kvg:position CDATA #IMPLIED
kvg:radical CDATA #IMPLIED
kvg:phon CDATA #IMPLIED >
<!ATTLIST path
xmlns:kvg CDATA #FIXED "http://kanjivg.tagaini.net"
kvg:type CDATA #IMPLIED >
]>
<svg xmlns="http://www.w3.org/2000/svg" width="109" height="109" viewBox="0 0 109 109">
<g id="kvg:StrokePaths_059ea" style="fill:none;stroke:#000000;stroke-width:3;stroke-linecap:round;stroke-linejoin:round;">
<g id="kvg:059ea" kvg:element="姪">
	<g id="kvg:059ea-g1" kvg:element="女" kvg:variant="true" kvg:position="left" kvg:radical="general">
		<path id="kvg:059ea-s1" kvg:type="㇛" d="M28.98,16.87c0.39,1.07,1.08,2.82,0.89,4.36c-0.98,7.59-5.32,34.59-9.63,43.47c-0.89,1.82,0.39,2.57,0.89,2.7c8.63,2.35,17.38,8.35,22.63,16.19"/>
		<path id="kvg:059ea-s2" kvg:type="㇒" d="M41.75,38.48c0.08,1.25,0.13,4.27-0.16,6.08c-2.34,14.61-9.1,35.32-25.85,46.19"/>
		<path id="kvg:059ea-s3" kvg:type="㇀/㇐" d="M11,49.09c0.75,0.97,1.75,1.66,3.75,1.43c2.15-0.25,21.34-4.98,30.25-7.43"/>
	</g>
	<g id="kvg:059ea-g2" kvg:element="至" kvg:position="right">
		<path id="kvg:059ea-s4" kvg:type="㇐" d="M46.75,18.66c0.79,0.4,2.24,0.47,3.03,0.4c10.86-1.07,27.54-4.27,40.77-4.76c1.32-0.05,2.11,0.19,2.77,0.39"/>
		<g id="kvg:059ea-g3" kvg:element="厶">
			<path id="kvg:059ea-s5" kvg:type="㇜" d="M65.21,20.65c0.46,0.55,0.63,2.29,0.28,2.94c-4.07,7.47-7.37,12.28-12.99,19.48c-1.81,2.32-1.94,3.89,0.97,3.2c6.79-1.6,22.69-5.87,33.39-8.51"/>
			<path id="kvg:059ea-s6" kvg:type="㇔" d="M80.81,28.66c3.9,3.06,10.08,12.59,11.05,17.35"/>
		</g>
		<g id="kvg:059ea-g4" kvg:element="土">
			<path id="kvg:059ea-s7" kvg:type="㇐" d="M52.21,68.9c0.76,0.33,2.16,0.4,2.92,0.33c7.84-0.8,24.91-3.18,32.04-3.18c1.27,0,2.03,0.15,2.66,0.32"/>
			<path id="kvg:059ea-s8" kvg:type="㇑a" d="M69.11,45.06c0.09,0.25,1.4,1.29,1.37,2.87c-0.15,9.02,0.43,39.27,0.43,41.84"/>
			<path id="kvg:059ea-s9" kvg:type="㇐" d="M40.38,92.83c1.18,0.46,3.35,0.59,4.52,0.46c17.3-1.91,31.05-3.77,53.61-3.89c1.96-0.01,3.14,0.22,4.12,0.45"/>
		</g>
	</g>
</g>
</g>
<g id="kvg:StrokeNumbers_059ea" style="font-size:8;fill:#808080">
	<text transform="matrix(1 0 0 1 24.25 16.63)">1</text>
	<text transform="matrix(1 0 0 1 40.25 28.55)">2</text>
	<text transform="matrix(1 0 0 1 9.25 40.48)">3</text>
	<text transform="matrix(1 0 0 1 53.25 11.40)">4</text>
	<text transform="matrix(1 0 0 1 56.25 28.33)">5</text>
	<text transform="matrix(1 0 0 1 83.25 27.25)">6</text>
	<text transform="matrix(1 0 0 1 49.25 63.18)">7</text>
	<text transform="matrix(1 0 0 1 61.25 55.10)">8</text>
	<text transform="matrix(1 0 0 1 47.25 88.03)">9</text>
</g>
</svg>
