<?xml version="1.0" encoding="UTF-8"?>
<!--
Copyright (C) 2009/2010/2011 Ulrich Apel.
This work is distributed under the conditions of the Creative Commons 
Attribution-Share Alike 3.0 Licence. This means you are free:
* to Share - to copy, distribute and transmit the work
* to Remix - to adapt the work

Under the following conditions:
* Attribution. You must attribute the work by stating your use of KanjiVG in
  your own copyright header and linking to KanjiVG's website
  (http://kanjivg.tagaini.net)
* Share Alike. If you alter, transform, or build upon this work, you may
  distribute the resulting work only under the same or similar license to this
  one.

See http://creativecommons.org/licenses/by-sa/3.0/ for more details.
-->
<!DOCTYPE svg PUBLIC "-//W3C//DTD SVG 1.0//EN" "http://www.w3.org/TR/2001/REC-SVG-20010904/DTD/svg10.dtd" [
<!ATTLIST g
xmlns:kvg CDATA #FIXED "http://kanjivg.tagaini.net"
kvg:element CDATA #IMPLIED
kvg:variant CDATA #IMPLIED
kvg:partial CDATA #IMPLIED
kvg:original CDATA #IMPLIED
kvg:part CDATA #IMPLIED
kvg:number CDATA #IMPLIED
kvg:tradForm CDATA #IMPLIED
kvg:radicalForm CDATA #IMPLIED
kvg:position CDATA #IMPLIED
kvg:radical CDATA #IMPLIED
kvg:phon CDATA #IMPLIED >
<!ATTLIST path
xmlns:kvg CDATA #FIXED "http://kanjivg.tagaini.net"
kvg:type CDATA #IMPLIED >
]>
<svg xmlns="http://www.w3.org/2000/svg" width="109" height="109" viewBox="0 0 109 109">
<g id="kvg:StrokePaths_05a25" style="fill:none;stroke:#000000;stroke-width:3;stroke-linecap:round;stroke-linejoin:round;">
<g id="kvg:05a25" kvg:element="娥">
	<g id="kvg:05a25-g1" kvg:element="女" kvg:variant="true" kvg:position="left" kvg:radical="general">
		<path id="kvg:05a25-s1" kvg:type="㇛" d="M25.87,16.37c0.38,1.13,1.07,2.99,0.88,4.63c-0.97,8.06-7.24,33.5-11.52,42.93c-0.88,1.94,0.38,2.74,0.88,2.87C23.5,68.75,33.75,75.25,39,85"/>
		<path id="kvg:05a25-s2" kvg:type="㇒" d="M37.25,37c0.08,1.28,0.14,4.4-0.17,6.25c-2.5,15.02-9.71,36.32-27.58,47.5"/>
		<path id="kvg:05a25-s3" kvg:type="㇀/㇐" d="M7,46.96C7.75,48,9.25,48.25,11.25,48c2.15-0.27,18.5-4,30.75-6.53"/>
	</g>
	<g id="kvg:05a25-g2" kvg:element="我" kvg:position="right">
		<g id="kvg:05a25-g3" kvg:element="丿">
			<path id="kvg:05a25-s4" kvg:type="㇒" d="M62.6,14.68c0.05,0.37,0.19,1.01-0.1,1.48c-2.27,3.73-7.61,9.33-17.25,14.16"/>
		</g>
		<g id="kvg:05a25-g4" kvg:element="戈" kvg:part="1">
			<g id="kvg:05a25-g5" kvg:element="弋" kvg:part="1">
				<path id="kvg:05a25-s5" kvg:type="㇐" d="M43.43,44.24c1.26,0.45,3.59,0.59,4.85,0.45c12.47-1.43,34.92-6.33,42.61-6.67c2.1-0.09,3.37,0.21,4.42,0.44"/>
			</g>
		</g>
		<g id="kvg:05a25-g6" kvg:element="亅">
			<path id="kvg:05a25-s6" kvg:type="㇚" d="M56.29,25.99c0.84,0.96,1.58,2.62,1.66,5.81c0.35,15.33-0.21,54.21-0.23,59.43c-0.04,9.77-6.17,0.55-7.49-0.76"/>
		</g>
		<path id="kvg:05a25-s7" kvg:type="㇀" d="M40.73,68.76c1.97,1.51,3.21,1.78,5.18,0.49c1.16-0.76,16.32-10.64,21.26-14.31"/>
		<g id="kvg:05a25-g7" kvg:element="戈" kvg:part="2">
			<g id="kvg:05a25-g8" kvg:element="弋" kvg:part="2">
				<path id="kvg:05a25-s8" kvg:type="㇂" d="M72.14,13c1.2,1.93,1.86,2.25,1.95,5.13c1.05,34.13,8.41,60.62,20.74,76.22c3.79,4.8,4.05,0.83,3.45-7.73"/>
			</g>
			<g id="kvg:05a25-g9" kvg:element="丿">
				<path id="kvg:05a25-s9" kvg:type="㇒" d="M91.55,46.59c0.07,0.75,0.14,1.93-0.13,3.01c-1.62,6.34-10.57,23.96-23.3,32.48"/>
			</g>
			<g id="kvg:05a25-g10" kvg:element="弋" kvg:part="3">
				<g id="kvg:05a25-g11" kvg:element="丶">
					<path id="kvg:05a25-s10" kvg:type="㇔" d="M85.5,17.55c2.8,2,7.27,6.57,8.57,10"/>
				</g>
			</g>
		</g>
	</g>
</g>
</g>
<g id="kvg:StrokeNumbers_05a25" style="font-size:8;fill:#808080">
	<text transform="matrix(1 0 0 1 19.00 17.50)">1</text>
	<text transform="matrix(1 0 0 1 33.00 32.50)">2</text>
	<text transform="matrix(1 0 0 1 0.00 47.50)">3</text>
	<text transform="matrix(1 0 0 1 55.00 13.50)">4</text>
	<text transform="matrix(1 0 0 1 46.00 41.50)">5</text>
	<text transform="matrix(1 0 0 1 50.69 35.50)">6</text>
	<text transform="matrix(1 0 0 1 39.00 64.43)">7</text>
	<text transform="matrix(1 0 0 1 66.00 9.50)">8</text>
	<text transform="matrix(1 0 0 1 84.00 48.50)">9</text>
	<text transform="matrix(1 0 0 1 78.00 14.50)">10</text>
</g>
</svg>
