<?xml version="1.0" encoding="UTF-8"?>
<!--
Copyright (C) 2009/2010/2011 Ulrich Apel.
This work is distributed under the conditions of the Creative Commons 
Attribution-Share Alike 3.0 Licence. This means you are free:
* to Share - to copy, distribute and transmit the work
* to Remix - to adapt the work

Under the following conditions:
* Attribution. You must attribute the work by stating your use of KanjiVG in
  your own copyright header and linking to KanjiVG's website
  (http://kanjivg.tagaini.net)
* Share Alike. If you alter, transform, or build upon this work, you may
  distribute the resulting work only under the same or similar license to this
  one.

See http://creativecommons.org/licenses/by-sa/3.0/ for more details.
-->
<!DOCTYPE svg PUBLIC "-//W3C//DTD SVG 1.0//EN" "http://www.w3.org/TR/2001/REC-SVG-20010904/DTD/svg10.dtd" [
<!ATTLIST g
xmlns:kvg CDATA #FIXED "http://kanjivg.tagaini.net"
kvg:element CDATA #IMPLIED
kvg:variant CDATA #IMPLIED
kvg:partial CDATA #IMPLIED
kvg:original CDATA #IMPLIED
kvg:part CDATA #IMPLIED
kvg:number CDATA #IMPLIED
kvg:tradForm CDATA #IMPLIED
kvg:radicalForm CDATA #IMPLIED
kvg:position CDATA #IMPLIED
kvg:radical CDATA #IMPLIED
kvg:phon CDATA #IMPLIED >
<!ATTLIST path
xmlns:kvg CDATA #FIXED "http://kanjivg.tagaini.net"
kvg:type CDATA #IMPLIED >
]>
<svg xmlns="http://www.w3.org/2000/svg" width="109" height="109" viewBox="0 0 109 109">
<g id="kvg:StrokePaths_05a5a-Kaisho" style="fill:none;stroke:#000000;stroke-width:3;stroke-linecap:round;stroke-linejoin:round;">
<g id="kvg:05a5a-Kaisho" kvg:element="婚">
	<g id="kvg:05a5a-Kaisho-g1" kvg:element="女" kvg:variant="true" kvg:position="left" kvg:radical="general">
		<path id="kvg:05a5a-Kaisho-s1" kvg:type="㇛" d="M26.48,18.37c0.39,1.04,1.08,2.74,0.89,4.24C26.38,30,21.05,55.76,16.73,64.4c-0.89,1.77,0.4,2.46,0.89,2.63C27,70.25,36.5,77.66,41.75,85.28"/>
		<path id="kvg:05a5a-Kaisho-s2" kvg:type="㇒" d="M39.5,36.39c0.08,1.29,0.14,4.42-0.16,6.29C36.96,57.8,32.82,77.24,15,91.5"/>
		<path id="kvg:05a5a-Kaisho-s3" kvg:type="㇀/㇐" d="M9.5,48.22c0.75,0.94,1.75,1.62,3.75,1.39c2.15-0.24,21.34-4.35,30.25-6.73"/>
	</g>
	<g id="kvg:05a5a-Kaisho-g2" kvg:element="昏" kvg:position="right">
		<g id="kvg:05a5a-Kaisho-g3" kvg:element="氏" kvg:position="top">
			<path id="kvg:05a5a-Kaisho-s4" kvg:type="㇒" d="M78.1,12.25c0.06,0.28,0.13,0.72-0.13,1.12c-1.55,2.35-12.43,8.53-24.6,11.69"/>
			<path id="kvg:05a5a-Kaisho-s5" kvg:type="㇙" d="M51.75,23.87c0.53,0.92,0.88,2.25,0.88,3.7c0,1.45-0.18,25.71-0.18,27.97c0,2.25,0.18,2.9,2.48,1.29c2.3-1.61,12.55-8.34,13.96-9.31"/>
			<path id="kvg:05a5a-Kaisho-s6" kvg:type="㇐" d="M52.93,35.44C63.25,34,80.5,30.25,89.31,28.74c1.44-0.25,2.94-0.24,4.26,0.26"/>
			<path id="kvg:05a5a-Kaisho-s7" kvg:type="㇂" d="M70.04,22.15c0.53,0.44,1.64,2.86,1.87,3.57C76.75,41,83,51.5,93.4,58.38c6.18,4.09,5.12-2.03,4.6-7"/>
		</g>
		<g id="kvg:05a5a-Kaisho-g4" kvg:element="日" kvg:position="bottom">
			<path id="kvg:05a5a-Kaisho-s8" kvg:type="㇑" d="M56.73,62.8c0.27,0.95,0.77,2.11,0.77,3.09c0,3.86,0.16,25.86,0.16,31.11"/>
			<path id="kvg:05a5a-Kaisho-s9" kvg:type="㇕a" d="M58.14,64.91c2.17-0.12,22-2.99,23.97-3.14c1.65-0.12,2.7,0.99,2.7,3.59c0,6.9-0.29,28.99-0.29,29.73"/>
			<path id="kvg:05a5a-Kaisho-s10" kvg:type="㇐a" d="M57.9,78.27c4.18,0,8.42-0.57,12.57-0.93c1.41-0.12,2.83-0.25,4.21-0.37"/>
			<path id="kvg:05a5a-Kaisho-s11" kvg:type="㇐a" d="M57.93,94.22c5.97-0.53,18.75-1.45,26.19-1.91"/>
		</g>
	</g>
</g>
</g>
<g id="kvg:StrokeNumbers_05a5a-Kaisho" style="font-size:8;fill:#808080">
	<text transform="matrix(1 0 0 1 18.75 18.50)">1</text>
	<text transform="matrix(1 0 0 1 33.75 32.50)">2</text>
	<text transform="matrix(1 0 0 1 2.25 49.63)">3</text>
	<text transform="matrix(1 0 0 1 68.25 12.13)">4</text>
	<text transform="matrix(1 0 0 1 45.50 32.50)">5</text>
	<text transform="matrix(1 0 0 1 57.25 32.13)">6</text>
	<text transform="matrix(1 0 0 1 64.50 29.50)">7</text>
	<text transform="matrix(1 0 0 1 50.25 73.63)">8</text>
	<text transform="matrix(1 0 0 1 61.50 61.50)">9</text>
	<text transform="matrix(1 0 0 1 60.50 75.05)">10</text>
	<text transform="matrix(1 0 0 1 60.76 90.50)">11</text>
</g>
</svg>
