<?xml version="1.0" encoding="UTF-8"?>
<!--
Copyright (C) 2009/2010/2011 Ulrich Apel.
This work is distributed under the conditions of the Creative Commons 
Attribution-Share Alike 3.0 Licence. This means you are free:
* to Share - to copy, distribute and transmit the work
* to Remix - to adapt the work

Under the following conditions:
* Attribution. You must attribute the work by stating your use of KanjiVG in
  your own copyright header and linking to KanjiVG's website
  (http://kanjivg.tagaini.net)
* Share Alike. If you alter, transform, or build upon this work, you may
  distribute the resulting work only under the same or similar license to this
  one.

See http://creativecommons.org/licenses/by-sa/3.0/ for more details.
-->
<!DOCTYPE svg PUBLIC "-//W3C//DTD SVG 1.0//EN" "http://www.w3.org/TR/2001/REC-SVG-20010904/DTD/svg10.dtd" [
<!ATTLIST g
xmlns:kvg CDATA #FIXED "http://kanjivg.tagaini.net"
kvg:element CDATA #IMPLIED
kvg:variant CDATA #IMPLIED
kvg:partial CDATA #IMPLIED
kvg:original CDATA #IMPLIED
kvg:part CDATA #IMPLIED
kvg:number CDATA #IMPLIED
kvg:tradForm CDATA #IMPLIED
kvg:radicalForm CDATA #IMPLIED
kvg:position CDATA #IMPLIED
kvg:radical CDATA #IMPLIED
kvg:phon CDATA #IMPLIED >
<!ATTLIST path
xmlns:kvg CDATA #FIXED "http://kanjivg.tagaini.net"
kvg:type CDATA #IMPLIED >
]>
<svg xmlns="http://www.w3.org/2000/svg" width="109" height="109" viewBox="0 0 109 109">
<g id="kvg:StrokePaths_05a5a" style="fill:none;stroke:#000000;stroke-width:3;stroke-linecap:round;stroke-linejoin:round;">
<g id="kvg:05a5a" kvg:element="婚">
	<g id="kvg:05a5a-g1" kvg:element="女" kvg:variant="true" kvg:position="left" kvg:radical="general">
		<path id="kvg:05a5a-s1" kvg:type="㇛" d="M26.98,18.37c0.39,1.04,0.58,2.49,0.39,3.99c-0.98,7.39-5.56,33.4-9.88,42.04c-0.89,1.77,0.39,2.5,0.89,2.63c7.38,1.97,12.85,5.57,18.1,10.76c2.03,2.01,3.79,4.71,5.29,7.49"/>
		<path id="kvg:05a5a-s2" kvg:type="㇒" d="M39.5,36.64c0.5,1.36,0.64,2.67,0.34,4.54C37.46,56.3,32.82,77.24,15,91.5"/>
		<path id="kvg:05a5a-s3" kvg:type="㇀/㇐" d="M9.5,48.22c0.62,1.16,1.79,1.84,3.75,1.39c12.5-2.86,16.5-3.74,30.25-7.23"/>
	</g>
	<g id="kvg:05a5a-g2" kvg:element="昏" kvg:position="right" kvg:phon="昏">
		<g id="kvg:05a5a-g3" kvg:element="氏" kvg:position="top">
			<path id="kvg:05a5a-s4" kvg:type="㇒" d="M78.1,12c-0.1,1-0.45,2.05-1.21,2.52c-3.11,2.77-10.76,6.73-22.27,10.29"/>
			<path id="kvg:05a5a-s5" kvg:type="㇙" d="M50.75,23.87c1,1,1.38,2.5,1.38,3.95c0,1.45,0.07,22.43,0.07,26.72c0,2.25,1.43,2.65,3.73,1.04c2.3-1.61,11.3-7.09,12.71-8.06"/>
			<path id="kvg:05a5a-s6" kvg:type="㇐" d="M54.43,35.19c1.44-0.07,2.92-0.43,4.53-0.7c9.53-1.59,20.64-3.58,28.32-4.94c2.08-0.37,4.6-0.92,6.54-0.55"/>
			<path id="kvg:05a5a-s7" kvg:type="㇂" d="M70.04,22.15c1.21,0.85,1.46,2.23,1.87,3.57C76.6,41.05,83,51.75,93.4,58.63c6.18,4.09,5.12-2.28,4.6-7.25"/>
		</g>
		<g id="kvg:05a5a-g4" kvg:element="日" kvg:position="bottom">
			<path id="kvg:05a5a-s8" kvg:type="㇑" d="M56.23,63.3c0.73,0.73,1.02,1.86,1.02,2.84c0,3.35,0,17.31,0,25.36c0,2.73,0,4.77,0,5.5"/>
			<path id="kvg:05a5a-s9" kvg:type="㇕a" d="M58.14,64.91c1.9-0.11,17.34-2.32,22.48-2.97c2.72-0.34,4.19,0.41,4.19,3.42c0,4.97-0.15,17.82-0.24,24.9c-0.03,2.75-0.06,4.62-0.06,4.83"/>
			<path id="kvg:05a5a-s10" kvg:type="㇐a" d="M58.4,78.27c4.47-0.52,18.97-1.89,25.25-2.4"/>
			<path id="kvg:05a5a-s11" kvg:type="㇐a" d="M58.43,93.97c5.97-0.53,17.5-1.45,24.94-1.91"/>
		</g>
	</g>
</g>
</g>
<g id="kvg:StrokeNumbers_05a5a" style="font-size:8;fill:#808080">
	<text transform="matrix(1 0 0 1 18.75 18.50)">1</text>
	<text transform="matrix(1 0 0 1 33.75 32.50)">2</text>
	<text transform="matrix(1 0 0 1 2.25 49.63)">3</text>
	<text transform="matrix(1 0 0 1 68.25 12.13)">4</text>
	<text transform="matrix(1 0 0 1 45.50 32.50)">5</text>
	<text transform="matrix(1 0 0 1 57.25 32.13)">6</text>
	<text transform="matrix(1 0 0 1 64.50 29.50)">7</text>
	<text transform="matrix(1 0 0 1 50.25 73.63)">8</text>
	<text transform="matrix(1 0 0 1 61.50 61.50)">9</text>
	<text transform="matrix(1 0 0 1 60.50 75.05)">10</text>
	<text transform="matrix(1 0 0 1 60.76 90.50)">11</text>
</g>
</svg>
