<?xml version="1.0" encoding="UTF-8"?>
<!--
Copyright (C) 2009/2010/2011 Ulrich Apel.
This work is distributed under the conditions of the Creative Commons
Attribution-Share Alike 3.0 Licence. This means you are free:
* to Share - to copy, distribute and transmit the work
* to Remix - to adapt the work

Under the following conditions:
* Attribution. You must attribute the work by stating your use of KanjiVG in
  your own copyright header and linking to KanjiVG's website
  (http://kanjivg.tagaini.net)
* Share Alike. If you alter, transform, or build upon this work, you may
  distribute the resulting work only under the same or similar license to this
  one.

See http://creativecommons.org/licenses/by-sa/3.0/ for more details.
-->
<!DOCTYPE svg PUBLIC "-//W3C//DTD SVG 1.0//EN" "http://www.w3.org/TR/2001/REC-SVG-20010904/DTD/svg10.dtd" [
<!ATTLIST g
xmlns:kvg CDATA #FIXED "http://kanjivg.tagaini.net"
kvg:element CDATA #IMPLIED
kvg:variant CDATA #IMPLIED
kvg:partial CDATA #IMPLIED
kvg:original CDATA #IMPLIED
kvg:part CDATA #IMPLIED
kvg:number CDATA #IMPLIED
kvg:tradForm CDATA #IMPLIED
kvg:radicalForm CDATA #IMPLIED
kvg:position CDATA #IMPLIED
kvg:radical CDATA #IMPLIED
kvg:phon CDATA #IMPLIED >
<!ATTLIST path
xmlns:kvg CDATA #FIXED "http://kanjivg.tagaini.net"
kvg:type CDATA #IMPLIED >
]>
<svg xmlns="http://www.w3.org/2000/svg" width="109" height="109" viewBox="0 0 109 109">
<g id="kvg:StrokePaths_05ac2-MdFst" style="fill:none;stroke:#000000;stroke-width:3;stroke-linecap:round;stroke-linejoin:round;">
<g id="kvg:05ac2-MdFst" kvg:element="嫂">
	<g id="kvg:05ac2-MdFst-g1" kvg:element="女" kvg:variant="true" kvg:position="left" kvg:radical="general">
		<path id="kvg:05ac2-MdFst-s1" kvg:type="㇛" d="M26.48,17.37c0.39,1.04,1.08,2.74,0.89,4.24C26.38,29,20.55,54.76,16.23,63.4c-0.89,1.77,0.4,2.46,0.89,2.63c9.38,3.22,18.38,10.62,23.63,18.25"/>
		<path id="kvg:05ac2-MdFst-s2" kvg:type="㇒" d="M38.25,36.89c0.08,1.27,0.14,4.34-0.16,6.18C35.68,57.91,28.73,78.96,11.5,90"/>
		<path id="kvg:05ac2-MdFst-s3" kvg:type="㇀/㇐" d="M8.5,46.72c0.75,0.94,1.75,1.62,3.75,1.39c2.15-0.24,21.34-4.35,30.25-6.73"/>
	</g>
	<g id="kvg:05ac2-MdFst-g2" kvg:element="叟" kvg:position="right">
		<g id="kvg:05ac2-MdFst-g3" kvg:position="top">
			<g id="kvg:05ac2-MdFst-g4" kvg:element="丨">
				<path id="kvg:05ac2-MdFst-s4" kvg:type="㇑" d="M65.39,11.75c0.89,0.47,1.43,2.12,1.61,3.07c0.18,0.94,0,38.91-0.18,44.81"/>
			</g>
			<g id="kvg:05ac2-MdFst-g5" kvg:element="臼" kvg:variant="true">
				<path id="kvg:05ac2-MdFst-s5" kvg:type="㇒" d="M58.14,16.4c0.03,0.2-0.16,0.97-0.35,1.19c-2.49,2.83-4.8,4.96-10.47,7.21"/>
				<path id="kvg:05ac2-MdFst-s6" kvg:type="㇑" d="M45.85,23.1c0.6,0.71,1.35,2.29,1.5,3.74c0.55,5.3,1.91,16.61,2.46,23.77"/>
				<path id="kvg:05ac2-MdFst-s7" kvg:type="㇐" d="M48.39,35.18c2.99-0.32,9.3-2.08,10.01-2.08c0.71,0,1.71,0,2.27,0"/>
				<path id="kvg:05ac2-MdFst-s8" kvg:type="㇕" d="M73.51,17.74c0.71,0.16,1.28,0.48,2.27,0.48s10.8-1.93,11.94-2.09c1.14-0.16,2.08,0.8,1.99,1.77c-0.85,9.34-3.7,29.4-3.84,30.05"/>
				<path id="kvg:05ac2-MdFst-s9" kvg:type="㇐" d="M72.94,31.48c0.71,0.16,1.28,0.48,2.27,0.48c0.99,0,11.73-0.82,12.87-0.98"/>
				<path id="kvg:05ac2-MdFst-s10" kvg:type="㇐" d="M50.709138,50.371897 c 2.401445,-0.103347 2.750499,-0.18351 4.387027,-0.437677 3.483453,-0.54101 23.357254,-2.822909 25.564761,-3.00199 3.187698,-0.258599 4.316029,-0.226612 4.876029,-0.226612"/>
			</g>
		</g>
		<g id="kvg:05ac2-MdFst-g6" kvg:element="又" kvg:position="bottom">
			<path id="kvg:05ac2-MdFst-s11" kvg:type="㇇" d="M47.02,62.21c1.68,0.27,1.91,0.86,5.24,0.27c5.24-0.94,27.45-3.88,29.76-4.28c2.31-0.4,3.3,2.54,2.31,3.89C72.38,78.3,56.82,89.44,37.96,96"/>
			<path id="kvg:05ac2-MdFst-s12" kvg:type="㇏" d="M51.41,67.44c6.17,0.16,24.17,18.16,38.46,25.33c2.23,1.12,3.85,1.86,5.92,2.23"/>
		</g>
	</g>
</g>
</g>
<g id="kvg:StrokeNumbers_05ac2-MdFst" style="font-size:8;fill:#808080">
	<text transform="matrix(1 0 0 1 19.5 16.63)">1</text>
	<text transform="matrix(1 0 0 1 31.5 32.5)">2</text>
	<text transform="matrix(1 0 0 1 0.5 47.5)">3</text>
	<text transform="matrix(1 0 0 1 62.70 10)">4</text>
	<text transform="matrix(1 0 0 1 55.75 14.5)">5</text>
	<text transform="matrix(1 0 0 1 41.25 21.4)">6</text>
	<text transform="matrix(1 0 0 1 49.85 32.75)">7</text>
	<text transform="matrix(1 0 0 1 71.85 15.4)">8</text>
	<text transform="matrix(1 0 0 1 70.9 29.75)">9</text>
	<text transform="matrix(1 0 0 1 50.75 46.6)">10</text>
	<text transform="matrix(1 0 0 1 48.4 60.1)">11</text>
	<text transform="matrix(1 0 0 1 43.6 75.5)">12</text>
</g>
</svg>
