<?xml version="1.0" encoding="UTF-8"?>
<!--
Copyright (C) 2009/2010/2011 Ulrich Apel.
This work is distributed under the conditions of the Creative Commons 
Attribution-Share Alike 3.0 Licence. This means you are free:
* to Share - to copy, distribute and transmit the work
* to Remix - to adapt the work

Under the following conditions:
* Attribution. You must attribute the work by stating your use of KanjiVG in
  your own copyright header and linking to KanjiVG's website
  (http://kanjivg.tagaini.net)
* Share Alike. If you alter, transform, or build upon this work, you may
  distribute the resulting work only under the same or similar license to this
  one.

See http://creativecommons.org/licenses/by-sa/3.0/ for more details.
-->
<!DOCTYPE svg PUBLIC "-//W3C//DTD SVG 1.0//EN" "http://www.w3.org/TR/2001/REC-SVG-20010904/DTD/svg10.dtd" [
<!ATTLIST g
xmlns:kvg CDATA #FIXED "http://kanjivg.tagaini.net"
kvg:element CDATA #IMPLIED
kvg:variant CDATA #IMPLIED
kvg:partial CDATA #IMPLIED
kvg:original CDATA #IMPLIED
kvg:part CDATA #IMPLIED
kvg:number CDATA #IMPLIED
kvg:tradForm CDATA #IMPLIED
kvg:radicalForm CDATA #IMPLIED
kvg:position CDATA #IMPLIED
kvg:radical CDATA #IMPLIED
kvg:phon CDATA #IMPLIED >
<!ATTLIST path
xmlns:kvg CDATA #FIXED "http://kanjivg.tagaini.net"
kvg:type CDATA #IMPLIED >
]>
<svg xmlns="http://www.w3.org/2000/svg" width="109" height="109" viewBox="0 0 109 109">
<g id="kvg:StrokePaths_05b40" style="fill:none;stroke:#000000;stroke-width:3;stroke-linecap:round;stroke-linejoin:round;">
<g id="kvg:05b40" kvg:element="孀">
	<g id="kvg:05b40-g1" kvg:element="女" kvg:variant="true" kvg:position="left" kvg:radical="general">
		<path id="kvg:05b40-s1" kvg:type="㇛" d="M25.48,15.87c0.39,1.04,1.08,2.74,0.89,4.24c-0.98,7.39-6.81,32.65-11.13,41.29c-0.89,1.77,0.39,2.52,0.89,2.63C25,66,32.5,72.5,36.25,79.28"/>
		<path id="kvg:05b40-s2" kvg:type="㇒" d="M35.75,36.39c0.08,1.22,0.13,4.18-0.16,5.95C33.25,56.62,26.5,76.87,9.75,87.5"/>
		<path id="kvg:05b40-s3" kvg:type="㇀/㇐" d="M9,44.27c0.68,0.91,1.6,1.56,3.42,1.34c1.96-0.23,19.46-4.18,27.58-6.48"/>
	</g>
	<g id="kvg:05b40-g2" kvg:element="霜" kvg:position="right">
		<g id="kvg:05b40-g3" kvg:element="雨" kvg:variant="true" kvg:position="top">
			<path id="kvg:05b40-s4" kvg:type="㇐" d="M50.85,16.35c1.24,0.14,2.84,0.25,3.96,0.12c6.61-0.78,19.95-2.49,30.2-3.08c1.57-0.09,2.87-0.12,4.32,0.08"/>
			<path id="kvg:05b40-s5" kvg:type="㇔/㇑" d="M46.56,27.16c-0.09,4.29-0.81,7.84-2.38,12.37"/>
			<path id="kvg:05b40-s6" kvg:type="㇖b/㇆" d="M47.22,29.03C63,26.5,79,24.75,92.2,24.18c6.01-0.26,2.9,3.22-0.21,6.95"/>
			<path id="kvg:05b40-s7" kvg:type="㇑" d="M68.1,17.56c0.96,0.64,1.33,1.9,1.33,3.3c0,6.3-0.18,23.88-0.18,25.29"/>
			<path id="kvg:05b40-s8" kvg:type="㇔" d="M55.07,33.28c2.14,0.49,5.05,1.96,6.21,2.78"/>
			<path id="kvg:05b40-s9" kvg:type="㇔" d="M53.1,41.71c2.23,0.59,5.68,2.75,6.9,3.74"/>
			<path id="kvg:05b40-s10" kvg:type="㇔" d="M76.51,32.17c3.32,1,7.07,3,8.4,3.83"/>
			<path id="kvg:05b40-s11" kvg:type="㇔" d="M77.98,41.11c2.5,0.73,5.92,2.94,7.28,4.17"/>
		</g>
		<g id="kvg:05b40-g4" kvg:element="相" kvg:position="bottom">
			<g id="kvg:05b40-g5" kvg:element="木" kvg:position="left">
				<path id="kvg:05b40-s12" kvg:type="㇐" d="M41.64,60.98c1.25,0.73,2.45,0.38,3.96,0.3c6.24-0.32,11.71-1.06,18.54-2.16c1.49-0.24,1.88-0.31,2.82,0"/>
				<path id="kvg:05b40-s13" kvg:type="㇑" d="M55.13,50.77c0.73,0.31,1.17,1.39,1.31,2.01C56.59,53.4,56.3,82.83,56.3,96"/>
				<path id="kvg:05b40-s14" kvg:type="㇒" d="M55.95,60.62c-2.81,7.83-10.12,18.91-15.97,23.34"/>
				<path id="kvg:05b40-s15" kvg:type="㇔" d="M57.65,66.94c3.44,1.4,6.47,4.79,9.1,8.78"/>
			</g>
			<g id="kvg:05b40-g6" kvg:element="目" kvg:position="right">
				<path id="kvg:05b40-s16" kvg:type="㇑" d="M72.39,52.01c0.33,0.94,0.81,1.64,0.81,2.89s-0.11,39,0,40.25"/>
				<path id="kvg:05b40-s17" kvg:type="㇕a" d="M73.75,53.45c1.86-0.16,15.78-2.16,17.48-2.34c1.42-0.16,2.53,0.87,2.41,2.03c-0.15,1.47-0.55,40-0.66,40.92"/>
				<path id="kvg:05b40-s18" kvg:type="㇐a" d="M73.72,65.14c3.68-0.21,15.8-1.98,18.79-1.98"/>
				<path id="kvg:05b40-s19" kvg:type="㇐a" d="M73.87,78.27c4.94-0.52,14.21-1.87,19.01-1.87"/>
				<path id="kvg:05b40-s20" kvg:type="㇐a" d="M74.46,92.37c3.71,0,13.21-1.4,18.01-1.4"/>
			</g>
		</g>
	</g>
</g>
</g>
<g id="kvg:StrokeNumbers_05b40" style="font-size:8;fill:#808080">
	<text transform="matrix(1 0 0 1 18.50 15.50)">1</text>
	<text transform="matrix(1 0 0 1 31.50 32.50)">2</text>
	<text transform="matrix(1 0 0 1 2.50 45.50)">3</text>
	<text transform="matrix(1 0 0 1 43.50 16.50)">4</text>
	<text transform="matrix(1 0 0 1 39.75 30.50)">5</text>
	<text transform="matrix(1 0 0 1 49.50 25.50)">6</text>
	<text transform="matrix(1 0 0 1 61.50 23.50)">7</text>
	<text transform="matrix(1 0 0 1 49.50 37.50)">8</text>
	<text transform="matrix(1 0 0 1 47.50 46.50)">9</text>
	<text transform="matrix(1 0 0 1 71.50 38.50)">10</text>
	<text transform="matrix(1 0 0 1 71.50 45.50)">11</text>
	<text transform="matrix(1 0 0 1 39.50 58.50)">12</text>
	<text transform="matrix(1 0 0 1 44.50 52.50)">13</text>
	<text transform="matrix(1 0 0 1 41.50 70.50)">14</text>
	<text transform="matrix(1 0 0 1 60.50 67.50)">15</text>
	<text transform="matrix(1 0 0 1 62.50 55.50)">16</text>
	<text transform="matrix(1 0 0 1 75.75 50.50)">17</text>
	<text transform="matrix(1 0 0 1 76.50 61.50)">18</text>
	<text transform="matrix(1 0 0 1 76.50 74.50)">19</text>
	<text transform="matrix(1 0 0 1 76.50 88.50)">20</text>
</g>
</svg>
