<?xml version="1.0" encoding="UTF-8"?>
<!--
Copyright (C) 2009/2010/2011 Ulrich Apel.
This work is distributed under the conditions of the Creative Commons 
Attribution-Share Alike 3.0 Licence. This means you are free:
* to Share - to copy, distribute and transmit the work
* to Remix - to adapt the work

Under the following conditions:
* Attribution. You must attribute the work by stating your use of KanjiVG in
  your own copyright header and linking to KanjiVG's website
  (http://kanjivg.tagaini.net)
* Share Alike. If you alter, transform, or build upon this work, you may
  distribute the resulting work only under the same or similar license to this
  one.

See http://creativecommons.org/licenses/by-sa/3.0/ for more details.
-->
<!DOCTYPE svg PUBLIC "-//W3C//DTD SVG 1.0//EN" "http://www.w3.org/TR/2001/REC-SVG-20010904/DTD/svg10.dtd" [
<!ATTLIST g
xmlns:kvg CDATA #FIXED "http://kanjivg.tagaini.net"
kvg:element CDATA #IMPLIED
kvg:variant CDATA #IMPLIED
kvg:partial CDATA #IMPLIED
kvg:original CDATA #IMPLIED
kvg:part CDATA #IMPLIED
kvg:number CDATA #IMPLIED
kvg:tradForm CDATA #IMPLIED
kvg:radicalForm CDATA #IMPLIED
kvg:position CDATA #IMPLIED
kvg:radical CDATA #IMPLIED
kvg:phon CDATA #IMPLIED >
<!ATTLIST path
xmlns:kvg CDATA #FIXED "http://kanjivg.tagaini.net"
kvg:type CDATA #IMPLIED >
]>
<svg xmlns="http://www.w3.org/2000/svg" width="109" height="109" viewBox="0 0 109 109">
<g id="kvg:StrokePaths_05b5b" style="fill:none;stroke:#000000;stroke-width:3;stroke-linecap:round;stroke-linejoin:round;">
<g id="kvg:05b5b" kvg:element="孛">
	<g id="kvg:05b5b-g1" kvg:position="top">
		<g id="kvg:05b5b-g2" kvg:element="十">
			<path id="kvg:05b5b-s1" kvg:type="㇐" d="M27,22.96c1.39,0.5,4.11,0.61,5.5,0.47c8.82-0.87,33.24-2.79,43.05-3.59c2.3-0.19,4.8,0.26,5.95,0.51"/>
			<path id="kvg:05b5b-s2" kvg:type="㇑" d="M52.87,10c1.09,0.5,1.96,2.23,1.96,3.25c0,7.25,0.03,16,0.03,21.5"/>
		</g>
		<g id="kvg:05b5b-g3" kvg:element="冖">
			<path id="kvg:05b5b-s3" kvg:type="㇔" d="M19.41,36.13c0,3.71-2.35,13.9-3.41,16.37"/>
			<path id="kvg:05b5b-s4" kvg:type="㇖b" d="M19.74,38.24c15.01-0.99,58.24-4.53,65.95-4.9c12.05-0.59,2.55,7.16-0.45,9.28"/>
		</g>
	</g>
	<g id="kvg:05b5b-g4" kvg:element="子" kvg:position="bottom" kvg:radical="general">
		<path id="kvg:05b5b-s5" kvg:type="㇖" d="M33.47,48.49c1.05,0.27,3.04,0.71,4.63,0.47c1.93-0.3,25.94-3.65,27.78-3.65s3.84,0.82,2,2.47c-1.84,1.65-10.32,8.65-14.99,11.64"/>
		<path id="kvg:05b5b-s6" kvg:type="㇕v" d="M51.38,58.15C57,65,63.92,79.85,57.83,94.49c-3.33,8.01-6.83,6.01-9.89,0.59"/>
		<path id="kvg:05b5b-s7" kvg:type="㇐" d="M17.44,69.77c1.3,0.65,4.66,0.87,7,0.71c8.17-0.56,52.16-5.24,62.04-4.67c2.33,0.14,4.41,0.22,5.96,0.87"/>
	</g>
</g>
</g>
<g id="kvg:StrokeNumbers_05b5b" style="font-size:8;fill:#808080">
	<text transform="matrix(1 0 0 1 21.25 23.50)">1</text>
	<text transform="matrix(1 0 0 1 42.50 9.55)">2</text>
	<text transform="matrix(1 0 0 1 13.25 36.50)">3</text>
	<text transform="matrix(1 0 0 1 22.50 34.50)">4</text>
	<text transform="matrix(1 0 0 1 26.50 49.50)">5</text>
	<text transform="matrix(1 0 0 1 44.50 60.50)">6</text>
	<text transform="matrix(1 0 0 1 10.50 71.50)">7</text>
</g>
</svg>
