<?xml version="1.0" encoding="UTF-8"?>
<!--
Copyright (C) 2009/2010/2011 Ulrich Apel.
This work is distributed under the conditions of the Creative Commons 
Attribution-Share Alike 3.0 Licence. This means you are free:
* to Share - to copy, distribute and transmit the work
* to Remix - to adapt the work

Under the following conditions:
* Attribution. You must attribute the work by stating your use of KanjiVG in
  your own copyright header and linking to KanjiVG's website
  (http://kanjivg.tagaini.net)
* Share Alike. If you alter, transform, or build upon this work, you may
  distribute the resulting work only under the same or similar license to this
  one.

See http://creativecommons.org/licenses/by-sa/3.0/ for more details.
-->
<!DOCTYPE svg PUBLIC "-//W3C//DTD SVG 1.0//EN" "http://www.w3.org/TR/2001/REC-SVG-20010904/DTD/svg10.dtd" [
<!ATTLIST g
xmlns:kvg CDATA #FIXED "http://kanjivg.tagaini.net"
kvg:element CDATA #IMPLIED
kvg:variant CDATA #IMPLIED
kvg:partial CDATA #IMPLIED
kvg:original CDATA #IMPLIED
kvg:part CDATA #IMPLIED
kvg:number CDATA #IMPLIED
kvg:tradForm CDATA #IMPLIED
kvg:radicalForm CDATA #IMPLIED
kvg:position CDATA #IMPLIED
kvg:radical CDATA #IMPLIED
kvg:phon CDATA #IMPLIED >
<!ATTLIST path
xmlns:kvg CDATA #FIXED "http://kanjivg.tagaini.net"
kvg:type CDATA #IMPLIED >
]>
<svg xmlns="http://www.w3.org/2000/svg" width="109" height="109" viewBox="0 0 109 109">
<g id="kvg:StrokePaths_05b55" style="fill:none;stroke:#000000;stroke-width:3;stroke-linecap:round;stroke-linejoin:round;">
<g id="kvg:05b55" kvg:element="孕">
	<g id="kvg:05b55-g1" kvg:element="乃" kvg:position="top">
		<g id="kvg:05b55-g2" kvg:element="丿">
			<path id="kvg:05b55-s1" kvg:type="㇒" d="M44.76,18.23c0.51,0.78,0.3,2.57-0.24,3.77c-4.77,10.5-10.27,21.5-29.14,33.66"/>
		</g>
		<path id="kvg:05b55-s2" kvg:type="㇌" d="M28.99,15.95c1.41,0.5,3.42,0.6,4.82,0.5c10.86-0.83,27.53-3.31,37.98-4.47c2.62-0.29,3.92,1.15,3.02,2.48c-2.81,4.13-6.14,12.06-8.95,16.35c-0.56,0.85-0.2,2.33,1.41,1.98c4.62-0.99,14.24-2.37,18.57-3.48c3.16-0.81,4.02,1.39,3.21,3.98c-2.8,8.96-5.07,15.2-9.18,22.58c-2.96,5.31-6.74,1.65-8.35-0.66"/>
	</g>
	<g id="kvg:05b55-g3" kvg:element="子" kvg:position="bottom" kvg:radical="general">
		<path id="kvg:05b55-s3" kvg:type="㇖" d="M35.07,45.34c1.02,0.24,2.96,0.63,4.5,0.42C41.46,45.5,66.81,42,68.6,42c1.79,0,3.24,1.24,1.44,2.71c-1.79,1.47-12,9.72-16.54,12.39"/>
		<path id="kvg:05b55-s4" kvg:type="㇕v" d="M50.86,57.79c6.08,2.05,13.14,21.17,6.97,36.23c-2.65,6.46-6.82,4.23-9.93,0.68"/>
		<path id="kvg:05b55-s5" kvg:type="㇐" d="M20.58,69.89c1.2,0.72,4.32,0.97,6.48,0.79c7.57-0.63,50.93-5.83,60.09-5.2c2.16,0.15,4.08,0.24,5.52,0.96"/>
	</g>
</g>
</g>
<g id="kvg:StrokeNumbers_05b55" style="font-size:8;fill:#808080">
	<text transform="matrix(1 0 0 1 35.50 26.50)">1</text>
	<text transform="matrix(1 0 0 1 21.50 14.50)">2</text>
	<text transform="matrix(1 0 0 1 39.50 42.50)">3</text>
	<text transform="matrix(1 0 0 1 45.50 60.40)">4</text>
	<text transform="matrix(1 0 0 1 13.50 71.50)">5</text>
</g>
</svg>
