<?xml version="1.0" encoding="UTF-8"?>
<!--
Copyright (C) 2009/2010/2011 Ulrich Apel.
This work is distributed under the conditions of the Creative Commons 
Attribution-Share Alike 3.0 Licence. This means you are free:
* to Share - to copy, distribute and transmit the work
* to Remix - to adapt the work

Under the following conditions:
* Attribution. You must attribute the work by stating your use of KanjiVG in
  your own copyright header and linking to KanjiVG's website
  (http://kanjivg.tagaini.net)
* Share Alike. If you alter, transform, or build upon this work, you may
  distribute the resulting work only under the same or similar license to this
  one.

See http://creativecommons.org/licenses/by-sa/3.0/ for more details.
-->
<!DOCTYPE svg PUBLIC "-//W3C//DTD SVG 1.0//EN" "http://www.w3.org/TR/2001/REC-SVG-20010904/DTD/svg10.dtd" [
<!ATTLIST g
xmlns:kvg CDATA #FIXED "http://kanjivg.tagaini.net"
kvg:element CDATA #IMPLIED
kvg:variant CDATA #IMPLIED
kvg:partial CDATA #IMPLIED
kvg:original CDATA #IMPLIED
kvg:part CDATA #IMPLIED
kvg:number CDATA #IMPLIED
kvg:tradForm CDATA #IMPLIED
kvg:radicalForm CDATA #IMPLIED
kvg:position CDATA #IMPLIED
kvg:radical CDATA #IMPLIED
kvg:phon CDATA #IMPLIED >
<!ATTLIST path
xmlns:kvg CDATA #FIXED "http://kanjivg.tagaini.net"
kvg:type CDATA #IMPLIED >
]>
<svg xmlns="http://www.w3.org/2000/svg" width="109" height="109" viewBox="0 0 109 109">
<g id="kvg:StrokePaths_05b73" style="fill:none;stroke:#000000;stroke-width:3;stroke-linecap:round;stroke-linejoin:round;">
<g id="kvg:05b73" kvg:element="孳">
	<g id="kvg:05b73-g1" kvg:element="茲" kvg:variant="true" kvg:position="top">
		<g id="kvg:05b73-g2" kvg:element="艹" kvg:variant="true" kvg:original="艸" kvg:position="top">
			<g id="kvg:05b73-g3" kvg:element="玄" kvg:part="1" kvg:number="1" kvg:partial="true">
				<g id="kvg:05b73-g4" kvg:element="亠" kvg:partial="true">
					<g id="kvg:05b73-g5" kvg:element="八" kvg:part="1" kvg:variant="true" kvg:radical="nelson">
						<path id="kvg:05b73-s1" kvg:type="㇔" d="M33.32,11.61c3.08,1.65,7.97,6.77,8.74,9.34"/>
					</g>
				</g>
			</g>
			<g id="kvg:05b73-g6" kvg:element="八" kvg:part="2" kvg:variant="true" kvg:radical="nelson">
				<path id="kvg:05b73-s2" kvg:type="㇒" d="M69.13,10.39c0.1,0.47,0.09,1.39-0.11,1.72c-1.25,2.18-4.38,6.38-6.16,8.25"/>
			</g>
			<path id="kvg:05b73-s3" kvg:type="㇐" d="M18.38,25.58c1.45,0.46,4.1,0.55,5.54,0.46c18.09-1.08,34.68-3.94,61.98-4.97c2.4-0.09,3.85,0.22,5.06,0.45"/>
		</g>
		<g id="kvg:05b73-g7" kvg:position="bottom">
			<g id="kvg:05b73-g8" kvg:element="玄" kvg:part="2" kvg:number="1" kvg:partial="true" kvg:position="left">
				<g id="kvg:05b73-g9" kvg:element="幺">
					<path id="kvg:05b73-s4" kvg:type="㇜" d="M34.26,27.74c0.21,0.58,0.27,1.01-0.11,1.63c-1.74,2.88-3.15,5.1-6.77,7.98c-0.39,0.31-0.44,1.4,0,1.44c2.74,0.25,6.19,2.04,8.1,3.1"/>
					<path id="kvg:05b73-s5" kvg:type="㇜" d="M44.3,32.64c0.32,0.67,0.08,2.01-0.3,2.43c-4.5,5.01-12.73,11.57-21.39,18.31c-0.99,0.77-0.59,1.19,0.6,0.97c8.19-1.51,15.85-3.24,22.94-4.65"/>
					<path id="kvg:05b73-s6" kvg:type="㇔" d="M41.85,43.91c2.33,1.67,6.01,6.89,6.59,9.49"/>
				</g>
			</g>
			<g id="kvg:05b73-g10" kvg:element="玄" kvg:part="1" kvg:number="2" kvg:partial="true" kvg:position="right">
				<g id="kvg:05b73-g11" kvg:element="幺">
					<path id="kvg:05b73-s7" kvg:type="㇜" d="M67.57,24.96c0.25,0.65,0.14,1.07-0.12,1.84c-0.94,2.81-3.03,6.62-6.31,9.35c-0.44,0.37-0.5,1.5,0,1.63c2.62,0.65,6.38,2.42,8.63,3.61"/>
					<path id="kvg:05b73-s8" kvg:type="㇜" d="M80.14,29.86c0.3,0.71,0.06,2.12-0.28,2.57c-4.12,5.49-13.43,11.02-21.51,18.15c-0.92,0.82-0.57,1.21,0.56,1.03c6.83-1.09,21.24-3.61,27.21-4.64"/>
					<path id="kvg:05b73-s9" kvg:type="㇔" d="M80.04,42.15c3.33,1.8,8.59,7.4,9.42,10.2"/>
				</g>
			</g>
		</g>
	</g>
	<g id="kvg:05b73-g12" kvg:element="子" kvg:position="bottom" kvg:radical="tradit">
		<path id="kvg:05b73-s10" kvg:type="㇖" d="M33.47,60.66c1.31,0.27,3.78,0.71,5.75,0.47c2.4-0.3,33.72-4.45,36-4.65c2.52-0.22,2.77,0.82,0.48,2.47c-2.29,1.65-15.31,7.15-21.12,10.14"/>
		<path id="kvg:05b73-s11" kvg:type="㇕v" d="M52.16,69.31c4,4.76,8.93,15.07,4.59,25.23c-2.37,5.56-5.25,2.96-7.54,0.41"/>
		<path id="kvg:05b73-s12" kvg:type="㇐" d="M17.44,76.43c1.34,0.65,4.81,0.87,7.23,0.71c8.44-0.56,53.9-6.74,64.11-6.17c2.41,0.14,4.55,0.22,6.16,0.87"/>
	</g>
</g>
</g>
<g id="kvg:StrokeNumbers_05b73" style="font-size:8;fill:#808080">
	<text transform="matrix(1 0 0 1 26.50 12.50)">1</text>
	<text transform="matrix(1 0 0 1 60.25 8.05)">2</text>
	<text transform="matrix(1 0 0 1 10.50 25.50)">3</text>
	<text transform="matrix(1 0 0 1 24.50 34.50)">4</text>
	<text transform="matrix(1 0 0 1 37.50 33.50)">5</text>
	<text transform="matrix(1 0 0 1 45.50 44.50)">6</text>
	<text transform="matrix(1 0 0 1 59.50 31.50)">7</text>
	<text transform="matrix(1 0 0 1 73.50 31.50)">8</text>
	<text transform="matrix(1 0 0 1 82.50 42.50)">9</text>
	<text transform="matrix(1 0 0 1 22.50 64.50)">10</text>
	<text transform="matrix(1 0 0 1 43.50 70.50)">11</text>
	<text transform="matrix(1 0 0 1 7.25 77.30)">12</text>
</g>
</svg>
