<?xml version="1.0" encoding="UTF-8"?>
<!--
Copyright (C) 2009/2010/2011 Ulrich Apel.
This work is distributed under the conditions of the Creative Commons 
Attribution-Share Alike 3.0 Licence. This means you are free:
* to Share - to copy, distribute and transmit the work
* to Remix - to adapt the work

Under the following conditions:
* Attribution. You must attribute the work by stating your use of KanjiVG in
  your own copyright header and linking to KanjiVG's website
  (http://kanjivg.tagaini.net)
* Share Alike. If you alter, transform, or build upon this work, you may
  distribute the resulting work only under the same or similar license to this
  one.

See http://creativecommons.org/licenses/by-sa/3.0/ for more details.
-->
<!DOCTYPE svg PUBLIC "-//W3C//DTD SVG 1.0//EN" "http://www.w3.org/TR/2001/REC-SVG-20010904/DTD/svg10.dtd" [
<!ATTLIST g
xmlns:kvg CDATA #FIXED "http://kanjivg.tagaini.net"
kvg:element CDATA #IMPLIED
kvg:variant CDATA #IMPLIED
kvg:partial CDATA #IMPLIED
kvg:original CDATA #IMPLIED
kvg:part CDATA #IMPLIED
kvg:number CDATA #IMPLIED
kvg:tradForm CDATA #IMPLIED
kvg:radicalForm CDATA #IMPLIED
kvg:position CDATA #IMPLIED
kvg:radical CDATA #IMPLIED
kvg:phon CDATA #IMPLIED >
<!ATTLIST path
xmlns:kvg CDATA #FIXED "http://kanjivg.tagaini.net"
kvg:type CDATA #IMPLIED >
]>
<svg xmlns="http://www.w3.org/2000/svg" width="109" height="109" viewBox="0 0 109 109">
<g id="kvg:StrokePaths_05b98" style="fill:none;stroke:#000000;stroke-width:3;stroke-linecap:round;stroke-linejoin:round;">
<g id="kvg:05b98" kvg:element="官">
	<g id="kvg:05b98-g1" kvg:element="宀" kvg:position="top" kvg:radical="general">
		<path id="kvg:05b98-s1" kvg:type="㇑a" d="M52.79,11.75c0.98,0.98,1.45,2.25,1.45,3.39c0,3.36-0.08,6.74-0.08,9.8"/>
		<g id="kvg:05b98-g2" kvg:element="冖">
			<path id="kvg:05b98-s2" kvg:type="㇔" d="M26.98,27.5c0,3.3-2.94,13.55-4.28,15.75"/>
			<path id="kvg:05b98-s3" kvg:type="㇖b" d="M27.74,29.38C46.25,26.88,71,24.25,80.9,23.97c11.6-0.32,1.35,7.03-1.35,8.9"/>
		</g>
	</g>
	<g id="kvg:05b98-g3" kvg:position="bottom">
		<g id="kvg:05b98-g4" kvg:element="口">
			<path id="kvg:05b98-s4" kvg:type="㇑" d="M36.87,39.75c0.88,0.88,1.46,2.48,1.46,3.5c0,3.43,0.02,35.84,0.03,50.5c0,2.44,0,4.43,0,5.75"/>
			<path id="kvg:05b98-s5" kvg:type="㇕b" d="M39.25,41.75c8.04-1.34,21.67-2.88,28.01-3.56c2.93-0.31,5.09-0.02,4.21,3.46c-0.99,3.89-2.14,7.28-3.55,12.89"/>
			<path id="kvg:05b98-s6" kvg:type="㇐b" d="M39.75,58.5c4.97-0.5,18.24-2.26,26.38-3.07c1.36-0.14,2.57-0.25,3.58-0.32"/>
		</g>
		<path id="kvg:05b98-s7" kvg:type="㇕b" d="M39,75.75c8.69-1.34,24.54-3.43,31.38-4.26c3.19-0.39,4.88,0.76,4.37,3.66c-0.81,4.7-2.16,10.16-3.59,16.37"/>
		<path id="kvg:05b98-s8" kvg:type="㇐b" d="M39.5,95.5c5.08-0.55,19.17-2.05,29.38-2.83c1.45-0.11,2.83-0.21,4.09-0.29"/>
	</g>
</g>
</g>
<g id="kvg:StrokeNumbers_05b98" style="font-size:8;fill:#808080">
	<text transform="matrix(1 0 0 1 44.25 12.50)">1</text>
	<text transform="matrix(1 0 0 1 19.50 30.13)">2</text>
	<text transform="matrix(1 0 0 1 30.50 25.13)">3</text>
	<text transform="matrix(1 0 0 1 30.75 49.63)">4</text>
	<text transform="matrix(1 0 0 1 41.50 38.50)">5</text>
	<text transform="matrix(1 0 0 1 43.36 54.13)">6</text>
	<text transform="matrix(1 0 0 1 43.42 70.63)">7</text>
	<text transform="matrix(1 0 0 1 43.38 91.50)">8</text>
</g>
</svg>
