<?xml version="1.0" encoding="UTF-8"?>
<!--
Copyright (C) 2009/2010/2011 Ulrich Apel.
This work is distributed under the conditions of the Creative Commons 
Attribution-Share Alike 3.0 Licence. This means you are free:
* to Share - to copy, distribute and transmit the work
* to Remix - to adapt the work

Under the following conditions:
* Attribution. You must attribute the work by stating your use of KanjiVG in
  your own copyright header and linking to KanjiVG's website
  (http://kanjivg.tagaini.net)
* Share Alike. If you alter, transform, or build upon this work, you may
  distribute the resulting work only under the same or similar license to this
  one.

See http://creativecommons.org/licenses/by-sa/3.0/ for more details.
-->
<!DOCTYPE svg PUBLIC "-//W3C//DTD SVG 1.0//EN" "http://www.w3.org/TR/2001/REC-SVG-20010904/DTD/svg10.dtd" [
<!ATTLIST g
xmlns:kvg CDATA #FIXED "http://kanjivg.tagaini.net"
kvg:element CDATA #IMPLIED
kvg:variant CDATA #IMPLIED
kvg:partial CDATA #IMPLIED
kvg:original CDATA #IMPLIED
kvg:part CDATA #IMPLIED
kvg:number CDATA #IMPLIED
kvg:tradForm CDATA #IMPLIED
kvg:radicalForm CDATA #IMPLIED
kvg:position CDATA #IMPLIED
kvg:radical CDATA #IMPLIED
kvg:phon CDATA #IMPLIED >
<!ATTLIST path
xmlns:kvg CDATA #FIXED "http://kanjivg.tagaini.net"
kvg:type CDATA #IMPLIED >
]>
<svg xmlns="http://www.w3.org/2000/svg" width="109" height="109" viewBox="0 0 109 109">
<g id="kvg:StrokePaths_05b9f" style="fill:none;stroke:#000000;stroke-width:3;stroke-linecap:round;stroke-linejoin:round;">
<g id="kvg:05b9f" kvg:element="実">
	<g id="kvg:05b9f-g1" kvg:element="宀" kvg:position="top" kvg:radical="general">
		<path id="kvg:05b9f-s1" kvg:type="㇑a" d="M52.54,11.25c1.17,1.17,1.84,2.74,1.82,3.75c-0.08,3.16-0.08,7.05-0.08,9.93"/>
		<g id="kvg:05b9f-g2" kvg:element="冖">
			<path id="kvg:05b9f-s2" kvg:type="㇔" d="M26.63,26.78c0,2.82-3.96,13.59-5.08,15.47"/>
			<path id="kvg:05b9f-s3" kvg:type="㇖b" d="M27.03,28.49c16.72-1.87,43.97-4.69,56.24-5.3c8.99-0.45,4.24,4.43-0.86,8.03"/>
		</g>
	</g>
	<g id="kvg:05b9f-g3" kvg:position="bottom">
		<g id="kvg:05b9f-g4" kvg:element="三">
			<g id="kvg:05b9f-g5" kvg:element="一">
				<path id="kvg:05b9f-s4" kvg:type="㇐" d="M35,42.8c1.75,0.45,3.66,0.38,5.41,0.18c6.52-0.75,20.65-2.15,27.2-2.77c1.82-0.17,3.37-0.22,5.14,0.21"/>
			</g>
			<g id="kvg:05b9f-g6" kvg:element="一">
				<path id="kvg:05b9f-s5" kvg:type="㇐" d="M32.75,55.15c2.25,0.47,4.78,0.24,6.87,0.07C47,54.62,60,53.38,68.99,52.6c2.41-0.21,4.88-0.25,7.26,0.27"/>
			</g>
			<g id="kvg:05b9f-g7" kvg:element="一">
				<path id="kvg:05b9f-s6" kvg:type="㇐" d="M23.75,69.4c3.25,0.6,5.43,0.47,7.87,0.22c9.92-1.01,33.55-3.35,45.5-3.95c2.85-0.14,5.81-0.42,8.62,0.2"/>
			</g>
		</g>
		<g id="kvg:05b9f-g8" kvg:element="人">
			<path id="kvg:05b9f-s7" kvg:type="㇒" d="M52.27,31.5c1.3,1.3,1.75,3.13,1.83,5.06C55.88,79.62,44,88.12,24,97.75"/>
			<path id="kvg:05b9f-s8" kvg:type="㇏" d="M53.5,70c9.25,8.25,22.2,19.32,29.2,24.65c2.38,1.81,5.42,2.58,7.8,3.1"/>
		</g>
	</g>
</g>
</g>
<g id="kvg:StrokeNumbers_05b9f" style="font-size:8;fill:#808080">
	<text transform="matrix(1 0 0 1 47.25 7.63)">1</text>
	<text transform="matrix(1 0 0 1 18.75 31.63)">2</text>
	<text transform="matrix(1 0 0 1 32.25 24.13)">3</text>
	<text transform="matrix(1 0 0 1 35.25 40.63)">4</text>
	<text transform="matrix(1 0 0 1 26.25 57.13)">5</text>
	<text transform="matrix(1 0 0 1 15.75 72.13)">6</text>
	<text transform="matrix(1 0 0 1 60.75 36.47)">7</text>
	<text transform="matrix(1 0 0 1 66.75 78.77)">8</text>
</g>
</svg>
