<?xml version="1.0" encoding="UTF-8"?>
<!--
Copyright (C) 2009/2010/2011 Ulrich Apel.
This work is distributed under the conditions of the Creative Commons 
Attribution-Share Alike 3.0 Licence. This means you are free:
* to Share - to copy, distribute and transmit the work
* to Remix - to adapt the work

Under the following conditions:
* Attribution. You must attribute the work by stating your use of KanjiVG in
  your own copyright header and linking to KanjiVG's website
  (http://kanjivg.tagaini.net)
* Share Alike. If you alter, transform, or build upon this work, you may
  distribute the resulting work only under the same or similar license to this
  one.

See http://creativecommons.org/licenses/by-sa/3.0/ for more details.
-->
<!DOCTYPE svg PUBLIC "-//W3C//DTD SVG 1.0//EN" "http://www.w3.org/TR/2001/REC-SVG-20010904/DTD/svg10.dtd" [
<!ATTLIST g
xmlns:kvg CDATA #FIXED "http://kanjivg.tagaini.net"
kvg:element CDATA #IMPLIED
kvg:variant CDATA #IMPLIED
kvg:partial CDATA #IMPLIED
kvg:original CDATA #IMPLIED
kvg:part CDATA #IMPLIED
kvg:number CDATA #IMPLIED
kvg:tradForm CDATA #IMPLIED
kvg:radicalForm CDATA #IMPLIED
kvg:position CDATA #IMPLIED
kvg:radical CDATA #IMPLIED
kvg:phon CDATA #IMPLIED >
<!ATTLIST path
xmlns:kvg CDATA #FIXED "http://kanjivg.tagaini.net"
kvg:type CDATA #IMPLIED >
]>
<svg xmlns="http://www.w3.org/2000/svg" width="109" height="109" viewBox="0 0 109 109">
<g id="kvg:StrokePaths_05bdb" style="fill:none;stroke:#000000;stroke-width:3;stroke-linecap:round;stroke-linejoin:round;">
<g id="kvg:05bdb" kvg:element="寛">
	<g id="kvg:05bdb-g1" kvg:element="宀" kvg:position="top" kvg:radical="general">
		<path id="kvg:05bdb-s1" kvg:type="㇑a" d="M52.76,10.86c1.07,1.07,1.51,2.41,1.49,3.35c-0.08,2.94-0.08,3.7-0.08,6.38"/>
		<g id="kvg:05bdb-g2" kvg:element="冖">
			<path id="kvg:05bdb-s2" kvg:type="㇔" d="M27,21.5c0,3.37-2.92,12.65-4.25,14.89"/>
			<path id="kvg:05bdb-s3" kvg:type="㇖b" d="M27.86,25.13c14.01-1.88,37.39-4.88,53.15-5.7c9.47-0.51,2.01,6.23-0.35,8.06"/>
		</g>
	</g>
	<g id="kvg:05bdb-g3" kvg:element="莧" kvg:position="bottom" kvg:phon="莧">
		<g id="kvg:05bdb-g4" kvg:element="艹" kvg:variant="true" kvg:original="艸">
			<path id="kvg:05bdb-s4" kvg:type="㇐" d="M29.22,39.5c1.92,0.78,4.19,0.29,6.17,0.08c9.32-0.99,26.48-3.32,36.98-4.21c2.21-0.19,4.46-0.27,6.63,0.26"/>
			<path id="kvg:05bdb-s5" kvg:type="㇑a" d="M42.48,29.89c0.82,0.82,1.14,1.74,1.31,3c0.79,5.86,0.71,9.62,0.97,14.09"/>
			<path id="kvg:05bdb-s6" kvg:type="㇑a" d="M61.93,28.28c0.83,0.83,0.98,1.73,0.86,3.54c-0.29,4.68-1.04,8.68-1.58,13.06"/>
		</g>
		<g id="kvg:05bdb-g5" kvg:element="見">
			<g id="kvg:05bdb-g6" kvg:element="目" kvg:position="top">
				<path id="kvg:05bdb-s7" kvg:type="㇑" d="M34.17,47.99c0.86,0.86,1.17,2.26,1.17,3.84c0,0.58,0.05,13.92,0.03,22.55c-0.01,1.8-0.02,3.39-0.03,4.62"/>
				<path id="kvg:05bdb-s8" kvg:type="㇕a" d="M36.29,49.59c2.93-0.21,23.64-3.04,30.7-4.05c3.47-0.49,4.73-0.17,4.73,3.59c0,3.87-0.14,13.66-0.2,21.13c-0.02,2.18-0.03,4.16-0.03,5.74"/>
				<path id="kvg:05bdb-s9" kvg:type="㇐a" d="M36.51,57.98c9.36-1.36,25.11-3.36,33.72-3.65"/>
				<path id="kvg:05bdb-s10" kvg:type="㇐a" d="M36.56,67.01c7.56-0.76,25.02-2.81,33.56-3.13"/>
				<path id="kvg:05bdb-s11" kvg:type="㇐a" d="M36.45,75.32c7.67-0.57,24.77-2.31,33.31-2.63"/>
			</g>
			<g id="kvg:05bdb-g7" kvg:position="bottom">
				<path id="kvg:05bdb-s12" kvg:type="㇒" d="M45.99,77.5c0.08,0.58,0.05,1.55-0.41,2.32C42.5,85,33,94.88,17,101.5"/>
				<path id="kvg:05bdb-s13" kvg:type="㇟" d="M58.49,75.69c0.85,0.85,1.22,1.94,1.22,3.06c0,1.76-0.08,6.75-0.08,9.88c0,8.37,1.88,9.87,16.08,9.87c16.79,0,17.54-1.12,17.54-7.89"/>
			</g>
		</g>
	</g>
</g>
</g>
<g id="kvg:StrokeNumbers_05bdb" style="font-size:8;fill:#808080">
	<text transform="matrix(1 0 0 1 44.25 10.50)">1</text>
	<text transform="matrix(1 0 0 1 19.50 25.63)">2</text>
	<text transform="matrix(1 0 0 1 31.50 21.50)">3</text>
	<text transform="matrix(1 0 0 1 22.50 44.50)">4</text>
	<text transform="matrix(1 0 0 1 34.50 33.50)">5</text>
	<text transform="matrix(1 0 0 1 52.50 31.50)">6</text>
	<text transform="matrix(1 0 0 1 26.25 57.13)">7</text>
	<text transform="matrix(1 0 0 1 36.75 47.50)">8</text>
	<text transform="matrix(1 0 0 1 39.75 55.50)">9</text>
	<text transform="matrix(1 0 0 1 39.75 64.50)">10</text>
	<text transform="matrix(1 0 0 1 39.75 73.50)">11</text>
	<text transform="matrix(1 0 0 1 28.50 88.33)">12</text>
	<text transform="matrix(1 0 0 1 49.50 87.13)">13</text>
</g>
</svg>
