<?xml version="1.0" encoding="UTF-8"?>
<!--
Copyright (C) 2009/2010/2011 Ulrich Apel.
This work is distributed under the conditions of the Creative Commons 
Attribution-Share Alike 3.0 Licence. This means you are free:
* to Share - to copy, distribute and transmit the work
* to Remix - to adapt the work

Under the following conditions:
* Attribution. You must attribute the work by stating your use of KanjiVG in
  your own copyright header and linking to KanjiVG's website
  (http://kanjivg.tagaini.net)
* Share Alike. If you alter, transform, or build upon this work, you may
  distribute the resulting work only under the same or similar license to this
  one.

See http://creativecommons.org/licenses/by-sa/3.0/ for more details.
-->
<!DOCTYPE svg PUBLIC "-//W3C//DTD SVG 1.0//EN" "http://www.w3.org/TR/2001/REC-SVG-20010904/DTD/svg10.dtd" [
<!ATTLIST g
xmlns:kvg CDATA #FIXED "http://kanjivg.tagaini.net"
kvg:element CDATA #IMPLIED
kvg:variant CDATA #IMPLIED
kvg:partial CDATA #IMPLIED
kvg:original CDATA #IMPLIED
kvg:part CDATA #IMPLIED
kvg:number CDATA #IMPLIED
kvg:tradForm CDATA #IMPLIED
kvg:radicalForm CDATA #IMPLIED
kvg:position CDATA #IMPLIED
kvg:radical CDATA #IMPLIED
kvg:phon CDATA #IMPLIED >
<!ATTLIST path
xmlns:kvg CDATA #FIXED "http://kanjivg.tagaini.net"
kvg:type CDATA #IMPLIED >
]>
<svg xmlns="http://www.w3.org/2000/svg" width="109" height="109" viewBox="0 0 109 109">
<g id="kvg:StrokePaths_05c20" style="fill:none;stroke:#000000;stroke-width:3;stroke-linecap:round;stroke-linejoin:round;">
<g id="kvg:05c20" kvg:element="尠">
	<g id="kvg:05c20-g1" kvg:element="甚" kvg:position="left">
		<g id="kvg:05c20-g2" kvg:element="甘" kvg:position="top">
			<g id="kvg:05c20-g3" kvg:element="廿" kvg:part="1">
				<g id="kvg:05c20-g4" kvg:element="十">
					<path id="kvg:05c20-s1" kvg:type="㇐" d="M13.28,27.91c0.89,0.43,2.53,0.54,3.42,0.43c6.57-0.79,24.8-3.09,36.18-4.04c1.48-0.12,2.38,0.21,3.12,0.42"/>
					<path id="kvg:05c20-s2" kvg:type="㇑" d="M24.25,16.75c0.78,0.48,1.24,2.16,1.4,3.12c0.16,0.96,0.15,39.18,0.02,44.13"/>
				</g>
				<path id="kvg:05c20-s3" kvg:type="㇑" d="M43.81,13.03c0.8,0.5,1.28,2.23,1.44,3.22c0.16,0.99,0.22,40.51,0.09,45.46"/>
			</g>
			<path id="kvg:05c20-s4" kvg:type="㇐" d="M25.69,38.87c2.5-0.4,17.38-1.88,19.14-1.88"/>
			<g id="kvg:05c20-g5" kvg:element="廿" kvg:part="2">
				<path id="kvg:05c20-s5" kvg:type="㇐" d="M25.69,51.05c3.82-0.2,15.47-1.89,19-2.08"/>
			</g>
		</g>
		<g id="kvg:05c20-g6" kvg:element="匹" kvg:position="bottom">
			<g id="kvg:05c20-g7" kvg:element="匚" kvg:part="1">
				<path id="kvg:05c20-s6" kvg:type="㇐" d="M10.25,64.8c1.05,0.44,2.99,0.51,4.04,0.44c10.97-0.73,28.05-3.53,38.77-4.29c1.75-0.12,2.81,0.21,3.69,0.43"/>
			</g>
			<g id="kvg:05c20-g8" kvg:element="儿">
				<g id="kvg:05c20-g9" kvg:element="丿" kvg:position="left">
					<path id="kvg:05c20-s7" kvg:type="㇒" d="M31.12,66.25c0.2,0.29,0.43,1.03,0.38,1.61c-0.39,4.72-3.12,12.62-6.25,15.39"/>
				</g>
				<g id="kvg:05c20-g10" kvg:position="right">
					<path id="kvg:05c20-s8" kvg:type="㇟" d="M40.71,64.28c0.57,0.88,1.05,1.91,1.05,3.26c0,1.95-0.63,2.62-0.63,6.06c0,6.94,1.71,6.64,6.63,6.64c4.24,0,5.52-0.79,6.24-1.62"/>
				</g>
			</g>
			<g id="kvg:05c20-g11" kvg:element="匚" kvg:part="2">
				<path id="kvg:05c20-s9" kvg:type="㇗" d="M18.56,67.64c0.74,1.38,1.36,3,1.36,5.12c0,3.06-0.07,6.58-0.07,11.14c0,9.22,4.22,9.85,16.11,9.85c10.23,0,12.34-0.88,14.07-1.98"/>
			</g>
		</g>
	</g>
	<g id="kvg:05c20-g12" kvg:element="少" kvg:position="right">
		<g id="kvg:05c20-g13" kvg:element="小" kvg:radical="tradit">
			<path id="kvg:05c20-s10" kvg:type="㇚" d="M74.42,13c0.07,0.36,1.41,1.86,1.47,4.12c0.31,10.87-0.2,40.28-0.2,43.99c0,10.51-5.2,2.2-6.36,1.26"/>
			<path id="kvg:05c20-s11" kvg:type="㇒" d="M63.97,33.17c0.03,0.44,0.1,1.16-0.05,1.77c-1.1,4.41-5.74,12.92-9.5,16.99"/>
			<g id="kvg:05c20-g14" kvg:element="丶" kvg:radical="nelson">
				<path id="kvg:05c20-s12" kvg:type="㇔" d="M86.44,31.5c4.65,2.8,10.9,9.99,12.06,14.34"/>
			</g>
		</g>
		<g id="kvg:05c20-g15" kvg:element="丿">
			<path id="kvg:05c20-s13" kvg:type="㇒" d="M92.47,49.83c0.11,1.15,0.32,2.98-0.22,4.6c-4.5,13.4-21.81,35.06-39.38,44.07"/>
		</g>
	</g>
</g>
</g>
<g id="kvg:StrokeNumbers_05c20" style="font-size:8;fill:#808080">
	<text transform="matrix(1 0 0 1 6.50 27.50)">1</text>
	<text transform="matrix(1 0 0 1 16.50 14.50)">2</text>
	<text transform="matrix(1 0 0 1 34.50 12.50)">3</text>
	<text transform="matrix(1 0 0 1 29.50 35.40)">4</text>
	<text transform="matrix(1 0 0 1 29.75 47.50)">5</text>
	<text transform="matrix(1 0 0 1 6.50 61.50)">6</text>
	<text transform="matrix(1 0 0 1 25.50 71.50)">7</text>
	<text transform="matrix(1 0 0 1 35.50 75.50)">8</text>
	<text transform="matrix(1 0 0 1 12.50 74.50)">9</text>
	<text transform="matrix(1 0 0 1 64.50 11.50)">10</text>
	<text transform="matrix(1 0 0 1 59.50 28.50)">11</text>
	<text transform="matrix(1 0 0 1 80.50 28.50)">12</text>
	<text transform="matrix(1 0 0 1 81.75 49.50)">13</text>
</g>
</svg>
