<?xml version="1.0" encoding="UTF-8"?>
<!--
Copyright (C) 2009/2010/2011 Ulrich Apel.
This work is distributed under the conditions of the Creative Commons 
Attribution-Share Alike 3.0 Licence. This means you are free:
* to Share - to copy, distribute and transmit the work
* to Remix - to adapt the work

Under the following conditions:
* Attribution. You must attribute the work by stating your use of KanjiVG in
  your own copyright header and linking to KanjiVG's website
  (http://kanjivg.tagaini.net)
* Share Alike. If you alter, transform, or build upon this work, you may
  distribute the resulting work only under the same or similar license to this
  one.

See http://creativecommons.org/licenses/by-sa/3.0/ for more details.
-->
<!DOCTYPE svg PUBLIC "-//W3C//DTD SVG 1.0//EN" "http://www.w3.org/TR/2001/REC-SVG-20010904/DTD/svg10.dtd" [
<!ATTLIST g
xmlns:kvg CDATA #FIXED "http://kanjivg.tagaini.net"
kvg:element CDATA #IMPLIED
kvg:variant CDATA #IMPLIED
kvg:partial CDATA #IMPLIED
kvg:original CDATA #IMPLIED
kvg:part CDATA #IMPLIED
kvg:number CDATA #IMPLIED
kvg:tradForm CDATA #IMPLIED
kvg:radicalForm CDATA #IMPLIED
kvg:position CDATA #IMPLIED
kvg:radical CDATA #IMPLIED
kvg:phon CDATA #IMPLIED >
<!ATTLIST path
xmlns:kvg CDATA #FIXED "http://kanjivg.tagaini.net"
kvg:type CDATA #IMPLIED >
]>
<svg xmlns="http://www.w3.org/2000/svg" width="109" height="109" viewBox="0 0 109 109">
<g id="kvg:StrokePaths_05cb8" style="fill:none;stroke:#000000;stroke-width:3;stroke-linecap:round;stroke-linejoin:round;">
<g id="kvg:05cb8" kvg:element="岸">
	<g id="kvg:05cb8-g1" kvg:element="山" kvg:position="top" kvg:radical="general">
		<path id="kvg:05cb8-s1" kvg:type="㇑a" d="M53.85,10c0.89,0.89,1.43,2.12,1.43,3.27c0,0.7-0.08,9.63-0.19,13.93"/>
		<path id="kvg:05cb8-s2" kvg:type="㇄a" d="M28.91,18.23c0.87,0.87,1.34,2.16,1.16,3.25c-0.57,3.52-0.57,4.15-1.19,8.2c-0.24,1.57,0.98,2.72,2.4,2.38C44.12,29,63.12,27,80.77,26.04"/>
		<path id="kvg:05cb8-s3" kvg:type="㇑" d="M83.16,12.92c1.02,1.02,1.06,2.58,0.91,3.27c-0.73,3.41-1.64,6.64-2.55,10.47c-0.27,1.15-0.54,2.35-0.81,3.63"/>
	</g>
	<g id="kvg:05cb8-g2" kvg:position="bottom" kvg:phon="厂干">
		<g id="kvg:05cb8-g3" kvg:element="厂">
			<path id="kvg:05cb8-s4" kvg:type="㇐" d="M28.38,44.68c2.98,1.16,6.88,0.37,9.94,0.1c11.18-1,25.98-3.02,36.38-3.72c3.22-0.22,6.5-0.5,9.67,0.25"/>
			<path id="kvg:05cb8-s5" kvg:type="㇒" d="M29.43,45.03c0.47,1.15,0.67,2.48,0.41,3.99C27.5,62.38,24.38,75.75,10.5,89.5"/>
		</g>
		<g id="kvg:05cb8-g4" kvg:element="干">
			<path id="kvg:05cb8-s6" kvg:type="㇐" d="M41.21,57.97c1.79,0.53,4.06,0.48,6.01,0.25c6.03-0.71,15.03-1.96,22.66-2.58c1.63-0.13,3.28-0.13,4.89,0.24"/>
			<g id="kvg:05cb8-g5" kvg:element="十">
				<path id="kvg:05cb8-s7" kvg:type="㇐" d="M30.15,76.76c2.01,0.37,5.73,0.3,7.72,0.08c14.38-1.62,34.88-3.78,46.05-4.16c3.35-0.12,5.37,0.18,7.05,0.37"/>
				<path id="kvg:05cb8-s8" kvg:type="㇑" d="M56.98,58.84c0.78,0.78,1.36,1.91,1.36,3.22c0,0.66-0.01,23.15-0.09,33.32c-0.02,2.08-0.03,3.68-0.04,4.51"/>
			</g>
		</g>
	</g>
</g>
</g>
<g id="kvg:StrokeNumbers_05cb8" style="font-size:8;fill:#808080">
	<text transform="matrix(1 0 0 1 45.50 9.50)">1</text>
	<text transform="matrix(1 0 0 1 20.50 16.50)">2</text>
	<text transform="matrix(1 0 0 1 74.50 10.50)">3</text>
	<text transform="matrix(1 0 0 1 29.50 42.13)">4</text>
	<text transform="matrix(1 0 0 1 21.50 53.50)">5</text>
	<text transform="matrix(1 0 0 1 42.75 55.63)">6</text>
	<text transform="matrix(1 0 0 1 31.50 73.97)">7</text>
	<text transform="matrix(1 0 0 1 50.25 67.50)">8</text>
</g>
</svg>
