<?xml version="1.0" encoding="UTF-8"?>
<!--
Copyright (C) 2009/2010/2011 Ulrich Apel.
This work is distributed under the conditions of the Creative Commons 
Attribution-Share Alike 3.0 Licence. This means you are free:
* to Share - to copy, distribute and transmit the work
* to Remix - to adapt the work

Under the following conditions:
* Attribution. You must attribute the work by stating your use of KanjiVG in
  your own copyright header and linking to KanjiVG's website
  (http://kanjivg.tagaini.net)
* Share Alike. If you alter, transform, or build upon this work, you may
  distribute the resulting work only under the same or similar license to this
  one.

See http://creativecommons.org/licenses/by-sa/3.0/ for more details.
-->
<!DOCTYPE svg PUBLIC "-//W3C//DTD SVG 1.0//EN" "http://www.w3.org/TR/2001/REC-SVG-20010904/DTD/svg10.dtd" [
<!ATTLIST g
xmlns:kvg CDATA #FIXED "http://kanjivg.tagaini.net"
kvg:element CDATA #IMPLIED
kvg:variant CDATA #IMPLIED
kvg:partial CDATA #IMPLIED
kvg:original CDATA #IMPLIED
kvg:part CDATA #IMPLIED
kvg:number CDATA #IMPLIED
kvg:tradForm CDATA #IMPLIED
kvg:radicalForm CDATA #IMPLIED
kvg:position CDATA #IMPLIED
kvg:radical CDATA #IMPLIED
kvg:phon CDATA #IMPLIED >
<!ATTLIST path
xmlns:kvg CDATA #FIXED "http://kanjivg.tagaini.net"
kvg:type CDATA #IMPLIED >
]>
<svg xmlns="http://www.w3.org/2000/svg" width="109" height="109" viewBox="0 0 109 109">
<g id="kvg:StrokePaths_05d4c-Kaisho" style="fill:none;stroke:#000000;stroke-width:3;stroke-linecap:round;stroke-linejoin:round;">
<g id="kvg:05d4c-Kaisho" kvg:element="嵌">
	<g id="kvg:05d4c-Kaisho-g1" kvg:element="山" kvg:position="top" kvg:radical="general">
		<path id="kvg:05d4c-Kaisho-s1" kvg:type="㇑a" d="M52.51,11.38c0.56,0.33,1.75,2.48,1.86,3.15c0.11,0.66-0.07,9.58-0.18,13.73"/>
		<path id="kvg:05d4c-Kaisho-s2" kvg:type="㇄a" d="M25.93,18.75c0.56,0.33,1.12,1.73,1.12,2.41c0,2.59-0.3,4.84-1.59,8.76c-0.48,1.45,0.82,2.54,2.11,2.28c16.93-3.45,51.33-4.92,56.35-5.05"/>
		<path id="kvg:05d4c-Kaisho-s3" kvg:type="㇑" d="M84.02,15.62c0.56,0.33,1.21,2.48,1.12,3.15c-0.56,4.07-0.64,7.23-1.54,11.19"/>
	</g>
	<g id="kvg:05d4c-Kaisho-g2" kvg:position="bottom">
		<g id="kvg:05d4c-Kaisho-g3" kvg:element="甘" kvg:position="left">
			<g id="kvg:05d4c-Kaisho-g4" kvg:element="廿" kvg:part="1">
				<g id="kvg:05d4c-Kaisho-g5" kvg:element="十">
					<path id="kvg:05d4c-Kaisho-s4" kvg:type="㇐" d="M9.92,55.75c1.09,0.49,3.08,0.61,4.16,0.49c8-0.89,22.83-3.4,35.94-4.58c1.81-0.16,2.9,0.23,3.8,0.48"/>
					<path id="kvg:05d4c-Kaisho-s5" kvg:type="㇑" d="M22.03,43.24c0.81,0.36,1.3,1.62,1.46,2.34c0.16,0.72,0,46.66-0.16,51.17"/>
				</g>
				<path id="kvg:05d4c-Kaisho-s6" kvg:type="㇑" d="M40.95,39.75c0.81,0.36,1.3,1.62,1.46,2.34c0.16,0.72,0,48.92-0.16,53.43"/>
			</g>
			<path id="kvg:05d4c-Kaisho-s7" kvg:type="㇐" d="M24,72.52c3.27-0.2,6.53-0.67,9.78-1.06c0.93-0.11,1.85-0.22,2.72-0.33"/>
			<g id="kvg:05d4c-Kaisho-g6" kvg:element="廿" kvg:part="2">
				<path id="kvg:05d4c-Kaisho-s8" kvg:type="㇐" d="M24,94.09c6.75-1.09,13.45-1.76,17.92-1.94"/>
			</g>
		</g>
		<g id="kvg:05d4c-Kaisho-g7" kvg:element="欠" kvg:position="right">
			<g id="kvg:05d4c-Kaisho-g8" kvg:position="top">
				<path id="kvg:05d4c-Kaisho-s9" kvg:type="㇒" d="M66.75,35.75c0.04,0.65,0.08,1.68-0.08,2.62c-0.97,5.52-6.54,17.64-14.17,25.06"/>
				<path id="kvg:05d4c-Kaisho-s10" kvg:type="㇖a" d="M65.76,48.13c0.77,0.29,2.24,0.75,3.4,0.49c1.42-0.31,16.39-3.52,17.74-3.68c6.79-0.8-2.13,8.27-3.55,9.79"/>
			</g>
			<g id="kvg:05d4c-Kaisho-g9" kvg:position="bottom">
				<path id="kvg:05d4c-Kaisho-s11" kvg:type="㇒" d="M69.59,56.13c0.06,0.95,0.14,2.43-0.12,3.8C66.99,73.17,62.2,86.83,48.5,96.3"/>
				<path id="kvg:05d4c-Kaisho-s12" kvg:type="㇏" d="M68.37,67.02c3.81,6.2,17.55,20.78,23.81,25.91c1.32,1.08,2.32,1.72,3.57,2.07"/>
			</g>
		</g>
	</g>
</g>
</g>
<g id="kvg:StrokeNumbers_05d4c-Kaisho" style="font-size:8;fill:#808080">
	<text transform="matrix(1 0 0 1 44.50 12.50)">1</text>
	<text transform="matrix(1 0 0 1 17.50 18.50)">2</text>
	<text transform="matrix(1 0 0 1 75.50 15.50)">3</text>
	<text transform="matrix(1 0 0 1 2.50 56.50)">4</text>
	<text transform="matrix(1 0 0 1 13.50 44.50)">5</text>
	<text transform="matrix(1 0 0 1 33.50 41.75)">6</text>
	<text transform="matrix(1 0 0 1 28.50 68.50)">7</text>
	<text transform="matrix(1 0 0 1 28.50 90.50)">8</text>
	<text transform="matrix(1 0 0 1 59.25 38.50)">9</text>
	<text transform="matrix(1 0 0 1 70.50 44.45)">10</text>
	<text transform="matrix(1 0 0 1 60.50 61.50)">11</text>
	<text transform="matrix(1 0 0 1 72.50 70.50)">12</text>
</g>
</svg>
