<?xml version="1.0" encoding="UTF-8"?>
<!--
Copyright (C) 2009/2010/2011 Ulrich Apel.
This work is distributed under the conditions of the Creative Commons 
Attribution-Share Alike 3.0 Licence. This means you are free:
* to Share - to copy, distribute and transmit the work
* to Remix - to adapt the work

Under the following conditions:
* Attribution. You must attribute the work by stating your use of KanjiVG in
  your own copyright header and linking to KanjiVG's website
  (http://kanjivg.tagaini.net)
* Share Alike. If you alter, transform, or build upon this work, you may
  distribute the resulting work only under the same or similar license to this
  one.

See http://creativecommons.org/licenses/by-sa/3.0/ for more details.
-->
<!DOCTYPE svg PUBLIC "-//W3C//DTD SVG 1.0//EN" "http://www.w3.org/TR/2001/REC-SVG-20010904/DTD/svg10.dtd" [
<!ATTLIST g
xmlns:kvg CDATA #FIXED "http://kanjivg.tagaini.net"
kvg:element CDATA #IMPLIED
kvg:variant CDATA #IMPLIED
kvg:partial CDATA #IMPLIED
kvg:original CDATA #IMPLIED
kvg:part CDATA #IMPLIED
kvg:number CDATA #IMPLIED
kvg:tradForm CDATA #IMPLIED
kvg:radicalForm CDATA #IMPLIED
kvg:position CDATA #IMPLIED
kvg:radical CDATA #IMPLIED
kvg:phon CDATA #IMPLIED >
<!ATTLIST path
xmlns:kvg CDATA #FIXED "http://kanjivg.tagaini.net"
kvg:type CDATA #IMPLIED >
]>
<svg xmlns="http://www.w3.org/2000/svg" width="109" height="109" viewBox="0 0 109 109">
<g id="kvg:StrokePaths_05d73" style="fill:none;stroke:#000000;stroke-width:3;stroke-linecap:round;stroke-linejoin:round;">
<g id="kvg:05d73" kvg:element="嵳">
	<g id="kvg:05d73-g1" kvg:element="山" kvg:position="top" kvg:radical="tradit">
		<path id="kvg:05d73-s1" kvg:type="㇑a" d="M52.51,8.88c0.56,0.33,1.75,2.48,1.86,3.15c0.11,0.66-0.07,8.58-0.18,12.73"/>
		<path id="kvg:05d73-s2" kvg:type="㇄a" d="M27.43,15.75c0.56,0.33,1.12,1.73,1.12,2.41c0,2.59-0.3,4.34-1.59,8.26c-0.48,1.45,0.87,2.73,2.11,2.28c10.18-3.7,47.33-5.42,52.35-5.55"/>
		<path id="kvg:05d73-s3" kvg:type="㇑" d="M82.02,13.12c0.56,0.33,1.21,2.48,1.12,3.15c-0.56,4.07-0.64,5.73-1.54,9.69"/>
	</g>
	<g id="kvg:05d73-g2" kvg:element="差" kvg:position="bottom">
		<g id="kvg:05d73-g3" kvg:element="羊" kvg:variant="true">
			<path id="kvg:05d73-s4" kvg:type="㇔" d="M40.2,28.54c2.36,1.91,6.09,7.85,6.68,10.82"/>
			<path id="kvg:05d73-s5" kvg:type="㇒" d="M67.57,27.77c0.02,0.26,0.04,0.68-0.04,1.06c-0.43,2.24-2.88,7.16-6.24,10.17"/>
			<path id="kvg:05d73-s6" kvg:type="㇐" d="M29.38,42.85c1.25,0.4,3.55,0.48,4.8,0.4c10.01-0.61,29.14-4.41,40.43-4.26c2.09,0.03,3.34,0.19,4.38,0.39"/>
			<path id="kvg:05d73-s7" kvg:type="㇑a" d="M52.57,43.04c1.08,0.43,1.73,1.93,1.94,2.78s0,13.32-0.22,18.68"/>
			<path id="kvg:05d73-s8" kvg:type="㇐" d="M34.34,54.4c1.06,0.34,2.99,0.38,4.06,0.34c8.76-0.31,20.91-3.79,32.9-3.94c1.76-0.02,2.82,0.16,3.7,0.33"/>
			<path id="kvg:05d73-s9" kvg:type="㇐" d="M18.23,67.18c1.7,0.58,4.81,0.66,6.51,0.58c9.43-0.43,42.2-5.26,60.03-5.63c2.83-0.06,4.53,0.28,5.94,0.57"/>
		</g>
		<g id="kvg:05d73-g4" kvg:element="丿">
			<path id="kvg:05d73-s10" kvg:type="㇒" d="M40.71,69.5c0.08,0.6,0.27,1.58-0.16,2.42C37,79,27,88.75,15.07,94.61"/>
		</g>
		<g id="kvg:05d73-g5" kvg:element="工">
			<path id="kvg:05d73-s11" kvg:type="㇐" d="M45.28,76.85c0.78,0.38,3.34,0.5,4.13,0.39C53.1,76.72,65.5,75,72.1,74.2c1.2-0.15,2.31,0.08,3.31,0.39"/>
			<path id="kvg:05d73-s12" kvg:type="㇑a" d="M59.03,76.42c0.83,0.92,0.83,1.46,0.83,2.2c0,5.12,0,10.31-0.21,15.43"/>
			<path id="kvg:05d73-s13" kvg:type="㇐" d="M34.75,96.85c2,0.15,4.78,0.34,6.84,0C56,94.5,70.32,93.29,82.92,92.94c2.07-0.06,4.55,0.39,5.58,0.75"/>
		</g>
	</g>
</g>
</g>
<g id="kvg:StrokeNumbers_05d73" style="font-size:8;fill:#808080">
	<text transform="matrix(1 0 0 1 46.85 6.85)">1</text>
	<text transform="matrix(1 0 0 1 19.66 15.85)">2</text>
	<text transform="matrix(1 0 0 1 73.71 12.85)">3</text>
	<text transform="matrix(1 0 0 1 35.50 35.50)">4</text>
	<text transform="matrix(1 0 0 1 59.50 33.50)">5</text>
	<text transform="matrix(1 0 0 1 21.75 45.25)">6</text>
	<text transform="matrix(1 0 0 1 46.75 50.50)">7</text>
	<text transform="matrix(1 0 0 1 28.50 54.50)">8</text>
	<text transform="matrix(1 0 0 1 11.50 66.03)">9</text>
	<text transform="matrix(1 0 0 1 27.50 76.95)">10</text>
	<text transform="matrix(1 0 0 1 45.50 73.50)">11</text>
	<text transform="matrix(1 0 0 1 49.50 86.50)">12</text>
	<text transform="matrix(1 0 0 1 32.50 93.50)">13</text>
</g>
</svg>
