<?xml version="1.0" encoding="UTF-8"?>
<!--
Copyright (C) 2009/2010/2011 Ulrich Apel.
This work is distributed under the conditions of the Creative Commons 
Attribution-Share Alike 3.0 Licence. This means you are free:
* to Share - to copy, distribute and transmit the work
* to Remix - to adapt the work

Under the following conditions:
* Attribution. You must attribute the work by stating your use of KanjiVG in
  your own copyright header and linking to KanjiVG's website
  (http://kanjivg.tagaini.net)
* Share Alike. If you alter, transform, or build upon this work, you may
  distribute the resulting work only under the same or similar license to this
  one.

See http://creativecommons.org/licenses/by-sa/3.0/ for more details.
-->
<!DOCTYPE svg PUBLIC "-//W3C//DTD SVG 1.0//EN" "http://www.w3.org/TR/2001/REC-SVG-20010904/DTD/svg10.dtd" [
<!ATTLIST g
xmlns:kvg CDATA #FIXED "http://kanjivg.tagaini.net"
kvg:element CDATA #IMPLIED
kvg:variant CDATA #IMPLIED
kvg:partial CDATA #IMPLIED
kvg:original CDATA #IMPLIED
kvg:part CDATA #IMPLIED
kvg:number CDATA #IMPLIED
kvg:tradForm CDATA #IMPLIED
kvg:radicalForm CDATA #IMPLIED
kvg:position CDATA #IMPLIED
kvg:radical CDATA #IMPLIED
kvg:phon CDATA #IMPLIED >
<!ATTLIST path
xmlns:kvg CDATA #FIXED "http://kanjivg.tagaini.net"
kvg:type CDATA #IMPLIED >
]>
<svg xmlns="http://www.w3.org/2000/svg" width="109" height="109" viewBox="0 0 109 109">
<g id="kvg:StrokePaths_05d8c" style="fill:none;stroke:#000000;stroke-width:3;stroke-linecap:round;stroke-linejoin:round;">
<g id="kvg:05d8c" kvg:element="嶌">
	<g id="kvg:05d8c-g1" kvg:element="山" kvg:position="top" kvg:radical="general">
		<path id="kvg:05d8c-s1" kvg:type="㇑a" d="M52.01,9.38c0.56,0.33,1.75,2.48,1.86,3.15c0.11,0.66-0.07,9.58-0.18,13.73"/>
		<path id="kvg:05d8c-s2" kvg:type="㇄a" d="M26.43,16.75c0.56,0.33,1.12,1.73,1.12,2.41c0,2.59-0.8,3.84-2.09,7.76c-0.48,1.45,0.81,2.5,2.11,2.28c17.18-2.95,48.83-4.42,53.85-4.55"/>
		<path id="kvg:05d8c-s3" kvg:type="㇑" d="M82.02,11.62c0.56,0.33,1.21,2.48,1.12,3.15c-0.56,4.07-1.14,8.73-2.04,12.69"/>
	</g>
	<g id="kvg:05d8c-g2" kvg:element="鳥" kvg:position="bottom">
		<path id="kvg:05d8c-s4" kvg:type="㇒" d="M49.74,30.93c0.02,0.23,0.03,0.59-0.03,0.92c-0.38,1.93-2.53,6.18-5.47,8.78"/>
		<path id="kvg:05d8c-s5" kvg:type="㇑" d="M33.17,40.35c0.58,0.9,1.24,2.76,1.24,3.32c0,5.66,0.05,27.4-0.21,36.31"/>
		<path id="kvg:05d8c-s6" kvg:type="㇕a" d="M34.43,42.95c1.68-0.09,33.7-3.73,35.34-3.73c2.42,0,3.61,1.55,3.39,3.07c-0.13,0.93-2.28,10.64-3.84,17.82"/>
		<path id="kvg:05d8c-s7" kvg:type="㇐a" d="M35.2,51.79c2.06,0,33.86-3.42,36.19-3.42"/>
		<path id="kvg:05d8c-s8" kvg:type="㇐a" d="M35.1,61.13c4.2-0.33,29.47-2.98,34.7-3.26"/>
		<path id="kvg:05d8c-s9" kvg:type="㇐b" d="M35.33,70.62c15.09-2.03,39.95-4.56,45.46-5.16c1.92-0.21,5.19-0.45,6.16-0.3"/>
		<path id="kvg:05d8c-s10" kvg:type="㇆a" d="M34.22,80.15c11.29-1.78,41.72-4.31,47.98-4.96c4.07-0.43,5.8,2.03,4.93,4.9c-1.87,6.15-4.12,11.65-6.59,15.82C77.55,100.93,75.75,98,73.5,96"/>
		<g id="kvg:05d8c-g3" kvg:element="灬" kvg:variant="true" kvg:original="火">
			<path id="kvg:05d8c-s11" kvg:type="㇔" d="M24.3,85.25c-0.55,4.5-2.05,9.63-4.3,12.5"/>
			<path id="kvg:05d8c-s12" kvg:type="㇔" d="M36.51,85.26c2.84,1.73,5.54,6.51,6.25,9.21"/>
			<path id="kvg:05d8c-s13" kvg:type="㇔" d="M53.53,84.42c1.84,1.2,4.74,4.95,5.2,6.82"/>
			<path id="kvg:05d8c-s14" kvg:type="㇔" d="M66.97,81.36c2.06,0.96,5.32,3.96,5.83,5.46"/>
		</g>
	</g>
</g>
</g>
<g id="kvg:StrokeNumbers_05d8c" style="font-size:8;fill:#808080">
	<text transform="matrix(1 0 0 1 44.50 8.50)">1</text>
	<text transform="matrix(1 0 0 1 18.50 15.85)">2</text>
	<text transform="matrix(1 0 0 1 73.71 11.50)">3</text>
	<text transform="matrix(1 0 0 1 42.75 34.90)">4</text>
	<text transform="matrix(1 0 0 1 26.75 47.50)">5</text>
	<text transform="matrix(1 0 0 1 37.50 39.75)">6</text>
	<text transform="matrix(1 0 0 1 39.50 49.50)">7</text>
	<text transform="matrix(1 0 0 1 39.75 58.60)">8</text>
	<text transform="matrix(1 0 0 1 39.50 67.50)">9</text>
	<text transform="matrix(1 0 0 1 38.50 77.50)">10</text>
	<text transform="matrix(1 0 0 1 15.50 86.50)">11</text>
	<text transform="matrix(1 0 0 1 28.75 90.50)">12</text>
	<text transform="matrix(1 0 0 1 44.50 89.50)">13</text>
	<text transform="matrix(1 0 0 1 59.50 86.50)">14</text>
</g>
</svg>
