<?xml version="1.0" encoding="UTF-8"?>
<!--
Copyright (C) 2009/2010/2011 Ulrich Apel.
This work is distributed under the conditions of the Creative Commons
Attribution-Share Alike 3.0 Licence. This means you are free:
* to Share - to copy, distribute and transmit the work
* to Remix - to adapt the work

Under the following conditions:
* Attribution. You must attribute the work by stating your use of KanjiVG in
  your own copyright header and linking to KanjiVG's website
  (http://kanjivg.tagaini.net)
* Share Alike. If you alter, transform, or build upon this work, you may
  distribute the resulting work only under the same or similar license to this
  one.

See http://creativecommons.org/licenses/by-sa/3.0/ for more details.
-->
<!DOCTYPE svg PUBLIC "-//W3C//DTD SVG 1.0//EN" "http://www.w3.org/TR/2001/REC-SVG-20010904/DTD/svg10.dtd" [
<!ATTLIST g
xmlns:kvg CDATA #FIXED "http://kanjivg.tagaini.net"
kvg:element CDATA #IMPLIED
kvg:variant CDATA #IMPLIED
kvg:partial CDATA #IMPLIED
kvg:original CDATA #IMPLIED
kvg:part CDATA #IMPLIED
kvg:number CDATA #IMPLIED
kvg:tradForm CDATA #IMPLIED
kvg:radicalForm CDATA #IMPLIED
kvg:position CDATA #IMPLIED
kvg:radical CDATA #IMPLIED
kvg:phon CDATA #IMPLIED >
<!ATTLIST path
xmlns:kvg CDATA #FIXED "http://kanjivg.tagaini.net"
kvg:type CDATA #IMPLIED >
]>
<svg xmlns="http://www.w3.org/2000/svg" width="109" height="109" viewBox="0 0 109 109">
<g id="kvg:StrokePaths_05dd2-Kaisho" style="fill:none;stroke:#000000;stroke-width:3;stroke-linecap:round;stroke-linejoin:round;">
<g id="kvg:05dd2-Kaisho" kvg:element="巒">
	<g id="kvg:05dd2-Kaisho-g1" kvg:element="䜌" kvg:position="top">
		<g id="kvg:05dd2-Kaisho-g2" kvg:element="言">
			<path id="kvg:05dd2-Kaisho-s1" kvg:type="㇔" d="M48.58,10.75c1.88,1.02,4.85,4.21,5.32,5.8"/>
			<path id="kvg:05dd2-Kaisho-s2" kvg:type="㇐" d="M41.06,22.59c0.53,0.16,2.53,0.18,3.06,0.16c6.51-0.29,14.17-1.82,18.9-1.96c0.88-0.03,2.2,0.08,2.64,0.16"/>
			<path id="kvg:05dd2-Kaisho-s3" kvg:type="㇐" d="M45.45,29.95c0.32,0.08,2.27,0.09,2.59,0.08c3.31-0.09,6.18-0.91,9.45-0.9c0.53,0,2.75,0.04,3.01,0.08"/>
			<path id="kvg:05dd2-Kaisho-s4" kvg:type="㇐" d="M45.78,38.32c0.28,0.08,2.02,0.09,2.31,0.08c2.96-0.09,7.78-1.44,10.7-1.43c0.47,0,2.45,0.04,2.69,0.08"/>
			<g id="kvg:05dd2-Kaisho-g3" kvg:element="口">
				<path id="kvg:05dd2-Kaisho-s5" kvg:type="㇑" d="M44.45,46.37c0.29,0.25,0.62,0.45,0.72,0.77c0.83,2.87,0.88,9.39,1.72,13.61"/>
				<path id="kvg:05dd2-Kaisho-s6" kvg:type="㇕" d="M46.27,47.55c5.38-0.61,9.5-1.59,14.46-2.21c1.24-0.15,2,0.71,1.82,1.41c-0.74,2.9-1.39,6.24-2.7,11.06"/>
				<path id="kvg:05dd2-Kaisho-s7" kvg:type="㇐" d="M47.49,59.25c4.01-0.37,8.1-0.5,13.6-1.07"/>
			</g>
		</g>
		<g id="kvg:05dd2-Kaisho-g4" kvg:element="糸" kvg:variant="true">
			<path id="kvg:05dd2-Kaisho-s8" kvg:type="㇜" d="M24.59,11.75c0.27,0.98,0.34,1.72-0.14,2.77c-2.4,5.28-5.26,9.11-8.18,13.53c-0.39,0.59-0.54,2.26,0,2.45c2.87,0.98,6.88,2.61,9.34,4.4"/>
			<path id="kvg:05dd2-Kaisho-s9" kvg:type="㇜" d="M34.81,20.56c0.25,0.44,0.33,1.9,0,2.37c-4.86,6.94-12.1,16.61-18.77,22.94c-1.53,1.45,0.38,2.28,1.38,1.99c4.17-1.24,12.84-3.44,18.2-4.62"/>
			<path id="kvg:05dd2-Kaisho-s10" kvg:type="㇔" d="M32.15,37.52c2.17,1.78,5.6,7.3,6.15,10.07"/>
			<path id="kvg:05dd2-Kaisho-s11" kvg:type="㇔" d="M11.96,56.86c3.29,2.22,5.82,7.38,6.58,9.39"/>
			<path id="kvg:05dd2-Kaisho-s12" kvg:type="㇔" d="M21.39,53.99c3.73,1.92,6.59,6.39,7.46,8.14"/>
			<path id="kvg:05dd2-Kaisho-s13" kvg:type="㇔" d="M30.83,50.58c3.62,1.54,6.4,5.13,7.24,6.52"/>
		</g>
		<g id="kvg:05dd2-Kaisho-g5" kvg:element="糸" kvg:variant="true">
			<path id="kvg:05dd2-Kaisho-s14" kvg:type="㇜" d="M79.09,10.5c0.27,0.92,0.34,1.63-0.14,2.62c-2.4,4.99-5.26,8.61-8.18,12.78c-0.39,0.56-0.54,2.14,0,2.31c2.87,0.92,6.88,2.47,9.34,4.16"/>
			<path id="kvg:05dd2-Kaisho-s15" kvg:type="㇜" d="M89.31,18.83c0.25,0.42,0.33,1.79,0,2.24c-4.86,6.56-12.1,15.69-18.77,21.68c-1.53,1.37,0.38,2.16,1.38,1.88c4.17-1.17,12.84-3.25,18.2-4.37"/>
			<path id="kvg:05dd2-Kaisho-s16" kvg:type="㇔" d="M86.65,34.86c2.17,1.68,5.6,6.9,6.14,9.51"/>
			<path id="kvg:05dd2-Kaisho-s17" kvg:type="㇔" d="M66.46,53.12c3.29,2.1,5.82,6.97,6.58,8.88"/>
			<path id="kvg:05dd2-Kaisho-s18" kvg:type="㇔" d="M75.89,50.41c3.73,1.82,6.59,6.04,7.46,7.69"/>
			<path id="kvg:05dd2-Kaisho-s19" kvg:type="㇔" d="M85.33,47.2c3.62,1.46,6.4,4.84,7.24,6.17"/>
		</g>
	</g>
	<g id="kvg:05dd2-Kaisho-g6" kvg:element="山" kvg:position="bottom" kvg:radical="general">
		<path id="kvg:05dd2-Kaisho-s20" kvg:type="㇑a" d="M52.22,67.63c0.64,0.38,2,2.84,2.13,3.6c0.13,0.76-0.08,18.37-0.21,23.11"/>
		<path id="kvg:05dd2-Kaisho-s21" kvg:type="㇄a" d="M25.89,76.17c0.64,0.38,1.38,1.99,1.28,2.75c-0.42,3.39-1.92,10.83-2.96,16.83c-0.3,1.72,0.19,3,1.77,2.68c16.52-3.42,50.35-5.14,58.4-5.35"/>
		<path id="kvg:05dd2-Kaisho-s22" kvg:type="㇑" d="M84.63,75.87c0.64,0.38,1.39,2.84,1.28,3.6c-0.63,4.66-0.77,9.42-1.83,18.1"/>
	</g>
</g>
</g>
<g id="kvg:StrokeNumbers_05dd2-Kaisho" style="font-size:8;fill:#808080">
	<text transform="matrix(1 0 0 1 42.25 10.50)">1</text>
	<text transform="matrix(1 0 0 1 39.50 19.50)">2</text>
	<text transform="matrix(1 0 0 1 40.50 29.03)">3</text>
	<text transform="matrix(1 0 0 1 40.50 36.50)">4</text>
	<text transform="matrix(1 0 0 1 39.50 52.88)">5</text>
	<text transform="matrix(1 0 0 1 47.50 45.50)">6</text>
	<text transform="matrix(1 0 0 1 50.25 57.50)">7</text>
	<text transform="matrix(1 0 0 1 18.50 11.50)">8</text>
	<text transform="matrix(1 0 0 1 31.50 18.50)">9</text>
	<text transform="matrix(1 0 0 1 32.50 34.50)">10</text>
	<text transform="matrix(1 0 0 1 3.50 59.50)">11</text>
	<text transform="matrix(1 0 0 1 14.50 56.50)">12</text>
	<text transform="matrix(1 0 0 1 23.00 52.50)">13</text>
	<text transform="matrix(1 0 0 1 68.50 10.50)">14</text>
	<text transform="matrix(1 0 0 1 86.50 16.50)">15</text>
	<text transform="matrix(1 0 0 1 88.50 34.50)">16</text>
	<text transform="matrix(1 0 0 1 61.50 62.50)">17</text>
	<text transform="matrix(1 0 0 1 68.50 53.50)">18</text>
	<text transform="matrix(1 0 0 1 77.50 49.50)">19</text>
	<text transform="matrix(1 0 0 1 42.50 70.50)">20</text>
</g>
</svg>
