<?xml version="1.0" encoding="UTF-8"?>
<!--
Copyright (C) 2009/2010/2011 Ulrich Apel.
This work is distributed under the conditions of the Creative Commons 
Attribution-Share Alike 3.0 Licence. This means you are free:
* to Share - to copy, distribute and transmit the work
* to Remix - to adapt the work

Under the following conditions:
* Attribution. You must attribute the work by stating your use of KanjiVG in
  your own copyright header and linking to KanjiVG's website
  (http://kanjivg.tagaini.net)
* Share Alike. If you alter, transform, or build upon this work, you may
  distribute the resulting work only under the same or similar license to this
  one.

See http://creativecommons.org/licenses/by-sa/3.0/ for more details.
-->
<!DOCTYPE svg PUBLIC "-//W3C//DTD SVG 1.0//EN" "http://www.w3.org/TR/2001/REC-SVG-20010904/DTD/svg10.dtd" [
<!ATTLIST g
xmlns:kvg CDATA #FIXED "http://kanjivg.tagaini.net"
kvg:element CDATA #IMPLIED
kvg:variant CDATA #IMPLIED
kvg:partial CDATA #IMPLIED
kvg:original CDATA #IMPLIED
kvg:part CDATA #IMPLIED
kvg:number CDATA #IMPLIED
kvg:tradForm CDATA #IMPLIED
kvg:radicalForm CDATA #IMPLIED
kvg:position CDATA #IMPLIED
kvg:radical CDATA #IMPLIED
kvg:phon CDATA #IMPLIED >
<!ATTLIST path
xmlns:kvg CDATA #FIXED "http://kanjivg.tagaini.net"
kvg:type CDATA #IMPLIED >
]>
<svg xmlns="http://www.w3.org/2000/svg" width="109" height="109" viewBox="0 0 109 109">
<g id="kvg:StrokePaths_05e11" style="fill:none;stroke:#000000;stroke-width:3;stroke-linecap:round;stroke-linejoin:round;">
<g id="kvg:05e11" kvg:element="帑">
	<g id="kvg:05e11-g1" kvg:element="奴" kvg:position="top">
		<g id="kvg:05e11-g2" kvg:element="女" kvg:position="left">
			<path id="kvg:05e11-s1" kvg:type="㇛" d="M32.93,10.44c0.38,0.87,0.56,2.29,0.36,3.47c-0.97,5.8-5.75,17.67-9.98,24.16c-0.87,1.33,0.37,2.04,0.86,2.18c7.29,2.13,13.94,2.92,19.6,8.58"/>
			<path id="kvg:05e11-s2" kvg:type="㇒" d="M44.62,21.17c0.07,0.78,0.11,2.67-0.15,3.78c-2.13,8.93-8.26,21.35-23.38,26.91"/>
			<path id="kvg:05e11-s3" kvg:type="㇐" d="M12.25,28.29c0.83,1.8,2.59,1.89,4.73,1.25C20.5,28.5,37.25,25,50.27,21.78"/>
		</g>
		<g id="kvg:05e11-g3" kvg:element="又" kvg:position="right">
			<path id="kvg:05e11-s4" kvg:type="㇇" d="M59.8,16.51c1.07,0.23,1.2,0.57,3.34,0.23c2.14-0.34,17.81-3.4,19.28-3.74c1.47-0.34,3.23,0.99,2.72,2.25C81,25.49,70.86,39.1,58.69,44.04"/>
			<path id="kvg:05e11-s5" kvg:type="㇏" d="M58.52,22.39c3.27,0.57,19.22,15.81,30.59,22.05c1.77,0.97,3.06,1.62,4.71,1.94"/>
		</g>
	</g>
	<g id="kvg:05e11-g4" kvg:element="巾" kvg:position="bottom" kvg:radical="general">
		<path id="kvg:05e11-s6" kvg:type="㇑" d="M28.25,60.93c0.6,0.27,1.88,2.02,2,2.56c0.12,0.54,2.92,23.67,2.8,27.04"/>
		<path id="kvg:05e11-s7" kvg:type="㇆a" d="M29.79,62.39c3.78-0.19,44.8-4.49,47.62-4.61c3.31-0.14,4.03,2.38,3.91,3.61c-0.6,6.19-2.65,16.78-4.88,22.75C74.25,90,72.5,87,69.88,83.24"/>
		<path id="kvg:05e11-s8" kvg:type="㇑" d="M52.52,46.38c0.6,0.27,1.88,2.02,2,2.56c0.12,0.54-0.08,49.57-0.2,52.94"/>
	</g>
</g>
</g>
<g id="kvg:StrokeNumbers_05e11" style="font-size:8;fill:#808080">
	<text transform="matrix(1 0 0 1 26.50 9.50)">1</text>
	<text transform="matrix(1 0 0 1 39.50 17.50)">2</text>
	<text transform="matrix(1 0 0 1 4.50 28.50)">3</text>
	<text transform="matrix(1 0 0 1 56.50 13.50)">4</text>
	<text transform="matrix(1 0 0 1 52.50 28.50)">5</text>
	<text transform="matrix(1 0 0 1 22.50 67.50)">6</text>
	<text transform="matrix(1 0 0 1 31.50 58.50)">7</text>
	<text transform="matrix(1 0 0 1 46.25 54.50)">8</text>
</g>
</svg>
