<?xml version="1.0" encoding="UTF-8"?>
<!--
Copyright (C) 2009/2010/2011 Ulrich Apel.
This work is distributed under the conditions of the Creative Commons 
Attribution-Share Alike 3.0 Licence. This means you are free:
* to Share - to copy, distribute and transmit the work
* to Remix - to adapt the work

Under the following conditions:
* Attribution. You must attribute the work by stating your use of KanjiVG in
  your own copyright header and linking to KanjiVG's website
  (http://kanjivg.tagaini.net)
* Share Alike. If you alter, transform, or build upon this work, you may
  distribute the resulting work only under the same or similar license to this
  one.

See http://creativecommons.org/licenses/by-sa/3.0/ for more details.
-->
<!DOCTYPE svg PUBLIC "-//W3C//DTD SVG 1.0//EN" "http://www.w3.org/TR/2001/REC-SVG-20010904/DTD/svg10.dtd" [
<!ATTLIST g
xmlns:kvg CDATA #FIXED "http://kanjivg.tagaini.net"
kvg:element CDATA #IMPLIED
kvg:variant CDATA #IMPLIED
kvg:partial CDATA #IMPLIED
kvg:original CDATA #IMPLIED
kvg:part CDATA #IMPLIED
kvg:number CDATA #IMPLIED
kvg:tradForm CDATA #IMPLIED
kvg:radicalForm CDATA #IMPLIED
kvg:position CDATA #IMPLIED
kvg:radical CDATA #IMPLIED
kvg:phon CDATA #IMPLIED >
<!ATTLIST path
xmlns:kvg CDATA #FIXED "http://kanjivg.tagaini.net"
kvg:type CDATA #IMPLIED >
]>
<svg xmlns="http://www.w3.org/2000/svg" width="109" height="109" viewBox="0 0 109 109">
<g id="kvg:StrokePaths_05e55-Kaisho" style="fill:none;stroke:#000000;stroke-width:3;stroke-linecap:round;stroke-linejoin:round;">
<g id="kvg:05e55-Kaisho" kvg:element="幕">
	<g id="kvg:05e55-Kaisho-g1" kvg:element="莫" kvg:position="top">
		<g id="kvg:05e55-Kaisho-g2" kvg:element="艹" kvg:variant="true" kvg:original="艸" kvg:position="top" kvg:radical="nelson">
			<path id="kvg:05e55-Kaisho-s1" kvg:type="㇐" d="M22,18.31c1.29,0.45,2.8,0.54,4.1,0.45C38,17.94,66,15.39,79.72,15.33c2.16-0.01,3.45,0.21,4.53,0.44"/>
			<path id="kvg:05e55-Kaisho-s2" kvg:type="㇑a" d="M36.75,10.74c1.75,0.93,2.31,1.21,2.5,1.78C41,17.85,41.5,22.38,42,24.32"/>
			<path id="kvg:05e55-Kaisho-s3" kvg:type="㇑a" d="M66.1,8.25c0.35,0.81,0.73,1.39,0.42,2.4c-1.47,4.79-2.1,7.36-3.77,12.15"/>
		</g>
		<g id="kvg:05e55-Kaisho-g3" kvg:position="bottom">
			<g id="kvg:05e55-Kaisho-g4" kvg:element="日">
				<path id="kvg:05e55-Kaisho-s4" kvg:type="㇑" d="M31.02,29.46c0.48,0.44,1.85,2.41,1.94,2.99c0.65,4.43,2.48,15.45,2.48,15.74c0,0.29,0.16,0.29,0.32,0.88"/>
				<path id="kvg:05e55-Kaisho-s5" kvg:type="㇕a" d="M33.75,31.28c7.32-0.82,35.49-3.94,37.97-4.02c2.07-0.07,3.33,2.04,3.24,2.49c-0.67,3.53-2.77,12.73-3.91,16.37"/>
				<path id="kvg:05e55-Kaisho-s6" kvg:type="㇐a" d="M34.23,38.88c6.7-0.44,13.4-1.21,20.09-1.84c2.13-0.2,4.24-0.4,6.24-0.58"/>
				<path id="kvg:05e55-Kaisho-s7" kvg:type="㇐a" d="M35.93,47.34c9.82-1.09,25.57-2.57,34.93-2.84"/>
			</g>
			<g id="kvg:05e55-Kaisho-g5" kvg:element="大">
				<path id="kvg:05e55-Kaisho-s8" kvg:type="㇐" d="M15.38,59.87c2.61,0.81,5.54,0.41,7.25,0.23c17.63-1.85,45.88-3.08,62.44-4.45c2.16-0.18,6.02-0.17,8.43-0.17"/>
				<path id="kvg:05e55-Kaisho-s9" kvg:type="㇒" d="M47.13,48.93c-0.1,1.18,0.34,1.68-0.14,2.6C40,65,29.25,75.25,12,84.5"/>
				<path id="kvg:05e55-Kaisho-s10" kvg:type="㇏" d="M60.5,53.1C67,55,84.37,73.59,91.27,77.67c2.35,1.39,3.16,1.6,4.23,1.73"/>
			</g>
		</g>
	</g>
	<g id="kvg:05e55-Kaisho-g6" kvg:element="巾" kvg:position="bottom" kvg:radical="tradit">
		<path id="kvg:05e55-Kaisho-s11" kvg:type="㇑" d="M37.49,74.8c0.45,0.27,1.41,2,1.5,2.54c0.09,0.54-0.06,14-0.15,17.34"/>
		<path id="kvg:05e55-Kaisho-s12" kvg:type="㇆a" d="M39.39,76.24c2.84-0.19,28.63-4.46,30.75-4.58c2.49-0.14,2.91,1.35,2.94,2.58C73.25,81,72,87.25,70.79,91.31c-1.27,4.27-3.73,0.6-4.93-0.9"/>
		<path id="kvg:05e55-Kaisho-s13" kvg:type="㇑" d="M53.38,63.88c0.52,0.31,1.64,2.33,1.74,2.95c0.11,0.62-0.07,30.17-0.17,34.05"/>
	</g>
</g>
</g>
<g id="kvg:StrokeNumbers_05e55-Kaisho" style="font-size:8;fill:#808080">
	<text transform="matrix(1 0 0 1 14.25 19.63)">1</text>
	<text transform="matrix(1 0 0 1 29.50 11.50)">2</text>
	<text transform="matrix(1 0 0 1 57.50 9.50)">3</text>
	<text transform="matrix(1 0 0 1 24.50 36.50)">4</text>
	<text transform="matrix(1 0 0 1 33.75 27.50)">5</text>
	<text transform="matrix(1 0 0 1 38.25 36.50)">6</text>
	<text transform="matrix(1 0 0 1 38.50 45.50)">7</text>
	<text transform="matrix(1 0 0 1 7.50 60.13)">8</text>
	<text transform="matrix(1 0 0 1 38.50 54.50)">9</text>
	<text transform="matrix(1 0 0 1 65.50 53.50)">10</text>
	<text transform="matrix(1 0 0 1 29.50 83.50)">11</text>
	<text transform="matrix(1 0 0 1 41.25 72.50)">12</text>
	<text transform="matrix(1 0 0 1 56.50 66.50)">13</text>
</g>
</svg>
