<?xml version="1.0" encoding="UTF-8"?>
<!--
Copyright (C) 2009/2010/2011 Ulrich Apel.
This work is distributed under the conditions of the Creative Commons 
Attribution-Share Alike 3.0 Licence. This means you are free:
* to Share - to copy, distribute and transmit the work
* to Remix - to adapt the work

Under the following conditions:
* Attribution. You must attribute the work by stating your use of KanjiVG in
  your own copyright header and linking to KanjiVG's website
  (http://kanjivg.tagaini.net)
* Share Alike. If you alter, transform, or build upon this work, you may
  distribute the resulting work only under the same or similar license to this
  one.

See http://creativecommons.org/licenses/by-sa/3.0/ for more details.
-->
<!DOCTYPE svg PUBLIC "-//W3C//DTD SVG 1.0//EN" "http://www.w3.org/TR/2001/REC-SVG-20010904/DTD/svg10.dtd" [
<!ATTLIST g
xmlns:kvg CDATA #FIXED "http://kanjivg.tagaini.net"
kvg:element CDATA #IMPLIED
kvg:variant CDATA #IMPLIED
kvg:partial CDATA #IMPLIED
kvg:original CDATA #IMPLIED
kvg:part CDATA #IMPLIED
kvg:number CDATA #IMPLIED
kvg:tradForm CDATA #IMPLIED
kvg:radicalForm CDATA #IMPLIED
kvg:position CDATA #IMPLIED
kvg:radical CDATA #IMPLIED
kvg:phon CDATA #IMPLIED >
<!ATTLIST path
xmlns:kvg CDATA #FIXED "http://kanjivg.tagaini.net"
kvg:type CDATA #IMPLIED >
]>
<svg xmlns="http://www.w3.org/2000/svg" width="109" height="109" viewBox="0 0 109 109">
<g id="kvg:StrokePaths_05e83-Kaisho" style="fill:none;stroke:#000000;stroke-width:3;stroke-linecap:round;stroke-linejoin:round;">
<g id="kvg:05e83-Kaisho" kvg:element="広">
	<g id="kvg:05e83-Kaisho-g1" kvg:element="广" kvg:position="tare" kvg:radical="general">
		<path id="kvg:05e83-Kaisho-s1" kvg:type="㇑a" d="M50.83,14.53c2.8,1.03,8.73,7.72,9.29,9.78"/>
		<g id="kvg:05e83-Kaisho-g2" kvg:element="厂">
			<path id="kvg:05e83-Kaisho-s2" kvg:type="㇐" d="M25.38,31.24c1.41,0.5,3.99,0.58,5.4,0.5c14.66-0.84,35.53-3.73,53.92-3.92c2.35-0.02,3.76,0.24,4.93,0.49"/>
			<path id="kvg:05e83-Kaisho-s3" kvg:type="㇒" d="M28.14,33.82c0.05,1.27,0.1,3.27-0.09,5.09C26.9,49.65,22.99,74.12,12,87.25"/>
		</g>
	</g>
	<g id="kvg:05e83-Kaisho-g3" kvg:element="厶">
		<path id="kvg:05e83-Kaisho-s4" kvg:type="㇜" d="M58.73,43.99c0.61,1.02,0.6,4.02,0.02,5.26C53,61.5,45.5,74.75,37.33,87.97c-1.83,2.95-2.08,4.28,1.22,3.67c8.18-1.52,30.59-6.53,42.83-8.36"/>
		<path id="kvg:05e83-Kaisho-s5" kvg:type="㇔" d="M72.56,69.59C78.01,73.85,86.64,87.12,88,93.75"/>
	</g>
</g>
</g>
<g id="kvg:StrokeNumbers_05e83-Kaisho" style="font-size:8;fill:#808080">
	<text transform="matrix(1 0 0 1 45.50 14.50)">1</text>
	<text transform="matrix(1 0 0 1 30.75 27.13)">2</text>
	<text transform="matrix(1 0 0 1 17.25 37.63)">3</text>
	<text transform="matrix(1 0 0 1 51.50 43.50)">4</text>
	<text transform="matrix(1 0 0 1 69.50 63.50)">5</text>
</g>
</svg>
