<?xml version="1.0" encoding="UTF-8"?>
<!--
Copyright (C) 2009/2010/2011 Ulrich Apel.
This work is distributed under the conditions of the Creative Commons 
Attribution-Share Alike 3.0 Licence. This means you are free:
* to Share - to copy, distribute and transmit the work
* to Remix - to adapt the work

Under the following conditions:
* Attribution. You must attribute the work by stating your use of KanjiVG in
  your own copyright header and linking to KanjiVG's website
  (http://kanjivg.tagaini.net)
* Share Alike. If you alter, transform, or build upon this work, you may
  distribute the resulting work only under the same or similar license to this
  one.

See http://creativecommons.org/licenses/by-sa/3.0/ for more details.
-->
<!DOCTYPE svg PUBLIC "-//W3C//DTD SVG 1.0//EN" "http://www.w3.org/TR/2001/REC-SVG-20010904/DTD/svg10.dtd" [
<!ATTLIST g
xmlns:kvg CDATA #FIXED "http://kanjivg.tagaini.net"
kvg:element CDATA #IMPLIED
kvg:variant CDATA #IMPLIED
kvg:partial CDATA #IMPLIED
kvg:original CDATA #IMPLIED
kvg:part CDATA #IMPLIED
kvg:number CDATA #IMPLIED
kvg:tradForm CDATA #IMPLIED
kvg:radicalForm CDATA #IMPLIED
kvg:position CDATA #IMPLIED
kvg:radical CDATA #IMPLIED
kvg:phon CDATA #IMPLIED >
<!ATTLIST path
xmlns:kvg CDATA #FIXED "http://kanjivg.tagaini.net"
kvg:type CDATA #IMPLIED >
]>
<svg xmlns="http://www.w3.org/2000/svg" width="109" height="109" viewBox="0 0 109 109">
<g id="kvg:StrokePaths_05ed0-Kaisho" style="fill:none;stroke:#000000;stroke-width:3;stroke-linecap:round;stroke-linejoin:round;">
<g id="kvg:05ed0-Kaisho" kvg:element="廐">
	<g id="kvg:05ed0-Kaisho-g1" kvg:element="广" kvg:position="tare" kvg:radical="general">
		<path id="kvg:05ed0-Kaisho-s1" kvg:type="㇑a" d="M50.45,10.63c1.68,0.74,5.24,5.53,5.57,7"/>
		<g id="kvg:05ed0-Kaisho-g2" kvg:element="厂">
			<path id="kvg:05ed0-Kaisho-s2" kvg:type="㇐" d="M19.63,24.78c1.76,0.49,4.98,0.63,6.73,0.49c16.89-1.27,43.15-4.58,60.87-5.23c2.92-0.11,4.68,0.24,6.15,0.48"/>
			<path id="kvg:05ed0-Kaisho-s3" kvg:type="㇒" d="M24.99,26.5c0.04,1.48,0.09,3.83-0.09,5.95C23.85,45,22.25,76.75,10.06,88.97"/>
		</g>
	</g>
	<g id="kvg:05ed0-Kaisho-g3" kvg:element="皀" kvg:position="left">
		<g id="kvg:05ed0-Kaisho-g4" kvg:element="白" kvg:position="top">
			<g id="kvg:05ed0-Kaisho-g5" kvg:position="top">
				<path id="kvg:05ed0-Kaisho-s4" kvg:type="㇒" d="M43.19,30.5c0.15,0.33,0.21,0.76,0.14,1.03c-0.51,2.03-2.09,5.83-3.8,8.14"/>
			</g>
			<g id="kvg:05ed0-Kaisho-g6" kvg:element="日" kvg:position="bottom">
				<path id="kvg:05ed0-Kaisho-s5" kvg:type="㇑" d="M31.71,41.85c0.31,0.46,0.56,1.41,0.63,2.02c0.23,1.81,1.63,12.11,1.96,17.09"/>
				<path id="kvg:05ed0-Kaisho-s6" kvg:type="㇕a" d="M32.53,42.93c1.79-0.08,19.64-2.29,21.26-2.42c1.03-0.08,1.45,0.86,1.45,1.83c0,1.66-1.09,12.39-1.94,17.77"/>
				<path id="kvg:05ed0-Kaisho-s7" kvg:type="㇐a" d="M33.69,51.05c3.62-0.22,7.23-0.64,10.83-0.98c1.1-0.1,2.2-0.21,3.25-0.3"/>
				<path id="kvg:05ed0-Kaisho-s8" kvg:type="㇐a" d="M34.5,59.77c4.48-0.25,14.1-1.19,18.88-1.31"/>
			</g>
		</g>
		<g id="kvg:05ed0-Kaisho-g7" kvg:element="匕" kvg:position="bottom">
			<path id="kvg:05ed0-Kaisho-s9" kvg:type="㇒" d="M34.25,76.75c3-0.25,11.22-1.49,15.25-2.5c2-0.5,3.25-0.5,4.5-0.25"/>
			<path id="kvg:05ed0-Kaisho-s10" kvg:type="㇟" d="M32.61,66.57c0.48,0.75,0.51,1.24,0.67,2.24c0.16,1-0.06,12.37-0.06,15.48c0,8.01,6.38,6.75,11.82,6.75c8.97,0,11.09-2.54,11.09-9.41"/>
		</g>
	</g>
	<g id="kvg:05ed0-Kaisho-g8" kvg:element="旡" kvg:variant="true" kvg:original="无" kvg:position="right">
		<path id="kvg:05ed0-Kaisho-s11" kvg:type="㇐" d="M61.69,35.34c0.69,0.25,1.96,0.34,2.65,0.25c3.61-0.46,15.46-3.07,20.55-3.29c1.15-0.05,1.84,0.12,2.42,0.25"/>
		<path id="kvg:05ed0-Kaisho-s12" kvg:type="㇄" d="M64.86,42.63c0.34,0.33,0.74,1.74,0.69,2.4c-0.23,2.96-1.38,8.13-2.37,12.85c-0.48,2.29,0.82,2.96,1.68,2.77c2.53-0.56,18.28-3.74,26.13-3.97c0.91-0.03,1.48-0.14,2.2,0.14"/>
		<g id="kvg:05ed0-Kaisho-g9" kvg:element="儿">
			<g id="kvg:05ed0-Kaisho-g10" kvg:element="八" kvg:variant="true">
				<g id="kvg:05ed0-Kaisho-g11" kvg:element="丿" kvg:position="left">
					<path id="kvg:05ed0-Kaisho-s13" kvg:type="㇒" d="M76.37,37.69c0.28,0.79,0.52,2.32,0.35,4.26C75,61.25,71.25,80.25,57.75,94.5"/>
				</g>
				<g id="kvg:05ed0-Kaisho-g12" kvg:position="right">
					<path id="kvg:05ed0-Kaisho-s14" kvg:type="㇟" d="M76.83,63.11c0.36,0.87,0.64,1.9,0.67,3.25c0.1,6-0.28,15.5-0.28,19.59c0,9.54,4.09,8.46,8.11,8.46c4.25,0,7.04-0.86,7.64-1.56c1.26-1.47,0.92-2.57,1.03-5.14"/>
				</g>
			</g>
		</g>
	</g>
</g>
</g>
<g id="kvg:StrokeNumbers_05ed0-Kaisho" style="font-size:8;fill:#808080">
	<text transform="matrix(1 0 0 1 44.85 11.85)">1</text>
	<text transform="matrix(1 0 0 1 22.50 21.50)">2</text>
	<text transform="matrix(1 0 0 1 17.21 33.50)">3</text>
	<text transform="matrix(1 0 0 1 35.50 32.40)">4</text>
	<text transform="matrix(1 0 0 1 27.50 50.50)">5</text>
	<text transform="matrix(1 0 0 1 33.50 39.50)">6</text>
	<text transform="matrix(1 0 0 1 37.50 48.50)">7</text>
	<text transform="matrix(1 0 0 1 37.75 57.10)">8</text>
	<text transform="matrix(1 0 0 1 37.50 73.00)">9</text>
	<text transform="matrix(1 0 0 1 23.50 74.50)">10</text>
	<text transform="matrix(1 0 0 1 59.50 32.50)">11</text>
	<text transform="matrix(1 0 0 1 57.50 48.50)">12</text>
	<text transform="matrix(1 0 0 1 67.50 42.50)">13</text>
	<text transform="matrix(1 0 0 1 79.50 68.50)">14</text>
</g>
</svg>
