<?xml version="1.0" encoding="UTF-8"?>
<!--
Copyright (C) 2009/2010/2011 Ulrich Apel.
This work is distributed under the conditions of the Creative Commons 
Attribution-Share Alike 3.0 Licence. This means you are free:
* to Share - to copy, distribute and transmit the work
* to Remix - to adapt the work

Under the following conditions:
* Attribution. You must attribute the work by stating your use of KanjiVG in
  your own copyright header and linking to KanjiVG's website
  (http://kanjivg.tagaini.net)
* Share Alike. If you alter, transform, or build upon this work, you may
  distribute the resulting work only under the same or similar license to this
  one.

See http://creativecommons.org/licenses/by-sa/3.0/ for more details.
-->
<!DOCTYPE svg PUBLIC "-//W3C//DTD SVG 1.0//EN" "http://www.w3.org/TR/2001/REC-SVG-20010904/DTD/svg10.dtd" [
<!ATTLIST g
xmlns:kvg CDATA #FIXED "http://kanjivg.tagaini.net"
kvg:element CDATA #IMPLIED
kvg:variant CDATA #IMPLIED
kvg:partial CDATA #IMPLIED
kvg:original CDATA #IMPLIED
kvg:part CDATA #IMPLIED
kvg:number CDATA #IMPLIED
kvg:tradForm CDATA #IMPLIED
kvg:radicalForm CDATA #IMPLIED
kvg:position CDATA #IMPLIED
kvg:radical CDATA #IMPLIED
kvg:phon CDATA #IMPLIED >
<!ATTLIST path
xmlns:kvg CDATA #FIXED "http://kanjivg.tagaini.net"
kvg:type CDATA #IMPLIED >
]>
<svg xmlns="http://www.w3.org/2000/svg" width="109" height="109" viewBox="0 0 109 109">
<g id="kvg:StrokePaths_05ee2" style="fill:none;stroke:#000000;stroke-width:3;stroke-linecap:round;stroke-linejoin:round;">
<g id="kvg:05ee2" kvg:element="廢">
	<g id="kvg:05ee2-g1" kvg:element="广" kvg:position="tare" kvg:radical="tradit">
		<path id="kvg:05ee2-s1" kvg:type="㇑a" d="M52.01,9.13c0.64,0.33,2,2.44,2.13,3.1c0.13,0.65,0.07,3.94-0.06,8.02"/>
		<g id="kvg:05ee2-g2" kvg:element="厂">
			<path id="kvg:05ee2-s2" kvg:type="㇐" d="M20.63,22.23c1.52,0.54,4.3,0.63,5.82,0.54c15.8-0.91,37.8-4.02,57.61-4.23c2.53-0.03,4.05,0.26,5.31,0.53"/>
			<path id="kvg:05ee2-s3" kvg:type="㇒" d="M25.5,23c0.04,1.63,0.09,4.21-0.08,6.55c-1.01,13.81-3.27,47.3-14.11,62.17"/>
		</g>
	</g>
	<g id="kvg:05ee2-g3" kvg:element="發">
		<g id="kvg:05ee2-g4" kvg:element="癶" kvg:position="top">
			<g id="kvg:05ee2-g5" kvg:position="left">
				<path id="kvg:05ee2-s4" kvg:type="㇇" d="M34.55,32.4c0.92,0.43,1.28,0.35,2.77,0.14c3.89-0.54,8.68-2.05,13.05-3.35c2.39-0.71,3.3,0.54,2.17,2.72C47.9,40.86,40.61,49.15,29,55.68"/>
				<path id="kvg:05ee2-s5" kvg:type="㇔" d="M32.11,38.79c2.4,1.13,6.2,4.66,6.81,6.42"/>
			</g>
			<g id="kvg:05ee2-g6" kvg:position="right">
				<path id="kvg:05ee2-s6" kvg:type="㇒" d="M76.16,25.39c0.02,0.18,0.11,0.5-0.04,0.72c-1,1.53-2.98,4.85-6.45,6.9"/>
				<path id="kvg:05ee2-s7" kvg:type="㇏" d="M59.93,26.77c2.84,1.56,19.65,18.34,26.33,22.11c1.61,0.91,2.76,1.59,4.24,1.9"/>
				<path id="kvg:05ee2-s8" kvg:type="㇒" d="M85.64,31.22c0.02,0.19,0.1,0.52-0.05,0.77c-1.15,1.94-3.7,4.6-8.61,7.35"/>
			</g>
		</g>
		<g id="kvg:05ee2-g7" kvg:position="bottom">
			<g id="kvg:05ee2-g8" kvg:element="弓" kvg:position="left">
				<path id="kvg:05ee2-s9" kvg:type="㇕c" d="M39.09,50.6c0.6,0.77,1.16,1,1.93,0.85c0.77-0.14,7.86-1.68,9.4-2.11c1.53-0.43,1.96,1.02,1.5,2.17c-0.33,0.81-1.22,4.4-1.77,7.01c-0.22,1.06-0.39,1.96-0.44,2.44"/>
				<path id="kvg:05ee2-s10" kvg:type="㇐" d="M37.25,62.25c1.75,0,9.5-1,10.75-1s2.5-0.5,3.5-0.5"/>
				<path id="kvg:05ee2-s11" kvg:type="㇉" d="M36.31,60.64c0.46,0.57,0.39,2.12,0.09,3.02c-0.34,1.03-4.42,9.16-4.57,9.72c-0.15,0.57,0.06,2.38,1.23,1.71c0.88-0.51,10.68-2.08,13.14-2.51c2.45-0.43,2.99,0.53,2.95,2.58c-0.09,5.36-3.79,14.67-7.61,19.12c-2.26,2.63-4.11-0.59-4.81-1.7"/>
			</g>
			<g id="kvg:05ee2-g9" kvg:element="殳" kvg:position="right">
				<g id="kvg:05ee2-g10" kvg:element="几" kvg:position="top">
					<g id="kvg:05ee2-g11" kvg:element="丿">
						<path id="kvg:05ee2-s12" kvg:type="㇒" d="M60.42,48.69c0.35,0.75,0.47,1.35,0.45,1.89c-0.14,5.54-1.34,11.79-5.15,14.25"/>
					</g>
					<path id="kvg:05ee2-s13" kvg:type="㇈b" d="M61.19,50.1c1.4,0.16,7.72-1.5,8.66-1.83c1.4-0.49,2.1,1.03,1.96,2.1c-0.28,2.1-0.85,5.35-0.85,7.45c0,3.43,0.96,5.01,6.75,5.01s7.45-1.58,7.45-5"/>
				</g>
				<g id="kvg:05ee2-g12" kvg:element="又" kvg:position="bottom">
					<path id="kvg:05ee2-s14" kvg:type="㇇" d="M56.76,72.16c0.9,0.21,1.01,0.52,2.82,0.21c5.17-0.87,15.27-3.48,16.51-3.8c1.24-0.32,2.25,1.25,1.69,2.36c-5.72,11.46-15.59,18.96-26.42,24.29"/>
					<path id="kvg:05ee2-s15" kvg:type="㇏" d="M56.05,77.47c2.89,0.46,17.04,12.88,27.12,17.97c1.57,0.79,2.71,1.32,4.17,1.58"/>
				</g>
			</g>
		</g>
	</g>
</g>
</g>
<g id="kvg:StrokeNumbers_05ee2" style="font-size:8;fill:#808080">
	<text transform="matrix(1 0 0 1 44.50 9.50)">1</text>
	<text transform="matrix(1 0 0 1 24.50 19.50)">2</text>
	<text transform="matrix(1 0 0 1 17.50 31.50)">3</text>
	<text transform="matrix(1 0 0 1 33.25 29.50)">4</text>
	<text transform="matrix(1 0 0 1 29.50 45.50)">5</text>
	<text transform="matrix(1 0 0 1 67.50 26.25)">6</text>
	<text transform="matrix(1 0 0 1 58.25 34.50)">7</text>
	<text transform="matrix(1 0 0 1 82.50 27.50)">8</text>
	<text transform="matrix(1 0 0 1 48.25 46.03)">9</text>
	<text transform="matrix(1 0 0 1 38.50 59.50)">10</text>
	<text transform="matrix(1 0 0 1 28.50 63.50)">11</text>
	<text transform="matrix(1 0 0 1 52.50 52.80)">12</text>
	<text transform="matrix(1 0 0 1 60.50 46.73)">13</text>
	<text transform="matrix(1 0 0 1 57.50 69.50)">14</text>
	<text transform="matrix(1 0 0 1 52.50 85.50)">15</text>
</g>
</svg>
