<?xml version="1.0" encoding="UTF-8"?>
<!--
Copyright (C) 2009/2010/2011 Ulrich Apel.
This work is distributed under the conditions of the Creative Commons 
Attribution-Share Alike 3.0 Licence. This means you are free:
* to Share - to copy, distribute and transmit the work
* to Remix - to adapt the work

Under the following conditions:
* Attribution. You must attribute the work by stating your use of KanjiVG in
  your own copyright header and linking to KanjiVG's website
  (http://kanjivg.tagaini.net)
* Share Alike. If you alter, transform, or build upon this work, you may
  distribute the resulting work only under the same or similar license to this
  one.

See http://creativecommons.org/licenses/by-sa/3.0/ for more details.
-->
<!DOCTYPE svg PUBLIC "-//W3C//DTD SVG 1.0//EN" "http://www.w3.org/TR/2001/REC-SVG-20010904/DTD/svg10.dtd" [
<!ATTLIST g
xmlns:kvg CDATA #FIXED "http://kanjivg.tagaini.net"
kvg:element CDATA #IMPLIED
kvg:variant CDATA #IMPLIED
kvg:partial CDATA #IMPLIED
kvg:original CDATA #IMPLIED
kvg:part CDATA #IMPLIED
kvg:number CDATA #IMPLIED
kvg:tradForm CDATA #IMPLIED
kvg:radicalForm CDATA #IMPLIED
kvg:position CDATA #IMPLIED
kvg:radical CDATA #IMPLIED
kvg:phon CDATA #IMPLIED >
<!ATTLIST path
xmlns:kvg CDATA #FIXED "http://kanjivg.tagaini.net"
kvg:type CDATA #IMPLIED >
]>
<svg xmlns="http://www.w3.org/2000/svg" width="109" height="109" viewBox="0 0 109 109">
<g id="kvg:StrokePaths_05ee9" style="fill:none;stroke:#000000;stroke-width:3;stroke-linecap:round;stroke-linejoin:round;">
<g id="kvg:05ee9" kvg:element="廩">
	<g id="kvg:05ee9-g1" kvg:element="广" kvg:position="tare" kvg:radical="general">
		<path id="kvg:05ee9-s1" kvg:type="㇑a" d="M51.81,10.13c0.76,0.38,2.36,2.88,2.51,3.65c0.15,0.77,0.08,3.65-0.07,8.46"/>
		<g id="kvg:05ee9-g2" kvg:element="厂">
			<path id="kvg:05ee9-s2" kvg:type="㇐" d="M18.13,24.05c1.71,0.41,4.84,0.48,6.55,0.41c17.78-0.69,41.98-3.33,59.22-3.87c2.84-0.09,4.56,0.2,5.98,0.4"/>
			<path id="kvg:05ee9-s3" kvg:type="㇒" d="M23.5,24.5c0.04,1.61,0.08,4.15-0.07,6.45c-0.9,13.61-1.68,47.55-12.62,61.26"/>
		</g>
	</g>
	<g id="kvg:05ee9-g3" kvg:element="稟">
		<g id="kvg:05ee9-g4" kvg:position="top">
			<g id="kvg:05ee9-g5" kvg:element="亠" kvg:position="top">
				<path id="kvg:05ee9-s4" kvg:type="㇑a" d="M54.39,26c0.78,0.35,2.05,1.69,2.05,2.38c0,2.54-0.25,4.11-0.1,6.26"/>
				<path id="kvg:05ee9-s5" kvg:type="㇐" d="M31.67,35.7c1.67,0.27,3.13,0.5,5.05,0.38c12.53-0.76,31.28-2.33,43.7-3.62c1.95-0.2,2.96,0.03,4.41,0.48"/>
			</g>
			<g id="kvg:05ee9-g6" kvg:element="回" kvg:position="bottom">
				<g id="kvg:05ee9-g7" kvg:element="囗" kvg:part="1">
					<path id="kvg:05ee9-s6" kvg:type="㇑" d="M36.66,42.66c0.58,0.48,0.67,0.99,0.79,1.6c0.81,4.1,2.35,10.04,3.54,18.07"/>
					<path id="kvg:05ee9-s7" kvg:type="㇕a" d="M38.38,44.27c11.62-1.02,33.72-3.35,40.7-3.35c1.59,0,2.21,0.8,2.02,1.77c-0.87,4.58-2.55,10.82-4.29,17"/>
				</g>
				<g id="kvg:05ee9-g8" kvg:element="口">
					<path id="kvg:05ee9-s8" kvg:type="㇑" d="M48.3,47.84c0.17,0.13,0.35,0.23,0.42,0.39c0.59,1.25,1.61,5.52,2.12,7.77"/>
					<path id="kvg:05ee9-s9" kvg:type="㇕b" d="M49.37,48.87c3.51-0.65,14.88-1.87,16.89-2.04c0.74-0.06,1.18,0.36,1.07,0.71c-0.44,1.46-0.95,3.61-1.59,5.63"/>
					<path id="kvg:05ee9-s10" kvg:type="㇐b" d="M50.53,54.74c2.55-0.32,13.17-1.1,16.42-1.39"/>
				</g>
				<g id="kvg:05ee9-g9" kvg:element="囗" kvg:part="2">
					<path id="kvg:05ee9-s11" kvg:type="㇐a" d="M41.54,61.36c9.65-0.56,24.71-2.14,34.87-2.59"/>
				</g>
			</g>
		</g>
		<g id="kvg:05ee9-g10" kvg:element="禾" kvg:position="bottom">
			<g id="kvg:05ee9-g11" kvg:element="丿" kvg:position="top">
				<path id="kvg:05ee9-s12" kvg:type="㇒" d="M69.79,62.7c0.1,0.22,0.21,0.56-0.2,0.87c-2.45,1.84-16.48,5.86-35.7,8.33"/>
			</g>
			<g id="kvg:05ee9-g12" kvg:element="木" kvg:position="bottom">
				<path id="kvg:05ee9-s13" kvg:type="㇐" d="M24.57,78.77c0.64,0.29,3.21,1.04,4.91,0.86c7.68-0.86,41.59-4.29,54.6-5.08c1.7-0.1,3.84,0.34,4.91,0.62"/>
				<path id="kvg:05ee9-s14" kvg:type="㇑" d="M53.65,71.14c0.73,0.34,1.17,1.51,1.31,2.18s0,22.49-0.15,26.68"/>
				<path id="kvg:05ee9-s15" kvg:type="㇒" d="M55,77.38c-7.35,7.31-18.48,14.97-31.5,19.6"/>
				<path id="kvg:05ee9-s16" kvg:type="㇏" d="M56.11,77.59c4.26,2.64,23.76,15.1,28.4,17.7c1.57,0.88,2.92,1.26,4.49,1.51"/>
			</g>
		</g>
	</g>
</g>
</g>
<g id="kvg:StrokeNumbers_05ee9" style="font-size:8;fill:#808080">
	<text transform="matrix(1 0 0 1 44.85 11.35)">1</text>
	<text transform="matrix(1 0 0 1 21.50 21.35)">2</text>
	<text transform="matrix(1 0 0 1 15.50 33.50)">3</text>
	<text transform="matrix(1 0 0 1 48.50 30.50)">4</text>
	<text transform="matrix(1 0 0 1 30.50 32.50)">5</text>
	<text transform="matrix(1 0 0 1 31.25 49.50)">6</text>
	<text transform="matrix(1 0 0 1 41.50 42.50)">7</text>
	<text transform="matrix(1 0 0 1 43.50 52.50)">8</text>
	<text transform="matrix(1 0 0 1 53.25 47.53)">9</text>
	<text transform="matrix(1 0 0 1 53.50 53.50)">10</text>
	<text transform="matrix(1 0 0 1 42.25 59.50)">11</text>
	<text transform="matrix(1 0 0 1 50.25 66.50)">12</text>
	<text transform="matrix(1 0 0 1 23.50 75.50)">13</text>
	<text transform="matrix(1 0 0 1 44.50 75.50)">14</text>
	<text transform="matrix(1 0 0 1 34.25 86.50)">15</text>
	<text transform="matrix(1 0 0 1 68.50 84.50)">16</text>
</g>
</svg>
