<?xml version="1.0" encoding="UTF-8"?>
<!--
Copyright (C) 2009/2010/2011 Ulrich Apel.
This work is distributed under the conditions of the Creative Commons 
Attribution-Share Alike 3.0 Licence. This means you are free:
* to Share - to copy, distribute and transmit the work
* to Remix - to adapt the work

Under the following conditions:
* Attribution. You must attribute the work by stating your use of KanjiVG in
  your own copyright header and linking to KanjiVG's website
  (http://kanjivg.tagaini.net)
* Share Alike. If you alter, transform, or build upon this work, you may
  distribute the resulting work only under the same or similar license to this
  one.

See http://creativecommons.org/licenses/by-sa/3.0/ for more details.
-->
<!DOCTYPE svg PUBLIC "-//W3C//DTD SVG 1.0//EN" "http://www.w3.org/TR/2001/REC-SVG-20010904/DTD/svg10.dtd" [
<!ATTLIST g
xmlns:kvg CDATA #FIXED "http://kanjivg.tagaini.net"
kvg:element CDATA #IMPLIED
kvg:variant CDATA #IMPLIED
kvg:partial CDATA #IMPLIED
kvg:original CDATA #IMPLIED
kvg:part CDATA #IMPLIED
kvg:number CDATA #IMPLIED
kvg:tradForm CDATA #IMPLIED
kvg:radicalForm CDATA #IMPLIED
kvg:position CDATA #IMPLIED
kvg:radical CDATA #IMPLIED
kvg:phon CDATA #IMPLIED >
<!ATTLIST path
xmlns:kvg CDATA #FIXED "http://kanjivg.tagaini.net"
kvg:type CDATA #IMPLIED >
]>
<svg xmlns="http://www.w3.org/2000/svg" width="109" height="109" viewBox="0 0 109 109">
<g id="kvg:StrokePaths_05efb-Jinmei" style="fill:none;stroke:#000000;stroke-width:3;stroke-linecap:round;stroke-linejoin:round;">
<g id="kvg:05efb-Jinmei" kvg:element="廻">
	<g id="kvg:05efb-Jinmei-g1" kvg:element="回">
		<g id="kvg:05efb-Jinmei-g2" kvg:element="囗" kvg:part="1">
			<path id="kvg:05efb-Jinmei-s1" kvg:type="㇑" d="M49.75,21.97c0.89,0.89,1.18,2.15,1.24,3.48c0.45,9.71,0.8,20.84,1.35,35.56c0.07,1.86,0.14,3.77,0.22,5.75"/>
			<path id="kvg:05efb-Jinmei-s2" kvg:type="㇕a" d="M51.08,23.14c10.82-1.27,26.86-2.66,34.67-2.86c2.84-0.07,4.29,0.56,4.02,3.81c-0.71,8.59-1.81,23.77-3.15,36.41c-0.21,2.01-0.43,3.96-0.66,5.81"/>
		</g>
		<g id="kvg:05efb-Jinmei-g3" kvg:element="口">
			<path id="kvg:05efb-Jinmei-s3" kvg:type="㇑" d="M60.17,33.7c0.75,0.75,0.96,1.72,1.1,2.69c0.58,4.07,1.16,8.43,1.64,12.6c0.12,1.06,0.24,2.11,0.34,3.13"/>
			<path id="kvg:05efb-Jinmei-s4" kvg:type="㇕b" d="M62.05,35.13c5.29-0.96,9.66-1.71,12.36-2.19c2.26-0.4,2.83,0.52,2.51,2.7c-0.53,3.68-1.14,7.18-1.9,12.19"/>
			<path id="kvg:05efb-Jinmei-s5" kvg:type="㇐b" d="M64.08,50.29c4-0.53,6.48-0.8,9.8-1.16c0.87-0.1,1.8-0.2,2.84-0.31"/>
		</g>
		<g id="kvg:05efb-Jinmei-g4" kvg:element="囗" kvg:part="2">
			<path id="kvg:05efb-Jinmei-s6" kvg:type="㇐a" d="M53.58,64.41c7.8-0.36,17.8-1.16,31.64-1.65"/>
		</g>
	</g>
	<g id="kvg:05efb-Jinmei-g5" kvg:element="廴" kvg:position="nyo" kvg:radical="general">
		<path id="kvg:05efb-Jinmei-s7" kvg:type="㇇" d="M12.75,23.95c1.25,0.67,3.25,0.87,5,0.42c5.75-1.5,12.25-3.51,15.75-4.4C37,19.08,37,21,35.75,23C34.86,24.43,20.5,44.75,17,50.11"/>
		<path id="kvg:05efb-Jinmei-s8" kvg:type="㇇a" d="M21.59,44.87c4.52-0.31,8.88-0.85,11.78-1.14c3.7-0.38,4.86,0.31,4.25,4.18C35.32,62.62,27.62,80,12,89.33"/>
		<path id="kvg:05efb-Jinmei-s9" kvg:type="㇏" d="M12.25,55.21C14.75,55.5,47.44,79.93,70.5,88c7.5,2.62,14.27,4.63,19.5,5.5"/>
	</g>
</g>
</g>
<g id="kvg:StrokeNumbers_05efb-Jinmei" style="font-size:8;fill:#808080">
	<text transform="matrix(1 0 0 1 43.50 30.50)">1</text>
	<text transform="matrix(1 0 0 1 53.50 19.50)">2</text>
	<text transform="matrix(1 0 0 1 54.50 42.50)">3</text>
	<text transform="matrix(1 0 0 1 63.50 32.50)">4</text>
	<text transform="matrix(1 0 0 1 66.50 47.50)">5</text>
	<text transform="matrix(1 0 0 1 57.25 61.50)">6</text>
	<text transform="matrix(1 0 0 1 6.25 22.68)">7</text>
	<text transform="matrix(1 0 0 1 11.25 48.50)">8</text>
	<text transform="matrix(1 0 0 1 5.50 59.50)">9</text>
</g>
</svg>
