<?xml version="1.0" encoding="UTF-8"?>
<!--
Copyright (C) 2009/2010/2011 Ulrich Apel.
This work is distributed under the conditions of the Creative Commons 
Attribution-Share Alike 3.0 Licence. This means you are free:
* to Share - to copy, distribute and transmit the work
* to Remix - to adapt the work

Under the following conditions:
* Attribution. You must attribute the work by stating your use of KanjiVG in
  your own copyright header and linking to KanjiVG's website
  (http://kanjivg.tagaini.net)
* Share Alike. If you alter, transform, or build upon this work, you may
  distribute the resulting work only under the same or similar license to this
  one.

See http://creativecommons.org/licenses/by-sa/3.0/ for more details.
-->
<!DOCTYPE svg PUBLIC "-//W3C//DTD SVG 1.0//EN" "http://www.w3.org/TR/2001/REC-SVG-20010904/DTD/svg10.dtd" [
<!ATTLIST g
xmlns:kvg CDATA #FIXED "http://kanjivg.tagaini.net"
kvg:element CDATA #IMPLIED
kvg:variant CDATA #IMPLIED
kvg:partial CDATA #IMPLIED
kvg:original CDATA #IMPLIED
kvg:part CDATA #IMPLIED
kvg:number CDATA #IMPLIED
kvg:tradForm CDATA #IMPLIED
kvg:radicalForm CDATA #IMPLIED
kvg:position CDATA #IMPLIED
kvg:radical CDATA #IMPLIED
kvg:phon CDATA #IMPLIED >
<!ATTLIST path
xmlns:kvg CDATA #FIXED "http://kanjivg.tagaini.net"
kvg:type CDATA #IMPLIED >
]>
<svg xmlns="http://www.w3.org/2000/svg" width="109" height="109" viewBox="0 0 109 109">
<g id="kvg:StrokePaths_05f0c" style="fill:none;stroke:#000000;stroke-width:3;stroke-linecap:round;stroke-linejoin:round;">
<g id="kvg:05f0c" kvg:element="弌">
	<g id="kvg:05f0c-g1" kvg:element="弋" kvg:part="1" kvg:radical="general">
		<path id="kvg:05f0c-s1" kvg:type="㇐" d="M14.75,37.7c1.52,0.54,4.31,0.74,5.82,0.54C30.25,37,68,32,84.19,31.51c2.53-0.08,4.05,0.26,5.31,0.53"/>
	</g>
	<g id="kvg:05f0c-g2" kvg:element="一">
		<path id="kvg:05f0c-s2" kvg:type="㇐" d="M15.75,67.89c0.94,0.38,2.66,0.39,3.6,0.38c5.9-0.02,26.33-3.81,32.61-4.38c1.56-0.14,2.5,0.18,3.29,0.37"/>
	</g>
	<g id="kvg:05f0c-g3" kvg:element="弋" kvg:part="2" kvg:radical="general">
		<path id="kvg:05f0c-s3" kvg:type="㇂" d="M57.25,10.5c1.64,1.84,2.32,2.35,2.67,6.31C62.25,43.75,70.5,81.5,89.65,95.66c6.13,4.53,5.54,0.79,4.72-7.36"/>
		<g id="kvg:05f0c-g4" kvg:element="丶">
			<path id="kvg:05f0c-s4" kvg:type="㇔" d="M70.25,12.25c3.51,2,9.11,6.57,10.75,10"/>
		</g>
	</g>
</g>
</g>
<g id="kvg:StrokeNumbers_05f0c" style="font-size:8;fill:#808080">
	<text transform="matrix(1 0 0 1 7.50 37.50)">1</text>
	<text transform="matrix(1 0 0 1 8.50 68.50)">2</text>
	<text transform="matrix(1 0 0 1 47.25 10.50)">3</text>
	<text transform="matrix(1 0 0 1 66.50 8.50)">4</text>
</g>
</svg>
