<?xml version="1.0" encoding="UTF-8"?>
<!--
Copyright (C) 2009/2010/2011 Ulrich Apel.
This work is distributed under the conditions of the Creative Commons 
Attribution-Share Alike 3.0 Licence. This means you are free:
* to Share - to copy, distribute and transmit the work
* to Remix - to adapt the work

Under the following conditions:
* Attribution. You must attribute the work by stating your use of KanjiVG in
  your own copyright header and linking to KanjiVG's website
  (http://kanjivg.tagaini.net)
* Share Alike. If you alter, transform, or build upon this work, you may
  distribute the resulting work only under the same or similar license to this
  one.

See http://creativecommons.org/licenses/by-sa/3.0/ for more details.
-->
<!DOCTYPE svg PUBLIC "-//W3C//DTD SVG 1.0//EN" "http://www.w3.org/TR/2001/REC-SVG-20010904/DTD/svg10.dtd" [
<!ATTLIST g
xmlns:kvg CDATA #FIXED "http://kanjivg.tagaini.net"
kvg:element CDATA #IMPLIED
kvg:variant CDATA #IMPLIED
kvg:partial CDATA #IMPLIED
kvg:original CDATA #IMPLIED
kvg:part CDATA #IMPLIED
kvg:number CDATA #IMPLIED
kvg:tradForm CDATA #IMPLIED
kvg:radicalForm CDATA #IMPLIED
kvg:position CDATA #IMPLIED
kvg:radical CDATA #IMPLIED
kvg:phon CDATA #IMPLIED >
<!ATTLIST path
xmlns:kvg CDATA #FIXED "http://kanjivg.tagaini.net"
kvg:type CDATA #IMPLIED >
]>
<svg xmlns="http://www.w3.org/2000/svg" width="109" height="109" viewBox="0 0 109 109">
<g id="kvg:StrokePaths_05f29" style="fill:none;stroke:#000000;stroke-width:3;stroke-linecap:round;stroke-linejoin:round;">
<g id="kvg:05f29" kvg:element="弩">
	<g id="kvg:05f29-g1" kvg:element="奴" kvg:position="top">
		<g id="kvg:05f29-g2" kvg:element="女" kvg:position="left">
			<path id="kvg:05f29-s1" kvg:type="㇛" d="M32.43,9.94c0.38,0.79,1.06,2.09,0.86,3.17c-0.97,5.3-6.75,15.32-10.98,21.25c-0.87,1.21,0.36,1.92,0.86,1.99c7.08,0.91,15.83,5.91,21.1,11.79"/>
			<path id="kvg:05f29-s2" kvg:type="㇒" d="M44.36,21.23c0.08,0.82,0.13,2.82-0.18,3.99C41.69,34.64,34,46.5,16.84,53.6"/>
			<path id="kvg:05f29-s3" kvg:type="㇀/㇐" d="M12.25,26.29c0.83,1.42,1.53,2.17,3.73,1.78c4.77-0.83,22.02-4.83,34.79-7.05"/>
		</g>
		<g id="kvg:05f29-g3" kvg:element="又" kvg:position="right">
			<path id="kvg:05f29-s4" kvg:type="㇇" d="M57.99,17.06c1.26,0.23,1.42,0.59,3.93,0.23c2.52-0.35,19.77-3.47,21.5-3.83c1.73-0.35,3.3,1.01,2.7,2.3C81.25,26.24,69,39.16,54.69,44.23"/>
			<path id="kvg:05f29-s5" kvg:type="㇏" d="M57.27,22.45c5.98,0,19.9,17.09,31.67,23.84c1.83,1.05,3.17,1.75,4.87,2.1"/>
		</g>
	</g>
	<g id="kvg:05f29-g4" kvg:element="弓" kvg:position="bottom" kvg:radical="general">
		<path id="kvg:05f29-s6" kvg:type="㇕c" d="M34.12,52.59c1.63,0.81,3.15,1.05,5.22,0.9c2.07-0.15,32.34-3.55,36.51-3.55c1.64,0,2.89,1.31,2.05,3.27c-0.44,1.03-1.75,3.45-2.74,5.49c-0.54,1.11-0.98,2.1-1.15,2.72"/>
		<path id="kvg:05f29-s7" kvg:type="㇐" d="M33.43,62.42c0.82,1.08,0.62,2.48,0.24,3.67c-0.68,2.16-3.03,7.52-3.37,8.16c-0.8,1.5-0.33,3.5,2.82,2.8c2.38-0.53,37.61-3.97,44.25-4.5c3.88-0.31,5.13,1.94,4.04,5.08c-1.99,5.74-7.02,15.16-12.49,19.81c-3.92,3.34-9.17-1.7-11.17-4.26"/>
		<path id="kvg:05f29-s8" kvg:type="㇉" d="M34.75,64.75c2.99,0,34.12-3,36.26-3c2.14,0,4.28,0,5.99,0"/>
	</g>
</g>
</g>
<g id="kvg:StrokeNumbers_05f29" style="font-size:8;fill:#808080">
	<text transform="matrix(1 0 0 1 25.50 8.50)">1</text>
	<text transform="matrix(1 0 0 1 40.50 16.50)">2</text>
	<text transform="matrix(1 0 0 1 5.50 26.50)">3</text>
	<text transform="matrix(1 0 0 1 56.50 13.50)">4</text>
	<text transform="matrix(1 0 0 1 51.50 29.50)">5</text>
	<text transform="matrix(1 0 0 1 27.50 55.50)">6</text>
	<text transform="matrix(1 0 0 1 38.50 61.50)">7</text>
	<text transform="matrix(1 0 0 1 26.50 65.50)">8</text>
</g>
</svg>
