<?xml version="1.0" encoding="UTF-8"?>
<!--
Copyright (C) 2009/2010/2011 Ulrich Apel.
This work is distributed under the conditions of the Creative Commons 
Attribution-Share Alike 3.0 Licence. This means you are free:
* to Share - to copy, distribute and transmit the work
* to Remix - to adapt the work

Under the following conditions:
* Attribution. You must attribute the work by stating your use of KanjiVG in
  your own copyright header and linking to KanjiVG's website
  (http://kanjivg.tagaini.net)
* Share Alike. If you alter, transform, or build upon this work, you may
  distribute the resulting work only under the same or similar license to this
  one.

See http://creativecommons.org/licenses/by-sa/3.0/ for more details.
-->
<!DOCTYPE svg PUBLIC "-//W3C//DTD SVG 1.0//EN" "http://www.w3.org/TR/2001/REC-SVG-20010904/DTD/svg10.dtd" [
<!ATTLIST g
xmlns:kvg CDATA #FIXED "http://kanjivg.tagaini.net"
kvg:element CDATA #IMPLIED
kvg:variant CDATA #IMPLIED
kvg:partial CDATA #IMPLIED
kvg:original CDATA #IMPLIED
kvg:part CDATA #IMPLIED
kvg:number CDATA #IMPLIED
kvg:tradForm CDATA #IMPLIED
kvg:radicalForm CDATA #IMPLIED
kvg:position CDATA #IMPLIED
kvg:radical CDATA #IMPLIED
kvg:phon CDATA #IMPLIED >
<!ATTLIST path
xmlns:kvg CDATA #FIXED "http://kanjivg.tagaini.net"
kvg:type CDATA #IMPLIED >
]>
<svg xmlns="http://www.w3.org/2000/svg" width="109" height="109" viewBox="0 0 109 109">
<g id="kvg:StrokePaths_05f27" style="fill:none;stroke:#000000;stroke-width:3;stroke-linecap:round;stroke-linejoin:round;">
<g id="kvg:05f27" kvg:element="弧">
	<g id="kvg:05f27-g1" kvg:element="弓" kvg:position="left" kvg:radical="general">
		<path id="kvg:05f27-s1" kvg:type="㇕c" d="M11.82,19.83c1.43,0.92,3.77,1.23,4.86,1.04c6.19-1.12,12.78-2.26,15.23-2.77c2.83-0.6,4.18,1.24,3.59,3.38c-1.13,4.03-2.5,9.9-3.35,13.72"/>
		<path id="kvg:05f27-s2" kvg:type="㇐" d="M15.5,37.75c0.56,0,1.65,0.18,2.99,0.08c3.85-0.28,9.26-1.08,11.15-1.33C31.19,36.3,32.76,36,34,36"/>
		<path id="kvg:05f27-s3" kvg:type="㇉" d="M16.56,38.37c0.5,0.96,0.42,2.3,0.1,3.81c-0.37,1.73-1.45,8.06-2.2,10.9c-0.96,3.67-0.41,4.15,2.75,3.3c3.29-0.88,6.91-1.5,10.13-1.93c4.05-0.53,4.55,1.54,4.13,5.42c-0.97,8.88-3.1,22.06-8.46,31.39c-4.01,6.99-6.79,1.19-7.54-0.66"/>
	</g>
	<g id="kvg:05f27-g2" kvg:element="瓜" kvg:position="right" kvg:phon="瓜">
		<g id="kvg:05f27-g3" kvg:element="丿">
			<path id="kvg:05f27-s4" kvg:type="㇒" d="M74.8,14c0.17,1.17-0.36,2.12-1.1,2.94c-6.09,6.67-14.06,12.22-25.05,17.24"/>
		</g>
		<path id="kvg:05f27-s5" kvg:type="㇒" d="M44.36,34.13c0.82,0.82,1.55,1.94,1.59,3.96c0.43,22.17-0.07,41.04-13.39,54.63"/>
		<g id="kvg:05f27-g4" kvg:element="厶" kvg:variant="true" kvg:original="厶">
			<path id="kvg:05f27-s6" kvg:type="㇑a" d="M60.72,35.18c1.05,1.05,1.4,2.19,1.4,3.81c0,9.19,0.01,32.97,0.01,39.88"/>
			<path id="kvg:05f27-s7" kvg:type="㇀" d="M49.18,82.61c0.69,0.54,2.04,1.58,3.48,0.99c7.64-3.09,12.16-5.12,20.33-8.55"/>
			<path id="kvg:05f27-s8" kvg:type="㇔" d="M70.76,68.39c2.37,2.54,6.11,10.43,6.71,14.37"/>
		</g>
		<path id="kvg:05f27-s9" kvg:type="㇏" d="M73.23,35.29c2.97,0.65,4.85,28.39,15.53,47.39c1.97,3.5,4.12,6.82,6.99,9.47"/>
	</g>
</g>
</g>
<g id="kvg:StrokeNumbers_05f27" style="font-size:8;fill:#808080">
	<text transform="matrix(1 0 0 1 5.25 19.63)">1</text>
	<text transform="matrix(1 0 0 1 18.75 34.50)">2</text>
	<text transform="matrix(1 0 0 1 9.50 43.50)">3</text>
	<text transform="matrix(1 0 0 1 66.50 14.50)">4</text>
	<text transform="matrix(1 0 0 1 38.50 43.50)">5</text>
	<text transform="matrix(1 0 0 1 53.25 43.63)">6</text>
	<text transform="matrix(1 0 0 1 50.25 79.48)">7</text>
	<text transform="matrix(1 0 0 1 68.25 64.63)">8</text>
	<text transform="matrix(1 0 0 1 76.50 34.50)">9</text>
</g>
</svg>
