<?xml version="1.0" encoding="UTF-8"?>
<!--
Copyright (C) 2009/2010/2011 Ulrich Apel.
This work is distributed under the conditions of the Creative Commons 
Attribution-Share Alike 3.0 Licence. This means you are free:
* to Share - to copy, distribute and transmit the work
* to Remix - to adapt the work

Under the following conditions:
* Attribution. You must attribute the work by stating your use of KanjiVG in
  your own copyright header and linking to KanjiVG's website
  (http://kanjivg.tagaini.net)
* Share Alike. If you alter, transform, or build upon this work, you may
  distribute the resulting work only under the same or similar license to this
  one.

See http://creativecommons.org/licenses/by-sa/3.0/ for more details.
-->
<!DOCTYPE svg PUBLIC "-//W3C//DTD SVG 1.0//EN" "http://www.w3.org/TR/2001/REC-SVG-20010904/DTD/svg10.dtd" [
<!ATTLIST g
xmlns:kvg CDATA #FIXED "http://kanjivg.tagaini.net"
kvg:element CDATA #IMPLIED
kvg:variant CDATA #IMPLIED
kvg:partial CDATA #IMPLIED
kvg:original CDATA #IMPLIED
kvg:part CDATA #IMPLIED
kvg:number CDATA #IMPLIED
kvg:tradForm CDATA #IMPLIED
kvg:radicalForm CDATA #IMPLIED
kvg:position CDATA #IMPLIED
kvg:radical CDATA #IMPLIED
kvg:phon CDATA #IMPLIED >
<!ATTLIST path
xmlns:kvg CDATA #FIXED "http://kanjivg.tagaini.net"
kvg:type CDATA #IMPLIED >
]>
<svg xmlns="http://www.w3.org/2000/svg" width="109" height="109" viewBox="0 0 109 109">
<g id="kvg:StrokePaths_05f5d" style="fill:none;stroke:#000000;stroke-width:3;stroke-linecap:round;stroke-linejoin:round;">
<g id="kvg:05f5d" kvg:element="彝">
	<g id="kvg:05f5d-g1" kvg:element="彑" kvg:position="top" kvg:radical="general">
		<path id="kvg:05f5d-s1" kvg:type="㇗" d="M39.21,8.5c0.46,0.93,0.65,2.4,0.23,3.78c-0.92,3.05-2.39,6.88-3.69,9.43c-0.55,1.07,0.17,1.84,1.27,1.55c7.48-2.01,19.73-3.51,28.65-3.45"/>
		<path id="kvg:05f5d-s2" kvg:type="㇕" d="M40.32,13.21C44.75,13,64.16,10.27,66.49,10c1.94-0.23,2.99,1.38,2.41,2.95c-2.4,6.55-3.36,8.55-4.87,14.55"/>
		<path id="kvg:05f5d-s3" kvg:type="㇐" d="M17,30.9c1.46,0.6,4.13,0.65,5.59,0.6c15.44-0.55,51.02-5.46,66.31-4.62c2.43,0.13,3.89,0.28,5.1,0.58"/>
	</g>
	<g id="kvg:05f5d-g2" kvg:position="bottom">
		<g id="kvg:05f5d-g3" kvg:element="米" kvg:variant="true" kvg:position="left">
			<path id="kvg:05f5d-s4" kvg:type="㇔" d="M21.31,36.95c1.77,1.14,4.44,4.36,4.89,6.14"/>
			<path id="kvg:05f5d-s5" kvg:type="㇒" d="M48.11,35.8c0.03,0.23,0.05,0.59-0.05,0.92c-0.64,1.94-4.35,6.19-9.41,8.8"/>
			<path id="kvg:05f5d-s6" kvg:type="㇐" d="M16.58,48.23c0.35,0.16,1.27,0.5,2.2,0.49c4.71-0.06,24.23-2.8,30.21-3c0.93-0.03,1.67-0.16,2.25,0"/>
			<path id="kvg:05f5d-s7" kvg:type="㇑" d="M33.59,34.75c0.81,0.33,1.29,1.47,1.45,2.12c0.16,0.65,0,26.06-0.16,30.13"/>
			<path id="kvg:05f5d-s8" kvg:type="㇒" d="M34.43,47.57c-3.18,5.92-10.89,14.23-18.03,17.64"/>
			<path id="kvg:05f5d-s9" kvg:type="㇔/㇏" d="M37.55,51.26c3.55,1.88,7.78,4.98,9.98,8.42"/>
		</g>
		<g id="kvg:05f5d-g4" kvg:element="糸" kvg:position="right">
			<path id="kvg:05f5d-s10" kvg:type="㇜" d="M66.84,30.52c0.32,0.74,0.54,1.3-0.17,2.09c-1.92,2.15-4.51,4.82-7.73,6.53c-0.66,0.35-0.64,1.68-0.01,1.84C61,41.5,64,42.5,65.37,43.32"/>
			<path id="kvg:05f5d-s11" kvg:type="㇜" d="M77.22,33.9c0.29,0.33,0.38,1.43-0.01,1.78c-5.73,5.2-11.78,8.93-19.64,13.67c-1.8,1.09-0.56,2.22,0.61,2c4.91-0.91,18.06-3.09,25.84-4.5"/>
			<path id="kvg:05f5d-s12" kvg:type="㇔" d="M79.54,42.09c3.25,1.69,8.38,6.93,9.19,9.55"/>
			<path id="kvg:05f5d-s13" kvg:type="㇑" d="M71.61,51.77c0.05,0.17,0.75,0.9,0.8,1.99c0.24,5.24-0.23,10.95-0.24,12.74"/>
			<path id="kvg:05f5d-s14" kvg:type="㇒" d="M62.95,54.51c0.14,0.46,0.11,1.37-0.14,1.7c-1.65,2.15-5.78,6.29-8.12,8.12"/>
			<path id="kvg:05f5d-s15" kvg:type="㇔" d="M80.51,54.8c3.84,2.04,6.78,6.77,7.66,8.61"/>
		</g>
		<g id="kvg:05f5d-g5" kvg:element="廾">
			<g id="kvg:05f5d-g6" kvg:element="十" kvg:part="1">
				<path id="kvg:05f5d-s16" kvg:type="㇐" d="M14.38,77.97c1.52,0.46,4.3,0.53,5.82,0.46c15.8-0.76,50.05-3.36,70.11-3.75c2.53-0.05,4.05,0.22,5.31,0.45"/>
			</g>
			<g id="kvg:05f5d-g7" kvg:element="丿">
				<path id="kvg:05f5d-s17" kvg:type="㇒" d="M42.04,67.68c0.71,0.82,0.96,2.06,0.91,3.17C42.5,81.5,39.25,94.75,23,100.5"/>
			</g>
			<g id="kvg:05f5d-g8" kvg:element="十" kvg:part="2">
				<path id="kvg:05f5d-s18" kvg:type="㇑" d="M64.87,65.73c1.09,0.42,1.74,1.9,1.96,2.74c0.22,0.84,0,26.76-0.22,32.03"/>
			</g>
		</g>
	</g>
</g>
</g>
<g id="kvg:StrokeNumbers_05f5d" style="font-size:8;fill:#808080">
	<text transform="matrix(1 0 0 1 31.50 8.13)">1</text>
	<text transform="matrix(1 0 0 1 43.50 9.50)">2</text>
	<text transform="matrix(1 0 0 1 9.50 31.50)">3</text>
	<text transform="matrix(1 0 0 1 15.50 40.50)">4</text>
	<text transform="matrix(1 0 0 1 41.25 36.83)">5</text>
	<text transform="matrix(1 0 0 1 9.50 48.50)">6</text>
	<text transform="matrix(1 0 0 1 27.25 38.50)">7</text>
	<text transform="matrix(1 0 0 1 22.50 55.50)">8</text>
	<text transform="matrix(1 0 0 1 44.50 53.50)">9</text>
	<text transform="matrix(1 0 0 1 55.25 35.50)">10</text>
	<text transform="matrix(1 0 0 1 79.50 35.50)">11</text>
	<text transform="matrix(1 0 0 1 83.50 42.50)">12</text>
	<text transform="matrix(1 0 0 1 64.50 62.50)">13</text>
	<text transform="matrix(1 0 0 1 50.50 59.50)">14</text>
	<text transform="matrix(1 0 0 1 86.50 58.08)">15</text>
	<text transform="matrix(1 0 0 1 6.25 74.00)">16</text>
	<text transform="matrix(1 0 0 1 31.25 73.93)">17</text>
	<text transform="matrix(1 0 0 1 54.25 70.85)">18</text>
</g>
</svg>
