<?xml version="1.0" encoding="UTF-8"?>
<!--
Copyright (C) 2009/2010/2011 Ulrich Apel.
This work is distributed under the conditions of the Creative Commons 
Attribution-Share Alike 3.0 Licence. This means you are free:
* to Share - to copy, distribute and transmit the work
* to Remix - to adapt the work

Under the following conditions:
* Attribution. You must attribute the work by stating your use of KanjiVG in
  your own copyright header and linking to KanjiVG's website
  (http://kanjivg.tagaini.net)
* Share Alike. If you alter, transform, or build upon this work, you may
  distribute the resulting work only under the same or similar license to this
  one.

See http://creativecommons.org/licenses/by-sa/3.0/ for more details.
-->
<!DOCTYPE svg PUBLIC "-//W3C//DTD SVG 1.0//EN" "http://www.w3.org/TR/2001/REC-SVG-20010904/DTD/svg10.dtd" [
<!ATTLIST g
xmlns:kvg CDATA #FIXED "http://kanjivg.tagaini.net"
kvg:element CDATA #IMPLIED
kvg:variant CDATA #IMPLIED
kvg:partial CDATA #IMPLIED
kvg:original CDATA #IMPLIED
kvg:part CDATA #IMPLIED
kvg:number CDATA #IMPLIED
kvg:tradForm CDATA #IMPLIED
kvg:radicalForm CDATA #IMPLIED
kvg:position CDATA #IMPLIED
kvg:radical CDATA #IMPLIED
kvg:phon CDATA #IMPLIED >
<!ATTLIST path
xmlns:kvg CDATA #FIXED "http://kanjivg.tagaini.net"
kvg:type CDATA #IMPLIED >
]>
<svg xmlns="http://www.w3.org/2000/svg" width="109" height="109" viewBox="0 0 109 109">
<g id="kvg:StrokePaths_05f7f" style="fill:none;stroke:#000000;stroke-width:3;stroke-linecap:round;stroke-linejoin:round;">
<g id="kvg:05f7f" kvg:element="彿">
	<g id="kvg:05f7f-g1" kvg:element="彳" kvg:position="left" kvg:radical="general">
		<path id="kvg:05f7f-s1" kvg:type="㇒" d="M35.07,14.25c0.15,1.32,0.02,1.95-0.75,3.05c-3.49,5.02-11.95,15.05-20.21,19.45"/>
		<g id="kvg:05f7f-g2" kvg:element="亻" kvg:variant="true" kvg:original="人">
			<path id="kvg:05f7f-s2" kvg:type="㇒" d="M36.83,32.25c0.14,1.48,0.14,2.56-0.62,3.87c-3.86,6.65-12.96,17.53-25.46,28.13"/>
			<path id="kvg:05f7f-s3" kvg:type="㇑" d="M26.3,52.5c0.81,0.58,1.3,2.59,1.46,3.75c0.16,1.16,0,34.05-0.16,41.25"/>
		</g>
	</g>
	<g id="kvg:05f7f-g3" kvg:element="弗" kvg:position="right">
		<g id="kvg:05f7f-g4" kvg:element="弓">
			<path id="kvg:05f7f-s4" kvg:type="㇕c" d="M44.32,27.5c1.26,1.17,2.44,1.52,4.05,1.3c1.61-0.22,35.99-4.12,39.21-4.77s3.78,2.83,3.14,4.84c-1,3.14-1.74,6.22-3.01,11.39"/>
			<path id="kvg:05f7f-s5" kvg:type="㇐" d="M45.76,44.45c0.5,0.87,0.81,3.74,0.19,5.11c-0.72,1.57-4.16,10.39-4.48,11.26c-0.32,0.87,0.13,3.63,2.57,2.61c1.84-0.77,45.39-5.72,50.5-6.77c1.59-0.33,2.84,1.25,2.42,4.38c-0.65,4.78-3.86,13.2-7.14,18.46c-3.35,5.35-4.25,1.41-6.09-2.44"/>
			<path id="kvg:05f7f-s6" kvg:type="㇉" d="M57.51,13.87c0.91,0.99,1.66,3.47,1.66,6.24c0,8.59,0.18,13.32,0.13,26.15c-0.06,17.55-4.05,40.49-20.6,49.19"/>
		</g>
		<g id="kvg:05f7f-g5" kvg:element="丿">
			<path id="kvg:05f7f-s7" kvg:type="㇒" d="M72.67,11c1.06,0.49,1.7,2.19,1.91,3.17c0.21,0.97,0,76.74-0.21,82.83"/>
		</g>
		<g id="kvg:05f7f-g6" kvg:element="丨">
			<path id="kvg:05f7f-s8" kvg:type="㇑" d="M47,45.5C52.5,45,83.82,41,85.71,41s3.78-0.5,5.29-0.5"/>
		</g>
	</g>
</g>
</g>
<g id="kvg:StrokeNumbers_05f7f" style="font-size:8;fill:#808080">
	<text transform="matrix(1 0 0 1 27.50 14.50)">1</text>
	<text transform="matrix(1 0 0 1 28.50 35.50)">2</text>
	<text transform="matrix(1 0 0 1 21.25 67.48)">3</text>
	<text transform="matrix(1 0 0 1 43.50 24.50)">4</text>
	<text transform="matrix(1 0 0 1 45.50 42.50)">5</text>
	<text transform="matrix(1 0 0 1 37.50 54.50)">6</text>
	<text transform="matrix(1 0 0 1 51.50 13.50)">7</text>
	<text transform="matrix(1 0 0 1 64.50 10.50)">8</text>
</g>
</svg>
