<?xml version="1.0" encoding="UTF-8"?>
<!--
Copyright (C) 2009/2010/2011 Ulrich Apel.
This work is distributed under the conditions of the Creative Commons 
Attribution-Share Alike 3.0 Licence. This means you are free:
* to Share - to copy, distribute and transmit the work
* to Remix - to adapt the work

Under the following conditions:
* Attribution. You must attribute the work by stating your use of KanjiVG in
  your own copyright header and linking to KanjiVG's website
  (http://kanjivg.tagaini.net)
* Share Alike. If you alter, transform, or build upon this work, you may
  distribute the resulting work only under the same or similar license to this
  one.

See http://creativecommons.org/licenses/by-sa/3.0/ for more details.
-->
<!DOCTYPE svg PUBLIC "-//W3C//DTD SVG 1.0//EN" "http://www.w3.org/TR/2001/REC-SVG-20010904/DTD/svg10.dtd" [
<!ATTLIST g
xmlns:kvg CDATA #FIXED "http://kanjivg.tagaini.net"
kvg:element CDATA #IMPLIED
kvg:variant CDATA #IMPLIED
kvg:partial CDATA #IMPLIED
kvg:original CDATA #IMPLIED
kvg:part CDATA #IMPLIED
kvg:number CDATA #IMPLIED
kvg:tradForm CDATA #IMPLIED
kvg:radicalForm CDATA #IMPLIED
kvg:position CDATA #IMPLIED
kvg:radical CDATA #IMPLIED
kvg:phon CDATA #IMPLIED >
<!ATTLIST path
xmlns:kvg CDATA #FIXED "http://kanjivg.tagaini.net"
kvg:type CDATA #IMPLIED >
]>
<svg xmlns="http://www.w3.org/2000/svg" width="109" height="109" viewBox="0 0 109 109">
<g id="kvg:StrokePaths_05f93" style="fill:none;stroke:#000000;stroke-width:3;stroke-linecap:round;stroke-linejoin:round;">
<g id="kvg:05f93" kvg:element="従">
	<g id="kvg:05f93-g1" kvg:element="彳" kvg:position="left" kvg:radical="general">
		<path id="kvg:05f93-s1" kvg:type="㇒" d="M29.35,17c0.11,0.95-0.52,1.94-1.03,2.67c-2.78,4.03-8.94,9.95-16.2,14.58"/>
		<g id="kvg:05f93-g2" kvg:element="亻" kvg:variant="true" kvg:original="人">
			<path id="kvg:05f93-s2" kvg:type="㇒" d="M32.61,33.5c0.18,1.27-0.11,2.34-0.66,3.47C28.5,44.1,21.84,53.99,10.75,63.5"/>
			<path id="kvg:05f93-s3" kvg:type="㇑" d="M24.22,52.75c0.7,0.7,0.9,2,0.9,2.91c0,3.59,0.02,25.51-0.03,35.84c-0.01,2.83-0.03,4.85-0.04,5.5"/>
		</g>
	</g>
	<g id="kvg:05f93-g3" kvg:position="right" kvg:phon="八+疋">
		<path id="kvg:05f93-s4" kvg:type="㇔" d="M45.88,19.5c3.15,2.6,8.15,10.68,8.93,14.72"/>
		<path id="kvg:05f93-s5" kvg:type="㇒" d="M77.03,14.64c0.35,0.86,0.23,1.99-0.05,2.75c-2.1,5.73-5.23,12.6-9.42,20.32"/>
		<g id="kvg:05f93-g4" kvg:element="疋" kvg:variant="true">
			<path id="kvg:05f93-s6" kvg:type="㇐" d="M40.25,42.82c2.1,0.57,5.49,0.54,7.66,0.16c10.59-1.85,27.15-4.17,36.1-4.96c2.43-0.22,5.09-0.28,7.49,0.11"/>
			<g id="kvg:05f93-g5" kvg:element="卜" kvg:original="ト">
				<path id="kvg:05f93-s7" kvg:type="㇑a" d="M63.35,44c0.82,0.82,1.36,2.12,1.36,3.12c0,0.86-0.02,27.38-0.02,35.28"/>
				<path id="kvg:05f93-s8" kvg:type="㇐b" d="M66.91,61.18c4.84-0.56,8.71-1.93,14.25-2.67c1.42-0.19,1.78-0.2,2.67,0"/>
			</g>
			<g id="kvg:05f93-g6" kvg:element="人">
				<path id="kvg:05f93-s9" kvg:type="㇒" d="M48.07,60.62c0.18,0.76,0.18,1.72-0.09,2.79c-1.73,6.84-7.27,20.36-15.75,28.98"/>
				<path id="kvg:05f93-s10" kvg:type="㇏" d="M45.72,74.13c5.32,2.53,23.74,12.54,34.13,17.56c2.1,1.01,6.77,2.94,10.73,4.06"/>
			</g>
		</g>
	</g>
</g>
</g>
<g id="kvg:StrokeNumbers_05f93" style="font-size:8;fill:#808080">
	<text transform="matrix(1 0 0 1 21.75 18.13)">1</text>
	<text transform="matrix(1 0 0 1 23.25 37.50)">2</text>
	<text transform="matrix(1 0 0 1 17.50 67.50)">3</text>
	<text transform="matrix(1 0 0 1 40.50 17.50)">4</text>
	<text transform="matrix(1 0 0 1 67.50 14.50)">5</text>
	<text transform="matrix(1 0 0 1 40.50 40.55)">6</text>
	<text transform="matrix(1 0 0 1 56.25 52.50)">7</text>
	<text transform="matrix(1 0 0 1 69.75 57.13)">8</text>
	<text transform="matrix(1 0 0 1 39.75 61.50)">9</text>
	<text transform="matrix(1 0 0 1 51.50 74.50)">10</text>
</g>
</svg>
