<?xml version="1.0" encoding="UTF-8"?>
<!--
Copyright (C) 2009/2010/2011 Ulrich Apel.
This work is distributed under the conditions of the Creative Commons 
Attribution-Share Alike 3.0 Licence. This means you are free:
* to Share - to copy, distribute and transmit the work
* to Remix - to adapt the work

Under the following conditions:
* Attribution. You must attribute the work by stating your use of KanjiVG in
  your own copyright header and linking to KanjiVG's website
  (http://kanjivg.tagaini.net)
* Share Alike. If you alter, transform, or build upon this work, you may
  distribute the resulting work only under the same or similar license to this
  one.

See http://creativecommons.org/licenses/by-sa/3.0/ for more details.
-->
<!DOCTYPE svg PUBLIC "-//W3C//DTD SVG 1.0//EN" "http://www.w3.org/TR/2001/REC-SVG-20010904/DTD/svg10.dtd" [
<!ATTLIST g
xmlns:kvg CDATA #FIXED "http://kanjivg.tagaini.net"
kvg:element CDATA #IMPLIED
kvg:variant CDATA #IMPLIED
kvg:partial CDATA #IMPLIED
kvg:original CDATA #IMPLIED
kvg:part CDATA #IMPLIED
kvg:number CDATA #IMPLIED
kvg:tradForm CDATA #IMPLIED
kvg:radicalForm CDATA #IMPLIED
kvg:position CDATA #IMPLIED
kvg:radical CDATA #IMPLIED
kvg:phon CDATA #IMPLIED >
<!ATTLIST path
xmlns:kvg CDATA #FIXED "http://kanjivg.tagaini.net"
kvg:type CDATA #IMPLIED >
]>
<svg xmlns="http://www.w3.org/2000/svg" width="109" height="109" viewBox="0 0 109 109">
<g id="kvg:StrokePaths_05fa1" style="fill:none;stroke:#000000;stroke-width:3;stroke-linecap:round;stroke-linejoin:round;">
<g id="kvg:05fa1" kvg:element="御">
	<g id="kvg:05fa1-g1" kvg:element="彳" kvg:position="left" kvg:radical="general">
		<path id="kvg:05fa1-s1" kvg:type="㇒" d="M24.86,17.5c0.09,0.76-0.43,1.63-0.83,2.23c-2.39,3.67-8.48,10.1-14.66,13.52"/>
		<g id="kvg:05fa1-g2" kvg:element="亻" kvg:variant="true" kvg:original="人">
			<path id="kvg:05fa1-s2" kvg:type="㇒" d="M25.14,37.5c0,1-0.29,1.92-0.59,2.66c-2.1,5.21-7.64,14.65-15.05,22.09"/>
			<path id="kvg:05fa1-s3" kvg:type="㇑" d="M21.72,49c0.7,0.7,0.9,1.88,0.9,2.91c0,0.41,0.02,24.24-0.03,35.84c-0.01,3.1-0.03,5.33-0.04,6"/>
		</g>
	</g>
	<g id="kvg:05fa1-g3" kvg:element="卸" kvg:position="right">
		<g id="kvg:05fa1-g4" kvg:position="left">
			<g id="kvg:05fa1-g5" kvg:element="午">
				<g id="kvg:05fa1-g6" kvg:position="top">
					<path id="kvg:05fa1-s4" kvg:type="㇒" d="M44.14,13.47c0.03,0.56-0.1,1.62-0.32,2.25c-2.32,6.66-6.32,13.41-12.7,21.51"/>
					<g id="kvg:05fa1-g7" kvg:element="干" kvg:part="1">
						<path id="kvg:05fa1-s5" kvg:type="㇐" d="M41.57,26.68c1.18,0.2,2.2,0.08,3.08-0.05c4.23-0.63,7.73-1.25,11.47-2.29c1.08-0.3,3.26-0.46,4.64-0.31"/>
					</g>
				</g>
				<g id="kvg:05fa1-g8" kvg:element="正" kvg:part="1" kvg:position="bottom">
					<g id="kvg:05fa1-g9" kvg:element="干" kvg:part="2">
						<g id="kvg:05fa1-g10" kvg:element="十">
							<path id="kvg:05fa1-s6" kvg:type="㇐" d="M33.25,42.68c1.84,0.85,5.15,0.38,7.01,0.01c5.69-1.12,15.11-3.31,21.25-4.83c1.13-0.28,2.6-0.5,3.77-0.17"/>
							<g id="kvg:05fa1-g11" kvg:element="止" kvg:part="1">
								<g id="kvg:05fa1-g12" kvg:element="卜" kvg:part="1" kvg:original="ト">
									<path id="kvg:05fa1-s7" kvg:type="㇑a" d="M49.58,28.16c0.94,0.94,1.13,1.96,1.13,3.3c0,0.96-0.08,31.26-0.08,39.03"/>
								</g>
							</g>
						</g>
					</g>
				</g>
			</g>
			<g id="kvg:05fa1-g13" kvg:element="正" kvg:part="2">
				<g id="kvg:05fa1-g14" kvg:element="止" kvg:part="2">
					<g id="kvg:05fa1-g15" kvg:element="卜" kvg:part="2" kvg:original="ト">
						<path id="kvg:05fa1-s8" kvg:type="㇐b" d="M51.92,52.84c4.2-0.59,6.7-1.34,10.53-1.85c1.45-0.19,2.56-0.23,3.47,0"/>
					</g>
				</g>
				<path id="kvg:05fa1-s9" kvg:type="㇑a" d="M36.34,54.76c1.01,1.01,1.62,1.73,1.63,3.05c0.03,3.69,0.36,11.57,0.4,17.81"/>
				<path id="kvg:05fa1-s10" kvg:type="㇀/㇐" d="M34.46,76.79c0.54,0.71,1.29,1.21,2.6,0.66c6.19-2.58,20.57-9.21,27.53-12.2"/>
			</g>
		</g>
		<g id="kvg:05fa1-g16" kvg:element="卩" kvg:position="right">
			<path id="kvg:05fa1-s11" kvg:type="㇆" d="M71.22,26.9c1.66,0.73,3.67,0.68,5.12,0.48c1.45-0.2,14.64-3.01,16.45-3.21s4.71-0.41,4.71,3.89c0,6.7-2,25.2-4.86,35.05c-2.56,8.81-6.88,1.02-7.43,0.61"/>
			<path id="kvg:05fa1-s12" kvg:type="㇑" d="M72.47,28.05c0.87,0.87,1.29,1.84,1.3,3.45c0.08,9.95,0.03,38.68,0.01,55.75c0,3.49-0.01,6.42-0.01,8.5"/>
		</g>
	</g>
</g>
</g>
<g id="kvg:StrokeNumbers_05fa1" style="font-size:8;fill:#808080">
	<text transform="matrix(1 0 0 1 17.25 18.13)">1</text>
	<text transform="matrix(1 0 0 1 15.75 42.05)">2</text>
	<text transform="matrix(1 0 0 1 15.75 67.48)">3</text>
	<text transform="matrix(1 0 0 1 35.25 14.50)">4</text>
	<text transform="matrix(1 0 0 1 48.75 22.63)">5</text>
	<text transform="matrix(1 0 0 1 36.50 40.50)">6</text>
	<text transform="matrix(1 0 0 1 43.50 34.50)">7</text>
	<text transform="matrix(1 0 0 1 55.50 49.55)">8</text>
	<text transform="matrix(1 0 0 1 29.50 54.13)">9</text>
	<text transform="matrix(1 0 0 1 35.25 88.55)">10</text>
	<text transform="matrix(1 0 0 1 68.50 23.50)">11</text>
	<text transform="matrix(1 0 0 1 64.50 33.50)">12</text>
</g>
</svg>
