<?xml version="1.0" encoding="UTF-8"?>
<!--
Copyright (C) 2009/2010/2011 Ulrich Apel.
This work is distributed under the conditions of the Creative Commons 
Attribution-Share Alike 3.0 Licence. This means you are free:
* to Share - to copy, distribute and transmit the work
* to Remix - to adapt the work

Under the following conditions:
* Attribution. You must attribute the work by stating your use of KanjiVG in
  your own copyright header and linking to KanjiVG's website
  (http://kanjivg.tagaini.net)
* Share Alike. If you alter, transform, or build upon this work, you may
  distribute the resulting work only under the same or similar license to this
  one.

See http://creativecommons.org/licenses/by-sa/3.0/ for more details.
-->
<!DOCTYPE svg PUBLIC "-//W3C//DTD SVG 1.0//EN" "http://www.w3.org/TR/2001/REC-SVG-20010904/DTD/svg10.dtd" [
<!ATTLIST g
xmlns:kvg CDATA #FIXED "http://kanjivg.tagaini.net"
kvg:element CDATA #IMPLIED
kvg:variant CDATA #IMPLIED
kvg:partial CDATA #IMPLIED
kvg:original CDATA #IMPLIED
kvg:part CDATA #IMPLIED
kvg:number CDATA #IMPLIED
kvg:tradForm CDATA #IMPLIED
kvg:radicalForm CDATA #IMPLIED
kvg:position CDATA #IMPLIED
kvg:radical CDATA #IMPLIED
kvg:phon CDATA #IMPLIED >
<!ATTLIST path
xmlns:kvg CDATA #FIXED "http://kanjivg.tagaini.net"
kvg:type CDATA #IMPLIED >
]>
<svg xmlns="http://www.w3.org/2000/svg" width="109" height="109" viewBox="0 0 109 109">
<g id="kvg:StrokePaths_05fcd" style="fill:none;stroke:#000000;stroke-width:3;stroke-linecap:round;stroke-linejoin:round;">
<g id="kvg:05fcd" kvg:element="忍">
	<g id="kvg:05fcd-g1" kvg:element="刃" kvg:position="top" kvg:phon="刃">
		<g id="kvg:05fcd-g2" kvg:element="刀">
			<path id="kvg:05fcd-s1" kvg:type="㇆" d="M32.12,17.44c2.45,0.8,5.01,0.54,7.52,0.32c12.21-1.07,29.09-3.29,34.89-3.78c4.04-0.34,5.7,1.79,5.36,4.19c-1.14,8.21-6.72,30.07-12.23,37.38c-4,5.3-6.33,3.6-9.35,0.16"/>
			<path id="kvg:05fcd-s2" kvg:type="㇒" d="M55.96,19.6c0.09,0.9-0.14,2.15-0.68,3.38C50.5,34,41.38,48.12,24.62,58.21"/>
		</g>
		<g id="kvg:05fcd-g3" kvg:element="丶">
			<path id="kvg:05fcd-s3" kvg:type="㇔" d="M38.03,31.13c6.85,2.32,14.72,7.62,19.67,13.4"/>
		</g>
	</g>
	<g id="kvg:05fcd-g4" kvg:element="心" kvg:position="bottom" kvg:radical="general">
		<path id="kvg:05fcd-s4" kvg:type="㇔" d="M23.58,75.84c0.24,2.4-2.37,12.99-4.27,16.99"/>
		<path id="kvg:05fcd-s5" kvg:type="㇟b" d="M34.54,71.84C43,87.5,53.5,98,81.04,96.83c6.97-0.3,6.96-3.2,2.38-6.95"/>
		<path id="kvg:05fcd-s6" kvg:type="㇔a" d="M51.55,68.63c2.95,4.99,5.84,8.66,6.84,4.33"/>
		<path id="kvg:05fcd-s7" kvg:type="㇔" d="M78.03,66.45c5.33,1.2,9.33,2.29,13.66,6"/>
	</g>
</g>
</g>
<g id="kvg:StrokeNumbers_05fcd" style="font-size:8;fill:#808080">
	<text transform="matrix(1 0 0 1 25.50 17.50)">1</text>
	<text transform="matrix(1 0 0 1 45.50 27.50)">2</text>
	<text transform="matrix(1 0 0 1 29.50 31.63)">3</text>
	<text transform="matrix(1 0 0 1 17.50 75.13)">4</text>
	<text transform="matrix(1 0 0 1 30.75 82.50)">5</text>
	<text transform="matrix(1 0 0 1 45.50 70.50)">6</text>
	<text transform="matrix(1 0 0 1 69.75 69.50)">7</text>
</g>
</svg>
