<?xml version="1.0" encoding="UTF-8"?>
<!--
Copyright (C) 2009/2010/2011 Ulrich Apel.
This work is distributed under the conditions of the Creative Commons 
Attribution-Share Alike 3.0 Licence. This means you are free:
* to Share - to copy, distribute and transmit the work
* to Remix - to adapt the work

Under the following conditions:
* Attribution. You must attribute the work by stating your use of KanjiVG in
  your own copyright header and linking to KanjiVG's website
  (http://kanjivg.tagaini.net)
* Share Alike. If you alter, transform, or build upon this work, you may
  distribute the resulting work only under the same or similar license to this
  one.

See http://creativecommons.org/licenses/by-sa/3.0/ for more details.
-->
<!DOCTYPE svg PUBLIC "-//W3C//DTD SVG 1.0//EN" "http://www.w3.org/TR/2001/REC-SVG-20010904/DTD/svg10.dtd" [
<!ATTLIST g
xmlns:kvg CDATA #FIXED "http://kanjivg.tagaini.net"
kvg:element CDATA #IMPLIED
kvg:variant CDATA #IMPLIED
kvg:partial CDATA #IMPLIED
kvg:original CDATA #IMPLIED
kvg:part CDATA #IMPLIED
kvg:number CDATA #IMPLIED
kvg:tradForm CDATA #IMPLIED
kvg:radicalForm CDATA #IMPLIED
kvg:position CDATA #IMPLIED
kvg:radical CDATA #IMPLIED
kvg:phon CDATA #IMPLIED >
<!ATTLIST path
xmlns:kvg CDATA #FIXED "http://kanjivg.tagaini.net"
kvg:type CDATA #IMPLIED >
]>
<svg xmlns="http://www.w3.org/2000/svg" width="109" height="109" viewBox="0 0 109 109">
<g id="kvg:StrokePaths_05fd8-Kaisho" style="fill:none;stroke:#000000;stroke-width:3;stroke-linecap:round;stroke-linejoin:round;">
<g id="kvg:05fd8-Kaisho" kvg:element="忘">
	<g id="kvg:05fd8-Kaisho-g1" kvg:element="亡" kvg:position="top">
		<g id="kvg:05fd8-Kaisho-g2" kvg:element="亠" kvg:radical="nelson">
			<path id="kvg:05fd8-Kaisho-s1" kvg:type="㇑a" d="M46.63,11.24c4.58,2.79,9.41,6.96,11.17,11.58"/>
			<g id="kvg:05fd8-Kaisho-g3" kvg:element="匸" kvg:part="1" kvg:variant="true" kvg:original="匚">
				<path id="kvg:05fd8-Kaisho-s2" kvg:type="㇐" d="M17.7,31.46c1.3,0.09,4.26,0.63,5.52,0.5c10.19-1.05,45.58-5.07,58.51-5.34c2.14-0.05,3.23,0.04,4.82,0.64"/>
			</g>
		</g>
		<g id="kvg:05fd8-Kaisho-g4" kvg:element="匸" kvg:part="2" kvg:variant="true" kvg:original="匚">
			<path id="kvg:05fd8-Kaisho-s3" kvg:type="㇄" d="M33.07,33.85c0.77,0.73,1.16,2.82,1.16,3.84c0,9.04,0,2.69,0,6.11c0,3.81,0.49,8.06,9.16,8.61c9.39,0.6,25.03-0.12,27.16-0.2c3.68-0.13,6.81-0.53,8.69-1"/>
		</g>
	</g>
	<g id="kvg:05fd8-Kaisho-g5" kvg:element="心" kvg:position="bottom" kvg:radical="tradit">
		<path id="kvg:05fd8-Kaisho-s4" kvg:type="㇔" d="M19.3,74.13c0.36,2.62-3.6,14.21-6.49,18.58"/>
		<path id="kvg:05fd8-Kaisho-s5" kvg:type="㇟b" d="M30.12,69.01C37,86,51,98.25,82.32,96.86c7.78-0.35,7.74-3.52,3.5-7.45"/>
		<path id="kvg:05fd8-Kaisho-s6" kvg:type="㇔a" d="M52.35,67.67c1.65,4.58,6.9,12.08,8.15,5.28"/>
		<path id="kvg:05fd8-Kaisho-s7" kvg:type="㇔" d="M83.17,62.66c4.33,4.09,9.08,8.84,12.27,14.95"/>
	</g>
</g>
</g>
<g id="kvg:StrokeNumbers_05fd8-Kaisho" style="font-size:8;fill:#808080">
	<text transform="matrix(1 0 0 1 41.50 12.50)">1</text>
	<text transform="matrix(1 0 0 1 10.50 31.50)">2</text>
	<text transform="matrix(1 0 0 1 26.25 42.13)">3</text>
	<text transform="matrix(1 0 0 1 12.75 70.63)">4</text>
	<text transform="matrix(1 0 0 1 25.50 65.50)">5</text>
	<text transform="matrix(1 0 0 1 45.75 65.50)">6</text>
	<text transform="matrix(1 0 0 1 75.50 63.50)">7</text>
</g>
</svg>
