<?xml version="1.0" encoding="UTF-8"?>
<!--
Copyright (C) 2009/2010/2011 Ulrich Apel.
This work is distributed under the conditions of the Creative Commons 
Attribution-Share Alike 3.0 Licence. This means you are free:
* to Share - to copy, distribute and transmit the work
* to Remix - to adapt the work

Under the following conditions:
* Attribution. You must attribute the work by stating your use of KanjiVG in
  your own copyright header and linking to KanjiVG's website
  (http://kanjivg.tagaini.net)
* Share Alike. If you alter, transform, or build upon this work, you may
  distribute the resulting work only under the same or similar license to this
  one.

See http://creativecommons.org/licenses/by-sa/3.0/ for more details.
-->
<!DOCTYPE svg PUBLIC "-//W3C//DTD SVG 1.0//EN" "http://www.w3.org/TR/2001/REC-SVG-20010904/DTD/svg10.dtd" [
<!ATTLIST g
xmlns:kvg CDATA #FIXED "http://kanjivg.tagaini.net"
kvg:element CDATA #IMPLIED
kvg:variant CDATA #IMPLIED
kvg:partial CDATA #IMPLIED
kvg:original CDATA #IMPLIED
kvg:part CDATA #IMPLIED
kvg:number CDATA #IMPLIED
kvg:tradForm CDATA #IMPLIED
kvg:radicalForm CDATA #IMPLIED
kvg:position CDATA #IMPLIED
kvg:radical CDATA #IMPLIED
kvg:phon CDATA #IMPLIED >
<!ATTLIST path
xmlns:kvg CDATA #FIXED "http://kanjivg.tagaini.net"
kvg:type CDATA #IMPLIED >
]>
<svg xmlns="http://www.w3.org/2000/svg" width="109" height="109" viewBox="0 0 109 109">
<g id="kvg:StrokePaths_05fe0" style="fill:none;stroke:#000000;stroke-width:3;stroke-linecap:round;stroke-linejoin:round;">
<g id="kvg:05fe0" kvg:element="忠">
	<g id="kvg:05fe0-g1" kvg:element="中" kvg:position="top" kvg:phon="中">
		<g id="kvg:05fe0-g2" kvg:element="口">
			<path id="kvg:05fe0-s1" kvg:type="㇑" d="M25.08,29.23c0.78,0.78,1.17,1.52,1.48,2.73c1.15,4.48,2.03,9.58,3.49,17.53c0.27,1.48,0.54,3.01,0.8,4.6"/>
			<path id="kvg:05fe0-s2" kvg:type="㇕b" d="M27.03,30.45c13.34-1.07,42.4-4.22,52.06-4.63c3.62-0.15,5.03,1.53,4.19,4.86c-2.02,7.96-2.77,11.58-3.8,15.65"/>
			<path id="kvg:05fe0-s3" kvg:type="㇐b" d="M31.57,51.11c9.41-0.95,29.41-2.28,44.2-3.33c2.08-0.15,4.07-0.29,5.93-0.41"/>
		</g>
		<g id="kvg:05fe0-g3" kvg:element="丨">
			<path id="kvg:05fe0-s4" kvg:type="㇑" d="M53.06,13c1.03,1.03,1.18,2.5,1.18,3.66c0,4-0.08,27.32-0.11,38.97c-0.01,2.47-0.01,4.41-0.01,5.5"/>
		</g>
	</g>
	<g id="kvg:05fe0-g4" kvg:element="心" kvg:position="bottom" kvg:radical="general">
		<path id="kvg:05fe0-s5" kvg:type="㇔" d="M22.07,72.55c0.32,2.67-3.2,14.47-5.75,18.93"/>
		<path id="kvg:05fe0-s6" kvg:type="㇟b" d="M34.24,68.96C44,88.88,57.12,96.75,82.11,95.56c7.21-0.34,7.17-3.37,3.24-7.41"/>
		<path id="kvg:05fe0-s7" kvg:type="㇔a" d="M54.19,67.25c1.55,3.02,5.85,9.01,6.82,4.75"/>
		<path id="kvg:05fe0-s8" kvg:type="㇔" d="M78.31,63.56c5.57,3.06,10.07,6.31,14.13,12.25"/>
	</g>
</g>
</g>
<g id="kvg:StrokeNumbers_05fe0" style="font-size:8;fill:#808080">
	<text transform="matrix(1 0 0 1 20.25 39.13)">1</text>
	<text transform="matrix(1 0 0 1 28.50 27.50)">2</text>
	<text transform="matrix(1 0 0 1 35.25 47.50)">3</text>
	<text transform="matrix(1 0 0 1 42.75 13.63)">4</text>
	<text transform="matrix(1 0 0 1 17.25 71.50)">5</text>
	<text transform="matrix(1 0 0 1 27.50 70.63)">6</text>
	<text transform="matrix(1 0 0 1 47.25 69.50)">7</text>
	<text transform="matrix(1 0 0 1 70.50 67.50)">8</text>
</g>
</svg>
