<?xml version="1.0" encoding="UTF-8"?>
<!--
Copyright (C) 2009/2010/2011 Ulrich Apel.
This work is distributed under the conditions of the Creative Commons 
Attribution-Share Alike 3.0 Licence. This means you are free:
* to Share - to copy, distribute and transmit the work
* to Remix - to adapt the work

Under the following conditions:
* Attribution. You must attribute the work by stating your use of KanjiVG in
  your own copyright header and linking to KanjiVG's website
  (http://kanjivg.tagaini.net)
* Share Alike. If you alter, transform, or build upon this work, you may
  distribute the resulting work only under the same or similar license to this
  one.

See http://creativecommons.org/licenses/by-sa/3.0/ for more details.
-->
<!DOCTYPE svg PUBLIC "-//W3C//DTD SVG 1.0//EN" "http://www.w3.org/TR/2001/REC-SVG-20010904/DTD/svg10.dtd" [
<!ATTLIST g
xmlns:kvg CDATA #FIXED "http://kanjivg.tagaini.net"
kvg:element CDATA #IMPLIED
kvg:variant CDATA #IMPLIED
kvg:partial CDATA #IMPLIED
kvg:original CDATA #IMPLIED
kvg:part CDATA #IMPLIED
kvg:number CDATA #IMPLIED
kvg:tradForm CDATA #IMPLIED
kvg:radicalForm CDATA #IMPLIED
kvg:position CDATA #IMPLIED
kvg:radical CDATA #IMPLIED
kvg:phon CDATA #IMPLIED >
<!ATTLIST path
xmlns:kvg CDATA #FIXED "http://kanjivg.tagaini.net"
kvg:type CDATA #IMPLIED >
]>
<svg xmlns="http://www.w3.org/2000/svg" width="109" height="109" viewBox="0 0 109 109">
<g id="kvg:StrokePaths_05ff0" style="fill:none;stroke:#000000;stroke-width:3;stroke-linecap:round;stroke-linejoin:round;">
<g id="kvg:05ff0" kvg:element="忰">
	<g id="kvg:05ff0-g1" kvg:element="忄" kvg:variant="true" kvg:original="心" kvg:position="left" kvg:radical="tradit">
		<path id="kvg:05ff0-s1" kvg:type="㇔" d="M17.22,38c0.03,4.31-2.47,14.14-4.69,17.5"/>
		<path id="kvg:05ff0-s2" kvg:type="㇔" d="M31.77,33.83c2.57,2.05,6.65,8.44,7.29,11.63"/>
		<path id="kvg:05ff0-s3" kvg:type="㇑" d="M23.87,15.25c1.09,0.5,1.74,2.25,1.96,3.25c0.22,1,0,73.75-0.22,80"/>
	</g>
	<g id="kvg:05ff0-g2" kvg:element="卆" kvg:position="right">
		<g id="kvg:05ff0-g3" kvg:element="九" kvg:position="top">
			<path id="kvg:05ff0-s4" kvg:type="㇒" d="M60.91,10.62c0.28,0.88,0.51,1.8,0.46,2.49C60,34.5,55.25,46.25,39.38,56"/>
			<g id="kvg:05ff0-g4" kvg:element="乙">
				<path id="kvg:05ff0-s5" kvg:type="㇈" d="M42.29,27.62c0.85,0.35,4.03,0.12,5.09,0c3.37-0.37,22.62-5.37,26.5-6.02c2.09-0.35,2.99,1.66,2.71,3.11c-0.59,3.04-2.8,9.66-2.8,14.63c0,8.02,1.46,9.91,10.14,9.91c9.07,0,11.03-2.61,11.03-7.29"/>
			</g>
		</g>
		<g id="kvg:05ff0-g5" kvg:element="十" kvg:position="bottom">
			<path id="kvg:05ff0-s6" kvg:type="㇐" d="M35.88,67.31c1.27,0.5,3.62,0.62,4.89,0.5c16.21-1.62,39.47-4.6,50.65-4.8c2.13-0.04,3.4,0.24,4.46,0.49"/>
			<path id="kvg:05ff0-s7" kvg:type="㇑" d="M63.71,51.38c0.52,0.41,1.62,3.11,1.73,3.93c0.11,0.83-0.07,38.63-0.17,43.82"/>
		</g>
	</g>
</g>
</g>
<g id="kvg:StrokeNumbers_05ff0" style="font-size:8;fill:#808080">
	<text transform="matrix(1 0 0 1 11.50 37.50)">1</text>
	<text transform="matrix(1 0 0 1 30.50 31.50)">2</text>
	<text transform="matrix(1 0 0 1 15.75 14.98)">3</text>
	<text transform="matrix(1 0 0 1 51.50 10.50)">4</text>
	<text transform="matrix(1 0 0 1 40.50 24.50)">5</text>
	<text transform="matrix(1 0 0 1 33.50 64.50)">6</text>
	<text transform="matrix(1 0 0 1 54.25 53.50)">7</text>
</g>
</svg>
