<?xml version="1.0" encoding="UTF-8"?>
<!--
Copyright (C) 2009/2010/2011 Ulrich Apel.
This work is distributed under the conditions of the Creative Commons 
Attribution-Share Alike 3.0 Licence. This means you are free:
* to Share - to copy, distribute and transmit the work
* to Remix - to adapt the work

Under the following conditions:
* Attribution. You must attribute the work by stating your use of KanjiVG in
  your own copyright header and linking to KanjiVG's website
  (http://kanjivg.tagaini.net)
* Share Alike. If you alter, transform, or build upon this work, you may
  distribute the resulting work only under the same or similar license to this
  one.

See http://creativecommons.org/licenses/by-sa/3.0/ for more details.
-->
<!DOCTYPE svg PUBLIC "-//W3C//DTD SVG 1.0//EN" "http://www.w3.org/TR/2001/REC-SVG-20010904/DTD/svg10.dtd" [
<!ATTLIST g
xmlns:kvg CDATA #FIXED "http://kanjivg.tagaini.net"
kvg:element CDATA #IMPLIED
kvg:variant CDATA #IMPLIED
kvg:partial CDATA #IMPLIED
kvg:original CDATA #IMPLIED
kvg:part CDATA #IMPLIED
kvg:number CDATA #IMPLIED
kvg:tradForm CDATA #IMPLIED
kvg:radicalForm CDATA #IMPLIED
kvg:position CDATA #IMPLIED
kvg:radical CDATA #IMPLIED
kvg:phon CDATA #IMPLIED >
<!ATTLIST path
xmlns:kvg CDATA #FIXED "http://kanjivg.tagaini.net"
kvg:type CDATA #IMPLIED >
]>
<svg xmlns="http://www.w3.org/2000/svg" width="109" height="109" viewBox="0 0 109 109">
<g id="kvg:StrokePaths_06031" style="fill:none;stroke:#000000;stroke-width:3;stroke-linecap:round;stroke-linejoin:round;">
<g id="kvg:06031" kvg:element="怱">
	<g id="kvg:06031-g1" kvg:element="匆" kvg:position="top">
		<g id="kvg:06031-g2" kvg:element="勿">
			<g id="kvg:06031-g3" kvg:element="勹">
				<g id="kvg:06031-g4" kvg:element="丿">
					<path id="kvg:06031-s1" kvg:type="㇒" d="M39.42,12c0.04,0.51,0.09,1.33-0.08,2.07C38.33,18.42,32.75,27,25.1,33.82"/>
				</g>
				<path id="kvg:06031-s2" kvg:type="㇆" d="M38.95,22.52c0.98,0.39,2.34,0.52,3.9,0.26c1.56-0.26,33.35-4.45,37.25-4.58c3.9-0.13,3.82,2.24,3.6,5c-0.7,8.55-4.2,25.3-11.28,37.42C69.11,66.29,65,61,63.18,58.47"/>
			</g>
			<g id="kvg:06031-g5" kvg:element="丿">
				<path id="kvg:06031-s3" kvg:type="㇒" d="M51.33,24.53c0.06,0.59,0.17,1.53-0.11,2.36c-2.74,8.13-9.27,15.88-20.08,22.56"/>
			</g>
			<g id="kvg:06031-g6" kvg:element="丿">
				<path id="kvg:06031-s4" kvg:type="㇒" d="M65.81,23.02c0.07,0.85,0.15,2.2-0.14,3.42c-1.73,7.22-11.11,23.05-24.72,32.74"/>
			</g>
		</g>
		<path id="kvg:06031-s5" kvg:type="㇔" d="M39.95,31.83c9.06,2.8,23.41,11.52,25.68,15.88"/>
	</g>
	<g id="kvg:06031-g7" kvg:element="心" kvg:position="bottom" kvg:radical="general">
		<path id="kvg:06031-s6" kvg:type="㇔" d="M25.64,77.82c0.39,2.39-3.92,12.94-7.06,16.92"/>
		<path id="kvg:06031-s7" kvg:type="㇟b" d="M36.58,70.75c6.92,14,15.67,28,40.14,26.93c12.46-0.54,13.28-3.25,2.88-8.8"/>
		<path id="kvg:06031-s8" kvg:type="㇔a" d="M57.91,73.75c2.17,5.25,5.32,10.5,7.63,2.46"/>
		<path id="kvg:06031-s9" kvg:type="㇔" d="M82.13,68.73c4.53,2.37,7.92,4.53,11.6,11.86"/>
	</g>
</g>
</g>
<g id="kvg:StrokeNumbers_06031" style="font-size:8;fill:#808080">
	<text transform="matrix(1 0 0 1 31.50 11.63)">1</text>
	<text transform="matrix(1 0 0 1 44.50 19.50)">2</text>
	<text transform="matrix(1 0 0 1 41.25 30.48)">3</text>
	<text transform="matrix(1 0 0 1 57.50 28.50)">4</text>
	<text transform="matrix(1 0 0 1 35.25 38.33)">5</text>
	<text transform="matrix(1 0 0 1 19.50 75.25)">6</text>
	<text transform="matrix(1 0 0 1 31.50 79.50)">7</text>
	<text transform="matrix(1 0 0 1 50.50 74.50)">8</text>
	<text transform="matrix(1 0 0 1 74.50 73.03)">9</text>
</g>
</svg>
