<?xml version="1.0" encoding="UTF-8"?>
<!--
Copyright (C) 2009/2010/2011 Ulrich Apel.
This work is distributed under the conditions of the Creative Commons 
Attribution-Share Alike 3.0 Licence. This means you are free:
* to Share - to copy, distribute and transmit the work
* to Remix - to adapt the work

Under the following conditions:
* Attribution. You must attribute the work by stating your use of KanjiVG in
  your own copyright header and linking to KanjiVG's website
  (http://kanjivg.tagaini.net)
* Share Alike. If you alter, transform, or build upon this work, you may
  distribute the resulting work only under the same or similar license to this
  one.

See http://creativecommons.org/licenses/by-sa/3.0/ for more details.
-->
<!DOCTYPE svg PUBLIC "-//W3C//DTD SVG 1.0//EN" "http://www.w3.org/TR/2001/REC-SVG-20010904/DTD/svg10.dtd" [
<!ATTLIST g
xmlns:kvg CDATA #FIXED "http://kanjivg.tagaini.net"
kvg:element CDATA #IMPLIED
kvg:variant CDATA #IMPLIED
kvg:partial CDATA #IMPLIED
kvg:original CDATA #IMPLIED
kvg:part CDATA #IMPLIED
kvg:number CDATA #IMPLIED
kvg:tradForm CDATA #IMPLIED
kvg:radicalForm CDATA #IMPLIED
kvg:position CDATA #IMPLIED
kvg:radical CDATA #IMPLIED
kvg:phon CDATA #IMPLIED >
<!ATTLIST path
xmlns:kvg CDATA #FIXED "http://kanjivg.tagaini.net"
kvg:type CDATA #IMPLIED >
]>
<svg xmlns="http://www.w3.org/2000/svg" width="109" height="109" viewBox="0 0 109 109">
<g id="kvg:StrokePaths_06052" style="fill:none;stroke:#000000;stroke-width:3;stroke-linecap:round;stroke-linejoin:round;">
<g id="kvg:06052" kvg:element="恒">
	<g id="kvg:06052-g1" kvg:element="忄" kvg:variant="true" kvg:original="心" kvg:position="left" kvg:radical="general">
		<path id="kvg:06052-s1" kvg:type="㇔" d="M16.38,39.75c0,6.61-2.68,16.36-3.38,18.25"/>
		<path id="kvg:06052-s2" kvg:type="㇔" d="M31,32.62c3.99,2.13,10.31,8.77,11.31,12.09"/>
		<path id="kvg:06052-s3" kvg:type="㇑" d="M26.12,14.5c0.94,0.94,1.21,2.38,1.21,3.75c0,0.69,0.04,49.01,0.04,68.88c0,4.98,0,8.18-0.01,8.38"/>
	</g>
	<g id="kvg:06052-g2" kvg:element="亘" kvg:position="right" kvg:phon="亘">
		<g id="kvg:06052-g3" kvg:element="二" kvg:position="top">
			<g id="kvg:06052-g4" kvg:element="一">
				<path id="kvg:06052-s4" kvg:type="㇐" d="M46.8,24.07c2.2,0.3,4.71,0.25,6.71-0.02c7.74-1.05,23.79-3.26,32.13-3.84c2.31-0.16,4.79-0.15,7.04,0.52"/>
			</g>
		</g>
		<g id="kvg:06052-g5" kvg:element="旦" kvg:position="bottom">
			<g id="kvg:06052-g6" kvg:element="日" kvg:position="top">
				<path id="kvg:06052-s5" kvg:type="㇑" d="M53.07,38.09c0.92,0.92,1.23,2.13,1.23,3.39s0.08,17.77,0.02,27.26c-0.01,1.35-0.01,2.69,0,4.04"/>
				<path id="kvg:06052-s6" kvg:type="㇕a" d="M54.76,39.92c5.98-0.75,23.04-3.44,25.14-3.74s3.53,0.87,3.53,3.1s-0.13,17.74-0.11,25.98c0,1.77,0.02,3.45,0.04,5"/>
				<path id="kvg:06052-s7" kvg:type="㇐a" d="M55.54,54.29c8.34-1.29,21.1-2.77,26.74-3.25"/>
				<path id="kvg:06052-s8" kvg:type="㇐a" d="M55.35,69.74c7.9-0.74,17.9-2.15,26.8-2.71"/>
			</g>
			<g id="kvg:06052-g7" kvg:element="二" kvg:position="bottom">
				<g id="kvg:06052-g8" kvg:element="一">
					<path id="kvg:06052-s9" kvg:type="㇐" d="M42.78,87.16c2.11,0.86,5.51,0.82,7.74,0.57c10.86-1.23,28.3-2.98,39.11-3.24c2.37-0.06,4.77-0.16,7.09,0.41"/>
				</g>
			</g>
		</g>
	</g>
</g>
</g>
<g id="kvg:StrokeNumbers_06052" style="font-size:8;fill:#808080">
	<text transform="matrix(1 0 0 1 9.75 39.13)">1</text>
	<text transform="matrix(1 0 0 1 35.25 31.63)">2</text>
	<text transform="matrix(1 0 0 1 15.75 13.63)">3</text>
	<text transform="matrix(1 0 0 1 44.50 21.50)">4</text>
	<text transform="matrix(1 0 0 1 46.50 46.50)">5</text>
	<text transform="matrix(1 0 0 1 55.50 36.13)">6</text>
	<text transform="matrix(1 0 0 1 59.25 50.50)">7</text>
	<text transform="matrix(1 0 0 1 59.25 66.50)">8</text>
	<text transform="matrix(1 0 0 1 40.50 84.13)">9</text>
</g>
</svg>
