<?xml version="1.0" encoding="UTF-8"?>
<!--
Copyright (C) 2009/2010/2011 Ulrich Apel.
This work is distributed under the conditions of the Creative Commons 
Attribution-Share Alike 3.0 Licence. This means you are free:
* to Share - to copy, distribute and transmit the work
* to Remix - to adapt the work

Under the following conditions:
* Attribution. You must attribute the work by stating your use of KanjiVG in
  your own copyright header and linking to KanjiVG's website
  (http://kanjivg.tagaini.net)
* Share Alike. If you alter, transform, or build upon this work, you may
  distribute the resulting work only under the same or similar license to this
  one.

See http://creativecommons.org/licenses/by-sa/3.0/ for more details.
-->
<!DOCTYPE svg PUBLIC "-//W3C//DTD SVG 1.0//EN" "http://www.w3.org/TR/2001/REC-SVG-20010904/DTD/svg10.dtd" [
<!ATTLIST g
xmlns:kvg CDATA #FIXED "http://kanjivg.tagaini.net"
kvg:element CDATA #IMPLIED
kvg:variant CDATA #IMPLIED
kvg:partial CDATA #IMPLIED
kvg:original CDATA #IMPLIED
kvg:part CDATA #IMPLIED
kvg:number CDATA #IMPLIED
kvg:tradForm CDATA #IMPLIED
kvg:radicalForm CDATA #IMPLIED
kvg:position CDATA #IMPLIED
kvg:radical CDATA #IMPLIED
kvg:phon CDATA #IMPLIED >
<!ATTLIST path
xmlns:kvg CDATA #FIXED "http://kanjivg.tagaini.net"
kvg:type CDATA #IMPLIED >
]>
<svg xmlns="http://www.w3.org/2000/svg" width="109" height="109" viewBox="0 0 109 109">
<g id="kvg:StrokePaths_0605f" style="fill:none;stroke:#000000;stroke-width:3;stroke-linecap:round;stroke-linejoin:round;">
<g id="kvg:0605f" kvg:element="恟">
	<g id="kvg:0605f-g1" kvg:element="忄" kvg:variant="true" kvg:original="心" kvg:position="left" kvg:radical="general">
		<path id="kvg:0605f-s1" kvg:type="㇔" d="M15.72,32.5c0.03,4.31-2.21,14.14-4.19,17.5"/>
		<path id="kvg:0605f-s2" kvg:type="㇔" d="M28.27,29.58c2.4,1.74,6.19,7.17,6.79,9.88"/>
		<path id="kvg:0605f-s3" kvg:type="㇑" d="M22.87,13.75c1.09,0.5,1.74,2.25,1.96,3.25c0.22,1,0,73.75-0.22,80"/>
	</g>
	<g id="kvg:0605f-g2" kvg:element="匈" kvg:position="right">
		<g id="kvg:0605f-g3" kvg:element="勹" kvg:position="kamae">
			<g id="kvg:0605f-g4" kvg:element="丿">
				<path id="kvg:0605f-s4" kvg:type="㇒" d="M53.33,14c0.05,0.8,0.27,2.13-0.1,3.23c-2.58,7.65-6.4,18.76-17.69,30.9"/>
			</g>
			<path id="kvg:0605f-s5" kvg:type="㇆" d="M51.35,30.03c1.18,0.72,2.78,0.66,4.71,0.48c5.44-0.51,27.56-3.09,32.28-3.33c4.71-0.24,5.2,2.37,4.95,7.49C93,40.5,91.25,71,86.59,90.84c-1.19,5.04-4.76,1.81-7.54-1.21"/>
		</g>
		<g id="kvg:0605f-g5" kvg:element="凶">
			<g id="kvg:0605f-g6" kvg:element="乂">
				<g id="kvg:0605f-g7" kvg:element="丿">
					<path id="kvg:0605f-s6" kvg:type="㇒" d="M67.32,38.43c0.29,0.9,0.71,1.64,0.14,3.19c-4.96,13.63-10.21,24.63-17.94,33.5"/>
				</g>
				<path id="kvg:0605f-s7" kvg:type="㇔/㇏" d="M51.33,49.5c6.3,4.45,12.98,12.18,16.58,20.94"/>
			</g>
			<g id="kvg:0605f-g8" kvg:element="凵" kvg:position="kamae">
				<path id="kvg:0605f-s8" kvg:type="㇄a" d="M43.57,50.9c0.36,0.22,0.89,2.48,0.81,2.92c-0.79,4.31-2.28,20.54-2.62,27.63c-0.06,1.33,0.82,1.87,1.51,1.67c8.8-2.6,29.03-4.94,32.8-5.16"/>
				<path id="kvg:0605f-s9" kvg:type="㇑" d="M76.14,46.84c0.36,0.22,1.13,1.65,1.21,2.1C77.42,49.38,77,69,75.63,81.39"/>
			</g>
		</g>
	</g>
</g>
</g>
<g id="kvg:StrokeNumbers_0605f" style="font-size:8;fill:#808080">
	<text transform="matrix(1 0 0 1 10.25 31.63)">1</text>
	<text transform="matrix(1 0 0 1 31.25 28.50)">2</text>
	<text transform="matrix(1 0 0 1 14.25 13.48)">3</text>
	<text transform="matrix(1 0 0 1 44.50 12.50)">4</text>
	<text transform="matrix(1 0 0 1 60.75 24.33)">5</text>
	<text transform="matrix(1 0 0 1 59.25 39.50)">6</text>
	<text transform="matrix(1 0 0 1 48.50 59.50)">7</text>
	<text transform="matrix(1 0 0 1 36.75 56.50)">8</text>
	<text transform="matrix(1 0 0 1 69.50 53.50)">9</text>
</g>
</svg>
