<?xml version="1.0" encoding="UTF-8"?>
<!--
Copyright (C) 2009/2010/2011 Ulrich Apel.
This work is distributed under the conditions of the Creative Commons 
Attribution-Share Alike 3.0 Licence. This means you are free:
* to Share - to copy, distribute and transmit the work
* to Remix - to adapt the work

Under the following conditions:
* Attribution. You must attribute the work by stating your use of KanjiVG in
  your own copyright header and linking to KanjiVG's website
  (http://kanjivg.tagaini.net)
* Share Alike. If you alter, transform, or build upon this work, you may
  distribute the resulting work only under the same or similar license to this
  one.

See http://creativecommons.org/licenses/by-sa/3.0/ for more details.
-->
<!DOCTYPE svg PUBLIC "-//W3C//DTD SVG 1.0//EN" "http://www.w3.org/TR/2001/REC-SVG-20010904/DTD/svg10.dtd" [
<!ATTLIST g
xmlns:kvg CDATA #FIXED "http://kanjivg.tagaini.net"
kvg:element CDATA #IMPLIED
kvg:variant CDATA #IMPLIED
kvg:partial CDATA #IMPLIED
kvg:original CDATA #IMPLIED
kvg:part CDATA #IMPLIED
kvg:number CDATA #IMPLIED
kvg:tradForm CDATA #IMPLIED
kvg:radicalForm CDATA #IMPLIED
kvg:position CDATA #IMPLIED
kvg:radical CDATA #IMPLIED
kvg:phon CDATA #IMPLIED >
<!ATTLIST path
xmlns:kvg CDATA #FIXED "http://kanjivg.tagaini.net"
kvg:type CDATA #IMPLIED >
]>
<svg xmlns="http://www.w3.org/2000/svg" width="109" height="109" viewBox="0 0 109 109">
<g id="kvg:StrokePaths_060e7-Kaisho" style="fill:none;stroke:#000000;stroke-width:3;stroke-linecap:round;stroke-linejoin:round;">
<g id="kvg:060e7-Kaisho" kvg:element="惧">
	<g id="kvg:060e7-Kaisho-g1" kvg:element="忄" kvg:variant="true" kvg:original="心" kvg:position="left" kvg:radical="tradit">
		<path id="kvg:060e7-Kaisho-s1" kvg:type="㇔" d="M16.72,36c0.03,4.31-1.97,14.14-4.19,17.5"/>
		<path id="kvg:060e7-Kaisho-s2" kvg:type="㇔" d="M33.27,32.33c2.22,2.05,5.74,8.44,6.29,11.63"/>
		<path id="kvg:060e7-Kaisho-s3" kvg:type="㇑" d="M23.87,12.25c1.09,0.5,1.74,2.25,1.96,3.25c0.22,1,0,73.75-0.22,80"/>
	</g>
	<g id="kvg:060e7-Kaisho-g2" kvg:element="具" kvg:position="right">
		<g id="kvg:060e7-Kaisho-g3" kvg:element="目" kvg:position="top">
			<path id="kvg:060e7-Kaisho-s4" kvg:type="㇑" d="M50.05,14.81c0.32,0.87,0.94,2.01,1,3.54c0.27,6.78,0.39,57.56,0.39,58.33"/>
			<path id="kvg:060e7-Kaisho-s5" kvg:type="㇕a" d="M51.23,17.37c2.31-0.19,23.06-2.75,25.16-2.98c1.76-0.19,2.99,1.11,2.99,4.1c0,6.67-0.01,35.76-0.53,53.83"/>
			<path id="kvg:060e7-Kaisho-s6" kvg:type="㇐a" d="M51.72,31.68c4.91-0.41,9.82-0.77,14.74-1.12c1.3-0.09,2.59-0.18,3.82-0.27"/>
			<path id="kvg:060e7-Kaisho-s7" kvg:type="㇐a" d="M51.58,45.98c4.34-0.46,10.21-0.75,14.56-1.05c1.27-0.09,2.55-0.17,3.82-0.26"/>
			<path id="kvg:060e7-Kaisho-s8" kvg:type="㇐a" d="M51.49,60.31c4.62-0.28,10.74-0.54,15.36-0.79c1.15-0.06,2.3-0.12,3.45-0.18"/>
		</g>
		<g id="kvg:060e7-Kaisho-g4" kvg:position="bottom">
			<path id="kvg:060e7-Kaisho-s9" kvg:type="㇐" d="M35.84,76.96c1.19,0.32,3.39,0.4,4.58,0.32c7.42-0.44,38.53-2.99,52.05-2.98c1.99,0,3.19,0.15,4.18,0.32"/>
			<g id="kvg:060e7-Kaisho-g5" kvg:element="八">
				<path id="kvg:060e7-Kaisho-s10" kvg:type="㇒" d="M56.26,82.5c0.05,0.33,0.11,0.84-0.1,1.31c-1.27,2.76-8.53,8.83-18.47,12.54"/>
				<path id="kvg:060e7-Kaisho-s11" kvg:type="㇏" d="M75.57,82.04c5.08,2.69,13.12,11.08,14.39,15.27"/>
			</g>
		</g>
	</g>
</g>
</g>
<g id="kvg:StrokeNumbers_060e7-Kaisho" style="font-size:8;fill:#808080">
	<text transform="matrix(1 0 0 1 11.50 34.50)">1</text>
	<text transform="matrix(1 0 0 1 30.50 28.50)">2</text>
	<text transform="matrix(1 0 0 1 15.50 12.50)">3</text>
	<text transform="matrix(1 0 0 1 43.50 22.50)">4</text>
	<text transform="matrix(1 0 0 1 53.50 13.50)">5</text>
	<text transform="matrix(1 0 0 1 55.50 28.50)">6</text>
	<text transform="matrix(1 0 0 1 55.50 42.43)">7</text>
	<text transform="matrix(1 0 0 1 55.50 56.50)">8</text>
	<text transform="matrix(1 0 0 1 33.50 72.50)">9</text>
	<text transform="matrix(1 0 0 1 43.50 86.50)">10</text>
	<text transform="matrix(1 0 0 1 67.50 88.50)">11</text>
</g>
</svg>
