<?xml version="1.0" encoding="UTF-8"?>
<!--
Copyright (C) 2009/2010/2011 Ulrich Apel.
This work is distributed under the conditions of the Creative Commons 
Attribution-Share Alike 3.0 Licence. This means you are free:
* to Share - to copy, distribute and transmit the work
* to Remix - to adapt the work

Under the following conditions:
* Attribution. You must attribute the work by stating your use of KanjiVG in
  your own copyright header and linking to KanjiVG's website
  (http://kanjivg.tagaini.net)
* Share Alike. If you alter, transform, or build upon this work, you may
  distribute the resulting work only under the same or similar license to this
  one.

See http://creativecommons.org/licenses/by-sa/3.0/ for more details.
-->
<!DOCTYPE svg PUBLIC "-//W3C//DTD SVG 1.0//EN" "http://www.w3.org/TR/2001/REC-SVG-20010904/DTD/svg10.dtd" [
<!ATTLIST g
xmlns:kvg CDATA #FIXED "http://kanjivg.tagaini.net"
kvg:element CDATA #IMPLIED
kvg:variant CDATA #IMPLIED
kvg:partial CDATA #IMPLIED
kvg:original CDATA #IMPLIED
kvg:part CDATA #IMPLIED
kvg:number CDATA #IMPLIED
kvg:tradForm CDATA #IMPLIED
kvg:radicalForm CDATA #IMPLIED
kvg:position CDATA #IMPLIED
kvg:radical CDATA #IMPLIED
kvg:phon CDATA #IMPLIED >
<!ATTLIST path
xmlns:kvg CDATA #FIXED "http://kanjivg.tagaini.net"
kvg:type CDATA #IMPLIED >
]>
<svg xmlns="http://www.w3.org/2000/svg" width="109" height="109" viewBox="0 0 109 109">
<g id="kvg:StrokePaths_06109" style="fill:none;stroke:#000000;stroke-width:3;stroke-linecap:round;stroke-linejoin:round;">
<g id="kvg:06109" kvg:element="愉">
	<g id="kvg:06109-g1" kvg:element="忄" kvg:variant="true" kvg:original="心" kvg:position="left" kvg:radical="general">
		<path id="kvg:06109-s1" kvg:type="㇔" d="M16.25,35.5c0,6.61-2.97,16.36-3.75,18.25"/>
		<path id="kvg:06109-s2" kvg:type="㇔" d="M28.02,30.33c3.01,1.61,7.79,6.63,8.54,9.13"/>
		<path id="kvg:06109-s3" kvg:type="㇑" d="M23.37,14c1.19,1.19,1.21,2.5,1.21,4c0,0.69,0.04,51.08,0.04,70.62c0,4.55,0,7.43-0.01,7.62"/>
	</g>
	<g id="kvg:06109-g2" kvg:element="兪" kvg:variant="true" kvg:position="right" kvg:phon="兪V">
		<g id="kvg:06109-g3" kvg:element="入" kvg:original="人" kvg:position="top">
			<path id="kvg:06109-s4" kvg:type="㇒" d="M61.45,13c0.07,0.8-0.14,1.91-0.64,2.95C56.5,25,49.88,36.5,36.75,47.35"/>
			<path id="kvg:06109-s5" kvg:type="㇏" d="M61.84,16.15c5.4,5.26,16.28,14.72,23.89,21.4c2.43,2.13,5.92,4.17,8.77,5.71"/>
		</g>
		<g id="kvg:06109-g4" kvg:position="bottom">
			<g id="kvg:06109-g5" kvg:element="一">
				<path id="kvg:06109-s6" kvg:type="㇐" d="M51.56,40.8c1.08,0.49,3.56,0.56,4.68,0.4c5.13-0.72,12.29-2.27,16.36-2.72c1.15-0.13,2.21-0.19,3.33,0.12"/>
			</g>
			<g id="kvg:06109-g6" kvg:element="月">
				<path id="kvg:06109-s7" kvg:type="㇑/㇒" d="M42.81,52.73c0.85,0.85,1.1,1.89,1.1,3.3c0,0.71-0.04,21.35-0.04,32.22c0,3.81,0.02,5.83,0,6.38"/>
				<path id="kvg:06109-s8" kvg:type="㇆a" d="M44.52,54.36c0.99-0.11,8.18-1.85,11.38-2.49c2.81-0.57,3.52,0.56,3.46,3.26c-0.11,4.76,0,23.9,0,33.49c0,9.53-4.32,2.46-5.34,1.26"/>
				<path id="kvg:06109-s9" kvg:type="㇐a" d="M45.03,64.7c3.52-0.49,9.64-1.4,13.21-1.85"/>
				<path id="kvg:06109-s10" kvg:type="㇐a" d="M44.83,75.28c3.91-0.28,8.46-1.03,13.13-1.32"/>
			</g>
			<g id="kvg:06109-g7" kvg:element="刂" kvg:variant="true" kvg:original="刀">
				<path id="kvg:06109-s11" kvg:type="㇑" d="M72.48,52.96c0.78,0.78,1.25,1.76,1.25,3.68c0,1.91-0.01,12.31-0.01,18.74c0,2.77,0,4.05,0,4.35"/>
				<path id="kvg:06109-s12" kvg:type="㇚" d="M85.72,48.13c0.95,0.95,1.25,2.12,1.25,4.18c0,9.22-0.1,34.43-0.1,37.57c0,7.75-5.13,0.95-6.2,0.16"/>
			</g>
		</g>
	</g>
</g>
</g>
<g id="kvg:StrokeNumbers_06109" style="font-size:8;fill:#808080">
	<text transform="matrix(1 0 0 1 10.25 35.25)">1</text>
	<text transform="matrix(1 0 0 1 29.25 28.38)">2</text>
	<text transform="matrix(1 0 0 1 13.25 14.25)">3</text>
	<text transform="matrix(1 0 0 1 53.25 14.25)">4</text>
	<text transform="matrix(1 0 0 1 69.25 20.25)">5</text>
	<text transform="matrix(1 0 0 1 54.50 38.25)">6</text>
	<text transform="matrix(1 0 0 1 36.50 60.25)">7</text>
	<text transform="matrix(1 0 0 1 45.50 50.88)">8</text>
	<text transform="matrix(1 0 0 1 47.25 62.25)">9</text>
	<text transform="matrix(1 0 0 1 47.25 72.25)">10</text>
	<text transform="matrix(1 0 0 1 63.50 50.25)">11</text>
	<text transform="matrix(1 0 0 1 74.25 49.25)">12</text>
</g>
</svg>
