<?xml version="1.0" encoding="UTF-8"?>
<!--
Copyright (C) 2009/2010/2011 Ulrich Apel.
This work is distributed under the conditions of the Creative Commons 
Attribution-Share Alike 3.0 Licence. This means you are free:
* to Share - to copy, distribute and transmit the work
* to Remix - to adapt the work

Under the following conditions:
* Attribution. You must attribute the work by stating your use of KanjiVG in
  your own copyright header and linking to KanjiVG's website
  (http://kanjivg.tagaini.net)
* Share Alike. If you alter, transform, or build upon this work, you may
  distribute the resulting work only under the same or similar license to this
  one.

See http://creativecommons.org/licenses/by-sa/3.0/ for more details.
-->
<!DOCTYPE svg PUBLIC "-//W3C//DTD SVG 1.0//EN" "http://www.w3.org/TR/2001/REC-SVG-20010904/DTD/svg10.dtd" [
<!ATTLIST g
xmlns:kvg CDATA #FIXED "http://kanjivg.tagaini.net"
kvg:element CDATA #IMPLIED
kvg:variant CDATA #IMPLIED
kvg:partial CDATA #IMPLIED
kvg:original CDATA #IMPLIED
kvg:part CDATA #IMPLIED
kvg:number CDATA #IMPLIED
kvg:tradForm CDATA #IMPLIED
kvg:radicalForm CDATA #IMPLIED
kvg:position CDATA #IMPLIED
kvg:radical CDATA #IMPLIED
kvg:phon CDATA #IMPLIED >
<!ATTLIST path
xmlns:kvg CDATA #FIXED "http://kanjivg.tagaini.net"
kvg:type CDATA #IMPLIED >
]>
<svg xmlns="http://www.w3.org/2000/svg" width="109" height="109" viewBox="0 0 109 109">
<g id="kvg:StrokePaths_06101-Kaisho" style="fill:none;stroke:#000000;stroke-width:3;stroke-linecap:round;stroke-linejoin:round;">
<g id="kvg:06101-Kaisho" kvg:element="愁">
	<g id="kvg:06101-Kaisho-g1" kvg:element="秋" kvg:position="top">
		<g id="kvg:06101-Kaisho-g2" kvg:element="禾" kvg:position="left">
			<g id="kvg:06101-Kaisho-g3" kvg:element="丿" kvg:position="top">
				<path id="kvg:06101-Kaisho-s1" kvg:type="㇒" d="M41.67,11.66c0.06,0.26,0.13,0.67-0.13,1.04c-1.54,2.2-10.38,7.03-22.48,9.99"/>
			</g>
			<g id="kvg:06101-Kaisho-g4" kvg:element="木" kvg:position="bottom">
				<path id="kvg:06101-Kaisho-s2" kvg:type="㇐" d="M14.12,32.95c0.34,0.15,1.26,0.38,2.18,0.44c2.52,0.15,23.71-2.68,30-3.41c0.91-0.1,1.15-0.14,1.72,0"/>
				<path id="kvg:06101-Kaisho-s3" kvg:type="㇑" d="M34.83,19.41c0.34,0.29,1.47,2.31,1.53,2.89c0.07,0.58-0.07,37.89-0.07,36.53c0,10.41-4.92,3.54-6.29,2.16"/>
				<path id="kvg:06101-Kaisho-s4" kvg:type="㇒" d="M35.39,33.88C31.91,40.65,26.11,49,18.25,54.53"/>
				<path id="kvg:06101-Kaisho-s5" kvg:type="㇏" d="M39.14,38.61c3.74,2.11,6.91,6.32,8.93,9.02"/>
			</g>
		</g>
		<g id="kvg:06101-Kaisho-g5" kvg:element="火" kvg:position="right">
			<path id="kvg:06101-Kaisho-s6" kvg:type="㇔" d="M53.88,23.87c1.63,2.37,4,9.07,4.44,11.44"/>
			<path id="kvg:06101-Kaisho-s7" kvg:type="㇒" d="M86.51,19.73C87,20.75,87,22.2,86.15,23.18c-0.85,0.98-9.19,7.67-13.43,9.95"/>
			<path id="kvg:06101-Kaisho-s8" kvg:type="㇒" d="M68.8,11.14c0.2,1.11,0.59,2.33,0.6,3.15c0.29,21.19-2.61,38.63-17.6,46.91"/>
			<path id="kvg:06101-Kaisho-s9" kvg:type="㇏" d="M68.7,36.35c6.84,9.82,16.42,18.16,22.26,21.98c1.7,1.11,1.98,1.05,3.3,1.35"/>
		</g>
	</g>
	<g id="kvg:06101-Kaisho-g6" kvg:element="心" kvg:position="bottom" kvg:radical="general">
		<path id="kvg:06101-Kaisho-s10" kvg:type="㇔" d="M23.9,76.57c0.32,2.28-3.23,12.36-5.82,16.17"/>
		<path id="kvg:06101-Kaisho-s11" kvg:type="㇟b" d="M35.58,74.75c6.99,12.06,18.03,22.53,44.97,22.68c12.99,0.07,13.84-3.22,3-8.71"/>
		<path id="kvg:06101-Kaisho-s12" kvg:type="㇔a" d="M53.91,70.25c1.95,5.25,4.79,10.5,6.88,2.46"/>
		<path id="kvg:06101-Kaisho-s13" kvg:type="㇔" d="M77.13,67.23c5.5,1.77,9.63,3.38,14.1,8.86"/>
	</g>
</g>
</g>
<g id="kvg:StrokeNumbers_06101-Kaisho" style="font-size:8;fill:#808080">
	<text transform="matrix(1 0 0 1 33.75 10.63)">1</text>
	<text transform="matrix(1 0 0 1 7.50 34.50)">2</text>
	<text transform="matrix(1 0 0 1 29.50 27.50)">3</text>
	<text transform="matrix(1 0 0 1 23.50 42.50)">4</text>
	<text transform="matrix(1 0 0 1 43.50 39.50)">5</text>
	<text transform="matrix(1 0 0 1 51.50 20.50)">6</text>
	<text transform="matrix(1 0 0 1 79.50 20.50)">7</text>
	<text transform="matrix(1 0 0 1 62.50 7.50)">8</text>
	<text transform="matrix(1 0 0 1 80.25 42.13)">9</text>
	<text transform="matrix(1 0 0 1 14.50 75.13)">10</text>
	<text transform="matrix(1 0 0 1 28.50 83.50)">11</text>
	<text transform="matrix(1 0 0 1 44.50 72.50)">12</text>
	<text transform="matrix(1 0 0 1 66.75 72.50)">13</text>
</g>
</svg>
