<?xml version="1.0" encoding="UTF-8"?>
<!--
Copyright (C) 2009/2010/2011 Ulrich Apel.
This work is distributed under the conditions of the Creative Commons 
Attribution-Share Alike 3.0 Licence. This means you are free:
* to Share - to copy, distribute and transmit the work
* to Remix - to adapt the work

Under the following conditions:
* Attribution. You must attribute the work by stating your use of KanjiVG in
  your own copyright header and linking to KanjiVG's website
  (http://kanjivg.tagaini.net)
* Share Alike. If you alter, transform, or build upon this work, you may
  distribute the resulting work only under the same or similar license to this
  one.

See http://creativecommons.org/licenses/by-sa/3.0/ for more details.
-->
<!DOCTYPE svg PUBLIC "-//W3C//DTD SVG 1.0//EN" "http://www.w3.org/TR/2001/REC-SVG-20010904/DTD/svg10.dtd" [
<!ATTLIST g
xmlns:kvg CDATA #FIXED "http://kanjivg.tagaini.net"
kvg:element CDATA #IMPLIED
kvg:variant CDATA #IMPLIED
kvg:partial CDATA #IMPLIED
kvg:original CDATA #IMPLIED
kvg:part CDATA #IMPLIED
kvg:number CDATA #IMPLIED
kvg:tradForm CDATA #IMPLIED
kvg:radicalForm CDATA #IMPLIED
kvg:position CDATA #IMPLIED
kvg:radical CDATA #IMPLIED
kvg:phon CDATA #IMPLIED >
<!ATTLIST path
xmlns:kvg CDATA #FIXED "http://kanjivg.tagaini.net"
kvg:type CDATA #IMPLIED >
]>
<svg xmlns="http://www.w3.org/2000/svg" width="109" height="109" viewBox="0 0 109 109">
<g id="kvg:StrokePaths_0610f" style="fill:none;stroke:#000000;stroke-width:3;stroke-linecap:round;stroke-linejoin:round;">
<g id="kvg:0610f" kvg:element="意">
	<g id="kvg:0610f-g1" kvg:element="音" kvg:position="top" kvg:radical="nelson">
		<g id="kvg:0610f-g2" kvg:element="立">
			<g id="kvg:0610f-g3" kvg:element="亠" kvg:position="top">
				<path id="kvg:0610f-s1" kvg:type="㇑a" d="M51.22,10c1.19,0.75,1.87,2.08,1.87,3.87c0,1.88,0.16,2.88,0.16,5.41"/>
				<path id="kvg:0610f-s2" kvg:type="㇐" d="M25.75,22.16c2.41,0.63,4.68,0.4,7.12,0.16c10.89-1.09,25.88-2.57,38.13-3.43c2.34-0.16,5.37-0.39,8,0.13"/>
			</g>
			<g id="kvg:0610f-g4" kvg:position="bottom">
				<path id="kvg:0610f-s3" kvg:type="㇔" d="M35.88,25.5c2.81,3.07,5.01,7.88,5.6,10.7"/>
				<path id="kvg:0610f-s4" kvg:type="㇒" d="M66.99,22.24c0.26,0.96,0.2,2.21-0.25,3.18c-2.49,5.33-3.46,7.97-4.82,10.11"/>
				<path id="kvg:0610f-s5" kvg:type="㇐" d="M12.75,40.38c3.38,0.62,6,0.65,9.28,0.37C42.25,39,69.25,37,86.58,36.45c3.19-0.1,6.79,0.3,8.92,0.72"/>
			</g>
		</g>
		<g id="kvg:0610f-g5" kvg:element="日">
			<path id="kvg:0610f-s6" kvg:type="㇑" d="M30.3,48.81c0.58,0.53,1.07,1.44,1.33,2.75c0.14,0.71,2.12,18.99,2.12,19.35c0,0.36,0.25,1.35,0.25,2.08"/>
			<path id="kvg:0610f-s7" kvg:type="㇕a" d="M32.28,49.99c9.88-0.77,33.22-2.86,37.91-3.18c2.93-0.2,4.38,0.65,3.81,3.69c-0.62,3.32-1.61,10.28-2.81,16.3c-0.25,1.23-0.48,2.39-0.69,3.45"/>
			<path id="kvg:0610f-s8" kvg:type="㇐a" d="M33.75,60c6.5-0.5,32.72-2.6,37.75-2.75"/>
			<path id="kvg:0610f-s9" kvg:type="㇐a" d="M34.86,70c7.39-0.63,26.18-1.93,34.69-2.18"/>
		</g>
	</g>
	<g id="kvg:0610f-g6" kvg:element="心" kvg:position="bottom" kvg:radical="tradit">
		<path id="kvg:0610f-s10" kvg:type="㇔" d="M20.28,84.31c-0.91,4.19-3.03,8.56-7.13,12.94"/>
		<path id="kvg:0610f-s11" kvg:type="㇟b" d="M33.14,81.65c9.36,12.85,21.52,18.78,42.61,17.26c7.5-0.54,7.5-2.66,1.88-6.69"/>
		<path id="kvg:0610f-s12" kvg:type="㇔a" d="M50.58,78.25c1.65,2.45,6.17,7.5,8.17,2.75"/>
		<path id="kvg:0610f-s13" kvg:type="㇔" d="M82.75,77.25c2.88,1.62,6.88,5.5,9.75,10.23"/>
	</g>
</g>
</g>
<g id="kvg:StrokeNumbers_0610f" style="font-size:8;fill:#808080">
	<text transform="matrix(1 0 0 1 42.75 10.50)">1</text>
	<text transform="matrix(1 0 0 1 18.75 22.50)">2</text>
	<text transform="matrix(1 0 0 1 30.50 32.50)">3</text>
	<text transform="matrix(1 0 0 1 57.75 28.63)">4</text>
	<text transform="matrix(1 0 0 1 5.25 40.63)">5</text>
	<text transform="matrix(1 0 0 1 24.50 57.13)">6</text>
	<text transform="matrix(1 0 0 1 35.25 47.50)">7</text>
	<text transform="matrix(1 0 0 1 37.50 57.13)">8</text>
	<text transform="matrix(1 0 0 1 37.50 67.63)">9</text>
	<text transform="matrix(1 0 0 1 12.50 81.13)">10</text>
	<text transform="matrix(1 0 0 1 24.75 81.19)">11</text>
	<text transform="matrix(1 0 0 1 40.50 81.50)">12</text>
	<text transform="matrix(1 0 0 1 71.25 80.30)">13</text>
</g>
</svg>
