<?xml version="1.0" encoding="UTF-8"?>
<!--
Copyright (C) 2009/2010/2011 Ulrich Apel.
This work is distributed under the conditions of the Creative Commons 
Attribution-Share Alike 3.0 Licence. This means you are free:
* to Share - to copy, distribute and transmit the work
* to Remix - to adapt the work

Under the following conditions:
* Attribution. You must attribute the work by stating your use of KanjiVG in
  your own copyright header and linking to KanjiVG's website
  (http://kanjivg.tagaini.net)
* Share Alike. If you alter, transform, or build upon this work, you may
  distribute the resulting work only under the same or similar license to this
  one.

See http://creativecommons.org/licenses/by-sa/3.0/ for more details.
-->
<!DOCTYPE svg PUBLIC "-//W3C//DTD SVG 1.0//EN" "http://www.w3.org/TR/2001/REC-SVG-20010904/DTD/svg10.dtd" [
<!ATTLIST g
xmlns:kvg CDATA #FIXED "http://kanjivg.tagaini.net"
kvg:element CDATA #IMPLIED
kvg:variant CDATA #IMPLIED
kvg:partial CDATA #IMPLIED
kvg:original CDATA #IMPLIED
kvg:part CDATA #IMPLIED
kvg:number CDATA #IMPLIED
kvg:tradForm CDATA #IMPLIED
kvg:radicalForm CDATA #IMPLIED
kvg:position CDATA #IMPLIED
kvg:radical CDATA #IMPLIED
kvg:phon CDATA #IMPLIED >
<!ATTLIST path
xmlns:kvg CDATA #FIXED "http://kanjivg.tagaini.net"
kvg:type CDATA #IMPLIED >
]>
<svg xmlns="http://www.w3.org/2000/svg" width="109" height="109" viewBox="0 0 109 109">
<g id="kvg:StrokePaths_0613e" style="fill:none;stroke:#000000;stroke-width:3;stroke-linecap:round;stroke-linejoin:round;">
<g id="kvg:0613e" kvg:element="愾">
	<g id="kvg:0613e-g1" kvg:element="忄" kvg:variant="true" kvg:original="心" kvg:position="left" kvg:radical="general">
		<path id="kvg:0613e-s1" kvg:type="㇔" d="M16.72,34c0.03,4.31-2.47,14.14-4.69,17.5"/>
		<path id="kvg:0613e-s2" kvg:type="㇔" d="M27.52,33.08c2.49,1.92,6.42,7.9,7.04,10.88"/>
		<path id="kvg:0613e-s3" kvg:type="㇑" d="M22.37,12.25c1.09,0.5,1.74,2.25,1.96,3.25c0.22,1,0,75.75-0.22,82"/>
	</g>
	<g id="kvg:0613e-g2" kvg:element="氣" kvg:position="right">
		<g id="kvg:0613e-g3" kvg:element="气">
			<path id="kvg:0613e-s4" kvg:type="㇒" d="M51.15,11.69c0.2,1.42-0.01,1.96-0.39,3c-1.33,3.67-7.58,16.81-12.27,22.28"/>
			<path id="kvg:0613e-s5" kvg:type="㇐" d="M49.39,22.68c1.57,0.34,2.9,0.56,4.04,0.49c8.05-0.54,21.16-3.04,30.86-3.43c0.98-0.04,2.86-0.07,3.76-0.09"/>
			<path id="kvg:0613e-s6" kvg:type="㇐" d="M49.21,35.21c0.82,0.02,1.8,0.01,2.89-0.06c6.35-0.42,17.76-2.31,24.17-2.83c1.18-0.1,3.1-0.16,3.96-0.18"/>
			<path id="kvg:0613e-s7" kvg:type="㇈a" d="M40.93,46.18c0.91,0.45,2.67,0.6,3.94,0.51c10.45-0.74,28.78-3.85,37.34-5.19c2.35-0.37,2.53,1.04,2.12,2.76C79.5,65,81,83.5,93.13,95.23c6.23,6.02,5.25,1.07,4.26-7.63"/>
		</g>
		<g id="kvg:0613e-g4" kvg:element="米" kvg:variant="true">
			<path id="kvg:0613e-s8" kvg:type="㇔" d="M41.43,54.07c2.33,1.55,5.84,5.94,6.43,8.35"/>
			<path id="kvg:0613e-s9" kvg:type="㇒" d="M71.95,50.58c0.03,0.29,0.05,0.75-0.05,1.17c-0.6,2.47-4.04,7.9-8.75,11.22"/>
			<path id="kvg:0613e-s10" kvg:type="㇐" d="M38.64,67.8c0.44,0.15,1.61,0.39,2.78,0.44c3.22,0.15,29.11-3.84,34.23-3.55c1.17,0.07,1.46-0.15,2.19,0"/>
			<path id="kvg:0613e-s11" kvg:type="㇑" d="M56.79,50.59c0.7,0.3,1.12,1.33,1.26,1.92s0,42.04-0.14,45.74"/>
			<path id="kvg:0613e-s12" kvg:type="㇒" d="M57.51,67.11c-3.94,7.92-13.52,19.04-22.39,23.6"/>
			<path id="kvg:0613e-s13" kvg:type="㇔/㇏" d="M60.04,73.89c5.53,2.05,12.05,7.97,14.99,13.12"/>
		</g>
	</g>
</g>
</g>
<g id="kvg:StrokeNumbers_0613e" style="font-size:8;fill:#808080">
	<text transform="matrix(1 0 0 1 11.50 32.50)">1</text>
	<text transform="matrix(1 0 0 1 28.50 29.55)">2</text>
	<text transform="matrix(1 0 0 1 13.50 12.50)">3</text>
	<text transform="matrix(1 0 0 1 42.50 11.50)">4</text>
	<text transform="matrix(1 0 0 1 55.50 20.50)">5</text>
	<text transform="matrix(1 0 0 1 50.50 32.50)">6</text>
	<text transform="matrix(1 0 0 1 41.50 43.18)">7</text>
	<text transform="matrix(1 0 0 1 34.50 55.50)">8</text>
	<text transform="matrix(1 0 0 1 63.50 52.50)">9</text>
	<text transform="matrix(1 0 0 1 26.50 68.50)">10</text>
	<text transform="matrix(1 0 0 1 45.75 55.13)">11</text>
	<text transform="matrix(1 0 0 1 41.50 77.05)">12</text>
	<text transform="matrix(1 0 0 1 63.50 74.23)">13</text>
</g>
</svg>
