<?xml version="1.0" encoding="UTF-8"?>
<!--
Copyright (C) 2009/2010/2011 Ulrich Apel.
This work is distributed under the conditions of the Creative Commons 
Attribution-Share Alike 3.0 Licence. This means you are free:
* to Share - to copy, distribute and transmit the work
* to Remix - to adapt the work

Under the following conditions:
* Attribution. You must attribute the work by stating your use of KanjiVG in
  your own copyright header and linking to KanjiVG's website
  (http://kanjivg.tagaini.net)
* Share Alike. If you alter, transform, or build upon this work, you may
  distribute the resulting work only under the same or similar license to this
  one.

See http://creativecommons.org/licenses/by-sa/3.0/ for more details.
-->
<!DOCTYPE svg PUBLIC "-//W3C//DTD SVG 1.0//EN" "http://www.w3.org/TR/2001/REC-SVG-20010904/DTD/svg10.dtd" [
<!ATTLIST g
xmlns:kvg CDATA #FIXED "http://kanjivg.tagaini.net"
kvg:element CDATA #IMPLIED
kvg:variant CDATA #IMPLIED
kvg:partial CDATA #IMPLIED
kvg:original CDATA #IMPLIED
kvg:part CDATA #IMPLIED
kvg:number CDATA #IMPLIED
kvg:tradForm CDATA #IMPLIED
kvg:radicalForm CDATA #IMPLIED
kvg:position CDATA #IMPLIED
kvg:radical CDATA #IMPLIED
kvg:phon CDATA #IMPLIED >
<!ATTLIST path
xmlns:kvg CDATA #FIXED "http://kanjivg.tagaini.net"
kvg:type CDATA #IMPLIED >
]>
<svg xmlns="http://www.w3.org/2000/svg" width="109" height="109" viewBox="0 0 109 109">
<g id="kvg:StrokePaths_0614e-Kaisho" style="fill:none;stroke:#000000;stroke-width:3;stroke-linecap:round;stroke-linejoin:round;">
<g id="kvg:0614e-Kaisho" kvg:element="慎">
	<g id="kvg:0614e-Kaisho-g1" kvg:element="忄" kvg:variant="true" kvg:original="心" kvg:position="left" kvg:radical="general">
		<path id="kvg:0614e-Kaisho-s1" kvg:type="㇔" d="M14.97,36.5c0.02,4.31-1.55,14.14-2.94,17.5"/>
		<path id="kvg:0614e-Kaisho-s2" kvg:type="㇔" d="M31.27,32.83c3.1,1.35,8.02,5.54,8.79,7.63"/>
		<path id="kvg:0614e-Kaisho-s3" kvg:type="㇑" d="M23.87,16.25c1.09,0.5,1.74,2.25,1.96,3.25c0.22,1,0,68.75-0.22,75"/>
	</g>
	<g id="kvg:0614e-Kaisho-g2" kvg:element="真" kvg:position="right">
		<g id="kvg:0614e-Kaisho-g3" kvg:element="十" kvg:position="top">
			<path id="kvg:0614e-Kaisho-s4" kvg:type="㇐" d="M45.07,24.18c0.92,0.51,2.61,0.59,3.53,0.51c11.4-0.94,31.07-4.28,39.14-4.48c1.54-0.04,2.46,0.24,3.23,0.5"/>
			<path id="kvg:0614e-Kaisho-s5" kvg:type="㇑" d="M66.11,13.75c0.37,0.29,1.26,2.17,1.24,2.75c-0.19,4.3-0.59,8.75-0.76,17.05"/>
		</g>
		<g id="kvg:0614e-Kaisho-g4" kvg:element="具" kvg:position="bottom">
			<g id="kvg:0614e-Kaisho-g5" kvg:element="目" kvg:position="top">
				<path id="kvg:0614e-Kaisho-s6" kvg:type="㇑" d="M50.84,35.64c0.4,0.65,1.19,1.5,1.27,2.64c0.35,5.05,0.49,33.95,0.49,34.52"/>
				<path id="kvg:0614e-Kaisho-s7" kvg:type="㇕a" d="M52.97,36c2.93-0.14,24.35-2.94,27.02-3.11c2.22-0.14,3.78,0.74,3.79,3.8c0,4.97-0.02,19.57-0.67,33.03"/>
				<path id="kvg:0614e-Kaisho-s8" kvg:type="㇐a" d="M52.33,47.03c5.7-0.43,11.38-1.02,17.06-1.58c1.41-0.14,2.79-0.27,4.12-0.4"/>
				<path id="kvg:0614e-Kaisho-s9" kvg:type="㇐a" d="M52.78,58.06c4.82-0.3,9.62-0.76,14.43-1.16c1.35-0.11,2.71-0.22,4.07-0.33"/>
				<path id="kvg:0614e-Kaisho-s10" kvg:type="㇐a" d="M53.3,69.49c11.54-1.17,19.93-2.14,29.47-2.73"/>
			</g>
			<g id="kvg:0614e-Kaisho-g6" kvg:position="bottom">
				<path id="kvg:0614e-Kaisho-s11" kvg:type="㇐" d="M42.09,80.08c1.05,0.35,2.97,0.43,4.02,0.35c6.51-0.48,33.27-2.75,45.13-2.74c1.75,0,2.79,0.17,3.67,0.34"/>
				<g id="kvg:0614e-Kaisho-g7" kvg:element="八">
					<path id="kvg:0614e-Kaisho-s12" kvg:type="㇒" d="M58.04,85.22c0.04,0.34,0.09,0.87-0.09,1.35c-1.05,2.84-7.04,9.08-15.26,12.9"/>
					<path id="kvg:0614e-Kaisho-s13" kvg:type="㇏" d="M76.46,84.86c5.07,2.06,13.09,8.49,14.36,11.7"/>
				</g>
			</g>
		</g>
	</g>
</g>
</g>
<g id="kvg:StrokeNumbers_0614e-Kaisho" style="font-size:8;fill:#808080">
	<text transform="matrix(1 0 0 1 9.50 36.13)">1</text>
	<text transform="matrix(1 0 0 1 30.50 30.50)">2</text>
	<text transform="matrix(1 0 0 1 14.50 16.50)">3</text>
	<text transform="matrix(1 0 0 1 42.50 21.50)">4</text>
	<text transform="matrix(1 0 0 1 55.50 13.50)">5</text>
	<text transform="matrix(1 0 0 1 44.25 42.50)">6</text>
	<text transform="matrix(1 0 0 1 54.75 33.50)">7</text>
	<text transform="matrix(1 0 0 1 56.25 44.83)">8</text>
	<text transform="matrix(1 0 0 1 56.25 55.25)">9</text>
	<text transform="matrix(1 0 0 1 56.25 66.50)">10</text>
	<text transform="matrix(1 0 0 1 40.50 77.60)">11</text>
	<text transform="matrix(1 0 0 1 44.50 90.50)">12</text>
	<text transform="matrix(1 0 0 1 66.50 89.50)">13</text>
</g>
</svg>
