<?xml version="1.0" encoding="UTF-8"?>
<!--
Copyright (C) 2009/2010/2011 Ulrich Apel.
This work is distributed under the conditions of the Creative Commons 
Attribution-Share Alike 3.0 Licence. This means you are free:
* to Share - to copy, distribute and transmit the work
* to Remix - to adapt the work

Under the following conditions:
* Attribution. You must attribute the work by stating your use of KanjiVG in
  your own copyright header and linking to KanjiVG's website
  (http://kanjivg.tagaini.net)
* Share Alike. If you alter, transform, or build upon this work, you may
  distribute the resulting work only under the same or similar license to this
  one.

See http://creativecommons.org/licenses/by-sa/3.0/ for more details.
-->
<!DOCTYPE svg PUBLIC "-//W3C//DTD SVG 1.0//EN" "http://www.w3.org/TR/2001/REC-SVG-20010904/DTD/svg10.dtd" [
<!ATTLIST g
xmlns:kvg CDATA #FIXED "http://kanjivg.tagaini.net"
kvg:element CDATA #IMPLIED
kvg:variant CDATA #IMPLIED
kvg:partial CDATA #IMPLIED
kvg:original CDATA #IMPLIED
kvg:part CDATA #IMPLIED
kvg:number CDATA #IMPLIED
kvg:tradForm CDATA #IMPLIED
kvg:radicalForm CDATA #IMPLIED
kvg:position CDATA #IMPLIED
kvg:radical CDATA #IMPLIED
kvg:phon CDATA #IMPLIED >
<!ATTLIST path
xmlns:kvg CDATA #FIXED "http://kanjivg.tagaini.net"
kvg:type CDATA #IMPLIED >
]>
<svg xmlns="http://www.w3.org/2000/svg" width="109" height="109" viewBox="0 0 109 109">
<g id="kvg:StrokePaths_06176" style="fill:none;stroke:#000000;stroke-width:3;stroke-linecap:round;stroke-linejoin:round;">
<g id="kvg:06176" kvg:element="慶">
	<g id="kvg:06176-g1" kvg:element="广" kvg:radical="nelson">
		<path id="kvg:06176-s1" kvg:type="㇑a" d="M53.25,10.88c1,1,1.4,1.99,1.4,3.12c0,0.67-0.02,1.37-0.02,5.99"/>
		<g id="kvg:06176-g2" kvg:element="厂">
			<path id="kvg:06176-s2" kvg:type="㇐" d="M23.13,22.98c1.52,0.54,4.31,0.7,5.82,0.54c1.18-0.12,2.36-0.25,3.55-0.37c15.24-1.61,31.44-3.5,46.24-4.25c2.61-0.13,5.07-0.13,7.64,0.42"/>
			<path id="kvg:06176-s3" kvg:type="㇒" d="M25.99,23.75c0.88,0.88,1.16,2,1.16,3.88c0,15.12-2.28,46.87-14.85,63.34"/>
		</g>
	</g>
	<path id="kvg:06176-s4" kvg:type="㇕c" d="M35.75,32.23c2.48,0.65,4.72,0.36,7.24,0.08c11.01-1.2,26.9-3.43,32.75-4.06c3.02-0.33,5.66,0.04,4.52,3.66c-0.73,2.32-1.38,3.67-2.41,6.48"/>
	<path id="kvg:06176-s5" kvg:type="㇑a" d="M47.85,26.88c0.7,0.7,1.02,1.62,1.11,2.68c0.05,0.61,0.58,8.22,1.01,12.34"/>
	<path id="kvg:06176-s6" kvg:type="㇑a" d="M63.48,24.59c0.65,0.65,0.91,1.78,0.87,2.36c-0.19,2.56-0.74,7.97-1.38,11.94"/>
	<path id="kvg:06176-s7" kvg:type="㇐" d="M35.47,42.76c2,0.68,4.88,0.34,6.92,0.09c7.84-0.97,23.66-3.11,31.61-3.77c2.18-0.18,4.43-0.36,6.6,0.08"/>
	<path id="kvg:06176-s8" kvg:type="㇖a" d="M32.49,51.18c2.83,0.73,5.55,0.23,8.38-0.21C56.5,48.5,72.5,46.38,83,46.35c9.41-0.02,1.99,5.59-0.35,7.24"/>
	<g id="kvg:06176-g3" kvg:element="心" kvg:radical="tradit">
		<path id="kvg:06176-s9" kvg:type="㇔" d="M35.28,59.47c0.31,1.43-3.11,7.76-5.6,10.15"/>
		<path id="kvg:06176-s10" kvg:type="㇟b" d="M42.5,57.37c7.75,8.38,18.5,9.88,30.49,8.63c6.1-0.64,6.51-2.74,2.01-5.49"/>
		<path id="kvg:06176-s11" kvg:type="㇔a" d="M54.6,54.44c1.04,1.56,3.5,4.03,4.15,1.84"/>
		<path id="kvg:06176-s12" kvg:type="㇔" d="M69.09,51.65c2.69,0.73,4.71,1.39,6.9,3.64"/>
	</g>
	<g id="kvg:06176-g4" kvg:element="夂">
		<path id="kvg:06176-s13" kvg:type="㇒" d="M47.17,67.75c0.11,1.16-0.24,1.92-0.81,2.97c-2.74,5.03-8.74,13.16-17.62,19.47"/>
		<path id="kvg:06176-s14" kvg:type="㇇" d="M48.29,74.78c1.27,0.09,2.6-0.05,3.85-0.24c3.81-0.58,10.03-2.03,13.39-2.52c2.67-0.39,3.73,1.48,2.5,3.52C64.4,81.48,50.62,95.25,33,99.75"/>
		<path id="kvg:06176-s15" kvg:type="㇏" d="M43.75,79.53c6.34,1.18,22.2,9.34,32.31,14.08c3.74,1.75,6.93,3.01,11.43,4.08"/>
	</g>
</g>
</g>
<g id="kvg:StrokeNumbers_06176" style="font-size:8;fill:#808080">
	<text transform="matrix(1 0 0 1 45.75 10.63)">1</text>
	<text transform="matrix(1 0 0 1 24.75 19.63)">2</text>
	<text transform="matrix(1 0 0 1 19.50 32.50)">3</text>
	<text transform="matrix(1 0 0 1 33.75 30.13)">4</text>
	<text transform="matrix(1 0 0 1 40.50 29.50)">5</text>
	<text transform="matrix(1 0 0 1 55.50 27.50)">6</text>
	<text transform="matrix(1 0 0 1 31.50 41.50)">7</text>
	<text transform="matrix(1 0 0 1 30.50 49.50)">8</text>
	<text transform="matrix(1 0 0 1 29.25 60.50)">9</text>
	<text transform="matrix(1 0 0 1 36.75 65.50)">10</text>
	<text transform="matrix(1 0 0 1 46.50 57.50)">11</text>
	<text transform="matrix(1 0 0 1 60.75 56.50)">12</text>
	<text transform="matrix(1 0 0 1 35.50 73.50)">13</text>
	<text transform="matrix(1 0 0 1 50.25 72.13)">14</text>
	<text transform="matrix(1 0 0 1 42.50 87.50)">15</text>
</g>
</svg>
