<?xml version="1.0" encoding="UTF-8"?>
<!--
Copyright (C) 2009/2010/2011 Ulrich Apel.
This work is distributed under the conditions of the Creative Commons 
Attribution-Share Alike 3.0 Licence. This means you are free:
* to Share - to copy, distribute and transmit the work
* to Remix - to adapt the work

Under the following conditions:
* Attribution. You must attribute the work by stating your use of KanjiVG in
  your own copyright header and linking to KanjiVG's website
  (http://kanjivg.tagaini.net)
* Share Alike. If you alter, transform, or build upon this work, you may
  distribute the resulting work only under the same or similar license to this
  one.

See http://creativecommons.org/licenses/by-sa/3.0/ for more details.
-->
<!DOCTYPE svg PUBLIC "-//W3C//DTD SVG 1.0//EN" "http://www.w3.org/TR/2001/REC-SVG-20010904/DTD/svg10.dtd" [
<!ATTLIST g
xmlns:kvg CDATA #FIXED "http://kanjivg.tagaini.net"
kvg:element CDATA #IMPLIED
kvg:variant CDATA #IMPLIED
kvg:partial CDATA #IMPLIED
kvg:original CDATA #IMPLIED
kvg:part CDATA #IMPLIED
kvg:number CDATA #IMPLIED
kvg:tradForm CDATA #IMPLIED
kvg:radicalForm CDATA #IMPLIED
kvg:position CDATA #IMPLIED
kvg:radical CDATA #IMPLIED
kvg:phon CDATA #IMPLIED >
<!ATTLIST path
xmlns:kvg CDATA #FIXED "http://kanjivg.tagaini.net"
kvg:type CDATA #IMPLIED >
]>
<svg xmlns="http://www.w3.org/2000/svg" width="109" height="109" viewBox="0 0 109 109">
<g id="kvg:StrokePaths_06221" style="fill:none;stroke:#000000;stroke-width:3;stroke-linecap:round;stroke-linejoin:round;">
<g id="kvg:06221" kvg:element="戡">
	<g id="kvg:06221-g1" kvg:element="甚" kvg:position="left">
		<g id="kvg:06221-g2" kvg:element="甘" kvg:position="top">
			<g id="kvg:06221-g3" kvg:element="廿" kvg:part="1">
				<g id="kvg:06221-g4" kvg:element="十">
					<path id="kvg:06221-s1" kvg:type="㇐" d="M13.78,27.14c1.8,0.66,3.63,0.87,5.48,0.61c6.79-0.5,22.24-1.62,33.24-2.62c1.67-0.15,3.59-0.11,5.26,0.12"/>
					<path id="kvg:06221-s2" kvg:type="㇑" d="M24.25,16.25c1.01,1.21,1.43,2.54,1.43,4c0,6.25-0.02,38-0.02,43.75"/>
				</g>
				<path id="kvg:06221-s3" kvg:type="㇑" d="M42.81,13.28c1.03,1.24,1.48,2.6,1.48,4.1c0,6,0.06,38.13,0.06,44.33"/>
			</g>
			<path id="kvg:06221-s4" kvg:type="㇐" d="M26.69,39.37c2.5-0.4,15.13-1.38,16.89-1.38"/>
			<g id="kvg:06221-g5" kvg:element="廿" kvg:part="2">
				<path id="kvg:06221-s5" kvg:type="㇐" d="M26.69,51.3c4.44-0.55,13.47-1.39,17-1.58"/>
			</g>
		</g>
		<g id="kvg:06221-g6" kvg:element="匹" kvg:position="bottom">
			<g id="kvg:06221-g7" kvg:element="匚" kvg:part="1">
				<path id="kvg:06221-s6" kvg:type="㇐" d="M9.25,65.8c2.08,0.47,4.16,0.56,6.25,0.27c10.42-0.85,26.78-3.04,37.12-3.93c2.05-0.32,4.09-0.24,6.12,0.24"/>
			</g>
			<g id="kvg:06221-g8" kvg:element="儿">
				<g id="kvg:06221-g9" kvg:element="八" kvg:variant="true">
					<g id="kvg:06221-g10" kvg:element="丿" kvg:position="left">
						<path id="kvg:06221-s7" kvg:type="㇒" d="M30.12,68.25c0.5,1,0.5,2.06,0.17,3.13c-1.29,4.24-2.47,7.39-5.54,12.87"/>
					</g>
					<g id="kvg:06221-g11" kvg:position="right">
						<path id="kvg:06221-s8" kvg:type="㇟" d="M39.71,66.78c0.57,0.88,1.05,1.91,1.05,3.26c0,0.83-0.13,3.33-0.13,5.06c0,4.89,0.49,6.39,6.63,6.39c4.24,0,5.52-0.79,6.24-1.62"/>
					</g>
				</g>
			</g>
			<g id="kvg:06221-g12" kvg:element="匚" kvg:part="2">
				<path id="kvg:06221-s9" kvg:type="㇗" d="M17.56,68.64c0.84,1.42,1.05,3.08,1.05,5.26c0,3.15-0.08,6.77-0.08,11.46c0,9.48,4.81,9.88,18.34,9.88c11.65,0,15.19-1.17,17.16-2.31"/>
			</g>
		</g>
	</g>
	<g id="kvg:06221-g13" kvg:element="戈" kvg:position="right" kvg:radical="general">
		<g id="kvg:06221-g14" kvg:element="弋" kvg:part="1">
			<path id="kvg:06221-s10" kvg:type="㇐" d="M53.5,38.31c2.01,0.39,4.01,0.43,6.01,0.13c8.3-0.92,18.41-2.45,27.89-4.05c1.7-0.38,3.43-0.48,5.17-0.3"/>
			<path id="kvg:06221-s11" kvg:type="㇂" d="M66.74,11.5c0.88,1,1.63,2.5,1.86,5.53c2.55,34.22,9.15,59.72,23.33,78.15c3.7,4.8,3.95,0.79,3.36-7.32"/>
		</g>
		<g id="kvg:06221-g15" kvg:element="丿">
			<path id="kvg:06221-s12" kvg:type="㇒" d="M89.75,46.24c0.09,0.96-0.2,2.53-0.68,3.85C85.75,59.25,75.5,78,57.75,87.34"/>
		</g>
		<g id="kvg:06221-g16" kvg:element="弋" kvg:part="2">
			<g id="kvg:06221-g17" kvg:element="丶">
				<path id="kvg:06221-s13" kvg:type="㇔" d="M81.24,13.46c5.51,3.42,9.4,6.67,11.09,10.14"/>
			</g>
		</g>
	</g>
</g>
</g>
<g id="kvg:StrokeNumbers_06221" style="font-size:8;fill:#808080">
	<text transform="matrix(1 0 0 1 6.50 27.50)">1</text>
	<text transform="matrix(1 0 0 1 14.50 16.50)">2</text>
	<text transform="matrix(1 0 0 1 33.50 13.50)">3</text>
	<text transform="matrix(1 0 0 1 29.50 36.50)">4</text>
	<text transform="matrix(1 0 0 1 29.50 48.50)">5</text>
	<text transform="matrix(1 0 0 1 11.75 59.25)">6</text>
	<text transform="matrix(1 0 0 1 22.50 74.50)">7</text>
	<text transform="matrix(1 0 0 1 34.50 77.50)">8</text>
	<text transform="matrix(1 0 0 1 10.75 75.03)">9</text>
	<text transform="matrix(1 0 0 1 51.50 34.50)">10</text>
	<text transform="matrix(1 0 0 1 55.50 11.50)">11</text>
	<text transform="matrix(1 0 0 1 74.50 10.50)">12</text>
	<text transform="matrix(1 0 0 1 79.50 45.50)">13</text>
</g>
</svg>
