<?xml version="1.0" encoding="UTF-8"?>
<!--
Copyright (C) 2009/2010/2011 Ulrich Apel.
This work is distributed under the conditions of the Creative Commons 
Attribution-Share Alike 3.0 Licence. This means you are free:
* to Share - to copy, distribute and transmit the work
* to Remix - to adapt the work

Under the following conditions:
* Attribution. You must attribute the work by stating your use of KanjiVG in
  your own copyright header and linking to KanjiVG's website
  (http://kanjivg.tagaini.net)
* Share Alike. If you alter, transform, or build upon this work, you may
  distribute the resulting work only under the same or similar license to this
  one.

See http://creativecommons.org/licenses/by-sa/3.0/ for more details.
-->
<!DOCTYPE svg PUBLIC "-//W3C//DTD SVG 1.0//EN" "http://www.w3.org/TR/2001/REC-SVG-20010904/DTD/svg10.dtd" [
<!ATTLIST g
xmlns:kvg CDATA #FIXED "http://kanjivg.tagaini.net"
kvg:element CDATA #IMPLIED
kvg:variant CDATA #IMPLIED
kvg:partial CDATA #IMPLIED
kvg:original CDATA #IMPLIED
kvg:part CDATA #IMPLIED
kvg:number CDATA #IMPLIED
kvg:tradForm CDATA #IMPLIED
kvg:radicalForm CDATA #IMPLIED
kvg:position CDATA #IMPLIED
kvg:radical CDATA #IMPLIED
kvg:phon CDATA #IMPLIED >
<!ATTLIST path
xmlns:kvg CDATA #FIXED "http://kanjivg.tagaini.net"
kvg:type CDATA #IMPLIED >
]>
<svg xmlns="http://www.w3.org/2000/svg" width="109" height="109" viewBox="0 0 109 109">
<g id="kvg:StrokePaths_06295" style="fill:none;stroke:#000000;stroke-width:3;stroke-linecap:round;stroke-linejoin:round;">
<g id="kvg:06295" kvg:element="投">
	<g id="kvg:06295-g1" kvg:element="扌" kvg:variant="true" kvg:original="手" kvg:position="left" kvg:radical="general">
		<path id="kvg:06295-s1" kvg:type="㇐" d="M14,36.75c2.08,0.25,2.76,0.24,5,0c4.62-0.5,12.9-1.68,21.65-2.94c1.22-0.17,2.85-0.31,4.01,0.02"/>
		<path id="kvg:06295-s2" kvg:type="㇚" d="M31.52,15.08c0.95,0.95,1.76,2.79,1.76,5.27c0,14.56-0.01,61.16-0.01,66.12c0,10.53-4.22,4.16-7.71,1.25"/>
		<path id="kvg:06295-s3" kvg:type="㇀" d="M13.5,67.98c1.75,0.65,3.14,1.07,4.94-0.46C21.25,65.12,34.44,53.48,41,48"/>
	</g>
	<g id="kvg:06295-g2" kvg:element="殳" kvg:position="right" kvg:phon="殳">
		<g id="kvg:06295-g3" kvg:element="几" kvg:position="top">
			<g id="kvg:06295-g4" kvg:element="丿">
				<path id="kvg:06295-s4" kvg:type="㇒" d="M55.17,18.6c0.62,0.62,0.98,1.82,0.95,2.84C55.92,32,53.95,42.4,48.28,47.11"/>
			</g>
			<path id="kvg:06295-s5" kvg:type="㇈b" d="M56.85,19.28c5.4-0.53,12.01-1.82,15.89-2.9c2.75-0.76,4.51,0.62,4.08,2.62c-1.07,4.99-1.2,8.87-1.46,14.37c-0.33,6.86,1.44,8.64,9.28,8.64c8.99,0,9.03-1.64,9.03-7.86"/>
		</g>
		<g id="kvg:06295-g5" kvg:element="又" kvg:position="bottom">
			<path id="kvg:06295-s6" kvg:type="㇇" d="M52,55.69c1.75,0.31,3.38,0.18,5.54-0.13c3.08-0.45,17.6-3.15,19.67-3.82c3.04-0.99,4.55,1.89,3.12,4.56C70.75,74.25,58.75,85.88,42,94.17"/>
			<path id="kvg:06295-s7" kvg:type="㇏" d="M50.75,62.12C54.79,62.88,74.52,83,88.58,91.24c2.19,1.29,3.79,2.14,5.82,2.57"/>
		</g>
	</g>
</g>
</g>
<g id="kvg:StrokeNumbers_06295" style="font-size:8;fill:#808080">
	<text transform="matrix(1 0 0 1 7.50 37.63)">1</text>
	<text transform="matrix(1 0 0 1 23.50 15.50)">2</text>
	<text transform="matrix(1 0 0 1 4.50 70.50)">3</text>
	<text transform="matrix(1 0 0 1 48.50 25.50)">4</text>
	<text transform="matrix(1 0 0 1 58.50 15.13)">5</text>
	<text transform="matrix(1 0 0 1 53.25 52.63)">6</text>
	<text transform="matrix(1 0 0 1 43.50 64.50)">7</text>
</g>
</svg>
