<?xml version="1.0" encoding="UTF-8"?>
<!--
Copyright (C) 2009/2010/2011 Ulrich Apel.
This work is distributed under the conditions of the Creative Commons 
Attribution-Share Alike 3.0 Licence. This means you are free:
* to Share - to copy, distribute and transmit the work
* to Remix - to adapt the work

Under the following conditions:
* Attribution. You must attribute the work by stating your use of KanjiVG in
  your own copyright header and linking to KanjiVG's website
  (http://kanjivg.tagaini.net)
* Share Alike. If you alter, transform, or build upon this work, you may
  distribute the resulting work only under the same or similar license to this
  one.

See http://creativecommons.org/licenses/by-sa/3.0/ for more details.
-->
<!DOCTYPE svg PUBLIC "-//W3C//DTD SVG 1.0//EN" "http://www.w3.org/TR/2001/REC-SVG-20010904/DTD/svg10.dtd" [
<!ATTLIST g
xmlns:kvg CDATA #FIXED "http://kanjivg.tagaini.net"
kvg:element CDATA #IMPLIED
kvg:variant CDATA #IMPLIED
kvg:partial CDATA #IMPLIED
kvg:original CDATA #IMPLIED
kvg:part CDATA #IMPLIED
kvg:number CDATA #IMPLIED
kvg:tradForm CDATA #IMPLIED
kvg:radicalForm CDATA #IMPLIED
kvg:position CDATA #IMPLIED
kvg:radical CDATA #IMPLIED
kvg:phon CDATA #IMPLIED >
<!ATTLIST path
xmlns:kvg CDATA #FIXED "http://kanjivg.tagaini.net"
kvg:type CDATA #IMPLIED >
]>
<svg xmlns="http://www.w3.org/2000/svg" width="109" height="109" viewBox="0 0 109 109">
<g id="kvg:StrokePaths_0629e" style="fill:none;stroke:#000000;stroke-width:3;stroke-linecap:round;stroke-linejoin:round;">
<g id="kvg:0629e" kvg:element="択">
	<g id="kvg:0629e-g1" kvg:element="扌" kvg:variant="true" kvg:original="手" kvg:position="left" kvg:radical="general">
		<path id="kvg:0629e-s1" kvg:type="㇐" d="M12.75,38.67c1.88,0.71,3.8,0.7,6.01,0.42c4.82-0.63,12.76-1.97,19.49-2.81c1.38-0.17,3.12-0.27,4.41-0.02"/>
		<path id="kvg:0629e-s2" kvg:type="㇚" d="M29.52,15.25c1.18,1.18,1.51,2.75,1.51,5.02c0,15.23,0.24,54.71,0.24,66.15c0,14.25-6.32,3.53-7.77,2"/>
		<path id="kvg:0629e-s3" kvg:type="㇀" d="M12.5,67.18c1.41,1.41,2.62,1.07,4.25,0.07c5.13-3.16,9.38-5.75,21.5-13.33"/>
	</g>
	<g id="kvg:0629e-g2" kvg:element="尺" kvg:position="right" kvg:phon="尺">
		<g id="kvg:0629e-g3" kvg:element="尸">
			<path id="kvg:0629e-s4" kvg:type="㇕c" d="M50.14,23.07c1.11,0.68,2.17,1.21,3.77,1.04c9.34-0.99,21.44-2.5,24.88-2.97c2.96-0.4,4.67,1.69,4.21,3.94C82,30,80.75,35.5,79,43.75"/>
			<path id="kvg:0629e-s5" kvg:type="㇐b" d="M52.5,47.75c3.36-0.2,16.14-1.91,24-2.78c2.25-0.25,4.06-0.18,5.06-0.24"/>
			<g id="kvg:0629e-g4" kvg:element="八" kvg:part="1">
				<path id="kvg:0629e-s6" kvg:type="㇒" d="M51.5,24.12c1,1,1.25,2,1.25,4c0,21.54-0.38,50-15.5,65.62"/>
			</g>
		</g>
		<g id="kvg:0629e-g5" kvg:element="八" kvg:part="2">
			<path id="kvg:0629e-s7" kvg:type="㇏" d="M61,47.5c6.02,12.71,15.96,29.35,23.68,38.58c2.53,3.02,4.94,5.55,7.57,7.67"/>
		</g>
	</g>
</g>
</g>
<g id="kvg:StrokeNumbers_0629e" style="font-size:8;fill:#808080">
	<text transform="matrix(1 0 0 1 6.75 40.50)">1</text>
	<text transform="matrix(1 0 0 1 20.50 15.50)">2</text>
	<text transform="matrix(1 0 0 1 4.50 71.50)">3</text>
	<text transform="matrix(1 0 0 1 53.50 20.50)">4</text>
	<text transform="matrix(1 0 0 1 57.75 43.55)">5</text>
	<text transform="matrix(1 0 0 1 45.50 32.50)">6</text>
	<text transform="matrix(1 0 0 1 68.50 56.50)">7</text>
</g>
</svg>
