<?xml version="1.0" encoding="UTF-8"?>
<!--
Copyright (C) 2009/2010/2011 Ulrich Apel.
This work is distributed under the conditions of the Creative Commons 
Attribution-Share Alike 3.0 Licence. This means you are free:
* to Share - to copy, distribute and transmit the work
* to Remix - to adapt the work

Under the following conditions:
* Attribution. You must attribute the work by stating your use of KanjiVG in
  your own copyright header and linking to KanjiVG's website
  (http://kanjivg.tagaini.net)
* Share Alike. If you alter, transform, or build upon this work, you may
  distribute the resulting work only under the same or similar license to this
  one.

See http://creativecommons.org/licenses/by-sa/3.0/ for more details.
-->
<!DOCTYPE svg PUBLIC "-//W3C//DTD SVG 1.0//EN" "http://www.w3.org/TR/2001/REC-SVG-20010904/DTD/svg10.dtd" [
<!ATTLIST g
xmlns:kvg CDATA #FIXED "http://kanjivg.tagaini.net"
kvg:element CDATA #IMPLIED
kvg:variant CDATA #IMPLIED
kvg:partial CDATA #IMPLIED
kvg:original CDATA #IMPLIED
kvg:part CDATA #IMPLIED
kvg:number CDATA #IMPLIED
kvg:tradForm CDATA #IMPLIED
kvg:radicalForm CDATA #IMPLIED
kvg:position CDATA #IMPLIED
kvg:radical CDATA #IMPLIED
kvg:phon CDATA #IMPLIED >
<!ATTLIST path
xmlns:kvg CDATA #FIXED "http://kanjivg.tagaini.net"
kvg:type CDATA #IMPLIED >
]>
<svg xmlns="http://www.w3.org/2000/svg" width="109" height="109" viewBox="0 0 109 109">
<g id="kvg:StrokePaths_06297" style="fill:none;stroke:#000000;stroke-width:3;stroke-linecap:round;stroke-linejoin:round;">
<g id="kvg:06297" kvg:element="抗">
	<g id="kvg:06297-g1" kvg:element="扌" kvg:variant="true" kvg:original="手" kvg:position="left" kvg:radical="general">
		<path id="kvg:06297-s1" kvg:type="㇐" d="M12.25,39.42c2,0.24,3.87,0.22,5.91-0.11c4.55-0.73,10.24-1.91,17.15-3.57c1.01-0.24,2.05-0.24,3.11-0.49"/>
		<path id="kvg:06297-s2" kvg:type="㇚" d="M27.52,13.75c1.12,1.12,1.51,3,1.51,5.27c0,15.23-0.01,55.46-0.01,66.9c0,14.25-6.32,3.53-7.77,2"/>
		<path id="kvg:06297-s3" kvg:type="㇀" d="M11.62,67.39c1.12,0.99,2.47,0.65,3.74-0.23c4.01-2.78,9.13-6.65,20.38-14.74"/>
	</g>
	<g id="kvg:06297-g2" kvg:element="亢" kvg:position="right" kvg:phon="亢">
		<g id="kvg:06297-g3" kvg:element="亠" kvg:position="top">
			<path id="kvg:06297-s4" kvg:type="㇑a" d="M64.68,14.25c1.22,1.22,1.51,2.76,1.51,3.89c0,4.16-0.06,5.48-0.06,9.23"/>
			<path id="kvg:06297-s5" kvg:type="㇐" d="M41.96,30.55c3.04,0.58,5.45,0.4,8.45,0.03c8.73-1.09,22.23-3.36,32.6-4.14c2.52-0.19,5-0.31,7.56,0.37"/>
		</g>
		<g id="kvg:06297-g4" kvg:element="几" kvg:position="bottom">
			<g id="kvg:06297-g5" kvg:element="丿">
				<path id="kvg:06297-s6" kvg:type="㇒" d="M54.52,42.92c0.91,0.91,0.98,2.19,0.99,4.02c0.24,30.31-6.13,39.93-18.11,48.81"/>
			</g>
			<path id="kvg:06297-s7" kvg:type="㇈b" d="M57.25,45.69c5.12-1.32,9.5-2.57,14.36-3.9c1.92-0.53,3.71,0.58,3.71,2.66c0,2.4-0.02,32.29-0.02,37.33c0,9.22,1.95,10.45,9.62,10.45c9.21,0,10.33-1.23,10.33-8.27"/>
		</g>
	</g>
</g>
</g>
<g id="kvg:StrokeNumbers_06297" style="font-size:8;fill:#808080">
	<text transform="matrix(1 0 0 1 6.75 39.13)">1</text>
	<text transform="matrix(1 0 0 1 18.75 14.50)">2</text>
	<text transform="matrix(1 0 0 1 5.25 73.63)">3</text>
	<text transform="matrix(1 0 0 1 54.50 13.50)">4</text>
	<text transform="matrix(1 0 0 1 39.50 27.13)">5</text>
	<text transform="matrix(1 0 0 1 47.25 51.50)">6</text>
	<text transform="matrix(1 0 0 1 58.50 42.50)">7</text>
</g>
</svg>
