<?xml version="1.0" encoding="UTF-8"?>
<!--
Copyright (C) 2009/2010/2011 Ulrich Apel.
This work is distributed under the conditions of the Creative Commons 
Attribution-Share Alike 3.0 Licence. This means you are free:
* to Share - to copy, distribute and transmit the work
* to Remix - to adapt the work

Under the following conditions:
* Attribution. You must attribute the work by stating your use of KanjiVG in
  your own copyright header and linking to KanjiVG's website
  (http://kanjivg.tagaini.net)
* Share Alike. If you alter, transform, or build upon this work, you may
  distribute the resulting work only under the same or similar license to this
  one.

See http://creativecommons.org/licenses/by-sa/3.0/ for more details.
-->
<!DOCTYPE svg PUBLIC "-//W3C//DTD SVG 1.0//EN" "http://www.w3.org/TR/2001/REC-SVG-20010904/DTD/svg10.dtd" [
<!ATTLIST g
xmlns:kvg CDATA #FIXED "http://kanjivg.tagaini.net"
kvg:element CDATA #IMPLIED
kvg:variant CDATA #IMPLIED
kvg:partial CDATA #IMPLIED
kvg:original CDATA #IMPLIED
kvg:part CDATA #IMPLIED
kvg:number CDATA #IMPLIED
kvg:tradForm CDATA #IMPLIED
kvg:radicalForm CDATA #IMPLIED
kvg:position CDATA #IMPLIED
kvg:radical CDATA #IMPLIED
kvg:phon CDATA #IMPLIED >
<!ATTLIST path
xmlns:kvg CDATA #FIXED "http://kanjivg.tagaini.net"
kvg:type CDATA #IMPLIED >
]>
<svg xmlns="http://www.w3.org/2000/svg" width="109" height="109" viewBox="0 0 109 109">
<g id="kvg:StrokePaths_062e1" style="fill:none;stroke:#000000;stroke-width:3;stroke-linecap:round;stroke-linejoin:round;">
<g id="kvg:062e1" kvg:element="拡">
	<g id="kvg:062e1-g1" kvg:element="扌" kvg:variant="true" kvg:original="手" kvg:position="left" kvg:radical="general">
		<path id="kvg:062e1-s1" kvg:type="㇐" d="M13.38,39.54c2,0.59,3.91,0.61,5.87,0.28c6.5-1.07,14.47-2.16,22.27-3.71c1.05-0.21,2.12-0.25,3.15-0.36"/>
		<path id="kvg:062e1-s2" kvg:type="㇚" d="M31.27,15c1.05,1.05,1.76,2.75,1.76,4.52c0,15.23-0.01,55.96-0.01,67.4c0,13.33-6.02,3.33-7.27,1.5"/>
		<path id="kvg:062e1-s3" kvg:type="㇀" d="M11.88,70.12c1.62,0.88,3.25,0.38,4.62-0.74C21.51,65.26,28.5,59.29,40.25,50"/>
	</g>
	<g id="kvg:062e1-g2" kvg:element="広" kvg:position="right" kvg:phon="広">
		<g id="kvg:062e1-g3" kvg:element="广" kvg:position="tare">
			<path id="kvg:062e1-s4" kvg:type="㇑a" d="M69.85,16.03c0.81,0.81,1.33,2.22,1.33,3.39c0,0.73,0.07,8.71,0.07,13.08"/>
			<g id="kvg:062e1-g4" kvg:element="厂">
				<path id="kvg:062e1-s5" kvg:type="㇐" d="M51.63,34.9c2.05,0.73,4.98,0.55,7.12,0.34c8.93-0.89,20.55-2.56,30.01-3.27c2.1-0.16,4.05-0.24,6.12,0.21"/>
				<path id="kvg:062e1-s6" kvg:type="㇒" d="M53.4,35.82c0.89,0.89,1.17,2.06,1.17,3.31c0,19.13-4.19,40.5-14.56,54.38"/>
			</g>
		</g>
		<g id="kvg:062e1-g5" kvg:element="厶">
			<path id="kvg:062e1-s7" kvg:type="㇜" d="M74.84,49.24c0.43,0.86,0.43,2.64,0.01,3.69c-4.07,10.33-8.13,22.25-13.92,33.39c-1.29,2.49-0.45,3.44,1.87,2.84c6.95-1.79,19.2-5.54,28.57-8.05"/>
			<path id="kvg:062e1-s8" kvg:type="㇔" d="M86.06,71.34C90,75.5,95.25,85,97,91"/>
		</g>
	</g>
</g>
</g>
<g id="kvg:StrokeNumbers_062e1" style="font-size:8;fill:#808080">
	<text transform="matrix(1 0 0 1 7.50 39.13)">1</text>
	<text transform="matrix(1 0 0 1 23.25 15.50)">2</text>
	<text transform="matrix(1 0 0 1 5.25 72.50)">3</text>
	<text transform="matrix(1 0 0 1 61.50 13.50)">4</text>
	<text transform="matrix(1 0 0 1 53.50 32.50)">5</text>
	<text transform="matrix(1 0 0 1 46.50 43.50)">6</text>
	<text transform="matrix(1 0 0 1 67.50 48.50)">7</text>
	<text transform="matrix(1 0 0 1 78.50 70.33)">8</text>
</g>
</svg>
