<?xml version="1.0" encoding="UTF-8"?>
<!--
Copyright (C) 2009/2010/2011 Ulrich Apel.
This work is distributed under the conditions of the Creative Commons 
Attribution-Share Alike 3.0 Licence. This means you are free:
* to Share - to copy, distribute and transmit the work
* to Remix - to adapt the work

Under the following conditions:
* Attribution. You must attribute the work by stating your use of KanjiVG in
  your own copyright header and linking to KanjiVG's website
  (http://kanjivg.tagaini.net)
* Share Alike. If you alter, transform, or build upon this work, you may
  distribute the resulting work only under the same or similar license to this
  one.

See http://creativecommons.org/licenses/by-sa/3.0/ for more details.
-->
<!DOCTYPE svg PUBLIC "-//W3C//DTD SVG 1.0//EN" "http://www.w3.org/TR/2001/REC-SVG-20010904/DTD/svg10.dtd" [
<!ATTLIST g
xmlns:kvg CDATA #FIXED "http://kanjivg.tagaini.net"
kvg:element CDATA #IMPLIED
kvg:variant CDATA #IMPLIED
kvg:partial CDATA #IMPLIED
kvg:original CDATA #IMPLIED
kvg:part CDATA #IMPLIED
kvg:number CDATA #IMPLIED
kvg:tradForm CDATA #IMPLIED
kvg:radicalForm CDATA #IMPLIED
kvg:position CDATA #IMPLIED
kvg:radical CDATA #IMPLIED
kvg:phon CDATA #IMPLIED >
<!ATTLIST path
xmlns:kvg CDATA #FIXED "http://kanjivg.tagaini.net"
kvg:type CDATA #IMPLIED >
]>
<svg xmlns="http://www.w3.org/2000/svg" width="109" height="109" viewBox="0 0 109 109">
<g id="kvg:StrokePaths_062fe" style="fill:none;stroke:#000000;stroke-width:3;stroke-linecap:round;stroke-linejoin:round;">
<g id="kvg:062fe" kvg:element="拾">
	<g id="kvg:062fe-g1" kvg:element="扌" kvg:variant="true" kvg:original="手" kvg:position="left" kvg:radical="general">
		<path id="kvg:062fe-s1" kvg:type="㇐" d="M11.17,36.25c1.71,0.38,3.35,0.52,5.33,0.25c5.5-0.75,11.88-2.25,18.88-3.45c1.12-0.19,2.23-0.19,3.29-0.21"/>
		<path id="kvg:062fe-s2" kvg:type="㇚" d="M26.27,14.33c0.95,0.95,1.76,2.42,1.76,4.77c0,14.56-0.01,62.41-0.01,67.37c0,9.16-4.39,4.41-7.46,0.75"/>
		<path id="kvg:062fe-s3" kvg:type="㇀" d="M11.09,65.44c1.26,0.29,2.79,0.04,4.16-0.97C16.88,63.28,28.37,53.73,35.25,48"/>
	</g>
	<g id="kvg:062fe-g2" kvg:element="合" kvg:position="right">
		<g id="kvg:062fe-g3" kvg:element="人">
			<path id="kvg:062fe-s4" kvg:type="㇒" d="M63.5,16.88c0.08,0.97,0.13,2.35-0.41,3.66c-3.7,9.11-8.44,20.2-23.09,33.09"/>
			<path id="kvg:062fe-s5" kvg:type="㇏" d="M64.03,21.36c6.47,7.39,16.56,18.5,23.45,24.41c2.28,1.96,4.53,3.85,7.4,4.73"/>
		</g>
		<g id="kvg:062fe-g4" kvg:element="一">
			<path id="kvg:062fe-s6" kvg:type="㇐" d="M51.82,50.77c1.25,0.52,2.62,0.47,3.93,0.36c5.37-0.45,12.69-1.32,17.88-1.74c1.16-0.09,2.35-0.16,3.5,0.13"/>
		</g>
		<g id="kvg:062fe-g5" kvg:element="口">
			<path id="kvg:062fe-s7" kvg:type="㇑" d="M47.44,68.73c0.79,0.79,1.38,1.76,1.52,2.43c1.42,7.32,1.84,10.89,2.6,16.08c0.16,1.09,0.33,2.25,0.54,3.54"/>
			<path id="kvg:062fe-s8" kvg:type="㇕b" d="M49.89,70.36c10.34-1.73,21.62-3,27.98-3.71c3.24-0.36,5.55,1.07,4.76,4.52c-1.22,5.3-2.5,9.14-3.98,14.66"/>
			<path id="kvg:062fe-s9" kvg:type="㇐b" d="M52.83,88.97c6.25-0.67,15.25-1.6,24.42-2.19c1.2-0.08,2.4-0.15,3.6-0.21"/>
		</g>
	</g>
</g>
</g>
<g id="kvg:StrokeNumbers_062fe" style="font-size:8;fill:#808080">
	<text transform="matrix(1 0 0 1 5.50 37.50)">1</text>
	<text transform="matrix(1 0 0 1 18.50 15.50)">2</text>
	<text transform="matrix(1 0 0 1 2.50 67.50)">3</text>
	<text transform="matrix(1 0 0 1 55.50 19.50)">4</text>
	<text transform="matrix(1 0 0 1 71.50 26.50)">5</text>
	<text transform="matrix(1 0 0 1 54.75 48.13)">6</text>
	<text transform="matrix(1 0 0 1 41.25 76.50)">7</text>
	<text transform="matrix(1 0 0 1 49.50 67.50)">8</text>
	<text transform="matrix(1 0 0 1 55.50 85.50)">9</text>
</g>
</svg>
