<?xml version="1.0" encoding="UTF-8"?>
<!--
Copyright (C) 2009/2010/2011 Ulrich Apel.
This work is distributed under the conditions of the Creative Commons 
Attribution-Share Alike 3.0 Licence. This means you are free:
* to Share - to copy, distribute and transmit the work
* to Remix - to adapt the work

Under the following conditions:
* Attribution. You must attribute the work by stating your use of KanjiVG in
  your own copyright header and linking to KanjiVG's website
  (http://kanjivg.tagaini.net)
* Share Alike. If you alter, transform, or build upon this work, you may
  distribute the resulting work only under the same or similar license to this
  one.

See http://creativecommons.org/licenses/by-sa/3.0/ for more details.
-->
<!DOCTYPE svg PUBLIC "-//W3C//DTD SVG 1.0//EN" "http://www.w3.org/TR/2001/REC-SVG-20010904/DTD/svg10.dtd" [
<!ATTLIST g
xmlns:kvg CDATA #FIXED "http://kanjivg.tagaini.net"
kvg:element CDATA #IMPLIED
kvg:variant CDATA #IMPLIED
kvg:partial CDATA #IMPLIED
kvg:original CDATA #IMPLIED
kvg:part CDATA #IMPLIED
kvg:number CDATA #IMPLIED
kvg:tradForm CDATA #IMPLIED
kvg:radicalForm CDATA #IMPLIED
kvg:position CDATA #IMPLIED
kvg:radical CDATA #IMPLIED
kvg:phon CDATA #IMPLIED >
<!ATTLIST path
xmlns:kvg CDATA #FIXED "http://kanjivg.tagaini.net"
kvg:type CDATA #IMPLIED >
]>
<svg xmlns="http://www.w3.org/2000/svg" width="109" height="109" viewBox="0 0 109 109">
<g id="kvg:StrokePaths_062f7" style="fill:none;stroke:#000000;stroke-width:3;stroke-linecap:round;stroke-linejoin:round;">
<g id="kvg:062f7" kvg:element="拷">
	<g id="kvg:062f7-g1" kvg:element="扌" kvg:variant="true" kvg:original="手" kvg:position="left" kvg:radical="general">
		<path id="kvg:062f7-s1" kvg:type="㇐" d="M15.25,39.17c1.99,0.24,3.85,0.47,5.88,0.14c4.55-0.73,10.61-2.14,17.15-3.1c1.11-0.16,2.24-0.32,3.39-0.46"/>
		<path id="kvg:062f7-s2" kvg:type="㇚" d="M31.27,15.75c0.99,0.99,1.51,2.75,1.51,4.77c0,15.23-0.01,53.71-0.01,65.15c0,14.25-6.32,3.53-7.77,2"/>
		<path id="kvg:062f7-s3" kvg:type="㇀" d="M13.82,68.47c1.05,0.9,2.86,0.64,4.26-0.31C22.38,65.25,27,62,38.25,53.92"/>
	</g>
	<g id="kvg:062f7-g2" kvg:element="考" kvg:position="right" kvg:phon="考">
		<g id="kvg:062f7-g3" kvg:element="耂" kvg:original="老" kvg:partial="true">
			<g id="kvg:062f7-g4" kvg:element="土">
				<path id="kvg:062f7-s4" kvg:type="㇐" d="M48.75,27.2c1.77,0.75,4.42,0.35,6.25,0.05c7-1.13,11.78-1.98,18.13-2.93c1.33-0.2,3.39-0.32,4.74,0.02"/>
				<path id="kvg:062f7-s5" kvg:type="㇑a" d="M62.92,11.62c0.92,0.92,1.27,2.13,1.27,3.64c0,6.29-0.07,19.87-0.07,24.37"/>
				<path id="kvg:062f7-s6" kvg:type="㇐" d="M42.75,42.53c2.75,0.84,6.05,0.4,8.28,0.07c11.04-1.65,23.33-3.75,36.1-5.27c2.49-0.3,5.87-0.85,8.25,0.14"/>
			</g>
			<path id="kvg:062f7-s7" kvg:type="㇒" d="M85.38,15.73c0.13,1.27-0.18,2.85-1.12,4.35c-12.17,19.26-21.94,32.07-44.7,49.39"/>
		</g>
		<g id="kvg:062f7-g5" kvg:element="丿">
			<path id="kvg:062f7-s8" kvg:type="㇒" d="M86.51,48.5c0,1.12-0.52,2.04-1.28,2.47c-4.23,2.4-7.85,4.15-17.73,7.53"/>
		</g>
		<path id="kvg:062f7-s9" kvg:type="㇉" d="M64.5,51.25c0.5,1,0.62,2.62,0.02,4.58c-0.66,2.13-1.86,6.43-3.76,11.2c-1.14,2.85-0.43,3.88,2.14,3.25c5.72-1.4,16.1-4.27,21.51-5.24c3.33-0.59,4.84,1.97,3.93,4.6c-1.89,5.52-5.87,15.21-9.92,20.99c-3.61,5.15-6.36,5.11-10.19,0.58"/>
	</g>
</g>
</g>
<g id="kvg:StrokeNumbers_062f7" style="font-size:8;fill:#808080">
	<text transform="matrix(1 0 0 1 8.25 39.13)">1</text>
	<text transform="matrix(1 0 0 1 22.50 16.50)">2</text>
	<text transform="matrix(1 0 0 1 5.50 72.50)">3</text>
	<text transform="matrix(1 0 0 1 46.50 24.13)">4</text>
	<text transform="matrix(1 0 0 1 53.50 12.13)">5</text>
	<text transform="matrix(1 0 0 1 45.50 39.50)">6</text>
	<text transform="matrix(1 0 0 1 77.50 16.50)">7</text>
	<text transform="matrix(1 0 0 1 78.50 49.50)">8</text>
	<text transform="matrix(1 0 0 1 55.50 65.50)">9</text>
</g>
</svg>
