<?xml version="1.0" encoding="UTF-8"?>
<!--
Copyright (C) 2009/2010/2011 Ulrich Apel.
This work is distributed under the conditions of the Creative Commons 
Attribution-Share Alike 3.0 Licence. This means you are free:
* to Share - to copy, distribute and transmit the work
* to Remix - to adapt the work

Under the following conditions:
* Attribution. You must attribute the work by stating your use of KanjiVG in
  your own copyright header and linking to KanjiVG's website
  (http://kanjivg.tagaini.net)
* Share Alike. If you alter, transform, or build upon this work, you may
  distribute the resulting work only under the same or similar license to this
  one.

See http://creativecommons.org/licenses/by-sa/3.0/ for more details.
-->
<!DOCTYPE svg PUBLIC "-//W3C//DTD SVG 1.0//EN" "http://www.w3.org/TR/2001/REC-SVG-20010904/DTD/svg10.dtd" [
<!ATTLIST g
xmlns:kvg CDATA #FIXED "http://kanjivg.tagaini.net"
kvg:element CDATA #IMPLIED
kvg:variant CDATA #IMPLIED
kvg:partial CDATA #IMPLIED
kvg:original CDATA #IMPLIED
kvg:part CDATA #IMPLIED
kvg:number CDATA #IMPLIED
kvg:tradForm CDATA #IMPLIED
kvg:radicalForm CDATA #IMPLIED
kvg:position CDATA #IMPLIED
kvg:radical CDATA #IMPLIED
kvg:phon CDATA #IMPLIED >
<!ATTLIST path
xmlns:kvg CDATA #FIXED "http://kanjivg.tagaini.net"
kvg:type CDATA #IMPLIED >
]>
<svg xmlns="http://www.w3.org/2000/svg" width="109" height="109" viewBox="0 0 109 109">
<g id="kvg:StrokePaths_062f3" style="fill:none;stroke:#000000;stroke-width:3;stroke-linecap:round;stroke-linejoin:round;">
<g id="kvg:062f3" kvg:element="拳">
	<g id="kvg:062f3-g1" kvg:position="top">
		<path id="kvg:062f3-s1" kvg:type="㇔" d="M27.52,13.48c3.37,1.89,7.86,6.89,9.79,10.71"/>
		<path id="kvg:062f3-s2" kvg:type="㇒" d="M73.78,11.76c0.09,0.86-0.18,1.75-0.63,2.48c-2.02,3.27-4.6,6.64-8.34,10.71"/>
		<g id="kvg:062f3-g2" kvg:element="二">
			<g id="kvg:062f3-g3" kvg:position="top">
				<path id="kvg:062f3-s3" kvg:type="㇐" d="M24,31.26c2.88,0.62,6.5,0.31,9.27-0.1c10.48-1.53,30.1-3.16,40.36-4.08c2.71-0.24,5.7-0.38,8.38,0.2"/>
			</g>
			<g id="kvg:062f3-g4" kvg:position="bottom">
				<path id="kvg:062f3-s4" kvg:type="㇐" d="M15,44.34c4.12,0.78,7.54,0.38,11.12,0.03c12.2-1.18,39.25-3.86,55.38-4.65c3.92-0.19,7.87-0.46,11.75,0.29"/>
			</g>
		</g>
		<g id="kvg:062f3-g5" kvg:element="人">
			<path id="kvg:062f3-s5" kvg:type="㇒" d="M53.25,10.25c0.12,1.43-0.09,2.94-0.49,5c-2.75,14-18,41.25-43,55"/>
			<path id="kvg:062f3-s6" kvg:type="㇏" d="M53.75,29.35c4.62,5.46,22.64,21.27,31.32,28.48c2.87,2.38,5.72,4.57,9.18,6.06"/>
		</g>
	</g>
	<g id="kvg:062f3-g6" kvg:element="手" kvg:position="bottom" kvg:radical="general">
		<path id="kvg:062f3-s7" kvg:type="㇒" d="M64.23,47.75c-0.11,1.12-0.78,2.03-1.64,2.5C56.88,53.38,48.5,56.5,34,60.26"/>
		<path id="kvg:062f3-s8" kvg:type="㇐" d="M27.63,68.11c2.63,0.91,5.95,0.15,8.62-0.13c9.41-0.97,19.83-2.64,33.15-3.8c2.99-0.26,6.5-0.96,9.49-0.34"/>
		<path id="kvg:062f3-s9" kvg:type="㇐" d="M21.65,77.79c4.1,0.71,7.74,0.7,11.23,0.37c11.08-1.05,29.61-2.7,45.62-3.03c3.24-0.07,6.59-0.29,9.79,0.38"/>
		<path id="kvg:062f3-s10" kvg:type="㇕v" d="M51.63,57.97c5.87,8.78,6.12,23.41,4.45,33.75c-1.54,9.54-3.83,4.79-7.89,1"/>
	</g>
</g>
</g>
<g id="kvg:StrokeNumbers_062f3" style="font-size:8;fill:#808080">
	<text transform="matrix(1 0 0 1 21.25 14.25)">1</text>
	<text transform="matrix(1 0 0 1 64.19 9.25)">2</text>
	<text transform="matrix(1 0 0 1 16.19 31.25)">3</text>
	<text transform="matrix(1 0 0 1 7.25 45.25)">4</text>
	<text transform="matrix(1 0 0 1 44.25 8.25)">5</text>
	<text transform="matrix(1 0 0 1 65.25 37.25)">6</text>
	<text transform="matrix(1 0 0 1 56.25 49.25)">7</text>
	<text transform="matrix(1 0 0 1 20.25 71.35)">8</text>
	<text transform="matrix(1 0 0 1 14.19 82.28)">9</text>
	<text transform="matrix(1 0 0 1 42.69 64.25)">10</text>
</g>
</svg>
