<?xml version="1.0" encoding="UTF-8"?>
<!--
Copyright (C) 2009/2010/2011 Ulrich Apel.
This work is distributed under the conditions of the Creative Commons 
Attribution-Share Alike 3.0 Licence. This means you are free:
* to Share - to copy, distribute and transmit the work
* to Remix - to adapt the work

Under the following conditions:
* Attribution. You must attribute the work by stating your use of KanjiVG in
  your own copyright header and linking to KanjiVG's website
  (http://kanjivg.tagaini.net)
* Share Alike. If you alter, transform, or build upon this work, you may
  distribute the resulting work only under the same or similar license to this
  one.

See http://creativecommons.org/licenses/by-sa/3.0/ for more details.
-->
<!DOCTYPE svg PUBLIC "-//W3C//DTD SVG 1.0//EN" "http://www.w3.org/TR/2001/REC-SVG-20010904/DTD/svg10.dtd" [
<!ATTLIST g
xmlns:kvg CDATA #FIXED "http://kanjivg.tagaini.net"
kvg:element CDATA #IMPLIED
kvg:variant CDATA #IMPLIED
kvg:partial CDATA #IMPLIED
kvg:original CDATA #IMPLIED
kvg:part CDATA #IMPLIED
kvg:number CDATA #IMPLIED
kvg:tradForm CDATA #IMPLIED
kvg:radicalForm CDATA #IMPLIED
kvg:position CDATA #IMPLIED
kvg:radical CDATA #IMPLIED
kvg:phon CDATA #IMPLIED >
<!ATTLIST path
xmlns:kvg CDATA #FIXED "http://kanjivg.tagaini.net"
kvg:type CDATA #IMPLIED >
]>
<svg xmlns="http://www.w3.org/2000/svg" width="109" height="109" viewBox="0 0 109 109">
<g id="kvg:StrokePaths_0636e" style="fill:none;stroke:#000000;stroke-width:3;stroke-linecap:round;stroke-linejoin:round;">
<g id="kvg:0636e" kvg:element="据">
	<g id="kvg:0636e-g1" kvg:element="扌" kvg:variant="true" kvg:original="手" kvg:position="left" kvg:radical="general">
		<path id="kvg:0636e-s1" kvg:type="㇐" d="M13.75,39.67c1.95,0.23,3.77,0.48,5.76,0.16c5.05-0.8,12.24-1.95,20.54-3.45c0.95-0.17,1.94-0.13,2.86-0.13"/>
		<path id="kvg:0636e-s2" kvg:type="㇚" d="M28.77,16c1.12,1.12,1.51,2.75,1.51,5.27c0,15.23-0.01,52.23-0.01,63.9c0,14.25-5.82,3.53-7.27,2"/>
		<path id="kvg:0636e-s3" kvg:type="㇀" d="M13.25,64.43c0.97,0.97,2.25,1.32,4.25,0.07c5.11-3.19,9-6,20.25-14.08"/>
	</g>
	<g id="kvg:0636e-g2" kvg:element="居" kvg:position="right" kvg:phon="居">
		<g id="kvg:0636e-g3" kvg:element="尸" kvg:position="tare">
			<path id="kvg:0636e-s4" kvg:type="㇕c" d="M47.84,20.73c1.29,0.52,3.81,1.05,5.17,0.88c7.7-0.95,23.21-3.02,29.51-3.73c3.23-0.36,5.4,0.37,4.39,4.14c-0.93,3.49-1.65,6.99-2.86,11.56"/>
			<path id="kvg:0636e-s5" kvg:type="㇐b" d="M51.79,38.19c3.22-0.15,17.34-1.94,29.72-3.12c1.73-0.16,3.35-0.23,4.8-0.3"/>
			<path id="kvg:0636e-s6" kvg:type="㇒" d="M49.88,21.54c1.04,1.04,1.42,2.46,1.41,4.26C51.12,52,46.72,76.5,36.56,88.56"/>
		</g>
		<g id="kvg:0636e-g4" kvg:element="古">
			<g id="kvg:0636e-g5" kvg:element="十" kvg:position="top">
				<path id="kvg:0636e-s7" kvg:type="㇐" d="M51.82,58.15c2.6,0.27,5.07,0.04,7.65-0.29c7.67-1,21.11-2.95,28.77-3.48c1.87-0.13,4.32-0.33,6.16,0.08"/>
				<path id="kvg:0636e-s8" kvg:type="㇑a" d="M68.72,41.94c1.17,1.17,1.41,2.44,1.41,4.39c0,12.3,0.12,20.42,0.12,26.04"/>
			</g>
			<g id="kvg:0636e-g6" kvg:element="口" kvg:position="bottom">
				<path id="kvg:0636e-s9" kvg:type="㇑" d="M54.45,73.74c0.78,0.78,1.3,1.76,1.58,2.82c0.71,2.76,1.91,8.82,2.79,14.43c0.23,1.45,0.43,2.88,0.6,4.26"/>
				<path id="kvg:0636e-s10" kvg:type="㇕b" d="M56.36,75.02c7.54-1.11,21.04-3.1,27.27-3.66c3.49-0.31,4.89,0.46,4.07,4.09c-0.93,4.06-2.13,9.73-2.98,14.44"/>
				<path id="kvg:0636e-s11" kvg:type="㇐b" d="M60.51,92.73c4.47-0.25,15.27-1.62,22.5-2.28c1.33-0.12,2.86-0.03,4.02-0.03"/>
			</g>
		</g>
	</g>
</g>
</g>
<g id="kvg:StrokeNumbers_0636e" style="font-size:8;fill:#808080">
	<text transform="matrix(1 0 0 1 7.50 40.50)">1</text>
	<text transform="matrix(1 0 0 1 20.50 17.50)">2</text>
	<text transform="matrix(1 0 0 1 5.25 68.50)">3</text>
	<text transform="matrix(1 0 0 1 53.25 18.13)">4</text>
	<text transform="matrix(1 0 0 1 54.75 34.55)">5</text>
	<text transform="matrix(1 0 0 1 43.50 29.50)">6</text>
	<text transform="matrix(1 0 0 1 54.75 55.63)">7</text>
	<text transform="matrix(1 0 0 1 59.50 46.63)">8</text>
	<text transform="matrix(1 0 0 1 49.50 82.50)">9</text>
	<text transform="matrix(1 0 0 1 54.50 71.50)">10</text>
	<text transform="matrix(1 0 0 1 62.25 89.50)">11</text>
</g>
</svg>
