<?xml version="1.0" encoding="UTF-8"?>
<!--
Copyright (C) 2009/2010/2011 Ulrich Apel.
This work is distributed under the conditions of the Creative Commons
Attribution-Share Alike 3.0 Licence. This means you are free:
* to Share - to copy, distribute and transmit the work
* to Remix - to adapt the work

Under the following conditions:
* Attribution. You must attribute the work by stating your use of KanjiVG in
  your own copyright header and linking to KanjiVG's website
  (http://kanjivg.tagaini.net)
* Share Alike. If you alter, transform, or build upon this work, you may
  distribute the resulting work only under the same or similar license to this
  one.

See http://creativecommons.org/licenses/by-sa/3.0/ for more details.
-->
<!DOCTYPE svg PUBLIC "-//W3C//DTD SVG 1.0//EN" "http://www.w3.org/TR/2001/REC-SVG-20010904/DTD/svg10.dtd" [
<!ATTLIST g
xmlns:kvg CDATA #FIXED "http://kanjivg.tagaini.net"
kvg:element CDATA #IMPLIED
kvg:variant CDATA #IMPLIED
kvg:partial CDATA #IMPLIED
kvg:original CDATA #IMPLIED
kvg:part CDATA #IMPLIED
kvg:number CDATA #IMPLIED
kvg:tradForm CDATA #IMPLIED
kvg:radicalForm CDATA #IMPLIED
kvg:position CDATA #IMPLIED
kvg:radical CDATA #IMPLIED
kvg:phon CDATA #IMPLIED >
<!ATTLIST path
xmlns:kvg CDATA #FIXED "http://kanjivg.tagaini.net"
kvg:type CDATA #IMPLIED >
]>
<svg xmlns="http://www.w3.org/2000/svg" width="109" height="109" viewBox="0 0 109 109">
<g id="kvg:StrokePaths_06372" style="fill:none;stroke:#000000;stroke-width:3;stroke-linecap:round;stroke-linejoin:round;">
<g id="kvg:06372" kvg:element="捲">
	<g id="kvg:06372-g1" kvg:element="扌" kvg:variant="true" kvg:original="手" kvg:position="left" kvg:radical="general">
		<path id="kvg:06372-s1" kvg:type="㇐" d="M12.25,38c2.14,0.26,4.07,0.43,6.27,0.11c4.13-0.59,9.07-1.73,15.09-2.58c1.06-0.15,2.16-0.3,3.31-0.44"/>
		<path id="kvg:06372-s2" kvg:type="㇚" d="M25.77,13.33c0.95,0.95,1.26,2.42,1.26,4.52c0,14.56-0.01,64.94-0.01,69.9c0,14.25-6.57,4.53-8.02,3"/>
		<path id="kvg:06372-s3" kvg:type="㇀" d="M10.25,67.58c1.62,1.05,3.03,0.97,5.08-0.41c5.3-3.55,12.47-8.61,19.17-13.67"/>
	</g>
	<g id="kvg:06372-g2" kvg:element="巻" kvg:position="right">
		<g id="kvg:06372-g3" kvg:position="top">
			<path id="kvg:06372-s4" kvg:type="㇒" d="M 52.32,20.2c0,1.17-0.34,2.03-0.83,2.96c-2.31,3.47-4.56,6.59-8.31,10.97"/>
			<path id="kvg:06372-s5" kvg:type="㇔" d="M 80.18,21.67 c3.22,1.77,7.83,7.12,8.64,9.88"/>
			<g id="kvg:06372-g4" kvg:element="二">
				<g id="kvg:06372-g5" kvg:position="top">
					<path id="kvg:06372-s6" kvg:type="㇐" d="M 49.094345,34.535701 c 2.079988,0.49 3.014432,0.348943 4.415655,0.382863 9.861855,-0.140121 27.652592,-1.029961 30.15561,-0.12853"/>
				</g>
				<g id="kvg:06372-g6" kvg:position="bottom">
					<path id="kvg:06372-s7" kvg:type="㇐" d="M40,48.79c3.08,0.61,6.17,0.68,9.27,0.19c10.17-1.15,25.73-2.36,37.62-3.52c3.24-0.43,6.46-0.34,9.66,0.27"/>
				</g>
			</g>
			<g id="kvg:06372-g7" kvg:element="人">
				<path id="kvg:06372-s8" kvg:type="㇒" d="M66.89,13.65c0.61,1.48,0.62,2.74,0.17,4.69C62.75,37.25,56.25,59.75,35,72.06"/>
				<path id="kvg:06372-s9" kvg:type="㇏" d="M67.48,35.3c3.44,5.35,14.02,18.2,20.68,25.05c2.56,2.63,4.98,5.19,8.34,6.73"/>
			</g>
		</g>
		<g id="kvg:06372-g8" kvg:element="卩" kvg:position="bottom">
			<path id="kvg:06372-s10" kvg:type="㇆" d="M 55.37,62.5 c 2.07,0.43 4.15,0.27 6.24,0.02 4.25,-0.6 9.07569,-1.56 11.91569,-1.96 1.73,-0.24 2.75307,0.650293 2.67,2.7 -0.06788,1.674851 -0.706325,6.70889 -1.805712,9.786419 -1.91763,5.36805 -5.003453,2.195501 -6.582995,0.607443"/>
			<path id="kvg:06372-s11" kvg:type="㇟/㇑" d="M 55.647172,63.56699 c 0.92,0.92 1.23,1.62 1.23,2.6 0,3.15 -0.188575,20.045895 -0.188575,22.895895 0,5.8 0.251375,6.307115 16.691403,6.307115 14.37,0 14.85,-2.97 14.85,-9.96"/>
		</g>
	</g>
</g>
</g>
<g id="kvg:StrokeNumbers_06372" style="font-size:8;fill:#808080">
	<text transform="matrix(1 0 0 1 5.50 38.38)">1</text>
	<text transform="matrix(1 0 0 1 16.50 13.50)">2</text>
	<text transform="matrix(1 0 0 1 3.25 70.50)">3</text>
	<text transform="matrix(1 0 0 1 44.71 20.12)">4</text>
	<text transform="matrix(1 0 0 1 75 19.48 )">5</text>
	<text transform="matrix(1 0 0 1 52.2 32.50)">6</text>
	<text transform="matrix(1 0 0 1 38.50 46.50)">7</text>
	<text transform="matrix(1 0 0 1 58.50 13.60)">8</text>
	<text transform="matrix(1 0 0 1 75.50 42.77)">9</text>
	<text transform="matrix(1 0 0 1 55.50 59.95)">10</text>
	<text transform="matrix(1 0 0 1 45.12 72.55)">11</text>
</g>
</svg>
