<?xml version="1.0" encoding="UTF-8"?>
<!--
Copyright (C) 2009/2010/2011 Ulrich Apel.
This work is distributed under the conditions of the Creative Commons 
Attribution-Share Alike 3.0 Licence. This means you are free:
* to Share - to copy, distribute and transmit the work
* to Remix - to adapt the work

Under the following conditions:
* Attribution. You must attribute the work by stating your use of KanjiVG in
  your own copyright header and linking to KanjiVG's website
  (http://kanjivg.tagaini.net)
* Share Alike. If you alter, transform, or build upon this work, you may
  distribute the resulting work only under the same or similar license to this
  one.

See http://creativecommons.org/licenses/by-sa/3.0/ for more details.
-->
<!DOCTYPE svg PUBLIC "-//W3C//DTD SVG 1.0//EN" "http://www.w3.org/TR/2001/REC-SVG-20010904/DTD/svg10.dtd" [
<!ATTLIST g
xmlns:kvg CDATA #FIXED "http://kanjivg.tagaini.net"
kvg:element CDATA #IMPLIED
kvg:variant CDATA #IMPLIED
kvg:partial CDATA #IMPLIED
kvg:original CDATA #IMPLIED
kvg:part CDATA #IMPLIED
kvg:number CDATA #IMPLIED
kvg:tradForm CDATA #IMPLIED
kvg:radicalForm CDATA #IMPLIED
kvg:position CDATA #IMPLIED
kvg:radical CDATA #IMPLIED
kvg:phon CDATA #IMPLIED >
<!ATTLIST path
xmlns:kvg CDATA #FIXED "http://kanjivg.tagaini.net"
kvg:type CDATA #IMPLIED >
]>
<svg xmlns="http://www.w3.org/2000/svg" width="109" height="109" viewBox="0 0 109 109">
<g id="kvg:StrokePaths_063d0" style="fill:none;stroke:#000000;stroke-width:3;stroke-linecap:round;stroke-linejoin:round;">
<g id="kvg:063d0" kvg:element="提">
	<g id="kvg:063d0-g1" kvg:element="扌" kvg:variant="true" kvg:original="手" kvg:position="left" kvg:radical="general">
		<path id="kvg:063d0-s1" kvg:type="㇐" d="M13,36.42c1.62,0.46,2.51,0.42,4.75,0.25c3.75-0.29,11.52-1.29,19.29-2.19c1.28-0.15,2.83-0.22,3.87,0.03"/>
		<path id="kvg:063d0-s2" kvg:type="㇚" d="M28.27,15.5c0.87,0.87,1.51,2.75,1.51,4.52c0,15.23-0.01,53.46-0.01,64.9c0,14.25-6.32,3.53-7.77,2"/>
		<path id="kvg:063d0-s3" kvg:type="㇀" d="M12.64,64.57c0.98,0.43,2.33,0.38,4.11-0.82c5-3.36,8.75-5.75,20-13.83"/>
	</g>
	<g id="kvg:063d0-g2" kvg:element="是" kvg:position="right" kvg:phon="是">
		<g id="kvg:063d0-g3" kvg:element="日" kvg:position="top">
			<path id="kvg:063d0-s4" kvg:type="㇑" d="M48.79,18.4c0.84,0.84,1.58,2.48,1.77,4.11c0.58,5.18,1.94,13.8,2.57,18.92c0.18,1.47,0.31,2.65,0.36,3.37"/>
			<path id="kvg:063d0-s5" kvg:type="㇕a" d="M50.97,19.59c5.14-0.89,18.23-2.48,23.9-3.11c4.26-0.47,5.39,0.31,4.8,4.63c-0.57,4.21-1.63,12.11-2.46,17.71c-0.25,1.71-0.48,3.2-0.67,4.31"/>
			<path id="kvg:063d0-s6" kvg:type="㇐a" d="M52.58,31.18c4.17-0.8,21.64-3.08,25.01-3.08"/>
			<path id="kvg:063d0-s7" kvg:type="㇐a" d="M54.38,42.56c6.87-0.93,13.96-1.63,21.5-2.07"/>
		</g>
		<g id="kvg:063d0-g4" kvg:element="疋" kvg:variant="true" kvg:position="bottom">
			<path id="kvg:063d0-s8" kvg:type="㇐" d="M41.03,55.58c2.19,0.78,4.72,0.45,6.98,0.23c8.7-0.83,26.17-3.14,36.75-3.94c2.16-0.16,4.33-0.07,6.46,0.39"/>
			<g id="kvg:063d0-g5" kvg:element="卜" kvg:original="ト">
				<path id="kvg:063d0-s9" kvg:type="㇑a" d="M64.72,55.87c0.83,0.83,1.3,2.25,1.3,3.1c0,0.83,0.05,18.78,0.05,24.55"/>
				<path id="kvg:063d0-s10" kvg:type="㇐b" d="M67.41,68.54c6.32-0.62,8.97-1.41,12.39-1.76c1.25-0.12,2.5-0.1,3.13,0.05"/>
			</g>
			<g id="kvg:063d0-g6" kvg:element="人">
				<path id="kvg:063d0-s11" kvg:type="㇒" d="M50.63,65.64c0.08,1.02-0.04,1.94-0.33,2.92c-1.25,4.19-5.04,10.71-11.03,18.74"/>
				<path id="kvg:063d0-s12" kvg:type="㇏" d="M49.5,76.5c2.62,0,21.32,12.03,32.36,15.57c2.14,0.68,4.51,1.43,7.66,2.2"/>
			</g>
		</g>
	</g>
</g>
</g>
<g id="kvg:StrokeNumbers_063d0" style="font-size:8;fill:#808080">
	<text transform="matrix(1 0 0 1 6.50 37.63)">1</text>
	<text transform="matrix(1 0 0 1 22.50 24.50)">2</text>
	<text transform="matrix(1 0 0 1 4.50 66.50)">3</text>
	<text transform="matrix(1 0 0 1 42.75 26.50)">4</text>
	<text transform="matrix(1 0 0 1 50.50 16.50)">5</text>
	<text transform="matrix(1 0 0 1 56.50 27.50)">6</text>
	<text transform="matrix(1 0 0 1 56.50 40.48)">7</text>
	<text transform="matrix(1 0 0 1 44.25 52.40)">8</text>
	<text transform="matrix(1 0 0 1 58.50 64.33)">9</text>
	<text transform="matrix(1 0 0 1 69.50 65.50)">10</text>
	<text transform="matrix(1 0 0 1 39.50 68.68)">11</text>
	<text transform="matrix(1 0 0 1 54.50 77.50)">12</text>
</g>
</svg>
