<?xml version="1.0" encoding="UTF-8"?>
<!--
Copyright (C) 2009/2010/2011 Ulrich Apel.
This work is distributed under the conditions of the Creative Commons 
Attribution-Share Alike 3.0 Licence. This means you are free:
* to Share - to copy, distribute and transmit the work
* to Remix - to adapt the work

Under the following conditions:
* Attribution. You must attribute the work by stating your use of KanjiVG in
  your own copyright header and linking to KanjiVG's website
  (http://kanjivg.tagaini.net)
* Share Alike. If you alter, transform, or build upon this work, you may
  distribute the resulting work only under the same or similar license to this
  one.

See http://creativecommons.org/licenses/by-sa/3.0/ for more details.
-->
<!DOCTYPE svg PUBLIC "-//W3C//DTD SVG 1.0//EN" "http://www.w3.org/TR/2001/REC-SVG-20010904/DTD/svg10.dtd" [
<!ATTLIST g
xmlns:kvg CDATA #FIXED "http://kanjivg.tagaini.net"
kvg:element CDATA #IMPLIED
kvg:variant CDATA #IMPLIED
kvg:partial CDATA #IMPLIED
kvg:original CDATA #IMPLIED
kvg:part CDATA #IMPLIED
kvg:number CDATA #IMPLIED
kvg:tradForm CDATA #IMPLIED
kvg:radicalForm CDATA #IMPLIED
kvg:position CDATA #IMPLIED
kvg:radical CDATA #IMPLIED
kvg:phon CDATA #IMPLIED >
<!ATTLIST path
xmlns:kvg CDATA #FIXED "http://kanjivg.tagaini.net"
kvg:type CDATA #IMPLIED >
]>
<svg xmlns="http://www.w3.org/2000/svg" width="109" height="109" viewBox="0 0 109 109">
<g id="kvg:StrokePaths_06434-Kaisho" style="fill:none;stroke:#000000;stroke-width:3;stroke-linecap:round;stroke-linejoin:round;">
<g id="kvg:06434-Kaisho" kvg:element="搴">
	<g id="kvg:06434-Kaisho-g1" kvg:position="top">
		<g id="kvg:06434-Kaisho-g2" kvg:element="宀">
			<path id="kvg:06434-Kaisho-s1" kvg:type="㇑a" d="M49.92,9c2.35,1.12,4.92,4.56,5.66,7.27"/>
			<g id="kvg:06434-Kaisho-g3" kvg:element="冖">
				<path id="kvg:06434-Kaisho-s2" kvg:type="㇔" d="M20.76,21.43c0,3.27-4.84,13.18-6.41,15.36"/>
				<path id="kvg:06434-Kaisho-s3" kvg:type="㇖b" d="M20.72,23.67c1.33,0.06,60.1-4.26,66.83-4.26c8.91,0,3.7,5.6-0.39,8.17"/>
			</g>
		</g>
		<g id="kvg:06434-Kaisho-g4" kvg:element="三" kvg:part="1">
			<g id="kvg:06434-Kaisho-g5" kvg:element="一">
				<path id="kvg:06434-Kaisho-s4" kvg:type="㇐" d="M26.64,33.87c1.24,0.33,3.51,0.37,4.74,0.33c8.47-0.23,33.21-3.85,44.97-3.85c2.06,0,3.3,0.16,4.33,0.33"/>
			</g>
		</g>
		<path id="kvg:06434-Kaisho-s5" kvg:type="㇑" d="M38.56,27.23c0.84,0.38,2.63,2.85,2.8,3.61c0.17,0.76,1.31,14.56,1.87,21.36"/>
		<path id="kvg:06434-Kaisho-s6" kvg:type="㇑" d="M65.88,23.97c0.85,0.38,1.82,2.85,1.68,3.61c-0.83,4.68-1.47,14.34-2.59,23.06"/>
		<g id="kvg:06434-Kaisho-g6" kvg:element="三" kvg:part="2">
			<g id="kvg:06434-Kaisho-g7" kvg:element="一">
				<path id="kvg:06434-Kaisho-s7" kvg:type="㇐" d="M26.64,43.76c1.24,0.32,3.53,0.33,4.76,0.32C39,44,65.5,40.75,76.58,40.45c2.07-0.06,3.31,0.15,4.35,0.31"/>
			</g>
			<g id="kvg:06434-Kaisho-g8" kvg:element="一">
				<path id="kvg:06434-Kaisho-s8" kvg:type="㇐" d="M17.01,54.19c1.87,0.47,5.31,0.62,7.17,0.47c15.07-1.16,44.57-4.41,62.54-5.42c3.11-0.17,4.99,0.23,6.54,0.46"/>
			</g>
		</g>
		<g id="kvg:06434-Kaisho-g9" kvg:element="八">
			<path id="kvg:06434-Kaisho-s9" kvg:type="㇒" d="M41.62,56.34c0.5,0.58-0.06,1.28-0.71,1.93C33.5,65.75,22,71.75,13,75.5"/>
			<path id="kvg:06434-Kaisho-s10" kvg:type="㇏" d="M68.92,51.07c8.05,5.96,16.41,13.17,22.28,16.04c2.27,1.11,3.09,1.7,5.29,2.06"/>
		</g>
	</g>
	<g id="kvg:06434-Kaisho-g10" kvg:element="手" kvg:position="bottom" kvg:radical="general">
		<path id="kvg:06434-Kaisho-s11" kvg:type="㇒" d="M67.49,58c0.08,0.21,0.16,0.53-0.15,0.83c-1.86,1.75-12.51,5.58-27.09,7.93"/>
		<path id="kvg:06434-Kaisho-s12" kvg:type="㇐" d="M30.88,74.36c0.94,0.32,2.66,0.4,3.6,0.32c11.77-0.89,24.68-2.79,42.77-4.13c1.56-0.12,4.1-0.13,4.88,0.03"/>
		<path id="kvg:06434-Kaisho-s13" kvg:type="㇐" d="M22.9,84.72c1.5,0.49,4.23,0.6,5.73,0.49c11.28-0.81,32.73-3.97,57.17-3.89c2.49,0.01,3.99,0.23,5.23,0.48"/>
		<path id="kvg:06434-Kaisho-s14" kvg:type="㇕v" d="M55.17,65.72c5.56,7.39,6.83,19.78,4.69,28.39c-1.97,7.91-6.36,5.39-8.92,1.34"/>
	</g>
</g>
</g>
<g id="kvg:StrokeNumbers_06434-Kaisho" style="font-size:8;fill:#808080">
	<text transform="matrix(1 0 0 1 44.50 10.50)">1</text>
	<text transform="matrix(1 0 0 1 14.50 22.50)">2</text>
	<text transform="matrix(1 0 0 1 22.50 20.50)">3</text>
	<text transform="matrix(1 0 0 1 20.50 35.50)">4</text>
	<text transform="matrix(1 0 0 1 31.75 30.50)">5</text>
	<text transform="matrix(1 0 0 1 57.50 28.50)">6</text>
	<text transform="matrix(1 0 0 1 20.50 45.50)">7</text>
	<text transform="matrix(1 0 0 1 9.50 54.50)">8</text>
	<text transform="matrix(1 0 0 1 27.50 63.50)">9</text>
	<text transform="matrix(1 0 0 1 79.50 59.50)">10</text>
	<text transform="matrix(1 0 0 1 54.50 59.50)">11</text>
	<text transform="matrix(1 0 0 1 32.50 72.50)">12</text>
	<text transform="matrix(1 0 0 1 12.50 85.50)">13</text>
	<text transform="matrix(1 0 0 1 47.50 71.50)">14</text>
</g>
</svg>
