<?xml version="1.0" encoding="UTF-8"?>
<!--
Copyright (C) 2009/2010/2011 Ulrich Apel.
This work is distributed under the conditions of the Creative Commons 
Attribution-Share Alike 3.0 Licence. This means you are free:
* to Share - to copy, distribute and transmit the work
* to Remix - to adapt the work

Under the following conditions:
* Attribution. You must attribute the work by stating your use of KanjiVG in
  your own copyright header and linking to KanjiVG's website
  (http://kanjivg.tagaini.net)
* Share Alike. If you alter, transform, or build upon this work, you may
  distribute the resulting work only under the same or similar license to this
  one.

See http://creativecommons.org/licenses/by-sa/3.0/ for more details.
-->
<!DOCTYPE svg PUBLIC "-//W3C//DTD SVG 1.0//EN" "http://www.w3.org/TR/2001/REC-SVG-20010904/DTD/svg10.dtd" [
<!ATTLIST g
xmlns:kvg CDATA #FIXED "http://kanjivg.tagaini.net"
kvg:element CDATA #IMPLIED
kvg:variant CDATA #IMPLIED
kvg:partial CDATA #IMPLIED
kvg:original CDATA #IMPLIED
kvg:part CDATA #IMPLIED
kvg:number CDATA #IMPLIED
kvg:tradForm CDATA #IMPLIED
kvg:radicalForm CDATA #IMPLIED
kvg:position CDATA #IMPLIED
kvg:radical CDATA #IMPLIED
kvg:phon CDATA #IMPLIED >
<!ATTLIST path
xmlns:kvg CDATA #FIXED "http://kanjivg.tagaini.net"
kvg:type CDATA #IMPLIED >
]>
<svg xmlns="http://www.w3.org/2000/svg" width="109" height="109" viewBox="0 0 109 109">
<g id="kvg:StrokePaths_0643e" style="fill:none;stroke:#000000;stroke-width:3;stroke-linecap:round;stroke-linejoin:round;">
<g id="kvg:0643e" kvg:element="搾">
	<g id="kvg:0643e-g1" kvg:element="扌" kvg:variant="true" kvg:original="手" kvg:position="left" kvg:radical="general">
		<path id="kvg:0643e-s1" kvg:type="㇐" d="M13.5,38.92c2.06,0.25,3.9,0.45,6.01,0.07c5.49-1,10.86-2.36,18.23-3.79c1.02-0.2,2.01-0.19,2.92-0.19"/>
		<path id="kvg:0643e-s2" kvg:type="㇚" d="M29.52,14c1.12,1.12,1.51,2.75,1.51,5.02c0,15.23-0.01,54.96-0.01,66.4c0,14.25-6.32,3.53-7.77,2"/>
		<path id="kvg:0643e-s3" kvg:type="㇀" d="M11.88,66.75c1.02,0.58,2.6,0.85,3.87-0.24c3.6-3.07,11.57-9.26,22.63-17.93"/>
	</g>
	<g id="kvg:0643e-g2" kvg:element="窄" kvg:position="right" kvg:phon="窄">
		<g id="kvg:0643e-g3" kvg:element="穴" kvg:variant="true" kvg:position="top">
			<g id="kvg:0643e-g4" kvg:element="宀" kvg:position="top">
				<path id="kvg:0643e-s4" kvg:type="㇑a" d="M66.98,11c0.95,0.95,1.25,2.5,1.25,3.95c0,3.05-0.06,4.24-0.06,7.02"/>
				<g id="kvg:0643e-g5" kvg:element="冖">
					<path id="kvg:0643e-s5" kvg:type="㇔" d="M49.12,24.62c0,3.76-2.62,14.11-3.81,16.62"/>
					<path id="kvg:0643e-s6" kvg:type="㇖b" d="M49.47,26.16c8.69-1.88,30.65-5.16,41.62-5.33c8.2-0.13,1.74,5.04-0.31,6.82"/>
				</g>
			</g>
			<g id="kvg:0643e-g6" kvg:element="八" kvg:variant="true" kvg:position="bottom">
				<path id="kvg:0643e-s7" kvg:type="㇒" d="M61.14,30.25c0.12,0.88-0.04,1.7-0.48,2.45C58,36.62,54,40.62,45.85,46.67"/>
				<path id="kvg:0643e-s8" kvg:type="㇟a/㇏" d="M73.62,24.37c0.69,0.69,0.97,1.88,0.97,3.02c0,2.81-0.03,5.05-0.03,6.96c0,2.9,1.56,3.96,9.22,3.96c4.83,0,8.76-0.58,9.44-0.9"/>
			</g>
		</g>
		<g id="kvg:0643e-g7" kvg:element="乍" kvg:position="bottom">
			<g id="kvg:0643e-g8" kvg:element="丿">
				<path id="kvg:0643e-s9" kvg:type="㇒" d="M65.35,40.75c0.11,1.15-0.17,2.19-0.68,3.21c-2.87,5.78-10.8,16.57-20.05,23.76"/>
			</g>
			<path id="kvg:0643e-s10" kvg:type="㇐" d="M62.58,52.14c1.49-0.02,2.81,0.11,4.31-0.05c7.93-0.85,17.02-3.28,23.47-4.33c1.57-0.25,3.31-0.66,4.9-0.38"/>
			<path id="kvg:0643e-s11" kvg:type="㇑" d="M69.14,54.61c0.75,0.75,1.02,2.02,1.02,3.47c0,0.73,0.06,22.93,0.06,35.05c0,3.14-0.06,5.57-0.08,6.75"/>
			<path id="kvg:0643e-s12" kvg:type="㇐b" d="M71.38,63.96c4.83-0.64,11.38-1.71,18.75-2.71c1.14-0.16,2.26-0.12,3.38,0.09"/>
			<path id="kvg:0643e-s13" kvg:type="㇐b" d="M71.64,76.68c3.33-0.38,11.64-1.42,19.37-2.24c1.4-0.15,2.84-0.47,4.24-0.13"/>
		</g>
	</g>
</g>
</g>
<g id="kvg:StrokeNumbers_0643e" style="font-size:8;fill:#808080">
	<text transform="matrix(1 0 0 1 6.75 39.13)">1</text>
	<text transform="matrix(1 0 0 1 20.50 15.50)">2</text>
	<text transform="matrix(1 0 0 1 3.75 70.50)">3</text>
	<text transform="matrix(1 0 0 1 59.25 10.50)">4</text>
	<text transform="matrix(1 0 0 1 42.50 25.63)">5</text>
	<text transform="matrix(1 0 0 1 51.75 22.50)">6</text>
	<text transform="matrix(1 0 0 1 53.25 34.55)">7</text>
	<text transform="matrix(1 0 0 1 67.50 32.50)">8</text>
	<text transform="matrix(1 0 0 1 57.50 45.50)">9</text>
	<text transform="matrix(1 0 0 1 69.75 48.13)">10</text>
	<text transform="matrix(1 0 0 1 60.50 61.50)">11</text>
	<text transform="matrix(1 0 0 1 73.50 60.13)">12</text>
	<text transform="matrix(1 0 0 1 73.50 73.55)">13</text>
</g>
</svg>
