<?xml version="1.0" encoding="UTF-8"?>
<!--
Copyright (C) 2009/2010/2011 Ulrich Apel.
This work is distributed under the conditions of the Creative Commons 
Attribution-Share Alike 3.0 Licence. This means you are free:
* to Share - to copy, distribute and transmit the work
* to Remix - to adapt the work

Under the following conditions:
* Attribution. You must attribute the work by stating your use of KanjiVG in
  your own copyright header and linking to KanjiVG's website
  (http://kanjivg.tagaini.net)
* Share Alike. If you alter, transform, or build upon this work, you may
  distribute the resulting work only under the same or similar license to this
  one.

See http://creativecommons.org/licenses/by-sa/3.0/ for more details.
-->
<!DOCTYPE svg PUBLIC "-//W3C//DTD SVG 1.0//EN" "http://www.w3.org/TR/2001/REC-SVG-20010904/DTD/svg10.dtd" [
<!ATTLIST g
xmlns:kvg CDATA #FIXED "http://kanjivg.tagaini.net"
kvg:element CDATA #IMPLIED
kvg:variant CDATA #IMPLIED
kvg:partial CDATA #IMPLIED
kvg:original CDATA #IMPLIED
kvg:part CDATA #IMPLIED
kvg:number CDATA #IMPLIED
kvg:tradForm CDATA #IMPLIED
kvg:radicalForm CDATA #IMPLIED
kvg:position CDATA #IMPLIED
kvg:radical CDATA #IMPLIED
kvg:phon CDATA #IMPLIED >
<!ATTLIST path
xmlns:kvg CDATA #FIXED "http://kanjivg.tagaini.net"
kvg:type CDATA #IMPLIED >
]>
<svg xmlns="http://www.w3.org/2000/svg" width="109" height="109" viewBox="0 0 109 109">
<g id="kvg:StrokePaths_06469-Kaisho" style="fill:none;stroke:#000000;stroke-width:3;stroke-linecap:round;stroke-linejoin:round;">
<g id="kvg:06469-Kaisho" kvg:element="摩">
	<g id="kvg:06469-Kaisho-g1" kvg:element="麻" kvg:position="tare" kvg:radical="nelson">
		<g id="kvg:06469-Kaisho-g2" kvg:element="广" kvg:position="tare">
			<path id="kvg:06469-Kaisho-s1" kvg:type="㇑a" d="M49.8,7.13c1.97,0.66,6.14,4.98,6.53,6.3"/>
			<g id="kvg:06469-Kaisho-g3" kvg:element="厂">
				<path id="kvg:06469-Kaisho-s2" kvg:type="㇐" d="M21.63,20.23c1.52,0.54,4.3,0.63,5.82,0.54c15.8-0.91,34.8-4.52,54.61-4.73c2.53-0.03,4.05,0.26,5.31,0.53"/>
				<path id="kvg:06469-Kaisho-s3" kvg:type="㇒" d="M26.5,23c0.04,1.57,0.09,4.05-0.08,6.31c-0.99,13.3-3.21,45.58-13.86,59.91"/>
			</g>
		</g>
		<g id="kvg:06469-Kaisho-g4" kvg:element="林">
			<g id="kvg:06469-Kaisho-g5" kvg:element="木">
				<path id="kvg:06469-Kaisho-s4" kvg:type="㇐" d="M30.13,33.59c0.49,0.16,1.98,0.14,3.29,0c4.6-0.48,12.32-1.66,17.25-1.98c1.31-0.08,2.3-0.1,3.12,0.06"/>
				<path id="kvg:06469-Kaisho-s5" kvg:type="㇑" d="M42.94,24.29c1.02,0.32,1.14,1.44,1.35,2.08s0,24.52-0.2,28.52"/>
				<path id="kvg:06469-Kaisho-s6" kvg:type="㇒" d="M42.96,33.77c-2.23,5.95-8.89,15.92-13.53,19.29"/>
				<path id="kvg:06469-Kaisho-s7" kvg:type="㇔" d="M46.97,37.97c2.76,1.32,5.72,3.97,7.3,6.28"/>
			</g>
			<g id="kvg:06469-Kaisho-g6" kvg:element="木">
				<path id="kvg:06469-Kaisho-s8" kvg:type="㇐" d="M59,30.47c0.5,0.16,1.58,0.24,2.91,0.16c6.34-0.38,13.34-1.38,23.01-2.62c1.32-0.17,2.48-0.16,3.31,0"/>
				<path id="kvg:06469-Kaisho-s9" kvg:type="㇑" d="M72.16,21.11c1.03,0.32,1.35,1.41,1.35,2.08c0,4.81,0.29,22.31,0.29,27.89"/>
				<path id="kvg:06469-Kaisho-s10" kvg:type="㇒" d="M73.2,29.94c-2.4,6.94-9.86,16.6-15.42,20.16"/>
				<path id="kvg:06469-Kaisho-s11" kvg:type="㇏" d="M74.12,30.73c4.78,5.3,12.42,12.09,16.3,14.19c1.1,0.59,1.72,1.01,2.65,1.21"/>
			</g>
		</g>
	</g>
	<g id="kvg:06469-Kaisho-g7" kvg:element="手" kvg:radical="tradit">
		<path id="kvg:06469-Kaisho-s12" kvg:type="㇒" d="M67.13,51.82c0.06,0.24,0.13,0.61-0.12,0.95c-1.5,2-10.14,6.39-21.96,9.07"/>
		<path id="kvg:06469-Kaisho-s13" kvg:type="㇐" d="M37.49,71.45c0.69,0.28,3.45,0.4,4.13,0.28c10.13-1.73,24.25-4.26,37.47-5.42c1.14-0.1,2.99-0.11,3.56,0.03"/>
		<path id="kvg:06469-Kaisho-s14" kvg:type="㇐" d="M32.38,83.52c0.69,0.28,1.94,0.35,2.63,0.28c15.34-1.64,41.27-5.22,54.41-5.29c1.14-0.01,1.83,0.13,2.4,0.27"/>
		<path id="kvg:06469-Kaisho-s15" kvg:type="㇕v" d="M57.47,59c7.28,7.25,8.28,19.25,4.61,36.29c-1.83,8.47-7.72,1.35-8.84,0.68"/>
	</g>
</g>
</g>
<g id="kvg:StrokeNumbers_06469-Kaisho" style="font-size:8;fill:#808080">
	<text transform="matrix(1 0 0 1 44.50 8.50)">1</text>
	<text transform="matrix(1 0 0 1 25.50 17.50)">2</text>
	<text transform="matrix(1 0 0 1 18.75 30.50)">3</text>
	<text transform="matrix(1 0 0 1 30.50 30.50)">4</text>
	<text transform="matrix(1 0 0 1 36.50 27.13)">5</text>
	<text transform="matrix(1 0 0 1 32.50 42.50)">6</text>
	<text transform="matrix(1 0 0 1 51.50 38.50)">7</text>
	<text transform="matrix(1 0 0 1 57.50 27.50)">8</text>
	<text transform="matrix(1 0 0 1 65.50 24.50)">9</text>
	<text transform="matrix(1 0 0 1 57.75 40.63)">10</text>
	<text transform="matrix(1 0 0 1 83.50 37.50)">11</text>
	<text transform="matrix(1 0 0 1 51.50 56.50)">12</text>
	<text transform="matrix(1 0 0 1 27.75 72.13)">13</text>
	<text transform="matrix(1 0 0 1 26.50 80.50)">14</text>
	<text transform="matrix(1 0 0 1 52.50 66.50)">15</text>
</g>
</svg>
