<?xml version="1.0" encoding="UTF-8"?>
<!--
Copyright (C) 2009/2010/2011 Ulrich Apel.
This work is distributed under the conditions of the Creative Commons 
Attribution-Share Alike 3.0 Licence. This means you are free:
* to Share - to copy, distribute and transmit the work
* to Remix - to adapt the work

Under the following conditions:
* Attribution. You must attribute the work by stating your use of KanjiVG in
  your own copyright header and linking to KanjiVG's website
  (http://kanjivg.tagaini.net)
* Share Alike. If you alter, transform, or build upon this work, you may
  distribute the resulting work only under the same or similar license to this
  one.

See http://creativecommons.org/licenses/by-sa/3.0/ for more details.
-->
<!DOCTYPE svg PUBLIC "-//W3C//DTD SVG 1.0//EN" "http://www.w3.org/TR/2001/REC-SVG-20010904/DTD/svg10.dtd" [
<!ATTLIST g
xmlns:kvg CDATA #FIXED "http://kanjivg.tagaini.net"
kvg:element CDATA #IMPLIED
kvg:variant CDATA #IMPLIED
kvg:partial CDATA #IMPLIED
kvg:original CDATA #IMPLIED
kvg:part CDATA #IMPLIED
kvg:number CDATA #IMPLIED
kvg:tradForm CDATA #IMPLIED
kvg:radicalForm CDATA #IMPLIED
kvg:position CDATA #IMPLIED
kvg:radical CDATA #IMPLIED
kvg:phon CDATA #IMPLIED >
<!ATTLIST path
xmlns:kvg CDATA #FIXED "http://kanjivg.tagaini.net"
kvg:type CDATA #IMPLIED >
]>
<svg xmlns="http://www.w3.org/2000/svg" width="109" height="109" viewBox="0 0 109 109">
<g id="kvg:StrokePaths_0647a" style="fill:none;stroke:#000000;stroke-width:3;stroke-linecap:round;stroke-linejoin:round;">
<g id="kvg:0647a" kvg:element="摺">
	<g id="kvg:0647a-g1" kvg:element="扌" kvg:variant="true" kvg:original="手" kvg:position="left" kvg:radical="general">
		<path id="kvg:0647a-s1" kvg:type="㇐" d="M12.25,40.5c2.29,0.27,4.27,0.4,6.63,0.07c4.56-0.62,10.74-1.57,17.25-2.75c1.25-0.23,2.51-0.27,3.78-0.24"/>
		<path id="kvg:0647a-s2" kvg:type="㇚" d="M28.52,14.33c1.2,1.2,1.76,2.67,1.76,4.77c0,14.56-0.01,61.69-0.01,66.65c0,14.25-6.32,3.53-7.77,2"/>
		<path id="kvg:0647a-s3" kvg:type="㇀" d="M11.75,69.27c2,0.86,2.99,0.94,5.72-0.94c1.61-1.11,12.2-9.02,19.03-14.33"/>
	</g>
	<g id="kvg:0647a-g2" kvg:element="習" kvg:position="right">
		<g id="kvg:0647a-g3" kvg:element="羽" kvg:position="top">
			<path id="kvg:0647a-s4" kvg:type="㇆" d="M42.09,19.24c2.18,0.5,4.32,0.49,6.42-0.05c3.38-0.67,7.57-1.93,9.86-2.43c2.4-0.53,4.65,0.36,4.65,2.97c0,2.46-0.02,17.89-0.02,28.4c0,8.12-5.93,0.93-6.61,0.28"/>
			<path id="kvg:0647a-s5" kvg:type="㇔" d="M43.78,25.77c3.18,1.02,7.96,4.46,8.75,6.06"/>
			<path id="kvg:0647a-s6" kvg:type="㇀" d="M41.75,44.5c1.25,1.09,3.28,0.06,4.53-0.88c0.73-0.55,5.64-3.95,8.76-6.6"/>
			<path id="kvg:0647a-s7" kvg:type="㇆" d="M70.77,17.83c2.1,0.47,4.17,0.48,6.23,0.05c3.67-0.63,9.17-1.73,11.76-2.2c2.82-0.5,4.75-0.25,4.75,3.22c0,2.61-0.02,21.19-0.02,31.69c0,7.9-5.93,0.93-6.61,0.28"/>
			<path id="kvg:0647a-s8" kvg:type="㇔" d="M72.18,25.81c2.93,1.31,7.33,4.02,8.06,6.06"/>
			<path id="kvg:0647a-s9" kvg:type="㇀" d="M71.5,45.62c1.5,0.63,2.36,0.84,3.64-0.26c0.76-0.65,6.29-5.14,8.86-8.08"/>
		</g>
		<g id="kvg:0647a-g4" kvg:position="bottom">
			<g id="kvg:0647a-g5" kvg:position="top">
				<path id="kvg:0647a-s10" kvg:type="㇔" d="M68.6,53.96c0,1.29-0.5,2.23-1.04,3.07c-1.68,2.34-2.31,3.09-7.36,7.26"/>
			</g>
			<g id="kvg:0647a-g6" kvg:element="日" kvg:position="bottom">
				<path id="kvg:0647a-s11" kvg:type="㇑" d="M50.54,67.15c0.9,1.05,1.33,2.25,1.31,3.61c0.59,4.74,1.53,12.36,2.22,18.36c0.23,2.04,0.44,3.9,0.59,5.39"/>
				<path id="kvg:0647a-s12" kvg:type="㇕a" d="M52.23,68.06c6.96-1.18,24.82-3.68,30.78-4.27c4.3-0.43,4.71,2.06,4.19,5.45c-0.76,5.06-1.69,11.01-2.75,18.87c-0.22,1.63-0.45,3.35-0.68,5.15"/>
				<path id="kvg:0647a-s13" kvg:type="㇐a" d="M54.04,79.58c6.51-0.94,24.48-2.62,31.16-2.95"/>
				<path id="kvg:0647a-s14" kvg:type="㇐a" d="M55.32,92.48c9.18-0.73,17.55-1.6,27.3-2"/>
			</g>
		</g>
	</g>
</g>
</g>
<g id="kvg:StrokeNumbers_0647a" style="font-size:8;fill:#808080">
	<text transform="matrix(1 0 0 1 5.50 41.50)">1</text>
	<text transform="matrix(1 0 0 1 19.50 11.50)">2</text>
	<text transform="matrix(1 0 0 1 4.50 70.50)">3</text>
	<text transform="matrix(1 0 0 1 36.50 16.15)">4</text>
	<text transform="matrix(1 0 0 1 36.50 28.50)">5</text>
	<text transform="matrix(1 0 0 1 42.50 40.50)">6</text>
	<text transform="matrix(1 0 0 1 67.50 15.00)">7</text>
	<text transform="matrix(1 0 0 1 66.50 26.60)">8</text>
	<text transform="matrix(1 0 0 1 67.50 42.50)">9</text>
	<text transform="matrix(1 0 0 1 71.25 57.95)">10</text>
	<text transform="matrix(1 0 0 1 40.50 79.13)">11</text>
	<text transform="matrix(1 0 0 1 50.50 64.50)">12</text>
	<text transform="matrix(1 0 0 1 56.50 76.50)">13</text>
	<text transform="matrix(1 0 0 1 57.75 89.50)">14</text>
</g>
</svg>
