<?xml version="1.0" encoding="UTF-8"?>
<!--
Copyright (C) 2009/2010/2011 Ulrich Apel.
This work is distributed under the conditions of the Creative Commons 
Attribution-Share Alike 3.0 Licence. This means you are free:
* to Share - to copy, distribute and transmit the work
* to Remix - to adapt the work

Under the following conditions:
* Attribution. You must attribute the work by stating your use of KanjiVG in
  your own copyright header and linking to KanjiVG's website
  (http://kanjivg.tagaini.net)
* Share Alike. If you alter, transform, or build upon this work, you may
  distribute the resulting work only under the same or similar license to this
  one.

See http://creativecommons.org/licenses/by-sa/3.0/ for more details.
-->
<!DOCTYPE svg PUBLIC "-//W3C//DTD SVG 1.0//EN" "http://www.w3.org/TR/2001/REC-SVG-20010904/DTD/svg10.dtd" [
<!ATTLIST g
xmlns:kvg CDATA #FIXED "http://kanjivg.tagaini.net"
kvg:element CDATA #IMPLIED
kvg:variant CDATA #IMPLIED
kvg:partial CDATA #IMPLIED
kvg:original CDATA #IMPLIED
kvg:part CDATA #IMPLIED
kvg:number CDATA #IMPLIED
kvg:tradForm CDATA #IMPLIED
kvg:radicalForm CDATA #IMPLIED
kvg:position CDATA #IMPLIED
kvg:radical CDATA #IMPLIED
kvg:phon CDATA #IMPLIED >
<!ATTLIST path
xmlns:kvg CDATA #FIXED "http://kanjivg.tagaini.net"
kvg:type CDATA #IMPLIED >
]>
<svg xmlns="http://www.w3.org/2000/svg" width="109" height="109" viewBox="0 0 109 109">
<g id="kvg:StrokePaths_0649e" style="fill:none;stroke:#000000;stroke-width:3;stroke-linecap:round;stroke-linejoin:round;">
<g id="kvg:0649e" kvg:element="撞">
	<g id="kvg:0649e-g1" kvg:element="扌" kvg:variant="true" kvg:original="手" kvg:position="left" kvg:radical="general">
		<path id="kvg:0649e-s1" kvg:type="㇐" d="M12,39.42c2.08,0.25,1.27,0.55,3.5,0.25c5.5-0.75,15.5-3,24.67-4.17"/>
		<path id="kvg:0649e-s2" kvg:type="㇚" d="M28.27,15c0.48,0.92,1.67,2.49,1.76,5.52c0.4,14.55,0.24,62.94,0.24,67.9c0,14.25-6.32,3.53-7.77,2"/>
		<path id="kvg:0649e-s3" kvg:type="㇀" d="M11,68.64c3,0.86,4.84,1.22,7.79-0.71c1.74-1.14,12.35-8.79,19.71-14.27"/>
	</g>
	<g id="kvg:0649e-g2" kvg:element="童" kvg:position="right">
		<g id="kvg:0649e-g3" kvg:element="立" kvg:position="top">
			<g id="kvg:0649e-g4" kvg:element="亠" kvg:position="top">
				<path id="kvg:0649e-s4" kvg:type="㇑a" d="M66.61,11.75c0.79,0.66,1.18,0.66,1.18,2.18c0,1.53,0,4.15,0,8.3"/>
				<path id="kvg:0649e-s5" kvg:type="㇐" d="M46.61,23.94c1.09,0.29,2.36,0.33,3.44,0.29c6.13-0.25,27.94-3.15,37.21-3.36c1.81-0.04,2.9,0.14,3.8,0.28"/>
			</g>
			<g id="kvg:0649e-g5" kvg:position="bottom">
				<path id="kvg:0649e-s6" kvg:type="㇔" d="M53.85,27.7c3.28,4.19,4.78,7.88,5.08,10.64"/>
				<path id="kvg:0649e-s7" kvg:type="㇒" d="M81.4,24.92c0.35,1.08,0.19,2.15,0.07,2.49c-1.22,3.34-4.18,8.53-5.32,10.37"/>
				<path id="kvg:0649e-s8" kvg:type="㇐" d="M42.72,41.76c1.15,0.34,2.49,0.46,3.63,0.34c12.9-1.35,32.44-2.66,46.91-3.36c1.91-0.09,3.06,0.16,4.01,0.33"/>
			</g>
		</g>
		<g id="kvg:0649e-g6" kvg:element="里" kvg:position="bottom">
			<path id="kvg:0649e-s9" kvg:type="㇑" d="M49.45,51.04c0.27,0.36,0.78,1.61,0.93,2.07c1.22,3.76,2.78,14.26,3.54,21.28"/>
			<path id="kvg:0649e-s10" kvg:type="㇕a" d="M51.21,52.54c9.45-0.95,25.65-3.05,32.7-3.85c2.59-0.29,4.33,2.23,4.2,3.27c-0.49,3.79-2.29,11.41-4.12,19.47"/>
			<path id="kvg:0649e-s11" kvg:type="㇐a" d="M52.98,62.28c3.08-0.37,30.12-2.59,32.66-2.74"/>
			<path id="kvg:0649e-s12" kvg:type="㇐a" d="M53.99,72.42c6.8-0.4,20.62-2.13,30.01-2.79"/>
			<path id="kvg:0649e-s13" kvg:type="㇑a" d="M66.86,51.79c0.56,0.53,0.97,1.52,1,2.82c0.19,9.48,0.07,36.22,0.07,38.86"/>
			<path id="kvg:0649e-s14" kvg:type="㇐" d="M49.33,84.1c0.71,0.33,2.01,0.37,2.72,0.33c7.39-0.38,23.64-2.7,32.78-2.77c1.18-0.01,1.89,0.16,2.49,0.32"/>
			<path id="kvg:0649e-s15" kvg:type="㇐" d="M41.99,95.55c1.06,0.43,3,0.5,4.05,0.43c11-0.72,30.96-2.23,45.98-2.22c1.76,0,2.82,0.2,3.7,0.42"/>
		</g>
	</g>
</g>
</g>
<g id="kvg:StrokeNumbers_0649e" style="font-size:8;fill:#808080">
	<text transform="matrix(1 0 0 1 5.50 38.50)">1</text>
	<text transform="matrix(1 0 0 1 19.50 15.50)">2</text>
	<text transform="matrix(1 0 0 1 3.50 71.50)">3</text>
	<text transform="matrix(1 0 0 1 57.50 11.50)">4</text>
	<text transform="matrix(1 0 0 1 44.50 20.50)">5</text>
	<text transform="matrix(1 0 0 1 48.50 32.50)">6</text>
	<text transform="matrix(1 0 0 1 73.50 31.68)">7</text>
	<text transform="matrix(1 0 0 1 43.50 38.50)">8</text>
	<text transform="matrix(1 0 0 1 44.25 61.50)">9</text>
	<text transform="matrix(1 0 0 1 53.50 49.50)">10</text>
	<text transform="matrix(1 0 0 1 55.50 59.50)">11</text>
	<text transform="matrix(1 0 0 1 56.50 69.50)">12</text>
	<text transform="matrix(1 0 0 1 70.50 56.50)">13</text>
	<text transform="matrix(1 0 0 1 39.50 82.50)">14</text>
	<text transform="matrix(1 0 0 1 38.50 92.50)">15</text>
</g>
</svg>
