<?xml version="1.0" encoding="UTF-8"?>
<!--
Copyright (C) 2009/2010/2011 Ulrich Apel.
This work is distributed under the conditions of the Creative Commons 
Attribution-Share Alike 3.0 Licence. This means you are free:
* to Share - to copy, distribute and transmit the work
* to Remix - to adapt the work

Under the following conditions:
* Attribution. You must attribute the work by stating your use of KanjiVG in
  your own copyright header and linking to KanjiVG's website
  (http://kanjivg.tagaini.net)
* Share Alike. If you alter, transform, or build upon this work, you may
  distribute the resulting work only under the same or similar license to this
  one.

See http://creativecommons.org/licenses/by-sa/3.0/ for more details.
-->
<!DOCTYPE svg PUBLIC "-//W3C//DTD SVG 1.0//EN" "http://www.w3.org/TR/2001/REC-SVG-20010904/DTD/svg10.dtd" [
<!ATTLIST g
xmlns:kvg CDATA #FIXED "http://kanjivg.tagaini.net"
kvg:element CDATA #IMPLIED
kvg:variant CDATA #IMPLIED
kvg:partial CDATA #IMPLIED
kvg:original CDATA #IMPLIED
kvg:part CDATA #IMPLIED
kvg:number CDATA #IMPLIED
kvg:tradForm CDATA #IMPLIED
kvg:radicalForm CDATA #IMPLIED
kvg:position CDATA #IMPLIED
kvg:radical CDATA #IMPLIED
kvg:phon CDATA #IMPLIED >
<!ATTLIST path
xmlns:kvg CDATA #FIXED "http://kanjivg.tagaini.net"
kvg:type CDATA #IMPLIED >
]>
<svg xmlns="http://www.w3.org/2000/svg" width="109" height="109" viewBox="0 0 109 109">
<g id="kvg:StrokePaths_065b9-Kaisho" style="fill:none;stroke:#000000;stroke-width:3;stroke-linecap:round;stroke-linejoin:round;">
<g id="kvg:065b9-Kaisho" kvg:element="方" kvg:radical="general">
	<g id="kvg:065b9-Kaisho-g1" kvg:element="亠" kvg:position="top">
		<path id="kvg:065b9-Kaisho-s1" kvg:type="㇑a" d="M48,11.25c3.78,1.87,9.3,9.16,9.98,12.83"/>
		<path id="kvg:065b9-Kaisho-s2" kvg:type="㇐" d="M16,32.11c1.5,0.39,4.68,0.69,6.06,0.55c11.19-1.16,52.44-4.91,67.64-5.7c2.35-0.12,3.55,0.05,5.3,0.7"/>
	</g>
	<g id="kvg:065b9-Kaisho-g2" kvg:position="bottom">
		<path id="kvg:065b9-Kaisho-s3" kvg:type="㇆a" d="M53.25,47c6.5,1,13.75,1.2,18.99,0.61c3.41-0.38,4.36,1.71,4.17,4.36c-0.5,7-12.27,35.66-16.54,41.35c-4.62,6.17-7.72-0.24-9.09-1.07"/>
		<path id="kvg:065b9-Kaisho-s4" kvg:type="㇒" d="M54.5,32.75c0.5,1.5,0.4,3.19-0.19,4.87C50.25,49.25,38.5,72.75,20.25,83.75"/>
	</g>
</g>
</g>
<g id="kvg:StrokeNumbers_065b9-Kaisho" style="font-size:8;fill:#808080">
	<text transform="matrix(1 0 0 1 42.75 12.00)">1</text>
	<text transform="matrix(1 0 0 1 8.50 32.50)">2</text>
	<text transform="matrix(1 0 0 1 58.50 45.13)">3</text>
	<text transform="matrix(1 0 0 1 45.50 39.50)">4</text>
</g>
</svg>
