<?xml version="1.0" encoding="UTF-8"?>
<!--
Copyright (C) 2009/2010/2011 Ulrich Apel.
This work is distributed under the conditions of the Creative Commons 
Attribution-Share Alike 3.0 Licence. This means you are free:
* to Share - to copy, distribute and transmit the work
* to Remix - to adapt the work

Under the following conditions:
* Attribution. You must attribute the work by stating your use of KanjiVG in
  your own copyright header and linking to KanjiVG's website
  (http://kanjivg.tagaini.net)
* Share Alike. If you alter, transform, or build upon this work, you may
  distribute the resulting work only under the same or similar license to this
  one.

See http://creativecommons.org/licenses/by-sa/3.0/ for more details.
-->
<!DOCTYPE svg PUBLIC "-//W3C//DTD SVG 1.0//EN" "http://www.w3.org/TR/2001/REC-SVG-20010904/DTD/svg10.dtd" [
<!ATTLIST g
xmlns:kvg CDATA #FIXED "http://kanjivg.tagaini.net"
kvg:element CDATA #IMPLIED
kvg:variant CDATA #IMPLIED
kvg:partial CDATA #IMPLIED
kvg:original CDATA #IMPLIED
kvg:part CDATA #IMPLIED
kvg:number CDATA #IMPLIED
kvg:tradForm CDATA #IMPLIED
kvg:radicalForm CDATA #IMPLIED
kvg:position CDATA #IMPLIED
kvg:radical CDATA #IMPLIED
kvg:phon CDATA #IMPLIED >
<!ATTLIST path
xmlns:kvg CDATA #FIXED "http://kanjivg.tagaini.net"
kvg:type CDATA #IMPLIED >
]>
<svg xmlns="http://www.w3.org/2000/svg" width="109" height="109" viewBox="0 0 109 109">
<g id="kvg:StrokePaths_065b7" style="fill:none;stroke:#000000;stroke-width:3;stroke-linecap:round;stroke-linejoin:round;">
<g id="kvg:065b7" kvg:element="斷">
	<g id="kvg:065b7-g1" kvg:position="left">
		<g id="kvg:065b7-g2" kvg:element="幺" kvg:position="left">
			<path id="kvg:065b7-s1" kvg:type="㇜" d="M27.76,13.37c0.14,0.83,0.26,1.54-0.07,2.36c-1.44,3.62-4.34,8.4-5.71,10.35c-0.28,0.4-0.27,1.93,0,2.09c1.44,0.83,4.02,1.73,5.25,3.25"/>
			<path id="kvg:065b7-s2" kvg:type="㇜" d="M33.91,20.61c0.14,0.38,0.21,1.66,0,2.04c-2.88,5.23-6.91,11.6-11.58,18.26c-0.55,0.78-0.27,1.78,0.27,1.52c2.29-1.07,8.02-2.82,10.97-3.84"/>
			<path id="kvg:065b7-s3" kvg:type="㇔" d="M31.78,35.7c1.1,1.21,2.84,4.96,3.11,6.84"/>
		</g>
		<g id="kvg:065b7-g3" kvg:element="幺" kvg:position="right">
			<path id="kvg:065b7-s4" kvg:type="㇜" d="M46.51,14.87c0.14,0.83,0.26,1.54-0.07,2.36c-1.44,3.62-4.34,7.4-5.71,9.35c-0.28,0.4-0.27,1.93,0,2.09c1.44,0.83,4.02,1.23,5.25,2.75"/>
			<path id="kvg:065b7-s5" kvg:type="㇜" d="M52.16,21.15c0.14,0.38,0.21,1.66,0,2.04C49.28,28.43,45.5,33,41.08,39.95c-0.51,0.8-0.27,1.78,0.27,1.52c2.29-1.07,8.02-2.32,10.97-3.34"/>
			<path id="kvg:065b7-s6" kvg:type="㇔" d="M51.26,34.7c1.03,1.3,2.66,5.33,2.91,7.34"/>
		</g>
		<path id="kvg:065b7-s7" kvg:type="㇐" d="M15.85,51.27C23.5,51,43.5,48.5,50.96,48.39c1.56-0.02,2.5,0.18,3.29,0.37"/>
		<g id="kvg:065b7-g4" kvg:element="幺" kvg:position="left">
			<path id="kvg:065b7-s8" kvg:type="㇜" d="M27.76,55.12c0.14,0.83,0.26,1.54-0.07,2.37c-1.44,3.62-3.84,6.9-5.21,8.85c-0.28,0.4-0.31,1.54,0,1.59c2.26,0.34,5.76,1.34,7.75,2.75"/>
			<path id="kvg:065b7-s9" kvg:type="㇜" d="M34.91,60.4c0.14,0.42,0.21,1.81,0,2.22c-2.88,5.7-7.66,12.12-12.58,19.44c-0.57,0.84,0.23,1.39,0.77,1.11c2.29-1.16,6.52-2.62,9.47-3.73"/>
			<path id="kvg:065b7-s10" kvg:type="㇔" d="M32.51,76.7c1.03,1.34,2.66,5.51,2.91,7.59"/>
		</g>
		<g id="kvg:065b7-g5" kvg:element="幺" kvg:position="right">
			<path id="kvg:065b7-s11" kvg:type="㇜" d="M46.76,53.37c0.14,0.7,0.26,1.3-0.07,1.99c-1.44,3.05-4.34,7.5-5.71,9.14c-0.28,0.33-0.27,1.62,0,1.76c1.44,0.7,5.02,2.38,6.25,3.66"/>
			<path id="kvg:065b7-s12" kvg:type="㇜" d="M53.1,59.65c0.17,0.39,0.26,2.7,0,3.08c-3.63,5.34-8.56,11.77-12.71,18.16c-0.56,0.86-0.35,1.3,0.35,1.04c2.89-1.09,8.62-2.89,12.33-3.93"/>
			<path id="kvg:065b7-s13" kvg:type="㇔" d="M52.21,74.2c0.98,1.47,2.52,6.05,2.77,8.34"/>
		</g>
		<path id="kvg:065b7-s14" kvg:type="㇄" d="M13.87,20.75c1.09,0.5,1.74,2.25,1.96,3.25c0.22,1-0.22,60.25-0.22,66.5c0,2.25,0.64,2.5,2.39,2S46.5,89,50,89c2.5,0,4.75,0,6,0.5"/>
	</g>
	<g id="kvg:065b7-g6" kvg:element="斤" kvg:position="right" kvg:radical="tradit">
		<path id="kvg:065b7-s15" kvg:type="㇒" d="M88.81,14c0.05,0.37,0.23,1.09-0.11,1.48c-4.67,5.43-10.65,9.54-20.51,14.21"/>
		<path id="kvg:065b7-s16" kvg:type="㇒" d="M65.78,28.83c0.65,2,0.64,3.92,0.64,6.1c0,21.57-1.42,45.82-9.37,58.34"/>
		<path id="kvg:065b7-s17" kvg:type="㇐" d="M66.59,47.35c0.44,0.2,2.13,0.29,3.29,0.12c6.61-0.97,15.36-1.97,22.46-3.21c1.15-0.2,3.17-0.2,3.9,0"/>
		<path id="kvg:065b7-s18" kvg:type="㇑" d="M80.68,48.98c0.94,0.63,1.5,2.84,1.69,4.1c0.19,1.26,0,38.54-0.19,46.42"/>
	</g>
</g>
</g>
<g id="kvg:StrokeNumbers_065b7" style="font-size:8;fill:#808080">
	<text transform="matrix(1 0 0 1 21.75 12.38)">1</text>
	<text transform="matrix(1 0 0 1 32.25 16.80)">2</text>
	<text transform="matrix(1 0 0 1 33.00 35.23)">3</text>
	<text transform="matrix(1 0 0 1 43.25 12.40)">4</text>
	<text transform="matrix(1 0 0 1 52.25 19.08)">5</text>
	<text transform="matrix(1 0 0 1 51.50 33.00)">6</text>
	<text transform="matrix(1 0 0 1 19.25 49.18)">7</text>
	<text transform="matrix(1 0 0 1 20.50 58.50)">8</text>
	<text transform="matrix(1 0 0 1 32.50 57.50)">9</text>
	<text transform="matrix(1 0 0 1 32.50 75.50)">10</text>
	<text transform="matrix(1 0 0 1 38.50 56.13)">11</text>
	<text transform="matrix(1 0 0 1 50.50 57.55)">12</text>
	<text transform="matrix(1 0 0 1 52.50 73.50)">13</text>
	<text transform="matrix(1 0 0 1 6.75 16.90)">14</text>
	<text transform="matrix(1 0 0 1 76.50 14.50)">15</text>
	<text transform="matrix(1 0 0 1 56.50 37.50)">16</text>
	<text transform="matrix(1 0 0 1 70.50 43.50)">17</text>
	<text transform="matrix(1 0 0 1 71.50 57.50)">18</text>
</g>
</svg>
