<?xml version="1.0" encoding="UTF-8"?>
<!--
Copyright (C) 2009/2010/2011 Ulrich Apel.
This work is distributed under the conditions of the Creative Commons 
Attribution-Share Alike 3.0 Licence. This means you are free:
* to Share - to copy, distribute and transmit the work
* to Remix - to adapt the work

Under the following conditions:
* Attribution. You must attribute the work by stating your use of KanjiVG in
  your own copyright header and linking to KanjiVG's website
  (http://kanjivg.tagaini.net)
* Share Alike. If you alter, transform, or build upon this work, you may
  distribute the resulting work only under the same or similar license to this
  one.

See http://creativecommons.org/licenses/by-sa/3.0/ for more details.
-->
<!DOCTYPE svg PUBLIC "-//W3C//DTD SVG 1.0//EN" "http://www.w3.org/TR/2001/REC-SVG-20010904/DTD/svg10.dtd" [
<!ATTLIST g
xmlns:kvg CDATA #FIXED "http://kanjivg.tagaini.net"
kvg:element CDATA #IMPLIED
kvg:variant CDATA #IMPLIED
kvg:partial CDATA #IMPLIED
kvg:original CDATA #IMPLIED
kvg:part CDATA #IMPLIED
kvg:number CDATA #IMPLIED
kvg:tradForm CDATA #IMPLIED
kvg:radicalForm CDATA #IMPLIED
kvg:position CDATA #IMPLIED
kvg:radical CDATA #IMPLIED
kvg:phon CDATA #IMPLIED >
<!ATTLIST path
xmlns:kvg CDATA #FIXED "http://kanjivg.tagaini.net"
kvg:type CDATA #IMPLIED >
]>
<svg xmlns="http://www.w3.org/2000/svg" width="109" height="109" viewBox="0 0 109 109">
<g id="kvg:StrokePaths_065b0-Kaisho" style="fill:none;stroke:#000000;stroke-width:3;stroke-linecap:round;stroke-linejoin:round;">
<g id="kvg:065b0-Kaisho" kvg:element="新">
	<g id="kvg:065b0-Kaisho-g1" kvg:position="left">
		<g id="kvg:065b0-Kaisho-g2" kvg:element="立">
			<g id="kvg:065b0-Kaisho-g3" kvg:element="亠" kvg:position="top">
				<path id="kvg:065b0-Kaisho-s1" kvg:type="㇑a" d="M31.31,13.01c3.19,1.49,6,4.99,7.06,8.19"/>
				<path id="kvg:065b0-Kaisho-s2" kvg:type="㇐" d="M18.57,28.94c0.59,0.11,1.29,0.14,1.87,0.03c2.39-0.44,17.35-2.72,28.65-3.47c0.98-0.07,1.57-0.03,2.07,0.02"/>
			</g>
			<g id="kvg:065b0-Kaisho-g4" kvg:position="bottom">
				<path id="kvg:065b0-Kaisho-s3" kvg:type="㇔" d="M23.89,34.06c2.8,4.85,3.32,8.13,3.58,11.43"/>
				<path id="kvg:065b0-Kaisho-s4" kvg:type="㇒" d="M45.44,29.67c0.31,1.08,0.3,2.33,0.14,2.77c-1.83,4.81-4.69,10.95-5.95,13.42"/>
				<path id="kvg:065b0-Kaisho-s5" kvg:type="㇐" d="M14.42,50.95c0.74,0.13,3.61,0.13,4.34,0.03c5.24-0.73,23.99-3.23,31.65-3.24c1.24,0,2.97-0.04,3.59,0.01"/>
			</g>
		</g>
		<g id="kvg:065b0-Kaisho-g5" kvg:element="木">
			<path id="kvg:065b0-Kaisho-s6" kvg:type="㇐" d="M17.26,63.67c0.59,0.22,2.18,0.8,3.76,0.68c7.48-0.59,20.23-2.84,27.96-3.51c1.58-0.14,1.98-0.23,2.97,0"/>
			<path id="kvg:065b0-Kaisho-s7" kvg:type="㇑" d="M34,50.25c1.13,0.45,1.8,2.03,2.03,2.93C36.39,54.64,35.8,88.19,35.8,89c0,11.5-5.43,2.88-6.3,2"/>
			<path id="kvg:065b0-Kaisho-s8" kvg:type="㇒" d="M28,72.84c-1.72,4.33-6.18,10.46-9.75,12.91"/>
			<path id="kvg:065b0-Kaisho-s9" kvg:type="㇔/㇏" d="M38.59,68c7.34,3.9,8.72,6.53,9.4,9.18"/>
		</g>
	</g>
	<g id="kvg:065b0-Kaisho-g6" kvg:element="斤" kvg:position="right" kvg:radical="general">
		<path id="kvg:065b0-Kaisho-s10" kvg:type="㇒" d="M82.74,17.44c0.05,0.44,0.21,1.26-0.11,1.75C78.56,25.34,72,30.5,61.94,35.95"/>
		<path id="kvg:065b0-Kaisho-s11" kvg:type="㇒" d="M60.2,35.64c0.8,1.55,0.74,3.03,0.78,4.71C61.5,59.75,59.5,79,51.75,87.5"/>
		<path id="kvg:065b0-Kaisho-s12" kvg:type="㇐" d="M63.64,47.36c0.41,0.17,2.33,0.72,3.41,0.52c6-1.09,19.43-3.26,26.24-3.8c1.09-0.09,2.99-0.17,3.67,0"/>
		<path id="kvg:065b0-Kaisho-s13" kvg:type="㇑" d="M80.32,48.54c0.88,0.55,1.41,2.46,1.59,3.55c0.18,1.09,0.27,36.83,0.09,43.66"/>
	</g>
</g>
</g>
<g id="kvg:StrokeNumbers_065b0-Kaisho" style="font-size:8;fill:#808080">
	<text transform="matrix(1 0 0 1 26.25 13.50)">1</text>
	<text transform="matrix(1 0 0 1 10.50 29.50)">2</text>
	<text transform="matrix(1 0 0 1 17.50 39.50)">3</text>
	<text transform="matrix(1 0 0 1 37.50 35.50)">4</text>
	<text transform="matrix(1 0 0 1 6.75 52.63)">5</text>
	<text transform="matrix(1 0 0 1 9.50 66.50)">6</text>
	<text transform="matrix(1 0 0 1 28.50 59.50)">7</text>
	<text transform="matrix(1 0 0 1 21.50 73.50)">8</text>
	<text transform="matrix(1 0 0 1 45.50 70.50)">9</text>
	<text transform="matrix(1 0 0 1 71.50 18.50)">10</text>
	<text transform="matrix(1 0 0 1 50.50 42.13)">11</text>
	<text transform="matrix(1 0 0 1 64.50 44.50)">12</text>
	<text transform="matrix(1 0 0 1 71.50 56.50)">13</text>
</g>
</svg>
