<?xml version="1.0" encoding="UTF-8"?>
<!--
Copyright (C) 2009/2010/2011 Ulrich Apel.
This work is distributed under the conditions of the Creative Commons 
Attribution-Share Alike 3.0 Licence. This means you are free:
* to Share - to copy, distribute and transmit the work
* to Remix - to adapt the work

Under the following conditions:
* Attribution. You must attribute the work by stating your use of KanjiVG in
  your own copyright header and linking to KanjiVG's website
  (http://kanjivg.tagaini.net)
* Share Alike. If you alter, transform, or build upon this work, you may
  distribute the resulting work only under the same or similar license to this
  one.

See http://creativecommons.org/licenses/by-sa/3.0/ for more details.
-->
<!DOCTYPE svg PUBLIC "-//W3C//DTD SVG 1.0//EN" "http://www.w3.org/TR/2001/REC-SVG-20010904/DTD/svg10.dtd" [
<!ATTLIST g
xmlns:kvg CDATA #FIXED "http://kanjivg.tagaini.net"
kvg:element CDATA #IMPLIED
kvg:variant CDATA #IMPLIED
kvg:partial CDATA #IMPLIED
kvg:original CDATA #IMPLIED
kvg:part CDATA #IMPLIED
kvg:number CDATA #IMPLIED
kvg:tradForm CDATA #IMPLIED
kvg:radicalForm CDATA #IMPLIED
kvg:position CDATA #IMPLIED
kvg:radical CDATA #IMPLIED
kvg:phon CDATA #IMPLIED >
<!ATTLIST path
xmlns:kvg CDATA #FIXED "http://kanjivg.tagaini.net"
kvg:type CDATA #IMPLIED >
]>
<svg xmlns="http://www.w3.org/2000/svg" width="109" height="109" viewBox="0 0 109 109">
<g id="kvg:StrokePaths_065c4" style="fill:none;stroke:#000000;stroke-width:3;stroke-linecap:round;stroke-linejoin:round;">
<g id="kvg:065c4" kvg:element="旄">
	<g id="kvg:065c4-g1" kvg:element="方" kvg:position="left" kvg:radical="general">
		<g id="kvg:065c4-g2" kvg:element="亠" kvg:position="top">
			<path id="kvg:065c4-s1" kvg:type="㇑a" d="M27.64,13.75c0.65,0.61,1.73,2.96,1.73,4.16c0,4.45-0.21,10.38-0.09,14.15"/>
			<path id="kvg:065c4-s2" kvg:type="㇐" d="M10.5,33.71c0.97,0.04,4.37,0.27,5.31,0.21c7.65-0.45,21.99-3.11,27.48-3.52c1.59-0.12,2.44-0.14,4.21-0.14"/>
		</g>
		<g id="kvg:065c4-g3" kvg:position="bottom">
			<path id="kvg:065c4-s3" kvg:type="㇆a" d="M29.34,43c3.7,1.12,7.2,1.02,11.52,2.56c2.12,0.75,2.82,1.91,2.69,4.89c-0.32,7.86-8.03,36.74-12.97,41.73c-3.54,3.57-5.54-0.83-6.44-1.76"/>
			<path id="kvg:065c4-s4" kvg:type="㇒" d="M28.53,36c0.05,1.22,0.12,3.15-0.1,4.9c-1.62,12.92-6.64,33.56-17.29,46.85"/>
		</g>
	</g>
	<g id="kvg:065c4-g4" kvg:position="right">
		<path id="kvg:065c4-s5" kvg:type="㇒" d="M60.55,12.75c0.11,1.46-0.03,3.37-0.39,4.62c-2.28,7.97-5.18,14.72-10.41,24.42"/>
		<path id="kvg:065c4-s6" kvg:type="㇐" d="M57.75,27.89c1.02,0.11,3,0.59,4.79,0.48c8.35-0.51,22.39-3.47,27.92-3.98c1.56-0.14,3,0.18,3.79,0.37"/>
		<g id="kvg:065c4-g5" kvg:element="毛">
			<path id="kvg:065c4-s7" kvg:type="㇒" d="M83.76,34.5c0.09,0.39,0.37,1.12-0.17,1.56c-5.09,4.19-16.72,10.65-30.09,14.97"/>
			<path id="kvg:065c4-s8" kvg:type="㇐" d="M50,61.87c1.04,0.37,2.95,0.48,3.98,0.37c10.8-1.17,25.58-4.57,34.51-5.43c1.71-0.17,2.77,0.17,3.64,0.36"/>
			<path id="kvg:065c4-s9" kvg:type="㇐" d="M46.38,75.66c1.05,0.27,4.1,0.43,5.14,0.27c14.24-2.18,31-5.76,40.49-6.38c1.74-0.12,3.91,0.13,4.79,0.27"/>
			<path id="kvg:065c4-s10" kvg:type="㇟" d="M67.99,49.38c0.56,0.87,1.01,1.89,1.04,3.23c0.15,5.97-0.55,30.21-0.55,33.87c0,9.66,3.33,10.05,14.48,10.05c14.02,0,13.54-1.84,13.54-8.22"/>
		</g>
	</g>
</g>
</g>
<g id="kvg:StrokeNumbers_065c4" style="font-size:8;fill:#808080">
	<text transform="matrix(1 0 0 1 19.85 15.50)">1</text>
	<text transform="matrix(1 0 0 1 3.50 34.50)">2</text>
	<text transform="matrix(1 0 0 1 34.50 41.50)">3</text>
	<text transform="matrix(1 0 0 1 21.50 42.50)">4</text>
	<text transform="matrix(1 0 0 1 51.50 12.50)">5</text>
	<text transform="matrix(1 0 0 1 63.50 25.50)">6</text>
	<text transform="matrix(1 0 0 1 74.44 36.50)">7</text>
	<text transform="matrix(1 0 0 1 49.50 58.60)">8</text>
	<text transform="matrix(1 0 0 1 45.50 72.50)">9</text>
	<text transform="matrix(1 0 0 1 58.50 56.50)">10</text>
</g>
</svg>
