<?xml version="1.0" encoding="UTF-8"?>
<!--
Copyright (C) 2009/2010/2011 Ulrich Apel.
This work is distributed under the conditions of the Creative Commons 
Attribution-Share Alike 3.0 Licence. This means you are free:
* to Share - to copy, distribute and transmit the work
* to Remix - to adapt the work

Under the following conditions:
* Attribution. You must attribute the work by stating your use of KanjiVG in
  your own copyright header and linking to KanjiVG's website
  (http://kanjivg.tagaini.net)
* Share Alike. If you alter, transform, or build upon this work, you may
  distribute the resulting work only under the same or similar license to this
  one.

See http://creativecommons.org/licenses/by-sa/3.0/ for more details.
-->
<!DOCTYPE svg PUBLIC "-//W3C//DTD SVG 1.0//EN" "http://www.w3.org/TR/2001/REC-SVG-20010904/DTD/svg10.dtd" [
<!ATTLIST g
xmlns:kvg CDATA #FIXED "http://kanjivg.tagaini.net"
kvg:element CDATA #IMPLIED
kvg:variant CDATA #IMPLIED
kvg:partial CDATA #IMPLIED
kvg:original CDATA #IMPLIED
kvg:part CDATA #IMPLIED
kvg:number CDATA #IMPLIED
kvg:tradForm CDATA #IMPLIED
kvg:radicalForm CDATA #IMPLIED
kvg:position CDATA #IMPLIED
kvg:radical CDATA #IMPLIED
kvg:phon CDATA #IMPLIED >
<!ATTLIST path
xmlns:kvg CDATA #FIXED "http://kanjivg.tagaini.net"
kvg:type CDATA #IMPLIED >
]>
<svg xmlns="http://www.w3.org/2000/svg" width="109" height="109" viewBox="0 0 109 109">
<g id="kvg:StrokePaths_065c6" style="fill:none;stroke:#000000;stroke-width:3;stroke-linecap:round;stroke-linejoin:round;">
<g id="kvg:065c6" kvg:element="旆">
	<g id="kvg:065c6-g1" kvg:element="方" kvg:position="left" kvg:radical="general">
		<g id="kvg:065c6-g2" kvg:element="亠" kvg:position="top">
			<path id="kvg:065c6-s1" kvg:type="㇑a" d="M29.64,14.25c0.65,0.61,1.73,2.96,1.73,4.16c0,4.45-0.21,9.38-0.09,13.15"/>
			<path id="kvg:065c6-s2" kvg:type="㇐" d="M11.75,33.44c0.94,0.04,4.22,0.29,5.14,0.23c7.39-0.48,21.25-3.32,26.55-3.76c1.54-0.13,2.36-0.15,4.06-0.15"/>
		</g>
		<g id="kvg:065c6-g3" kvg:position="bottom">
			<path id="kvg:065c6-s3" kvg:type="㇆a" d="M29.17,46.5c3.33,1,6.58,2.75,10.46,4.11c1.91,0.67,2.53,1.71,2.42,4.36c-0.29,7-7.67,31.41-12.12,35.85c-3.18,3.18-6.49-2.24-7.29-3.07"/>
			<path id="kvg:065c6-s4" kvg:type="㇒" d="M29.77,36.25c0.05,1.01,0.14,2.6-0.11,4.04C27.81,50.96,22.07,68.01,9.89,79"/>
		</g>
	</g>
	<g id="kvg:065c6-g4" kvg:position="right">
		<path id="kvg:065c6-s5" kvg:type="㇒" d="M60.03,13.25c0.15,1.51-0.04,3.49-0.53,4.78c-3.13,8.25-7.09,15.22-14.25,25.26"/>
		<path id="kvg:065c6-s6" kvg:type="㇐" d="M56.25,27.89c1.02,0.11,3,0.59,4.79,0.48c8.35-0.51,21.39-3.47,26.92-3.98c1.56-0.14,3,0.18,3.79,0.37"/>
		<g id="kvg:065c6-g5" kvg:element="市" kvg:variant="true">
			<g id="kvg:065c6-g6" kvg:element="亠" kvg:partial="true" kvg:position="top">
				<path id="kvg:065c6-s7" kvg:type="㇑a" d="M69.08,32.75c0.69,0.49,1.83,2.37,1.83,3.34c0,3.57-0.22,4.31-0.09,7.33"/>
				<path id="kvg:065c6-s8" kvg:type="㇐" d="M47.25,45.62c1.05,0.07,3.43,0.42,4.46,0.37c9.94-0.42,30.97-4.02,42.15-4.22c1.73-0.03,2.61,0.03,3.9,0.48"/>
			</g>
			<g id="kvg:065c6-g7" kvg:element="巾" kvg:position="bottom">
				<path id="kvg:065c6-s9" kvg:type="㇑" d="M52.22,57.78c0.44,0.3,1.36,2.68,1.44,3.29c0.58,4.43,1.94,23.01,1.86,26.82"/>
				<path id="kvg:065c6-s10" kvg:type="㇆a" d="M53.55,59.62c3.2-0.22,33.11-3.89,35.49-4.14c2.21-0.23,3.36,1.72,3.31,3.14C92,68.5,90.5,77.5,88.52,84.51c-1.8,6.39-4.99,0.05-6.05-1.04"/>
				<path id="kvg:065c6-s11" kvg:type="㇑" d="M69.91,48.08c0.44,0.3,1.36,2.28,1.44,2.89c0.09,0.61,0.24,43.03,0.24,49.17"/>
			</g>
		</g>
	</g>
</g>
</g>
<g id="kvg:StrokeNumbers_065c6" style="font-size:8;fill:#808080">
	<text transform="matrix(1 0 0 1 21.50 14.50)">1</text>
	<text transform="matrix(1 0 0 1 4.50 33.50)">2</text>
	<text transform="matrix(1 0 0 1 33.50 45.50)">3</text>
	<text transform="matrix(1 0 0 1 21.50 42.50)">4</text>
	<text transform="matrix(1 0 0 1 50.44 13.50)">5</text>
	<text transform="matrix(1 0 0 1 62.50 25.50)">6</text>
	<text transform="matrix(1 0 0 1 60.50 37.50)">7</text>
	<text transform="matrix(1 0 0 1 52.50 42.50)">8</text>
	<text transform="matrix(1 0 0 1 46.44 64.50)">9</text>
	<text transform="matrix(1 0 0 1 53.50 55.50)">10</text>
	<text transform="matrix(1 0 0 1 74.50 52.45)">11</text>
</g>
</svg>
