<?xml version="1.0" encoding="UTF-8"?>
<!--
Copyright (C) 2009/2010/2011 Ulrich Apel.
This work is distributed under the conditions of the Creative Commons 
Attribution-Share Alike 3.0 Licence. This means you are free:
* to Share - to copy, distribute and transmit the work
* to Remix - to adapt the work

Under the following conditions:
* Attribution. You must attribute the work by stating your use of KanjiVG in
  your own copyright header and linking to KanjiVG's website
  (http://kanjivg.tagaini.net)
* Share Alike. If you alter, transform, or build upon this work, you may
  distribute the resulting work only under the same or similar license to this
  one.

See http://creativecommons.org/licenses/by-sa/3.0/ for more details.
-->
<!DOCTYPE svg PUBLIC "-//W3C//DTD SVG 1.0//EN" "http://www.w3.org/TR/2001/REC-SVG-20010904/DTD/svg10.dtd" [
<!ATTLIST g
xmlns:kvg CDATA #FIXED "http://kanjivg.tagaini.net"
kvg:element CDATA #IMPLIED
kvg:variant CDATA #IMPLIED
kvg:partial CDATA #IMPLIED
kvg:original CDATA #IMPLIED
kvg:part CDATA #IMPLIED
kvg:number CDATA #IMPLIED
kvg:tradForm CDATA #IMPLIED
kvg:radicalForm CDATA #IMPLIED
kvg:position CDATA #IMPLIED
kvg:radical CDATA #IMPLIED
kvg:phon CDATA #IMPLIED >
<!ATTLIST path
xmlns:kvg CDATA #FIXED "http://kanjivg.tagaini.net"
kvg:type CDATA #IMPLIED >
]>
<svg xmlns="http://www.w3.org/2000/svg" width="109" height="109" viewBox="0 0 109 109">
<g id="kvg:StrokePaths_06614" style="fill:none;stroke:#000000;stroke-width:3;stroke-linecap:round;stroke-linejoin:round;">
<g id="kvg:06614" kvg:element="昔">
	<g id="kvg:06614-g1" kvg:position="top">
		<g id="kvg:06614-g2" kvg:element="廾" kvg:variant="true">
			<g id="kvg:06614-g3" kvg:element="十" kvg:part="1">
				<path id="kvg:06614-s1" kvg:type="㇐" d="M29.25,30.91c1.67,0.47,4.73,0.62,6.4,0.47c14.15-1.26,25.92-2.92,38.63-3.37c2.78-0.1,4.45,0.22,5.84,0.46"/>
			</g>
			<g id="kvg:06614-g4" kvg:element="丿" kvg:variant="true">
				<path id="kvg:06614-s2" kvg:type="㇑a" d="M40.62,19c0.81,0.81,1.65,1.98,1.71,3c0.42,7.88,0.67,14.38,1.17,25"/>
			</g>
			<g id="kvg:06614-g5" kvg:element="十" kvg:part="2">
				<path id="kvg:06614-s3" kvg:type="㇑a" d="M67.62,13.5c0.63,1.38,0.85,2.74,0.71,3.75c-0.7,5.12-2.83,18.25-4.33,28.5"/>
			</g>
		</g>
		<path id="kvg:06614-s4" kvg:type="㇐" d="M13.5,49.95c2.25,0.55,6.81,0.78,9.28,0.54C43.38,48.5,65,46,87.05,45.26c4.14-0.14,6.63,0.26,8.7,0.53"/>
	</g>
	<g id="kvg:06614-g6" kvg:element="日" kvg:position="bottom" kvg:radical="general">
		<path id="kvg:06614-s5" kvg:type="㇑" d="M37.02,60.89c0.86,0.86,1.4,2.5,1.4,3.61c0,2.69,0,21.35,0,29.25c0,2.01,0,3.32,0,3.5"/>
		<path id="kvg:06614-s6" kvg:type="㇕a" d="M39.17,62.03c2.28-0.12,23.11-2.17,29.11-2.17c2.98,0,4.32,2.02,4.32,4.14c0,4.67-0.26,18.32-0.31,28.5c0,1.12-0.01,2.2-0.01,3.22"/>
		<path id="kvg:06614-s7" kvg:type="㇐a" d="M39.86,77.56c4.64-0.31,27.33-1.98,31.22-1.98"/>
		<path id="kvg:06614-s8" kvg:type="㇐a" d="M39.71,94.13c7-0.6,22.39-1.19,31.11-1.7"/>
	</g>
</g>
</g>
<g id="kvg:StrokeNumbers_06614" style="font-size:8;fill:#808080">
	<text transform="matrix(1 0 0 1 22.50 32.50)">1</text>
	<text transform="matrix(1 0 0 1 31.50 19.50)">2</text>
	<text transform="matrix(1 0 0 1 56.50 14.50)">3</text>
	<text transform="matrix(1 0 0 1 6.50 51.50)">4</text>
	<text transform="matrix(1 0 0 1 30.50 69.50)">5</text>
	<text transform="matrix(1 0 0 1 39.50 58.63)">6</text>
	<text transform="matrix(1 0 0 1 42.50 73.63)">7</text>
	<text transform="matrix(1 0 0 1 42.50 90.13)">8</text>
</g>
</svg>
