<?xml version="1.0" encoding="UTF-8"?>
<!--
Copyright (C) 2009/2010/2011 Ulrich Apel.
This work is distributed under the conditions of the Creative Commons 
Attribution-Share Alike 3.0 Licence. This means you are free:
* to Share - to copy, distribute and transmit the work
* to Remix - to adapt the work

Under the following conditions:
* Attribution. You must attribute the work by stating your use of KanjiVG in
  your own copyright header and linking to KanjiVG's website
  (http://kanjivg.tagaini.net)
* Share Alike. If you alter, transform, or build upon this work, you may
  distribute the resulting work only under the same or similar license to this
  one.

See http://creativecommons.org/licenses/by-sa/3.0/ for more details.
-->
<!DOCTYPE svg PUBLIC "-//W3C//DTD SVG 1.0//EN" "http://www.w3.org/TR/2001/REC-SVG-20010904/DTD/svg10.dtd" [
<!ATTLIST g
xmlns:kvg CDATA #FIXED "http://kanjivg.tagaini.net"
kvg:element CDATA #IMPLIED
kvg:variant CDATA #IMPLIED
kvg:partial CDATA #IMPLIED
kvg:original CDATA #IMPLIED
kvg:part CDATA #IMPLIED
kvg:number CDATA #IMPLIED
kvg:tradForm CDATA #IMPLIED
kvg:radicalForm CDATA #IMPLIED
kvg:position CDATA #IMPLIED
kvg:radical CDATA #IMPLIED
kvg:phon CDATA #IMPLIED >
<!ATTLIST path
xmlns:kvg CDATA #FIXED "http://kanjivg.tagaini.net"
kvg:type CDATA #IMPLIED >
]>
<svg xmlns="http://www.w3.org/2000/svg" width="109" height="109" viewBox="0 0 109 109">
<g id="kvg:StrokePaths_0662d-Kaisho" style="fill:none;stroke:#000000;stroke-width:3;stroke-linecap:round;stroke-linejoin:round;">
<g id="kvg:0662d-Kaisho" kvg:element="昭">
	<g id="kvg:0662d-Kaisho-g1" kvg:element="日" kvg:position="left" kvg:radical="general">
		<path id="kvg:0662d-Kaisho-s1" kvg:type="㇑" d="M17.5,26.73c0.35,1.14,0.7,1.72,0.7,3.24s-0.23,41.98-0.23,42.74c0,0.76,0.12,0.76,0.23,2.29"/>
		<path id="kvg:0662d-Kaisho-s2" kvg:type="㇕a" d="M18.77,26.92c1.96-0.19,16.87-2.44,18.66-2.67c1.49-0.19,2.45,2.11,2.33,3.24c-0.23,2.29-0.35,26.33-0.34,43.12c0,1.73-0.12,2.48-0.12,3.63"/>
		<path id="kvg:0662d-Kaisho-s3" kvg:type="㇐a" d="M19.12,49.05c3.17,0,6.42-0.59,9.56-0.95c1.03-0.12,2.07-0.24,3.07-0.35"/>
		<path id="kvg:0662d-Kaisho-s4" kvg:type="㇐a" d="M18.77,72.9c3.92,0,14.42-1.53,19.49-1.53"/>
	</g>
	<g id="kvg:0662d-Kaisho-g2" kvg:element="召" kvg:position="right">
		<g id="kvg:0662d-Kaisho-g3" kvg:element="刀">
			<path id="kvg:0662d-Kaisho-s5" kvg:type="㇆" d="M49.21,22.55c0.79,0.45,3.2,0.84,4.43,0.71c10.09-1.07,26.47-4.39,32.06-4.79c3.64-0.26,5.13,1.26,5.05,3.07c-0.25,5.96-2.13,19.38-5.61,26.95c-2.65,5.76-7.15,2.26-9.7-0.89"/>
			<path id="kvg:0662d-Kaisho-s6" kvg:type="㇒" d="M66,23.89c0.05,0.8,0.15,2.09-0.11,3.23c-2.65,11.63-7.4,21.38-18.01,32.91"/>
		</g>
		<g id="kvg:0662d-Kaisho-g4" kvg:element="口">
			<path id="kvg:0662d-Kaisho-s7" kvg:type="㇑" d="M50.5,66.14c0.38,0.39,0.76,0.72,0.92,1.21c1.3,3.9,3.36,17.65,4.25,24.65"/>
			<path id="kvg:0662d-Kaisho-s8" kvg:type="㇕b" d="M52.84,67.28C61.5,66,79.25,63,86.23,62.49c2.31-0.17,5.02,1.76,4.34,4.21c-1.24,4.48-3.56,13.05-4.98,19.35"/>
			<path id="kvg:0662d-Kaisho-s9" kvg:type="㇐b" d="M55.84,88.58C61,88,77.25,87,87.2,86.61"/>
		</g>
	</g>
</g>
</g>
<g id="kvg:StrokeNumbers_0662d-Kaisho" style="font-size:8;fill:#808080">
	<text transform="matrix(1 0 0 1 10.50 35.50)">1</text>
	<text transform="matrix(1 0 0 1 19.50 23.50)">2</text>
	<text transform="matrix(1 0 0 1 22.50 45.13)">3</text>
	<text transform="matrix(1 0 0 1 22.33 69.13)">4</text>
	<text transform="matrix(1 0 0 1 49.50 19.63)">5</text>
	<text transform="matrix(1 0 0 1 56.25 33.16)">6</text>
	<text transform="matrix(1 0 0 1 45.75 76.63)">7</text>
	<text transform="matrix(1 0 0 1 55.50 63.50)">8</text>
	<text transform="matrix(1 0 0 1 59.50 85.50)">9</text>
</g>
</svg>
