<?xml version="1.0" encoding="UTF-8"?>
<!--
Copyright (C) 2009/2010/2011 Ulrich Apel.
This work is distributed under the conditions of the Creative Commons 
Attribution-Share Alike 3.0 Licence. This means you are free:
* to Share - to copy, distribute and transmit the work
* to Remix - to adapt the work

Under the following conditions:
* Attribution. You must attribute the work by stating your use of KanjiVG in
  your own copyright header and linking to KanjiVG's website
  (http://kanjivg.tagaini.net)
* Share Alike. If you alter, transform, or build upon this work, you may
  distribute the resulting work only under the same or similar license to this
  one.

See http://creativecommons.org/licenses/by-sa/3.0/ for more details.
-->
<!DOCTYPE svg PUBLIC "-//W3C//DTD SVG 1.0//EN" "http://www.w3.org/TR/2001/REC-SVG-20010904/DTD/svg10.dtd" [
<!ATTLIST g
xmlns:kvg CDATA #FIXED "http://kanjivg.tagaini.net"
kvg:element CDATA #IMPLIED
kvg:variant CDATA #IMPLIED
kvg:partial CDATA #IMPLIED
kvg:original CDATA #IMPLIED
kvg:part CDATA #IMPLIED
kvg:number CDATA #IMPLIED
kvg:tradForm CDATA #IMPLIED
kvg:radicalForm CDATA #IMPLIED
kvg:position CDATA #IMPLIED
kvg:radical CDATA #IMPLIED
kvg:phon CDATA #IMPLIED >
<!ATTLIST path
xmlns:kvg CDATA #FIXED "http://kanjivg.tagaini.net"
kvg:type CDATA #IMPLIED >
]>
<svg xmlns="http://www.w3.org/2000/svg" width="109" height="109" viewBox="0 0 109 109">
<g id="kvg:StrokePaths_06635" style="fill:none;stroke:#000000;stroke-width:3;stroke-linecap:round;stroke-linejoin:round;">
<g id="kvg:06635" kvg:element="昵">
	<g id="kvg:06635-g1" kvg:element="日" kvg:position="left" kvg:radical="general">
		<path id="kvg:06635-s1" kvg:type="㇑" d="M14.27,18.78c0.39,0.94,0.78,2,0.78,3.25c0,1.25-0.13,53.46,0,54.71"/>
		<path id="kvg:06635-s2" kvg:type="㇕a" d="M15.69,20.73c5.06-1.28,12.56-2.08,16.42-2.98c1.64-0.39,2.61,1.72,2.61,2.66c0,4.83-0.02,46.78-0.02,55.42"/>
		<path id="kvg:06635-s3" kvg:type="㇐a" d="M15.08,45.93c6.67-0.87,13.42-1.57,19.22-2.26"/>
		<path id="kvg:06635-s4" kvg:type="㇐a" d="M15.44,73.24c6.06-0.67,11.56-0.87,18.85-1.45"/>
	</g>
	<g id="kvg:06635-g2" kvg:element="尼" kvg:position="right">
		<g id="kvg:06635-g3" kvg:element="尸" kvg:position="tare">
			<path id="kvg:06635-s5" kvg:type="㇕c" d="M44.28,17.06c1.34,0.7,3.95,1.33,5.38,1.19c7.7-0.79,35.64-3.32,38.73-3.6c1.53-0.14,3.16,1.33,2.7,3.35c-0.96,4.25-2.09,7.75-3.17,13.94"/>
			<path id="kvg:06635-s6" kvg:type="㇐b" d="M48.65,34.93c3.86-0.23,32.35-2.18,40.94-2.76"/>
			<path id="kvg:06635-s7" kvg:type="㇒" d="M48.4,19.18c0,4.11-0.11,9.46-0.17,13.31c-0.28,21.08-2.99,48.01-15.49,61.76"/>
		</g>
		<g id="kvg:06635-g4" kvg:element="匕">
			<path id="kvg:06635-s8" kvg:type="㇒" d="M90.35,46.77c0.21,0.37-0.17,1.93-0.69,2.5c-3.42,3.65-15.15,13.19-26.2,16.92"/>
			<path id="kvg:06635-s9" kvg:type="㇟" d="M60.4,43.11c0.72,1.19,0.76,1.98,1,3.57c0.24,1.59-0.14,32.46-0.14,37.43c0,12.78,9.57,10.78,17.73,10.78c13.04,0,15.76-0.45,15.76-12.22"/>
		</g>
	</g>
</g>
</g>
<g id="kvg:StrokeNumbers_06635" style="font-size:8;fill:#808080">
	<text transform="matrix(1 0 0 1 7.50 24.50)">1</text>
	<text transform="matrix(1 0 0 1 18.50 16.50)">2</text>
	<text transform="matrix(1 0 0 1 18.50 42.50)">3</text>
	<text transform="matrix(1 0 0 1 19.50 69.50)">4</text>
	<text transform="matrix(1 0 0 1 48.50 14.50)">5</text>
	<text transform="matrix(1 0 0 1 52.50 31.50)">6</text>
	<text transform="matrix(1 0 0 1 40.50 26.50)">7</text>
	<text transform="matrix(1 0 0 1 82.50 45.50)">8</text>
	<text transform="matrix(1 0 0 1 53.50 49.50)">9</text>
</g>
</svg>
