<?xml version="1.0" encoding="UTF-8"?>
<!--
Copyright (C) 2009/2010/2011 Ulrich Apel.
This work is distributed under the conditions of the Creative Commons 
Attribution-Share Alike 3.0 Licence. This means you are free:
* to Share - to copy, distribute and transmit the work
* to Remix - to adapt the work

Under the following conditions:
* Attribution. You must attribute the work by stating your use of KanjiVG in
  your own copyright header and linking to KanjiVG's website
  (http://kanjivg.tagaini.net)
* Share Alike. If you alter, transform, or build upon this work, you may
  distribute the resulting work only under the same or similar license to this
  one.

See http://creativecommons.org/licenses/by-sa/3.0/ for more details.
-->
<!DOCTYPE svg PUBLIC "-//W3C//DTD SVG 1.0//EN" "http://www.w3.org/TR/2001/REC-SVG-20010904/DTD/svg10.dtd" [
<!ATTLIST g
xmlns:kvg CDATA #FIXED "http://kanjivg.tagaini.net"
kvg:element CDATA #IMPLIED
kvg:variant CDATA #IMPLIED
kvg:partial CDATA #IMPLIED
kvg:original CDATA #IMPLIED
kvg:part CDATA #IMPLIED
kvg:number CDATA #IMPLIED
kvg:tradForm CDATA #IMPLIED
kvg:radicalForm CDATA #IMPLIED
kvg:position CDATA #IMPLIED
kvg:radical CDATA #IMPLIED
kvg:phon CDATA #IMPLIED >
<!ATTLIST path
xmlns:kvg CDATA #FIXED "http://kanjivg.tagaini.net"
kvg:type CDATA #IMPLIED >
]>
<svg xmlns="http://www.w3.org/2000/svg" width="109" height="109" viewBox="0 0 109 109">
<g id="kvg:StrokePaths_06642-Kaisho" style="fill:none;stroke:#000000;stroke-width:3;stroke-linecap:round;stroke-linejoin:round;">
<g id="kvg:06642-Kaisho" kvg:element="時">
	<g id="kvg:06642-Kaisho-g1" kvg:element="日" kvg:position="left" kvg:radical="general">
		<path id="kvg:06642-Kaisho-s1" kvg:type="㇑" d="M16.5,30.34c0.35,1.08,0.71,1.62,0.71,3.07s-0.24,39.7-0.24,40.42c0,0.72,0.12,1.72,0.24,3.17"/>
		<path id="kvg:06642-Kaisho-s2" kvg:type="㇕a" d="M17.3,31.02c2-0.18,16.26-2.31,18.08-2.53c1.52-0.18,3,1.5,2.88,2.57c-0.24,2.17-0.36,24.9-0.35,40.79c0,1.63-0.12,3.35-0.12,4.43"/>
		<path id="kvg:06642-Kaisho-s3" kvg:type="㇐a" d="M18.75,52.25c3.21-0.54,6.43-1.08,9.65-1.58c0.9-0.14,1.79-0.27,2.65-0.39"/>
		<path id="kvg:06642-Kaisho-s4" kvg:type="㇐a" d="M17.8,74.02c6.2-0.77,12.45-1.52,18.94-2.45"/>
	</g>
	<g id="kvg:06642-Kaisho-g2" kvg:element="寺" kvg:position="right">
		<g id="kvg:06642-Kaisho-g3" kvg:element="土">
			<path id="kvg:06642-Kaisho-s5" kvg:type="㇐" d="M51.69,29.28c0.67,0.31,1.89,0.38,2.56,0.31c7.75-0.84,21.25-3.34,30.38-3.56c1.11-0.03,1.78,0.15,2.34,0.3"/>
			<path id="kvg:06642-Kaisho-s6" kvg:type="㇑a" d="M68.59,12.37c0.08,0.24,1.02,1.24,1.09,2.75c0.35,7.25-0.22,25.13-0.22,27.6"/>
			<path id="kvg:06642-Kaisho-s7" kvg:type="㇐" d="M46.13,45.85c0.94,0.44,2.65,0.53,3.59,0.44C58,45.5,79.75,42.5,92.35,42.04c1.56-0.06,2.5,0.21,3.28,0.43"/>
		</g>
		<g id="kvg:06642-Kaisho-g4" kvg:element="寸">
			<path id="kvg:06642-Kaisho-s8" kvg:type="㇐" d="M46.5,61.49c0.94,0.46,2.66,0.54,3.61,0.46C60.75,61,81.08,57.5,92.87,57.56c1.57,0.01,2.51,0.22,3.29,0.44"/>
			<path id="kvg:06642-Kaisho-s9" kvg:type="㇚" d="M78.82,46.08c0.43,0.67,1.16,2.06,1.21,4.56c0.23,12.03-1.09,34.93-1.09,39.02c0,9.83-5.67,1.97-6.91,0.71"/>
			<path id="kvg:06642-Kaisho-s10" kvg:type="㇔" d="M57.75,71c2.48,1.54,5.65,5.6,6.27,8"/>
		</g>
	</g>
</g>
</g>
<g id="kvg:StrokeNumbers_06642-Kaisho" style="font-size:8;fill:#808080">
	<text transform="matrix(1 0 0 1 9.75 39.13)">1</text>
	<text transform="matrix(1 0 0 1 18.50 27.50)">2</text>
	<text transform="matrix(1 0 0 1 21.50 48.13)">3</text>
	<text transform="matrix(1 0 0 1 21.33 70.50)">4</text>
	<text transform="matrix(1 0 0 1 45.50 27.13)">5</text>
	<text transform="matrix(1 0 0 1 58.50 11.50)">6</text>
	<text transform="matrix(1 0 0 1 45.75 42.13)">7</text>
	<text transform="matrix(1 0 0 1 44.25 57.13)">8</text>
	<text transform="matrix(1 0 0 1 71.25 54.13)">9</text>
	<text transform="matrix(1 0 0 1 47.25 76.63)">10</text>
</g>
</svg>
