<?xml version="1.0" encoding="UTF-8"?>
<!--
Copyright (C) 2009/2010/2011 Ulrich Apel.
This work is distributed under the conditions of the Creative Commons 
Attribution-Share Alike 3.0 Licence. This means you are free:
* to Share - to copy, distribute and transmit the work
* to Remix - to adapt the work

Under the following conditions:
* Attribution. You must attribute the work by stating your use of KanjiVG in
  your own copyright header and linking to KanjiVG's website
  (http://kanjivg.tagaini.net)
* Share Alike. If you alter, transform, or build upon this work, you may
  distribute the resulting work only under the same or similar license to this
  one.

See http://creativecommons.org/licenses/by-sa/3.0/ for more details.
-->
<!DOCTYPE svg PUBLIC "-//W3C//DTD SVG 1.0//EN" "http://www.w3.org/TR/2001/REC-SVG-20010904/DTD/svg10.dtd" [
<!ATTLIST g
xmlns:kvg CDATA #FIXED "http://kanjivg.tagaini.net"
kvg:element CDATA #IMPLIED
kvg:variant CDATA #IMPLIED
kvg:partial CDATA #IMPLIED
kvg:original CDATA #IMPLIED
kvg:part CDATA #IMPLIED
kvg:number CDATA #IMPLIED
kvg:tradForm CDATA #IMPLIED
kvg:radicalForm CDATA #IMPLIED
kvg:position CDATA #IMPLIED
kvg:radical CDATA #IMPLIED
kvg:phon CDATA #IMPLIED >
<!ATTLIST path
xmlns:kvg CDATA #FIXED "http://kanjivg.tagaini.net"
kvg:type CDATA #IMPLIED >
]>
<svg xmlns="http://www.w3.org/2000/svg" width="109" height="109" viewBox="0 0 109 109">
<g id="kvg:StrokePaths_06687" style="fill:none;stroke:#000000;stroke-width:3;stroke-linecap:round;stroke-linejoin:round;">
<g id="kvg:06687" kvg:element="暇">
	<g id="kvg:06687-g1" kvg:element="日" kvg:position="left" kvg:radical="general">
		<path id="kvg:06687-s1" kvg:type="㇑" d="M12.77,25.44c0.83,0.83,1.26,1.81,1.26,3.22c0,4.25-0.02,27.3-0.03,41.46c0,1.94,0,3.71,0,5.25"/>
		<path id="kvg:06687-s2" kvg:type="㇕a" d="M14.66,27.38c4.94-1.01,9.75-2.18,13.51-2.89c1.6-0.3,2.55,1.36,2.55,2.09c0,2.87,0.02,27.52,0.02,42.04c0,2.02,0,3.84,0,5.38"/>
		<path id="kvg:06687-s3" kvg:type="㇐a" d="M15.06,50c6.06-0.88,8.84-1.38,14.5-1.93"/>
		<path id="kvg:06687-s4" kvg:type="㇐a" d="M15.17,72.86c4.83-0.61,10.96-1.61,14.65-1.93"/>
	</g>
	<g id="kvg:06687-g2" kvg:position="right" kvg:phon="叚">
		<path id="kvg:06687-s5" kvg:type="㇕c" d="M40.39,20.65c1.61,0.35,4.16,0.3,5.11,0.09c3.85-0.89,7.25-1.68,11.38-2.37c2.96-0.49,4.08,0.25,3.5,3.25c-0.9,4.69-2.43,12.85-2.95,17.09"/>
		<path id="kvg:06687-s6" kvg:type="㇐b" d="M43.47,42.05c3.69-0.42,8.05-1.55,12.57-2.28c1.36-0.22,2.6-0.41,3.62-0.52"/>
		<path id="kvg:06687-s7" kvg:type="㇑" d="M41.14,21.4c0.79,0.79,1,1.81,1.11,3.14c0,13.62,0,47.42-0.15,62.46c-0.03,2.59-0.06,4.58-0.09,5.75"/>
		<path id="kvg:06687-s8" kvg:type="㇐b" d="M43.22,57.55c3.82-0.43,7.48-1.38,12.06-2.11c1.17-0.19,1.97-0.18,3.14-0.2"/>
		<path id="kvg:06687-s9" kvg:type="㇐b" d="M43.22,74.05c3.82-0.43,8.73-1.38,13.31-2.11c1.45-0.23,1.97-0.31,3.14-0.2"/>
		<path id="kvg:06687-s10" kvg:type="㇕c" d="M67.56,18.62c1.44,0.25,3.1,0.4,4.2,0.29c5.29-0.56,10.56-2.04,15.47-2.79c1.49-0.22,2.39,1.04,2.18,2.06c-0.89,4.25-2.66,11.07-3.74,16.28"/>
		<path id="kvg:06687-s11" kvg:type="㇐" d="M66.97,37.8c1.55,0.25,2.96,0.14,4.5-0.08c3.93-0.57,9.02-1.51,12.83-2.15c1.55-0.26,2.9-0.47,3.87-0.58"/>
		<g id="kvg:06687-g3" kvg:element="又">
			<path id="kvg:06687-s12" kvg:type="㇇" d="M64.66,52.61c1.17,0.29,2.82,0.48,5.17,0.04s13.73-3.51,15.35-3.95s3.04,1.11,2.45,2.73C80.73,70.52,67.79,85.81,54.58,93"/>
			<path id="kvg:06687-s13" kvg:type="㇏" d="M61.75,60.25c3.03,0.64,13.92,12.33,26.06,24.95c2.81,2.92,5.69,4.55,8.1,6.02"/>
		</g>
	</g>
</g>
</g>
<g id="kvg:StrokeNumbers_06687" style="font-size:8;fill:#808080">
	<text transform="matrix(1 0 0 1 7.50 33.50)">1</text>
	<text transform="matrix(1 0 0 1 17.25 23.50)">2</text>
	<text transform="matrix(1 0 0 1 18.75 46.50)">3</text>
	<text transform="matrix(1 0 0 1 18.75 69.50)">4</text>
	<text transform="matrix(1 0 0 1 43.00 17.25)">5</text>
	<text transform="matrix(1 0 0 1 46.00 37.25)">6</text>
	<text transform="matrix(1 0 0 1 34.50 27.75)">7</text>
	<text transform="matrix(1 0 0 1 45.71 53.98)">8</text>
	<text transform="matrix(1 0 0 1 45.71 70.40)">9</text>
	<text transform="matrix(1 0 0 1 65.24 15.13)">10</text>
	<text transform="matrix(1 0 0 1 65.50 34.55)">11</text>
	<text transform="matrix(1 0 0 1 65.31 49.48)">12</text>
	<text transform="matrix(1 0 0 1 67.50 63.50)">13</text>
</g>
</svg>
