<?xml version="1.0" encoding="UTF-8"?>
<!--
Copyright (C) 2009/2010/2011 Ulrich Apel.
This work is distributed under the conditions of the Creative Commons 
Attribution-Share Alike 3.0 Licence. This means you are free:
* to Share - to copy, distribute and transmit the work
* to Remix - to adapt the work

Under the following conditions:
* Attribution. You must attribute the work by stating your use of KanjiVG in
  your own copyright header and linking to KanjiVG's website
  (http://kanjivg.tagaini.net)
* Share Alike. If you alter, transform, or build upon this work, you may
  distribute the resulting work only under the same or similar license to this
  one.

See http://creativecommons.org/licenses/by-sa/3.0/ for more details.
-->
<!DOCTYPE svg PUBLIC "-//W3C//DTD SVG 1.0//EN" "http://www.w3.org/TR/2001/REC-SVG-20010904/DTD/svg10.dtd" [
<!ATTLIST g
xmlns:kvg CDATA #FIXED "http://kanjivg.tagaini.net"
kvg:element CDATA #IMPLIED
kvg:variant CDATA #IMPLIED
kvg:partial CDATA #IMPLIED
kvg:original CDATA #IMPLIED
kvg:part CDATA #IMPLIED
kvg:number CDATA #IMPLIED
kvg:tradForm CDATA #IMPLIED
kvg:radicalForm CDATA #IMPLIED
kvg:position CDATA #IMPLIED
kvg:radical CDATA #IMPLIED
kvg:phon CDATA #IMPLIED >
<!ATTLIST path
xmlns:kvg CDATA #FIXED "http://kanjivg.tagaini.net"
kvg:type CDATA #IMPLIED >
]>
<svg xmlns="http://www.w3.org/2000/svg" width="109" height="109" viewBox="0 0 109 109">
<g id="kvg:StrokePaths_066c9" style="fill:none;stroke:#000000;stroke-width:3;stroke-linecap:round;stroke-linejoin:round;">
<g id="kvg:066c9" kvg:element="曉">
	<g id="kvg:066c9-g1" kvg:element="日" kvg:position="left" kvg:radical="tradit">
		<path id="kvg:066c9-s1" kvg:type="㇑" d="M15.27,27.33c0.31,1.16,0.61,1.75,0.61,3.25c0,1.51-0.1,44.43,0,45.94"/>
		<path id="kvg:066c9-s2" kvg:type="㇕a" d="M16.39,29.11c1.73-0.04,13.71-2.43,15.28-2.52c1.31-0.08,2.16,2.27,2.06,3.38c-0.21,2.24-0.41,44.97-0.41,46.1"/>
		<path id="kvg:066c9-s3" kvg:type="㇐a" d="M16.19,51.04c4.56-0.54,12.31-1.29,16.92-1.71"/>
		<path id="kvg:066c9-s4" kvg:type="㇐a" d="M16.09,74.35c4.76-0.4,11.08-1.64,17.02-1.82"/>
	</g>
	<g id="kvg:066c9-g2" kvg:element="堯" kvg:position="right">
		<g id="kvg:066c9-g3" kvg:position="top">
			<g id="kvg:066c9-g4" kvg:element="土" kvg:position="top">
				<path id="kvg:066c9-s5" kvg:type="㇐" d="M47.93,21.53c0.94,0.32,2.64,0.36,3.58,0.32c9.89-0.36,16.09-2.42,28.18-2.71c1.56-0.04,2.49,0.15,3.27,0.31"/>
				<path id="kvg:066c9-s6" kvg:type="㇑a" d="M64.17,11.62c0.07,0.23,1.01,1.22,1.01,2.71c0,1.67-0.21,9.92-0.21,16.88"/>
				<path id="kvg:066c9-s7" kvg:type="㇐" d="M42.6,34.09c0.87,0.43,2.46,0.53,3.33,0.43c10.76-1.21,30.59-3.11,40.21-3.68c1.45-0.09,2.32,0.21,3.04,0.42"/>
			</g>
			<g id="kvg:066c9-g5" kvg:position="bottom">
				<g id="kvg:066c9-g6" kvg:element="土" kvg:position="left">
					<path id="kvg:066c9-s8" kvg:type="㇀/㇐" d="M39.69,48.64c0.58,0.38,1.72,0.4,2.31,0.36c3.84-0.25,14.61-1.39,18.72-2c0.96-0.14,2.02-0.18,2.5,0.01"/>
					<path id="kvg:066c9-s9" kvg:type="㇑" d="M51.13,39.5c0.84,0.5,1.51,2.23,1.51,3.25c0,5,0.02,11,0.02,17.5"/>
					<path id="kvg:066c9-s10" kvg:type="㇐" d="M39.34,64.04c0.58,0.66,1.76,1.59,3.51,0.72c4.88-2.4,13.66-6.11,18.54-8.51"/>
				</g>
				<g id="kvg:066c9-g7" kvg:element="土" kvg:position="right">
					<path id="kvg:066c9-s11" kvg:type="㇐" d="M68.61,46.03c0.64,0.32,2.31,0.41,2.95,0.32c6.44-0.86,12.2-2.11,18-2.21c1.06-0.02,1.7,0.15,2.23,0.31"/>
					<path id="kvg:066c9-s12" kvg:type="㇑a" d="M78.21,36.62c0.07,0.23,1.09,1.22,1.09,2.71c0,1.67-0.22,10.92-0.22,17.88"/>
					<path id="kvg:066c9-s13" kvg:type="㇐" d="M64.77,59.23c0.74,0.3,2.48,0.37,3.22,0.3C74.6,59,85.52,58,92.16,57.59c1.23-0.08,1.98,0.15,2.59,0.3"/>
				</g>
			</g>
		</g>
		<g id="kvg:066c9-g8" kvg:element="兀" kvg:position="bottom">
			<g id="kvg:066c9-g9" kvg:element="一">
				<path id="kvg:066c9-s14" kvg:type="㇐" d="M41.27,71.72c1,0.46,2.83,0.51,3.84,0.46c6.97-0.34,35.66-4.08,45.18-4.08c1.67,0,2.67,0.22,3.5,0.45"/>
			</g>
			<g id="kvg:066c9-g10" kvg:element="儿" kvg:original="八">
				<g id="kvg:066c9-g11" kvg:element="丿">
					<path id="kvg:066c9-s15" kvg:type="㇒" d="M57.29,75.5c0.07,0.54,0.12,1.41-0.13,2.19c-1.75,5.41-9.37,17.03-23.49,20.97"/>
				</g>
				<path id="kvg:066c9-s16" kvg:type="㇟" d="M68.59,72.91c0.59,1.06,1.09,2.3,1.09,3.93c0,2.18-0.02,5.46-0.02,10.4c0,8.67,2.71,10.25,13.19,10.25c10.49,0,12.18-2.02,12.18-9"/>
			</g>
		</g>
	</g>
</g>
</g>
<g id="kvg:StrokeNumbers_066c9" style="font-size:8;fill:#808080">
	<text transform="matrix(1 0 0 1 9.50 34.50)">1</text>
	<text transform="matrix(1 0 0 1 17.50 25.50)">2</text>
	<text transform="matrix(1 0 0 1 19.50 47.50)">3</text>
	<text transform="matrix(1 0 0 1 19.50 70.50)">4</text>
	<text transform="matrix(1 0 0 1 45.50 18.33)">5</text>
	<text transform="matrix(1 0 0 1 56.50 10.50)">6</text>
	<text transform="matrix(1 0 0 1 40.50 31.50)">7</text>
	<text transform="matrix(1 0 0 1 37.50 45.10)">8</text>
	<text transform="matrix(1 0 0 1 44.25 42.50)">9</text>
	<text transform="matrix(1 0 0 1 36.25 60.50)">10</text>
	<text transform="matrix(1 0 0 1 69.50 39.50)">11</text>
	<text transform="matrix(1 0 0 1 64.50 43.50)">12</text>
	<text transform="matrix(1 0 0 1 65.50 56.73)">13</text>
	<text transform="matrix(1 0 0 1 49.25 69.50)">14</text>
	<text transform="matrix(1 0 0 1 45.50 81.50)">15</text>
	<text transform="matrix(1 0 0 1 60.50 79.50)">16</text>
</g>
</svg>
