<?xml version="1.0" encoding="UTF-8"?>
<!--
Copyright (C) 2009/2010/2011 Ulrich Apel.
This work is distributed under the conditions of the Creative Commons 
Attribution-Share Alike 3.0 Licence. This means you are free:
* to Share - to copy, distribute and transmit the work
* to Remix - to adapt the work

Under the following conditions:
* Attribution. You must attribute the work by stating your use of KanjiVG in
  your own copyright header and linking to KanjiVG's website
  (http://kanjivg.tagaini.net)
* Share Alike. If you alter, transform, or build upon this work, you may
  distribute the resulting work only under the same or similar license to this
  one.

See http://creativecommons.org/licenses/by-sa/3.0/ for more details.
-->
<!DOCTYPE svg PUBLIC "-//W3C//DTD SVG 1.0//EN" "http://www.w3.org/TR/2001/REC-SVG-20010904/DTD/svg10.dtd" [
<!ATTLIST g
xmlns:kvg CDATA #FIXED "http://kanjivg.tagaini.net"
kvg:element CDATA #IMPLIED
kvg:variant CDATA #IMPLIED
kvg:partial CDATA #IMPLIED
kvg:original CDATA #IMPLIED
kvg:part CDATA #IMPLIED
kvg:number CDATA #IMPLIED
kvg:tradForm CDATA #IMPLIED
kvg:radicalForm CDATA #IMPLIED
kvg:position CDATA #IMPLIED
kvg:radical CDATA #IMPLIED
kvg:phon CDATA #IMPLIED >
<!ATTLIST path
xmlns:kvg CDATA #FIXED "http://kanjivg.tagaini.net"
kvg:type CDATA #IMPLIED >
]>
<svg xmlns="http://www.w3.org/2000/svg" width="109" height="109" viewBox="0 0 109 109">
<g id="kvg:StrokePaths_066f8-Kaisho" style="fill:none;stroke:#000000;stroke-width:3;stroke-linecap:round;stroke-linejoin:round;">
<g id="kvg:066f8-Kaisho" kvg:element="書">
	<g id="kvg:066f8-Kaisho-g1" kvg:element="聿" kvg:position="top" kvg:radical="nelson">
		<g id="kvg:066f8-Kaisho-g2" kvg:element="⺕" kvg:variant="true" kvg:original="彑">
			<path id="kvg:066f8-Kaisho-s1" kvg:type="㇕c" d="M30.74,20.88c3.16,0.91,3.34,0.83,5.41,0.64c9.45-0.89,27.79-3.47,36.79-4.14c2.92-0.22,6.53,0.21,5.41,2.05c-1.11,1.84-2.87,8.73-4.39,17.82"/>
			<path id="kvg:066f8-Kaisho-s2" kvg:type="㇐" d="M13.14,32.63c2.03,0.14,3.61,0.48,5.85,0.23c19.57-2.19,57.51-3.69,73.03-4.76c2.48-0.17,4.5,0.27,5.63,0.44"/>
			<path id="kvg:066f8-Kaisho-s3" kvg:type="㇐" d="M29.86,41.35c1.21,0.17,3.4,0.62,4.84,0.47c13.28-1.38,25.85-2.36,37.93-3.1c1.93-0.12,3.14-0.09,4.59,0.07"/>
		</g>
		<path id="kvg:066f8-Kaisho-s4" kvg:type="㇐" d="M29.54,52.06c1.16,0.26,3.28,0.24,4.45,0.18c12.07-0.63,31.01-2.98,39.52-3.56c1.93-0.13,3.09,0.06,4.06,0.18"/>
		<path id="kvg:066f8-Kaisho-s5" kvg:type="㇐" d="M17.5,64c1.54,0.37,4.37,0.36,5.9,0.26c16.01-1.07,49.95-5.18,63.95-5.52c2.56-0.06,4.1,0.09,5.39,0.26"/>
		<g id="kvg:066f8-Kaisho-g3" kvg:element="丨">
			<path id="kvg:066f8-Kaisho-s6" kvg:type="㇑" d="M53.09,11.27c1.11,0.35,1.78,1.64,2,2.38c0.23,0.74,0.44,42.72,0.26,47.4"/>
		</g>
	</g>
	<g id="kvg:066f8-Kaisho-g4" kvg:element="日" kvg:position="bottom" kvg:radical="tradit">
		<path id="kvg:066f8-Kaisho-s7" kvg:type="㇑" d="M31.25,71.75c0.43,0.46,0.87,0.84,1.06,1.42c1.49,4.56,3.27,17.14,4.29,25.33"/>
		<path id="kvg:066f8-Kaisho-s8" kvg:type="㇕a" d="M33.55,73.85c15.9-2.38,35.26-4.01,44.36-4.61c3.33-0.22,5.07,1.23,4.85,2.58c-1.01,6.17-2.51,17.42-5.21,25.12"/>
		<path id="kvg:066f8-Kaisho-s9" kvg:type="㇐a" d="M35.25,84c6.98-0.44,13.94-0.98,20.92-1.46c1.96-0.13,3.94-0.27,5.93-0.39"/>
		<path id="kvg:066f8-Kaisho-s10" kvg:type="㇐a" d="M37,95.25c10.7-0.68,25.81-0.96,40.5-2"/>
	</g>
</g>
</g>
<g id="kvg:StrokeNumbers_066f8-Kaisho" style="font-size:8;fill:#808080">
	<text transform="matrix(1 0 0 1 23.50 21.50)">1</text>
	<text transform="matrix(1 0 0 1 4.50 33.50)">2</text>
	<text transform="matrix(1 0 0 1 22.50 41.50)">3</text>
	<text transform="matrix(1 0 0 1 21.75 52.50)">4</text>
	<text transform="matrix(1 0 0 1 9.50 64.50)">5</text>
	<text transform="matrix(1 0 0 1 42.50 10.50)">6</text>
	<text transform="matrix(1 0 0 1 23.50 77.50)">7</text>
	<text transform="matrix(1 0 0 1 35.50 70.50)">8</text>
	<text transform="matrix(1 0 0 1 38.50 81.50)">9</text>
	<text transform="matrix(1 0 0 1 38.50 92.50)">10</text>
</g>
</svg>
