<?xml version="1.0" encoding="UTF-8"?>
<!--
Copyright (C) 2009/2010/2011 Ulrich Apel.
This work is distributed under the conditions of the Creative Commons 
Attribution-Share Alike 3.0 Licence. This means you are free:
* to Share - to copy, distribute and transmit the work
* to Remix - to adapt the work

Under the following conditions:
* Attribution. You must attribute the work by stating your use of KanjiVG in
  your own copyright header and linking to KanjiVG's website
  (http://kanjivg.tagaini.net)
* Share Alike. If you alter, transform, or build upon this work, you may
  distribute the resulting work only under the same or similar license to this
  one.

See http://creativecommons.org/licenses/by-sa/3.0/ for more details.
-->
<!DOCTYPE svg PUBLIC "-//W3C//DTD SVG 1.0//EN" "http://www.w3.org/TR/2001/REC-SVG-20010904/DTD/svg10.dtd" [
<!ATTLIST g
xmlns:kvg CDATA #FIXED "http://kanjivg.tagaini.net"
kvg:element CDATA #IMPLIED
kvg:variant CDATA #IMPLIED
kvg:partial CDATA #IMPLIED
kvg:original CDATA #IMPLIED
kvg:part CDATA #IMPLIED
kvg:number CDATA #IMPLIED
kvg:tradForm CDATA #IMPLIED
kvg:radicalForm CDATA #IMPLIED
kvg:position CDATA #IMPLIED
kvg:radical CDATA #IMPLIED
kvg:phon CDATA #IMPLIED >
<!ATTLIST path
xmlns:kvg CDATA #FIXED "http://kanjivg.tagaini.net"
kvg:type CDATA #IMPLIED >
]>
<svg xmlns="http://www.w3.org/2000/svg" width="109" height="109" viewBox="0 0 109 109">
<g id="kvg:StrokePaths_066f9" style="fill:none;stroke:#000000;stroke-width:3;stroke-linecap:round;stroke-linejoin:round;">
<g id="kvg:066f9" kvg:element="曹">
	<g id="kvg:066f9-g1" kvg:position="top">
		<path id="kvg:066f9-s1" kvg:type="㇐" d="M17.93,23.29c3.45,0.71,6.36,0.46,9.32,0.14c13.89-1.5,36.69-3.44,52.63-4.11c3.24-0.14,6.75-0.13,9.94,0.55"/>
		<g id="kvg:066f9-g2" kvg:element="曲">
			<g id="kvg:066f9-g3" kvg:element="日" kvg:part="1">
				<path id="kvg:066f9-s2" kvg:type="㇑" d="M24.01,34.33c0.83,0.83,1.48,1.93,1.6,2.74c0.28,1.91,2.76,12.98,4.2,19.47c0.58,2.61,1,4.47,1.04,4.71"/>
				<path id="kvg:066f9-s3" kvg:type="㇕a" d="M25.81,35.23c21.31-2.48,35.69-3.98,53.68-5c3.81-0.22,5.29,1.9,4.75,5.42c-0.56,3.7-1.76,10.63-2.95,15.92c-0.69,3.03-1.29,5.32-1.57,5.72"/>
			</g>
			<g id="kvg:066f9-g4" kvg:element="廾" kvg:variant="true">
				<g id="kvg:066f9-g5" kvg:element="丿" kvg:variant="true">
					<g id="kvg:066f9-g6" kvg:element="十" kvg:part="1">
						<path id="kvg:066f9-s4" kvg:type="㇑a" d="M41.14,13.02c0.92,0.92,1.41,1.85,1.53,3.04c1.58,15.68,2.86,32.55,3.45,39.79"/>
					</g>
				</g>
				<path id="kvg:066f9-s5" kvg:type="㇑a" d="M63.81,10.25c0.84,0.84,1.1,2,1.03,3.04c-1.22,19.33-1.55,25.39-2.72,41.83"/>
				<g id="kvg:066f9-g7" kvg:element="日" kvg:part="2">
					<g id="kvg:066f9-g8" kvg:element="十" kvg:part="2">
						<path id="kvg:066f9-s6" kvg:type="㇐a" d="M28.44,46.98c18.69-1.85,43.19-3.73,53.42-3.89"/>
					</g>
				</g>
				<path id="kvg:066f9-s7" kvg:type="㇐a" d="M31.33,58.68c12.92-1.31,35.17-2.93,47.95-3.38"/>
			</g>
		</g>
	</g>
	<g id="kvg:066f9-g9" kvg:element="日" kvg:position="bottom" kvg:radical="general">
		<path id="kvg:066f9-s8" kvg:type="㇑" d="M35.99,67.96c0.77,0.77,1.08,1.89,1.25,3.04c1.01,7.12,1.92,13.42,2.67,21.25c0.25,2.62,0.48,5.15,0.65,7.38"/>
		<path id="kvg:066f9-s9" kvg:type="㇕a" d="M37.52,69.23c14.36-1.48,21.98-2.48,31.49-3.2c3.93-0.3,5.65,0.75,5.29,4.85c-0.41,4.63-1.07,12.35-1.79,19.15c-0.29,2.76-0.59,5.38-0.9,7.58"/>
		<path id="kvg:066f9-s10" kvg:type="㇐a" d="M40.04,82c9.96-0.88,21.33-1.63,32.39-2.21"/>
		<path id="kvg:066f9-s11" kvg:type="㇐a" d="M41.81,96.5c9.44-0.75,19.34-1.48,28.8-1.89"/>
	</g>
</g>
</g>
<g id="kvg:StrokeNumbers_066f9" style="font-size:8;fill:#808080">
	<text transform="matrix(1 0 0 1 11.25 24.13)">1</text>
	<text transform="matrix(1 0 0 1 17.50 42.50)">2</text>
	<text transform="matrix(1 0 0 1 27.75 32.50)">3</text>
	<text transform="matrix(1 0 0 1 30.50 12.50)">4</text>
	<text transform="matrix(1 0 0 1 53.50 10.50)">5</text>
	<text transform="matrix(1 0 0 1 32.25 43.63)">6</text>
	<text transform="matrix(1 0 0 1 33.50 55.50)">7</text>
	<text transform="matrix(1 0 0 1 29.25 77.98)">8</text>
	<text transform="matrix(1 0 0 1 40.50 66.50)">9</text>
	<text transform="matrix(1 0 0 1 42.75 78.05)">10</text>
	<text transform="matrix(1 0 0 1 43.50 92.98)">11</text>
</g>
</svg>
