<?xml version="1.0" encoding="UTF-8"?>
<!--
Copyright (C) 2009/2010/2011 Ulrich Apel.
This work is distributed under the conditions of the Creative Commons 
Attribution-Share Alike 3.0 Licence. This means you are free:
* to Share - to copy, distribute and transmit the work
* to Remix - to adapt the work

Under the following conditions:
* Attribution. You must attribute the work by stating your use of KanjiVG in
  your own copyright header and linking to KanjiVG's website
  (http://kanjivg.tagaini.net)
* Share Alike. If you alter, transform, or build upon this work, you may
  distribute the resulting work only under the same or similar license to this
  one.

See http://creativecommons.org/licenses/by-sa/3.0/ for more details.
-->
<!DOCTYPE svg PUBLIC "-//W3C//DTD SVG 1.0//EN" "http://www.w3.org/TR/2001/REC-SVG-20010904/DTD/svg10.dtd" [
<!ATTLIST g
xmlns:kvg CDATA #FIXED "http://kanjivg.tagaini.net"
kvg:element CDATA #IMPLIED
kvg:variant CDATA #IMPLIED
kvg:partial CDATA #IMPLIED
kvg:original CDATA #IMPLIED
kvg:part CDATA #IMPLIED
kvg:number CDATA #IMPLIED
kvg:tradForm CDATA #IMPLIED
kvg:radicalForm CDATA #IMPLIED
kvg:position CDATA #IMPLIED
kvg:radical CDATA #IMPLIED
kvg:phon CDATA #IMPLIED >
<!ATTLIST path
xmlns:kvg CDATA #FIXED "http://kanjivg.tagaini.net"
kvg:type CDATA #IMPLIED >
]>
<svg xmlns="http://www.w3.org/2000/svg" width="109" height="109" viewBox="0 0 109 109">
<g id="kvg:StrokePaths_0670b" style="fill:none;stroke:#000000;stroke-width:3;stroke-linecap:round;stroke-linejoin:round;">
<g id="kvg:0670b" kvg:element="朋">
	<g id="kvg:0670b-g1" kvg:element="月" kvg:variant="true" kvg:original="肉" kvg:position="left" kvg:radical="general">
		<path id="kvg:0670b-s1" kvg:type="㇒" d="M22.75,18c0.94,0.94,1.2,2.13,1.25,3.5c1.5,41.5-1.38,61.38-11,73.75"/>
		<path id="kvg:0670b-s2" kvg:type="㇆a" d="M25.5,20.5c4.77-0.78,13.11-2.12,16.48-2.61c4.1-0.59,5.02,1.04,5.02,4.73c0,10.33,0,46.45,0,64.38c0,13-6.5,4.5-9,2.25"/>
		<path id="kvg:0670b-s3" kvg:type="㇐a" d="M25.5,40c4.25-0.5,14.25-1.75,20-2"/>
		<path id="kvg:0670b-s4" kvg:type="㇐a" d="M24.75,60.5c8-0.75,12-1.25,21.25-1.75"/>
	</g>
	<g id="kvg:0670b-g2" kvg:element="月" kvg:variant="true" kvg:original="肉" kvg:position="right" kvg:radical="general">
		<path id="kvg:0670b-s5" kvg:type="㇒" d="M63,18.5c1,1,1.47,1.97,1.5,3c0.88,30.75,0.88,56.38-11.25,73.75"/>
		<path id="kvg:0670b-s6" kvg:type="㇆a" d="M65.5,21c4.21-0.76,15.23-2.42,19.51-3.04c3.96-0.57,5.49,0.37,5.49,4.29c0,9.8,0,46.6,0,64.75c0,13-5.75,5.5-8.25,3.25"/>
		<path id="kvg:0670b-s7" kvg:type="㇐a" d="M66,40.25c4.25-0.5,17.5-1.75,23.25-2"/>
		<path id="kvg:0670b-s8" kvg:type="㇐a" d="M65.25,58.5c8-0.75,14.75-1,24-1.5"/>
	</g>
</g>
</g>
<g id="kvg:StrokeNumbers_0670b" style="font-size:8;fill:#808080">
	<text transform="matrix(1 0 0 1 17.25 26.25)">1</text>
	<text transform="matrix(1 0 0 1 27.25 17.25)">2</text>
	<text transform="matrix(1 0 0 1 29.17 36.25)">3</text>
	<text transform="matrix(1 0 0 1 29.00 56.25)">4</text>
	<text transform="matrix(1 0 0 1 57.25 27.25)">5</text>
	<text transform="matrix(1 0 0 1 67.25 17.25)">6</text>
	<text transform="matrix(1 0 0 1 69.25 37.25)">7</text>
	<text transform="matrix(1 0 0 1 69.21 55.17)">8</text>
</g>
</svg>
