<?xml version="1.0" encoding="UTF-8"?>
<!--
Copyright (C) 2009/2010/2011 Ulrich Apel.
This work is distributed under the conditions of the Creative Commons 
Attribution-Share Alike 3.0 Licence. This means you are free:
* to Share - to copy, distribute and transmit the work
* to Remix - to adapt the work

Under the following conditions:
* Attribution. You must attribute the work by stating your use of KanjiVG in
  your own copyright header and linking to KanjiVG's website
  (http://kanjivg.tagaini.net)
* Share Alike. If you alter, transform, or build upon this work, you may
  distribute the resulting work only under the same or similar license to this
  one.

See http://creativecommons.org/licenses/by-sa/3.0/ for more details.
-->
<!DOCTYPE svg PUBLIC "-//W3C//DTD SVG 1.0//EN" "http://www.w3.org/TR/2001/REC-SVG-20010904/DTD/svg10.dtd" [
<!ATTLIST g
xmlns:kvg CDATA #FIXED "http://kanjivg.tagaini.net"
kvg:element CDATA #IMPLIED
kvg:variant CDATA #IMPLIED
kvg:partial CDATA #IMPLIED
kvg:original CDATA #IMPLIED
kvg:part CDATA #IMPLIED
kvg:number CDATA #IMPLIED
kvg:tradForm CDATA #IMPLIED
kvg:radicalForm CDATA #IMPLIED
kvg:position CDATA #IMPLIED
kvg:radical CDATA #IMPLIED
kvg:phon CDATA #IMPLIED >
<!ATTLIST path
xmlns:kvg CDATA #FIXED "http://kanjivg.tagaini.net"
kvg:type CDATA #IMPLIED >
]>
<svg xmlns="http://www.w3.org/2000/svg" width="109" height="109" viewBox="0 0 109 109">
<g id="kvg:StrokePaths_06741-Kaisho" style="fill:none;stroke:#000000;stroke-width:3;stroke-linecap:round;stroke-linejoin:round;">
<g id="kvg:06741-Kaisho" kvg:element="杁">
	<g id="kvg:06741-Kaisho-g1" kvg:element="木" kvg:position="left" kvg:radical="general">
		<path id="kvg:06741-Kaisho-s1" kvg:type="㇐" d="M11.28,38.52c0.36,0.29,2.5,0.49,3.47,0.37c4.13-0.48,20.03-1.43,26.66-2.87c0.96-0.21,2.25-0.29,2.86,0"/>
		<path id="kvg:06741-Kaisho-s2" kvg:type="㇑" d="M27.86,15.5c0.91,0.47,1.86,3.49,2.04,4.42c0.18,0.93-0.3,65.75-0.3,71.58c0,10.75-4.85,2.75-6.35,1.25"/>
		<path id="kvg:06741-Kaisho-s3" kvg:type="㇒" d="M29.94,39.28c-5.82,16.02-9.06,22.79-18.08,36.81"/>
		<path id="kvg:06741-Kaisho-s4" kvg:type="㇔/㇏" d="M32.97,46.65c2.74,2.03,8.85,6.45,11.16,10.39"/>
	</g>
	<g id="kvg:06741-Kaisho-g2" kvg:element="入" kvg:position="right">
		<path id="kvg:06741-Kaisho-s5" kvg:type="㇒" d="M65.63,41.5C60.94,59.51,50.75,84,39,95.17"/>
		<path id="kvg:06741-Kaisho-s6" kvg:type="㇏" d="M56.36,16.75c1.31,0,3.25,1.94,3.62,3.64C68.5,60,76.25,73.25,90.22,89.89c1.37,1.63,3.63,3.3,4.78,3.86"/>
	</g>
</g>
</g>
<g id="kvg:StrokeNumbers_06741-Kaisho" style="font-size:8;fill:#808080">
	<text transform="matrix(1 0 0 1 5.85 39.50)">1</text>
	<text transform="matrix(1 0 0 1 18.50 15.50)">2</text>
	<text transform="matrix(1 0 0 1 18.50 49.50)">3</text>
	<text transform="matrix(1 0 0 1 35.50 46.50)">4</text>
	<text transform="matrix(1 0 0 1 56.50 47.50)">5</text>
	<text transform="matrix(1 0 0 1 48.50 16.50)">6</text>
</g>
</svg>
