<?xml version="1.0" encoding="UTF-8"?>
<!--
Copyright (C) 2009/2010/2011 Ulrich Apel.
This work is distributed under the conditions of the Creative Commons 
Attribution-Share Alike 3.0 Licence. This means you are free:
* to Share - to copy, distribute and transmit the work
* to Remix - to adapt the work

Under the following conditions:
* Attribution. You must attribute the work by stating your use of KanjiVG in
  your own copyright header and linking to KanjiVG's website
  (http://kanjivg.tagaini.net)
* Share Alike. If you alter, transform, or build upon this work, you may
  distribute the resulting work only under the same or similar license to this
  one.

See http://creativecommons.org/licenses/by-sa/3.0/ for more details.
-->
<!DOCTYPE svg PUBLIC "-//W3C//DTD SVG 1.0//EN" "http://www.w3.org/TR/2001/REC-SVG-20010904/DTD/svg10.dtd" [
<!ATTLIST g
xmlns:kvg CDATA #FIXED "http://kanjivg.tagaini.net"
kvg:element CDATA #IMPLIED
kvg:variant CDATA #IMPLIED
kvg:partial CDATA #IMPLIED
kvg:original CDATA #IMPLIED
kvg:part CDATA #IMPLIED
kvg:number CDATA #IMPLIED
kvg:tradForm CDATA #IMPLIED
kvg:radicalForm CDATA #IMPLIED
kvg:position CDATA #IMPLIED
kvg:radical CDATA #IMPLIED
kvg:phon CDATA #IMPLIED >
<!ATTLIST path
xmlns:kvg CDATA #FIXED "http://kanjivg.tagaini.net"
kvg:type CDATA #IMPLIED >
]>
<svg xmlns="http://www.w3.org/2000/svg" width="109" height="109" viewBox="0 0 109 109">
<g id="kvg:StrokePaths_0675c" style="fill:none;stroke:#000000;stroke-width:3;stroke-linecap:round;stroke-linejoin:round;">
<g id="kvg:0675c" kvg:element="杜">
	<g id="kvg:0675c-g1" kvg:element="木" kvg:position="left" kvg:radical="general">
		<path id="kvg:0675c-s1" kvg:type="㇐" d="M13.03,40.97c1.19,0.83,4.61,0.43,5.97,0.27c5.23-0.6,15.93-1.85,21.77-2.77c1.55-0.25,3.48-0.34,5-0.1"/>
		<path id="kvg:0675c-s2" kvg:type="㇑" d="M32.11,14.75c1.26,1.26,1.54,2.5,1.54,5.17c0,0.79-0.02,49.2-0.02,69.58c0,4.07,0,7.02,0,8.25"/>
		<path id="kvg:0675c-s3" kvg:type="㇒" d="M32.69,41.28c0,1.34-0.62,3.33-1.17,4.54C25.99,58.05,21,65.12,12.11,76.84"/>
		<path id="kvg:0675c-s4" kvg:type="㇔/㇏" d="M36.6,47.15c2.28,2.35,5.78,7.48,7.15,11.6"/>
	</g>
	<g id="kvg:0675c-g2" kvg:element="土" kvg:position="right">
		<path id="kvg:0675c-s5" kvg:type="㇐" d="M49.63,51.42c2.12,0.71,4.98,0.56,7.27,0.25c7.77-1.04,16.29-2.17,26.1-2.62c2.39-0.11,4.78-0.31,7.13,0.24"/>
		<path id="kvg:0675c-s6" kvg:type="㇑a" d="M68.17,14.87c1.17,1.17,1.52,2.27,1.52,4.14c0,12-0.07,60.88-0.07,69.5"/>
		<path id="kvg:0675c-s7" kvg:type="㇐" d="M43.13,90.73c3.09,1.1,6.71,0.47,9.88,0.21c14.59-1.22,22.53-2.12,35.62-2.72c3.17-0.15,6.17,0.2,9.25,0.86"/>
	</g>
</g>
</g>
<g id="kvg:StrokeNumbers_0675c" style="font-size:8;fill:#808080">
	<text transform="matrix(1 0 0 1 6.25 42.71)">1</text>
	<text transform="matrix(1 0 0 1 22.25 15.25)">2</text>
	<text transform="matrix(1 0 0 1 21.25 52.25)">3</text>
	<text transform="matrix(1 0 0 1 40.25 48.25)">4</text>
	<text transform="matrix(1 0 0 1 47.25 48.25)">5</text>
	<text transform="matrix(1 0 0 1 57.00 14.00)">6</text>
	<text transform="matrix(1 0 0 1 42.25 87.25)">7</text>
</g>
</svg>
