<?xml version="1.0" encoding="UTF-8"?>
<!--
Copyright (C) 2009/2010/2011 Ulrich Apel.
This work is distributed under the conditions of the Creative Commons 
Attribution-Share Alike 3.0 Licence. This means you are free:
* to Share - to copy, distribute and transmit the work
* to Remix - to adapt the work

Under the following conditions:
* Attribution. You must attribute the work by stating your use of KanjiVG in
  your own copyright header and linking to KanjiVG's website
  (http://kanjivg.tagaini.net)
* Share Alike. If you alter, transform, or build upon this work, you may
  distribute the resulting work only under the same or similar license to this
  one.

See http://creativecommons.org/licenses/by-sa/3.0/ for more details.
-->
<!DOCTYPE svg PUBLIC "-//W3C//DTD SVG 1.0//EN" "http://www.w3.org/TR/2001/REC-SVG-20010904/DTD/svg10.dtd" [
<!ATTLIST g
xmlns:kvg CDATA #FIXED "http://kanjivg.tagaini.net"
kvg:element CDATA #IMPLIED
kvg:variant CDATA #IMPLIED
kvg:partial CDATA #IMPLIED
kvg:original CDATA #IMPLIED
kvg:part CDATA #IMPLIED
kvg:number CDATA #IMPLIED
kvg:tradForm CDATA #IMPLIED
kvg:radicalForm CDATA #IMPLIED
kvg:position CDATA #IMPLIED
kvg:radical CDATA #IMPLIED
kvg:phon CDATA #IMPLIED >
<!ATTLIST path
xmlns:kvg CDATA #FIXED "http://kanjivg.tagaini.net"
kvg:type CDATA #IMPLIED >
]>
<svg xmlns="http://www.w3.org/2000/svg" width="109" height="109" viewBox="0 0 109 109">
<g id="kvg:StrokePaths_067e2" style="fill:none;stroke:#000000;stroke-width:3;stroke-linecap:round;stroke-linejoin:round;">
<g id="kvg:067e2" kvg:element="柢">
	<g id="kvg:067e2-g1" kvg:element="木" kvg:position="left" kvg:radical="general">
		<path id="kvg:067e2-s1" kvg:type="㇐" d="M12.28,38.07c0.36,0.2,2.47,0.33,3.42,0.26c4.08-0.33,17.7-1.79,24.25-2.77c0.95-0.14,2.22-0.2,2.82,0"/>
		<path id="kvg:067e2-s2" kvg:type="㇑" d="M27.86,16c0.91,0.47,2.04,2,2.04,4.42c0,0.95-0.12,69.25-0.3,75.08"/>
		<path id="kvg:067e2-s3" kvg:type="㇒" d="M29.44,40.78c-5.5,15.26-8.56,21.7-17.08,35.06"/>
		<path id="kvg:067e2-s4" kvg:type="㇔/㇏" d="M32.72,47.4c2.44,1.8,6.47,5.37,8.53,8.85"/>
	</g>
	<g id="kvg:067e2-g2" kvg:position="right">
		<g id="kvg:067e2-g3" kvg:element="氏" kvg:position="top">
			<path id="kvg:067e2-s5" kvg:type="㇒" d="M83.47,12.86c0.1,0.36,0.21,0.92-0.2,1.43c-2.39,3.01-13.58,8.94-32.17,14"/>
			<path id="kvg:067e2-s6" kvg:type="㇙" d="M48.16,27.45c1.09,1.05,1.57,2.57,1.57,4.54c0,1.97-0.17,42.44-0.17,45.51c0,3.07,0.17,3.94,2.4,1.75c2.23-2.19,12.06-9.67,13.43-10.98"/>
			<path id="kvg:067e2-s7" kvg:type="㇐" d="M50.03,46.09c0.69,0.13,1.96-0.13,2.65-0.18c15.06-1.1,23.4-2.64,35.4-4c1.13-0.13,4-0.25,4.58-0.18"/>
			<path id="kvg:067e2-s8" kvg:type="㇂" d="M69.15,25.57c0.43,0.47,1.32,2.86,1.33,3.79C70.75,52.75,75.5,81,89.89,92.97c5.02,4.17,3.47-3.39,3.47-6.29"/>
		</g>
		<g id="kvg:067e2-g4" kvg:element="一" kvg:position="bottom">
			<path id="kvg:067e2-s9" kvg:type="㇐" d="M46.25,91.39c0.94,0.38,2.66,0.38,3.6,0.38c6.4-0.02,17.65-1.52,24.61-2.38c1.55-0.19,2.5,0.18,3.29,0.37"/>
		</g>
	</g>
</g>
</g>
<g id="kvg:StrokeNumbers_067e2" style="font-size:8;fill:#808080">
	<text transform="matrix(1 0 0 1 5.85 38.50)">1</text>
	<text transform="matrix(1 0 0 1 19.50 15.50)">2</text>
	<text transform="matrix(1 0 0 1 19.50 48.50)">3</text>
	<text transform="matrix(1 0 0 1 35.50 47.50)">4</text>
	<text transform="matrix(1 0 0 1 73.50 12.50)">5</text>
	<text transform="matrix(1 0 0 1 40.50 30.50)">6</text>
	<text transform="matrix(1 0 0 1 54.50 42.50)">7</text>
	<text transform="matrix(1 0 0 1 62.50 33.50)">8</text>
	<text transform="matrix(1 0 0 1 38.50 92.50)">9</text>
</g>
</svg>
