<?xml version="1.0" encoding="UTF-8"?>
<!--
Copyright (C) 2009/2010/2011 Ulrich Apel.
This work is distributed under the conditions of the Creative Commons 
Attribution-Share Alike 3.0 Licence. This means you are free:
* to Share - to copy, distribute and transmit the work
* to Remix - to adapt the work

Under the following conditions:
* Attribution. You must attribute the work by stating your use of KanjiVG in
  your own copyright header and linking to KanjiVG's website
  (http://kanjivg.tagaini.net)
* Share Alike. If you alter, transform, or build upon this work, you may
  distribute the resulting work only under the same or similar license to this
  one.

See http://creativecommons.org/licenses/by-sa/3.0/ for more details.
-->
<!DOCTYPE svg PUBLIC "-//W3C//DTD SVG 1.0//EN" "http://www.w3.org/TR/2001/REC-SVG-20010904/DTD/svg10.dtd" [
<!ATTLIST g
xmlns:kvg CDATA #FIXED "http://kanjivg.tagaini.net"
kvg:element CDATA #IMPLIED
kvg:variant CDATA #IMPLIED
kvg:partial CDATA #IMPLIED
kvg:original CDATA #IMPLIED
kvg:part CDATA #IMPLIED
kvg:number CDATA #IMPLIED
kvg:tradForm CDATA #IMPLIED
kvg:radicalForm CDATA #IMPLIED
kvg:position CDATA #IMPLIED
kvg:radical CDATA #IMPLIED
kvg:phon CDATA #IMPLIED >
<!ATTLIST path
xmlns:kvg CDATA #FIXED "http://kanjivg.tagaini.net"
kvg:type CDATA #IMPLIED >
]>
<svg xmlns="http://www.w3.org/2000/svg" width="109" height="109" viewBox="0 0 109 109">
<g id="kvg:StrokePaths_067ec" style="fill:none;stroke:#000000;stroke-width:3;stroke-linecap:round;stroke-linejoin:round;">
<g id="kvg:067ec" kvg:element="柬">
	<g id="kvg:067ec-g1" kvg:element="束" kvg:part="1">
		<g id="kvg:067ec-g2" kvg:element="木" kvg:part="1" kvg:radical="general">
			<path id="kvg:067ec-s1" kvg:type="㇐" d="M21.25,26.54c3,0.46,5.75,0.71,8.5,0.53c11.73-0.75,37.08-2.23,49.25-3.51c3-0.32,6.5-0.07,8.5,0.05"/>
		</g>
		<g id="kvg:067ec-g3" kvg:element="口" kvg:part="1">
			<path id="kvg:067ec-s2" kvg:type="㇑" d="M24.25,39.82c0.4,0.41,0.81,0.75,0.99,1.27c1.39,4.08,3.05,15.33,4,22.66"/>
			<path id="kvg:067ec-s3" kvg:type="㇕" d="M25.74,42.14c12.01-1.64,51.14-5.27,55.83-5.65c2.92-0.24,4.45,1.36,4,3.64C84.25,46.75,82,57.5,80.36,61.99"/>
		</g>
	</g>
	<path id="kvg:067ec-s4" kvg:type="㇔" d="M35.52,46.33c3.1,1.74,8.02,7.17,8.79,9.88"/>
	<path id="kvg:067ec-s5" kvg:type="㇒" d="M72.28,44.64c0.03,0.24,0.05,0.63-0.05,0.98c-0.63,2.06-4.23,6.58-9.17,9.35"/>
	<g id="kvg:067ec-g4" kvg:element="束" kvg:part="2">
		<g id="kvg:067ec-g5" kvg:element="口" kvg:part="2">
			<path id="kvg:067ec-s6" kvg:type="㇐" d="M28.92,62.43c13.1-0.92,39.41-2.69,51.65-3.14"/>
		</g>
		<g id="kvg:067ec-g6" kvg:element="木" kvg:part="2" kvg:radical="general">
			<path id="kvg:067ec-s7" kvg:type="㇑" d="M52.25,11.25c1.25,0.5,2,2.25,2.25,3.25s0,78.25-0.25,84.5"/>
			<path id="kvg:067ec-s8" kvg:type="㇒" d="M54.25,61.25C47.52,71.82,30.01,86.77,16,92.75"/>
			<path id="kvg:067ec-s9" kvg:type="㇏" d="M54,61.75c5.21,4.15,27.6,24.3,33.27,28.38c1.92,1.38,3.57,1.98,5.48,2.37"/>
		</g>
	</g>
</g>
</g>
<g id="kvg:StrokeNumbers_067ec" style="font-size:8;fill:#808080">
	<text transform="matrix(1 0 0 1 15.50 25.50)">1</text>
	<text transform="matrix(1 0 0 1 18.50 46.50)">2</text>
	<text transform="matrix(1 0 0 1 29.25 38.50)">3</text>
	<text transform="matrix(1 0 0 1 40.50 48.50)">4</text>
	<text transform="matrix(1 0 0 1 64.50 46.33)">5</text>
	<text transform="matrix(1 0 0 1 33.50 59.50)">6</text>
	<text transform="matrix(1 0 0 1 44.50 10.18)">7</text>
	<text transform="matrix(1 0 0 1 39.50 70.50)">8</text>
	<text transform="matrix(1 0 0 1 65.50 69.50)">9</text>
</g>
</svg>
