<?xml version="1.0" encoding="UTF-8"?>
<!--
Copyright (C) 2009/2010/2011 Ulrich Apel.
This work is distributed under the conditions of the Creative Commons 
Attribution-Share Alike 3.0 Licence. This means you are free:
* to Share - to copy, distribute and transmit the work
* to Remix - to adapt the work

Under the following conditions:
* Attribution. You must attribute the work by stating your use of KanjiVG in
  your own copyright header and linking to KanjiVG's website
  (http://kanjivg.tagaini.net)
* Share Alike. If you alter, transform, or build upon this work, you may
  distribute the resulting work only under the same or similar license to this
  one.

See http://creativecommons.org/licenses/by-sa/3.0/ for more details.
-->
<!DOCTYPE svg PUBLIC "-//W3C//DTD SVG 1.0//EN" "http://www.w3.org/TR/2001/REC-SVG-20010904/DTD/svg10.dtd" [
<!ATTLIST g
xmlns:kvg CDATA #FIXED "http://kanjivg.tagaini.net"
kvg:element CDATA #IMPLIED
kvg:variant CDATA #IMPLIED
kvg:partial CDATA #IMPLIED
kvg:original CDATA #IMPLIED
kvg:part CDATA #IMPLIED
kvg:number CDATA #IMPLIED
kvg:tradForm CDATA #IMPLIED
kvg:radicalForm CDATA #IMPLIED
kvg:position CDATA #IMPLIED
kvg:radical CDATA #IMPLIED
kvg:phon CDATA #IMPLIED >
<!ATTLIST path
xmlns:kvg CDATA #FIXED "http://kanjivg.tagaini.net"
kvg:type CDATA #IMPLIED >
]>
<svg xmlns="http://www.w3.org/2000/svg" width="109" height="109" viewBox="0 0 109 109">
<g id="kvg:StrokePaths_067f4" style="fill:none;stroke:#000000;stroke-width:3;stroke-linecap:round;stroke-linejoin:round;">
<g id="kvg:067f4" kvg:element="柴">
	<g id="kvg:067f4-g1" kvg:element="此" kvg:position="top">
		<g id="kvg:067f4-g2" kvg:element="止" kvg:position="left">
			<g id="kvg:067f4-g3" kvg:element="卜" kvg:original="ト">
				<path id="kvg:067f4-s1" kvg:type="㇑a" d="M34.64,16.72c0.94,0.94,1.35,2.15,1.35,3.95c0,3.08-0.06,21.6-0.06,27.22"/>
				<path id="kvg:067f4-s2" kvg:type="㇐b" d="M37.19,31.4c3.02-0.3,6.51-0.87,10.08-1.41c1.62-0.35,3.25-0.48,4.89-0.41"/>
			</g>
			<path id="kvg:067f4-s3" kvg:type="㇑a" d="M22.06,32.04c0.83,0.83,1.1,2.21,1.1,3.2c0,2.87-0.02,14.04-0.02,17.83"/>
			<path id="kvg:067f4-s4" kvg:type="㇐" d="M17.39,54.08c0.89,0.89,2.13,1.38,3.09,0.99C38.5,47.75,41.7,46.56,50.14,42.8"/>
		</g>
		<g id="kvg:067f4-g4" kvg:element="匕" kvg:position="right">
			<path id="kvg:067f4-s5" kvg:type="㇒" d="M86.64,20.04c0.17,0.25-0.78,2.07-1.22,2.46c-2.85,2.53-11.58,8.42-20.8,11.01"/>
			<path id="kvg:067f4-s6" kvg:type="㇟" d="M61.71,12.5c0.98,0.58,1.38,1.62,1.38,2.48c0,0.84-0.09,20.54-0.09,25.77c0,6.61,2.53,7.78,14.77,7.78c11.57,0,12.63-1.03,12.63-8.38"/>
		</g>
	</g>
	<g id="kvg:067f4-g5" kvg:element="木" kvg:position="bottom" kvg:radical="general">
		<path id="kvg:067f4-s7" kvg:type="㇐" d="M23.75,65.11c4,0.77,7.94,0.36,12-0.04c11.38-1.13,29.13-2.95,42.5-3.97c3.83-0.29,7.53-0.61,11.25,0.31"/>
		<path id="kvg:067f4-s8" kvg:type="㇑" d="M54,51.25c1,1,1.25,2.62,1.25,4.25c0,10.5,0,34.38,0,41.5"/>
		<path id="kvg:067f4-s9" kvg:type="㇒" d="M53.25,64.25C53,65.5,52.26,67.1,51.4,68.23c-7.52,9.9-18.02,20.02-32.9,25.02"/>
		<path id="kvg:067f4-s10" kvg:type="㇏" d="M56.75,65.5c10.38,10,14.98,13.46,23.44,20.33c3.19,2.66,6.71,4.72,10.56,6.17"/>
	</g>
</g>
</g>
<g id="kvg:StrokeNumbers_067f4" style="font-size:8;fill:#808080">
	<text transform="matrix(1 0 0 1 25.50 16.50)">1</text>
	<text transform="matrix(1 0 0 1 39.50 27.50)">2</text>
	<text transform="matrix(1 0 0 1 12.44 31.50)">3</text>
	<text transform="matrix(1 0 0 1 8.50 53.50)">4</text>
	<text transform="matrix(1 0 0 1 75.50 19.50)">5</text>
	<text transform="matrix(1 0 0 1 53.50 13.50)">6</text>
	<text transform="matrix(1 0 0 1 17.50 66.50)">7</text>
	<text transform="matrix(1 0 0 1 44.50 52.50)">8</text>
	<text transform="matrix(1 0 0 1 38.44 73.53)">9</text>
	<text transform="matrix(1 0 0 1 66.50 72.46)">10</text>
</g>
</svg>
