<?xml version="1.0" encoding="UTF-8"?>
<!--
Copyright (C) 2009/2010/2011 Ulrich Apel.
This work is distributed under the conditions of the Creative Commons 
Attribution-Share Alike 3.0 Licence. This means you are free:
* to Share - to copy, distribute and transmit the work
* to Remix - to adapt the work

Under the following conditions:
* Attribution. You must attribute the work by stating your use of KanjiVG in
  your own copyright header and linking to KanjiVG's website
  (http://kanjivg.tagaini.net)
* Share Alike. If you alter, transform, or build upon this work, you may
  distribute the resulting work only under the same or similar license to this
  one.

See http://creativecommons.org/licenses/by-sa/3.0/ for more details.
-->
<!DOCTYPE svg PUBLIC "-//W3C//DTD SVG 1.0//EN" "http://www.w3.org/TR/2001/REC-SVG-20010904/DTD/svg10.dtd" [
<!ATTLIST g
xmlns:kvg CDATA #FIXED "http://kanjivg.tagaini.net"
kvg:element CDATA #IMPLIED
kvg:variant CDATA #IMPLIED
kvg:partial CDATA #IMPLIED
kvg:original CDATA #IMPLIED
kvg:part CDATA #IMPLIED
kvg:number CDATA #IMPLIED
kvg:tradForm CDATA #IMPLIED
kvg:radicalForm CDATA #IMPLIED
kvg:position CDATA #IMPLIED
kvg:radical CDATA #IMPLIED
kvg:phon CDATA #IMPLIED >
<!ATTLIST path
xmlns:kvg CDATA #FIXED "http://kanjivg.tagaini.net"
kvg:type CDATA #IMPLIED >
]>
<svg xmlns="http://www.w3.org/2000/svg" width="109" height="109" viewBox="0 0 109 109">
<g id="kvg:StrokePaths_0682b" style="fill:none;stroke:#000000;stroke-width:3;stroke-linecap:round;stroke-linejoin:round;">
<g id="kvg:0682b" kvg:element="栫">
	<g id="kvg:0682b-g1" kvg:element="木" kvg:position="left" kvg:radical="general">
		<path id="kvg:0682b-s1" kvg:type="㇐" d="M10.53,38.63c0.35,0.15,2.45,0.26,3.39,0.2c4.04-0.26,16.54-2.04,23.04-2.81c0.94-0.11,2.21-0.15,2.8,0"/>
		<path id="kvg:0682b-s2" kvg:type="㇑" d="M25.36,15.5c0.91,0.47,2.04,2,2.04,4.42c0,0.95-0.12,71.75-0.3,77.58"/>
		<path id="kvg:0682b-s3" kvg:type="㇒" d="M26.94,39.78c-5.1,15.04-7.94,21.4-15.83,34.56"/>
		<path id="kvg:0682b-s4" kvg:type="㇔/㇏" d="M28.47,44.9c2.37,1.59,6.28,5.76,8.28,8.85"/>
	</g>
	<g id="kvg:0682b-g2" kvg:element="存" kvg:position="right">
		<g id="kvg:0682b-g3" kvg:position="tare">
			<path id="kvg:0682b-s5" kvg:type="㇐" d="M42.09,26.3c1.25,0.46,3.55,0.58,4.8,0.46c7.7-0.75,30.7-4,43.32-4.74c2.08-0.12,3.34,0.22,4.38,0.45"/>
			<g id="kvg:0682b-g4" kvg:element="亻" kvg:variant="true" kvg:original="人">
				<path id="kvg:0682b-s6" kvg:type="㇒" d="M62.05,11.5c0.26,2.53,0.26,3.84-0.38,6.1c-4.08,14.2-11.31,31.72-24.58,45.44"/>
				<path id="kvg:0682b-s7" kvg:type="㇑" d="M48.72,49c0.79,0.82,1.01,2.63,1.01,4.32c0,9.93-0.22,28.43-0.22,42.93"/>
			</g>
		</g>
		<g id="kvg:0682b-g5" kvg:element="子">
			<path id="kvg:0682b-s8" kvg:type="㇖" d="M60.73,39.6c0.81,0.31,2.33,0.7,3.57,0.53c4.45-0.63,17.48-3.63,18.9-3.63c1.42,0,2.96,0.93,1.54,2.8c-1.42,1.86-7.45,10.44-11.05,13.82"/>
			<path id="kvg:0682b-s9" kvg:type="㇕v" d="M72.61,53.79c5.22,3.29,12.39,21.96,5.47,37.05C75.26,97,72,93.25,70.62,91.51"/>
			<path id="kvg:0682b-s10" kvg:type="㇐" d="M56.17,64.89c0.9,0.72,3.25,0.97,4.88,0.79c5.7-0.63,26.28-4.43,33.79-4.7c1.63-0.06,3.07,0.24,4.16,0.96"/>
		</g>
	</g>
</g>
</g>
<g id="kvg:StrokeNumbers_0682b" style="font-size:8;fill:#808080">
	<text transform="matrix(1 0 0 1 4.50 39.50)">1</text>
	<text transform="matrix(1 0 0 1 16.66 15.50)">2</text>
	<text transform="matrix(1 0 0 1 16.50 49.50)">3</text>
	<text transform="matrix(1 0 0 1 33.50 46.50)">4</text>
	<text transform="matrix(1 0 0 1 40.50 23.50)">5</text>
	<text transform="matrix(1 0 0 1 53.50 10.50)">6</text>
	<text transform="matrix(1 0 0 1 42.50 66.50)">7</text>
	<text transform="matrix(1 0 0 1 60.50 36.50)">8</text>
	<text transform="matrix(1 0 0 1 66.50 57.50)">9</text>
	<text transform="matrix(1 0 0 1 52.50 62.50)">10</text>
</g>
</svg>
