<?xml version="1.0" encoding="UTF-8"?>
<!--
Copyright (C) 2009/2010/2011 Ulrich Apel.
This work is distributed under the conditions of the Creative Commons 
Attribution-Share Alike 3.0 Licence. This means you are free:
* to Share - to copy, distribute and transmit the work
* to Remix - to adapt the work

Under the following conditions:
* Attribution. You must attribute the work by stating your use of KanjiVG in
  your own copyright header and linking to KanjiVG's website
  (http://kanjivg.tagaini.net)
* Share Alike. If you alter, transform, or build upon this work, you may
  distribute the resulting work only under the same or similar license to this
  one.

See http://creativecommons.org/licenses/by-sa/3.0/ for more details.
-->
<!DOCTYPE svg PUBLIC "-//W3C//DTD SVG 1.0//EN" "http://www.w3.org/TR/2001/REC-SVG-20010904/DTD/svg10.dtd" [
<!ATTLIST g
xmlns:kvg CDATA #FIXED "http://kanjivg.tagaini.net"
kvg:element CDATA #IMPLIED
kvg:variant CDATA #IMPLIED
kvg:partial CDATA #IMPLIED
kvg:original CDATA #IMPLIED
kvg:part CDATA #IMPLIED
kvg:number CDATA #IMPLIED
kvg:tradForm CDATA #IMPLIED
kvg:radicalForm CDATA #IMPLIED
kvg:position CDATA #IMPLIED
kvg:radical CDATA #IMPLIED
kvg:phon CDATA #IMPLIED >
<!ATTLIST path
xmlns:kvg CDATA #FIXED "http://kanjivg.tagaini.net"
kvg:type CDATA #IMPLIED >
]>
<svg xmlns="http://www.w3.org/2000/svg" width="109" height="109" viewBox="0 0 109 109">
<g id="kvg:StrokePaths_0685f-Kaisho" style="fill:none;stroke:#000000;stroke-width:3;stroke-linecap:round;stroke-linejoin:round;">
<g id="kvg:0685f-Kaisho" kvg:element="桟">
	<g id="kvg:0685f-Kaisho-g1" kvg:element="木" kvg:position="left" kvg:radical="general">
		<path id="kvg:0685f-Kaisho-s1" kvg:type="㇐" d="M13.28,39.72c0.35,0.24,2.39,0.41,3.31,0.31c3.94-0.41,15.12-2.21,21.45-3.41c0.92-0.17,2.15-0.24,2.73,0"/>
		<path id="kvg:0685f-Kaisho-s2" kvg:type="㇑" d="M27.36,15.5c0.91,0.47,2.86,3.49,3.04,4.42c0.18,0.93-0.3,67.73-0.3,68.58c0,11.25-5.22,2.88-6.6,1.5"/>
		<path id="kvg:0685f-Kaisho-s3" kvg:type="㇒" d="M29.94,41.28c-5.66,13.84-8.81,19.69-17.58,31.81"/>
		<path id="kvg:0685f-Kaisho-s4" kvg:type="㇔/㇏" d="M32.97,45.4c2.3,1.37,6.09,4.95,8.03,7.6"/>
	</g>
	<g id="kvg:0685f-Kaisho-g2" kvg:element="戔" kvg:variant="true" kvg:position="right">
		<g id="kvg:0685f-Kaisho-g3" kvg:element="三" kvg:part="1">
			<g id="kvg:0685f-Kaisho-g4" kvg:element="一" kvg:position="top">
				<path id="kvg:0685f-Kaisho-s5" kvg:type="㇐" d="M48.24,30.9c1.04,0.38,2.97,0.56,4,0.38c3.65-0.64,22.31-4.16,28.94-5.38c1.05-0.19,1.92,0.2,2.55,0.2"/>
			</g>
			<g id="kvg:0685f-Kaisho-g5" kvg:element="一" kvg:position="bottom">
				<path id="kvg:0685f-Kaisho-s6" kvg:type="㇐" d="M49.48,44.72c0.96,0.39,2.73,0.5,3.69,0.39c4.94-0.55,21.58-5.61,29.09-6.7c1.58-0.23,2.6-0.28,3-0.28"/>
			</g>
			<g id="kvg:0685f-Kaisho-g6" kvg:element="戈">
				<g id="kvg:0685f-Kaisho-g7" kvg:element="弋" kvg:part="1">
					<g id="kvg:0685f-Kaisho-g8" kvg:element="三" kvg:part="2">
						<g id="kvg:0685f-Kaisho-g9" kvg:element="一">
							<path id="kvg:0685f-Kaisho-s7" kvg:type="㇐" d="M44.89,59.34c1.56,0.56,4.43,0.82,5.97,0.56c5.11-0.88,29.65-7.15,40.52-8.48c1.99-0.24,3.3-0.39,3.78-0.49"/>
						</g>
					</g>
					<path id="kvg:0685f-Kaisho-s8" kvg:type="㇂" d="M59.98,12.75c1.54,1.79,2.09,2.3,2.5,6.15C65.62,48.12,72,80.69,89.89,91.71c6.09,3.75,5.19,0.77,4.42-7.18"/>
				</g>
				<g id="kvg:0685f-Kaisho-g10" kvg:element="丿">
					<path id="kvg:0685f-Kaisho-s9" kvg:type="㇒" d="M84.45,59.03c0.1,0.76,0.22,1.96-0.21,3.04c-2.57,6.42-17.3,21.21-37.45,29.84"/>
				</g>
				<g id="kvg:0685f-Kaisho-g11" kvg:element="弋" kvg:part="2">
					<g id="kvg:0685f-Kaisho-g12" kvg:element="丶">
						<path id="kvg:0685f-Kaisho-s10" kvg:type="㇔" d="M77.68,12.27c3.16,1.61,8.21,5.29,9.68,8.05"/>
					</g>
				</g>
			</g>
		</g>
	</g>
</g>
</g>
<g id="kvg:StrokeNumbers_0685f-Kaisho" style="font-size:8;fill:#808080">
	<text transform="matrix(1 0 0 1 6.75 40.50)">1</text>
	<text transform="matrix(1 0 0 1 20.50 16.50)">2</text>
	<text transform="matrix(1 0 0 1 18.75 50.50)">3</text>
	<text transform="matrix(1 0 0 1 38.25 45.13)">4</text>
	<text transform="matrix(1 0 0 1 47.50 27.50)">5</text>
	<text transform="matrix(1 0 0 1 47.50 41.50)">6</text>
	<text transform="matrix(1 0 0 1 47.50 56.98)">7</text>
	<text transform="matrix(1 0 0 1 51.50 13.50)">8</text>
	<text transform="matrix(1 0 0 1 76.50 63.50)">9</text>
	<text transform="matrix(1 0 0 1 66.50 11.50)">10</text>
</g>
</svg>
