<?xml version="1.0" encoding="UTF-8"?>
<!--
Copyright (C) 2009/2010/2011 Ulrich Apel.
This work is distributed under the conditions of the Creative Commons 
Attribution-Share Alike 3.0 Licence. This means you are free:
* to Share - to copy, distribute and transmit the work
* to Remix - to adapt the work

Under the following conditions:
* Attribution. You must attribute the work by stating your use of KanjiVG in
  your own copyright header and linking to KanjiVG's website
  (http://kanjivg.tagaini.net)
* Share Alike. If you alter, transform, or build upon this work, you may
  distribute the resulting work only under the same or similar license to this
  one.

See http://creativecommons.org/licenses/by-sa/3.0/ for more details.
-->
<!DOCTYPE svg PUBLIC "-//W3C//DTD SVG 1.0//EN" "http://www.w3.org/TR/2001/REC-SVG-20010904/DTD/svg10.dtd" [
<!ATTLIST g
xmlns:kvg CDATA #FIXED "http://kanjivg.tagaini.net"
kvg:element CDATA #IMPLIED
kvg:variant CDATA #IMPLIED
kvg:partial CDATA #IMPLIED
kvg:original CDATA #IMPLIED
kvg:part CDATA #IMPLIED
kvg:number CDATA #IMPLIED
kvg:tradForm CDATA #IMPLIED
kvg:radicalForm CDATA #IMPLIED
kvg:position CDATA #IMPLIED
kvg:radical CDATA #IMPLIED
kvg:phon CDATA #IMPLIED >
<!ATTLIST path
xmlns:kvg CDATA #FIXED "http://kanjivg.tagaini.net"
kvg:type CDATA #IMPLIED >
]>
<svg xmlns="http://www.w3.org/2000/svg" width="109" height="109" viewBox="0 0 109 109">
<g id="kvg:StrokePaths_06853-Kaisho" style="fill:none;stroke:#000000;stroke-width:3;stroke-linecap:round;stroke-linejoin:round;">
<g id="kvg:06853-Kaisho" kvg:element="桓">
	<g id="kvg:06853-Kaisho-g1" kvg:element="木" kvg:position="left" kvg:radical="general">
		<path id="kvg:06853-Kaisho-s1" kvg:type="㇐" d="M12.28,40.72c0.35,0.24,2.39,0.41,3.31,0.31c3.94-0.41,17.12-3.21,23.45-4.41c0.92-0.17,1.15-0.24,1.73,0"/>
		<path id="kvg:06853-Kaisho-s2" kvg:type="㇑" d="M27.86,13.5c0.91,0.47,2.54,2,2.54,5.42c0,0.95-0.3,66.75-0.3,72.58c0,12-5.6,1-6.35,0.25"/>
		<path id="kvg:06853-Kaisho-s3" kvg:type="㇒" d="M29.94,42.28c-5.9,14.39-9.19,20.47-18.33,33.06"/>
		<path id="kvg:06853-Kaisho-s4" kvg:type="㇔/㇏" d="M33.22,50.15c2.61,1.52,6.21,6.7,8.41,9.64"/>
	</g>
	<g id="kvg:06853-Kaisho-g2" kvg:element="亘" kvg:position="right">
		<g id="kvg:06853-Kaisho-g3" kvg:element="二" kvg:position="top">
			<g id="kvg:06853-Kaisho-g4" kvg:element="一">
				<path id="kvg:06853-Kaisho-s5" kvg:type="㇐" d="M45.63,24.25c0.94,0.47,2.66,0.55,3.61,0.47c8.26-0.72,28.26-3.97,37.2-4.28c1.57-0.05,2.51,0.22,3.29,0.46"/>
			</g>
		</g>
		<g id="kvg:06853-Kaisho-g5" kvg:element="旦" kvg:position="bottom">
			<g id="kvg:06853-Kaisho-g6" kvg:element="日" kvg:position="top">
				<path id="kvg:06853-Kaisho-s6" kvg:type="㇑" d="M51.78,38.8c0.53,0.84,1.41,2.21,1.41,3.33c0.56,5.63,2.74,31.76,2.88,32.88"/>
				<path id="kvg:06853-Kaisho-s7" kvg:type="㇕a" d="M53.89,40.42c3-0.14,25.85-4.24,28.59-4.41c2.28-0.14,3.07,1.43,2.88,3.8c-0.16,4.56-1.61,20.69-1.99,32.24"/>
				<path id="kvg:06853-Kaisho-s8" kvg:type="㇐a" d="M54.7,56.12c4.88,0,9.87-0.91,14.7-1.44c1.63-0.18,3.27-0.36,4.83-0.53"/>
				<path id="kvg:06853-Kaisho-s9" kvg:type="㇐a" d="M56.82,72.03c6.68-0.28,19.07-2.07,25.59-2.07"/>
			</g>
			<g id="kvg:06853-Kaisho-g7" kvg:element="二" kvg:position="bottom">
				<g id="kvg:06853-Kaisho-g8" kvg:element="一">
					<path id="kvg:06853-Kaisho-s10" kvg:type="㇐" d="M43,87.25c1.18,0.5,3.35,0.53,4.54,0.5C57.99,87.5,81.38,84,93.61,84.01c1.97,0,3.16,0.24,4.14,0.49"/>
				</g>
			</g>
		</g>
	</g>
</g>
</g>
<g id="kvg:StrokeNumbers_06853-Kaisho" style="font-size:8;fill:#808080">
	<text transform="matrix(1 0 0 1 5.85 41.85)">1</text>
	<text transform="matrix(1 0 0 1 19.50 14.50)">2</text>
	<text transform="matrix(1 0 0 1 19.50 50.50)">3</text>
	<text transform="matrix(1 0 0 1 35.50 48.50)">4</text>
	<text transform="matrix(1 0 0 1 43.50 21.50)">5</text>
	<text transform="matrix(1 0 0 1 45.50 47.50)">6</text>
	<text transform="matrix(1 0 0 1 55.50 36.50)">7</text>
	<text transform="matrix(1 0 0 1 58.50 52.50)">8</text>
	<text transform="matrix(1 0 0 1 59.50 68.50)">9</text>
	<text transform="matrix(1 0 0 1 39.50 83.50)">10</text>
</g>
</svg>
