<?xml version="1.0" encoding="UTF-8"?>
<!--
Copyright (C) 2009/2010/2011 Ulrich Apel.
This work is distributed under the conditions of the Creative Commons 
Attribution-Share Alike 3.0 Licence. This means you are free:
* to Share - to copy, distribute and transmit the work
* to Remix - to adapt the work

Under the following conditions:
* Attribution. You must attribute the work by stating your use of KanjiVG in
  your own copyright header and linking to KanjiVG's website
  (http://kanjivg.tagaini.net)
* Share Alike. If you alter, transform, or build upon this work, you may
  distribute the resulting work only under the same or similar license to this
  one.

See http://creativecommons.org/licenses/by-sa/3.0/ for more details.
-->
<!DOCTYPE svg PUBLIC "-//W3C//DTD SVG 1.0//EN" "http://www.w3.org/TR/2001/REC-SVG-20010904/DTD/svg10.dtd" [
<!ATTLIST g
xmlns:kvg CDATA #FIXED "http://kanjivg.tagaini.net"
kvg:element CDATA #IMPLIED
kvg:variant CDATA #IMPLIED
kvg:partial CDATA #IMPLIED
kvg:original CDATA #IMPLIED
kvg:part CDATA #IMPLIED
kvg:number CDATA #IMPLIED
kvg:tradForm CDATA #IMPLIED
kvg:radicalForm CDATA #IMPLIED
kvg:position CDATA #IMPLIED
kvg:radical CDATA #IMPLIED
kvg:phon CDATA #IMPLIED >
<!ATTLIST path
xmlns:kvg CDATA #FIXED "http://kanjivg.tagaini.net"
kvg:type CDATA #IMPLIED >
]>
<svg xmlns="http://www.w3.org/2000/svg" width="109" height="109" viewBox="0 0 109 109">
<g id="kvg:StrokePaths_06885-Kaisho" style="fill:none;stroke:#000000;stroke-width:3;stroke-linecap:round;stroke-linejoin:round;">
<g id="kvg:06885-Kaisho" kvg:element="梅">
	<g id="kvg:06885-Kaisho-g1" kvg:element="木" kvg:position="left" kvg:radical="general">
		<path id="kvg:06885-Kaisho-s1" kvg:type="㇐" d="M14.28,37.72c0.35,0.24,2.39,0.41,3.31,0.31c3.94-0.41,15.12-3.21,21.45-4.41c0.92-0.17,2.15-0.24,2.73,0"/>
		<path id="kvg:06885-Kaisho-s2" kvg:type="㇑" d="M27.86,15.5c0.91,0.47,2.54,1.75,2.54,4.42c0,6.33-0.3,66.73-0.3,67.58c0,13-5.47,2.88-6.85,1.5"/>
		<path id="kvg:06885-Kaisho-s3" kvg:type="㇒" d="M30.69,40.03c-5.9,14.28-9.19,20.31-18.33,32.81"/>
		<path id="kvg:06885-Kaisho-s4" kvg:type="㇔/㇏" d="M32.47,44.9c2.37,1.59,6.28,5.76,8.28,8.85"/>
	</g>
	<g id="kvg:06885-Kaisho-g2" kvg:element="毎" kvg:position="right">
		<g id="kvg:06885-Kaisho-g3" kvg:position="top">
			<g id="kvg:06885-Kaisho-g4" kvg:element="丿">
				<path id="kvg:06885-Kaisho-s5" kvg:type="㇒" d="M58.05,14c0.04,0.61,0.12,1.6-0.07,2.46c-1.17,5.3-7.1,17.53-13.32,23.58"/>
			</g>
			<path id="kvg:06885-Kaisho-s6" kvg:type="㇐" d="M54.69,31.63c0.97,0.2,2.3,0.32,3.25,0.2c5.44-0.68,19.7-3.37,26.4-4.58c1.57-0.29,2.71,0.09,3.52,0.19"/>
		</g>
		<g id="kvg:06885-Kaisho-g5" kvg:element="毋" kvg:original="母" kvg:partial="true" kvg:position="bottom">
			<path id="kvg:06885-Kaisho-s7" kvg:type="㇛" d="M54.4,40.74c0.99,0.87,1.78,3.82,1.23,6.06c-2.41,9.94-6.38,23.45-9.04,30.37c-1.22,3.17-0.48,4.45,1.43,4.45c15.25,0,29.98,3.89,40.23,11.64"/>
			<path id="kvg:06885-Kaisho-s8" kvg:type="㇆" d="M56.98,44.03c0.93-0.15,2.69-0.31,3.51-0.41c8.33-1.03,17.61-2.66,22.22-2.97c3.55-0.24,5.29,0.69,5.04,3.68c-1.25,15.17-7,40.67-11.5,48.69c-1.17,2.09-2.86,2.73-3.84,1.49c-0.75-0.94-1.37-2.12-2.31-3.19"/>
			<path id="kvg:06885-Kaisho-s9" kvg:type="㇑a" d="M69.48,45.71c0.46,0.96,1.37,3.12,1.16,4.33C69.25,58.21,63.96,75,61.41,82.7"/>
			<path id="kvg:06885-Kaisho-s10" kvg:type="㇐" d="M40,63.41c1.03,0.54,2.91,0.59,3.94,0.54c10.69-0.61,30.81-2.7,48.47-4.21c1.71-0.15,2.74,0.25,3.59,0.52"/>
		</g>
	</g>
</g>
</g>
<g id="kvg:StrokeNumbers_06885-Kaisho" style="font-size:8;fill:#808080">
	<text transform="matrix(1 0 0 1 8.25 39.50)">1</text>
	<text transform="matrix(1 0 0 1 19.50 17.50)">2</text>
	<text transform="matrix(1 0 0 1 20.50 47.50)">3</text>
	<text transform="matrix(1 0 0 1 34.50 44.91)">4</text>
	<text transform="matrix(1 0 0 1 49.50 15.50)">5</text>
	<text transform="matrix(1 0 0 1 60.49 28.50)">6</text>
	<text transform="matrix(1 0 0 1 48.75 49.50)">7</text>
	<text transform="matrix(1 0 0 1 59.25 41.50)">8</text>
	<text transform="matrix(1 0 0 1 63.50 52.50)">9</text>
	<text transform="matrix(1 0 0 1 42.50 61.50)">10</text>
</g>
</svg>
