<?xml version="1.0" encoding="UTF-8"?>
<!--
Copyright (C) 2009/2010/2011 Ulrich Apel.
This work is distributed under the conditions of the Creative Commons 
Attribution-Share Alike 3.0 Licence. This means you are free:
* to Share - to copy, distribute and transmit the work
* to Remix - to adapt the work

Under the following conditions:
* Attribution. You must attribute the work by stating your use of KanjiVG in
  your own copyright header and linking to KanjiVG's website
  (http://kanjivg.tagaini.net)
* Share Alike. If you alter, transform, or build upon this work, you may
  distribute the resulting work only under the same or similar license to this
  one.

See http://creativecommons.org/licenses/by-sa/3.0/ for more details.
-->
<!DOCTYPE svg PUBLIC "-//W3C//DTD SVG 1.0//EN" "http://www.w3.org/TR/2001/REC-SVG-20010904/DTD/svg10.dtd" [
<!ATTLIST g
xmlns:kvg CDATA #FIXED "http://kanjivg.tagaini.net"
kvg:element CDATA #IMPLIED
kvg:variant CDATA #IMPLIED
kvg:partial CDATA #IMPLIED
kvg:original CDATA #IMPLIED
kvg:part CDATA #IMPLIED
kvg:number CDATA #IMPLIED
kvg:tradForm CDATA #IMPLIED
kvg:radicalForm CDATA #IMPLIED
kvg:position CDATA #IMPLIED
kvg:radical CDATA #IMPLIED
kvg:phon CDATA #IMPLIED >
<!ATTLIST path
xmlns:kvg CDATA #FIXED "http://kanjivg.tagaini.net"
kvg:type CDATA #IMPLIED >
]>
<svg xmlns="http://www.w3.org/2000/svg" width="109" height="109" viewBox="0 0 109 109">
<g id="kvg:StrokePaths_0688f-Kaisho" style="fill:none;stroke:#000000;stroke-width:3;stroke-linecap:round;stroke-linejoin:round;">
<g id="kvg:0688f-Kaisho" kvg:element="梏">
	<g id="kvg:0688f-Kaisho-g1" kvg:element="木" kvg:position="left" kvg:radical="general">
		<path id="kvg:0688f-Kaisho-s1" kvg:type="㇐" d="M12.78,37.85c0.37,0.18,2.55,0.31,3.52,0.24c4.2-0.31,19.3-1.65,26.06-2.56c0.98-0.13,2.29-0.18,2.91,0"/>
		<path id="kvg:0688f-Kaisho-s2" kvg:type="㇑" d="M28.86,15.5c0.91,0.47,2.54,2.25,2.54,4.42c0,0.95-0.3,68.73-0.3,69.58c0,11-4.72,2.62-6.35,1"/>
		<path id="kvg:0688f-Kaisho-s3" kvg:type="㇒" d="M30.94,38.28c-6.15,17.21-9.57,24.49-19.08,39.56"/>
		<path id="kvg:0688f-Kaisho-s4" kvg:type="㇔/㇏" d="M33.97,45.9c2.37,1.59,4.28,4.76,6.28,7.85"/>
	</g>
	<g id="kvg:0688f-Kaisho-g2" kvg:element="告" kvg:variant="true" kvg:position="right">
		<g id="kvg:0688f-Kaisho-g3" kvg:element="牛" kvg:position="top">
			<path id="kvg:0688f-Kaisho-s5" kvg:type="㇒" d="M56.58,20.88c0.03,0.59,0.06,1.52-0.06,2.36c-0.72,4.98-4.82,15.9-10.44,22.59"/>
			<path id="kvg:0688f-Kaisho-s6" kvg:type="㇐" d="M56.63,34.82c0.69,0.35,2.96,0.43,3.65,0.35c8.48-0.97,17.61-2.78,25.4-3.09c1.15-0.05,1.84,0.17,2.42,0.34"/>
			<path id="kvg:0688f-Kaisho-s7" kvg:type="㇐" d="M45.33,56.78c1.12,0.5,3.17,0.58,4.29,0.5c11.63-0.84,24.61-2.88,42.15-3.76c1.86-0.09,2.98,0.24,3.91,0.49"/>
			<path id="kvg:0688f-Kaisho-s8" kvg:type="㇑" d="M68.26,15.38c0.56,0.41,1.74,3.1,1.85,3.93c0.11,0.83-0.07,37.8-0.18,42.98"/>
		</g>
		<g id="kvg:0688f-Kaisho-g4" kvg:element="口" kvg:position="bottom">
			<path id="kvg:0688f-Kaisho-s9" kvg:type="㇑" d="M50.33,70.24c0.34,0.41,0.68,0.75,0.83,1.26c1.17,4.04,2.67,16.47,3.47,23.72"/>
			<path id="kvg:0688f-Kaisho-s10" kvg:type="㇕b" d="M51.77,72.13c9.05-0.93,29.19-3.2,33.45-3.77c1.56-0.21,2.5,2.1,2.27,3.33c-0.92,5.08-2.38,12.13-4.36,19.45"/>
			<path id="kvg:0688f-Kaisho-s11" kvg:type="㇐b" d="M55.3,92.98c7.83-0.54,25.1-1.13,30.72-1.63"/>
		</g>
	</g>
</g>
</g>
<g id="kvg:StrokeNumbers_0688f-Kaisho" style="font-size:8;fill:#808080">
	<text transform="matrix(1 0 0 1 7.50 38.50)">1</text>
	<text transform="matrix(1 0 0 1 20.50 15.50)">2</text>
	<text transform="matrix(1 0 0 1 20.50 47.50)">3</text>
	<text transform="matrix(1 0 0 1 36.54 45.50)">4</text>
	<text transform="matrix(1 0 0 1 48.50 20.50)">5</text>
	<text transform="matrix(1 0 0 1 60.25 31.50)">6</text>
	<text transform="matrix(1 0 0 1 61.50 14.18)">7</text>
	<text transform="matrix(1 0 0 1 45.50 53.50)">8</text>
	<text transform="matrix(1 0 0 1 44.50 77.50)">9</text>
	<text transform="matrix(1 0 0 1 54.50 68.50)">10</text>
	<text transform="matrix(1 0 0 1 57.50 89.50)">11</text>
</g>
</svg>
