<?xml version="1.0" encoding="UTF-8"?>
<!--
Copyright (C) 2009/2010/2011 Ulrich Apel.
This work is distributed under the conditions of the Creative Commons 
Attribution-Share Alike 3.0 Licence. This means you are free:
* to Share - to copy, distribute and transmit the work
* to Remix - to adapt the work

Under the following conditions:
* Attribution. You must attribute the work by stating your use of KanjiVG in
  your own copyright header and linking to KanjiVG's website
  (http://kanjivg.tagaini.net)
* Share Alike. If you alter, transform, or build upon this work, you may
  distribute the resulting work only under the same or similar license to this
  one.

See http://creativecommons.org/licenses/by-sa/3.0/ for more details.
-->
<!DOCTYPE svg PUBLIC "-//W3C//DTD SVG 1.0//EN" "http://www.w3.org/TR/2001/REC-SVG-20010904/DTD/svg10.dtd" [
<!ATTLIST g
xmlns:kvg CDATA #FIXED "http://kanjivg.tagaini.net"
kvg:element CDATA #IMPLIED
kvg:variant CDATA #IMPLIED
kvg:partial CDATA #IMPLIED
kvg:original CDATA #IMPLIED
kvg:part CDATA #IMPLIED
kvg:number CDATA #IMPLIED
kvg:tradForm CDATA #IMPLIED
kvg:radicalForm CDATA #IMPLIED
kvg:position CDATA #IMPLIED
kvg:radical CDATA #IMPLIED
kvg:phon CDATA #IMPLIED >
<!ATTLIST path
xmlns:kvg CDATA #FIXED "http://kanjivg.tagaini.net"
kvg:type CDATA #IMPLIED >
]>
<svg xmlns="http://www.w3.org/2000/svg" width="109" height="109" viewBox="0 0 109 109">
<g id="kvg:StrokePaths_068bc" style="fill:none;stroke:#000000;stroke-width:3;stroke-linecap:round;stroke-linejoin:round;">
<g id="kvg:068bc" kvg:element="梼">
	<g id="kvg:068bc-g1" kvg:element="木" kvg:position="left" kvg:radical="tradit">
		<path id="kvg:068bc-s1" kvg:type="㇐" d="M13.5,37.96c0.56,0.16,2.24,0.13,3.71,0c5.2-0.47,14.69-1.75,20.26-2.06c1.48-0.08,2.6-0.47,3.53-0.31"/>
		<path id="kvg:068bc-s2" kvg:type="㇑" d="M28,15.5c1.25,0.5,2,2.25,2.25,3.25s0,71.25-0.25,77.5"/>
		<path id="kvg:068bc-s3" kvg:type="㇒" d="M29.75,38.5c-2.81,10.33-11.16,27.65-17,33.5"/>
		<path id="kvg:068bc-s4" kvg:type="㇏" d="M32.5,47.25c3.22,2.21,6.66,6.63,8.5,10.5"/>
	</g>
	<g id="kvg:068bc-g2" kvg:element="寿" kvg:position="right">
		<g id="kvg:068bc-g3" kvg:element="三">
			<g id="kvg:068bc-g4" kvg:element="一" kvg:position="top">
				<path id="kvg:068bc-s5" kvg:type="㇐" d="M48.56,25.9c0.89,0.37,2.53,0.45,3.42,0.37c6.21-0.52,25.4-3.76,33.88-3.76c1.49,0,2.38,0.18,3.12,0.36"/>
			</g>
			<g id="kvg:068bc-g5" kvg:position="bottom">
				<g id="kvg:068bc-g6" kvg:element="一">
					<path id="kvg:068bc-s6" kvg:type="㇐" d="M50.59,36.39c0.82,0.38,2.33,0.45,3.15,0.38c6.04-0.52,22.32-3.02,28.19-3.38c1.37-0.08,2.19,0.18,2.88,0.37"/>
				</g>
				<g id="kvg:068bc-g7" kvg:element="一">
					<path id="kvg:068bc-s7" kvg:type="㇐" d="M43.9,49.29c1.07,0.4,3.05,0.54,4.12,0.4c8.68-1.12,30.23-3.23,42.86-3.87c1.79-0.09,2.86,0.19,3.76,0.39"/>
				</g>
			</g>
		</g>
		<g id="kvg:068bc-g8" kvg:element="丿">
			<path id="kvg:068bc-s8" kvg:type="㇒" d="M67.14,12.5c0.61,1.5,0.84,2.91,0.72,5.06C66.25,45,63.25,74.25,42.96,91.04"/>
		</g>
		<g id="kvg:068bc-g9" kvg:element="寸">
			<path id="kvg:068bc-s9" kvg:type="㇐" d="M44.63,66.31c1.39,0.67,3.94,0.84,5.34,0.67c15.44-1.86,27.52-3.43,44.53-4.45c2.32-0.14,3.71,0.32,4.88,0.65"/>
			<path id="kvg:068bc-s10" kvg:type="㇚" d="M80.95,53.33c0.07,0.45,1.1,2.33,1.1,5.17c0,19.11-0.29,28.19-0.29,32.84c0,11.27-6.14,2.14-8.06,0.7"/>
			<path id="kvg:068bc-s11" kvg:type="㇔" d="M60.06,74.37c2.8,1.46,7.24,5.99,7.94,8.25"/>
		</g>
	</g>
</g>
</g>
<g id="kvg:StrokeNumbers_068bc" style="font-size:8;fill:#808080">
	<text transform="matrix(1 0 0 1 7.25 37.50)">1</text>
	<text transform="matrix(1 0 0 1 19.50 15.50)">2</text>
	<text transform="matrix(1 0 0 1 20.50 47.50)">3</text>
	<text transform="matrix(1 0 0 1 34.50 47.90)">4</text>
	<text transform="matrix(1 0 0 1 45.50 22.50)">5</text>
	<text transform="matrix(1 0 0 1 48.50 34.50)">6</text>
	<text transform="matrix(1 0 0 1 42.50 46.50)">7</text>
	<text transform="matrix(1 0 0 1 59.50 11.50)">8</text>
	<text transform="matrix(1 0 0 1 43.50 63.50)">9</text>
	<text transform="matrix(1 0 0 1 69.50 56.50)">10</text>
	<text transform="matrix(1 0 0 1 56.25 85.50)">11</text>
</g>
</svg>
