<?xml version="1.0" encoding="UTF-8"?>
<!--
Copyright (C) 2009/2010/2011 Ulrich Apel.
This work is distributed under the conditions of the Creative Commons 
Attribution-Share Alike 3.0 Licence. This means you are free:
* to Share - to copy, distribute and transmit the work
* to Remix - to adapt the work

Under the following conditions:
* Attribution. You must attribute the work by stating your use of KanjiVG in
  your own copyright header and linking to KanjiVG's website
  (http://kanjivg.tagaini.net)
* Share Alike. If you alter, transform, or build upon this work, you may
  distribute the resulting work only under the same or similar license to this
  one.

See http://creativecommons.org/licenses/by-sa/3.0/ for more details.
-->
<!DOCTYPE svg PUBLIC "-//W3C//DTD SVG 1.0//EN" "http://www.w3.org/TR/2001/REC-SVG-20010904/DTD/svg10.dtd" [
<!ATTLIST g
xmlns:kvg CDATA #FIXED "http://kanjivg.tagaini.net"
kvg:element CDATA #IMPLIED
kvg:variant CDATA #IMPLIED
kvg:partial CDATA #IMPLIED
kvg:original CDATA #IMPLIED
kvg:part CDATA #IMPLIED
kvg:number CDATA #IMPLIED
kvg:tradForm CDATA #IMPLIED
kvg:radicalForm CDATA #IMPLIED
kvg:position CDATA #IMPLIED
kvg:radical CDATA #IMPLIED
kvg:phon CDATA #IMPLIED >
<!ATTLIST path
xmlns:kvg CDATA #FIXED "http://kanjivg.tagaini.net"
kvg:type CDATA #IMPLIED >
]>
<svg xmlns="http://www.w3.org/2000/svg" width="109" height="109" viewBox="0 0 109 109">
<g id="kvg:StrokePaths_068b6-Kaisho" style="fill:none;stroke:#000000;stroke-width:3;stroke-linecap:round;stroke-linejoin:round;">
<g id="kvg:068b6-Kaisho" kvg:element="梶">
	<g id="kvg:068b6-Kaisho-g1" kvg:element="木" kvg:position="left" kvg:radical="general">
		<path id="kvg:068b6-Kaisho-s1" kvg:type="㇐" d="M11.28,40.54c0.35,0.24,2.39,0.41,3.31,0.31c3.94-0.41,19.12-2.72,25.45-3.93c0.92-0.17,1.15-0.24,1.73,0"/>
		<path id="kvg:068b6-Kaisho-s2" kvg:type="㇑" d="M27.86,14.75c0.91,0.47,2.54,2.25,2.54,4.94c0,0.95-0.3,64.97-0.3,70.81c0,8.25-4.97,3.12-6.6,1.5"/>
		<path id="kvg:068b6-Kaisho-s3" kvg:type="㇒" d="M29.75,41.5c-5.25,14.75-8,21.15-17.14,33.78"/>
		<path id="kvg:068b6-Kaisho-s4" kvg:type="㇔/㇏" d="M33.72,47.5c2.22,1.4,5.29,6.2,7.16,8.92"/>
	</g>
	<g id="kvg:068b6-Kaisho-g2" kvg:element="尾" kvg:position="right">
		<g id="kvg:068b6-Kaisho-g3" kvg:element="尸" kvg:position="tare">
			<path id="kvg:068b6-Kaisho-s5" kvg:type="㇕c" d="M44.78,19.93c1.29,0.73,3.8,1.38,5.17,1.23c7.4-0.81,33.28-4.47,36.25-4.76c1.47-0.14,2.7,1.07,2.5,2.53c-0.64,4.77-1.75,6.56-2.33,11.17"/>
			<path id="kvg:068b6-Kaisho-s6" kvg:type="㇐b" d="M50.48,33.7c3.71-0.24,34.15-3.63,38.02-3.87"/>
			<path id="kvg:068b6-Kaisho-s7" kvg:type="㇒" d="M50.22,22.11c0,3.74-0.13,5.62-0.1,9.13c0.14,23.01-0.86,46.26-11.36,59.17"/>
		</g>
		<g id="kvg:068b6-Kaisho-g4" kvg:element="毛">
			<path id="kvg:068b6-Kaisho-s8" kvg:type="㇒" d="M83.28,37.07c0.07,0.29,0.16,0.76-0.15,1.18c-1.79,2.5-11.41,7.98-25.48,11.33"/>
			<path id="kvg:068b6-Kaisho-s9" kvg:type="㇐" d="M54.16,62.03c0.65,0.72,2.28,0.82,2.94,0.72c8.41-1.28,22.4-6.75,30.71-8.98c1.07-0.29,1.94-0.52,3.09-0.3"/>
			<path id="kvg:068b6-Kaisho-s10" kvg:type="㇐" d="M51.32,76.57c0.6,0.46,3.71,1.1,4.3,0.96c6.63-1.53,29.13-9.28,37.19-11.7c0.96-0.29,1.44-0.83,2.74-0.65"/>
			<path id="kvg:068b6-Kaisho-s11" kvg:type="㇟" d="M69.65,49.16c0.33,0.8,0.59,1.75,0.61,2.99c0.09,5.54-0.33,28.69-0.33,32.08c0,10.65,4.32,9.31,14.26,9.31c10.36,0,12.4-1.8,12.4-7.96"/>
		</g>
	</g>
</g>
</g>
<g id="kvg:StrokeNumbers_068b6-Kaisho" style="font-size:8;fill:#808080">
	<text transform="matrix(1 0 0 1 4.50 41.85)">1</text>
	<text transform="matrix(1 0 0 1 19.50 15.50)">2</text>
	<text transform="matrix(1 0 0 1 19.50 50.50)">3</text>
	<text transform="matrix(1 0 0 1 35.50 47.50)">4</text>
	<text transform="matrix(1 0 0 1 47.50 17.50)">5</text>
	<text transform="matrix(1 0 0 1 55.50 30.50)">6</text>
	<text transform="matrix(1 0 0 1 42.50 30.50)">7</text>
	<text transform="matrix(1 0 0 1 73.50 39.50)">8</text>
	<text transform="matrix(1 0 0 1 54.50 59.50)">9</text>
	<text transform="matrix(1 0 0 1 51.50 73.50)">10</text>
	<text transform="matrix(1 0 0 1 61.50 55.50)">11</text>
</g>
</svg>
