<?xml version="1.0" encoding="UTF-8"?>
<!--
Copyright (C) 2009/2010/2011 Ulrich Apel.
This work is distributed under the conditions of the Creative Commons 
Attribution-Share Alike 3.0 Licence. This means you are free:
* to Share - to copy, distribute and transmit the work
* to Remix - to adapt the work

Under the following conditions:
* Attribution. You must attribute the work by stating your use of KanjiVG in
  your own copyright header and linking to KanjiVG's website
  (http://kanjivg.tagaini.net)
* Share Alike. If you alter, transform, or build upon this work, you may
  distribute the resulting work only under the same or similar license to this
  one.

See http://creativecommons.org/licenses/by-sa/3.0/ for more details.
-->
<!DOCTYPE svg PUBLIC "-//W3C//DTD SVG 1.0//EN" "http://www.w3.org/TR/2001/REC-SVG-20010904/DTD/svg10.dtd" [
<!ATTLIST g
xmlns:kvg CDATA #FIXED "http://kanjivg.tagaini.net"
kvg:element CDATA #IMPLIED
kvg:variant CDATA #IMPLIED
kvg:partial CDATA #IMPLIED
kvg:original CDATA #IMPLIED
kvg:part CDATA #IMPLIED
kvg:number CDATA #IMPLIED
kvg:tradForm CDATA #IMPLIED
kvg:radicalForm CDATA #IMPLIED
kvg:position CDATA #IMPLIED
kvg:radical CDATA #IMPLIED
kvg:phon CDATA #IMPLIED >
<!ATTLIST path
xmlns:kvg CDATA #FIXED "http://kanjivg.tagaini.net"
kvg:type CDATA #IMPLIED >
]>
<svg xmlns="http://www.w3.org/2000/svg" width="109" height="109" viewBox="0 0 109 109">
<g id="kvg:StrokePaths_068f9" style="fill:none;stroke:#000000;stroke-width:3;stroke-linecap:round;stroke-linejoin:round;">
<g id="kvg:068f9" kvg:element="棹">
	<g id="kvg:068f9-g1" kvg:element="木" kvg:position="left" kvg:radical="general">
		<path id="kvg:068f9-s1" kvg:type="㇐" d="M11.78,37.72c0.35,0.24,2.39,0.41,3.31,0.31c3.94-0.41,17.62-1.71,23.95-2.91c0.92-0.17,2.15-0.24,2.73,0"/>
		<path id="kvg:068f9-s2" kvg:type="㇑" d="M27.36,15c0.91,0.47,2.04,2.5,2.04,3.92c0,0.95-0.12,68.75-0.3,74.58"/>
		<path id="kvg:068f9-s3" kvg:type="㇒" d="M28.94,39.28c-5.1,15.04-7.94,21.4-15.83,34.56"/>
		<path id="kvg:068f9-s4" kvg:type="㇔/㇏" d="M31.47,45.4c2.37,1.59,7.28,6.76,9.28,9.85"/>
	</g>
	<g id="kvg:068f9-g2" kvg:element="卓" kvg:position="right">
		<g id="kvg:068f9-g3" kvg:element="卜" kvg:original="ト" kvg:position="top">
			<path id="kvg:068f9-s5" kvg:type="㇑" d="M65.81,11.88c0.76,0.33,1.86,2.46,2.01,3.12c0.15,0.66,0.4,14.53,0.25,18.63"/>
			<path id="kvg:068f9-s6" kvg:type="㇐" d="M68.25,22.5c2,0,13.67-1.36,19.5-2.27C89.83,19.9,90.75,20.08,92,20"/>
		</g>
		<g id="kvg:068f9-g4" kvg:element="早" kvg:position="bottom">
			<g id="kvg:068f9-g5" kvg:element="日" kvg:position="top">
				<path id="kvg:068f9-s7" kvg:type="㇑" d="M49.16,34.67c0.69,1.17,1.6,1.54,1.82,3.11c0.6,4.28,2.2,17.63,2.23,21.22"/>
				<path id="kvg:068f9-s8" kvg:type="㇕a" d="M51.36,36.11c3.89-0.19,34.04-3.86,37.55-3.37c1.39,0.19,2.73,1.73,2.2,3.69c-1,3.69-3.09,14.55-4.92,21.16"/>
				<path id="kvg:068f9-s9" kvg:type="㇐a" d="M52.14,45.81c6.64-0.43,30.55-2.72,36.5-2.72"/>
				<path id="kvg:068f9-s10" kvg:type="㇐a" d="M53.88,56.36c9.56-0.74,27.05-2.33,31.91-2.33"/>
			</g>
			<g id="kvg:068f9-g6" kvg:element="十" kvg:position="bottom">
				<path id="kvg:068f9-s11" kvg:type="㇐" d="M41.88,72.21c1.19,0.46,3.38,0.58,4.57,0.46c10.3-1.09,37.82-3.46,47.51-3.42c1.99,0.01,3.18,0.22,4.17,0.45"/>
				<path id="kvg:068f9-s12" kvg:type="㇑" d="M68.73,58.75c0.44,0.55,1.38,1.63,1.47,2.74c0.09,1.1-0.06,28.62-0.15,35.51"/>
			</g>
		</g>
	</g>
</g>
</g>
<g id="kvg:StrokeNumbers_068f9" style="font-size:8;fill:#808080">
	<text transform="matrix(1 0 0 1 5.50 38.50)">1</text>
	<text transform="matrix(1 0 0 1 18.50 15.50)">2</text>
	<text transform="matrix(1 0 0 1 19.50 47.48)">3</text>
	<text transform="matrix(1 0 0 1 34.50 45.40)">4</text>
	<text transform="matrix(1 0 0 1 57.00 12.33)">5</text>
	<text transform="matrix(1 0 0 1 72.50 18.50)">6</text>
	<text transform="matrix(1 0 0 1 43.50 44.50)">7</text>
	<text transform="matrix(1 0 0 1 53.50 32.50)">8</text>
	<text transform="matrix(1 0 0 1 56.50 43.50)">9</text>
	<text transform="matrix(1 0 0 1 56.50 53.50)">10</text>
	<text transform="matrix(1 0 0 1 38.50 69.88)">11</text>
	<text transform="matrix(1 0 0 1 59.50 64.50)">12</text>
</g>
</svg>
