<?xml version="1.0" encoding="UTF-8"?>
<!--
Copyright (C) 2009/2010/2011 Ulrich Apel.
This work is distributed under the conditions of the Creative Commons 
Attribution-Share Alike 3.0 Licence. This means you are free:
* to Share - to copy, distribute and transmit the work
* to Remix - to adapt the work

Under the following conditions:
* Attribution. You must attribute the work by stating your use of KanjiVG in
  your own copyright header and linking to KanjiVG's website
  (http://kanjivg.tagaini.net)
* Share Alike. If you alter, transform, or build upon this work, you may
  distribute the resulting work only under the same or similar license to this
  one.

See http://creativecommons.org/licenses/by-sa/3.0/ for more details.
-->
<!DOCTYPE svg PUBLIC "-//W3C//DTD SVG 1.0//EN" "http://www.w3.org/TR/2001/REC-SVG-20010904/DTD/svg10.dtd" [
<!ATTLIST g
xmlns:kvg CDATA #FIXED "http://kanjivg.tagaini.net"
kvg:element CDATA #IMPLIED
kvg:variant CDATA #IMPLIED
kvg:partial CDATA #IMPLIED
kvg:original CDATA #IMPLIED
kvg:part CDATA #IMPLIED
kvg:number CDATA #IMPLIED
kvg:tradForm CDATA #IMPLIED
kvg:radicalForm CDATA #IMPLIED
kvg:position CDATA #IMPLIED
kvg:radical CDATA #IMPLIED
kvg:phon CDATA #IMPLIED >
<!ATTLIST path
xmlns:kvg CDATA #FIXED "http://kanjivg.tagaini.net"
kvg:type CDATA #IMPLIED >
]>
<svg xmlns="http://www.w3.org/2000/svg" width="109" height="109" viewBox="0 0 109 109">
<g id="kvg:StrokePaths_0690b-Kaisho" style="fill:none;stroke:#000000;stroke-width:3;stroke-linecap:round;stroke-linejoin:round;">
<g id="kvg:0690b-Kaisho" kvg:element="椋">
	<g id="kvg:0690b-Kaisho-g1" kvg:element="木" kvg:position="left" kvg:radical="general">
		<path id="kvg:0690b-Kaisho-s1" kvg:type="㇐" d="M13.53,38.97c0.35,0.24,2.39,0.41,3.31,0.31c3.94-0.41,16.12-2.21,22.45-3.41c0.92-0.17,2.15-0.24,2.73,0"/>
		<path id="kvg:0690b-Kaisho-s2" kvg:type="㇑" d="M28.61,13.75c0.91,0.47,2.04,2,2.04,5.42c0,0.95-0.3,64.75-0.3,70.58c0,13-6.47,2.88-7.85,1.5"/>
		<path id="kvg:0690b-Kaisho-s3" kvg:type="㇒" d="M30.69,39.03c-5.9,14.49-9.19,20.62-18.33,33.31"/>
		<path id="kvg:0690b-Kaisho-s4" kvg:type="㇔/㇏" d="M33.72,46.65C36.1,48.24,40,53.41,42,56.5"/>
	</g>
	<g id="kvg:0690b-Kaisho-g2" kvg:element="京" kvg:position="right">
		<g id="kvg:0690b-Kaisho-g3" kvg:element="亠" kvg:position="top">
			<path id="kvg:0690b-Kaisho-s5" kvg:type="㇑a" d="M64.84,10.92c2.66,1.33,5.91,4.33,7.55,7.96"/>
			<path id="kvg:0690b-Kaisho-s6" kvg:type="㇐" d="M42.75,27.61c1.18,0.06,3.87,0.56,5.02,0.38c10.61-1.61,35.07-3.75,46.11-4.16c1.95-0.07,2.94-0.04,4.39,0.55"/>
		</g>
		<g id="kvg:0690b-Kaisho-g4" kvg:position="bottom">
			<g id="kvg:0690b-Kaisho-g5" kvg:element="口">
				<path id="kvg:0690b-Kaisho-s7" kvg:type="㇑" d="M51.04,38.7c0.55,0.38,1.65,2.13,1.77,2.65c0.83,3.74,1.55,10,2.78,17.09"/>
				<path id="kvg:0690b-Kaisho-s8" kvg:type="㇕b" d="M52.85,40.45c8.26-1.46,25.29-3.91,30.9-4.51c2.33-0.25,4.48,2.04,3.54,4.9c-1.04,3.18-2.29,8.6-3.75,13.01"/>
				<path id="kvg:0690b-Kaisho-s9" kvg:type="㇐b" d="M55.97,57c7.78-1,20.03-2,30.95-2.93"/>
			</g>
			<g id="kvg:0690b-Kaisho-g6" kvg:element="小">
				<path id="kvg:0690b-Kaisho-s10" kvg:type="㇚" d="M69.68,59.23c0.07,0.47,0.93,2.44,1.05,5.41c0.19,4.8-0.21,22.04-0.21,26.17c0,8.85-6.01,0.49-7.26-0.73"/>
				<path id="kvg:0690b-Kaisho-s11" kvg:type="㇒" d="M55.62,67.72c0.04,0.47,0.09,1.22-0.08,1.91c-1.04,4.01-7,12.83-15.16,18.22"/>
				<path id="kvg:0690b-Kaisho-s12" kvg:type="㇔" d="M81.63,66.72c5.64,3.77,13.42,14.29,14.83,20.16"/>
			</g>
		</g>
	</g>
</g>
</g>
<g id="kvg:StrokeNumbers_0690b-Kaisho" style="font-size:8;fill:#808080">
	<text transform="matrix(1 0 0 1 6.25 38.25)">1</text>
	<text transform="matrix(1 0 0 1 19.25 13.25)">2</text>
	<text transform="matrix(1 0 0 1 19.25 49.25)">3</text>
	<text transform="matrix(1 0 0 1 36.29 46.60)">4</text>
	<text transform="matrix(1 0 0 1 59.25 10.25)">5</text>
	<text transform="matrix(1 0 0 1 41.25 24.25)">6</text>
	<text transform="matrix(1 0 0 1 44.00 49.43)">7</text>
	<text transform="matrix(1 0 0 1 55.25 37.25)">8</text>
	<text transform="matrix(1 0 0 1 59.25 53.25)">9</text>
	<text transform="matrix(1 0 0 1 59.25 66.20)">10</text>
	<text transform="matrix(1 0 0 1 45.00 68.13)">11</text>
	<text transform="matrix(1 0 0 1 83.25 65.25)">12</text>
</g>
</svg>
