<?xml version="1.0" encoding="UTF-8"?>
<!--
Copyright (C) 2009/2010/2011 Ulrich Apel.
This work is distributed under the conditions of the Creative Commons 
Attribution-Share Alike 3.0 Licence. This means you are free:
* to Share - to copy, distribute and transmit the work
* to Remix - to adapt the work

Under the following conditions:
* Attribution. You must attribute the work by stating your use of KanjiVG in
  your own copyright header and linking to KanjiVG's website
  (http://kanjivg.tagaini.net)
* Share Alike. If you alter, transform, or build upon this work, you may
  distribute the resulting work only under the same or similar license to this
  one.

See http://creativecommons.org/licenses/by-sa/3.0/ for more details.
-->
<!DOCTYPE svg PUBLIC "-//W3C//DTD SVG 1.0//EN" "http://www.w3.org/TR/2001/REC-SVG-20010904/DTD/svg10.dtd" [
<!ATTLIST g
xmlns:kvg CDATA #FIXED "http://kanjivg.tagaini.net"
kvg:element CDATA #IMPLIED
kvg:variant CDATA #IMPLIED
kvg:partial CDATA #IMPLIED
kvg:original CDATA #IMPLIED
kvg:part CDATA #IMPLIED
kvg:number CDATA #IMPLIED
kvg:tradForm CDATA #IMPLIED
kvg:radicalForm CDATA #IMPLIED
kvg:position CDATA #IMPLIED
kvg:radical CDATA #IMPLIED
kvg:phon CDATA #IMPLIED >
<!ATTLIST path
xmlns:kvg CDATA #FIXED "http://kanjivg.tagaini.net"
kvg:type CDATA #IMPLIED >
]>
<svg xmlns="http://www.w3.org/2000/svg" width="109" height="109" viewBox="0 0 109 109">
<g id="kvg:StrokePaths_06925" style="fill:none;stroke:#000000;stroke-width:3;stroke-linecap:round;stroke-linejoin:round;">
<g id="kvg:06925" kvg:element="椥">
	<g id="kvg:06925-g1" kvg:element="木" kvg:position="left" kvg:radical="general">
		<path id="kvg:06925-s1" kvg:type="㇐" d="M11.28,36.72c0.35,0.24,2.39,0.41,3.31,0.31c3.94-0.41,15.12-1.71,21.45-2.91c0.92-0.17,2.15-0.24,2.73,0"/>
		<path id="kvg:06925-s2" kvg:type="㇑" d="M26.36,15.5c0.91,0.47,2.04,2.5,2.04,4.42c0,0.95-0.12,68.75-0.3,74.58"/>
		<path id="kvg:06925-s3" kvg:type="㇒" d="M27.94,39.28c-5.1,15.04-7.94,21.4-15.83,34.56"/>
		<path id="kvg:06925-s4" kvg:type="㇔/㇏" d="M30.47,44.9c2.37,1.59,4.28,3.76,6.28,6.85"/>
	</g>
	<g id="kvg:06925-g2" kvg:element="知" kvg:position="right">
		<g id="kvg:06925-g3" kvg:element="矢" kvg:variant="true" kvg:position="left">
			<path id="kvg:06925-s5" kvg:type="㇒" d="M50.13,18.21c0.03,0.58,0.06,1.5-0.06,2.34c-0.69,4.93-3.49,15.24-8.55,23.36"/>
			<g id="kvg:06925-g4" kvg:element="天" kvg:variant="true">
				<path id="kvg:06925-s6" kvg:type="㇐" d="M48.77,34.72c1.2,0,1.47,0.14,2.06,0c2.98-0.72,6.41-1.22,12.65-2.41c1.04-0.2,1.95-0.23,2.44-0.04"/>
				<g id="kvg:06925-g5" kvg:element="大" kvg:variant="true">
					<path id="kvg:06925-s7" kvg:type="㇐" d="M37.47,57.71c0.43,0.3,2.9,0.44,3.38,0.42c6.9-0.38,17.15-1.63,22.94-2.7c0.59-0.11,1.91-0.19,3.24,0.32"/>
					<path id="kvg:06925-s8" kvg:type="㇒" d="M54.25,37.41c0.28,1.27,0.41,2.52,0.41,4.1c-0.13,27.34-6.67,41.77-17.43,50.17"/>
					<path id="kvg:06925-s9" kvg:type="㇔/㇏" d="M55.38,69.75C60.67,73.77,65.42,80.67,66.34,85"/>
				</g>
			</g>
		</g>
		<g id="kvg:06925-g6" kvg:element="口" kvg:position="right">
			<path id="kvg:06925-s10" kvg:type="㇑" d="M70.79,41.44c0.28,0.72,0.57,1.32,0.69,2.22c0.97,7.13,2.13,26.79,2.79,39.59"/>
			<path id="kvg:06925-s11" kvg:type="㇕b" d="M71.99,44c6.53-1.25,16.28-2.25,21.44-3.09c1.39-0.23,3.22,1.16,3.02,2.58c-0.84,5.88-2.2,25.76-3.06,35.09"/>
			<path id="kvg:06925-s12" kvg:type="㇐b" d="M74.42,80.56c7.08-0.81,12.83-1.56,21.86-2.31"/>
		</g>
	</g>
</g>
</g>
<g id="kvg:StrokeNumbers_06925" style="font-size:8;fill:#808080">
	<text transform="matrix(1 0 0 1 5.85 37.50)">1</text>
	<text transform="matrix(1 0 0 1 17.50 15.50)">2</text>
	<text transform="matrix(1 0 0 1 18.50 45.50)">3</text>
	<text transform="matrix(1 0 0 1 32.50 44.50)">4</text>
	<text transform="matrix(1 0 0 1 41.50 16.50)">5</text>
	<text transform="matrix(1 0 0 1 52.50 30.50)">6</text>
	<text transform="matrix(1 0 0 1 40.50 54.50)">7</text>
	<text transform="matrix(1 0 0 1 47.25 43.60)">8</text>
	<text transform="matrix(1 0 0 1 57.50 68.50)">9</text>
	<text transform="matrix(1 0 0 1 61.50 49.50)">10</text>
	<text transform="matrix(1 0 0 1 74.50 39.50)">11</text>
	<text transform="matrix(1 0 0 1 76.50 76.50)">12</text>
</g>
</svg>
