<?xml version="1.0" encoding="UTF-8"?>
<!--
Copyright (C) 2009/2010/2011 Ulrich Apel.
This work is distributed under the conditions of the Creative Commons 
Attribution-Share Alike 3.0 Licence. This means you are free:
* to Share - to copy, distribute and transmit the work
* to Remix - to adapt the work

Under the following conditions:
* Attribution. You must attribute the work by stating your use of KanjiVG in
  your own copyright header and linking to KanjiVG's website
  (http://kanjivg.tagaini.net)
* Share Alike. If you alter, transform, or build upon this work, you may
  distribute the resulting work only under the same or similar license to this
  one.

See http://creativecommons.org/licenses/by-sa/3.0/ for more details.
-->
<!DOCTYPE svg PUBLIC "-//W3C//DTD SVG 1.0//EN" "http://www.w3.org/TR/2001/REC-SVG-20010904/DTD/svg10.dtd" [
<!ATTLIST g
xmlns:kvg CDATA #FIXED "http://kanjivg.tagaini.net"
kvg:element CDATA #IMPLIED
kvg:variant CDATA #IMPLIED
kvg:partial CDATA #IMPLIED
kvg:original CDATA #IMPLIED
kvg:part CDATA #IMPLIED
kvg:number CDATA #IMPLIED
kvg:tradForm CDATA #IMPLIED
kvg:radicalForm CDATA #IMPLIED
kvg:position CDATA #IMPLIED
kvg:radical CDATA #IMPLIED
kvg:phon CDATA #IMPLIED >
<!ATTLIST path
xmlns:kvg CDATA #FIXED "http://kanjivg.tagaini.net"
kvg:type CDATA #IMPLIED >
]>
<svg xmlns="http://www.w3.org/2000/svg" width="109" height="109" viewBox="0 0 109 109">
<g id="kvg:StrokePaths_06953" style="fill:none;stroke:#000000;stroke-width:3;stroke-linecap:round;stroke-linejoin:round;">
<g id="kvg:06953" kvg:element="楓">
	<g id="kvg:06953-g1" kvg:element="木" kvg:position="left" kvg:radical="general">
		<path id="kvg:06953-s1" kvg:type="㇐" d="M10.78,37.97c1.24,0.86,4.74,0.39,6.12,0.18c4.67-0.73,12.58-2.38,17.87-3.43c1.26-0.25,2.48-0.59,4.5-0.35"/>
		<path id="kvg:06953-s2" kvg:type="㇑" d="M27.36,15.25c1.07,1.07,1.54,2.38,1.54,3.92c0,5.31-0.02,45.78-0.02,65.45c0,4.23,0,7.5,0,9.25"/>
		<path id="kvg:06953-s3" kvg:type="㇒" d="M28.38,38.62c0,1.38-0.67,3.66-1.17,4.9c-4.14,10.25-10.41,22.65-16.34,30.56"/>
		<path id="kvg:06953-s4" kvg:type="㇔/㇏" d="M31.38,46.5c2.26,1.78,5.97,7.55,7.88,11"/>
	</g>
	<g id="kvg:06953-g2" kvg:element="風" kvg:position="right">
		<g id="kvg:06953-g3" kvg:element="几">
			<g id="kvg:06953-g4" kvg:element="丿">
				<path id="kvg:06953-s5" kvg:type="㇒" d="M45.33,17.98c1.1,1.1,1.15,2.4,1.15,4.13c0,22.12,0.78,50.64-9.47,65.89"/>
			</g>
			<path id="kvg:06953-s6" kvg:type="㇈a" d="M47.35,19.55C57.5,18,77.81,15.5,80.8,15.5s4.31,1.01,4.11,4.98c-1.17,23.77-0.79,50.77,8.1,65.57c4.07,6.77,4.74,3.21,4.49-3.14"/>
		</g>
		<path id="kvg:06953-s7" kvg:type="㇒" d="M75.08,22.62c-0.08,1-0.53,1.76-1.43,2.3c-2.88,2.62-10.64,6.52-20.38,9.21"/>
		<g id="kvg:06953-g5" kvg:element="虫">
			<g id="kvg:06953-g6" kvg:element="中">
				<g id="kvg:06953-g7" kvg:element="口">
					<path id="kvg:06953-s8" kvg:type="㇑" d="M52.51,43.58c0.83,0.83,1.24,1.67,1.48,2.8c0.73,3.53,1.05,6.59,1.92,13c0.15,1.1,0.32,2.29,0.5,3.61"/>
					<path id="kvg:06953-s9" kvg:type="㇕b" d="M54.34,44.78c7.3-0.94,14.49-1.85,19.54-2.32c2.01-0.19,3.74,0.35,3.38,2.83c-0.62,4.3-1.64,9.45-2.48,13.68"/>
					<path id="kvg:06953-s10" kvg:type="㇐b" d="M57.6,61.02c4.39-0.31,9.15-0.69,14.78-0.92c1.46-0.06,2.98-0.1,4.57-0.14"/>
				</g>
				<g id="kvg:06953-g8" kvg:element="丨">
					<path id="kvg:06953-s11" kvg:type="㇑a" d="M64.84,33.19c0.67,0.67,0.96,1.81,0.96,3.19c0,6.83-0.06,37.22-0.06,41.37"/>
				</g>
			</g>
			<path id="kvg:06953-s12" kvg:type="㇀" d="M51.81,81.14c1.34,1.55,2.49,1.76,4.41,1.1c6.16-2.12,13.48-4.53,20.03-6.99"/>
			<path id="kvg:06953-s13" kvg:type="㇔" d="M73.75,68.25c2.2,2.94,6.71,11.21,7.46,15.04"/>
		</g>
	</g>
</g>
</g>
<g id="kvg:StrokeNumbers_06953" style="font-size:8;fill:#808080">
	<text transform="matrix(1 0 0 1 4.25 39.25)">1</text>
	<text transform="matrix(1 0 0 1 18.25 15.25)">2</text>
	<text transform="matrix(1 0 0 1 18.25 49.25)">3</text>
	<text transform="matrix(1 0 0 1 33.25 45.25)">4</text>
	<text transform="matrix(1 0 0 1 38.50 27.08)">5</text>
	<text transform="matrix(1 0 0 1 48.25 16.50)">6</text>
	<text transform="matrix(1 0 0 1 64.50 24.93)">7</text>
	<text transform="matrix(1 0 0 1 48.25 56.85)">8</text>
	<text transform="matrix(1 0 0 1 57.50 42.25)">9</text>
	<text transform="matrix(1 0 0 1 67.25 37.25)">10</text>
	<text transform="matrix(1 0 0 1 57.25 58.25)">11</text>
	<text transform="matrix(1 0 0 1 50.25 78.25)">12</text>
	<text transform="matrix(1 0 0 1 74.25 69.25)">13</text>
</g>
</svg>
