<?xml version="1.0" encoding="UTF-8"?>
<!--
Copyright (C) 2009/2010/2011 Ulrich Apel.
This work is distributed under the conditions of the Creative Commons 
Attribution-Share Alike 3.0 Licence. This means you are free:
* to Share - to copy, distribute and transmit the work
* to Remix - to adapt the work

Under the following conditions:
* Attribution. You must attribute the work by stating your use of KanjiVG in
  your own copyright header and linking to KanjiVG's website
  (http://kanjivg.tagaini.net)
* Share Alike. If you alter, transform, or build upon this work, you may
  distribute the resulting work only under the same or similar license to this
  one.

See http://creativecommons.org/licenses/by-sa/3.0/ for more details.
-->
<!DOCTYPE svg PUBLIC "-//W3C//DTD SVG 1.0//EN" "http://www.w3.org/TR/2001/REC-SVG-20010904/DTD/svg10.dtd" [
<!ATTLIST g
xmlns:kvg CDATA #FIXED "http://kanjivg.tagaini.net"
kvg:element CDATA #IMPLIED
kvg:variant CDATA #IMPLIED
kvg:partial CDATA #IMPLIED
kvg:original CDATA #IMPLIED
kvg:part CDATA #IMPLIED
kvg:number CDATA #IMPLIED
kvg:tradForm CDATA #IMPLIED
kvg:radicalForm CDATA #IMPLIED
kvg:position CDATA #IMPLIED
kvg:radical CDATA #IMPLIED
kvg:phon CDATA #IMPLIED >
<!ATTLIST path
xmlns:kvg CDATA #FIXED "http://kanjivg.tagaini.net"
kvg:type CDATA #IMPLIED >
]>
<svg xmlns="http://www.w3.org/2000/svg" width="109" height="109" viewBox="0 0 109 109">
<g id="kvg:StrokePaths_0698a-Kaisho" style="fill:none;stroke:#000000;stroke-width:3;stroke-linecap:round;stroke-linejoin:round;">
<g id="kvg:0698a-Kaisho" kvg:element="榊">
	<g id="kvg:0698a-Kaisho-g1" kvg:element="木" kvg:position="left" kvg:radical="general">
		<path id="kvg:0698a-Kaisho-s1" kvg:type="㇐" d="M12.28,38.72c0.35,0.24,2.39,0.41,3.31,0.31c3.94-0.41,17.12-1.71,23.45-2.91c0.92-0.17,1.15-0.24,1.73,0"/>
		<path id="kvg:0698a-Kaisho-s2" kvg:type="㇑" d="M27.36,15c0.91,0.47,2.04,2.5,2.04,4.92c0,0.95-0.3,70.23-0.3,71.08c0,10.75-4.72,3.12-6.6,1.25"/>
		<path id="kvg:0698a-Kaisho-s3" kvg:type="㇒" d="M28.94,39.28c-5.5,16.78-8.56,23.87-17.08,38.56"/>
		<path id="kvg:0698a-Kaisho-s4" kvg:type="㇔/㇏" d="M32.47,48.9c3.03,1.6,6.03,5.35,7.66,8.89"/>
	</g>
	<g id="kvg:0698a-Kaisho-g2" kvg:element="神" kvg:position="right">
		<g id="kvg:0698a-Kaisho-g3" kvg:element="礻" kvg:variant="true" kvg:original="示" kvg:position="left">
			<path id="kvg:0698a-Kaisho-s5" kvg:type="㇔" d="M47.72,19.83c3.19,2.59,6.61,6.48,9.35,11.01"/>
			<path id="kvg:0698a-Kaisho-s6" kvg:type="㇇" d="M41.79,42.6c1.4,0.73,3.65,0.57,5.13,0.23c2.11-0.48,11.06-2.86,12.82-3.59c1.76-0.73,3.52,0.48,2.46,2.65c-3.69,7.51-14.24,20.85-20.38,28.35"/>
			<path id="kvg:0698a-Kaisho-s7" kvg:type="㇑" d="M53.87,56.77c0.08,0.28,1.09,1.48,1.17,3.28c0.37,8.65,0.04,32.65,0.04,35.6"/>
			<path id="kvg:0698a-Kaisho-s8" kvg:type="㇔" d="M57.63,56.49c2.74,2.28,6.31,6.16,8.66,10.15"/>
		</g>
		<g id="kvg:0698a-Kaisho-g4" kvg:element="申" kvg:position="right">
			<g id="kvg:0698a-Kaisho-g5" kvg:element="田" kvg:partial="true">
				<path id="kvg:0698a-Kaisho-s9" kvg:type="㇑" d="M69.15,36.52c0.6,0.98,1.2,1.9,1.31,2.56c0.87,5.46,1.38,17.79,1.89,27.84"/>
				<path id="kvg:0698a-Kaisho-s10" kvg:type="㇕a" d="M70.58,38.28c7.92-1.28,19.91-2.91,25.08-3.44c1.9-0.2,2.87,1.38,2.76,2.84c-0.38,5.36-0.92,16.82-2.32,27.77"/>
				<path id="kvg:0698a-Kaisho-s11" kvg:type="㇐a" d="M72.03,51c5.55-0.64,11.07-0.97,16.61-1.67c0.67-0.08,1.31-0.17,1.93-0.24"/>
				<path id="kvg:0698a-Kaisho-s12" kvg:type="㇐a" d="M72.71,64.95c6.41-0.7,15.46-1.52,23.03-2.03"/>
			</g>
			<g id="kvg:0698a-Kaisho-g6" kvg:element="丨">
				<path id="kvg:0698a-Kaisho-s13" kvg:type="㇑" d="M83.08,14c0.76,0.48,1.22,2.18,1.38,3.15c0.15,0.97-0.15,65.8-0.15,79.85"/>
			</g>
		</g>
	</g>
</g>
</g>
<g id="kvg:StrokeNumbers_0698a-Kaisho" style="font-size:8;fill:#808080">
	<text transform="matrix(1 0 0 1 6.50 38.50)">1</text>
	<text transform="matrix(1 0 0 1 18.50 14.50)">2</text>
	<text transform="matrix(1 0 0 1 18.50 48.50)">3</text>
	<text transform="matrix(1 0 0 1 33.50 47.50)">4</text>
	<text transform="matrix(1 0 0 1 42.50 16.50)">5</text>
	<text transform="matrix(1 0 0 1 43.50 39.50)">6</text>
	<text transform="matrix(1 0 0 1 47.75 72.50)">7</text>
	<text transform="matrix(1 0 0 1 59.50 56.50)">8</text>
	<text transform="matrix(1 0 0 1 64.75 48.50)">9</text>
	<text transform="matrix(1 0 0 1 71.75 34.50)">10</text>
	<text transform="matrix(1 0 0 1 73.50 47.50)">11</text>
	<text transform="matrix(1 0 0 1 73.50 61.50)">12</text>
	<text transform="matrix(1 0 0 1 70.50 13.50)">13</text>
</g>
</svg>
