<?xml version="1.0" encoding="UTF-8"?>
<!--
Copyright (C) 2009/2010/2011 Ulrich Apel.
This work is distributed under the conditions of the Creative Commons
Attribution-Share Alike 3.0 Licence. This means you are free:
* to Share - to copy, distribute and transmit the work
* to Remix - to adapt the work

Under the following conditions:
* Attribution. You must attribute the work by stating your use of KanjiVG in
  your own copyright header and linking to KanjiVG's website
  (http://kanjivg.tagaini.net)
* Share Alike. If you alter, transform, or build upon this work, you may
  distribute the resulting work only under the same or similar license to this
  one.

See http://creativecommons.org/licenses/by-sa/3.0/ for more details.
-->
<!DOCTYPE svg PUBLIC "-//W3C//DTD SVG 1.0//EN" "http://www.w3.org/TR/2001/REC-SVG-20010904/DTD/svg10.dtd" [
<!ATTLIST g
xmlns:kvg CDATA #FIXED "http://kanjivg.tagaini.net"
kvg:element CDATA #IMPLIED
kvg:variant CDATA #IMPLIED
kvg:partial CDATA #IMPLIED
kvg:original CDATA #IMPLIED
kvg:part CDATA #IMPLIED
kvg:number CDATA #IMPLIED
kvg:tradForm CDATA #IMPLIED
kvg:radicalForm CDATA #IMPLIED
kvg:position CDATA #IMPLIED
kvg:radical CDATA #IMPLIED
kvg:phon CDATA #IMPLIED >
<!ATTLIST path
xmlns:kvg CDATA #FIXED "http://kanjivg.tagaini.net"
kvg:type CDATA #IMPLIED >
]>
<svg xmlns="http://www.w3.org/2000/svg" width="109" height="109" viewBox="0 0 109 109" xmlns:kvg="https://kanjivg.tagaini.net/">
<g id="kvg:StrokePaths_069ea" style="fill:none;stroke:#000000;stroke-width:3;stroke-linecap:round;stroke-linejoin:round;">
<g id="kvg:069ea" kvg:element="槪">
	<g id="kvg:069ea-g1" kvg:element="木" kvg:position="left" kvg:radical="general">
		<path id="kvg:069ea-s1" kvg:type="㇐" d="M12.53,40.22c0.35,0.24,2.39,0.41,3.31,0.31c3.94-0.41,12.62-1.96,18.95-3.16c0.92-0.17,2.15-0.24,2.73,0"/>
		<path id="kvg:069ea-s2" kvg:type="㇑" d="M26.11,17c0.94,0.94,1.29,2.5,1.29,4.67c0,5.01,0.03,46.31,0.03,66.95c0,1.9,0,3.62,0,5.12"/>
		<path id="kvg:069ea-s3" kvg:type="㇒" d="M26.44,40.28c0,1.34-0.45,3.37-0.9,4.48c-4.36,10.68-7.16,16.2-14.43,26.57"/>
		<path id="kvg:069ea-s4" kvg:type="㇔/㇏" d="M29.72,46.4C32.1,47.99,35,52.16,37,55.25"/>
	</g>
	<g id="kvg:069ea-g2" kvg:element="既" kvg:position="right">
		<g id="kvg:069ea-g3" kvg:element="艮" kvg:partial="true" kvg:position="left">
			<path id="kvg:069ea-s5" kvg:type="㇔" d="M48.97,19.81c0.01,0.22,0.03,0.59-0.03,0.91c-0.26,1.91-2.17,7.08-4.28,9.65"/>
			<path id="kvg:069ea-s6" kvg:type="㇑" d="M41.47,31.13c0.29,0.85,0.58,1.79,0.58,2.9s-0.1,58.6,0,59.71"/>
			<path id="kvg:069ea-s7" kvg:type="㇕" d="M42.17,32.9c1.63-0.14,13.25-2.32,14.74-2.48c1.25-0.14,2.04,1.55,1.94,2.38c-0.2,1.67-1.43,19.28-1.82,23.01"/>
			<path id="kvg:069ea-s8" kvg:type="㇐a" d="M42.45,43.75c2.21,0,12.84-1.93,15.34-1.93"/>
			<path id="kvg:069ea-s9" kvg:type="㇐a" d="M42.35,55.86c4.49-0.61,9.13-1.67,14.73-2.18"/>
			<path id="kvg:069ea-s10" kvg:type="㇐" d="M42.3,69.24c2.76-0.27,11.85-2.86,14.53-2.67c0.72,0.05,1.16,0.06,1.53,0.16"/>
			<path id="kvg:069ea-s11" kvg:type="㇐" d="M42.68,83.4c2.76-0.27,12.22-2.32,14.9-2.13c0.72,0.05,1.16,0.06,1.53,0.16"/>
		</g>
		<g id="kvg:069ea-g4" kvg:element="旡" kvg:variant="true" kvg:original="无" kvg:position="right">
			<path id="kvg:069ea-s12" kvg:type="㇐" d="M63.49,30.7c0.72,0.26,2.05,0.36,2.76,0.26c3.77-0.48,16.16-3.21,21.48-3.44c1.21-0.05,1.92,0.13,2.53,0.26"/>
			<path id="kvg:069ea-s13" kvg:type="㇄" d="M66.81,38.34c0.36,0.35,0.77,1.82,0.72,2.51c-0.24,3.09-1.44,8.51-2.48,13.45c-0.5,2.39,0.85,3.09,1.76,2.89c2.65-0.58,19.11-3.92,27.31-4.15c0.95-0.03,1.54-0.15,2.3,0.15"/>
			<g id="kvg:069ea-g5" kvg:element="儿">
				<g id="kvg:069ea-g6" kvg:element="八" kvg:variant="true">
					<g id="kvg:069ea-g7" kvg:element="丿" kvg:position="left">
						<path id="kvg:069ea-s14" kvg:type="㇒" d="M78.84,33.17c0.29,0.83,0.54,2.43,0.37,4.46C77.4,57.82,73.48,77.7,59.37,92.61"/>
					</g>
					<g id="kvg:069ea-g8" kvg:position="right">
						<path id="kvg:069ea-s15" kvg:type="㇟" d="M79.31,59.76c0.38,0.91,0.68,1.99,0.7,3.41c0.11,6.28-0.29,16.22-0.29,20.49c0,9.98,4.28,8.86,8.48,8.86c4.44,0,7.36-0.9,7.98-1.63c1.31-1.53,0.97-2.69,1.08-5.38"/>
					</g>
				</g>
			</g>
		</g>
	</g>
</g>
</g>
<g id="kvg:StrokeNumbers_069ea" style="font-size:8;fill:#808080">
	<text transform="matrix(1 0 0 1 5.25 42.50)">1</text>
	<text transform="matrix(1 0 0 1 16.50 17.50)">2</text>
	<text transform="matrix(1 0 0 1 15.73 51.67)">3</text>
	<text transform="matrix(1 0 0 1 33.50 46.81)">4</text>
	<text transform="matrix(1 0 0 1 46.74 17.21)">5</text>
	<text transform="matrix(1 0 0 1 37.14 28.95)">6</text>
	<text transform="matrix(1 0 0 1 50.47 29.11)">7</text>
	<text transform="matrix(1 0 0 1 45.31 44.55)">8</text>
	<text transform="matrix(1 0 0 1 45.53 53.62)">9</text>
	<text transform="matrix(1 0 0 1 29.85 72.14)">10</text>
	<text transform="matrix(1 0 0 1 43.89 91.96)">11</text>
	<text transform="matrix(1 0 0 1 61.20 27.73)">12</text>
	<text transform="matrix(1 0 0 1 68.37 38.75)">13</text>
	<text transform="matrix(1 0 0 1 82.39 36.07)">14</text>
	<text transform="matrix(1 0 0 1 82.11 65.40)">15</text>
</g>
</svg>
