<?xml version="1.0" encoding="UTF-8"?>
<!--
Copyright (C) 2009/2010/2011 Ulrich Apel.
This work is distributed under the conditions of the Creative Commons 
Attribution-Share Alike 3.0 Licence. This means you are free:
* to Share - to copy, distribute and transmit the work
* to Remix - to adapt the work

Under the following conditions:
* Attribution. You must attribute the work by stating your use of KanjiVG in
  your own copyright header and linking to KanjiVG's website
  (http://kanjivg.tagaini.net)
* Share Alike. If you alter, transform, or build upon this work, you may
  distribute the resulting work only under the same or similar license to this
  one.

See http://creativecommons.org/licenses/by-sa/3.0/ for more details.
-->
<!DOCTYPE svg PUBLIC "-//W3C//DTD SVG 1.0//EN" "http://www.w3.org/TR/2001/REC-SVG-20010904/DTD/svg10.dtd" [
<!ATTLIST g
xmlns:kvg CDATA #FIXED "http://kanjivg.tagaini.net"
kvg:element CDATA #IMPLIED
kvg:variant CDATA #IMPLIED
kvg:partial CDATA #IMPLIED
kvg:original CDATA #IMPLIED
kvg:part CDATA #IMPLIED
kvg:number CDATA #IMPLIED
kvg:tradForm CDATA #IMPLIED
kvg:radicalForm CDATA #IMPLIED
kvg:position CDATA #IMPLIED
kvg:radical CDATA #IMPLIED
kvg:phon CDATA #IMPLIED >
<!ATTLIST path
xmlns:kvg CDATA #FIXED "http://kanjivg.tagaini.net"
kvg:type CDATA #IMPLIED >
]>
<svg xmlns="http://www.w3.org/2000/svg" width="109" height="109" viewBox="0 0 109 109">
<g id="kvg:StrokePaths_069ff-Kaisho" style="fill:none;stroke:#000000;stroke-width:3;stroke-linecap:round;stroke-linejoin:round;">
<g id="kvg:069ff-Kaisho" kvg:element="槿">
	<g id="kvg:069ff-Kaisho-g1" kvg:element="木" kvg:position="left" kvg:radical="general">
		<path id="kvg:069ff-Kaisho-s1" kvg:type="㇐" d="M12.28,36.72c0.35,0.24,2.39,0.41,3.31,0.31c3.94-0.41,14.92-2.03,22.45-2.41c0.93-0.05,2.15-0.24,2.73,0"/>
		<path id="kvg:069ff-Kaisho-s2" kvg:type="㇑" d="M27.86,14c0.91,0.47,2.54,2.25,2.54,4.92c0,0.95-0.3,72.73-0.3,73.58c0,11-4.97,3.88-6.1,2.75"/>
		<path id="kvg:069ff-Kaisho-s3" kvg:type="㇒" d="M30.44,39.28c-5.74,16.23-8.94,23.1-17.83,37.31"/>
		<path id="kvg:069ff-Kaisho-s4" kvg:type="㇔/㇏" d="M32.47,50.4c2.66,1.92,7.03,8.14,9.28,11.85"/>
	</g>
	<g id="kvg:069ff-Kaisho-g2" kvg:position="right">
		<g id="kvg:069ff-Kaisho-g3" kvg:element="廿" kvg:position="top">
			<g id="kvg:069ff-Kaisho-g4" kvg:element="艹" kvg:part="1" kvg:variant="true" kvg:original="艸">
				<g id="kvg:069ff-Kaisho-g5" kvg:element="十">
					<path id="kvg:069ff-Kaisho-s5" kvg:type="㇐" d="M41.25,25.56c1.46,0.34,3.15,0.41,4.61,0.34c13.39-0.63,28.77-3.89,44.21-3.93c2.43-0.01,3.88,0.16,5.1,0.33"/>
					<path id="kvg:069ff-Kaisho-s6" kvg:type="㇑" d="M53.94,13.95c1.47,1.25,2.04,2.11,2.09,2.89c0.47,7.41,0.72,15.66,1.38,19.66"/>
				</g>
			</g>
			<g id="kvg:069ff-Kaisho-g6" kvg:element="艹" kvg:part="2" kvg:variant="true" kvg:original="艸">
				<path id="kvg:069ff-Kaisho-s7" kvg:type="㇑" d="M77.29,12.17c0.71,0.83,0.95,2.18,0.79,3.46C77.5,20.15,76.84,29.06,76,33.21"/>
			</g>
			<path id="kvg:069ff-Kaisho-s8" kvg:type="㇐" d="M57.5,35.26c7.06-0.74,13.5-1.51,20.87-1.87"/>
		</g>
		<g id="kvg:069ff-Kaisho-g7" kvg:position="bottom">
			<path id="kvg:069ff-Kaisho-s9" kvg:type="㇑" d="M48.5,69.83c1.11,0.43,3.13,0.43,4.25,0.43c8-0.01,24.25-2.51,32.87-3.37c1.84-0.18,2.96,0.21,3.88,0.42"/>
			<path id="kvg:069ff-Kaisho-s10" kvg:type="㇕" d="M46.5,44.21c0.38,0.29,0.78,0.53,0.95,0.89c1.33,2.86,2.43,10.23,3.34,15.37"/>
			<path id="kvg:069ff-Kaisho-s11" kvg:type="㇐" d="M48.46,45.69c9.41-1.2,33.2-3.77,38.05-4.18c1.78-0.15,2.84,1.48,2.59,2.36c-0.85,2.88-2.1,8.63-3.14,11.88"/>
			<path id="kvg:069ff-Kaisho-s12" kvg:type="㇑" d="M51.17,58.57c5.7-0.46,29.97-2.42,37.2-2.87"/>
			<g id="kvg:069ff-Kaisho-g8" kvg:element="三">
				<g id="kvg:069ff-Kaisho-g9" kvg:element="一" kvg:position="top">
					<path id="kvg:069ff-Kaisho-s13" kvg:type="㇐" d="M65.37,34.75c1.09,0.5,1.74,2.25,1.96,3.25c0.22,1,0.5,49.25,0.28,55.5"/>
				</g>
				<g id="kvg:069ff-Kaisho-g10" kvg:position="bottom">
					<g id="kvg:069ff-Kaisho-g11" kvg:element="一">
						<path id="kvg:069ff-Kaisho-s14" kvg:type="㇐" d="M49.25,81.83c1.11,0.43,3.14,0.47,4.25,0.43c7.5-0.26,24-2.51,31.87-2.87c1.84-0.08,2.96,0.21,3.88,0.42"/>
					</g>
					<g id="kvg:069ff-Kaisho-g12" kvg:element="一">
						<path id="kvg:069ff-Kaisho-s15" kvg:type="㇐" d="M41.75,95.33c1.32,0.43,3.75,0.55,5.08,0.43c8.44-0.74,37.62-3.87,45.79-3.37c2.2,0.13,3.53,0.21,4.63,0.42"/>
					</g>
				</g>
			</g>
		</g>
	</g>
</g>
</g>
<g id="kvg:StrokeNumbers_069ff-Kaisho" style="font-size:8;fill:#808080">
	<text transform="matrix(1 0 0 1 5.50 36.50)">1</text>
	<text transform="matrix(1 0 0 1 19.50 13.50)">2</text>
	<text transform="matrix(1 0 0 1 21.50 45.50)">3</text>
	<text transform="matrix(1 0 0 1 34.50 49.50)">4</text>
	<text transform="matrix(1 0 0 1 38.50 22.50)">5</text>
	<text transform="matrix(1 0 0 1 46.50 12.50)">6</text>
	<text transform="matrix(1 0 0 1 68.50 10.50)">7</text>
	<text transform="matrix(1 0 0 1 60.50 32.50)">8</text>
	<text transform="matrix(1 0 0 1 41.50 51.50)">9</text>
	<text transform="matrix(1 0 0 1 47.50 42.50)">10</text>
	<text transform="matrix(1 0 0 1 52.50 54.88)">11</text>
	<text transform="matrix(1 0 0 1 58.50 41.50)">12</text>
	<text transform="matrix(1 0 0 1 38.50 71.50)">13</text>
	<text transform="matrix(1 0 0 1 38.50 82.50)">14</text>
	<text transform="matrix(1 0 0 1 38.50 91.50)">15</text>
</g>
</svg>
