<?xml version="1.0" encoding="UTF-8"?>
<!--
Copyright (C) 2009/2010/2011 Ulrich Apel.
This work is distributed under the conditions of the Creative Commons 
Attribution-Share Alike 3.0 Licence. This means you are free:
* to Share - to copy, distribute and transmit the work
* to Remix - to adapt the work

Under the following conditions:
* Attribution. You must attribute the work by stating your use of KanjiVG in
  your own copyright header and linking to KanjiVG's website
  (http://kanjivg.tagaini.net)
* Share Alike. If you alter, transform, or build upon this work, you may
  distribute the resulting work only under the same or similar license to this
  one.

See http://creativecommons.org/licenses/by-sa/3.0/ for more details.
-->
<!DOCTYPE svg PUBLIC "-//W3C//DTD SVG 1.0//EN" "http://www.w3.org/TR/2001/REC-SVG-20010904/DTD/svg10.dtd" [
<!ATTLIST g
xmlns:kvg CDATA #FIXED "http://kanjivg.tagaini.net"
kvg:element CDATA #IMPLIED
kvg:variant CDATA #IMPLIED
kvg:partial CDATA #IMPLIED
kvg:original CDATA #IMPLIED
kvg:part CDATA #IMPLIED
kvg:number CDATA #IMPLIED
kvg:tradForm CDATA #IMPLIED
kvg:radicalForm CDATA #IMPLIED
kvg:position CDATA #IMPLIED
kvg:radical CDATA #IMPLIED
kvg:phon CDATA #IMPLIED >
<!ATTLIST path
xmlns:kvg CDATA #FIXED "http://kanjivg.tagaini.net"
kvg:type CDATA #IMPLIED >
]>
<svg xmlns="http://www.w3.org/2000/svg" width="109" height="109" viewBox="0 0 109 109">
<g id="kvg:StrokePaths_069fb" style="fill:none;stroke:#000000;stroke-width:3;stroke-linecap:round;stroke-linejoin:round;">
<g id="kvg:069fb" kvg:element="槻">
	<g id="kvg:069fb-g1" kvg:element="木" kvg:position="left" kvg:radical="general">
		<path id="kvg:069fb-s1" kvg:type="㇐" d="M10.28,37.47c1.85,0.66,4.19,0.82,5.86,0.59c4.76-0.65,8.84-1.25,14.75-2.07c1.09-0.15,2.49-0.49,3.63-0.12"/>
		<path id="kvg:069fb-s2" kvg:type="㇑" d="M24.61,15.25c1.19,1.19,1.29,2.75,1.29,4.42c0,0.77-0.02,46.9-0.02,67.33c0,4.66,0,7.99,0,9.12"/>
		<path id="kvg:069fb-s3" kvg:type="㇒" d="M25.44,38.53c0,1.72-0.79,4.29-1.28,5.6C19.64,56.2,16.64,63.48,8.75,73.62"/>
		<path id="kvg:069fb-s4" kvg:type="㇔/㇏" d="M28.97,49.4c2,1.59,3.6,6.76,5.28,9.85"/>
	</g>
	<g id="kvg:069fb-g2" kvg:element="規" kvg:position="right">
		<g id="kvg:069fb-g3" kvg:element="夫" kvg:position="left">
			<path id="kvg:069fb-s5" kvg:type="㇐" d="M39.34,35.43c1.57,0.44,3.04,0.42,4.66,0.31c3.51-0.25,9.3-0.8,14.15-1.47c1-0.14,2.07-0.39,3.09-0.22"/>
			<g id="kvg:069fb-g4" kvg:element="大">
				<path id="kvg:069fb-s6" kvg:type="㇐" d="M37.14,51.08c1.48,0.4,3.62,0.36,5.13,0.25c5.31-0.38,10.85-1.2,16.49-2.01c1.19-0.17,2.33-0.13,3.51,0.06"/>
				<path id="kvg:069fb-s7" kvg:type="㇒" d="M50.28,15.25c0.92,0.92,1.07,2,1.09,3.73c0.5,40.15,0.13,55.77-16.12,70.27"/>
				<path id="kvg:069fb-s8" kvg:type="㇔/㇏" d="M53.07,65.16c3.35,3.26,6.5,8.42,8.05,12.87"/>
			</g>
		</g>
		<g id="kvg:069fb-g5" kvg:element="見" kvg:position="right">
			<g id="kvg:069fb-g6" kvg:element="目" kvg:position="top">
				<path id="kvg:069fb-s9" kvg:type="㇑" d="M66.39,18.11c0.94,0.94,1.15,2.02,1.15,3.37c0,7.27-0.03,28.31-0.03,39.89c0,2.39,0,4.37,0,5.75"/>
				<path id="kvg:069fb-s10" kvg:type="㇕a" d="M67.9,19.23c2.96-0.62,13.61-2.03,17.86-2.55C88.66,16.32,90,16.95,90,20c-0.02,8.01-0.12,44.68-0.12,45.62"/>
				<path id="kvg:069fb-s11" kvg:type="㇐a" d="M68.74,33.81c5.01-0.44,16.84-1.75,20.17-1.75"/>
				<path id="kvg:069fb-s12" kvg:type="㇐a" d="M68.91,48.75c5.59-0.5,14.42-1.78,19.75-1.78"/>
				<path id="kvg:069fb-s13" kvg:type="㇐a" d="M68.7,64.61c6.3-0.48,13.55-1.23,19.75-1.53"/>
			</g>
			<g id="kvg:069fb-g7" kvg:position="bottom">
				<path id="kvg:069fb-s14" kvg:type="㇒" d="M72.13,69.28c0.5,0.85,0.61,1.61,0.41,2.97c-1.03,6.88-4.78,15-16.11,21.25"/>
				<path id="kvg:069fb-s15" kvg:type="㇟" d="M80.36,66.54c0.92,0.92,0.84,2.22,0.87,3.98c0.08,4.71-0.1,8.49-0.1,13.98c0,7.58,1.46,8.88,8.46,8.88c7.33,0,7.99-0.97,7.99-8.46"/>
			</g>
		</g>
	</g>
</g>
</g>
<g id="kvg:StrokeNumbers_069fb" style="font-size:8;fill:#808080">
	<text transform="matrix(1 0 0 1 4.25 38.25)">1</text>
	<text transform="matrix(1 0 0 1 15.25 15.25)">2</text>
	<text transform="matrix(1 0 0 1 16.25 47.25)">3</text>
	<text transform="matrix(1 0 0 1 30.25 47.25)">4</text>
	<text transform="matrix(1 0 0 1 38.75 32.58)">5</text>
	<text transform="matrix(1 0 0 1 36.25 47.93)">6</text>
	<text transform="matrix(1 0 0 1 42.25 14.85)">7</text>
	<text transform="matrix(1 0 0 1 56.25 62.78)">8</text>
	<text transform="matrix(1 0 0 1 60.25 25.25)">9</text>
	<text transform="matrix(1 0 0 1 69.25 15.25)">10</text>
	<text transform="matrix(1 0 0 1 70.25 30.18)">11</text>
	<text transform="matrix(1 0 0 1 70.25 45.10)">12</text>
	<text transform="matrix(1 0 0 1 70.25 61.25)">13</text>
	<text transform="matrix(1 0 0 1 62.25 75.25)">14</text>
	<text transform="matrix(1 0 0 1 83.25 75.25)">15</text>
</g>
</svg>
