<?xml version="1.0" encoding="UTF-8"?>
<!--
Copyright (C) 2009/2010/2011 Ulrich Apel.
This work is distributed under the conditions of the Creative Commons 
Attribution-Share Alike 3.0 Licence. This means you are free:
* to Share - to copy, distribute and transmit the work
* to Remix - to adapt the work

Under the following conditions:
* Attribution. You must attribute the work by stating your use of KanjiVG in
  your own copyright header and linking to KanjiVG's website
  (http://kanjivg.tagaini.net)
* Share Alike. If you alter, transform, or build upon this work, you may
  distribute the resulting work only under the same or similar license to this
  one.

See http://creativecommons.org/licenses/by-sa/3.0/ for more details.
-->
<!DOCTYPE svg PUBLIC "-//W3C//DTD SVG 1.0//EN" "http://www.w3.org/TR/2001/REC-SVG-20010904/DTD/svg10.dtd" [
<!ATTLIST g
xmlns:kvg CDATA #FIXED "http://kanjivg.tagaini.net"
kvg:element CDATA #IMPLIED
kvg:variant CDATA #IMPLIED
kvg:partial CDATA #IMPLIED
kvg:original CDATA #IMPLIED
kvg:part CDATA #IMPLIED
kvg:number CDATA #IMPLIED
kvg:tradForm CDATA #IMPLIED
kvg:radicalForm CDATA #IMPLIED
kvg:position CDATA #IMPLIED
kvg:radical CDATA #IMPLIED
kvg:phon CDATA #IMPLIED >
<!ATTLIST path
xmlns:kvg CDATA #FIXED "http://kanjivg.tagaini.net"
kvg:type CDATA #IMPLIED >
]>
<svg xmlns="http://www.w3.org/2000/svg" width="109" height="109" viewBox="0 0 109 109">
<g id="kvg:StrokePaths_06a13-Kaisho" style="fill:none;stroke:#000000;stroke-width:3;stroke-linecap:round;stroke-linejoin:round;">
<g id="kvg:06a13-Kaisho" kvg:element="樓">
	<g id="kvg:06a13-Kaisho-g1" kvg:element="木" kvg:position="left" kvg:radical="general">
		<path id="kvg:06a13-Kaisho-s1" kvg:type="㇐" d="M11.03,37.03c0.36,0.23,2.5,0.38,3.46,0.29c4.13-0.38,14.78-1.13,21.42-2.26c0.96-0.16,2.25-0.23,2.86,0"/>
		<path id="kvg:06a13-Kaisho-s2" kvg:type="㇑" d="M26.36,12.5c0.91,0.47,2.54,2.25,2.54,4.42c0,0.95-0.3,74.23-0.3,75.08c0,12-5.22,3.38-6.85,1.75"/>
		<path id="kvg:06a13-Kaisho-s3" kvg:type="㇒" d="M28.44,39.28c-5.1,15.04-7.94,21.4-15.83,34.56"/>
		<path id="kvg:06a13-Kaisho-s4" kvg:type="㇔/㇏" d="M31.47,48.9c2.66,1.59,7.03,6.76,9.28,9.85"/>
	</g>
	<g id="kvg:06a13-Kaisho-g2" kvg:element="婁" kvg:position="right">
		<g id="kvg:06a13-Kaisho-g3" kvg:position="top">
			<g id="kvg:06a13-Kaisho-g4" kvg:element="串" kvg:part="1">
				<g id="kvg:06a13-Kaisho-g5" kvg:element="口">
					<path id="kvg:06a13-Kaisho-s5" kvg:type="㇑" d="M49.14,21.48c0.35,0.27,1,1.47,1.12,2.5c0.78,6.77,1.47,14.27,2.15,18.73"/>
					<path id="kvg:06a13-Kaisho-s6" kvg:type="㇕" d="M49.92,22.81c9.4-1.06,23.99-1.81,31.42-2.73c2.37-0.29,3.73,1.53,3.42,3.57C83.56,31.75,83.2,35,82.51,39.5"/>
				</g>
			</g>
			<path id="kvg:06a13-Kaisho-s7" kvg:type="㇐" d="M41.67,30.7c1.05,0.54,2.97,0.67,4.01,0.54c8.05-0.99,34.14-2.99,45.13-2.23c1.74,0.12,2.79,0.26,3.66,0.53"/>
			<g id="kvg:06a13-Kaisho-g6" kvg:element="串" kvg:part="2">
				<path id="kvg:06a13-Kaisho-s8" kvg:type="㇐" d="M52.26,40.25C54.67,40,79.72,38,82.82,37.75"/>
				<g id="kvg:06a13-Kaisho-g7" kvg:element="中">
					<g id="kvg:06a13-Kaisho-g8" kvg:element="口">
						<path id="kvg:06a13-Kaisho-s9" kvg:type="㇑" d="M49.52,48.44c0.29,0.51,0.8,1.18,0.94,2.3c0.51,4.12,1.26,8.17,1.79,11.97"/>
						<path id="kvg:06a13-Kaisho-s10" kvg:type="㇕b" d="M50.7,49.14c9.46-1.01,26.13-2.18,33.61-3.06c2.39-0.28,3.76,1.46,3.45,3.4c-0.37,2.28-3.1,6.68-3.68,9.42"/>
						<path id="kvg:06a13-Kaisho-s11" kvg:type="㇐b" d="M52.63,61.66c2.56-0.27,30.15-2.47,33.44-2.75"/>
					</g>
					<g id="kvg:06a13-Kaisho-g9" kvg:element="丨">
						<path id="kvg:06a13-Kaisho-s12" kvg:type="㇑" d="M65.59,9.25c0.75,0.5,1.2,2.25,1.35,3.25c0.15,1,0,41.25-0.15,47.5"/>
					</g>
				</g>
			</g>
		</g>
		<g id="kvg:06a13-Kaisho-g10" kvg:element="女" kvg:position="bottom">
			<path id="kvg:06a13-Kaisho-s13" kvg:type="㇛" d="M66.49,62.12c0.37,0.86-0.14,2.05-0.69,3.01c-3.05,5.38-7.65,11.96-12.29,17.98c-1.01,1.31-0.21,1.56,0.56,1.58c10.75,0.14,28.85,7.09,34.41,13.82"/>
			<path id="kvg:06a13-Kaisho-s14" kvg:type="㇒" d="M81.41,66.68c0.11,0.74,0.24,2.56-0.22,3.61C77.25,79.25,70.5,91,45.16,97.75"/>
			<path id="kvg:06a13-Kaisho-s15" kvg:type="㇐" d="M41.88,74.93c1.46,0.57,3.02,0.91,3.72,0.87c11-0.55,32.64-2.55,46.76-2.8c1.17-0.02,3.19,0.35,4.13,1"/>
		</g>
	</g>
</g>
</g>
<g id="kvg:StrokeNumbers_06a13-Kaisho" style="font-size:8;fill:#808080">
	<text transform="matrix(1 0 0 1 4.50 37.50)">1</text>
	<text transform="matrix(1 0 0 1 18.50 12.50)">2</text>
	<text transform="matrix(1 0 0 1 19.50 47.50)">3</text>
	<text transform="matrix(1 0 0 1 33.50 47.50)">4</text>
	<text transform="matrix(1 0 0 1 42.50 23.50)">5</text>
	<text transform="matrix(1 0 0 1 52.50 19.50)">6</text>
	<text transform="matrix(1 0 0 1 35.50 30.50)">7</text>
	<text transform="matrix(1 0 0 1 55.50 37.50)">8</text>
	<text transform="matrix(1 0 0 1 44.00 57.28)">9</text>
	<text transform="matrix(1 0 0 1 54.50 46.50)">10</text>
	<text transform="matrix(1 0 0 1 55.50 58.50)">11</text>
	<text transform="matrix(1 0 0 1 53.50 10.50)">12</text>
	<text transform="matrix(1 0 0 1 55.50 67.50)">13</text>
	<text transform="matrix(1 0 0 1 71.50 67.50)">14</text>
	<text transform="matrix(1 0 0 1 40.00 71.58)">15</text>
</g>
</svg>
