<?xml version="1.0" encoding="UTF-8"?>
<!--
Copyright (C) 2009/2010/2011 Ulrich Apel.
This work is distributed under the conditions of the Creative Commons 
Attribution-Share Alike 3.0 Licence. This means you are free:
* to Share - to copy, distribute and transmit the work
* to Remix - to adapt the work

Under the following conditions:
* Attribution. You must attribute the work by stating your use of KanjiVG in
  your own copyright header and linking to KanjiVG's website
  (http://kanjivg.tagaini.net)
* Share Alike. If you alter, transform, or build upon this work, you may
  distribute the resulting work only under the same or similar license to this
  one.

See http://creativecommons.org/licenses/by-sa/3.0/ for more details.
-->
<!DOCTYPE svg PUBLIC "-//W3C//DTD SVG 1.0//EN" "http://www.w3.org/TR/2001/REC-SVG-20010904/DTD/svg10.dtd" [
<!ATTLIST g
xmlns:kvg CDATA #FIXED "http://kanjivg.tagaini.net"
kvg:element CDATA #IMPLIED
kvg:variant CDATA #IMPLIED
kvg:partial CDATA #IMPLIED
kvg:original CDATA #IMPLIED
kvg:part CDATA #IMPLIED
kvg:number CDATA #IMPLIED
kvg:tradForm CDATA #IMPLIED
kvg:radicalForm CDATA #IMPLIED
kvg:position CDATA #IMPLIED
kvg:radical CDATA #IMPLIED
kvg:phon CDATA #IMPLIED >
<!ATTLIST path
xmlns:kvg CDATA #FIXED "http://kanjivg.tagaini.net"
kvg:type CDATA #IMPLIED >
]>
<svg xmlns="http://www.w3.org/2000/svg" width="109" height="109" viewBox="0 0 109 109">
<g id="kvg:StrokePaths_06a19" style="fill:none;stroke:#000000;stroke-width:3;stroke-linecap:round;stroke-linejoin:round;">
<g id="kvg:06a19" kvg:element="標">
	<g id="kvg:06a19-g1" kvg:element="木" kvg:position="left" kvg:radical="general">
		<path id="kvg:06a19-s1" kvg:type="㇐" d="M12.28,36.97c2.1,0.53,4.24,0.33,5.5,0.23c5.78-0.44,14.74-2.75,20.99-3.83c1.01-0.17,2.37-0.24,3,0"/>
		<path id="kvg:06a19-s2" kvg:type="㇑" d="M28.86,15.5c1.07,1.07,1.79,3,1.79,4.92c0,2.51-0.04,43.57-0.05,62.95c0,4.38,0,7.65,0,9.12"/>
		<path id="kvg:06a19-s3" kvg:type="㇒" d="M29.94,36.53c0,1.34-0.32,3.19-0.73,4.25c-5.53,14.4-10.59,24.31-17.46,33.97"/>
		<path id="kvg:06a19-s4" kvg:type="㇔/㇏" d="M33.25,44.62c2.37,1.64,6.26,6.95,8.25,10.12"/>
	</g>
	<g id="kvg:06a19-g2" kvg:element="票" kvg:position="right" kvg:phon="票">
		<g id="kvg:06a19-g3" kvg:element="襾" kvg:position="top">
			<g id="kvg:06a19-g4" kvg:element="西" kvg:variant="true">
				<path id="kvg:06a19-s5" kvg:type="㇐" d="M49.12,16.7c2,0.42,4.39,0.06,6.14-0.1c6.61-0.6,18.82-2.15,25.61-2.62c2.05-0.14,4.44-0.4,6.45,0.25"/>
				<path id="kvg:06a19-s6" kvg:type="㇑" d="M47,29.5c0.78,0.64,1.22,1.47,1.33,2.48c0.85,3.07,1.71,8.15,2.39,12.63c0.17,1.11,0.33,2.19,0.47,3.19"/>
				<path id="kvg:06a19-s7" kvg:type="㇕a" d="M49.38,31.53c6.05-1.07,28.12-4.03,37.76-4.83c3.83-0.31,5.47,1.39,4.41,5.09c-0.7,2.46-1.76,5.25-2.78,8.14c-0.42,1.19-0.83,2.4-1.21,3.6"/>
				<path id="kvg:06a19-s8" kvg:type="㇑a" d="M59.69,19.36c0.97,0.97,1.18,1.64,1.39,3.08c0.43,2.96,1.52,14.56,2.22,21.12"/>
				<path id="kvg:06a19-s9" kvg:type="㇑a" d="M75.92,17.54c0.83,0.83,1.27,2.09,1.05,3.48c-0.98,6.35-2.1,13.6-3.2,21.4"/>
				<path id="kvg:06a19-s10" kvg:type="㇐a" d="M52.23,46.07C62.75,44.75,80,43,87.69,42.39"/>
			</g>
		</g>
		<g id="kvg:06a19-g5" kvg:element="示" kvg:position="bottom">
			<g id="kvg:06a19-g6" kvg:position="top">
				<path id="kvg:06a19-s11" kvg:type="㇐" d="M55.94,54.51c0.88,0.33,2.51,0.42,3.39,0.33c5.64-0.57,14.8-2.08,20.78-2.39c1.47-0.08,2.36,0.16,3.1,0.32"/>
				<path id="kvg:06a19-s12" kvg:type="㇐" d="M45.63,66.8c2.05,0.47,5.82,0.46,7.85,0.22c11.83-1.39,25.71-3.01,34.62-3.49c3.41-0.18,5.46,0.22,7.17,0.46"/>
			</g>
			<g id="kvg:06a19-g7" kvg:position="bottom">
				<path id="kvg:06a19-s13" kvg:type="㇑" d="M68.46,68.86c1.15,1.15,1.67,2.52,1.67,4.66c0,6.71,0.24,10.23,0.24,14.93c0,6.39-4.12,3.18-6.75,0.52"/>
				<path id="kvg:06a19-s14" kvg:type="㇒" d="M54.89,75.77c0.03,0.36,0.06,0.94-0.06,1.46c-0.71,3.09-5.57,8.51-12.83,13.02"/>
				<path id="kvg:06a19-s15" kvg:type="㇔" d="M83.19,75.55c3.77,2.23,9.93,8.93,10.87,12.41"/>
			</g>
		</g>
	</g>
</g>
</g>
<g id="kvg:StrokeNumbers_06a19" style="font-size:8;fill:#808080">
	<text transform="matrix(1 0 0 1 6.50 38.50)">1</text>
	<text transform="matrix(1 0 0 1 19.50 16.50)">2</text>
	<text transform="matrix(1 0 0 1 20.50 47.50)">3</text>
	<text transform="matrix(1 0 0 1 35.25 44.50)">4</text>
	<text transform="matrix(1 0 0 1 41.50 17.50)">5</text>
	<text transform="matrix(1 0 0 1 42.75 41.50)">6</text>
	<text transform="matrix(1 0 0 1 49.99 28.18)">7</text>
	<text transform="matrix(1 0 0 1 54.50 25.63)">8</text>
	<text transform="matrix(1 0 0 1 69.50 24.13)">9</text>
	<text transform="matrix(1 0 0 1 52.50 43.63)">10</text>
	<text transform="matrix(1 0 0 1 54.75 52.50)">11</text>
	<text transform="matrix(1 0 0 1 45.75 64.63)">12</text>
	<text transform="matrix(1 0 0 1 59.50 76.50)">13</text>
	<text transform="matrix(1 0 0 1 43.50 77.50)">14</text>
	<text transform="matrix(1 0 0 1 74.50 73.50)">15</text>
</g>
</svg>
