<?xml version="1.0" encoding="UTF-8"?>
<!--
Copyright (C) 2009/2010/2011 Ulrich Apel.
This work is distributed under the conditions of the Creative Commons 
Attribution-Share Alike 3.0 Licence. This means you are free:
* to Share - to copy, distribute and transmit the work
* to Remix - to adapt the work

Under the following conditions:
* Attribution. You must attribute the work by stating your use of KanjiVG in
  your own copyright header and linking to KanjiVG's website
  (http://kanjivg.tagaini.net)
* Share Alike. If you alter, transform, or build upon this work, you may
  distribute the resulting work only under the same or similar license to this
  one.

See http://creativecommons.org/licenses/by-sa/3.0/ for more details.
-->
<!DOCTYPE svg PUBLIC "-//W3C//DTD SVG 1.0//EN" "http://www.w3.org/TR/2001/REC-SVG-20010904/DTD/svg10.dtd" [
<!ATTLIST g
xmlns:kvg CDATA #FIXED "http://kanjivg.tagaini.net"
kvg:element CDATA #IMPLIED
kvg:variant CDATA #IMPLIED
kvg:partial CDATA #IMPLIED
kvg:original CDATA #IMPLIED
kvg:part CDATA #IMPLIED
kvg:number CDATA #IMPLIED
kvg:tradForm CDATA #IMPLIED
kvg:radicalForm CDATA #IMPLIED
kvg:position CDATA #IMPLIED
kvg:radical CDATA #IMPLIED
kvg:phon CDATA #IMPLIED >
<!ATTLIST path
xmlns:kvg CDATA #FIXED "http://kanjivg.tagaini.net"
kvg:type CDATA #IMPLIED >
]>
<svg xmlns="http://www.w3.org/2000/svg" width="109" height="109" viewBox="0 0 109 109">
<g id="kvg:StrokePaths_06a3a-Kaisho" style="fill:none;stroke:#000000;stroke-width:3;stroke-linecap:round;stroke-linejoin:round;">
<g id="kvg:06a3a-Kaisho" kvg:element="樺">
	<g id="kvg:06a3a-Kaisho-g1" kvg:element="木" kvg:position="left" kvg:radical="general">
		<path id="kvg:06a3a-Kaisho-s1" kvg:type="㇐" d="M13.03,38.47c0.35,0.24,2.39,0.41,3.31,0.31c3.94-0.41,15.12-2.21,21.45-3.41c0.92-0.17,2.15-0.24,2.73,0"/>
		<path id="kvg:06a3a-Kaisho-s2" kvg:type="㇑" d="M28.11,15.25c0.91,0.47,2.04,1.75,2.04,4.42c0,0.95-0.3,69.73-0.3,70.58c0,10.75-4.47,2.38-5.6,1.25"/>
		<path id="kvg:06a3a-Kaisho-s3" kvg:type="㇒" d="M29.69,40.03c-5.1,15.04-7.94,21.4-15.83,34.56"/>
		<path id="kvg:06a3a-Kaisho-s4" kvg:type="㇔/㇏" d="M32.22,47.65c2.37,1.59,5.28,5.76,7.28,8.85"/>
	</g>
	<g id="kvg:06a3a-Kaisho-g2" kvg:element="華" kvg:position="right">
		<g id="kvg:06a3a-Kaisho-g3" kvg:element="艹" kvg:variant="true" kvg:original="艸" kvg:position="top">
			<path id="kvg:06a3a-Kaisho-s5" kvg:type="㇐" d="M44.28,23.27c0.97,0.4,3.1,0.47,4.07,0.4c8.93-0.72,31.43-3.35,41.72-3.4c1.62-0.01,3.09,0.19,3.9,0.39"/>
			<path id="kvg:06a3a-Kaisho-s6" kvg:type="㇑a" d="M55.48,12.38c1.01,1.08,1.33,1.41,1.43,2.07c1,6.21,1.87,12.61,2.15,14.87"/>
			<path id="kvg:06a3a-Kaisho-s7" kvg:type="㇑a" d="M78.02,10.88c0.42,1.05,1.27,2.24,0.99,3.57c-0.99,4.69-1.23,6.92-2.46,13.62"/>
		</g>
		<g id="kvg:06a3a-Kaisho-g4" kvg:position="bottom">
			<path id="kvg:06a3a-Kaisho-s8" kvg:type="㇐" d="M48.14,35.22c1.07,0.43,2.31,0.53,3.38,0.43C58.5,35,73.04,33.74,84.6,32.9c1.78-0.13,2.85,0.21,3.74,0.42"/>
			<path id="kvg:06a3a-Kaisho-s9" kvg:type="㇐" d="M41.84,52.01c1.52,0.54,4.32,0.68,5.84,0.54c16.24-1.5,29.39-3.26,46.39-3.25c2.54,0,4.07,0.26,5.34,0.53"/>
			<path id="kvg:06a3a-Kaisho-s10" kvg:type="㇑" d="M51.65,42.53c1.37,1.2,1.81,1.57,1.95,2.31c1.37,6.92,2.18,13.49,2.57,16.01"/>
			<path id="kvg:06a3a-Kaisho-s11" kvg:type="㇑" d="M84.24,38.51c0.65,1.09,1.86,2.29,1.55,3.7c-1.29,5.79-1.94,9.68-3.87,16.62"/>
			<path id="kvg:06a3a-Kaisho-s12" kvg:type="㇐" d="M49.15,67.33c1.07,0.43,2.31,0.53,3.38,0.43C61.5,67,77.5,65,84.6,65.02c1.78,0.01,2.85,0.21,3.74,0.43"/>
			<path id="kvg:06a3a-Kaisho-s13" kvg:type="㇐" d="M44.75,79.39c1.31,0.43,2.83,0.53,4.13,0.43c7.86-0.57,27.66-1.91,41.79-2.74c2.17-0.13,3.48,0.21,4.57,0.42"/>
			<g id="kvg:06a3a-Kaisho-g5" kvg:element="丨">
				<path id="kvg:06a3a-Kaisho-s14" kvg:type="㇑" d="M66.11,36.51c1.09,0.5,1.75,2.26,1.97,3.26c0.22,1,0,51.96-0.22,58.23"/>
			</g>
		</g>
	</g>
</g>
</g>
<g id="kvg:StrokeNumbers_06a3a-Kaisho" style="font-size:8;fill:#808080">
	<text transform="matrix(1 0 0 1 6.25 38.88)">1</text>
	<text transform="matrix(1 0 0 1 19.25 16.25)">2</text>
	<text transform="matrix(1 0 0 1 19.25 48.25)">3</text>
	<text transform="matrix(1 0 0 1 33.25 47.25)">4</text>
	<text transform="matrix(1 0 0 1 37.25 23.25)">5</text>
	<text transform="matrix(1 0 0 1 46.25 12.25)">6</text>
	<text transform="matrix(1 0 0 1 71.25 10.25)">7</text>
	<text transform="matrix(1 0 0 1 46.25 33.25)">8</text>
	<text transform="matrix(1 0 0 1 41.25 49.28)">9</text>
	<text transform="matrix(1 0 0 1 42.25 43.20)">10</text>
	<text transform="matrix(1 0 0 1 75.25 41.25)">11</text>
	<text transform="matrix(1 0 0 1 43.25 64.25)">12</text>
	<text transform="matrix(1 0 0 1 38.25 76.25)">13</text>
	<text transform="matrix(1 0 0 1 58.25 42.90)">14</text>
</g>
</svg>
