<?xml version="1.0" encoding="UTF-8"?>
<!--
Copyright (C) 2009/2010/2011 Ulrich Apel.
This work is distributed under the conditions of the Creative Commons 
Attribution-Share Alike 3.0 Licence. This means you are free:
* to Share - to copy, distribute and transmit the work
* to Remix - to adapt the work

Under the following conditions:
* Attribution. You must attribute the work by stating your use of KanjiVG in
  your own copyright header and linking to KanjiVG's website
  (http://kanjivg.tagaini.net)
* Share Alike. If you alter, transform, or build upon this work, you may
  distribute the resulting work only under the same or similar license to this
  one.

See http://creativecommons.org/licenses/by-sa/3.0/ for more details.
-->
<!DOCTYPE svg PUBLIC "-//W3C//DTD SVG 1.0//EN" "http://www.w3.org/TR/2001/REC-SVG-20010904/DTD/svg10.dtd" [
<!ATTLIST g
xmlns:kvg CDATA #FIXED "http://kanjivg.tagaini.net"
kvg:element CDATA #IMPLIED
kvg:variant CDATA #IMPLIED
kvg:partial CDATA #IMPLIED
kvg:original CDATA #IMPLIED
kvg:part CDATA #IMPLIED
kvg:number CDATA #IMPLIED
kvg:tradForm CDATA #IMPLIED
kvg:radicalForm CDATA #IMPLIED
kvg:position CDATA #IMPLIED
kvg:radical CDATA #IMPLIED
kvg:phon CDATA #IMPLIED >
<!ATTLIST path
xmlns:kvg CDATA #FIXED "http://kanjivg.tagaini.net"
kvg:type CDATA #IMPLIED >
]>
<svg xmlns="http://www.w3.org/2000/svg" width="109" height="109" viewBox="0 0 109 109">
<g id="kvg:StrokePaths_06a35" style="fill:none;stroke:#000000;stroke-width:3;stroke-linecap:round;stroke-linejoin:round;">
<g id="kvg:06a35" kvg:element="樵">
	<g id="kvg:06a35-g1" kvg:element="木" kvg:position="left" kvg:radical="general">
		<path id="kvg:06a35-s1" kvg:type="㇐" d="M12.53,38.47c1.89,0.29,3.79,0.39,5.7,0.31c4.24-0.47,11.09-1.81,16.54-2.64c1.57-0.28,3.15-0.37,4.75-0.27"/>
		<path id="kvg:06a35-s2" kvg:type="㇑" d="M26.61,15.25c1.07,1.07,1.29,2.38,1.29,4.67c0,0.95,0.1,70.2,0.1,76.45"/>
		<path id="kvg:06a35-s3" kvg:type="㇒" d="M27.69,39.28c0,1.84-0.58,4.89-1.08,6.33c-4.35,12.34-7.71,18.6-15,30.72"/>
		<path id="kvg:06a35-s4" kvg:type="㇔/㇏" d="M32.22,50.4C35,52.5,39,57.75,40.63,61.54"/>
	</g>
	<g id="kvg:06a35-g2" kvg:element="焦" kvg:position="right">
		<g id="kvg:06a35-g3" kvg:element="隹" kvg:position="top">
			<g id="kvg:06a35-g4" kvg:element="亻" kvg:variant="true" kvg:original="人">
				<path id="kvg:06a35-s5" kvg:type="㇒" d="M57.64,15c0,1.12-0.21,2.22-0.83,3.46c-4.19,8.42-8.44,15.67-16.25,25.12"/>
				<path id="kvg:06a35-s6" kvg:type="㇑" d="M51.65,31.15c0.91,0.91,1.2,2.1,1.2,3.36c0,6.88-0.06,21.75-0.09,31.62c-0.01,3.39-0.02,6.19-0.02,7.88"/>
			</g>
			<path id="kvg:06a35-s7" kvg:type="㇒" d="M78.41,13.24c0.07,0.79-0.21,1.6-0.51,2.25c-2.02,4.38-3.52,7.13-6.9,11.63"/>
			<path id="kvg:06a35-s8" kvg:type="㇐b" d="M52.67,31.36c5.9-0.61,22.87-1.55,33.34-2.2c4.31-0.27,7.53-0.49,8.41-0.61"/>
			<path id="kvg:06a35-s9" kvg:type="㇑a" d="M70.44,32.46c0.8,0.8,0.99,2.16,0.99,3.24c0,5.5-0.05,24.27-0.05,33.05"/>
			<path id="kvg:06a35-s10" kvg:type="㇐b" d="M53.86,44.3c4.7-0.47,20.63-1.44,30.4-2.1c4.03-0.27,6.8-0.49,7.63-0.59"/>
			<path id="kvg:06a35-s11" kvg:type="㇐b" d="M54.05,56.71c4.99-0.4,20.26-1.34,29.72-1.96c3.82-0.25,6.69-0.45,7.55-0.54"/>
			<path id="kvg:06a35-s12" kvg:type="㇐b" d="M54.05,70.99c5.82-0.49,22.2-1,32.83-1.36c4.33-0.15,7.57-0.28,8.45-0.41"/>
		</g>
		<g id="kvg:06a35-g5" kvg:element="灬" kvg:variant="true" kvg:original="火" kvg:position="bottom">
			<path id="kvg:06a35-s13" kvg:type="㇔" d="M46.97,82.2c0,4.82-5.12,11.93-6.2,13.3"/>
			<path id="kvg:06a35-s14" kvg:type="㇔" d="M59.82,82.16c1.69,2.66,3.04,9.98,3.46,14.12"/>
			<path id="kvg:06a35-s15" kvg:type="㇔" d="M74.8,79.95c1.64,2.76,4.49,11.87,4.9,16.17"/>
			<path id="kvg:06a35-s16" kvg:type="㇔" d="M89.13,79.47c2.97,2.85,7.68,11.96,8.42,16.39"/>
		</g>
	</g>
</g>
</g>
<g id="kvg:StrokeNumbers_06a35" style="font-size:8;fill:#808080">
	<text transform="matrix(1 0 0 1 5.85 39.50)">1</text>
	<text transform="matrix(1 0 0 1 16.66 14.50)">2</text>
	<text transform="matrix(1 0 0 1 17.71 49.50)">3</text>
	<text transform="matrix(1 0 0 1 31.50 48.50)">4</text>
	<text transform="matrix(1 0 0 1 48.50 14.50)">5</text>
	<text transform="matrix(1 0 0 1 45.25 46.50)">6</text>
	<text transform="matrix(1 0 0 1 70.50 12.50)">7</text>
	<text transform="matrix(1 0 0 1 59.50 27.50)">8</text>
	<text transform="matrix(1 0 0 1 74.50 38.50)">9</text>
	<text transform="matrix(1 0 0 1 56.25 41.50)">10</text>
	<text transform="matrix(1 0 0 1 56.25 54.50)">11</text>
	<text transform="matrix(1 0 0 1 56.25 67.30)">12</text>
	<text transform="matrix(1 0 0 1 38.50 81.50)">13</text>
	<text transform="matrix(1 0 0 1 50.25 83.50)">14</text>
	<text transform="matrix(1 0 0 1 64.50 82.58)">15</text>
	<text transform="matrix(1 0 0 1 79.50 81.50)">16</text>
</g>
</svg>
