<?xml version="1.0" encoding="UTF-8"?>
<!--
Copyright (C) 2009/2010/2011 Ulrich Apel.
This work is distributed under the conditions of the Creative Commons 
Attribution-Share Alike 3.0 Licence. This means you are free:
* to Share - to copy, distribute and transmit the work
* to Remix - to adapt the work

Under the following conditions:
* Attribution. You must attribute the work by stating your use of KanjiVG in
  your own copyright header and linking to KanjiVG's website
  (http://kanjivg.tagaini.net)
* Share Alike. If you alter, transform, or build upon this work, you may
  distribute the resulting work only under the same or similar license to this
  one.

See http://creativecommons.org/licenses/by-sa/3.0/ for more details.
-->
<!DOCTYPE svg PUBLIC "-//W3C//DTD SVG 1.0//EN" "http://www.w3.org/TR/2001/REC-SVG-20010904/DTD/svg10.dtd" [
<!ATTLIST g
xmlns:kvg CDATA #FIXED "http://kanjivg.tagaini.net"
kvg:element CDATA #IMPLIED
kvg:variant CDATA #IMPLIED
kvg:partial CDATA #IMPLIED
kvg:original CDATA #IMPLIED
kvg:part CDATA #IMPLIED
kvg:number CDATA #IMPLIED
kvg:tradForm CDATA #IMPLIED
kvg:radicalForm CDATA #IMPLIED
kvg:position CDATA #IMPLIED
kvg:radical CDATA #IMPLIED
kvg:phon CDATA #IMPLIED >
<!ATTLIST path
xmlns:kvg CDATA #FIXED "http://kanjivg.tagaini.net"
kvg:type CDATA #IMPLIED >
]>
<svg xmlns="http://www.w3.org/2000/svg" width="109" height="109" viewBox="0 0 109 109">
<g id="kvg:StrokePaths_06a3d-Jinmei" style="fill:none;stroke:#000000;stroke-width:3;stroke-linecap:round;stroke-linejoin:round;">
<g id="kvg:06a3d-Jinmei" kvg:element="樽">
	<g id="kvg:06a3d-Jinmei-g1" kvg:element="木" kvg:position="left" kvg:radical="general">
		<path id="kvg:06a3d-Jinmei-s1" kvg:type="㇐" d="M14.78,41.41c0.35,0.24,2.39,0.41,3.31,0.31c3.94-0.41,17.12-2.71,23.45-3.91c0.92-0.17,1.15-0.24,1.73,0"/>
		<path id="kvg:06a3d-Jinmei-s2" kvg:type="㇑" d="M29.86,14.7c0.91,0.47,2.54,3.25,2.54,5.42c0,0.95-0.12,70.75-0.3,76.58"/>
		<path id="kvg:06a3d-Jinmei-s3" kvg:type="㇒" d="M31.94,42.48c-5.9,14.39-9.19,20.47-18.33,33.06"/>
		<path id="kvg:06a3d-Jinmei-s4" kvg:type="㇔/㇏" d="M35.47,49.09c2.61,1.28,6.21,5.66,8.41,8.14"/>
	</g>
	<g id="kvg:06a3d-Jinmei-g2" kvg:element="尊" kvg:variant="true" kvg:position="right">
		<g id="kvg:06a3d-Jinmei-g3" kvg:element="酋" kvg:variant="true" kvg:position="top">
			<g id="kvg:06a3d-Jinmei-g4" kvg:element="八" kvg:position="top">
				<g id="kvg:06a3d-Jinmei-g5" kvg:position="left">
					<path id="kvg:06a3d-Jinmei-s5" kvg:type="㇒/㇔" d="M61.14,11.34c0.04,0.39,0.07,1.02-0.07,1.58c-0.85,3.34-5.73,10.66-12.4,15.14"/>
				</g>
				<g id="kvg:06a3d-Jinmei-g6" kvg:position="right">
					<path id="kvg:06a3d-Jinmei-s6" kvg:type="㇏/㇒" d="M71.75,8.7c4.75,1,19.45,16.49,23.16,19.18c1.26,0.91,2.33,1.31,3.59,1.57"/>
				</g>
			</g>
			<g id="kvg:06a3d-Jinmei-g7" kvg:element="酉" kvg:position="bottom">
				<g id="kvg:06a3d-Jinmei-g8" kvg:element="西" kvg:part="1" kvg:original="襾">
					<path id="kvg:06a3d-Jinmei-s7" kvg:type="㇐" d="M56.93,26.07c0.8,0.48,2.26,0.59,3.07,0.48c7.11-0.97,15.99-2.61,20.4-2.87c1.33-0.08,2.14,0.23,2.81,0.47"/>
					<path id="kvg:06a3d-Jinmei-s8" kvg:type="㇑" d="M53.19,35.72c0.46,0.68,0.64,2.32,0.64,3.23s0.03,24.35,0.03,24.62"/>
					<path id="kvg:06a3d-Jinmei-s9" kvg:type="㇕a" d="M55.58,37.13c2.62-0.11,27.81-3.67,30.04-3.75c1.86-0.07,2.82,1.12,2.82,2.62c0,0.84-0.75,19.47-0.74,25.28"/>
					<path id="kvg:06a3d-Jinmei-s10" kvg:type="㇒" d="M64.6,26.89c0.25,0.74,0.57,1.38,0.58,2.18c0.07,7.83-0.4,14.31-6.15,17.76"/>
					<path id="kvg:06a3d-Jinmei-s11" kvg:type="㇟a" d="M73.05,27.71c0.46,0.63,0.82,1.38,0.84,2.35c0.08,3.09-0.2,7.26-0.24,11.08c-0.03,3.32,1.28,3.73,5.6,3.73c2.74,0,5.47-0.41,5.78-0.79"/>
				</g>
				<g id="kvg:06a3d-Jinmei-g9" kvg:element="一">
					<path id="kvg:06a3d-Jinmei-s12" kvg:type="㇐a" d="M54.28,52.76c3.31,0,29.89-2.06,33.63-2.06"/>
				</g>
				<g id="kvg:06a3d-Jinmei-g10" kvg:element="西" kvg:part="2" kvg:original="襾">
					<path id="kvg:06a3d-Jinmei-s13" kvg:type="㇐a" d="M54.81,61.18c6.74-0.28,24.36-1.7,32.75-1.94"/>
				</g>
			</g>
		</g>
		<g id="kvg:06a3d-Jinmei-g11" kvg:element="寸" kvg:position="bottom">
			<path id="kvg:06a3d-Jinmei-s14" kvg:type="㇐" d="M43.88,73.03c1.16,0.76,3.28,0.85,4.46,0.76c14.54-1.16,30.77-2.8,44.97-3.95c1.93-0.16,3.1,0.36,4.07,0.74"/>
			<path id="kvg:06a3d-Jinmei-s15" kvg:type="㇚" d="M80.38,63.23c0.05,0.36,0.74,1.9,0.74,4.21c0,8.06,0.22,20.3,0.22,24.08c0,9.19-5.43,1.36-6.73,0.19"/>
			<path id="kvg:06a3d-Jinmei-s16" kvg:type="㇔" d="M57,78.2c2.45,1.43,6.34,5.86,6.95,8.08"/>
		</g>
	</g>
</g>
</g>
<g id="kvg:StrokeNumbers_06a3d-Jinmei" style="font-size:8;fill:#808080">
	<text transform="matrix(1 0 0 1 7.50 40.70)">1</text>
	<text transform="matrix(1 0 0 1 21.50 14.70)">2</text>
	<text transform="matrix(1 0 0 1 20.50 51.70)">3</text>
	<text transform="matrix(1 0 0 1 37.50 47.70)">4</text>
	<text transform="matrix(1 0 0 1 55.50 11.70)">5</text>
	<text transform="matrix(1 0 0 1 70.50 6.70)">6</text>
	<text transform="matrix(1 0 0 1 61.50 24.70)">7</text>
	<text transform="matrix(1 0 0 1 47.50 44.70)">8</text>
	<text transform="matrix(1 0 0 1 56.25 34.70)">9</text>
	<text transform="matrix(1 0 0 1 66.50 33.70)">10</text>
	<text transform="matrix(1 0 0 1 76.50 31.70)">11</text>
	<text transform="matrix(1 0 0 1 62.50 49.70)">12</text>
	<text transform="matrix(1 0 0 1 58.50 59.70)">13</text>
	<text transform="matrix(1 0 0 1 40.50 70.70)">14</text>
	<text transform="matrix(1 0 0 1 69.25 68.70)">15</text>
	<text transform="matrix(1 0 0 1 47.50 82.70)">16</text>
</g>
</svg>
