<?xml version="1.0" encoding="UTF-8"?>
<!--
Copyright (C) 2009/2010/2011 Ulrich Apel.
This work is distributed under the conditions of the Creative Commons 
Attribution-Share Alike 3.0 Licence. This means you are free:
* to Share - to copy, distribute and transmit the work
* to Remix - to adapt the work

Under the following conditions:
* Attribution. You must attribute the work by stating your use of KanjiVG in
  your own copyright header and linking to KanjiVG's website
  (http://kanjivg.tagaini.net)
* Share Alike. If you alter, transform, or build upon this work, you may
  distribute the resulting work only under the same or similar license to this
  one.

See http://creativecommons.org/licenses/by-sa/3.0/ for more details.
-->
<!DOCTYPE svg PUBLIC "-//W3C//DTD SVG 1.0//EN" "http://www.w3.org/TR/2001/REC-SVG-20010904/DTD/svg10.dtd" [
<!ATTLIST g
xmlns:kvg CDATA #FIXED "http://kanjivg.tagaini.net"
kvg:element CDATA #IMPLIED
kvg:variant CDATA #IMPLIED
kvg:partial CDATA #IMPLIED
kvg:original CDATA #IMPLIED
kvg:part CDATA #IMPLIED
kvg:number CDATA #IMPLIED
kvg:tradForm CDATA #IMPLIED
kvg:radicalForm CDATA #IMPLIED
kvg:position CDATA #IMPLIED
kvg:radical CDATA #IMPLIED
kvg:phon CDATA #IMPLIED >
<!ATTLIST path
xmlns:kvg CDATA #FIXED "http://kanjivg.tagaini.net"
kvg:type CDATA #IMPLIED >
]>
<svg xmlns="http://www.w3.org/2000/svg" width="109" height="109" viewBox="0 0 109 109">
<g id="kvg:StrokePaths_06a4b" style="fill:none;stroke:#000000;stroke-width:3;stroke-linecap:round;stroke-linejoin:round;">
<g id="kvg:06a4b" kvg:element="橋">
	<g id="kvg:06a4b-g1" kvg:element="木" kvg:position="left" kvg:radical="general">
		<path id="kvg:06a4b-s1" kvg:type="㇐" d="M11.65,37.72c2.35,0.53,4.47,0.56,6.11,0.38c7.29-0.81,12.54-2.11,20.1-3.23c1.19-0.17,2.78-0.24,3.52,0"/>
		<path id="kvg:06a4b-s2" kvg:type="㇑" d="M28.1,14.75c1.33,1.33,1.73,3.12,1.73,5.17c0,4.43-0.03,50.19-0.04,69.2c0,3.3,0,5.79,0,7.12"/>
		<path id="kvg:06a4b-s3" kvg:type="㇒" d="M29.13,38.03c0,0.97-0.28,2.88-0.54,3.55c-5.29,13.68-8.98,21.45-17.01,32.26"/>
		<path id="kvg:06a4b-s4" kvg:type="㇔" d="M32.88,45.25c2.08,1.58,5.5,6.69,7.25,9.75"/>
	</g>
	<g id="kvg:06a4b-g2" kvg:element="喬" kvg:position="right" kvg:phon="喬">
		<g id="kvg:06a4b-g3" kvg:element="呑" kvg:position="top">
			<g id="kvg:06a4b-g4" kvg:element="夭">
				<g id="kvg:06a4b-g5" kvg:element="丿">
					<path id="kvg:06a4b-s5" kvg:type="㇒" d="M77.25,10.75c0,0.99-0.59,1.85-1.21,2.5c-3.46,3.65-13.06,7.73-25.86,10.79"/>
				</g>
				<g id="kvg:06a4b-g6" kvg:element="大">
					<path id="kvg:06a4b-s6" kvg:type="㇐" d="M45.55,33.13c2.19,0.45,4.51,0.46,6.69,0.06c9.38-1.69,22.4-3.55,31.14-4.32c2.47-0.22,4.88-0.23,7.34,0.05"/>
					<path id="kvg:06a4b-s7" kvg:type="㇒" d="M65.6,22.44c0.58,0.83,0.1,2.26-0.27,3.05C59.51,38.12,54.42,44.83,46.5,51.55"/>
					<path id="kvg:06a4b-s8" kvg:type="㇏" d="M71.22,31.52c4.98,3.98,15.76,13.35,20.73,16.01c1.69,0.9,2.28,1.04,3.05,1.13"/>
				</g>
			</g>
			<g id="kvg:06a4b-g7" kvg:element="口">
				<path id="kvg:06a4b-s9" kvg:type="㇑" d="M54.59,44.91c0.63,0.63,1.46,1.33,1.77,2.45c0.67,2.41,1.09,4.98,1.48,7.36c0.2,1.23,0.39,2.4,0.61,3.48"/>
				<path id="kvg:06a4b-s10" kvg:type="㇕b" d="M55.92,45.8c6.07-1.23,16.8-2.57,20.23-3.21c1.83-0.34,2.66,1.29,2.27,2.7c-0.59,2.12-1.01,3.69-1.77,7.51"/>
				<path id="kvg:06a4b-s11" kvg:type="㇐b" d="M59.26,55.83c3.25-0.6,9.2-1.11,14.75-1.69c1.34-0.14,2.65-0.28,3.89-0.43"/>
			</g>
		</g>
		<g id="kvg:06a4b-g8" kvg:position="bottom">
			<g id="kvg:06a4b-g9" kvg:element="冂">
				<path id="kvg:06a4b-s12" kvg:type="㇑" d="M44.5,64.5c1.06,1.06,1.66,2.47,1.86,3.91c0.62,4.49,1.7,15.37,2.4,22.46c0.17,1.74,0.32,3.25,0.42,4.38"/>
				<path id="kvg:06a4b-s13" kvg:type="㇆a" d="M47,66.25c6.38-0.45,40.56-3.83,41.77-3.98c3.23-0.4,5.41,0.81,5.12,4.84c-0.2,2.74-2.4,17.56-5.19,26.46c-1.97,6.28-4.8,3.04-7.79,0.02"/>
			</g>
			<g id="kvg:06a4b-g10" kvg:element="口">
				<path id="kvg:06a4b-s14" kvg:type="㇑" d="M57.67,73.72c0.62,0.62,1.1,1.28,1.27,2.09c0.59,2.82,1,5.4,1.49,8.06c0.17,0.94,0.35,1.89,0.56,2.86"/>
				<path id="kvg:06a4b-s15" kvg:type="㇕b" d="M59.37,74.48c6.49-1.25,12.97-1.89,16.63-2.62c2.29-0.45,3.2,0.85,2.7,2.72c-0.7,2.66-1.04,3.44-2.17,7.18"/>
				<path id="kvg:06a4b-s16" kvg:type="㇐b" d="M62.04,84.67c3.62-0.63,8.42-1.13,13.37-1.69c0.94-0.11,1.86-0.21,2.72-0.3"/>
			</g>
		</g>
	</g>
</g>
</g>
<g id="kvg:StrokeNumbers_06a4b" style="font-size:8;fill:#808080">
	<text transform="matrix(1 0 0 1 5.25 39.13)">1</text>
	<text transform="matrix(1 0 0 1 18.75 15.13)">2</text>
	<text transform="matrix(1 0 0 1 18.50 49.50)">3</text>
	<text transform="matrix(1 0 0 1 36.75 46.63)">4</text>
	<text transform="matrix(1 0 0 1 69.50 11.50)">5</text>
	<text transform="matrix(1 0 0 1 43.50 31.50)">6</text>
	<text transform="matrix(1 0 0 1 58.50 28.50)">7</text>
	<text transform="matrix(1 0 0 1 79.50 37.50)">8</text>
	<text transform="matrix(1 0 0 1 50.25 55.50)">9</text>
	<text transform="matrix(1 0 0 1 62.50 42.50)">10</text>
	<text transform="matrix(1 0 0 1 60.50 53.50)">11</text>
	<text transform="matrix(1 0 0 1 36.50 73.50)">12</text>
	<text transform="matrix(1 0 0 1 45.75 63.50)">13</text>
	<text transform="matrix(1 0 0 1 50.50 80.50)">14</text>
	<text transform="matrix(1 0 0 1 59.50 71.92)">15</text>
	<text transform="matrix(1 0 0 1 62.25 82.50)">16</text>
</g>
</svg>
