<?xml version="1.0" encoding="UTF-8"?>
<!--
Copyright (C) 2009/2010/2011 Ulrich Apel.
This work is distributed under the conditions of the Creative Commons 
Attribution-Share Alike 3.0 Licence. This means you are free:
* to Share - to copy, distribute and transmit the work
* to Remix - to adapt the work

Under the following conditions:
* Attribution. You must attribute the work by stating your use of KanjiVG in
  your own copyright header and linking to KanjiVG's website
  (http://kanjivg.tagaini.net)
* Share Alike. If you alter, transform, or build upon this work, you may
  distribute the resulting work only under the same or similar license to this
  one.

See http://creativecommons.org/licenses/by-sa/3.0/ for more details.
-->
<!DOCTYPE svg PUBLIC "-//W3C//DTD SVG 1.0//EN" "http://www.w3.org/TR/2001/REC-SVG-20010904/DTD/svg10.dtd" [
<!ATTLIST g
xmlns:kvg CDATA #FIXED "http://kanjivg.tagaini.net"
kvg:element CDATA #IMPLIED
kvg:variant CDATA #IMPLIED
kvg:partial CDATA #IMPLIED
kvg:original CDATA #IMPLIED
kvg:part CDATA #IMPLIED
kvg:number CDATA #IMPLIED
kvg:tradForm CDATA #IMPLIED
kvg:radicalForm CDATA #IMPLIED
kvg:position CDATA #IMPLIED
kvg:radical CDATA #IMPLIED
kvg:phon CDATA #IMPLIED >
<!ATTLIST path
xmlns:kvg CDATA #FIXED "http://kanjivg.tagaini.net"
kvg:type CDATA #IMPLIED >
]>
<svg xmlns="http://www.w3.org/2000/svg" width="109" height="109" viewBox="0 0 109 109">
<g id="kvg:StrokePaths_06ac2-Kaisho" style="fill:none;stroke:#000000;stroke-width:3;stroke-linecap:round;stroke-linejoin:round;">
<g id="kvg:06ac2-Kaisho" kvg:element="櫂">
	<g id="kvg:06ac2-Kaisho-g1" kvg:element="木" kvg:position="left" kvg:radical="general">
		<path id="kvg:06ac2-Kaisho-s1" kvg:type="㇐" d="M12.78,37.22c0.35,0.24,2.39,0.36,3.31,0.31c5.42-0.28,14.17-0.78,21.45-1.41c0.93-0.08,2.15-0.24,2.73,0"/>
		<path id="kvg:06ac2-Kaisho-s2" kvg:type="㇑" d="M27.36,14.5c0.91,0.47,2.04,2,2.04,4.42c0,0.95-0.3,70.73-0.3,71.58c0,11.5-5.85,1.5-6.6,0.75"/>
		<path id="kvg:06ac2-Kaisho-s3" kvg:type="㇒" d="M28.94,39.78c-5.82,16.13-9.06,22.94-18.08,37.06"/>
		<path id="kvg:06ac2-Kaisho-s4" kvg:type="㇔/㇏" d="M32.47,49.9c2.37,1.59,6.28,6.76,8.28,9.85"/>
	</g>
	<g id="kvg:06ac2-Kaisho-g2" kvg:position="right">
		<g id="kvg:06ac2-Kaisho-g3" kvg:element="羽" kvg:position="top">
			<path id="kvg:06ac2-Kaisho-s5" kvg:type="㇆" d="M44.25,17.94c1.06,0.72,1.94,0.53,3.51,0.48c5.49-0.17,12.99-0.92,16.11-1.05c2.17-0.09,2.97,1.61,2.7,2.12c-0.26,0.49-0.41,22.29-0.41,29.19"/>
			<path id="kvg:06ac2-Kaisho-s6" kvg:type="㇔" d="M55.77,21.64c0.03,0.26,0.07,0.67-0.06,1.05c-0.75,2.21-5.04,7.06-10.9,10.03"/>
			<path id="kvg:06ac2-Kaisho-s7" kvg:type="㇀" d="M61.5,28.89c0.05,0.38,0.11,0.99-0.1,1.54c-1.24,3.26-8.36,10.4-18.09,14.78"/>
			<path id="kvg:06ac2-Kaisho-s8" kvg:type="㇆" d="M73.3,16.87c1.04,0.87,1.91,0.74,3.46,0.58c4.49-0.45,14.17-1.39,15.12-1.48c2.13-0.21,2.93,1.33,2.66,1.95c-0.26,0.59-0.4,21.96-0.4,30.26"/>
			<path id="kvg:06ac2-Kaisho-s9" kvg:type="㇔" d="M84.52,21.14c0.03,0.25,0.07,0.66-0.07,1.02c-0.83,2.16-5.61,6.9-12.14,9.8"/>
			<path id="kvg:06ac2-Kaisho-s10" kvg:type="㇀" d="M91,28.89c0.05,0.29,0.1,0.75-0.09,1.17c-1.17,2.46-7.9,7.86-17.1,11.16"/>
		</g>
		<g id="kvg:06ac2-Kaisho-g4" kvg:element="隹" kvg:position="bottom">
			<g id="kvg:06ac2-Kaisho-g5" kvg:element="亻" kvg:variant="true" kvg:original="人">
				<path id="kvg:06ac2-Kaisho-s11" kvg:type="㇒" d="M56.83,44.75c0.15,0.97-0.04,2.24-0.53,3.08c-3.13,5.31-7.11,9.8-14.29,16.25"/>
				<path id="kvg:06ac2-Kaisho-s12" kvg:type="㇑" d="M52.58,55.77c0.58,0.63,1.02,2.03,1.06,3.01c0.34,8.76-0.47,31.91-0.18,36.47"/>
			</g>
			<path id="kvg:06ac2-Kaisho-s13" kvg:type="㇒" d="M76.34,45.25c0.07,0.55-0.02,1.26-0.26,1.73c-1.49,2.98-3.38,5.28-6.8,8.91"/>
			<path id="kvg:06ac2-Kaisho-s14" kvg:type="㇐b" d="M53.48,57.46c8.27-0.46,37.75-1.51,40.9-1.93"/>
			<path id="kvg:06ac2-Kaisho-s15" kvg:type="㇑a" d="M71.88,58.39c0.35,0.3,0.64,0.72,0.64,1.24c0,5.3,0.04,23.28-0.17,31.63"/>
			<path id="kvg:06ac2-Kaisho-s16" kvg:type="㇐b" d="M53.96,69.01c6.92-0.64,34.15-1.99,37.12-2.34"/>
			<path id="kvg:06ac2-Kaisho-s17" kvg:type="㇐b" d="M54.12,79.78c7.3-0.54,34.31-1.63,37.44-1.92"/>
			<path id="kvg:06ac2-Kaisho-s18" kvg:type="㇐b" d="M53.62,92.53c7.33-0.77,40.24-1.74,43.38-2.16"/>
		</g>
	</g>
</g>
</g>
<g id="kvg:StrokeNumbers_06ac2-Kaisho" style="font-size:8;fill:#808080">
	<text transform="matrix(1 0 0 1 5.85 37.50)">1</text>
	<text transform="matrix(1 0 0 1 18.50 14.50)">2</text>
	<text transform="matrix(1 0 0 1 18.50 48.50)">3</text>
	<text transform="matrix(1 0 0 1 33.50 48.50)">4</text>
	<text transform="matrix(1 0 0 1 41.50 14.50)">5</text>
	<text transform="matrix(1 0 0 1 46.50 27.50)">6</text>
	<text transform="matrix(1 0 0 1 51.50 36.50)">7</text>
	<text transform="matrix(1 0 0 1 71.50 13.50)">8</text>
	<text transform="matrix(1 0 0 1 74.50 25.50)">9</text>
	<text transform="matrix(1 0 0 1 78.50 33.50)">10</text>
	<text transform="matrix(1 0 0 1 46.50 50.50)">11</text>
	<text transform="matrix(1 0 0 1 43.50 70.50)">12</text>
	<text transform="matrix(1 0 0 1 80.50 47.50)">13</text>
	<text transform="matrix(1 0 0 1 58.50 54.15)">14</text>
	<text transform="matrix(1 0 0 1 76.50 64.50)">15</text>
	<text transform="matrix(1 0 0 1 57.50 65.50)">16</text>
	<text transform="matrix(1 0 0 1 58.50 76.50)">17</text>
	<text transform="matrix(1 0 0 1 58.25 88.50)">18</text>
</g>
</svg>
