<?xml version="1.0" encoding="UTF-8"?>
<!--
Copyright (C) 2009/2010/2011 Ulrich Apel.
This work is distributed under the conditions of the Creative Commons 
Attribution-Share Alike 3.0 Licence. This means you are free:
* to Share - to copy, distribute and transmit the work
* to Remix - to adapt the work

Under the following conditions:
* Attribution. You must attribute the work by stating your use of KanjiVG in
  your own copyright header and linking to KanjiVG's website
  (http://kanjivg.tagaini.net)
* Share Alike. If you alter, transform, or build upon this work, you may
  distribute the resulting work only under the same or similar license to this
  one.

See http://creativecommons.org/licenses/by-sa/3.0/ for more details.
-->
<!DOCTYPE svg PUBLIC "-//W3C//DTD SVG 1.0//EN" "http://www.w3.org/TR/2001/REC-SVG-20010904/DTD/svg10.dtd" [
<!ATTLIST g
xmlns:kvg CDATA #FIXED "http://kanjivg.tagaini.net"
kvg:element CDATA #IMPLIED
kvg:variant CDATA #IMPLIED
kvg:partial CDATA #IMPLIED
kvg:original CDATA #IMPLIED
kvg:part CDATA #IMPLIED
kvg:number CDATA #IMPLIED
kvg:tradForm CDATA #IMPLIED
kvg:radicalForm CDATA #IMPLIED
kvg:position CDATA #IMPLIED
kvg:radical CDATA #IMPLIED
kvg:phon CDATA #IMPLIED >
<!ATTLIST path
xmlns:kvg CDATA #FIXED "http://kanjivg.tagaini.net"
kvg:type CDATA #IMPLIED >
]>
<svg xmlns="http://www.w3.org/2000/svg" width="109" height="109" viewBox="0 0 109 109">
<g id="kvg:StrokePaths_06ada-Kaisho" style="fill:none;stroke:#000000;stroke-width:3;stroke-linecap:round;stroke-linejoin:round;">
<g id="kvg:06ada-Kaisho" kvg:element="櫚">
	<g id="kvg:06ada-Kaisho-g1" kvg:element="木" kvg:position="left" kvg:radical="general">
		<path id="kvg:06ada-Kaisho-s1" kvg:type="㇐" d="M11.78,38.97c0.35,0.24,2.39,0.41,3.31,0.31c3.94-0.41,14.62-1.21,20.95-2.41c0.92-0.17,2.15-0.24,2.73,0"/>
		<path id="kvg:06ada-Kaisho-s2" kvg:type="㇑" d="M25.36,15.25c0.91,0.47,2.04,2,2.04,4.42c0,0.95-0.3,71.73-0.3,72.58c0,10.75-4.1,3.5-5.85,1.75"/>
		<path id="kvg:06ada-Kaisho-s3" kvg:type="㇒" d="M26.94,42.03c-5.1,15.04-7.94,21.4-15.83,34.56"/>
		<path id="kvg:06ada-Kaisho-s4" kvg:type="㇔/㇏" d="M29.47,48.65c2.37,1.59,6.28,6.76,8.28,9.85"/>
	</g>
	<g id="kvg:06ada-Kaisho-g2" kvg:element="閭" kvg:position="right">
		<g id="kvg:06ada-Kaisho-g3" kvg:element="門" kvg:position="kamae">
			<g id="kvg:06ada-Kaisho-g4" kvg:position="left">
				<path id="kvg:06ada-Kaisho-s5" kvg:type="㇑" d="M43.39,17.17c0.48,0.44,1.51,3.28,1.6,4.16c0.1,0.88-0.06,67.59-0.16,73.07"/>
				<path id="kvg:06ada-Kaisho-s6" kvg:type="㇕a" d="M44.63,18.81c1.61-0.09,14.74-2.04,16.2-2.16c1.22-0.09,1.85,0.86,1.91,1.62c0.09,1.16-2.02,20.94-2.02,21.51"/>
				<path id="kvg:06ada-Kaisho-s7" kvg:type="㇐a" d="M45.41,28.46c2.56-0.36,5.14-0.62,7.72-0.87c0.74-0.07,1.5-0.14,2.26-0.21"/>
				<path id="kvg:06ada-Kaisho-s8" kvg:type="㇐a" d="M45.13,39.32c4.87-1.07,10.51-1.41,15.25-1.91"/>
			</g>
			<g id="kvg:06ada-Kaisho-g5" kvg:position="right">
				<path id="kvg:06ada-Kaisho-s9" kvg:type="㇑" d="M71.96,15.44c0.29,0.52,0.58,1.64,0.58,2.34c0,0.7-0.1,20.2,0,20.9"/>
				<path id="kvg:06ada-Kaisho-s10" kvg:type="㇆a" d="M72.53,16.49c1.65-0.1,16.52-2.13,18.02-2.25c1.25-0.1,1.97,1.09,1.96,1.7c-0.32,18.38-0.33,60.71-0.33,74.03c0,9.53-5.58,1.62-6.54,0.4"/>
				<path id="kvg:06ada-Kaisho-s11" kvg:type="㇐a" d="M72.49,25.97c3.22,0,6.5-0.52,9.7-0.82c1.08-0.1,2.16-0.21,3.19-0.3"/>
				<path id="kvg:06ada-Kaisho-s12" kvg:type="㇐a" d="M73.03,35.83c3.29,0,14.62-0.97,18.88-0.97"/>
			</g>
		</g>
		<g id="kvg:06ada-Kaisho-g6" kvg:element="呂">
			<g id="kvg:06ada-Kaisho-g7" kvg:element="口" kvg:position="top">
				<path id="kvg:06ada-Kaisho-s13" kvg:type="㇑" d="M56.55,47.59c0.21,0.27,0.43,0.49,0.53,0.82c0.74,2.61,1.62,9.77,2.12,14.43"/>
				<path id="kvg:06ada-Kaisho-s14" kvg:type="㇕b" d="M57.89,49.02c5.26-0.95,16.74-2.06,19.46-2.36c0.99-0.11,1.58,1.39,1.44,2.18c-0.59,3.24-1.27,5.53-2.54,10.19"/>
				<path id="kvg:06ada-Kaisho-s15" kvg:type="㇐b" d="M59.42,61.61c3.18-0.33,14.08-1.84,18.15-2.15"/>
			</g>
			<g id="kvg:06ada-Kaisho-g8" kvg:position="bottom">
				<g id="kvg:06ada-Kaisho-g9" kvg:element="丿">
					<path id="kvg:06ada-Kaisho-s16" kvg:type="㇒" d="M66.17,62.08c0.58,0.92,0.88,1.65,0.53,2.73c-0.26,0.8-3.19,4.78-3.66,5.85"/>
				</g>
				<g id="kvg:06ada-Kaisho-g10" kvg:element="口">
					<path id="kvg:06ada-Kaisho-s17" kvg:type="㇑" d="M54.92,70.53c0.27,0.29,0.54,0.53,0.65,0.89c0.92,2.79,1.69,9.74,2.31,14.69"/>
					<path id="kvg:06ada-Kaisho-s18" kvg:type="㇕b" d="M56.26,72.41c6.51-0.82,18.69-2.55,22.05-2.77c1.23-0.08,1.96,1.53,1.79,2.35c-0.74,3.41-1.29,4.81-2.71,10.81"/>
					<path id="kvg:06ada-Kaisho-s19" kvg:type="㇐b" d="M58.15,84.97c3.95-0.24,15.46-1.49,20.46-1.68"/>
				</g>
			</g>
		</g>
	</g>
</g>
</g>
<g id="kvg:StrokeNumbers_06ada-Kaisho" style="font-size:8;fill:#808080">
	<text transform="matrix(1 0 0 1 5.85 39.50)">1</text>
	<text transform="matrix(1 0 0 1 16.66 14.50)">2</text>
	<text transform="matrix(1 0 0 1 17.71 48.50)">3</text>
	<text transform="matrix(1 0 0 1 32.50 48.50)">4</text>
	<text transform="matrix(1 0 0 1 37.50 25.33)">5</text>
	<text transform="matrix(1 0 0 1 46.50 15.50)">6</text>
	<text transform="matrix(1 0 0 1 49.50 26.50)">7</text>
	<text transform="matrix(1 0 0 1 49.50 35.50)">8</text>
	<text transform="matrix(1 0 0 1 66.50 22.50)">9</text>
	<text transform="matrix(1 0 0 1 76.25 12.50)">10</text>
	<text transform="matrix(1 0 0 1 76.25 23.50)">11</text>
	<text transform="matrix(1 0 0 1 76.25 33.50)">12</text>
	<text transform="matrix(1 0 0 1 48.50 55.50)">13</text>
	<text transform="matrix(1 0 0 1 58.50 46.50)">14</text>
	<text transform="matrix(1 0 0 1 62.25 57.50)">15</text>
	<text transform="matrix(1 0 0 1 55.50 69.50)">16</text>
	<text transform="matrix(1 0 0 1 47.25 78.50)">17</text>
	<text transform="matrix(1 0 0 1 69.25 67.50)">18</text>
	<text transform="matrix(1 0 0 1 59.50 81.28)">19</text>
</g>
</svg>
