<?xml version="1.0" encoding="UTF-8"?>
<!--
Copyright (C) 2009/2010/2011 Ulrich Apel.
This work is distributed under the conditions of the Creative Commons 
Attribution-Share Alike 3.0 Licence. This means you are free:
* to Share - to copy, distribute and transmit the work
* to Remix - to adapt the work

Under the following conditions:
* Attribution. You must attribute the work by stating your use of KanjiVG in
  your own copyright header and linking to KanjiVG's website
  (http://kanjivg.tagaini.net)
* Share Alike. If you alter, transform, or build upon this work, you may
  distribute the resulting work only under the same or similar license to this
  one.

See http://creativecommons.org/licenses/by-sa/3.0/ for more details.
-->
<!DOCTYPE svg PUBLIC "-//W3C//DTD SVG 1.0//EN" "http://www.w3.org/TR/2001/REC-SVG-20010904/DTD/svg10.dtd" [
<!ATTLIST g
xmlns:kvg CDATA #FIXED "http://kanjivg.tagaini.net"
kvg:element CDATA #IMPLIED
kvg:variant CDATA #IMPLIED
kvg:partial CDATA #IMPLIED
kvg:original CDATA #IMPLIED
kvg:part CDATA #IMPLIED
kvg:number CDATA #IMPLIED
kvg:tradForm CDATA #IMPLIED
kvg:radicalForm CDATA #IMPLIED
kvg:position CDATA #IMPLIED
kvg:radical CDATA #IMPLIED
kvg:phon CDATA #IMPLIED >
<!ATTLIST path
xmlns:kvg CDATA #FIXED "http://kanjivg.tagaini.net"
kvg:type CDATA #IMPLIED >
]>
<svg xmlns="http://www.w3.org/2000/svg" width="109" height="109" viewBox="0 0 109 109">
<g id="kvg:StrokePaths_06afb" style="fill:none;stroke:#000000;stroke-width:3;stroke-linecap:round;stroke-linejoin:round;">
<g id="kvg:06afb" kvg:element="櫻">
	<g id="kvg:06afb-g1" kvg:element="木" kvg:position="left" kvg:radical="general">
		<path id="kvg:06afb-s1" kvg:type="㇐" d="M12.78,36.22c0.35,0.24,2.39,0.41,3.31,0.31C20.03,36.12,29,35,36.54,34.12c0.93-0.11,2.15-0.24,2.73,0"/>
		<path id="kvg:06afb-s2" kvg:type="㇑" d="M27.36,13.5c0.91,0.47,2.04,1.75,2.04,4.42c0,0.95-0.12,73.75-0.3,79.58"/>
		<path id="kvg:06afb-s3" kvg:type="㇒" d="M28.94,37.78C23.2,54.45,20,61.5,11.11,76.09"/>
		<path id="kvg:06afb-s4" kvg:type="㇔/㇏" d="M30.97,46.9c2.37,1.59,6.28,6.76,8.28,9.85"/>
	</g>
	<g id="kvg:06afb-g2" kvg:element="嬰" kvg:position="right">
		<g id="kvg:06afb-g3" kvg:position="top">
			<g id="kvg:06afb-g4" kvg:element="貝" kvg:position="left">
				<g id="kvg:06afb-g5" kvg:element="目" kvg:position="top">
					<path id="kvg:06afb-s5" kvg:type="㇑" d="M47.4,14.27c0.23,0.6,0.57,1.05,0.57,1.85c0,0.8,0.11,21.45-0.17,24.81"/>
					<path id="kvg:06afb-s6" kvg:type="㇕a" d="M48.36,14.97c1.32-0.1,11.34-1.38,12.54-1.51c1-0.1,1.53,0.55,1.53,1.31c0,1.84-0.29,24.94-0.29,25.54"/>
					<path id="kvg:06afb-s7" kvg:type="㇐a" d="M48,23.45c2.46-0.23,12-1.63,14.11-1.63"/>
					<path id="kvg:06afb-s8" kvg:type="㇐a" d="M48.11,31.57c3.71-0.44,10.08-1.34,14.02-1.43"/>
					<path id="kvg:06afb-s9" kvg:type="㇐a" d="M47.94,39.36c3.71-0.33,10.8-1.2,14.19-1.2"/>
				</g>
				<g id="kvg:06afb-g6" kvg:position="bottom">
					<path id="kvg:06afb-s10" kvg:type="㇒" d="M51.89,45.22c0.2,0.89-0.15,1.77-0.55,2.42c-1.2,1.97-4.35,6.16-6.75,8.48"/>
					<path id="kvg:06afb-s11" kvg:type="㇔" d="M57.43,44.48c2.49,1.58,5.43,4.45,6.11,5.83"/>
				</g>
			</g>
			<g id="kvg:06afb-g7" kvg:element="貝" kvg:position="right">
				<g id="kvg:06afb-g8" kvg:element="目" kvg:position="top">
					<path id="kvg:06afb-s12" kvg:type="㇑" d="M71.48,13.78c0.25,0.59,0.62,1.03,0.62,1.82c0,0.79,0.12,21.06-0.18,24.36"/>
					<path id="kvg:06afb-s13" kvg:type="㇕a" d="M72.51,14.46c1.42-0.1,12.19-1.36,13.48-1.48c1.07-0.1,1.65,0.54,1.65,1.28c0,1.8-0.32,24.49-0.32,25.08"/>
					<path id="kvg:06afb-s14" kvg:type="㇐a" d="M72.12,22.79c2.65-0.23,12.9-1.6,15.17-1.6"/>
					<path id="kvg:06afb-s15" kvg:type="㇐a" d="M72.24,30.27c3.99-0.43,10.84-1.32,15.07-1.4"/>
					<path id="kvg:06afb-s16" kvg:type="㇐a" d="M72.05,38.41c3.99-0.32,11.61-1.18,15.25-1.18"/>
				</g>
				<g id="kvg:06afb-g9" kvg:position="bottom">
					<path id="kvg:06afb-s17" kvg:type="㇒" d="M76.91,43.76c0.19,0.79-0.14,1.57-0.51,2.14c-1.12,1.74-4.05,5.46-6.29,7.51"/>
					<path id="kvg:06afb-s18" kvg:type="㇔" d="M84.63,44.29c2.72,1.89,5.93,5.32,6.67,6.98"/>
				</g>
			</g>
		</g>
		<g id="kvg:06afb-g10" kvg:element="女" kvg:position="bottom">
			<path id="kvg:06afb-s19" kvg:type="㇛" d="M63.76,55.34c0.38,1.08,0.33,2.56-0.19,3.79c-2.78,6.65-5.22,11.65-9.91,19.23c-1.02,1.65-0.21,1.93,0.56,1.99c11.26,0.73,23.77,6.4,31.33,15.93"/>
			<path id="kvg:06afb-s20" kvg:type="㇒" d="M80.26,56.81c0.11,0.98,0.19,3.37-0.23,4.79C76.64,73.11,67.15,90.66,42.6,98"/>
			<path id="kvg:06afb-s21" kvg:type="㇐" d="M38.63,67.52c1.59,0.23,3.29,0.39,4.06,0.35c16.11-0.73,36.93-2.05,52.31-2.15c1.27-0.01,3.47,0.14,4.5,0.41"/>
		</g>
	</g>
</g>
</g>
<g id="kvg:StrokeNumbers_06afb" style="font-size:8;fill:#808080">
	<text transform="matrix(1 0 0 1 6.50 36.50)">1</text>
	<text transform="matrix(1 0 0 1 17.50 12.50)">2</text>
	<text transform="matrix(1 0 0 1 18.50 47.50)">3</text>
	<text transform="matrix(1 0 0 1 33.50 46.50)">4</text>
	<text transform="matrix(1 0 0 1 40.50 21.50)">5</text>
	<text transform="matrix(1 0 0 1 48.50 11.50)">6</text>
	<text transform="matrix(1 0 0 1 52.54 21.18)">7</text>
	<text transform="matrix(1 0 0 1 52.51 29.50)">8</text>
	<text transform="matrix(1 0 0 1 52.50 37.53)">9</text>
	<text transform="matrix(1 0 0 1 41.50 48.50)">10</text>
	<text transform="matrix(1 0 0 1 61.25 46.50)">11</text>
	<text transform="matrix(1 0 0 1 64.50 20.50)">12</text>
	<text transform="matrix(1 0 0 1 71.50 11.50)">13</text>
	<text transform="matrix(1 0 0 1 76.25 20.50)">14</text>
	<text transform="matrix(1 0 0 1 76.25 28.58)">15</text>
	<text transform="matrix(1 0 0 1 76.25 35.50)">16</text>
	<text transform="matrix(1 0 0 1 68.50 46.50)">17</text>
	<text transform="matrix(1 0 0 1 79.50 52.50)">18</text>
	<text transform="matrix(1 0 0 1 52.50 56.50)">19</text>
	<text transform="matrix(1 0 0 1 84.50 60.50)">20</text>
	<text transform="matrix(1 0 0 1 38.50 64.50)">21</text>
</g>
</svg>
