<?xml version="1.0" encoding="UTF-8"?>
<!--
Copyright (C) 2009/2010/2011 Ulrich Apel.
This work is distributed under the conditions of the Creative Commons 
Attribution-Share Alike 3.0 Licence. This means you are free:
* to Share - to copy, distribute and transmit the work
* to Remix - to adapt the work

Under the following conditions:
* Attribution. You must attribute the work by stating your use of KanjiVG in
  your own copyright header and linking to KanjiVG's website
  (http://kanjivg.tagaini.net)
* Share Alike. If you alter, transform, or build upon this work, you may
  distribute the resulting work only under the same or similar license to this
  one.

See http://creativecommons.org/licenses/by-sa/3.0/ for more details.
-->
<!DOCTYPE svg PUBLIC "-//W3C//DTD SVG 1.0//EN" "http://www.w3.org/TR/2001/REC-SVG-20010904/DTD/svg10.dtd" [
<!ATTLIST g
xmlns:kvg CDATA #FIXED "http://kanjivg.tagaini.net"
kvg:element CDATA #IMPLIED
kvg:variant CDATA #IMPLIED
kvg:partial CDATA #IMPLIED
kvg:original CDATA #IMPLIED
kvg:part CDATA #IMPLIED
kvg:number CDATA #IMPLIED
kvg:tradForm CDATA #IMPLIED
kvg:radicalForm CDATA #IMPLIED
kvg:position CDATA #IMPLIED
kvg:radical CDATA #IMPLIED
kvg:phon CDATA #IMPLIED >
<!ATTLIST path
xmlns:kvg CDATA #FIXED "http://kanjivg.tagaini.net"
kvg:type CDATA #IMPLIED >
]>
<svg xmlns="http://www.w3.org/2000/svg" width="109" height="109" viewBox="0 0 109 109">
<g id="kvg:StrokePaths_06bb7" style="fill:none;stroke:#000000;stroke-width:3;stroke-linecap:round;stroke-linejoin:round;">
<g id="kvg:06bb7" kvg:element="殷">
	<g id="kvg:06bb7-g1" kvg:position="left">
		<path id="kvg:06bb7-s1" kvg:type="㇒" d="M42.81,14.25c0.06,0.3-0.24,1.41-0.61,1.71c-4.95,4.04-9.71,7.65-20.45,11.08"/>
		<path id="kvg:06bb7-s2" kvg:type="㇒" d="M20.1,26.25c0.9,1,0.82,1.75,0.82,4.03c0,20.78,0.33,44.97-10.11,62.94"/>
		<path id="kvg:06bb7-s3" kvg:type="㇕" d="M21.69,31.75c1.89-0.09,22.55-2.15,24.28-2.26c1.44-0.09,2.25,1.26,2.25,2.51c0,1.09-1.94,20.2-1.94,20.73"/>
		<path id="kvg:06bb7-s4" kvg:type="㇐" d="M22.03,41.36c2.56,0,20.57-1.91,23.47-1.91"/>
		<path id="kvg:06bb7-s5" kvg:type="㇐" d="M21.91,52.11c5.22-0.38,17.08-1.4,23.58-1.73"/>
		<path id="kvg:06bb7-s6" kvg:type="㇆" d="M22.75,65.9c1.75,0.6,3.36,0.31,3.89,0.21c4.86-0.86,14.34-2.49,16.73-2.89c1.55-0.26,1.98,1.17,1.9,3c-0.23,4.82-5.17,21.02-7.58,24.3c-2.24,3.06-4.44,1.48-6.14-0.89"/>
	</g>
	<g id="kvg:06bb7-g2" kvg:element="殳" kvg:position="right" kvg:radical="tradit">
		<g id="kvg:06bb7-g3" kvg:element="几" kvg:position="top">
			<g id="kvg:06bb7-g4" kvg:element="丿" kvg:radical="nelson">
				<path id="kvg:06bb7-s7" kvg:type="㇒" d="M61.42,16.85c0.33,0.9,0.48,1.82,0.45,2.84c-0.21,10.56-2.92,21.46-8.59,26.17"/>
			</g>
			<path id="kvg:06bb7-s8" kvg:type="㇈" d="M62.35,18.78c3.4-0.03,12.8-1.84,14.39-2.4c2.38-0.84,3.07,1.27,2.83,3.12c-0.48,3.62-1.71,10.25-1.71,13.87c0,5.01,0.69,8.64,8.53,8.64c9.36,0,9.53-1.51,9.53-9.36"/>
		</g>
		<g id="kvg:06bb7-g5" kvg:element="又" kvg:position="bottom">
			<path id="kvg:06bb7-s9" kvg:type="㇇" d="M55.75,52.69c1.53,0.37,1.72,0.92,4.79,0.37c3.06-0.55,20.07-2.02,22.17-2.57c2.1-0.55,3.81,2.14,2.87,4.06C78.22,69.54,62.5,87.25,46.5,94.17"/>
			<path id="kvg:06bb7-s10" kvg:type="㇏" d="M55.48,59.4C59.49,60.26,79.06,83.14,93,92.51c2.17,1.46,3.75,2.43,5.77,2.92"/>
		</g>
	</g>
</g>
</g>
<g id="kvg:StrokeNumbers_06bb7" style="font-size:8;fill:#808080">
	<text transform="matrix(1 0 0 1 33.50 13.50)">1</text>
	<text transform="matrix(1 0 0 1 13.50 34.50)">2</text>
	<text transform="matrix(1 0 0 1 35.50 28.50)">3</text>
	<text transform="matrix(1 0 0 1 25.50 39.50)">4</text>
	<text transform="matrix(1 0 0 1 25.50 49.50)">5</text>
	<text transform="matrix(1 0 0 1 24.50 62.50)">6</text>
	<text transform="matrix(1 0 0 1 54.50 24.68)">7</text>
	<text transform="matrix(1 0 0 1 63.50 15.50)">8</text>
	<text transform="matrix(1 0 0 1 58.50 49.50)">9</text>
	<text transform="matrix(1 0 0 1 50.50 68.46)">10</text>
</g>
</svg>
