<?xml version="1.0" encoding="UTF-8"?>
<!--
Copyright (C) 2009/2010/2011 Ulrich Apel.
This work is distributed under the conditions of the Creative Commons 
Attribution-Share Alike 3.0 Licence. This means you are free:
* to Share - to copy, distribute and transmit the work
* to Remix - to adapt the work

Under the following conditions:
* Attribution. You must attribute the work by stating your use of KanjiVG in
  your own copyright header and linking to KanjiVG's website
  (http://kanjivg.tagaini.net)
* Share Alike. If you alter, transform, or build upon this work, you may
  distribute the resulting work only under the same or similar license to this
  one.

See http://creativecommons.org/licenses/by-sa/3.0/ for more details.
-->
<!DOCTYPE svg PUBLIC "-//W3C//DTD SVG 1.0//EN" "http://www.w3.org/TR/2001/REC-SVG-20010904/DTD/svg10.dtd" [
<!ATTLIST g
xmlns:kvg CDATA #FIXED "http://kanjivg.tagaini.net"
kvg:element CDATA #IMPLIED
kvg:variant CDATA #IMPLIED
kvg:partial CDATA #IMPLIED
kvg:original CDATA #IMPLIED
kvg:part CDATA #IMPLIED
kvg:number CDATA #IMPLIED
kvg:tradForm CDATA #IMPLIED
kvg:radicalForm CDATA #IMPLIED
kvg:position CDATA #IMPLIED
kvg:radical CDATA #IMPLIED
kvg:phon CDATA #IMPLIED >
<!ATTLIST path
xmlns:kvg CDATA #FIXED "http://kanjivg.tagaini.net"
kvg:type CDATA #IMPLIED >
]>
<svg xmlns="http://www.w3.org/2000/svg" width="109" height="109" viewBox="0 0 109 109">
<g id="kvg:StrokePaths_06bc5-Kaisho" style="fill:none;stroke:#000000;stroke-width:3;stroke-linecap:round;stroke-linejoin:round;">
<g id="kvg:06bc5-Kaisho" kvg:element="毅">
	<g id="kvg:06bc5-Kaisho-g1" kvg:position="left">
		<g id="kvg:06bc5-Kaisho-g2" kvg:element="立">
			<g id="kvg:06bc5-Kaisho-g3" kvg:element="亠" kvg:position="top">
				<path id="kvg:06bc5-Kaisho-s1" kvg:type="㇑a" d="M30.91,12.5c2.22,1.19,4.09,3.5,5.57,6.94"/>
				<path id="kvg:06bc5-Kaisho-s2" kvg:type="㇐" d="M15.73,25.5c1.34,0.18,2.7,0.23,3.39,0.2c3.92-0.17,23.7-3.2,29.63-3.35c1.16-0.03,2.75,0.09,3.33,0.19"/>
			</g>
			<g id="kvg:06bc5-Kaisho-g4" kvg:position="bottom">
				<path id="kvg:06bc5-Kaisho-s3" kvg:type="㇔" d="M22.2,28.69c3.57,4.21,5.85,9.28,6.17,12.05"/>
				<path id="kvg:06bc5-Kaisho-s4" kvg:type="㇒" d="M44.67,25.97c0.3,0.42,0.23,1.61,0.1,2.02c-1.01,3.22-4.15,11.18-5.16,13.38"/>
				<g id="kvg:06bc5-Kaisho-g5" kvg:element="豕" kvg:part="1">
					<path id="kvg:06bc5-Kaisho-s5" kvg:type="㇐" d="M12,44.5c1.04,0.27,2.59,0.82,3.45,0.73c15.3-1.48,25.3-3.48,34.06-5.09c1.43-0.26,2.7,0.03,3.74,0.53"/>
				</g>
			</g>
		</g>
		<g id="kvg:06bc5-Kaisho-g6" kvg:element="豕" kvg:part="2">
			<path id="kvg:06bc5-Kaisho-s6" kvg:type="㇒" d="M31.61,45.68c0.05,0.35,0.23,0.98-0.1,1.42C29,50.5,23,55.75,14.63,60.72"/>
			<path id="kvg:06bc5-Kaisho-s7" kvg:type="㇚" d="M31.07,51.95c8.18,5.55,12.92,24.85,7.65,39.4c-2.25,6.2-6.5,0.73-7.35,0.04"/>
			<path id="kvg:06bc5-Kaisho-s8" kvg:type="㇒" d="M34.1,55.39c0.05,0.39,0.12,1.02-0.11,1.58c-1.33,3.33-8.95,10.64-19.39,15.12"/>
			<path id="kvg:06bc5-Kaisho-s9" kvg:type="㇒" d="M38.13,64.44c0.07,0.49,0.15,1.27-0.14,1.98c-1.72,4.18-11.57,13.35-25.05,18.97"/>
			<path id="kvg:06bc5-Kaisho-s10" kvg:type="㇒" d="M50.72,49.62c0.03,0.29,0.05,0.74-0.05,1.15c-0.63,2.43-4.23,8.26-9.15,11.52"/>
			<path id="kvg:06bc5-Kaisho-s11" kvg:type="㇏" d="M42.34,67.44c5.41,3.31,9.91,9.81,11.73,15.17"/>
		</g>
	</g>
	<g id="kvg:06bc5-Kaisho-g7" kvg:element="殳" kvg:position="right" kvg:radical="general">
		<g id="kvg:06bc5-Kaisho-g8" kvg:element="几" kvg:position="top">
			<g id="kvg:06bc5-Kaisho-g9" kvg:element="丿">
				<path id="kvg:06bc5-Kaisho-s12" kvg:type="㇒" d="M63,16.38c0.27,0.73,0.52,2.33,0.51,3.4c-0.19,11.08-2.21,23.84-8.12,28.49"/>
			</g>
			<path id="kvg:06bc5-Kaisho-s13" kvg:type="㇈b" d="M64.12,18.56c2.11,0.31,10.66-2.04,12.07-2.66c2.11-0.92,3.93,0.51,3.46,2.5c-0.9,3.84-1.63,8.28-1.63,12.29c0,5.54-0.02,9.55,6.03,9.55c8.24,0,8.03-1.74,8.03-9.51"/>
		</g>
		<g id="kvg:06bc5-Kaisho-g10" kvg:element="又" kvg:position="bottom">
			<path id="kvg:06bc5-Kaisho-s14" kvg:type="㇇" d="M59.4,53.83c1.27,0.37,1.93,0.91,4.46,0.37c2.53-0.55,15.87-2.99,17.61-3.54c1.74-0.55,3.16,2.12,2.38,4.02c-8.03,19.56-18.87,30.65-34.08,39.74"/>
			<path id="kvg:06bc5-Kaisho-s15" kvg:type="㇏" d="M57.75,60.49c3.5,0.78,20.58,21.71,32.75,30.29c1.9,1.34,3.28,2.23,5.04,2.67"/>
		</g>
	</g>
</g>
</g>
<g id="kvg:StrokeNumbers_06bc5-Kaisho" style="font-size:8;fill:#808080">
	<text transform="matrix(1 0 0 1 25.25 13.25)">1</text>
	<text transform="matrix(1 0 0 1 9.25 26.25)">2</text>
	<text transform="matrix(1 0 0 1 17.25 35.23)">3</text>
	<text transform="matrix(1 0 0 1 37.00 32.15)">4</text>
	<text transform="matrix(1 0 0 1 5.25 45.25)">5</text>
	<text transform="matrix(1 0 0 1 21.25 52.25)">6</text>
	<text transform="matrix(1 0 0 1 36.25 54.25)">7</text>
	<text transform="matrix(1 0 0 1 24.25 60.85)">8</text>
	<text transform="matrix(1 0 0 1 30.25 68.25)">9</text>
	<text transform="matrix(1 0 0 1 40.25 50.25)">10</text>
	<text transform="matrix(1 0 0 1 47.25 68.63)">11</text>
	<text transform="matrix(1 0 0 1 53.00 21.25)">12</text>
	<text transform="matrix(1 0 0 1 64.25 15.25)">13</text>
	<text transform="matrix(1 0 0 1 60.25 51.25)">14</text>
	<text transform="matrix(1 0 0 1 63.25 63.25)">15</text>
</g>
</svg>
