<?xml version="1.0" encoding="UTF-8"?>
<!--
Copyright (C) 2009/2010/2011 Ulrich Apel.
This work is distributed under the conditions of the Creative Commons 
Attribution-Share Alike 3.0 Licence. This means you are free:
* to Share - to copy, distribute and transmit the work
* to Remix - to adapt the work

Under the following conditions:
* Attribution. You must attribute the work by stating your use of KanjiVG in
  your own copyright header and linking to KanjiVG's website
  (http://kanjivg.tagaini.net)
* Share Alike. If you alter, transform, or build upon this work, you may
  distribute the resulting work only under the same or similar license to this
  one.

See http://creativecommons.org/licenses/by-sa/3.0/ for more details.
-->
<!DOCTYPE svg PUBLIC "-//W3C//DTD SVG 1.0//EN" "http://www.w3.org/TR/2001/REC-SVG-20010904/DTD/svg10.dtd" [
<!ATTLIST g
xmlns:kvg CDATA #FIXED "http://kanjivg.tagaini.net"
kvg:element CDATA #IMPLIED
kvg:variant CDATA #IMPLIED
kvg:partial CDATA #IMPLIED
kvg:original CDATA #IMPLIED
kvg:part CDATA #IMPLIED
kvg:number CDATA #IMPLIED
kvg:tradForm CDATA #IMPLIED
kvg:radicalForm CDATA #IMPLIED
kvg:position CDATA #IMPLIED
kvg:radical CDATA #IMPLIED
kvg:phon CDATA #IMPLIED >
<!ATTLIST path
xmlns:kvg CDATA #FIXED "http://kanjivg.tagaini.net"
kvg:type CDATA #IMPLIED >
]>
<svg xmlns="http://www.w3.org/2000/svg" width="109" height="109" viewBox="0 0 109 109">
<g id="kvg:StrokePaths_06c08" style="fill:none;stroke:#000000;stroke-width:3;stroke-linecap:round;stroke-linejoin:round;">
<g id="kvg:06c08" kvg:element="氈">
	<g id="kvg:06c08-g1" kvg:element="亶" kvg:position="left">
		<g id="kvg:06c08-g2" kvg:element="亠" kvg:position="top">
			<path id="kvg:06c08-s1" kvg:type="㇑a" d="M32.19,11c0.76,0.44,2.01,2.16,2.01,3.04c0,3.25-0.24,6.02-0.1,8.77"/>
			<path id="kvg:06c08-s2" kvg:type="㇐" d="M10.04,24.75c1.35,0.29,2.53,0.56,4.08,0.4c8.63-0.9,24.83-2.53,35.58-3.11c1.58-0.09,2.39,0.03,3.57,0.51"/>
		</g>
		<g id="kvg:06c08-g3" kvg:position="bottom">
			<g id="kvg:06c08-g4" kvg:element="回">
				<g id="kvg:06c08-g5" kvg:element="囗" kvg:part="1">
					<path id="kvg:06c08-s3" kvg:type="㇑" d="M14.53,32.6c0.5,0.57,0.58,1.19,0.68,1.92c0.7,4.97,2.01,13.08,3.04,22.81"/>
					<path id="kvg:06c08-s4" kvg:type="㇕a" d="M16.02,34.26c9.02-1,27.6-2.6,33.64-2.84c1.38-0.05,2.41,1.38,2.25,2.56c-0.75,5.6-2.13,12.71-3.63,20.3"/>
				</g>
				<g id="kvg:06c08-g6" kvg:element="口">
					<path id="kvg:06c08-s5" kvg:type="㇑" d="M24.62,38.87c0.24,0.16,0.52,0.27,0.59,0.51c0.85,2.91,1.23,5.87,1.94,8.9"/>
					<path id="kvg:06c08-s6" kvg:type="㇕b" d="M26.12,39.52c5.4-0.49,11.08-1.42,13.91-1.75c1.03-0.12,1.65,0.42,1.5,0.9c-0.61,2.01-0.87,4.9-1.78,7.68"/>
					<path id="kvg:06c08-s7" kvg:type="㇐b" d="M27.3,47.06c3.58-0.58,7.86-0.81,12.42-1.37"/>
				</g>
				<g id="kvg:06c08-g7" kvg:element="囗" kvg:part="2">
					<path id="kvg:06c08-s8" kvg:type="㇐a" d="M18.72,54.75c8.39-1.09,19.49-1.56,29.52-1.97"/>
				</g>
			</g>
			<g id="kvg:06c08-g8" kvg:element="旦">
				<g id="kvg:06c08-g9" kvg:element="日" kvg:position="top">
					<path id="kvg:06c08-s9" kvg:type="㇑" d="M16.25,62.46c0.44,0.44,1.38,1.65,1.39,2.24c0.02,0.59,2.53,17.8,2.69,18.39"/>
					<path id="kvg:06c08-s10" kvg:type="㇕a" d="M17.92,63.76c2.41-0.13,25.16-2.63,27.36-2.77c1.83-0.12,3.06,1.5,3.01,1.96c-0.3,2.67-3.47,17.63-3.46,18.07"/>
					<path id="kvg:06c08-s11" kvg:type="㇐a" d="M18.69,72.03c3.27-0.08,24.46-2.45,28.15-2.54"/>
					<path id="kvg:06c08-s12" kvg:type="㇐a" d="M21.02,80.49c4.83-0.11,18.05-1.4,24.3-1.55"/>
				</g>
				<g id="kvg:06c08-g10" kvg:element="一" kvg:position="bottom">
					<path id="kvg:06c08-s13" kvg:type="㇐" d="M12.54,94.9c0.99,1.5,2.82,1.75,3.78,1.5c11.43-2.9,22.43-6.4,37.06-10.76"/>
				</g>
			</g>
		</g>
	</g>
	<g id="kvg:06c08-g11" kvg:element="毛" kvg:position="right" kvg:radical="general">
		<path id="kvg:06c08-s14" kvg:type="㇒" d="M85.28,14.5c0.08,0.38-0.19,1.6-0.65,2.04c-4.34,4.11-13.75,9.97-25.13,14.21"/>
		<path id="kvg:06c08-s15" kvg:type="㇐" d="M56.5,46.26c0.88,0.46,2.5,0.6,3.37,0.46C69,45.25,81.5,43,89.05,41.92c1.45-0.21,2.34,0.22,3.08,0.45"/>
		<path id="kvg:06c08-s16" kvg:type="㇐" d="M54.63,63.42c0.94,0.38,3.66,0.49,4.6,0.38C71,62.5,85,59.75,93.5,58.88c1.56-0.16,3.5,0.18,4.29,0.37"/>
		<path id="kvg:06c08-s17" kvg:type="㇟" d="M69.99,29.87c0.59,1.19,1.06,2.59,1.1,4.43c0.16,8.19-0.58,43.43-0.58,48.45c0,13.25,2,13.78,13.74,13.78C97.5,96.53,97,94,97,85.25"/>
	</g>
</g>
</g>
<g id="kvg:StrokeNumbers_06c08" style="font-size:8;fill:#808080">
	<text transform="matrix(1 0 0 1 22.50 11.50)">1</text>
	<text transform="matrix(1 0 0 1 2.50 24.50)">2</text>
	<text transform="matrix(1 0 0 1 7.50 39.50)">3</text>
	<text transform="matrix(1 0 0 1 18.50 32.50)">4</text>
	<text transform="matrix(1 0 0 1 19.50 44.50)">5</text>
	<text transform="matrix(1 0 0 1 27.50 38.50)">6</text>
	<text transform="matrix(1 0 0 1 30.50 45.50)">7</text>
	<text transform="matrix(1 0 0 1 20.50 52.50)">8</text>
	<text transform="matrix(1 0 0 1 10.25 73.03)">9</text>
	<text transform="matrix(1 0 0 1 19.50 61.50)">10</text>
	<text transform="matrix(1 0 0 1 22.50 69.50)">11</text>
	<text transform="matrix(1 0 0 1 23.50 78.50)">12</text>
	<text transform="matrix(1 0 0 1 1.50 97.50)">13</text>
	<text transform="matrix(1 0 0 1 73.50 14.50)">14</text>
	<text transform="matrix(1 0 0 1 53.50 43.50)">15</text>
	<text transform="matrix(1 0 0 1 51.50 60.50)">16</text>
	<text transform="matrix(1 0 0 1 61.50 37.50)">17</text>
</g>
</svg>
