<?xml version="1.0" encoding="UTF-8"?>
<!--
Copyright (C) 2009/2010/2011 Ulrich Apel.
This work is distributed under the conditions of the Creative Commons 
Attribution-Share Alike 3.0 Licence. This means you are free:
* to Share - to copy, distribute and transmit the work
* to Remix - to adapt the work

Under the following conditions:
* Attribution. You must attribute the work by stating your use of KanjiVG in
  your own copyright header and linking to KanjiVG's website
  (http://kanjivg.tagaini.net)
* Share Alike. If you alter, transform, or build upon this work, you may
  distribute the resulting work only under the same or similar license to this
  one.

See http://creativecommons.org/licenses/by-sa/3.0/ for more details.
-->
<!DOCTYPE svg PUBLIC "-//W3C//DTD SVG 1.0//EN" "http://www.w3.org/TR/2001/REC-SVG-20010904/DTD/svg10.dtd" [
<!ATTLIST g
xmlns:kvg CDATA #FIXED "http://kanjivg.tagaini.net"
kvg:element CDATA #IMPLIED
kvg:variant CDATA #IMPLIED
kvg:partial CDATA #IMPLIED
kvg:original CDATA #IMPLIED
kvg:part CDATA #IMPLIED
kvg:number CDATA #IMPLIED
kvg:tradForm CDATA #IMPLIED
kvg:radicalForm CDATA #IMPLIED
kvg:position CDATA #IMPLIED
kvg:radical CDATA #IMPLIED
kvg:phon CDATA #IMPLIED >
<!ATTLIST path
xmlns:kvg CDATA #FIXED "http://kanjivg.tagaini.net"
kvg:type CDATA #IMPLIED >
]>
<svg xmlns="http://www.w3.org/2000/svg" width="109" height="109" viewBox="0 0 109 109">
<g id="kvg:StrokePaths_06c0f" style="fill:none;stroke:#000000;stroke-width:3;stroke-linecap:round;stroke-linejoin:round;">
<g id="kvg:06c0f" kvg:element="氏" kvg:radical="general">
	<path id="kvg:06c0f-s1" kvg:type="㇒" d="M66.12,12.62c0,0.88-0.35,1.83-0.96,2.31C58,20.62,46.88,26.25,27,32.75"/>
	<path id="kvg:06c0f-s2" kvg:type="㇙" d="M23.5,30c1.19,1.19,1.5,3,1.5,5.25c0,6-0.75,40.88-0.75,48.5c0,3.5,0.25,4.5,3.5,2S39.5,77,41.5,75.5"/>
	<path id="kvg:06c0f-s3" kvg:type="㇐" d="M27.88,51.13c2.5,0.62,5.64,0.41,8.01-0.01c10.74-1.87,26.47-4.84,37.72-5.69c2.53-0.19,5.19-0.44,7.67,0.22"/>
	<path id="kvg:06c0f-s4" kvg:type="㇂" d="M46.5,28.5c1,1.12,2,2.87,2.47,4.47C54.26,50.81,67.02,81.53,86.75,93c8.75,5.09,6.5-4,6.5-7"/>
</g>
</g>
<g id="kvg:StrokeNumbers_06c0f" style="font-size:8;fill:#808080">
	<text transform="matrix(1 0 0 1 57.50 11.50)">1</text>
	<text transform="matrix(1 0 0 1 16.50 41.50)">2</text>
	<text transform="matrix(1 0 0 1 30.50 48.50)">3</text>
	<text transform="matrix(1 0 0 1 53.50 34.63)">4</text>
</g>
</svg>
