<?xml version="1.0" encoding="UTF-8"?>
<!--
Copyright (C) 2009/2010/2011 Ulrich Apel.
This work is distributed under the conditions of the Creative Commons 
Attribution-Share Alike 3.0 Licence. This means you are free:
* to Share - to copy, distribute and transmit the work
* to Remix - to adapt the work

Under the following conditions:
* Attribution. You must attribute the work by stating your use of KanjiVG in
  your own copyright header and linking to KanjiVG's website
  (http://kanjivg.tagaini.net)
* Share Alike. If you alter, transform, or build upon this work, you may
  distribute the resulting work only under the same or similar license to this
  one.

See http://creativecommons.org/licenses/by-sa/3.0/ for more details.
-->
<!DOCTYPE svg PUBLIC "-//W3C//DTD SVG 1.0//EN" "http://www.w3.org/TR/2001/REC-SVG-20010904/DTD/svg10.dtd" [
<!ATTLIST g
xmlns:kvg CDATA #FIXED "http://kanjivg.tagaini.net"
kvg:element CDATA #IMPLIED
kvg:variant CDATA #IMPLIED
kvg:partial CDATA #IMPLIED
kvg:original CDATA #IMPLIED
kvg:part CDATA #IMPLIED
kvg:number CDATA #IMPLIED
kvg:tradForm CDATA #IMPLIED
kvg:radicalForm CDATA #IMPLIED
kvg:position CDATA #IMPLIED
kvg:radical CDATA #IMPLIED
kvg:phon CDATA #IMPLIED >
<!ATTLIST path
xmlns:kvg CDATA #FIXED "http://kanjivg.tagaini.net"
kvg:type CDATA #IMPLIED >
]>
<svg xmlns="http://www.w3.org/2000/svg" width="109" height="109" viewBox="0 0 109 109">
<g id="kvg:StrokePaths_06cb9" style="fill:none;stroke:#000000;stroke-width:3;stroke-linecap:round;stroke-linejoin:round;">
<g id="kvg:06cb9" kvg:element="油">
	<g id="kvg:06cb9-g1" kvg:element="氵" kvg:variant="true" kvg:original="水" kvg:position="left" kvg:radical="general">
		<path id="kvg:06cb9-s1" kvg:type="㇔" d="M22.38,15.75c3.31,1.47,8.54,6.05,9.37,8.34"/>
		<path id="kvg:06cb9-s2" kvg:type="㇔" d="M14.75,37c3.62,1.41,9.34,5.8,10.25,8"/>
		<path id="kvg:06cb9-s3" kvg:type="㇀" d="M13.25,89c1.52,0.25,2.96-0.26,3.88-1.65c4.34-6.6,8.68-14.67,12.62-23.09"/>
	</g>
	<g id="kvg:06cb9-g2" kvg:element="由" kvg:position="right" kvg:phon="由">
		<g id="kvg:06cb9-g3" kvg:element="田" kvg:part="1" kvg:partial="true">
			<path id="kvg:06cb9-s4" kvg:type="㇑" d="M41.5,42.08c0.96,0.96,1.8,2.11,1.85,3.15c0.6,12.27,1.17,24.52,1.97,39.14c0.07,1.34,0.15,2.71,0.22,4.09"/>
			<path id="kvg:06cb9-s5" kvg:type="㇕a" d="M44.3,44.1c14.86-1.95,33-3.84,43.57-4.76c5.05-0.44,7.43,0.86,6.92,6.16c-0.78,8.1-2.56,24.34-4.42,35.89c-0.32,1.97-0.63,3.8-0.95,5.44"/>
		</g>
		<g id="kvg:06cb9-g4" kvg:element="丨">
			<path id="kvg:06cb9-s6" kvg:type="㇑a" d="M65.56,16.61c1.23,1.23,1.84,2.91,1.84,4.35c0.03,14.16-0.06,58.13-0.06,61.83"/>
		</g>
		<g id="kvg:06cb9-g5" kvg:element="田" kvg:part="2" kvg:partial="true">
			<path id="kvg:06cb9-s7" kvg:type="㇐a" d="M45.42,63.12c9.08-0.99,35.96-3.24,46.81-3.53"/>
			<path id="kvg:06cb9-s8" kvg:type="㇐a" d="M46.49,85.11c11.14-0.59,29.11-2.05,42.55-2.27"/>
		</g>
	</g>
</g>
</g>
<g id="kvg:StrokeNumbers_06cb9" style="font-size:8;fill:#808080">
	<text transform="matrix(1 0 0 1 14.50 16.50)">1</text>
	<text transform="matrix(1 0 0 1 6.75 38.50)">2</text>
	<text transform="matrix(1 0 0 1 6.50 94.63)">3</text>
	<text transform="matrix(1 0 0 1 35.50 51.13)">4</text>
	<text transform="matrix(1 0 0 1 44.25 40.50)">5</text>
	<text transform="matrix(1 0 0 1 55.50 17.50)">6</text>
	<text transform="matrix(1 0 0 1 49.50 59.50)">7</text>
	<text transform="matrix(1 0 0 1 49.50 81.13)">8</text>
</g>
</svg>
