<?xml version="1.0" encoding="UTF-8"?>
<!--
Copyright (C) 2009/2010/2011 Ulrich Apel.
This work is distributed under the conditions of the Creative Commons 
Attribution-Share Alike 3.0 Licence. This means you are free:
* to Share - to copy, distribute and transmit the work
* to Remix - to adapt the work

Under the following conditions:
* Attribution. You must attribute the work by stating your use of KanjiVG in
  your own copyright header and linking to KanjiVG's website
  (http://kanjivg.tagaini.net)
* Share Alike. If you alter, transform, or build upon this work, you may
  distribute the resulting work only under the same or similar license to this
  one.

See http://creativecommons.org/licenses/by-sa/3.0/ for more details.
-->
<!DOCTYPE svg PUBLIC "-//W3C//DTD SVG 1.0//EN" "http://www.w3.org/TR/2001/REC-SVG-20010904/DTD/svg10.dtd" [
<!ATTLIST g
xmlns:kvg CDATA #FIXED "http://kanjivg.tagaini.net"
kvg:element CDATA #IMPLIED
kvg:variant CDATA #IMPLIED
kvg:partial CDATA #IMPLIED
kvg:original CDATA #IMPLIED
kvg:part CDATA #IMPLIED
kvg:number CDATA #IMPLIED
kvg:tradForm CDATA #IMPLIED
kvg:radicalForm CDATA #IMPLIED
kvg:position CDATA #IMPLIED
kvg:radical CDATA #IMPLIED
kvg:phon CDATA #IMPLIED >
<!ATTLIST path
xmlns:kvg CDATA #FIXED "http://kanjivg.tagaini.net"
kvg:type CDATA #IMPLIED >
]>
<svg xmlns="http://www.w3.org/2000/svg" width="109" height="109" viewBox="0 0 109 109">
<g id="kvg:StrokePaths_06d1f" style="fill:none;stroke:#000000;stroke-width:3;stroke-linecap:round;stroke-linejoin:round;">
<g id="kvg:06d1f" kvg:element="洟">
	<g id="kvg:06d1f-g1" kvg:element="氵" kvg:variant="true" kvg:original="水" kvg:position="left" kvg:radical="general">
		<path id="kvg:06d1f-s1" kvg:type="㇔" d="M17.13,18.25c4.63,1.65,11.96,6.78,13.12,9.34"/>
		<path id="kvg:06d1f-s2" kvg:type="㇔" d="M13.75,43.75c4.5,1.54,11.62,6.35,12.75,8.75"/>
		<path id="kvg:06d1f-s3" kvg:type="㇀" d="M13.25,89.23c1.71,1.27,3.78,1.32,4.86-0.25C21.25,84.42,29.39,70.83,32.25,65"/>
	</g>
	<g id="kvg:06d1f-g2" kvg:element="夷" kvg:position="right">
		<g id="kvg:06d1f-g3" kvg:element="大" kvg:part="1">
			<path id="kvg:06d1f-s4" kvg:type="㇐" d="M40.33,25.96c1.35,0.32,3.82,0.36,5.18,0.32c8.87-0.23,27.78-3.2,40.63-3.2c2.25,0,3.6,0.15,4.73,0.31"/>
		</g>
		<g id="kvg:06d1f-g4" kvg:element="弓">
			<path id="kvg:06d1f-s5" kvg:type="㇕c" d="M43.04,36.41c1.21,0.34,2.86,1.08,4.76,0.95C53,37,77.63,34.51,81.42,33.78c3.78-0.72,4.83,1.73,3.7,3.66c-0.81,1.38-1.8,4.08-2.45,6.54c-0.26,0.98-0.47,1.92-0.59,2.73"/>
			<path id="kvg:06d1f-s6" kvg:type="㇐" d="M46.3,50.17C56,49,73.04,47.42,80.83,47.24c1.55-0.04,2.48,0.18,3.26,0.38"/>
			<path id="kvg:06d1f-s7" kvg:type="㇉" d="M46.19,48.58c0.31,1.17,0.46,2.08-0.28,3.6c-0.84,1.75-3.26,7.65-3.92,8.37c-1.5,1.67-1.29,3.92,1.7,3.39c4.15-0.73,38.09-4.33,44.14-5.05c3.09-0.37,4.88,1.14,4.14,4.6c-1.1,5.17-2.48,8.75-4.99,13.5c-2.99,5.65-4.78,1.32-6.51-0.55"/>
		</g>
		<g id="kvg:06d1f-g5" kvg:element="大" kvg:part="2">
			<path id="kvg:06d1f-s8" kvg:type="㇒" d="M61.97,12.25c1.29,1.71,1.72,2.71,1.72,5.63c0,26.68,4.81,62.62-31.38,80.33"/>
			<path id="kvg:06d1f-s9" kvg:type="㇏" d="M60.22,66.21C64.51,71.89,83,90.43,87.73,94.58C89.33,96,91.39,96.6,93,97"/>
		</g>
	</g>
</g>
</g>
<g id="kvg:StrokeNumbers_06d1f" style="font-size:8;fill:#808080">
	<text transform="matrix(1 0 0 1 10.50 18.50)">1</text>
	<text transform="matrix(1 0 0 1 5.50 43.50)">2</text>
	<text transform="matrix(1 0 0 1 5.50 92.50)">3</text>
	<text transform="matrix(1 0 0 1 38.50 23.50)">4</text>
	<text transform="matrix(1 0 0 1 36.50 37.50)">5</text>
	<text transform="matrix(1 0 0 1 35.50 49.50)">6</text>
	<text transform="matrix(1 0 0 1 38.50 57.50)">7</text>
	<text transform="matrix(1 0 0 1 53.50 12.50)">8</text>
	<text transform="matrix(1 0 0 1 67.50 71.03)">9</text>
</g>
</svg>
