<?xml version="1.0" encoding="UTF-8"?>
<!--
Copyright (C) 2009/2010/2011 Ulrich Apel.
This work is distributed under the conditions of the Creative Commons 
Attribution-Share Alike 3.0 Licence. This means you are free:
* to Share - to copy, distribute and transmit the work
* to Remix - to adapt the work

Under the following conditions:
* Attribution. You must attribute the work by stating your use of KanjiVG in
  your own copyright header and linking to KanjiVG's website
  (http://kanjivg.tagaini.net)
* Share Alike. If you alter, transform, or build upon this work, you may
  distribute the resulting work only under the same or similar license to this
  one.

See http://creativecommons.org/licenses/by-sa/3.0/ for more details.
-->
<!DOCTYPE svg PUBLIC "-//W3C//DTD SVG 1.0//EN" "http://www.w3.org/TR/2001/REC-SVG-20010904/DTD/svg10.dtd" [
<!ATTLIST g
xmlns:kvg CDATA #FIXED "http://kanjivg.tagaini.net"
kvg:element CDATA #IMPLIED
kvg:variant CDATA #IMPLIED
kvg:partial CDATA #IMPLIED
kvg:original CDATA #IMPLIED
kvg:part CDATA #IMPLIED
kvg:number CDATA #IMPLIED
kvg:tradForm CDATA #IMPLIED
kvg:radicalForm CDATA #IMPLIED
kvg:position CDATA #IMPLIED
kvg:radical CDATA #IMPLIED
kvg:phon CDATA #IMPLIED >
<!ATTLIST path
xmlns:kvg CDATA #FIXED "http://kanjivg.tagaini.net"
kvg:type CDATA #IMPLIED >
]>
<svg xmlns="http://www.w3.org/2000/svg" width="109" height="109" viewBox="0 0 109 109">
<g id="kvg:StrokePaths_06d66-Kaisho" style="fill:none;stroke:#000000;stroke-width:3;stroke-linecap:round;stroke-linejoin:round;">
<g id="kvg:06d66-Kaisho" kvg:element="浦">
	<g id="kvg:06d66-Kaisho-g1" kvg:element="氵" kvg:variant="true" kvg:original="水" kvg:position="left" kvg:radical="general">
		<path id="kvg:06d66-Kaisho-s1" kvg:type="㇔" d="M22.38,18.5c3.84,1.25,9.91,5.15,10.87,7.09"/>
		<path id="kvg:06d66-Kaisho-s2" kvg:type="㇔" d="M17.5,40c3.88,1.59,9.53,6.03,10.5,8.5"/>
		<path id="kvg:06d66-Kaisho-s3" kvg:type="㇀" d="M17.75,86.71c1.5,1.31,3.31,1.36,4.25-0.25C24.75,81.75,27.5,76,30,70"/>
	</g>
	<g id="kvg:06d66-Kaisho-g2" kvg:element="甫" kvg:position="right">
		<path id="kvg:06d66-Kaisho-s4" kvg:type="㇐" d="M43.83,32.67c1.03,0.44,2.93,0.52,3.96,0.44c4.96-0.39,29.2-3.62,39.01-4.27c1.72-0.11,2.75,0.21,3.62,0.43"/>
		<g id="kvg:06d66-Kaisho-g3" kvg:element="用" kvg:variant="true">
			<path id="kvg:06d66-Kaisho-s5" kvg:type="㇑" d="M47.07,44.7c0.56,0.68,0.93,1.37,1.11,2.05c0.19,0.69-0.22,40.21-0.2,46.37"/>
			<path id="kvg:06d66-Kaisho-s6" kvg:type="㇆" d="M49.29,46.51c6.24-0.28,34.68-5.05,36.33-5.24c2.96-0.34,4.07,2.22,3.7,3.25c-0.04,2.31-0.47,27.26-0.47,42.91c0,11.16-4.68,1.67-5.7,1"/>
			<path id="kvg:06d66-Kaisho-s7" kvg:type="㇐" d="M49.29,60.03c8.77-1.07,17.54-2.21,26.31-3.26c0.89-0.11,1.76-0.21,2.6-0.31"/>
			<path id="kvg:06d66-Kaisho-s8" kvg:type="㇐" d="M49.46,73.93c8.4-1.2,16.82-2.29,25.25-3.23c0.93-0.1,1.85-0.21,2.75-0.3"/>
			<path id="kvg:06d66-Kaisho-s9" kvg:type="㇑" d="M65.97,14.28c1,0.55,1.6,2.48,1.8,3.59c0.2,1.1,0,69.9-0.2,76.8"/>
		</g>
		<g id="kvg:06d66-Kaisho-g4" kvg:element="丶">
			<path id="kvg:06d66-Kaisho-s10" kvg:type="㇔" d="M85.09,15.5c3.2,1.32,8.27,5.43,9.07,7.48"/>
		</g>
	</g>
</g>
</g>
<g id="kvg:StrokeNumbers_06d66-Kaisho" style="font-size:8;fill:#808080">
	<text transform="matrix(1 0 0 1 14.50 19.50)">1</text>
	<text transform="matrix(1 0 0 1 10.50 40.50)">2</text>
	<text transform="matrix(1 0 0 1 9.50 91.50)">3</text>
	<text transform="matrix(1 0 0 1 47.25 27.13)">4</text>
	<text transform="matrix(1 0 0 1 41.25 54.05)">5</text>
	<text transform="matrix(1 0 0 1 50.50 43.50)">6</text>
	<text transform="matrix(1 0 0 1 53.25 56.50)">7</text>
	<text transform="matrix(1 0 0 1 53.25 70.48)">8</text>
	<text transform="matrix(1 0 0 1 58.50 16.63)">9</text>
	<text transform="matrix(1 0 0 1 77.50 12.13)">10</text>
</g>
</svg>
