<?xml version="1.0" encoding="UTF-8"?>
<!--
Copyright (C) 2009/2010/2011 Ulrich Apel.
This work is distributed under the conditions of the Creative Commons 
Attribution-Share Alike 3.0 Licence. This means you are free:
* to Share - to copy, distribute and transmit the work
* to Remix - to adapt the work

Under the following conditions:
* Attribution. You must attribute the work by stating your use of KanjiVG in
  your own copyright header and linking to KanjiVG's website
  (http://kanjivg.tagaini.net)
* Share Alike. If you alter, transform, or build upon this work, you may
  distribute the resulting work only under the same or similar license to this
  one.

See http://creativecommons.org/licenses/by-sa/3.0/ for more details.
-->
<!DOCTYPE svg PUBLIC "-//W3C//DTD SVG 1.0//EN" "http://www.w3.org/TR/2001/REC-SVG-20010904/DTD/svg10.dtd" [
<!ATTLIST g
xmlns:kvg CDATA #FIXED "http://kanjivg.tagaini.net"
kvg:element CDATA #IMPLIED
kvg:variant CDATA #IMPLIED
kvg:partial CDATA #IMPLIED
kvg:original CDATA #IMPLIED
kvg:part CDATA #IMPLIED
kvg:number CDATA #IMPLIED
kvg:tradForm CDATA #IMPLIED
kvg:radicalForm CDATA #IMPLIED
kvg:position CDATA #IMPLIED
kvg:radical CDATA #IMPLIED
kvg:phon CDATA #IMPLIED >
<!ATTLIST path
xmlns:kvg CDATA #FIXED "http://kanjivg.tagaini.net"
kvg:type CDATA #IMPLIED >
]>
<svg xmlns="http://www.w3.org/2000/svg" width="109" height="109" viewBox="0 0 109 109">
<g id="kvg:StrokePaths_06d78-Kaisho" style="fill:none;stroke:#000000;stroke-width:3;stroke-linecap:round;stroke-linejoin:round;">
<g id="kvg:06d78-Kaisho" kvg:element="浸">
	<g id="kvg:06d78-Kaisho-g1" kvg:element="氵" kvg:variant="true" kvg:original="水" kvg:position="left" kvg:radical="general">
		<path id="kvg:06d78-Kaisho-s1" kvg:type="㇔" d="M22.38,16.5c3.66,1.6,9.45,6.6,10.37,9.09"/>
		<path id="kvg:06d78-Kaisho-s2" kvg:type="㇔" d="M14.75,40.75c3.62,1.54,9.34,6.35,10.25,8.75"/>
		<path id="kvg:06d78-Kaisho-s3" kvg:type="㇀" d="M14.75,86.71c1.5,1.31,3.31,1.36,4.25-0.25C21.75,81.75,24.5,76,27,70"/>
	</g>
	<g id="kvg:06d78-Kaisho-g2" kvg:position="right">
		<g id="kvg:06d78-Kaisho-g3" kvg:element="⺕" kvg:variant="true" kvg:original="彑" kvg:position="top">
			<path id="kvg:06d78-Kaisho-s4" kvg:type="㇕" d="M47.88,16.55c1.1,0.44,2.48,0.88,3.39,0.88c0.92,0,27.4-2.85,28.87-3.07c1.46-0.22,3.11,0.64,2.93,2.21c-0.83,7.42-2.42,17.66-2.97,21.19"/>
			<path id="kvg:06d78-Kaisho-s5" kvg:type="㇐c" d="M46.61,27.04c1.04,0.48,2.93,0.56,3.97,0.48c8.81-0.66,12.01-1.01,19.43-1.72c1.66-0.16,3.52-0.33,5.71-0.53"/>
			<path id="kvg:06d78-Kaisho-s6" kvg:type="㇐c" d="M45.22,37.7c1.04,0.48,2.93,0.56,3.97,0.48c10.77-0.81,18.66-2.12,30.64-3.21"/>
		</g>
		<g id="kvg:06d78-Kaisho-g4" kvg:position="bottom">
			<g id="kvg:06d78-Kaisho-g5" kvg:element="冖">
				<path id="kvg:06d78-Kaisho-s7" kvg:type="㇔" d="M42.75,47.87c-0.1,3.17-2.38,11.46-3.19,13.35"/>
				<path id="kvg:06d78-Kaisho-s8" kvg:type="㇖b" d="M44.8,49.76c2.43,0,29.06-3.35,41.24-4.35c12.26-1,2.06,7.19,0.91,8.25"/>
			</g>
			<g id="kvg:06d78-Kaisho-g6" kvg:element="又">
				<path id="kvg:06d78-Kaisho-s9" kvg:type="㇇" d="M50.18,61.04c1.3,0.24,1.46,0.59,4.05,0.24c2.59-0.35,18.92-2.98,20.7-3.33c1.78-0.35,3.14,1.32,2.43,2.58C69,75.5,56.25,85.25,40.2,93.75"/>
				<path id="kvg:06d78-Kaisho-s10" kvg:type="㇏" d="M48.28,66.52c4.33,0.66,25.46,18.39,40.53,25.65c2.35,1.13,4.05,1.88,6.24,2.26"/>
			</g>
		</g>
	</g>
</g>
</g>
<g id="kvg:StrokeNumbers_06d78-Kaisho" style="font-size:8;fill:#808080">
	<text transform="matrix(1 0 0 1 15.75 17.50)">1</text>
	<text transform="matrix(1 0 0 1 8.25 41.50)">2</text>
	<text transform="matrix(1 0 0 1 7.50 91.50)">3</text>
	<text transform="matrix(1 0 0 1 39.75 17.50)">4</text>
	<text transform="matrix(1 0 0 1 39.75 28.55)">5</text>
	<text transform="matrix(1 0 0 1 39.75 39.50)">6</text>
	<text transform="matrix(1 0 0 1 35.25 51.50)">7</text>
	<text transform="matrix(1 0 0 1 44.50 46.63)">8</text>
	<text transform="matrix(1 0 0 1 50.25 58.55)">9</text>
	<text transform="matrix(1 0 0 1 44.25 76.48)">10</text>
</g>
</svg>
