<?xml version="1.0" encoding="UTF-8"?>
<!--
Copyright (C) 2009/2010/2011 Ulrich Apel.
This work is distributed under the conditions of the Creative Commons 
Attribution-Share Alike 3.0 Licence. This means you are free:
* to Share - to copy, distribute and transmit the work
* to Remix - to adapt the work

Under the following conditions:
* Attribution. You must attribute the work by stating your use of KanjiVG in
  your own copyright header and linking to KanjiVG's website
  (http://kanjivg.tagaini.net)
* Share Alike. If you alter, transform, or build upon this work, you may
  distribute the resulting work only under the same or similar license to this
  one.

See http://creativecommons.org/licenses/by-sa/3.0/ for more details.
-->
<!DOCTYPE svg PUBLIC "-//W3C//DTD SVG 1.0//EN" "http://www.w3.org/TR/2001/REC-SVG-20010904/DTD/svg10.dtd" [
<!ATTLIST g
xmlns:kvg CDATA #FIXED "http://kanjivg.tagaini.net"
kvg:element CDATA #IMPLIED
kvg:variant CDATA #IMPLIED
kvg:partial CDATA #IMPLIED
kvg:original CDATA #IMPLIED
kvg:part CDATA #IMPLIED
kvg:number CDATA #IMPLIED
kvg:tradForm CDATA #IMPLIED
kvg:radicalForm CDATA #IMPLIED
kvg:position CDATA #IMPLIED
kvg:radical CDATA #IMPLIED
kvg:phon CDATA #IMPLIED >
<!ATTLIST path
xmlns:kvg CDATA #FIXED "http://kanjivg.tagaini.net"
kvg:type CDATA #IMPLIED >
]>
<svg xmlns="http://www.w3.org/2000/svg" width="109" height="109" viewBox="0 0 109 109">
<g id="kvg:StrokePaths_06de6" style="fill:none;stroke:#000000;stroke-width:3;stroke-linecap:round;stroke-linejoin:round;">
<g id="kvg:06de6" kvg:element="淦">
	<g id="kvg:06de6-g1" kvg:element="氵" kvg:variant="true" kvg:original="水" kvg:position="left" kvg:radical="general">
		<path id="kvg:06de6-s1" kvg:type="㇔" d="M16.88,15.75c4.54,1.65,11.73,6.78,12.87,9.34"/>
		<path id="kvg:06de6-s2" kvg:type="㇔" d="M12.75,42.5C17.07,44.18,23.92,49.39,25,52"/>
		<path id="kvg:06de6-s3" kvg:type="㇀" d="M13.25,90.23c1.71,1.27,3.78,0.32,4.86-1.25c3.14-4.57,7.29-12.66,10.14-18.49"/>
	</g>
	<g id="kvg:06de6-g2" kvg:element="金" kvg:position="right">
		<g id="kvg:06de6-g3" kvg:position="top">
			<path id="kvg:06de6-s4" kvg:type="㇒" d="M62,11.5c0,0.99,0.08,1.77-0.22,2.96C60.22,20.64,46.67,43.61,34,52.75"/>
			<path id="kvg:06de6-s5" kvg:type="㇏" d="M62.25,15.75c6.97,4.94,25.63,27.18,27.9,28.73c2.31,1.58,3.07,1.87,4.1,2.02"/>
		</g>
		<g id="kvg:06de6-g4" kvg:position="bottom">
			<path id="kvg:06de6-s6" kvg:type="㇐" d="M50.27,44.83c0.67,0.31,2.85,0.41,3.53,0.32c3.15-0.42,9.32-1.36,22.38-2.46c1.03-0.09,1.97,0.06,2.83,0.32"/>
			<path id="kvg:06de6-s7" kvg:type="㇐" d="M38.8,62.61c1.13,0.52,4.85,0.81,6,0.69c6.6-0.69,20.11-1.72,41.56-2.92c1.41-0.08,4.5-0.21,6.6,0.25"/>
			<path id="kvg:06de6-s8" kvg:type="㇑" d="M63.97,46.32c0.89,0.85,0.89,2.76,0.89,3.43c0,4.75,0.44,38.57,0.22,43.32"/>
			<path id="kvg:06de6-s9" kvg:type="㇔" d="M44,74.25c5.02,4.69,7.48,9.77,8.5,12.5"/>
			<path id="kvg:06de6-s10" kvg:type="㇒" d="M82.82,68.61c0.36,1.08,0.54,2.66,0.4,3.58c-0.36,2.35-5.72,10.25-8.72,13.56"/>
			<path id="kvg:06de6-s11" kvg:type="㇐" d="M32.5,94.61c0.73,0.28,4.39,1.06,6,0.89c7.83-0.82,31.81-3.61,54.82-3.61c2.19,0,4.83,0.36,5.93,0.7"/>
		</g>
	</g>
</g>
</g>
<g id="kvg:StrokeNumbers_06de6" style="font-size:8;fill:#808080">
	<text transform="matrix(1 0 0 1 10.50 15.50)">1</text>
	<text transform="matrix(1 0 0 1 5.50 42.50)">2</text>
	<text transform="matrix(1 0 0 1 5.50 90.50)">3</text>
	<text transform="matrix(1 0 0 1 53.50 14.50)">4</text>
	<text transform="matrix(1 0 0 1 70.50 19.50)">5</text>
	<text transform="matrix(1 0 0 1 53.75 41.50)">6</text>
	<text transform="matrix(1 0 0 1 38.50 59.50)">7</text>
	<text transform="matrix(1 0 0 1 56.25 54.35)">8</text>
	<text transform="matrix(1 0 0 1 36.50 74.28)">9</text>
	<text transform="matrix(1 0 0 1 71.50 70.95)">10</text>
	<text transform="matrix(1 0 0 1 29.50 91.50)">11</text>
</g>
</svg>
