<?xml version="1.0" encoding="UTF-8"?>
<!--
Copyright (C) 2009/2010/2011 Ulrich Apel.
This work is distributed under the conditions of the Creative Commons 
Attribution-Share Alike 3.0 Licence. This means you are free:
* to Share - to copy, distribute and transmit the work
* to Remix - to adapt the work

Under the following conditions:
* Attribution. You must attribute the work by stating your use of KanjiVG in
  your own copyright header and linking to KanjiVG's website
  (http://kanjivg.tagaini.net)
* Share Alike. If you alter, transform, or build upon this work, you may
  distribute the resulting work only under the same or similar license to this
  one.

See http://creativecommons.org/licenses/by-sa/3.0/ for more details.
-->
<!DOCTYPE svg PUBLIC "-//W3C//DTD SVG 1.0//EN" "http://www.w3.org/TR/2001/REC-SVG-20010904/DTD/svg10.dtd" [
<!ATTLIST g
xmlns:kvg CDATA #FIXED "http://kanjivg.tagaini.net"
kvg:element CDATA #IMPLIED
kvg:variant CDATA #IMPLIED
kvg:partial CDATA #IMPLIED
kvg:original CDATA #IMPLIED
kvg:part CDATA #IMPLIED
kvg:number CDATA #IMPLIED
kvg:tradForm CDATA #IMPLIED
kvg:radicalForm CDATA #IMPLIED
kvg:position CDATA #IMPLIED
kvg:radical CDATA #IMPLIED
kvg:phon CDATA #IMPLIED >
<!ATTLIST path
xmlns:kvg CDATA #FIXED "http://kanjivg.tagaini.net"
kvg:type CDATA #IMPLIED >
]>
<svg xmlns="http://www.w3.org/2000/svg" width="109" height="109" viewBox="0 0 109 109">
<g id="kvg:StrokePaths_06e23" style="fill:none;stroke:#000000;stroke-width:3;stroke-linecap:round;stroke-linejoin:round;">
<g id="kvg:06e23" kvg:element="渣">
	<g id="kvg:06e23-g1" kvg:element="氵" kvg:variant="true" kvg:original="水" kvg:position="left" kvg:radical="general">
		<path id="kvg:06e23-s1" kvg:type="㇔" d="M14.88,16.5c4.37,1.96,11.27,8.05,12.37,11.09"/>
		<path id="kvg:06e23-s2" kvg:type="㇔" d="M10.25,42.75C14.93,44.73,22.33,50.91,23.5,54"/>
		<path id="kvg:06e23-s3" kvg:type="㇀" d="M11.25,89.73c1.71,1.27,3.78,1.32,4.86-0.25c3.14-4.57,6.29-10.16,9.14-15.99"/>
	</g>
	<g id="kvg:06e23-g2" kvg:element="査" kvg:position="right">
		<g id="kvg:06e23-g3" kvg:element="木" kvg:position="top">
			<path id="kvg:06e23-s4" kvg:type="㇐" d="M36.71,25.63c0.75,0.25,3.28,0.45,5.28,0.23c8.19-0.87,33.5-2.62,45.33-2.97c2.01-0.06,3.54,0.25,4.79,0.5"/>
			<path id="kvg:06e23-s5" kvg:type="㇑" d="M60.63,10.5c1.06,0.43,1.9,1.93,1.9,2.82c0,8.98,0,31.3-0.21,36.73"/>
			<path id="kvg:06e23-s6" kvg:type="㇒" d="M62.38,25.13c-5.29,8.88-19.04,21.44-30.05,26.47"/>
			<path id="kvg:06e23-s7" kvg:type="㇏" d="M62.65,25.43c4.39,3.34,23.62,19.14,28.39,22.42c1.62,1.11,3,1.59,4.62,1.91"/>
		</g>
		<g id="kvg:06e23-g4" kvg:element="且" kvg:position="bottom">
			<g id="kvg:06e23-g5" kvg:element="月">
				<path id="kvg:06e23-s8" kvg:type="㇑a" d="M45.27,55.89c0.58,0.58,1.06,1.64,1.16,2.24c0.82,5.11,2.57,27.33,2.44,36.69"/>
				<path id="kvg:06e23-s9" kvg:type="㇕b" d="M46.57,57.49c2.29-0.15,28.23-2.66,29.93-2.83c3.04-0.3,3.84,1.79,3.84,2.74c0,5.23-0.13,20.75-0.21,32.46"/>
				<path id="kvg:06e23-s10" kvg:type="㇐a" d="M48.17,70.75c7.8-0.89,24.55-2.72,31.41-3.18"/>
				<path id="kvg:06e23-s11" kvg:type="㇐a" d="M48.66,82.16c6.09-0.45,24.42-2.3,31.46-2.61"/>
			</g>
			<g id="kvg:06e23-g6" kvg:element="一">
				<path id="kvg:06e23-s12" kvg:type="㇐" d="M32.73,95.19c1.15,0.38,4.25,0.77,5.4,0.64c14.37-1.59,41.37-3.09,53.38-3.41c1.92-0.05,3.49,0.2,6.02,0.67"/>
			</g>
		</g>
	</g>
</g>
</g>
<g id="kvg:StrokeNumbers_06e23" style="font-size:8;fill:#808080">
	<text transform="matrix(1 0 0 1 8.50 17.50)">1</text>
	<text transform="matrix(1 0 0 1 2.50 45.50)">2</text>
	<text transform="matrix(1 0 0 1 3.50 91.50)">3</text>
	<text transform="matrix(1 0 0 1 33.50 21.50)">4</text>
	<text transform="matrix(1 0 0 1 53.00 10.42)">5</text>
	<text transform="matrix(1 0 0 1 46.50 35.50)">6</text>
	<text transform="matrix(1 0 0 1 78.75 34.78)">7</text>
	<text transform="matrix(1 0 0 1 38.25 62.95)">8</text>
	<text transform="matrix(1 0 0 1 49.50 54.50)">9</text>
	<text transform="matrix(1 0 0 1 52.00 66.50)">10</text>
	<text transform="matrix(1 0 0 1 52.50 78.50)">11</text>
	<text transform="matrix(1 0 0 1 29.50 91.50)">12</text>
</g>
</svg>
