<?xml version="1.0" encoding="UTF-8"?>
<!--
Copyright (C) 2009/2010/2011 Ulrich Apel.
This work is distributed under the conditions of the Creative Commons 
Attribution-Share Alike 3.0 Licence. This means you are free:
* to Share - to copy, distribute and transmit the work
* to Remix - to adapt the work

Under the following conditions:
* Attribution. You must attribute the work by stating your use of KanjiVG in
  your own copyright header and linking to KanjiVG's website
  (http://kanjivg.tagaini.net)
* Share Alike. If you alter, transform, or build upon this work, you may
  distribute the resulting work only under the same or similar license to this
  one.

See http://creativecommons.org/licenses/by-sa/3.0/ for more details.
-->
<!DOCTYPE svg PUBLIC "-//W3C//DTD SVG 1.0//EN" "http://www.w3.org/TR/2001/REC-SVG-20010904/DTD/svg10.dtd" [
<!ATTLIST g
xmlns:kvg CDATA #FIXED "http://kanjivg.tagaini.net"
kvg:element CDATA #IMPLIED
kvg:variant CDATA #IMPLIED
kvg:partial CDATA #IMPLIED
kvg:original CDATA #IMPLIED
kvg:part CDATA #IMPLIED
kvg:number CDATA #IMPLIED
kvg:tradForm CDATA #IMPLIED
kvg:radicalForm CDATA #IMPLIED
kvg:position CDATA #IMPLIED
kvg:radical CDATA #IMPLIED
kvg:phon CDATA #IMPLIED >
<!ATTLIST path
xmlns:kvg CDATA #FIXED "http://kanjivg.tagaini.net"
kvg:type CDATA #IMPLIED >
]>
<svg xmlns="http://www.w3.org/2000/svg" width="109" height="109" viewBox="0 0 109 109">
<g id="kvg:StrokePaths_06e7f-Kaisho" style="fill:none;stroke:#000000;stroke-width:3;stroke-linecap:round;stroke-linejoin:round;">
<g id="kvg:06e7f-Kaisho" kvg:element="湿">
	<g id="kvg:06e7f-Kaisho-g1" kvg:element="氵" kvg:variant="true" kvg:original="水" kvg:position="left" kvg:radical="general">
		<path id="kvg:06e7f-Kaisho-s1" kvg:type="㇔" d="M21.13,17.25c4.1,1.56,10.59,6.41,11.62,8.84"/>
		<path id="kvg:06e7f-Kaisho-s2" kvg:type="㇔" d="M16.25,39c3.97,1.59,10.26,6.53,11.25,9"/>
		<path id="kvg:06e7f-Kaisho-s3" kvg:type="㇀" d="M15.75,89.21c1.5,1.31,3.31,1.36,4.25-0.25c2.75-4.7,5.5-10.45,8-16.45"/>
	</g>
	<g id="kvg:06e7f-Kaisho-g2" kvg:position="right">
		<g id="kvg:06e7f-Kaisho-g3" kvg:element="日" kvg:position="top">
			<path id="kvg:06e7f-Kaisho-s4" kvg:type="㇑" d="M43.2,19.56c0.49,0.64,1.37,1.95,1.49,2.82c0.56,4.12,2.74,23.62,2.74,24.05c0,0.44,0.17,0.43,0.33,1.3"/>
			<path id="kvg:06e7f-Kaisho-s5" kvg:type="㇕a" d="M46,21.6c8.25-1.35,36.87-4.5,39.4-4.74c2.11-0.2,3.59,0.89,3.31,2.72c-0.97,6.27-4.47,21.67-5.58,26.37"/>
			<path id="kvg:06e7f-Kaisho-s6" kvg:type="㇐a" d="M46.52,33.44c6.6-0.28,13.22-1.24,19.78-1.91c2.25-0.23,4.49-0.46,6.64-0.68"/>
			<path id="kvg:06e7f-Kaisho-s7" kvg:type="㇐a" d="M48.89,45.23c7.66-0.8,24.05-1.81,33.59-2.63"/>
		</g>
		<g id="kvg:06e7f-Kaisho-g4" kvg:position="bottom">
			<path id="kvg:06e7f-Kaisho-s8" kvg:type="㇑" d="M58.19,52.13c1.24,0.58,2.23,2.58,2.23,3.76c0,12.62,0,27.7-0.25,34.92"/>
			<path id="kvg:06e7f-Kaisho-s9" kvg:type="㇑" d="M71.23,51.1c1.27,0.59,2.28,2.63,2.28,3.84c0,5.06,0,27.08-0.25,34.47"/>
			<path id="kvg:06e7f-Kaisho-s10" kvg:type="㇔" d="M43.83,66.2c2.82,2.57,7.28,10.08,7.98,14.08"/>
			<path id="kvg:06e7f-Kaisho-s11" kvg:type="㇒" d="M90.99,62c0.03,0.43,0.07,1.11-0.07,1.73c-0.86,3.65-4.57,10.03-11.59,16.56"/>
			<path id="kvg:06e7f-Kaisho-s12" kvg:type="㇐" d="M37.34,92.25c1.15,0.42,3.25,0.48,4.39,0.42c15.27-0.92,36.45-3.14,49.42-3.51c1.91-0.06,3.06,0.2,4.01,0.41"/>
		</g>
	</g>
</g>
</g>
<g id="kvg:StrokeNumbers_06e7f-Kaisho" style="font-size:8;fill:#808080">
	<text transform="matrix(1 0 0 1 14.50 18.50)">1</text>
	<text transform="matrix(1 0 0 1 8.50 40.50)">2</text>
	<text transform="matrix(1 0 0 1 8.50 93.50)">3</text>
	<text transform="matrix(1 0 0 1 37.50 28.50)">4</text>
	<text transform="matrix(1 0 0 1 46.50 17.50)">5</text>
	<text transform="matrix(1 0 0 1 50.25 30.50)">6</text>
	<text transform="matrix(1 0 0 1 51.50 42.50)">7</text>
	<text transform="matrix(1 0 0 1 49.50 55.50)">8</text>
	<text transform="matrix(1 0 0 1 63.50 53.50)">9</text>
	<text transform="matrix(1 0 0 1 34.50 71.50)">10</text>
	<text transform="matrix(1 0 0 1 79.50 61.50)">11</text>
	<text transform="matrix(1 0 0 1 33.50 89.50)">12</text>
</g>
</svg>
