<?xml version="1.0" encoding="UTF-8"?>
<!--
Copyright (C) 2009/2010/2011 Ulrich Apel.
This work is distributed under the conditions of the Creative Commons 
Attribution-Share Alike 3.0 Licence. This means you are free:
* to Share - to copy, distribute and transmit the work
* to Remix - to adapt the work

Under the following conditions:
* Attribution. You must attribute the work by stating your use of KanjiVG in
  your own copyright header and linking to KanjiVG's website
  (http://kanjivg.tagaini.net)
* Share Alike. If you alter, transform, or build upon this work, you may
  distribute the resulting work only under the same or similar license to this
  one.

See http://creativecommons.org/licenses/by-sa/3.0/ for more details.
-->
<!DOCTYPE svg PUBLIC "-//W3C//DTD SVG 1.0//EN" "http://www.w3.org/TR/2001/REC-SVG-20010904/DTD/svg10.dtd" [
<!ATTLIST g
xmlns:kvg CDATA #FIXED "http://kanjivg.tagaini.net"
kvg:element CDATA #IMPLIED
kvg:variant CDATA #IMPLIED
kvg:partial CDATA #IMPLIED
kvg:original CDATA #IMPLIED
kvg:part CDATA #IMPLIED
kvg:number CDATA #IMPLIED
kvg:tradForm CDATA #IMPLIED
kvg:radicalForm CDATA #IMPLIED
kvg:position CDATA #IMPLIED
kvg:radical CDATA #IMPLIED
kvg:phon CDATA #IMPLIED >
<!ATTLIST path
xmlns:kvg CDATA #FIXED "http://kanjivg.tagaini.net"
kvg:type CDATA #IMPLIED >
]>
<svg xmlns="http://www.w3.org/2000/svg" width="109" height="109" viewBox="0 0 109 109">
<g id="kvg:StrokePaths_06eec" style="fill:none;stroke:#000000;stroke-width:3;stroke-linecap:round;stroke-linejoin:round;">
<g id="kvg:06eec" kvg:element="滬">
	<g id="kvg:06eec-g1" kvg:element="氵" kvg:variant="true" kvg:original="水" kvg:position="left" kvg:radical="general">
		<path id="kvg:06eec-s1" kvg:type="㇔" d="M18.38,15.75c4.19,1.3,10.82,5.33,11.87,7.34"/>
		<path id="kvg:06eec-s2" kvg:type="㇔" d="M15,40.5c4.06,1.32,10.48,5.44,11.5,7.5"/>
		<path id="kvg:06eec-s3" kvg:type="㇀" d="M16.25,86.23c1.71,1.27,3.78,1.32,4.86-0.25c3.14-4.57,7.29-13.16,10.14-18.99"/>
	</g>
	<g id="kvg:06eec-g2" kvg:element="扈" kvg:position="right">
		<g id="kvg:06eec-g3" kvg:element="戸" kvg:position="tare">
			<path id="kvg:06eec-s4" kvg:type="㇐" d="M44.23,16.14c0.87,0.27,3.38,0.3,4.25,0.27c9.03-0.31,23.52-1.16,36.39-2.17c1.44-0.11,3.24,0.13,3.96,0.26"/>
			<path id="kvg:06eec-s5" kvg:type="㇕c" d="M43.92,24.98c0.92,0.28,2.33,0.78,4.15,0.58c9.43-1.06,31.2-2.42,37.12-2.92c1.6-0.14,3.26,0.95,2.62,2.99c-0.8,2.56-1.81,6.18-2.42,8.88"/>
			<path id="kvg:06eec-s6" kvg:type="㇐b" d="M46.55,37.59c1.29,0,2.86-0.05,4.65-0.12c10.07-0.43,25.9-2.37,36.21-2.37"/>
			<path id="kvg:06eec-s7" kvg:type="㇒" d="M46.22,25.96c0.43,1.26,0.45,3.03,0.31,5.26c-1.76,27.31-4.03,46.52-14.78,58.62"/>
		</g>
		<g id="kvg:06eec-g4" kvg:element="邑">
			<g id="kvg:06eec-g5" kvg:element="口" kvg:position="top">
				<path id="kvg:06eec-s8" kvg:type="㇑" d="M55.86,44.04c0.2,0.2,0.4,0.37,0.48,0.63c0.68,2.02,1.49,7.6,1.95,11.22"/>
				<path id="kvg:06eec-s9" kvg:type="㇕b" d="M57.08,45.11c4.46-0.86,21.34-3.45,23.64-3.4c1.28,0.03,2.53,1.03,2.22,2.15c-0.65,2.32-2.07,5.51-2.81,8.77"/>
				<path id="kvg:06eec-s10" kvg:type="㇐b" d="M58.39,54.71c2.69-0.3,19.12-1.32,22.81-1.78"/>
			</g>
			<g id="kvg:06eec-g6" kvg:element="巴" kvg:position="bottom">
				<g id="kvg:06eec-g7" kvg:element="己" kvg:part="1" kvg:original="巳">
					<path id="kvg:06eec-s11" kvg:type="㇕c" d="M49.5,62.75c0.83,0.1,1.94,0.22,3.25,0.14c10.5-0.64,27.53-2.36,33.22-2.8c2.38-0.18,2.94,1.66,2.8,2.77c-0.54,4.24-1.81,8.29-2.89,11.4"/>
					<path id="kvg:06eec-s12" kvg:type="㇑a" d="M68.28,62.84c0.51,0.28,1.03,2.08,1.03,2.64c0,3.52-0.17,6.19-0.17,8.32"/>
				</g>
				<g id="kvg:06eec-g8" kvg:element="己" kvg:part="2" kvg:original="巳">
					<path id="kvg:06eec-s13" kvg:type="㇐c" d="M53.13,76.66c3.56-0.31,31.56-2.04,35.63-2.35"/>
					<path id="kvg:06eec-s14" kvg:type="㇟" d="M52.99,63.64c0,1.36,0.01,1.83,0.04,3.13c0.15,5.79-0.29,9.2-0.29,13.11c0,11.93-1.01,13.88,20.83,13.88c19.26,0,21.22-2.18,21.22-9.79"/>
				</g>
			</g>
		</g>
	</g>
</g>
</g>
<g id="kvg:StrokeNumbers_06eec" style="font-size:8;fill:#808080">
	<text transform="matrix(1 0 0 1 11.50 15.50)">1</text>
	<text transform="matrix(1 0 0 1 7.50 40.50)">2</text>
	<text transform="matrix(1 0 0 1 8.50 88.50)">3</text>
	<text transform="matrix(1 0 0 1 42.50 12.40)">4</text>
	<text transform="matrix(1 0 0 1 48.50 23.50)">5</text>
	<text transform="matrix(1 0 0 1 51.50 34.00)">6</text>
	<text transform="matrix(1 0 0 1 38.25 33.50)">7</text>
	<text transform="matrix(1 0 0 1 49.50 51.85)">8</text>
	<text transform="matrix(1 0 0 1 58.50 42.50)">9</text>
	<text transform="matrix(1 0 0 1 60.50 52.70)">10</text>
	<text transform="matrix(1 0 0 1 49.50 60.50)">11</text>
	<text transform="matrix(1 0 0 1 70.75 69.80)">12</text>
	<text transform="matrix(1 0 0 1 56.25 73.50)">13</text>
	<text transform="matrix(1 0 0 1 42.50 73.50)">14</text>
</g>
</svg>
