<?xml version="1.0" encoding="UTF-8"?>
<!--
Copyright (C) 2009/2010/2011 Ulrich Apel.
This work is distributed under the conditions of the Creative Commons 
Attribution-Share Alike 3.0 Licence. This means you are free:
* to Share - to copy, distribute and transmit the work
* to Remix - to adapt the work

Under the following conditions:
* Attribution. You must attribute the work by stating your use of KanjiVG in
  your own copyright header and linking to KanjiVG's website
  (http://kanjivg.tagaini.net)
* Share Alike. If you alter, transform, or build upon this work, you may
  distribute the resulting work only under the same or similar license to this
  one.

See http://creativecommons.org/licenses/by-sa/3.0/ for more details.
-->
<!DOCTYPE svg PUBLIC "-//W3C//DTD SVG 1.0//EN" "http://www.w3.org/TR/2001/REC-SVG-20010904/DTD/svg10.dtd" [
<!ATTLIST g
xmlns:kvg CDATA #FIXED "http://kanjivg.tagaini.net"
kvg:element CDATA #IMPLIED
kvg:variant CDATA #IMPLIED
kvg:partial CDATA #IMPLIED
kvg:original CDATA #IMPLIED
kvg:part CDATA #IMPLIED
kvg:number CDATA #IMPLIED
kvg:tradForm CDATA #IMPLIED
kvg:radicalForm CDATA #IMPLIED
kvg:position CDATA #IMPLIED
kvg:radical CDATA #IMPLIED
kvg:phon CDATA #IMPLIED >
<!ATTLIST path
xmlns:kvg CDATA #FIXED "http://kanjivg.tagaini.net"
kvg:type CDATA #IMPLIED >
]>
<svg xmlns="http://www.w3.org/2000/svg" width="109" height="109" viewBox="0 0 109 109">
<g id="kvg:StrokePaths_06eff" style="fill:none;stroke:#000000;stroke-width:3;stroke-linecap:round;stroke-linejoin:round;">
<g id="kvg:06eff" kvg:element="滿">
	<g id="kvg:06eff-g1" kvg:element="氵" kvg:variant="true" kvg:original="水" kvg:position="left" kvg:radical="tradit">
		<path id="kvg:06eff-s1" kvg:type="㇔" d="M18.38,14.75c4.19,1.65,10.82,6.78,11.87,9.34"/>
		<path id="kvg:06eff-s2" kvg:type="㇔" d="M14,42.5c4.77,1.85,12.31,7.62,13.5,10.5"/>
		<path id="kvg:06eff-s3" kvg:type="㇀" d="M14.75,90.68c1.65,1.34,4.14,0.9,5.18-0.76c3.03-4.84,5.56-10.25,8.32-16.42"/>
	</g>
	<g id="kvg:06eff-g2" kvg:position="right">
		<g id="kvg:06eff-g3" kvg:element="廿">
			<g id="kvg:06eff-g4" kvg:element="十">
				<path id="kvg:06eff-s4" kvg:type="㇐" d="M36.57,25.06c1.08,0.38,3.05,0.45,4.13,0.38c5.62-0.35,36.38-3.4,48.22-3.56c1.79-0.03,2.87,0.18,3.77,0.38"/>
				<path id="kvg:06eff-s5" kvg:type="㇑" d="M50.51,13.69c0.89,0.35,1.42,1.6,1.6,2.31c0.18,0.71,1.5,17.07,1.32,21.5"/>
			</g>
			<path id="kvg:06eff-s6" kvg:type="㇑" d="M74.85,11.75c0.89,0.35,1.42,1.6,1.6,2.31c0.18,0.71-0.42,12.84-0.95,19.4"/>
			<g id="kvg:06eff-g5" kvg:element="兩" kvg:part="1">
				<path id="kvg:06eff-s7" kvg:type="㇐" d="M53.43,35.76c3.37,0,21.26-1.79,24.3-1.95"/>
			</g>
		</g>
		<g id="kvg:06eff-g6" kvg:element="兩" kvg:part="2">
			<g id="kvg:06eff-g7" kvg:element="冂">
				<path id="kvg:06eff-s8" kvg:type="㇑" d="M38.25,46.77c1.25,1.23,1.93,2.96,2.11,4.68c1.06,10.25,1.81,39.96,1.81,44.57"/>
				<path id="kvg:06eff-s9" kvg:type="㇆a" d="M41.06,49.21c9.87-0.96,41.96-4.76,48.17-5.5c2.01-0.24,3.7,0.97,3.63,3.61c-0.35,13.43-0.1,27.18-2.11,41.85c-0.97,7.07-4.63,4.82-7.25,0"/>
			</g>
			<path id="kvg:06eff-s10" kvg:type="㇑" d="M63.44,36.84c1.01,1.2,1.81,2.65,1.81,4.33c0,0.96-0.1,49.52-0.1,52.17"/>
			<g id="kvg:06eff-g8" kvg:element="入">
				<path id="kvg:06eff-s11" kvg:type="㇒" d="M53.43,64.88c-1.44,3.85-5.18,9.31-8.17,11.49"/>
				<path id="kvg:06eff-s12" kvg:type="㇏" d="M47.8,56.9c0.47,0,0.89,0.48,1.12,0.84c3.73,5.91,7.96,11.98,11.42,16.16c0.39,0.47,0.76,0.64,1.18,0.77"/>
			</g>
			<g id="kvg:06eff-g9" kvg:element="入">
				<path id="kvg:06eff-s13" kvg:type="㇒" d="M77.87,61.55c-1.5,3.83-5.38,9.26-8.49,11.43"/>
				<path id="kvg:06eff-s14" kvg:type="㇏" d="M73.09,53.48c0.5,0,0.99,0.48,1.18,0.88c2.93,6.01,7.36,12.69,12.1,16.87c0.48,0.42,0.81,0.67,1.25,0.81"/>
			</g>
		</g>
	</g>
</g>
</g>
<g id="kvg:StrokeNumbers_06eff" style="font-size:8;fill:#808080">
	<text transform="matrix(1 0 0 1 11.50 14.50)">1</text>
	<text transform="matrix(1 0 0 1 6.50 42.50)">2</text>
	<text transform="matrix(1 0 0 1 7.50 92.50)">3</text>
	<text transform="matrix(1 0 0 1 35.50 21.50)">4</text>
	<text transform="matrix(1 0 0 1 42.50 11.50)">5</text>
	<text transform="matrix(1 0 0 1 65.50 10.50)">6</text>
	<text transform="matrix(1 0 0 1 56.75 33.93)">7</text>
	<text transform="matrix(1 0 0 1 32.50 56.50)">8</text>
	<text transform="matrix(1 0 0 1 41.50 45.50)">9</text>
	<text transform="matrix(1 0 0 1 54.50 43.50)">10</text>
	<text transform="matrix(1 0 0 1 43.50 69.50)">11</text>
	<text transform="matrix(1 0 0 1 49.50 57.50)">12</text>
	<text transform="matrix(1 0 0 1 67.50 65.50)">13</text>
	<text transform="matrix(1 0 0 1 76.50 55.65)">14</text>
</g>
</svg>
