<?xml version="1.0" encoding="UTF-8"?>
<!--
Copyright (C) 2009/2010/2011 Ulrich Apel.
This work is distributed under the conditions of the Creative Commons 
Attribution-Share Alike 3.0 Licence. This means you are free:
* to Share - to copy, distribute and transmit the work
* to Remix - to adapt the work

Under the following conditions:
* Attribution. You must attribute the work by stating your use of KanjiVG in
  your own copyright header and linking to KanjiVG's website
  (http://kanjivg.tagaini.net)
* Share Alike. If you alter, transform, or build upon this work, you may
  distribute the resulting work only under the same or similar license to this
  one.

See http://creativecommons.org/licenses/by-sa/3.0/ for more details.
-->
<!DOCTYPE svg PUBLIC "-//W3C//DTD SVG 1.0//EN" "http://www.w3.org/TR/2001/REC-SVG-20010904/DTD/svg10.dtd" [
<!ATTLIST g
xmlns:kvg CDATA #FIXED "http://kanjivg.tagaini.net"
kvg:element CDATA #IMPLIED
kvg:variant CDATA #IMPLIED
kvg:partial CDATA #IMPLIED
kvg:original CDATA #IMPLIED
kvg:part CDATA #IMPLIED
kvg:number CDATA #IMPLIED
kvg:tradForm CDATA #IMPLIED
kvg:radicalForm CDATA #IMPLIED
kvg:position CDATA #IMPLIED
kvg:radical CDATA #IMPLIED
kvg:phon CDATA #IMPLIED >
<!ATTLIST path
xmlns:kvg CDATA #FIXED "http://kanjivg.tagaini.net"
kvg:type CDATA #IMPLIED >
]>
<svg xmlns="http://www.w3.org/2000/svg" width="109" height="109" viewBox="0 0 109 109">
<g id="kvg:StrokePaths_06ef4-Kaisho" style="fill:none;stroke:#000000;stroke-width:3;stroke-linecap:round;stroke-linejoin:round;">
<g id="kvg:06ef4-Kaisho" kvg:element="滴">
	<g id="kvg:06ef4-Kaisho-g1" kvg:element="氵" kvg:variant="true" kvg:original="水" kvg:position="left" kvg:radical="general">
		<path id="kvg:06ef4-Kaisho-s1" kvg:type="㇔" d="M20.63,17.75c3.57,1.38,9.22,5.69,10.12,7.84"/>
		<path id="kvg:06ef4-Kaisho-s2" kvg:type="㇔" d="M14.75,44.75c3.79,1.28,9.8,5.26,10.75,7.25"/>
		<path id="kvg:06ef4-Kaisho-s3" kvg:type="㇀" d="M14.75,89.71c1.5,1.31,3.31,1.36,4.25-0.25C21.75,84.75,24.5,79,27,73"/>
	</g>
	<g id="kvg:06ef4-Kaisho-g2" kvg:position="right">
		<g id="kvg:06ef4-Kaisho-g3" kvg:element="亠">
			<path id="kvg:06ef4-Kaisho-s4" kvg:type="㇑a" d="M59.52,12c3.5,1.83,5.5,3.32,7.33,7.75"/>
			<path id="kvg:06ef4-Kaisho-s5" kvg:type="㇐" d="M39.95,26.91c1.46,0.36,3.17,0.42,4.63,0.36c8.25-0.31,28.12-3.92,40.59-4.19c2.44-0.05,3.9,0.17,5.12,0.35"/>
		</g>
		<path id="kvg:06ef4-Kaisho-s6" kvg:type="㇔" d="M49.41,30.15c4.13,4.02,6.01,8.13,6.39,10.78"/>
		<path id="kvg:06ef4-Kaisho-s7" kvg:type="㇒" d="M76.37,26.69c0.68,0.44,0.76,0.67,0.68,1.04c-0.54,2.52-5.08,10.51-6.44,12.43"/>
		<g id="kvg:06ef4-Kaisho-g4" kvg:element="冂">
			<path id="kvg:06ef4-Kaisho-s8" kvg:type="㇑" d="M42.2,43.93c0.5,0.84,0.84,2.19,0.67,3.71c-0.17,1.52,0.17,44.76,0.17,47.29"/>
			<path id="kvg:06ef4-Kaisho-s9" kvg:type="㇆a" d="M43.41,45.63c6.4-0.67,40.39-3.69,41.65-3.93c2.69-0.51,4.67,1.78,4.37,2.58c-0.5,1.35-0.5,44.15-0.5,48.03c0,9.75-5.58,2.2-7.6,0"/>
		</g>
		<g id="kvg:06ef4-Kaisho-g5" kvg:element="古">
			<g id="kvg:06ef4-Kaisho-g6" kvg:element="十" kvg:position="top">
				<path id="kvg:06ef4-Kaisho-s10" kvg:type="㇐" d="M49.51,57.72c0.39,0.12,1.44,0.44,2.48,0.35c4.27-0.35,20.16-2.81,26.3-2.81c1.05,0,1.3-0.12,1.96,0"/>
				<path id="kvg:06ef4-Kaisho-s11" kvg:type="㇑a" d="M62.5,46.47c1.32,1.1,2.2,4.17,2.2,4.27c0.06,6.72,0,13.39-0.11,16.31"/>
			</g>
			<g id="kvg:06ef4-Kaisho-g7" kvg:element="口" kvg:position="bottom">
				<path id="kvg:06ef4-Kaisho-s12" kvg:type="㇑" d="M54.11,68c0.19,0.43,0.41,0.72,0.48,1.05c0.47,2.36,2.16,9.87,2.82,14.34"/>
				<path id="kvg:06ef4-Kaisho-s13" kvg:type="㇕b" d="M54.57,68.69c5.32-0.48,16.64-2.69,20.26-2.76c1.5-0.03,2.31,0.67,2.18,1.38c-0.49,2.72-1.46,7.83-2.27,11.43"/>
				<path id="kvg:06ef4-Kaisho-s14" kvg:type="㇐b" d="M57.06,81.04c4.4-0.2,13.56-1.69,18.84-1.94"/>
			</g>
		</g>
	</g>
</g>
</g>
<g id="kvg:StrokeNumbers_06ef4-Kaisho" style="font-size:8;fill:#808080">
	<text transform="matrix(1 0 0 1 12.75 18.13)">1</text>
	<text transform="matrix(1 0 0 1 7.50 45.05)">2</text>
	<text transform="matrix(1 0 0 1 7.50 93.50)">3</text>
	<text transform="matrix(1 0 0 1 53.25 12.13)">4</text>
	<text transform="matrix(1 0 0 1 40.50 24.50)">5</text>
	<text transform="matrix(1 0 0 1 44.50 35.98)">6</text>
	<text transform="matrix(1 0 0 1 68.50 33.50)">7</text>
	<text transform="matrix(1 0 0 1 35.25 52.63)">8</text>
	<text transform="matrix(1 0 0 1 42.50 42.50)">9</text>
	<text transform="matrix(1 0 0 1 46.50 54.50)">10</text>
	<text transform="matrix(1 0 0 1 55.50 52.48)">11</text>
	<text transform="matrix(1 0 0 1 46.50 74.50)">12</text>
	<text transform="matrix(1 0 0 1 51.50 65.50)">13</text>
	<text transform="matrix(1 0 0 1 58.50 77.50)">14</text>
</g>
</svg>
