<?xml version="1.0" encoding="UTF-8"?>
<!--
Copyright (C) 2009/2010/2011 Ulrich Apel.
This work is distributed under the conditions of the Creative Commons 
Attribution-Share Alike 3.0 Licence. This means you are free:
* to Share - to copy, distribute and transmit the work
* to Remix - to adapt the work

Under the following conditions:
* Attribution. You must attribute the work by stating your use of KanjiVG in
  your own copyright header and linking to KanjiVG's website
  (http://kanjivg.tagaini.net)
* Share Alike. If you alter, transform, or build upon this work, you may
  distribute the resulting work only under the same or similar license to this
  one.

See http://creativecommons.org/licenses/by-sa/3.0/ for more details.
-->
<!DOCTYPE svg PUBLIC "-//W3C//DTD SVG 1.0//EN" "http://www.w3.org/TR/2001/REC-SVG-20010904/DTD/svg10.dtd" [
<!ATTLIST g
xmlns:kvg CDATA #FIXED "http://kanjivg.tagaini.net"
kvg:element CDATA #IMPLIED
kvg:variant CDATA #IMPLIED
kvg:partial CDATA #IMPLIED
kvg:original CDATA #IMPLIED
kvg:part CDATA #IMPLIED
kvg:number CDATA #IMPLIED
kvg:tradForm CDATA #IMPLIED
kvg:radicalForm CDATA #IMPLIED
kvg:position CDATA #IMPLIED
kvg:radical CDATA #IMPLIED
kvg:phon CDATA #IMPLIED >
<!ATTLIST path
xmlns:kvg CDATA #FIXED "http://kanjivg.tagaini.net"
kvg:type CDATA #IMPLIED >
]>
<svg xmlns="http://www.w3.org/2000/svg" width="109" height="109" viewBox="0 0 109 109">
<g id="kvg:StrokePaths_06f11" style="fill:none;stroke:#000000;stroke-width:3;stroke-linecap:round;stroke-linejoin:round;">
<g id="kvg:06f11" kvg:element="漑">
	<g id="kvg:06f11-g1" kvg:element="氵" kvg:variant="true" kvg:original="水" kvg:position="left" kvg:radical="general">
		<path id="kvg:06f11-s1" kvg:type="㇔" d="M16.13,16.5c3.75,1.69,9.68,6.96,10.62,9.59"/>
		<path id="kvg:06f11-s2" kvg:type="㇔" d="M12.25,42.75c3.79,1.54,9.8,6.35,10.75,8.75"/>
		<path id="kvg:06f11-s3" kvg:type="㇀" d="M11.25,87.62c2,0.62,3.71,0.48,4.77-1.28c3.09-5.1,6.67-13.84,9.48-20.35"/>
	</g>
	<g id="kvg:06f11-g2" kvg:element="既" kvg:variant="true" kvg:position="right">
		<g id="kvg:06f11-g3" kvg:element="艮" kvg:variant="true" kvg:position="left">
			<path id="kvg:06f11-s4" kvg:type="㇒" d="M48.53,11.64c0.03,0.35,0.06,0.92-0.05,1.43c-0.65,3.01-4.35,9.61-9.42,13.65"/>
			<path id="kvg:06f11-s5" kvg:type="㇑" d="M34.37,27.51c0.85,0.46,1.36,2.07,1.53,2.99c0.17,0.92,0.36,63.94,0.17,66.22"/>
			<path id="kvg:06f11-s6" kvg:type="㇕" d="M35.7,29.26c1.49-0.1,19.41-2.76,20.76-2.95c2.29-0.32,2.82,1.16,2.77,2.63C59,36.75,57.25,52.5,56.7,56.53"/>
			<path id="kvg:06f11-s7" kvg:type="㇐" d="M36.46,42.03c5.54-0.78,15.29-1.53,21.78-2.16"/>
			<path id="kvg:06f11-s8" kvg:type="㇐" d="M36.37,55.1c4.11-0.43,14.88-1.35,20.71-1.97"/>
			<path id="kvg:06f11-s9" kvg:type="㇐" d="M36.5,69.5c1.75,0,15.75-1.75,17.5-1.75s2.75,0,3.75,0"/>
			<path id="kvg:06f11-s10" kvg:type="㇐" d="M36.25,85c1.75,0,16.25-2.25,18-2.25s2.75,0,3.75,0"/>
		</g>
		<g id="kvg:06f11-g4" kvg:element="旡" kvg:variant="true" kvg:original="无" kvg:position="right">
			<path id="kvg:06f11-s11" kvg:type="㇐" d="M65.75,22.5c1,0.36,2.85,0.48,3.84,0.36c5.23-0.65,16.02-2.63,23.4-2.95c1.67-0.07,2.67,0.17,3.51,0.35"/>
			<path id="kvg:06f11-s12" kvg:type="㇄" d="M70.31,25.38c0.76,0.45,1.16,2.35,1.01,3.25c-1.07,6.62-2.57,14.87-3.65,19.12c-0.58,2.29,0.34,3.71,1.77,3.57c8.73-0.82,13.23-2.2,24.23-2.27c2-0.01,3.58,0.44,5.33,0.73"/>
			<g id="kvg:06f11-g5" kvg:element="儿">
				<g id="kvg:06f11-g6" kvg:element="八" kvg:variant="true">
					<g id="kvg:06f11-g7" kvg:element="丿" kvg:position="left">
						<path id="kvg:06f11-s13" kvg:type="㇒" d="M85,23.75c0.42,1,0.78,2.92,0.53,5.35C83.56,48.46,76.75,80.25,57,95"/>
					</g>
					<g id="kvg:06f11-g8" kvg:position="right">
						<path id="kvg:06f11-s14" kvg:type="㇟" d="M82.74,60.87c0.74,1.19,1.38,1.59,1.38,3.43C84.11,68,84,78,83.81,84c-0.34,10.5,2.18,11.53,7.94,11.53s6.76-1.78,6.76-9.12"/>
					</g>
				</g>
			</g>
		</g>
	</g>
</g>
</g>
<g id="kvg:StrokeNumbers_06f11" style="font-size:8;fill:#808080">
	<text transform="matrix(1 0 0 1 8.50 17.50)">1</text>
	<text transform="matrix(1 0 0 1 4.50 42.50)">2</text>
	<text transform="matrix(1 0 0 1 4.50 89.50)">3</text>
	<text transform="matrix(1 0 0 1 40.50 10.50)">4</text>
	<text transform="matrix(1 0 0 1 27.50 35.50)">5</text>
	<text transform="matrix(1 0 0 1 47.25 25.50)">6</text>
	<text transform="matrix(1 0 0 1 40.50 38.50)">7</text>
	<text transform="matrix(1 0 0 1 40.50 51.50)">8</text>
	<text transform="matrix(1 0 0 1 40.50 65.28)">9</text>
	<text transform="matrix(1 0 0 1 40.50 81.50)">10</text>
	<text transform="matrix(1 0 0 1 64.50 19.50)">11</text>
	<text transform="matrix(1 0 0 1 61.00 33.50)">12</text>
	<text transform="matrix(1 0 0 1 75.50 30.50)">13</text>
	<text transform="matrix(1 0 0 1 86.50 64.15)">14</text>
</g>
</svg>
