<?xml version="1.0" encoding="UTF-8"?>
<!--
Copyright (C) 2009/2010/2011 Ulrich Apel.
This work is distributed under the conditions of the Creative Commons 
Attribution-Share Alike 3.0 Licence. This means you are free:
* to Share - to copy, distribute and transmit the work
* to Remix - to adapt the work

Under the following conditions:
* Attribution. You must attribute the work by stating your use of KanjiVG in
  your own copyright header and linking to KanjiVG's website
  (http://kanjivg.tagaini.net)
* Share Alike. If you alter, transform, or build upon this work, you may
  distribute the resulting work only under the same or similar license to this
  one.

See http://creativecommons.org/licenses/by-sa/3.0/ for more details.
-->
<!DOCTYPE svg PUBLIC "-//W3C//DTD SVG 1.0//EN" "http://www.w3.org/TR/2001/REC-SVG-20010904/DTD/svg10.dtd" [
<!ATTLIST g
xmlns:kvg CDATA #FIXED "http://kanjivg.tagaini.net"
kvg:element CDATA #IMPLIED
kvg:variant CDATA #IMPLIED
kvg:partial CDATA #IMPLIED
kvg:original CDATA #IMPLIED
kvg:part CDATA #IMPLIED
kvg:number CDATA #IMPLIED
kvg:tradForm CDATA #IMPLIED
kvg:radicalForm CDATA #IMPLIED
kvg:position CDATA #IMPLIED
kvg:radical CDATA #IMPLIED
kvg:phon CDATA #IMPLIED >
<!ATTLIST path
xmlns:kvg CDATA #FIXED "http://kanjivg.tagaini.net"
kvg:type CDATA #IMPLIED >
]>
<svg xmlns="http://www.w3.org/2000/svg" width="109" height="109" viewBox="0 0 109 109">
<g id="kvg:StrokePaths_06f2c-Kaisho" style="fill:none;stroke:#000000;stroke-width:3;stroke-linecap:round;stroke-linejoin:round;">
<g id="kvg:06f2c-Kaisho" kvg:element="漬">
	<g id="kvg:06f2c-Kaisho-g1" kvg:element="氵" kvg:variant="true" kvg:original="水" kvg:position="left">
		<path id="kvg:06f2c-Kaisho-s1" kvg:type="㇔" d="M21.88,16.25c3.31,1.47,8.54,6.05,9.37,8.34"/>
		<path id="kvg:06f2c-Kaisho-s2" kvg:type="㇔" d="M14.75,42.5c3.79,1.15,9.8,4.72,10.75,6.5"/>
		<path id="kvg:06f2c-Kaisho-s3" kvg:type="㇀" d="M16.25,89.71c1.5,1.31,3.31,1.36,4.25-0.25C23.25,84.75,26,79,28.5,73"/>
	</g>
	<g id="kvg:06f2c-Kaisho-g2" kvg:element="責" kvg:position="right">
		<g id="kvg:06f2c-Kaisho-g3" kvg:position="top">
			<path id="kvg:06f2c-Kaisho-s4" kvg:type="㇐" d="M43.04,21.82c0.69,0.37,1.95,0.48,2.65,0.44c4.98-0.33,37.19-3.12,41.49-3.51c1.14-0.1,1.62-0.03,2.23,0.05"/>
			<path id="kvg:06f2c-Kaisho-s5" kvg:type="㇑a" d="M63.16,10.31c0.64,0.25,2.14,2.31,2.14,2.8c0,6.61,0.3,20.82,0.36,28.25"/>
			<path id="kvg:06f2c-Kaisho-s6" kvg:type="㇐" d="M46.24,31.94c0.69,0.28,1.95,0.37,2.65,0.34c4.98-0.2,31.48-2.83,35.78-3.08c1.15-0.06,1.99,0.01,2.6,0.07"/>
			<path id="kvg:06f2c-Kaisho-s7" kvg:type="㇐" d="M36.8,43.51c1.08,0.31,3.05,0.51,4.13,0.41c10-0.9,42.96-4.12,52.98-4.47c1.78-0.06,3.17-0.27,4.43,0.06"/>
		</g>
		<g id="kvg:06f2c-Kaisho-g4" kvg:element="貝" kvg:position="bottom">
			<g id="kvg:06f2c-Kaisho-g5" kvg:element="目" kvg:position="top">
				<path id="kvg:06f2c-Kaisho-s8" kvg:type="㇑" d="M48.24,49.39c0.56,0.76,1.38,1.32,1.38,2.35c0,1.03,0.31,32.35,0.5,33.38"/>
				<path id="kvg:06f2c-Kaisho-s9" kvg:type="㇕a" d="M51.06,51.19c3.19-0.18,26.96-2.25,29.86-2.45c2.42-0.17,4.12,1.14,4.12,2.12c0,6.54-0.62,31.43-0.62,32.2"/>
				<path id="kvg:06f2c-Kaisho-s10" kvg:type="㇐a" d="M51,61.04c5.53-0.09,11.07-0.51,16.59-0.81c1.8-0.1,3.6-0.19,5.33-0.28"/>
				<path id="kvg:06f2c-Kaisho-s11" kvg:type="㇐a" d="M51.26,71.52c5.28-0.08,11.06-0.46,16.33-0.75c1.61-0.09,3.24-0.18,4.84-0.26"/>
				<path id="kvg:06f2c-Kaisho-s12" kvg:type="㇐a" d="M52.09,81.94c6.33-0.11,20.98-0.79,30.96-1.57"/>
			</g>
			<g id="kvg:06f2c-Kaisho-g6" kvg:position="bottom">
				<path id="kvg:06f2c-Kaisho-s13" kvg:type="㇒" d="M59.16,85.55c0.52,1.15-0.14,2.49-1.17,3.3c-3.1,2.43-11.51,7.31-17.72,10.12"/>
				<path id="kvg:06f2c-Kaisho-s14" kvg:type="㇔" d="M74.37,86.51c7.61,3.46,16.6,9.6,18.68,12.51"/>
			</g>
		</g>
	</g>
</g>
</g>
<g id="kvg:StrokeNumbers_06f2c-Kaisho" style="font-size:8;fill:#808080">
	<text transform="matrix(1 0 0 1 12.75 15.13)">1</text>
	<text transform="matrix(1 0 0 1 5.25 42.05)">2</text>
	<text transform="matrix(1 0 0 1 9.75 95.98)">3</text>
	<text transform="matrix(1 0 0 1 41.50 18.50)">4</text>
	<text transform="matrix(1 0 0 1 53.50 11.50)">5</text>
	<text transform="matrix(1 0 0 1 38.25 32.50)">6</text>
	<text transform="matrix(1 0 0 1 34.50 40.50)">7</text>
	<text transform="matrix(1 0 0 1 41.25 58.48)">8</text>
	<text transform="matrix(1 0 0 1 51.75 49.63)">9</text>
	<text transform="matrix(1 0 0 1 53.50 59.50)">10</text>
	<text transform="matrix(1 0 0 1 53.76 69.50)">11</text>
	<text transform="matrix(1 0 0 1 53.57 80.50)">12</text>
	<text transform="matrix(1 0 0 1 39.75 92.83)">13</text>
	<text transform="matrix(1 0 0 1 66.75 93.50)">14</text>
</g>
</svg>
