<?xml version="1.0" encoding="UTF-8"?>
<!--
Copyright (C) 2009/2010/2011 Ulrich Apel.
This work is distributed under the conditions of the Creative Commons 
Attribution-Share Alike 3.0 Licence. This means you are free:
* to Share - to copy, distribute and transmit the work
* to Remix - to adapt the work

Under the following conditions:
* Attribution. You must attribute the work by stating your use of KanjiVG in
  your own copyright header and linking to KanjiVG's website
  (http://kanjivg.tagaini.net)
* Share Alike. If you alter, transform, or build upon this work, you may
  distribute the resulting work only under the same or similar license to this
  one.

See http://creativecommons.org/licenses/by-sa/3.0/ for more details.
-->
<!DOCTYPE svg PUBLIC "-//W3C//DTD SVG 1.0//EN" "http://www.w3.org/TR/2001/REC-SVG-20010904/DTD/svg10.dtd" [
<!ATTLIST g
xmlns:kvg CDATA #FIXED "http://kanjivg.tagaini.net"
kvg:element CDATA #IMPLIED
kvg:variant CDATA #IMPLIED
kvg:partial CDATA #IMPLIED
kvg:original CDATA #IMPLIED
kvg:part CDATA #IMPLIED
kvg:number CDATA #IMPLIED
kvg:tradForm CDATA #IMPLIED
kvg:radicalForm CDATA #IMPLIED
kvg:position CDATA #IMPLIED
kvg:radical CDATA #IMPLIED
kvg:phon CDATA #IMPLIED >
<!ATTLIST path
xmlns:kvg CDATA #FIXED "http://kanjivg.tagaini.net"
kvg:type CDATA #IMPLIED >
]>
<svg xmlns="http://www.w3.org/2000/svg" width="109" height="109" viewBox="0 0 109 109">
<g id="kvg:StrokePaths_06f38-Kaisho" style="fill:none;stroke:#000000;stroke-width:3;stroke-linecap:round;stroke-linejoin:round;">
<g id="kvg:06f38-Kaisho" kvg:element="漸">
	<g id="kvg:06f38-Kaisho-g1" kvg:element="氵" kvg:variant="true" kvg:original="水" kvg:position="left" kvg:radical="general">
		<path id="kvg:06f38-Kaisho-s1" kvg:type="㇔" d="M15.88,17.25c3.48,1.3,9,5.33,9.87,7.34"/>
		<path id="kvg:06f38-Kaisho-s2" kvg:type="㇔" d="M12.75,43c3.79,1.15,9.8,4.72,10.75,6.5"/>
		<path id="kvg:06f38-Kaisho-s3" kvg:type="㇀" d="M10.75,86.71c1.5,1.31,3.31,1.36,4.25-0.25C17.75,81.75,20.5,76,23,70"/>
	</g>
	<g id="kvg:06f38-Kaisho-g2" kvg:element="斬" kvg:position="right">
		<g id="kvg:06f38-Kaisho-g3" kvg:element="車" kvg:position="left">
			<path id="kvg:06f38-Kaisho-s4" kvg:type="㇐" d="M31.04,28.29c0.66,0.4,1.87,0.48,2.53,0.4c9.22-1.19,15.87-2,25.24-3.03c1.1-0.12,1.76,0.19,2.31,0.39"/>
			<path id="kvg:06f38-Kaisho-s5" kvg:type="㇑" d="M30.54,39.4c0.45,0.47,1.02,1.84,1.1,2.46c0.61,4.53,2.27,13.19,3.12,21.77"/>
			<path id="kvg:06f38-Kaisho-s6" kvg:type="㇕a" d="M32.7,40.62c6.82-0.91,21.92-2.62,26.57-2.76c1.93-0.06,2.32,1.24,2.24,2.66c-0.28,4.88-1.83,12.38-3.36,20.38"/>
			<path id="kvg:06f38-Kaisho-s7" kvg:type="㇐a" d="M33.95,50.43c5.67-0.27,11.33-1.14,16.97-1.72c0.63-0.06,1.26-0.13,1.9-0.19"/>
			<path id="kvg:06f38-Kaisho-s8" kvg:type="㇐a" d="M35.24,61.72c5.98-0.94,15.13-2.27,22.92-2.27"/>
			<path id="kvg:06f38-Kaisho-s9" kvg:type="㇐" d="M27.47,74.65c0.86,0.72,2.41,0.81,3.29,0.72c8.84-0.87,19.67-3.12,27.89-3.97c1.43-0.15,2.74-0.16,3.45,0.21"/>
			<path id="kvg:06f38-Kaisho-s10" kvg:type="㇑" d="M44.3,12.63c0.64,0.56,2.12,3.12,2.12,5.33c0,8.29-0.53,69.4-0.66,76.42"/>
		</g>
		<g id="kvg:06f38-Kaisho-g4" kvg:element="斤" kvg:position="right">
			<path id="kvg:06f38-Kaisho-s11" kvg:type="㇒" d="M89.33,15.5c0.04,0.28,0.17,0.83-0.08,1.13c-3.48,4.13-8.42,8.26-15.75,11.81"/>
			<path id="kvg:06f38-Kaisho-s12" kvg:type="㇒" d="M70.51,28.83c0.88,1.9,0.87,3.72,0.87,5.79c0,20.49-0.13,44.38-12.61,55.4"/>
			<path id="kvg:06f38-Kaisho-s13" kvg:type="㇐" d="M73.48,44.85c0.39,0.2,1.92,0.3,2.95,0.12c6.82-1.22,12.08-2.59,18.57-3.21c1.04-0.1,2.85-0.2,3.5,0"/>
			<path id="kvg:06f38-Kaisho-s14" kvg:type="㇑" d="M86.35,45.48c0.84,0.63,1.35,2.84,1.51,4.1c0.17,1.26,0,42.04-0.17,49.92"/>
		</g>
	</g>
</g>
</g>
<g id="kvg:StrokeNumbers_06f38-Kaisho" style="font-size:8;fill:#808080">
	<text transform="matrix(1 0 0 1 8.25 17.50)">1</text>
	<text transform="matrix(1 0 0 1 5.25 42.50)">2</text>
	<text transform="matrix(1 0 0 1 3.75 90.50)">3</text>
	<text transform="matrix(1 0 0 1 31.50 25.50)">4</text>
	<text transform="matrix(1 0 0 1 24.75 46.50)">5</text>
	<text transform="matrix(1 0 0 1 31.50 37.50)">6</text>
	<text transform="matrix(1 0 0 1 36.75 48.50)">7</text>
	<text transform="matrix(1 0 0 1 37.50 58.50)">8</text>
	<text transform="matrix(1 0 0 1 27.75 71.90)">9</text>
	<text transform="matrix(1 0 0 1 33.75 12.50)">10</text>
	<text transform="matrix(1 0 0 1 92.25 15.13)">11</text>
	<text transform="matrix(1 0 0 1 65.25 25.63)">12</text>
	<text transform="matrix(1 0 0 1 74.50 41.50)">13</text>
	<text transform="matrix(1 0 0 1 77.50 53.50)">14</text>
</g>
</svg>
