<?xml version="1.0" encoding="UTF-8"?>
<!--
Copyright (C) 2009/2010/2011 Ulrich Apel.
This work is distributed under the conditions of the Creative Commons 
Attribution-Share Alike 3.0 Licence. This means you are free:
* to Share - to copy, distribute and transmit the work
* to Remix - to adapt the work

Under the following conditions:
* Attribution. You must attribute the work by stating your use of KanjiVG in
  your own copyright header and linking to KanjiVG's website
  (http://kanjivg.tagaini.net)
* Share Alike. If you alter, transform, or build upon this work, you may
  distribute the resulting work only under the same or similar license to this
  one.

See http://creativecommons.org/licenses/by-sa/3.0/ for more details.
-->
<!DOCTYPE svg PUBLIC "-//W3C//DTD SVG 1.0//EN" "http://www.w3.org/TR/2001/REC-SVG-20010904/DTD/svg10.dtd" [
<!ATTLIST g
xmlns:kvg CDATA #FIXED "http://kanjivg.tagaini.net"
kvg:element CDATA #IMPLIED
kvg:variant CDATA #IMPLIED
kvg:partial CDATA #IMPLIED
kvg:original CDATA #IMPLIED
kvg:part CDATA #IMPLIED
kvg:number CDATA #IMPLIED
kvg:tradForm CDATA #IMPLIED
kvg:radicalForm CDATA #IMPLIED
kvg:position CDATA #IMPLIED
kvg:radical CDATA #IMPLIED
kvg:phon CDATA #IMPLIED >
<!ATTLIST path
xmlns:kvg CDATA #FIXED "http://kanjivg.tagaini.net"
kvg:type CDATA #IMPLIED >
]>
<svg xmlns="http://www.w3.org/2000/svg" width="109" height="109" viewBox="0 0 109 109">
<g id="kvg:StrokePaths_06fa1" style="fill:none;stroke:#000000;stroke-width:3;stroke-linecap:round;stroke-linejoin:round;">
<g id="kvg:06fa1" kvg:element="澡">
	<g id="kvg:06fa1-g1" kvg:element="氵" kvg:variant="true" kvg:original="水" kvg:position="left" kvg:radical="general">
		<path id="kvg:06fa1-s1" kvg:type="㇔" d="M18.13,14c4.1,1.78,10.59,7.32,11.62,10.09"/>
		<path id="kvg:06fa1-s2" kvg:type="㇔" d="M13.5,38.25c4.59,1.81,11.85,7.44,13,10.25"/>
		<path id="kvg:06fa1-s3" kvg:type="㇀" d="M12.75,89.71c1.5,1.31,3.31,1.36,4.25-0.25C19.75,84.75,25,74,27.5,68"/>
	</g>
	<g id="kvg:06fa1-g2" kvg:position="right">
		<g id="kvg:06fa1-g3" kvg:element="品" kvg:position="top">
			<g id="kvg:06fa1-g4" kvg:element="口" kvg:position="top">
				<path id="kvg:06fa1-s4" kvg:type="㇑" d="M46.79,12.87c0.48,0.31,0.97,0.56,1.18,0.94c1.67,3.03,2.93,11.02,4.07,16.46"/>
				<path id="kvg:06fa1-s5" kvg:type="㇕b" d="M48.68,14.84C60,14,71.62,12.38,77.25,11.99c2.06-0.15,3.3,1.15,3,2.01c-1.22,3.54-2.28,7.32-4.09,12.21"/>
				<path id="kvg:06fa1-s6" kvg:type="㇐b" d="M53.01,28.78c6.62-0.45,15.75-1.44,24.84-2.13"/>
			</g>
			<g id="kvg:06fa1-g5" kvg:position="bottom">
				<g id="kvg:06fa1-g6" kvg:element="口" kvg:position="left">
					<path id="kvg:06fa1-s7" kvg:type="㇑" d="M36.84,38.15c0.3,0.27,0.61,0.49,0.74,0.83c1.05,2.67,2.48,10.03,3.2,14.83"/>
					<path id="kvg:06fa1-s8" kvg:type="㇕b" d="M39.22,39.44c7.65-0.98,14.33-1.9,17.86-2.25c1.29-0.13,2.07,0.76,1.89,1.51c-0.77,3.12-1.66,7.14-2.8,11.45"/>
					<path id="kvg:06fa1-s9" kvg:type="㇐b" d="M40.92,51.97c4.16-0.4,9.74-0.85,17.49-1.44"/>
				</g>
				<g id="kvg:06fa1-g7" kvg:element="口" kvg:position="right">
					<path id="kvg:06fa1-s10" kvg:type="㇑" d="M68.95,35.44c0.33,0.29,0.67,0.52,0.81,0.88c1.14,2.83,1.38,9.81,2.16,14.89"/>
					<path id="kvg:06fa1-s11" kvg:type="㇕b" d="M71,37.04c8.33-1.04,14.96-2.29,18.82-2.66c1.41-0.14,2.25,0.8,2.05,1.6c-0.83,3.3-1.81,7.64-3.05,12.21"/>
					<path id="kvg:06fa1-s12" kvg:type="㇐b" d="M72.43,50.08c6.3-0.36,8.45-1,18.27-1.48"/>
				</g>
			</g>
		</g>
		<g id="kvg:06fa1-g8" kvg:element="木" kvg:position="bottom">
			<path id="kvg:06fa1-s13" kvg:type="㇐" d="M33.91,66.01c1.55,0.53,3.32,0.7,5.1,0.53c9.09-0.87,39.34-2.88,53.09-3.9c1.77-0.13,2.88,0.09,4.65,0.46"/>
			<path id="kvg:06fa1-s14" kvg:type="㇑" d="M63.57,54.57c1.06,0.46,1.91,2.06,1.91,3.02c0,9.74,0,37.36-0.21,43.16"/>
			<path id="kvg:06fa1-s15" kvg:type="㇒" d="M63.29,65.64c-5.6,8.7-20.6,21.98-32.24,26.91"/>
			<path id="kvg:06fa1-s16" kvg:type="㇏" d="M65.75,64.94c3.88,3.6,22.14,21.68,26.36,25.22c1.43,1.2,2.66,1.72,4.09,2.06"/>
		</g>
	</g>
</g>
</g>
<g id="kvg:StrokeNumbers_06fa1" style="font-size:8;fill:#808080">
	<text transform="matrix(1 0 0 1 11.50 15.50)">1</text>
	<text transform="matrix(1 0 0 1 5.92 39.22)">2</text>
	<text transform="matrix(1 0 0 1 4.50 93.48)">3</text>
	<text transform="matrix(1 0 0 1 40.50 19.50)">4</text>
	<text transform="matrix(1 0 0 1 51.50 11.50)">5</text>
	<text transform="matrix(1 0 0 1 55.50 25.50)">6</text>
	<text transform="matrix(1 0 0 1 31.92 47.18)">7</text>
	<text transform="matrix(1 0 0 1 41.50 35.50)">8</text>
	<text transform="matrix(1 0 0 1 44.50 48.50)">9</text>
	<text transform="matrix(1 0 0 1 60.58 45.50)">10</text>
	<text transform="matrix(1 0 0 1 72.50 34.50)">11</text>
	<text transform="matrix(1 0 0 1 74.50 46.50)">12</text>
	<text transform="matrix(1 0 0 1 32.58 62.50)">13</text>
	<text transform="matrix(1 0 0 1 52.58 59.65)">14</text>
	<text transform="matrix(1 0 0 1 45.25 75.50)">15</text>
	<text transform="matrix(1 0 0 1 76.50 73.50)">16</text>
</g>
</svg>
