<?xml version="1.0" encoding="UTF-8"?>
<!--
Copyright (C) 2009/2010/2011 Ulrich Apel.
This work is distributed under the conditions of the Creative Commons 
Attribution-Share Alike 3.0 Licence. This means you are free:
* to Share - to copy, distribute and transmit the work
* to Remix - to adapt the work

Under the following conditions:
* Attribution. You must attribute the work by stating your use of KanjiVG in
  your own copyright header and linking to KanjiVG's website
  (http://kanjivg.tagaini.net)
* Share Alike. If you alter, transform, or build upon this work, you may
  distribute the resulting work only under the same or similar license to this
  one.

See http://creativecommons.org/licenses/by-sa/3.0/ for more details.
-->
<!DOCTYPE svg PUBLIC "-//W3C//DTD SVG 1.0//EN" "http://www.w3.org/TR/2001/REC-SVG-20010904/DTD/svg10.dtd" [
<!ATTLIST g
xmlns:kvg CDATA #FIXED "http://kanjivg.tagaini.net"
kvg:element CDATA #IMPLIED
kvg:variant CDATA #IMPLIED
kvg:partial CDATA #IMPLIED
kvg:original CDATA #IMPLIED
kvg:part CDATA #IMPLIED
kvg:number CDATA #IMPLIED
kvg:tradForm CDATA #IMPLIED
kvg:radicalForm CDATA #IMPLIED
kvg:position CDATA #IMPLIED
kvg:radical CDATA #IMPLIED
kvg:phon CDATA #IMPLIED >
<!ATTLIST path
xmlns:kvg CDATA #FIXED "http://kanjivg.tagaini.net"
kvg:type CDATA #IMPLIED >
]>
<svg xmlns="http://www.w3.org/2000/svg" width="109" height="109" viewBox="0 0 109 109">
<g id="kvg:StrokePaths_06fdb" style="fill:none;stroke:#000000;stroke-width:3;stroke-linecap:round;stroke-linejoin:round;">
<g id="kvg:06fdb" kvg:element="濛">
	<g id="kvg:06fdb-g1" kvg:element="氵" kvg:variant="true" kvg:original="水" kvg:position="left" kvg:radical="general">
		<path id="kvg:06fdb-s1" kvg:type="㇔" d="M16.88,16c3.66,1.78,9.45,7.32,10.37,10.09"/>
		<path id="kvg:06fdb-s2" kvg:type="㇔" d="M12.5,43.25c4.24,1.46,10.94,5.99,12,8.25"/>
		<path id="kvg:06fdb-s3" kvg:type="㇀" d="M13.75,90.9c2.25,0.6,4.01,0.44,5.01-1.27c2.92-4.97,5.34-10.04,7.99-16.38"/>
	</g>
	<g id="kvg:06fdb-g2" kvg:element="蒙" kvg:position="right">
		<g id="kvg:06fdb-g3" kvg:element="艹" kvg:variant="true" kvg:original="艸" kvg:position="top">
			<path id="kvg:06fdb-s4" kvg:type="㇐" d="M39.2,20.77c1.09,0.53,2.35,0.63,3.44,0.53c9.99-0.96,34.36-2.46,45.88-2.53c1.81-0.01,2.9,0.25,3.8,0.51"/>
			<path id="kvg:06fdb-s5" kvg:type="㇑a" d="M50.5,12.5c0.92,1.02,1.21,1.33,1.31,1.95c0.92,5.85,1.18,11.17,1.44,13.3"/>
			<path id="kvg:06fdb-s6" kvg:type="㇑a" d="M73.05,10.25c0.71,0.75,1.17,1.89,0.94,2.99c-0.71,3.36-1.51,8.97-2.53,13.26"/>
		</g>
		<g id="kvg:06fdb-g4" kvg:position="bottom">
			<g id="kvg:06fdb-g5" kvg:element="冖">
				<path id="kvg:06fdb-s7" kvg:type="㇔" d="M40.58,32.1c0,3.27-2.57,12.25-3.58,14.43"/>
				<path id="kvg:06fdb-s8" kvg:type="㇖b" d="M40.81,35.32c18.79-2.83,46.31-4.37,47.95-4.48c10.71-0.7,4.46,5.41,0.44,8.63"/>
			</g>
			<path id="kvg:06fdb-s9" kvg:type="㇐" d="M48.61,42.03c0.97,0.41,2.73,0.43,3.7,0.41c5.29-0.12,12.44-1.19,23.21-2.39c1.6-0.18,3.03,0.19,3.83,0.4"/>
			<g id="kvg:06fdb-g6" kvg:element="豕">
				<path id="kvg:06fdb-s10" kvg:type="㇐" d="M39.04,52.48c1.35,0.62,3.82,0.65,5.18,0.62c9.23-0.24,30.62-3.34,42.56-3.66c2.25-0.06,3.6,0.29,4.73,0.6"/>
				<path id="kvg:06fdb-s11" kvg:type="㇒" d="M62.31,53.06c0.06,0.34,0.12,0.89-0.12,1.38c-1.45,2.91-9.78,9.3-21.17,13.21"/>
				<path id="kvg:06fdb-s12" kvg:type="㇕v" d="M60.67,60.42c5.32,4.86,11.83,19.58,4.91,35.2c-2.6,5.87-5.83,0.39-6.52-1.46"/>
				<path id="kvg:06fdb-s13" kvg:type="㇒" d="M60.79,64.34c0.06,0.38,0.13,0.99-0.12,1.53c-1.48,3.23-9.98,10.33-21.6,14.68"/>
				<path id="kvg:06fdb-s14" kvg:type="㇒" d="M64.21,72.38c0.07,0.51,0.16,1.32-0.15,2.06c-1.84,4.35-13.33,12.7-27.74,18.54"/>
				<path id="kvg:06fdb-s15" kvg:type="㇒" d="M80.77,57.96c0.04,0.25,0.08,0.64-0.07,1c-0.85,2.12-5.72,6.76-12.39,9.6"/>
				<path id="kvg:06fdb-s16" kvg:type="㇏" d="M68.25,69.74c3.39,2.61,16.69,14.54,21.97,17.5c1.31,0.74,2.32,1.24,3.57,1.49"/>
			</g>
		</g>
	</g>
</g>
</g>
<g id="kvg:StrokeNumbers_06fdb" style="font-size:8;fill:#808080">
	<text transform="matrix(1 0 0 1 9.50 16.50)">1</text>
	<text transform="matrix(1 0 0 1 5.25 43.50)">2</text>
	<text transform="matrix(1 0 0 1 6.50 91.50)">3</text>
	<text transform="matrix(1 0 0 1 34.50 17.50)">4</text>
	<text transform="matrix(1 0 0 1 41.50 10.50)">5</text>
	<text transform="matrix(1 0 0 1 64.50 8.50)">6</text>
	<text transform="matrix(1 0 0 1 34.50 34.18)">7</text>
	<text transform="matrix(1 0 0 1 43.50 31.50)">8</text>
	<text transform="matrix(1 0 0 1 42.50 43.50)">9</text>
	<text transform="matrix(1 0 0 1 39.50 50.50)">10</text>
	<text transform="matrix(1 0 0 1 44.50 61.50)">11</text>
	<text transform="matrix(1 0 0 1 63.50 62.50)">12</text>
	<text transform="matrix(1 0 0 1 48.50 70.50)">13</text>
	<text transform="matrix(1 0 0 1 53.50 77.50)">14</text>
	<text transform="matrix(1 0 0 1 70.50 58.50)">15</text>
	<text transform="matrix(1 0 0 1 75.50 74.50)">16</text>
</g>
</svg>
