<?xml version="1.0" encoding="UTF-8"?>
<!--
Copyright (C) 2009/2010/2011 Ulrich Apel.
This work is distributed under the conditions of the Creative Commons 
Attribution-Share Alike 3.0 Licence. This means you are free:
* to Share - to copy, distribute and transmit the work
* to Remix - to adapt the work

Under the following conditions:
* Attribution. You must attribute the work by stating your use of KanjiVG in
  your own copyright header and linking to KanjiVG's website
  (http://kanjivg.tagaini.net)
* Share Alike. If you alter, transform, or build upon this work, you may
  distribute the resulting work only under the same or similar license to this
  one.

See http://creativecommons.org/licenses/by-sa/3.0/ for more details.
-->
<!DOCTYPE svg PUBLIC "-//W3C//DTD SVG 1.0//EN" "http://www.w3.org/TR/2001/REC-SVG-20010904/DTD/svg10.dtd" [
<!ATTLIST g
xmlns:kvg CDATA #FIXED "http://kanjivg.tagaini.net"
kvg:element CDATA #IMPLIED
kvg:variant CDATA #IMPLIED
kvg:partial CDATA #IMPLIED
kvg:original CDATA #IMPLIED
kvg:part CDATA #IMPLIED
kvg:number CDATA #IMPLIED
kvg:tradForm CDATA #IMPLIED
kvg:radicalForm CDATA #IMPLIED
kvg:position CDATA #IMPLIED
kvg:radical CDATA #IMPLIED
kvg:phon CDATA #IMPLIED >
<!ATTLIST path
xmlns:kvg CDATA #FIXED "http://kanjivg.tagaini.net"
kvg:type CDATA #IMPLIED >
]>
<svg xmlns="http://www.w3.org/2000/svg" width="109" height="109" viewBox="0 0 109 109">
<g id="kvg:StrokePaths_06fe1" style="fill:none;stroke:#000000;stroke-width:3;stroke-linecap:round;stroke-linejoin:round;">
<g id="kvg:06fe1" kvg:element="濡">
	<g id="kvg:06fe1-g1" kvg:element="氵" kvg:variant="true" kvg:original="水" kvg:position="left" kvg:radical="general">
		<path id="kvg:06fe1-s1" kvg:type="㇔" d="M17.13,15.75c4.28,1.3,11.05,5.33,12.12,7.34"/>
		<path id="kvg:06fe1-s2" kvg:type="㇔" d="M13,39.25c4.06,1.19,10.48,4.9,11.5,6.75"/>
		<path id="kvg:06fe1-s3" kvg:type="㇀" d="M14.25,88.21c1.5,1.31,3.31,1.36,4.25-0.25c2.75-4.7,5.5-10.45,8-16.45"/>
	</g>
	<g id="kvg:06fe1-g2" kvg:element="需" kvg:position="right">
		<g id="kvg:06fe1-g3" kvg:element="雨" kvg:variant="true" kvg:position="top">
			<path id="kvg:06fe1-s4" kvg:type="㇐" d="M46,17.07c1.2,0.06,2.97,0.38,4.13,0.17c5.11-0.94,24.54-3.42,30.15-3.54c1.64-0.03,3-0.16,4.5,0.11"/>
			<path id="kvg:06fe1-s5" kvg:type="㇔/㇑" d="M40.73,27.83c-0.21,5.22-2.05,9.99-3.4,15.26"/>
			<path id="kvg:06fe1-s6" kvg:type="㇖b/㇆" d="M41.56,30.26c5.76-1.05,36.56-5.01,48.79-5.01c7.09,0,3.65,3.99-0.72,7.14"/>
			<path id="kvg:06fe1-s7" kvg:type="㇑" d="M65.1,18.93c0.65,1.4,0.94,2.32,0.95,3.69c0.01,0.49-0.2,24.85-0.2,26.2"/>
			<path id="kvg:06fe1-s8" kvg:type="㇔" d="M48.46,34.84c3.11,0.69,7.35,2.76,9.05,3.91"/>
			<path id="kvg:06fe1-s9" kvg:type="㇔" d="M48.06,44.23c2.54,0.67,6.46,3.13,7.85,4.24"/>
			<path id="kvg:06fe1-s10" kvg:type="㇔" d="M73.74,32.47c3.05,0.83,6.5,2.5,7.72,3.2"/>
			<path id="kvg:06fe1-s11" kvg:type="㇔" d="M73.59,42.21c2.99,0.71,7.08,2.84,8.71,4.03"/>
		</g>
		<g id="kvg:06fe1-g4" kvg:element="而" kvg:position="bottom">
			<g id="kvg:06fe1-g5" kvg:position="top">
				<path id="kvg:06fe1-s12" kvg:type="㇐" d="M44.28,58.91c0.85,0.49,2.4,0.63,3.24,0.49c5.39-0.85,30.86-4.93,36.09-4.36c1.41,0.15,2.26,0.23,2.96,0.48"/>
				<path id="kvg:06fe1-s13" kvg:type="㇒" d="M63.63,58.86c0.01,0.23,0.03,0.6-0.03,0.94c-0.39,1.98-2.63,6.31-5.7,8.96"/>
			</g>
			<g id="kvg:06fe1-g6" kvg:position="bottom">
				<g id="kvg:06fe1-g7" kvg:element="冂">
					<path id="kvg:06fe1-s14" kvg:type="㇑" d="M42.56,71.63c0.46,0.93,0.85,2.4,0.97,4.08c0.17,2.46,1.25,16.65,1.61,20.09"/>
					<path id="kvg:06fe1-s15" kvg:type="㇆a" d="M43.6,72.98c6.29-0.74,44.51-4.93,45.75-5.19c2.65-0.56,4.19,0.71,4.15,3.19C93.41,77,92.14,84.25,90.62,90.6c-1.54,6.44-4.84,5.02-6.83,2.61"/>
				</g>
				<path id="kvg:06fe1-s16" kvg:type="㇑" d="M57.23,73.49c0.55,0.61,1.26,1.81,1.31,2.71c0.18,3.02-0.32,15.05-0.32,16.41"/>
				<path id="kvg:06fe1-s17" kvg:type="㇑" d="M73.15,72.02c0.65,1.4,0.93,2.33,0.95,3.69c0.09,5.29-0.5,12.96-0.88,17.76"/>
			</g>
		</g>
	</g>
</g>
</g>
<g id="kvg:StrokeNumbers_06fe1" style="font-size:8;fill:#808080">
	<text transform="matrix(1 0 0 1 9.50 15.50)">1</text>
	<text transform="matrix(1 0 0 1 5.50 39.50)">2</text>
	<text transform="matrix(1 0 0 1 6.50 92.50)">3</text>
	<text transform="matrix(1 0 0 1 41.50 13.50)">4</text>
	<text transform="matrix(1 0 0 1 34.50 30.50)">5</text>
	<text transform="matrix(1 0 0 1 43.25 27.50)">6</text>
	<text transform="matrix(1 0 0 1 58.50 24.50)">7</text>
	<text transform="matrix(1 0 0 1 43.50 37.50)">8</text>
	<text transform="matrix(1 0 0 1 41.50 47.50)">9</text>
	<text transform="matrix(1 0 0 1 68.50 38.50)">10</text>
	<text transform="matrix(1 0 0 1 68.50 47.50)">11</text>
	<text transform="matrix(1 0 0 1 33.50 60.50)">12</text>
	<text transform="matrix(1 0 0 1 51.50 65.50)">13</text>
	<text transform="matrix(1 0 0 1 32.25 82.65)">14</text>
	<text transform="matrix(1 0 0 1 44.25 70.50)">15</text>
	<text transform="matrix(1 0 0 1 48.50 80.50)">16</text>
	<text transform="matrix(1 0 0 1 64.50 78.50)">17</text>
</g>
</svg>
