<?xml version="1.0" encoding="UTF-8"?>
<!--
Copyright (C) 2009/2010/2011 Ulrich Apel.
This work is distributed under the conditions of the Creative Commons
Attribution-Share Alike 3.0 Licence. This means you are free:
* to Share - to copy, distribute and transmit the work
* to Remix - to adapt the work

Under the following conditions:
* Attribution. You must attribute the work by stating your use of KanjiVG in
  your own copyright header and linking to KanjiVG's website
  (http://kanjivg.tagaini.net)
* Share Alike. If you alter, transform, or build upon this work, you may
  distribute the resulting work only under the same or similar license to this
  one.

See http://creativecommons.org/licenses/by-sa/3.0/ for more details.
-->
<!DOCTYPE svg PUBLIC "-//W3C//DTD SVG 1.0//EN" "http://www.w3.org/TR/2001/REC-SVG-20010904/DTD/svg10.dtd" [
<!ATTLIST g
xmlns:kvg CDATA #FIXED "http://kanjivg.tagaini.net"
kvg:element CDATA #IMPLIED
kvg:variant CDATA #IMPLIED
kvg:partial CDATA #IMPLIED
kvg:original CDATA #IMPLIED
kvg:part CDATA #IMPLIED
kvg:number CDATA #IMPLIED
kvg:tradForm CDATA #IMPLIED
kvg:radicalForm CDATA #IMPLIED
kvg:position CDATA #IMPLIED
kvg:radical CDATA #IMPLIED
kvg:phon CDATA #IMPLIED >
<!ATTLIST path
xmlns:kvg CDATA #FIXED "http://kanjivg.tagaini.net"
kvg:type CDATA #IMPLIED >
]>
<svg xmlns="http://www.w3.org/2000/svg" width="109" height="109" viewBox="0 0 109 109">
<g id="kvg:StrokePaths_07006" style="fill:none;stroke:#000000;stroke-width:3;stroke-linecap:round;stroke-linejoin:round">
<g id="kvg:07006" kvg:element="瀆">
	<g id="kvg:07006-g1" kvg:element="氵" kvg:variant="true" kvg:original="水" kvg:position="left" kvg:radical="general">
		<path id="kvg:07006-s1" kvg:type="㇔" d="m 15.88,15.75 c 3.31,1.47 7.54,5.05 8.37,7.34"/>
		<path id="kvg:07006-s2" kvg:type="㇔" d="m 12,39.75 c 3.79,1.15 8.8,4.97 9.75,6.75"/>
		<path id="kvg:07006-s3" kvg:type="㇀" d="m 12,90.46 c 2.38,0.17 3.31,-0.89 4.25,-2.5 2.75,-4.7 5.5,-10.45 8,-16.45"/>
	</g>
	<g id="kvg:07006-g2" kvg:element="𧶠" kvg:variant="true" kvg:position="right">
		<g id="kvg:07006-g3" kvg:position="top">
			<g id="kvg:07006-g4" kvg:element="士">
				<path id="kvg:07006-s4" kvg:type="㇐" d="m 46.06,19.15 c 0.9,0.35 2.54,0.41 3.43,0.35 9.31,-0.59 28.99,-2.7 39.92,-3.46 1.49,-0.1 2.39,0.17 3.13,0.35"/>
				<path id="kvg:07006-s5" kvg:type="㇑a" d="m 67.34,10 c 0.74,0.33 1.18,1.48 1.33,2.13 0.15,0.66 0,10.16 -0.15,14.26"/>
				<path id="kvg:07006-s6" kvg:type="㇐" d="m 51.66,29.03 c 0.71,0.24 2.02,0.27 2.73,0.24 9.43,-0.29 18.92,-2.73 28.88,-2.7 1.19,0 1.9,0.12 2.5,0.24"/>
			</g>
			<g id="kvg:07006-g5" kvg:element="罒" kvg:variant="true" kvg:original="网">
				<path id="kvg:07006-s7" kvg:type="㇑" d="m 44.42,35.68 c 0.24,0.28 0.48,0.51 0.59,0.86 0.82,2.75 2.81,10.34 3.38,15.29"/>
				<path id="kvg:07006-s8" kvg:type="㇕" d="m 45.9,37.55 c 5.24,-1.08 43.84,-4.51 46.63,-4.87 1.02,-0.13 2.4,0.93 2.12,2.48 -0.57,3.23 -1.57,9.27 -3.09,13.88"/>
				<path id="kvg:07006-s9" kvg:type="㇒" d="m 62.4,38.06 c 0.05,0.22 0.05,0.57 -0.09,0.9 -1.26,2.87 -2.87,5.06 -8.23,7.84"/>
				<path id="kvg:07006-s10" kvg:type="㇄" d="m 73.32,35.58 c 0.56,0.37 1.05,0.81 1.05,1.38 0,0.77 -0.17,2.21 -0.17,2.76 0,1.5 1.93,2.12 5.62,2.12 3.33,0 5.79,0 7.2,-0.48"/>
				<path id="kvg:07006-s11" kvg:type="㇐" d="M 49.13,50.33 C 52.4,49.92 87.45,47.31 91.94,46.68"/>
			</g>
		</g>
		<g id="kvg:07006-g6" kvg:element="貝" kvg:position="bottom">
			<g id="kvg:07006-g7" kvg:element="目" kvg:position="top">
				<path id="kvg:07006-s12" kvg:type="㇑" d="m 52.79,56.57 c 0.5,1.09 1.22,1.9 1.22,3.35 0,1.45 0.23,22.63 -0.36,28.72"/>
				<path id="kvg:07006-s13" kvg:type="㇕a" d="m 54.85,58.74 c 2.82,-0.18 25.8,-2.43 28.37,-2.64 2.14,-0.18 3.28,0.97 3.28,2.28 0,3.21 -0.63,26.56 -0.63,27.61"/>
				<path id="kvg:07006-s14" kvg:type="㇐a" d="m 54.07,67.23 c 5.27,-0.4 27.21,-2.37 31.73,-2.37"/>
				<path id="kvg:07006-s15" kvg:type="㇐a" d="M 54.3,77.17 C 62.25,76.4 77.4,75.31 85.84,75.16"/>
				<path id="kvg:07006-s16" kvg:type="㇐a" d="m 53.94,86.3 c 7.95,-0.58 24.65,-1.62 31.9,-1.62"/>
			</g>
			<g id="kvg:07006-g8" kvg:element="八" kvg:position="bottom">
				<path id="kvg:07006-s17" kvg:type="㇒" d="m 61.29,89.76 c 0.46,0.94 -0.34,1.86 -1.25,2.55 -2.72,2.07 -9.88,6.49 -15.33,8.93"/>
				<path id="kvg:07006-s18" kvg:type="㇔" d="m 77.44,90.36 c 6.55,2.22 13.18,7.01 14.83,9.19"/>
			</g>
		</g>
	</g>
</g>
</g>
<g id="kvg:StrokeNumbers_07006" style="font-size:8;fill:#808080">
	<text transform="matrix(1 0 0 1 8.7281008 12.767094)">1</text>
	<text transform="matrix(1 0 0 1 7.3797579 38.54599)">2</text>
	<text transform="matrix(1 0 0 1 6.2495298 95.752159)">3</text>
	<text transform="matrix(1 0 0 1 32.589397 16.030207)">4</text>
	<text transform="matrix(1 0 0 1 53.365791 10.05045)">5</text>
	<text transform="matrix(1 0 0 1 38.561077 25.84321)">6</text>
	<text transform="matrix(1 0 0 1 31.957367 42.84602)">7</text>
	<text transform="matrix(1 0 0 1 36.4543 34.573975)">8</text>
	<text transform="matrix(1 0 0 1 46.143177 40.36805)">9</text>
	<text transform="matrix(1 0 0 1 67.635162 38.733101)">10</text>
	<text transform="matrix(1 0 0 1 55.057674 47.615273)">11</text>
	<text transform="matrix(1 0 0 1 34.90448 61.889641)">12</text>
	<text transform="matrix(1 0 0 1 46.402065 54.894485)">13</text>
	<text transform="matrix(1 0 0 1 49.519024 63.612625)">14</text>
	<text transform="matrix(1 0 0 1 49.444576 72.349785)">15</text>
	<text transform="matrix(1 0 0 1 49.269089 82.246788)">16</text>
	<text transform="matrix(1 0 0 1 39.884808 91.536293)">17</text>
	<text transform="matrix(1 0 0 1 59.487877 91.051926)">18</text>
</g>
</svg>
