<?xml version="1.0" encoding="UTF-8"?>
<!--
Copyright (C) 2009/2010/2011 Ulrich Apel.
This work is distributed under the conditions of the Creative Commons 
Attribution-Share Alike 3.0 Licence. This means you are free:
* to Share - to copy, distribute and transmit the work
* to Remix - to adapt the work

Under the following conditions:
* Attribution. You must attribute the work by stating your use of KanjiVG in
  your own copyright header and linking to KanjiVG's website
  (http://kanjivg.tagaini.net)
* Share Alike. If you alter, transform, or build upon this work, you may
  distribute the resulting work only under the same or similar license to this
  one.

See http://creativecommons.org/licenses/by-sa/3.0/ for more details.
-->
<!DOCTYPE svg PUBLIC "-//W3C//DTD SVG 1.0//EN" "http://www.w3.org/TR/2001/REC-SVG-20010904/DTD/svg10.dtd" [
<!ATTLIST g
xmlns:kvg CDATA #FIXED "http://kanjivg.tagaini.net"
kvg:element CDATA #IMPLIED
kvg:variant CDATA #IMPLIED
kvg:partial CDATA #IMPLIED
kvg:original CDATA #IMPLIED
kvg:part CDATA #IMPLIED
kvg:number CDATA #IMPLIED
kvg:tradForm CDATA #IMPLIED
kvg:radicalForm CDATA #IMPLIED
kvg:position CDATA #IMPLIED
kvg:radical CDATA #IMPLIED
kvg:phon CDATA #IMPLIED >
<!ATTLIST path
xmlns:kvg CDATA #FIXED "http://kanjivg.tagaini.net"
kvg:type CDATA #IMPLIED >
]>
<svg xmlns="http://www.w3.org/2000/svg" width="109" height="109" viewBox="0 0 109 109">
<g id="kvg:StrokePaths_070ad" style="fill:none;stroke:#000000;stroke-width:3;stroke-linecap:round;stroke-linejoin:round;">
<g id="kvg:070ad" kvg:element="炭">
	<g id="kvg:070ad-g1" kvg:element="山" kvg:position="top" kvg:radical="nelson">
		<path id="kvg:070ad-s1" kvg:type="㇑a" d="M52.51,13.38c0.99,0.99,1.86,2.62,1.86,3.9c0,1.97-0.19,9.22-0.19,13.98"/>
		<path id="kvg:070ad-s2" kvg:type="㇄a" d="M29.68,21c0.56,0.33,0.95,1.5,0.87,2.66c-0.17,2.59-0.42,5.47-0.84,9.26c-0.17,1.52,1.09,2.64,2.36,2.28c8.43-2.45,43.33-5.17,48.35-5.3"/>
		<path id="kvg:070ad-s3" kvg:type="㇑" d="M81.02,16.62c0.93,0.93,1.23,2,1.12,3.15c-0.28,2.96-0.62,6.15-0.84,9.23c-0.08,1.17-0.15,2.33-0.19,3.46"/>
	</g>
	<g id="kvg:070ad-g2" kvg:element="灰" kvg:position="bottom">
		<g id="kvg:070ad-g3" kvg:element="厂" kvg:position="tare">
			<path id="kvg:070ad-s4" kvg:type="㇐" d="M25.72,47.15c2.42,0.61,4.94,0.29,7.4,0.11c12.69-0.88,29.83-3.41,43.25-3.89c3.06-0.11,6.15-0.2,9.19,0.26"/>
			<path id="kvg:070ad-s5" kvg:type="㇒" d="M27.43,48.16c0.83,0.83,1.23,2.03,1.18,3.58c-0.49,15.14-2.36,28.89-12.56,40.52"/>
		</g>
		<g id="kvg:070ad-g4" kvg:element="火" kvg:radical="tradit">
			<path id="kvg:070ad-s6" kvg:type="㇔" d="M37.54,62.62c2.4,2.09,5.88,8.01,6.53,10.11"/>
			<path id="kvg:070ad-s7" kvg:type="㇒" d="M80.4,56.21c0.33,1.17,0.1,2.5-0.66,3.44c-2.61,3.23-7.93,8.93-11.23,11.3"/>
			<path id="kvg:070ad-s8" kvg:type="㇒" d="M56.94,51.76c0.9,0.9,1.03,2.23,0.99,3.75C57.25,81.5,44.12,91.25,32.5,96.25"/>
			<path id="kvg:070ad-s9" kvg:type="㇏" d="M57.51,67.62c8.25,11.12,15.93,19.16,22.88,23.97c2.25,1.55,4.48,2.91,7.61,3.99"/>
		</g>
	</g>
</g>
</g>
<g id="kvg:StrokeNumbers_070ad" style="font-size:8;fill:#808080">
	<text transform="matrix(1 0 0 1 45.50 13.50)">1</text>
	<text transform="matrix(1 0 0 1 21.50 19.50)">2</text>
	<text transform="matrix(1 0 0 1 72.50 16.50)">3</text>
	<text transform="matrix(1 0 0 1 27.50 44.50)">4</text>
	<text transform="matrix(1 0 0 1 20.25 54.13)">5</text>
	<text transform="matrix(1 0 0 1 34.50 58.50)">6</text>
	<text transform="matrix(1 0 0 1 73.50 56.50)">7</text>
	<text transform="matrix(1 0 0 1 48.75 55.63)">8</text>
	<text transform="matrix(1 0 0 1 58.50 83.50)">9</text>
</g>
</svg>
