<?xml version="1.0" encoding="UTF-8"?>
<!--
Copyright (C) 2009/2010/2011 Ulrich Apel.
This work is distributed under the conditions of the Creative Commons
Attribution-Share Alike 3.0 Licence. This means you are free:
* to Share - to copy, distribute and transmit the work
* to Remix - to adapt the work

Under the following conditions:
* Attribution. You must attribute the work by stating your use of KanjiVG in
  your own copyright header and linking to KanjiVG's website
  (http://kanjivg.tagaini.net)
* Share Alike. If you alter, transform, or build upon this work, you may
  distribute the resulting work only under the same or similar license to this
  one.

See http://creativecommons.org/licenses/by-sa/3.0/ for more details.
-->
<!DOCTYPE svg PUBLIC "-//W3C//DTD SVG 1.0//EN" "http://www.w3.org/TR/2001/REC-SVG-20010904/DTD/svg10.dtd" [
<!ATTLIST g
xmlns:kvg CDATA #FIXED "http://kanjivg.tagaini.net"
kvg:element CDATA #IMPLIED
kvg:variant CDATA #IMPLIED
kvg:partial CDATA #IMPLIED
kvg:original CDATA #IMPLIED
kvg:part CDATA #IMPLIED
kvg:number CDATA #IMPLIED
kvg:tradForm CDATA #IMPLIED
kvg:radicalForm CDATA #IMPLIED
kvg:position CDATA #IMPLIED
kvg:radical CDATA #IMPLIED
kvg:phon CDATA #IMPLIED >
<!ATTLIST path
xmlns:kvg CDATA #FIXED "http://kanjivg.tagaini.net"
kvg:type CDATA #IMPLIED >
]>
<svg xmlns="http://www.w3.org/2000/svg" width="109" height="109" viewBox="0 0 109 109" xmlns:kvg="https://kanjivg.tagaini.net/">
<g id="kvg:StrokePaths_070b7" style="fill:none;stroke:#000000;stroke-width:3;stroke-linecap:round;stroke-linejoin:round;">
<g id="kvg:070b7" kvg:element="炷">
	<g id="kvg:070b7-g1" kvg:element="火" kvg:position="left" kvg:radical="general">
		<path id="kvg:070b7-s1" kvg:type="㇔" d="M13.99,36.75c2.05,3.93,5.03,15.07,5.59,19"/>
		<path id="kvg:070b7-s2" kvg:type="㇒" d="M42.03,31.25c0.76,0.77,0.61,2.28-0.08,3.47c-0.69,1.19-7.27,10-10.72,12.78"/>
		<path id="kvg:070b7-s3" kvg:type="㇒" d="M27.75,15.75c0.76,0.75,1.52,1.75,1.53,3c0.22,51.5-3.78,60-15.78,74.75"/>
		<path id="kvg:070b7-s4" kvg:type="㇔/㇏" d="M29.5,66.5c4.26,2.73,9.63,11.38,10.75,15.25"/>
	</g>
	<g id="kvg:070b7-g2" kvg:element="主" kvg:position="right">
		<g id="kvg:070b7-g3" kvg:element="丶" kvg:position="top">
			<path id="kvg:070b7-s5" kvg:type="㇑a/㇔" d="M68.57,18.53c0.82,1.22,1.02,2.32,1.02,4.53c0,2.74,0,8.68,0,10.28"/>
		</g>
		<g id="kvg:070b7-g4" kvg:element="王" kvg:original="玉" kvg:partial="true" kvg:position="bottom">
			<path id="kvg:070b7-s6" kvg:type="㇐" d="M53.69,36.21c1.49,0.98,4.33-0.01,5.93-0.26c7.4-1.16,15.13-2.4,23.12-3.75c1.74-0.29,3.51-0.34,5.2,0.39"/>
			<path id="kvg:070b7-s7" kvg:type="㇑a" d="M69.79,35.14c1.06,1.26,1.22,2.8,1.22,5.01c0,6.83,0,41.12,0,48.05"/>
			<path id="kvg:070b7-s8" kvg:type="㇐" d="M55.93,61.73c1.94,0.65,4.12,0.24,5.62,0.02c7.79-1.17,14.67-2.03,19.36-2.53c1.83-0.19,3.81-0.46,5.61,0.16"/>
			<path id="kvg:070b7-s9" kvg:type="㇐" d="M51.04,90.23c2.58,1.07,5.63,0.22,8.26-0.08c9.47-1.09,19.61-2.02,28.02-2.34c2.4-0.09,5.47-0.64,7.75,0.45"/>
		</g>
	</g>
</g>
</g>
<g id="kvg:StrokeNumbers_070b7" style="font-size:8;fill:#808080">
	<text transform="matrix(1 0 0 1 7.85 35.50)">1</text>
	<text transform="matrix(1 0 0 1 34.50 29.50)">2</text>
	<text transform="matrix(1 0 0 1 18.71 16.50)">3</text>
	<text transform="matrix(1 0 0 1 32.54 65.85)">4</text>
	<text transform="matrix(1 0 0 1 62.66 20.23)">5</text>
	<text transform="matrix(1 0 0 1 52.87 34.76)">6</text>
	<text transform="matrix(1 0 0 1 62.66 43.48)">7</text>
	<text transform="matrix(1 0 0 1 48.39 64.32)">8</text>
	<text transform="matrix(1 0 0 1 48.19 86.85)">9</text>
</g>
</svg>
