<?xml version="1.0" encoding="UTF-8"?>
<!--
Copyright (C) 2009/2010/2011 Ulrich Apel.
This work is distributed under the conditions of the Creative Commons 
Attribution-Share Alike 3.0 Licence. This means you are free:
* to Share - to copy, distribute and transmit the work
* to Remix - to adapt the work

Under the following conditions:
* Attribution. You must attribute the work by stating your use of KanjiVG in
  your own copyright header and linking to KanjiVG's website
  (http://kanjivg.tagaini.net)
* Share Alike. If you alter, transform, or build upon this work, you may
  distribute the resulting work only under the same or similar license to this
  one.

See http://creativecommons.org/licenses/by-sa/3.0/ for more details.
-->
<!DOCTYPE svg PUBLIC "-//W3C//DTD SVG 1.0//EN" "http://www.w3.org/TR/2001/REC-SVG-20010904/DTD/svg10.dtd" [
<!ATTLIST g
xmlns:kvg CDATA #FIXED "http://kanjivg.tagaini.net"
kvg:element CDATA #IMPLIED
kvg:variant CDATA #IMPLIED
kvg:partial CDATA #IMPLIED
kvg:original CDATA #IMPLIED
kvg:part CDATA #IMPLIED
kvg:number CDATA #IMPLIED
kvg:tradForm CDATA #IMPLIED
kvg:radicalForm CDATA #IMPLIED
kvg:position CDATA #IMPLIED
kvg:radical CDATA #IMPLIED
kvg:phon CDATA #IMPLIED >
<!ATTLIST path
xmlns:kvg CDATA #FIXED "http://kanjivg.tagaini.net"
kvg:type CDATA #IMPLIED >
]>
<svg xmlns="http://www.w3.org/2000/svg" width="109" height="109" viewBox="0 0 109 109">
<g id="kvg:StrokePaths_07119" style="fill:none;stroke:#000000;stroke-width:3;stroke-linecap:round;stroke-linejoin:round;">
<g id="kvg:07119" kvg:element="焙">
	<g id="kvg:07119-g1" kvg:element="火" kvg:position="left" kvg:radical="general">
		<path id="kvg:07119-s1" kvg:type="㇔" d="M11.74,37c2.88,3.78,7.06,14.47,7.84,18.25"/>
		<path id="kvg:07119-s2" kvg:type="㇒" d="M41.56,31.25c0.73,0.84,0.56,2.45-0.1,3.75c-0.66,1.3-6.94,10.97-10.23,14"/>
		<path id="kvg:07119-s3" kvg:type="㇒" d="M27.25,14.25c0.76,0.79,1.02,1.83,1.03,3.14C28.5,71.38,24.5,82.12,12,95.75"/>
		<path id="kvg:07119-s4" kvg:type="㇔/㇏" d="M28.75,66.75c4.55,3.04,10.3,12.69,11.5,17"/>
	</g>
	<g id="kvg:07119-g2" kvg:position="right">
		<g id="kvg:07119-g3" kvg:element="立" kvg:position="top">
			<g id="kvg:07119-g4" kvg:element="亠" kvg:position="top">
				<path id="kvg:07119-s5" kvg:type="㇑a" d="M67.75,13.25c1,0.75,1.5,0.75,1.5,2.5s0,6.25,0,11"/>
				<path id="kvg:07119-s6" kvg:type="㇐" d="M48,28.29c1.39,0.27,3.02,0.31,4.41,0.27c7.85-0.23,24.6-2.87,36.47-3.06c2.32-0.04,3.71,0.13,4.87,0.26"/>
			</g>
			<g id="kvg:07119-g5" kvg:position="bottom">
				<path id="kvg:07119-s7" kvg:type="㇔" d="M54.75,34.5c3.72,6.25,5.41,12.63,5.75,16.75"/>
				<path id="kvg:07119-s8" kvg:type="㇒" d="M83.11,30.5c0.66,0.63,0.74,0.94,0.66,1.46C83.24,35.51,78.83,46.29,77.5,49"/>
				<path id="kvg:07119-s9" kvg:type="㇐" d="M42.75,55.54c1.78,0.48,3.88,0.67,5.65,0.48c19.43-2.07,23.6-2.68,46.11-3.66c2.97-0.13,4.76,0.23,6.24,0.47"/>
			</g>
		</g>
		<g id="kvg:07119-g6" kvg:element="口" kvg:position="bottom">
			<path id="kvg:07119-s10" kvg:type="㇑" d="M50.25,66.62c0.46,0.48,0.92,0.88,1.12,1.48c1.58,4.76,3.9,19.6,4.98,28.15"/>
			<path id="kvg:07119-s11" kvg:type="㇕b" d="M52.1,68.01C61.25,67,80,65.25,84.71,64.99c3.28-0.18,4.96,0.83,4.35,3.2c-1.82,7.06-2.82,13.81-4.28,23.4"/>
			<path id="kvg:07119-s12" kvg:type="㇐b" d="M56.57,93.29C64.25,92.5,76.5,92,87.24,91.28"/>
		</g>
	</g>
</g>
</g>
<g id="kvg:StrokeNumbers_07119" style="font-size:8;fill:#808080">
	<text transform="matrix(1 0 0 1 5.50 36.50)">1</text>
	<text transform="matrix(1 0 0 1 35.50 27.50)">2</text>
	<text transform="matrix(1 0 0 1 17.50 14.50)">3</text>
	<text transform="matrix(1 0 0 1 31.50 66.50)">4</text>
	<text transform="matrix(1 0 0 1 58.25 12.50)">5</text>
	<text transform="matrix(1 0 0 1 46.50 25.50)">6</text>
	<text transform="matrix(1 0 0 1 48.25 40.50)">7</text>
	<text transform="matrix(1 0 0 1 74.25 36.60)">8</text>
	<text transform="matrix(1 0 0 1 40.50 52.50)">9</text>
	<text transform="matrix(1 0 0 1 41.50 73.45)">10</text>
	<text transform="matrix(1 0 0 1 53.50 64.38)">11</text>
	<text transform="matrix(1 0 0 1 59.25 89.30)">12</text>
</g>
</svg>
