<?xml version="1.0" encoding="UTF-8"?>
<!--
Copyright (C) 2009/2010/2011 Ulrich Apel.
This work is distributed under the conditions of the Creative Commons 
Attribution-Share Alike 3.0 Licence. This means you are free:
* to Share - to copy, distribute and transmit the work
* to Remix - to adapt the work

Under the following conditions:
* Attribution. You must attribute the work by stating your use of KanjiVG in
  your own copyright header and linking to KanjiVG's website
  (http://kanjivg.tagaini.net)
* Share Alike. If you alter, transform, or build upon this work, you may
  distribute the resulting work only under the same or similar license to this
  one.

See http://creativecommons.org/licenses/by-sa/3.0/ for more details.
-->
<!DOCTYPE svg PUBLIC "-//W3C//DTD SVG 1.0//EN" "http://www.w3.org/TR/2001/REC-SVG-20010904/DTD/svg10.dtd" [
<!ATTLIST g
xmlns:kvg CDATA #FIXED "http://kanjivg.tagaini.net"
kvg:element CDATA #IMPLIED
kvg:variant CDATA #IMPLIED
kvg:partial CDATA #IMPLIED
kvg:original CDATA #IMPLIED
kvg:part CDATA #IMPLIED
kvg:number CDATA #IMPLIED
kvg:tradForm CDATA #IMPLIED
kvg:radicalForm CDATA #IMPLIED
kvg:position CDATA #IMPLIED
kvg:radical CDATA #IMPLIED
kvg:phon CDATA #IMPLIED >
<!ATTLIST path
xmlns:kvg CDATA #FIXED "http://kanjivg.tagaini.net"
kvg:type CDATA #IMPLIED >
]>
<svg xmlns="http://www.w3.org/2000/svg" width="109" height="109" viewBox="0 0 109 109">
<g id="kvg:StrokePaths_07114-Kaisho" style="fill:none;stroke:#000000;stroke-width:3;stroke-linecap:round;stroke-linejoin:round;">
<g id="kvg:07114-Kaisho" kvg:element="焔">
	<g id="kvg:07114-Kaisho-g1" kvg:element="火" kvg:position="left" kvg:radical="tradit">
		<path id="kvg:07114-Kaisho-s1" kvg:type="㇔" d="M14.74,38c1.59,3.47,3.91,13.28,4.34,16.75"/>
		<path id="kvg:07114-Kaisho-s2" kvg:type="㇒" d="M42.1,30.75c0.7,0.7,0.51,2.12-0.12,3.2c-0.63,1.08-6.6,9.03-9.75,11.55"/>
		<path id="kvg:07114-Kaisho-s3" kvg:type="㇒" d="M27.75,16.25c0.76,0.75,1.52,1.75,1.53,3C29.5,70.75,25.5,81,13,94"/>
		<path id="kvg:07114-Kaisho-s4" kvg:type="㇔/㇏" d="M29.75,65c4.75,2.64,10.75,11.01,12,14.75"/>
	</g>
	<g id="kvg:07114-Kaisho-g2" kvg:position="right">
		<g id="kvg:07114-Kaisho-g3" kvg:element="𠂊" kvg:variant="true" kvg:original="勹" kvg:position="top">
			<g id="kvg:07114-Kaisho-g4" kvg:element="丿" kvg:radical="nelson">
				<path id="kvg:07114-Kaisho-s5" kvg:type="㇒" d="M64.5,12c0.06,0.87,0.13,2.25-0.12,3.5C62.92,22.88,54.51,39.08,43,49"/>
			</g>
			<path id="kvg:07114-Kaisho-s6" kvg:type="㇇" d="M64,24.38c0.59,0,1.57,0.42,2.79,0.29c4.67-0.5,13.85-3.32,16.14-3.94c1.81-0.49,3.31,0.51,2.31,2.76c-2.59,5.84-8.5,15-14.75,22.25"/>
		</g>
		<g id="kvg:07114-Kaisho-g5" kvg:element="旧" kvg:position="bottom">
			<g id="kvg:07114-Kaisho-g6" kvg:element="丨" kvg:position="left">
				<path id="kvg:07114-Kaisho-s7" kvg:type="㇑" d="M48.66,54.69c0.65,0.26,1.04,1.18,1.17,1.7c0.13,0.52-0.3,35.09-0.43,38.36"/>
			</g>
			<g id="kvg:07114-Kaisho-g7" kvg:element="日" kvg:position="right">
				<path id="kvg:07114-Kaisho-s8" kvg:type="㇑" d="M65.86,54.03c0.38,0.92,0.75,1.38,0.75,2.6c0,1.32,1.2,31.1,1.2,37.22"/>
				<path id="kvg:07114-Kaisho-s9" kvg:type="㇕a" d="M66.64,55.88c2.13-0.15,20.7-2.96,22.64-3.14c1.62-0.15,2.35,1.09,2.23,2c-0.25,1.84-1,36.47-1,37.39"/>
				<path id="kvg:07114-Kaisho-s10" kvg:type="㇐a" d="M67.72,73.13c4.04-0.36,8.05-1.02,12.06-1.58c1.17-0.16,2.32-0.32,3.42-0.47"/>
				<path id="kvg:07114-Kaisho-s11" kvg:type="㇐a" d="M68.64,90.76c5.97-0.28,15.17-1.48,21.95-1.53"/>
			</g>
		</g>
	</g>
</g>
</g>
<g id="kvg:StrokeNumbers_07114-Kaisho" style="font-size:8;fill:#808080">
	<text transform="matrix(1 0 0 1 7.50 36.50)">1</text>
	<text transform="matrix(1 0 0 1 38.50 27.50)">2</text>
	<text transform="matrix(1 0 0 1 18.50 16.50)">3</text>
	<text transform="matrix(1 0 0 1 32.50 64.50)">4</text>
	<text transform="matrix(1 0 0 1 56.50 11.50)">5</text>
	<text transform="matrix(1 0 0 1 69.50 20.50)">6</text>
	<text transform="matrix(1 0 0 1 41.50 57.50)">7</text>
	<text transform="matrix(1 0 0 1 58.50 61.50)">8</text>
	<text transform="matrix(1 0 0 1 71.50 52.50)">9</text>
	<text transform="matrix(1 0 0 1 70.50 69.50)">10</text>
	<text transform="matrix(1 0 0 1 71.50 87.50)">11</text>
</g>
</svg>
