<?xml version="1.0" encoding="UTF-8"?>
<!--
Copyright (C) 2009/2010/2011 Ulrich Apel.
This work is distributed under the conditions of the Creative Commons 
Attribution-Share Alike 3.0 Licence. This means you are free:
* to Share - to copy, distribute and transmit the work
* to Remix - to adapt the work

Under the following conditions:
* Attribution. You must attribute the work by stating your use of KanjiVG in
  your own copyright header and linking to KanjiVG's website
  (http://kanjivg.tagaini.net)
* Share Alike. If you alter, transform, or build upon this work, you may
  distribute the resulting work only under the same or similar license to this
  one.

See http://creativecommons.org/licenses/by-sa/3.0/ for more details.
-->
<!DOCTYPE svg PUBLIC "-//W3C//DTD SVG 1.0//EN" "http://www.w3.org/TR/2001/REC-SVG-20010904/DTD/svg10.dtd" [
<!ATTLIST g
xmlns:kvg CDATA #FIXED "http://kanjivg.tagaini.net"
kvg:element CDATA #IMPLIED
kvg:variant CDATA #IMPLIED
kvg:partial CDATA #IMPLIED
kvg:original CDATA #IMPLIED
kvg:part CDATA #IMPLIED
kvg:number CDATA #IMPLIED
kvg:tradForm CDATA #IMPLIED
kvg:radicalForm CDATA #IMPLIED
kvg:position CDATA #IMPLIED
kvg:radical CDATA #IMPLIED
kvg:phon CDATA #IMPLIED >
<!ATTLIST path
xmlns:kvg CDATA #FIXED "http://kanjivg.tagaini.net"
kvg:type CDATA #IMPLIED >
]>
<svg xmlns="http://www.w3.org/2000/svg" width="109" height="109" viewBox="0 0 109 109">
<g id="kvg:StrokePaths_0711a" style="fill:none;stroke:#000000;stroke-width:3;stroke-linecap:round;stroke-linejoin:round;">
<g id="kvg:0711a" kvg:element="焚">
	<g id="kvg:0711a-g1" kvg:element="林" kvg:position="top">
		<g id="kvg:0711a-g2" kvg:element="木" kvg:variant="true" kvg:position="left">
			<path id="kvg:0711a-s1" kvg:type="㇐" d="M16.16,28.07c0.82,0.24,3.31,0.7,5.5,0.5c7.7-0.71,14.04-2.08,22.29-2.55c2.19-0.13,3.85-0.71,5.22-0.47"/>
			<path id="kvg:0711a-s2" kvg:type="㇑" d="M33.57,12.38c0.68,0.62,1.61,2.01,1.61,2.74c0,8.14-0.23,26.39-0.23,36.45"/>
			<path id="kvg:0711a-s3" kvg:type="㇒" d="M34.74,27.47c-3.49,7.03-13.79,16.79-21,20.34"/>
			<path id="kvg:0711a-s4" kvg:type="㇔/㇏" d="M38.11,31.04c3.39,1.96,7.14,6.21,9.36,9.84"/>
		</g>
		<g id="kvg:0711a-g3" kvg:element="木" kvg:position="right">
			<path id="kvg:0711a-s5" kvg:type="㇐" d="M56.52,25.35c0.57,0.17,1.33,0.45,2.85,0.52c4.18,0.17,16.73-1.21,27.19-2.07c1.52-0.12,2.84-0.17,3.79,0"/>
			<path id="kvg:0711a-s6" kvg:type="㇑" d="M71.06,11.5c1.17,0.34,2.11,2.51,2.11,3.24c0,5.51,0,31.21-0.23,35.51"/>
			<path id="kvg:0711a-s7" kvg:type="㇒" d="M72.99,24.4c-2.93,7.06-12.05,16.87-18.85,20.49"/>
			<path id="kvg:0711a-s8" kvg:type="㇏" d="M72.37,25.7c5.52,6.37,14.35,14.54,18.83,17.05c1.28,0.72,1.99,1.21,3.06,1.45"/>
		</g>
	</g>
	<g id="kvg:0711a-g4" kvg:element="火" kvg:position="bottom" kvg:radical="general">
		<path id="kvg:0711a-s9" kvg:type="㇔" d="M30.25,60.1c2.92,2.72,7.7,11.8,8.5,14.53"/>
		<path id="kvg:0711a-s10" kvg:type="㇒" d="M78.08,56.38c0.17,1.12,0.15,2.95-0.5,4.02c-0.65,1.07-7.32,8.76-10.58,11.25"/>
		<path id="kvg:0711a-s11" kvg:type="㇒" d="M53.83,52.25c0.67,0.98,0.69,2.16,0.67,2.92C54,81.15,40.75,92.66,18.25,100.25"/>
		<path id="kvg:0711a-s12" kvg:type="㇏" d="M52.5,70.72c12.58,10.69,27.84,21.56,36.15,26.01c2.61,1.4,3.21,1.25,5.35,1.6"/>
	</g>
</g>
</g>
<g id="kvg:StrokeNumbers_0711a" style="font-size:8;fill:#808080">
	<text transform="matrix(1 0 0 1 10.50 28.50)">1</text>
	<text transform="matrix(1 0 0 1 25.50 13.50)">2</text>
	<text transform="matrix(1 0 0 1 20.50 37.50)">3</text>
	<text transform="matrix(1 0 0 1 46.50 34.90)">4</text>
	<text transform="matrix(1 0 0 1 54.50 22.50)">5</text>
	<text transform="matrix(1 0 0 1 63.50 10.75)">6</text>
	<text transform="matrix(1 0 0 1 59.50 36.50)">7</text>
	<text transform="matrix(1 0 0 1 83.50 34.50)">8</text>
	<text transform="matrix(1 0 0 1 22.50 60.53)">9</text>
	<text transform="matrix(1 0 0 1 66.50 58.50)">10</text>
	<text transform="matrix(1 0 0 1 42.25 53.50)">11</text>
	<text transform="matrix(1 0 0 1 56.50 72.30)">12</text>
</g>
</svg>
