<?xml version="1.0" encoding="UTF-8"?>
<!--
Copyright (C) 2009/2010/2011 Ulrich Apel.
This work is distributed under the conditions of the Creative Commons 
Attribution-Share Alike 3.0 Licence. This means you are free:
* to Share - to copy, distribute and transmit the work
* to Remix - to adapt the work

Under the following conditions:
* Attribution. You must attribute the work by stating your use of KanjiVG in
  your own copyright header and linking to KanjiVG's website
  (http://kanjivg.tagaini.net)
* Share Alike. If you alter, transform, or build upon this work, you may
  distribute the resulting work only under the same or similar license to this
  one.

See http://creativecommons.org/licenses/by-sa/3.0/ for more details.
-->
<!DOCTYPE svg PUBLIC "-//W3C//DTD SVG 1.0//EN" "http://www.w3.org/TR/2001/REC-SVG-20010904/DTD/svg10.dtd" [
<!ATTLIST g
xmlns:kvg CDATA #FIXED "http://kanjivg.tagaini.net"
kvg:element CDATA #IMPLIED
kvg:variant CDATA #IMPLIED
kvg:partial CDATA #IMPLIED
kvg:original CDATA #IMPLIED
kvg:part CDATA #IMPLIED
kvg:number CDATA #IMPLIED
kvg:tradForm CDATA #IMPLIED
kvg:radicalForm CDATA #IMPLIED
kvg:position CDATA #IMPLIED
kvg:radical CDATA #IMPLIED
kvg:phon CDATA #IMPLIED >
<!ATTLIST path
xmlns:kvg CDATA #FIXED "http://kanjivg.tagaini.net"
kvg:type CDATA #IMPLIED >
]>
<svg xmlns="http://www.w3.org/2000/svg" width="109" height="109" viewBox="0 0 109 109">
<g id="kvg:StrokePaths_07121-KaishoHzLst" style="fill:none;stroke:#000000;stroke-width:3;stroke-linecap:round;stroke-linejoin:round;">
<g id="kvg:07121-KaishoHzLst" kvg:element="無">
	<g id="kvg:07121-KaishoHzLst-g1" kvg:position="top">
		<g id="kvg:07121-KaishoHzLst-g2" kvg:element="丿">
			<path id="kvg:07121-KaishoHzLst-s1" kvg:type="㇒" d="M39.82,11.5c0.05,0.6,0.2,1.72-0.1,2.39C36.04,22.3,30.6,30.01,21,36.79"/>
		</g>
		<path id="kvg:07121-KaishoHzLst-s2" kvg:type="㇐" d="M39,25.75c7-0.25,29.25-4.25,35.96-4.86c1.56-0.14,2.5,0.18,3.29,0.37"/>
		<g id="kvg:07121-KaishoHzLst-g3" kvg:element="一">
			<path id="kvg:07121-KaishoHzLst-s3" kvg:type="㇐" d="M19.75,50.2c1.52,0.54,4.32,0.8,5.82,0.54c6.15-1.05,42.18-4.49,58.61-5.23c2.53-0.11,4.05,0.26,5.31,0.53"/>
		</g>
		<path id="kvg:07121-KaishoHzLst-s4" kvg:type="㇐" d="M14.25,68.2c1.76,0.54,5.01,0.67,6.77,0.54c10.09-0.74,50.2-2.99,69.3-3.73c2.94-0.11,4.71,0.26,6.18,0.53"/>
		<path id="kvg:07121-KaishoHzLst-s5" kvg:type="㇑" d="M31.37,38.75c1.09,0.5,1.74,2.25,1.96,3.25c0.22,1,1.67,14.25,2.42,25.5"/>
		<path id="kvg:07121-KaishoHzLst-s6" kvg:type="㇑" d="M46.37,33.75c1.09,0.5,1.97,2.23,1.96,3.25c-0.08,5.5,0.17,15,0.17,29.25"/>
		<path id="kvg:07121-KaishoHzLst-s7" kvg:type="㇑" d="M61.37,32.25c1.09,0.5,2.03,2.23,1.96,3.25c-0.58,8-1.08,14-1.83,29.75"/>
		<path id="kvg:07121-KaishoHzLst-s8" kvg:type="㇑" d="M76.87,32.75c1.09,0.5,2.29,2.28,1.96,4.25C77.5,45,77,49.75,74.5,65.25"/>
	</g>
	<g id="kvg:07121-KaishoHzLst-g4" kvg:element="灬" kvg:variant="true" kvg:original="火" kvg:position="bottom" kvg:radical="general">
		<path id="kvg:07121-KaishoHzLst-s9" kvg:type="㇔" d="M23.25,82c0,5.25-5.75,13-7.25,14.5"/>
		<path id="kvg:07121-KaishoHzLst-s10" kvg:type="㇔" d="M39.52,80.08c3.04,2.57,5.92,9.64,6.69,13.63"/>
		<path id="kvg:07121-KaishoHzLst-s11" kvg:type="㇔" d="M59.37,78.83c2.71,2.36,7.01,9.71,7.68,13.38"/>
		<path id="kvg:07121-KaishoHzLst-s12" kvg:type="㇔" d="M81.52,79.08c3.37,2.63,8.7,10.8,9.54,14.88"/>
	</g>
</g>
</g>
<g id="kvg:StrokeNumbers_07121-KaishoHzLst" style="font-size:8;fill:#808080">
	<text transform="matrix(1 0 0 1 32.50 13.50)">1</text>
	<text transform="matrix(1 0 0 1 45.75 21.50)">2</text>
	<text transform="matrix(1 0 0 1 13.00 51.00)">3</text>
	<text transform="matrix(1 0 0 1 8.00 70.00)">4</text>
	<text transform="matrix(1 0 0 1 24.50 43.50)">5</text>
	<text transform="matrix(1 0 0 1 38.50 35.50)">6</text>
	<text transform="matrix(1 0 0 1 53.25 33.50)">7</text>
	<text transform="matrix(1 0 0 1 68.25 33.50)">8</text>
	<text transform="matrix(1 0 0 1 17.50 81.50)">9</text>
	<text transform="matrix(1 0 0 1 29.50 80.50)">10</text>
	<text transform="matrix(1 0 0 1 49.50 80.50)">11</text>
	<text transform="matrix(1 0 0 1 69.50 80.50)">12</text>
</g>
</svg>
