<?xml version="1.0" encoding="UTF-8"?>
<!--
Copyright (C) 2009/2010/2011 Ulrich Apel.
This work is distributed under the conditions of the Creative Commons 
Attribution-Share Alike 3.0 Licence. This means you are free:
* to Share - to copy, distribute and transmit the work
* to Remix - to adapt the work

Under the following conditions:
* Attribution. You must attribute the work by stating your use of KanjiVG in
  your own copyright header and linking to KanjiVG's website
  (http://kanjivg.tagaini.net)
* Share Alike. If you alter, transform, or build upon this work, you may
  distribute the resulting work only under the same or similar license to this
  one.

See http://creativecommons.org/licenses/by-sa/3.0/ for more details.
-->
<!DOCTYPE svg PUBLIC "-//W3C//DTD SVG 1.0//EN" "http://www.w3.org/TR/2001/REC-SVG-20010904/DTD/svg10.dtd" [
<!ATTLIST g
xmlns:kvg CDATA #FIXED "http://kanjivg.tagaini.net"
kvg:element CDATA #IMPLIED
kvg:variant CDATA #IMPLIED
kvg:partial CDATA #IMPLIED
kvg:original CDATA #IMPLIED
kvg:part CDATA #IMPLIED
kvg:number CDATA #IMPLIED
kvg:tradForm CDATA #IMPLIED
kvg:radicalForm CDATA #IMPLIED
kvg:position CDATA #IMPLIED
kvg:radical CDATA #IMPLIED
kvg:phon CDATA #IMPLIED >
<!ATTLIST path
xmlns:kvg CDATA #FIXED "http://kanjivg.tagaini.net"
kvg:type CDATA #IMPLIED >
]>
<svg xmlns="http://www.w3.org/2000/svg" width="109" height="109" viewBox="0 0 109 109">
<g id="kvg:StrokePaths_071b9" style="fill:none;stroke:#000000;stroke-width:3;stroke-linecap:round;stroke-linejoin:round;">
<g id="kvg:071b9" kvg:element="熹">
	<g id="kvg:071b9-g1" kvg:element="喜" kvg:position="top">
		<g id="kvg:071b9-g2" kvg:element="吉" kvg:position="top">
			<g id="kvg:071b9-g3" kvg:element="士" kvg:position="top">
				<path id="kvg:071b9-s1" kvg:type="㇐" d="M28.12,19.39c1.4,0.36,3.98,0.33,5.38,0.22c14.62-1.21,27.47-3.73,43.97-4.23c2.34-0.07,3.75,0.06,4.92,0.23"/>
				<path id="kvg:071b9-s2" kvg:type="㇑a" d="M52.76,8.26c0.86,0.25,1.37,1.22,1.54,1.77c0.17,0.56,0.01,13.13-0.16,16.66"/>
				<path id="kvg:071b9-s3" kvg:type="㇐" d="M34.43,28.71c1.14,0.16,3.23,0.17,4.37,0.08C50,28,63.75,26.75,73.43,26.29c1.9-0.09,3.04,0.02,3.99,0.09"/>
			</g>
			<g id="kvg:071b9-g4" kvg:element="口" kvg:position="bottom">
				<path id="kvg:071b9-s4" kvg:type="㇑" d="M34.74,35.83c0.39,0.22,0.79,0.41,0.96,0.68c1.36,2.2,2.99,8.27,3.92,12.22"/>
				<path id="kvg:071b9-s5" kvg:type="㇕b" d="M37.18,37c9.6-0.92,29.57-3,34.66-3.86c1.79-0.3,3.61,1.16,3.14,2.82c-0.73,2.55-1.8,4.74-4.1,8.73"/>
				<path id="kvg:071b9-s6" kvg:type="㇐b" d="M40.01,47.27c5.81-0.35,25.8-1.89,33.18-2.24"/>
			</g>
		</g>
		<g id="kvg:071b9-g5" kvg:position="bottom">
			<path id="kvg:071b9-s7" kvg:type="㇔" d="M70.54,48.51c0.01,0.21,0.03,0.56-0.03,0.86c-0.3,1.82-2.06,5.82-4.46,8.27"/>
			<path id="kvg:071b9-s8" kvg:type="㇒" d="M35.77,49.61c2.49,1.48,6.42,6.09,7.04,8.39"/>
			<path id="kvg:071b9-s9" kvg:type="㇐" d="M16.25,62.43c1.94,0.47,5.5,0.58,7.43,0.47c14.28-0.86,43.65-4.75,65.28-5.39c3.23-0.1,5.17,0.22,6.79,0.46"/>
			<g id="kvg:071b9-g6" kvg:element="口">
				<path id="kvg:071b9-s10" kvg:type="㇑" d="M35.28,67.78c0.46,0.21,0.93,0.39,1.13,0.66c1.59,2.12,2.49,8.97,3.58,12.77"/>
				<path id="kvg:071b9-s11" kvg:type="㇕b" d="M38.14,68.91c11.23-0.89,28.41-3.58,34.2-3.25c1.66,0.09,2.89,2.1,2.59,2.75c-1,2.11-1.85,4.76-3.79,8.26"/>
				<path id="kvg:071b9-s12" kvg:type="㇐b" d="M40.45,79.81c6.8-0.34,24.76-2.48,33.39-2.82"/>
			</g>
		</g>
	</g>
	<g id="kvg:071b9-g7" kvg:element="灬" kvg:variant="true" kvg:original="火" kvg:position="bottom" kvg:radical="general">
		<path id="kvg:071b9-s13" kvg:type="㇔" d="M24.94,87.5c0,4.89-5.16,12.1-6.5,13.5"/>
		<path id="kvg:071b9-s14" kvg:type="㇔" d="M39.71,85.83c3.27,2.62,6.37,9.81,7.19,13.88"/>
		<path id="kvg:071b9-s15" kvg:type="㇔" d="M61.82,85.58c3.33,2.36,8.6,9.71,9.43,13.38"/>
		<path id="kvg:071b9-s16" kvg:type="㇔" d="M81.21,84.33c4.69,2.58,12.12,10.62,13.29,14.63"/>
	</g>
</g>
</g>
<g id="kvg:StrokeNumbers_071b9" style="font-size:8;fill:#808080">
	<text transform="matrix(1 0 0 1 20.50 19.50)">1</text>
	<text transform="matrix(1 0 0 1 43.25 9.50)">2</text>
	<text transform="matrix(1 0 0 1 26.50 30.50)">3</text>
	<text transform="matrix(1 0 0 1 27.25 42.40)">4</text>
	<text transform="matrix(1 0 0 1 38.50 35.50)">5</text>
	<text transform="matrix(1 0 0 1 43.50 45.50)">6</text>
	<text transform="matrix(1 0 0 1 30.50 56.18)">7</text>
	<text transform="matrix(1 0 0 1 62.25 54.10)">8</text>
	<text transform="matrix(1 0 0 1 8.50 63.50)">9</text>
	<text transform="matrix(1 0 0 1 27.25 76.95)">10</text>
	<text transform="matrix(1 0 0 1 39.50 67.50)">11</text>
	<text transform="matrix(1 0 0 1 42.50 76.50)">12</text>
	<text transform="matrix(1 0 0 1 15.50 87.50)">13</text>
	<text transform="matrix(1 0 0 1 31.50 91.50)">14</text>
	<text transform="matrix(1 0 0 1 53.25 91.58)">15</text>
	<text transform="matrix(1 0 0 1 73.50 90.50)">16</text>
</g>
</svg>
