<?xml version="1.0" encoding="UTF-8"?>
<!--
Copyright (C) 2009/2010/2011 Ulrich Apel.
This work is distributed under the conditions of the Creative Commons 
Attribution-Share Alike 3.0 Licence. This means you are free:
* to Share - to copy, distribute and transmit the work
* to Remix - to adapt the work

Under the following conditions:
* Attribution. You must attribute the work by stating your use of KanjiVG in
  your own copyright header and linking to KanjiVG's website
  (http://kanjivg.tagaini.net)
* Share Alike. If you alter, transform, or build upon this work, you may
  distribute the resulting work only under the same or similar license to this
  one.

See http://creativecommons.org/licenses/by-sa/3.0/ for more details.
-->
<!DOCTYPE svg PUBLIC "-//W3C//DTD SVG 1.0//EN" "http://www.w3.org/TR/2001/REC-SVG-20010904/DTD/svg10.dtd" [
<!ATTLIST g
xmlns:kvg CDATA #FIXED "http://kanjivg.tagaini.net"
kvg:element CDATA #IMPLIED
kvg:variant CDATA #IMPLIED
kvg:partial CDATA #IMPLIED
kvg:original CDATA #IMPLIED
kvg:part CDATA #IMPLIED
kvg:number CDATA #IMPLIED
kvg:tradForm CDATA #IMPLIED
kvg:radicalForm CDATA #IMPLIED
kvg:position CDATA #IMPLIED
kvg:radical CDATA #IMPLIED
kvg:phon CDATA #IMPLIED >
<!ATTLIST path
xmlns:kvg CDATA #FIXED "http://kanjivg.tagaini.net"
kvg:type CDATA #IMPLIED >
]>
<svg xmlns="http://www.w3.org/2000/svg" width="109" height="109" viewBox="0 0 109 109">
<g id="kvg:StrokePaths_071ec" style="fill:none;stroke:#000000;stroke-width:3;stroke-linecap:round;stroke-linejoin:round;">
<g id="kvg:071ec" kvg:element="燬">
	<g id="kvg:071ec-g1" kvg:element="火" kvg:position="left" kvg:radical="general">
		<path id="kvg:071ec-s1" kvg:type="㇔" d="M11.49,35.75c1.75,3.41,4.29,13.09,4.77,16.5"/>
		<path id="kvg:071ec-s2" kvg:type="㇒" d="M35.19,31.75c0.31,1,0.38,1.78-0.17,2.97c-0.55,1.19-6.21,10.5-8.96,13.28"/>
		<path id="kvg:071ec-s3" kvg:type="㇒" d="M23.28,15.25c0.61,0.77,1.22,2.3,1.22,3.58c0.17,52.66-3.02,62.63-13,75.92"/>
		<path id="kvg:071ec-s4" kvg:type="㇔/㇏" d="M24.63,72c3.89,2.46,8.81,10.26,9.84,13.75"/>
	</g>
	<g id="kvg:071ec-g2" kvg:element="毀" kvg:position="right">
		<g id="kvg:071ec-g3" kvg:position="left">
			<g id="kvg:071ec-g4" kvg:element="臼" kvg:position="top">
				<path id="kvg:071ec-s5" kvg:type="㇒" d="M51.13,17.21c0.02,0.22,0.09,0.64-0.04,0.87c-1.8,3.1-3.9,5.87-8,8.34"/>
				<path id="kvg:071ec-s6" kvg:type="㇑" d="M40.94,26.96c0.37,0.48,0.52,1.54,0.61,2.52c0.33,3.57,1.71,17.09,2.05,21.92"/>
				<path id="kvg:071ec-s7" kvg:type="㇕" d="M54.93,24.39c0.5,0.12,0.89,0.35,1.59,0.35c0.69,0,8.04-1.4,8.83-1.51c0.79-0.12,1.45,0.58,1.39,1.28c-0.6,6.75-1.89,19.28-2.48,24.87"/>
				<path id="kvg:071ec-s8" kvg:type="㇐" d="M42.54,37.16c2.08-0.23,6.34-1.16,6.83-1.16c0.5,0,1.19,0,1.59,0"/>
				<path id="kvg:071ec-s9" kvg:type="㇐" d="M56.63,35.53c0.5,0.12,2.28,0.35,1.59,0.35c-1.31,0,4.86-0.14,7.63-0.55"/>
				<path id="kvg:071ec-s10" kvg:type="㇐" d="M43.63,49.34c1.29,0,18.63-1.94,20.12-2.05"/>
			</g>
			<g id="kvg:071ec-g5" kvg:element="土" kvg:position="bottom">
				<path id="kvg:071ec-s11" kvg:type="㇐" d="M39.37,65.54c1.46,0.79,3.87,0.36,4.1,0.33c6.03-0.62,15.95-2.21,20.59-2.77c1.09-0.13,2.27-0.17,2.82,0.01"/>
				<path id="kvg:071ec-s12" kvg:type="㇑a" d="M52.78,53.17c0.79,0.46,1.42,2.06,1.42,3c0,6.7,0.02,15.55,0.02,25.49"/>
				<path id="kvg:071ec-s13" kvg:type="㇐" d="M39.92,86.87c0.59,0.6,1.76,0.92,3.52,0.13c4.89-2.19,16.69-6.61,21.58-8.81"/>
			</g>
		</g>
		<g id="kvg:071ec-g6" kvg:element="殳" kvg:position="right">
			<g id="kvg:071ec-g7" kvg:element="几" kvg:position="top">
				<g id="kvg:071ec-g8" kvg:element="丿">
					<path id="kvg:071ec-s14" kvg:type="㇒" d="M73.82,17.07c0.43,0.93,0.49,1.81,0.47,2.91c-0.15,8.95,0.46,18.27-3.55,26.01"/>
				</g>
				<path id="kvg:071ec-s15" kvg:type="㇈b" d="M74.19,18.59c3.56-0.34,6.31-0.84,8.98-1.72c1.68-0.55,3.79,0.73,3.23,2.35c-1.4,4.03-1.07,12.51-1.07,15.85c0,4.63,0.3,8.48,5.55,8.48c4.86,0,5.66-3.3,5.66-8.65"/>
			</g>
			<g id="kvg:071ec-g9" kvg:element="又" kvg:position="bottom">
				<path id="kvg:071ec-s16" kvg:type="㇇" d="M70.06,51.93c1.13,0.4,1.2,0.67,3.52,0.4c4.92-0.58,12.26-1.81,13.92-1.93c2-0.15,3.29,1.31,2.61,3.38C84,72.25,74.75,84.75,60.27,94.99"/>
				<path id="kvg:071ec-s17" kvg:type="㇏" d="M70.8,58.28C73.75,62,84.65,82.26,92.85,91.73c1.28,1.48,2.21,2.46,3.39,2.95"/>
			</g>
		</g>
	</g>
</g>
</g>
<g id="kvg:StrokeNumbers_071ec" style="font-size:8;fill:#808080">
	<text transform="matrix(1 0 0 1 5.50 35.50)">1</text>
	<text transform="matrix(1 0 0 1 29.50 28.85)">2</text>
	<text transform="matrix(1 0 0 1 14.50 15.50)">3</text>
	<text transform="matrix(1 0 0 1 27.50 71.50)">4</text>
	<text transform="matrix(1 0 0 1 42.50 16.50)">5</text>
	<text transform="matrix(1 0 0 1 35.50 44.50)">6</text>
	<text transform="matrix(1 0 0 1 56.50 21.50)">7</text>
	<text transform="matrix(1 0 0 1 45.50 33.50)">8</text>
	<text transform="matrix(1 0 0 1 54.50 33.50)">9</text>
	<text transform="matrix(1 0 0 1 45.50 45.50)">10</text>
	<text transform="matrix(1 0 0 1 33.50 62.50)">11</text>
	<text transform="matrix(1 0 0 1 42.50 58.50)">12</text>
	<text transform="matrix(1 0 0 1 38.25 82.50)">13</text>
	<text transform="matrix(1 0 0 1 64.25 16.65)">14</text>
	<text transform="matrix(1 0 0 1 76.25 12.58)">15</text>
	<text transform="matrix(1 0 0 1 75.25 48.50)">16</text>
	<text transform="matrix(1 0 0 1 74.50 63.50)">17</text>
</g>
</svg>
