<?xml version="1.0" encoding="UTF-8"?>
<!--
Copyright (C) 2009/2010/2011 Ulrich Apel.
This work is distributed under the conditions of the Creative Commons 
Attribution-Share Alike 3.0 Licence. This means you are free:
* to Share - to copy, distribute and transmit the work
* to Remix - to adapt the work

Under the following conditions:
* Attribution. You must attribute the work by stating your use of KanjiVG in
  your own copyright header and linking to KanjiVG's website
  (http://kanjivg.tagaini.net)
* Share Alike. If you alter, transform, or build upon this work, you may
  distribute the resulting work only under the same or similar license to this
  one.

See http://creativecommons.org/licenses/by-sa/3.0/ for more details.
-->
<!DOCTYPE svg PUBLIC "-//W3C//DTD SVG 1.0//EN" "http://www.w3.org/TR/2001/REC-SVG-20010904/DTD/svg10.dtd" [
<!ATTLIST g
xmlns:kvg CDATA #FIXED "http://kanjivg.tagaini.net"
kvg:element CDATA #IMPLIED
kvg:variant CDATA #IMPLIED
kvg:partial CDATA #IMPLIED
kvg:original CDATA #IMPLIED
kvg:part CDATA #IMPLIED
kvg:number CDATA #IMPLIED
kvg:tradForm CDATA #IMPLIED
kvg:radicalForm CDATA #IMPLIED
kvg:position CDATA #IMPLIED
kvg:radical CDATA #IMPLIED
kvg:phon CDATA #IMPLIED >
<!ATTLIST path
xmlns:kvg CDATA #FIXED "http://kanjivg.tagaini.net"
kvg:type CDATA #IMPLIED >
]>
<svg xmlns="http://www.w3.org/2000/svg" width="109" height="109" viewBox="0 0 109 109">
<g id="kvg:StrokePaths_07258" style="fill:none;stroke:#000000;stroke-width:3;stroke-linecap:round;stroke-linejoin:round;">
<g id="kvg:07258" kvg:element="牘">
	<g id="kvg:07258-g1" kvg:element="片" kvg:position="left" kvg:radical="general">
		<path id="kvg:07258-s1" kvg:type="㇒" d="M18.53,18.79c0.7,1.33,1.42,2.84,1.42,4.38c0,48.9-1.45,58.83-8.1,69.54"/>
		<path id="kvg:07258-s2" kvg:type="㇑a" d="M34.86,14.5c0.66,0.38,1.61,2.22,1.59,3.3c-0.05,3.41-0.05,21.36-0.05,24.46"/>
		<path id="kvg:07258-s3" kvg:type="㇐b" d="M20.03,44.2C24.5,43.52,31,42.75,36.8,42.11c0.78-0.09,1.12-0.12,1.85-0.12"/>
		<path id="kvg:07258-s4" kvg:type="㇕" d="M20.21,62.91c0.19-0.02,1.66,0.35,2.35,0.17c5.01-1.33,10.19-1.08,13.45-1.9c1.21-0.3,2.77,0.66,2.77,2.82c0,1.39-0.25,30.79-0.25,31.47"/>
	</g>
	<g id="kvg:07258-g2" kvg:element="賣" kvg:variant="true" kvg:position="right">
		<g id="kvg:07258-g3" kvg:position="top">
			<g id="kvg:07258-g4" kvg:element="士">
				<path id="kvg:07258-s5" kvg:type="㇐" d="M46.06,19.15c0.9,0.35,2.54,0.41,3.43,0.35c9.31-0.59,28.99-2.7,39.92-3.46c1.49-0.1,2.39,0.17,3.13,0.35"/>
				<path id="kvg:07258-s6" kvg:type="㇑a" d="M67.34,10c0.74,0.33,1.18,1.48,1.33,2.13c0.15,0.66,0,10.16-0.15,14.26"/>
				<path id="kvg:07258-s7" kvg:type="㇐" d="M51.66,29.03c0.71,0.24,2.02,0.27,2.73,0.24c9.43-0.29,18.92-2.73,28.88-2.7c1.19,0,1.9,0.12,2.5,0.24"/>
			</g>
			<g id="kvg:07258-g5" kvg:element="罒" kvg:variant="true" kvg:original="网">
				<path id="kvg:07258-s8" kvg:type="㇑" d="M44.42,35.68c0.24,0.28,0.48,0.51,0.59,0.86c0.82,2.75,2.81,10.34,3.38,15.29"/>
				<path id="kvg:07258-s9" kvg:type="㇕" d="M45.9,37.55c5.24-1.08,43.84-4.51,46.63-4.87c1.02-0.13,2.4,0.93,2.12,2.48c-0.57,3.23-1.57,9.27-3.09,13.88"/>
				<path id="kvg:07258-s10" kvg:type="㇑" d="M62.4,38.06c0.05,0.22,0.05,0.57-0.09,0.9c-1.26,2.87-2.87,5.06-8.23,7.84"/>
				<path id="kvg:07258-s11" kvg:type="㇒" d="M73.32,35.58c0.56,0.37,1.05,0.81,1.05,1.38c0,0.77-0.17,2.21-0.17,2.76c0,1.5,1.93,2.12,5.62,2.12c3.33,0,5.79,0,7.2-0.48"/>
				<path id="kvg:07258-s12" kvg:type="㇄" d="M49.13,50.33c3.27-0.41,38.32-3.02,42.81-3.65"/>
			</g>
		</g>
		<g id="kvg:07258-g6" kvg:element="貝" kvg:position="bottom">
			<g id="kvg:07258-g7" kvg:element="目" kvg:position="top">
				<path id="kvg:07258-s13" kvg:type="㇑" d="M52.79,56.57c0.5,1.09,1.22,1.9,1.22,3.35s0.23,22.63-0.36,28.72"/>
				<path id="kvg:07258-s14" kvg:type="㇕a" d="M54.85,58.74c2.82-0.18,25.8-2.43,28.37-2.64c2.14-0.18,3.28,0.97,3.28,2.28c0,3.21-0.63,26.56-0.63,27.61"/>
				<path id="kvg:07258-s15" kvg:type="㇐a" d="M54.07,67.23c5.27-0.4,27.21-2.37,31.73-2.37"/>
				<path id="kvg:07258-s16" kvg:type="㇐a" d="M54.3,77.17c7.95-0.77,23.1-1.86,31.54-2.01"/>
				<path id="kvg:07258-s17" kvg:type="㇐a" d="M53.94,86.3c7.95-0.58,24.65-1.62,31.9-1.62"/>
			</g>
			<g id="kvg:07258-g8" kvg:position="bottom">
				<path id="kvg:07258-s18" kvg:type="㇒" d="M61.29,89.76c0.46,0.94-0.34,1.86-1.25,2.55c-2.72,2.07-9.88,6.49-15.33,8.93"/>
				<path id="kvg:07258-s19" kvg:type="㇔" d="M77.44,90.36c6.55,2.22,13.18,7.01,14.83,9.19"/>
			</g>
		</g>
	</g>
</g>
</g>
<g id="kvg:StrokeNumbers_07258" style="font-size:8;fill:#808080">
	<text transform="matrix(1 0 0 1 10.50 19.50)">1</text>
	<text transform="matrix(1 0 0 1 25.50 14.50)">2</text>
	<text transform="matrix(1 0 0 1 24.50 40.50)">3</text>
	<text transform="matrix(1 0 0 1 24.50 59.50)">4</text>
	<text transform="matrix(1 0 0 1 43.50 15.50)">5</text>
	<text transform="matrix(1 0 0 1 57.50 9.50)">6</text>
	<text transform="matrix(1 0 0 1 46.50 27.50)">7</text>
	<text transform="matrix(1 0 0 1 41.50 47.50)">8</text>
	<text transform="matrix(1 0 0 1 46.50 33.50)">9</text>
	<text transform="matrix(1 0 0 1 50.25 43.95)">10</text>
	<text transform="matrix(1 0 0 1 65.50 42.50)">11</text>
	<text transform="matrix(1 0 0 1 61.25 47.50)">12</text>
	<text transform="matrix(1 0 0 1 44.25 65.73)">13</text>
	<text transform="matrix(1 0 0 1 56.50 56.50)">14</text>
	<text transform="matrix(1 0 0 1 58.50 65.58)">15</text>
	<text transform="matrix(1 0 0 1 58.38 74.50)">16</text>
	<text transform="matrix(1 0 0 1 58.43 84.50)">17</text>
	<text transform="matrix(1 0 0 1 46.25 95.35)">18</text>
	<text transform="matrix(1 0 0 1 69.50 96.50)">19</text>
</g>
</svg>
