<?xml version="1.0" encoding="UTF-8"?>
<!--
Copyright (C) 2009/2010/2011 Ulrich Apel.
This work is distributed under the conditions of the Creative Commons 
Attribution-Share Alike 3.0 Licence. This means you are free:
* to Share - to copy, distribute and transmit the work
* to Remix - to adapt the work

Under the following conditions:
* Attribution. You must attribute the work by stating your use of KanjiVG in
  your own copyright header and linking to KanjiVG's website
  (http://kanjivg.tagaini.net)
* Share Alike. If you alter, transform, or build upon this work, you may
  distribute the resulting work only under the same or similar license to this
  one.

See http://creativecommons.org/licenses/by-sa/3.0/ for more details.
-->
<!DOCTYPE svg PUBLIC "-//W3C//DTD SVG 1.0//EN" "http://www.w3.org/TR/2001/REC-SVG-20010904/DTD/svg10.dtd" [
<!ATTLIST g
xmlns:kvg CDATA #FIXED "http://kanjivg.tagaini.net"
kvg:element CDATA #IMPLIED
kvg:variant CDATA #IMPLIED
kvg:partial CDATA #IMPLIED
kvg:original CDATA #IMPLIED
kvg:part CDATA #IMPLIED
kvg:number CDATA #IMPLIED
kvg:tradForm CDATA #IMPLIED
kvg:radicalForm CDATA #IMPLIED
kvg:position CDATA #IMPLIED
kvg:radical CDATA #IMPLIED
kvg:phon CDATA #IMPLIED >
<!ATTLIST path
xmlns:kvg CDATA #FIXED "http://kanjivg.tagaini.net"
kvg:type CDATA #IMPLIED >
]>
<svg xmlns="http://www.w3.org/2000/svg" width="109" height="109" viewBox="0 0 109 109">
<g id="kvg:StrokePaths_0727d-Kaisho" style="fill:none;stroke:#000000;stroke-width:3;stroke-linecap:round;stroke-linejoin:round;">
<g id="kvg:0727d-Kaisho" kvg:element="牽">
	<g id="kvg:0727d-Kaisho-g1" kvg:element="玄" kvg:part="1" kvg:position="top">
		<g id="kvg:0727d-Kaisho-g2" kvg:element="亠" kvg:radical="nelson">
			<path id="kvg:0727d-Kaisho-s1" kvg:type="㇑a" d="M50.93,9.25c2.6,0.81,5.57,2.75,6.38,5.58"/>
			<path id="kvg:0727d-Kaisho-s2" kvg:type="㇐" d="M25.8,20.84c1.11,0.07,3.63,0.51,4.71,0.4c8.7-0.84,40.94-3.58,53.34-4.16c1.82-0.09,2.75,0.03,4.11,0.51"/>
		</g>
		<g id="kvg:0727d-Kaisho-g3" kvg:element="幺" kvg:part="1" kvg:variant="true">
			<path id="kvg:0727d-Kaisho-s3" kvg:type="㇜" d="M50.72,20.44c0.2,0.56,0.33,1.01-0.1,1.59c-1.91,2.52-4.42,6.43-7.21,7.99c-0.44,0.25-0.41,1.29,0,1.4c2.15,0.56,11.87,3.01,13.71,4.03"/>
			<path id="kvg:0727d-Kaisho-s4" kvg:type="㇒" d="M67.8,22.94c0.42,1.01,0.24,3.15-0.39,3.65c-3.66,2.91-10.16,8.16-17.16,13.66"/>
		</g>
		<g id="kvg:0727d-Kaisho-g4" kvg:element="冖">
			<path id="kvg:0727d-Kaisho-s5" kvg:type="㇔" d="M20.66,39.69c-0.14,3.34-3.48,12.07-4.66,14.06"/>
			<path id="kvg:0727d-Kaisho-s6" kvg:type="㇖b" d="M20.22,43.5c3.53,0,47.75-4.25,65.47-4.25c12.06,0,3.31,5.75-1.19,9.5"/>
		</g>
		<g id="kvg:0727d-Kaisho-g5" kvg:element="玄" kvg:part="2" kvg:variant="true">
			<g id="kvg:0727d-Kaisho-g6" kvg:element="幺" kvg:part="2">
				<g id="kvg:0727d-Kaisho-g7" kvg:element="厶">
					<path id="kvg:0727d-Kaisho-s7" kvg:type="㇜" d="M49.55,42.44c0.42,1.01,0.23,2.65-0.39,3.15C42.5,51,38.5,54.75,35.11,57.42c-1.37,1.08-0.8,1.72,0.78,1.46c9.55-1.54,25.78-5.15,34.13-6.61"/>
					<path id="kvg:0727d-Kaisho-s8" kvg:type="㇔" d="M63.55,46.22c4.9,2.28,12.66,9.36,13.88,12.9"/>
				</g>
			</g>
		</g>
	</g>
	<g id="kvg:0727d-Kaisho-g8" kvg:element="牛" kvg:position="bottom" kvg:radical="tradit">
		<path id="kvg:0727d-Kaisho-s9" kvg:type="㇒" d="M37.02,63.46c0.04,0.38,0.07,0.97-0.07,1.5c-0.84,3.17-5.67,10.14-12.27,14.4"/>
		<path id="kvg:0727d-Kaisho-s10" kvg:type="㇐" d="M36.42,71.23c0.93,0.23,2.63,0.28,3.55,0.23c11.38-0.62,25.12-1.99,35.33-2.78c1.53-0.12,2.47,0.11,3.25,0.22"/>
		<path id="kvg:0727d-Kaisho-s11" kvg:type="㇐" d="M15.88,83.92c1.5,0.32,4.25,0.37,5.75,0.32c15.6-0.54,44.48-3.65,67.25-3.78c2.5-0.01,4,0.15,5.25,0.31"/>
		<path id="kvg:0727d-Kaisho-s12" kvg:type="㇑" d="M52.89,57.38c0.42,0.26,1.31,1.99,1.4,2.52c0.08,0.53-0.05,37.29-0.14,40.6"/>
	</g>
</g>
</g>
<g id="kvg:StrokeNumbers_0727d-Kaisho" style="font-size:8;fill:#808080">
	<text transform="matrix(1 0 0 1 45.50 8.50)">1</text>
	<text transform="matrix(1 0 0 1 17.50 20.50)">2</text>
	<text transform="matrix(1 0 0 1 38.25 27.50)">3</text>
	<text transform="matrix(1 0 0 1 58.50 26.50)">4</text>
	<text transform="matrix(1 0 0 1 13.50 42.75)">5</text>
	<text transform="matrix(1 0 0 1 24.50 39.75)">6</text>
	<text transform="matrix(1 0 0 1 38.00 50.25)">7</text>
	<text transform="matrix(1 0 0 1 72.25 47.75)">8</text>
	<text transform="matrix(1 0 0 1 27.50 68.50)">9</text>
	<text transform="matrix(1 0 0 1 40.75 68.00)">10</text>
	<text transform="matrix(1 0 0 1 6.50 85.50)">11</text>
	<text transform="matrix(1 0 0 1 57.50 63.75)">12</text>
</g>
</svg>
