<?xml version="1.0" encoding="UTF-8"?>
<!--
Copyright (C) 2009/2010/2011 Ulrich Apel.
This work is distributed under the conditions of the Creative Commons 
Attribution-Share Alike 3.0 Licence. This means you are free:
* to Share - to copy, distribute and transmit the work
* to Remix - to adapt the work

Under the following conditions:
* Attribution. You must attribute the work by stating your use of KanjiVG in
  your own copyright header and linking to KanjiVG's website
  (http://kanjivg.tagaini.net)
* Share Alike. If you alter, transform, or build upon this work, you may
  distribute the resulting work only under the same or similar license to this
  one.

See http://creativecommons.org/licenses/by-sa/3.0/ for more details.
-->
<!DOCTYPE svg PUBLIC "-//W3C//DTD SVG 1.0//EN" "http://www.w3.org/TR/2001/REC-SVG-20010904/DTD/svg10.dtd" [
<!ATTLIST g
xmlns:kvg CDATA #FIXED "http://kanjivg.tagaini.net"
kvg:element CDATA #IMPLIED
kvg:variant CDATA #IMPLIED
kvg:partial CDATA #IMPLIED
kvg:original CDATA #IMPLIED
kvg:part CDATA #IMPLIED
kvg:number CDATA #IMPLIED
kvg:tradForm CDATA #IMPLIED
kvg:radicalForm CDATA #IMPLIED
kvg:position CDATA #IMPLIED
kvg:radical CDATA #IMPLIED
kvg:phon CDATA #IMPLIED >
<!ATTLIST path
xmlns:kvg CDATA #FIXED "http://kanjivg.tagaini.net"
kvg:type CDATA #IMPLIED >
]>
<svg xmlns="http://www.w3.org/2000/svg" width="109" height="109" viewBox="0 0 109 109">
<g id="kvg:StrokePaths_07279-Kaisho" style="fill:none;stroke:#000000;stroke-width:3;stroke-linecap:round;stroke-linejoin:round;">
<g id="kvg:07279-Kaisho" kvg:element="特">
	<g id="kvg:07279-Kaisho-g1" kvg:element="牛" kvg:variant="true" kvg:position="left" kvg:radical="general">
		<path id="kvg:07279-Kaisho-s1" kvg:type="㇒" d="M22.28,26.64c0.03,0.61,0.06,1.57-0.05,2.44c-0.65,5.15-4.35,16.46-9.42,23.38"/>
		<path id="kvg:07279-Kaisho-s2" kvg:type="㇐" d="M20.25,42.25c6.75-0.75,21-4,22.25-4s2.5,0,3.75,0.25"/>
		<path id="kvg:07279-Kaisho-s3" kvg:type="㇑" d="M31.37,15.25c1.09,0.5,1.74,2.25,1.96,3.25c0.22,1-0.22,67.25-0.22,73.5c0,12-5.49,2.38-6.36,1.5"/>
		<path id="kvg:07279-Kaisho-s4" kvg:type="㇀" d="M12.5,70.83c1.83,1.43,3.35,2.05,5.18,0.82C18.76,70.92,36.93,58.48,41.5,55"/>
	</g>
	<g id="kvg:07279-Kaisho-g2" kvg:element="寺" kvg:position="right">
		<g id="kvg:07279-Kaisho-g3" kvg:element="土" kvg:position="top">
			<path id="kvg:07279-Kaisho-s5" kvg:type="㇐" d="M52.38,27.28c0.93,0.31,2.63,0.46,3.55,0.31c3.75-0.6,21.83-2.59,29.21-3.06c1.54-0.1,2.47,0.15,3.24,0.3"/>
			<path id="kvg:07279-Kaisho-s6" kvg:type="㇑a" d="M67.42,11.87c0.12,0.24,1.77,1.23,1.77,2.75c0,9.89,0.14,26.13,0.14,28.6"/>
			<path id="kvg:07279-Kaisho-s7" kvg:type="㇐" d="M45.88,45.35c1.52,0.44,4.32,0.64,5.82,0.44C63,44.25,83,41.75,92.31,41.04c2.52-0.19,4.05,0.21,5.31,0.43"/>
		</g>
		<g id="kvg:07279-Kaisho-g4" kvg:element="寸" kvg:position="bottom">
			<path id="kvg:07279-Kaisho-s8" kvg:type="㇐" d="M49.38,60.99c1.3,0.46,3.69,0.53,5,0.46c12.37-0.7,26.37-3.7,37.69-3.89c2.17-0.04,3.48,0.22,4.56,0.44"/>
			<path id="kvg:07279-Kaisho-s9" kvg:type="㇚" d="M80.07,46.08c0.68,0.67,1.57,2.06,1.65,4.56c0.37,12.03-0.15,38.42-0.15,42.52c0,9.08-5.96,1.47-7.96,0.21"/>
			<path id="kvg:07279-Kaisho-s10" kvg:type="㇔" d="M60.75,70.25c2.03,1.46,5.24,5.99,5.75,8.25"/>
		</g>
	</g>
</g>
</g>
<g id="kvg:StrokeNumbers_07279-Kaisho" style="font-size:8;fill:#808080">
	<text transform="matrix(1 0 0 1 14.50 26.50)">1</text>
	<text transform="matrix(1 0 0 1 26.25 37.63)">2</text>
	<text transform="matrix(1 0 0 1 22.50 16.50)">3</text>
	<text transform="matrix(1 0 0 1 5.50 73.50)">4</text>
	<text transform="matrix(1 0 0 1 50.50 24.50)">5</text>
	<text transform="matrix(1 0 0 1 57.50 13.50)">6</text>
	<text transform="matrix(1 0 0 1 50.50 42.50)">7</text>
	<text transform="matrix(1 0 0 1 50.50 58.50)">8</text>
	<text transform="matrix(1 0 0 1 73.50 53.50)">9</text>
	<text transform="matrix(1 0 0 1 50.50 72.50)">10</text>
</g>
</svg>
