<?xml version="1.0" encoding="UTF-8"?>
<!--
Copyright (C) 2009/2010/2011 Ulrich Apel.
This work is distributed under the conditions of the Creative Commons 
Attribution-Share Alike 3.0 Licence. This means you are free:
* to Share - to copy, distribute and transmit the work
* to Remix - to adapt the work

Under the following conditions:
* Attribution. You must attribute the work by stating your use of KanjiVG in
  your own copyright header and linking to KanjiVG's website
  (http://kanjivg.tagaini.net)
* Share Alike. If you alter, transform, or build upon this work, you may
  distribute the resulting work only under the same or similar license to this
  one.

See http://creativecommons.org/licenses/by-sa/3.0/ for more details.
-->
<!DOCTYPE svg PUBLIC "-//W3C//DTD SVG 1.0//EN" "http://www.w3.org/TR/2001/REC-SVG-20010904/DTD/svg10.dtd" [
<!ATTLIST g
xmlns:kvg CDATA #FIXED "http://kanjivg.tagaini.net"
kvg:element CDATA #IMPLIED
kvg:variant CDATA #IMPLIED
kvg:partial CDATA #IMPLIED
kvg:original CDATA #IMPLIED
kvg:part CDATA #IMPLIED
kvg:number CDATA #IMPLIED
kvg:tradForm CDATA #IMPLIED
kvg:radicalForm CDATA #IMPLIED
kvg:position CDATA #IMPLIED
kvg:radical CDATA #IMPLIED
kvg:phon CDATA #IMPLIED >
<!ATTLIST path
xmlns:kvg CDATA #FIXED "http://kanjivg.tagaini.net"
kvg:type CDATA #IMPLIED >
]>
<svg xmlns="http://www.w3.org/2000/svg" width="109" height="109" viewBox="0 0 109 109">
<g id="kvg:StrokePaths_072c3" style="fill:none;stroke:#000000;stroke-width:3;stroke-linecap:round;stroke-linejoin:round;">
<g id="kvg:072c3" kvg:element="狃">
	<g id="kvg:072c3-g1" kvg:element="⺨" kvg:variant="true" kvg:original="犬" kvg:position="left" kvg:radical="general">
		<path id="kvg:072c3-s1" kvg:type="㇒" d="M39.8,16.5c0.07,0.54,0.31,1.58-0.14,2.16C34,26.06,28.25,31.29,14.5,39.29"/>
		<path id="kvg:072c3-s2" kvg:type="㇕va" d="M19.37,16.5C48.5,41,36.5,104,22.93,88.13"/>
		<path id="kvg:072c3-s3" kvg:type="㇒" d="M31.84,43c0.05,0.67,0.21,1.96-0.09,2.68c-3.88,9.19-7.82,15.68-17.24,25.62"/>
	</g>
	<g id="kvg:072c3-g2" kvg:element="丑" kvg:position="right">
		<path id="kvg:072c3-s4" kvg:type="㇕" d="M49.09,21.74c1.25,0.64,3.62,0.93,5.09,0.78c9.94-1.04,21.48-1.96,30.46-2.78c2.55-0.23,4.16,1.4,3.72,4.28c-1.61,10.73-5.4,48.31-7.31,65.08"/>
		<path id="kvg:072c3-s5" kvg:type="㇑" d="M65.36,25.66c0.96,0.54,1.91,3.47,1.73,4.56c-2.59,15.53-9.46,50.2-11.57,59.6"/>
		<g id="kvg:072c3-g3" kvg:element="一">
			<path id="kvg:072c3-s6" kvg:type="㇐" d="M44.02,52.22c1.41,0.7,3.99,0.75,5.41,0.7c16.93-0.56,29.01-1.57,46.61-1.88c2.35-0.04,3.76,0.34,4.94,0.69"/>
		</g>
		<path id="kvg:072c3-s7" kvg:type="㇐" d="M39.75,90.74c1.75,0.51,3.68,0.78,4.99,0.69c15.76-1.17,33.46-2.04,49.7-2.33c2.17-0.04,3.47,0.31,4.56,0.64"/>
	</g>
</g>
</g>
<g id="kvg:StrokeNumbers_072c3" style="font-size:8;fill:#808080">
	<text transform="matrix(1 0 0 1 32.50 15.50)">1</text>
	<text transform="matrix(1 0 0 1 12.50 17.50)">2</text>
	<text transform="matrix(1 0 0 1 25.25 44.48)">3</text>
	<text transform="matrix(1 0 0 1 47.50 18.50)">4</text>
	<text transform="matrix(1 0 0 1 58.50 33.08)">5</text>
	<text transform="matrix(1 0 0 1 41.50 48.50)">6</text>
	<text transform="matrix(1 0 0 1 40.50 87.50)">7</text>
</g>
</svg>
