<?xml version="1.0" encoding="UTF-8"?>
<!--
Copyright (C) 2009/2010/2011 Ulrich Apel.
This work is distributed under the conditions of the Creative Commons 
Attribution-Share Alike 3.0 Licence. This means you are free:
* to Share - to copy, distribute and transmit the work
* to Remix - to adapt the work

Under the following conditions:
* Attribution. You must attribute the work by stating your use of KanjiVG in
  your own copyright header and linking to KanjiVG's website
  (http://kanjivg.tagaini.net)
* Share Alike. If you alter, transform, or build upon this work, you may
  distribute the resulting work only under the same or similar license to this
  one.

See http://creativecommons.org/licenses/by-sa/3.0/ for more details.
-->
<!DOCTYPE svg PUBLIC "-//W3C//DTD SVG 1.0//EN" "http://www.w3.org/TR/2001/REC-SVG-20010904/DTD/svg10.dtd" [
<!ATTLIST g
xmlns:kvg CDATA #FIXED "http://kanjivg.tagaini.net"
kvg:element CDATA #IMPLIED
kvg:variant CDATA #IMPLIED
kvg:partial CDATA #IMPLIED
kvg:original CDATA #IMPLIED
kvg:part CDATA #IMPLIED
kvg:number CDATA #IMPLIED
kvg:tradForm CDATA #IMPLIED
kvg:radicalForm CDATA #IMPLIED
kvg:position CDATA #IMPLIED
kvg:radical CDATA #IMPLIED
kvg:phon CDATA #IMPLIED >
<!ATTLIST path
xmlns:kvg CDATA #FIXED "http://kanjivg.tagaini.net"
kvg:type CDATA #IMPLIED >
]>
<svg xmlns="http://www.w3.org/2000/svg" width="109" height="109" viewBox="0 0 109 109">
<g id="kvg:StrokePaths_07317" style="fill:none;stroke:#000000;stroke-width:3;stroke-linecap:round;stroke-linejoin:round;">
<g id="kvg:07317" kvg:element="猗">
	<g id="kvg:07317-g1" kvg:element="⺨" kvg:variant="true" kvg:original="犬" kvg:position="left" kvg:radical="general">
		<path id="kvg:07317-s1" kvg:type="㇒" d="M38.54,15.25c0.07,0.53,0.32,1.56-0.14,2.13c-5.88,7.32-11.86,12.49-26.15,20.41"/>
		<path id="kvg:07317-s2" kvg:type="㇕va" d="M16.5,15.25c28.25,23.5,18.75,89.75,5.75,74.5"/>
		<path id="kvg:07317-s3" kvg:type="㇒" d="M29.83,43.5c0.05,0.68,0.22,2.01-0.1,2.75c-3.99,9.43-8.05,16.1-17.74,26.3"/>
	</g>
	<g id="kvg:07317-g2" kvg:element="奇" kvg:position="right">
		<g id="kvg:07317-g3" kvg:element="大" kvg:variant="true" kvg:position="top">
			<path id="kvg:07317-s4" kvg:type="㇐" d="M43.27,23.59c1.6,0.2,3.39,0.11,4.44,0.06C55,23.25,75,22,83.1,21.46c1.31-0.09,3.68,0.46,5.16,0.46"/>
			<path id="kvg:07317-s5" kvg:type="㇒" d="M64.12,12c0.3,0.44,0.46,0.95,0.45,1.89C64.25,26.93,57.5,40.75,45.5,44"/>
			<path id="kvg:07317-s6" kvg:type="㇔/㇏" d="M66,27.5c6.59,3.16,14.22,8.28,18.25,13"/>
		</g>
		<g id="kvg:07317-g4" kvg:element="可" kvg:position="bottom">
			<g id="kvg:07317-g5" kvg:element="丁" kvg:part="1">
				<g id="kvg:07317-g6" kvg:element="一">
					<path id="kvg:07317-s7" kvg:type="㇐" d="M39.63,49.27c1.59,0.84,4.52,1.04,6.11,0.84c9.5-1.2,34.62-2.89,47.81-4c2.65-0.22,4.25,0.4,5.58,0.83"/>
				</g>
			</g>
			<g id="kvg:07317-g7" kvg:element="口">
				<path id="kvg:07317-s8" kvg:type="㇑" d="M47.95,59.99c0.27,0.29,0.55,0.54,0.67,0.9c0.95,2.91,2.58,10.92,3.23,16.14"/>
				<path id="kvg:07317-s9" kvg:type="㇕b" d="M49.65,60.96c5.6-0.96,15.89-2.69,19.1-3.07c1.17-0.14,2.37,1.83,2.21,2.65c-0.69,3.39-2,7-3.03,11.69"/>
				<path id="kvg:07317-s10" kvg:type="㇐b" d="M51.98,74.98c3.76-0.43,12.95-1.68,18.11-2.34"/>
			</g>
			<g id="kvg:07317-g8" kvg:element="丁" kvg:part="2">
				<g id="kvg:07317-g9" kvg:element="亅">
					<path id="kvg:07317-s11" kvg:type="㇚" d="M82.21,48.47c0.77,1.05,1.66,1.78,1.74,5.2c0.4,16.42-0.25,32.95-0.25,38.54c0,9.59-7.14,1.69-8.63,0.28"/>
				</g>
			</g>
		</g>
	</g>
</g>
</g>
<g id="kvg:StrokeNumbers_07317" style="font-size:8;fill:#808080">
	<text transform="matrix(1 0 0 1 31.50 15.50)">1</text>
	<text transform="matrix(1 0 0 1 9.50 16.50)">2</text>
	<text transform="matrix(1 0 0 1 22.50 44.50)">3</text>
	<text transform="matrix(1 0 0 1 44.50 20.50)">4</text>
	<text transform="matrix(1 0 0 1 54.50 11.50)">5</text>
	<text transform="matrix(1 0 0 1 77.50 31.50)">6</text>
	<text transform="matrix(1 0 0 1 37.50 46.50)">7</text>
	<text transform="matrix(1 0 0 1 41.50 66.50)">8</text>
	<text transform="matrix(1 0 0 1 50.50 57.50)">9</text>
	<text transform="matrix(1 0 0 1 54.50 71.50)">10</text>
	<text transform="matrix(1 0 0 1 74.25 57.50)">11</text>
</g>
</svg>
