<?xml version="1.0" encoding="UTF-8"?>
<!--
Copyright (C) 2009/2010/2011 Ulrich Apel.
This work is distributed under the conditions of the Creative Commons 
Attribution-Share Alike 3.0 Licence. This means you are free:
* to Share - to copy, distribute and transmit the work
* to Remix - to adapt the work

Under the following conditions:
* Attribution. You must attribute the work by stating your use of KanjiVG in
  your own copyright header and linking to KanjiVG's website
  (http://kanjivg.tagaini.net)
* Share Alike. If you alter, transform, or build upon this work, you may
  distribute the resulting work only under the same or similar license to this
  one.

See http://creativecommons.org/licenses/by-sa/3.0/ for more details.
-->
<!DOCTYPE svg PUBLIC "-//W3C//DTD SVG 1.0//EN" "http://www.w3.org/TR/2001/REC-SVG-20010904/DTD/svg10.dtd" [
<!ATTLIST g
xmlns:kvg CDATA #FIXED "http://kanjivg.tagaini.net"
kvg:element CDATA #IMPLIED
kvg:variant CDATA #IMPLIED
kvg:partial CDATA #IMPLIED
kvg:original CDATA #IMPLIED
kvg:part CDATA #IMPLIED
kvg:number CDATA #IMPLIED
kvg:tradForm CDATA #IMPLIED
kvg:radicalForm CDATA #IMPLIED
kvg:position CDATA #IMPLIED
kvg:radical CDATA #IMPLIED
kvg:phon CDATA #IMPLIED >
<!ATTLIST path
xmlns:kvg CDATA #FIXED "http://kanjivg.tagaini.net"
kvg:type CDATA #IMPLIED >
]>
<svg xmlns="http://www.w3.org/2000/svg" width="109" height="109" viewBox="0 0 109 109">
<g id="kvg:StrokePaths_07357" style="fill:none;stroke:#000000;stroke-width:3;stroke-linecap:round;stroke-linejoin:round;">
<g id="kvg:07357" kvg:element="獗">
	<g id="kvg:07357-g1" kvg:element="⺨" kvg:variant="true" kvg:original="犬" kvg:position="left" kvg:radical="general">
		<path id="kvg:07357-s1" kvg:type="㇒" d="M31.56,15.25c0.06,0.63,0.27,1.85-0.12,2.54c-4.94,8.7-9.95,14.85-21.94,24.26"/>
		<path id="kvg:07357-s2" kvg:type="㇕va" d="M12.5,17.75c28.25,23.5,15.96,85.03,4.25,72"/>
		<path id="kvg:07357-s3" kvg:type="㇒" d="M25.35,46c0.04,0.59,0.19,1.73-0.08,2.37c-3.49,8.13-7.04,13.88-15.51,22.67"/>
	</g>
	<g id="kvg:07357-g2" kvg:element="厥" kvg:position="right">
		<g id="kvg:07357-g3" kvg:element="厂" kvg:position="tare">
			<path id="kvg:07357-s4" kvg:type="㇐" d="M39.95,17.57c1.41,0.66,3.98,0.77,5.39,0.66c14.63-1.11,30.13-2.41,44.32-3.28c2.34-0.14,3.75,0.32,4.92,0.65"/>
			<path id="kvg:07357-s5" kvg:type="㇒" d="M42.45,18.63c0.37,1.47,0.38,1.86,0.31,4.27c-0.5,19.23-0.01,54.1-10.2,70.18"/>
		</g>
		<g id="kvg:07357-g4" kvg:position="left">
			<path id="kvg:07357-s6" kvg:type="㇔" d="M49.65,28.43c1.87,1.93,4.82,7.95,5.29,10.95"/>
			<path id="kvg:07357-s7" kvg:type="㇒" d="M67.23,23.91c0.02,0.36,0.04,0.93-0.03,1.45c-0.41,3.06-2.75,9.77-5.96,13.88"/>
			<path id="kvg:07357-s8" kvg:type="㇐" d="M47.11,44.87c0.61,0.3,1.72,0.33,2.33,0.3c4.96-0.21,15.96-3.68,19.72-3.33c1.01,0.09,1.62,0.14,2.13,0.29"/>
			<g id="kvg:07357-g5" kvg:element="屮">
				<g id="kvg:07357-g6" kvg:element="凵">
					<path id="kvg:07357-s9" kvg:type="㇗a" d="M49.31,53.58c0.49,0.35,1.04,1.85,0.98,2.56c-0.37,4.23-1.64,10.23-1.76,14.28c-0.05,1.62-0.22,2.57,0.97,2.17c6.61-2.23,11-3,18.01-4.27"/>
					<path id="kvg:07357-s10" kvg:type="㇑" d="M68.38,52.21c0.49,0.35,1.04,2.64,0.98,3.35c-0.54,6.45-0.23,9.64-1.05,16.25"/>
				</g>
				<g id="kvg:07357-g7" kvg:element="丿">
					<path id="kvg:07357-s11" kvg:type="㇒" d="M58.42,46.59c0.46,1.3,0.71,2.89,0.71,4.51c0,16.98-0.37,31.91-13.34,43.13"/>
				</g>
			</g>
		</g>
		<g id="kvg:07357-g8" kvg:element="欠" kvg:position="right">
			<g id="kvg:07357-g9" kvg:position="top">
				<path id="kvg:07357-s12" kvg:type="㇒" d="M81.32,24.77c0.02,0.65,0.04,1.68-0.04,2.62c-0.47,5.52-3.18,17.62-6.88,25.04"/>
				<path id="kvg:07357-s13" kvg:type="㇖a" d="M81.87,40.15c0.56,0.3,1.6,0.66,2.47,0.51c3.9-0.66,10.88-2.57,11.86-2.58c3.39-0.05-0.58,5.79-3.58,9.76"/>
			</g>
			<g id="kvg:07357-g10" kvg:position="bottom">
				<path id="kvg:07357-s14" kvg:type="㇒" d="M80.82,50.53c0.68,1.22,0.78,2.12,0.67,3.58c-0.74,10.63-5.74,28.63-18.61,40.38"/>
				<path id="kvg:07357-s15" kvg:type="㇏" d="M80.68,64.41c2.4,5.57,10.8,22.27,15.11,28.22c0.91,1.25,1.6,2,2.46,2.4"/>
			</g>
		</g>
	</g>
</g>
</g>
<g id="kvg:StrokeNumbers_07357" style="font-size:8;fill:#808080">
	<text transform="matrix(1 0 0 1 24.50 15.50)">1</text>
	<text transform="matrix(1 0 0 1 4.50 18.50)">2</text>
	<text transform="matrix(1 0 0 1 18.50 46.50)">3</text>
	<text transform="matrix(1 0 0 1 41.50 14.50)">4</text>
	<text transform="matrix(1 0 0 1 35.50 25.50)">5</text>
	<text transform="matrix(1 0 0 1 50.50 27.25)">6</text>
	<text transform="matrix(1 0 0 1 59.50 25.18)">7</text>
	<text transform="matrix(1 0 0 1 47.50 41.50)">8</text>
	<text transform="matrix(1 0 0 1 50.50 52.50)">9</text>
	<text transform="matrix(1 0 0 1 61.75 50.50)">10</text>
	<text transform="matrix(1 0 0 1 50.75 61.63)">11</text>
	<text transform="matrix(1 0 0 1 71.50 29.50)">12</text>
	<text transform="matrix(1 0 0 1 83.50 36.73)">13</text>
	<text transform="matrix(1 0 0 1 72.50 62.50)">14</text>
	<text transform="matrix(1 0 0 1 83.50 69.33)">15</text>
</g>
</svg>
