<?xml version="1.0" encoding="UTF-8"?>
<!--
Copyright (C) 2009/2010/2011 Ulrich Apel.
This work is distributed under the conditions of the Creative Commons 
Attribution-Share Alike 3.0 Licence. This means you are free:
* to Share - to copy, distribute and transmit the work
* to Remix - to adapt the work

Under the following conditions:
* Attribution. You must attribute the work by stating your use of KanjiVG in
  your own copyright header and linking to KanjiVG's website
  (http://kanjivg.tagaini.net)
* Share Alike. If you alter, transform, or build upon this work, you may
  distribute the resulting work only under the same or similar license to this
  one.

See http://creativecommons.org/licenses/by-sa/3.0/ for more details.
-->
<!DOCTYPE svg PUBLIC "-//W3C//DTD SVG 1.0//EN" "http://www.w3.org/TR/2001/REC-SVG-20010904/DTD/svg10.dtd" [
<!ATTLIST g
xmlns:kvg CDATA #FIXED "http://kanjivg.tagaini.net"
kvg:element CDATA #IMPLIED
kvg:variant CDATA #IMPLIED
kvg:partial CDATA #IMPLIED
kvg:original CDATA #IMPLIED
kvg:part CDATA #IMPLIED
kvg:number CDATA #IMPLIED
kvg:tradForm CDATA #IMPLIED
kvg:radicalForm CDATA #IMPLIED
kvg:position CDATA #IMPLIED
kvg:radical CDATA #IMPLIED
kvg:phon CDATA #IMPLIED >
<!ATTLIST path
xmlns:kvg CDATA #FIXED "http://kanjivg.tagaini.net"
kvg:type CDATA #IMPLIED >
]>
<svg xmlns="http://www.w3.org/2000/svg" width="109" height="109" viewBox="0 0 109 109">
<g id="kvg:StrokePaths_07363" style="fill:none;stroke:#000000;stroke-width:3;stroke-linecap:round;stroke-linejoin:round;">
<g id="kvg:07363" kvg:element="獣">
	<g id="kvg:07363-g1" kvg:position="left">
		<g id="kvg:07363-g2" kvg:element="⺍" kvg:original="つ">
			<path id="kvg:07363-s1" kvg:type="㇔" d="M12,22.91c3.02,3.35,6.25,9.22,6.69,10.9"/>
			<path id="kvg:07363-s2" kvg:type="㇔" d="M26.62,20.25c1.54,2.17,5.25,7.85,5.87,11.37"/>
			<path id="kvg:07363-s3" kvg:type="㇒" d="M46.16,18.69c0.4,0.68,0.43,1.73-0.15,2.99c-1.01,2.2-4.09,6.76-5.49,8.81"/>
		</g>
		<g id="kvg:07363-g3" kvg:element="田">
			<path id="kvg:07363-s4" kvg:type="㇑" d="M15.55,41.27c0.72,0.72,1.02,1.59,1.33,2.98c1,4.5,1.67,8.85,2.34,13.97c0.17,1.33,0.32,2.63,0.43,3.86"/>
			<path id="kvg:07363-s5" kvg:type="㇕a" d="M17.09,42.48c8.78-1.98,18.01-3.45,24.53-4.51c4.27-0.7,6.5-0.79,5.98,4.16c-0.36,3.49-0.91,8.43-1.83,12.88c-0.25,1.18-0.52,2.33-0.82,3.41"/>
			<path id="kvg:07363-s6" kvg:type="㇑a" d="M31.09,41.16c0.75,0.75,0.97,1.74,0.97,3.09C32.08,49.27,32,53.12,32,57.12"/>
			<path id="kvg:07363-s7" kvg:type="㇐a" d="M19.26,51.06c7.61-1.31,19.24-2.81,26.39-3.43"/>
			<path id="kvg:07363-s8" kvg:type="㇐a" d="M20.8,60.04c5.65-0.65,13.95-1.92,23.22-2.73"/>
		</g>
		<path id="kvg:07363-s9" kvg:type="㇐" d="M10.25,68.89c1.88,0.76,4.07,0.38,5.99,0.09c8.13-1.23,19.88-3.1,28.63-3.9c2.28-0.21,4.14-0.62,6.38-0.07"/>
		<g id="kvg:07363-g4" kvg:element="口">
			<path id="kvg:07363-s10" kvg:type="㇑" d="M16.9,76.67c0.77,0.55,1.19,1.32,1.27,2.29c0.67,2.34,1.44,6.12,2.26,9.5c0.39,1.6,0.71,3.11,0.92,4.33"/>
			<path id="kvg:07363-s11" kvg:type="㇕b" d="M19.05,77.99c7.91-1.51,17.89-3.35,22.85-4.09c2.75-0.41,4.36,0.14,3.55,3.12c-0.72,2.65-1.1,4.23-2.57,8.16"/>
			<path id="kvg:07363-s12" kvg:type="㇐b" d="M22.38,89.38c3.43-0.44,13.2-1.99,19.62-2.86c1.48-0.2,2.78-0.37,3.79-0.47"/>
		</g>
	</g>
	<g id="kvg:07363-g5" kvg:element="犬" kvg:position="right" kvg:radical="general">
		<g id="kvg:07363-g6" kvg:element="大">
			<path id="kvg:07363-s13" kvg:type="㇐" d="M54.12,47.36c1.9,0.86,4.61,0.63,6.61,0.31c6.03-0.94,14.38-2.74,20.14-3.56c2.27-0.32,3.89-0.22,6.13,0.34"/>
			<path id="kvg:07363-s14" kvg:type="㇒" d="M66.82,19c0.59,1.06,0.95,2.1,1.03,4.2C68.88,50.65,65.25,80.25,47,93.25"/>
			<path id="kvg:07363-s15" kvg:type="㇏" d="M67,48.88c4.75,11.25,12.5,24.38,20.47,34.52c1.76,2.24,4.03,5.36,7.03,7.36"/>
		</g>
		<g id="kvg:07363-g7" kvg:element="丶">
			<path id="kvg:07363-s16" kvg:type="㇔" d="M76.83,23.25c5,3.15,6.37,5.55,7.92,8.5"/>
		</g>
	</g>
</g>
</g>
<g id="kvg:StrokeNumbers_07363" style="font-size:8;fill:#808080">
	<text transform="matrix(1 0 0 1 5.25 24.50)">1</text>
	<text transform="matrix(1 0 0 1 19.50 20.50)">2</text>
	<text transform="matrix(1 0 0 1 36.75 18.50)">3</text>
	<text transform="matrix(1 0 0 1 9.50 47.50)">4</text>
	<text transform="matrix(1 0 0 1 21.75 38.50)">5</text>
	<text transform="matrix(1 0 0 1 36.75 46.63)">6</text>
	<text transform="matrix(1 0 0 1 23.25 49.63)">7</text>
	<text transform="matrix(1 0 0 1 23.25 58.55)">8</text>
	<text transform="matrix(1 0 0 1 2.25 70.48)">9</text>
	<text transform="matrix(1 0 0 1 7.50 85.40)">10</text>
	<text transform="matrix(1 0 0 1 20.25 75.50)">11</text>
	<text transform="matrix(1 0 0 1 23.25 86.50)">12</text>
	<text transform="matrix(1 0 0 1 51.75 44.50)">13</text>
	<text transform="matrix(1 0 0 1 55.50 16.50)">14</text>
	<text transform="matrix(1 0 0 1 72.50 57.50)">15</text>
	<text transform="matrix(1 0 0 1 73.50 21.13)">16</text>
</g>
</svg>
