<?xml version="1.0" encoding="UTF-8"?>
<!--
Copyright (C) 2009/2010/2011 Ulrich Apel.
This work is distributed under the conditions of the Creative Commons 
Attribution-Share Alike 3.0 Licence. This means you are free:
* to Share - to copy, distribute and transmit the work
* to Remix - to adapt the work

Under the following conditions:
* Attribution. You must attribute the work by stating your use of KanjiVG in
  your own copyright header and linking to KanjiVG's website
  (http://kanjivg.tagaini.net)
* Share Alike. If you alter, transform, or build upon this work, you may
  distribute the resulting work only under the same or similar license to this
  one.

See http://creativecommons.org/licenses/by-sa/3.0/ for more details.
-->
<!DOCTYPE svg PUBLIC "-//W3C//DTD SVG 1.0//EN" "http://www.w3.org/TR/2001/REC-SVG-20010904/DTD/svg10.dtd" [
<!ATTLIST g
xmlns:kvg CDATA #FIXED "http://kanjivg.tagaini.net"
kvg:element CDATA #IMPLIED
kvg:variant CDATA #IMPLIED
kvg:partial CDATA #IMPLIED
kvg:original CDATA #IMPLIED
kvg:part CDATA #IMPLIED
kvg:number CDATA #IMPLIED
kvg:tradForm CDATA #IMPLIED
kvg:radicalForm CDATA #IMPLIED
kvg:position CDATA #IMPLIED
kvg:radical CDATA #IMPLIED
kvg:phon CDATA #IMPLIED >
<!ATTLIST path
xmlns:kvg CDATA #FIXED "http://kanjivg.tagaini.net"
kvg:type CDATA #IMPLIED >
]>
<svg xmlns="http://www.w3.org/2000/svg" width="109" height="109" viewBox="0 0 109 109">
<g id="kvg:StrokePaths_073e5-KaishoVtLstVt3" style="fill:none;stroke:#000000;stroke-width:3;stroke-linecap:round;stroke-linejoin:round;">
<g id="kvg:073e5-KaishoVtLstVt3" kvg:element="珥">
	<g id="kvg:073e5-KaishoVtLstVt3-g1" kvg:element="王" kvg:original="玉" kvg:partial="true" kvg:position="left" kvg:radical="general">
		<path id="kvg:073e5-KaishoVtLstVt3-s1" kvg:type="㇐" d="M11.6,23.25c0.67,0.37,4.31,0.45,4.99,0.34c3.16-0.5,15.98-2.09,23.56-2.64c1.03-0.07,2.95-0.26,3.8,0.04"/>
		<path id="kvg:073e5-KaishoVtLstVt3-s2" kvg:type="㇐" d="M12.52,50.5c0.59,0.4,4.75,0.46,5.36,0.37c3.47-0.53,15.28-2.12,20.08-2.69c0.74-0.09,3.44-0.16,4.54,0.19"/>
		<path id="kvg:073e5-KaishoVtLstVt3-s3" kvg:type="㇐" d="M11.75,83.25c1.25,1,3.36,1.43,4.24,1c5.61-2.75,16.62-8.75,25.17-13.5"/>
		<path id="kvg:073e5-KaishoVtLstVt3-s4" kvg:type="㇑" d="M27.05,25.52c0.93,0.88,1.58,2.78,1.58,3.48c0,5.95,0.05,44.62-0.13,48.57"/>
	</g>
	<g id="kvg:073e5-KaishoVtLstVt3-g2" kvg:element="耳" kvg:position="right">
		<path id="kvg:073e5-KaishoVtLstVt3-s5" kvg:type="㇐" d="M49.19,21.13c1.26,0.33,3.57,0.39,4.83,0.33c13.86-0.69,21.23-3.13,38.32-3.51c2.1-0.05,3.36,0.16,4.41,0.32"/>
		<path id="kvg:073e5-KaishoVtLstVt3-s6" kvg:type="㇑" d="M57.18,23.82c0.82,1.18,1.28,2.33,1.28,3.72c0,1.39-0.16,41.8-0.16,46.79"/>
		<path id="kvg:073e5-KaishoVtLstVt3-s7" kvg:type="㇑" d="M83.75,21.25c1,1.25,1.1,1.46,1.1,2.85s0.16,65.03,0.16,76.4"/>
		<path id="kvg:073e5-KaishoVtLstVt3-s8" kvg:type="㇐" d="M58.55,38.73c4.4-0.83,8.85-1.35,13.31-1.75c1.07-0.1,2.14-0.19,3.19-0.27"/>
		<path id="kvg:073e5-KaishoVtLstVt3-s9" kvg:type="㇐" d="M58.74,54.2c4.13-0.66,8.3-1.05,12.47-1.41c1.12-0.1,2.24-0.19,3.38-0.28"/>
		<path id="kvg:073e5-KaishoVtLstVt3-s10" kvg:type="㇀" d="M47.5,76.1c0.31,0.83,2.72,1.01,3.81,0.66c4.37-1.39,35.72-10.3,42.44-12.52"/>
	</g>
</g>
</g>
<g id="kvg:StrokeNumbers_073e5-KaishoVtLstVt3" style="font-size:8;fill:#808080">
	<text transform="matrix(1 0 0 1 5.50 23.50)">1</text>
	<text transform="matrix(1 0 0 1 5.50 50.50)">2</text>
	<text transform="matrix(1 0 0 1 4.54 84.50)">3</text>
	<text transform="matrix(1 0 0 1 20.50 33.50)">4</text>
	<text transform="matrix(1 0 0 1 46.50 18.50)">5</text>
	<text transform="matrix(1 0 0 1 50.50 31.50)">6</text>
	<text transform="matrix(1 0 0 1 76.00 28.50)">7</text>
	<text transform="matrix(1 0 0 1 62.50 34.50)">8</text>
	<text transform="matrix(1 0 0 1 62.50 50.50)">9</text>
	<text transform="matrix(1 0 0 1 47.50 72.50)">10</text>
</g>
</svg>
