<?xml version="1.0" encoding="UTF-8"?>
<!--
Copyright (C) 2009/2010/2011 Ulrich Apel.
This work is distributed under the conditions of the Creative Commons 
Attribution-Share Alike 3.0 Licence. This means you are free:
* to Share - to copy, distribute and transmit the work
* to Remix - to adapt the work

Under the following conditions:
* Attribution. You must attribute the work by stating your use of KanjiVG in
  your own copyright header and linking to KanjiVG's website
  (http://kanjivg.tagaini.net)
* Share Alike. If you alter, transform, or build upon this work, you may
  distribute the resulting work only under the same or similar license to this
  one.

See http://creativecommons.org/licenses/by-sa/3.0/ for more details.
-->
<!DOCTYPE svg PUBLIC "-//W3C//DTD SVG 1.0//EN" "http://www.w3.org/TR/2001/REC-SVG-20010904/DTD/svg10.dtd" [
<!ATTLIST g
xmlns:kvg CDATA #FIXED "http://kanjivg.tagaini.net"
kvg:element CDATA #IMPLIED
kvg:variant CDATA #IMPLIED
kvg:partial CDATA #IMPLIED
kvg:original CDATA #IMPLIED
kvg:part CDATA #IMPLIED
kvg:number CDATA #IMPLIED
kvg:tradForm CDATA #IMPLIED
kvg:radicalForm CDATA #IMPLIED
kvg:position CDATA #IMPLIED
kvg:radical CDATA #IMPLIED
kvg:phon CDATA #IMPLIED >
<!ATTLIST path
xmlns:kvg CDATA #FIXED "http://kanjivg.tagaini.net"
kvg:type CDATA #IMPLIED >
]>
<svg xmlns="http://www.w3.org/2000/svg" width="109" height="109" viewBox="0 0 109 109">
<g id="kvg:StrokePaths_073f8-VtLst" style="fill:none;stroke:#000000;stroke-width:3;stroke-linecap:round;stroke-linejoin:round;">
<g id="kvg:073f8-VtLst" kvg:element="珸">
	<g id="kvg:073f8-VtLst-g1" kvg:element="王" kvg:original="玉" kvg:partial="true" kvg:position="left" kvg:radical="general">
		<path id="kvg:073f8-VtLst-s1" kvg:type="㇐" d="M12.1,24.75c0.67,0.37,4.31,0.45,4.99,0.34c3.16-0.5,14.98-1.59,22.56-2.14c1.03-0.07,2.95-0.26,3.8,0.04"/>
		<path id="kvg:073f8-VtLst-s2" kvg:type="㇐" d="M13.02,51.5c0.59,0.4,4.75,0.46,5.36,0.37c3.47-0.53,13.78-2.12,18.58-2.69c0.74-0.09,3.44-0.16,4.54,0.19"/>
		<path id="kvg:073f8-VtLst-s3" kvg:type="㇐" d="M11.75,84.06c1.32,1.16,4.05,0.67,4.98,0.16c5.92-3.2,13.91-7.94,22.93-13.47"/>
		<path id="kvg:073f8-VtLst-s4" kvg:type="㇑" d="M26.55,26.52c0.93,0.88,1.58,2.78,1.58,3.48c0,5.95,0.05,43.12-0.13,47.07"/>
	</g>
	<g id="kvg:073f8-VtLst-g2" kvg:element="吾" kvg:position="right">
		<g id="kvg:073f8-VtLst-g3" kvg:element="五" kvg:position="top">
			<g id="kvg:073f8-VtLst-g4" kvg:element="二" kvg:part="1">
				<path id="kvg:073f8-VtLst-s5" kvg:type="㇐" d="M49.54,18.63c1.08,0.22,3.04,0.15,4.13,0.12c10-0.21,19.13-2.29,34.51-2.55c1.8-0.03,2.88,0.03,3.77,0.13"/>
			</g>
			<path id="kvg:073f8-VtLst-s6" kvg:type="㇑a" d="M66.5,21.75c0.51,0.4,0.87,2.33,0.65,3.3C64.5,36.5,62.11,48.52,60.2,54.42"/>
			<path id="kvg:073f8-VtLst-s7" kvg:type="㇕c" d="M51.43,35.71c0.79,0.4,2.88,0.53,3.53,0.46c8.8-0.92,21.3-3.17,27.81-3.9c1.5-0.17,3.21,1.23,3.21,2.93c0,2.91-1.77,11.17-2.98,17.55"/>
			<g id="kvg:073f8-VtLst-g5" kvg:element="二" kvg:part="2">
				<path id="kvg:073f8-VtLst-s8" kvg:type="㇐" d="M45.33,55.99c1.22,0.32,4.23,0.23,5.45,0.1c10.3-1.04,25.83-2.52,42.89-3.15c2.03-0.08,4.03-0.02,5.05,0.12"/>
			</g>
		</g>
		<g id="kvg:073f8-VtLst-g6" kvg:element="口" kvg:position="bottom">
			<path id="kvg:073f8-VtLst-s9" kvg:type="㇑" d="M51.8,66.41c0.43,0.5,0.88,0.92,1.07,1.56c1.5,5,3.3,18.8,4.32,27.79"/>
			<path id="kvg:073f8-VtLst-s10" kvg:type="㇕b" d="M53.36,68.14C64.75,67,81,65.4,86.84,64.77c2.14-0.23,3.42,1.36,3.11,2.71C88.69,73.05,87.5,81,85.83,90.01"/>
			<path id="kvg:073f8-VtLst-s11" kvg:type="㇐b" d="M57.2,92.72c6.87-0.71,20.8-1.88,30.76-2.41"/>
		</g>
	</g>
</g>
</g>
<g id="kvg:StrokeNumbers_073f8-VtLst" style="font-size:8;fill:#808080">
	<text transform="matrix(1 0 0 1 5.50 24.50)">1</text>
	<text transform="matrix(1 0 0 1 5.50 52.50)">2</text>
	<text transform="matrix(1 0 0 1 3.50 84.50)">3</text>
	<text transform="matrix(1 0 0 1 19.50 34.50)">4</text>
	<text transform="matrix(1 0 0 1 47.50 15.50)">5</text>
	<text transform="matrix(1 0 0 1 59.50 28.25)">6</text>
	<text transform="matrix(1 0 0 1 45.50 35.50)">7</text>
	<text transform="matrix(1 0 0 1 45.50 52.50)">8</text>
	<text transform="matrix(1 0 0 1 46.50 75.50)">9</text>
	<text transform="matrix(1 0 0 1 55.50 64.50)">10</text>
	<text transform="matrix(1 0 0 1 59.50 88.50)">11</text>
</g>
</svg>
