<?xml version="1.0" encoding="UTF-8"?>
<!--
Copyright (C) 2009/2010/2011 Ulrich Apel.
This work is distributed under the conditions of the Creative Commons 
Attribution-Share Alike 3.0 Licence. This means you are free:
* to Share - to copy, distribute and transmit the work
* to Remix - to adapt the work

Under the following conditions:
* Attribution. You must attribute the work by stating your use of KanjiVG in
  your own copyright header and linking to KanjiVG's website
  (http://kanjivg.tagaini.net)
* Share Alike. If you alter, transform, or build upon this work, you may
  distribute the resulting work only under the same or similar license to this
  one.

See http://creativecommons.org/licenses/by-sa/3.0/ for more details.
-->
<!DOCTYPE svg PUBLIC "-//W3C//DTD SVG 1.0//EN" "http://www.w3.org/TR/2001/REC-SVG-20010904/DTD/svg10.dtd" [
<!ATTLIST g
xmlns:kvg CDATA #FIXED "http://kanjivg.tagaini.net"
kvg:element CDATA #IMPLIED
kvg:variant CDATA #IMPLIED
kvg:partial CDATA #IMPLIED
kvg:original CDATA #IMPLIED
kvg:part CDATA #IMPLIED
kvg:number CDATA #IMPLIED
kvg:tradForm CDATA #IMPLIED
kvg:radicalForm CDATA #IMPLIED
kvg:position CDATA #IMPLIED
kvg:radical CDATA #IMPLIED
kvg:phon CDATA #IMPLIED >
<!ATTLIST path
xmlns:kvg CDATA #FIXED "http://kanjivg.tagaini.net"
kvg:type CDATA #IMPLIED >
]>
<svg xmlns="http://www.w3.org/2000/svg" width="109" height="109" viewBox="0 0 109 109">
<g id="kvg:StrokePaths_07403-VtLst" style="fill:none;stroke:#000000;stroke-width:3;stroke-linecap:round;stroke-linejoin:round;">
<g id="kvg:07403-VtLst" kvg:element="球">
	<g id="kvg:07403-VtLst-g1" kvg:element="王" kvg:original="玉" kvg:partial="true" kvg:position="left" kvg:radical="general">
		<path id="kvg:07403-VtLst-s1" kvg:type="㇐" d="M13.75,29.25c0.56,0.37,3.6,0.45,4.16,0.34c2.63-0.5,13.34-2.09,19.66-2.64c0.86-0.07,2.46-0.26,3.18,0.04"/>
		<path id="kvg:07403-VtLst-s2" kvg:type="㇑a" d="M12.5,55c0.55,0.4,4.45,0.46,5.01,0.37c3.25-0.53,15.24-3.62,19.73-4.19c0.69-0.09,3.22-0.16,4.25,0.19"/>
		<path id="kvg:07403-VtLst-s3" kvg:type="㇐" d="M12.25,83.75c0.54,0.23,2.68,1.93,3.5,1.5C21,82.5,28.5,78.5,36.5,73.75"/>
		<path id="kvg:07403-VtLst-s4" kvg:type="㇀/㇐" d="M26.57,31.52c0.87,0.88,1.48,2.77,1.48,3.48c0,5.95,0.52,37.62,0.35,41.57"/>
	</g>
	<g id="kvg:07403-VtLst-g2" kvg:element="求" kvg:position="right">
		<path id="kvg:07403-VtLst-s5" kvg:type="㇐" d="M46.14,35.41c0.87,0.34,2.48,0.5,3.34,0.34c3.53-0.66,30.6-3.85,38.9-3.85c1.45,0,2.33,0.16,3.05,0.33"/>
		<g id="kvg:07403-VtLst-g3" kvg:element="氺" kvg:variant="true" kvg:original="水">
			<path id="kvg:07403-VtLst-s6" kvg:type="㇚" d="M66.96,14.46c0.08,0.44,1.08,2.29,1.16,5.09c0.37,13.41-0.24,65.12-0.24,69.69c0,4.87-1.86,5.79-4.85,2.79c-1.6-1.6-1.79-1.41-3.17-2.56"/>
			<path id="kvg:07403-VtLst-s7" kvg:type="㇔" d="M48.68,46.06c3.41,1.36,8.82,5.61,9.67,7.73"/>
			<path id="kvg:07403-VtLst-s8" kvg:type="㇀" d="M41.25,81.75c1.91,2.88,3.51,1.28,5.42-1.19c1.13-1.45,9.08-11,14.98-18.55"/>
			<path id="kvg:07403-VtLst-s9" kvg:type="㇒" d="M88.28,41.49c0.05,0.33,0.09,0.91-0.11,1.35c-1.9,4.13-5.85,8.83-9.58,11.76"/>
			<path id="kvg:07403-VtLst-s10" kvg:type="㇏" d="M74.32,61.61c5.52,7.76,14.03,18.24,20.2,22.71c1.3,0.94,2.54,1.42,3.73,1.74"/>
		</g>
		<g id="kvg:07403-VtLst-g4" kvg:element="丶">
			<path id="kvg:07403-VtLst-s11" kvg:type="㇔" d="M80.39,14.46c2.82,1.36,7.29,5.61,7.99,7.73"/>
		</g>
	</g>
</g>
</g>
<g id="kvg:StrokeNumbers_07403-VtLst" style="font-size:8;fill:#808080">
	<text transform="matrix(1 0 0 1 6.50 30.50)">1</text>
	<text transform="matrix(1 0 0 1 5.25 55.63)">2</text>
	<text transform="matrix(1 0 0 1 3.75 87.13)">3</text>
	<text transform="matrix(1 0 0 1 20.50 39.50)">4</text>
	<text transform="matrix(1 0 0 1 45.50 32.50)">5</text>
	<text transform="matrix(1 0 0 1 57.50 12.50)">6</text>
	<text transform="matrix(1 0 0 1 41.50 45.50)">7</text>
	<text transform="matrix(1 0 0 1 33.75 90.13)">8</text>
	<text transform="matrix(1 0 0 1 78.50 41.50)">9</text>
	<text transform="matrix(1 0 0 1 77.50 64.50)">10</text>
	<text transform="matrix(1 0 0 1 74.50 11.50)">11</text>
</g>
</svg>
