<?xml version="1.0" encoding="UTF-8"?>
<!--
Copyright (C) 2009/2010/2011 Ulrich Apel.
This work is distributed under the conditions of the Creative Commons 
Attribution-Share Alike 3.0 Licence. This means you are free:
* to Share - to copy, distribute and transmit the work
* to Remix - to adapt the work

Under the following conditions:
* Attribution. You must attribute the work by stating your use of KanjiVG in
  your own copyright header and linking to KanjiVG's website
  (http://kanjivg.tagaini.net)
* Share Alike. If you alter, transform, or build upon this work, you may
  distribute the resulting work only under the same or similar license to this
  one.

See http://creativecommons.org/licenses/by-sa/3.0/ for more details.
-->
<!DOCTYPE svg PUBLIC "-//W3C//DTD SVG 1.0//EN" "http://www.w3.org/TR/2001/REC-SVG-20010904/DTD/svg10.dtd" [
<!ATTLIST g
xmlns:kvg CDATA #FIXED "http://kanjivg.tagaini.net"
kvg:element CDATA #IMPLIED
kvg:variant CDATA #IMPLIED
kvg:partial CDATA #IMPLIED
kvg:original CDATA #IMPLIED
kvg:part CDATA #IMPLIED
kvg:number CDATA #IMPLIED
kvg:tradForm CDATA #IMPLIED
kvg:radicalForm CDATA #IMPLIED
kvg:position CDATA #IMPLIED
kvg:radical CDATA #IMPLIED
kvg:phon CDATA #IMPLIED >
<!ATTLIST path
xmlns:kvg CDATA #FIXED "http://kanjivg.tagaini.net"
kvg:type CDATA #IMPLIED >
]>
<svg xmlns="http://www.w3.org/2000/svg" width="109" height="109" viewBox="0 0 109 109">
<g id="kvg:StrokePaths_0743a-VtLst" style="fill:none;stroke:#000000;stroke-width:3;stroke-linecap:round;stroke-linejoin:round;">
<g id="kvg:0743a-VtLst" kvg:element="琺">
	<g id="kvg:0743a-VtLst-g1" kvg:element="王" kvg:original="玉" kvg:partial="true" kvg:position="left" kvg:radical="general">
		<path id="kvg:0743a-VtLst-s1" kvg:type="㇐" d="M12.1,24.75c0.61,0.37,3.91,0.45,4.52,0.34c2.86-0.5,12.5-1.59,19.37-2.14c0.94-0.07,2.67-0.26,3.45,0.04"/>
		<path id="kvg:0743a-VtLst-s2" kvg:type="㇐" d="M11.93,51.5c0.54,0.4,4.31,0.46,4.86,0.37c3.15-0.53,13.86-2.12,18.22-2.69c0.67-0.09,3.12-0.16,4.12,0.19"/>
		<path id="kvg:0743a-VtLst-s3" kvg:type="㇐" d="M10.74,84.01c1.76,0.99,3.61,0.72,4.43,0.21c5.19-3.31,12.57-7.74,20.49-13.47"/>
		<path id="kvg:0743a-VtLst-s4" kvg:type="㇑" d="M24.05,26.52c0.93,0.88,1.58,2.78,1.58,3.48c0,5.95,0.05,43.12-0.13,47.07"/>
	</g>
	<g id="kvg:0743a-VtLst-g2" kvg:element="法" kvg:position="right">
		<g id="kvg:0743a-VtLst-g3" kvg:element="氵" kvg:variant="true" kvg:original="水" kvg:position="left">
			<path id="kvg:0743a-VtLst-s5" kvg:type="㇔" d="M44.99,15c3.23,1.78,8.34,7.32,9.15,10.09"/>
			<path id="kvg:0743a-VtLst-s6" kvg:type="㇔" d="M40.93,39.25c3.48,1.72,8.99,7.07,9.87,9.75"/>
			<path id="kvg:0743a-VtLst-s7" kvg:type="㇀" d="M36.62,89.44c1.63,0.81,3.16,0.38,4.06-1.26c2.63-4.77,8.26-16.1,10.65-22.19"/>
		</g>
		<g id="kvg:0743a-VtLst-g4" kvg:element="去" kvg:position="right">
			<g id="kvg:0743a-VtLst-g5" kvg:element="土" kvg:position="top">
				<path id="kvg:0743a-VtLst-s8" kvg:type="㇐" d="M59.33,33.48c0.96,0.38,2.71,0.42,3.68,0.38c8.42-0.37,15.13-1.74,27.78-2.31c1.6-0.07,2.56,0.18,3.36,0.37"/>
				<path id="kvg:0743a-VtLst-s9" kvg:type="㇑a" d="M73.09,13.75c0.09,0.29,1.21,1.51,1.29,3.35c0.42,8.84,0.1,32.23,0.1,35.24"/>
				<path id="kvg:0743a-VtLst-s10" kvg:type="㇐" d="M55.66,54.67c1.11,0.54,3.15,0.67,4.26,0.54C70.2,54,88.18,52.25,95.36,52.06c1.85-0.05,2.96,0.25,3.89,0.52"/>
			</g>
			<g id="kvg:0743a-VtLst-g6" kvg:element="厶" kvg:position="bottom">
				<path id="kvg:0743a-VtLst-s11" kvg:type="㇜" d="M73.8,56.32c0.29,1.21,0.15,2.93-0.25,3.63c-5.8,10.05-8.3,14.8-15.89,26.29c-1.88,2.85-1.71,5.17,1.54,4.06c8.89-3.05,18.29-4.74,30.92-8.37"/>
				<path id="kvg:0743a-VtLst-s12" kvg:type="㇔" d="M82.7,70.32c4.45,4.44,11.5,18.25,12.61,25.15"/>
			</g>
		</g>
	</g>
</g>
</g>
<g id="kvg:StrokeNumbers_0743a-VtLst" style="font-size:8;fill:#808080">
	<text transform="matrix(1 0 0 1 5.50 25.50)">1</text>
	<text transform="matrix(1 0 0 1 5.50 51.50)">2</text>
	<text transform="matrix(1 0 0 1 2.50 84.50)">3</text>
	<text transform="matrix(1 0 0 1 17.50 34.85)">4</text>
	<text transform="matrix(1 0 0 1 40.50 12.50)">5</text>
	<text transform="matrix(1 0 0 1 37.50 36.50)">6</text>
	<text transform="matrix(1 0 0 1 33.50 84.50)">7</text>
	<text transform="matrix(1 0 0 1 57.50 30.50)">8</text>
	<text transform="matrix(1 0 0 1 63.50 14.50)">9</text>
	<text transform="matrix(1 0 0 1 52.50 51.50)">10</text>
	<text transform="matrix(1 0 0 1 61.50 64.50)">11</text>
	<text transform="matrix(1 0 0 1 82.50 68.50)">12</text>
</g>
</svg>
