<?xml version="1.0" encoding="UTF-8"?>
<!--
Copyright (C) 2009/2010/2011 Ulrich Apel.
This work is distributed under the conditions of the Creative Commons 
Attribution-Share Alike 3.0 Licence. This means you are free:
* to Share - to copy, distribute and transmit the work
* to Remix - to adapt the work

Under the following conditions:
* Attribution. You must attribute the work by stating your use of KanjiVG in
  your own copyright header and linking to KanjiVG's website
  (http://kanjivg.tagaini.net)
* Share Alike. If you alter, transform, or build upon this work, you may
  distribute the resulting work only under the same or similar license to this
  one.

See http://creativecommons.org/licenses/by-sa/3.0/ for more details.
-->
<!DOCTYPE svg PUBLIC "-//W3C//DTD SVG 1.0//EN" "http://www.w3.org/TR/2001/REC-SVG-20010904/DTD/svg10.dtd" [
<!ATTLIST g
xmlns:kvg CDATA #FIXED "http://kanjivg.tagaini.net"
kvg:element CDATA #IMPLIED
kvg:variant CDATA #IMPLIED
kvg:partial CDATA #IMPLIED
kvg:original CDATA #IMPLIED
kvg:part CDATA #IMPLIED
kvg:number CDATA #IMPLIED
kvg:tradForm CDATA #IMPLIED
kvg:radicalForm CDATA #IMPLIED
kvg:position CDATA #IMPLIED
kvg:radical CDATA #IMPLIED
kvg:phon CDATA #IMPLIED >
<!ATTLIST path
xmlns:kvg CDATA #FIXED "http://kanjivg.tagaini.net"
kvg:type CDATA #IMPLIED >
]>
<svg xmlns="http://www.w3.org/2000/svg" width="109" height="109" viewBox="0 0 109 109">
<g id="kvg:StrokePaths_07433" style="fill:none;stroke:#000000;stroke-width:3;stroke-linecap:round;stroke-linejoin:round;">
<g id="kvg:07433" kvg:element="琳">
	<g id="kvg:07433-g1" kvg:element="王" kvg:original="玉" kvg:partial="true" kvg:position="left" kvg:radical="general">
		<path id="kvg:07433-s1" kvg:type="㇐" d="M10.36,26.89c1.89,0.61,4.24,0.37,5.78,0.1c3.63-0.63,9.81-2.04,15.36-2.82c1.42-0.2,3.52-0.72,4.94-0.17"/>
		<path id="kvg:07433-s2" kvg:type="㇑a" d="M22.89,28.55c0.82,0.84,1.39,2.64,1.39,3.32c0,5.67-0.03,40.12-0.03,45.76"/>
		<path id="kvg:07433-s3" kvg:type="㇐" d="M10.91,52.35c2.09,0.65,4.65,0.26,6.23-0.03c4.48-0.82,10.11-1.94,14.75-2.95c1.14-0.25,2.6-0.5,4.02-0.3"/>
		<path id="kvg:07433-s4" kvg:type="㇐" d="M12.24,83.89c1.38,0.99,2.14,1.25,3.5,0.35c7.13-4.73,12.5-8.2,20.06-13.41"/>
	</g>
	<g id="kvg:07433-g2" kvg:element="林" kvg:position="right">
		<g id="kvg:07433-g3" kvg:element="木" kvg:variant="true" kvg:position="left">
			<path id="kvg:07433-s5" kvg:type="㇐" d="M37.25,39.69c2.12,0.31,4.33-0.06,5.89-0.33c4.97-0.86,10.54-2.05,15.67-2.55c1.55-0.15,2.72-0.28,3.69,0"/>
			<path id="kvg:07433-s6" kvg:type="㇑" d="M50.25,16c1.06,1.06,1.5,2.38,1.5,4c0,0.86,0,47.42,0,67.75c0,4.09,0,7.12,0,8.5"/>
			<path id="kvg:07433-s7" kvg:type="㇒" d="M51.25,39.25c0,0.88-0.31,2.88-0.71,4.38C47.6,54.68,42.3,68.33,35.5,77.25"/>
			<path id="kvg:07433-s8" kvg:type="㇔/㇏" d="M54.62,50.5c2.88,2,5.98,6,7.62,9.5"/>
		</g>
		<g id="kvg:07433-g4" kvg:element="木" kvg:position="right">
			<path id="kvg:07433-s9" kvg:type="㇐" d="M68,36.39c2.12,0.49,3.51,0.36,4.77,0.18c5.6-0.82,11.14-1.63,16.73-2.26c1.33-0.15,2.65-0.26,3.99,0.1"/>
			<path id="kvg:07433-s10" kvg:type="㇑" d="M76.25,14.25c1.25,1.25,1.5,2.5,1.5,4c0,0.85,0,46.79,0,67.38c0,4.5,0,7.78,0,9.12"/>
			<path id="kvg:07433-s11" kvg:type="㇒" d="M77.5,37.5c0,1.25-0.58,4.36-0.92,5.65c-3.08,11.74-8.84,22.66-16.83,34.6"/>
			<path id="kvg:07433-s12" kvg:type="㇏" d="M78.25,38.25c4,14,9.12,24,14.58,33.11c1.11,1.86,2.42,3.77,4.67,5.89"/>
		</g>
	</g>
</g>
</g>
<g id="kvg:StrokeNumbers_07433" style="font-size:8;fill:#808080">
	<text transform="matrix(1 0 0 1 4.25 27.25)">1</text>
	<text transform="matrix(1 0 0 1 16.25 36.25)">2</text>
	<text transform="matrix(1 0 0 1 3.25 53.25)">3</text>
	<text transform="matrix(1 0 0 1 4.25 85.25)">4</text>
	<text transform="matrix(1 0 0 1 35.25 37.25)">5</text>
	<text transform="matrix(1 0 0 1 41.25 16.25)">6</text>
	<text transform="matrix(1 0 0 1 42.25 50.25)">7</text>
	<text transform="matrix(1 0 0 1 55.25 48.25)">8</text>
	<text transform="matrix(1 0 0 1 66.00 33.25)">9</text>
	<text transform="matrix(1 0 0 1 64.25 14.25)">10</text>
	<text transform="matrix(1 0 0 1 66.25 47.25)">11</text>
	<text transform="matrix(1 0 0 1 82.25 46.25)">12</text>
</g>
</svg>
