<?xml version="1.0" encoding="UTF-8"?>
<!--
Copyright (C) 2009/2010/2011 Ulrich Apel.
This work is distributed under the conditions of the Creative Commons 
Attribution-Share Alike 3.0 Licence. This means you are free:
* to Share - to copy, distribute and transmit the work
* to Remix - to adapt the work

Under the following conditions:
* Attribution. You must attribute the work by stating your use of KanjiVG in
  your own copyright header and linking to KanjiVG's website
  (http://kanjivg.tagaini.net)
* Share Alike. If you alter, transform, or build upon this work, you may
  distribute the resulting work only under the same or similar license to this
  one.

See http://creativecommons.org/licenses/by-sa/3.0/ for more details.
-->
<!DOCTYPE svg PUBLIC "-//W3C//DTD SVG 1.0//EN" "http://www.w3.org/TR/2001/REC-SVG-20010904/DTD/svg10.dtd" [
<!ATTLIST g
xmlns:kvg CDATA #FIXED "http://kanjivg.tagaini.net"
kvg:element CDATA #IMPLIED
kvg:variant CDATA #IMPLIED
kvg:partial CDATA #IMPLIED
kvg:original CDATA #IMPLIED
kvg:part CDATA #IMPLIED
kvg:number CDATA #IMPLIED
kvg:tradForm CDATA #IMPLIED
kvg:radicalForm CDATA #IMPLIED
kvg:position CDATA #IMPLIED
kvg:radical CDATA #IMPLIED
kvg:phon CDATA #IMPLIED >
<!ATTLIST path
xmlns:kvg CDATA #FIXED "http://kanjivg.tagaini.net"
kvg:type CDATA #IMPLIED >
]>
<svg xmlns="http://www.w3.org/2000/svg" width="109" height="109" viewBox="0 0 109 109">
<g id="kvg:StrokePaths_07432-MdFst" style="fill:none;stroke:#000000;stroke-width:3;stroke-linecap:round;stroke-linejoin:round;">
<g id="kvg:07432-MdFst" kvg:element="琲">
	<g id="kvg:07432-MdFst-g1" kvg:element="王" kvg:original="玉" kvg:partial="true" kvg:position="left" kvg:radical="general">
		<path id="kvg:07432-MdFst-s1" kvg:type="㇐" d="M10.6,27.25c0.59,0.37,3.78,0.45,4.37,0.34c2.77-0.5,13.5-1.59,20.14-2.14c0.91-0.07,2.58-0.26,3.33,0.04"/>
		<path id="kvg:07432-MdFst-s2" kvg:type="㇑a" d="M24.05,27.52c0.93,0.88,1.58,2.78,1.58,3.48c0,5.95,0.05,42.62-0.13,46.57"/>
		<path id="kvg:07432-MdFst-s3" kvg:type="㇐" d="M12.52,53.24c0.44,0.3,3.52,0.34,3.97,0.27c2.57-0.39,11.33-1.57,14.89-2c0.55-0.07,2.55-0.12,3.37,0.14"/>
		<path id="kvg:07432-MdFst-s4" kvg:type="㇐" d="M11.75,84.03c1.08,1.18,3.89,0.7,4.65,0.18c4.83-3.26,11.15-7.59,18.51-13.22"/>
	</g>
	<g id="kvg:07432-MdFst-g2" kvg:element="非" kvg:position="right">
		<path id="kvg:07432-MdFst-s5" kvg:type="㇒" d="M55.76,16.2c0.94,0.47,1.5,2.11,1.69,3.05c0.08,0.4,0.09,13.4,0.06,28.63c-0.04,20.47-0.77,38.36-18.46,48.36"/>
		<path id="kvg:07432-MdFst-s6" kvg:type="㇑" d="M71.89,13c0.75,0.48,1.19,2.17,1.34,3.13c0.15,0.96,0,75.39-0.15,81.4"/>
		<path id="kvg:07432-MdFst-s7" kvg:type="㇐" d="M40.3,34.37c1.03,0,2.23,0.24,3.26,0c1.03-0.24,12.59-1.18,13.79-1.91"/>
		<path id="kvg:07432-MdFst-s8" kvg:type="㇐" d="M39.96,50.01c1.29,0.24,2.2,0.5,3.26,0.5c3.53-0.01,11.08-0.67,13.82-1.39"/>
		<path id="kvg:07432-MdFst-s9" kvg:type="㇀" d="M39.25,73.09c1.84,0.95,2.77,0.43,4.34-0.78c0.92-0.71,5.9-4.25,11.34-8.27"/>
		<path id="kvg:07432-MdFst-s10" kvg:type="㇐" d="M73.74,32.36c4.19-0.36,15.78-2.01,18.92-2.61c1.15-0.22,1.35-0.12,3.33-0.12"/>
		<path id="kvg:07432-MdFst-s11" kvg:type="㇐" d="M74,49.57c3.63-0.29,13.86-1.65,16.58-2.13c0.99-0.18,1.8-0.1,3.52-0.1"/>
		<path id="kvg:07432-MdFst-s12" kvg:type="㇐" d="M73.41,68.04c4.02-0.36,14.34-1.54,20.11-2.13c1.11-0.11,1.83-0.12,3.73-0.12"/>
	</g>
</g>
</g>
<g id="kvg:StrokeNumbers_07432-MdFst" style="font-size:8;fill:#808080">
	<text transform="matrix(1 0 0 1 4.50 27.50)">1</text>
	<text transform="matrix(1 0 0 1 17.50 36.50)">2</text>
	<text transform="matrix(1 0 0 1 5.50 54.50)">3</text>
	<text transform="matrix(1 0 0 1 5.50 86.50)">4</text>
	<text transform="matrix(1 0 0 1 47.50 14.50)">5</text>
	<text transform="matrix(1 0 0 1 65.50 11.50)">6</text>
	<text transform="matrix(1 0 0 1 40.50 31.50)">7</text>
	<text transform="matrix(1 0 0 1 38.50 46.50)">8</text>
	<text transform="matrix(1 0 0 1 38.50 69.50)">9</text>
	<text transform="matrix(1 0 0 1 77.25 28.45)">10</text>
	<text transform="matrix(1 0 0 1 77.25 45.50)">11</text>
	<text transform="matrix(1 0 0 1 77.25 64.50)">12</text>
</g>
</svg>
