<?xml version="1.0" encoding="UTF-8"?>
<!--
Copyright (C) 2009/2010/2011 Ulrich Apel.
This work is distributed under the conditions of the Creative Commons 
Attribution-Share Alike 3.0 Licence. This means you are free:
* to Share - to copy, distribute and transmit the work
* to Remix - to adapt the work

Under the following conditions:
* Attribution. You must attribute the work by stating your use of KanjiVG in
  your own copyright header and linking to KanjiVG's website
  (http://kanjivg.tagaini.net)
* Share Alike. If you alter, transform, or build upon this work, you may
  distribute the resulting work only under the same or similar license to this
  one.

See http://creativecommons.org/licenses/by-sa/3.0/ for more details.
-->
<!DOCTYPE svg PUBLIC "-//W3C//DTD SVG 1.0//EN" "http://www.w3.org/TR/2001/REC-SVG-20010904/DTD/svg10.dtd" [
<!ATTLIST g
xmlns:kvg CDATA #FIXED "http://kanjivg.tagaini.net"
kvg:element CDATA #IMPLIED
kvg:variant CDATA #IMPLIED
kvg:partial CDATA #IMPLIED
kvg:original CDATA #IMPLIED
kvg:part CDATA #IMPLIED
kvg:number CDATA #IMPLIED
kvg:tradForm CDATA #IMPLIED
kvg:radicalForm CDATA #IMPLIED
kvg:position CDATA #IMPLIED
kvg:radical CDATA #IMPLIED
kvg:phon CDATA #IMPLIED >
<!ATTLIST path
xmlns:kvg CDATA #FIXED "http://kanjivg.tagaini.net"
kvg:type CDATA #IMPLIED >
]>
<svg xmlns="http://www.w3.org/2000/svg" width="109" height="109" viewBox="0 0 109 109">
<g id="kvg:StrokePaths_074e6-HzLst" style="fill:none;stroke:#000000;stroke-width:3;stroke-linecap:round;stroke-linejoin:round;">
<g id="kvg:074e6-HzLst" kvg:element="瓦" kvg:radical="general">
	<path id="kvg:074e6-HzLst-s1" kvg:type="㇐" d="M18.75,19.2c1.52,0.54,4.3,0.61,5.82,0.54c11.18-0.49,40.93-4.49,57.61-4.73c2.53-0.04,4.05,0.26,5.31,0.53"/>
	<path id="kvg:074e6-HzLst-s2" kvg:type="㇑" d="M38.37,22.25c1.09,0.5,2.22,2.76,1.96,3.75c-2.08,7.75-14.08,53.5-16.08,61"/>
	<path id="kvg:074e6-HzLst-s3" kvg:type="㇈" d="M41,37.54c1.25,0.21,2.58,0.69,3.8,0.5C48.25,37.5,62,35,65.36,34.25c1.44-0.32,3.39,1.5,3.11,3.03c-0.82,4.49-6.76,26.11-8.27,37.01C57.75,92,63,95,76.33,95.12c8.98,0.08,15.9-0.61,16.15-10.35"/>
	<g id="kvg:074e6-HzLst-g1" kvg:element="丶">
		<path id="kvg:074e6-HzLst-s4" kvg:type="㇔" d="M41.52,53.58c4.16,2.05,10.75,8.44,11.79,11.63"/>
	</g>
	<path id="kvg:074e6-HzLst-s5" kvg:type="㇀" d="M14,88.98c0.98,0.77,2.25,2.02,4.35,1.17c7.97-3.23,24.27-8.83,32.4-11.65"/>
</g>
</g>
<g id="kvg:StrokeNumbers_074e6-HzLst" style="font-size:8;fill:#808080">
	<text transform="matrix(1 0 0 1 11.50 19.50)">1</text>
	<text transform="matrix(1 0 0 1 31.50 28.50)">2</text>
	<text transform="matrix(1 0 0 1 43.50 34.25)">3</text>
	<text transform="matrix(1 0 0 1 39.50 50.50)">4</text>
	<text transform="matrix(1 0 0 1 6.50 94.50)">5</text>
</g>
</svg>
