<?xml version="1.0" encoding="UTF-8"?>
<!--
Copyright (C) 2009/2010/2011 Ulrich Apel.
This work is distributed under the conditions of the Creative Commons 
Attribution-Share Alike 3.0 Licence. This means you are free:
* to Share - to copy, distribute and transmit the work
* to Remix - to adapt the work

Under the following conditions:
* Attribution. You must attribute the work by stating your use of KanjiVG in
  your own copyright header and linking to KanjiVG's website
  (http://kanjivg.tagaini.net)
* Share Alike. If you alter, transform, or build upon this work, you may
  distribute the resulting work only under the same or similar license to this
  one.

See http://creativecommons.org/licenses/by-sa/3.0/ for more details.
-->
<!DOCTYPE svg PUBLIC "-//W3C//DTD SVG 1.0//EN" "http://www.w3.org/TR/2001/REC-SVG-20010904/DTD/svg10.dtd" [
<!ATTLIST g
xmlns:kvg CDATA #FIXED "http://kanjivg.tagaini.net"
kvg:element CDATA #IMPLIED
kvg:variant CDATA #IMPLIED
kvg:partial CDATA #IMPLIED
kvg:original CDATA #IMPLIED
kvg:part CDATA #IMPLIED
kvg:number CDATA #IMPLIED
kvg:tradForm CDATA #IMPLIED
kvg:radicalForm CDATA #IMPLIED
kvg:position CDATA #IMPLIED
kvg:radical CDATA #IMPLIED
kvg:phon CDATA #IMPLIED >
<!ATTLIST path
xmlns:kvg CDATA #FIXED "http://kanjivg.tagaini.net"
kvg:type CDATA #IMPLIED >
]>
<svg xmlns="http://www.w3.org/2000/svg" width="109" height="109" viewBox="0 0 109 109">
<g id="kvg:StrokePaths_074ee" style="fill:none;stroke:#000000;stroke-width:3;stroke-linecap:round;stroke-linejoin:round;">
<g id="kvg:074ee" kvg:element="瓮">
	<g id="kvg:074ee-g1" kvg:element="公" kvg:position="top">
		<g id="kvg:074ee-g2" kvg:element="八" kvg:position="top">
			<path id="kvg:074ee-s1" kvg:type="㇒" d="M43.37,12.71c0.5,0.75-0.03,1.62-0.7,2.52c-4.89,6.53-13.16,14.16-28.91,22.53"/>
			<path id="kvg:074ee-s2" kvg:type="㇏" d="M60.31,8.89c4.7,1.7,20.34,19.4,28.82,23.63c3.27,1.63,4.45,2.51,7.63,3.04"/>
		</g>
		<g id="kvg:074ee-g3" kvg:element="厶" kvg:position="bottom">
			<path id="kvg:074ee-s3" kvg:type="㇜" d="M53.54,21.16c0.49,0.41,0.39,1.37-0.01,1.86c-5.43,6.61-10.25,12.28-17.98,18.87c-1.88,1.6-1.2,3.2,1.81,2.59c8.41-1.69,25.93-6.24,35.04-7.22"/>
			<path id="kvg:074ee-s4" kvg:type="㇔" d="M63.83,29.66c4.99,2.42,12.88,9.96,14.13,13.73"/>
		</g>
	</g>
	<g id="kvg:074ee-g4" kvg:element="瓦" kvg:position="bottom" kvg:radical="general">
		<path id="kvg:074ee-s5" kvg:type="㇐" d="M18.8,54.75c1.93,0.61,5.47,0.75,7.39,0.61c15.38-1.11,45.55-3.93,57.59-4.2c3.21-0.07,5.14,0.29,6.75,0.6"/>
		<path id="kvg:074ee-s6" kvg:type="㇄" d="M40.17,57.89c0.08,1-0.22,3.05-0.45,3.59C37.25,67.14,28.77,87.8,26.5,92.39c-0.88,1.78,0.17,2.76,2.13,2.35c7.62-1.6,24.87-4.6,32.87-5.85"/>
		<path id="kvg:074ee-s7" kvg:type="㇈" d="M40.24,65.68c0.87,0.21,2.28,0.12,3.14,0c7.62-1.04,21.09-3.28,26.77-3.29c1.35,0,2.85,1.5,2.66,3.03c-0.57,4.49-2.81,12.97-3.56,18.47c-1.42,10.4,1.75,12.5,12.5,12.5c11,0,13.25-0.75,13.25-9.5"/>
		<g id="kvg:074ee-g5" kvg:element="丶">
			<path id="kvg:074ee-s8" kvg:type="㇔" d="M45.1,71.98c3.51,1.7,9.06,6.99,9.94,9.63"/>
		</g>
	</g>
</g>
</g>
<g id="kvg:StrokeNumbers_074ee" style="font-size:8;fill:#808080">
	<text transform="matrix(1 0 0 1 33.25 11.77)">1</text>
	<text transform="matrix(1 0 0 1 55.25 6.70)">2</text>
	<text transform="matrix(1 0 0 1 46.25 23.62)">3</text>
	<text transform="matrix(1 0 0 1 61.50 27.64)">4</text>
	<text transform="matrix(1 0 0 1 11.25 54.64)">5</text>
	<text transform="matrix(1 0 0 1 30.50 65.64)">6</text>
	<text transform="matrix(1 0 0 1 45.50 62.32)">7</text>
	<text transform="matrix(1 0 0 1 40.50 78.64)">8</text>
</g>
</svg>
