<?xml version="1.0" encoding="UTF-8"?>
<!--
Copyright (C) 2009/2010/2011 Ulrich Apel.
This work is distributed under the conditions of the Creative Commons
Attribution-Share Alike 3.0 Licence. This means you are free:
* to Share - to copy, distribute and transmit the work
* to Remix - to adapt the work

Under the following conditions:
* Attribution. You must attribute the work by stating your use of KanjiVG in
  your own copyright header and linking to KanjiVG's website
  (http://kanjivg.tagaini.net)
* Share Alike. If you alter, transform, or build upon this work, you may
  distribute the resulting work only under the same or similar license to this
  one.

See http://creativecommons.org/licenses/by-sa/3.0/ for more details.
-->
<!DOCTYPE svg PUBLIC "-//W3C//DTD SVG 1.0//EN" "http://www.w3.org/TR/2001/REC-SVG-20010904/DTD/svg10.dtd" [
<!ATTLIST g
xmlns:kvg CDATA #FIXED "http://kanjivg.tagaini.net"
kvg:element CDATA #IMPLIED
kvg:variant CDATA #IMPLIED
kvg:partial CDATA #IMPLIED
kvg:original CDATA #IMPLIED
kvg:part CDATA #IMPLIED
kvg:number CDATA #IMPLIED
kvg:tradForm CDATA #IMPLIED
kvg:radicalForm CDATA #IMPLIED
kvg:position CDATA #IMPLIED
kvg:radical CDATA #IMPLIED
kvg:phon CDATA #IMPLIED >
<!ATTLIST path
xmlns:kvg CDATA #FIXED "http://kanjivg.tagaini.net"
kvg:type CDATA #IMPLIED >
]>
<svg xmlns="http://www.w3.org/2000/svg" width="109" height="109" viewBox="0 0 109 109">
<g id="kvg:StrokePaths_074f0" style="fill:none;stroke:#000000;stroke-width:3;stroke-linecap:round;stroke-linejoin:round;">
<g id="kvg:074f0" kvg:element="瓰">
	<g id="kvg:074f0-g1" kvg:element="瓦" kvg:position="nyo" kvg:radical="general">
		<path id="kvg:074f0-s1" kvg:type="㇐" d="M11.55,18.75c1.12,0.57,3.17,0.7,4.28,0.57c8.91-1.05,25.32-2.64,32.29-2.89c1.86-0.07,2.98,0.27,3.91,0.56"/>
		<path id="kvg:074f0-s2" kvg:type="㇑" d="M 25.42,20.75 c 0.76,0.5 1.54,2.76 1.36,3.75 -1.45,7.75 -10.96125,56.475 -12.96125,64.705"/>
		<path id="kvg:074f0-s3" kvg:type="㇀" d="M 10.866667,89.88625 c 0.772187,0.3775 1.658992,0.07062 2.860624,-0.533125 5.752813,-2.890435 13.997292,-7.124792 19.647292,-9.944792"/>
		<path id="kvg:074f0-s4" kvg:type="㇈" d="M24.24,40.04c0.87,0.21,1.79,0.69,2.64,0.5c2.39-0.54,11.41-2.65,13.77-3.29c1.85-0.5,2.85,1,2.66,2.53c-0.57,4.49-1.5,18.73-2.24,31.51C40,89.75,41.25,93.82,71.73,93.82c23.52,0,25.25-3.07,25.25-12.54"/>
		<g id="kvg:074f0-g2" kvg:element="丶">
			<path id="kvg:074f0-s5" kvg:type="㇔" d="M24.85,53.83c3.15,2.36,8.15,9.71,8.94,13.38"/>
		</g>
	</g>
	<g id="kvg:074f0-g3" kvg:element="分" kvg:position="nyoc">
		<g id="kvg:074f0-g4" kvg:element="八" kvg:position="top">
			<path id="kvg:074f0-s6" kvg:type="㇒" d="M65,16.74c0.28,0.8-0.06,1.69-0.39,2.68c-2.71,8.15-8.39,17.12-16.05,23.88"/>
			<path id="kvg:074f0-s7" kvg:type="㇏" d="M74.34,14.25C77.5,15,88.59,34.53,93.96,38.94c2.08,1.71,2.82,2.62,4.83,3.17"/>
		</g>
		<g id="kvg:074f0-g5" kvg:element="刀" kvg:position="bottom">
			<path id="kvg:074f0-s8" kvg:type="㇆" d="M56.57,45.62c1.93,0.38,3.8,0.4,4.69,0.24c7.25-1.26,16.66-3.88,20.68-4.34c2.62-0.3,3.77,0.91,3.63,3.02C85,53.25,82,70.5,77.82,78.78c-2.93,5.8-6.36,0.74-7.53-0.89"/>
			<path id="kvg:074f0-s9" kvg:type="㇒" d="M68.71,47.66c0.06,0.71,0.25,1.9-0.12,2.86c-3.84,10.23-8.09,18.73-19.04,29.13"/>
		</g>
	</g>
</g>
</g>
<g id="kvg:StrokeNumbers_074f0" style="font-size:8;fill:#808080">
	<text transform="matrix(1 0 0 1 5.50 19.50)">1</text>
	<text transform="matrix(1 0 0 1 18.50 29.50)">2</text>
	<text transform="matrix(1 0 0 1 6.9 86)">3</text>
	<text transform="matrix(1 0 0 1 30.50 36.50)">4</text>
	<text transform="matrix(1 0 0 1 27.50 53.50)">5</text>
	<text transform="matrix(1 0 0 1 56.50 17.50)">6</text>
	<text transform="matrix(1 0 0 1 71.50 11.50)">7</text>
	<text transform="matrix(1 0 0 1 58.50 42.50)">8</text>
	<text transform="matrix(1 0 0 1 59.25 56.50)">9</text>
</g>
</svg>
