<?xml version="1.0" encoding="UTF-8"?>
<!--
Copyright (C) 2009/2010/2011 Ulrich Apel.
This work is distributed under the conditions of the Creative Commons 
Attribution-Share Alike 3.0 Licence. This means you are free:
* to Share - to copy, distribute and transmit the work
* to Remix - to adapt the work

Under the following conditions:
* Attribution. You must attribute the work by stating your use of KanjiVG in
  your own copyright header and linking to KanjiVG's website
  (http://kanjivg.tagaini.net)
* Share Alike. If you alter, transform, or build upon this work, you may
  distribute the resulting work only under the same or similar license to this
  one.

See http://creativecommons.org/licenses/by-sa/3.0/ for more details.
-->
<!DOCTYPE svg PUBLIC "-//W3C//DTD SVG 1.0//EN" "http://www.w3.org/TR/2001/REC-SVG-20010904/DTD/svg10.dtd" [
<!ATTLIST g
xmlns:kvg CDATA #FIXED "http://kanjivg.tagaini.net"
kvg:element CDATA #IMPLIED
kvg:variant CDATA #IMPLIED
kvg:partial CDATA #IMPLIED
kvg:original CDATA #IMPLIED
kvg:part CDATA #IMPLIED
kvg:number CDATA #IMPLIED
kvg:tradForm CDATA #IMPLIED
kvg:radicalForm CDATA #IMPLIED
kvg:position CDATA #IMPLIED
kvg:radical CDATA #IMPLIED
kvg:phon CDATA #IMPLIED >
<!ATTLIST path
xmlns:kvg CDATA #FIXED "http://kanjivg.tagaini.net"
kvg:type CDATA #IMPLIED >
]>
<svg xmlns="http://www.w3.org/2000/svg" width="109" height="109" viewBox="0 0 109 109">
<g id="kvg:StrokePaths_07518" style="fill:none;stroke:#000000;stroke-width:3;stroke-linecap:round;stroke-linejoin:round;">
<g id="kvg:07518" kvg:element="甘" kvg:radical="general">
	<g id="kvg:07518-g1" kvg:element="廿" kvg:part="1">
		<g id="kvg:07518-g2" kvg:element="十">
			<path id="kvg:07518-s1" kvg:type="㇐" d="M13.75,39.2c3,1.07,7.02,0.69,10.14,0.38c13.36-1.31,40.11-3.96,59.61-4.9c3.67-0.18,7.99-0.18,10.99,0.61"/>
			<path id="kvg:07518-s2" kvg:type="㇑" d="M35.17,20c1.06,1.06,1.21,2.38,1.21,4c0,5.13,0.04,42.56,0.02,64.62c0,2.83-0.01,5.41-0.01,7.62"/>
		</g>
		<path id="kvg:07518-s3" kvg:type="㇑" d="M70.87,14c1.07,1.06,1.46,2.5,1.46,4c0,0.68,0.02,48.38,0.03,68.38c0,4.98,0,8.23,0,8.62"/>
	</g>
	<path id="kvg:07518-s4" kvg:type="㇐a" d="M37.5,61.75c4.25-0.5,30.75-3,33.75-3"/>
	<g id="kvg:07518-g3" kvg:element="廿" kvg:part="2">
		<path id="kvg:07518-s5" kvg:type="㇐a" d="M37.25,89.75c6.5-0.25,28-1.75,34-2"/>
	</g>
</g>
</g>
<g id="kvg:StrokeNumbers_07518" style="font-size:8;fill:#808080">
	<text transform="matrix(1 0 0 1 7.50 40.63)">1</text>
	<text transform="matrix(1 0 0 1 24.75 20.50)">2</text>
	<text transform="matrix(1 0 0 1 60.75 15.13)">3</text>
	<text transform="matrix(1 0 0 1 41.50 58.50)">4</text>
	<text transform="matrix(1 0 0 1 41.50 86.50)">5</text>
</g>
</svg>
