<?xml version="1.0" encoding="UTF-8"?>
<!--
Copyright (C) 2009/2010/2011 Ulrich Apel.
This work is distributed under the conditions of the Creative Commons 
Attribution-Share Alike 3.0 Licence. This means you are free:
* to Share - to copy, distribute and transmit the work
* to Remix - to adapt the work

Under the following conditions:
* Attribution. You must attribute the work by stating your use of KanjiVG in
  your own copyright header and linking to KanjiVG's website
  (http://kanjivg.tagaini.net)
* Share Alike. If you alter, transform, or build upon this work, you may
  distribute the resulting work only under the same or similar license to this
  one.

See http://creativecommons.org/licenses/by-sa/3.0/ for more details.
-->
<!DOCTYPE svg PUBLIC "-//W3C//DTD SVG 1.0//EN" "http://www.w3.org/TR/2001/REC-SVG-20010904/DTD/svg10.dtd" [
<!ATTLIST g
xmlns:kvg CDATA #FIXED "http://kanjivg.tagaini.net"
kvg:element CDATA #IMPLIED
kvg:variant CDATA #IMPLIED
kvg:partial CDATA #IMPLIED
kvg:original CDATA #IMPLIED
kvg:part CDATA #IMPLIED
kvg:number CDATA #IMPLIED
kvg:tradForm CDATA #IMPLIED
kvg:radicalForm CDATA #IMPLIED
kvg:position CDATA #IMPLIED
kvg:radical CDATA #IMPLIED
kvg:phon CDATA #IMPLIED >
<!ATTLIST path
xmlns:kvg CDATA #FIXED "http://kanjivg.tagaini.net"
kvg:type CDATA #IMPLIED >
]>
<svg xmlns="http://www.w3.org/2000/svg" width="109" height="109" viewBox="0 0 109 109">
<g id="kvg:StrokePaths_07533-Kaisho" style="fill:none;stroke:#000000;stroke-width:3;stroke-linecap:round;stroke-linejoin:round;">
<g id="kvg:07533-Kaisho" kvg:element="申">
	<g id="kvg:07533-Kaisho-g1" kvg:element="田" kvg:partial="true" kvg:radical="tradit">
		<path id="kvg:07533-Kaisho-s1" kvg:type="㇑" d="M22.5,29.37c0.45,0.69,0.45,1.16,0.69,2.01c1.98,7.03,4.26,26.57,5.43,39.51"/>
		<path id="kvg:07533-Kaisho-s2" kvg:type="㇕" d="M24.6,30.43c15.73-0.71,45.19-3.4,56.93-4.09c4.31-0.25,6.51,1.78,6.27,3.66c-0.86,6.9-4.3,26.33-6.47,37.41"/>
		<path id="kvg:07533-Kaisho-s3" kvg:type="㇐" d="M27.9,48.45c12.9-0.87,25.8-1.64,38.71-2.4c1.55-0.09,3.07-0.18,4.51-0.26"/>
		<path id="kvg:07533-Kaisho-s4" kvg:type="㇐" d="M29.44,67.06c11.32,0,36.89-3.07,52.52-3.25"/>
	</g>
	<g id="kvg:07533-Kaisho-g2" kvg:element="丨" kvg:radical="nelson">
		<path id="kvg:07533-Kaisho-s5" kvg:type="㇑" d="M52.37,10.25c1.09,0.5,1.74,2.25,1.96,3.25c0.22,1,0,79.75-0.22,86"/>
	</g>
</g>
</g>
<g id="kvg:StrokeNumbers_07533-Kaisho" style="font-size:8;fill:#808080">
	<text transform="matrix(1 0 0 1 17.25 39.13)">1</text>
	<text transform="matrix(1 0 0 1 25.50 27.13)">2</text>
	<text transform="matrix(1 0 0 1 31.50 44.50)">3</text>
	<text transform="matrix(1 0 0 1 31.50 63.13)">4</text>
	<text transform="matrix(1 0 0 1 42.50 10.50)">5</text>
</g>
</svg>
