<?xml version="1.0" encoding="UTF-8"?>
<!--
Copyright (C) 2009/2010/2011 Ulrich Apel.
This work is distributed under the conditions of the Creative Commons 
Attribution-Share Alike 3.0 Licence. This means you are free:
* to Share - to copy, distribute and transmit the work
* to Remix - to adapt the work

Under the following conditions:
* Attribution. You must attribute the work by stating your use of KanjiVG in
  your own copyright header and linking to KanjiVG's website
  (http://kanjivg.tagaini.net)
* Share Alike. If you alter, transform, or build upon this work, you may
  distribute the resulting work only under the same or similar license to this
  one.

See http://creativecommons.org/licenses/by-sa/3.0/ for more details.
-->
<!DOCTYPE svg PUBLIC "-//W3C//DTD SVG 1.0//EN" "http://www.w3.org/TR/2001/REC-SVG-20010904/DTD/svg10.dtd" [
<!ATTLIST g
xmlns:kvg CDATA #FIXED "http://kanjivg.tagaini.net"
kvg:element CDATA #IMPLIED
kvg:variant CDATA #IMPLIED
kvg:partial CDATA #IMPLIED
kvg:original CDATA #IMPLIED
kvg:part CDATA #IMPLIED
kvg:number CDATA #IMPLIED
kvg:tradForm CDATA #IMPLIED
kvg:radicalForm CDATA #IMPLIED
kvg:position CDATA #IMPLIED
kvg:radical CDATA #IMPLIED
kvg:phon CDATA #IMPLIED >
<!ATTLIST path
xmlns:kvg CDATA #FIXED "http://kanjivg.tagaini.net"
kvg:type CDATA #IMPLIED >
]>
<svg xmlns="http://www.w3.org/2000/svg" width="109" height="109" viewBox="0 0 109 109">
<g id="kvg:StrokePaths_07546-Kaisho" style="fill:none;stroke:#000000;stroke-width:3;stroke-linecap:round;stroke-linejoin:round;">
<g id="kvg:07546-Kaisho" kvg:element="畆">
	<g id="kvg:07546-Kaisho-g1" kvg:position="left">
		<g id="kvg:07546-Kaisho-g2" kvg:element="亠" kvg:position="top">
			<path id="kvg:07546-Kaisho-s1" kvg:type="㇑a" d="M29.34,15.25c2.57,1.59,5.33,5.15,6.8,10.9"/>
			<path id="kvg:07546-Kaisho-s2" kvg:type="㇐" d="M10.45,34.11c1.72,0.22,3.23,0.47,5.2,0.31c11.75-0.93,25.43-2.55,39.12-3c2.01-0.07,3.04,0.03,4.54,0.4"/>
		</g>
		<g id="kvg:07546-Kaisho-g3" kvg:element="田" kvg:position="bottom" kvg:radical="tradit">
			<path id="kvg:07546-Kaisho-s3" kvg:type="㇑" d="M16.24,46.21c0.26,0.72,0.81,2.3,0.96,3.2c1.2,7.35,2.24,28.47,2.99,42.1"/>
			<path id="kvg:07546-Kaisho-s4" kvg:type="㇕a" d="M17.49,48.35c9.29-1.36,24.62-2.15,31.55-3.33c2.55-0.44,3.85,1.63,3.72,3.63c-0.48,7.32-2.16,27.83-3.33,40.05"/>
			<path id="kvg:07546-Kaisho-s5" kvg:type="㇑a" d="M33.63,47.36c0.45,0.96,1.16,2.52,1.18,3.99c0.19,10.4,0.06,30.82,0.06,36.36"/>
			<path id="kvg:07546-Kaisho-s6" kvg:type="㇐a" d="M19.22,69.24c7.06-1.31,14.46-1.55,21.61-2.2c0.86-0.08,1.71-0.16,2.51-0.23"/>
			<path id="kvg:07546-Kaisho-s7" kvg:type="㇐a" d="M20.67,88.9c6.69-0.44,19.53-1.41,28.76-2.21"/>
		</g>
	</g>
	<g id="kvg:07546-Kaisho-g4" kvg:element="厶" kvg:position="right">
		<path id="kvg:07546-Kaisho-s8" kvg:type="㇜" d="M79.29,14.25c0.54,1.43,1.02,3.33,0.54,5.15C72.5,47.25,65.54,70.09,58.12,86.35c-2.35,5.15-1.43,4.53,2.09,3.65c10.04-2.5,21.13-5.16,31.98-7.73"/>
		<path id="kvg:07546-Kaisho-s9" kvg:type="㇔" d="M80.7,60.27c5.25,5.59,13.55,23,14.86,31.7"/>
	</g>
</g>
</g>
<g id="kvg:StrokeNumbers_07546-Kaisho" style="font-size:8;fill:#808080">
	<text transform="matrix(1 0 0 1 23.25 15.50)">1</text>
	<text transform="matrix(1 0 0 1 2.50 34.50)">2</text>
	<text transform="matrix(1 0 0 1 8.50 53.50)">3</text>
	<text transform="matrix(1 0 0 1 20.50 44.50)">4</text>
	<text transform="matrix(1 0 0 1 27.50 57.50)">5</text>
	<text transform="matrix(1 0 0 1 23.50 65.50)">6</text>
	<text transform="matrix(1 0 0 1 24.50 85.50)">7</text>
	<text transform="matrix(1 0 0 1 71.50 13.50)">8</text>
	<text transform="matrix(1 0 0 1 81.50 57.50)">9</text>
</g>
</svg>
