<?xml version="1.0" encoding="UTF-8"?>
<!--
Copyright (C) 2009/2010/2011 Ulrich Apel.
This work is distributed under the conditions of the Creative Commons 
Attribution-Share Alike 3.0 Licence. This means you are free:
* to Share - to copy, distribute and transmit the work
* to Remix - to adapt the work

Under the following conditions:
* Attribution. You must attribute the work by stating your use of KanjiVG in
  your own copyright header and linking to KanjiVG's website
  (http://kanjivg.tagaini.net)
* Share Alike. If you alter, transform, or build upon this work, you may
  distribute the resulting work only under the same or similar license to this
  one.

See http://creativecommons.org/licenses/by-sa/3.0/ for more details.
-->
<!DOCTYPE svg PUBLIC "-//W3C//DTD SVG 1.0//EN" "http://www.w3.org/TR/2001/REC-SVG-20010904/DTD/svg10.dtd" [
<!ATTLIST g
xmlns:kvg CDATA #FIXED "http://kanjivg.tagaini.net"
kvg:element CDATA #IMPLIED
kvg:variant CDATA #IMPLIED
kvg:partial CDATA #IMPLIED
kvg:original CDATA #IMPLIED
kvg:part CDATA #IMPLIED
kvg:number CDATA #IMPLIED
kvg:tradForm CDATA #IMPLIED
kvg:radicalForm CDATA #IMPLIED
kvg:position CDATA #IMPLIED
kvg:radical CDATA #IMPLIED
kvg:phon CDATA #IMPLIED >
<!ATTLIST path
xmlns:kvg CDATA #FIXED "http://kanjivg.tagaini.net"
kvg:type CDATA #IMPLIED >
]>
<svg xmlns="http://www.w3.org/2000/svg" width="109" height="109" viewBox="0 0 109 109">
<g id="kvg:StrokePaths_07582" style="fill:none;stroke:#000000;stroke-width:3;stroke-linecap:round;stroke-linejoin:round;">
<g id="kvg:07582" kvg:element="疂">
	<g id="kvg:07582-g1" kvg:position="top">
		<g id="kvg:07582-g2" kvg:element="田" kvg:radical="general">
			<path id="kvg:07582-s1" kvg:type="㇑" d="M31.27,13.92c0.24,0.4,0.7,1.09,0.83,1.58c1.07,4.02,2.49,11.09,3.12,18.5"/>
			<path id="kvg:07582-s2" kvg:type="㇕a" d="M31.96,14.53c8.98-1.05,33.85-2.38,40.22-2.78c2.34-0.14,3.53,1.02,3.4,2.1c-0.47,3.95-2.82,11.31-4.41,17.63"/>
			<path id="kvg:07582-s3" kvg:type="㇑a" d="M52.19,13.91c0.68,0.86,1.16,1.78,1.16,2.49c-0.03,4.66,0.15,12.74,0.15,14.43"/>
			<path id="kvg:07582-s4" kvg:type="㇐a" d="M34.38,23.11c2.78-0.19,36.49-2.23,38.78-2.23"/>
			<path id="kvg:07582-s5" kvg:type="㇐a" d="M35.22,32.09c6.14,0,27.5-2.01,35.98-2.11"/>
		</g>
		<g id="kvg:07582-g3" kvg:element="冫">
			<g id="kvg:07582-g4" kvg:position="top">
				<path id="kvg:07582-s6" kvg:type="㇔" d="M28.75,37c3.79,1.15,9.8,4.72,10.75,6.5"/>
			</g>
			<g id="kvg:07582-g5" kvg:position="bottom">
				<path id="kvg:07582-s7" kvg:type="㇀" d="M25,54.66c0.62,0.78,1.77,1.52,3.7,0.67c7.55-3.33,11.55-5.08,18.55-8.27"/>
			</g>
		</g>
		<path id="kvg:07582-s8" kvg:type="㇒" d="M79.77,33.14c0.04,0.19,0.08,0.49-0.07,0.76c-0.87,1.61-5.84,5.15-12.64,7.31"/>
		<path id="kvg:07582-s9" kvg:type="㇔" d="M59.5,45.75c8.12,1.28,20.97,5.26,23,7.25"/>
	</g>
	<g id="kvg:07582-g6" kvg:position="bottom">
		<g id="kvg:07582-g7" kvg:element="冖">
			<path id="kvg:07582-s10" kvg:type="㇔" d="M20.91,59.63c0,3.48-3.03,13.05-4.41,15.37"/>
			<path id="kvg:07582-s11" kvg:type="㇆" d="M20.74,62.74c9.51-0.99,57.74-4.03,65.45-4.4c12.05-0.59,2.55,6.66-0.45,8.78"/>
		</g>
		<g id="kvg:07582-g8" kvg:element="且">
			<g id="kvg:07582-g9" kvg:element="月">
				<path id="kvg:07582-s12" kvg:type="㇑a" d="M37.9,68.22c0.64,0.86,1.07,1.71,1.29,2.54c0.22,0.84,0.47,22.75,0.39,24.61"/>
				<path id="kvg:07582-s13" kvg:type="㇕b" d="M40.45,69.17c2.54-0.09,25.85-1.98,27.74-2.12c3.39-0.25,4.68,2.91,4.26,4.14c-0.4,1.17-0.2,4.91-0.32,21.68"/>
				<path id="kvg:07582-s14" kvg:type="㇐a" d="M40.54,78.76c8.68-0.83,22.87-2.02,30.5-2.28"/>
				<path id="kvg:07582-s15" kvg:type="㇐a" d="M41.05,87.09c6.78-0.3,21.61-1.46,29.44-1.5"/>
			</g>
			<g id="kvg:07582-g10" kvg:element="一">
				<path id="kvg:07582-s16" kvg:type="㇐" d="M18.23,96.95c1.66,0.47,4.71,0.54,6.37,0.47c17.3-0.78,32.94-3.51,64.77-3.63c2.77-0.01,4.43,0.22,5.82,0.46"/>
			</g>
		</g>
	</g>
</g>
</g>
<g id="kvg:StrokeNumbers_07582" style="font-size:8;fill:#808080">
	<text transform="matrix(1 0 0 1 25.25 19.50)">1</text>
	<text transform="matrix(1 0 0 1 35.50 11.50)">2</text>
	<text transform="matrix(1 0 0 1 56.50 19.48)">3</text>
	<text transform="matrix(1 0 0 1 38.50 20.50)">4</text>
	<text transform="matrix(1 0 0 1 39.50 30.33)">5</text>
	<text transform="matrix(1 0 0 1 19.25 37.50)">6</text>
	<text transform="matrix(1 0 0 1 19.50 53.50)">7</text>
	<text transform="matrix(1 0 0 1 77.50 29.50)">8</text>
	<text transform="matrix(1 0 0 1 54.25 45.50)">9</text>
	<text transform="matrix(1 0 0 1 10.50 61.50)">10</text>
	<text transform="matrix(1 0 0 1 37.50 58.50)">11</text>
	<text transform="matrix(1 0 0 1 27.50 75.50)">12</text>
	<text transform="matrix(1 0 0 1 42.50 67.50)">13</text>
	<text transform="matrix(1 0 0 1 42.50 75.50)">14</text>
	<text transform="matrix(1 0 0 1 42.50 84.50)">15</text>
	<text transform="matrix(1 0 0 1 14.50 93.50)">16</text>
</g>
</svg>
