<?xml version="1.0" encoding="UTF-8"?>
<!--
Copyright (C) 2009/2010/2011 Ulrich Apel.
This work is distributed under the conditions of the Creative Commons 
Attribution-Share Alike 3.0 Licence. This means you are free:
* to Share - to copy, distribute and transmit the work
* to Remix - to adapt the work

Under the following conditions:
* Attribution. You must attribute the work by stating your use of KanjiVG in
  your own copyright header and linking to KanjiVG's website
  (http://kanjivg.tagaini.net)
* Share Alike. If you alter, transform, or build upon this work, you may
  distribute the resulting work only under the same or similar license to this
  one.

See http://creativecommons.org/licenses/by-sa/3.0/ for more details.
-->
<!DOCTYPE svg PUBLIC "-//W3C//DTD SVG 1.0//EN" "http://www.w3.org/TR/2001/REC-SVG-20010904/DTD/svg10.dtd" [
<!ATTLIST g
xmlns:kvg CDATA #FIXED "http://kanjivg.tagaini.net"
kvg:element CDATA #IMPLIED
kvg:variant CDATA #IMPLIED
kvg:partial CDATA #IMPLIED
kvg:original CDATA #IMPLIED
kvg:part CDATA #IMPLIED
kvg:number CDATA #IMPLIED
kvg:tradForm CDATA #IMPLIED
kvg:radicalForm CDATA #IMPLIED
kvg:position CDATA #IMPLIED
kvg:radical CDATA #IMPLIED
kvg:phon CDATA #IMPLIED >
<!ATTLIST path
xmlns:kvg CDATA #FIXED "http://kanjivg.tagaini.net"
kvg:type CDATA #IMPLIED >
]>
<svg xmlns="http://www.w3.org/2000/svg" width="109" height="109" viewBox="0 0 109 109">
<g id="kvg:StrokePaths_0758f-Kaisho" style="fill:none;stroke:#000000;stroke-width:3;stroke-linecap:round;stroke-linejoin:round;">
<g id="kvg:0758f-Kaisho" kvg:element="疏">
	<g id="kvg:0758f-Kaisho-g1" kvg:element="疋" kvg:variant="true" kvg:position="left" kvg:radical="general">
		<path id="kvg:0758f-Kaisho-s1" kvg:type="㇖" d="M61.2,14.25c2.87,1.38,7.13,6.76,7.6,9.48"/>
		<g id="kvg:0758f-Kaisho-g2" kvg:element="卜" kvg:original="ト">
			<path id="kvg:0758f-Kaisho-s2" kvg:type="㇑" d="M45.44,31.78c0.98,0.07,3.22,0.48,4.17,0.38c7.7-0.79,29.54-4.56,39.31-4.77c1.62-0.03,2.44,0.03,3.64,0.48"/>
			<path id="kvg:0758f-Kaisho-s3" kvg:type="㇐" d="M63.19,33c0.57,0.37-0.22,2.45-0.55,2.92c-4.18,5.92-4.96,7.36-10.38,13.14c-2.75,2.93-1.76,3.27,1.75,2.51c9.56-2.06,17-4.32,28.5-7.27"/>
		</g>
		<g id="kvg:0758f-Kaisho-g3" kvg:element="人">
			<path id="kvg:0758f-Kaisho-s4" kvg:type="㇑/㇒" d="M75.41,36.85c4.34,2.58,11.21,10.61,12.3,14.62"/>
			<path id="kvg:0758f-Kaisho-s5" kvg:type="㇀/㇏" d="M52.52,60.14c0.23,0.59,0.42,2.15,0.41,3.37c-0.18,15.83-3.86,26.36-13.62,31.71"/>
		</g>
	</g>
	<g id="kvg:0758f-Kaisho-g4" kvg:position="right">
		<g id="kvg:0758f-Kaisho-g5" kvg:position="top">
			<g id="kvg:0758f-Kaisho-g6" kvg:element="亠">
				<path id="kvg:0758f-Kaisho-s6" kvg:type="㇑a" d="M64.36,58.37c0.07,0.41,1.01,2.15,1.08,4.77C65.79,75.7,65.22,85.72,65.22,90"/>
				<path id="kvg:0758f-Kaisho-s7" kvg:type="㇐" d="M78.1,55.37c0.64,1.28,1.16,2.78,1.2,4.75c0.17,8.78-0.46,17.32-0.46,23.29c0,10.59,1.92,11.87,9.34,11.87C95.5,95.28,98,94,98,85.99"/>
			</g>
			<g id="kvg:0758f-Kaisho-g7" kvg:element="厶">
				<path id="kvg:0758f-Kaisho-s8" kvg:type="㇜" d="M10.58,28.4c0.92,0.6,3.52,0.93,6.01,0.44c8.16-1.59,13.62-2.78,20.16-4.09c2.5-0.5,3.42,0.93,2,2.75C37,29.75,33,35,29.5,39.5"/>
				<path id="kvg:0758f-Kaisho-s9" kvg:type="㇔" d="M25,38.83c0.97,0.45,1.75,1.99,1.75,2.91c0,6.51,0.25,30.01,0.25,39.09"/>
			</g>
		</g>
		<g id="kvg:0758f-Kaisho-g8" kvg:element="川" kvg:variant="true" kvg:original="巛" kvg:position="bottom">
			<path id="kvg:0758f-Kaisho-s10" kvg:type="㇒" d="M27.26,55.06c6.37-0.67,1-0.34,10.61-1.68c1.54-0.22,1.95-0.22,2.92,0"/>
			<path id="kvg:0758f-Kaisho-s11" kvg:type="㇑" d="M12.77,58.83c0.98,0.92,1.55,1.99,1.76,5.02C15,70.75,15.5,81.54,15.5,86.5"/>
			<path id="kvg:0758f-Kaisho-s12" kvg:type="㇟" d="M9.25,88c0.54,0.23,2.68,1.93,3.5,1.5C18,86.75,29,79.75,37,75"/>
		</g>
	</g>
</g>
</g>
<g id="kvg:StrokeNumbers_0758f-Kaisho" style="font-size:8;fill:#808080">
	<text transform="matrix(1 0 0 1 3.50 28.50)">1</text>
	<text transform="matrix(1 0 0 1 17.50 45.05)">2</text>
	<text transform="matrix(1 0 0 1 30.50 51.50)">3</text>
	<text transform="matrix(1 0 0 1 4.25 60.50)">4</text>
	<text transform="matrix(1 0 0 1 2.50 88.50)">5</text>
	<text transform="matrix(1 0 0 1 54.50 14.50)">6</text>
	<text transform="matrix(1 0 0 1 45.50 28.50)">7</text>
	<text transform="matrix(1 0 0 1 52.25 40.60)">8</text>
	<text transform="matrix(1 0 0 1 79.50 37.50)">9</text>
	<text transform="matrix(1 0 0 1 41.50 63.50)">10</text>
	<text transform="matrix(1 0 0 1 54.50 61.50)">11</text>
	<text transform="matrix(1 0 0 1 67.50 57.50)">12</text>
</g>
</svg>
