<?xml version="1.0" encoding="UTF-8"?>
<!--
Copyright (C) 2009/2010/2011 Ulrich Apel.
This work is distributed under the conditions of the Creative Commons 
Attribution-Share Alike 3.0 Licence. This means you are free:
* to Share - to copy, distribute and transmit the work
* to Remix - to adapt the work

Under the following conditions:
* Attribution. You must attribute the work by stating your use of KanjiVG in
  your own copyright header and linking to KanjiVG's website
  (http://kanjivg.tagaini.net)
* Share Alike. If you alter, transform, or build upon this work, you may
  distribute the resulting work only under the same or similar license to this
  one.

See http://creativecommons.org/licenses/by-sa/3.0/ for more details.
-->
<!DOCTYPE svg PUBLIC "-//W3C//DTD SVG 1.0//EN" "http://www.w3.org/TR/2001/REC-SVG-20010904/DTD/svg10.dtd" [
<!ATTLIST g
xmlns:kvg CDATA #FIXED "http://kanjivg.tagaini.net"
kvg:element CDATA #IMPLIED
kvg:variant CDATA #IMPLIED
kvg:partial CDATA #IMPLIED
kvg:original CDATA #IMPLIED
kvg:part CDATA #IMPLIED
kvg:number CDATA #IMPLIED
kvg:tradForm CDATA #IMPLIED
kvg:radicalForm CDATA #IMPLIED
kvg:position CDATA #IMPLIED
kvg:radical CDATA #IMPLIED
kvg:phon CDATA #IMPLIED >
<!ATTLIST path
xmlns:kvg CDATA #FIXED "http://kanjivg.tagaini.net"
kvg:type CDATA #IMPLIED >
]>
<svg xmlns="http://www.w3.org/2000/svg" width="109" height="109" viewBox="0 0 109 109">
<g id="kvg:StrokePaths_075be-Kaisho" style="fill:none;stroke:#000000;stroke-width:3;stroke-linecap:round;stroke-linejoin:round;">
<g id="kvg:075be-Kaisho" kvg:element="疾">
	<g id="kvg:075be-Kaisho-g1" kvg:element="疒" kvg:position="tare" kvg:radical="general">
		<path id="kvg:075be-Kaisho-s1" kvg:type="㇑a" d="M54.78,11.13c2.13,0.9,6.64,6.75,7.06,8.55"/>
		<path id="kvg:075be-Kaisho-s2" kvg:type="㇐" d="M28.63,26.23c1.52,0.54,4.3,0.63,5.82,0.54c15.8-0.91,36.05-3.52,50.11-4.23c2.53-0.13,4.05,0.26,5.31,0.53"/>
		<path id="kvg:075be-Kaisho-s3" kvg:type="㇒" d="M31.99,28c0,35.75-1.24,53.5-14.69,66.97"/>
		<path id="kvg:075be-Kaisho-s4" kvg:type="㇔" d="M15.25,39.5c2.74,1.63,7.07,6.71,7.75,9.25"/>
		<path id="kvg:075be-Kaisho-s5" kvg:type="㇀" d="M12.67,71.47c1.58,0.78,2.07,0.55,3.46-0.39c5.62-3.83,8.87-6.27,13.12-9.58"/>
	</g>
	<g id="kvg:075be-Kaisho-g2" kvg:element="矢">
		<path id="kvg:075be-Kaisho-s6" kvg:type="㇒" d="M51.97,34c0.04,0.6,0.08,1.55-0.07,2.41c-0.88,5.08-6.42,17.58-11.94,22.2"/>
		<g id="kvg:075be-Kaisho-g3" kvg:element="天">
			<path id="kvg:075be-Kaisho-s7" kvg:type="㇐" d="M52.37,45.15c1.34,0.09,4.42-0.38,5.35-0.55c3.81-0.69,13.82-2.29,19.7-3.47c1.54-0.31,2.53-0.41,3.31-0.23"/>
			<g id="kvg:075be-Kaisho-g4" kvg:element="大">
				<path id="kvg:075be-Kaisho-s8" kvg:type="㇐" d="M36.64,65.13c1.14,0.38,3.53,0.41,4.27,0.37c13.84-0.75,39.43-4.03,48.3-4.28c0.94-0.03,2.28,0.1,4.39,0.56"/>
				<path id="kvg:075be-Kaisho-s9" kvg:type="㇒" d="M63.48,46.58c0.28,0.78,0.57,1.51,0.56,3.03c-0.18,26.27-9.19,39.72-24.02,47.79"/>
				<path id="kvg:075be-Kaisho-s10" kvg:type="㇏" d="M64.96,65.59C72.5,76.5,86.19,90.47,92.88,95.43c2.28,1.69,3.07,1.94,4.11,2.1"/>
			</g>
		</g>
	</g>
</g>
</g>
<g id="kvg:StrokeNumbers_075be-Kaisho" style="font-size:8;fill:#808080">
	<text transform="matrix(1 0 0 1 49.50 11.50)">1</text>
	<text transform="matrix(1 0 0 1 29.50 23.50)">2</text>
	<text transform="matrix(1 0 0 1 24.50 35.50)">3</text>
	<text transform="matrix(1 0 0 1 6.50 37.50)">4</text>
	<text transform="matrix(1 0 0 1 5.25 75.50)">5</text>
	<text transform="matrix(1 0 0 1 43.50 36.50)">6</text>
	<text transform="matrix(1 0 0 1 56.50 42.13)">7</text>
	<text transform="matrix(1 0 0 1 44.25 61.63)">8</text>
	<text transform="matrix(1 0 0 1 56.50 53.50)">9</text>
	<text transform="matrix(1 0 0 1 73.50 73.50)">10</text>
</g>
</svg>
