<?xml version="1.0" encoding="UTF-8"?>
<!--
Copyright (C) 2009/2010/2011 Ulrich Apel.
This work is distributed under the conditions of the Creative Commons 
Attribution-Share Alike 3.0 Licence. This means you are free:
* to Share - to copy, distribute and transmit the work
* to Remix - to adapt the work

Under the following conditions:
* Attribution. You must attribute the work by stating your use of KanjiVG in
  your own copyright header and linking to KanjiVG's website
  (http://kanjivg.tagaini.net)
* Share Alike. If you alter, transform, or build upon this work, you may
  distribute the resulting work only under the same or similar license to this
  one.

See http://creativecommons.org/licenses/by-sa/3.0/ for more details.
-->
<!DOCTYPE svg PUBLIC "-//W3C//DTD SVG 1.0//EN" "http://www.w3.org/TR/2001/REC-SVG-20010904/DTD/svg10.dtd" [
<!ATTLIST g
xmlns:kvg CDATA #FIXED "http://kanjivg.tagaini.net"
kvg:element CDATA #IMPLIED
kvg:variant CDATA #IMPLIED
kvg:partial CDATA #IMPLIED
kvg:original CDATA #IMPLIED
kvg:part CDATA #IMPLIED
kvg:number CDATA #IMPLIED
kvg:tradForm CDATA #IMPLIED
kvg:radicalForm CDATA #IMPLIED
kvg:position CDATA #IMPLIED
kvg:radical CDATA #IMPLIED
kvg:phon CDATA #IMPLIED >
<!ATTLIST path
xmlns:kvg CDATA #FIXED "http://kanjivg.tagaini.net"
kvg:type CDATA #IMPLIED >
]>
<svg xmlns="http://www.w3.org/2000/svg" width="109" height="109" viewBox="0 0 109 109">
<g id="kvg:StrokePaths_075c3-Kaisho" style="fill:none;stroke:#000000;stroke-width:3;stroke-linecap:round;stroke-linejoin:round;">
<g id="kvg:075c3-Kaisho" kvg:element="痃">
	<g id="kvg:075c3-Kaisho-g1" kvg:element="疒" kvg:position="tare" kvg:radical="general">
		<path id="kvg:075c3-Kaisho-s1" kvg:type="㇑a" d="M55.09,12.13c1.4,0.71,4.37,5.33,4.64,6.75"/>
		<path id="kvg:075c3-Kaisho-s2" kvg:type="㇐" d="M26.63,24.23c1.52,0.54,4.3,0.63,5.82,0.54c15.8-0.91,39.55-1.52,53.61-2.23c2.53-0.13,4.05,0.26,5.31,0.53"/>
		<path id="kvg:075c3-Kaisho-s3" kvg:type="㇒" d="M30.99,25c0,1.19,0,2.35-0.01,3.5c-0.14,33.57-2.44,49.01-15.68,63.97"/>
		<path id="kvg:075c3-Kaisho-s4" kvg:type="㇔" d="M15,37.75c2.82,1.85,7.29,7.62,8,10.5"/>
		<path id="kvg:075c3-Kaisho-s5" kvg:type="㇀" d="M11.17,66.27c1.48,0.7,1.95,0.5,3.25-0.36c5.28-3.46,8.33-5.67,12.33-8.66"/>
	</g>
	<g id="kvg:075c3-Kaisho-g2" kvg:element="玄">
		<g id="kvg:075c3-Kaisho-g3" kvg:element="亠" kvg:position="top">
			<path id="kvg:075c3-Kaisho-s6" kvg:type="㇑a" d="M58.18,30.5c2.19,1.21,4.57,4,5.81,7.31"/>
			<path id="kvg:075c3-Kaisho-s7" kvg:type="㇐" d="M38,43.84c1.25,0.08,4.1,0.54,5.32,0.43c9.82-0.89,29.54-2.42,43.54-3.04c2.06-0.09,3.11,0.04,4.65,0.54"/>
		</g>
		<g id="kvg:075c3-Kaisho-g4" kvg:element="幺" kvg:position="bottom">
			<path id="kvg:075c3-Kaisho-s8" kvg:type="㇜" d="M56.09,46.57c0.37,0.96,0.55,1.7-0.18,2.73c-3.16,4.45-5.16,7.16-9.91,12.78c-0.51,0.61-0.72,2.32,0,2.41c6.24,0.77,12.24,2.27,15.99,4.34"/>
			<path id="kvg:075c3-Kaisho-s9" kvg:type="㇜" d="M75.26,49.86c0.64,1.42,0.17,4.27-0.59,5.13C64.14,66.92,57.38,75.63,40.87,91.13c-1.84,1.73-1.17,3.61,1.18,3.06c17.1-3.97,21.45-5.03,38.15-8.76"/>
			<path id="kvg:075c3-Kaisho-s10" kvg:type="㇔" d="M70.96,75.24c5.29,3.6,13.68,14.79,15,20.38"/>
		</g>
	</g>
</g>
</g>
<g id="kvg:StrokeNumbers_075c3-Kaisho" style="font-size:8;fill:#808080">
	<text transform="matrix(1 0 0 1 49.50 12.50)">1</text>
	<text transform="matrix(1 0 0 1 27.50 21.50)">2</text>
	<text transform="matrix(1 0 0 1 23.71 33.50)">3</text>
	<text transform="matrix(1 0 0 1 6.54 38.50)">4</text>
	<text transform="matrix(1 0 0 1 3.72 68.50)">5</text>
	<text transform="matrix(1 0 0 1 52.50 33.76)">6</text>
	<text transform="matrix(1 0 0 1 36.50 40.50)">7</text>
	<text transform="matrix(1 0 0 1 46.50 53.50)">8</text>
	<text transform="matrix(1 0 0 1 67.50 51.50)">9</text>
	<text transform="matrix(1 0 0 1 73.44 72.46)">10</text>
</g>
</svg>
