<?xml version="1.0" encoding="UTF-8"?>
<!--
Copyright (C) 2009/2010/2011 Ulrich Apel.
This work is distributed under the conditions of the Creative Commons 
Attribution-Share Alike 3.0 Licence. This means you are free:
* to Share - to copy, distribute and transmit the work
* to Remix - to adapt the work

Under the following conditions:
* Attribution. You must attribute the work by stating your use of KanjiVG in
  your own copyright header and linking to KanjiVG's website
  (http://kanjivg.tagaini.net)
* Share Alike. If you alter, transform, or build upon this work, you may
  distribute the resulting work only under the same or similar license to this
  one.

See http://creativecommons.org/licenses/by-sa/3.0/ for more details.
-->
<!DOCTYPE svg PUBLIC "-//W3C//DTD SVG 1.0//EN" "http://www.w3.org/TR/2001/REC-SVG-20010904/DTD/svg10.dtd" [
<!ATTLIST g
xmlns:kvg CDATA #FIXED "http://kanjivg.tagaini.net"
kvg:element CDATA #IMPLIED
kvg:variant CDATA #IMPLIED
kvg:partial CDATA #IMPLIED
kvg:original CDATA #IMPLIED
kvg:part CDATA #IMPLIED
kvg:number CDATA #IMPLIED
kvg:tradForm CDATA #IMPLIED
kvg:radicalForm CDATA #IMPLIED
kvg:position CDATA #IMPLIED
kvg:radical CDATA #IMPLIED
kvg:phon CDATA #IMPLIED >
<!ATTLIST path
xmlns:kvg CDATA #FIXED "http://kanjivg.tagaini.net"
kvg:type CDATA #IMPLIED >
]>
<svg xmlns="http://www.w3.org/2000/svg" width="109" height="109" viewBox="0 0 109 109">
<g id="kvg:StrokePaths_075d2" style="fill:none;stroke:#000000;stroke-width:3;stroke-linecap:round;stroke-linejoin:round;">
<g id="kvg:075d2" kvg:element="痒">
	<g id="kvg:075d2-g1" kvg:element="疒" kvg:position="tare" kvg:radical="general">
		<path id="kvg:075d2-s1" kvg:type="㇑a" d="M55.41,9.63c0.7,0.36,2.18,2.66,2.32,3.37c0.14,0.71,0.07,3.8-0.07,8.24"/>
		<path id="kvg:075d2-s2" kvg:type="㇐" d="M27.63,22.73c1.83,0.54,5.18,0.63,7,0.54c19.01-0.91,31.94-2.52,48.85-3.23c3.04-0.13,4.87,0.26,6.39,0.53"/>
		<path id="kvg:075d2-s3" kvg:type="㇒" d="M30.99,23.5c-0.02,1.27-0.04,2.52-0.07,3.75c-0.68,30.89-4.08,48.36-14.37,63.72"/>
		<path id="kvg:075d2-s4" kvg:type="㇔" d="M14.5,37.75c2.82,1.68,7.29,6.89,8,9.5"/>
		<path id="kvg:075d2-s5" kvg:type="㇀" d="M11.92,66.25c1.32,0.74,1.73,0.53,2.89-0.37c4.69-3.65,7.4-5.97,10.94-9.12"/>
	</g>
	<g id="kvg:075d2-g2" kvg:element="羊">
		<path id="kvg:075d2-s6" kvg:type="㇔" d="M47.15,28.86c2.55,1.5,6.58,6.15,7.22,8.48"/>
		<path id="kvg:075d2-s7" kvg:type="㇒" d="M74.98,26.39c0.02,0.29,0.04,0.75-0.04,1.16c-0.48,2.45-3.24,7.81-7.02,11.1"/>
		<path id="kvg:075d2-s8" kvg:type="㇐" d="M40.86,43.34c1.18,0.41,3.31,0.46,4.51,0.41c10.88-0.5,25.81-2.78,36.41-2.63c1.96,0.03,3.14,0.19,4.12,0.4"/>
		<path id="kvg:075d2-s9" kvg:type="㇐" d="M43.11,57.88c0.78,0.35,2.2,0.35,3,0.35c10.13-0.02,24.89-1.73,34.7-2.1c1.3-0.05,2.3,0.38,3.43,0.38"/>
		<path id="kvg:075d2-s10" kvg:type="㇐" d="M34.42,73.81c1.44,0.78,4.06,0.85,5.51,0.78C51.5,74,71.1,72,86.92,70.94c2.39-0.16,3.23,0.48,5.41,0.84"/>
		<path id="kvg:075d2-s11" kvg:type="㇑" d="M61.64,45.62c0.76,0.46,1.21,2.06,1.36,2.98c0.15,0.92,0,45.16-0.15,50.9"/>
	</g>
</g>
</g>
<g id="kvg:StrokeNumbers_075d2" style="font-size:8;fill:#808080">
	<text transform="matrix(1 0 0 1 48.85 10.50)">1</text>
	<text transform="matrix(1 0 0 1 30.50 19.50)">2</text>
	<text transform="matrix(1 0 0 1 23.50 31.50)">3</text>
	<text transform="matrix(1 0 0 1 6.54 36.50)">4</text>
	<text transform="matrix(1 0 0 1 3.50 67.50)">5</text>
	<text transform="matrix(1 0 0 1 40.25 32.50)">6</text>
	<text transform="matrix(1 0 0 1 66.50 30.18)">7</text>
	<text transform="matrix(1 0 0 1 37.50 40.50)">8</text>
	<text transform="matrix(1 0 0 1 35.50 57.50)">9</text>
	<text transform="matrix(1 0 0 1 32.50 70.50)">10</text>
	<text transform="matrix(1 0 0 1 52.50 51.50)">11</text>
</g>
</svg>
