<?xml version="1.0" encoding="UTF-8"?>
<!--
Copyright (C) 2009/2010/2011 Ulrich Apel.
This work is distributed under the conditions of the Creative Commons 
Attribution-Share Alike 3.0 Licence. This means you are free:
* to Share - to copy, distribute and transmit the work
* to Remix - to adapt the work

Under the following conditions:
* Attribution. You must attribute the work by stating your use of KanjiVG in
  your own copyright header and linking to KanjiVG's website
  (http://kanjivg.tagaini.net)
* Share Alike. If you alter, transform, or build upon this work, you may
  distribute the resulting work only under the same or similar license to this
  one.

See http://creativecommons.org/licenses/by-sa/3.0/ for more details.
-->
<!DOCTYPE svg PUBLIC "-//W3C//DTD SVG 1.0//EN" "http://www.w3.org/TR/2001/REC-SVG-20010904/DTD/svg10.dtd" [
<!ATTLIST g
xmlns:kvg CDATA #FIXED "http://kanjivg.tagaini.net"
kvg:element CDATA #IMPLIED
kvg:variant CDATA #IMPLIED
kvg:partial CDATA #IMPLIED
kvg:original CDATA #IMPLIED
kvg:part CDATA #IMPLIED
kvg:number CDATA #IMPLIED
kvg:tradForm CDATA #IMPLIED
kvg:radicalForm CDATA #IMPLIED
kvg:position CDATA #IMPLIED
kvg:radical CDATA #IMPLIED
kvg:phon CDATA #IMPLIED >
<!ATTLIST path
xmlns:kvg CDATA #FIXED "http://kanjivg.tagaini.net"
kvg:type CDATA #IMPLIED >
]>
<svg xmlns="http://www.w3.org/2000/svg" width="109" height="109" viewBox="0 0 109 109">
<g id="kvg:StrokePaths_075f2-Kaisho" style="fill:none;stroke:#000000;stroke-width:3;stroke-linecap:round;stroke-linejoin:round;">
<g id="kvg:075f2-Kaisho" kvg:element="痲">
	<g id="kvg:075f2-Kaisho-g1" kvg:element="疒" kvg:position="tare" kvg:radical="general">
		<path id="kvg:075f2-Kaisho-s1" kvg:type="㇑a" d="M51.09,10.63c1.4,0.71,4.41,3.62,5.14,6.75"/>
		<path id="kvg:075f2-Kaisho-s2" kvg:type="㇐" d="M25.13,23.73c1.52,0.54,4.3,0.63,5.82,0.54c15.8-0.91,39.55-4.02,53.61-4.73c2.53-0.13,4.05,0.26,5.31,0.53"/>
		<path id="kvg:075f2-Kaisho-s3" kvg:type="㇒" d="M28.99,24.5c0,1.19,0,2.35,0,3.5C28.9,62.74,27.3,78.28,13.81,94.22"/>
		<path id="kvg:075f2-Kaisho-s4" kvg:type="㇔" d="M11.5,36.25c3.18,2.12,8.21,8.71,9,12"/>
		<path id="kvg:075f2-Kaisho-s5" kvg:type="㇀" d="M10.67,68.18c1.29,0.85,1.7,0.61,2.83-0.43c4.6-4.2,7.26-6.88,10.75-10.5"/>
	</g>
	<g id="kvg:075f2-Kaisho-g2" kvg:element="林" kvg:variant="true">
		<g id="kvg:075f2-Kaisho-g3" kvg:element="木" kvg:variant="true" kvg:position="left">
			<path id="kvg:075f2-Kaisho-s6" kvg:type="㇐" d="M34.51,45.62c0.51,0.21,2.03,0.18,3.38,0c4.73-0.63,12.13-1.68,17.2-2.11c1.35-0.11,2.36-0.13,3.21,0.08"/>
			<path id="kvg:075f2-Kaisho-s7" kvg:type="㇑" d="M45.7,29.93c0.96,0.42,1.54,1.89,1.73,2.74c0.19,0.84-0.19,53.31-0.19,58.58c0,9.5-4.37,2.12-5.74,0.75"/>
			<path id="kvg:075f2-Kaisho-s8" kvg:type="㇒" d="M38.22,54.64c0.53,1.35,0.61,2.04,0.52,3.18c-0.57,6.7-0.49,22.68-8.93,30.4"/>
			<path id="kvg:075f2-Kaisho-s9" kvg:type="㇏" d="M54.79,53.75c0.81,0.36,1.3,1.6,1.46,2.31c0.16,0.71,0,22.09-0.16,26.52"/>
		</g>
		<g id="kvg:075f2-Kaisho-g4" kvg:element="木" kvg:variant="true" kvg:position="right">
			<path id="kvg:075f2-Kaisho-s10" kvg:type="㇐" d="M63.68,42.67c0.54,0.21,1.7,0.33,3.12,0.21c5.03-0.42,13.3-1.39,23.13-2.45c1.43-0.15,2.67-0.21,3.57,0"/>
			<path id="kvg:075f2-Kaisho-s11" kvg:type="㇑" d="M75.1,27.25c1.02,0.45,1.63,2,1.84,2.89c0.2,0.89-0.2,56.86-0.2,62.44c0,10.92-5.19,2.04-6.23,1"/>
			<path id="kvg:075f2-Kaisho-s12" kvg:type="㇒" d="M67.68,53.89c0.79,1.09,0.86,2.74,0.82,3.91c-0.25,8.2-1.5,21.95-7.7,30.66"/>
			<path id="kvg:075f2-Kaisho-s13" kvg:type="㇟" d="M84.49,51.37c0.95,0.71,1.7,1.74,1.72,3.36c0.07,7.26-0.18,17.13-0.18,22.07c0,8.78,0.97,10.23,6.1,10.23c5.42,0,6.52-1.17,6.52-8.1"/>
		</g>
	</g>
</g>
</g>
<g id="kvg:StrokeNumbers_075f2-Kaisho" style="font-size:8;fill:#808080">
	<text transform="matrix(1 0 0 1 45.50 11.10)">1</text>
	<text transform="matrix(1 0 0 1 27.50 20.50)">2</text>
	<text transform="matrix(1 0 0 1 21.50 33.50)">3</text>
	<text transform="matrix(1 0 0 1 4.50 37.50)">4</text>
	<text transform="matrix(1 0 0 1 3.72 72.50)">5</text>
	<text transform="matrix(1 0 0 1 32.50 42.50)">6</text>
	<text transform="matrix(1 0 0 1 37.50 32.50)">7</text>
	<text transform="matrix(1 0 0 1 31.50 59.50)">8</text>
	<text transform="matrix(1 0 0 1 51.50 50.50)">9</text>
	<text transform="matrix(1 0 0 1 59.75 39.50)">10</text>
	<text transform="matrix(1 0 0 1 65.50 29.50)">11</text>
	<text transform="matrix(1 0 0 1 61.50 50.50)">12</text>
	<text transform="matrix(1 0 0 1 80.50 48.50)">13</text>
</g>
</svg>
