<?xml version="1.0" encoding="UTF-8"?>
<!--
Copyright (C) 2009/2010/2011 Ulrich Apel.
This work is distributed under the conditions of the Creative Commons 
Attribution-Share Alike 3.0 Licence. This means you are free:
* to Share - to copy, distribute and transmit the work
* to Remix - to adapt the work

Under the following conditions:
* Attribution. You must attribute the work by stating your use of KanjiVG in
  your own copyright header and linking to KanjiVG's website
  (http://kanjivg.tagaini.net)
* Share Alike. If you alter, transform, or build upon this work, you may
  distribute the resulting work only under the same or similar license to this
  one.

See http://creativecommons.org/licenses/by-sa/3.0/ for more details.
-->
<!DOCTYPE svg PUBLIC "-//W3C//DTD SVG 1.0//EN" "http://www.w3.org/TR/2001/REC-SVG-20010904/DTD/svg10.dtd" [
<!ATTLIST g
xmlns:kvg CDATA #FIXED "http://kanjivg.tagaini.net"
kvg:element CDATA #IMPLIED
kvg:variant CDATA #IMPLIED
kvg:partial CDATA #IMPLIED
kvg:original CDATA #IMPLIED
kvg:part CDATA #IMPLIED
kvg:number CDATA #IMPLIED
kvg:tradForm CDATA #IMPLIED
kvg:radicalForm CDATA #IMPLIED
kvg:position CDATA #IMPLIED
kvg:radical CDATA #IMPLIED
kvg:phon CDATA #IMPLIED >
<!ATTLIST path
xmlns:kvg CDATA #FIXED "http://kanjivg.tagaini.net"
kvg:type CDATA #IMPLIED >
]>
<svg xmlns="http://www.w3.org/2000/svg" width="109" height="109" viewBox="0 0 109 109">
<g id="kvg:StrokePaths_07647-Kaisho" style="fill:none;stroke:#000000;stroke-width:3;stroke-linecap:round;stroke-linejoin:round;">
<g id="kvg:07647-Kaisho" kvg:element="癇">
	<g id="kvg:07647-Kaisho-g1" kvg:element="疒" kvg:position="tare" kvg:radical="general">
		<path id="kvg:07647-Kaisho-s1" kvg:type="㇑a" d="M53.34,10.63c1.78,0.9,5.54,6.71,5.89,8.5"/>
		<path id="kvg:07647-Kaisho-s2" kvg:type="㇐" d="M26.13,25.23c1.72,0.54,4.87,0.63,6.58,0.54c17.87-0.91,36.75-2.52,52.66-3.23c2.86-0.13,4.58,0.26,6.01,0.53"/>
		<path id="kvg:07647-Kaisho-s3" kvg:type="㇒" d="M30.49,26.5c0,1.19,0,2.35,0,3.5c-0.09,33.35-1.66,49.24-13.93,63.47"/>
		<path id="kvg:07647-Kaisho-s4" kvg:type="㇔" d="M14,39.75c3.35,1.68,8.66,6.89,9.5,9.5"/>
		<path id="kvg:07647-Kaisho-s5" kvg:type="㇀" d="M11.17,69.05c1.39,0.65,1.82,0.46,3.04-0.33c4.94-3.19,7.8-5.22,11.54-7.97"/>
	</g>
	<g id="kvg:07647-Kaisho-g2" kvg:element="間" kvg:variant="true">
		<g id="kvg:07647-Kaisho-g3" kvg:element="門" kvg:position="kamae">
			<g id="kvg:07647-Kaisho-g4" kvg:position="left">
				<path id="kvg:07647-Kaisho-s6" kvg:type="㇑" d="M39.89,35.4c0.6,0.33,1.06,1.77,1.18,2.42c0.12,0.66-0.08,52.32-0.2,56.45"/>
				<path id="kvg:07647-Kaisho-s7" kvg:type="㇕a" d="M41.23,36.49c2.01-0.07,12.28-1.45,14.1-1.54c1.52-0.07,2.31,0.67,2.39,1.25c0.11,0.9-0.27,17.82-0.27,18.27"/>
				<path id="kvg:07647-Kaisho-s8" kvg:type="㇐a" d="M41.59,45.25c2.66-0.23,5.33-0.49,7.99-0.75c0.69-0.07,1.37-0.13,2.05-0.2"/>
				<path id="kvg:07647-Kaisho-s9" kvg:type="㇐a" d="M41.23,53.99c6.68-0.84,9.26-0.98,15.16-1.37"/>
			</g>
			<g id="kvg:07647-Kaisho-g5" kvg:position="right">
				<path id="kvg:07647-Kaisho-s10" kvg:type="㇑" d="M67.68,34.02c0.34,0.39,0.69,1.23,0.69,1.75c0,0.52-0.12,17.04,0,17.56"/>
				<path id="kvg:07647-Kaisho-s11" kvg:type="㇆a" d="M68.44,35.08c1.94-0.06,14.73-2.26,16.5-2.34c1.48-0.06,2.33,1.21,2.31,1.61c-0.38,12-0.39,45.93-0.39,54.64c0,9.77-4.93,1.96-6.06,1.16"/>
				<path id="kvg:07647-Kaisho-s12" kvg:type="㇐a" d="M68.78,43.02c2.82,0,5.67-0.38,8.48-0.61c0.9-0.08,1.8-0.15,2.68-0.23"/>
				<path id="kvg:07647-Kaisho-s13" kvg:type="㇐a" d="M68.94,51.91c3.89,0,12.3-1.1,17.33-1.1"/>
			</g>
		</g>
		<g id="kvg:07647-Kaisho-g6" kvg:element="日" kvg:variant="true">
			<g id="kvg:07647-Kaisho-g7" kvg:element="月">
				<path id="kvg:07647-Kaisho-s14" kvg:type="㇒" d="M54.8,60.17c0.36,0.43,0.6,0.86,0.72,1.27c0.12,0.42,0.11,11.76-0.28,15.27c-0.55,4.99-1.1,10.02-6.24,15.76"/>
				<path id="kvg:07647-Kaisho-s15" kvg:type="㇆a" d="M56,61.35c1.9-0.04,11.45-1.64,12.87-1.73c2.54-0.16,3.17,1.91,3.17,2.87c0,2.27-0.48,11.76-0.48,24.63c0,8.85-3.56,4.38-5.11,2.22"/>
				<path id="kvg:07647-Kaisho-s16" kvg:type="㇐a" d="M56,70.6c2.57-0.15,5.14-0.49,7.7-0.79c0.69-0.08,1.38-0.16,2.06-0.23"/>
				<path id="kvg:07647-Kaisho-s17" kvg:type="㇐a" d="M55.95,79.01c2.31-0.04,4.62-0.28,6.91-0.49c0.67-0.06,1.35-0.13,2.02-0.19"/>
			</g>
		</g>
	</g>
</g>
</g>
<g id="kvg:StrokeNumbers_07647-Kaisho" style="font-size:8;fill:#808080">
	<text transform="matrix(1 0 0 1 48.85 11.85)">1</text>
	<text transform="matrix(1 0 0 1 26.50 22.50)">2</text>
	<text transform="matrix(1 0 0 1 22.50 34.50)">3</text>
	<text transform="matrix(1 0 0 1 6.54 39.50)">4</text>
	<text transform="matrix(1 0 0 1 3.72 70.50)">5</text>
	<text transform="matrix(1 0 0 1 33.50 42.50)">6</text>
	<text transform="matrix(1 0 0 1 43.50 33.50)">7</text>
	<text transform="matrix(1 0 0 1 45.50 42.50)">8</text>
	<text transform="matrix(1 0 0 1 45.50 51.50)">9</text>
	<text transform="matrix(1 0 0 1 59.50 42.50)">10</text>
	<text transform="matrix(1 0 0 1 69.50 31.88)">11</text>
	<text transform="matrix(1 0 0 1 71.50 40.50)">12</text>
	<text transform="matrix(1 0 0 1 71.50 49.73)">13</text>
	<text transform="matrix(1 0 0 1 45.25 67.65)">14</text>
	<text transform="matrix(1 0 0 1 59.25 58.58)">15</text>
	<text transform="matrix(1 0 0 1 59.25 68.50)">16</text>
	<text transform="matrix(1 0 0 1 59.25 77.50)">17</text>
</g>
</svg>
