<?xml version="1.0" encoding="UTF-8"?>
<!--
Copyright (C) 2009/2010/2011 Ulrich Apel.
This work is distributed under the conditions of the Creative Commons 
Attribution-Share Alike 3.0 Licence. This means you are free:
* to Share - to copy, distribute and transmit the work
* to Remix - to adapt the work

Under the following conditions:
* Attribution. You must attribute the work by stating your use of KanjiVG in
  your own copyright header and linking to KanjiVG's website
  (http://kanjivg.tagaini.net)
* Share Alike. If you alter, transform, or build upon this work, you may
  distribute the resulting work only under the same or similar license to this
  one.

See http://creativecommons.org/licenses/by-sa/3.0/ for more details.
-->
<!DOCTYPE svg PUBLIC "-//W3C//DTD SVG 1.0//EN" "http://www.w3.org/TR/2001/REC-SVG-20010904/DTD/svg10.dtd" [
<!ATTLIST g
xmlns:kvg CDATA #FIXED "http://kanjivg.tagaini.net"
kvg:element CDATA #IMPLIED
kvg:variant CDATA #IMPLIED
kvg:partial CDATA #IMPLIED
kvg:original CDATA #IMPLIED
kvg:part CDATA #IMPLIED
kvg:number CDATA #IMPLIED
kvg:tradForm CDATA #IMPLIED
kvg:radicalForm CDATA #IMPLIED
kvg:position CDATA #IMPLIED
kvg:radical CDATA #IMPLIED
kvg:phon CDATA #IMPLIED >
<!ATTLIST path
xmlns:kvg CDATA #FIXED "http://kanjivg.tagaini.net"
kvg:type CDATA #IMPLIED >
]>
<svg xmlns="http://www.w3.org/2000/svg" width="109" height="109" viewBox="0 0 109 109">
<g id="kvg:StrokePaths_07646" style="fill:none;stroke:#000000;stroke-width:3;stroke-linecap:round;stroke-linejoin:round;">
<g id="kvg:07646" kvg:element="癆">
	<g id="kvg:07646-g1" kvg:element="疒" kvg:position="tare" kvg:radical="general">
		<path id="kvg:07646-s1" kvg:type="㇑a" d="M58.06,9.63c0.61,0.31,1.91,2.33,2.04,2.96c0.12,0.62,0.06,3.27-0.06,7.16"/>
		<path id="kvg:07646-s2" kvg:type="㇐" d="M26.13,21.23c1.68,0.54,4.77,0.63,6.45,0.54c17.5-0.91,40.08-2.52,55.66-3.23c2.8-0.13,4.49,0.26,5.89,0.53"/>
		<path id="kvg:07646-s3" kvg:type="㇒" d="M30.49,22c0,1.28,0,2.53,0,3.75c-0.08,35.04-1.48,48.17-15.43,67.22"/>
		<path id="kvg:07646-s4" kvg:type="㇔" d="M12.75,34c3.62,1.98,9.34,8.16,10.25,11.25"/>
		<path id="kvg:07646-s5" kvg:type="㇀" d="M10.67,64.57c1.44,0.61,1.88,0.43,3.15-0.31c5.11-3,8.06-4.92,11.93-7.51"/>
	</g>
	<g id="kvg:07646-g2" kvg:element="勞">
		<g id="kvg:07646-g3" kvg:position="top">
			<g id="kvg:07646-g4" kvg:element="火">
				<path id="kvg:07646-s6" kvg:type="㇔" d="M38.81,31.74c2.4,1.3,4.79,4.82,5,6.92"/>
				<path id="kvg:07646-s7" kvg:type="㇒" d="M59.47,29.17c0.48,0.36,0.25,1.7-0.18,2.26c-0.44,0.56-4.46,4.14-6.64,5.46"/>
				<path id="kvg:07646-s8" kvg:type="㇒" d="M50.27,27.75c0.86,0.56,0.87,1.99,0.87,2.35c0,8.4-3.64,14.9-9.4,18.67"/>
				<path id="kvg:07646-s9" kvg:type="㇏" d="M51.63,39.96c3.33,1.3,7.54,5.43,8.41,7.27"/>
			</g>
			<g id="kvg:07646-g5" kvg:element="火">
				<path id="kvg:07646-s10" kvg:type="㇔" d="M65.85,30.87c1.66,1.87,2.99,4.88,3.16,6.97"/>
				<path id="kvg:07646-s11" kvg:type="㇒" d="M88.4,27.76c0.31,0.29,0.17,1.35-0.12,1.8c-0.28,0.45-4.89,4.47-6.31,5.52"/>
				<path id="kvg:07646-s12" kvg:type="㇒" d="M75.8,25.25c0.77,0.59,0.79,1.32,0.77,1.69C76.25,34.5,74,42.75,66.84,48.46"/>
				<path id="kvg:07646-s13" kvg:type="㇏" d="M78.07,39.16c3.03,1.52,7.86,6.33,8.65,8.48"/>
			</g>
			<g id="kvg:07646-g6" kvg:element="冖">
				<path id="kvg:07646-s14" kvg:type="㇔" d="M39.01,54.04c-0.12,3.11-2.97,11.24-3.98,13.1"/>
				<path id="kvg:07646-s15" kvg:type="㇖b" d="M39.09,56.37c2.68,0,37.16-3.33,50.62-3.33c9.16,0,2.89,4.63-0.53,7.65"/>
			</g>
		</g>
		<g id="kvg:07646-g7" kvg:element="力" kvg:position="bottom">
			<path id="kvg:07646-s16" kvg:type="㇆" d="M43.48,70.2c1.77,0.3,3.3,0.28,4.21,0.2c8.57-0.75,28.42-3.46,32.51-3.75c2.06-0.15,3,2.66,2.67,4.41c-1.36,7.19-3.61,14.69-8.62,22.19c-3.17,4.74-5.65,1.2-6.63-0.78"/>
			<path id="kvg:07646-s17" kvg:type="㇒" d="M62.53,59.92c0.07,0.87,0.18,2.25-0.15,3.49c-2.44,9.2-9.63,24.34-26.05,33.36"/>
		</g>
	</g>
</g>
</g>
<g id="kvg:StrokeNumbers_07646" style="font-size:8;fill:#808080">
	<text transform="matrix(1 0 0 1 50.50 10.50)">1</text>
	<text transform="matrix(1 0 0 1 28.66 18.35)">2</text>
	<text transform="matrix(1 0 0 1 23.50 30.50)">3</text>
	<text transform="matrix(1 0 0 1 4.50 34.50)">4</text>
	<text transform="matrix(1 0 0 1 2.72 66.50)">5</text>
	<text transform="matrix(1 0 0 1 35.50 29.50)">6</text>
	<text transform="matrix(1 0 0 1 55.50 28.50)">7</text>
	<text transform="matrix(1 0 0 1 43.50 29.50)">8</text>
	<text transform="matrix(1 0 0 1 57.50 41.50)">9</text>
	<text transform="matrix(1 0 0 1 61.25 28.50)">10</text>
	<text transform="matrix(1 0 0 1 81.50 26.38)">11</text>
	<text transform="matrix(1 0 0 1 67.25 27.50)">12</text>
	<text transform="matrix(1 0 0 1 85.50 41.23)">13</text>
	<text transform="matrix(1 0 0 1 32.25 53.50)">14</text>
	<text transform="matrix(1 0 0 1 42.25 52.08)">15</text>
	<text transform="matrix(1 0 0 1 40.50 67.50)">16</text>
	<text transform="matrix(1 0 0 1 51.25 62.50)">17</text>
</g>
</svg>
