<?xml version="1.0" encoding="UTF-8"?>
<!--
Copyright (C) 2009/2010/2011 Ulrich Apel.
This work is distributed under the conditions of the Creative Commons 
Attribution-Share Alike 3.0 Licence. This means you are free:
* to Share - to copy, distribute and transmit the work
* to Remix - to adapt the work

Under the following conditions:
* Attribution. You must attribute the work by stating your use of KanjiVG in
  your own copyright header and linking to KanjiVG's website
  (http://kanjivg.tagaini.net)
* Share Alike. If you alter, transform, or build upon this work, you may
  distribute the resulting work only under the same or similar license to this
  one.

See http://creativecommons.org/licenses/by-sa/3.0/ for more details.
-->
<!DOCTYPE svg PUBLIC "-//W3C//DTD SVG 1.0//EN" "http://www.w3.org/TR/2001/REC-SVG-20010904/DTD/svg10.dtd" [
<!ATTLIST g
xmlns:kvg CDATA #FIXED "http://kanjivg.tagaini.net"
kvg:element CDATA #IMPLIED
kvg:variant CDATA #IMPLIED
kvg:partial CDATA #IMPLIED
kvg:original CDATA #IMPLIED
kvg:part CDATA #IMPLIED
kvg:number CDATA #IMPLIED
kvg:tradForm CDATA #IMPLIED
kvg:radicalForm CDATA #IMPLIED
kvg:position CDATA #IMPLIED
kvg:radical CDATA #IMPLIED
kvg:phon CDATA #IMPLIED >
<!ATTLIST path
xmlns:kvg CDATA #FIXED "http://kanjivg.tagaini.net"
kvg:type CDATA #IMPLIED >
]>
<svg xmlns="http://www.w3.org/2000/svg" width="109" height="109" viewBox="0 0 109 109">
<g id="kvg:StrokePaths_07652-Kaisho" style="fill:none;stroke:#000000;stroke-width:3;stroke-linecap:round;stroke-linejoin:round;">
<g id="kvg:07652-Kaisho" kvg:element="癒">
	<g id="kvg:07652-Kaisho-g1" kvg:element="疒" kvg:position="tare" kvg:radical="general">
		<path id="kvg:07652-Kaisho-s1" kvg:type="㇑a" d="M51.55,9.88c1.97,0.77,6.14,5.77,6.53,7.3"/>
		<path id="kvg:07652-Kaisho-s2" kvg:type="㇐" d="M25.88,23.98c1.52,0.54,4.3,0.63,5.82,0.54c15.8-0.91,39.05-3.52,53.11-4.23c2.53-0.13,4.05,0.26,5.31,0.53"/>
		<path id="kvg:07652-Kaisho-s3" kvg:type="㇒" d="M29.24,25.75c0,37.62-1.99,53.75-15.94,70.47"/>
		<path id="kvg:07652-Kaisho-s4" kvg:type="㇔" d="M13.5,36.75c2.74,1.63,7.07,6.71,7.75,9.25"/>
		<path id="kvg:07652-Kaisho-s5" kvg:type="㇀" d="M10.42,64.32c1.41,0.61,1.85,0.43,3.09-0.31c5.03-3,7.93-4.92,11.73-7.51"/>
	</g>
	<g id="kvg:07652-Kaisho-g2" kvg:element="愈">
		<g id="kvg:07652-Kaisho-g3" kvg:element="兪" kvg:variant="true" kvg:position="top">
			<g id="kvg:07652-Kaisho-g4" kvg:element="入" kvg:original="人" kvg:position="top">
				<path id="kvg:07652-Kaisho-s6" kvg:type="㇒" d="M57.19,25c0.06,0.59,0.33,1.65-0.13,2.37c-3.71,5.78-12,16.03-22.81,22.7"/>
				<path id="kvg:07652-Kaisho-s7" kvg:type="㇏" d="M57.73,26.94c4.54,3.84,24.09,16.38,29.1,19.19c1.7,0.95,3.88,1.36,5.58,1.63"/>
			</g>
			<g id="kvg:07652-Kaisho-g5" kvg:position="bottom">
				<g id="kvg:07652-Kaisho-g6" kvg:element="一">
					<path id="kvg:07652-Kaisho-s8" kvg:type="㇐" d="M47.76,44.77c0.56,0.18,1.59,0.23,2.15,0.18c3.58-0.31,15.64-1.67,19.7-1.77c0.94-0.02,1.5,0.08,1.97,0.17"/>
				</g>
				<g id="kvg:07652-Kaisho-g7" kvg:element="月">
					<path id="kvg:07652-Kaisho-s9" kvg:type="㇒" d="M39.14,52.56c0.6,0.56,1,1.13,1.2,1.69c0.2,0.57,0.28,21.8,0.2,23.07"/>
					<path id="kvg:07652-Kaisho-s10" kvg:type="㇆" d="M41.54,53.39c1.34-0.08,12.56-1.44,13.56-1.53c1.79-0.16,2.46,1.05,2.23,1.53C57.12,53.85,57,67.99,57,74.51c0,5.77-2.92,1.67-4.04,0.95"/>
					<path id="kvg:07652-Kaisho-s11" kvg:type="㇐/㇔" d="M41.28,60.26c2.61-0.2,5.23-0.42,7.84-0.63c0.72-0.06,1.43-0.11,2.14-0.17"/>
					<path id="kvg:07652-Kaisho-s12" kvg:type="㇐/㇔" d="M41.07,67c2.52-0.09,5.03-0.25,7.54-0.4c0.66-0.04,1.83-0.08,2.5-0.12"/>
				</g>
				<g id="kvg:07652-Kaisho-g8" kvg:element="刂" kvg:variant="true" kvg:original="刀">
					<path id="kvg:07652-Kaisho-s13" kvg:type="㇑" d="M68.23,53.11c0.61,0.35,1.04,0.77,1.09,1.94c0.25,5.63-0.01,12.72-0.01,14.64"/>
					<path id="kvg:07652-Kaisho-s14" kvg:type="㇚" d="M81.16,50.16c0.61,0.35,1.04,0.77,1.09,1.94c0.25,5.63-0.16,17.68-0.16,19.6c0,7.28-2.68,1.89-3.88,0.51"/>
				</g>
			</g>
		</g>
		<g id="kvg:07652-Kaisho-g9" kvg:element="心" kvg:position="bottom">
			<path id="kvg:07652-Kaisho-s15" kvg:type="㇔" d="M36.15,84.69c0.25,1.67-2.54,9.06-4.57,11.85"/>
			<path id="kvg:07652-Kaisho-s16" kvg:type="㇟b" d="M46.09,83.53c4.85,8.06,12.52,15.05,31.22,15.15c9.02,0.05,8.95-3.05,3.62-7.89"/>
			<path id="kvg:07652-Kaisho-s17" kvg:type="㇔a" d="M61.46,81.46c1.54,3.48,3.78,6.95,5.43,1.63"/>
			<path id="kvg:07652-Kaisho-s18" kvg:type="㇔" d="M80.22,80.71c4.69,1.78,8.2,3.4,12.01,8.91"/>
		</g>
	</g>
</g>
</g>
<g id="kvg:StrokeNumbers_07652-Kaisho" style="font-size:8;fill:#808080">
	<text transform="matrix(1 0 0 1 45.50 11.25)">1</text>
	<text transform="matrix(1 0 0 1 29.25 20.80)">2</text>
	<text transform="matrix(1 0 0 1 21.50 32.25)">3</text>
	<text transform="matrix(1 0 0 1 6.25 38.25)">4</text>
	<text transform="matrix(1 0 0 1 3.25 69.25)">5</text>
	<text transform="matrix(1 0 0 1 46.25 32.25)">6</text>
	<text transform="matrix(1 0 0 1 68.25 31.25)">7</text>
	<text transform="matrix(1 0 0 1 53.25 41.88)">8</text>
	<text transform="matrix(1 0 0 1 33.50 62.88)">9</text>
	<text transform="matrix(1 0 0 1 42.25 51.25)">10</text>
	<text transform="matrix(1 0 0 1 44.00 59.25)">11</text>
	<text transform="matrix(1 0 0 1 44.00 66.25)">12</text>
	<text transform="matrix(1 0 0 1 60.25 52.25)">13</text>
	<text transform="matrix(1 0 0 1 71.25 50.25)">14</text>
	<text transform="matrix(1 0 0 1 28.25 84.25)">15</text>
	<text transform="matrix(1 0 0 1 39.25 91.25)">16</text>
	<text transform="matrix(1 0 0 1 53.25 85.38)">17</text>
	<text transform="matrix(1 0 0 1 70.25 82.25)">18</text>
</g>
</svg>
