<?xml version="1.0" encoding="UTF-8"?>
<!--
Copyright (C) 2009/2010/2011 Ulrich Apel.
This work is distributed under the conditions of the Creative Commons 
Attribution-Share Alike 3.0 Licence. This means you are free:
* to Share - to copy, distribute and transmit the work
* to Remix - to adapt the work

Under the following conditions:
* Attribution. You must attribute the work by stating your use of KanjiVG in
  your own copyright header and linking to KanjiVG's website
  (http://kanjivg.tagaini.net)
* Share Alike. If you alter, transform, or build upon this work, you may
  distribute the resulting work only under the same or similar license to this
  one.

See http://creativecommons.org/licenses/by-sa/3.0/ for more details.
-->
<!DOCTYPE svg PUBLIC "-//W3C//DTD SVG 1.0//EN" "http://www.w3.org/TR/2001/REC-SVG-20010904/DTD/svg10.dtd" [
<!ATTLIST g
xmlns:kvg CDATA #FIXED "http://kanjivg.tagaini.net"
kvg:element CDATA #IMPLIED
kvg:variant CDATA #IMPLIED
kvg:partial CDATA #IMPLIED
kvg:original CDATA #IMPLIED
kvg:part CDATA #IMPLIED
kvg:number CDATA #IMPLIED
kvg:tradForm CDATA #IMPLIED
kvg:radicalForm CDATA #IMPLIED
kvg:position CDATA #IMPLIED
kvg:radical CDATA #IMPLIED
kvg:phon CDATA #IMPLIED >
<!ATTLIST path
xmlns:kvg CDATA #FIXED "http://kanjivg.tagaini.net"
kvg:type CDATA #IMPLIED >
]>
<svg xmlns="http://www.w3.org/2000/svg" width="109" height="109" viewBox="0 0 109 109">
<g id="kvg:StrokePaths_07668" style="fill:none;stroke:#000000;stroke-width:3;stroke-linecap:round;stroke-linejoin:round;">
<g id="kvg:07668" kvg:element="癨">
	<g id="kvg:07668-g1" kvg:element="疒" kvg:position="tare" kvg:radical="general">
		<path id="kvg:07668-s1" kvg:type="㇑a" d="M53.91,11.13c0.7,0.36,2.18,2.66,2.32,3.37c0.14,0.71,0.07,3.3-0.07,7.74"/>
		<path id="kvg:07668-s2" kvg:type="㇐" d="M24.63,23.73c1.52,0.54,4.3,0.63,5.82,0.54c15.8-0.91,41.05-3.02,55.11-3.73c2.53-0.13,4.05,0.26,5.31,0.53"/>
		<path id="kvg:07668-s3" kvg:type="㇒" d="M29.49,24.5c0,0.93,0,1.85-0.01,2.75c-0.18,35.17-4.03,48.9-16.68,66.97"/>
		<path id="kvg:07668-s4" kvg:type="㇔" d="M11.75,34.25c3.44,2.2,8.89,9.07,9.75,12.5"/>
		<path id="kvg:07668-s5" kvg:type="㇀" d="M9.17,62.57c1.44,0.61,1.88,0.43,3.15-0.31c5.11-3,8.06-4.92,11.93-7.51"/>
	</g>
	<g id="kvg:07668-g2" kvg:element="霍">
		<g id="kvg:07668-g3" kvg:element="雨" kvg:variant="true" kvg:position="top">
			<path id="kvg:07668-s6" kvg:type="㇐" d="M43.88,31.16c1.26,0.05,3.59,0.25,4.82,0.13c6.56-0.64,23.51-2.22,29.42-2.31c1.72-0.03,2.21-0.12,3.8,0.09"/>
			<path id="kvg:07668-s7" kvg:type="㇔/㇑" d="M39.9,38.09c-0.21,3.98-2.1,8.38-3.5,12.4"/>
			<path id="kvg:07668-s8" kvg:type="㇖b/㇆" d="M40.04,40.58c6.05-0.8,33.3-3.57,46.15-3.57c7.44,0,0.95,4.95-0.23,6.21"/>
			<path id="kvg:07668-s9" kvg:type="㇑" d="M61.63,32.9c0.74,1.07,1.07,1.77,1.08,2.82c0.01,0.38-0.22,18.04-0.22,19.07"/>
			<path id="kvg:07668-s10" kvg:type="㇔" d="M48.38,45.01c2.45,0.53,5.79,2.12,7.12,3"/>
			<path id="kvg:07668-s11" kvg:type="㇔" d="M45.93,51.23c2.52,0.67,6.41,3.13,7.79,4.25"/>
			<path id="kvg:07668-s12" kvg:type="㇔" d="M70.44,43.67c3.31,1.18,7.06,3.54,8.38,4.52"/>
			<path id="kvg:07668-s13" kvg:type="㇔" d="M71.92,51.67c2.46,0.92,5.82,3.7,7.16,5.24"/>
		</g>
		<g id="kvg:07668-g4" kvg:element="隹" kvg:position="bottom">
			<g id="kvg:07668-g5" kvg:element="亻" kvg:variant="true" kvg:original="人">
				<path id="kvg:07668-s14" kvg:type="㇒" d="M46.95,56.79c0.15,1.04-0.04,2.41-0.51,3.3c-3.01,5.7-6.83,10.52-13.73,17.46"/>
				<path id="kvg:07668-s15" kvg:type="㇑" d="M44.17,66.81c0.69,0.47,1.22,1.5,1.27,2.23c0.41,6.48-0.56,28.09-0.22,31.47"/>
			</g>
			<path id="kvg:07668-s16" kvg:type="㇒" d="M68.82,56.97c0.04,0.35-0.01,0.81-0.12,1.11c-0.72,1.91-1.64,3.39-3.29,5.72"/>
			<path id="kvg:07668-s17" kvg:type="㇐b" d="M44.24,66.95c8.02-0.61,41.04-2.89,44.48-3.22"/>
			<path id="kvg:07668-s18" kvg:type="㇑a" d="M64.36,66.1c0.39,0.24,0.7,0.57,0.7,0.98c0,4.2,0.04,19.25-0.19,25.87"/>
			<path id="kvg:07668-s19" kvg:type="㇐b" d="M46.31,75.92c7.57-0.5,36.69-1.98,39.94-2.25"/>
			<path id="kvg:07668-s20" kvg:type="㇐b" d="M45.9,84.96c7.98-0.43,37.51-2.29,40.93-2.52"/>
			<path id="kvg:07668-s21" kvg:type="㇐b" d="M45.4,94.86c8.02-0.61,42.71-2.28,46.15-2.61"/>
		</g>
	</g>
</g>
</g>
<g id="kvg:StrokeNumbers_07668" style="font-size:8;fill:#808080">
	<text transform="matrix(1 0 0 1 46.50 11.85)">1</text>
	<text transform="matrix(1 0 0 1 27.50 20.50)">2</text>
	<text transform="matrix(1 0 0 1 21.50 33.50)">3</text>
	<text transform="matrix(1 0 0 1 4.50 34.50)">4</text>
	<text transform="matrix(1 0 0 1 1.50 64.50)">5</text>
	<text transform="matrix(1 0 0 1 36.50 31.50)">6</text>
	<text transform="matrix(1 0 0 1 34.50 39.50)">7</text>
	<text transform="matrix(1 0 0 1 43.50 38.50)">8</text>
	<text transform="matrix(1 0 0 1 55.50 37.03)">9</text>
	<text transform="matrix(1 0 0 1 40.50 47.50)">10</text>
	<text transform="matrix(1 0 0 1 39.50 53.50)">11</text>
	<text transform="matrix(1 0 0 1 64.50 45.50)">12</text>
	<text transform="matrix(1 0 0 1 64.50 51.50)">13</text>
	<text transform="matrix(1 0 0 1 36.50 60.50)">14</text>
	<text transform="matrix(1 0 0 1 35.50 82.50)">15</text>
	<text transform="matrix(1 0 0 1 58.25 61.50)">16</text>
	<text transform="matrix(1 0 0 1 49.25 63.43)">17</text>
	<text transform="matrix(1 0 0 1 68.50 72.50)">18</text>
	<text transform="matrix(1 0 0 1 49.27 73.50)">19</text>
	<text transform="matrix(1 0 0 1 49.27 82.20)">20</text>
	<text transform="matrix(1 0 0 1 49.50 92.13)">21</text>
</g>
</svg>
