<?xml version="1.0" encoding="UTF-8"?>
<!--
Copyright (C) 2009/2010/2011 Ulrich Apel.
This work is distributed under the conditions of the Creative Commons 
Attribution-Share Alike 3.0 Licence. This means you are free:
* to Share - to copy, distribute and transmit the work
* to Remix - to adapt the work

Under the following conditions:
* Attribution. You must attribute the work by stating your use of KanjiVG in
  your own copyright header and linking to KanjiVG's website
  (http://kanjivg.tagaini.net)
* Share Alike. If you alter, transform, or build upon this work, you may
  distribute the resulting work only under the same or similar license to this
  one.

See http://creativecommons.org/licenses/by-sa/3.0/ for more details.
-->
<!DOCTYPE svg PUBLIC "-//W3C//DTD SVG 1.0//EN" "http://www.w3.org/TR/2001/REC-SVG-20010904/DTD/svg10.dtd" [
<!ATTLIST g
xmlns:kvg CDATA #FIXED "http://kanjivg.tagaini.net"
kvg:element CDATA #IMPLIED
kvg:variant CDATA #IMPLIED
kvg:partial CDATA #IMPLIED
kvg:original CDATA #IMPLIED
kvg:part CDATA #IMPLIED
kvg:number CDATA #IMPLIED
kvg:tradForm CDATA #IMPLIED
kvg:radicalForm CDATA #IMPLIED
kvg:position CDATA #IMPLIED
kvg:radical CDATA #IMPLIED
kvg:phon CDATA #IMPLIED >
<!ATTLIST path
xmlns:kvg CDATA #FIXED "http://kanjivg.tagaini.net"
kvg:type CDATA #IMPLIED >
]>
<svg xmlns="http://www.w3.org/2000/svg" width="109" height="109" viewBox="0 0 109 109">
<g id="kvg:StrokePaths_0767b" style="fill:none;stroke:#000000;stroke-width:3;stroke-linecap:round;stroke-linejoin:round;">
<g id="kvg:0767b" kvg:element="登">
	<g id="kvg:0767b-g1" kvg:element="癶" kvg:position="top" kvg:radical="general">
		<g id="kvg:0767b-g2" kvg:position="left">
			<path id="kvg:0767b-s1" kvg:type="㇇" d="M27.25,20.36c1.5,0.61,2.85,0.63,5.25,0.2c5.25-0.94,9-2.31,14.49-3.39c3.96-0.77,4.79,0.52,3.51,3.81C47.5,28.69,31.25,48.75,15,55"/>
			<path id="kvg:0767b-s2" kvg:type="㇔" d="M22.38,29.88c3.68,1.47,9.51,6.03,10.43,8.32"/>
		</g>
		<g id="kvg:0767b-g3" kvg:position="right">
			<path id="kvg:0767b-s3" kvg:type="㇒" d="M70.13,18.12c0,0.75-0.23,1.76-0.51,2.17c-1.37,2.08-2.37,3.08-5.24,5.71"/>
			<path id="kvg:0767b-s4" kvg:type="㇏" d="M53,21.54C59.12,25,77.64,39.93,85.82,46.08c2.58,1.94,5.08,3.56,8.3,4.17"/>
			<path id="kvg:0767b-s5" kvg:type="㇒" d="M82.98,23.8c0.07,0.59-0.24,1.43-0.6,1.9c-1.88,2.43-4,4.8-8,7.43"/>
		</g>
	</g>
	<g id="kvg:0767b-g4" kvg:element="豆" kvg:position="bottom">
		<g id="kvg:0767b-g5" kvg:position="top">
			<path id="kvg:0767b-s6" kvg:type="㇐" d="M37.25,44.94c2.02,0.19,3.52,0.17,4.63,0.07c7.49-0.64,15.49-2.26,22.44-2.6c1.85-0.09,2.97,0.15,3.9,0.31"/>
		</g>
		<g id="kvg:0767b-g6" kvg:position="bottom">
			<g id="kvg:0767b-g7" kvg:element="口">
				<path id="kvg:0767b-s7" kvg:type="㇑" d="M34.49,54.93c0.73,0.73,1.11,1.45,1.23,2.06c0.67,3.41,1.85,8.26,2.82,13.36c0.17,0.9,0.33,1.81,0.49,2.72"/>
				<path id="kvg:0767b-s8" kvg:type="㇕b" d="M36.16,56.24c10.21-1.11,25.93-3.1,31.12-3.2c2.15-0.04,3.59,1.86,3.11,3.77c-0.87,3.43-1.64,6.2-3.1,10.67"/>
				<path id="kvg:0767b-s9" kvg:type="㇐b" d="M39.93,70.89c6.62-0.54,18.9-1.88,26.32-2.43c1.35-0.1,2.54-0.17,3.5-0.21"/>
			</g>
			<path id="kvg:0767b-s10" kvg:type="㇔" d="M37,78.25c2.29,1.96,5.86,6.96,6.43,10.01"/>
			<path id="kvg:0767b-s11" kvg:type="㇒" d="M67.5,74.47c0.25,0.78,0.22,1.73-0.03,2.44c-0.85,2.76-3.57,6.82-7.48,10.77"/>
			<path id="kvg:0767b-s12" kvg:type="㇐" d="M20.58,91.44c3,0.83,8.5,0.77,11.49,0.58c15.12-0.98,30.46-2.24,46.86-2.48c4.99-0.07,7.99,0.4,10.49,0.82"/>
		</g>
	</g>
</g>
</g>
<g id="kvg:StrokeNumbers_0767b" style="font-size:8;fill:#808080">
	<text transform="matrix(1 0 0 1 27.50 17.50)">1</text>
	<text transform="matrix(1 0 0 1 15.50 30.44)">2</text>
	<text transform="matrix(1 0 0 1 68.25 14.50)">3</text>
	<text transform="matrix(1 0 0 1 56.50 21.50)">4</text>
	<text transform="matrix(1 0 0 1 80.50 20.50)">5</text>
	<text transform="matrix(1 0 0 1 43.50 41.50)">6</text>
	<text transform="matrix(1 0 0 1 28.50 63.50)">7</text>
	<text transform="matrix(1 0 0 1 37.50 53.50)">8</text>
	<text transform="matrix(1 0 0 1 42.50 67.63)">9</text>
	<text transform="matrix(1 0 0 1 26.25 81.13)">10</text>
	<text transform="matrix(1 0 0 1 57.50 78.50)">11</text>
	<text transform="matrix(1 0 0 1 10.50 93.50)">12</text>
</g>
</svg>
