<?xml version="1.0" encoding="UTF-8"?>
<!--
Copyright (C) 2009/2010/2011 Ulrich Apel.
This work is distributed under the conditions of the Creative Commons 
Attribution-Share Alike 3.0 Licence. This means you are free:
* to Share - to copy, distribute and transmit the work
* to Remix - to adapt the work

Under the following conditions:
* Attribution. You must attribute the work by stating your use of KanjiVG in
  your own copyright header and linking to KanjiVG's website
  (http://kanjivg.tagaini.net)
* Share Alike. If you alter, transform, or build upon this work, you may
  distribute the resulting work only under the same or similar license to this
  one.

See http://creativecommons.org/licenses/by-sa/3.0/ for more details.
-->
<!DOCTYPE svg PUBLIC "-//W3C//DTD SVG 1.0//EN" "http://www.w3.org/TR/2001/REC-SVG-20010904/DTD/svg10.dtd" [
<!ATTLIST g
xmlns:kvg CDATA #FIXED "http://kanjivg.tagaini.net"
kvg:element CDATA #IMPLIED
kvg:variant CDATA #IMPLIED
kvg:partial CDATA #IMPLIED
kvg:original CDATA #IMPLIED
kvg:part CDATA #IMPLIED
kvg:number CDATA #IMPLIED
kvg:tradForm CDATA #IMPLIED
kvg:radicalForm CDATA #IMPLIED
kvg:position CDATA #IMPLIED
kvg:radical CDATA #IMPLIED
kvg:phon CDATA #IMPLIED >
<!ATTLIST path
xmlns:kvg CDATA #FIXED "http://kanjivg.tagaini.net"
kvg:type CDATA #IMPLIED >
]>
<svg xmlns="http://www.w3.org/2000/svg" width="109" height="109" viewBox="0 0 109 109">
<g id="kvg:StrokePaths_07684" style="fill:none;stroke:#000000;stroke-width:3;stroke-linecap:round;stroke-linejoin:round;">
<g id="kvg:07684" kvg:element="的">
	<g id="kvg:07684-g1" kvg:position="left" kvg:radical="general">
		<g id="kvg:07684-g2" kvg:position="top">
			<path id="kvg:07684-s1" kvg:type="㇒" d="M29.46,15.75c0.35,0.64,0.41,1.67,0.32,2.22c-0.49,3.27-4.77,11.11-8.65,15.51"/>
		</g>
		<g id="kvg:07684-g3" kvg:element="日" kvg:position="bottom">
			<path id="kvg:07684-s2" kvg:type="㇑" d="M14.25,35.72c0.89,0.89,1.19,2.18,1.19,3.68c0,2.11,0.91,25.66,1.17,36.84c0.05,1.93,0.07,3.49,0.07,4.51"/>
			<path id="kvg:07684-s3" kvg:type="㇕a" d="M15.72,37.36c3.41-0.52,16.99-3.12,22.54-3.97c3.29-0.5,5.26-0.07,5.25,3.61c-0.02,5.82-0.09,24.19-0.11,36.61c0,2.01-0.01,3.87-0.01,5.49"/>
			<path id="kvg:07684-s4" kvg:type="㇐a" d="M17.18,56.11c6.07-0.74,18.94-2.74,25.12-3.01"/>
			<path id="kvg:07684-s5" kvg:type="㇐a" d="M17.71,77.44c7.54-0.69,16.16-2.07,24.53-2.39"/>
		</g>
	</g>
	<g id="kvg:07684-g4" kvg:element="勺" kvg:position="right" kvg:phon="勺">
		<g id="kvg:07684-g5" kvg:element="勹">
			<g id="kvg:07684-g6" kvg:element="丿">
				<path id="kvg:07684-s6" kvg:type="㇒" d="M64.89,14.37c0.04,0.8,0.17,2.08-0.09,3.21c-1.55,6.8-6.05,19.3-14.54,29.21"/>
			</g>
			<path id="kvg:07684-s7" kvg:type="㇆" d="M62.32,33.03c1.18,0.47,2.77,0.42,4.2,0.19c4.61-0.73,16.98-2.6,22-3.5c3.41-0.61,5.99,0.75,5.47,5.41c-1.24,11.11-6.11,42.49-14.1,57c-2.72,4.94-5.76,1.98-8.53-0.61"/>
		</g>
		<g id="kvg:07684-g7" kvg:element="丶">
			<path id="kvg:07684-s8" kvg:type="㇔" d="M60.38,53.93c3.35,2.26,8.65,9.31,9.49,12.84"/>
		</g>
	</g>
</g>
</g>
<g id="kvg:StrokeNumbers_07684" style="font-size:8;fill:#808080">
	<text transform="matrix(1 0 0 1 33.49 13.63)">1</text>
	<text transform="matrix(1 0 0 1 8.25 45.13)">2</text>
	<text transform="matrix(1 0 0 1 15.75 33.13)">3</text>
	<text transform="matrix(1 0 0 1 20.25 51.13)">4</text>
	<text transform="matrix(1 0 0 1 21.75 73.63)">5</text>
	<text transform="matrix(1 0 0 1 69.75 12.13)">6</text>
	<text transform="matrix(1 0 0 1 69.75 30.13)">7</text>
	<text transform="matrix(1 0 0 1 60.75 49.63)">8</text>
</g>
</svg>
