<?xml version="1.0" encoding="UTF-8"?>
<!--
Copyright (C) 2009/2010/2011 Ulrich Apel.
This work is distributed under the conditions of the Creative Commons 
Attribution-Share Alike 3.0 Licence. This means you are free:
* to Share - to copy, distribute and transmit the work
* to Remix - to adapt the work

Under the following conditions:
* Attribution. You must attribute the work by stating your use of KanjiVG in
  your own copyright header and linking to KanjiVG's website
  (http://kanjivg.tagaini.net)
* Share Alike. If you alter, transform, or build upon this work, you may
  distribute the resulting work only under the same or similar license to this
  one.

See http://creativecommons.org/licenses/by-sa/3.0/ for more details.
-->
<!DOCTYPE svg PUBLIC "-//W3C//DTD SVG 1.0//EN" "http://www.w3.org/TR/2001/REC-SVG-20010904/DTD/svg10.dtd" [
<!ATTLIST g
xmlns:kvg CDATA #FIXED "http://kanjivg.tagaini.net"
kvg:element CDATA #IMPLIED
kvg:variant CDATA #IMPLIED
kvg:partial CDATA #IMPLIED
kvg:original CDATA #IMPLIED
kvg:part CDATA #IMPLIED
kvg:number CDATA #IMPLIED
kvg:tradForm CDATA #IMPLIED
kvg:radicalForm CDATA #IMPLIED
kvg:position CDATA #IMPLIED
kvg:radical CDATA #IMPLIED
kvg:phon CDATA #IMPLIED >
<!ATTLIST path
xmlns:kvg CDATA #FIXED "http://kanjivg.tagaini.net"
kvg:type CDATA #IMPLIED >
]>
<svg xmlns="http://www.w3.org/2000/svg" width="109" height="109" viewBox="0 0 109 109">
<g id="kvg:StrokePaths_07687" style="fill:none;stroke:#000000;stroke-width:3;stroke-linecap:round;stroke-linejoin:round;">
<g id="kvg:07687" kvg:element="皇">
	<g id="kvg:07687-g1" kvg:element="白" kvg:position="top" kvg:radical="general">
		<g id="kvg:07687-g2" kvg:position="top">
			<path id="kvg:07687-s1" kvg:type="㇒" d="M52.47,11c0.16,0.75,0.03,1.88-0.52,2.78c-2.43,3.96-6.7,9.6-12.64,15.19"/>
		</g>
		<g id="kvg:07687-g3" kvg:element="日" kvg:position="bottom">
			<path id="kvg:07687-s2" kvg:type="㇑" d="M26.25,29.58c1.09,1.09,1.68,2.41,1.88,3.4c0.85,4.19,2.78,14.55,3.83,21.49c0.33,2.21,0.58,4.07,0.67,5.28"/>
			<path id="kvg:07687-s3" kvg:type="㇕a" d="M28.69,31.62c12.98-1.81,38.21-4.35,46.32-5.18c2.82-0.29,6.14,0.65,5.23,4.4c-0.95,3.9-2.42,12.5-4.2,20.43c-0.34,1.5-0.68,2.97-1.04,4.38"/>
			<path id="kvg:07687-s4" kvg:type="㇐a" d="M31.13,43.37c11.99-1.49,36.62-3.62,46.19-3.87"/>
			<path id="kvg:07687-s5" kvg:type="㇐a" d="M33.19,55.86C46.75,55,63.5,53,74.69,52.74"/>
		</g>
	</g>
	<g id="kvg:07687-g4" kvg:element="王" kvg:original="玉" kvg:partial="true" kvg:position="bottom" kvg:phon="王">
		<path id="kvg:07687-s6" kvg:type="㇐" d="M30.94,65.83c2.44,0.67,6.29,0.32,8.31,0.11c7-0.75,21.22-2.13,30.5-2.75c2.48-0.17,5.64-0.06,7.78,0.55"/>
		<path id="kvg:07687-s7" kvg:type="㇑a" d="M52.49,66.84c0.96,0.96,1.38,2.54,1.38,3.89c0,11.4-0.09,7.28-0.09,21.47"/>
		<path id="kvg:07687-s8" kvg:type="㇐" d="M32.2,79.48c2.68,0.52,5.52,0.17,7.3,0c8.56-0.8,19.28-1.59,29.01-2.41c2.57-0.22,6.04-0.44,8.54,0.28"/>
		<path id="kvg:07687-s9" kvg:type="㇐" d="M15.25,95.49c3.45,1.19,7.99,0.44,11.52,0.18C43.32,94.44,63.25,92.73,83,91.8c3.62-0.17,7.88,0.08,11.5,1.11"/>
	</g>
</g>
</g>
<g id="kvg:StrokeNumbers_07687" style="font-size:8;fill:#808080">
	<text transform="matrix(1 0 0 1 44.25 9.63)">1</text>
	<text transform="matrix(1 0 0 1 21.50 39.05)">2</text>
	<text transform="matrix(1 0 0 1 30.75 28.50)">3</text>
	<text transform="matrix(1 0 0 1 36.50 39.50)">4</text>
	<text transform="matrix(1 0 0 1 36.75 52.50)">5</text>
	<text transform="matrix(1 0 0 1 23.25 67.41)">6</text>
	<text transform="matrix(1 0 0 1 45.50 74.83)">7</text>
	<text transform="matrix(1 0 0 1 24.50 80.50)">8</text>
	<text transform="matrix(1 0 0 1 8.25 97.50)">9</text>
</g>
</svg>
