<?xml version="1.0" encoding="UTF-8"?>
<!--
Copyright (C) 2009/2010/2011 Ulrich Apel.
This work is distributed under the conditions of the Creative Commons 
Attribution-Share Alike 3.0 Licence. This means you are free:
* to Share - to copy, distribute and transmit the work
* to Remix - to adapt the work

Under the following conditions:
* Attribution. You must attribute the work by stating your use of KanjiVG in
  your own copyright header and linking to KanjiVG's website
  (http://kanjivg.tagaini.net)
* Share Alike. If you alter, transform, or build upon this work, you may
  distribute the resulting work only under the same or similar license to this
  one.

See http://creativecommons.org/licenses/by-sa/3.0/ for more details.
-->
<!DOCTYPE svg PUBLIC "-//W3C//DTD SVG 1.0//EN" "http://www.w3.org/TR/2001/REC-SVG-20010904/DTD/svg10.dtd" [
<!ATTLIST g
xmlns:kvg CDATA #FIXED "http://kanjivg.tagaini.net"
kvg:element CDATA #IMPLIED
kvg:variant CDATA #IMPLIED
kvg:partial CDATA #IMPLIED
kvg:original CDATA #IMPLIED
kvg:part CDATA #IMPLIED
kvg:number CDATA #IMPLIED
kvg:tradForm CDATA #IMPLIED
kvg:radicalForm CDATA #IMPLIED
kvg:position CDATA #IMPLIED
kvg:radical CDATA #IMPLIED
kvg:phon CDATA #IMPLIED >
<!ATTLIST path
xmlns:kvg CDATA #FIXED "http://kanjivg.tagaini.net"
kvg:type CDATA #IMPLIED >
]>
<svg xmlns="http://www.w3.org/2000/svg" width="109" height="109" viewBox="0 0 109 109">
<g id="kvg:StrokePaths_076b7" style="fill:none;stroke:#000000;stroke-width:3;stroke-linecap:round;stroke-linejoin:round;">
<g id="kvg:076b7" kvg:element="皷">
	<g id="kvg:076b7-g1" kvg:element="鼓" kvg:partial="true" kvg:position="left" kvg:radical="nelson">
		<g id="kvg:076b7-g2" kvg:element="吉" kvg:part="1">
			<g id="kvg:076b7-g3" kvg:element="士">
				<path id="kvg:076b7-s1" kvg:type="㇐" d="M13.12,27.66c1.04,0.32,2.95,0.71,4,0.69C23,28.25,36.5,26,45.24,25.55c1.74-0.09,2.78,0.06,3.65,0.2"/>
				<path id="kvg:076b7-s2" kvg:type="㇑" d="M27.68,11.76c1.47,0.52,2.65,2.49,2.65,3.69c0,4.05-0.27,10.05-0.27,22.14"/>
				<g id="kvg:076b7-g4" kvg:element="豆" kvg:part="1">
					<path id="kvg:076b7-s3" kvg:type="㇐" d="M14.93,38.43c0.76,0.19,3.07,0.61,3.83,0.6C25,39,33,38,44.26,36.49c1.26-0.17,2.02,0.02,2.66,0.11"/>
				</g>
			</g>
			<g id="kvg:076b7-g5" kvg:element="豆" kvg:part="2">
				<g id="kvg:076b7-g6" kvg:element="吉" kvg:part="2">
					<g id="kvg:076b7-g7" kvg:element="口">
						<path id="kvg:076b7-s4" kvg:type="㇑" d="M16.49,47.92c0.28,0.28,0.56,0.51,0.68,0.86c0.96,2.78,2.12,10.44,2.78,15.42"/>
						<path id="kvg:076b7-s5" kvg:type="㇕b" d="M18.22,49.4c6.8-1.16,18.64-2.22,22.15-2.61c1.28-0.14,2.05,1.45,1.87,2.29c-0.76,3.5-1.27,5.99-2.9,11.03"/>
						<path id="kvg:076b7-s6" kvg:type="㇐b" d="M20.22,62.38c4.12-0.44,16.52-1.38,21.75-1.83"/>
					</g>
				</g>
			</g>
		</g>
		<g id="kvg:076b7-g8" kvg:element="豆" kvg:part="3">
			<path id="kvg:076b7-s7" kvg:type="㇔" d="M16.27,69.36c2.66,2.67,6.88,11,7.54,15.16"/>
			<path id="kvg:076b7-s8" kvg:type="㇒" d="M40.04,66.89c0.01,0.37,0.03,0.95-0.03,1.47c-0.34,3.11-2.29,9.93-4.95,14.1"/>
			<path id="kvg:076b7-s9" kvg:type="㇐" d="M11.25,91.53c0.65,1.49,2.21,2.01,4.42,1.27c11.27-3.82,16.06-6.15,26.08-9.55"/>
		</g>
	</g>
	<g id="kvg:076b7-g9" kvg:element="皮" kvg:position="right" kvg:radical="tradit">
		<path id="kvg:076b7-s10" kvg:type="㇒" d="M55.15,28.37c0.59,1.09,1.46,3.07,1.45,5.35C56.48,59.38,54.5,81,43.37,94.63"/>
		<path id="kvg:076b7-s11" kvg:type="㇖b" d="M56.46,31.29c15.04-4.54,27.31-6.09,32.17-6.46c10.87-0.83,1.07,7.1-0.15,7.78"/>
		<path id="kvg:076b7-s12" kvg:type="㇑a" d="M69.46,11.75c1.42,0.5,2.27,2.25,2.55,3.25s-0.1,25-0.1,35.25"/>
		<path id="kvg:076b7-s13" kvg:type="㇇" d="M59.6,52.35c1.24,0.34,1.52,0.92,4,0.4c5.3-1.1,17.1-3.46,22.38-4.27c1.76-0.27,3.08,2,2.32,3.79C80.46,70.7,69.25,86.75,51.03,96.64"/>
		<path id="kvg:076b7-s14" kvg:type="㇏" d="M61.03,58.37c3.22,2.38,17.56,24.42,27.95,34.06c1.62,1.51,2.8,2.5,4.3,3"/>
	</g>
</g>
</g>
<g id="kvg:StrokeNumbers_076b7" style="font-size:8;fill:#808080">
	<text transform="matrix(1 0 0 1 6.50 28.50)">1</text>
	<text transform="matrix(1 0 0 1 19.50 11.50)">2</text>
	<text transform="matrix(1 0 0 1 7.50 39.50)">3</text>
	<text transform="matrix(1 0 0 1 10.50 54.50)">4</text>
	<text transform="matrix(1 0 0 1 20.50 46.50)">5</text>
	<text transform="matrix(1 0 0 1 23.50 60.50)">6</text>
	<text transform="matrix(1 0 0 1 9.50 73.68)">7</text>
	<text transform="matrix(1 0 0 1 32.50 70.50)">8</text>
	<text transform="matrix(1 0 0 1 3.50 92.50)">9</text>
	<text transform="matrix(1 0 0 1 45.50 34.45)">10</text>
	<text transform="matrix(1 0 0 1 58.75 26.50)">11</text>
	<text transform="matrix(1 0 0 1 57.50 11.50)">12</text>
	<text transform="matrix(1 0 0 1 59.50 49.50)">13</text>
	<text transform="matrix(1 0 0 1 64.50 62.50)">14</text>
</g>
</svg>
