<?xml version="1.0" encoding="UTF-8"?>
<!--
Copyright (C) 2009/2010/2011 Ulrich Apel.
This work is distributed under the conditions of the Creative Commons 
Attribution-Share Alike 3.0 Licence. This means you are free:
* to Share - to copy, distribute and transmit the work
* to Remix - to adapt the work

Under the following conditions:
* Attribution. You must attribute the work by stating your use of KanjiVG in
  your own copyright header and linking to KanjiVG's website
  (http://kanjivg.tagaini.net)
* Share Alike. If you alter, transform, or build upon this work, you may
  distribute the resulting work only under the same or similar license to this
  one.

See http://creativecommons.org/licenses/by-sa/3.0/ for more details.
-->
<!DOCTYPE svg PUBLIC "-//W3C//DTD SVG 1.0//EN" "http://www.w3.org/TR/2001/REC-SVG-20010904/DTD/svg10.dtd" [
<!ATTLIST g
xmlns:kvg CDATA #FIXED "http://kanjivg.tagaini.net"
kvg:element CDATA #IMPLIED
kvg:variant CDATA #IMPLIED
kvg:partial CDATA #IMPLIED
kvg:original CDATA #IMPLIED
kvg:part CDATA #IMPLIED
kvg:number CDATA #IMPLIED
kvg:tradForm CDATA #IMPLIED
kvg:radicalForm CDATA #IMPLIED
kvg:position CDATA #IMPLIED
kvg:radical CDATA #IMPLIED
kvg:phon CDATA #IMPLIED >
<!ATTLIST path
xmlns:kvg CDATA #FIXED "http://kanjivg.tagaini.net"
kvg:type CDATA #IMPLIED >
]>
<svg xmlns="http://www.w3.org/2000/svg" width="109" height="109" viewBox="0 0 109 109">
<g id="kvg:StrokePaths_076f4" style="fill:none;stroke:#000000;stroke-width:3;stroke-linecap:round;stroke-linejoin:round;">
<g id="kvg:076f4" kvg:element="直">
	<g id="kvg:076f4-g1" kvg:element="十" kvg:radical="nelson">
		<path id="kvg:076f4-s1" kvg:type="㇐" d="M25.15,27.9c1.92,0.35,5.43,0.36,7.35,0.19c16.72-1.53,29.48-2.6,46.27-3.74c3.19-0.22,5.11,0.04,6.71,0.2"/>
		<path id="kvg:076f4-s2" kvg:type="㇑a" d="M53.73,12.51c1.38,1.38,2.01,3.12,2.01,4.89c0,3.35,0.09,8.6,0.09,19.6"/>
	</g>
	<g id="kvg:076f4-g2" kvg:element="目" kvg:radical="tradit">
		<path id="kvg:076f4-s3" kvg:type="㇑" d="M36.56,37.49c1.19,1.26,1.66,3.14,1.66,4.57c0,1.2,0.39,24.33,0.19,37.94c-0.02,1.46-0.04,2.82-0.07,4.01"/>
		<path id="kvg:076f4-s4" kvg:type="㇕a" d="M39.52,39.91c8.14-0.78,28.45-3.08,30.99-3.25c2.46-0.17,3.99,1.59,4.19,4.16c0.11,1.44-0.12,22.29-0.19,36.93c-0.01,1.37-0.01,2.69-0.01,3.94"/>
		<path id="kvg:076f4-s5" kvg:type="㇐a" d="M39.61,52.51c8.01-0.63,27.51-2.38,33.61-2.61"/>
		<path id="kvg:076f4-s6" kvg:type="㇐a" d="M39.63,65.91c8.64-0.56,24.87-2.16,33.96-2.49"/>
		<path id="kvg:076f4-s7" kvg:type="㇐a" d="M39.75,80.42c6.02-0.5,29.3-2.32,33.63-2.32"/>
	</g>
	<path id="kvg:076f4-s8" kvg:type="㇗" d="M19.75,50.5c1,1.25,1.75,2.75,1.75,5.25s-1.12,29.88-1.75,35.75c-0.28,2.6,0.27,4.15,3.25,3.75c20.5-2.75,41.5-4,63.75-4c2.75,0,5.5,0.5,7.5,1.25"/>
</g>
</g>
<g id="kvg:StrokeNumbers_076f4" style="font-size:8;fill:#808080">
	<text transform="matrix(1 0 0 1 18.50 28.50)">1</text>
	<text transform="matrix(1 0 0 1 43.50 12.50)">2</text>
	<text transform="matrix(1 0 0 1 30.50 46.50)">3</text>
	<text transform="matrix(1 0 0 1 38.25 36.13)">4</text>
	<text transform="matrix(1 0 0 1 42.75 49.63)">5</text>
	<text transform="matrix(1 0 0 1 42.75 62.50)">6</text>
	<text transform="matrix(1 0 0 1 42.75 77.50)">7</text>
	<text transform="matrix(1 0 0 1 11.50 52.50)">8</text>
</g>
</svg>
