<?xml version="1.0" encoding="UTF-8"?>
<!--
Copyright (C) 2009/2010/2011 Ulrich Apel.
This work is distributed under the conditions of the Creative Commons 
Attribution-Share Alike 3.0 Licence. This means you are free:
* to Share - to copy, distribute and transmit the work
* to Remix - to adapt the work

Under the following conditions:
* Attribution. You must attribute the work by stating your use of KanjiVG in
  your own copyright header and linking to KanjiVG's website
  (http://kanjivg.tagaini.net)
* Share Alike. If you alter, transform, or build upon this work, you may
  distribute the resulting work only under the same or similar license to this
  one.

See http://creativecommons.org/licenses/by-sa/3.0/ for more details.
-->
<!DOCTYPE svg PUBLIC "-//W3C//DTD SVG 1.0//EN" "http://www.w3.org/TR/2001/REC-SVG-20010904/DTD/svg10.dtd" [
<!ATTLIST g
xmlns:kvg CDATA #FIXED "http://kanjivg.tagaini.net"
kvg:element CDATA #IMPLIED
kvg:variant CDATA #IMPLIED
kvg:partial CDATA #IMPLIED
kvg:original CDATA #IMPLIED
kvg:part CDATA #IMPLIED
kvg:number CDATA #IMPLIED
kvg:tradForm CDATA #IMPLIED
kvg:radicalForm CDATA #IMPLIED
kvg:position CDATA #IMPLIED
kvg:radical CDATA #IMPLIED
kvg:phon CDATA #IMPLIED >
<!ATTLIST path
xmlns:kvg CDATA #FIXED "http://kanjivg.tagaini.net"
kvg:type CDATA #IMPLIED >
]>
<svg xmlns="http://www.w3.org/2000/svg" width="109" height="109" viewBox="0 0 109 109">
<g id="kvg:StrokePaths_077e7" style="fill:none;stroke:#000000;stroke-width:3;stroke-linecap:round;stroke-linejoin:round;">
<g id="kvg:077e7" kvg:element="矧">
	<g id="kvg:077e7-g1" kvg:element="矢" kvg:variant="true" kvg:position="left" kvg:radical="general">
		<path id="kvg:077e7-s1" kvg:type="㇒" d="M23.59,16.75c0.03,0.66,0.07,1.7-0.07,2.65c-0.83,5.58-6.56,19.32-11.75,24.4"/>
		<g id="kvg:077e7-g2" kvg:element="天" kvg:variant="true">
			<path id="kvg:077e7-s2" kvg:type="㇐" d="M20.82,33.18c0.73,0.41,2.07,0.6,2.79,0.41c2.95-0.79,9.64-1.84,15.06-3.09c1.23-0.28,2.95-0.47,3.56-0.27"/>
			<g id="kvg:077e7-g3" kvg:element="大" kvg:variant="true">
				<path id="kvg:077e7-s3" kvg:type="㇐" d="M12.32,53.34c0.53,0.31,2.44,0.43,3.02,0.43c9.17-0.02,16.42-2.52,26.61-3.44c0.73-0.07,1.76-0.38,3.39,0.15"/>
				<path id="kvg:077e7-s4" kvg:type="㇒" d="M29.74,34.78c0,1.42,0.45,1.72,0.44,3.45C30.03,68.16,24,83,13.25,90.13"/>
				<path id="kvg:077e7-s5" kvg:type="㇔/㇏" d="M30.75,65c4.26,2.95,9.66,8.58,12.5,14.5"/>
			</g>
		</g>
	</g>
	<g id="kvg:077e7-g4" kvg:element="引" kvg:position="right">
		<g id="kvg:077e7-g5" kvg:element="弓" kvg:position="left">
			<path id="kvg:077e7-s6" kvg:type="㇕c" d="M50.05,19.36c1.2,0.39,2.87,0.56,3.84,0.46c5.35-0.57,14.78-2.41,16.68-3.14c1.9-0.73,3.79-0.24,3.22,1.7c-0.39,1.34-1.67,7.26-2.62,11.39c-0.43,1.89-0.8,3.4-0.98,3.93"/>
			<path id="kvg:077e7-s7" kvg:type="㇐" d="M56.5,36.75c1.75,0,11-2,12.25-2s2.5,0,3.5,0"/>
			<path id="kvg:077e7-s8" kvg:type="㇉" d="M54.85,35.65c0.55,0.97,0.83,1.86,0.55,3.16C54.5,43,53.5,49.5,51.81,54.2c-0.33,0.93-0.05,3.19,1.47,2.92c3.47-0.62,13.37-3.91,16.31-4.64c2.94-0.73,4.44,1.9,4.22,3.65c-1.1,9-5.31,24.62-10.23,32.74c-2.73,4.51-6.06,1.46-8.08-0.97"/>
		</g>
		<g id="kvg:077e7-g6" kvg:element="丨" kvg:position="right">
			<path id="kvg:077e7-s9" kvg:type="㇑" d="M88.86,13.75c1.07,0.47,1.94,2.59,1.94,3.56c0,3.69,0.05,52.72-0.12,71.44c-0.03,3.14-0.06,5.33-0.09,6.17"/>
		</g>
	</g>
</g>
</g>
<g id="kvg:StrokeNumbers_077e7" style="font-size:8;fill:#808080">
	<text transform="matrix(1 0 0 1 15.50 15.50)">1</text>
	<text transform="matrix(1 0 0 1 25.58 30.50)">2</text>
	<text transform="matrix(1 0 0 1 5.50 55.50)">3</text>
	<text transform="matrix(1 0 0 1 22.50 42.50)">4</text>
	<text transform="matrix(1 0 0 1 33.50 64.50)">5</text>
	<text transform="matrix(1 0 0 1 48.50 16.50)">6</text>
	<text transform="matrix(1 0 0 1 52.50 34.50)">7</text>
	<text transform="matrix(1 0 0 1 47.50 44.50)">8</text>
	<text transform="matrix(1 0 0 1 79.25 13.50)">9</text>
</g>
</svg>
