<?xml version="1.0" encoding="UTF-8"?>
<!--
Copyright (C) 2009/2010/2011 Ulrich Apel.
This work is distributed under the conditions of the Creative Commons 
Attribution-Share Alike 3.0 Licence. This means you are free:
* to Share - to copy, distribute and transmit the work
* to Remix - to adapt the work

Under the following conditions:
* Attribution. You must attribute the work by stating your use of KanjiVG in
  your own copyright header and linking to KanjiVG's website
  (http://kanjivg.tagaini.net)
* Share Alike. If you alter, transform, or build upon this work, you may
  distribute the resulting work only under the same or similar license to this
  one.

See http://creativecommons.org/licenses/by-sa/3.0/ for more details.
-->
<!DOCTYPE svg PUBLIC "-//W3C//DTD SVG 1.0//EN" "http://www.w3.org/TR/2001/REC-SVG-20010904/DTD/svg10.dtd" [
<!ATTLIST g
xmlns:kvg CDATA #FIXED "http://kanjivg.tagaini.net"
kvg:element CDATA #IMPLIED
kvg:variant CDATA #IMPLIED
kvg:partial CDATA #IMPLIED
kvg:original CDATA #IMPLIED
kvg:part CDATA #IMPLIED
kvg:number CDATA #IMPLIED
kvg:tradForm CDATA #IMPLIED
kvg:radicalForm CDATA #IMPLIED
kvg:position CDATA #IMPLIED
kvg:radical CDATA #IMPLIED
kvg:phon CDATA #IMPLIED >
<!ATTLIST path
xmlns:kvg CDATA #FIXED "http://kanjivg.tagaini.net"
kvg:type CDATA #IMPLIED >
]>
<svg xmlns="http://www.w3.org/2000/svg" width="109" height="109" viewBox="0 0 109 109">
<g id="kvg:StrokePaths_07845" style="fill:none;stroke:#000000;stroke-width:3;stroke-linecap:round;stroke-linejoin:round;">
<g id="kvg:07845" kvg:element="硅">
	<g id="kvg:07845-g1" kvg:element="石" kvg:position="left" kvg:radical="tradit">
		<path id="kvg:07845-s1" kvg:type="㇐" d="M13.38,27.01c0.65,0.18,1.85,0.23,2.49,0.18c8.14-0.62,13.85-1.94,24.73-3.02c1.08-0.11,1.73,0.08,2.28,0.17"/>
		<path id="kvg:07845-s2" kvg:type="㇒" d="M24.46,28.68c0.04,0.99,0.1,2.56-0.09,3.98c-1.13,8.4-7.63,26.81-16.52,38.1"/>
		<g id="kvg:07845-g2" kvg:element="口">
			<path id="kvg:07845-s3" kvg:type="㇑" d="M19.17,53.12c0.25,0.49,0.51,0.89,0.61,1.5c0.87,4.82,1.91,18.13,2.51,26.79"/>
			<path id="kvg:07845-s4" kvg:type="㇕b" d="M21.4,56.07c5.85-1.07,15.94-2.99,17.27-2.91S41.5,54,41.5,56s-1.2,11.66-2.33,21.5"/>
			<path id="kvg:07845-s5" kvg:type="㇐b" d="M23.26,79.89c5.6-0.92,10.17-1.25,17.52-2.41"/>
		</g>
	</g>
	<g id="kvg:07845-g3" kvg:element="圭" kvg:position="right">
		<g id="kvg:07845-g4" kvg:element="土" kvg:position="top">
			<path id="kvg:07845-s6" kvg:type="㇐" d="M52.88,27.23c0.91,0.44,1.9,0.59,3.51,0.44c4.36-0.42,27.36-2.17,32.12-2.53c0.99-0.08,2.45,0.21,3.2,0.43"/>
			<path id="kvg:07845-s7" kvg:type="㇑a" d="M67.29,11.04c0.24,0.29,3.09,1.5,3.09,3.32c0,11.78,0.28,14.63,0.28,30.2"/>
			<path id="kvg:07845-s8" kvg:type="㇐" d="M47.03,45.68c1.54,0.31,3.29,0.36,4.84,0.31c9.11-0.26,30.18-2.15,40.28-2.38c2.56-0.06,3.56,0.15,4.86,0.31"/>
		</g>
		<g id="kvg:07845-g5" kvg:element="土" kvg:position="bottom">
			<path id="kvg:07845-s9" kvg:type="㇐" d="M50.65,71.31c0.96,0.35,2.72,0.42,3.68,0.35c14.36-0.92,24.72-2.19,35.47-2.46c1.59-0.04,2.56,0.17,3.36,0.34"/>
			<path id="kvg:07845-s10" kvg:type="㇑a" d="M67.52,51.49c1.73,0.51,3.21,2.22,3.21,3.74s0.25,20.5,0.25,38.01"/>
			<path id="kvg:07845-s11" kvg:type="㇐" d="M42.8,95.15c1.49,0.67,3.2,0.82,4.7,0.67c18.51-1.88,30.44-2.42,47-3.31c2.49-0.13,3.46,0.33,4.72,0.65"/>
		</g>
	</g>
</g>
</g>
<g id="kvg:StrokeNumbers_07845" style="font-size:8;fill:#808080">
	<text transform="matrix(1 0 0 1 6.92 27.13)">1</text>
	<text transform="matrix(1 0 0 1 16.92 36.50)">2</text>
	<text transform="matrix(1 0 0 1 15.00 69.50)">3</text>
	<text transform="matrix(1 0 0 1 23.50 52.50)">4</text>
	<text transform="matrix(1 0 0 1 25.50 76.50)">5</text>
	<text transform="matrix(1 0 0 1 48.50 23.50)">6</text>
	<text transform="matrix(1 0 0 1 59.50 10.50)">7</text>
	<text transform="matrix(1 0 0 1 39.50 45.50)">8</text>
	<text transform="matrix(1 0 0 1 46.50 67.50)">9</text>
	<text transform="matrix(1 0 0 1 55.50 55.50)">10</text>
	<text transform="matrix(1 0 0 1 37.50 91.50)">11</text>
</g>
</svg>
