<?xml version="1.0" encoding="UTF-8"?>
<!--
Copyright (C) 2009/2010/2011 Ulrich Apel.
This work is distributed under the conditions of the Creative Commons 
Attribution-Share Alike 3.0 Licence. This means you are free:
* to Share - to copy, distribute and transmit the work
* to Remix - to adapt the work

Under the following conditions:
* Attribution. You must attribute the work by stating your use of KanjiVG in
  your own copyright header and linking to KanjiVG's website
  (http://kanjivg.tagaini.net)
* Share Alike. If you alter, transform, or build upon this work, you may
  distribute the resulting work only under the same or similar license to this
  one.

See http://creativecommons.org/licenses/by-sa/3.0/ for more details.
-->
<!DOCTYPE svg PUBLIC "-//W3C//DTD SVG 1.0//EN" "http://www.w3.org/TR/2001/REC-SVG-20010904/DTD/svg10.dtd" [
<!ATTLIST g
xmlns:kvg CDATA #FIXED "http://kanjivg.tagaini.net"
kvg:element CDATA #IMPLIED
kvg:variant CDATA #IMPLIED
kvg:partial CDATA #IMPLIED
kvg:original CDATA #IMPLIED
kvg:part CDATA #IMPLIED
kvg:number CDATA #IMPLIED
kvg:tradForm CDATA #IMPLIED
kvg:radicalForm CDATA #IMPLIED
kvg:position CDATA #IMPLIED
kvg:radical CDATA #IMPLIED
kvg:phon CDATA #IMPLIED >
<!ATTLIST path
xmlns:kvg CDATA #FIXED "http://kanjivg.tagaini.net"
kvg:type CDATA #IMPLIED >
]>
<svg xmlns="http://www.w3.org/2000/svg" width="109" height="109" viewBox="0 0 109 109">
<g id="kvg:StrokePaths_0789a-Kaisho" style="fill:none;stroke:#000000;stroke-width:3;stroke-linecap:round;stroke-linejoin:round;">
<g id="kvg:0789a-Kaisho" kvg:element="碚">
	<g id="kvg:0789a-Kaisho-g1" kvg:element="石" kvg:position="left" kvg:radical="general">
		<path id="kvg:0789a-Kaisho-s1" kvg:type="㇐" d="M11.71,24.63c0.71,0.16,2.52,0.7,3.22,0.66c8.9-0.54,14.64-2.19,26.53-3.13c1.19-0.1,1.89,0.07,2.49,0.15"/>
		<path id="kvg:0789a-Kaisho-s2" kvg:type="㇒" d="M26.45,26.77c0.05,1.07,0.12,2.76-0.11,4.29c-1.39,9.06-9.39,28.91-20.33,41.08"/>
		<g id="kvg:0789a-Kaisho-g2" kvg:element="口">
			<path id="kvg:0789a-Kaisho-s3" kvg:type="㇑" d="M19.5,55.69c0.28,0.52,0.56,0.96,0.68,1.62c0.96,5.21,2.12,19.08,2.78,28.44"/>
			<path id="kvg:0789a-Kaisho-s4" kvg:type="㇕b" d="M21.23,58.04C28,57,35.85,56.4,39,55.73c1.15-0.24,1.83,1.45,1.67,2.87c-0.67,5.92-2.44,12.58-3.45,20.77"/>
			<path id="kvg:0789a-Kaisho-s5" kvg:type="㇐b" d="M23.09,82.43c4.91-1.05,9.91-0.99,16.35-2.3"/>
		</g>
	</g>
	<g id="kvg:0789a-Kaisho-g3" kvg:position="right">
		<g id="kvg:0789a-Kaisho-g4" kvg:element="立" kvg:position="top">
			<g id="kvg:0789a-Kaisho-g5" kvg:element="亠" kvg:position="top">
				<path id="kvg:0789a-Kaisho-s6" kvg:type="㇑a" d="M66.03,11.75c2.47,2,4.91,5.92,5.69,9.75"/>
				<path id="kvg:0789a-Kaisho-s7" kvg:type="㇐" d="M49.5,27.7c1.16,0.33,2.53,0.38,3.68,0.33c6.57-0.28,27.07-2.53,36.99-2.77c1.94-0.05,3.1,0.16,4.07,0.32"/>
			</g>
			<g id="kvg:0789a-Kaisho-g6" kvg:position="bottom">
				<path id="kvg:0789a-Kaisho-s8" kvg:type="㇔" d="M56.83,31.83c3.56,5.99,5.18,12.13,5.5,16.08"/>
				<path id="kvg:0789a-Kaisho-s9" kvg:type="㇒" d="M83.76,28.83c0.74,1.17,0.76,2.5,0.68,3.05C83.89,35.66,79.37,45.62,78,48.5"/>
				<path id="kvg:0789a-Kaisho-s10" kvg:type="㇐" d="M43.92,52.52c1.49,0.2,3.24,0.27,4.73,0.2c16.25-0.86,26.56-2.63,45.39-3.04c2.49-0.06,3.98,0.1,5.22,0.19"/>
			</g>
		</g>
		<g id="kvg:0789a-Kaisho-g7" kvg:element="口" kvg:position="bottom">
			<path id="kvg:0789a-Kaisho-s11" kvg:type="㇑" d="M51.08,64.31c0.68,0.56,1.38,1.04,1.69,1.75c2.38,5.64,2.72,20.19,3.72,31.28"/>
			<path id="kvg:0789a-Kaisho-s12" kvg:type="㇕b" d="M53.38,66.71c11.37-0.96,26.8-2.7,32.17-3.38c1.95-0.25,3.14,1.48,2.86,2.95c-1.16,6.06-2.06,17.55-3.79,25.94"/>
			<path id="kvg:0789a-Kaisho-s13" kvg:type="㇐b" d="M57.87,94.18c6.07-0.55,21.76-1.5,30.09-2.34"/>
		</g>
	</g>
</g>
</g>
<g id="kvg:StrokeNumbers_0789a-Kaisho" style="font-size:8;fill:#808080">
	<text transform="matrix(1 0 0 1 5.92 24.50)">1</text>
	<text transform="matrix(1 0 0 1 18.08 35.50)">2</text>
	<text transform="matrix(1 0 0 1 14.25 70.50)">3</text>
	<text transform="matrix(1 0 0 1 23.50 54.57)">4</text>
	<text transform="matrix(1 0 0 1 25.50 78.50)">5</text>
	<text transform="matrix(1 0 0 1 61.75 9.42)">6</text>
	<text transform="matrix(1 0 0 1 48.58 24.35)">7</text>
	<text transform="matrix(1 0 0 1 50.50 38.50)">8</text>
	<text transform="matrix(1 0 0 1 76.50 35.50)">9</text>
	<text transform="matrix(1 0 0 1 40.50 49.23)">10</text>
	<text transform="matrix(1 0 0 1 42.50 71.50)">11</text>
	<text transform="matrix(1 0 0 1 55.42 62.74)">12</text>
	<text transform="matrix(1 0 0 1 59.50 90.50)">13</text>
</g>
</svg>
