<?xml version="1.0" encoding="UTF-8"?>
<!--
Copyright (C) 2009/2010/2011 Ulrich Apel.
This work is distributed under the conditions of the Creative Commons 
Attribution-Share Alike 3.0 Licence. This means you are free:
* to Share - to copy, distribute and transmit the work
* to Remix - to adapt the work

Under the following conditions:
* Attribution. You must attribute the work by stating your use of KanjiVG in
  your own copyright header and linking to KanjiVG's website
  (http://kanjivg.tagaini.net)
* Share Alike. If you alter, transform, or build upon this work, you may
  distribute the resulting work only under the same or similar license to this
  one.

See http://creativecommons.org/licenses/by-sa/3.0/ for more details.
-->
<!DOCTYPE svg PUBLIC "-//W3C//DTD SVG 1.0//EN" "http://www.w3.org/TR/2001/REC-SVG-20010904/DTD/svg10.dtd" [
<!ATTLIST g
xmlns:kvg CDATA #FIXED "http://kanjivg.tagaini.net"
kvg:element CDATA #IMPLIED
kvg:variant CDATA #IMPLIED
kvg:partial CDATA #IMPLIED
kvg:original CDATA #IMPLIED
kvg:part CDATA #IMPLIED
kvg:number CDATA #IMPLIED
kvg:tradForm CDATA #IMPLIED
kvg:radicalForm CDATA #IMPLIED
kvg:position CDATA #IMPLIED
kvg:radical CDATA #IMPLIED
kvg:phon CDATA #IMPLIED >
<!ATTLIST path
xmlns:kvg CDATA #FIXED "http://kanjivg.tagaini.net"
kvg:type CDATA #IMPLIED >
]>
<svg xmlns="http://www.w3.org/2000/svg" width="109" height="109" viewBox="0 0 109 109">
<g id="kvg:StrokePaths_078a7-Kaisho" style="fill:none;stroke:#000000;stroke-width:3;stroke-linecap:round;stroke-linejoin:round;">
<g id="kvg:078a7-Kaisho" kvg:element="碧">
	<g id="kvg:078a7-Kaisho-g1" kvg:position="top">
		<g id="kvg:078a7-Kaisho-g2" kvg:element="王" kvg:original="玉" kvg:partial="true" kvg:position="left">
			<path id="kvg:078a7-Kaisho-s1" kvg:type="㇐" d="M19,19.58c0.6,0.4,3.86,0.48,4.47,0.37c2.83-0.53,14.33-2.25,21.12-2.83c0.93-0.08,2.64-0.28,3.41,0.05"/>
			<path id="kvg:078a7-Kaisho-s2" kvg:type="㇑a" d="M31.82,21.27c0.87,0.88,1.48,2.78,1.48,3.48c0,5.95,0.52,20.12,0.35,24.07"/>
			<path id="kvg:078a7-Kaisho-s3" kvg:type="㇐" d="M19.75,33.37c0.49,0.29,2.91,0.83,3.41,0.76c2.86-0.38,15.9-2.57,19.85-2.98c0.61-0.06,1.33-0.12,2.24,0.14"/>
			<path id="kvg:078a7-Kaisho-s4" kvg:type="㇐" d="M18,52.37c0.57,0.17,2.81,1.47,3.68,1.14c5.52-2.1,16.91-6.65,25.32-10.27"/>
		</g>
		<g id="kvg:078a7-Kaisho-g3" kvg:position="right">
			<g id="kvg:078a7-Kaisho-g4" kvg:position="top">
				<path id="kvg:078a7-Kaisho-s5" kvg:type="㇔" d="M72.01,9.75c0.3,0.42,0.41,0.95,0.28,1.29c-0.98,2.54-4.04,7.3-7.34,10.19"/>
			</g>
			<g id="kvg:078a7-Kaisho-g5" kvg:element="日" kvg:position="bottom">
				<path id="kvg:078a7-Kaisho-s6" kvg:type="㇑" d="M56,21.8c0.48,0.6,0.97,0.89,0.97,1.69c0,0.79,2.82,19.09,3.01,23.01"/>
				<path id="kvg:078a7-Kaisho-s7" kvg:type="㇕a" d="M57.26,23.21c2.73-0.1,25.79-2.81,28.27-2.98c1.58-0.11,2.22,0.65,2.22,1.91c-0.01,2.14-1.74,15.61-3.43,23.25"/>
				<path id="kvg:078a7-Kaisho-s8" kvg:type="㇐a" d="M58.72,33.43c4.71-0.25,9.41-0.82,14.09-1.29c1.38-0.14,2.75-0.27,4.06-0.4"/>
				<path id="kvg:078a7-Kaisho-s9" kvg:type="㇐a" d="M60.27,44.47c6.85-0.32,16.84-1.08,24.14-1.23"/>
			</g>
		</g>
	</g>
	<g id="kvg:078a7-Kaisho-g6" kvg:element="石" kvg:position="bottom" kvg:radical="general">
		<path id="kvg:078a7-Kaisho-s10" kvg:type="㇐" d="M23.98,60.06c1.24,0.32,4.01,0.41,5.25,0.32c15.55-1.14,39.15-4.41,57.8-4.6c2.07-0.02,3.31,0.15,4.35,0.32"/>
		<path id="kvg:078a7-Kaisho-s11" kvg:type="㇒" d="M45.92,59.87c0.09,0.72,0.19,1.87-0.18,2.91C43.57,68.91,31.08,82.37,14,90.62"/>
		<g id="kvg:078a7-Kaisho-g7" kvg:element="口">
			<path id="kvg:078a7-Kaisho-s12" kvg:type="㇑" d="M39.74,74.74c0.59,0.46,1.34,2.31,1.45,2.92c0.8,4.39,2.26,12.78,3.39,21.09"/>
			<path id="kvg:078a7-Kaisho-s13" kvg:type="㇕b" d="M42.01,76.4c8.97-0.88,29.89-3.81,36.01-3.95c2.53-0.06,2.97,2.27,2.68,3.58c-0.95,4.22-2.65,9.71-3.95,17.2"/>
			<path id="kvg:078a7-Kaisho-s14" kvg:type="㇐b" d="M44.56,96.01c7.17-0.45,24.9-1.93,34.05-2.06"/>
		</g>
	</g>
</g>
</g>
<g id="kvg:StrokeNumbers_078a7-Kaisho" style="font-size:8;fill:#808080">
	<text transform="matrix(1 0 0 1 12.25 19.25)">1</text>
	<text transform="matrix(1 0 0 1 26.25 28.25)">2</text>
	<text transform="matrix(1 0 0 1 12.25 34.73)">3</text>
	<text transform="matrix(1 0 0 1 10.50 51.25)">4</text>
	<text transform="matrix(1 0 0 1 64.25 10.25)">5</text>
	<text transform="matrix(1 0 0 1 49.50 29.50)">6</text>
	<text transform="matrix(1 0 0 1 58.50 20.25)">7</text>
	<text transform="matrix(1 0 0 1 64.50 30.35)">8</text>
	<text transform="matrix(1 0 0 1 65.50 41.28)">9</text>
	<text transform="matrix(1 0 0 1 34.50 56.20)">10</text>
	<text transform="matrix(1 0 0 1 31.25 68.13)">11</text>
	<text transform="matrix(1 0 0 1 32.25 87.25)">12</text>
	<text transform="matrix(1 0 0 1 47.00 72.25)">13</text>
	<text transform="matrix(1 0 0 1 47.25 92.25)">14</text>
</g>
</svg>
