<?xml version="1.0" encoding="UTF-8"?>
<!--
Copyright (C) 2009/2010/2011 Ulrich Apel.
This work is distributed under the conditions of the Creative Commons 
Attribution-Share Alike 3.0 Licence. This means you are free:
* to Share - to copy, distribute and transmit the work
* to Remix - to adapt the work

Under the following conditions:
* Attribution. You must attribute the work by stating your use of KanjiVG in
  your own copyright header and linking to KanjiVG's website
  (http://kanjivg.tagaini.net)
* Share Alike. If you alter, transform, or build upon this work, you may
  distribute the resulting work only under the same or similar license to this
  one.

See http://creativecommons.org/licenses/by-sa/3.0/ for more details.
-->
<!DOCTYPE svg PUBLIC "-//W3C//DTD SVG 1.0//EN" "http://www.w3.org/TR/2001/REC-SVG-20010904/DTD/svg10.dtd" [
<!ATTLIST g
xmlns:kvg CDATA #FIXED "http://kanjivg.tagaini.net"
kvg:element CDATA #IMPLIED
kvg:variant CDATA #IMPLIED
kvg:partial CDATA #IMPLIED
kvg:original CDATA #IMPLIED
kvg:part CDATA #IMPLIED
kvg:number CDATA #IMPLIED
kvg:tradForm CDATA #IMPLIED
kvg:radicalForm CDATA #IMPLIED
kvg:position CDATA #IMPLIED
kvg:radical CDATA #IMPLIED
kvg:phon CDATA #IMPLIED >
<!ATTLIST path
xmlns:kvg CDATA #FIXED "http://kanjivg.tagaini.net"
kvg:type CDATA #IMPLIED >
]>
<svg xmlns="http://www.w3.org/2000/svg" width="109" height="109" viewBox="0 0 109 109">
<g id="kvg:StrokePaths_078c1" style="fill:none;stroke:#000000;stroke-width:3;stroke-linecap:round;stroke-linejoin:round;">
<g id="kvg:078c1" kvg:element="磁">
	<g id="kvg:078c1-g1" kvg:element="石" kvg:position="left" kvg:radical="general">
		<path id="kvg:078c1-s1" kvg:type="㇐" d="M12,28.85c1.95,0.57,3.91,0.33,5.88,0.09c4.96-0.6,14.64-1.53,19.62-2.07c1.85-0.2,3.42-0.18,5.25,0.14"/>
		<path id="kvg:078c1-s2" kvg:type="㇒" d="M23.28,30.9c0.47,0.98,0.58,2.06,0.42,3.34C22.8,41.8,17.38,57.88,10,69.81"/>
		<g id="kvg:078c1-g2" kvg:element="口">
			<path id="kvg:078c1-s3" kvg:type="㇑" d="M19.31,56.51c0.71,0.71,1.19,1.96,1.24,2.68c0.34,4.35,1.2,10.36,1.89,18.8c0.13,1.63,0.25,3.26,0.34,4.85"/>
			<path id="kvg:078c1-s4" kvg:type="㇕b" d="M21.48,58.4c5.42-1.08,9-2.02,13.78-2.85c2.5-0.43,3.74,0.95,3.32,3.9c-0.59,4.17-1.33,8.06-2.33,16.81"/>
			<path id="kvg:078c1-s5" kvg:type="㇐b" d="M23.75,79.5c2.86-0.41,6.56-1.14,10.75-1.79c1.2-0.19,2.39-0.35,3.5-0.46"/>
		</g>
	</g>
	<g id="kvg:078c1-g3" kvg:element="兹" kvg:variant="true" kvg:original="茲" kvg:position="right" kvg:phon="兹/茲V">
		<g id="kvg:078c1-g4" kvg:element="艹" kvg:variant="true" kvg:original="艸" kvg:position="top">
			<g id="kvg:078c1-g5" kvg:element="玄" kvg:part="1" kvg:number="1" kvg:partial="true">
				<g id="kvg:078c1-g6" kvg:element="亠" kvg:partial="true">
					<path id="kvg:078c1-s6" kvg:type="㇔" d="M54.25,16.88c2.48,2.26,6.4,9.28,7.02,12.79"/>
				</g>
			</g>
			<path id="kvg:078c1-s7" kvg:type="㇒" d="M83.78,14.99c0.05,1.13-0.04,1.75-0.46,2.83c-1.55,4.06-3.31,8.46-7.23,14.29"/>
			<path id="kvg:078c1-s8" kvg:type="㇐" d="M45.25,37.14c1.86,0.76,4.68,0.51,6.62,0.31c8.71-0.9,29.33-3.06,37.78-3.33c1.99-0.06,4.14-0.09,6.09,0.38"/>
		</g>
		<g id="kvg:078c1-g7" kvg:position="bottom">
			<g id="kvg:078c1-g8" kvg:element="玄" kvg:part="2" kvg:number="1" kvg:partial="true" kvg:position="left">
				<g id="kvg:078c1-g9" kvg:element="幺">
					<path id="kvg:078c1-s9" kvg:type="㇜" d="M54.04,45.87c0.24,1,0.06,2.26-0.37,3.34c-2,5-3.04,8.36-6.28,13.88c-0.76,1.29-0.63,2.16,0.5,2.51c3.94,1.2,6.78,2.93,8.98,4.77"/>
					<path id="kvg:078c1-s10" kvg:type="㇜" d="M64.04,56.91c0.34,1.26,0.09,3.06-0.32,3.79c-4.46,8.08-10.1,16.2-18.01,27.2c-1.49,2.07-0.68,3.69,1.69,2.78c7.6-2.93,8.35-3.62,15.41-6.08"/>
					<path id="kvg:078c1-s11" kvg:type="㇔" d="M59.15,78.49c2.67,2.86,5.96,9.36,6.63,13.81"/>
				</g>
			</g>
			<g id="kvg:078c1-g10" kvg:element="玄" kvg:part="1" kvg:number="2" kvg:partial="true" kvg:position="right">
				<g id="kvg:078c1-g11" kvg:element="幺">
					<path id="kvg:078c1-s12" kvg:type="㇜" d="M83.11,43.3c0.27,1.07,0.08,2.36-0.38,3.53c-2.18,5.5-4.96,11.18-8.58,16.64c-0.77,1.16-1.02,2.41,0.5,2.93c2.88,0.99,6.46,2.28,8.9,4.24"/>
					<path id="kvg:078c1-s13" kvg:type="㇜" d="M91.71,55.4c0.3,1.19,0.24,2.38-0.53,3.78C86,68.62,81,77.75,74.25,86.1c-1.03,1.28-0.75,3.15,1.31,2.46c6.67-2.23,9.94-3.56,16.12-5.65"/>
					<path id="kvg:078c1-s14" kvg:type="㇔" d="M89.25,76.5c2.47,2.62,6.38,10.79,6.99,14.87"/>
				</g>
			</g>
		</g>
	</g>
</g>
</g>
<g id="kvg:StrokeNumbers_078c1" style="font-size:8;fill:#808080">
	<text transform="matrix(1 0 0 1 5.50 29.50)">1</text>
	<text transform="matrix(1 0 0 1 15.75 39.50)">2</text>
	<text transform="matrix(1 0 0 1 14.50 73.50)">3</text>
	<text transform="matrix(1 0 0 1 24.75 54.50)">4</text>
	<text transform="matrix(1 0 0 1 26.50 75.50)">5</text>
	<text transform="matrix(1 0 0 1 47.25 17.50)">6</text>
	<text transform="matrix(1 0 0 1 74.25 15.50)">7</text>
	<text transform="matrix(1 0 0 1 46.50 34.63)">8</text>
	<text transform="matrix(1 0 0 1 46.50 48.50)">9</text>
	<text transform="matrix(1 0 0 1 54.50 58.50)">10</text>
	<text transform="matrix(1 0 0 1 60.50 78.50)">11</text>
	<text transform="matrix(1 0 0 1 72.50 46.50)">12</text>
	<text transform="matrix(1 0 0 1 82.50 57.50)">13</text>
	<text transform="matrix(1 0 0 1 90.50 76.50)">14</text>
</g>
</svg>
