<?xml version="1.0" encoding="UTF-8"?>
<!--
Copyright (C) 2009/2010/2011 Ulrich Apel.
This work is distributed under the conditions of the Creative Commons 
Attribution-Share Alike 3.0 Licence. This means you are free:
* to Share - to copy, distribute and transmit the work
* to Remix - to adapt the work

Under the following conditions:
* Attribution. You must attribute the work by stating your use of KanjiVG in
  your own copyright header and linking to KanjiVG's website
  (http://kanjivg.tagaini.net)
* Share Alike. If you alter, transform, or build upon this work, you may
  distribute the resulting work only under the same or similar license to this
  one.

See http://creativecommons.org/licenses/by-sa/3.0/ for more details.
-->
<!DOCTYPE svg PUBLIC "-//W3C//DTD SVG 1.0//EN" "http://www.w3.org/TR/2001/REC-SVG-20010904/DTD/svg10.dtd" [
<!ATTLIST g
xmlns:kvg CDATA #FIXED "http://kanjivg.tagaini.net"
kvg:element CDATA #IMPLIED
kvg:variant CDATA #IMPLIED
kvg:partial CDATA #IMPLIED
kvg:original CDATA #IMPLIED
kvg:part CDATA #IMPLIED
kvg:number CDATA #IMPLIED
kvg:tradForm CDATA #IMPLIED
kvg:radicalForm CDATA #IMPLIED
kvg:position CDATA #IMPLIED
kvg:radical CDATA #IMPLIED
kvg:phon CDATA #IMPLIED >
<!ATTLIST path
xmlns:kvg CDATA #FIXED "http://kanjivg.tagaini.net"
kvg:type CDATA #IMPLIED >
]>
<svg xmlns="http://www.w3.org/2000/svg" width="109" height="109" viewBox="0 0 109 109">
<g id="kvg:StrokePaths_078f4-Dg3" style="fill:none;stroke:#000000;stroke-width:3;stroke-linecap:round;stroke-linejoin:round;">
<g id="kvg:078f4-Dg3" kvg:element="磴">
	<g id="kvg:078f4-Dg3-g1" kvg:element="石" kvg:position="left" kvg:radical="general">
		<path id="kvg:078f4-Dg3-s1" kvg:type="㇐" d="M13.25,21.15c0.59,0.12,1.68,0.15,2.27,0.12c7.42-0.43,12.62-1.33,22.53-2.07c0.98-0.07,1.58,0.06,2.07,0.12"/>
		<path id="kvg:078f4-Dg3-s2" kvg:type="㇒" d="M24.99,21.5c0.05,0.88,0.1,2.28-0.1,3.55C23.68,32.53,16.75,48.95,7.25,59"/>
		<g id="kvg:078f4-Dg3-g2" kvg:element="口">
			<path id="kvg:078f4-Dg3-s3" kvg:type="㇑" d="M16.5,46.75c0.24,0.55,0.49,1,0.59,1.69c0.84,5.41,1.84,20.34,2.41,30.06"/>
			<path id="kvg:078f4-Dg3-s4" kvg:type="㇕b" d="M17.75,50.75c7.04-2.19,14.14-2.01,17.53-2.75c1.24-0.27,1.98,1.61,1.8,3.2c-0.73,6.59-1.24,15.2-2.33,24.31"/>
			<path id="kvg:078f4-Dg3-s5" kvg:type="㇐b" d="M20.09,77.98c5.08-0.79,9.23-1.49,15.91-2.48"/>
		</g>
	</g>
	<g id="kvg:078f4-Dg3-g3" kvg:element="登" kvg:position="right">
		<g id="kvg:078f4-Dg3-g4" kvg:element="癶" kvg:position="top">
			<g id="kvg:078f4-Dg3-g5" kvg:position="left">
				<path id="kvg:078f4-Dg3-s6" kvg:type="㇇" d="M51.41,16.74c1.04,0.65,1.44,0.53,3.12,0.22c4.37-0.81,4.83-1.45,9.5-2.49c2.77-0.62,3.32,0.56,2.43,4.09C64.38,26.85,55.14,48.54,42.75,56"/>
				<path id="kvg:078f4-Dg3-s7" kvg:type="㇔" d="M45.02,27.32c3.7,1.84,9.55,7.57,10.48,10.43"/>
			</g>
			<g id="kvg:078f4-Dg3-g6" kvg:position="right">
				<path id="kvg:078f4-Dg3-s8" kvg:type="㇏" d="M67.75,16.5c5.04,4.12,22.29,27.92,26.71,32.71c1.5,1.62,2.79,2.32,4.29,2.79"/>
				<path id="kvg:078f4-Dg3-s9" kvg:type="㇒" d="M86.49,13.5c0.02,0.26,0.05,0.66-0.05,1.03c-0.65,2.18-4.4,6.33-9.51,9.26"/>
				<path id="kvg:078f4-Dg3-s10" kvg:type="㇒" d="M95.23,24.5c0.04,0.24,0.06,0.62-0.06,0.97c-0.72,2.04-4.81,6.04-10.42,8.78"/>
			</g>
		</g>
		<g id="kvg:078f4-Dg3-g7" kvg:element="豆" kvg:position="bottom">
			<g id="kvg:078f4-Dg3-g8" kvg:position="top">
				<path id="kvg:078f4-Dg3-s11" kvg:type="㇐" d="M58.26,46.94c0.64,0.27,1.81,0.35,2.44,0.27c6.82-0.86,11.99-1.71,17.31-2c1.06-0.06,1.7,0.13,2.23,0.27"/>
			</g>
			<g id="kvg:078f4-Dg3-g9" kvg:position="bottom">
				<g id="kvg:078f4-Dg3-g10" kvg:element="口">
					<path id="kvg:078f4-Dg3-s12" kvg:type="㇑" d="M53.48,55.73c0.55,0.36,1.25,0.64,1.35,1.12c0.74,3.48,2.78,11.67,3.91,18.09"/>
					<path id="kvg:078f4-Dg3-s13" kvg:type="㇕b" d="M55.58,58.38c6.41-0.66,22.1-3.62,26.48-3.72c1.81-0.04,3.03,1.87,2.62,3.79c-0.73,3.45-1.6,7.24-2.83,11.74"/>
					<path id="kvg:078f4-Dg3-s14" kvg:type="㇐b" d="M59.49,73.07c6.22-0.69,18.74-2.59,23.71-2.87"/>
				</g>
				<path id="kvg:078f4-Dg3-s15" kvg:type="㇔" d="M57.08,80.07c2.29,2.44,5.85,8.65,6.42,12.43"/>
				<path id="kvg:078f4-Dg3-s16" kvg:type="㇒" d="M83.21,78.67c0.02,0.32,0.04,0.83-0.04,1.29c-0.48,2.71-3.19,8.66-6.92,12.29"/>
				<path id="kvg:078f4-Dg3-s17" kvg:type="㇐" d="M42.03,95.44c1.05,0.41,2.97,0.48,4.02,0.41c10.9-0.69,37.34-2.64,48.94-2.93c1.74-0.04,2.79,0.2,3.67,0.41"/>
			</g>
		</g>
	</g>
</g>
</g>
<g id="kvg:StrokeNumbers_078f4-Dg3" style="font-size:8;fill:#808080">
	<text transform="matrix(1 0 0 1 5.50 20.50)">1</text>
	<text transform="matrix(1 0 0 1 15.50 30.50)">2</text>
	<text transform="matrix(1 0 0 1 11.75 62.50)">3</text>
	<text transform="matrix(1 0 0 1 21.50 46.40)">4</text>
	<text transform="matrix(1 0 0 1 23.50 73.50)">5</text>
	<text transform="matrix(1 0 0 1 49.25 13.75)">6</text>
	<text transform="matrix(1 0 0 1 38.50 29.43)">7</text>
	<text transform="matrix(1 0 0 1 71.70 16.78)">8</text>
	<text transform="matrix(1 0 0 1 81.50 9.50)">9</text>
	<text transform="matrix(1 0 0 1 92.50 20.50)">10</text>
	<text transform="matrix(1 0 0 1 58.90 44.38)">11</text>
	<text transform="matrix(1 0 0 1 45.25 63.50)">12</text>
	<text transform="matrix(1 0 0 1 55.80 54.93)">13</text>
	<text transform="matrix(1 0 0 1 58.95 69.96)">14</text>
	<text transform="matrix(1 0 0 1 46.35 81.98)">15</text>
	<text transform="matrix(1 0 0 1 70.95 80.50)">16</text>
	<text transform="matrix(1 0 0 1 37.85 91.88)">17</text>
</g>
</svg>
