<?xml version="1.0" encoding="UTF-8"?>
<!--
Copyright (C) 2009/2010/2011 Ulrich Apel.
This work is distributed under the conditions of the Creative Commons 
Attribution-Share Alike 3.0 Licence. This means you are free:
* to Share - to copy, distribute and transmit the work
* to Remix - to adapt the work

Under the following conditions:
* Attribution. You must attribute the work by stating your use of KanjiVG in
  your own copyright header and linking to KanjiVG's website
  (http://kanjivg.tagaini.net)
* Share Alike. If you alter, transform, or build upon this work, you may
  distribute the resulting work only under the same or similar license to this
  one.

See http://creativecommons.org/licenses/by-sa/3.0/ for more details.
-->
<!DOCTYPE svg PUBLIC "-//W3C//DTD SVG 1.0//EN" "http://www.w3.org/TR/2001/REC-SVG-20010904/DTD/svg10.dtd" [
<!ATTLIST g
xmlns:kvg CDATA #FIXED "http://kanjivg.tagaini.net"
kvg:element CDATA #IMPLIED
kvg:variant CDATA #IMPLIED
kvg:partial CDATA #IMPLIED
kvg:original CDATA #IMPLIED
kvg:part CDATA #IMPLIED
kvg:number CDATA #IMPLIED
kvg:tradForm CDATA #IMPLIED
kvg:radicalForm CDATA #IMPLIED
kvg:position CDATA #IMPLIED
kvg:radical CDATA #IMPLIED
kvg:phon CDATA #IMPLIED >
<!ATTLIST path
xmlns:kvg CDATA #FIXED "http://kanjivg.tagaini.net"
kvg:type CDATA #IMPLIED >
]>
<svg xmlns="http://www.w3.org/2000/svg" width="109" height="109" viewBox="0 0 109 109">
<g id="kvg:StrokePaths_07926-Kaisho" style="fill:none;stroke:#000000;stroke-width:3;stroke-linecap:round;stroke-linejoin:round;">
<g id="kvg:07926-Kaisho" kvg:element="礦">
	<g id="kvg:07926-Kaisho-g1" kvg:element="石" kvg:position="left" kvg:radical="tradit">
		<path id="kvg:07926-Kaisho-s1" kvg:type="㇐" d="M13.71,21.78c0.6,0.07,1.7,0.1,2.28,0.07c7.48-0.26,12.72-1.31,22.7-1.76c1-0.05,1.59,0.03,2.09,0.07"/>
		<path id="kvg:07926-Kaisho-s2" kvg:type="㇒" d="M24.96,24.52c0.04,0.85,0.1,2.19-0.09,3.41c-1.13,7.18-7.53,22.94-16.28,32.58"/>
		<g id="kvg:07926-Kaisho-g2" kvg:element="口">
			<path id="kvg:07926-Kaisho-s3" kvg:type="㇑" d="M18,50.93c0.24,0.5,0.48,0.91,0.58,1.54c0.82,4.95,1.81,18.61,2.38,27.5"/>
			<path id="kvg:07926-Kaisho-s4" kvg:type="㇕b" d="M18.73,52.42c6.02-1.42,13.76-2.06,16.81-2.82c1.12-0.28,1.78,1.64,1.62,3.26C36.5,59.58,35.29,66.71,34.31,76"/>
			<path id="kvg:07926-Kaisho-s5" kvg:type="㇐b" d="M22.09,78.25c4.38-0.76,7.94-1.43,13.69-2.38"/>
		</g>
	</g>
	<g id="kvg:07926-Kaisho-g3" kvg:element="廣" kvg:position="right">
		<g id="kvg:07926-Kaisho-g4" kvg:element="广" kvg:position="tare">
			<path id="kvg:07926-Kaisho-s6" kvg:type="㇑a" d="M68.48,11.44c1.52,0.74,4.68,5.53,4.99,7.03"/>
			<g id="kvg:07926-Kaisho-g5" kvg:element="厂">
				<path id="kvg:07926-Kaisho-s7" kvg:type="㇐" d="M47.66,23.51c1.2,0.27,3.38,0.28,4.57,0.22c12.4-0.65,28.94-1.43,40.96-1.97c1.98-0.09,3.17,0.09,4.17,0.22"/>
				<path id="kvg:07926-Kaisho-s8" kvg:type="㇒" d="M50.73,23.75c0.35,1.51,0.66,4.25,0.57,6.62c-0.59,15.89-4.55,49.37-20.83,62.84"/>
			</g>
		</g>
		<g id="kvg:07926-Kaisho-g6" kvg:element="黃" kvg:variant="true" kvg:original="黄">
			<path id="kvg:07926-Kaisho-s9" kvg:type="㇐" d="M56.33,35.49c0.82,0.25,2.33,0.29,3.15,0.25c10.05-0.54,21.72-2.68,30.83-3.21c1.37-0.08,2.19,0.12,2.88,0.24"/>
			<path id="kvg:07926-Kaisho-s10" kvg:type="㇑" d="M64.07,28.73c0.47,0.22,1.46,1.64,1.48,2.09c0.14,3.01,0.95,6.93,1.99,14.34"/>
			<path id="kvg:07926-Kaisho-s11" kvg:type="㇑" d="M79.84,26.22c0.94,0.21,2.12,1.89,2.01,2.45c-0.71,3.38-1.25,7.1-2.38,13.38"/>
			<path id="kvg:07926-Kaisho-s12" kvg:type="㇐" d="M67.65,44.05c2.14,0,11.48-1.39,13.88-1.39"/>
			<path id="kvg:07926-Kaisho-s13" kvg:type="㇐" d="M52.95,51.61c0.98,0.44,2.79,0.53,3.76,0.44c9.09-0.88,25.21-3.03,36.27-3.2c1.64-0.03,2.62,0.21,3.44,0.43"/>
			<path id="kvg:07926-Kaisho-s14" kvg:type="㇑" d="M53.88,60.21c0.85,0.37,2,1.94,2.08,2.43c0.54,3.74,3.32,13.05,4.29,20.28"/>
			<path id="kvg:07926-Kaisho-s15" kvg:type="㇕" d="M56.02,62.26C66.5,61,83.97,59.79,89.79,59.67c2.41-0.05,3.29,1.53,3.16,2.6c-0.47,3.94-1.86,11.65-4.4,20.1"/>
			<path id="kvg:07926-Kaisho-s16" kvg:type="㇑" d="M72.08,51.64c1.09,0.34,2.02,2.1,2.02,2.52c0.02,7.09,0.23,23.89,0.23,25.79"/>
			<path id="kvg:07926-Kaisho-s17" kvg:type="㇐" d="M58.35,71.99C66.75,71,74,70.5,80.15,70.34c0.88-0.02,1.73-0.17,2.54-0.25"/>
			<path id="kvg:07926-Kaisho-s18" kvg:type="㇐" d="M61.03,81.99c7.85-1.42,18.07-2.17,27.31-2.68"/>
			<path id="kvg:07926-Kaisho-s19" kvg:type="㇒" d="M63.72,85.76c0.05,0.3,0.12,0.78-0.12,1.21c-1.39,2.55-9.31,7.26-20.18,10.68"/>
			<path id="kvg:07926-Kaisho-s20" kvg:type="㇔" d="M81.21,84.82c5.13,2.26,13.26,9.31,14.55,12.84"/>
		</g>
	</g>
</g>
</g>
<g id="kvg:StrokeNumbers_07926-Kaisho" style="font-size:8;fill:#808080">
	<text transform="matrix(1 0 0 1 6.92 22.70)">1</text>
	<text transform="matrix(1 0 0 1 16.50 31.50)">2</text>
	<text transform="matrix(1 0 0 1 13.25 64.50)">3</text>
	<text transform="matrix(1 0 0 1 22.50 48.50)">4</text>
	<text transform="matrix(1 0 0 1 23.75 74.50)">5</text>
	<text transform="matrix(1 0 0 1 66.75 8.49)">6</text>
	<text transform="matrix(1 0 0 1 47.25 20.75)">7</text>
	<text transform="matrix(1 0 0 1 44.08 32.34)">8</text>
	<text transform="matrix(1 0 0 1 54.67 33.34)">9</text>
	<text transform="matrix(1 0 0 1 66.58 30.52)">10</text>
	<text transform="matrix(1 0 0 1 83.50 29.53)">11</text>
	<text transform="matrix(1 0 0 1 68.33 41.79)">12</text>
	<text transform="matrix(1 0 0 1 53.25 48.50)">13</text>
	<text transform="matrix(1 0 0 1 47.50 71.50)">14</text>
	<text transform="matrix(1 0 0 1 57.50 59.73)">15</text>
	<text transform="matrix(1 0 0 1 77.50 57.15)">16</text>
	<text transform="matrix(1 0 0 1 61.00 69.50)">17</text>
	<text transform="matrix(1 0 0 1 62.00 78.25)">18</text>
	<text transform="matrix(1 0 0 1 50.50 89.43)">19</text>
	<text transform="matrix(1 0 0 1 75.25 93.60)">20</text>
</g>
</svg>
