<?xml version="1.0" encoding="UTF-8"?>
<!--
Copyright (C) 2009/2010/2011 Ulrich Apel.
This work is distributed under the conditions of the Creative Commons 
Attribution-Share Alike 3.0 Licence. This means you are free:
* to Share - to copy, distribute and transmit the work
* to Remix - to adapt the work

Under the following conditions:
* Attribution. You must attribute the work by stating your use of KanjiVG in
  your own copyright header and linking to KanjiVG's website
  (http://kanjivg.tagaini.net)
* Share Alike. If you alter, transform, or build upon this work, you may
  distribute the resulting work only under the same or similar license to this
  one.

See http://creativecommons.org/licenses/by-sa/3.0/ for more details.
-->
<!DOCTYPE svg PUBLIC "-//W3C//DTD SVG 1.0//EN" "http://www.w3.org/TR/2001/REC-SVG-20010904/DTD/svg10.dtd" [
<!ATTLIST g
xmlns:kvg CDATA #FIXED "http://kanjivg.tagaini.net"
kvg:element CDATA #IMPLIED
kvg:variant CDATA #IMPLIED
kvg:partial CDATA #IMPLIED
kvg:original CDATA #IMPLIED
kvg:part CDATA #IMPLIED
kvg:number CDATA #IMPLIED
kvg:tradForm CDATA #IMPLIED
kvg:radicalForm CDATA #IMPLIED
kvg:position CDATA #IMPLIED
kvg:radical CDATA #IMPLIED
kvg:phon CDATA #IMPLIED >
<!ATTLIST path
xmlns:kvg CDATA #FIXED "http://kanjivg.tagaini.net"
kvg:type CDATA #IMPLIED >
]>
<svg xmlns="http://www.w3.org/2000/svg" width="109" height="109" viewBox="0 0 109 109">
<g id="kvg:StrokePaths_0793b" style="fill:none;stroke:#000000;stroke-width:3;stroke-linecap:round;stroke-linejoin:round;">
<g id="kvg:0793b" kvg:element="礻" kvg:variant="true" kvg:original="示" kvg:radical="tradit">
	<path id="kvg:0793b-s1" kvg:type="㇔" d="M45,7.5c5.8,2.21,12.03,5.51,17,9.38"/>
	<path id="kvg:0793b-s2" kvg:type="㇇" d="M29,33.22c3.12,1.53,5.62,1.58,8.81,0.98c7.72-1.47,24.61-5.65,27.91-6.52c3.86-1.01,5.65,1.54,3.41,4.61C59.75,45.12,42.5,63,24.91,74.62"/>
	<path id="kvg:0793b-s3" kvg:type="㇑" d="M53.42,53.37c0.92,0.92,1.02,2.27,1.02,4.14c0,7.13-0.04,24.19-0.06,34.37c-0.01,3.38-0.01,6-0.01,7.25"/>
	<path id="kvg:0793b-s4" kvg:type="㇔" d="M57.5,53.75C73,61.62,80.62,68,84.88,75.62"/>
</g>
</g>
<g id="kvg:StrokeNumbers_0793b" style="font-size:8;fill:#808080">
	<text transform="matrix(1 0 0 1 37.38 8.25)">1</text>
	<text transform="matrix(1 0 0 1 20.00 31.43)">2</text>
	<text transform="matrix(1 0 0 1 47.38 67.73)">3</text>
	<text transform="matrix(1 0 0 1 62.25 52.25)">4</text>
</g>
</svg>
