<?xml version="1.0" encoding="UTF-8"?>
<!--
Copyright (C) 2009/2010/2011 Ulrich Apel.
This work is distributed under the conditions of the Creative Commons 
Attribution-Share Alike 3.0 Licence. This means you are free:
* to Share - to copy, distribute and transmit the work
* to Remix - to adapt the work

Under the following conditions:
* Attribution. You must attribute the work by stating your use of KanjiVG in
  your own copyright header and linking to KanjiVG's website
  (http://kanjivg.tagaini.net)
* Share Alike. If you alter, transform, or build upon this work, you may
  distribute the resulting work only under the same or similar license to this
  one.

See http://creativecommons.org/licenses/by-sa/3.0/ for more details.
-->
<!DOCTYPE svg PUBLIC "-//W3C//DTD SVG 1.0//EN" "http://www.w3.org/TR/2001/REC-SVG-20010904/DTD/svg10.dtd" [
<!ATTLIST g
xmlns:kvg CDATA #FIXED "http://kanjivg.tagaini.net"
kvg:element CDATA #IMPLIED
kvg:variant CDATA #IMPLIED
kvg:partial CDATA #IMPLIED
kvg:original CDATA #IMPLIED
kvg:part CDATA #IMPLIED
kvg:number CDATA #IMPLIED
kvg:tradForm CDATA #IMPLIED
kvg:radicalForm CDATA #IMPLIED
kvg:position CDATA #IMPLIED
kvg:radical CDATA #IMPLIED
kvg:phon CDATA #IMPLIED >
<!ATTLIST path
xmlns:kvg CDATA #FIXED "http://kanjivg.tagaini.net"
kvg:type CDATA #IMPLIED >
]>
<svg xmlns="http://www.w3.org/2000/svg" width="109" height="109" viewBox="0 0 109 109">
<g id="kvg:StrokePaths_07947-Jinmei" style="fill:none;stroke:#000000;stroke-width:3;stroke-linecap:round;stroke-linejoin:round;">
<g id="kvg:07947-Jinmei" kvg:element="祇">
	<g id="kvg:07947-Jinmei-g1" kvg:element="示" kvg:variant="true" kvg:position="left" kvg:radical="general">
		<g id="kvg:07947-Jinmei-g2" kvg:position="top">
			<path id="kvg:07947-Jinmei-s1" kvg:type="㇐" d="M18.34,17.55c0.75,0.36,2.11,0.4,2.86,0.36c4.67-0.25,12.18-1.3,16.92-1.64c1.24-0.09,1.99,0.17,2.61,0.35"/>
			<path id="kvg:07947-Jinmei-s2" kvg:type="㇐" d="M13.15,35.65c1.14,0.19,3.19,0.1,4.32,0c7.06-0.58,17.79-2,25.92-2.76c1.86-0.17,3-0.05,3.94,0.02"/>
		</g>
		<g id="kvg:07947-Jinmei-g3" kvg:position="bottom">
			<path id="kvg:07947-Jinmei-s3" kvg:type="㇑" d="M30.1,36.43c0.51,0.44,0.81,1.97,0.91,2.85c0.1,0.88,0,51.24-0.1,56.72"/>
			<path id="kvg:07947-Jinmei-s4" kvg:type="㇒" d="M20.58,47.75c0.47,1.55,0.46,2.35,0.46,3.66c0,9.6-0.92,22.76-7.98,35.05"/>
			<path id="kvg:07947-Jinmei-s5" kvg:type="㇑/㇔" d="M39.62,44.75c0.99,0.46,1.59,2.05,1.79,2.97c0.2,0.91,0,28.41-0.2,34.11"/>
		</g>
	</g>
	<g id="kvg:07947-Jinmei-g4" kvg:element="氏" kvg:position="right">
		<path id="kvg:07947-Jinmei-s6" kvg:type="㇒" d="M76.01,12.25c0.09,0.5,0.18,1.29-0.17,2C73.71,18.47,63.55,26.45,53.16,31"/>
		<path id="kvg:07947-Jinmei-s7" kvg:type="㇙" d="M51.16,30.5c1.59,1.5,1.75,3.5,1.75,5.75s-0.16,41-0.16,44.5s-0.25,4.5,3,2S68.41,73.5,70.41,72"/>
		<path id="kvg:07947-Jinmei-s8" kvg:type="㇐" d="M55.04,46.63c0.94,0.41,2.66,0.46,3.6,0.41C65.25,46.75,82,41,87.91,41.5c1.56,0.13,2.5,0.2,3.29,0.4"/>
		<path id="kvg:07947-Jinmei-s9" kvg:type="㇂" d="M69.91,25c0.84,1,1.71,2.77,1.85,3.98C73.84,47.6,78.07,78.25,92.5,89.5c6.2,4.83,6.25,1,5.28-7.34"/>
	</g>
</g>
</g>
<g id="kvg:StrokeNumbers_07947-Jinmei" style="font-size:8;fill:#808080">
	<text transform="matrix(1 0 0 1 12.50 17.50)">1</text>
	<text transform="matrix(1 0 0 1 6.50 35.50)">2</text>
	<text transform="matrix(1 0 0 1 24.50 42.50)">3</text>
	<text transform="matrix(1 0 0 1 13.50 49.50)">4</text>
	<text transform="matrix(1 0 0 1 36.50 41.50)">5</text>
	<text transform="matrix(1 0 0 1 67.50 12.50)">6</text>
	<text transform="matrix(1 0 0 1 45.50 39.50)">7</text>
	<text transform="matrix(1 0 0 1 56.50 43.50)">8</text>
	<text transform="matrix(1 0 0 1 64.50 33.50)">9</text>
</g>
</svg>
