<?xml version="1.0" encoding="UTF-8"?>
<!--
Copyright (C) 2009/2010/2011 Ulrich Apel.
This work is distributed under the conditions of the Creative Commons 
Attribution-Share Alike 3.0 Licence. This means you are free:
* to Share - to copy, distribute and transmit the work
* to Remix - to adapt the work

Under the following conditions:
* Attribution. You must attribute the work by stating your use of KanjiVG in
  your own copyright header and linking to KanjiVG's website
  (http://kanjivg.tagaini.net)
* Share Alike. If you alter, transform, or build upon this work, you may
  distribute the resulting work only under the same or similar license to this
  one.

See http://creativecommons.org/licenses/by-sa/3.0/ for more details.
-->
<!DOCTYPE svg PUBLIC "-//W3C//DTD SVG 1.0//EN" "http://www.w3.org/TR/2001/REC-SVG-20010904/DTD/svg10.dtd" [
<!ATTLIST g
xmlns:kvg CDATA #FIXED "http://kanjivg.tagaini.net"
kvg:element CDATA #IMPLIED
kvg:variant CDATA #IMPLIED
kvg:partial CDATA #IMPLIED
kvg:original CDATA #IMPLIED
kvg:part CDATA #IMPLIED
kvg:number CDATA #IMPLIED
kvg:tradForm CDATA #IMPLIED
kvg:radicalForm CDATA #IMPLIED
kvg:position CDATA #IMPLIED
kvg:radical CDATA #IMPLIED
kvg:phon CDATA #IMPLIED >
<!ATTLIST path
xmlns:kvg CDATA #FIXED "http://kanjivg.tagaini.net"
kvg:type CDATA #IMPLIED >
]>
<svg xmlns="http://www.w3.org/2000/svg" width="109" height="109" viewBox="0 0 109 109">
<g id="kvg:StrokePaths_07941-Jinmei" style="fill:none;stroke:#000000;stroke-width:3;stroke-linecap:round;stroke-linejoin:round;">
<g id="kvg:07941-Jinmei" kvg:element="祁">
	<g id="kvg:07941-Jinmei-g1" kvg:element="示" kvg:variant="true" kvg:position="left" kvg:radical="general">
		<g id="kvg:07941-Jinmei-g2" kvg:position="top">
			<path id="kvg:07941-Jinmei-s1" kvg:type="㇐" d="M20.92,17.55c0.9,0.36,2.54,0.4,3.44,0.36c5.63-0.25,14.67-1.3,20.37-1.64c1.49-0.09,2.39,0.17,3.14,0.35"/>
			<path id="kvg:07941-Jinmei-s2" kvg:type="㇐" d="M14.67,35.65c1.37,0.19,3.85,0.1,5.2,0c8.5-0.58,21.42-2,31.21-2.76c2.24-0.17,3.61-0.05,4.74,0.02"/>
		</g>
		<g id="kvg:07941-Jinmei-g3" kvg:position="bottom">
			<path id="kvg:07941-Jinmei-s3" kvg:type="㇑" d="M35.08,36.43c0.61,0.44,0.98,1.97,1.1,2.85c0.12,0.88,0,51.24-0.12,56.72"/>
			<path id="kvg:07941-Jinmei-s4" kvg:type="㇒" d="M23.61,47.75c0.57,1.55,0.56,2.35,0.56,3.66c0,9.6-1.11,22.76-9.61,35.05"/>
			<path id="kvg:07941-Jinmei-s5" kvg:type="㇑/㇔" d="M46.54,44.75c1.19,0.46,1.91,2.05,2.15,2.97c0.24,0.91,0,28.41-0.24,34.11"/>
		</g>
	</g>
	<g id="kvg:07941-Jinmei-g4" kvg:element="⻏" kvg:variant="true" kvg:original="邑" kvg:position="right">
		<path id="kvg:07941-Jinmei-s6" kvg:type="㇇" d="M62.67,19.31c0.94,0.09,2.62,0.65,3.83,0.46c5.22-0.85,16.54-2.74,19.29-3.59c3.38-1.05,6.54,0.92,5.26,3.48c-1.79,3.59-7.46,19.35-10.09,22.84"/>
		<path id="kvg:07941-Jinmei-s7" kvg:type="㇕va" d="M81,43.5c19,13.25,18.25,44.5,2.73,33.66"/>
		<path id="kvg:07941-Jinmei-s8" kvg:type="㇑" d="M66.33,20c0.22,1,0,70.25-0.22,76.5"/>
	</g>
</g>
</g>
<g id="kvg:StrokeNumbers_07941-Jinmei" style="font-size:8;fill:#808080">
	<text transform="matrix(1 0 0 1 15.25 17.25)">1</text>
	<text transform="matrix(1 0 0 1 7.50 36.50)">2</text>
	<text transform="matrix(1 0 0 1 29.50 43.75)">3</text>
	<text transform="matrix(1 0 0 1 17.50 50.50)">4</text>
	<text transform="matrix(1 0 0 1 40.50 44.50)">5</text>
	<text transform="matrix(1 0 0 1 66.50 15.50)">6</text>
	<text transform="matrix(1 0 0 1 76.50 51.50)">7</text>
	<text transform="matrix(1 0 0 1 58.50 28.50)">8</text>
</g>
</svg>
