<?xml version="1.0" encoding="UTF-8"?>
<!--
Copyright (C) 2009/2010/2011 Ulrich Apel.
This work is distributed under the conditions of the Creative Commons 
Attribution-Share Alike 3.0 Licence. This means you are free:
* to Share - to copy, distribute and transmit the work
* to Remix - to adapt the work

Under the following conditions:
* Attribution. You must attribute the work by stating your use of KanjiVG in
  your own copyright header and linking to KanjiVG's website
  (http://kanjivg.tagaini.net)
* Share Alike. If you alter, transform, or build upon this work, you may
  distribute the resulting work only under the same or similar license to this
  one.

See http://creativecommons.org/licenses/by-sa/3.0/ for more details.
-->
<!DOCTYPE svg PUBLIC "-//W3C//DTD SVG 1.0//EN" "http://www.w3.org/TR/2001/REC-SVG-20010904/DTD/svg10.dtd" [
<!ATTLIST g
xmlns:kvg CDATA #FIXED "http://kanjivg.tagaini.net"
kvg:element CDATA #IMPLIED
kvg:variant CDATA #IMPLIED
kvg:partial CDATA #IMPLIED
kvg:original CDATA #IMPLIED
kvg:part CDATA #IMPLIED
kvg:number CDATA #IMPLIED
kvg:tradForm CDATA #IMPLIED
kvg:radicalForm CDATA #IMPLIED
kvg:position CDATA #IMPLIED
kvg:radical CDATA #IMPLIED
kvg:phon CDATA #IMPLIED >
<!ATTLIST path
xmlns:kvg CDATA #FIXED "http://kanjivg.tagaini.net"
kvg:type CDATA #IMPLIED >
]>
<svg xmlns="http://www.w3.org/2000/svg" width="109" height="109" viewBox="0 0 109 109">
<g id="kvg:StrokePaths_0797f" style="fill:none;stroke:#000000;stroke-width:3;stroke-linecap:round;stroke-linejoin:round;">
<g id="kvg:0797f" kvg:element="祿">
	<g id="kvg:0797f-g1" kvg:element="示" kvg:variant="true" kvg:position="left" kvg:radical="general">
		<g id="kvg:0797f-g2" kvg:position="top">
			<path id="kvg:0797f-s1" kvg:type="㇐" d="M16.03,19.38c0.75,0.11,2.1,0.06,2.85,0c4.63-0.35,13.06-1.19,17.75-1.58c1.23-0.1,1.98-0.03,2.6,0.01"/>
			<path id="kvg:0797f-s2" kvg:type="㇐" d="M12,35.96c1.07,0.25,3.03,0.23,4.1,0.18c6.71-0.36,16.92-1.49,24.65-2c1.77-0.12,2.85,0.06,3.74,0.18"/>
		</g>
		<g id="kvg:0797f-g3" kvg:position="bottom">
			<path id="kvg:0797f-s3" kvg:type="㇑" d="M26.58,36.93c1.35,0.44,2.17,1.99,2.44,2.87c0.27,0.88,0,52.17-0.27,57.69"/>
			<path id="kvg:0797f-s4" kvg:type="㇒" d="M17.86,49c0.52,1.44,0.51,2.19,0.51,3.4c0,8.92-1.02,21.14-8.81,32.56"/>
			<path id="kvg:0797f-s5" kvg:type="㇑/㇔" d="M38.14,47.25c0.84,0.36,1.34,1.62,1.51,2.35c0.17,0.72,0,22.47-0.17,26.98"/>
		</g>
	</g>
	<g id="kvg:0797f-g4" kvg:position="right">
		<g id="kvg:0797f-g5" kvg:element="彑" kvg:position="top">
			<path id="kvg:0797f-s6" kvg:type="㇗" d="M60.58,11.18c0.79,0.62,0.89,1.92,0.57,3.01c-1.54,5.17-4.19,13.32-6.27,17.34c-0.58,1.12-0.7,2.14,1.72,1.87c7.18-0.8,11.41-0.91,22.65-2.06"/>
			<path id="kvg:0797f-s7" kvg:type="㇕" d="M61.61,18.85c2.98-0.13,16.91-1.68,19.62-1.84c2.26-0.13,3.19,0.75,2.81,1.69c-1.39,3.49-3.79,12.54-6.05,23.68"/>
			<path id="kvg:0797f-s8" kvg:type="㇐" d="M46.75,44.46c0.99,0.65,2.81,0.7,3.81,0.65c10.53-0.6,34.81-4.11,45.24-3.2c1.66,0.14,2.65,0.31,3.48,0.63"/>
		</g>
		<g id="kvg:0797f-g6" kvg:element="氺" kvg:variant="true" kvg:original="水" kvg:position="bottom">
			<path id="kvg:0797f-s9" kvg:type="㇚" d="M69.45,45.38c0.09,0.5,1.34,2.61,1.34,5.8c0,19.08-0.27,34.31-0.27,39.52c0,11.07-7.68,1.58-9.27,0.26"/>
			<path id="kvg:0797f-s10" kvg:type="㇔" d="M49.25,55c3.71,1.72,9.57,7.07,10.5,9.75"/>
			<path id="kvg:0797f-s11" kvg:type="㇀" d="M44.56,82.89c1.68,1.48,3.58,1.61,5.27,0.34c0.99-0.75,9.97-7.89,14.18-11.49"/>
			<path id="kvg:0797f-s12" kvg:type="㇒" d="M90.79,49.44c0.04,0.32,0.08,0.84-0.08,1.31c-0.96,2.75-6.45,8.8-13.96,12.5"/>
			<path id="kvg:0797f-s13" kvg:type="㇏" d="M71,58c3,4.25,15,22.25,22.26,28.56c1.38,1.2,2.25,1.96,3.46,2.35"/>
		</g>
	</g>
</g>
</g>
<g id="kvg:StrokeNumbers_0797f" style="font-size:8;fill:#808080">
	<text transform="matrix(1 0 0 1 9.50 18.50)">1</text>
	<text transform="matrix(1 0 0 1 3.50 34.50)">2</text>
	<text transform="matrix(1 0 0 1 21.50 46.50)">3</text>
	<text transform="matrix(1 0 0 1 8.50 48.50)">4</text>
	<text transform="matrix(1 0 0 1 34.00 43.50)">5</text>
	<text transform="matrix(1 0 0 1 51.25 10.75)">6</text>
	<text transform="matrix(1 0 0 1 65.25 14.50)">7</text>
	<text transform="matrix(1 0 0 1 46.50 41.60)">8</text>
	<text transform="matrix(1 0 0 1 62.75 53.78)">9</text>
	<text transform="matrix(1 0 0 1 42.50 62.50)">10</text>
	<text transform="matrix(1 0 0 1 42.50 79.50)">11</text>
	<text transform="matrix(1 0 0 1 77.75 51.05)">12</text>
	<text transform="matrix(1 0 0 1 82.00 69.98)">13</text>
</g>
</svg>
