<?xml version="1.0" encoding="UTF-8"?>
<!--
Copyright (C) 2009/2010/2011 Ulrich Apel.
This work is distributed under the conditions of the Creative Commons 
Attribution-Share Alike 3.0 Licence. This means you are free:
* to Share - to copy, distribute and transmit the work
* to Remix - to adapt the work

Under the following conditions:
* Attribution. You must attribute the work by stating your use of KanjiVG in
  your own copyright header and linking to KanjiVG's website
  (http://kanjivg.tagaini.net)
* Share Alike. If you alter, transform, or build upon this work, you may
  distribute the resulting work only under the same or similar license to this
  one.

See http://creativecommons.org/licenses/by-sa/3.0/ for more details.
-->
<!DOCTYPE svg PUBLIC "-//W3C//DTD SVG 1.0//EN" "http://www.w3.org/TR/2001/REC-SVG-20010904/DTD/svg10.dtd" [
<!ATTLIST g
xmlns:kvg CDATA #FIXED "http://kanjivg.tagaini.net"
kvg:element CDATA #IMPLIED
kvg:variant CDATA #IMPLIED
kvg:partial CDATA #IMPLIED
kvg:original CDATA #IMPLIED
kvg:part CDATA #IMPLIED
kvg:number CDATA #IMPLIED
kvg:tradForm CDATA #IMPLIED
kvg:radicalForm CDATA #IMPLIED
kvg:position CDATA #IMPLIED
kvg:radical CDATA #IMPLIED
kvg:phon CDATA #IMPLIED >
<!ATTLIST path
xmlns:kvg CDATA #FIXED "http://kanjivg.tagaini.net"
kvg:type CDATA #IMPLIED >
]>
<svg xmlns="http://www.w3.org/2000/svg" width="109" height="109" viewBox="0 0 109 109">
<g id="kvg:StrokePaths_079df" style="fill:none;stroke:#000000;stroke-width:3;stroke-linecap:round;stroke-linejoin:round;">
<g id="kvg:079df" kvg:element="租">
	<g id="kvg:079df-g1" kvg:element="禾" kvg:position="left" kvg:radical="general">
		<g id="kvg:079df-g2" kvg:element="丿" kvg:position="top">
			<path id="kvg:079df-s1" kvg:type="㇒" d="M40.25,15.75c-0.13,0.88-0.45,1.9-1.33,2.55c-4.04,2.95-10.54,6.95-22.17,11.45"/>
		</g>
		<g id="kvg:079df-g3" kvg:element="木" kvg:position="bottom">
			<path id="kvg:079df-s2" kvg:type="㇐" d="M12.87,42.58c2.13,0.67,4.49,0.51,6.14,0.34c5.59-0.55,17.84-2.04,24.04-2.9c1.13-0.16,2.71-0.28,4.19-0.09"/>
			<path id="kvg:079df-s3" kvg:type="㇑" d="M32.08,26.66c1.13,1.13,1.41,2.34,1.41,4.19c0,4.25,0,37.59-0.03,54.4c-0.01,4.58-0.02,7.89-0.04,9"/>
			<path id="kvg:079df-s4" kvg:type="㇒" d="M32.68,42.97c0,1.78-0.91,4.4-1.87,6.43C25.88,59.87,18.7,70.91,9.5,79"/>
			<path id="kvg:079df-s5" kvg:type="㇔/㇏" d="M36.75,52.25c3.56,2.04,6.58,6.12,8.5,8.75"/>
		</g>
	</g>
	<g id="kvg:079df-g4" kvg:element="且" kvg:position="right" kvg:phon="且">
		<g id="kvg:079df-g5" kvg:element="月">
			<path id="kvg:079df-s6" kvg:type="㇑a" d="M54.52,24.98c1,1,1.41,2.14,1.41,3.65c0,0.98,0.43,57.8,0.35,59.92"/>
			<path id="kvg:079df-s7" kvg:type="㇕b" d="M56.81,26.81c6.06-0.81,22.2-2.82,23.86-2.99c2.98-0.29,4.49,1.17,4.49,4.71c0,3.83-0.03,40.33-0.03,57.15"/>
			<path id="kvg:079df-s8" kvg:type="㇐a" d="M57.14,46.6c7.62-0.95,20.08-2.31,26.78-2.6"/>
			<path id="kvg:079df-s9" kvg:type="㇐a" d="M57.59,65.95c5.95-0.34,19.22-1.92,26.1-1.96"/>
		</g>
		<g id="kvg:079df-g6" kvg:element="一">
			<path id="kvg:079df-s10" kvg:type="㇐" d="M43.04,89.34c2.96,0.53,5.97,0.59,8.71,0.41c11.47-0.75,28.29-2.4,39.75-2.7c2.71-0.07,5.46,0.05,8.13,0.59"/>
		</g>
	</g>
</g>
</g>
<g id="kvg:StrokeNumbers_079df" style="font-size:8;fill:#808080">
	<text transform="matrix(1 0 0 1 32.25 13.63)">1</text>
	<text transform="matrix(1 0 0 1 5.25 43.55)">2</text>
	<text transform="matrix(1 0 0 1 26.25 36.13)">3</text>
	<text transform="matrix(1 0 0 1 20.25 54.13)">4</text>
	<text transform="matrix(1 0 0 1 39.75 52.63)">5</text>
	<text transform="matrix(1 0 0 1 48.50 35.50)">6</text>
	<text transform="matrix(1 0 0 1 57.75 23.50)">7</text>
	<text transform="matrix(1 0 0 1 60.75 43.55)">8</text>
	<text transform="matrix(1 0 0 1 60.75 62.50)">9</text>
	<text transform="matrix(1 0 0 1 40.50 86.50)">10</text>
</g>
</svg>
