<?xml version="1.0" encoding="UTF-8"?>
<!--
Copyright (C) 2009/2010/2011 Ulrich Apel.
This work is distributed under the conditions of the Creative Commons 
Attribution-Share Alike 3.0 Licence. This means you are free:
* to Share - to copy, distribute and transmit the work
* to Remix - to adapt the work

Under the following conditions:
* Attribution. You must attribute the work by stating your use of KanjiVG in
  your own copyright header and linking to KanjiVG's website
  (http://kanjivg.tagaini.net)
* Share Alike. If you alter, transform, or build upon this work, you may
  distribute the resulting work only under the same or similar license to this
  one.

See http://creativecommons.org/licenses/by-sa/3.0/ for more details.
-->
<!DOCTYPE svg PUBLIC "-//W3C//DTD SVG 1.0//EN" "http://www.w3.org/TR/2001/REC-SVG-20010904/DTD/svg10.dtd" [
<!ATTLIST g
xmlns:kvg CDATA #FIXED "http://kanjivg.tagaini.net"
kvg:element CDATA #IMPLIED
kvg:variant CDATA #IMPLIED
kvg:partial CDATA #IMPLIED
kvg:original CDATA #IMPLIED
kvg:part CDATA #IMPLIED
kvg:number CDATA #IMPLIED
kvg:tradForm CDATA #IMPLIED
kvg:radicalForm CDATA #IMPLIED
kvg:position CDATA #IMPLIED
kvg:radical CDATA #IMPLIED
kvg:phon CDATA #IMPLIED >
<!ATTLIST path
xmlns:kvg CDATA #FIXED "http://kanjivg.tagaini.net"
kvg:type CDATA #IMPLIED >
]>
<svg xmlns="http://www.w3.org/2000/svg" width="109" height="109" viewBox="0 0 109 109">
<g id="kvg:StrokePaths_07a00-Kaisho" style="fill:none;stroke:#000000;stroke-width:3;stroke-linecap:round;stroke-linejoin:round;">
<g id="kvg:07a00-Kaisho" kvg:element="稀">
	<g id="kvg:07a00-Kaisho-g1" kvg:element="禾" kvg:position="left" kvg:radical="general">
		<g id="kvg:07a00-Kaisho-g2" kvg:element="丿" kvg:position="top">
			<path id="kvg:07a00-Kaisho-s1" kvg:type="㇒" d="M40.5,12.5c0.07,0.34,0.14,0.87-0.14,1.35c-1.63,2.84-11.02,9.08-23.86,12.9"/>
		</g>
		<g id="kvg:07a00-Kaisho-g3" kvg:element="木" kvg:position="bottom">
			<path id="kvg:07a00-Kaisho-s2" kvg:type="㇐" d="M13.12,40.33c0.3,0.17,1.12,0.45,1.93,0.51c2.24,0.17,21.56-3.06,27.16-3.91c0.81-0.12,1.02-0.17,1.53,0"/>
			<path id="kvg:07a00-Kaisho-s3" kvg:type="㇑" d="M31.58,23.91c0.67,0.59,1.16,2.86,1.16,3.69c0,5.15-0.07,61.21-0.07,61.4c0,11.5-4.41,3.25-6.16,1.5"/>
			<path id="kvg:07a00-Kaisho-s4" kvg:type="㇒" d="M31.68,41.72C28.15,51.8,22.25,64.25,14.25,72.5"/>
			<path id="kvg:07a00-Kaisho-s5" kvg:type="㇔/㇏" d="M34.75,48c3.98,2.1,7.35,6.3,9.5,9"/>
		</g>
	</g>
	<g id="kvg:07a00-Kaisho-g4" kvg:element="希" kvg:position="right">
		<g id="kvg:07a00-Kaisho-g5" kvg:element="乂" kvg:position="top">
			<g id="kvg:07a00-Kaisho-g6" kvg:element="丿">
				<path id="kvg:07a00-Kaisho-s6" kvg:type="㇒" d="M80.78,11.93C81,13.25,80.51,14,79.67,14.9c-7.17,7.6-17.42,16.6-29.86,21.79"/>
			</g>
			<path id="kvg:07a00-Kaisho-s7" kvg:type="㇏" d="M55.74,17.97c10.93,1.36,23.6,7.9,30.37,15.53"/>
		</g>
		<g id="kvg:07a00-Kaisho-g7" kvg:element="布" kvg:position="bottom">
			<path id="kvg:07a00-Kaisho-s8" kvg:type="㇒" d="M68.11,33.42c0.08,0.89-0.14,2.36-0.65,3.57C63.5,46.25,56.25,59,40.69,71.15"/>
			<path id="kvg:07a00-Kaisho-s9" kvg:type="㇐" d="M44.04,46.41c1.15,0.47,3.26,0.6,4.42,0.47c10.54-1.13,32.47-4.01,45.7-4.44c1.92-0.06,3.07,0.23,4.03,0.46"/>
			<g id="kvg:07a00-Kaisho-g8" kvg:element="巾">
				<path id="kvg:07a00-Kaisho-s10" kvg:type="㇑" d="M53.96,60.85c0.42,0.3,1.31,2.21,1.4,2.8c0.08,0.59-0.05,20.75-0.14,24.44"/>
				<path id="kvg:07a00-Kaisho-s11" kvg:type="㇆a" d="M55.23,62.54c2.64-0.21,31.38-3.82,33.35-3.95c2.31-0.15,3.73,1.41,3.73,3.95c0,9.09-0.04,10.88-0.04,17.65c0,8.05-5.7,2.55-6.58,1.51"/>
				<path id="kvg:07a00-Kaisho-s12" kvg:type="㇑" d="M72.03,50.75c0.42,0.3,1.31,2.21,1.4,2.8c0.08,0.59-0.05,39.51-0.14,43.2"/>
			</g>
		</g>
	</g>
</g>
</g>
<g id="kvg:StrokeNumbers_07a00-Kaisho" style="font-size:8;fill:#808080">
	<text transform="matrix(1 0 0 1 34.00 10.88)">1</text>
	<text transform="matrix(1 0 0 1 6.25 40.25)">2</text>
	<text transform="matrix(1 0 0 1 25.00 32.25)">3</text>
	<text transform="matrix(1 0 0 1 21.25 50.25)">4</text>
	<text transform="matrix(1 0 0 1 36.25 47.25)">5</text>
	<text transform="matrix(1 0 0 1 72.25 12.25)">6</text>
	<text transform="matrix(1 0 0 1 50.25 19.25)">7</text>
	<text transform="matrix(1 0 0 1 60.50 37.85)">8</text>
	<text transform="matrix(1 0 0 1 45.25 44.53)">9</text>
	<text transform="matrix(1 0 0 1 46.25 73.25)">10</text>
	<text transform="matrix(1 0 0 1 60.00 59.25)">11</text>
	<text transform="matrix(1 0 0 1 76.00 52.05)">12</text>
</g>
</svg>
