<?xml version="1.0" encoding="UTF-8"?>
<!--
Copyright (C) 2009/2010/2011 Ulrich Apel.
This work is distributed under the conditions of the Creative Commons 
Attribution-Share Alike 3.0 Licence. This means you are free:
* to Share - to copy, distribute and transmit the work
* to Remix - to adapt the work

Under the following conditions:
* Attribution. You must attribute the work by stating your use of KanjiVG in
  your own copyright header and linking to KanjiVG's website
  (http://kanjivg.tagaini.net)
* Share Alike. If you alter, transform, or build upon this work, you may
  distribute the resulting work only under the same or similar license to this
  one.

See http://creativecommons.org/licenses/by-sa/3.0/ for more details.
-->
<!DOCTYPE svg PUBLIC "-//W3C//DTD SVG 1.0//EN" "http://www.w3.org/TR/2001/REC-SVG-20010904/DTD/svg10.dtd" [
<!ATTLIST g
xmlns:kvg CDATA #FIXED "http://kanjivg.tagaini.net"
kvg:element CDATA #IMPLIED
kvg:variant CDATA #IMPLIED
kvg:partial CDATA #IMPLIED
kvg:original CDATA #IMPLIED
kvg:part CDATA #IMPLIED
kvg:number CDATA #IMPLIED
kvg:tradForm CDATA #IMPLIED
kvg:radicalForm CDATA #IMPLIED
kvg:position CDATA #IMPLIED
kvg:radical CDATA #IMPLIED
kvg:phon CDATA #IMPLIED >
<!ATTLIST path
xmlns:kvg CDATA #FIXED "http://kanjivg.tagaini.net"
kvg:type CDATA #IMPLIED >
]>
<svg xmlns="http://www.w3.org/2000/svg" width="109" height="109" viewBox="0 0 109 109">
<g id="kvg:StrokePaths_07a2e-KaishoVtLst" style="fill:none;stroke:#000000;stroke-width:3;stroke-linecap:round;stroke-linejoin:round;">
<g id="kvg:07a2e-KaishoVtLst" kvg:element="種">
	<g id="kvg:07a2e-KaishoVtLst-g1" kvg:element="禾" kvg:position="left" kvg:radical="general">
		<g id="kvg:07a2e-KaishoVtLst-g2" kvg:element="丿" kvg:position="top">
			<path id="kvg:07a2e-KaishoVtLst-s1" kvg:type="㇒" d="M38.5,15.5c0.06,0.29,0.14,0.76-0.13,1.18C36.81,19.18,27.81,24.65,15.5,28"/>
		</g>
		<g id="kvg:07a2e-KaishoVtLst-g3" kvg:element="木" kvg:position="bottom">
			<path id="kvg:07a2e-KaishoVtLst-s2" kvg:type="㇐" d="M11.12,41.85c0.37,0.21,1.36,0.55,2.35,0.62c2.72,0.21,21.1-2.61,27.91-3.64c0.99-0.15,1.24-0.21,1.86,0"/>
			<path id="kvg:07a2e-KaishoVtLst-s3" kvg:type="㇑" d="M30.83,24.16c0.37,0.41,0.58,1.86,0.66,2.69c0.07,0.83-0.07,63.71-0.07,63.9c0,12.25-5.16,3.5-6.66,2"/>
			<path id="kvg:07a2e-KaishoVtLst-s4" kvg:type="㇒" d="M30.43,42.47C26.29,53.29,18.5,65,10,75.5"/>
			<path id="kvg:07a2e-KaishoVtLst-s5" kvg:type="㇔/㇏" d="M34.25,46.75c3.46,2.04,6.39,6.12,8.25,8.75"/>
		</g>
	</g>
	<g id="kvg:07a2e-KaishoVtLst-g4" kvg:element="重" kvg:variant="true" kvg:position="right">
		<g id="kvg:07a2e-KaishoVtLst-g5" kvg:element="千" kvg:part="1">
			<g id="kvg:07a2e-KaishoVtLst-g6" kvg:element="丿">
				<path id="kvg:07a2e-KaishoVtLst-s6" kvg:type="㇒" d="M80.56,13.55c0.08,0.33-0.62,2-1.07,2.33c-3.45,2.52-12.2,6.55-27.46,9.65"/>
			</g>
			<g id="kvg:07a2e-KaishoVtLst-g7" kvg:element="十" kvg:part="1">
				<path id="kvg:07a2e-KaishoVtLst-s7" kvg:type="㇐" d="M46.42,34.24c1.14,0.36,3.24,0.55,4.37,0.43c8.71-0.93,30.96-3.93,40.22-4.61c1.9-0.14,3.04,0.23,3.99,0.42"/>
			</g>
		</g>
		<g id="kvg:07a2e-KaishoVtLst-g8" kvg:element="里" kvg:variant="true">
			<path id="kvg:07a2e-KaishoVtLst-s8" kvg:type="㇑" d="M50.85,44.56c0.28,0.43,0.29,0.72,0.45,1.25c1.27,4.39,2.44,15.42,3.21,23.54"/>
			<path id="kvg:07a2e-KaishoVtLst-s9" kvg:type="㇕" d="M52.18,45.7c10-0.76,26.76-3.57,34.23-4.23c2.74-0.24,4.14,0.99,4,2.18c-0.53,4.36-2.6,15.71-3.88,22.98"/>
			<path id="kvg:07a2e-KaishoVtLst-s10" kvg:type="㇐" d="M53.64,55.46c7.75-0.74,15.53-1.23,23.3-1.81c0.93-0.07,1.84-0.13,2.71-0.2"/>
			<path id="kvg:07a2e-KaishoVtLst-s11" kvg:type="㇐" d="M54.66,67.65c10.63-1.4,21.94-2.69,31.88-3.11"/>
			<path id="kvg:07a2e-KaishoVtLst-s12" kvg:type="㇐" d="M51.27,79.13c0.69,0.35,1.96,0.52,2.65,0.42c8.83-1.3,24.08-2.55,32.2-3.27c1.15-0.1,1.84,0.22,2.42,0.4"/>
			<path id="kvg:07a2e-KaishoVtLst-s13" kvg:type="㇐" d="M42.98,93.87c1.12,0.5,3.17,0.69,4.29,0.61c13.23-0.97,30.98-2.72,45.48-2.92c1.87-0.02,2.98,0.32,3.91,0.58"/>
			<g id="kvg:07a2e-KaishoVtLst-g9" kvg:element="千" kvg:part="2">
				<g id="kvg:07a2e-KaishoVtLst-g10" kvg:element="十" kvg:part="2">
					<path id="kvg:07a2e-KaishoVtLst-s14" kvg:type="㇑" d="M68.65,22.86c0.94,0.54,1.5,2.33,1.68,3.34c0.18,1.02-0.23,59.95-0.44,66.26"/>
				</g>
			</g>
		</g>
	</g>
</g>
</g>
<g id="kvg:StrokeNumbers_07a2e-KaishoVtLst" style="font-size:8;fill:#808080">
	<text transform="matrix(1 0 0 1 31.25 12.63)">1</text>
	<text transform="matrix(1 0 0 1 5.25 43.63)">2</text>
	<text transform="matrix(1 0 0 1 23.50 33.13)">3</text>
	<text transform="matrix(1 0 0 1 18.50 53.50)">4</text>
	<text transform="matrix(1 0 0 1 36.75 47.50)">5</text>
	<text transform="matrix(1 0 0 1 71.50 12.50)">6</text>
	<text transform="matrix(1 0 0 1 45.50 32.50)">7</text>
	<text transform="matrix(1 0 0 1 45.50 51.13)">8</text>
	<text transform="matrix(1 0 0 1 53.25 42.50)">9</text>
	<text transform="matrix(1 0 0 1 56.25 53.50)">10</text>
	<text transform="matrix(1 0 0 1 57.50 64.50)">11</text>
	<text transform="matrix(1 0 0 1 40.50 80.50)">12</text>
	<text transform="matrix(1 0 0 1 39.75 91.63)">13</text>
	<text transform="matrix(1 0 0 1 60.50 29.30)">14</text>
</g>
</svg>
