<?xml version="1.0" encoding="UTF-8"?>
<!--
Copyright (C) 2009/2010/2011 Ulrich Apel.
This work is distributed under the conditions of the Creative Commons 
Attribution-Share Alike 3.0 Licence. This means you are free:
* to Share - to copy, distribute and transmit the work
* to Remix - to adapt the work

Under the following conditions:
* Attribution. You must attribute the work by stating your use of KanjiVG in
  your own copyright header and linking to KanjiVG's website
  (http://kanjivg.tagaini.net)
* Share Alike. If you alter, transform, or build upon this work, you may
  distribute the resulting work only under the same or similar license to this
  one.

See http://creativecommons.org/licenses/by-sa/3.0/ for more details.
-->
<!DOCTYPE svg PUBLIC "-//W3C//DTD SVG 1.0//EN" "http://www.w3.org/TR/2001/REC-SVG-20010904/DTD/svg10.dtd" [
<!ATTLIST g
xmlns:kvg CDATA #FIXED "http://kanjivg.tagaini.net"
kvg:element CDATA #IMPLIED
kvg:variant CDATA #IMPLIED
kvg:partial CDATA #IMPLIED
kvg:original CDATA #IMPLIED
kvg:part CDATA #IMPLIED
kvg:number CDATA #IMPLIED
kvg:tradForm CDATA #IMPLIED
kvg:radicalForm CDATA #IMPLIED
kvg:position CDATA #IMPLIED
kvg:radical CDATA #IMPLIED
kvg:phon CDATA #IMPLIED >
<!ATTLIST path
xmlns:kvg CDATA #FIXED "http://kanjivg.tagaini.net"
kvg:type CDATA #IMPLIED >
]>
<svg xmlns="http://www.w3.org/2000/svg" width="109" height="109" viewBox="0 0 109 109">
<g id="kvg:StrokePaths_07a32-Kaisho" style="fill:none;stroke:#000000;stroke-width:3;stroke-linecap:round;stroke-linejoin:round;">
<g id="kvg:07a32-Kaisho" kvg:element="稲">
	<g id="kvg:07a32-Kaisho-g1" kvg:element="禾" kvg:position="left" kvg:radical="general">
		<g id="kvg:07a32-Kaisho-g2" kvg:element="丿" kvg:position="top">
			<path id="kvg:07a32-Kaisho-s1" kvg:type="㇒" d="M42,18.25c0.07,0.37,0.15,0.94-0.14,1.47c-1.72,3.09-11.59,9.88-25.1,14.03"/>
		</g>
		<g id="kvg:07a32-Kaisho-g3" kvg:element="木" kvg:position="bottom">
			<path id="kvg:07a32-Kaisho-s2" kvg:type="㇐" d="M12.12,43.85c0.37,0.21,1.36,0.55,2.35,0.62c2.72,0.21,25.6-3.61,32.41-4.64c0.99-0.15,1.24-0.21,1.86,0"/>
			<path id="kvg:07a32-Kaisho-s3" kvg:type="㇑" d="M33.43,31.16c0.5,0.57,0.81,2.57,0.91,3.72c0.1,1.14,0.07,55.18,0.07,55.38c0,12.5-5.41,3-7.16,1.25"/>
			<path id="kvg:07a32-Kaisho-s4" kvg:type="㇒" d="M34.93,42.47C30.69,53.7,23.61,67.56,14,76.75"/>
			<path id="kvg:07a32-Kaisho-s5" kvg:type="㇔/㇏" d="M37.5,51.75c3.98,2.33,7.35,7,9.5,10"/>
		</g>
	</g>
	<g id="kvg:07a32-Kaisho-g4" kvg:position="right" kvg:phon="稲right">
		<g id="kvg:07a32-Kaisho-g5" kvg:element="⺤" kvg:variant="true" kvg:original="爪">
			<path id="kvg:07a32-Kaisho-s6" kvg:type="㇒" d="M84.03,15.89c0.08,0.33,0.17,0.86-0.17,1.33c-2,2.81-13.45,8.97-29.13,12.74"/>
			<path id="kvg:07a32-Kaisho-s7" kvg:type="㇔" d="M53.52,35.83c2.16,2.1,5.58,8.62,6.12,11.88"/>
			<path id="kvg:07a32-Kaisho-s8" kvg:type="㇔" d="M65.44,32.58c2.71,1.96,7.01,8.08,7.69,11.13"/>
			<path id="kvg:07a32-Kaisho-s9" kvg:type="㇒" d="M92.52,30.14c0.03,0.38,0.06,0.99-0.06,1.54c-0.72,3.26-4.89,10.41-10.6,14.78"/>
		</g>
		<g id="kvg:07a32-Kaisho-g6" kvg:element="旧">
			<g id="kvg:07a32-Kaisho-g7" kvg:element="丨" kvg:position="left">
				<path id="kvg:07a32-Kaisho-s10" kvg:type="㇑" d="M53.75,54.92c1.1,0.41,1.76,1.83,1.97,2.64c0.22,0.82,0.08,34.32-0.05,37.43"/>
			</g>
			<g id="kvg:07a32-Kaisho-g8" kvg:element="日" kvg:position="right">
				<path id="kvg:07a32-Kaisho-s11" kvg:type="㇑" d="M68.79,54.24c0.59,1.34,1.2,2.01,1.2,3.8c0,1.79-0.08,34.93,0.05,36.1"/>
				<path id="kvg:07a32-Kaisho-s12" kvg:type="㇕a" d="M69.87,55.53c2.2-0.15,19.34-2.37,21.34-2.54c1.67-0.15,2.43,1.04,2.3,1.9C93.25,56.65,93,92.11,93,92.98"/>
				<path id="kvg:07a32-Kaisho-s13" kvg:type="㇐a" d="M69.95,71.45c4.07-0.34,8.14-0.7,12.21-1.03c1.18-0.1,2.34-0.19,3.45-0.27"/>
				<path id="kvg:07a32-Kaisho-s14" kvg:type="㇐a" d="M69.87,91.17c6.17-0.26,16.2-1.41,23.2-1.45"/>
			</g>
		</g>
	</g>
</g>
</g>
<g id="kvg:StrokeNumbers_07a32-Kaisho" style="font-size:8;fill:#808080">
	<text transform="matrix(1 0 0 1 33.75 19.63)">1</text>
	<text transform="matrix(1 0 0 1 5.50 45.50)">2</text>
	<text transform="matrix(1 0 0 1 26.50 38.50)">3</text>
	<text transform="matrix(1 0 0 1 23.50 53.50)">4</text>
	<text transform="matrix(1 0 0 1 41.25 51.50)">5</text>
	<text transform="matrix(1 0 0 1 74.50 15.50)">6</text>
	<text transform="matrix(1 0 0 1 47.25 37.63)">7</text>
	<text transform="matrix(1 0 0 1 59.50 36.13)">8</text>
	<text transform="matrix(1 0 0 1 84.50 31.63)">9</text>
	<text transform="matrix(1 0 0 1 45.75 70.63)">10</text>
	<text transform="matrix(1 0 0 1 60.50 63.50)">11</text>
	<text transform="matrix(1 0 0 1 70.50 52.63)">12</text>
	<text transform="matrix(1 0 0 1 74.25 67.55)">13</text>
	<text transform="matrix(1 0 0 1 74.08 87.50)">14</text>
</g>
</svg>
