<?xml version="1.0" encoding="UTF-8"?>
<!--
Copyright (C) 2009/2010/2011 Ulrich Apel.
This work is distributed under the conditions of the Creative Commons 
Attribution-Share Alike 3.0 Licence. This means you are free:
* to Share - to copy, distribute and transmit the work
* to Remix - to adapt the work

Under the following conditions:
* Attribution. You must attribute the work by stating your use of KanjiVG in
  your own copyright header and linking to KanjiVG's website
  (http://kanjivg.tagaini.net)
* Share Alike. If you alter, transform, or build upon this work, you may
  distribute the resulting work only under the same or similar license to this
  one.

See http://creativecommons.org/licenses/by-sa/3.0/ for more details.
-->
<!DOCTYPE svg PUBLIC "-//W3C//DTD SVG 1.0//EN" "http://www.w3.org/TR/2001/REC-SVG-20010904/DTD/svg10.dtd" [
<!ATTLIST g
xmlns:kvg CDATA #FIXED "http://kanjivg.tagaini.net"
kvg:element CDATA #IMPLIED
kvg:variant CDATA #IMPLIED
kvg:partial CDATA #IMPLIED
kvg:original CDATA #IMPLIED
kvg:part CDATA #IMPLIED
kvg:number CDATA #IMPLIED
kvg:tradForm CDATA #IMPLIED
kvg:radicalForm CDATA #IMPLIED
kvg:position CDATA #IMPLIED
kvg:radical CDATA #IMPLIED
kvg:phon CDATA #IMPLIED >
<!ATTLIST path
xmlns:kvg CDATA #FIXED "http://kanjivg.tagaini.net"
kvg:type CDATA #IMPLIED >
]>
<svg xmlns="http://www.w3.org/2000/svg" width="109" height="109" viewBox="0 0 109 109">
<g id="kvg:StrokePaths_07a3d-Kaisho" style="fill:none;stroke:#000000;stroke-width:3;stroke-linecap:round;stroke-linejoin:round;">
<g id="kvg:07a3d-Kaisho" kvg:element="稽">
	<g id="kvg:07a3d-Kaisho-g1" kvg:element="禾" kvg:position="left" kvg:radical="general">
		<g id="kvg:07a3d-Kaisho-g2" kvg:element="丿" kvg:position="top">
			<path id="kvg:07a3d-Kaisho-s1" kvg:type="㇒" d="M39.25,16.75c0.07,0.32,0.14,0.82-0.14,1.28c-1.63,2.69-11.02,8.6-23.86,12.22"/>
		</g>
		<g id="kvg:07a3d-Kaisho-g3" kvg:element="木" kvg:position="bottom">
			<path id="kvg:07a3d-Kaisho-s2" kvg:type="㇐" d="M11.62,44.67c0.33,0.18,1.21,0.48,2.08,0.55c2.41,0.18,22.12-2.75,28.14-3.67c0.87-0.13,1.09-0.18,1.64,0"/>
			<path id="kvg:07a3d-Kaisho-s3" kvg:type="㇑" d="M30.61,27.66c0.59,0.41,0.95,1.86,1.07,2.69c0.12,0.83-0.12,59.19-0.12,59.4c0,11.75-4.69,2.38-6.06,1"/>
			<path id="kvg:07a3d-Kaisho-s4" kvg:type="㇒" d="M31.43,45.97C27.54,56.63,21.05,69.78,12.25,78.5"/>
			<path id="kvg:07a3d-Kaisho-s5" kvg:type="㇔/㇏" d="M34.25,51.75c3.67,2.45,6.77,7.35,8.75,10.5"/>
		</g>
	</g>
	<g id="kvg:07a3d-Kaisho-g4" kvg:position="right">
		<g id="kvg:07a3d-Kaisho-g5" kvg:element="尤" kvg:position="top">
			<g id="kvg:07a3d-Kaisho-g6" kvg:element="尢">
				<path id="kvg:07a3d-Kaisho-s6" kvg:type="㇐" d="M48.05,25.84c0.87,0.3,2.47,0.38,3.34,0.3c6.21-0.6,28.67-3.9,38.05-3.89c1.45,0,2.33,0.14,3.05,0.29"/>
				<g id="kvg:07a3d-Kaisho-g7" kvg:element="儿" kvg:original="八">
					<g id="kvg:07a3d-Kaisho-g8" kvg:element="丿">
						<path id="kvg:07a3d-Kaisho-s7" kvg:type="㇒" d="M64.71,12.5c0.54,0.5,0.61,1.2,0.61,2.23c0,7-3.57,20.27-16.9,27.44"/>
					</g>
					<path id="kvg:07a3d-Kaisho-s8" kvg:type="㇟" d="M71.6,25.16c0.42,0.57,0.76,1.24,0.78,2.12c0.11,3.92-0.3,5.72-0.3,8.39c0,6.22,5.07,5.52,10.06,5.52c5.26,0,8.73-0.8,9.47-1.26c1.56-0.96,1.14-1.44,1.28-3.11"/>
				</g>
			</g>
			<g id="kvg:07a3d-Kaisho-g9" kvg:element="丶">
				<path id="kvg:07a3d-Kaisho-s9" kvg:type="㇔" d="M76.54,10.96c2.73,1.03,7.05,4.22,7.73,5.81"/>
			</g>
		</g>
		<g id="kvg:07a3d-Kaisho-g10" kvg:element="旨" kvg:position="bottom">
			<g id="kvg:07a3d-Kaisho-g11" kvg:element="匕" kvg:position="top">
				<path id="kvg:07a3d-Kaisho-s10" kvg:type="㇒" d="M54.5,52c7.75-0.75,22.25-3.25,25.5-3.5c1.5-0.12,2.75-0.25,4.25-0.25"/>
				<path id="kvg:07a3d-Kaisho-s11" kvg:type="㇟" d="M52.48,44.75c0.76,0.31,1.07,1.37,1.07,1.85c0,2.25-0.07,2.99-0.07,7.48c0,7.03,2.62,7.67,18.94,7.67c17.75,0,18.08-2.01,18.08-6.56"/>
			</g>
			<g id="kvg:07a3d-Kaisho-g12" kvg:element="日" kvg:position="bottom">
				<path id="kvg:07a3d-Kaisho-s12" kvg:type="㇑" d="M52.46,70.53c0.56,0.65,1.38,2.56,1.38,3.34c0,0.78,2.21,21.97,2.21,22.36"/>
				<path id="kvg:07a3d-Kaisho-s13" kvg:type="㇕a" d="M54.57,71.81c2.48-0.1,28.58-2.87,30.84-2.98c1.88-0.1,3.1,1.08,2.95,1.66c-0.29,1.17-4.2,24.64-4.2,25.22"/>
				<path id="kvg:07a3d-Kaisho-s14" kvg:type="㇐a" d="M55.01,82.37c4.91,0,9.88-0.63,14.76-1.01c1.66-0.13,3.33-0.26,4.95-0.38"/>
				<path id="kvg:07a3d-Kaisho-s15" kvg:type="㇐a" d="M57.35,95.18c6.84-0.42,16.87-1.54,25.39-1.9"/>
			</g>
		</g>
	</g>
</g>
</g>
<g id="kvg:StrokeNumbers_07a3d-Kaisho" style="font-size:8;fill:#808080">
	<text transform="matrix(1 0 0 1 32.50 15.50)">1</text>
	<text transform="matrix(1 0 0 1 4.50 45.55)">2</text>
	<text transform="matrix(1 0 0 1 23.50 36.50)">3</text>
	<text transform="matrix(1 0 0 1 21.50 54.50)">4</text>
	<text transform="matrix(1 0 0 1 37.50 51.50)">5</text>
	<text transform="matrix(1 0 0 1 46.50 23.50)">6</text>
	<text transform="matrix(1 0 0 1 57.50 12.50)">7</text>
	<text transform="matrix(1 0 0 1 75.75 32.60)">8</text>
	<text transform="matrix(1 0 0 1 73.50 8.03)">9</text>
	<text transform="matrix(1 0 0 1 66.25 48.50)">10</text>
	<text transform="matrix(1 0 0 1 44.25 51.50)">11</text>
	<text transform="matrix(1 0 0 1 44.00 81.05)">12</text>
	<text transform="matrix(1 0 0 1 54.25 69.48)">13</text>
	<text transform="matrix(1 0 0 1 58.50 79.65)">14</text>
	<text transform="matrix(1 0 0 1 59.75 91.58)">15</text>
</g>
</svg>
