<?xml version="1.0" encoding="UTF-8"?>
<!--
Copyright (C) 2009/2010/2011 Ulrich Apel.
This work is distributed under the conditions of the Creative Commons 
Attribution-Share Alike 3.0 Licence. This means you are free:
* to Share - to copy, distribute and transmit the work
* to Remix - to adapt the work

Under the following conditions:
* Attribution. You must attribute the work by stating your use of KanjiVG in
  your own copyright header and linking to KanjiVG's website
  (http://kanjivg.tagaini.net)
* Share Alike. If you alter, transform, or build upon this work, you may
  distribute the resulting work only under the same or similar license to this
  one.

See http://creativecommons.org/licenses/by-sa/3.0/ for more details.
-->
<!DOCTYPE svg PUBLIC "-//W3C//DTD SVG 1.0//EN" "http://www.w3.org/TR/2001/REC-SVG-20010904/DTD/svg10.dtd" [
<!ATTLIST g
xmlns:kvg CDATA #FIXED "http://kanjivg.tagaini.net"
kvg:element CDATA #IMPLIED
kvg:variant CDATA #IMPLIED
kvg:partial CDATA #IMPLIED
kvg:original CDATA #IMPLIED
kvg:part CDATA #IMPLIED
kvg:number CDATA #IMPLIED
kvg:tradForm CDATA #IMPLIED
kvg:radicalForm CDATA #IMPLIED
kvg:position CDATA #IMPLIED
kvg:radical CDATA #IMPLIED
kvg:phon CDATA #IMPLIED >
<!ATTLIST path
xmlns:kvg CDATA #FIXED "http://kanjivg.tagaini.net"
kvg:type CDATA #IMPLIED >
]>
<svg xmlns="http://www.w3.org/2000/svg" width="109" height="109" viewBox="0 0 109 109">
<g id="kvg:StrokePaths_07a50-Kaisho" style="fill:none;stroke:#000000;stroke-width:3;stroke-linecap:round;stroke-linejoin:round;">
<g id="kvg:07a50-Kaisho" kvg:element="穐">
	<g id="kvg:07a50-Kaisho-g1" kvg:element="禾" kvg:position="left" kvg:radical="general">
		<g id="kvg:07a50-Kaisho-g2" kvg:element="丿" kvg:position="top">
			<path id="kvg:07a50-Kaisho-s1" kvg:type="㇒" d="M36.51,15c0.06,0.35,0.12,0.91-0.12,1.42C34.96,19.41,26.74,25.98,15.5,30"/>
		</g>
		<g id="kvg:07a50-Kaisho-g3" kvg:element="木" kvg:position="bottom">
			<path id="kvg:07a50-Kaisho-s2" kvg:type="㇐" d="M12.87,42.58c0.3,0.17,1.12,0.45,1.93,0.51c2.24,0.17,19.06-2.56,24.66-3.41c0.81-0.12,1.02-0.17,1.53,0"/>
			<path id="kvg:07a50-Kaisho-s3" kvg:type="㇑" d="M30.33,26.66c0.37,0.41,0.58,1.86,0.66,2.69c0.07,0.83-0.07,57.22-0.07,62.4c0,13-6.16,2-7.16,1"/>
			<path id="kvg:07a50-Kaisho-s4" kvg:type="㇒" d="M29.93,44.97C26.4,55.05,20.5,67.5,12.5,75.75"/>
			<path id="kvg:07a50-Kaisho-s5" kvg:type="㇔/㇏" d="M34.25,52.75c3.25,1.75,6,5.25,7.75,7.5"/>
		</g>
	</g>
	<g id="kvg:07a50-Kaisho-g4" kvg:element="亀" kvg:position="right">
		<g id="kvg:07a50-Kaisho-g5" kvg:element="𠂊" kvg:variant="true" kvg:original="勹" kvg:position="top">
			<path id="kvg:07a50-Kaisho-s6" kvg:type="㇒" d="M57.57,10.5c0.04,0.55,0.09,1.41-0.08,2.2C56.49,17.34,50.8,27.53,43,33.76"/>
			<path id="kvg:07a50-Kaisho-s7" kvg:type="㇇" d="M55.57,19.42c3.7-0.22,16.48-2.48,18.78-2.71c1.98-0.19,2.6,2.06,1.78,3.01c-3.47,4-4.65,5.41-8.32,10.81"/>
		</g>
		<g id="kvg:07a50-Kaisho-g6" kvg:position="bottom">
			<g id="kvg:07a50-Kaisho-g7" kvg:element="日">
				<path id="kvg:07a50-Kaisho-s8" kvg:type="㇑" d="M48.64,32.03c0.23,0.35,1.15,2.03,1.23,2.49c0.86,4.96,1.66,12.38,2.3,19.17"/>
				<path id="kvg:07a50-Kaisho-s9" kvg:type="㇕a" d="M50.22,33.97c8.92-1.85,27.2-4.7,33.41-5.15c1.46-0.1,2.62,2.14,2.5,3.15c-0.42,3.67-1.95,10.84-3.55,17.45"/>
				<path id="kvg:07a50-Kaisho-s10" kvg:type="㇐a" d="M51.72,41.97c7.33-0.98,14.71-1.69,22.06-2.5c0.89-0.1,1.76-0.19,2.59-0.28"/>
				<path id="kvg:07a50-Kaisho-s11" kvg:type="㇐a" d="M52.58,51.28c5.81-0.39,21.97-2.98,29.99-3.61"/>
			</g>
			<g id="kvg:07a50-Kaisho-g8" kvg:element="日">
				<path id="kvg:07a50-Kaisho-s12" kvg:type="㇑" d="M45.88,60.73c0.25,0.45,1.26,2.26,1.4,2.82c1.14,4.65,2.34,14.38,3.05,23.05"/>
				<path id="kvg:07a50-Kaisho-s13" kvg:type="㇕a" d="M47.56,62.08c9.69-1.33,32.59-4.56,38.12-4.58c2.83-0.01,3.91,1.76,3.93,3.92c0.06,4.67-2.68,12.45-3.6,18.95"/>
				<path id="kvg:07a50-Kaisho-s14" kvg:type="㇐a" d="M49.62,71.56c8.49-1.34,17.12-2.07,25.67-3.05c1.05-0.12,2.07-0.24,3.05-0.35"/>
				<path id="kvg:07a50-Kaisho-s15" kvg:type="㇐a" d="M50.4,82.9c7.85-1.15,27.7-3.24,34.98-3.91"/>
			</g>
			<path id="kvg:07a50-Kaisho-s16" kvg:type="㇟" d="M65.19,33.61c0.58,1.17,1.04,2.56,1.07,4.37c0.16,8.09-0.41,40.65-0.41,46.15c0,10.38,3.64,10.9,16.13,10.9C96.5,95.03,97,93,97.11,84.54"/>
		</g>
	</g>
</g>
</g>
<g id="kvg:StrokeNumbers_07a50-Kaisho" style="font-size:8;fill:#808080">
	<text transform="matrix(1 0 0 1 29.50 14.50)">1</text>
	<text transform="matrix(1 0 0 1 5.50 44.55)">2</text>
	<text transform="matrix(1 0 0 1 23.50 35.50)">3</text>
	<text transform="matrix(1 0 0 1 20.50 52.40)">4</text>
	<text transform="matrix(1 0 0 1 34.50 51.50)">5</text>
	<text transform="matrix(1 0 0 1 50.50 13.00)">6</text>
	<text transform="matrix(1 0 0 1 64.50 15.50)">7</text>
	<text transform="matrix(1 0 0 1 44.00 42.35)">8</text>
	<text transform="matrix(1 0 0 1 54.25 29.53)">9</text>
	<text transform="matrix(1 0 0 1 54.00 39.45)">10</text>
	<text transform="matrix(1 0 0 1 55.00 48.38)">11</text>
	<text transform="matrix(1 0 0 1 37.50 72.50)">12</text>
	<text transform="matrix(1 0 0 1 50.50 59.23)">13</text>
	<text transform="matrix(1 0 0 1 51.25 68.40)">14</text>
	<text transform="matrix(1 0 0 1 52.25 79.33)">15</text>
	<text transform="matrix(1 0 0 1 70.00 37.00)">16</text>
</g>
</svg>
