<?xml version="1.0" encoding="UTF-8"?>
<!--
Copyright (C) 2009/2010/2011 Ulrich Apel.
This work is distributed under the conditions of the Creative Commons 
Attribution-Share Alike 3.0 Licence. This means you are free:
* to Share - to copy, distribute and transmit the work
* to Remix - to adapt the work

Under the following conditions:
* Attribution. You must attribute the work by stating your use of KanjiVG in
  your own copyright header and linking to KanjiVG's website
  (http://kanjivg.tagaini.net)
* Share Alike. If you alter, transform, or build upon this work, you may
  distribute the resulting work only under the same or similar license to this
  one.

See http://creativecommons.org/licenses/by-sa/3.0/ for more details.
-->
<!DOCTYPE svg PUBLIC "-//W3C//DTD SVG 1.0//EN" "http://www.w3.org/TR/2001/REC-SVG-20010904/DTD/svg10.dtd" [
<!ATTLIST g
xmlns:kvg CDATA #FIXED "http://kanjivg.tagaini.net"
kvg:element CDATA #IMPLIED
kvg:variant CDATA #IMPLIED
kvg:partial CDATA #IMPLIED
kvg:original CDATA #IMPLIED
kvg:part CDATA #IMPLIED
kvg:number CDATA #IMPLIED
kvg:tradForm CDATA #IMPLIED
kvg:radicalForm CDATA #IMPLIED
kvg:position CDATA #IMPLIED
kvg:radical CDATA #IMPLIED
kvg:phon CDATA #IMPLIED >
<!ATTLIST path
xmlns:kvg CDATA #FIXED "http://kanjivg.tagaini.net"
kvg:type CDATA #IMPLIED >
]>
<svg xmlns="http://www.w3.org/2000/svg" width="109" height="109" viewBox="0 0 109 109">
<g id="kvg:StrokePaths_07a98-Kaisho" style="fill:none;stroke:#000000;stroke-width:3;stroke-linecap:round;stroke-linejoin:round;">
<g id="kvg:07a98-Kaisho" kvg:element="窘">
	<g id="kvg:07a98-Kaisho-g1" kvg:element="穴" kvg:variant="true" kvg:position="top" kvg:radical="general">
		<g id="kvg:07a98-Kaisho-g2" kvg:element="宀" kvg:position="top">
			<path id="kvg:07a98-Kaisho-s1" kvg:type="㇑a" d="M49.6,8.75c2.39,0.73,4.9,3.25,5.76,6.4"/>
			<g id="kvg:07a98-Kaisho-g3" kvg:element="冖">
				<path id="kvg:07a98-Kaisho-s2" kvg:type="㇔" d="M19.27,20.51c0,3.23-2.42,12.09-3.52,14.24"/>
				<path id="kvg:07a98-Kaisho-s3" kvg:type="㇖b" d="M19.37,23.74c12.8-1.99,58.5-5.49,67.84-5.38c12.09,0.14,2.56,7.41-0.45,9.3"/>
			</g>
		</g>
		<g id="kvg:07a98-Kaisho-g4" kvg:element="八" kvg:variant="true" kvg:position="bottom">
			<path id="kvg:07a98-Kaisho-s4" kvg:type="㇒" d="M43.26,24.5c0.05,0.38,0.21,1.02-0.11,1.53c-2.97,4.7-9.22,10.12-18.93,14.64"/>
			<path id="kvg:07a98-Kaisho-s5" kvg:type="㇟/㇏" d="M60.34,22.37c0.45,0.41,0.83,0.9,0.83,1.55c0,1.7-0.32,4.67-0.32,6.62c0,4.54,6.48,4.03,11.78,4.03c5.58,0,10.37-0.59,11.15-0.92"/>
		</g>
	</g>
	<g id="kvg:07a98-Kaisho-g5" kvg:element="君" kvg:position="bottom">
		<g id="kvg:07a98-Kaisho-g6" kvg:element="尹">
			<g id="kvg:07a98-Kaisho-g7" kvg:element="⺕" kvg:variant="true" kvg:original="彑">
				<g id="kvg:07a98-Kaisho-g8" kvg:element="尸" kvg:part="1">
					<path id="kvg:07a98-Kaisho-s6" kvg:type="㇕c" d="M30.24,43.96c3.58,0.78,3.78,0.73,6.14,0.62c14.32-0.62,25.7-2.34,36.95-2.34c3.32,0,5.67,0.37,5.11,3.07c-0.85,4.15-3.55,11.25-5.34,18.26"/>
					<path id="kvg:07a98-Kaisho-s7" kvg:type="㇐" d="M16,55.92c2.29,0.11,4.08,0.36,6.61,0.23c19.23-0.98,49.01-3.04,66.54-3.39c2.8-0.05,5.08,0.23,6.35,0.34"/>
				</g>
				<path id="kvg:07a98-Kaisho-s8" kvg:type="㇐" d="M26.78,67.36c1.28,0.16,3.59,0.57,5.11,0.48c14.06-0.8,25.38-2.82,38.16-3.14c2.04-0.05,3.32,0,4.86,0.16"/>
			</g>
			<g id="kvg:07a98-Kaisho-g9" kvg:element="尸" kvg:part="2">
				<g id="kvg:07a98-Kaisho-g10" kvg:element="丿">
					<path id="kvg:07a98-Kaisho-s9" kvg:type="㇒" d="M51.5,44.25c1.27,0.81,0.31,2.41,0,3.2C45.41,62.89,37.98,79.15,14.25,93"/>
				</g>
			</g>
		</g>
		<g id="kvg:07a98-Kaisho-g11" kvg:element="口">
			<path id="kvg:07a98-Kaisho-s10" kvg:type="㇑" d="M36.5,78.05c0.56,0.36,1.59,2.1,1.67,2.58c0.84,5.09,1.72,12.15,2.87,18.58"/>
			<path id="kvg:07a98-Kaisho-s11" kvg:type="㇕b" d="M37.89,78.84c13.69-1.51,32.87-2.72,39.92-3.23c2.58-0.18,4.13,1.88,3.76,2.97c-1.53,4.53-2.03,7.95-4.33,15.67"/>
			<path id="kvg:07a98-Kaisho-s12" kvg:type="㇐b" d="M40.99,97.4c7.72-0.53,28.51-1.65,38.29-2.12"/>
		</g>
	</g>
</g>
</g>
<g id="kvg:StrokeNumbers_07a98-Kaisho" style="font-size:8;fill:#808080">
	<text transform="matrix(1 0 0 1 43.85 10.85)">1</text>
	<text transform="matrix(1 0 0 1 12.50 21.50)">2</text>
	<text transform="matrix(1 0 0 1 23.50 19.50)">3</text>
	<text transform="matrix(1 0 0 1 30.50 31.50)">4</text>
	<text transform="matrix(1 0 0 1 53.50 30.50)">5</text>
	<text transform="matrix(1 0 0 1 23.50 48.50)">6</text>
	<text transform="matrix(1 0 0 1 8.50 56.50)">7</text>
	<text transform="matrix(1 0 0 1 17.25 67.60)">8</text>
	<text transform="matrix(1 0 0 1 42.50 51.50)">9</text>
	<text transform="matrix(1 0 0 1 28.50 90.50)">10</text>
	<text transform="matrix(1 0 0 1 42.50 75.38)">11</text>
	<text transform="matrix(1 0 0 1 42.50 94.50)">12</text>
</g>
</svg>
