<?xml version="1.0" encoding="UTF-8"?>
<!--
Copyright (C) 2009/2010/2011 Ulrich Apel.
This work is distributed under the conditions of the Creative Commons 
Attribution-Share Alike 3.0 Licence. This means you are free:
* to Share - to copy, distribute and transmit the work
* to Remix - to adapt the work

Under the following conditions:
* Attribution. You must attribute the work by stating your use of KanjiVG in
  your own copyright header and linking to KanjiVG's website
  (http://kanjivg.tagaini.net)
* Share Alike. If you alter, transform, or build upon this work, you may
  distribute the resulting work only under the same or similar license to this
  one.

See http://creativecommons.org/licenses/by-sa/3.0/ for more details.
-->
<!DOCTYPE svg PUBLIC "-//W3C//DTD SVG 1.0//EN" "http://www.w3.org/TR/2001/REC-SVG-20010904/DTD/svg10.dtd" [
<!ATTLIST g
xmlns:kvg CDATA #FIXED "http://kanjivg.tagaini.net"
kvg:element CDATA #IMPLIED
kvg:variant CDATA #IMPLIED
kvg:partial CDATA #IMPLIED
kvg:original CDATA #IMPLIED
kvg:part CDATA #IMPLIED
kvg:number CDATA #IMPLIED
kvg:tradForm CDATA #IMPLIED
kvg:radicalForm CDATA #IMPLIED
kvg:position CDATA #IMPLIED
kvg:radical CDATA #IMPLIED
kvg:phon CDATA #IMPLIED >
<!ATTLIST path
xmlns:kvg CDATA #FIXED "http://kanjivg.tagaini.net"
kvg:type CDATA #IMPLIED >
]>
<svg xmlns="http://www.w3.org/2000/svg" width="109" height="109" viewBox="0 0 109 109">
<g id="kvg:StrokePaths_07ac7" style="fill:none;stroke:#000000;stroke-width:3;stroke-linecap:round;stroke-linejoin:round;">
<g id="kvg:07ac7" kvg:element="竇">
	<g id="kvg:07ac7-g1" kvg:element="穴" kvg:variant="true" kvg:position="top" kvg:radical="general">
		<g id="kvg:07ac7-g2" kvg:element="宀" kvg:position="top">
			<path id="kvg:07ac7-s1" kvg:type="㇑a" d="M51.98,7.5c0.99,0.3,2.4,1.76,2.38,2.61c-0.07,2.7-0.07,4.65-0.08,7.1"/>
			<g id="kvg:07ac7-g3" kvg:element="冖">
				<path id="kvg:07ac7-s2" kvg:type="㇔" d="M19.75,17.25c0,3.45-3.72,12.95-5.41,15.25"/>
				<path id="kvg:07ac7-s3" kvg:type="㇖b" d="M19.37,21.05c12.8-1.81,57-4.54,66.34-4.44c12.09,0.13,2.56,5.83-0.45,7.55"/>
			</g>
		</g>
		<g id="kvg:07ac7-g4" kvg:element="八" kvg:variant="true" kvg:position="bottom">
			<path id="kvg:07ac7-s4" kvg:type="㇒" d="M40.21,22c0.05,0.24,0.18,0.64-0.09,0.96c-2.5,2.96-7.74,6.36-15.89,9.2"/>
			<path id="kvg:07ac7-s5" kvg:type="㇟/㇏" d="M60.09,18.87c0.33,0.24,0.62,0.53,0.62,0.9c0,1-0.24,2.74-0.24,3.88c0,2.66,4.82,2.36,8.76,2.36c4.15,0,7.71-0.34,8.3-0.54"/>
		</g>
	</g>
	<g id="kvg:07ac7-g5" kvg:element="賣" kvg:position="bottom">
		<g id="kvg:07ac7-g6" kvg:position="top">
			<g id="kvg:07ac7-g7" kvg:element="士">
				<path id="kvg:07ac7-s6" kvg:type="㇐" d="M27.41,35.94c1.03,0.43,2.92,0.5,3.95,0.43c10.71-0.73,33.33-3.29,45.9-4.22c1.71-0.13,2.74,0.21,3.6,0.43"/>
				<path id="kvg:07ac7-s7" kvg:type="㇑a" d="M53.28,26.5c0.73,0.3,1.18,1.35,1.32,1.95c0.15,0.6,0,9.27-0.15,13.01"/>
				<path id="kvg:07ac7-s8" kvg:type="㇐" d="M32.92,42.83c0.91,0.31,2.58,0.33,3.49,0.31c12.02-0.36,24.12-3.43,36.82-3.39c1.52,0,2.43,0.14,3.18,0.3"/>
			</g>
			<g id="kvg:07ac7-g8" kvg:element="罒" kvg:variant="true" kvg:original="网">
				<path id="kvg:07ac7-s9" kvg:type="㇑" d="M21.92,49c0.26,0.23,0.53,0.42,0.65,0.71c0.91,2.29,3.1,8.61,3.72,12.73"/>
				<path id="kvg:07ac7-s10" kvg:type="㇕" d="M23.89,50.12c6.97-1.12,58.43-5.78,62.14-6.21c1.35-0.16,2.73,1.13,2.41,2.39c-0.67,2.63-1.32,8.04-3.21,11.82"/>
				<path id="kvg:07ac7-s11" kvg:type="㇒" d="M48.23,49.5c0.08,0.18,0.09,0.47-0.17,0.73c-2.32,2.34-5.3,4.13-15.22,6.4"/>
				<path id="kvg:07ac7-s12" kvg:type="㇄" d="M61.72,47.74c0,0.5,0.28,2.43,0.28,2.78c0,0.97,2.52,1.37,7.34,1.37c4.36,0,7.57-0.5,9.41-0.81"/>
				<path id="kvg:07ac7-s13" kvg:type="㇐" d="M27.62,60.09c4.4-0.43,51.59-3.18,57.63-3.84"/>
			</g>
		</g>
		<g id="kvg:07ac7-g9" kvg:element="貝" kvg:position="bottom">
			<g id="kvg:07ac7-g10" kvg:element="目" kvg:position="top">
				<path id="kvg:07ac7-s14" kvg:type="㇑" d="M33.31,64.76c0.47,0.8,1.12,1.87,1.2,2.97c0.08,1.1,1.41,17.13,1.25,21.77"/>
				<path id="kvg:07ac7-s15" kvg:type="㇕a" d="M34.53,65.53c3.79-0.14,34.66-2.48,38.11-2.65c2.87-0.14,4.41,0.79,4.41,1.86c0,2.61-1.85,21.9-1.85,22.76"/>
				<path id="kvg:07ac7-s16" kvg:type="㇐a" d="M34.84,72.59c6.75-0.41,34.83-2.38,40.61-2.38"/>
				<path id="kvg:07ac7-s17" kvg:type="㇐a" d="M36.37,80.36c9.61-0.91,27.93-2.19,38.12-2.37"/>
				<path id="kvg:07ac7-s18" kvg:type="㇐a" d="M35.75,87.62c9.79-0.67,30.32-1.88,39.24-1.88"/>
			</g>
			<g id="kvg:07ac7-g11" kvg:position="bottom">
				<path id="kvg:07ac7-s19" kvg:type="㇒" d="M43.75,92c0.62,0.76-0.47,1.5-1.69,2.05c-3.7,1.67-13.41,5.23-20.81,7.2"/>
				<path id="kvg:07ac7-s20" kvg:type="㇔" d="M63.75,90.5c8.51,2.66,17.11,8.39,19.25,11"/>
			</g>
		</g>
	</g>
</g>
</g>
<g id="kvg:StrokeNumbers_07ac7" style="font-size:8;fill:#808080">
	<text transform="matrix(1 0 0 1 44.50 8.50)">1</text>
	<text transform="matrix(1 0 0 1 12.50 18.50)">2</text>
	<text transform="matrix(1 0 0 1 23.71 17.85)">3</text>
	<text transform="matrix(1 0 0 1 28.50 27.85)">4</text>
	<text transform="matrix(1 0 0 1 53.50 25.50)">5</text>
	<text transform="matrix(1 0 0 1 37.50 33.50)">6</text>
	<text transform="matrix(1 0 0 1 45.50 27.50)">7</text>
	<text transform="matrix(1 0 0 1 25.75 43.50)">8</text>
	<text transform="matrix(1 0 0 1 13.50 54.50)">9</text>
	<text transform="matrix(1 0 0 1 22.50 48.95)">10</text>
	<text transform="matrix(1 0 0 1 29.50 56.50)">11</text>
	<text transform="matrix(1 0 0 1 52.50 54.80)">12</text>
	<text transform="matrix(1 0 0 1 43.75 57.50)">13</text>
	<text transform="matrix(1 0 0 1 23.75 73.50)">14</text>
	<text transform="matrix(1 0 0 1 35.75 64.58)">15</text>
	<text transform="matrix(1 0 0 1 38.75 71.50)">16</text>
	<text transform="matrix(1 0 0 1 39.50 78.50)">17</text>
	<text transform="matrix(1 0 0 1 39.50 85.35)">18</text>
	<text transform="matrix(1 0 0 1 24.50 95.50)">19</text>
	<text transform="matrix(1 0 0 1 55.00 95.70)">20</text>
</g>
</svg>
