<?xml version="1.0" encoding="UTF-8"?>
<!--
Copyright (C) 2009/2010/2011 Ulrich Apel.
This work is distributed under the conditions of the Creative Commons 
Attribution-Share Alike 3.0 Licence. This means you are free:
* to Share - to copy, distribute and transmit the work
* to Remix - to adapt the work

Under the following conditions:
* Attribution. You must attribute the work by stating your use of KanjiVG in
  your own copyright header and linking to KanjiVG's website
  (http://kanjivg.tagaini.net)
* Share Alike. If you alter, transform, or build upon this work, you may
  distribute the resulting work only under the same or similar license to this
  one.

See http://creativecommons.org/licenses/by-sa/3.0/ for more details.
-->
<!DOCTYPE svg PUBLIC "-//W3C//DTD SVG 1.0//EN" "http://www.w3.org/TR/2001/REC-SVG-20010904/DTD/svg10.dtd" [
<!ATTLIST g
xmlns:kvg CDATA #FIXED "http://kanjivg.tagaini.net"
kvg:element CDATA #IMPLIED
kvg:variant CDATA #IMPLIED
kvg:partial CDATA #IMPLIED
kvg:original CDATA #IMPLIED
kvg:part CDATA #IMPLIED
kvg:number CDATA #IMPLIED
kvg:tradForm CDATA #IMPLIED
kvg:radicalForm CDATA #IMPLIED
kvg:position CDATA #IMPLIED
kvg:radical CDATA #IMPLIED
kvg:phon CDATA #IMPLIED >
<!ATTLIST path
xmlns:kvg CDATA #FIXED "http://kanjivg.tagaini.net"
kvg:type CDATA #IMPLIED >
]>
<svg xmlns="http://www.w3.org/2000/svg" width="109" height="109" viewBox="0 0 109 109">
<g id="kvg:StrokePaths_07ada" style="fill:none;stroke:#000000;stroke-width:3;stroke-linecap:round;stroke-linejoin:round;">
<g id="kvg:07ada" kvg:element="竚">
	<g id="kvg:07ada-g1" kvg:element="立" kvg:position="left" kvg:radical="general">
		<g id="kvg:07ada-g2" kvg:element="亠" kvg:position="top">
			<path id="kvg:07ada-s1" kvg:type="㇑a" d="M24.46,17c1.04,0.95,1.57,2.21,1.57,3.2c0,2.24,0,9.27,0,15.35"/>
			<path id="kvg:07ada-s2" kvg:type="㇐" d="M9.82,37.84c1.04,0.02,2.25-0.06,3.27-0.15c5.81-0.56,16.78-1.9,24.67-2.75c1.71-0.18,2.75-0.17,3.61-0.18"/>
		</g>
		<g id="kvg:07ada-g3" kvg:position="bottom">
			<path id="kvg:07ada-s3" kvg:type="㇔" d="M13.25,47.4c5.66,10.2,8.23,20.63,8.75,27.35"/>
			<path id="kvg:07ada-s4" kvg:type="㇒" d="M35.89,41.75c0.99,1.28,0.56,3.96,0.35,4.99c-2.19,10.54-6.78,27.45-8.73,32.92"/>
			<path id="kvg:07ada-s5" kvg:type="㇀/㇐" d="M11,87.52c0.94,1.24,3.05,1.21,3.98,0.72c10.27-5.37,18.67-10.32,27.77-14.74"/>
		</g>
	</g>
	<g id="kvg:07ada-g4" kvg:position="right">
		<g id="kvg:07ada-g5" kvg:element="宀" kvg:position="top">
			<path id="kvg:07ada-s6" kvg:type="㇑a" d="M69.4,11.5c0.64,0.43,1.56,1.53,1.54,2.77c-0.05,3.9-0.05,8.54-0.05,12.08"/>
			<g id="kvg:07ada-g6" kvg:element="冖">
				<path id="kvg:07ada-s7" kvg:type="㇔" d="M49.73,25.63c0,3.37-3.03,13.62-4.09,15.87"/>
				<path id="kvg:07ada-s8" kvg:type="㇖b" d="M49.25,29.09c6.25-1.09,38.89-3.08,42.66-3.51c10.62-1.23,2.03,7.05,0.66,8.54"/>
			</g>
		</g>
		<g id="kvg:07ada-g7" kvg:element="丁" kvg:position="bottom">
			<g id="kvg:07ada-g8" kvg:element="一">
				<path id="kvg:07ada-s9" kvg:type="㇐" d="M46.47,49.72c1.39,0.39,3.94,0.57,5.33,0.47c9.5-0.62,29.63-3.01,42.09-2.93c2.32,0.02,3.71,0.25,4.87,0.46"/>
			</g>
			<g id="kvg:07ada-g9" kvg:element="亅">
				<path id="kvg:07ada-s10" kvg:type="㇚" d="M72.21,51.11c0.07,0.39,1,2.01,1,4.46c0,14.13-0.2,32.55-0.2,36.56c0,11.36-6.79,0.41-7.99-0.6"/>
			</g>
		</g>
	</g>
</g>
</g>
<g id="kvg:StrokeNumbers_07ada" style="font-size:8;fill:#808080">
	<text transform="matrix(1 0 0 1 15.50 17.50)">1</text>
	<text transform="matrix(1 0 0 1 2.50 37.50)">2</text>
	<text transform="matrix(1 0 0 1 6.50 48.50)">3</text>
	<text transform="matrix(1 0 0 1 28.50 44.50)">4</text>
	<text transform="matrix(1 0 0 1 3.50 86.50)">5</text>
	<text transform="matrix(1 0 0 1 58.50 12.50)">6</text>
	<text transform="matrix(1 0 0 1 44.50 27.50)">7</text>
	<text transform="matrix(1 0 0 1 53.50 25.50)">8</text>
	<text transform="matrix(1 0 0 1 50.50 46.50)">9</text>
	<text transform="matrix(1 0 0 1 61.44 60.46)">10</text>
</g>
</svg>
