<?xml version="1.0" encoding="UTF-8"?>
<!--
Copyright (C) 2009/2010/2011 Ulrich Apel.
This work is distributed under the conditions of the Creative Commons 
Attribution-Share Alike 3.0 Licence. This means you are free:
* to Share - to copy, distribute and transmit the work
* to Remix - to adapt the work

Under the following conditions:
* Attribution. You must attribute the work by stating your use of KanjiVG in
  your own copyright header and linking to KanjiVG's website
  (http://kanjivg.tagaini.net)
* Share Alike. If you alter, transform, or build upon this work, you may
  distribute the resulting work only under the same or similar license to this
  one.

See http://creativecommons.org/licenses/by-sa/3.0/ for more details.
-->
<!DOCTYPE svg PUBLIC "-//W3C//DTD SVG 1.0//EN" "http://www.w3.org/TR/2001/REC-SVG-20010904/DTD/svg10.dtd" [
<!ATTLIST g
xmlns:kvg CDATA #FIXED "http://kanjivg.tagaini.net"
kvg:element CDATA #IMPLIED
kvg:variant CDATA #IMPLIED
kvg:partial CDATA #IMPLIED
kvg:original CDATA #IMPLIED
kvg:part CDATA #IMPLIED
kvg:number CDATA #IMPLIED
kvg:tradForm CDATA #IMPLIED
kvg:radicalForm CDATA #IMPLIED
kvg:position CDATA #IMPLIED
kvg:radical CDATA #IMPLIED
kvg:phon CDATA #IMPLIED >
<!ATTLIST path
xmlns:kvg CDATA #FIXED "http://kanjivg.tagaini.net"
kvg:type CDATA #IMPLIED >
]>
<svg xmlns="http://www.w3.org/2000/svg" width="109" height="109" viewBox="0 0 109 109">
<g id="kvg:StrokePaths_07b4b-Kaisho" style="fill:none;stroke:#000000;stroke-width:3;stroke-linecap:round;stroke-linejoin:round;">
<g id="kvg:07b4b-Kaisho" kvg:element="筋">
	<g id="kvg:07b4b-Kaisho-g1" kvg:element="竹" kvg:variant="true" kvg:position="top" kvg:radical="general">
		<g id="kvg:07b4b-Kaisho-g2" kvg:position="left">
			<path id="kvg:07b4b-Kaisho-s1" kvg:type="㇒" d="M28.92,13.94c0.03,0.48,0.07,1.24-0.07,1.93c-0.86,4.07-5.82,13.02-12.6,18.5"/>
			<path id="kvg:07b4b-Kaisho-s2" kvg:type="㇐b" d="M28.14,25.82c3.83,0,16.14-3.4,20.45-3.4"/>
			<path id="kvg:07b4b-Kaisho-s3" kvg:type="㇔/㇑" d="M33.18,27.92c1.66,1.48,4.29,6.1,4.7,8.41"/>
		</g>
		<g id="kvg:07b4b-Kaisho-g3" kvg:position="right">
			<path id="kvg:07b4b-Kaisho-s4" kvg:type="㇒" d="M62.04,13.63c0.03,0.42,0.12,1.09-0.05,1.68c-1.27,4.4-4.8,10.68-9.47,16.09"/>
			<path id="kvg:07b4b-Kaisho-s5" kvg:type="㇐b" d="M62.04,24.6c4.9,0,23.34-4.19,28.84-4.19"/>
			<path id="kvg:07b4b-Kaisho-s6" kvg:type="㇒/㇚" d="M72.71,25.72c0.01,0.24,0.03,0.63-0.03,0.98c-0.37,2.06-2.51,6.59-5.43,9.37"/>
		</g>
	</g>
	<g id="kvg:07b4b-Kaisho-g4" kvg:element="肋" kvg:position="bottom">
		<g id="kvg:07b4b-Kaisho-g5" kvg:element="月" kvg:position="left">
			<path id="kvg:07b4b-Kaisho-s7" kvg:type="㇒" d="M23.09,42.65c0.73,0.7,1.45,1.38,1.45,2.09c0,7.67-0.79,22.01-0.9,23.58c-0.48,7.49-4.36,22.07-10.9,27.12"/>
			<path id="kvg:07b4b-Kaisho-s8" kvg:type="㇆a" d="M25.43,43.35c2.91-0.17,13.06-1.74,15.23-1.94c3.88-0.35,4.93,2.66,4.84,3.81c-0.25,3.27-0.73,30.2-0.73,44.31c0,9.06-5.81,3.14-8.24,1.57"/>
			<path id="kvg:07b4b-Kaisho-s9" kvg:type="㇐a" d="M24.86,57.14c2.79-0.13,5.57-0.93,8.35-1.21c0.79-0.08,1.61-0.16,2.47-0.24"/>
			<path id="kvg:07b4b-Kaisho-s10" kvg:type="㇐a" d="M23.88,69.78c3.52-0.24,6.54-1,10.06-1.24c0.87-0.06,1.73-0.12,2.58-0.17"/>
		</g>
		<g id="kvg:07b4b-Kaisho-g6" kvg:element="力" kvg:position="right">
			<path id="kvg:07b4b-Kaisho-s11" kvg:type="㇆" d="M57.41,52.27c0.89,0.58,2.01,0.43,2.8,0.31c7.5-1.14,24.91-4.64,28.49-4.85c3.57-0.21,4,1.76,3.65,4.44c-1.1,8.33-7.84,35.84-12.06,40.87c-4.08,4.85-5.2,0.26-6.13-0.58"/>
			<path id="kvg:07b4b-Kaisho-s12" kvg:type="㇒" d="M74.19,38.93c0.07,1.32,0.17,3.41-0.14,5.3c-2.31,13.97-7.8,40.07-24.66,50.68"/>
		</g>
	</g>
</g>
</g>
<g id="kvg:StrokeNumbers_07b4b-Kaisho" style="font-size:8;fill:#808080">
	<text transform="matrix(1 0 0 1 21.50 15.50)">1</text>
	<text transform="matrix(1 0 0 1 35.50 21.05)">2</text>
	<text transform="matrix(1 0 0 1 28.50 33.50)">3</text>
	<text transform="matrix(1 0 0 1 53.50 14.50)">4</text>
	<text transform="matrix(1 0 0 1 66.50 20.50)">5</text>
	<text transform="matrix(1 0 0 1 61.50 33.50)">6</text>
	<text transform="matrix(1 0 0 1 16.50 49.41)">7</text>
	<text transform="matrix(1 0 0 1 26.25 40.33)">8</text>
	<text transform="matrix(1 0 0 1 29.25 52.25)">9</text>
	<text transform="matrix(1 0 0 1 29.25 65.50)">10</text>
	<text transform="matrix(1 0 0 1 53.25 49.10)">11</text>
	<text transform="matrix(1 0 0 1 63.50 44.50)">12</text>
</g>
</svg>
