<?xml version="1.0" encoding="UTF-8"?>
<!--
Copyright (C) 2009/2010/2011 Ulrich Apel.
This work is distributed under the conditions of the Creative Commons 
Attribution-Share Alike 3.0 Licence. This means you are free:
* to Share - to copy, distribute and transmit the work
* to Remix - to adapt the work

Under the following conditions:
* Attribution. You must attribute the work by stating your use of KanjiVG in
  your own copyright header and linking to KanjiVG's website
  (http://kanjivg.tagaini.net)
* Share Alike. If you alter, transform, or build upon this work, you may
  distribute the resulting work only under the same or similar license to this
  one.

See http://creativecommons.org/licenses/by-sa/3.0/ for more details.
-->
<!DOCTYPE svg PUBLIC "-//W3C//DTD SVG 1.0//EN" "http://www.w3.org/TR/2001/REC-SVG-20010904/DTD/svg10.dtd" [
<!ATTLIST g
xmlns:kvg CDATA #FIXED "http://kanjivg.tagaini.net"
kvg:element CDATA #IMPLIED
kvg:variant CDATA #IMPLIED
kvg:partial CDATA #IMPLIED
kvg:original CDATA #IMPLIED
kvg:part CDATA #IMPLIED
kvg:number CDATA #IMPLIED
kvg:tradForm CDATA #IMPLIED
kvg:radicalForm CDATA #IMPLIED
kvg:position CDATA #IMPLIED
kvg:radical CDATA #IMPLIED
kvg:phon CDATA #IMPLIED >
<!ATTLIST path
xmlns:kvg CDATA #FIXED "http://kanjivg.tagaini.net"
kvg:type CDATA #IMPLIED >
]>
<svg xmlns="http://www.w3.org/2000/svg" width="109" height="109" viewBox="0 0 109 109">
<g id="kvg:StrokePaths_07b7a" style="fill:none;stroke:#000000;stroke-width:3;stroke-linecap:round;stroke-linejoin:round;">
<g id="kvg:07b7a" kvg:element="筺">
	<g id="kvg:07b7a-g1" kvg:element="竹" kvg:variant="true" kvg:position="top" kvg:radical="general">
		<g id="kvg:07b7a-g2" kvg:position="left">
			<path id="kvg:07b7a-s1" kvg:type="㇒" d="M29,10.75c0.04,0.56,0.09,1.46-0.09,2.27c-1.07,4.79-7.23,15.29-15.66,21.73"/>
			<path id="kvg:07b7a-s2" kvg:type="㇐b" d="M27.73,22.29c3.71,0,18.61-2.29,22.77-2.29"/>
			<path id="kvg:07b7a-s3" kvg:type="㇔/㇑" d="M33.02,23.83c2.66,1.79,6.88,7.35,7.54,10.13"/>
		</g>
		<g id="kvg:07b7a-g3" kvg:position="right">
			<path id="kvg:07b7a-s4" kvg:type="㇒" d="M64.25,9c0.04,0.53,0.18,1.38-0.09,2.13c-2,5.57-7.56,13.53-14.91,20.37"/>
			<path id="kvg:07b7a-s5" kvg:type="㇐b" d="M62.75,19.99c4.77,0,23.77-2.64,29.13-2.64"/>
			<path id="kvg:07b7a-s6" kvg:type="㇒/㇚" d="M76.99,22.25c0.04,0.28,0.08,0.72-0.07,1.11C76.03,25.71,70.96,30.85,64,34"/>
		</g>
	</g>
	<g id="kvg:07b7a-g4" kvg:element="匡" kvg:variant="true" kvg:position="bottom">
		<g id="kvg:07b7a-g5" kvg:element="匚" kvg:part="1">
			<path id="kvg:07b7a-s7" kvg:type="㇐" d="M22.25,41.11c1.45,0.48,4.11,0.56,5.56,0.48c15.08-0.8,38.94-2.59,55.94-3.68c2.41-0.15,3.86,0.23,5.07,0.47"/>
		</g>
		<g id="kvg:07b7a-g6" kvg:element="玉">
			<g id="kvg:07b7a-g7" kvg:element="王" kvg:original="玉" kvg:partial="true">
				<path id="kvg:07b7a-s8" kvg:type="㇐" d="M38,50.62c0.75,0.22,3.21,0.06,3.97,0.01c8.34-0.54,24.42-1.88,32.96-2.11c1.16-0.03,2.22,0.04,3.18,0.23"/>
				<path id="kvg:07b7a-s9" kvg:type="㇑a" d="M56.91,51.57c0.69,1.13,0.69,1.8,0.69,2.7c0,6.3-0.01,18.63-0.01,28.74"/>
				<path id="kvg:07b7a-s10" kvg:type="㇐" d="M39.52,66.38c0.65,0.17,2.8,0.1,3.46,0.07c6.93-0.29,21.76-1.41,29.89-1.71c0.81-0.03,2.6-0.07,3.81,0.08"/>
				<path id="kvg:07b7a-s11" kvg:type="㇐" d="M33.21,85.14c0.61,0.17,3.77,0.56,4.8,0.47c14.39-1.18,27.5-2.62,42.88-3.03c1.65-0.04,3.64,0.28,4.46,0.54"/>
			</g>
			<g id="kvg:07b7a-g8" kvg:element="丶">
				<path id="kvg:07b7a-s12" kvg:type="㇔" d="M69.27,69.33c2.84,1.3,7.33,5.36,8.04,7.38"/>
			</g>
		</g>
		<g id="kvg:07b7a-g9" kvg:element="匚" kvg:part="2">
			<path id="kvg:07b7a-s13" kvg:type="㇗" d="M25.02,42.05c0,3.24-0.48,50.33-0.48,53.37c0,2.43,0.95,2.94,2.64,2.84c9.61-0.61,55.01-3.44,58.13-3.44c3.12,0,5.76,0.2,7.69,0.61"/>
		</g>
	</g>
</g>
</g>
<g id="kvg:StrokeNumbers_07b7a" style="font-size:8;fill:#808080">
	<text transform="matrix(1 0 0 1 19.75 11.50)">1</text>
	<text transform="matrix(1 0 0 1 36.75 18.50)">2</text>
	<text transform="matrix(1 0 0 1 28.50 31.50)">3</text>
	<text transform="matrix(1 0 0 1 55.50 9.40)">4</text>
	<text transform="matrix(1 0 0 1 72.75 16.50)">5</text>
	<text transform="matrix(1 0 0 1 64.50 29.50)">6</text>
	<text transform="matrix(1 0 0 1 23.75 38.50)">7</text>
	<text transform="matrix(1 0 0 1 30.50 52.10)">8</text>
	<text transform="matrix(1 0 0 1 49.50 59.50)">9</text>
	<text transform="matrix(1 0 0 1 29.50 63.50)">10</text>
	<text transform="matrix(1 0 0 1 28.75 81.50)">11</text>
	<text transform="matrix(1 0 0 1 79.50 72.80)">12</text>
	<text transform="matrix(1 0 0 1 13.75 49.50)">13</text>
</g>
</svg>
