<?xml version="1.0" encoding="UTF-8"?>
<!--
Copyright (C) 2009/2010/2011 Ulrich Apel.
This work is distributed under the conditions of the Creative Commons 
Attribution-Share Alike 3.0 Licence. This means you are free:
* to Share - to copy, distribute and transmit the work
* to Remix - to adapt the work

Under the following conditions:
* Attribution. You must attribute the work by stating your use of KanjiVG in
  your own copyright header and linking to KanjiVG's website
  (http://kanjivg.tagaini.net)
* Share Alike. If you alter, transform, or build upon this work, you may
  distribute the resulting work only under the same or similar license to this
  one.

See http://creativecommons.org/licenses/by-sa/3.0/ for more details.
-->
<!DOCTYPE svg PUBLIC "-//W3C//DTD SVG 1.0//EN" "http://www.w3.org/TR/2001/REC-SVG-20010904/DTD/svg10.dtd" [
<!ATTLIST g
xmlns:kvg CDATA #FIXED "http://kanjivg.tagaini.net"
kvg:element CDATA #IMPLIED
kvg:variant CDATA #IMPLIED
kvg:partial CDATA #IMPLIED
kvg:original CDATA #IMPLIED
kvg:part CDATA #IMPLIED
kvg:number CDATA #IMPLIED
kvg:tradForm CDATA #IMPLIED
kvg:radicalForm CDATA #IMPLIED
kvg:position CDATA #IMPLIED
kvg:radical CDATA #IMPLIED
kvg:phon CDATA #IMPLIED >
<!ATTLIST path
xmlns:kvg CDATA #FIXED "http://kanjivg.tagaini.net"
kvg:type CDATA #IMPLIED >
]>
<svg xmlns="http://www.w3.org/2000/svg" width="109" height="109" viewBox="0 0 109 109">
<g id="kvg:StrokePaths_07b9f" style="fill:none;stroke:#000000;stroke-width:3;stroke-linecap:round;stroke-linejoin:round;">
<g id="kvg:07b9f" kvg:element="箟">
	<g id="kvg:07b9f-g1" kvg:element="竹" kvg:variant="true" kvg:position="top" kvg:radical="tradit">
		<g id="kvg:07b9f-g2" kvg:position="left">
			<path id="kvg:07b9f-s1" kvg:type="㇒" d="M29.24,10.5c0.04,0.49,0.09,1.28-0.09,1.99c-1.06,4.19-7.11,13.38-15.4,19.01"/>
			<path id="kvg:07b9f-s2" kvg:type="㇐b" d="M28.23,19.98c4.27,0,17.98-2.93,22.77-2.93"/>
			<path id="kvg:07b9f-s3" kvg:type="㇔/㇑" d="M34,22.5c1.96,1.58,5.07,6.51,5.56,8.97"/>
		</g>
		<g id="kvg:07b9f-g3" kvg:position="right">
			<path id="kvg:07b9f-s4" kvg:type="㇒" d="M60.75,8.75c0.03,0.45,0.13,1.17-0.06,1.8c-1.47,4.7-5.55,11.42-10.94,17.2"/>
			<path id="kvg:07b9f-s5" kvg:type="㇐b" d="M60.48,17.9c5.49,0,26.1-3.39,32.27-3.39"/>
			<path id="kvg:07b9f-s6" kvg:type="㇒/㇚" d="M74.26,19.25c0.03,0.24,0.06,0.62-0.06,0.97c-0.72,2.05-4.83,6.53-10.45,9.28"/>
		</g>
	</g>
	<g id="kvg:07b9f-g4" kvg:element="昆" kvg:position="bottom">
		<g id="kvg:07b9f-g5" kvg:element="日" kvg:position="top">
			<path id="kvg:07b9f-s7" kvg:type="㇑" d="M26.77,34.48c0.48,0.52,0.97,0.78,0.97,1.48c0,0.69,2.9,21.91,2.9,22.25"/>
			<path id="kvg:07b9f-s8" kvg:type="㇕a" d="M27.47,36.34c3.44-0.09,46.78-2.99,49.92-3.1c2.61-0.09,4.37,1.58,4.08,3.63c-0.15,1.08-1.72,11.88-3.22,19.13"/>
			<path id="kvg:07b9f-s9" kvg:type="㇐a" d="M30.06,46.01c9.19-0.44,43.78-2.63,48.97-2.63"/>
			<path id="kvg:07b9f-s10" kvg:type="㇐a" d="M32.35,56.11c9.94-0.42,33.02-2.04,45.4-2.4"/>
		</g>
		<g id="kvg:07b9f-g6" kvg:element="比" kvg:position="bottom">
			<g id="kvg:07b9f-g7" kvg:position="left">
				<path id="kvg:07b9f-s11" kvg:type="㇐b" d="M28.5,76.12c6.25-1.12,16.37-2.41,20.06-2.58c1.37-0.06,2.54,0,3.69,0.17"/>
				<path id="kvg:07b9f-s12" kvg:type="㇙" d="M26.25,64.05c1.08,0.58,1.46,2.25,1.51,3.09c0.3,5.27,0.16,22.36,0.16,29.36c0,2.5,0.58,3.25,3.84,1.64C38.71,94.7,43.47,91.68,50.5,89"/>
			</g>
			<g id="kvg:07b9f-g8" kvg:element="匕" kvg:position="right">
				<path id="kvg:07b9f-s13" kvg:type="㇒" d="M83.25,64.75c0,1-0.15,2.04-0.85,2.5c-6.15,4-13.65,8.25-22.15,11.25"/>
				<path id="kvg:07b9f-s14" kvg:type="㇟" d="M57.89,60.96c1.36,1.54,1.72,3.49,1.69,4.26c-0.15,4.33-0.31,21.45-0.31,23.77c0,8.51,2.47,9.34,17.22,9.34c13.75,0,15.52-1.83,15.52-11.77"/>
			</g>
		</g>
	</g>
</g>
</g>
<g id="kvg:StrokeNumbers_07b9f" style="font-size:8;fill:#808080">
	<text transform="matrix(1 0 0 1 21.50 9.50)">1</text>
	<text transform="matrix(1 0 0 1 35.50 15.50)">2</text>
	<text transform="matrix(1 0 0 1 29.50 27.50)">3</text>
	<text transform="matrix(1 0 0 1 50.75 7.90)">4</text>
	<text transform="matrix(1 0 0 1 65.50 14.50)">5</text>
	<text transform="matrix(1 0 0 1 60.50 26.50)">6</text>
	<text transform="matrix(1 0 0 1 18.75 40.50)">7</text>
	<text transform="matrix(1 0 0 1 28.50 33.50)">8</text>
	<text transform="matrix(1 0 0 1 32.50 43.50)">9</text>
	<text transform="matrix(1 0 0 1 32.50 53.50)">10</text>
	<text transform="matrix(1 0 0 1 31.50 71.50)">11</text>
	<text transform="matrix(1 0 0 1 14.50 65.50)">12</text>
	<text transform="matrix(1 0 0 1 71.75 65.50)">13</text>
	<text transform="matrix(1 0 0 1 47.50 65.50)">14</text>
</g>
</svg>
