<?xml version="1.0" encoding="UTF-8"?>
<!--
Copyright (C) 2009/2010/2011 Ulrich Apel.
This work is distributed under the conditions of the Creative Commons 
Attribution-Share Alike 3.0 Licence. This means you are free:
* to Share - to copy, distribute and transmit the work
* to Remix - to adapt the work

Under the following conditions:
* Attribution. You must attribute the work by stating your use of KanjiVG in
  your own copyright header and linking to KanjiVG's website
  (http://kanjivg.tagaini.net)
* Share Alike. If you alter, transform, or build upon this work, you may
  distribute the resulting work only under the same or similar license to this
  one.

See http://creativecommons.org/licenses/by-sa/3.0/ for more details.
-->
<!DOCTYPE svg PUBLIC "-//W3C//DTD SVG 1.0//EN" "http://www.w3.org/TR/2001/REC-SVG-20010904/DTD/svg10.dtd" [
<!ATTLIST g
xmlns:kvg CDATA #FIXED "http://kanjivg.tagaini.net"
kvg:element CDATA #IMPLIED
kvg:variant CDATA #IMPLIED
kvg:partial CDATA #IMPLIED
kvg:original CDATA #IMPLIED
kvg:part CDATA #IMPLIED
kvg:number CDATA #IMPLIED
kvg:tradForm CDATA #IMPLIED
kvg:radicalForm CDATA #IMPLIED
kvg:position CDATA #IMPLIED
kvg:radical CDATA #IMPLIED
kvg:phon CDATA #IMPLIED >
<!ATTLIST path
xmlns:kvg CDATA #FIXED "http://kanjivg.tagaini.net"
kvg:type CDATA #IMPLIED >
]>
<svg xmlns="http://www.w3.org/2000/svg" width="109" height="109" viewBox="0 0 109 109">
<g id="kvg:StrokePaths_07bad" style="fill:none;stroke:#000000;stroke-width:3;stroke-linecap:round;stroke-linejoin:round;">
<g id="kvg:07bad" kvg:element="箭">
	<g id="kvg:07bad-g1" kvg:element="竹" kvg:variant="true" kvg:position="top" kvg:radical="general">
		<g id="kvg:07bad-g2" kvg:position="left">
			<path id="kvg:07bad-s1" kvg:type="㇒" d="M27,12c0.1,0.87,0.02,1.72-0.22,2.54c-2.03,4.71-5.5,10.93-11.78,17.21"/>
			<path id="kvg:07bad-s2" kvg:type="㇐b" d="M27.73,20.29c1.14,0.16,2.27,0.18,3.4,0.05c3.73-0.32,9.42-1.25,13.62-1.72c1.66-0.21,3.32-0.25,5-0.12"/>
			<path id="kvg:07bad-s3" kvg:type="㇔/㇑" d="M35.52,22.83c1.96,1.35,5.05,5.54,5.54,7.63"/>
		</g>
		<g id="kvg:07bad-g3" kvg:position="right">
			<path id="kvg:07bad-s4" kvg:type="㇒" d="M62.24,9.5c0,0.88-0.25,1.78-0.66,2.59c-1.64,4.13-5.2,9.3-10.08,14.16"/>
			<path id="kvg:07bad-s5" kvg:type="㇐b" d="M61.98,18.16c1.56,0.13,3.11,0.12,4.65-0.04c5.3-0.5,13.39-1.74,19.11-2.35c1.95-0.22,3.91-0.28,5.88-0.18"/>
			<path id="kvg:07bad-s6" kvg:type="㇒/㇚" d="M72.52,20.75c0,0.75-0.27,1.24-0.64,1.75c-1.51,2.12-2.88,4-6.88,7"/>
		</g>
	</g>
	<g id="kvg:07bad-g4" kvg:element="前" kvg:position="bottom">
		<g id="kvg:07bad-g5" kvg:position="top">
			<path id="kvg:07bad-s7" kvg:type="㇔" d="M34.86,33.36c2.94,1.64,7.34,6.24,8.08,8.8"/>
			<path id="kvg:07bad-s8" kvg:type="㇒" d="M71.51,31.75c0.04,0.77-0.39,1.45-0.82,2.04c-1.45,2.24-3.7,5.21-6.38,7.39"/>
			<path id="kvg:07bad-s9" kvg:type="㇐" d="M15.88,46.89c2.67,0.46,5.34,0.55,8.01,0.28c17.2-1.68,35.82-3.54,59.61-4.55c3.41-0.17,6.81-0.01,10.21,0.48"/>
		</g>
		<g id="kvg:07bad-g6" kvg:position="bottom">
			<g id="kvg:07bad-g7" kvg:element="月">
				<path id="kvg:07bad-s10" kvg:type="㇒" d="M24.61,55.02c0.75,0.75,0.89,1.86,0.89,3.02c0,0.48,0,22.17,0,33.46c0,3.06,0,5.35,0,6.25"/>
				<path id="kvg:07bad-s11" kvg:type="㇆a" d="M26.89,56.11c1.54-0.13,13.77-2.02,17.88-2.63c3.55-0.53,4.1,1.27,4.1,4.39c0,6.62-0.08,26.6-0.08,36.87c0,7.01-4.29,2.26-6.78-0.17"/>
				<path id="kvg:07bad-s12" kvg:type="㇐a" d="M26.39,67.5c6.07-0.89,16.23-1.47,21.56-1.91"/>
				<path id="kvg:07bad-s13" kvg:type="㇐a" d="M26.33,79.68c4.73-0.45,15.84-1.53,21.31-1.82"/>
			</g>
			<g id="kvg:07bad-g8" kvg:element="刂" kvg:variant="true" kvg:original="刀">
				<path id="kvg:07bad-s14" kvg:type="㇑" d="M64.96,55.11c0.71,0.71,0.96,2.14,0.96,3.57c0,6.61,0,13.88,0,19.45c0,2.93,0,5.39,0,7.04"/>
				<path id="kvg:07bad-s15" kvg:type="㇚" d="M81.94,49.66c0.89,0.89,1.21,2.47,1.21,4.12c0,11.73,0,34.01,0,37.93c0,9.55-3.4,5.3-8.38,1.82"/>
			</g>
		</g>
	</g>
</g>
</g>
<g id="kvg:StrokeNumbers_07bad" style="font-size:8;fill:#808080">
	<text transform="matrix(1 0 0 1 20.25 12.50)">1</text>
	<text transform="matrix(1 0 0 1 31.50 17.50)">2</text>
	<text transform="matrix(1 0 0 1 30.50 28.50)">3</text>
	<text transform="matrix(1 0 0 1 53.50 9.50)">4</text>
	<text transform="matrix(1 0 0 1 66.50 14.50)">5</text>
	<text transform="matrix(1 0 0 1 62.50 25.50)">6</text>
	<text transform="matrix(1 0 0 1 28.50 36.50)">7</text>
	<text transform="matrix(1 0 0 1 61.50 36.50)">8</text>
	<text transform="matrix(1 0 0 1 8.25 47.50)">9</text>
	<text transform="matrix(1 0 0 1 15.25 62.50)">10</text>
	<text transform="matrix(1 0 0 1 28.50 53.50)">11</text>
	<text transform="matrix(1 0 0 1 29.50 64.50)">12</text>
	<text transform="matrix(1 0 0 1 29.50 76.50)">13</text>
	<text transform="matrix(1 0 0 1 54.50 55.50)">14</text>
	<text transform="matrix(1 0 0 1 70.50 52.50)">15</text>
</g>
</svg>
