<?xml version="1.0" encoding="UTF-8"?>
<!--
Copyright (C) 2009/2010/2011 Ulrich Apel.
This work is distributed under the conditions of the Creative Commons 
Attribution-Share Alike 3.0 Licence. This means you are free:
* to Share - to copy, distribute and transmit the work
* to Remix - to adapt the work

Under the following conditions:
* Attribution. You must attribute the work by stating your use of KanjiVG in
  your own copyright header and linking to KanjiVG's website
  (http://kanjivg.tagaini.net)
* Share Alike. If you alter, transform, or build upon this work, you may
  distribute the resulting work only under the same or similar license to this
  one.

See http://creativecommons.org/licenses/by-sa/3.0/ for more details.
-->
<!DOCTYPE svg PUBLIC "-//W3C//DTD SVG 1.0//EN" "http://www.w3.org/TR/2001/REC-SVG-20010904/DTD/svg10.dtd" [
<!ATTLIST g
xmlns:kvg CDATA #FIXED "http://kanjivg.tagaini.net"
kvg:element CDATA #IMPLIED
kvg:variant CDATA #IMPLIED
kvg:partial CDATA #IMPLIED
kvg:original CDATA #IMPLIED
kvg:part CDATA #IMPLIED
kvg:number CDATA #IMPLIED
kvg:tradForm CDATA #IMPLIED
kvg:radicalForm CDATA #IMPLIED
kvg:position CDATA #IMPLIED
kvg:radical CDATA #IMPLIED
kvg:phon CDATA #IMPLIED >
<!ATTLIST path
xmlns:kvg CDATA #FIXED "http://kanjivg.tagaini.net"
kvg:type CDATA #IMPLIED >
]>
<svg xmlns="http://www.w3.org/2000/svg" width="109" height="109" viewBox="0 0 109 109">
<g id="kvg:StrokePaths_07bf3" style="fill:none;stroke:#000000;stroke-width:3;stroke-linecap:round;stroke-linejoin:round;">
<g id="kvg:07bf3" kvg:element="篳">
	<g id="kvg:07bf3-g1" kvg:element="竹" kvg:variant="true" kvg:position="top" kvg:radical="general">
		<g id="kvg:07bf3-g2" kvg:position="left">
			<path id="kvg:07bf3-s1" kvg:type="㇒" d="M31.75,9.25c0.04,0.52,0.09,1.35-0.08,2.11c-1.02,4.44-6.39,13.18-14.41,19.14"/>
			<path id="kvg:07bf3-s2" kvg:type="㇐b" d="M30,18.7c4.03,0,16.97-1.91,21.5-1.91"/>
			<path id="kvg:07bf3-s3" kvg:type="㇔/㇑" d="M37.27,20.83c1.87,1.17,4.83,4.81,5.29,6.63"/>
		</g>
		<g id="kvg:07bf3-g3" kvg:position="right">
			<path id="kvg:07bf3-s4" kvg:type="㇒" d="M62.52,8.25c0.03,0.42,0.11,1.09-0.05,1.68C61.26,14.32,57.92,20.6,53.5,26"/>
			<path id="kvg:07bf3-s5" kvg:type="㇐b" d="M63.23,16.52c5.01,0,23.89-3.08,29.52-3.08"/>
			<path id="kvg:07bf3-s6" kvg:type="㇒/㇚" d="M77,19c0.02,0.17,0.05,0.43-0.04,0.66c-0.56,1.4-3.79,4.46-8.2,6.34"/>
		</g>
	</g>
	<g id="kvg:07bf3-g4" kvg:element="畢" kvg:position="bottom">
		<g id="kvg:07bf3-g5" kvg:element="田" kvg:position="top">
			<path id="kvg:07bf3-s7" kvg:type="㇑" d="M28.99,32.27c0.29,0.33,0.3,0.56,0.46,0.98c1.32,3.43,2.56,12.58,3.37,18.96"/>
			<path id="kvg:07bf3-s8" kvg:type="㇕a" d="M30.5,33c13.21-1.15,36.77-3.2,46.64-4.14c3.62-0.35,4.65,1.56,4.46,3.92c-0.28,3.6-2.14,12.49-3.68,18.45"/>
			<path id="kvg:07bf3-s9" kvg:type="㇑a" d="M54.48,30.97c0.51,4.81,0.25,15.33,0.25,18.54"/>
			<path id="kvg:07bf3-s10" kvg:type="㇐a" d="M32.09,41.89c4.42-0.29,44.26-2.9,47.92-3.07"/>
			<path id="kvg:07bf3-s11" kvg:type="㇐a" d="M33.56,51.24c11.04-0.72,31.45-1.78,44.79-2.35"/>
		</g>
		<g id="kvg:07bf3-g6" kvg:position="bottom">
			<path id="kvg:07bf3-s12" kvg:type="㇐" d="M15.5,63.17c1.49,0.46,4.23,0.58,5.72,0.46c15.88-1.26,53.19-4,69.82-3.99c2.48,0,3.97,0.22,5.22,0.45"/>
			<path id="kvg:07bf3-s13" kvg:type="㇑" d="M34.65,56c0.81,0.92,1.08,1.2,1.16,1.76c0.81,5.29,1.3,10.31,1.53,12.24"/>
			<path id="kvg:07bf3-s14" kvg:type="㇑" d="M72.6,54.5c0.41,0.82,0.93,1.74,0.65,2.78c-0.97,3.65-1.21,5.76-2.43,10.97"/>
			<path id="kvg:07bf3-s15" kvg:type="㇐" d="M27.75,74.38c1.5,0.31,3.25,0.42,4.74,0.31c14.94-1.01,28.82-2.47,45.02-3.07c2.48-0.09,3.99,0.15,5.24,0.31"/>
			<path id="kvg:07bf3-s16" kvg:type="㇐" d="M20.25,85.14c1.58,0.25,3.43,0.34,5,0.25c15.76-0.83,43.89-2.31,60.97-2.81c2.63-0.08,4.21,0.12,5.53,0.25"/>
			<g id="kvg:07bf3-g7" kvg:element="丨">
				<path id="kvg:07bf3-s17" kvg:type="㇑" d="M53.4,52.75c0.66,0.38,1.06,1.72,1.19,2.48c0.13,0.76,0,41.25-0.13,46.02"/>
			</g>
		</g>
	</g>
</g>
</g>
<g id="kvg:StrokeNumbers_07bf3" style="font-size:8;fill:#808080">
	<text transform="matrix(1 0 0 1 24.50 8.50)">1</text>
	<text transform="matrix(1 0 0 1 36.50 15.50)">2</text>
	<text transform="matrix(1 0 0 1 32.50 26.50)">3</text>
	<text transform="matrix(1 0 0 1 53.50 10.50)">4</text>
	<text transform="matrix(1 0 0 1 68.50 13.50)">5</text>
	<text transform="matrix(1 0 0 1 62.50 25.50)">6</text>
	<text transform="matrix(1 0 0 1 22.75 40.93)">7</text>
	<text transform="matrix(1 0 0 1 27.50 29.50)">8</text>
	<text transform="matrix(1 0 0 1 48.50 38.50)">9</text>
	<text transform="matrix(1 0 0 1 35.25 39.50)">10</text>
	<text transform="matrix(1 0 0 1 36.50 49.50)">11</text>
	<text transform="matrix(1 0 0 1 4.50 64.05)">12</text>
	<text transform="matrix(1 0 0 1 22.75 59.23)">13</text>
	<text transform="matrix(1 0 0 1 62.50 57.50)">14</text>
	<text transform="matrix(1 0 0 1 17.50 75.83)">15</text>
	<text transform="matrix(1 0 0 1 9.50 87.00)">16</text>
	<text transform="matrix(1 0 0 1 44.75 58.18)">17</text>
</g>
</svg>
