<?xml version="1.0" encoding="UTF-8"?>
<!--
Copyright (C) 2009/2010/2011 Ulrich Apel.
This work is distributed under the conditions of the Creative Commons 
Attribution-Share Alike 3.0 Licence. This means you are free:
* to Share - to copy, distribute and transmit the work
* to Remix - to adapt the work

Under the following conditions:
* Attribution. You must attribute the work by stating your use of KanjiVG in
  your own copyright header and linking to KanjiVG's website
  (http://kanjivg.tagaini.net)
* Share Alike. If you alter, transform, or build upon this work, you may
  distribute the resulting work only under the same or similar license to this
  one.

See http://creativecommons.org/licenses/by-sa/3.0/ for more details.
-->
<!DOCTYPE svg PUBLIC "-//W3C//DTD SVG 1.0//EN" "http://www.w3.org/TR/2001/REC-SVG-20010904/DTD/svg10.dtd" [
<!ATTLIST g
xmlns:kvg CDATA #FIXED "http://kanjivg.tagaini.net"
kvg:element CDATA #IMPLIED
kvg:variant CDATA #IMPLIED
kvg:partial CDATA #IMPLIED
kvg:original CDATA #IMPLIED
kvg:part CDATA #IMPLIED
kvg:number CDATA #IMPLIED
kvg:tradForm CDATA #IMPLIED
kvg:radicalForm CDATA #IMPLIED
kvg:position CDATA #IMPLIED
kvg:radical CDATA #IMPLIED
kvg:phon CDATA #IMPLIED >
<!ATTLIST path
xmlns:kvg CDATA #FIXED "http://kanjivg.tagaini.net"
kvg:type CDATA #IMPLIED >
]>
<svg xmlns="http://www.w3.org/2000/svg" width="109" height="109" viewBox="0 0 109 109">
<g id="kvg:StrokePaths_07c00-KaishoVtLst" style="fill:none;stroke:#000000;stroke-width:3;stroke-linecap:round;stroke-linejoin:round;">
<g id="kvg:07c00-KaishoVtLst" kvg:element="簀">
	<g id="kvg:07c00-KaishoVtLst-g1" kvg:element="竹" kvg:variant="true" kvg:position="top" kvg:radical="general">
		<g id="kvg:07c00-KaishoVtLst-g2" kvg:position="left">
			<path id="kvg:07c00-KaishoVtLst-s1" kvg:type="㇒" d="M26.75,8c0.04,0.52,0.08,1.34-0.08,2.08C25.7,14.47,20.13,24.1,12.5,30"/>
			<path id="kvg:07c00-KaishoVtLst-s2" kvg:type="㇐b" d="M26.5,19.1c4.31,0,18.16-2.46,23-2.46"/>
			<path id="kvg:07c00-KaishoVtLst-s3" kvg:type="㇔/㇑" d="M32.27,20.83c2.47,1.88,6.37,7.74,6.98,10.67"/>
		</g>
		<g id="kvg:07c00-KaishoVtLst-g3" kvg:position="right">
			<path id="kvg:07c00-KaishoVtLst-s4" kvg:type="㇒" d="M61.73,7.5c0.04,0.4,0.15,1.04-0.07,1.61c-1.67,4.21-6.29,10.22-12.41,15.39"/>
			<path id="kvg:07c00-KaishoVtLst-s5" kvg:type="㇐b" d="M60.25,17.17c5.49,0,25.59-3.31,31.75-3.31"/>
			<path id="kvg:07c00-KaishoVtLst-s6" kvg:type="㇒/㇚" d="M74.99,19.25c0.03,0.24,0.06,0.61-0.06,0.95c-0.72,2-4.82,6.37-10.43,9.05"/>
		</g>
	</g>
	<g id="kvg:07c00-KaishoVtLst-g4" kvg:element="責" kvg:position="bottom">
		<g id="kvg:07c00-KaishoVtLst-g5" kvg:position="top">
			<path id="kvg:07c00-KaishoVtLst-s7" kvg:type="㇐" d="M27.31,36.47c1.37,0.11,3.89,0.14,5.27,0.13c9.91-0.09,36.78-2.48,45.33-2.59c2.28-0.03,3.23-0.01,4.44,0.02"/>
			<path id="kvg:07c00-KaishoVtLst-s8" kvg:type="㇐" d="M26.66,45.01c1.12,0.26,3.17,0.35,4.3,0.32c8.08-0.19,37.61-2.17,44.58-2.4c1.86-0.06,3.23,0.01,4.22,0.07"/>
			<path id="kvg:07c00-KaishoVtLst-s9" kvg:type="㇐" d="M17.81,53.13c1.31,0.19,3.7,0.3,5,0.23c12.1-0.62,51.96-2.85,64.08-3.13c2.16-0.05,3.84-0.19,5.36,0.01"/>
			<path id="kvg:07c00-KaishoVtLst-s10" kvg:type="㇑" d="M53.28,27.12c0.44,0.2,1.47,1.83,1.47,2.21c0,5.21,0.21,16.42,0.25,22.27"/>
		</g>
		<g id="kvg:07c00-KaishoVtLst-g6" kvg:element="貝" kvg:position="bottom">
			<g id="kvg:07c00-KaishoVtLst-g7" kvg:element="目" kvg:position="top">
				<path id="kvg:07c00-KaishoVtLst-s11" kvg:type="㇑" d="M32.15,58.71c0.55,0.63,1.35,1.09,1.35,1.94s-0.19,26.61-0.01,27.45"/>
				<path id="kvg:07c00-KaishoVtLst-s12" kvg:type="㇕a" d="M34.45,60.61c3.95-0.14,34.92-2.44,38.52-2.44c2.27,0,3.61,0.84,3.61,3.18c0,5.19-0.77,23.93-0.77,24.54"/>
				<path id="kvg:07c00-KaishoVtLst-s13" kvg:type="㇐a" d="M34.64,67.78c6.82-0.08,13.64-0.42,20.45-0.66c2.22-0.08,4.44-0.16,6.57-0.23"/>
				<path id="kvg:07c00-KaishoVtLst-s14" kvg:type="㇐a" d="M34.95,76.4c6.51-0.07,14.02-0.38,20.53-0.62c1.99-0.07,4-0.15,5.97-0.21"/>
				<path id="kvg:07c00-KaishoVtLst-s15" kvg:type="㇐a" d="M35.75,84.5c7.86-0.06,26.04-0.43,38.44-0.85"/>
			</g>
			<g id="kvg:07c00-KaishoVtLst-g8" kvg:position="bottom">
				<path id="kvg:07c00-KaishoVtLst-s16" kvg:type="㇒" d="M43.55,89c-0.3,2-1.18,3.13-2.43,3.82c-3.79,2.08-13.06,5.25-20.64,7.65"/>
				<path id="kvg:07c00-KaishoVtLst-s17" kvg:type="㇔" d="M63,88.46c8.96,3.47,19.56,9.63,22,12.54"/>
			</g>
		</g>
	</g>
</g>
</g>
<g id="kvg:StrokeNumbers_07c00-KaishoVtLst" style="font-size:8;fill:#808080">
	<text transform="matrix(1 0 0 1 18.85 7.50)">1</text>
	<text transform="matrix(1 0 0 1 32.50 15.50)">2</text>
	<text transform="matrix(1 0 0 1 26.50 28.50)">3</text>
	<text transform="matrix(1 0 0 1 51.50 7.50)">4</text>
	<text transform="matrix(1 0 0 1 65.50 13.50)">5</text>
	<text transform="matrix(1 0 0 1 62.50 25.50)">6</text>
	<text transform="matrix(1 0 0 1 20.50 37.50)">7</text>
	<text transform="matrix(1 0 0 1 19.50 45.50)">8</text>
	<text transform="matrix(1 0 0 1 7.50 54.95)">9</text>
	<text transform="matrix(1 0 0 1 44.50 31.50)">10</text>
	<text transform="matrix(1 0 0 1 22.25 66.88)">11</text>
	<text transform="matrix(1 0 0 1 36.50 58.80)">12</text>
	<text transform="matrix(1 0 0 1 37.50 66.73)">13</text>
	<text transform="matrix(1 0 0 1 37.50 74.50)">14</text>
	<text transform="matrix(1 0 0 1 37.50 82.58)">15</text>
	<text transform="matrix(1 0 0 1 23.50 94.50)">16</text>
	<text transform="matrix(1 0 0 1 53.50 94.50)">17</text>
</g>
</svg>
