<?xml version="1.0" encoding="UTF-8"?>
<!--
Copyright (C) 2009/2010/2011 Ulrich Apel.
This work is distributed under the conditions of the Creative Commons 
Attribution-Share Alike 3.0 Licence. This means you are free:
* to Share - to copy, distribute and transmit the work
* to Remix - to adapt the work

Under the following conditions:
* Attribution. You must attribute the work by stating your use of KanjiVG in
  your own copyright header and linking to KanjiVG's website
  (http://kanjivg.tagaini.net)
* Share Alike. If you alter, transform, or build upon this work, you may
  distribute the resulting work only under the same or similar license to this
  one.

See http://creativecommons.org/licenses/by-sa/3.0/ for more details.
-->
<!DOCTYPE svg PUBLIC "-//W3C//DTD SVG 1.0//EN" "http://www.w3.org/TR/2001/REC-SVG-20010904/DTD/svg10.dtd" [
<!ATTLIST g
xmlns:kvg CDATA #FIXED "http://kanjivg.tagaini.net"
kvg:element CDATA #IMPLIED
kvg:variant CDATA #IMPLIED
kvg:partial CDATA #IMPLIED
kvg:original CDATA #IMPLIED
kvg:part CDATA #IMPLIED
kvg:number CDATA #IMPLIED
kvg:tradForm CDATA #IMPLIED
kvg:radicalForm CDATA #IMPLIED
kvg:position CDATA #IMPLIED
kvg:radical CDATA #IMPLIED
kvg:phon CDATA #IMPLIED >
<!ATTLIST path
xmlns:kvg CDATA #FIXED "http://kanjivg.tagaini.net"
kvg:type CDATA #IMPLIED >
]>
<svg xmlns="http://www.w3.org/2000/svg" width="109" height="109" viewBox="0 0 109 109">
<g id="kvg:StrokePaths_07c27" style="fill:none;stroke:#000000;stroke-width:3;stroke-linecap:round;stroke-linejoin:round;">
<g id="kvg:07c27" kvg:element="簧">
	<g id="kvg:07c27-g1" kvg:element="竹" kvg:variant="true" kvg:position="top" kvg:radical="general">
		<g id="kvg:07c27-g2" kvg:position="left">
			<path id="kvg:07c27-s1" kvg:type="㇒" d="M29.5,10.25c0.04,0.49,0.08,1.26-0.08,1.96C28.45,16.35,22.87,25.44,15.25,31"/>
			<path id="kvg:07c27-s2" kvg:type="㇐b" d="M27.73,19.79c3.71,0,18.61-2.29,22.77-2.29"/>
			<path id="kvg:07c27-s3" kvg:type="㇔/㇑" d="M35.27,21.08c1.69,1.21,4.37,4.99,4.79,6.88"/>
		</g>
		<g id="kvg:07c27-g3" kvg:position="right">
			<path id="kvg:07c27-s4" kvg:type="㇒" d="M61.25,9c0.02,0.35,0.1,0.92-0.05,1.42c-1.14,3.71-4.28,9.02-8.45,13.58"/>
			<path id="kvg:07c27-s5" kvg:type="㇐b" d="M61.48,18.16c4.73,0,24.58-3.07,29.9-3.07"/>
			<path id="kvg:07c27-s6" kvg:type="㇒/㇚" d="M75.77,18.5c0.02,0.19,0.05,0.49-0.04,0.76c-0.53,1.6-3.57,5.1-7.73,7.24"/>
		</g>
	</g>
	<g id="kvg:07c27-g4" kvg:element="黃" kvg:variant="true" kvg:original="黄" kvg:position="bottom">
		<path id="kvg:07c27-s7" kvg:type="㇐" d="M22.63,39.73c1.21,0.37,3.42,0.44,4.62,0.37C42,39.29,67,35.77,82.91,35.85c2.01,0.01,3.22,0.17,4.22,0.36"/>
		<path id="kvg:07c27-s8" kvg:type="㇑" d="M39.53,32.03c0.57,0.25,1.78,1.82,1.8,2.31c0.17,3.33,0.57,8.97,1.17,14.77"/>
		<path id="kvg:07c27-s9" kvg:type="㇑" d="M65.6,28.63c0.57,0.29,1.24,2.13,1.14,2.7c-0.57,3.49-1.63,8.37-2.58,14.88"/>
		<path id="kvg:07c27-s10" kvg:type="㇐" d="M42.73,47.85c3.71,0,20.61-1.79,24.77-1.79"/>
		<path id="kvg:07c27-s11" kvg:type="㇐" d="M15.88,56.79c1.52,0.44,4.31,0.5,5.82,0.44c9.55-0.38,43.55-4.4,66.11-3.74c2.53,0.07,4.05,0.21,5.31,0.43"/>
		<path id="kvg:07c27-s12" kvg:type="㇑" d="M27.22,63.9c0.84,0.37,2.01,1.46,2.08,1.95c0.54,3.79,1.91,13.22,2.89,20.54"/>
		<path id="kvg:07c27-s13" kvg:type="㇕" d="M30.48,65.01c12.86-0.71,38.17-3.67,46.95-3.54c2.08,0.03,3.46,2.51,3.27,3.58c-0.72,3.91-1.94,12.95-4.2,19.4"/>
		<path id="kvg:07c27-s14" kvg:type="㇑" d="M51.66,56.58c0.86,0.33,2.21,1.54,2.21,1.95c0.02,6.8,0.18,21.96,0.18,23.77"/>
		<path id="kvg:07c27-s15" kvg:type="㇐" d="M31.08,75.01c4.3-0.19,44.16-3.4,47.71-3.4"/>
		<path id="kvg:07c27-s16" kvg:type="㇐" d="M33.38,84.86c12.45-1.36,29.07-2.55,43.73-3.04"/>
		<path id="kvg:07c27-s17" kvg:type="㇒" d="M40.82,89.64c0.06,0.32,0.13,0.82-0.12,1.28c-1.5,2.7-10.13,7.7-21.94,11.33"/>
		<path id="kvg:07c27-s18" kvg:type="㇔" d="M67.25,89.05c6.53,2.15,16.87,8.85,18.5,12.2"/>
	</g>
</g>
</g>
<g id="kvg:StrokeNumbers_07c27" style="font-size:8;fill:#808080">
	<text transform="matrix(1 0 0 1 21.50 10.50)">1</text>
	<text transform="matrix(1 0 0 1 36.50 16.50)">2</text>
	<text transform="matrix(1 0 0 1 29.50 28.50)">3</text>
	<text transform="matrix(1 0 0 1 52.50 10.50)">4</text>
	<text transform="matrix(1 0 0 1 71.72 14.50)">5</text>
	<text transform="matrix(1 0 0 1 63.50 25.50)">6</text>
	<text transform="matrix(1 0 0 1 15.25 40.68)">7</text>
	<text transform="matrix(1 0 0 1 31.50 36.50)">8</text>
	<text transform="matrix(1 0 0 1 56.50 32.50)">9</text>
	<text transform="matrix(1 0 0 1 45.50 45.50)">10</text>
	<text transform="matrix(1 0 0 1 5.50 56.50)">11</text>
	<text transform="matrix(1 0 0 1 16.50 67.50)">12</text>
	<text transform="matrix(1 0 0 1 30.50 63.50)">13</text>
	<text transform="matrix(1 0 0 1 44.50 61.50)">14</text>
	<text transform="matrix(1 0 0 1 34.50 72.50)">15</text>
	<text transform="matrix(1 0 0 1 35.50 82.50)">16</text>
	<text transform="matrix(1 0 0 1 22.50 94.50)">17</text>
	<text transform="matrix(1 0 0 1 55.50 95.50)">18</text>
</g>
</svg>
