<?xml version="1.0" encoding="UTF-8"?>
<!--
Copyright (C) 2009/2010/2011 Ulrich Apel.
This work is distributed under the conditions of the Creative Commons
Attribution-Share Alike 3.0 Licence. This means you are free:
* to Share - to copy, distribute and transmit the work
* to Remix - to adapt the work

Under the following conditions:
* Attribution. You must attribute the work by stating your use of KanjiVG in
  your own copyright header and linking to KanjiVG's website
  (http://kanjivg.tagaini.net)
* Share Alike. If you alter, transform, or build upon this work, you may
  distribute the resulting work only under the same or similar license to this
  one.

See http://creativecommons.org/licenses/by-sa/3.0/ for more details.
-->
<!DOCTYPE svg PUBLIC "-//W3C//DTD SVG 1.0//EN" "http://www.w3.org/TR/2001/REC-SVG-20010904/DTD/svg10.dtd" [
<!ATTLIST g
xmlns:kvg CDATA #FIXED "http://kanjivg.tagaini.net"
kvg:element CDATA #IMPLIED
kvg:variant CDATA #IMPLIED
kvg:partial CDATA #IMPLIED
kvg:original CDATA #IMPLIED
kvg:part CDATA #IMPLIED
kvg:number CDATA #IMPLIED
kvg:tradForm CDATA #IMPLIED
kvg:radicalForm CDATA #IMPLIED
kvg:position CDATA #IMPLIED
kvg:radical CDATA #IMPLIED
kvg:phon CDATA #IMPLIED >
<!ATTLIST path
xmlns:kvg CDATA #FIXED "http://kanjivg.tagaini.net"
kvg:type CDATA #IMPLIED >
]>
<svg xmlns="http://www.w3.org/2000/svg" width="109" height="109" viewBox="0 0 109 109" xmlns:kvg="https://kanjivg.tagaini.net/">
<g id="kvg:StrokePaths_07c52" style="fill:none;stroke:#000000;stroke-width:3;stroke-linecap:round;stroke-linejoin:round;">
<g id="kvg:07c52" kvg:element="籒">
	<g id="kvg:07c52-g1" kvg:element="竹" kvg:variant="true" kvg:position="top" kvg:radical="general">
		<g id="kvg:07c52-g2" kvg:position="left">
			<path id="kvg:07c52-s1" kvg:type="㇒" d="M25.5,10.25c0.04,0.54,0.08,1.4-0.08,2.18c-0.95,4.59-6.43,14.66-13.92,20.82"/>
			<path id="kvg:07c52-s2" kvg:type="㇐b" d="M25.73,20.31c4.18,0,18.08-2.58,22.77-2.58"/>
			<path id="kvg:07c52-s3" kvg:type="㇔/㇑" d="M31.5,21.5c1.77,1.54,4.56,6.35,5,8.75"/>
		</g>
		<g id="kvg:07c52-g3" kvg:position="right">
			<path id="kvg:07c52-s4" kvg:type="㇒" d="M60.49,8.5c0.03,0.46,0.14,1.2-0.07,1.84C58.88,15.17,54.63,22.07,49,28"/>
			<path id="kvg:07c52-s5" kvg:type="㇐b" d="M60.98,17.71c5.21,0,24.3-2.68,30.15-2.68"/>
			<path id="kvg:07c52-s6" kvg:type="㇒/㇚" d="M74.49,20c0.02,0.16,0.05,0.41-0.05,0.64c-0.56,1.35-3.79,4.3-8.2,6.11"/>
		</g>
	</g>
	<g id="kvg:07c52-g4" kvg:element="㩅" kvg:position="bottom">
		<g id="kvg:07c52-g5" kvg:element="扌" kvg:variant="true" kvg:original="手" kvg:position="left">
			<path id="kvg:07c52-s7" kvg:type="㇐" d="M12.44,51.19c2.14,0.19,1.31,0.42,3.61,0.19c5.67-0.57,15.47-1.51,24.92-2.39"/>
			<path id="kvg:07c52-s8" kvg:type="㇚" d="M27.67,34.26c0.49,0.69,1.81,1.88,1.81,4.17c0,11.5,0.25,42.62,0.25,51.25c0,10.76-6.52,2.66-8.01,1.51"/>
			<path id="kvg:07c52-s9" kvg:type="㇀" d="M11.41,72.46c0.85,0.73,2.19,1.16,4.04,0.48c1.09-0.4,18.46-7.96,23.11-9.87"/>
		</g>
		<g id="kvg:07c52-g6" kvg:element="畱" kvg:position="right">
			<g id="kvg:07c52-g7" kvg:element="丣" kvg:position="top">
				<path id="kvg:07c52-s10" kvg:type="㇐" d="M46.3,34.66c1.12,0.26,3.19,0.29,4.31,0.26c11.26-0.35,28.22-2.92,41.28-2.91c1.88,0,3,0.12,3.93,0.25"/>
				<path id="kvg:07c52-s11" kvg:type="㇑" d="M61.33,34.65c1.02,0.69,1.31,2.2,1.31,3.4c0,2.74-0.02,29.97-0.02,33.7"/>
				<path id="kvg:07c52-s12" kvg:type="㇐" d="M47.46,48.43c2.4-0.16,12.42-1.33,14.39-1.49"/>
				<path id="kvg:07c52-s13" kvg:type="㇄" d="M45.47,47.63c0.94,0.67,1.14,1.36,1.15,2.3c0.03,1.99-0.13,6.63-0.24,9.37c-0.02,0.6,0.18,1.24,1.9,1.04c3.93-0.45,9.47-1,13.51-1.58"/>
				<path id="kvg:07c52-s14" kvg:type="㇕" d="M77.65,45.94c3.93-0.45,13.13-1.59,17.16-2.21c1.67-0.26,2.42,1.34,2.05,2.36c-0.71,1.96-1.97,6.38-2.7,9.81"/>
				<path id="kvg:07c52-s15" kvg:type="㇐" d="M77.35,57.48c2.4-0.16,16.88-1.01,18.85-1.17"/>
				<path id="kvg:07c52-s16" kvg:type="㇑" d="M75.31,32.44c0.87,0.58,1.54,1.52,1.54,2.54c0,2.31-0.02,32.77-0.02,35.92"/>
			</g>
			<g id="kvg:07c52-g8" kvg:element="田" kvg:position="bottom">
				<path id="kvg:07c52-s17" kvg:type="㇑" d="M46.35,73.64c0.34,0.42,1.47,1.5,1.55,2.03c0.9,5.33,1.89,13.87,2.78,21.62"/>
				<path id="kvg:07c52-s18" kvg:type="㇕a" d="M47.97,74.28c13.33-0.91,33.47-2.79,42.54-3.2c3.33-0.15,4.52,2.3,4.33,3.43c-0.66,4.14-2.18,14.33-4.09,21.72"/>
				<path id="kvg:07c52-s19" kvg:type="㇑a" d="M68.54,73.34c0.74,0.43,1.54,2,1.53,2.6c-0.04,4,0.18,16.73,0.18,18.18"/>
				<path id="kvg:07c52-s20" kvg:type="㇐a" d="M49.63,84.25c3.96-0.2,40.74-3.08,44.02-3.08"/>
				<path id="kvg:07c52-s21" kvg:type="㇐a" d="M50.81,95.8C62.57,95.24,78.78,94.03,90.84,93.92"/>
			</g>
		</g>
	</g>
</g>
</g>
<g id="kvg:StrokeNumbers_07c52" style="font-size:8;fill:#808080">
	<text transform="matrix(1 0 0 1 17.50 9.50)">1</text>
	<text transform="matrix(1 0 0 1 30.50 16.50)">2</text>
	<text transform="matrix(1 0 0 1 25.39 28.29)">3</text>
	<text transform="matrix(1 0 0 1 51.50 8.50)">4</text>
	<text transform="matrix(1 0 0 1 65.50 14.50)">5</text>
	<text transform="matrix(1 0 0 1 63.50 24.50)">6</text>
	<text transform="matrix(1 0 0 1 5.74 50.87)">7</text>
	<text transform="matrix(1 0 0 1 18.89 34.26)">8</text>
	<text transform="matrix(1 0 0 1 3.16 73.31)">9</text>
	<text transform="matrix(1 0 0 1 35.35 37.56)">10</text>
	<text transform="matrix(1 0 0 1 61.47 48.64)">11</text>
	<text transform="matrix(1 0 0 1 48.04 46.15)">12</text>
	<text transform="matrix(1 0 0 1 35.36 44.87)">13</text>
	<text transform="matrix(1 0 0 1 79.66 42.85)">14</text>
	<text transform="matrix(1 0 0 1 79.66 54.40)">15</text>
	<text transform="matrix(1 0 0 1 72.58 31.18)">16</text>
	<text transform="matrix(1 0 0 1 37.84 81.62)">17</text>
	<text transform="matrix(1 0 0 1 48.04 70.90)">18</text>
	<text transform="matrix(1 0 0 1 74.30 79.15)">19</text>
	<text transform="matrix(1 0 0 1 53.14 81.69)">20</text>
	<text transform="matrix(1 0 0 1 54.16 93.17)">21</text>
</g>
</svg>
