<?xml version="1.0" encoding="UTF-8"?>
<!--
Copyright (C) 2009/2010/2011 Ulrich Apel.
This work is distributed under the conditions of the Creative Commons 
Attribution-Share Alike 3.0 Licence. This means you are free:
* to Share - to copy, distribute and transmit the work
* to Remix - to adapt the work

Under the following conditions:
* Attribution. You must attribute the work by stating your use of KanjiVG in
  your own copyright header and linking to KanjiVG's website
  (http://kanjivg.tagaini.net)
* Share Alike. If you alter, transform, or build upon this work, you may
  distribute the resulting work only under the same or similar license to this
  one.

See http://creativecommons.org/licenses/by-sa/3.0/ for more details.
-->
<!DOCTYPE svg PUBLIC "-//W3C//DTD SVG 1.0//EN" "http://www.w3.org/TR/2001/REC-SVG-20010904/DTD/svg10.dtd" [
<!ATTLIST g
xmlns:kvg CDATA #FIXED "http://kanjivg.tagaini.net"
kvg:element CDATA #IMPLIED
kvg:variant CDATA #IMPLIED
kvg:partial CDATA #IMPLIED
kvg:original CDATA #IMPLIED
kvg:part CDATA #IMPLIED
kvg:number CDATA #IMPLIED
kvg:tradForm CDATA #IMPLIED
kvg:radicalForm CDATA #IMPLIED
kvg:position CDATA #IMPLIED
kvg:radical CDATA #IMPLIED
kvg:phon CDATA #IMPLIED >
<!ATTLIST path
xmlns:kvg CDATA #FIXED "http://kanjivg.tagaini.net"
kvg:type CDATA #IMPLIED >
]>
<svg xmlns="http://www.w3.org/2000/svg" width="109" height="109" viewBox="0 0 109 109">
<g id="kvg:StrokePaths_07c8b-Kaisho" style="fill:none;stroke:#000000;stroke-width:3;stroke-linecap:round;stroke-linejoin:round;">
<g id="kvg:07c8b-Kaisho" kvg:element="粋">
	<g id="kvg:07c8b-Kaisho-g1" kvg:element="米" kvg:variant="true" kvg:position="left" kvg:radical="general">
		<path id="kvg:07c8b-Kaisho-s1" kvg:type="㇔" d="M16.69,27.14c2.1,1.75,5.28,6.69,5.81,9.41"/>
		<path id="kvg:07c8b-Kaisho-s2" kvg:type="㇒" d="M46.26,23.47c0.02,0.26,0.04,0.67-0.04,1.05c-0.44,2.21-2.96,7.06-6.41,10.02"/>
		<path id="kvg:07c8b-Kaisho-s3" kvg:type="㇐" d="M13.1,45.77c0.53,0.23,1.94,0.8,3.35,0.68c5.05-0.45,23.05-4.7,28.76-5.42c1.4-0.18,1.76-0.23,2.65,0"/>
		<path id="kvg:07c8b-Kaisho-s4" kvg:type="㇑" d="M31.52,16.96c0.88,0.45,1.41,2.03,1.59,2.94s-0.18,65.74-0.18,71.39c0,13.46-5.68,3.71-7.18,2.21"/>
		<path id="kvg:07c8b-Kaisho-s5" kvg:type="㇒" d="M32.52,45.46C29,56.37,20.43,71.68,12.5,77.98"/>
		<path id="kvg:07c8b-Kaisho-s6" kvg:type="㇔/㇏" d="M35.37,49.82c3.99,2.84,6.92,6.11,8.4,10.9"/>
	</g>
	<g id="kvg:07c8b-Kaisho-g2" kvg:element="卆" kvg:position="right">
		<g id="kvg:07c8b-Kaisho-g3" kvg:element="九" kvg:position="top">
			<path id="kvg:07c8b-Kaisho-s7" kvg:type="㇒" d="M67.9,12.12c0.2,0.87,0.37,1.8,0.33,2.48C67.07,35.68,64,48,52.53,57.36"/>
			<g id="kvg:07c8b-Kaisho-g4" kvg:element="乙">
				<path id="kvg:07c8b-Kaisho-s8" kvg:type="㇈" d="M55.92,27.77c0.56,0.39,2.65,0.13,3.34,0c0.7-0.13,18.36-3.86,18.96-4.03C80,23.25,81.5,24.5,81,27.21c-0.41,2.22-1.67,9.54-1.67,11.77c0,8.92,0.66,9.41,8.31,9.41c7.85,0,8.58-1.24,8.58-6.44"/>
			</g>
		</g>
		<g id="kvg:07c8b-Kaisho-g5" kvg:element="十" kvg:position="bottom">
			<path id="kvg:07c8b-Kaisho-s9" kvg:type="㇐" d="M48,68.22c0.89,0.54,2.51,0.63,3.41,0.54C63,67.5,85.85,65.29,93.64,65.08c1.48-0.04,2.37,0.26,3.11,0.52"/>
			<path id="kvg:07c8b-Kaisho-s10" kvg:type="㇑" d="M71.43,53.8c0.46,0.41,1.43,3.08,1.52,3.9c0.09,0.82-0.06,33.8-0.15,38.94"/>
		</g>
	</g>
</g>
</g>
<g id="kvg:StrokeNumbers_07c8b-Kaisho" style="font-size:8;fill:#808080">
	<text transform="matrix(1 0 0 1 9.50 26.50)">1</text>
	<text transform="matrix(1 0 0 1 38.50 21.50)">2</text>
	<text transform="matrix(1 0 0 1 6.50 48.13)">3</text>
	<text transform="matrix(1 0 0 1 22.50 17.50)">4</text>
	<text transform="matrix(1 0 0 1 20.25 57.05)">5</text>
	<text transform="matrix(1 0 0 1 40.50 51.50)">6</text>
	<text transform="matrix(1 0 0 1 58.50 12.13)">7</text>
	<text transform="matrix(1 0 0 1 53.50 24.05)">8</text>
	<text transform="matrix(1 0 0 1 40.50 70.50)">9</text>
	<text transform="matrix(1 0 0 1 60.75 60.13)">10</text>
</g>
</svg>
