<?xml version="1.0" encoding="UTF-8"?>
<!--
Copyright (C) 2009/2010/2011 Ulrich Apel.
This work is distributed under the conditions of the Creative Commons 
Attribution-Share Alike 3.0 Licence. This means you are free:
* to Share - to copy, distribute and transmit the work
* to Remix - to adapt the work

Under the following conditions:
* Attribution. You must attribute the work by stating your use of KanjiVG in
  your own copyright header and linking to KanjiVG's website
  (http://kanjivg.tagaini.net)
* Share Alike. If you alter, transform, or build upon this work, you may
  distribute the resulting work only under the same or similar license to this
  one.

See http://creativecommons.org/licenses/by-sa/3.0/ for more details.
-->
<!DOCTYPE svg PUBLIC "-//W3C//DTD SVG 1.0//EN" "http://www.w3.org/TR/2001/REC-SVG-20010904/DTD/svg10.dtd" [
<!ATTLIST g
xmlns:kvg CDATA #FIXED "http://kanjivg.tagaini.net"
kvg:element CDATA #IMPLIED
kvg:variant CDATA #IMPLIED
kvg:partial CDATA #IMPLIED
kvg:original CDATA #IMPLIED
kvg:part CDATA #IMPLIED
kvg:number CDATA #IMPLIED
kvg:tradForm CDATA #IMPLIED
kvg:radicalForm CDATA #IMPLIED
kvg:position CDATA #IMPLIED
kvg:radical CDATA #IMPLIED
kvg:phon CDATA #IMPLIED >
<!ATTLIST path
xmlns:kvg CDATA #FIXED "http://kanjivg.tagaini.net"
kvg:type CDATA #IMPLIED >
]>
<svg xmlns="http://www.w3.org/2000/svg" width="109" height="109" viewBox="0 0 109 109">
<g id="kvg:StrokePaths_07ca7" style="fill:none;stroke:#000000;stroke-width:3;stroke-linecap:round;stroke-linejoin:round;">
<g id="kvg:07ca7" kvg:element="粧">
	<g id="kvg:07ca7-g1" kvg:element="米" kvg:variant="true" kvg:position="left" kvg:radical="general">
		<path id="kvg:07ca7-s1" kvg:type="㇔" d="M13.88,25.62c2.76,2.22,6.94,8.48,7.63,11.93"/>
		<path id="kvg:07ca7-s2" kvg:type="㇒" d="M46.26,22.22c0.06,0.76,0.09,1.55-0.27,2.23c-1.74,3.3-3.61,6.68-7.17,10.84"/>
		<path id="kvg:07ca7-s3" kvg:type="㇐" d="M10.85,44.27c2.2,0.83,4.38,0.69,6.67,0.45c7.82-0.82,17.32-2.75,23.48-3.69c1.56-0.24,3.25-0.5,4.85-0.5"/>
		<path id="kvg:07ca7-s4" kvg:type="㇑" d="M29.77,15.96c1.13,1.13,1.34,2.54,1.34,3.94c0,0.76-0.09,46.72-0.09,66.6c0,4.01,0.01,6.91-0.02,7.88"/>
		<path id="kvg:07ca7-s5" kvg:type="㇒" d="M30.52,44.21c0,2.29-0.51,3.95-1.12,5.5c-3.97,10.08-10.5,21.77-17.65,29.77"/>
		<path id="kvg:07ca7-s6" kvg:type="㇔/㇏" d="M33.5,51c4.62,3.12,8.25,6.75,10.03,10.71"/>
	</g>
	<g id="kvg:07ca7-g2" kvg:element="庄" kvg:position="right" kvg:phon="庄">
		<g id="kvg:07ca7-g3" kvg:element="广" kvg:position="tare">
			<path id="kvg:07ca7-s7" kvg:type="㇑a" d="M70.31,15.88c1.34,1.34,1.51,2.74,1.51,4.65c0,0.79,0.08,5.9-0.07,10.71"/>
			<g id="kvg:07ca7-g4" kvg:element="厂">
				<path id="kvg:07ca7-s8" kvg:type="㇐" d="M51.28,34.38c2.97,0.5,5.24,0.34,7.61,0.12c9.25-0.86,19.19-2.74,29.36-3.65c2.03-0.18,4.14-0.12,6.13,0.33"/>
				<path id="kvg:07ca7-s9" kvg:type="㇒" d="M53.41,35.25c0.98,0.98,1.2,2.5,1.17,4.45c-0.33,16.8-3.62,40.88-14.77,53.27"/>
			</g>
		</g>
		<g id="kvg:07ca7-g5" kvg:element="土">
			<path id="kvg:07ca7-s10" kvg:type="㇐" d="M60.89,59.34c1.43,0.56,3.29,0.23,4.73,0.1c7.92-0.71,15.06-1.81,22.64-2.19c1.52-0.08,2.99-0.16,4.48,0.18"/>
			<path id="kvg:07ca7-s11" kvg:type="㇑a" d="M74.17,40.37c0.98,0.98,1.52,2.52,1.52,4.39c0,12-0.07,27.38-0.07,43.25"/>
			<path id="kvg:07ca7-s12" kvg:type="㇐" d="M52.15,89.39c2.98,0.73,5.12,0.81,7.35,0.66c12.2-0.84,21.78-1.47,32.62-1.82c2.1-0.07,4.5,0.09,6.49,0.78"/>
		</g>
	</g>
</g>
</g>
<g id="kvg:StrokeNumbers_07ca7" style="font-size:8;fill:#808080">
	<text transform="matrix(1 0 0 1 8.25 26.50)">1</text>
	<text transform="matrix(1 0 0 1 38.50 21.13)">2</text>
	<text transform="matrix(1 0 0 1 3.75 45.13)">3</text>
	<text transform="matrix(1 0 0 1 20.50 15.50)">4</text>
	<text transform="matrix(1 0 0 1 19.50 55.50)">5</text>
	<text transform="matrix(1 0 0 1 39.50 52.50)">6</text>
	<text transform="matrix(1 0 0 1 62.50 16.50)">7</text>
	<text transform="matrix(1 0 0 1 54.50 31.55)">8</text>
	<text transform="matrix(1 0 0 1 47.50 42.50)">9</text>
	<text transform="matrix(1 0 0 1 58.50 56.50)">10</text>
	<text transform="matrix(1 0 0 1 62.50 44.50)">11</text>
	<text transform="matrix(1 0 0 1 51.50 86.50)">12</text>
</g>
</svg>
