<?xml version="1.0" encoding="UTF-8"?>
<!--
Copyright (C) 2009/2010/2011 Ulrich Apel.
This work is distributed under the conditions of the Creative Commons 
Attribution-Share Alike 3.0 Licence. This means you are free:
* to Share - to copy, distribute and transmit the work
* to Remix - to adapt the work

Under the following conditions:
* Attribution. You must attribute the work by stating your use of KanjiVG in
  your own copyright header and linking to KanjiVG's website
  (http://kanjivg.tagaini.net)
* Share Alike. If you alter, transform, or build upon this work, you may
  distribute the resulting work only under the same or similar license to this
  one.

See http://creativecommons.org/licenses/by-sa/3.0/ for more details.
-->
<!DOCTYPE svg PUBLIC "-//W3C//DTD SVG 1.0//EN" "http://www.w3.org/TR/2001/REC-SVG-20010904/DTD/svg10.dtd" [
<!ATTLIST g
xmlns:kvg CDATA #FIXED "http://kanjivg.tagaini.net"
kvg:element CDATA #IMPLIED
kvg:variant CDATA #IMPLIED
kvg:partial CDATA #IMPLIED
kvg:original CDATA #IMPLIED
kvg:part CDATA #IMPLIED
kvg:number CDATA #IMPLIED
kvg:tradForm CDATA #IMPLIED
kvg:radicalForm CDATA #IMPLIED
kvg:position CDATA #IMPLIED
kvg:radical CDATA #IMPLIED
kvg:phon CDATA #IMPLIED >
<!ATTLIST path
xmlns:kvg CDATA #FIXED "http://kanjivg.tagaini.net"
kvg:type CDATA #IMPLIED >
]>
<svg xmlns="http://www.w3.org/2000/svg" width="109" height="109" viewBox="0 0 109 109">
<g id="kvg:StrokePaths_07ce7-KaishoVtLst" style="fill:none;stroke:#000000;stroke-width:3;stroke-linecap:round;stroke-linejoin:round;">
<g id="kvg:07ce7-KaishoVtLst" kvg:element="糧">
	<g id="kvg:07ce7-KaishoVtLst-g1" kvg:element="米" kvg:position="left" kvg:radical="general">
		<path id="kvg:07ce7-KaishoVtLst-s1" kvg:type="㇔" d="M14.44,24.89c2.29,2.03,5.74,7.76,6.31,10.91"/>
		<path id="kvg:07ce7-KaishoVtLst-s2" kvg:type="㇒" d="M43.51,20.22c0.02,0.33,0.04,0.86-0.04,1.33c-0.49,2.81-3.3,8.97-7.15,12.74"/>
		<path id="kvg:07ce7-KaishoVtLst-s3" kvg:type="㇐" d="M11.35,43.52c0.53,0.23,1.94,0.8,3.35,0.68c5.05-0.45,18.55-3.7,24.26-4.42c1.4-0.18,1.76-0.23,2.65,0"/>
		<path id="kvg:07ce7-KaishoVtLst-s4" kvg:type="㇑" d="M28.27,14.71c0.88,0.45,1.41,2.03,1.59,2.94s-0.18,66.24-0.18,71.89c0,12.71-5.31,3.84-6.43,2.71"/>
		<path id="kvg:07ce7-KaishoVtLst-s5" kvg:type="㇒" d="M29.77,44.21c-3.26,11.58-11.19,27.83-18.52,34.51"/>
		<path id="kvg:07ce7-KaishoVtLst-s6" kvg:type="㇔/㇏" d="M31.62,51.82c4.7,2.64,8.16,5.69,9.9,10.15"/>
	</g>
	<g id="kvg:07ce7-KaishoVtLst-g2" kvg:element="量" kvg:position="right">
		<g id="kvg:07ce7-KaishoVtLst-g3" kvg:element="旦" kvg:position="top">
			<g id="kvg:07ce7-KaishoVtLst-g4" kvg:element="日" kvg:position="top">
				<path id="kvg:07ce7-KaishoVtLst-s7" kvg:type="㇑" d="M50.96,15.56c0.44,0.45,0.88,0.67,0.88,1.27c0,0.6,2.75,17.8,2.75,18.1c0,0.3,0.15,0.3,0.29,0.9"/>
				<path id="kvg:07ce7-KaishoVtLst-s8" kvg:type="㇕a" d="M52.56,17.04c2.47-0.07,29.05-2.96,31.28-3.3c1.42-0.22,2.6,1.36,2.43,3.4c-0.25,2.99-1.27,9.12-3.63,16.52"/>
				<path id="kvg:07ce7-KaishoVtLst-s9" kvg:type="㇐a" d="M53.34,25.66c5.49-0.64,10.99-1.21,16.49-1.76c1.67-0.17,3.33-0.33,4.9-0.48"/>
				<path id="kvg:07ce7-KaishoVtLst-s10" kvg:type="㇐a" d="M55.6,34.55c7.35-0.76,17.84-1.66,25.92-2.4"/>
			</g>
			<g id="kvg:07ce7-KaishoVtLst-g5" kvg:element="一" kvg:position="bottom">
				<path id="kvg:07ce7-KaishoVtLst-s11" kvg:type="㇐" d="M44.16,44.45c0.96,0.4,2.71,0.5,3.67,0.4c10.36-1.01,36.46-3.23,46.66-3.62c1.59-0.06,2.55,0.19,3.35,0.39"/>
			</g>
		</g>
		<g id="kvg:07ce7-KaishoVtLst-g6" kvg:element="里" kvg:variant="true" kvg:position="bottom">
			<path id="kvg:07ce7-KaishoVtLst-s12" kvg:type="㇑" d="M50.56,53.19c0.3,0.31,0.39,0.5,0.48,0.93c0.9,4.52,2.57,11.49,3.42,17.56"/>
			<path id="kvg:07ce7-KaishoVtLst-s13" kvg:type="㇕" d="M51.98,53.63c10.59-0.82,25.55-2.71,34.54-3.33c1.44-0.1,1.88,2.79,1.72,3.68c-0.54,3.29-1.9,10.09-3.22,15.57"/>
			<path id="kvg:07ce7-KaishoVtLst-s14" kvg:type="㇐" d="M52.66,62.05c7.48-0.68,14.94-1.51,22.41-2.24c0.89-0.09,1.76-0.17,2.59-0.25"/>
			<path id="kvg:07ce7-KaishoVtLst-s15" kvg:type="㇐" d="M55.01,70.79c7.62-0.35,19.49-2.24,30.02-2.81"/>
			<path id="kvg:07ce7-KaishoVtLst-s16" kvg:type="㇐" d="M52.11,80.35c0.74,0.23,2.1,0.26,2.84,0.23c7.7-0.27,18.54-2.08,28.66-2.7c1.23-0.08,1.97,0.11,2.59,0.23"/>
			<path id="kvg:07ce7-KaishoVtLst-s17" kvg:type="㇐" d="M43.75,91.73c1.09,0.3,3.09,0.35,4.19,0.3c11.36-0.51,31.28-2.46,44.81-2.44c1.82,0,2.91,0.14,3.82,0.3"/>
			<path id="kvg:07ce7-KaishoVtLst-s18" kvg:type="㇑" d="M67.96,54.02c0.66,0.54,0.83,1.67,0.86,3.54c0.18,9.58,0.05,30.21,0.05,32.57"/>
		</g>
	</g>
</g>
</g>
<g id="kvg:StrokeNumbers_07ce7-KaishoVtLst" style="font-size:8;fill:#808080">
	<text transform="matrix(1 0 0 1 7.25 23.88)">1</text>
	<text transform="matrix(1 0 0 1 35.25 19.38)">2</text>
	<text transform="matrix(1 0 0 1 4.25 44.88)">3</text>
	<text transform="matrix(1 0 0 1 18.25 14.88)">4</text>
	<text transform="matrix(1 0 0 1 19.25 54.25)">5</text>
	<text transform="matrix(1 0 0 1 34.25 51.25)">6</text>
	<text transform="matrix(1 0 0 1 47.00 31.38)">7</text>
	<text transform="matrix(1 0 0 1 53.00 13.38)">8</text>
	<text transform="matrix(1 0 0 1 57.50 23.25)">9</text>
	<text transform="matrix(1 0 0 1 57.50 32.73)">10</text>
	<text transform="matrix(1 0 0 1 44.25 42.66)">11</text>
	<text transform="matrix(1 0 0 1 42.50 60.25)">12</text>
	<text transform="matrix(1 0 0 1 53.00 51.25)">13</text>
	<text transform="matrix(1 0 0 1 56.00 59.25)">14</text>
	<text transform="matrix(1 0 0 1 56.00 68.25)">15</text>
	<text transform="matrix(1 0 0 1 44.25 79.38)">16</text>
	<text transform="matrix(1 0 0 1 41.25 88.25)">17</text>
	<text transform="matrix(1 0 0 1 71.25 58.38)">18</text>
</g>
</svg>
