<?xml version="1.0" encoding="UTF-8"?>
<!--
Copyright (C) 2009/2010/2011 Ulrich Apel.
This work is distributed under the conditions of the Creative Commons 
Attribution-Share Alike 3.0 Licence. This means you are free:
* to Share - to copy, distribute and transmit the work
* to Remix - to adapt the work

Under the following conditions:
* Attribution. You must attribute the work by stating your use of KanjiVG in
  your own copyright header and linking to KanjiVG's website
  (http://kanjivg.tagaini.net)
* Share Alike. If you alter, transform, or build upon this work, you may
  distribute the resulting work only under the same or similar license to this
  one.

See http://creativecommons.org/licenses/by-sa/3.0/ for more details.
-->
<!DOCTYPE svg PUBLIC "-//W3C//DTD SVG 1.0//EN" "http://www.w3.org/TR/2001/REC-SVG-20010904/DTD/svg10.dtd" [
<!ATTLIST g
xmlns:kvg CDATA #FIXED "http://kanjivg.tagaini.net"
kvg:element CDATA #IMPLIED
kvg:variant CDATA #IMPLIED
kvg:partial CDATA #IMPLIED
kvg:original CDATA #IMPLIED
kvg:part CDATA #IMPLIED
kvg:number CDATA #IMPLIED
kvg:tradForm CDATA #IMPLIED
kvg:radicalForm CDATA #IMPLIED
kvg:position CDATA #IMPLIED
kvg:radical CDATA #IMPLIED
kvg:phon CDATA #IMPLIED >
<!ATTLIST path
xmlns:kvg CDATA #FIXED "http://kanjivg.tagaini.net"
kvg:type CDATA #IMPLIED >
]>
<svg xmlns="http://www.w3.org/2000/svg" width="109" height="109" viewBox="0 0 109 109">
<g id="kvg:StrokePaths_07cef" style="fill:none;stroke:#000000;stroke-width:3;stroke-linecap:round;stroke-linejoin:round;">
<g id="kvg:07cef" kvg:element="糯">
	<g id="kvg:07cef-g1" kvg:element="米" kvg:variant="true" kvg:position="left" kvg:radical="general">
		<path id="kvg:07cef-s1" kvg:type="㇔" d="M11.94,24.64C15.23,27.09,20.18,34,21,37.8"/>
		<path id="kvg:07cef-s2" kvg:type="㇒" d="M42.5,21.75c0.02,0.32,0.04,0.84-0.04,1.3C41.95,25.8,39.02,31.81,35,35.5"/>
		<path id="kvg:07cef-s3" kvg:type="㇐" d="M9.35,45c0.55,0.15,2.02,0.54,3.48,0.46c5.25-0.3,21.33-2.49,27.27-2.98c1.46-0.12,1.83-0.15,2.75,0"/>
		<path id="kvg:07cef-s4" kvg:type="㇑" d="M27.52,13.46c0.88,0.45,1.41,2.03,1.59,2.94s0,72.24-0.18,77.89"/>
		<path id="kvg:07cef-s5" kvg:type="㇒" d="M28.52,44.96C25.09,56.2,16.73,71.99,9,78.48"/>
		<path id="kvg:07cef-s6" kvg:type="㇔/㇏" d="M31.37,49.32c4.45,3.5,7.72,7.53,9.38,13.43"/>
	</g>
	<g id="kvg:07cef-g2" kvg:element="需" kvg:position="right">
		<g id="kvg:07cef-g3" kvg:element="雨" kvg:variant="true" kvg:position="top">
			<path id="kvg:07cef-s7" kvg:type="㇐" d="M52.75,15.48c1.19,0.03,2.95,0.2,4.1,0.09c5.08-0.48,24.38-1.77,29.95-1.83c1.63-0.02,2.97-0.08,4.47,0.06"/>
			<path id="kvg:07cef-s8" kvg:type="㇔/㇑" d="M49.16,24.08c-0.25,4.79-2.41,9.17-4,14.01"/>
			<path id="kvg:07cef-s9" kvg:type="㇖b/㇆" d="M50,27.48c5.21-0.76,32.95-3.23,43.9-2.69c6.34,0.31,2.1,5.71-1.58,7.85"/>
			<path id="kvg:07cef-s10" kvg:type="㇑" d="M69.42,17.43c0.56,1.42,0.81,2.35,0.82,3.75c0,0.5-0.17,25.2-0.17,26.57"/>
			<path id="kvg:07cef-s11" kvg:type="㇔" d="M54.25,31.73c3.01,0.84,7.12,3.36,8.77,4.75"/>
			<path id="kvg:07cef-s12" kvg:type="㇔" d="M53.25,41.5c2.56,0.85,6.51,3.97,7.91,5.39"/>
			<path id="kvg:07cef-s13" kvg:type="㇔" d="M77.99,30.88c2.75,1.21,5.87,3.62,6.97,4.63"/>
			<path id="kvg:07cef-s14" kvg:type="㇔" d="M78.09,39.84c2.55,0.92,6.02,3.69,7.41,5.23"/>
		</g>
		<g id="kvg:07cef-g4" kvg:element="而" kvg:position="bottom">
			<g id="kvg:07cef-g5" kvg:position="top">
				<path id="kvg:07cef-s15" kvg:type="㇐" d="M49.38,54.73c1.32,0.23,3.73,0.27,5.05,0.24c11-0.29,23.48-1.76,33.89-2.13c2.18-0.08,3.52,0.11,4.61,0.23"/>
				<path id="kvg:07cef-s16" kvg:type="㇒" d="M70.14,56.36c0.01,0.17,0.03,0.45-0.03,0.7c-0.35,1.47-2.36,4.71-5.11,6.69"/>
			</g>
			<g id="kvg:07cef-g6" kvg:position="bottom">
				<g id="kvg:07cef-g7" kvg:element="冂">
					<path id="kvg:07cef-s17" kvg:type="㇑" d="M47.97,64.88c0.58,1.08,1.07,2.8,1.22,4.75c0.22,2.86,1.58,20.9,2.03,24.91"/>
					<path id="kvg:07cef-s18" kvg:type="㇆a" d="M50.77,66.62c5.64-0.46,39.84-2.92,40.96-3.14c2.39-0.46,3.67,1.02,3.45,3.76c-0.51,6.66-1.15,15.1-2.95,22.04c-1.83,7.04-4.65,5.28-6.25,2.5"/>
				</g>
				<path id="kvg:07cef-s19" kvg:type="㇑" d="M62.48,68.49c0.65,0.7,1.49,2.09,1.56,3.14c0.22,3.5,0.12,18.91,0.12,20.48"/>
				<path id="kvg:07cef-s20" kvg:type="㇑" d="M77.74,67.75c0.56,1.61,0.77,2.66,0.69,4.18c-0.33,5.89-1.02,15.47-1.79,20.79"/>
			</g>
		</g>
	</g>
</g>
</g>
<g id="kvg:StrokeNumbers_07cef" style="font-size:8;fill:#808080">
	<text transform="matrix(1 0 0 1 5.50 24.50)">1</text>
	<text transform="matrix(1 0 0 1 36.50 18.50)">2</text>
	<text transform="matrix(1 0 0 1 2.50 45.50)">3</text>
	<text transform="matrix(1 0 0 1 17.50 13.50)">4</text>
	<text transform="matrix(1 0 0 1 17.50 55.50)">5</text>
	<text transform="matrix(1 0 0 1 35.50 50.50)">6</text>
	<text transform="matrix(1 0 0 1 46.50 13.50)">7</text>
	<text transform="matrix(1 0 0 1 39.50 37.50)">8</text>
	<text transform="matrix(1 0 0 1 51.50 24.50)">9</text>
	<text transform="matrix(1 0 0 1 58.75 23.20)">10</text>
	<text transform="matrix(1 0 0 1 49.50 38.63)">11</text>
	<text transform="matrix(1 0 0 1 47.00 48.80)">12</text>
	<text transform="matrix(1 0 0 1 73.50 37.50)">13</text>
	<text transform="matrix(1 0 0 1 73.50 47.50)">14</text>
	<text transform="matrix(1 0 0 1 40.50 55.50)">15</text>
	<text transform="matrix(1 0 0 1 58.00 61.50)">16</text>
	<text transform="matrix(1 0 0 1 38.50 74.18)">17</text>
	<text transform="matrix(1 0 0 1 48.50 63.60)">18</text>
	<text transform="matrix(1 0 0 1 53.50 75.50)">19</text>
	<text transform="matrix(1 0 0 1 67.50 74.50)">20</text>
</g>
</svg>
