<?xml version="1.0" encoding="UTF-8"?>
<!--
Copyright (C) 2009/2010/2011 Ulrich Apel.
This work is distributed under the conditions of the Creative Commons 
Attribution-Share Alike 3.0 Licence. This means you are free:
* to Share - to copy, distribute and transmit the work
* to Remix - to adapt the work

Under the following conditions:
* Attribution. You must attribute the work by stating your use of KanjiVG in
  your own copyright header and linking to KanjiVG's website
  (http://kanjivg.tagaini.net)
* Share Alike. If you alter, transform, or build upon this work, you may
  distribute the resulting work only under the same or similar license to this
  one.

See http://creativecommons.org/licenses/by-sa/3.0/ for more details.
-->
<!DOCTYPE svg PUBLIC "-//W3C//DTD SVG 1.0//EN" "http://www.w3.org/TR/2001/REC-SVG-20010904/DTD/svg10.dtd" [
<!ATTLIST g
xmlns:kvg CDATA #FIXED "http://kanjivg.tagaini.net"
kvg:element CDATA #IMPLIED
kvg:variant CDATA #IMPLIED
kvg:partial CDATA #IMPLIED
kvg:original CDATA #IMPLIED
kvg:part CDATA #IMPLIED
kvg:number CDATA #IMPLIED
kvg:tradForm CDATA #IMPLIED
kvg:radicalForm CDATA #IMPLIED
kvg:position CDATA #IMPLIED
kvg:radical CDATA #IMPLIED
kvg:phon CDATA #IMPLIED >
<!ATTLIST path
xmlns:kvg CDATA #FIXED "http://kanjivg.tagaini.net"
kvg:type CDATA #IMPLIED >
]>
<svg xmlns="http://www.w3.org/2000/svg" width="109" height="109" viewBox="0 0 109 109">
<g id="kvg:StrokePaths_07cf8-Kaisho" style="fill:none;stroke:#000000;stroke-width:3;stroke-linecap:round;stroke-linejoin:round;">
<g id="kvg:07cf8-Kaisho" kvg:element="糸" kvg:radical="general">
	<path id="kvg:07cf8-Kaisho-s1" kvg:type="㇜" d="M51,11c0.5,1.5,0.78,2.65-0.25,4.25c-4.5,7-13.5,17-18.5,20.5c-1.02,0.72-0.99,3.47,0,3.75c5.25,1.5,11,4,15.5,6.75"/>
	<path id="kvg:07cf8-Kaisho-s2" kvg:type="㇜" d="M70.75,21c0.5,0.75,0.2,2.95-0.5,3.75C59.5,37,47.25,49,33.5,62.25c-1.66,1.6-1,2.5,1,2c8.36-2.09,31.75-7,42.5-9"/>
	<path id="kvg:07cf8-Kaisho-s3" kvg:type="㇔" d="M72.5,47.5c3.71,2.78,9.57,11.43,10.5,15.75"/>
	<path id="kvg:07cf8-Kaisho-s4" kvg:type="㇑" d="M53,63.25c0.09,0.26,1.17,1.35,1.26,2.99C54.66,74.14,54,91.81,54,94.5c0,13.25-5,3-6.5,1.5"/>
	<path id="kvg:07cf8-Kaisho-s5" kvg:type="㇒" d="M33.23,74.41c0.27,0.82,0.23,3.53-0.27,4.12c-3.3,3.85-11.54,11.27-16.21,14.56"/>
	<path id="kvg:07cf8-Kaisho-s6" kvg:type="㇔" d="M76.16,73.5c4.38,3.75,11.88,13.75,13.44,17.5"/>
</g>
</g>
<g id="kvg:StrokeNumbers_07cf8-Kaisho" style="font-size:8;fill:#808080">
	<text transform="matrix(1 0 0 1 43.50 11.50)">1</text>
	<text transform="matrix(1 0 0 1 63.50 21.50)">2</text>
	<text transform="matrix(1 0 0 1 69.50 43.50)">3</text>
	<text transform="matrix(1 0 0 1 46.50 70.50)">4</text>
	<text transform="matrix(1 0 0 1 24.50 75.50)">5</text>
	<text transform="matrix(1 0 0 1 67.50 73.50)">6</text>
</g>
</svg>
