<?xml version="1.0" encoding="UTF-8"?>
<!--
Copyright (C) 2009/2010/2011 Ulrich Apel.
This work is distributed under the conditions of the Creative Commons 
Attribution-Share Alike 3.0 Licence. This means you are free:
* to Share - to copy, distribute and transmit the work
* to Remix - to adapt the work

Under the following conditions:
* Attribution. You must attribute the work by stating your use of KanjiVG in
  your own copyright header and linking to KanjiVG's website
  (http://kanjivg.tagaini.net)
* Share Alike. If you alter, transform, or build upon this work, you may
  distribute the resulting work only under the same or similar license to this
  one.

See http://creativecommons.org/licenses/by-sa/3.0/ for more details.
-->
<!DOCTYPE svg PUBLIC "-//W3C//DTD SVG 1.0//EN" "http://www.w3.org/TR/2001/REC-SVG-20010904/DTD/svg10.dtd" [
<!ATTLIST g
xmlns:kvg CDATA #FIXED "http://kanjivg.tagaini.net"
kvg:element CDATA #IMPLIED
kvg:variant CDATA #IMPLIED
kvg:partial CDATA #IMPLIED
kvg:original CDATA #IMPLIED
kvg:part CDATA #IMPLIED
kvg:number CDATA #IMPLIED
kvg:tradForm CDATA #IMPLIED
kvg:radicalForm CDATA #IMPLIED
kvg:position CDATA #IMPLIED
kvg:radical CDATA #IMPLIED
kvg:phon CDATA #IMPLIED >
<!ATTLIST path
xmlns:kvg CDATA #FIXED "http://kanjivg.tagaini.net"
kvg:type CDATA #IMPLIED >
]>
<svg xmlns="http://www.w3.org/2000/svg" width="109" height="109" viewBox="0 0 109 109">
<g id="kvg:StrokePaths_07cf2-Kaisho" style="fill:none;stroke:#000000;stroke-width:3;stroke-linecap:round;stroke-linejoin:round;">
<g id="kvg:07cf2-Kaisho" kvg:element="糲">
	<g id="kvg:07cf2-Kaisho-g1" kvg:element="米" kvg:variant="true" kvg:position="left" kvg:radical="general">
		<path id="kvg:07cf2-Kaisho-s1" kvg:type="㇔" d="M14,25c2.9,2.47,7.28,9.46,8,13.3"/>
		<path id="kvg:07cf2-Kaisho-s2" kvg:type="㇒" d="M43.76,22.97c0.02,0.34,0.04,0.88-0.04,1.38c-0.46,2.9-3.11,9.26-6.72,13.16"/>
		<path id="kvg:07cf2-Kaisho-s3" kvg:type="㇐" d="M10.85,47.28c0.56,0.14,2.05,0.5,3.54,0.42c5.33-0.28,20.64-2.79,26.68-3.24c1.48-0.11,1.86-0.14,2.79,0"/>
		<path id="kvg:07cf2-Kaisho-s4" kvg:type="㇑" d="M29.52,13.96c0.88,0.45,1.41,2.03,1.59,2.94s-0.18,69.74-0.18,75.39c0,12.46-6.31,3.34-7.93,1.71"/>
		<path id="kvg:07cf2-Kaisho-s5" kvg:type="㇒" d="M31.02,45.96C27.41,57.88,18.63,74.62,10.5,81.5"/>
		<path id="kvg:07cf2-Kaisho-s6" kvg:type="㇔/㇏" d="M32.25,51.75C37.12,55.2,40.69,59.18,42.5,65"/>
	</g>
	<g id="kvg:07cf2-Kaisho-g2" kvg:position="right">
		<g id="kvg:07cf2-Kaisho-g3" kvg:position="tare">
			<g id="kvg:07cf2-Kaisho-g4" kvg:element="厂">
				<path id="kvg:07cf2-Kaisho-s7" kvg:type="㇐" d="M49.67,16.7c1.07,0.24,3.02,0.27,4.09,0.23c11.09-0.41,29.52-1.87,39.39-2.19c1.77-0.06,2.84,0.11,3.73,0.23"/>
				<path id="kvg:07cf2-Kaisho-s8" kvg:type="㇒" d="M50.63,16.64c0.37,0.86,0.5,2.25,0.5,3.1C51.25,51.25,51,70,39.56,89.54"/>
			</g>
			<g id="kvg:07cf2-Kaisho-g5" kvg:element="萬">
				<g id="kvg:07cf2-Kaisho-g6" kvg:element="艹" kvg:variant="true" kvg:original="艸" kvg:position="top">
					<path id="kvg:07cf2-Kaisho-s9" kvg:type="㇐" d="M56.31,30.22c0.97,0.36,2.1,0.44,3.08,0.36c8.94-0.66,22.65-2.08,32.96-2.13c1.62-0.01,2.59,0.17,3.4,0.35"/>
					<path id="kvg:07cf2-Kaisho-s10" kvg:type="㇑a" d="M64.67,22.36c1.04,0.86,1.37,1.12,1.48,1.65c1.03,4.94,1.33,10.94,1.63,12.74"/>
					<path id="kvg:07cf2-Kaisho-s11" kvg:type="㇑a" d="M82.72,20.89c0.7,0.63,1.05,1.56,0.94,2.5c-0.41,3.61-0.67,8.01-1.69,11.6"/>
				</g>
				<g id="kvg:07cf2-Kaisho-g7" kvg:element="禺" kvg:position="bottom">
					<g id="kvg:07cf2-Kaisho-g8" kvg:element="日">
						<g id="kvg:07cf2-Kaisho-g9" kvg:element="田" kvg:part="1" kvg:variant="true">
							<path id="kvg:07cf2-Kaisho-s12" kvg:type="㇑" d="M58.62,41.3c0.25,0.36,0.25,0.6,0.39,1.05c1.12,3.66,2.1,13.07,2.77,19.87"/>
							<path id="kvg:07cf2-Kaisho-s13" kvg:type="㇕" d="M60.06,41.83c8.43-0.34,24.16-1.88,30.46-2.23c2.31-0.13,2.74,1.79,2.43,4.13c-0.5,3.78-0.79,8.73-2.52,16.12"/>
							<path id="kvg:07cf2-Kaisho-s14" kvg:type="㇐" d="M60.9,51.49c5.2-0.59,12.44-0.87,17.66-1.27c1.78-0.14,3.55-0.27,5.23-0.4"/>
							<path id="kvg:07cf2-Kaisho-s15" kvg:type="㇐" d="M61.68,61.26c8.59-1.31,20.39-2.44,28.74-2.92"/>
						</g>
					</g>
					<g id="kvg:07cf2-Kaisho-g10" kvg:element="禸">
						<path id="kvg:07cf2-Kaisho-s16" kvg:type="㇑" d="M55.48,68.44c0.65,0.4,1.11,1.61,1.16,2.41c0.22,3.97,1.03,20.98,1.39,25.39"/>
						<path id="kvg:07cf2-Kaisho-s17" kvg:type="㇆" d="M56.67,70.89c6.83-0.89,36.28-3.9,37.36-3.97c1.62-0.1,3.04,1.14,3.01,3.43c-0.08,6.08-1.7,15.43-3.38,20.98c-1.76,5.83-3.16,3.48-5.19,0.22"/>
						<g id="kvg:07cf2-Kaisho-g11" kvg:element="田" kvg:part="2" kvg:variant="true">
							<path id="kvg:07cf2-Kaisho-s18" kvg:type="㇑" d="M74.51,42.36c0.27,0.59,0.69,1.17,0.69,2.24c0,4.7,0.12,32.59,0.12,34.03"/>
						</g>
						<path id="kvg:07cf2-Kaisho-s19" kvg:type="６" d="M64.62,80.86c1.03,0.5,2.17,0.77,3.08,0.56c2.56-0.59,13.11-3.29,18.48-4.38"/>
						<path id="kvg:07cf2-Kaisho-s20" kvg:type="㇔" d="M82.44,72.55c2.58,1.8,6.67,7.54,7.31,10.45"/>
					</g>
				</g>
			</g>
		</g>
	</g>
</g>
</g>
<g id="kvg:StrokeNumbers_07cf2-Kaisho" style="font-size:8;fill:#808080">
	<text transform="matrix(1 0 0 1 6.75 22.63)">1</text>
	<text transform="matrix(1 0 0 1 38.50 17.55)">2</text>
	<text transform="matrix(1 0 0 1 3.50 46.50)">3</text>
	<text transform="matrix(1 0 0 1 20.50 12.50)">4</text>
	<text transform="matrix(1 0 0 1 19.50 56.50)">5</text>
	<text transform="matrix(1 0 0 1 38.50 53.50)">6</text>
	<text transform="matrix(1 0 0 1 53.50 12.50)">7</text>
	<text transform="matrix(1 0 0 1 43.50 37.50)">8</text>
	<text transform="matrix(1 0 0 1 55.25 27.53)">9</text>
	<text transform="matrix(1 0 0 1 69.25 25.70)">10</text>
	<text transform="matrix(1 0 0 1 86.75 24.50)">11</text>
	<text transform="matrix(1 0 0 1 52.50 53.50)">12</text>
	<text transform="matrix(1 0 0 1 56.50 39.50)">13</text>
	<text transform="matrix(1 0 0 1 62.00 49.90)">14</text>
	<text transform="matrix(1 0 0 1 62.25 58.83)">15</text>
	<text transform="matrix(1 0 0 1 47.50 82.75)">16</text>
	<text transform="matrix(1 0 0 1 58.50 68.18)">17</text>
	<text transform="matrix(1 0 0 1 78.50 47.50)">18</text>
	<text transform="matrix(1 0 0 1 61.50 77.50)">19</text>
	<text transform="matrix(1 0 0 1 86.50 74.50)">20</text>
</g>
</svg>
