<?xml version="1.0" encoding="UTF-8"?>
<!--
Copyright (C) 2009/2010/2011 Ulrich Apel.
This work is distributed under the conditions of the Creative Commons
Attribution-Share Alike 3.0 Licence. This means you are free:
* to Share - to copy, distribute and transmit the work
* to Remix - to adapt the work

Under the following conditions:
* Attribution. You must attribute the work by stating your use of KanjiVG in
  your own copyright header and linking to KanjiVG's website
  (http://kanjivg.tagaini.net)
* Share Alike. If you alter, transform, or build upon this work, you may
  distribute the resulting work only under the same or similar license to this
  one.

See http://creativecommons.org/licenses/by-sa/3.0/ for more details.
-->
<!DOCTYPE svg PUBLIC "-//W3C//DTD SVG 1.0//EN" "http://www.w3.org/TR/2001/REC-SVG-20010904/DTD/svg10.dtd" [
<!ATTLIST g
xmlns:kvg CDATA #FIXED "http://kanjivg.tagaini.net"
kvg:element CDATA #IMPLIED
kvg:variant CDATA #IMPLIED
kvg:partial CDATA #IMPLIED
kvg:original CDATA #IMPLIED
kvg:part CDATA #IMPLIED
kvg:number CDATA #IMPLIED
kvg:tradForm CDATA #IMPLIED
kvg:radicalForm CDATA #IMPLIED
kvg:position CDATA #IMPLIED
kvg:radical CDATA #IMPLIED
kvg:phon CDATA #IMPLIED >
<!ATTLIST path
xmlns:kvg CDATA #FIXED "http://kanjivg.tagaini.net"
kvg:type CDATA #IMPLIED >
]>
<svg xmlns="http://www.w3.org/2000/svg" width="109" height="109" viewBox="0 0 109 109">
<g id="kvg:StrokePaths_07d05-Kaisho" style="fill:none;stroke:#000000;stroke-width:3;stroke-linecap:round;stroke-linejoin:round;">
<g id="kvg:07d05-Kaisho" kvg:element="紅">
	<g id="kvg:07d05-Kaisho-g1" kvg:element="糸" kvg:variant="true" kvg:position="left" kvg:radical="general">
		<path id="kvg:07d05-Kaisho-s1" kvg:type="㇜" d="M29.44,18c0.29,1.27,0.36,2.23-0.14,3.59c-2.53,6.83-5.54,11.78-8.61,17.5c-0.41,0.77-0.57,2.92,0,3.17c3.02,1.27,7.25,3.38,9.84,5.7"/>
		<path id="kvg:07d05-Kaisho-s2" kvg:type="㇜" d="M40.2,29.4c0.26,0.57,0.35,2.45,0,3.06c-5.12,8.98-12.75,21.48-19.77,29.68c-1.61,1.88,0.4,2.95,1.45,2.57c4.4-1.6,13.52-4.45,19.17-5.98"/>
		<path id="kvg:07d05-Kaisho-s3" kvg:type="㇔" d="M37.4,51.34c2.28,2.3,5.9,9.45,6.47,13.02"/>
		<path id="kvg:07d05-Kaisho-s4" kvg:type="㇔" d="M16.13,76.35c3.47,2.87,6.13,9.55,6.94,12.15"/>
		<path id="kvg:07d05-Kaisho-s5" kvg:type="㇔" d="M26.07,72.64c3.93,2.49,6.95,8.27,7.86,10.53"/>
		<path id="kvg:07d05-Kaisho-s6" kvg:type="㇔" d="M36.01,68.23c3.81,2,6.74,6.63,7.63,8.44"/>
	</g>
	<g id="kvg:07d05-Kaisho-g2" kvg:element="工" kvg:position="right">
		<path id="kvg:07d05-Kaisho-s7" kvg:type="㇐" d="M52.25,36.54c0.65,0.41,2.79,0.55,3.45,0.42c3.08-0.56,24.87-4.28,30.04-4.71c1.01-0.08,1.93,0.08,2.76,0.43"/>
		<path id="kvg:07d05-Kaisho-s8" kvg:type="㇑a" d="M68.54,35.5c1.91,2.39,1.91,3.83,1.91,5.74c0,13.44,0.02,23.51,0.02,39.26"/>
		<path id="kvg:07d05-Kaisho-s9" kvg:type="㇐" d="M45.75,83.37c0.66,0.23,3,0.46,4.1,0.36c11.96-1.11,31.69-5.29,42.58-5.63c1.78-0.06,3.93,0.38,4.82,0.74"/>
	</g>
</g>
</g>
<g id="kvg:StrokeNumbers_07d05-Kaisho" style="font-size:8;fill:#808080">
	<text transform="matrix(1 0 0 1 23.25 18.50)">1</text>
	<text transform="matrix(1 0 0 1 34.50 28.50)">2</text>
	<text transform="matrix(1 0 0 1 38.50 49.50)">3</text>
	<text transform="matrix(1 0 0 1 10.50 79.50)">4</text>
	<text transform="matrix(1 0 0 1 19.50 75.50)">5</text>
	<text transform="matrix(1 0 0 1 30.50 70.50)">6</text>
	<text transform="matrix(1 0 0 1 51.50 33.50)">7</text>
	<text transform="matrix(1 0 0 1 62.25 46.63)">8</text>
</g>
</svg>
