<?xml version="1.0" encoding="UTF-8"?>
<!--
Copyright (C) 2009/2010/2011 Ulrich Apel.
This work is distributed under the conditions of the Creative Commons 
Attribution-Share Alike 3.0 Licence. This means you are free:
* to Share - to copy, distribute and transmit the work
* to Remix - to adapt the work

Under the following conditions:
* Attribution. You must attribute the work by stating your use of KanjiVG in
  your own copyright header and linking to KanjiVG's website
  (http://kanjivg.tagaini.net)
* Share Alike. If you alter, transform, or build upon this work, you may
  distribute the resulting work only under the same or similar license to this
  one.

See http://creativecommons.org/licenses/by-sa/3.0/ for more details.
-->
<!DOCTYPE svg PUBLIC "-//W3C//DTD SVG 1.0//EN" "http://www.w3.org/TR/2001/REC-SVG-20010904/DTD/svg10.dtd" [
<!ATTLIST g
xmlns:kvg CDATA #FIXED "http://kanjivg.tagaini.net"
kvg:element CDATA #IMPLIED
kvg:variant CDATA #IMPLIED
kvg:partial CDATA #IMPLIED
kvg:original CDATA #IMPLIED
kvg:part CDATA #IMPLIED
kvg:number CDATA #IMPLIED
kvg:tradForm CDATA #IMPLIED
kvg:radicalForm CDATA #IMPLIED
kvg:position CDATA #IMPLIED
kvg:radical CDATA #IMPLIED
kvg:phon CDATA #IMPLIED >
<!ATTLIST path
xmlns:kvg CDATA #FIXED "http://kanjivg.tagaini.net"
kvg:type CDATA #IMPLIED >
]>
<svg xmlns="http://www.w3.org/2000/svg" width="109" height="109" viewBox="0 0 109 109">
<g id="kvg:StrokePaths_07d06" style="fill:none;stroke:#000000;stroke-width:3;stroke-linecap:round;stroke-linejoin:round;">
<g id="kvg:07d06" kvg:element="紆">
	<g id="kvg:07d06-g1" kvg:element="糸" kvg:position="left" kvg:radical="general">
		<path id="kvg:07d06-s1" kvg:type="㇜" d="M27.4,11.92c0.36,1.42,0.38,2.47-0.18,4.01c-2.46,6.81-7.46,14.56-12.28,20.01c-0.67,0.75-0.72,3.27,0,3.54c3.81,1.42,9.64,3.28,12.91,5.88"/>
		<path id="kvg:07d06-s2" kvg:type="㇜" d="M40.3,23.68c0.3,0.58,0.37,2.46,0,3.09c-5.8,9.73-15.49,24.18-23.48,32.44c-1.83,1.89,0.46,2.98,1.65,2.59c5-1.61,16.87-4.49,23.29-6.03"/>
		<path id="kvg:07d06-s3" kvg:type="㇔" d="M36.63,46.63c2.78,2.8,7.18,11.5,7.87,15.85"/>
		<path id="kvg:07d06-s4" kvg:type="㇑" d="M29.14,61.87c0.07,0.36,0.91,1.85,0.98,4.09c0.31,10.79-0.2,28.79-0.2,32.46"/>
		<path id="kvg:07d06-s5" kvg:type="㇒" d="M20.85,72.1c0.16,0.94,0.13,2.79-0.16,3.47c-1.87,4.39-6.55,12.85-9.2,16.62"/>
		<path id="kvg:07d06-s6" kvg:type="㇔" d="M37.68,70.29c3.87,3.77,6.84,12.52,7.74,15.94"/>
	</g>
	<g id="kvg:07d06-g2" kvg:element="于" kvg:position="right">
		<g id="kvg:07d06-g3" kvg:element="二">
			<g id="kvg:07d06-g4" kvg:position="top">
				<path id="kvg:07d06-s7" kvg:type="㇐" d="M51.25,19.94c1.02,0.29,2.88,0.27,3.89,0.29c5.41,0.11,23.64-2.34,33.3-2.34c1.69,0,2.71,0.14,3.56,0.28"/>
			</g>
			<g id="kvg:07d06-g5" kvg:position="bottom">
				<path id="kvg:07d06-s8" kvg:type="㇐" d="M46.05,49.84c1.46,0.28,4.13,0.33,5.58,0.24c10.76-0.65,26.51-2.09,42.23-2.22c2.43-0.02,3.88,0.1,5.1,0.24"/>
			</g>
		</g>
		<g id="kvg:07d06-g6" kvg:element="亅">
			<path id="kvg:07d06-s9" kvg:type="㇚" d="M71,22.85c0.74,0.92,1.61,3,1.69,6.06c0.35,14.66-0.22,58.55-0.22,63.54c0,10.56-7.63,0.2-8.61-0.75"/>
		</g>
	</g>
</g>
</g>
<g id="kvg:StrokeNumbers_07d06" style="font-size:8;fill:#808080">
	<text transform="matrix(1 0 0 1 20.50 11.50)">1</text>
	<text transform="matrix(1 0 0 1 33.50 22.50)">2</text>
	<text transform="matrix(1 0 0 1 36.50 44.50)">3</text>
	<text transform="matrix(1 0 0 1 22.50 69.50)">4</text>
	<text transform="matrix(1 0 0 1 11.50 73.50)">5</text>
	<text transform="matrix(1 0 0 1 35.50 67.50)">6</text>
	<text transform="matrix(1 0 0 1 49.50 15.50)">7</text>
	<text transform="matrix(1 0 0 1 44.50 45.50)">8</text>
	<text transform="matrix(1 0 0 1 63.50 30.03)">9</text>
</g>
</svg>
