<?xml version="1.0" encoding="UTF-8"?>
<!--
Copyright (C) 2009/2010/2011 Ulrich Apel.
This work is distributed under the conditions of the Creative Commons 
Attribution-Share Alike 3.0 Licence. This means you are free:
* to Share - to copy, distribute and transmit the work
* to Remix - to adapt the work

Under the following conditions:
* Attribution. You must attribute the work by stating your use of KanjiVG in
  your own copyright header and linking to KanjiVG's website
  (http://kanjivg.tagaini.net)
* Share Alike. If you alter, transform, or build upon this work, you may
  distribute the resulting work only under the same or similar license to this
  one.

See http://creativecommons.org/licenses/by-sa/3.0/ for more details.
-->
<!DOCTYPE svg PUBLIC "-//W3C//DTD SVG 1.0//EN" "http://www.w3.org/TR/2001/REC-SVG-20010904/DTD/svg10.dtd" [
<!ATTLIST g
xmlns:kvg CDATA #FIXED "http://kanjivg.tagaini.net"
kvg:element CDATA #IMPLIED
kvg:variant CDATA #IMPLIED
kvg:partial CDATA #IMPLIED
kvg:original CDATA #IMPLIED
kvg:part CDATA #IMPLIED
kvg:number CDATA #IMPLIED
kvg:tradForm CDATA #IMPLIED
kvg:radicalForm CDATA #IMPLIED
kvg:position CDATA #IMPLIED
kvg:radical CDATA #IMPLIED
kvg:phon CDATA #IMPLIED >
<!ATTLIST path
xmlns:kvg CDATA #FIXED "http://kanjivg.tagaini.net"
kvg:type CDATA #IMPLIED >
]>
<svg xmlns="http://www.w3.org/2000/svg" width="109" height="109" viewBox="0 0 109 109">
<g id="kvg:StrokePaths_07d0d" style="fill:none;stroke:#000000;stroke-width:3;stroke-linecap:round;stroke-linejoin:round;">
<g id="kvg:07d0d" kvg:element="納">
	<g id="kvg:07d0d-g1" kvg:element="糸" kvg:position="left" kvg:radical="general">
		<path id="kvg:07d0d-s1" kvg:type="㇜" d="M28.88,14.67c0.34,1.34,0.59,2.44-0.17,3.8c-3.33,5.9-6.65,10.69-11.8,17.22c-1.03,1.31-0.65,2.68,0.75,3.35c3.47,1.66,5.13,2.61,8.22,5.06"/>
		<path id="kvg:07d0d-s2" kvg:type="㇜" d="M37.55,26.68c0.32,1.32-0.09,2.98-0.5,3.59c-6.3,9.23-13.18,18.36-21.48,27.44c-1.78,1.95-0.9,3.51,1.4,2.84c5.78-1.68,15.62-4.99,22.04-6.53"/>
		<path id="kvg:07d0d-s3" kvg:type="㇔" d="M35.25,47.25c2.56,2.16,6.61,8.87,7.25,12.23"/>
		<path id="kvg:07d0d-s4" kvg:type="㇑" d="M28.89,59.37c0.68,0.68,1.23,2.26,1.23,3.79c0,8.52-0.09,20.55-0.15,26.85c-0.03,3.16-0.05,4.38-0.05,5.75"/>
		<path id="kvg:07d0d-s5" kvg:type="㇒" d="M21,67.75c0.13,1.02,0.11,2.23-0.13,2.96c-1.6,4.75-5.6,13.9-7.87,17.97"/>
		<path id="kvg:07d0d-s6" kvg:type="㇔" d="M37.75,65.88c3.09,3.81,5.46,12.65,6.17,16.1"/>
	</g>
	<g id="kvg:07d0d-g2" kvg:element="内" kvg:position="right" kvg:phon="内">
		<g id="kvg:07d0d-g3" kvg:element="冂">
			<path id="kvg:07d0d-s7" kvg:type="㇑" d="M50.25,31.52c0.8,0.8,1.13,2.08,1.13,3.81c0,3.24,0.09,33.42,0.11,51.17c0,2.33,0,4.44,0,6.25"/>
			<path id="kvg:07d0d-s8" kvg:type="㇆a" d="M52.19,33.04c5.25-0.68,30.6-2.7,37.32-3.29c3.59-0.31,5.23,0.12,5.24,4.13c0.01,7.79,0.08,48.83,0.08,55.34c0,9.03-5.21,1.78-6.72,0.56"/>
		</g>
		<g id="kvg:07d0d-g4" kvg:element="人">
			<path id="kvg:07d0d-s9" kvg:type="㇒" d="M70.09,13.75c1.04,1.12,1.25,2.65,1.28,4.56c0.26,17.44-0.49,39.56-15.87,51.59"/>
			<path id="kvg:07d0d-s10" kvg:type="㇔/㇏" d="M73,46c4.99,3.61,12.9,14.85,14.15,20.47"/>
		</g>
	</g>
</g>
</g>
<g id="kvg:StrokeNumbers_07d0d" style="font-size:8;fill:#808080">
	<text transform="matrix(1 0 0 1 22.50 16.63)">1</text>
	<text transform="matrix(1 0 0 1 30.50 28.63)">2</text>
	<text transform="matrix(1 0 0 1 29.25 52.63)">3</text>
	<text transform="matrix(1 0 0 1 22.50 67.55)">4</text>
	<text transform="matrix(1 0 0 1 12.50 72.50)">5</text>
	<text transform="matrix(1 0 0 1 33.75 76.63)">6</text>
	<text transform="matrix(1 0 0 1 43.50 40.63)">7</text>
	<text transform="matrix(1 0 0 1 53.25 29.50)">8</text>
	<text transform="matrix(1 0 0 1 60.75 15.13)">9</text>
	<text transform="matrix(1 0 0 1 75.75 46.63)">10</text>
</g>
</svg>
