<?xml version="1.0" encoding="UTF-8"?>
<!--
Copyright (C) 2009/2010/2011 Ulrich Apel.
This work is distributed under the conditions of the Creative Commons 
Attribution-Share Alike 3.0 Licence. This means you are free:
* to Share - to copy, distribute and transmit the work
* to Remix - to adapt the work

Under the following conditions:
* Attribution. You must attribute the work by stating your use of KanjiVG in
  your own copyright header and linking to KanjiVG's website
  (http://kanjivg.tagaini.net)
* Share Alike. If you alter, transform, or build upon this work, you may
  distribute the resulting work only under the same or similar license to this
  one.

See http://creativecommons.org/licenses/by-sa/3.0/ for more details.
-->
<!DOCTYPE svg PUBLIC "-//W3C//DTD SVG 1.0//EN" "http://www.w3.org/TR/2001/REC-SVG-20010904/DTD/svg10.dtd" [
<!ATTLIST g
xmlns:kvg CDATA #FIXED "http://kanjivg.tagaini.net"
kvg:element CDATA #IMPLIED
kvg:variant CDATA #IMPLIED
kvg:partial CDATA #IMPLIED
kvg:original CDATA #IMPLIED
kvg:part CDATA #IMPLIED
kvg:number CDATA #IMPLIED
kvg:tradForm CDATA #IMPLIED
kvg:radicalForm CDATA #IMPLIED
kvg:position CDATA #IMPLIED
kvg:radical CDATA #IMPLIED
kvg:phon CDATA #IMPLIED >
<!ATTLIST path
xmlns:kvg CDATA #FIXED "http://kanjivg.tagaini.net"
kvg:type CDATA #IMPLIED >
]>
<svg xmlns="http://www.w3.org/2000/svg" width="109" height="109" viewBox="0 0 109 109">
<g id="kvg:StrokePaths_07d0a-Kaisho" style="fill:none;stroke:#000000;stroke-width:3;stroke-linecap:round;stroke-linejoin:round;">
<g id="kvg:07d0a-Kaisho" kvg:element="紊">
	<g id="kvg:07d0a-Kaisho-g1" kvg:element="文" kvg:position="top" kvg:radical="nelson">
		<g id="kvg:07d0a-Kaisho-g2" kvg:element="亠" kvg:position="top">
			<path id="kvg:07d0a-Kaisho-s1" kvg:type="㇔/㇑a" d="M50.51,9.31c2.64,0.86,4.99,3.44,6.46,6.36"/>
			<path id="kvg:07d0a-Kaisho-s2" kvg:type="㇐" d="M20,21.57c1.22,0.05,3.53,0.3,4.72,0.27c9.97-0.24,48.17-3.05,61.23-3.18c2.02-0.02,3.05,0.03,4.55,0.35"/>
		</g>
		<g id="kvg:07d0a-Kaisho-g3" kvg:position="bottom">
			<path id="kvg:07d0a-Kaisho-s3" kvg:type="㇒" d="M69.35,22.72c0.68,0.68,0.43,2.27-0.66,3.41C57.75,37.5,39.75,47.25,15.5,53.25"/>
			<path id="kvg:07d0a-Kaisho-s4" kvg:type="㇏" d="M35.75,29.25c14.36,5.79,34.88,16.72,51.91,22.77c3.2,1.14,5.56,1.12,8.34,1.22"/>
		</g>
	</g>
	<g id="kvg:07d0a-Kaisho-g4" kvg:element="糸" kvg:position="bottom" kvg:radical="tradit">
		<path id="kvg:07d0a-Kaisho-s5" kvg:type="㇜" d="M51.85,46.75c0.43,0.79,0.32,1.97-0.72,2.75c-4.56,3.44-10.65,8.98-14.99,10.83c-0.89,0.38-0.86,1.83,0,1.99c4.56,0.79,10.05,3.12,13.95,4.58"/>
		<path id="kvg:07d0a-Kaisho-s6" kvg:type="㇜" d="M68.04,53.25c0.5,0.46,0.16,2.47-0.5,2.96c-9.75,7.23-20.17,13.7-33.55,20.3c-3.07,1.51-1.74,2.88,0.26,2.57c8.38-1.29,32.24-3.85,43-5.08"/>
		<path id="kvg:07d0a-Kaisho-s7" kvg:type="㇔" d="M68.11,66.1c5.43,2.42,14.03,9.94,15.39,13.7"/>
		<path id="kvg:07d0a-Kaisho-s8" kvg:type="㇚/㇑" d="M53.55,78.25c0.06,0.18,0.88,0.91,0.94,2.01c0.3,5.3-0.19,15.68-0.19,17.49c0,9-4.3,1.25-5.05,0.5"/>
		<path id="kvg:07d0a-Kaisho-s9" kvg:type="㇒" d="M40.35,85.7c0.15,1.05-0.18,2.45-0.89,2.92c-4.62,3.06-14.67,8.46-21.22,11.08"/>
		<path id="kvg:07d0a-Kaisho-s10" kvg:type="㇔" d="M67.52,85.2c9.2,2.84,16.26,9.43,18.4,12"/>
	</g>
</g>
</g>
<g id="kvg:StrokeNumbers_07d0a-Kaisho" style="font-size:8;fill:#808080">
	<text transform="matrix(1 0 0 1 43.50 9.50)">1</text>
	<text transform="matrix(1 0 0 1 12.44 23.50)">2</text>
	<text transform="matrix(1 0 0 1 56.50 29.50)">3</text>
	<text transform="matrix(1 0 0 1 28.44 32.50)">4</text>
	<text transform="matrix(1 0 0 1 40.50 51.50)">5</text>
	<text transform="matrix(1 0 0 1 60.50 54.50)">6</text>
	<text transform="matrix(1 0 0 1 71.50 65.50)">7</text>
	<text transform="matrix(1 0 0 1 46.44 86.50)">8</text>
	<text transform="matrix(1 0 0 1 30.44 88.50)">9</text>
	<text transform="matrix(1 0 0 1 65.50 83.50)">10</text>
</g>
</svg>
