<?xml version="1.0" encoding="UTF-8"?>
<!--
Copyright (C) 2009/2010/2011 Ulrich Apel.
This work is distributed under the conditions of the Creative Commons 
Attribution-Share Alike 3.0 Licence. This means you are free:
* to Share - to copy, distribute and transmit the work
* to Remix - to adapt the work

Under the following conditions:
* Attribution. You must attribute the work by stating your use of KanjiVG in
  your own copyright header and linking to KanjiVG's website
  (http://kanjivg.tagaini.net)
* Share Alike. If you alter, transform, or build upon this work, you may
  distribute the resulting work only under the same or similar license to this
  one.

See http://creativecommons.org/licenses/by-sa/3.0/ for more details.
-->
<!DOCTYPE svg PUBLIC "-//W3C//DTD SVG 1.0//EN" "http://www.w3.org/TR/2001/REC-SVG-20010904/DTD/svg10.dtd" [
<!ATTLIST g
xmlns:kvg CDATA #FIXED "http://kanjivg.tagaini.net"
kvg:element CDATA #IMPLIED
kvg:variant CDATA #IMPLIED
kvg:partial CDATA #IMPLIED
kvg:original CDATA #IMPLIED
kvg:part CDATA #IMPLIED
kvg:number CDATA #IMPLIED
kvg:tradForm CDATA #IMPLIED
kvg:radicalForm CDATA #IMPLIED
kvg:position CDATA #IMPLIED
kvg:radical CDATA #IMPLIED
kvg:phon CDATA #IMPLIED >
<!ATTLIST path
xmlns:kvg CDATA #FIXED "http://kanjivg.tagaini.net"
kvg:type CDATA #IMPLIED >
]>
<svg xmlns="http://www.w3.org/2000/svg" width="109" height="109" viewBox="0 0 109 109">
<g id="kvg:StrokePaths_07d2f" style="fill:none;stroke:#000000;stroke-width:3;stroke-linecap:round;stroke-linejoin:round;">
<g id="kvg:07d2f" kvg:element="累">
	<g id="kvg:07d2f-g1" kvg:element="田" kvg:position="top" kvg:radical="nelson" kvg:phon="畾T">
		<path id="kvg:07d2f-s1" kvg:type="㇑" d="M25.7,13.27c0.83,0.83,1.31,1.73,1.62,2.96c1.18,4.76,2.87,12.56,4.03,19.75c0.31,1.92,0.57,3.78,0.76,5.48"/>
		<path id="kvg:07d2f-s2" kvg:type="㇕a" d="M27.77,14.43c12.48-1.18,37.85-3.18,50.86-4c3.45-0.22,6.13,0.52,5.29,4.73c-0.92,4.59-1.98,10.17-3.59,17.15c-0.44,1.93-0.91,3.93-1.37,5.97"/>
		<path id="kvg:07d2f-s3" kvg:type="㇑a" d="M53.13,14.91c0.92,0.92,1.14,2.22,1.14,3.75c0,6.64,0.08,14.03,0.08,17.54"/>
		<path id="kvg:07d2f-s4" kvg:type="㇐a" d="M30.46,26.18c3.82-0.46,37.42-2.8,50.53-3.21"/>
		<path id="kvg:07d2f-s5" kvg:type="㇐a" d="M32.96,39.19C43.5,38.25,63,36.62,78.21,36.04"/>
	</g>
	<g id="kvg:07d2f-g2" kvg:element="糸" kvg:position="bottom" kvg:radical="tradit">
		<path id="kvg:07d2f-s6" kvg:type="㇜" d="M47.91,41c0.09,1.38-0.11,2.47-0.98,3.75C45,47.62,41,52,38.08,54.95c-0.77,0.78-0.67,2.67,0.25,2.87c3.17,0.68,4.92,1.31,7.83,2.67"/>
		<path id="kvg:07d2f-s7" kvg:type="㇜" d="M66.17,44.41c0,1.22-0.42,2.22-1.46,3.12c-8.8,7.6-18.44,14.39-31.23,23.33c-3.09,1.73-2.86,2.86,0.64,2.16c8.73-1.75,30.36-5.68,39.82-7.14"/>
		<path id="kvg:07d2f-s8" kvg:type="㇔" d="M68.25,58.88C72.22,61.1,78.5,68.03,79.5,71.5"/>
		<path id="kvg:07d2f-s9" kvg:type="㇑" d="M53.26,72c0.87,0.87,1.16,2.03,1.16,3.29c0,4.83-0.05,13-0.05,19.21c0,1,0.06,3,0.06,5"/>
		<path id="kvg:07d2f-s10" kvg:type="㇒" d="M36.99,80.79c0.01,1.21-0.54,2.2-1,2.66c-3.05,2.94-9.24,7.93-14.74,11.4"/>
		<path id="kvg:07d2f-s11" kvg:type="㇔" d="M70.42,79.85c5.27,3.19,14.29,11.7,16.17,14.9"/>
	</g>
</g>
</g>
<g id="kvg:StrokeNumbers_07d2f" style="font-size:8;fill:#808080">
	<text transform="matrix(1 0 0 1 19.25 21.25)">1</text>
	<text transform="matrix(1 0 0 1 29.25 11.25)">2</text>
	<text transform="matrix(1 0 0 1 46.25 21.25)">3</text>
	<text transform="matrix(1 0 0 1 34.25 23.25)">4</text>
	<text transform="matrix(1 0 0 1 35.00 36.25)">5</text>
	<text transform="matrix(1 0 0 1 38.25 47.73)">6</text>
	<text transform="matrix(1 0 0 1 58.25 46.25)">7</text>
	<text transform="matrix(1 0 0 1 60.25 62.25)">8</text>
	<text transform="matrix(1 0 0 1 46.25 79.25)">9</text>
	<text transform="matrix(1 0 0 1 24.25 84.25)">10</text>
	<text transform="matrix(1 0 0 1 60.50 80.25)">11</text>
</g>
</svg>
