<?xml version="1.0" encoding="UTF-8"?>
<!--
Copyright (C) 2009/2010/2011 Ulrich Apel.
This work is distributed under the conditions of the Creative Commons 
Attribution-Share Alike 3.0 Licence. This means you are free:
* to Share - to copy, distribute and transmit the work
* to Remix - to adapt the work

Under the following conditions:
* Attribution. You must attribute the work by stating your use of KanjiVG in
  your own copyright header and linking to KanjiVG's website
  (http://kanjivg.tagaini.net)
* Share Alike. If you alter, transform, or build upon this work, you may
  distribute the resulting work only under the same or similar license to this
  one.

See http://creativecommons.org/licenses/by-sa/3.0/ for more details.
-->
<!DOCTYPE svg PUBLIC "-//W3C//DTD SVG 1.0//EN" "http://www.w3.org/TR/2001/REC-SVG-20010904/DTD/svg10.dtd" [
<!ATTLIST g
xmlns:kvg CDATA #FIXED "http://kanjivg.tagaini.net"
kvg:element CDATA #IMPLIED
kvg:variant CDATA #IMPLIED
kvg:partial CDATA #IMPLIED
kvg:original CDATA #IMPLIED
kvg:part CDATA #IMPLIED
kvg:number CDATA #IMPLIED
kvg:tradForm CDATA #IMPLIED
kvg:radicalForm CDATA #IMPLIED
kvg:position CDATA #IMPLIED
kvg:radical CDATA #IMPLIED
kvg:phon CDATA #IMPLIED >
<!ATTLIST path
xmlns:kvg CDATA #FIXED "http://kanjivg.tagaini.net"
kvg:type CDATA #IMPLIED >
]>
<svg xmlns="http://www.w3.org/2000/svg" width="109" height="109" viewBox="0 0 109 109">
<g id="kvg:StrokePaths_07d5e" style="fill:none;stroke:#000000;stroke-width:3;stroke-linecap:round;stroke-linejoin:round;">
<g id="kvg:07d5e" kvg:element="絞">
	<g id="kvg:07d5e-g1" kvg:element="糸" kvg:position="left" kvg:radical="general">
		<path id="kvg:07d5e-s1" kvg:type="㇜" d="M30.13,14.17c0.34,1.34,0.44,2.37-0.17,3.8c-2.33,5.4-5.6,12.42-10.3,18.22c-0.65,0.81-0.9,2.18,0.5,2.6c3.68,1.1,5.97,1.83,9.22,3.31"/>
		<path id="kvg:07d5e-s2" kvg:type="㇜" d="M41.8,23.68c0.2,1.07,0.2,1.95-0.5,3.09c-5.9,9.68-14.8,21.36-23.48,31.44c-1.72,2-0.95,3.92,1.4,3.09c4.96-1.74,14.03-4.93,21.03-7.18"/>
		<path id="kvg:07d5e-s3" kvg:type="㇔" d="M36.38,46.13c2.6,2.09,6.72,8.6,7.37,11.85"/>
		<path id="kvg:07d5e-s4" kvg:type="㇑" d="M30.14,59.62c1,1,1.23,2.51,1.23,3.84c0,6.82-0.06,19.98-0.1,27.42c-0.01,2.88-0.02,4.91-0.02,5.37"/>
		<path id="kvg:07d5e-s5" kvg:type="㇒" d="M19.62,71.6c0.12,0.89,0.1,2.66-0.12,3.29c-1.47,4.17-5.16,12.21-7.25,15.79"/>
		<path id="kvg:07d5e-s6" kvg:type="㇔" d="M40.43,68.79c2.12,3.29,3.75,10.95,4.24,13.94"/>
	</g>
	<g id="kvg:07d5e-g2" kvg:element="交" kvg:position="right" kvg:phon="交">
		<g id="kvg:07d5e-g3" kvg:element="亠" kvg:position="top">
			<path id="kvg:07d5e-s7" kvg:type="㇑a" d="M67.12,14.5c1.19,1.19,1.48,2.62,1.48,4.26c0,4.32-0.1,6.83-0.1,10.36"/>
			<path id="kvg:07d5e-s8" kvg:type="㇐" d="M49.25,31.76c2.37,0.49,4.34,0.53,6.74,0.19c8.84-1.25,22.66-3.3,30.13-3.91c2.05-0.17,4.25-0.17,6.04,0.25"/>
		</g>
		<g id="kvg:07d5e-g4" kvg:element="父" kvg:position="bottom">
			<path id="kvg:07d5e-s9" kvg:type="㇒" d="M58.96,41.84c0.22,0.73,0.07,2.48-0.54,3.63c-2.67,5.03-5.89,9.85-10.17,13.98"/>
			<path id="kvg:07d5e-s10" kvg:type="㇔" d="M77.52,38.73c5.65,3.5,10.31,7.54,13.13,11.79"/>
			<path id="kvg:07d5e-s11" kvg:type="㇒" d="M77.9,51.41c0.38,0.86,0.21,2.09-0.37,3.65C73.5,66,62,81.12,48.25,89.9"/>
			<path id="kvg:07d5e-s12" kvg:type="㇏" d="M56.59,58.27c2.15,0.18,16.41,15.1,28.08,26.68c2.82,2.8,5.85,5.13,8.1,6.91"/>
		</g>
	</g>
</g>
</g>
<g id="kvg:StrokeNumbers_07d5e" style="font-size:8;fill:#808080">
	<text transform="matrix(1 0 0 1 23.25 13.63)">1</text>
	<text transform="matrix(1 0 0 1 34.50 24.50)">2</text>
	<text transform="matrix(1 0 0 1 38.50 45.50)">3</text>
	<text transform="matrix(1 0 0 1 24.75 68.90)">4</text>
	<text transform="matrix(1 0 0 1 11.25 76.33)">5</text>
	<text transform="matrix(1 0 0 1 36.75 79.63)">6</text>
	<text transform="matrix(1 0 0 1 59.50 14.50)">7</text>
	<text transform="matrix(1 0 0 1 48.50 29.50)">8</text>
	<text transform="matrix(1 0 0 1 51.75 43.48)">9</text>
	<text transform="matrix(1 0 0 1 66.50 39.13)">10</text>
	<text transform="matrix(1 0 0 1 67.50 51.05)">11</text>
	<text transform="matrix(1 0 0 1 60.50 58.50)">12</text>
</g>
</svg>
