<?xml version="1.0" encoding="UTF-8"?>
<!--
Copyright (C) 2009/2010/2011 Ulrich Apel.
This work is distributed under the conditions of the Creative Commons 
Attribution-Share Alike 3.0 Licence. This means you are free:
* to Share - to copy, distribute and transmit the work
* to Remix - to adapt the work

Under the following conditions:
* Attribution. You must attribute the work by stating your use of KanjiVG in
  your own copyright header and linking to KanjiVG's website
  (http://kanjivg.tagaini.net)
* Share Alike. If you alter, transform, or build upon this work, you may
  distribute the resulting work only under the same or similar license to this
  one.

See http://creativecommons.org/licenses/by-sa/3.0/ for more details.
-->
<!DOCTYPE svg PUBLIC "-//W3C//DTD SVG 1.0//EN" "http://www.w3.org/TR/2001/REC-SVG-20010904/DTD/svg10.dtd" [
<!ATTLIST g
xmlns:kvg CDATA #FIXED "http://kanjivg.tagaini.net"
kvg:element CDATA #IMPLIED
kvg:variant CDATA #IMPLIED
kvg:partial CDATA #IMPLIED
kvg:original CDATA #IMPLIED
kvg:part CDATA #IMPLIED
kvg:number CDATA #IMPLIED
kvg:tradForm CDATA #IMPLIED
kvg:radicalForm CDATA #IMPLIED
kvg:position CDATA #IMPLIED
kvg:radical CDATA #IMPLIED
kvg:phon CDATA #IMPLIED >
<!ATTLIST path
xmlns:kvg CDATA #FIXED "http://kanjivg.tagaini.net"
kvg:type CDATA #IMPLIED >
]>
<svg xmlns="http://www.w3.org/2000/svg" width="109" height="109" viewBox="0 0 109 109">
<g id="kvg:StrokePaths_07d7d" style="fill:none;stroke:#000000;stroke-width:3;stroke-linecap:round;stroke-linejoin:round;">
<g id="kvg:07d7d" kvg:element="絽">
	<g id="kvg:07d7d-g1" kvg:element="糸" kvg:position="left" kvg:radical="general">
		<path id="kvg:07d7d-s1" kvg:type="㇜" d="M28.9,11.92c0.36,1.42,0.38,2.47-0.18,4.01C26.25,22.75,20.25,30,15.43,35.44c-0.67,0.75-0.72,3.27,0,3.54c3.81,1.42,8.64,2.78,11.91,5.38"/>
		<path id="kvg:07d7d-s2" kvg:type="㇜" d="M40.3,24.68c0.3,0.58,0.37,2.46,0,3.09c-5.8,9.73-15.49,22.18-23.48,30.44c-1.83,1.89,0.46,2.98,1.65,2.59c5-1.61,16.87-4.49,23.29-6.03"/>
		<path id="kvg:07d7d-s3" kvg:type="㇔" d="M37.88,48.13c2.34,2.36,6.04,9.69,6.62,13.35"/>
		<path id="kvg:07d7d-s4" kvg:type="㇑" d="M29.14,60.87c0.07,0.36,0.91,1.85,0.98,4.09c0.31,10.79-0.2,28.79-0.2,32.46"/>
		<path id="kvg:07d7d-s5" kvg:type="㇒" d="M20.61,72.35c0.15,0.88,0.13,2.62-0.15,3.25c-1.82,4.12-6.38,12.05-8.96,15.58"/>
		<path id="kvg:07d7d-s6" kvg:type="㇔" d="M39.43,70.54c3.25,3.47,5.74,11.54,6.49,14.69"/>
	</g>
	<g id="kvg:07d7d-g2" kvg:element="呂" kvg:position="right">
		<g id="kvg:07d7d-g3" kvg:element="口" kvg:position="top">
			<path id="kvg:07d7d-s7" kvg:type="㇑" d="M51.5,17c0.5,0.48,1,0.87,1.22,1.46c1.71,4.64,3.73,17.39,4.89,25.69"/>
			<path id="kvg:07d7d-s8" kvg:type="㇕b" d="M53.64,19.19c11.11-1.19,29-2.05,33.91-2.55c1.8-0.18,2.87,2.37,2.61,3.7c-1.07,5.51-2.3,11.76-4.59,19.69"/>
			<path id="kvg:07d7d-s9" kvg:type="㇐b" d="M57.95,42.48c5.24-0.39,22.51-1.67,29.16-2.04"/>
		</g>
		<g id="kvg:07d7d-g4" kvg:position="bottom">
			<g id="kvg:07d7d-g5" kvg:element="丿">
				<path id="kvg:07d7d-s10" kvg:type="㇒" d="M71.79,44.68c0.89,0.97,0.34,2.23-0.19,3.36c-0.4,0.84-7.88,11.58-8.6,12.71"/>
			</g>
			<g id="kvg:07d7d-g6" kvg:element="口">
				<path id="kvg:07d7d-s11" kvg:type="㇑" d="M51.34,62.02c0.44,0.59,0.9,1.09,1.09,1.82c1.53,5.71,2.86,19.98,3.89,30.14"/>
				<path id="kvg:07d7d-s12" kvg:type="㇕b" d="M53.11,64.12c12.14-1.12,32.75-1.99,38.37-2.43c2.06-0.16,3.29,3.13,2.99,4.83c-1.23,7-2.66,11.73-5.03,24.04"/>
				<path id="kvg:07d7d-s13" kvg:type="㇐b" d="M56.77,92.29c6.31-0.39,28.2-1.24,36.21-1.54"/>
			</g>
		</g>
	</g>
</g>
</g>
<g id="kvg:StrokeNumbers_07d7d" style="font-size:8;fill:#808080">
	<text transform="matrix(1 0 0 1 21.50 12.50)">1</text>
	<text transform="matrix(1 0 0 1 32.50 23.50)">2</text>
	<text transform="matrix(1 0 0 1 38.50 45.50)">3</text>
	<text transform="matrix(1 0 0 1 21.75 68.40)">4</text>
	<text transform="matrix(1 0 0 1 10.50 72.50)">5</text>
	<text transform="matrix(1 0 0 1 35.50 66.50)">6</text>
	<text transform="matrix(1 0 0 1 44.50 23.50)">7</text>
	<text transform="matrix(1 0 0 1 55.75 15.50)">8</text>
	<text transform="matrix(1 0 0 1 61.75 38.50)">9</text>
	<text transform="matrix(1 0 0 1 59.50 50.50)">10</text>
	<text transform="matrix(1 0 0 1 43.50 70.50)">11</text>
	<text transform="matrix(1 0 0 1 53.50 60.50)">12</text>
	<text transform="matrix(1 0 0 1 58.50 88.50)">13</text>
</g>
</svg>
