<?xml version="1.0" encoding="UTF-8"?>
<!--
Copyright (C) 2009/2010/2011 Ulrich Apel.
This work is distributed under the conditions of the Creative Commons
Attribution-Share Alike 3.0 Licence. This means you are free:
* to Share - to copy, distribute and transmit the work
* to Remix - to adapt the work

Under the following conditions:
* Attribution. You must attribute the work by stating your use of KanjiVG in
  your own copyright header and linking to KanjiVG's website
  (http://kanjivg.tagaini.net)
* Share Alike. If you alter, transform, or build upon this work, you may
  distribute the resulting work only under the same or similar license to this
  one.

See http://creativecommons.org/licenses/by-sa/3.0/ for more details.
-->
<!DOCTYPE svg PUBLIC "-//W3C//DTD SVG 1.0//EN" "http://www.w3.org/TR/2001/REC-SVG-20010904/DTD/svg10.dtd" [
<!ATTLIST g
xmlns:kvg CDATA #FIXED "http://kanjivg.tagaini.net"
kvg:element CDATA #IMPLIED
kvg:variant CDATA #IMPLIED
kvg:partial CDATA #IMPLIED
kvg:original CDATA #IMPLIED
kvg:part CDATA #IMPLIED
kvg:number CDATA #IMPLIED
kvg:tradForm CDATA #IMPLIED
kvg:radicalForm CDATA #IMPLIED
kvg:position CDATA #IMPLIED
kvg:radical CDATA #IMPLIED
kvg:phon CDATA #IMPLIED >
<!ATTLIST path
xmlns:kvg CDATA #FIXED "http://kanjivg.tagaini.net"
kvg:type CDATA #IMPLIED >
]>
<svg xmlns="http://www.w3.org/2000/svg" width="109" height="109" viewBox="0 0 109 109">
<g id="kvg:StrokePaths_07d9c-Kaisho" style="fill:none;stroke:#000000;stroke-width:3;stroke-linecap:round;stroke-linejoin:round;">
<g id="kvg:07d9c-Kaisho" kvg:element="綜">
	<g id="kvg:07d9c-Kaisho-g1" kvg:element="糸" kvg:variant="true" kvg:position="left" kvg:radical="general">
		<path id="kvg:07d9c-Kaisho-s1" kvg:type="㇜" d="M22.12,12.5c0.32,1.46,0.4,2.58-0.16,4.14c-2.84,7.9-6.21,13.62-9.65,20.23c-0.46,0.89-0.64,3.38,0,3.66c3.38,1.46,8.12,3.9,11.02,6.58"/>
		<path id="kvg:07d9c-Kaisho-s2" kvg:type="㇜" d="M34.18,25.68c0.3,0.66,0.39,2.83,0,3.54C28.45,39.6,19.9,54.05,12.03,63.52c-1.81,2.17,0.45,3.41,1.62,2.97c4.93-1.85,15.15-5.15,21.48-6.91"/>
		<path id="kvg:07d9c-Kaisho-s3" kvg:type="㇔" d="M31.04,51.04c2.56,2.66,6.61,10.92,7.25,15.06"/>
		<path id="kvg:07d9c-Kaisho-s4" kvg:type="㇔" d="M7.21,79.96c3.89,3.32,6.87,11.04,7.77,14.04"/>
		<path id="kvg:07d9c-Kaisho-s5" kvg:type="㇔" d="M18.35,75.66c4.4,2.88,7.78,9.56,8.81,12.17"/>
		<path id="kvg:07d9c-Kaisho-s6" kvg:type="㇔" d="M29.49,70.57c4.27,2.31,7.55,7.67,8.55,9.76"/>
	</g>
	<g id="kvg:07d9c-Kaisho-g2" kvg:element="宗" kvg:position="right">
		<g id="kvg:07d9c-Kaisho-g3" kvg:element="宀" kvg:position="top">
			<path id="kvg:07d9c-Kaisho-s7" kvg:type="㇔/㇑a" d="M64.38,12.25c2.12,1.25,5.62,5,6.54,9.09"/>
			<path id="kvg:07d9c-Kaisho-s8" kvg:type="㇔" d="M49.13,26.31c0,2.7-2.18,11.4-3.17,13.2"/>
			<path id="kvg:07d9c-Kaisho-s9" kvg:type="㇖" d="M50.44,27.94c6.83-0.77,35.24-3.51,40.78-3.8c8.65-0.45,1.83,5.56-0.32,7.2"/>
		</g>
		<g id="kvg:07d9c-Kaisho-g4" kvg:element="示" kvg:position="bottom">
			<g id="kvg:07d9c-Kaisho-g5" kvg:position="top">
				<path id="kvg:07d9c-Kaisho-s10" kvg:type="㇐" d="M55.1,41.24c0.67,0.27,1.89,0.35,2.56,0.27c4.25-0.47,19.37-2.19,23.88-2.26c1.11-0.02,1.78,0.13,2.34,0.27"/>
				<path id="kvg:07d9c-Kaisho-s11" kvg:type="㇐" d="M45.83,56.67c1.08,0.39,3.06,0.46,4.14,0.39c8.14-0.56,27.98-2.65,41.12-2.67c1.8,0,2.88,0.18,3.78,0.38"/>
			</g>
			<g id="kvg:07d9c-Kaisho-g6" kvg:position="bottom">
				<path id="kvg:07d9c-Kaisho-s12" kvg:type="㇑" d="M68.61,58.34c0.07,0.37,1.36,1.92,1.42,4.27c0.31,11.26,0.25,22.55,0.25,26.39c0,8.15-3.5,2.93-6.74,0.19"/>
				<path id="kvg:07d9c-Kaisho-s13" kvg:type="㇒" d="M54.25,66.92c0.03,0.51,0.06,1.33-0.06,2.07c-0.74,4.35-6.15,12.86-12,18.71"/>
				<path id="kvg:07d9c-Kaisho-s14" kvg:type="㇔" d="M79.65,65.43c5.28,3.71,13.92,14.83,15.24,20.59"/>
			</g>
		</g>
	</g>
</g>
</g>
<g id="kvg:StrokeNumbers_07d9c-Kaisho" style="font-size:8;fill:#808080">
	<text transform="matrix(1 0 0 1 16.25 13.25)">1</text>
	<text transform="matrix(1 0 0 1 28.25 26.25)">2</text>
	<text transform="matrix(1 0 0 1 31.25 48.25)">3</text>
	<text transform="matrix(1 0 0 1 1.25 82.25)">4</text>
	<text transform="matrix(1 0 0 1 12.25 77.25)">5</text>
	<text transform="matrix(1 0 0 1 23.25 72.25)">6</text>
	<text transform="matrix(1 0 0 1 59.25 13.25)">7</text>
	<text transform="matrix(1 0 0 1 42.25 28.25)">8</text>
	<text transform="matrix(1 0 0 1 51.25 25.25)">9</text>
	<text transform="matrix(1 0 0 1 52.25 39.25)">10</text>
	<text transform="matrix(1 0 0 1 43.25 54.25)">11</text>
	<text transform="matrix(1 0 0 1 59.50 65.05)">12</text>
	<text transform="matrix(1 0 0 1 44.50 67.98)">13</text>
</g>
</svg>
