<?xml version="1.0" encoding="UTF-8"?>
<!--
Copyright (C) 2009/2010/2011 Ulrich Apel.
This work is distributed under the conditions of the Creative Commons
Attribution-Share Alike 3.0 Licence. This means you are free:
* to Share - to copy, distribute and transmit the work
* to Remix - to adapt the work

Under the following conditions:
* Attribution. You must attribute the work by stating your use of KanjiVG in
  your own copyright header and linking to KanjiVG's website
  (http://kanjivg.tagaini.net)
* Share Alike. If you alter, transform, or build upon this work, you may
  distribute the resulting work only under the same or similar license to this
  one.

See http://creativecommons.org/licenses/by-sa/3.0/ for more details.
-->
<!DOCTYPE svg PUBLIC "-//W3C//DTD SVG 1.0//EN" "http://www.w3.org/TR/2001/REC-SVG-20010904/DTD/svg10.dtd" [
<!ATTLIST g
xmlns:kvg CDATA #FIXED "http://kanjivg.tagaini.net"
kvg:element CDATA #IMPLIED
kvg:variant CDATA #IMPLIED
kvg:partial CDATA #IMPLIED
kvg:original CDATA #IMPLIED
kvg:part CDATA #IMPLIED
kvg:number CDATA #IMPLIED
kvg:tradForm CDATA #IMPLIED
kvg:radicalForm CDATA #IMPLIED
kvg:position CDATA #IMPLIED
kvg:radical CDATA #IMPLIED
kvg:phon CDATA #IMPLIED >
<!ATTLIST path
xmlns:kvg CDATA #FIXED "http://kanjivg.tagaini.net"
kvg:type CDATA #IMPLIED >
]>
<svg xmlns="http://www.w3.org/2000/svg" width="109" height="109" viewBox="0 0 109 109">
<g id="kvg:StrokePaths_07dbb-Kaisho" style="fill:none;stroke:#000000;stroke-width:3;stroke-linecap:round;stroke-linejoin:round;">
<g id="kvg:07dbb-Kaisho" kvg:element="綻">
	<g id="kvg:07dbb-Kaisho-g1" kvg:element="糸" kvg:variant="true" kvg:position="left" kvg:radical="general">
		<path id="kvg:07dbb-Kaisho-s1" kvg:type="㇜" d="M25.87,13.75c0.32,1.41,0.4,2.49-0.16,4c-2.84,7.63-6.21,13.16-9.65,19.55c-0.46,0.86-0.64,3.27,0,3.54c3.38,1.41,8.12,3.77,11.02,6.36"/>
		<path id="kvg:07dbb-Kaisho-s2" kvg:type="㇜" d="M37.93,26.49c0.3,0.64,0.39,2.74,0,3.42c-5.73,10.03-14.28,24-22.16,33.15c-1.81,2.1,0.45,3.3,1.62,2.87c4.93-1.79,15.15-4.97,21.48-6.68"/>
		<path id="kvg:07dbb-Kaisho-s3" kvg:type="㇔" d="M34.79,50.99c2.56,2.57,6.61,10.55,7.25,14.55"/>
		<path id="kvg:07dbb-Kaisho-s4" kvg:type="㇔" d="M10.96,78.93c3.89,3.21,6.87,10.66,7.77,13.57"/>
		<path id="kvg:07dbb-Kaisho-s5" kvg:type="㇔" d="M22.1,74.78c4.4,2.78,7.78,9.24,8.81,11.76"/>
		<path id="kvg:07dbb-Kaisho-s6" kvg:type="㇔" d="M33.24,69.86c4.27,2.23,7.55,7.41,8.55,9.43"/>
	</g>
	<g id="kvg:07dbb-Kaisho-g2" kvg:element="定" kvg:position="right">
		<g id="kvg:07dbb-Kaisho-g3" kvg:element="宀" kvg:position="top">
			<path id="kvg:07dbb-Kaisho-s7" kvg:type="㇔/㇑a" d="M63.16,15.42c2.8,1.4,6.99,5.2,7.58,8.78"/>
			<path id="kvg:07dbb-Kaisho-s8" kvg:type="㇔" d="M50.21,27.91c0,3.09-3.17,11.58-4.61,13.64"/>
			<path id="kvg:07dbb-Kaisho-s9" kvg:type="㇖" d="M51.12,31.64c9.38-1.64,28.7-4.38,37.53-4.78c8.1-0.36,2.56,4.83,0.04,6.97"/>
		</g>
		<g id="kvg:07dbb-Kaisho-g4" kvg:element="疋" kvg:variant="true" kvg:position="bottom">
			<path id="kvg:07dbb-Kaisho-s10" kvg:type="㇐" d="M50.82,47.46c2.07,0.42,4.07,0.33,6.17,0c4.97-0.78,23.21-3.4,26.5-3.4c2.84,0,1.83,0.12,4.11,0.12"/>
			<g id="kvg:07dbb-Kaisho-g5" kvg:element="龰">
				<g id="kvg:07dbb-Kaisho-g6" kvg:element="卜" kvg:original="ト">
					<path id="kvg:07dbb-Kaisho-s11" kvg:type="㇑" d="M66.41,47.45c0.81,0.42,1.46,1.89,1.46,2.75c0,5.55-0.29,24.05-0.29,33.87"/>
					<path id="kvg:07dbb-Kaisho-s12" kvg:type="㇐" d="M68.28,65.56c5.97-0.55,8.34-1.11,17.35-2.22c1.45-0.18,1.82-0.18,2.74,0"/>
				</g>
				<g id="kvg:07dbb-Kaisho-g7" kvg:element="人">
					<path id="kvg:07dbb-Kaisho-s13" kvg:type="㇒" d="M54.04,60.96c0.04,0.81,0.09,2.1-0.09,3.27C52.9,71.13,50,85,38.56,94.17"/>
					<path id="kvg:07dbb-Kaisho-s14" kvg:type="㇏" d="M51.69,75.8c4.81,2.45,26.4,14.87,36.82,17.92c2.18,0.64,3.89,1.27,5.99,1.53"/>
				</g>
			</g>
		</g>
	</g>
</g>
</g>
<g id="kvg:StrokeNumbers_07dbb-Kaisho" style="font-size:8;fill:#808080">
	<text transform="matrix(1 0 0 1 19.75 12.50)">1</text>
	<text transform="matrix(1 0 0 1 34.50 24.50)">2</text>
	<text transform="matrix(1 0 0 1 33.50 48.50)">3</text>
	<text transform="matrix(1 0 0 1 5.50 81.50)">4</text>
	<text transform="matrix(1 0 0 1 16.50 77.50)">5</text>
	<text transform="matrix(1 0 0 1 27.50 72.50)">6</text>
	<text transform="matrix(1 0 0 1 59.50 13.50)">7</text>
	<text transform="matrix(1 0 0 1 43.75 30.50)">8</text>
	<text transform="matrix(1 0 0 1 53.50 27.50)">9</text>
	<text transform="matrix(1 0 0 1 50.50 44.50)">10</text>
	<text transform="matrix(1 0 0 1 58.50 56.50)">11</text>
	<text transform="matrix(1 0 0 1 70.50 61.50)">12</text>
	<text transform="matrix(1 0 0 1 45.75 57.23)">13</text>
</g>
</svg>
