<?xml version="1.0" encoding="UTF-8"?>
<!--
Copyright (C) 2009/2010/2011 Ulrich Apel.
This work is distributed under the conditions of the Creative Commons
Attribution-Share Alike 3.0 Licence. This means you are free:
* to Share - to copy, distribute and transmit the work
* to Remix - to adapt the work

Under the following conditions:
* Attribution. You must attribute the work by stating your use of KanjiVG in
  your own copyright header and linking to KanjiVG's website
  (http://kanjivg.tagaini.net)
* Share Alike. If you alter, transform, or build upon this work, you may
  distribute the resulting work only under the same or similar license to this
  one.

See http://creativecommons.org/licenses/by-sa/3.0/ for more details.
-->
<!DOCTYPE svg PUBLIC "-//W3C//DTD SVG 1.0//EN" "http://www.w3.org/TR/2001/REC-SVG-20010904/DTD/svg10.dtd" [
<!ATTLIST g
xmlns:kvg CDATA #FIXED "http://kanjivg.tagaini.net"
kvg:element CDATA #IMPLIED
kvg:variant CDATA #IMPLIED
kvg:partial CDATA #IMPLIED
kvg:original CDATA #IMPLIED
kvg:part CDATA #IMPLIED
kvg:number CDATA #IMPLIED
kvg:tradForm CDATA #IMPLIED
kvg:radicalForm CDATA #IMPLIED
kvg:position CDATA #IMPLIED
kvg:radical CDATA #IMPLIED
kvg:phon CDATA #IMPLIED >
<!ATTLIST path
xmlns:kvg CDATA #FIXED "http://kanjivg.tagaini.net"
kvg:type CDATA #IMPLIED >
]>
<svg xmlns="http://www.w3.org/2000/svg" width="109" height="109" viewBox="0 0 109 109">
<g id="kvg:StrokePaths_07dbf-Kaisho" style="fill:none;stroke:#000000;stroke-width:3;stroke-linecap:round;stroke-linejoin:round;">
<g id="kvg:07dbf-Kaisho" kvg:element="綿">
	<g id="kvg:07dbf-Kaisho-g1" kvg:element="糸" kvg:variant="true" kvg:position="left" kvg:radical="general">
		<path id="kvg:07dbf-Kaisho-s1" kvg:type="㇜" d="M28.37,16.25c0.32,1.42,0.4,2.5-0.16,4.02c-2.84,7.66-6.21,13.2-9.65,19.61c-0.46,0.86-0.64,3.28,0,3.55c3.38,1.42,8.12,3.78,11.02,6.38"/>
		<path id="kvg:07dbf-Kaisho-s2" kvg:type="㇜" d="M40.43,29.03c0.3,0.64,0.39,2.75,0,3.43C34.7,42.52,26.15,56.53,18.28,65.71c-1.81,2.1,0.45,3.31,1.62,2.88c4.93-1.79,15.15-4.99,21.48-6.7"/>
		<path id="kvg:07dbf-Kaisho-s3" kvg:type="㇔" d="M37.29,53.61c2.56,2.58,6.61,10.59,7.25,14.59"/>
		<path id="kvg:07dbf-Kaisho-s4" kvg:type="㇔" d="M13.46,81.64c3.89,3.22,6.87,10.7,7.77,13.61"/>
		<path id="kvg:07dbf-Kaisho-s5" kvg:type="㇔" d="M24.6,77.48c4.4,2.79,7.78,9.27,8.81,11.8"/>
		<path id="kvg:07dbf-Kaisho-s6" kvg:type="㇔" d="M35.74,72.54c4.27,2.24,7.55,7.43,8.55,9.46"/>
	</g>
	<g id="kvg:07dbf-Kaisho-g2" kvg:element="帛" kvg:position="right">
		<g id="kvg:07dbf-Kaisho-g3" kvg:element="白" kvg:position="top">
			<g id="kvg:07dbf-Kaisho-g4" kvg:position="top">
				<path id="kvg:07dbf-Kaisho-s7" kvg:type="㇔" d="M70,10c0.28,0.46,0.32,1.03,0.25,1.44c-0.39,2.39-3.73,8.11-6.77,11.32"/>
			</g>
			<g id="kvg:07dbf-Kaisho-g5" kvg:element="日" kvg:position="bottom">
				<path id="kvg:07dbf-Kaisho-s8" kvg:type="㇑" d="M53.35,22.86c0.4,0.39,1.04,1.6,1.04,3.03c0,1.42,1.62,14.51,2.61,24.73"/>
				<path id="kvg:07dbf-Kaisho-s9" kvg:type="㇕a" d="M54.7,25.38c2.92-0.18,28.55-3.34,31.21-3.56c2.21-0.18,3.55,0.59,3.47,3.22c-0.07,2.19-1.13,11.7-4.16,22.89"/>
				<path id="kvg:07dbf-Kaisho-s10" kvg:type="㇐a" d="M56.58,36.41c8-0.63,13.21-1.67,20.42-1.91"/>
				<path id="kvg:07dbf-Kaisho-s11" kvg:type="㇐a" d="M57.51,48.66c10.51-1.2,19.64-1.42,27.72-1.99"/>
			</g>
		</g>
		<g id="kvg:07dbf-Kaisho-g6" kvg:element="巾" kvg:position="bottom">
			<path id="kvg:07dbf-Kaisho-s12" kvg:type="㇑" d="M52.62,61.15c0.38,1.35,1.31,3.07,1.33,3.65c0.17,7.28-0.66,15.01-0.52,23.25"/>
			<path id="kvg:07dbf-Kaisho-s13" kvg:type="㇆a" d="M54.5,64.54c2.75-0.26,32.37-4.76,34.42-4.92c2.41-0.19,3.93,3.24,3.84,4.92c-0.43,8.44-1.6,13.78-3.53,22.62c-1.28,5.85-3.62,0.82-4.78-1.23"/>
			<path id="kvg:07dbf-Kaisho-s14" kvg:type="㇑" d="M68.92,49.99c0.62,0.37,1.94,2.75,2.06,3.49c0.12,0.74-0.08,41.81-0.21,46.4"/>
		</g>
	</g>
</g>
</g>
<g id="kvg:StrokeNumbers_07dbf-Kaisho" style="font-size:8;fill:#808080">
	<text transform="matrix(1 0 0 1 22.50 16.63)">1</text>
	<text transform="matrix(1 0 0 1 33.50 28.50)">2</text>
	<text transform="matrix(1 0 0 1 39.50 52.50)">3</text>
	<text transform="matrix(1 0 0 1 7.50 84.50)">4</text>
	<text transform="matrix(1 0 0 1 18.50 79.50)">5</text>
	<text transform="matrix(1 0 0 1 29.50 75.50)">6</text>
	<text transform="matrix(1 0 0 1 62.50 8.50)">7</text>
	<text transform="matrix(1 0 0 1 47.25 33.50)">8</text>
	<text transform="matrix(1 0 0 1 55.50 21.50)">9</text>
	<text transform="matrix(1 0 0 1 59.24 33.50)">10</text>
	<text transform="matrix(1 0 0 1 59.50 45.50)">11</text>
	<text transform="matrix(1 0 0 1 45.50 70.50)">12</text>
	<text transform="matrix(1 0 0 1 54.50 60.50)">13</text>
</g>
</svg>
