<?xml version="1.0" encoding="UTF-8"?>
<!--
Copyright (C) 2009/2010/2011 Ulrich Apel.
This work is distributed under the conditions of the Creative Commons
Attribution-Share Alike 3.0 Licence. This means you are free:
* to Share - to copy, distribute and transmit the work
* to Remix - to adapt the work

Under the following conditions:
* Attribution. You must attribute the work by stating your use of KanjiVG in
  your own copyright header and linking to KanjiVG's website
  (http://kanjivg.tagaini.net)
* Share Alike. If you alter, transform, or build upon this work, you may
  distribute the resulting work only under the same or similar license to this
  one.

See http://creativecommons.org/licenses/by-sa/3.0/ for more details.
-->
<!DOCTYPE svg PUBLIC "-//W3C//DTD SVG 1.0//EN" "http://www.w3.org/TR/2001/REC-SVG-20010904/DTD/svg10.dtd" [
<!ATTLIST g
xmlns:kvg CDATA #FIXED "http://kanjivg.tagaini.net"
kvg:element CDATA #IMPLIED
kvg:variant CDATA #IMPLIED
kvg:partial CDATA #IMPLIED
kvg:original CDATA #IMPLIED
kvg:part CDATA #IMPLIED
kvg:number CDATA #IMPLIED
kvg:tradForm CDATA #IMPLIED
kvg:radicalForm CDATA #IMPLIED
kvg:position CDATA #IMPLIED
kvg:radical CDATA #IMPLIED
kvg:phon CDATA #IMPLIED >
<!ATTLIST path
xmlns:kvg CDATA #FIXED "http://kanjivg.tagaini.net"
kvg:type CDATA #IMPLIED >
]>
<svg xmlns="http://www.w3.org/2000/svg" width="109" height="109" viewBox="0 0 109 109">
<g id="kvg:StrokePaths_07dc7-Kaisho" style="fill:none;stroke:#000000;stroke-width:3;stroke-linecap:round;stroke-linejoin:round;">
<g id="kvg:07dc7-Kaisho" kvg:element="緇">
	<g id="kvg:07dc7-Kaisho-g1" kvg:element="糸" kvg:variant="true" kvg:position="left" kvg:radical="general">
		<path id="kvg:07dc7-Kaisho-s1" kvg:type="㇜" d="M25.35,13.25c0.34,1.48,0.42,2.6-0.17,4.18c-2.96,7.97-6.48,13.75-10.08,20.42c-0.48,0.9-0.67,3.41,0,3.69c3.53,1.48,8.48,3.94,11.51,6.65"/>
		<path id="kvg:07dc7-Kaisho-s2" kvg:type="㇜" d="M37.94,26.55c0.31,0.67,0.4,2.86,0,3.57C31.95,40.6,23.02,55.19,14.8,64.74c-1.88,2.19,0.47,3.44,1.7,3c5.15-1.87,15.82-5.19,22.44-6.98"/>
		<path id="kvg:07dc7-Kaisho-s3" kvg:type="㇔" d="M34.66,52.15c2.67,2.68,6.91,11.02,7.58,15.19"/>
		<path id="kvg:07dc7-Kaisho-s4" kvg:type="㇔" d="M9.77,81.33c4.06,3.35,7.17,11.14,8.12,14.17"/>
		<path id="kvg:07dc7-Kaisho-s5" kvg:type="㇔" d="M21.4,77c4.6,2.9,8.13,9.65,9.2,12.28"/>
		<path id="kvg:07dc7-Kaisho-s6" kvg:type="㇔" d="M33.04,71.86c4.46,2.33,7.89,7.74,8.93,9.85"/>
	</g>
	<g id="kvg:07dc7-Kaisho-g2" kvg:element="甾" kvg:position="right">
		<g id="kvg:07dc7-Kaisho-g3" kvg:element="巛" kvg:position="top">
			<path id="kvg:07dc7-Kaisho-s7" kvg:type="㇛" d="M55.88,14.01c0.15,1.25,0.02,2.16-0.34,3.18c-2.39,6.82-4.31,11.68-10.35,18.9c-0.98,1.18-0.45,0.99,0,1.32c6.51,4.75,10.08,9.46,13.51,18.54"/>
			<path id="kvg:07dc7-Kaisho-s8" kvg:type="㇛" d="M72.41,11.63c0.48,1.34-0.03,3.2-0.42,4.09c-2.06,4.66-5.73,11.6-11.56,18.5c-0.56,0.67-0.27,0.92,0.25,1.31C66.85,40.06,71.9,46.6,74.74,54.5"/>
			<path id="kvg:07dc7-Kaisho-s9" kvg:type="㇛" d="M87.85,12.25c0.39,0.94,0.35,1.97,0.17,2.91c-0.97,5.15-2.93,9.98-9.31,17.87c-0.55,0.68-0.24,0.87,0.25,1.31c7.01,6.21,10.38,12.25,12.97,19.25"/>
		</g>
		<g id="kvg:07dc7-Kaisho-g4" kvg:element="田" kvg:position="bottom">
			<path id="kvg:07dc7-Kaisho-s10" kvg:type="㇑" d="M50.82,61.83c0.29,0.59,0.3,0.98,0.46,1.71c1.31,5.97,2.9,22.64,3.67,33.63"/>
			<path id="kvg:07dc7-Kaisho-s11" kvg:type="㇕a" d="M51.76,63.4c10.04-1.33,30.54-3.34,38.3-3.92c2.85-0.21,4.3,1.51,4.15,3.11c-0.57,5.86-1.41,22.88-3.81,33.09"/>
			<path id="kvg:07dc7-Kaisho-s12" kvg:type="㇑a" d="M70.78,63.55c0.27,0.81,0.8,1.26,0.79,2.31c-0.04,6.92,0.18,25,0.18,27.51"/>
			<path id="kvg:07dc7-Kaisho-s13" kvg:type="㇐a" d="M53.95,79.24c3.39-0.29,25.36-2.61,28.16-2.61"/>
			<path id="kvg:07dc7-Kaisho-s14" kvg:type="㇐a" d="M54.97,95.1c7.48,0,25.73-1.96,36.05-2.12"/>
		</g>
	</g>
</g>
</g>
<g id="kvg:StrokeNumbers_07dc7-Kaisho" style="font-size:8;fill:#808080">
	<text transform="matrix(1 0 0 1 19.50 12.50)">1</text>
	<text transform="matrix(1 0 0 1 33.75 24.50)">2</text>
	<text transform="matrix(1 0 0 1 34.75 49.50)">3</text>
	<text transform="matrix(1 0 0 1 3.50 82.50)">4</text>
	<text transform="matrix(1 0 0 1 15.50 77.50)">5</text>
	<text transform="matrix(1 0 0 1 27.50 72.50)">6</text>
	<text transform="matrix(1 0 0 1 48.50 13.50)">7</text>
	<text transform="matrix(1 0 0 1 63.50 10.50)">8</text>
	<text transform="matrix(1 0 0 1 80.50 10.50)">9</text>
	<text transform="matrix(1 0 0 1 41.50 70.50)">10</text>
	<text transform="matrix(1 0 0 1 48.50 58.50)">11</text>
	<text transform="matrix(1 0 0 1 74.50 69.50)">12</text>
	<text transform="matrix(1 0 0 1 55.50 75.23)">13</text>
</g>
</svg>
