<?xml version="1.0" encoding="UTF-8"?>
<!--
Copyright (C) 2009/2010/2011 Ulrich Apel.
This work is distributed under the conditions of the Creative Commons 
Attribution-Share Alike 3.0 Licence. This means you are free:
* to Share - to copy, distribute and transmit the work
* to Remix - to adapt the work

Under the following conditions:
* Attribution. You must attribute the work by stating your use of KanjiVG in
  your own copyright header and linking to KanjiVG's website
  (http://kanjivg.tagaini.net)
* Share Alike. If you alter, transform, or build upon this work, you may
  distribute the resulting work only under the same or similar license to this
  one.

See http://creativecommons.org/licenses/by-sa/3.0/ for more details.
-->
<!DOCTYPE svg PUBLIC "-//W3C//DTD SVG 1.0//EN" "http://www.w3.org/TR/2001/REC-SVG-20010904/DTD/svg10.dtd" [
<!ATTLIST g
xmlns:kvg CDATA #FIXED "http://kanjivg.tagaini.net"
kvg:element CDATA #IMPLIED
kvg:variant CDATA #IMPLIED
kvg:partial CDATA #IMPLIED
kvg:original CDATA #IMPLIED
kvg:part CDATA #IMPLIED
kvg:number CDATA #IMPLIED
kvg:tradForm CDATA #IMPLIED
kvg:radicalForm CDATA #IMPLIED
kvg:position CDATA #IMPLIED
kvg:radical CDATA #IMPLIED
kvg:phon CDATA #IMPLIED >
<!ATTLIST path
xmlns:kvg CDATA #FIXED "http://kanjivg.tagaini.net"
kvg:type CDATA #IMPLIED >
]>
<svg xmlns="http://www.w3.org/2000/svg" width="109" height="109" viewBox="0 0 109 109">
<g id="kvg:StrokePaths_07e4b" style="fill:none;stroke:#000000;stroke-width:3;stroke-linecap:round;stroke-linejoin:round;">
<g id="kvg:07e4b" kvg:element="繋">
	<g id="kvg:07e4b-g1" kvg:position="top">
		<g id="kvg:07e4b-g2" kvg:element="車" kvg:position="left">
			<path id="kvg:07e4b-s1" kvg:type="㇐" d="M17.06,18.32c1.6,0.19,3.21,0.31,4.82,0.35c6.44-0.37,14.96-1.64,22.14-2.23c1.65-0.29,3.29-0.29,4.93,0"/>
			<path id="kvg:07e4b-s2" kvg:type="㇑" d="M19.49,25.2c0.81,0.77,1.23,1.7,1.28,2.77c0.58,3.18,1.46,8.22,2.2,12.64"/>
			<path id="kvg:07e4b-s3" kvg:type="㇕a" d="M21.18,26.44c8.32-1.06,18.06-2.32,24.21-2.8c2.56-0.2,4.65,0.5,4.05,3.63c-0.45,2.3-1.47,5.43-2.48,8.47c-0.33,0.99-0.66,1.98-0.96,2.92"/>
			<path id="kvg:07e4b-s4" kvg:type="㇐a" d="M22.76,32.49c7.86-0.99,14.49-1.87,24.84-2.55"/>
			<path id="kvg:07e4b-s5" kvg:type="㇐a" d="M24.01,38.79c5.86-0.55,14.09-1.68,21.73-1.68"/>
			<path id="kvg:07e4b-s6" kvg:type="㇐" d="M13.22,47.36c2.42,0.55,4.81,0.61,7.29,0.33c9.16-1.03,17.37-1.81,24.98-2.67c2.01-0.23,4.03-0.21,6.04,0"/>
			<path id="kvg:07e4b-s7" kvg:type="㇑" d="M33.39,10.63c0.93,0.93,1.12,2.24,1.12,3.34c0,0.52,0.07,23.87,0.1,36.28c0.01,3.25,0.01,5.74,0.01,6.88"/>
		</g>
		<g id="kvg:07e4b-g3" kvg:element="殳" kvg:position="right">
			<g id="kvg:07e4b-g4" kvg:element="几" kvg:position="top">
				<g id="kvg:07e4b-g5" kvg:element="丿">
					<path id="kvg:07e4b-s8" kvg:type="㇒" d="M60.5,12.31c0.59,0.59,0.68,1.63,0.68,2.26c0,5.8-1.68,12.93-6.87,16.35"/>
				</g>
				<path id="kvg:07e4b-s9" kvg:type="㇈b" d="M62.15,13.51c3.38-0.75,8.72-1.89,10.75-2.25c1.46-0.26,3.51,0.04,3.06,2.02c-0.59,2.59-0.98,5.95-0.98,8.16c0,3.06,0.52,5.27,7.09,5.27c6.25,0,7.59-0.34,7.59-6.63"/>
			</g>
			<g id="kvg:07e4b-g6" kvg:element="又" kvg:position="bottom">
				<path id="kvg:07e4b-s10" kvg:type="㇇" d="M58.45,34.52c0.96,0.2,2.08,0.5,4.01,0.2c1.92-0.3,14.17-1.9,15.49-2.2c2.31-0.53,3.14,1.58,2.05,2.97C72.5,45,68.04,47.74,56.5,52.75"/>
				<path id="kvg:07e4b-s11" kvg:type="㇏" d="M58.85,39.89c2.57,0.3,13.79,7.28,23.43,11.58c2.71,1.31,5.54,2.28,8.49,2.91"/>
			</g>
		</g>
	</g>
	<g id="kvg:07e4b-g7" kvg:element="糸" kvg:position="bottom" kvg:radical="general">
		<path id="kvg:07e4b-s12" kvg:type="㇜" d="M50.62,54.5c0,0.88-0.36,1.85-1.18,2.55c-3.61,3.05-6.39,5.36-9.92,8.11c-1.25,0.97-1.89,2.34,0.06,2.78c3.31,0.73,5.29,1.07,8.44,2.04"/>
		<path id="kvg:07e4b-s13" kvg:type="㇜" d="M67.75,56.7c-0.12,1.42-1.18,2.31-2.32,3.12c-10.56,7.55-19.31,13-31.51,19.59c-4.17,2.26-4.2,2.33,0.36,1.69c9.34-1.3,31.73-4.94,41.97-5.98"/>
		<path id="kvg:07e4b-s14" kvg:type="㇔" d="M70.75,69.15c4.32,2.22,11.17,9.13,12.25,12.59"/>
		<path id="kvg:07e4b-s15" kvg:type="㇑" d="M54,80.99c0.63,0.63,1.01,1.73,1.01,2.63c0,2.89,0,7.53,0,11.38c0,2.65,0,4.93,0,6"/>
		<path id="kvg:07e4b-s16" kvg:type="㇒" d="M41.95,87.57c-0.2,1.18-0.97,1.96-1.57,2.35c-5.63,3.7-13.12,7.55-18.63,9.83"/>
		<path id="kvg:07e4b-s17" kvg:type="㇔" d="M69.16,85.83c5.43,2.42,15,9.12,16.94,11.54"/>
	</g>
</g>
</g>
<g id="kvg:StrokeNumbers_07e4b" style="font-size:8;fill:#808080">
	<text transform="matrix(1 0 0 1 11.25 18.50)">1</text>
	<text transform="matrix(1 0 0 1 14.25 31.55)">2</text>
	<text transform="matrix(1 0 0 1 25.49 24.50)">3</text>
	<text transform="matrix(1 0 0 1 25.34 30.40)">4</text>
	<text transform="matrix(1 0 0 1 25.50 37.33)">5</text>
	<text transform="matrix(1 0 0 1 6.25 48.25)">6</text>
	<text transform="matrix(1 0 0 1 25.25 10.50)">7</text>
	<text transform="matrix(1 0 0 1 53.50 18.10)">8</text>
	<text transform="matrix(1 0 0 1 63.25 10.50)">9</text>
	<text transform="matrix(1 0 0 1 61.50 31.50)">10</text>
	<text transform="matrix(1 0 0 1 54.50 47.50)">11</text>
	<text transform="matrix(1 0 0 1 40.50 54.50)">12</text>
	<text transform="matrix(1 0 0 1 58.50 58.50)">13</text>
	<text transform="matrix(1 0 0 1 72.50 69.50)">14</text>
	<text transform="matrix(1 0 0 1 44.50 88.58)">15</text>
	<text transform="matrix(1 0 0 1 29.50 90.50)">16</text>
	<text transform="matrix(1 0 0 1 68.50 84.50)">17</text>
</g>
</svg>
