<?xml version="1.0" encoding="UTF-8"?>
<!--
Copyright (C) 2009/2010/2011 Ulrich Apel.
This work is distributed under the conditions of the Creative Commons 
Attribution-Share Alike 3.0 Licence. This means you are free:
* to Share - to copy, distribute and transmit the work
* to Remix - to adapt the work

Under the following conditions:
* Attribution. You must attribute the work by stating your use of KanjiVG in
  your own copyright header and linking to KanjiVG's website
  (http://kanjivg.tagaini.net)
* Share Alike. If you alter, transform, or build upon this work, you may
  distribute the resulting work only under the same or similar license to this
  one.

See http://creativecommons.org/licenses/by-sa/3.0/ for more details.
-->
<!DOCTYPE svg PUBLIC "-//W3C//DTD SVG 1.0//EN" "http://www.w3.org/TR/2001/REC-SVG-20010904/DTD/svg10.dtd" [
<!ATTLIST g
xmlns:kvg CDATA #FIXED "http://kanjivg.tagaini.net"
kvg:element CDATA #IMPLIED
kvg:variant CDATA #IMPLIED
kvg:partial CDATA #IMPLIED
kvg:original CDATA #IMPLIED
kvg:part CDATA #IMPLIED
kvg:number CDATA #IMPLIED
kvg:tradForm CDATA #IMPLIED
kvg:radicalForm CDATA #IMPLIED
kvg:position CDATA #IMPLIED
kvg:radical CDATA #IMPLIED
kvg:phon CDATA #IMPLIED >
<!ATTLIST path
xmlns:kvg CDATA #FIXED "http://kanjivg.tagaini.net"
kvg:type CDATA #IMPLIED >
]>
<svg xmlns="http://www.w3.org/2000/svg" width="109" height="109" viewBox="0 0 109 109">
<g id="kvg:StrokePaths_07e5d" style="fill:none;stroke:#000000;stroke-width:3;stroke-linecap:round;stroke-linejoin:round;">
<g id="kvg:07e5d" kvg:element="繝">
	<g id="kvg:07e5d-g1" kvg:element="糸" kvg:position="left" kvg:radical="general">
		<path id="kvg:07e5d-s1" kvg:type="㇜" d="M27.69,12.42c0.29,1.34,0.31,2.34-0.15,3.8c-2,6.45-7.29,13.32-11.21,18.47c-0.54,0.71-0.59,3.1,0,3.35c3.1,1.34,7.84,3.11,10.5,5.56"/>
		<path id="kvg:07e5d-s2" kvg:type="㇜" d="M37.55,25.43c0.3,0.58,0.37,2.46,0,3.09c-5.8,9.73-14.99,21.18-22.98,29.44c-1.83,1.89,0.46,2.98,1.65,2.59c5-1.61,15.87-4.49,22.29-6.03"/>
		<path id="kvg:07e5d-s3" kvg:type="㇔" d="M34.63,47.88c2.34,2.36,6.04,9.69,6.62,13.35"/>
		<path id="kvg:07e5d-s4" kvg:type="㇑" d="M26.89,60.62c0.07,0.36,0.91,1.85,0.98,4.09c0.31,10.79-0.2,28.79-0.2,32.46"/>
		<path id="kvg:07e5d-s5" kvg:type="㇒" d="M17.6,70.35c0.17,0.87,0.14,2.58-0.16,3.21c-1.97,4.06-6.9,11.89-9.69,15.38"/>
		<path id="kvg:07e5d-s6" kvg:type="㇔" d="M35.68,69.04c2.25,3.65,3.97,12.13,4.49,15.44"/>
	</g>
	<g id="kvg:07e5d-g2" kvg:element="間" kvg:variant="true" kvg:position="right">
		<g id="kvg:07e5d-g3" kvg:element="門" kvg:position="kamae">
			<g id="kvg:07e5d-g4" kvg:position="left">
				<path id="kvg:07e5d-s7" kvg:type="㇑" d="M46.64,18.91c0.61,0.45,1.07,2.38,1.19,3.27c0.12,0.89-0.08,66.78-0.2,72.34"/>
				<path id="kvg:07e5d-s8" kvg:type="㇕a" d="M47,20.37c2.03-0.1,14.93-2.13,16.77-2.25c1.54-0.1,2.33,0.9,2.41,1.69c0.11,1.21-1.28,24.56-1.28,25.15"/>
				<path id="kvg:07e5d-s9" kvg:type="㇐a" d="M48.36,32.03c4.98-0.58,11.72-1.59,16.51-2.22"/>
				<path id="kvg:07e5d-s10" kvg:type="㇐a" d="M48,43.99c6.74-1.14,9.87-1.5,15.83-2.02"/>
			</g>
			<g id="kvg:07e5d-g5" kvg:position="right">
				<path id="kvg:07e5d-s11" kvg:type="㇑" d="M76.22,17.05c0.35,0.53,0.7,2.15,0.7,2.86c0,0.7-0.12,23,0,23.7"/>
				<path id="kvg:07e5d-s12" kvg:type="㇆a" d="M76.99,18.48c1.96-0.09,15.89-2.38,17.68-2.49c1.49-0.09,2.35,0.96,2.34,1.49c-0.39,16.2-0.39,62-0.39,73.75c0,10.01-5.49,1.29-6.63,0.22"/>
				<path id="kvg:07e5d-s13" kvg:type="㇐a" d="M77.34,29.7c2.66,0,15.4-1.66,18.4-1.66"/>
				<path id="kvg:07e5d-s14" kvg:type="㇐a" d="M77.5,42.19c3.93,0,13.43-1.48,18.52-1.48"/>
			</g>
		</g>
		<g id="kvg:07e5d-g6" kvg:element="日" kvg:variant="true">
			<g id="kvg:07e5d-g7" kvg:element="月">
				<path id="kvg:07e5d-s15" kvg:type="㇒" d="M61.84,52.73c0.31,0.51,0.52,1.02,0.62,1.52c0.1,0.5,0.09,14.07-0.24,18.26c-0.47,5.97-0.95,11.99-5.38,18.85"/>
				<path id="kvg:07e5d-s16" kvg:type="㇆a" d="M62.48,54.11c2.12-0.05,12.82-2.14,14.36-2.52c2.42-0.59,3.54,1.07,3.54,2.19c0,2.65-0.03,15.92-0.03,30.96c0,10.34-4.45,4.42-6.26,3.17"/>
				<path id="kvg:07e5d-s17" kvg:type="㇐a" d="M62.48,64.12c4.66-0.29,12.66-1.68,16.75-1.7"/>
				<path id="kvg:07e5d-s18" kvg:type="㇐a" d="M62.42,74.75c3.83-0.07,11.25-1.55,16.45-1.89"/>
			</g>
		</g>
	</g>
</g>
</g>
<g id="kvg:StrokeNumbers_07e5d" style="font-size:8;fill:#808080">
	<text transform="matrix(1 0 0 1 21.25 13.25)">1</text>
	<text transform="matrix(1 0 0 1 34.25 22.25)">2</text>
	<text transform="matrix(1 0 0 1 36.00 46.25)">3</text>
	<text transform="matrix(1 0 0 1 21.25 67.25)">4</text>
	<text transform="matrix(1 0 0 1 9.00 71.58)">5</text>
	<text transform="matrix(1 0 0 1 33.25 65.50)">6</text>
	<text transform="matrix(1 0 0 1 41.25 27.25)">7</text>
	<text transform="matrix(1 0 0 1 50.00 16.35)">8</text>
	<text transform="matrix(1 0 0 1 52.25 28.28)">9</text>
	<text transform="matrix(1 0 0 1 52.25 40.20)">10</text>
	<text transform="matrix(1 0 0 1 69.25 25.25)">11</text>
	<text transform="matrix(1 0 0 1 77.25 15.05)">12</text>
	<text transform="matrix(1 0 0 1 80.25 25.98)">13</text>
	<text transform="matrix(1 0 0 1 80.25 38.90)">14</text>
	<text transform="matrix(1 0 0 1 52.25 60.25)">15</text>
	<text transform="matrix(1 0 0 1 65.25 50.75)">16</text>
	<text transform="matrix(1 0 0 1 66.25 61.25)">17</text>
	<text transform="matrix(1 0 0 1 66.00 72.25)">18</text>
</g>
</svg>
