<?xml version="1.0" encoding="UTF-8"?>
<!--
Copyright (C) 2009/2010/2011 Ulrich Apel.
This work is distributed under the conditions of the Creative Commons
Attribution-Share Alike 3.0 Licence. This means you are free:
* to Share - to copy, distribute and transmit the work
* to Remix - to adapt the work

Under the following conditions:
* Attribution. You must attribute the work by stating your use of KanjiVG in
  your own copyright header and linking to KanjiVG's website
  (http://kanjivg.tagaini.net)
* Share Alike. If you alter, transform, or build upon this work, you may
  distribute the resulting work only under the same or similar license to this
  one.

See http://creativecommons.org/licenses/by-sa/3.0/ for more details.
-->
<!DOCTYPE svg PUBLIC "-//W3C//DTD SVG 1.0//EN" "http://www.w3.org/TR/2001/REC-SVG-20010904/DTD/svg10.dtd" [
<!ATTLIST g
xmlns:kvg CDATA #FIXED "http://kanjivg.tagaini.net"
kvg:element CDATA #IMPLIED
kvg:variant CDATA #IMPLIED
kvg:partial CDATA #IMPLIED
kvg:original CDATA #IMPLIED
kvg:part CDATA #IMPLIED
kvg:number CDATA #IMPLIED
kvg:tradForm CDATA #IMPLIED
kvg:radicalForm CDATA #IMPLIED
kvg:position CDATA #IMPLIED
kvg:radical CDATA #IMPLIED
kvg:phon CDATA #IMPLIED >
<!ATTLIST path
xmlns:kvg CDATA #FIXED "http://kanjivg.tagaini.net"
kvg:type CDATA #IMPLIED >
]>
<svg xmlns="http://www.w3.org/2000/svg" width="109" height="109" viewBox="0 0 109 109">
<g id="kvg:StrokePaths_07e56-Kaisho" style="fill:none;stroke:#000000;stroke-width:3;stroke-linecap:round;stroke-linejoin:round;">
<g id="kvg:07e56-Kaisho" kvg:element="繖">
	<g id="kvg:07e56-Kaisho-g1" kvg:element="糸" kvg:variant="true" kvg:position="left" kvg:radical="general">
		<path id="kvg:07e56-Kaisho-s1" kvg:type="㇜" d="M22.62,13.5c0.32,1.46,0.4,2.58-0.16,4.14c-2.84,7.9-6.21,13.62-9.65,20.23c-0.46,0.89-0.64,3.38,0,3.66c3.38,1.46,8.12,3.9,11.02,6.58"/>
		<path id="kvg:07e56-Kaisho-s2" kvg:type="㇜" d="M34.68,26.68c0.3,0.66,0.39,2.83,0,3.54C28.95,40.6,20.4,55.05,12.53,64.52c-1.81,2.17,0.45,3.41,1.62,2.97c4.93-1.85,15.15-5.15,21.48-6.91"/>
		<path id="kvg:07e56-Kaisho-s3" kvg:type="㇔" d="M31.54,52.04c2.56,2.66,6.61,10.92,7.25,15.06"/>
		<path id="kvg:07e56-Kaisho-s4" kvg:type="㇔" d="M7.71,80.96c3.89,3.32,6.87,11.04,7.77,14.04"/>
		<path id="kvg:07e56-Kaisho-s5" kvg:type="㇔" d="M18.85,76.66c4.4,2.88,7.78,9.56,8.81,12.17"/>
		<path id="kvg:07e56-Kaisho-s6" kvg:type="㇔" d="M29.99,71.57c4.27,2.31,7.55,7.67,8.55,9.76"/>
	</g>
	<g id="kvg:07e56-Kaisho-g2" kvg:element="散" kvg:position="right">
		<g id="kvg:07e56-Kaisho-g3" kvg:position="left">
			<path id="kvg:07e56-Kaisho-s7" kvg:type="㇐" d="M41.28,27.67c1.12,0.4,2.43,0.56,3.54,0.4c4.23-0.61,17.39-2.89,21.25-3.07c1.86-0.09,2.98,0.19,3.91,0.39"/>
			<path id="kvg:07e56-Kaisho-s8" kvg:type="㇑" d="M47.96,14.75c0.93,1.58,1.22,2.06,1.32,3.02C50.21,26.85,50,37.7,50.26,41"/>
			<path id="kvg:07e56-Kaisho-s9" kvg:type="㇑" d="M61.24,13.25c0.76,1,1.42,2.31,1.21,3.93c-1.18,9.55-0.71,13.33-2,22.32"/>
			<path id="kvg:07e56-Kaisho-s10" kvg:type="㇐" d="M40,41.73c0.95,0.38,2.07,0.53,3.01,0.38c3.6-0.57,21.07-2.72,24.35-2.89c1.58-0.08,2.54,0.18,3.33,0.37"/>
			<g id="kvg:07e56-Kaisho-g4" kvg:element="月">
				<path id="kvg:07e56-Kaisho-s11" kvg:type="㇒" d="M45.6,50.7c0.33,0.6,0.55,1.7,0.66,2.3c0.11,0.6,0.16,40.37,0.11,41.71"/>
				<path id="kvg:07e56-Kaisho-s12" kvg:type="㇆a" d="M46.93,51.8c1.32-0.15,13.98-2.18,14.96-2.35c1.77-0.3,2.43,1.95,2.21,2.85c-0.21,0.87-0.33,25.26-0.33,37.42c0,7.03-4.81,2.6-5.25,1.85"/>
				<path id="kvg:07e56-Kaisho-s13" kvg:type="㇐a" d="M46.93,63.36c4.53-0.9,5.42-0.75,9.4-1.2"/>
				<path id="kvg:07e56-Kaisho-s14" kvg:type="㇐a" d="M47.26,75.22c3.53-0.45,3.99-0.47,9.34-0.6"/>
			</g>
		</g>
		<g id="kvg:07e56-Kaisho-g5" kvg:element="攵" kvg:variant="true" kvg:original="攴" kvg:position="right">
			<g id="kvg:07e56-Kaisho-g6" kvg:element="𠂉" kvg:position="top">
				<path id="kvg:07e56-Kaisho-s15" kvg:type="㇒" d="M80.26,13.89c0.03,0.94,0.17,2.48-0.05,3.77c-1.46,8.28-4.75,24.12-9.81,35.58"/>
				<path id="kvg:07e56-Kaisho-s16" kvg:type="㇐" d="M79.49,36.7c0.45,0.23,2.27-0.22,2.72-0.27c2.36-0.24,9.95-1.63,13.65-1.87c0.8-0.05,1.29-0.01,1.5,0.04"/>
			</g>
			<g id="kvg:07e56-Kaisho-g7" kvg:element="乂" kvg:position="bottom">
				<g id="kvg:07e56-Kaisho-g8" kvg:element="丿">
					<path id="kvg:07e56-Kaisho-s17" kvg:type="㇒" d="M88.87,39.68c0.33,1.33,0.51,2.29,0.17,4.72C85.88,66.54,78.75,84.7,68.35,94"/>
				</g>
				<path id="kvg:07e56-Kaisho-s18" kvg:type="㇏" d="M73.54,49.65C77.5,61.75,88,84,95.39,93.13c1.36,1.67,2.07,2.04,3.11,2.22"/>
			</g>
		</g>
	</g>
</g>
</g>
<g id="kvg:StrokeNumbers_07e56-Kaisho" style="font-size:8;fill:#808080">
	<text transform="matrix(1 0 0 1 17.25 15.25)">1</text>
	<text transform="matrix(1 0 0 1 28.25 28.25)">2</text>
	<text transform="matrix(1 0 0 1 32.00 49.25)">3</text>
	<text transform="matrix(1 0 0 1 1.25 83.25)">4</text>
	<text transform="matrix(1 0 0 1 13.25 78.25)">5</text>
	<text transform="matrix(1 0 0 1 24.25 74.25)">6</text>
	<text transform="matrix(1 0 0 1 40.00 25.25)">7</text>
	<text transform="matrix(1 0 0 1 42.25 12.25)">8</text>
	<text transform="matrix(1 0 0 1 55.25 10.25)">9</text>
	<text transform="matrix(1 0 0 1 39.25 39.25)">10</text>
	<text transform="matrix(1 0 0 1 37.25 51.25)">11</text>
	<text transform="matrix(1 0 0 1 47.25 48.75)">12</text>
	<text transform="matrix(1 0 0 1 48.75 60.48)">13</text>
	<text transform="matrix(1 0 0 1 49.25 71.90)">14</text>
	<text transform="matrix(1 0 0 1 70.25 14.25)">15</text>
	<text transform="matrix(1 0 0 1 81.75 33.25)">16</text>
	<text transform="matrix(1 0 0 1 79.25 45.25)">17</text>
</g>
</svg>
