<?xml version="1.0" encoding="UTF-8"?>
<!--
Copyright (C) 2009/2010/2011 Ulrich Apel.
This work is distributed under the conditions of the Creative Commons 
Attribution-Share Alike 3.0 Licence. This means you are free:
* to Share - to copy, distribute and transmit the work
* to Remix - to adapt the work

Under the following conditions:
* Attribution. You must attribute the work by stating your use of KanjiVG in
  your own copyright header and linking to KanjiVG's website
  (http://kanjivg.tagaini.net)
* Share Alike. If you alter, transform, or build upon this work, you may
  distribute the resulting work only under the same or similar license to this
  one.

See http://creativecommons.org/licenses/by-sa/3.0/ for more details.
-->
<!DOCTYPE svg PUBLIC "-//W3C//DTD SVG 1.0//EN" "http://www.w3.org/TR/2001/REC-SVG-20010904/DTD/svg10.dtd" [
<!ATTLIST g
xmlns:kvg CDATA #FIXED "http://kanjivg.tagaini.net"
kvg:element CDATA #IMPLIED
kvg:variant CDATA #IMPLIED
kvg:partial CDATA #IMPLIED
kvg:original CDATA #IMPLIED
kvg:part CDATA #IMPLIED
kvg:number CDATA #IMPLIED
kvg:tradForm CDATA #IMPLIED
kvg:radicalForm CDATA #IMPLIED
kvg:position CDATA #IMPLIED
kvg:radical CDATA #IMPLIED
kvg:phon CDATA #IMPLIED >
<!ATTLIST path
xmlns:kvg CDATA #FIXED "http://kanjivg.tagaini.net"
kvg:type CDATA #IMPLIED >
]>
<svg xmlns="http://www.w3.org/2000/svg" width="109" height="109" viewBox="0 0 109 109">
<g id="kvg:StrokePaths_07e66" style="fill:none;stroke:#000000;stroke-width:3;stroke-linecap:round;stroke-linejoin:round;">
<g id="kvg:07e66" kvg:element="繦">
	<g id="kvg:07e66-g1" kvg:element="糸" kvg:position="left" kvg:radical="general">
		<path id="kvg:07e66-s1" kvg:type="㇜" d="M24.06,11.35c0.33,1.39,0.35,2.42-0.17,3.93c-2.28,6.67-7.79,15.28-12.25,20.61c-0.62,0.74-0.67,3.21,0,3.47c3.52,1.39,8.42,2.21,11.44,4.76"/>
		<path id="kvg:07e66-s2" kvg:type="㇜" d="M33.75,24.68c0.26,0.57,0.32,2.41,0,3.02c-5.02,9.54-13.86,21.7-20.77,29.81c-1.58,1.86,0.39,2.92,1.42,2.54c4.32-1.58,14.57-3.9,20.11-5.41"/>
		<path id="kvg:07e66-s3" kvg:type="㇔" d="M31.25,46.5c2.38,2.29,6.15,9.43,6.75,13"/>
		<path id="kvg:07e66-s4" kvg:type="㇑" d="M25.29,59.87c0.96,1.13,1.08,2.07,1.16,4.6c0.29,9.49-0.02,22.4-0.17,29.54c-0.04,1.98-0.07,3.52-0.07,4.42"/>
		<path id="kvg:07e66-s5" kvg:type="㇒" d="M17.76,68.75c0.49,1.25,0.12,2.96-0.14,3.67C15.97,77.06,11.84,86.02,9.5,90"/>
		<path id="kvg:07e66-s6" kvg:type="㇔" d="M33.75,67.5c3.25,3.31,5.74,11,6.5,14"/>
	</g>
	<g id="kvg:07e66-g2" kvg:element="強" kvg:variant="true" kvg:position="right">
		<g id="kvg:07e66-g3" kvg:element="弓" kvg:position="left">
			<path id="kvg:07e66-s7" kvg:type="㇕c" d="M39.47,17.92c1.28,0.58,2.54,0.65,3.54,0.59c3.73-0.26,11.48-1.76,14.79-2.4c2.08-0.41,2.72,0.9,1.94,3c-0.61,1.64-1.63,7.64-2.3,11.65c-0.19,1.12-0.35,2.09-0.46,2.76"/>
			<path id="kvg:07e66-s8" kvg:type="㇐" d="M47.5,36c1.75,0,8-1.5,9.25-1.5s2,0,3,0"/>
			<path id="kvg:07e66-s9" kvg:type="㇉" d="M45.75,35c0.35,0.88,0.98,1.61,0.75,3c-0.26,1.59-1.92,14.51-2.15,15.35c-0.65,2.34,0.93,3.54,3.15,2.65c2.5-1,6.01-1.35,8.75-1.75c1.94-0.28,2.64,1.17,2.5,2.75c-0.71,8.12-2.05,24.13-7.29,31.72c-3.46,5.03-4.71,1.78-6.17-0.48"/>
		</g>
		<g id="kvg:07e66-g4" kvg:position="right">
			<g id="kvg:07e66-g5" kvg:element="厶" kvg:variant="true" kvg:original="厶" kvg:position="top">
				<g id="kvg:07e66-g6" kvg:element="口">
					<path id="kvg:07e66-s10" kvg:type="㇑" d="M66.89,15c0.23,0.36,0.47,0.65,0.57,1.1c0.68,2.97,1.82,10.33,2.5,16.38c0.13,1.15,0.24,2.26,0.33,3.27"/>
					<path id="kvg:07e66-s11" kvg:type="㇕b" d="M68,17.25c0.97-0.12,1.98-0.25,3.02-0.36c7.29-0.83,15.93-1.48,20.05-1.9c1.72-0.18,2.75,1.03,2.51,2.06c-0.81,3.39-1.42,7.67-2.4,12.24c-0.25,1.15-0.52,2.32-0.82,3.5"/>
					<path id="kvg:07e66-s12" kvg:type="㇐b" d="M70.95,34.33c5.02-0.5,10.01-0.76,17.57-1.23c1.17-0.07,2.4-0.15,3.7-0.24"/>
				</g>
			</g>
			<g id="kvg:07e66-g7" kvg:element="虫" kvg:position="bottom">
				<g id="kvg:07e66-g8" kvg:element="中">
					<g id="kvg:07e66-g9" kvg:element="口">
						<path id="kvg:07e66-s13" kvg:type="㇑" d="M64.56,45.5c0.33,0.2,1.11,1.59,1.2,2.19c0.54,3.78,1.1,8.63,1.83,15.28c0.1,0.96,0.21,1.96,0.33,3"/>
						<path id="kvg:07e66-s14" kvg:type="㇕b" d="M65.75,47.38c8.5-1.13,22.24-2.29,27.37-3.29c2-0.39,3.3,2.2,3.07,3.66c-0.7,4.38-1.03,6.18-1.85,11.27c-0.17,1.08-0.37,2.31-0.59,3.74"/>
						<path id="kvg:07e66-s15" kvg:type="㇐b" d="M67.98,64.83c4.92-0.54,15.79-1.1,23.79-1.71c1.25-0.09,2.43-0.19,3.51-0.28"/>
					</g>
					<g id="kvg:07e66-g10" kvg:element="丨">
						<path id="kvg:07e66-s16" kvg:type="㇑a" d="M78.29,36.25c0.63,0.35,1.01,1.56,1.14,2.26c0.11,0.6,0.03,32.92-0.08,44.24c-0.02,1.71-0.03,2.94-0.05,3.51"/>
					</g>
				</g>
				<path id="kvg:07e66-s17" kvg:type="㇀" d="M62.44,90.79c0.73,0.74,2.17,1.16,2.91,0.97s25.19-7.34,27.4-8.26"/>
				<path id="kvg:07e66-s18" kvg:type="㇔" d="M88.5,74.75c3,3.31,7.75,13.6,8.5,18.75"/>
			</g>
		</g>
	</g>
</g>
</g>
<g id="kvg:StrokeNumbers_07e66" style="font-size:8;fill:#808080">
	<text transform="matrix(1 0 0 1 17.25 11.25)">1</text>
	<text transform="matrix(1 0 0 1 27.00 24.25)">2</text>
	<text transform="matrix(1 0 0 1 32.00 45.25)">3</text>
	<text transform="matrix(1 0 0 1 19.25 67.25)">4</text>
	<text transform="matrix(1 0 0 1 9.25 72.25)">5</text>
	<text transform="matrix(1 0 0 1 37.25 69.25)">6</text>
	<text transform="matrix(1 0 0 1 39.25 15.25)">7</text>
	<text transform="matrix(1 0 0 1 41.25 31.85)">8</text>
	<text transform="matrix(1 0 0 1 39.25 44.25)">9</text>
	<text transform="matrix(1 0 0 1 60.25 30.70)">10</text>
	<text transform="matrix(1 0 0 1 70.25 13.25)">11</text>
	<text transform="matrix(1 0 0 1 73.25 31.25)">12</text>
	<text transform="matrix(1 0 0 1 53.25 49.25)">13</text>
	<text transform="matrix(1 0 0 1 65.25 43.25)">14</text>
	<text transform="matrix(1 0 0 1 70.25 61.25)">15</text>
	<text transform="matrix(1 0 0 1 83.25 41.25)">16</text>
	<text transform="matrix(1 0 0 1 60.25 87.25)">17</text>
	<text transform="matrix(1 0 0 1 88.25 74.25)">18</text>
</g>
</svg>
