<?xml version="1.0" encoding="UTF-8"?>
<!--
Copyright (C) 2009/2010/2011 Ulrich Apel.
This work is distributed under the conditions of the Creative Commons 
Attribution-Share Alike 3.0 Licence. This means you are free:
* to Share - to copy, distribute and transmit the work
* to Remix - to adapt the work

Under the following conditions:
* Attribution. You must attribute the work by stating your use of KanjiVG in
  your own copyright header and linking to KanjiVG's website
  (http://kanjivg.tagaini.net)
* Share Alike. If you alter, transform, or build upon this work, you may
  distribute the resulting work only under the same or similar license to this
  one.

See http://creativecommons.org/licenses/by-sa/3.0/ for more details.
-->
<!DOCTYPE svg PUBLIC "-//W3C//DTD SVG 1.0//EN" "http://www.w3.org/TR/2001/REC-SVG-20010904/DTD/svg10.dtd" [
<!ATTLIST g
xmlns:kvg CDATA #FIXED "http://kanjivg.tagaini.net"
kvg:element CDATA #IMPLIED
kvg:variant CDATA #IMPLIED
kvg:partial CDATA #IMPLIED
kvg:original CDATA #IMPLIED
kvg:part CDATA #IMPLIED
kvg:number CDATA #IMPLIED
kvg:tradForm CDATA #IMPLIED
kvg:radicalForm CDATA #IMPLIED
kvg:position CDATA #IMPLIED
kvg:radical CDATA #IMPLIED
kvg:phon CDATA #IMPLIED >
<!ATTLIST path
xmlns:kvg CDATA #FIXED "http://kanjivg.tagaini.net"
kvg:type CDATA #IMPLIED >
]>
<svg xmlns="http://www.w3.org/2000/svg" width="109" height="109" viewBox="0 0 109 109">
<g id="kvg:StrokePaths_07f4c" style="fill:none;stroke:#000000;stroke-width:3;stroke-linecap:round;stroke-linejoin:round;">
<g id="kvg:07f4c" kvg:element="罌">
	<g id="kvg:07f4c-g1" kvg:position="top">
		<g id="kvg:07f4c-g2" kvg:element="貝" kvg:position="left">
			<g id="kvg:07f4c-g3" kvg:element="目" kvg:position="top">
				<path id="kvg:07f4c-s1" kvg:type="㇑" d="M25.77,14.54c0.37,0.6,0.91,1.04,0.91,1.83s0.17,21.21-0.27,24.54"/>
				<path id="kvg:07f4c-s2" kvg:type="㇕a" d="M27.3,15.1c2.03-0.09,17.46-1.25,19.3-1.36c1.54-0.09,2.36,0.5,2.36,1.18c0,1.66-0.45,22.58-0.45,23.12"/>
				<path id="kvg:07f4c-s3" kvg:type="㇐a" d="M26.73,22.28c3.61-0.17,17.62-1.2,20.72-1.2"/>
				<path id="kvg:07f4c-s4" kvg:type="㇐a" d="M26.9,30.3c5.78-0.3,15.69-0.91,21.82-0.97"/>
				<path id="kvg:07f4c-s5" kvg:type="㇐a" d="M26.63,38.58c5.59-0.31,16.28-1.15,21.37-1.15"/>
			</g>
			<g id="kvg:07f4c-g4" kvg:position="bottom">
				<path id="kvg:07f4c-s6" kvg:type="㇒" d="M31.5,43.25c0.3,0.94-0.23,1.87-0.83,2.55c-1.81,2.07-6.56,6.5-10.18,8.95"/>
				<path id="kvg:07f4c-s7" kvg:type="㇔" d="M42.67,41.88c3.7,2.2,8.07,6.2,9.08,8.12"/>
			</g>
		</g>
		<g id="kvg:07f4c-g5" kvg:element="貝" kvg:position="right">
			<g id="kvg:07f4c-g6" kvg:element="目" kvg:position="top">
				<path id="kvg:07f4c-s8" kvg:type="㇑" d="M62.08,13.1c0.36,0.59,0.88,1.02,0.88,1.8c0,0.78,0.17,20.83-0.26,24.1"/>
				<path id="kvg:07f4c-s9" kvg:type="㇕a" d="M63.54,13.7c2.09-0.1,17.98-1.34,19.88-1.46c1.58-0.1,2.43,0.54,2.43,1.27c0,1.78-0.47,24.21-0.47,24.79"/>
				<path id="kvg:07f4c-s10" kvg:type="㇐a" d="M62.99,21c3.77-0.14,18.38-1.01,21.62-1.01"/>
				<path id="kvg:07f4c-s11" kvg:type="㇐a" d="M63.15,28.57c5.69-0.31,15.45-0.94,21.47-1"/>
				<path id="kvg:07f4c-s12" kvg:type="㇐a" d="M63.14,37.16c5.62-0.21,16.36-0.78,21.49-0.78"/>
			</g>
			<g id="kvg:07f4c-g7" kvg:position="bottom">
				<path id="kvg:07f4c-s13" kvg:type="㇒" d="M67.38,43.01c0.28,0.78-0.21,1.54-0.76,2.1c-1.67,1.71-6.04,5.36-9.37,7.38"/>
				<path id="kvg:07f4c-s14" kvg:type="㇔" d="M78.77,42.28c4.27,2.81,9.31,7.9,10.48,10.35"/>
			</g>
		</g>
	</g>
	<g id="kvg:07f4c-g8" kvg:element="缶" kvg:position="bottom" kvg:radical="general">
		<path id="kvg:07f4c-s15" kvg:type="㇒" d="M38.52,50c0.04,0.42,0.08,1.09-0.07,1.7c-0.87,3.59-5.87,11.47-12.7,16.3"/>
		<path id="kvg:07f4c-s16" kvg:type="㇐" d="M35.13,60.23c0.88,0.32,2.49,0.4,3.38,0.32c10.81-0.89,27.22-3,36.92-4.13c1.46-0.17,2.35,0.15,3.08,0.32"/>
		<path id="kvg:07f4c-s17" kvg:type="㇐" d="M16.01,73.48c1.73,0.42,4.92,0.48,6.65,0.42c18.05-0.7,40.18-4.24,66.52-4.4c2.89-0.02,4.62,0.2,6.07,0.4"/>
		<path id="kvg:07f4c-s18" kvg:type="㇑" d="M52.83,61.63c0.46,0.73,0.98,1.26,0.98,2.26c0,3.51-0.05,25.02-0.12,27.99"/>
		<path id="kvg:07f4c-s19" kvg:type="㇄" d="M29.25,80.25c0.73,0.24,1.76,2.26,1.75,2.75c-0.07,3.01-1,5.75-2.54,10.64c-0.33,1.05-0.33,2.38,1.45,2.01c7.83-1.65,40.45-4.8,49.64-4.93"/>
		<path id="kvg:07f4c-s20" kvg:type="㇑" d="M79.67,76.88c0.35,0.26,1.26,2.42,1.2,2.95c-0.35,3.16-0.37,9.42-0.78,15.67"/>
	</g>
</g>
</g>
<g id="kvg:StrokeNumbers_07f4c" style="font-size:8;fill:#808080">
	<text transform="matrix(1 0 0 1 19.00 20.38)">1</text>
	<text transform="matrix(1 0 0 1 29.25 11.80)">2</text>
	<text transform="matrix(1 0 0 1 31.25 21.25)">3</text>
	<text transform="matrix(1 0 0 1 31.25 29.25)">4</text>
	<text transform="matrix(1 0 0 1 31.25 37.08)">5</text>
	<text transform="matrix(1 0 0 1 20.25 48.25)">6</text>
	<text transform="matrix(1 0 0 1 37.25 46.25)">7</text>
	<text transform="matrix(1 0 0 1 55.25 21.25)">8</text>
	<text transform="matrix(1 0 0 1 65.25 11.25)">9</text>
	<text transform="matrix(1 0 0 1 65.25 19.25)">10</text>
	<text transform="matrix(1 0 0 1 66.25 27.10)">11</text>
	<text transform="matrix(1 0 0 1 66.25 35.25)">12</text>
	<text transform="matrix(1 0 0 1 54.25 46.25)">13</text>
	<text transform="matrix(1 0 0 1 71.25 50.25)">14</text>
	<text transform="matrix(1 0 0 1 23.50 60.25)">15</text>
	<text transform="matrix(1 0 0 1 42.25 57.25)">16</text>
	<text transform="matrix(1 0 0 1 5.25 72.25)">17</text>
	<text transform="matrix(1 0 0 1 42.50 68.25)">18</text>
	<text transform="matrix(1 0 0 1 19.25 85.25)">19</text>
	<text transform="matrix(1 0 0 1 68.25 82.25)">20</text>
</g>
</svg>
