<?xml version="1.0" encoding="UTF-8"?>
<!--
Copyright (C) 2009/2010/2011 Ulrich Apel.
This work is distributed under the conditions of the Creative Commons 
Attribution-Share Alike 3.0 Licence. This means you are free:
* to Share - to copy, distribute and transmit the work
* to Remix - to adapt the work

Under the following conditions:
* Attribution. You must attribute the work by stating your use of KanjiVG in
  your own copyright header and linking to KanjiVG's website
  (http://kanjivg.tagaini.net)
* Share Alike. If you alter, transform, or build upon this work, you may
  distribute the resulting work only under the same or similar license to this
  one.

See http://creativecommons.org/licenses/by-sa/3.0/ for more details.
-->
<!DOCTYPE svg PUBLIC "-//W3C//DTD SVG 1.0//EN" "http://www.w3.org/TR/2001/REC-SVG-20010904/DTD/svg10.dtd" [
<!ATTLIST g
xmlns:kvg CDATA #FIXED "http://kanjivg.tagaini.net"
kvg:element CDATA #IMPLIED
kvg:variant CDATA #IMPLIED
kvg:partial CDATA #IMPLIED
kvg:original CDATA #IMPLIED
kvg:part CDATA #IMPLIED
kvg:number CDATA #IMPLIED
kvg:tradForm CDATA #IMPLIED
kvg:radicalForm CDATA #IMPLIED
kvg:position CDATA #IMPLIED
kvg:radical CDATA #IMPLIED
kvg:phon CDATA #IMPLIED >
<!ATTLIST path
xmlns:kvg CDATA #FIXED "http://kanjivg.tagaini.net"
kvg:type CDATA #IMPLIED >
]>
<svg xmlns="http://www.w3.org/2000/svg" width="109" height="109" viewBox="0 0 109 109">
<g id="kvg:StrokePaths_07f54" style="fill:none;stroke:#000000;stroke-width:3;stroke-linecap:round;stroke-linejoin:round;">
<g id="kvg:07f54" kvg:element="罔">
	<g id="kvg:07f54-g1" kvg:element="罒" kvg:variant="true" kvg:original="网" kvg:position="kamae" kvg:radical="tradit">
		<g id="kvg:07f54-g2" kvg:element="冂" kvg:radical="nelson">
			<path id="kvg:07f54-s1" kvg:type="㇑" d="M20.5,17c0.75,1.25,1.25,3.25,1,5.5s0.25,68.5,0.25,72.25"/>
			<path id="kvg:07f54-s2" kvg:type="㇆a" d="M21.5,19.5c9.5-1,60.1-5,62-5c2.75,0,4.5,0.75,4.5,3c0,4.75-0.25,65.75-0.25,71.5c0,9.25-4.25,4.75-7.25,1.5"/>
		</g>
		<path id="kvg:07f54-s3" kvg:type="㇔" d="M35.02,22.35c3.98,2.32,10.28,9.53,11.27,13.13"/>
		<path id="kvg:07f54-s4" kvg:type="㇒" d="M69.53,19.37c0.03,0.4,0.05,1.03-0.05,1.6c-0.61,3.37-4.08,10.75-8.84,15.27"/>
		<path id="kvg:07f54-s5" kvg:type="㇐" d="M27,40.79c1.03,0.42,2.91,0.53,3.94,0.42c6.55-0.72,40.86-4.74,47.21-4.25c1.71,0.13,2.74,0.2,3.6,0.41"/>
	</g>
	<g id="kvg:07f54-g3" kvg:element="亡">
		<g id="kvg:07f54-g4" kvg:element="亠">
			<path id="kvg:07f54-s6" kvg:type="㇑a" d="M51.95,41.52c0.81,0.44,2.06,2.42,2.06,3.29c0,3.2-0.17,7.87-0.02,10.58"/>
			<g id="kvg:07f54-g5" kvg:element="匸" kvg:part="1" kvg:variant="true" kvg:original="匚">
				<path id="kvg:07f54-s7" kvg:type="㇐" d="M30.06,56.88c1.02,0.07,3.36,0.5,4.36,0.4c8.05-0.83,32.5-3.11,42.72-3.32c1.69-0.04,2.55,0.03,3.81,0.5"/>
			</g>
		</g>
		<g id="kvg:07f54-g6" kvg:element="匸" kvg:part="2" kvg:variant="true" kvg:original="匚">
			<path id="kvg:07f54-s8" kvg:type="㇄a" d="M34.01,59.17c0.7,0.64,1.05,2.47,1.05,3.36c0,7.9,0.13,8.39,0,11.37c-0.31,7.1,3.19,7.71,19.94,7.71c6.21,0,19.29-0.83,20.99-1.24"/>
		</g>
	</g>
</g>
</g>
<g id="kvg:StrokeNumbers_07f54" style="font-size:8;fill:#808080">
	<text transform="matrix(1 0 0 1 14.25 26.25)">1</text>
	<text transform="matrix(1 0 0 1 25.25 15.25)">2</text>
	<text transform="matrix(1 0 0 1 30.00 28.25)">3</text>
	<text transform="matrix(1 0 0 1 60.00 25.25)">4</text>
	<text transform="matrix(1 0 0 1 26.25 38.25)">5</text>
	<text transform="matrix(1 0 0 1 45.25 49.25)">6</text>
	<text transform="matrix(1 0 0 1 31.25 54.25)">7</text>
	<text transform="matrix(1 0 0 1 27.00 64.85)">8</text>
</g>
</svg>
