<?xml version="1.0" encoding="UTF-8"?>
<!--
Copyright (C) 2009/2010/2011 Ulrich Apel.
This work is distributed under the conditions of the Creative Commons 
Attribution-Share Alike 3.0 Licence. This means you are free:
* to Share - to copy, distribute and transmit the work
* to Remix - to adapt the work

Under the following conditions:
* Attribution. You must attribute the work by stating your use of KanjiVG in
  your own copyright header and linking to KanjiVG's website
  (http://kanjivg.tagaini.net)
* Share Alike. If you alter, transform, or build upon this work, you may
  distribute the resulting work only under the same or similar license to this
  one.

See http://creativecommons.org/licenses/by-sa/3.0/ for more details.
-->
<!DOCTYPE svg PUBLIC "-//W3C//DTD SVG 1.0//EN" "http://www.w3.org/TR/2001/REC-SVG-20010904/DTD/svg10.dtd" [
<!ATTLIST g
xmlns:kvg CDATA #FIXED "http://kanjivg.tagaini.net"
kvg:element CDATA #IMPLIED
kvg:variant CDATA #IMPLIED
kvg:partial CDATA #IMPLIED
kvg:original CDATA #IMPLIED
kvg:part CDATA #IMPLIED
kvg:number CDATA #IMPLIED
kvg:tradForm CDATA #IMPLIED
kvg:radicalForm CDATA #IMPLIED
kvg:position CDATA #IMPLIED
kvg:radical CDATA #IMPLIED
kvg:phon CDATA #IMPLIED >
<!ATTLIST path
xmlns:kvg CDATA #FIXED "http://kanjivg.tagaini.net"
kvg:type CDATA #IMPLIED >
]>
<svg xmlns="http://www.w3.org/2000/svg" width="109" height="109" viewBox="0 0 109 109">
<g id="kvg:StrokePaths_07f5f" style="fill:none;stroke:#000000;stroke-width:3;stroke-linecap:round;stroke-linejoin:round;">
<g id="kvg:07f5f" kvg:element="罟">
	<g id="kvg:07f5f-g1" kvg:element="罒" kvg:variant="true" kvg:original="网" kvg:position="top" kvg:radical="general">
		<path id="kvg:07f5f-s1" kvg:type="㇑" d="M20.93,15.07c0.23,0.27,0.46,0.49,0.56,0.82c0.79,2.64,3.46,10.87,4,15.61"/>
		<path id="kvg:07f5f-s2" kvg:type="㇕a" d="M21.72,16.25c8.78-1.25,59.51-4.14,62.17-4.52c0.97-0.14,2.29,0.98,2.03,2.6c-0.54,3.39-2.66,10.66-4.32,14.54"/>
		<path id="kvg:07f5f-s3" kvg:type="㇑a" d="M42.76,15.86c0.15,1.76,1.23,9.86,1.39,11.83"/>
		<path id="kvg:07f5f-s4" kvg:type="㇑a" d="M63.29,13.79c-0.15,2.86-1.42,11.33-1.73,13.09"/>
		<path id="kvg:07f5f-s5" kvg:type="㇐a" d="M25.75,30.33c-1.51,0.31,47.5-3.83,56.67-3.78"/>
	</g>
	<g id="kvg:07f5f-g2" kvg:element="古" kvg:position="bottom">
		<g id="kvg:07f5f-g3" kvg:element="十" kvg:position="top">
			<path id="kvg:07f5f-s6" kvg:type="㇐" d="M15.5,50.54c1.01,0.24,3.71,0.88,6.38,0.71c10.98-0.71,48.37-3.75,66.33-4.24c2.69-0.07,5.36,0.26,7.04,0.5"/>
			<path id="kvg:07f5f-s7" kvg:type="㇑a" d="M52.7,33.75c0.87,0.53,1.57,2.35,1.57,3.43c0,18.48,0,23.97-0.17,30.57"/>
		</g>
		<g id="kvg:07f5f-g4" kvg:element="口" kvg:position="bottom">
			<path id="kvg:07f5f-s8" kvg:type="㇑" d="M28.77,67.84c0.48,1.16,1.71,3.14,1.82,3.89C31.4,77.13,33.7,87.79,34.84,98"/>
			<path id="kvg:07f5f-s9" kvg:type="㇕b" d="M30.35,70.3c12.01-1.09,37.99-3.39,46.19-3.56c3.39-0.07,4.46,1.76,3.92,4.71c-1.15,6.29-2.8,12.62-4.63,20.98"/>
			<path id="kvg:07f5f-s10" kvg:type="㇐b" d="M35.88,95.27c10.15-0.28,30.18-1.09,42.37-1.45"/>
		</g>
	</g>
</g>
</g>
<g id="kvg:StrokeNumbers_07f5f" style="font-size:8;fill:#808080">
	<text transform="matrix(1 0 0 1 12.25 17.25)">1</text>
	<text transform="matrix(1 0 0 1 24.25 12.25)">2</text>
	<text transform="matrix(1 0 0 1 36.46 23.25)">3</text>
	<text transform="matrix(1 0 0 1 55.25 22.25)">4</text>
	<text transform="matrix(1 0 0 1 28.47 27.25)">5</text>
	<text transform="matrix(1 0 0 1 7.19 50.51)">6</text>
	<text transform="matrix(1 0 0 1 43.25 40.25)">7</text>
	<text transform="matrix(1 0 0 1 19.25 73.25)">8</text>
	<text transform="matrix(1 0 0 1 34.25 66.25)">9</text>
	<text transform="matrix(1 0 0 1 37.25 92.25)">10</text>
</g>
</svg>
