<?xml version="1.0" encoding="UTF-8"?>
<!--
Copyright (C) 2009/2010/2011 Ulrich Apel.
This work is distributed under the conditions of the Creative Commons 
Attribution-Share Alike 3.0 Licence. This means you are free:
* to Share - to copy, distribute and transmit the work
* to Remix - to adapt the work

Under the following conditions:
* Attribution. You must attribute the work by stating your use of KanjiVG in
  your own copyright header and linking to KanjiVG's website
  (http://kanjivg.tagaini.net)
* Share Alike. If you alter, transform, or build upon this work, you may
  distribute the resulting work only under the same or similar license to this
  one.

See http://creativecommons.org/licenses/by-sa/3.0/ for more details.
-->
<!DOCTYPE svg PUBLIC "-//W3C//DTD SVG 1.0//EN" "http://www.w3.org/TR/2001/REC-SVG-20010904/DTD/svg10.dtd" [
<!ATTLIST g
xmlns:kvg CDATA #FIXED "http://kanjivg.tagaini.net"
kvg:element CDATA #IMPLIED
kvg:variant CDATA #IMPLIED
kvg:partial CDATA #IMPLIED
kvg:original CDATA #IMPLIED
kvg:part CDATA #IMPLIED
kvg:number CDATA #IMPLIED
kvg:tradForm CDATA #IMPLIED
kvg:radicalForm CDATA #IMPLIED
kvg:position CDATA #IMPLIED
kvg:radical CDATA #IMPLIED
kvg:phon CDATA #IMPLIED >
<!ATTLIST path
xmlns:kvg CDATA #FIXED "http://kanjivg.tagaini.net"
kvg:type CDATA #IMPLIED >
]>
<svg xmlns="http://www.w3.org/2000/svg" width="109" height="109" viewBox="0 0 109 109">
<g id="kvg:StrokePaths_07f77-Kaisho" style="fill:none;stroke:#000000;stroke-width:3;stroke-linecap:round;stroke-linejoin:round;">
<g id="kvg:07f77-Kaisho" kvg:element="罷">
	<g id="kvg:07f77-Kaisho-g1" kvg:element="罒" kvg:variant="true" kvg:original="网" kvg:position="top" kvg:radical="general">
		<path id="kvg:07f77-Kaisho-s1" kvg:type="㇑" d="M22.25,14.01c0.34,0.29,0.69,0.53,0.84,0.89c1.19,2.85,2.61,10.73,3.42,15.85"/>
		<path id="kvg:07f77-Kaisho-s2" kvg:type="㇕a" d="M24.38,15.94c7.55-1.12,56.12-4.09,60.13-4.46c1.46-0.14,3.45,0.97,3.06,2.57c-0.82,3.35-2.84,9.09-5.02,13.87"/>
		<path id="kvg:07f77-Kaisho-s3" kvg:type="㇑a" d="M43.47,14.35c0.23,1.9,1.84,11.17,2.08,13.31"/>
		<path id="kvg:07f77-Kaisho-s4" kvg:type="㇑a" d="M65.14,13.16c-0.23,3.09-1.38,11.17-1.84,13.07"/>
		<path id="kvg:07f77-Kaisho-s5" kvg:type="㇐a" d="M27.6,29.2c4.71-0.42,49.03-3.06,55.5-3.71"/>
	</g>
	<g id="kvg:07f77-Kaisho-g2" kvg:element="能" kvg:position="bottom">
		<g id="kvg:07f77-Kaisho-g3" kvg:position="left">
			<g id="kvg:07f77-Kaisho-g4" kvg:element="厶" kvg:position="top">
				<path id="kvg:07f77-Kaisho-s6" kvg:type="㇜" d="M34.26,35c0.31,0.29,0.71,0.55,0.52,0.92c-2.3,4.67-7.32,9.93-11.61,13.21c-1.36,1.04-1.36,1.27,0.63,1.04c4.18-0.48,20.45-3.65,26.72-4.17"/>
				<path id="kvg:07f77-Kaisho-s7" kvg:type="㇔" d="M46.28,41.12c2.74,1.56,7.07,6.4,7.76,8.82"/>
			</g>
			<g id="kvg:07f77-Kaisho-g5" kvg:element="月" kvg:position="bottom">
				<path id="kvg:07f77-Kaisho-s8" kvg:type="㇒" d="M27.12,57.68c0.42,0.52,0.82,1.29,0.84,2.36c0.05,3.01,0.07,37.95,0.14,36.63"/>
				<path id="kvg:07f77-Kaisho-s9" kvg:type="㇆a" d="M28.79,59c1.67-0.13,17.02-2.31,18.26-2.46c2.23-0.26,3.07,1.68,2.79,2.46c-0.27,0.75-0.42,23.16-0.42,33.63c0,6.72-3.34,2.33-4.74,1.16"/>
				<path id="kvg:07f77-Kaisho-s10" kvg:type="㇐a" d="M28.79,68.96c3.43-0.46,6.36-0.9,9.8-1.31c0.92-0.11,1.83-0.21,2.73-0.32"/>
				<path id="kvg:07f77-Kaisho-s11" kvg:type="㇐a" d="M29.21,79.17c3.15-0.28,6.29-0.63,9.43-0.95c0.91-0.09,1.83-0.18,2.73-0.27"/>
			</g>
		</g>
		<g id="kvg:07f77-Kaisho-g6" kvg:position="right">
			<g id="kvg:07f77-Kaisho-g7" kvg:element="匕" kvg:position="top">
				<path id="kvg:07f77-Kaisho-s12" kvg:type="㇒" d="M83.34,36.14c0.16,0.21,0.25,0.82-0.14,1.14c-2.58,2.09-11.02,7.86-19.35,10"/>
				<path id="kvg:07f77-Kaisho-s13" kvg:type="㇟" d="M61.88,32.43c0.54,0.37,1.25,2.09,1.25,2.62c0,3.21,0.18,15.42,0.18,16.98c0,4.43,1.31,5.21,13.29,5.21c4.74,0,9.19-0.21,10.98-1.33c1.79-1.12,1.57-2.41,1.75-3.53"/>
			</g>
			<g id="kvg:07f77-Kaisho-g8" kvg:element="匕" kvg:position="bottom">
				<path id="kvg:07f77-Kaisho-s14" kvg:type="㇒" d="M86.49,66.34c0.17,0.26,0.28,1.03-0.16,1.44c-2.85,2.63-12.21,9.87-21.44,12.55"/>
				<path id="kvg:07f77-Kaisho-s15" kvg:type="㇟" d="M63.28,64.37c0.61,0.39,1.36,1.38,1.36,2.68c0,4.69,0.2,18.41,0.2,20.05c0,5.67,2.22,6.65,15.18,6.71c5.41,0.02,9.92-0.22,11.96-1.41c2.04-1.18,1.79-2.56,2-3.74"/>
			</g>
		</g>
	</g>
</g>
</g>
<g id="kvg:StrokeNumbers_07f77-Kaisho" style="font-size:8;fill:#808080">
	<text transform="matrix(1 0 0 1 17.25 22.63)">1</text>
	<text transform="matrix(1 0 0 1 27.75 12.13)">2</text>
	<text transform="matrix(1 0 0 1 36.50 23.50)">3</text>
	<text transform="matrix(1 0 0 1 58.50 22.00)">4</text>
	<text transform="matrix(1 0 0 1 29.50 26.50)">5</text>
	<text transform="matrix(1 0 0 1 25.50 39.50)">6</text>
	<text transform="matrix(1 0 0 1 40.50 41.50)">7</text>
	<text transform="matrix(1 0 0 1 21.75 66.13)">8</text>
	<text transform="matrix(1 0 0 1 32.25 56.50)">9</text>
	<text transform="matrix(1 0 0 1 31.50 66.05)">10</text>
	<text transform="matrix(1 0 0 1 31.50 76.48)">11</text>
	<text transform="matrix(1 0 0 1 71.50 35.50)">12</text>
	<text transform="matrix(1 0 0 1 52.50 36.13)">13</text>
	<text transform="matrix(1 0 0 1 74.50 66.50)">14</text>
	<text transform="matrix(1 0 0 1 54.50 64.50)">15</text>
</g>
</svg>
