<?xml version="1.0" encoding="UTF-8"?>
<!--
Copyright (C) 2009/2010/2011 Ulrich Apel.
This work is distributed under the conditions of the Creative Commons 
Attribution-Share Alike 3.0 Licence. This means you are free:
* to Share - to copy, distribute and transmit the work
* to Remix - to adapt the work

Under the following conditions:
* Attribution. You must attribute the work by stating your use of KanjiVG in
  your own copyright header and linking to KanjiVG's website
  (http://kanjivg.tagaini.net)
* Share Alike. If you alter, transform, or build upon this work, you may
  distribute the resulting work only under the same or similar license to this
  one.

See http://creativecommons.org/licenses/by-sa/3.0/ for more details.
-->
<!DOCTYPE svg PUBLIC "-//W3C//DTD SVG 1.0//EN" "http://www.w3.org/TR/2001/REC-SVG-20010904/DTD/svg10.dtd" [
<!ATTLIST g
xmlns:kvg CDATA #FIXED "http://kanjivg.tagaini.net"
kvg:element CDATA #IMPLIED
kvg:variant CDATA #IMPLIED
kvg:partial CDATA #IMPLIED
kvg:original CDATA #IMPLIED
kvg:part CDATA #IMPLIED
kvg:number CDATA #IMPLIED
kvg:tradForm CDATA #IMPLIED
kvg:radicalForm CDATA #IMPLIED
kvg:position CDATA #IMPLIED
kvg:radical CDATA #IMPLIED
kvg:phon CDATA #IMPLIED >
<!ATTLIST path
xmlns:kvg CDATA #FIXED "http://kanjivg.tagaini.net"
kvg:type CDATA #IMPLIED >
]>
<svg xmlns="http://www.w3.org/2000/svg" width="109" height="109" viewBox="0 0 109 109">
<g id="kvg:StrokePaths_07f8c" style="fill:none;stroke:#000000;stroke-width:3;stroke-linecap:round;stroke-linejoin:round;">
<g id="kvg:07f8c" kvg:element="羌">
	<g id="kvg:07f8c-g1" kvg:element="羊" kvg:variant="true" kvg:position="top" kvg:radical="general">
		<path id="kvg:07f8c-s1" kvg:type="㇔" d="M32.78,13.55c3.84,1.93,10.56,9.14,11.52,12.14"/>
		<path id="kvg:07f8c-s2" kvg:type="㇒" d="M69.87,10.89c0.03,0.3,0.05,0.76-0.05,1.19c-0.59,2.5-4.48,9.98-9.12,13.34"/>
		<path id="kvg:07f8c-s3" kvg:type="㇐" d="M23.75,30.64c1.63,0.29,4.62,0.35,6.25,0.29c10.81-0.4,35.45-4.42,52.09-4.41c2.72,0,4.35,0.14,5.7,0.28"/>
		<path id="kvg:07f8c-s4" kvg:type="㇑a" d="M52.2,29.26c1.14,0.39,2.06,1.75,2.06,2.57c0,6.72,0,17.71,0,24.75"/>
		<path id="kvg:07f8c-s5" kvg:type="㇐" d="M28.36,44.18c1.39,0.41,3.95,0.55,5.33,0.41c8.81-0.84,28.46-4.12,42.18-4.57c2.32-0.08,3.71,0.2,4.87,0.41"/>
		<path id="kvg:07f8c-s6" kvg:type="㇐" d="M17.59,59.05c1.82,0.53,5.17,0.79,6.96,0.53c7.35-1.04,41.33-3.9,61.25-4.98c3.02-0.16,4.84,0.25,6.36,0.52"/>
	</g>
	<g id="kvg:07f8c-g2" kvg:element="儿" kvg:original="八" kvg:position="bottom">
		<g id="kvg:07f8c-g3" kvg:element="丿" kvg:position="left">
			<path id="kvg:07f8c-s7" kvg:type="㇒" d="M43.24,60.75c0.07,0.86,0.15,2.23-0.14,3.47c-1.76,7.32-7.1,24.28-25.68,33.2"/>
		</g>
		<g id="kvg:07f8c-g4" kvg:position="right">
			<path id="kvg:07f8c-s8" kvg:type="㇟" d="M60.24,58.62c0.66,1.21,1.18,2.64,1.22,4.51c0.18,8.35-0.47,16.46-0.47,22.14C60.99,96,64,96.53,76.65,96.53c14.85,0,16.74-2.53,16.74-10.3"/>
		</g>
	</g>
</g>
</g>
<g id="kvg:StrokeNumbers_07f8c" style="font-size:8;fill:#808080">
	<text transform="matrix(1 0 0 1 24.25 13.25)">1</text>
	<text transform="matrix(1 0 0 1 61.25 10.25)">2</text>
	<text transform="matrix(1 0 0 1 16.25 31.25)">3</text>
	<text transform="matrix(1 0 0 1 46.25 38.25)">4</text>
	<text transform="matrix(1 0 0 1 21.50 45.25)">5</text>
	<text transform="matrix(1 0 0 1 10.00 59.25)">6</text>
	<text transform="matrix(1 0 0 1 35.25 67.93)">7</text>
	<text transform="matrix(1 0 0 1 53.25 66.25)">8</text>
</g>
</svg>
