<?xml version="1.0" encoding="UTF-8"?>
<!--
Copyright (C) 2009/2010/2011 Ulrich Apel.
This work is distributed under the conditions of the Creative Commons 
Attribution-Share Alike 3.0 Licence. This means you are free:
* to Share - to copy, distribute and transmit the work
* to Remix - to adapt the work

Under the following conditions:
* Attribution. You must attribute the work by stating your use of KanjiVG in
  your own copyright header and linking to KanjiVG's website
  (http://kanjivg.tagaini.net)
* Share Alike. If you alter, transform, or build upon this work, you may
  distribute the resulting work only under the same or similar license to this
  one.

See http://creativecommons.org/licenses/by-sa/3.0/ for more details.
-->
<!DOCTYPE svg PUBLIC "-//W3C//DTD SVG 1.0//EN" "http://www.w3.org/TR/2001/REC-SVG-20010904/DTD/svg10.dtd" [
<!ATTLIST g
xmlns:kvg CDATA #FIXED "http://kanjivg.tagaini.net"
kvg:element CDATA #IMPLIED
kvg:variant CDATA #IMPLIED
kvg:partial CDATA #IMPLIED
kvg:original CDATA #IMPLIED
kvg:part CDATA #IMPLIED
kvg:number CDATA #IMPLIED
kvg:tradForm CDATA #IMPLIED
kvg:radicalForm CDATA #IMPLIED
kvg:position CDATA #IMPLIED
kvg:radical CDATA #IMPLIED
kvg:phon CDATA #IMPLIED >
<!ATTLIST path
xmlns:kvg CDATA #FIXED "http://kanjivg.tagaini.net"
kvg:type CDATA #IMPLIED >
]>
<svg xmlns="http://www.w3.org/2000/svg" width="109" height="109" viewBox="0 0 109 109">
<g id="kvg:StrokePaths_07f8e-KaishoVtLst" style="fill:none;stroke:#000000;stroke-width:3;stroke-linecap:round;stroke-linejoin:round;">
<g id="kvg:07f8e-KaishoVtLst" kvg:element="美">
	<g id="kvg:07f8e-KaishoVtLst-g1" kvg:element="羊" kvg:variant="true" kvg:position="top" kvg:radical="general">
		<path id="kvg:07f8e-KaishoVtLst-s1" kvg:type="㇔" d="M36.77,15.65c2.57,1.88,6.65,7.71,7.29,10.63"/>
		<path id="kvg:07f8e-KaishoVtLst-s2" kvg:type="㇒" d="M69.78,11.96c0.03,0.31,0.05,0.81-0.05,1.26c-0.63,2.66-4.23,8.49-9.17,12.06"/>
		<path id="kvg:07f8e-KaishoVtLst-s3" kvg:type="㇐" d="M29.5,30.46c0.94,0.38,2.66,0.39,3.6,0.38c5.15-0.02,32.9-4.27,42.11-4.13c1.57,0.02,2.5,0.18,3.29,0.37"/>
		<path id="kvg:07f8e-KaishoVtLst-s4" kvg:type="㇐" d="M31.75,42.96c0.94,0.38,2.66,0.48,3.6,0.38c7.4-0.77,25.4-3.77,37.11-4.38c1.56-0.08,2.5,0.18,3.29,0.37"/>
		<path id="kvg:07f8e-KaishoVtLst-s5" kvg:type="㇐" d="M26.75,55.77c1.52,0.54,4.31,0.7,5.82,0.54c7.18-0.74,37.18-4.49,44.11-4.73c2.53-0.09,4.05-0.24,5.31,0.03"/>
		<path id="kvg:07f8e-KaishoVtLst-s6" kvg:type="㇑" d="M52.49,29.82c0.86,0.5,1.55,2.24,1.55,3.25c0,6-0.04,12.25-0.04,20.25"/>
	</g>
	<g id="kvg:07f8e-KaishoVtLst-g2" kvg:element="大" kvg:position="bottom">
		<path id="kvg:07f8e-KaishoVtLst-s7" kvg:type="㇐" d="M14.38,72.68c1.62,0.39,3.45,0.22,4.51,0.11c16.86-1.72,58.61-5.97,69.36-6.14c1.34-0.02,3.75-0.08,5.25-0.08"/>
		<path id="kvg:07f8e-KaishoVtLst-s8" kvg:type="㇒" d="M52.43,57.07c0.55,0.59,1.02,2.29,0.81,3.54c-3.49,21.21-16.74,33.96-34.99,39.46"/>
		<path id="kvg:07f8e-KaishoVtLst-s9" kvg:type="㇏" d="M57.25,74.32c8.14,4.2,19.27,15.12,25.34,22.28"/>
	</g>
</g>
</g>
<g id="kvg:StrokeNumbers_07f8e-KaishoVtLst" style="font-size:8;fill:#808080">
	<text transform="matrix(1 0 0 1 33.75 11.20)">1</text>
	<text transform="matrix(1 0 0 1 68.25 6.70)">2</text>
	<text transform="matrix(1 0 0 1 21.75 30.70)">3</text>
	<text transform="matrix(1 0 0 1 24.75 44.20)">4</text>
	<text transform="matrix(1 0 0 1 20.25 56.20)">5</text>
	<text transform="matrix(1 0 0 1 45.75 38.20)">6</text>
	<text transform="matrix(1 0 0 1 6.75 74.20)">7</text>
	<text transform="matrix(1 0 0 1 44.25 65.20)">8</text>
	<text transform="matrix(1 0 0 1 71.25 78.70)">9</text>
</g>
</svg>
