<?xml version="1.0" encoding="UTF-8"?>
<!--
Copyright (C) 2009/2010/2011 Ulrich Apel.
This work is distributed under the conditions of the Creative Commons 
Attribution-Share Alike 3.0 Licence. This means you are free:
* to Share - to copy, distribute and transmit the work
* to Remix - to adapt the work

Under the following conditions:
* Attribution. You must attribute the work by stating your use of KanjiVG in
  your own copyright header and linking to KanjiVG's website
  (http://kanjivg.tagaini.net)
* Share Alike. If you alter, transform, or build upon this work, you may
  distribute the resulting work only under the same or similar license to this
  one.

See http://creativecommons.org/licenses/by-sa/3.0/ for more details.
-->
<!DOCTYPE svg PUBLIC "-//W3C//DTD SVG 1.0//EN" "http://www.w3.org/TR/2001/REC-SVG-20010904/DTD/svg10.dtd" [
<!ATTLIST g
xmlns:kvg CDATA #FIXED "http://kanjivg.tagaini.net"
kvg:element CDATA #IMPLIED
kvg:variant CDATA #IMPLIED
kvg:partial CDATA #IMPLIED
kvg:original CDATA #IMPLIED
kvg:part CDATA #IMPLIED
kvg:number CDATA #IMPLIED
kvg:tradForm CDATA #IMPLIED
kvg:radicalForm CDATA #IMPLIED
kvg:position CDATA #IMPLIED
kvg:radical CDATA #IMPLIED
kvg:phon CDATA #IMPLIED >
<!ATTLIST path
xmlns:kvg CDATA #FIXED "http://kanjivg.tagaini.net"
kvg:type CDATA #IMPLIED >
]>
<svg xmlns="http://www.w3.org/2000/svg" width="109" height="109" viewBox="0 0 109 109">
<g id="kvg:StrokePaths_07f87" style="fill:none;stroke:#000000;stroke-width:3;stroke-linecap:round;stroke-linejoin:round;">
<g id="kvg:07f87" kvg:element="羇">
	<g id="kvg:07f87-g1" kvg:element="罒" kvg:variant="true" kvg:original="网" kvg:position="top" kvg:radical="general">
		<path id="kvg:07f87-s1" kvg:type="㇑" d="M22.93,12.57c0.23,0.27,0.46,0.49,0.56,0.82c0.79,2.64,2.96,10.37,3.5,15.11"/>
		<path id="kvg:07f87-s2" kvg:type="㇕a" d="M24.72,14.36c5.87-0.79,56.48-3.78,59.16-4.13c0.98-0.13,3.3,1.39,3.04,2.88c-0.55,3.1-1.89,8.35-3.35,12.77"/>
		<path id="kvg:07f87-s3" kvg:type="㇑a" d="M43.76,13.36c0.15,1.76,1.23,9.86,1.39,11.83"/>
		<path id="kvg:07f87-s4" kvg:type="㇑a" d="M64.79,11.79c-0.15,2.86-0.92,10.33-1.23,12.09"/>
		<path id="kvg:07f87-s5" kvg:type="㇐a" d="M27.36,27.11c3.15-0.39,48.14-3.61,56.56-3.49"/>
	</g>
	<g id="kvg:07f87-g2" kvg:position="bottom">
		<g id="kvg:07f87-g3" kvg:element="革" kvg:position="left">
			<g id="kvg:07f87-g4" kvg:element="廿" kvg:position="top">
				<g id="kvg:07f87-g5" kvg:element="十">
					<path id="kvg:07f87-s6" kvg:type="㇐" d="M12.34,41.45c0.94,0.47,2.66,0.53,3.6,0.47c5.81-0.41,20.81-1.91,31.27-3.05c1.56-0.17,2.51,0.22,3.29,0.46"/>
					<path id="kvg:07f87-s7" kvg:type="㇑" d="M22.63,33.58c0.39,0.25,0.63,1.12,0.71,1.62c0.08,0.5,1.54,10.93,1.96,16.58"/>
				</g>
				<path id="kvg:07f87-s8" kvg:type="㇑a" d="M40.03,32.25c0.24,0.24,0.96,1.57,0.93,2.06c-0.17,2.6-0.18,7.24-0.82,13.95"/>
				<path id="kvg:07f87-s9" kvg:type="㇐b" d="M25.28,51.19c2.48,0,13.59-1.65,15.82-1.85"/>
			</g>
			<g id="kvg:07f87-g6" kvg:position="bottom">
				<path id="kvg:07f87-s10" kvg:type="㇑" d="M17.35,59.06c0.27,0.31,0.54,0.56,0.66,0.95c0.93,3.04,1.25,7.19,1.88,12.66"/>
				<path id="kvg:07f87-s11" kvg:type="㇕" d="M20.26,59.81c7.58-1.1,21.5-2.87,24.78-2.83c1.71,0.02,3.2,0.93,2.99,1.83c-0.43,1.85-1.6,6.96-2.53,10.19"/>
				<path id="kvg:07f87-s12" kvg:type="㇐" d="M19.97,71.81C24.05,71.27,40.82,69.54,46,69"/>
				<path id="kvg:07f87-s13" kvg:type="㇐" d="M12.75,82.35c0.72,0.4,2.03,0.43,2.75,0.4c5.5-0.25,25-2.75,31.73-3.46c1.19-0.13,1.91,0.19,2.51,0.39"/>
				<path id="kvg:07f87-s14" kvg:type="㇑" d="M31.5,52.75c0.5,0.38,0.81,1.72,0.91,2.48c0.1,0.76,0,38.75-0.1,43.52"/>
			</g>
		</g>
		<g id="kvg:07f87-g7" kvg:element="奇" kvg:position="right">
			<g id="kvg:07f87-g8" kvg:element="大" kvg:variant="true" kvg:position="top">
				<path id="kvg:07f87-s15" kvg:type="㇐" d="M56.52,38.48c1.61,0.54,3.4,0.25,4.47,0.15C68,38,79.5,36.75,86.05,36.09c1.35-0.14,3.71-0.11,5.2-0.11"/>
				<path id="kvg:07f87-s16" kvg:type="㇒" d="M71.54,29.75c0.18,0.33,0.29,0.72,0.28,1.43C71.62,41.06,67.75,49.5,61,55"/>
				<path id="kvg:07f87-s17" kvg:type="㇔/㇏" d="M72.75,41.27c5,1.73,11.49,6.68,14.75,10.48"/>
			</g>
			<g id="kvg:07f87-g9" kvg:element="可" kvg:position="bottom">
				<g id="kvg:07f87-g10" kvg:element="丁" kvg:part="1">
					<g id="kvg:07f87-g11" kvg:element="一">
						<path id="kvg:07f87-s18" kvg:type="㇐" d="M54.38,58.17c1.06,0.3,3.02,0.37,4.08,0.3c6.34-0.43,25.76-2.46,34.57-2.85c1.77-0.08,2.84,0.15,3.72,0.29"/>
					</g>
				</g>
				<g id="kvg:07f87-g12" kvg:element="口">
					<path id="kvg:07f87-s19" kvg:type="㇑" d="M56.17,69.06c0.3,0.25,0.6,0.46,0.73,0.78c1.04,2.5,2.28,8.96,2.98,13.45"/>
					<path id="kvg:07f87-s20" kvg:type="㇕b" d="M57.65,70.35c4.45-0.83,10.65-2.34,13.2-2.67c0.93-0.12,2.49,1.21,2.36,1.92c-0.55,2.94-1.71,6.14-2.91,10.49"/>
					<path id="kvg:07f87-s21" kvg:type="㇐b" d="M60.4,81.92c3.5-0.34,7.29-0.59,12.1-1.1"/>
				</g>
				<g id="kvg:07f87-g13" kvg:element="丁" kvg:part="2">
					<g id="kvg:07f87-g14" kvg:element="亅">
						<path id="kvg:07f87-s22" kvg:type="㇚" d="M84.5,58.5c0.89,0.87,1.48,2.55,1.48,5.38c0,14.62-0.2,25.27-0.2,29.89c0,7.93-6.75-0.6-7.95-1.77"/>
					</g>
				</g>
			</g>
		</g>
	</g>
</g>
</g>
<g id="kvg:StrokeNumbers_07f87" style="font-size:8;fill:#808080">
	<text transform="matrix(1 0 0 1 16.25 20.25)">1</text>
	<text transform="matrix(1 0 0 1 27.25 11.25)">2</text>
	<text transform="matrix(1 0 0 1 38.25 21.25)">3</text>
	<text transform="matrix(1 0 0 1 56.29 20.60)">4</text>
	<text transform="matrix(1 0 0 1 29.25 23.25)">5</text>
	<text transform="matrix(1 0 0 1 5.25 43.25)">6</text>
	<text transform="matrix(1 0 0 1 15.25 35.25)">7</text>
	<text transform="matrix(1 0 0 1 31.25 35.25)">8</text>
	<text transform="matrix(1 0 0 1 29.00 47.78)">9</text>
	<text transform="matrix(1 0 0 1 7.00 66.70)">10</text>
	<text transform="matrix(1 0 0 1 17.25 56.25)">11</text>
	<text transform="matrix(1 0 0 1 22.25 68.25)">12</text>
	<text transform="matrix(1 0 0 1 1.25 82.25)">13</text>
	<text transform="matrix(1 0 0 1 35.25 56.25)">14</text>
	<text transform="matrix(1 0 0 1 52.25 35.25)">15</text>
	<text transform="matrix(1 0 0 1 60.25 32.25)">16</text>
	<text transform="matrix(1 0 0 1 84.25 45.25)">17</text>
	<text transform="matrix(1 0 0 1 50.00 55.25)">18</text>
	<text transform="matrix(1 0 0 1 47.25 76.25)">19</text>
	<text transform="matrix(1 0 0 1 57.25 67.25)">20</text>
	<text transform="matrix(1 0 0 1 62.00 78.25)">21</text>
	<text transform="matrix(1 0 0 1 74.25 65.88)">22</text>
</g>
</svg>
