<?xml version="1.0" encoding="UTF-8"?>
<!--
Copyright (C) 2009/2010/2011 Ulrich Apel.
This work is distributed under the conditions of the Creative Commons 
Attribution-Share Alike 3.0 Licence. This means you are free:
* to Share - to copy, distribute and transmit the work
* to Remix - to adapt the work

Under the following conditions:
* Attribution. You must attribute the work by stating your use of KanjiVG in
  your own copyright header and linking to KanjiVG's website
  (http://kanjivg.tagaini.net)
* Share Alike. If you alter, transform, or build upon this work, you may
  distribute the resulting work only under the same or similar license to this
  one.

See http://creativecommons.org/licenses/by-sa/3.0/ for more details.
-->
<!DOCTYPE svg PUBLIC "-//W3C//DTD SVG 1.0//EN" "http://www.w3.org/TR/2001/REC-SVG-20010904/DTD/svg10.dtd" [
<!ATTLIST g
xmlns:kvg CDATA #FIXED "http://kanjivg.tagaini.net"
kvg:element CDATA #IMPLIED
kvg:variant CDATA #IMPLIED
kvg:partial CDATA #IMPLIED
kvg:original CDATA #IMPLIED
kvg:part CDATA #IMPLIED
kvg:number CDATA #IMPLIED
kvg:tradForm CDATA #IMPLIED
kvg:radicalForm CDATA #IMPLIED
kvg:position CDATA #IMPLIED
kvg:radical CDATA #IMPLIED
kvg:phon CDATA #IMPLIED >
<!ATTLIST path
xmlns:kvg CDATA #FIXED "http://kanjivg.tagaini.net"
kvg:type CDATA #IMPLIED >
]>
<svg xmlns="http://www.w3.org/2000/svg" width="109" height="109" viewBox="0 0 109 109">
<g id="kvg:StrokePaths_07fa8" style="fill:none;stroke:#000000;stroke-width:3;stroke-linecap:round;stroke-linejoin:round;">
<g id="kvg:07fa8" kvg:element="羨">
	<g id="kvg:07fa8-g1" kvg:element="羊" kvg:variant="true" kvg:position="top" kvg:radical="general">
		<path id="kvg:07fa8-s1" kvg:type="㇔" d="M35.03,11.7c3,1.77,7.51,7.01,8.27,9.75"/>
		<path id="kvg:07fa8-s2" kvg:type="㇒" d="M68.38,9.89c0,0.73-0.26,1.18-0.45,1.75C66.25,15,65.12,16.75,61.2,21"/>
		<path id="kvg:07fa8-s3" kvg:type="㇐" d="M23.64,26.1c2.91,0.29,5.84,0.47,8.75,0.13c12.86-1.49,33.76-2.96,45.12-3.44c2.76-0.12,5.49-0.18,8.06,0.19"/>
		<path id="kvg:07fa8-s4" kvg:type="㇑a" d="M53.05,25.69c0.94,0.94,1.14,1.93,1.14,2.89c0,5.17-0.06,7.15-0.06,16.92"/>
		<path id="kvg:07fa8-s5" kvg:type="㇐" d="M28.36,36.61c2.63,0.45,5.24,0.27,7.91,0.03c9.98-0.89,26.41-2.2,36.11-2.66c2.78-0.3,5.55-0.23,8.3,0.2"/>
		<path id="kvg:07fa8-s6" kvg:type="㇐" d="M16.13,48.36c3.87,0.64,7.71,0.29,11.63,0c13.4-0.98,40.18-2.31,55.62-3.19c3.59-0.5,7.17-0.45,10.74,0.14"/>
	</g>
	<g id="kvg:07fa8-g2" kvg:position="bottom">
		<g id="kvg:07fa8-g3" kvg:element="氵" kvg:variant="true" kvg:original="水" kvg:position="left">
			<path id="kvg:07fa8-s7" kvg:type="㇔" d="M22.95,55.5c3.72,0.83,9.37,3.68,10.3,4.98"/>
			<path id="kvg:07fa8-s8" kvg:type="㇔" d="M17.86,69.1c3.53,0.98,8.86,4.26,9.74,5.78"/>
			<path id="kvg:07fa8-s9" kvg:type="㇀" d="M20.75,97.73c1.75,0.27,3.06-0.77,4.01-1.93c2.76-3.4,5.76-7.05,8.27-11.38"/>
		</g>
		<g id="kvg:07fa8-g4" kvg:element="欠" kvg:position="right">
			<g id="kvg:07fa8-g5" kvg:position="top">
				<path id="kvg:07fa8-s10" kvg:type="㇒" d="M56.41,49.75c0,1-0.24,2.01-0.58,2.61c-3.08,5.39-6.08,10.39-13.6,17.01"/>
				<path id="kvg:07fa8-s11" kvg:type="㇖a" d="M54.01,58.48c1.54,0.45,3.08,0.3,4.62,0.05c3.65-0.41,18.5-1.91,24-2.3c7.04-0.5,3.6,4.75-1.76,9.14"/>
			</g>
			<g id="kvg:07fa8-g6" kvg:position="bottom">
				<path id="kvg:07fa8-s12" kvg:type="㇒" d="M64.57,64.62c0,1.26-0.15,2.17-0.4,3.4C62.38,76.5,54,92.12,36.54,99.75"/>
				<path id="kvg:07fa8-s13" kvg:type="㇏" d="M63,76.5c3.51,3.32,12.39,11.32,19.79,16.6c2.81,2.04,5.8,3.79,8.96,5.28"/>
			</g>
		</g>
	</g>
</g>
</g>
<g id="kvg:StrokeNumbers_07fa8" style="font-size:8;fill:#808080">
	<text transform="matrix(1 0 0 1 28.75 12.88)">1</text>
	<text transform="matrix(1 0 0 1 58.00 8.50)">2</text>
	<text transform="matrix(1 0 0 1 16.75 26.23)">3</text>
	<text transform="matrix(1 0 0 1 46.50 32.15)">4</text>
	<text transform="matrix(1 0 0 1 21.50 37.50)">5</text>
	<text transform="matrix(1 0 0 1 9.50 49.50)">6</text>
	<text transform="matrix(1 0 0 1 15.50 58.50)">7</text>
	<text transform="matrix(1 0 0 1 10.50 70.50)">8</text>
	<text transform="matrix(1 0 0 1 12.50 97.50)">9</text>
	<text transform="matrix(1 0 0 1 43.50 56.50)">10</text>
	<text transform="matrix(1 0 0 1 59.50 55.50)">11</text>
	<text transform="matrix(1 0 0 1 52.50 68.50)">12</text>
	<text transform="matrix(1 0 0 1 66.75 78.50)">13</text>
</g>
</svg>
