<?xml version="1.0" encoding="UTF-8"?>
<!--
Copyright (C) 2009/2010/2011 Ulrich Apel.
This work is distributed under the conditions of the Creative Commons 
Attribution-Share Alike 3.0 Licence. This means you are free:
* to Share - to copy, distribute and transmit the work
* to Remix - to adapt the work

Under the following conditions:
* Attribution. You must attribute the work by stating your use of KanjiVG in
  your own copyright header and linking to KanjiVG's website
  (http://kanjivg.tagaini.net)
* Share Alike. If you alter, transform, or build upon this work, you may
  distribute the resulting work only under the same or similar license to this
  one.

See http://creativecommons.org/licenses/by-sa/3.0/ for more details.
-->
<!DOCTYPE svg PUBLIC "-//W3C//DTD SVG 1.0//EN" "http://www.w3.org/TR/2001/REC-SVG-20010904/DTD/svg10.dtd" [
<!ATTLIST g
xmlns:kvg CDATA #FIXED "http://kanjivg.tagaini.net"
kvg:element CDATA #IMPLIED
kvg:variant CDATA #IMPLIED
kvg:partial CDATA #IMPLIED
kvg:original CDATA #IMPLIED
kvg:part CDATA #IMPLIED
kvg:number CDATA #IMPLIED
kvg:tradForm CDATA #IMPLIED
kvg:radicalForm CDATA #IMPLIED
kvg:position CDATA #IMPLIED
kvg:radical CDATA #IMPLIED
kvg:phon CDATA #IMPLIED >
<!ATTLIST path
xmlns:kvg CDATA #FIXED "http://kanjivg.tagaini.net"
kvg:type CDATA #IMPLIED >
]>
<svg xmlns="http://www.w3.org/2000/svg" width="109" height="109" viewBox="0 0 109 109">
<g id="kvg:StrokePaths_08028" style="fill:none;stroke:#000000;stroke-width:3;stroke-linecap:round;stroke-linejoin:round;">
<g id="kvg:08028" kvg:element="耨">
	<g id="kvg:08028-g1" kvg:element="耒" kvg:position="left" kvg:radical="general">
		<g id="kvg:08028-g2" kvg:element="丿">
			<path id="kvg:08028-s1" kvg:type="㇒" d="M41.75,19.75c0.25,1-0.17,1.48-0.64,1.78C34,26,24.25,30,15,32.75"/>
		</g>
		<g id="kvg:08028-g3" kvg:element="未">
			<path id="kvg:08028-s2" kvg:type="㇐" d="M13.47,40.61c0.51,0.34,3.94,0.94,4.46,0.91c5.31-0.39,15.08-2.08,23.5-3.45c0.84-0.14,2.36,0.16,2.79,0.33"/>
			<g id="kvg:08028-g4" kvg:element="木">
				<path id="kvg:08028-s3" kvg:type="㇐" d="M10.84,53.8c0.4,0.31,2.98,1.04,4.06,0.93C22,54,32.25,52.62,41.38,51.38c1.07-0.15,3.02-0.19,3.7,0.12"/>
				<path id="kvg:08028-s4" kvg:type="㇑" d="M26.85,13c1.18,0.46,2.12,3.43,2.12,4.39c0,3.7,0.4,73.58,0.16,79.36"/>
				<path id="kvg:08028-s5" kvg:type="㇒" d="M28.53,54.36C25.26,63.9,16.8,78.37,9.99,83.77"/>
				<path id="kvg:08028-s6" kvg:type="㇔/㇏" d="M32.5,60.98c4.82,2.76,8.36,7.01,11.25,11.77"/>
			</g>
		</g>
	</g>
	<g id="kvg:08028-g5" kvg:element="辱" kvg:position="right">
		<g id="kvg:08028-g6" kvg:element="辰" kvg:position="top">
			<g id="kvg:08028-g7" kvg:element="厂">
				<path id="kvg:08028-s7" kvg:type="㇐" d="M49.75,19.48C50.9,19.9,53,20,54.15,19.9c9.29-0.79,29.64-3.62,34.6-3.98c1.9-0.14,3.05,0.2,4.01,0.41"/>
				<path id="kvg:08028-s8" kvg:type="㇒" d="M52.5,20.5c0.03,1.86-0.05,2.29-0.05,4.96c0,17.19,0.3,48.04-9.95,63.79"/>
			</g>
			<path id="kvg:08028-s9" kvg:type="㇐" d="M59.3,28.09c1.34,0.42,3.29,1.03,4.63,0.92c8.52-0.73,15.82-2.26,20.8-2.7c2.21-0.2,3.07-0.3,4.18-0.09"/>
			<path id="kvg:08028-s10" kvg:type="㇐" d="M55.75,39.05c1.5-0.05,3-0.05,4.28-0.16c3.82-0.35,26.78-4.16,30.87-4.26c0.99-0.02,2.85,0.16,3.35,0.33"/>
			<path id="kvg:08028-s11" kvg:type="㇙" d="M61.2,40.84c0.8,1.16,0.88,1.92,0.88,3.84c0,9.08-0.78,12.76-0.78,14.3s0.99,2.35,2.35,1.25C66.75,57.75,70,55.5,74.75,52"/>
			<path id="kvg:08028-s12" kvg:type="㇒" d="M88.75,39.75c0.02,0.16,0.04,0.41-0.04,0.64c-0.48,1.35-3.23,4.31-7,6.12"/>
			<path id="kvg:08028-s13" kvg:type="㇏" d="M67.75,39c6.5,5.75,17.5,12.25,24.01,16.65c1.33,0.9,2.43,1.33,3.74,1.6"/>
		</g>
		<g id="kvg:08028-g8" kvg:element="寸" kvg:position="bottom">
			<path id="kvg:08028-s14" kvg:type="㇐" d="M55.75,69.56c0.8,0.54,2.25,0.57,3.07,0.54c9.04-0.42,27.43-2.51,37.2-3.32c1.33-0.11,2.13,0.25,2.8,0.52"/>
			<path id="kvg:08028-s15" kvg:type="㇚" d="M83.58,58.25c0.09,0.35,1.25,1.84,1.25,4.09c0,15.1,0.29,23.47,0.29,27.14c0,12.03-6.13,2.53-8.18,0.68"/>
			<path id="kvg:08028-s16" kvg:type="㇔" d="M58.75,75.5c3.35,1.94,8.66,7.98,9.5,11"/>
		</g>
	</g>
</g>
</g>
<g id="kvg:StrokeNumbers_08028" style="font-size:8;fill:#808080">
	<text transform="matrix(1 0 0 1 36.25 16.25)">1</text>
	<text transform="matrix(1 0 0 1 6.25 42.25)">2</text>
	<text transform="matrix(1 0 0 1 3.25 54.25)">3</text>
	<text transform="matrix(1 0 0 1 18.25 12.25)">4</text>
	<text transform="matrix(1 0 0 1 17.25 63.25)">5</text>
	<text transform="matrix(1 0 0 1 36.25 61.25)">6</text>
	<text transform="matrix(1 0 0 1 53.25 17.25)">7</text>
	<text transform="matrix(1 0 0 1 45.25 28.25)">8</text>
	<text transform="matrix(1 0 0 1 60.25 26.25)">9</text>
	<text transform="matrix(1 0 0 1 56.25 36.70)">10</text>
	<text transform="matrix(1 0 0 1 54.25 47.63)">11</text>
	<text transform="matrix(1 0 0 1 91.25 44.25)">12</text>
	<text transform="matrix(1 0 0 1 65.25 48.25)">13</text>
	<text transform="matrix(1 0 0 1 53.25 67.25)">14</text>
	<text transform="matrix(1 0 0 1 73.25 60.25)">15</text>
	<text transform="matrix(1 0 0 1 51.25 82.25)">16</text>
</g>
</svg>
