<?xml version="1.0" encoding="UTF-8"?>
<!--
Copyright (C) 2009/2010/2011 Ulrich Apel.
This work is distributed under the conditions of the Creative Commons 
Attribution-Share Alike 3.0 Licence. This means you are free:
* to Share - to copy, distribute and transmit the work
* to Remix - to adapt the work

Under the following conditions:
* Attribution. You must attribute the work by stating your use of KanjiVG in
  your own copyright header and linking to KanjiVG's website
  (http://kanjivg.tagaini.net)
* Share Alike. If you alter, transform, or build upon this work, you may
  distribute the resulting work only under the same or similar license to this
  one.

See http://creativecommons.org/licenses/by-sa/3.0/ for more details.
-->
<!DOCTYPE svg PUBLIC "-//W3C//DTD SVG 1.0//EN" "http://www.w3.org/TR/2001/REC-SVG-20010904/DTD/svg10.dtd" [
<!ATTLIST g
xmlns:kvg CDATA #FIXED "http://kanjivg.tagaini.net"
kvg:element CDATA #IMPLIED
kvg:variant CDATA #IMPLIED
kvg:partial CDATA #IMPLIED
kvg:original CDATA #IMPLIED
kvg:part CDATA #IMPLIED
kvg:number CDATA #IMPLIED
kvg:tradForm CDATA #IMPLIED
kvg:radicalForm CDATA #IMPLIED
kvg:position CDATA #IMPLIED
kvg:radical CDATA #IMPLIED
kvg:phon CDATA #IMPLIED >
<!ATTLIST path
xmlns:kvg CDATA #FIXED "http://kanjivg.tagaini.net"
kvg:type CDATA #IMPLIED >
]>
<svg xmlns="http://www.w3.org/2000/svg" width="109" height="109" viewBox="0 0 109 109">
<g id="kvg:StrokePaths_0805e" style="fill:none;stroke:#000000;stroke-width:3;stroke-linecap:round;stroke-linejoin:round;">
<g id="kvg:0805e" kvg:element="聞">
	<g id="kvg:0805e-g1" kvg:element="門" kvg:radical="nelson" kvg:phon="門">
		<g id="kvg:0805e-g2" kvg:position="left">
			<path id="kvg:0805e-s1" kvg:type="㇑" d="M16.14,17.97c0.94,0.94,1.51,2.16,1.51,3.25c0,0.77-0.03,48.45-0.18,66.29c-0.03,3.16-0.05,5.37-0.07,6.21"/>
			<path id="kvg:0805e-s2" kvg:type="㇕a" d="M19.01,19.6c6.86-1.22,18.49-3.1,21.08-3.39c1.9-0.21,3.03,0.79,3,2.46c-0.04,1.84-0.59,10.46-1.44,20.02c-0.09,1.04-0.15,2-0.15,2.69"/>
			<path id="kvg:0805e-s3" kvg:type="㇐a" d="M18.81,30.43c6.94-1.05,15.82-2.55,22.41-2.9"/>
			<path id="kvg:0805e-s4" kvg:type="㇐a" d="M17.86,42.57C26.25,41.25,33,40,40.42,39.4"/>
		</g>
		<g id="kvg:0805e-g3" kvg:position="right">
			<path id="kvg:0805e-s5" kvg:type="㇑" d="M66.21,14.22c0.66,0.66,1.17,1.78,1.17,2.93c0,0.56,0.12,13.19,0.17,19.1c0.02,1.71,0.03,2.83,0.03,2.91"/>
			<path id="kvg:0805e-s6" kvg:type="㇆a" d="M68.51,16.1c6.89-1.1,19.28-3.26,21.17-3.36c1.96-0.1,3.57,1.38,3.57,2.98c0,18.78-0.26,60.28-0.26,73.89c0,11.13-6.37,2.13-8.21,0.25"/>
			<path id="kvg:0805e-s7" kvg:type="㇐a" d="M68.59,25.94c5.16-0.69,18.16-2.44,23-2.71"/>
			<path id="kvg:0805e-s8" kvg:type="㇐a" d="M69.13,36.75c6.37-0.75,15.12-2,22.15-2.53"/>
		</g>
	</g>
	<g id="kvg:0805e-g4" kvg:element="耳" kvg:radical="tradit">
		<path id="kvg:0805e-s9" kvg:type="㇐" d="M33.5,51.24c1.71,0.31,4.02,0.25,5.71,0.06c9.6-1.05,20.21-3.05,30.66-4.05c2.83-0.27,4.57-0.1,6,0.05"/>
		<path id="kvg:0805e-s10" kvg:type="㇑a" d="M42.71,53c0.89,0.89,1.3,2.26,1.3,3.51S44,79.31,44,83.84"/>
		<path id="kvg:0805e-s11" kvg:type="㇐a" d="M45.13,61.43c4.49-0.43,13.74-2.05,19.78-2.36"/>
		<path id="kvg:0805e-s12" kvg:type="㇐a" d="M44.81,71.67c5.72-0.67,12.31-1.92,20.12-2.95"/>
		<path id="kvg:0805e-s13" kvg:type="㇀" d="M32.51,85.14c0.99,0.86,2.2,1.23,3.25,0.92c4.87-1.43,28.2-7.83,34.76-9.39"/>
		<path id="kvg:0805e-s14" kvg:type="㇑" d="M64.84,49.66c0.62,0.63,1.05,1.71,1.05,2.99c0,0.66,0.12,27.55,0.15,39.1c0.01,1.88,0.01,3.36,0.01,4.25"/>
	</g>
</g>
</g>
<g id="kvg:StrokeNumbers_0805e" style="font-size:8;fill:#808080">
	<text transform="matrix(1 0 0 1 10.50 26.50)">1</text>
	<text transform="matrix(1 0 0 1 19.50 16.50)">2</text>
	<text transform="matrix(1 0 0 1 21.50 27.13)">3</text>
	<text transform="matrix(1 0 0 1 21.50 39.13)">4</text>
	<text transform="matrix(1 0 0 1 59.50 21.50)">5</text>
	<text transform="matrix(1 0 0 1 69.50 12.50)">6</text>
	<text transform="matrix(1 0 0 1 71.50 23.50)">7</text>
	<text transform="matrix(1 0 0 1 71.50 34.63)">8</text>
	<text transform="matrix(1 0 0 1 26.25 53.50)">9</text>
	<text transform="matrix(1 0 0 1 33.50 61.50)">10</text>
	<text transform="matrix(1 0 0 1 47.50 58.50)">11</text>
	<text transform="matrix(1 0 0 1 47.50 68.50)">12</text>
	<text transform="matrix(1 0 0 1 23.50 92.50)">13</text>
	<text transform="matrix(1 0 0 1 56.50 55.50)">14</text>
</g>
</svg>
