<?xml version="1.0" encoding="UTF-8"?>
<!--
Copyright (C) 2009/2010/2011 Ulrich Apel.
This work is distributed under the conditions of the Creative Commons 
Attribution-Share Alike 3.0 Licence. This means you are free:
* to Share - to copy, distribute and transmit the work
* to Remix - to adapt the work

Under the following conditions:
* Attribution. You must attribute the work by stating your use of KanjiVG in
  your own copyright header and linking to KanjiVG's website
  (http://kanjivg.tagaini.net)
* Share Alike. If you alter, transform, or build upon this work, you may
  distribute the resulting work only under the same or similar license to this
  one.

See http://creativecommons.org/licenses/by-sa/3.0/ for more details.
-->
<!DOCTYPE svg PUBLIC "-//W3C//DTD SVG 1.0//EN" "http://www.w3.org/TR/2001/REC-SVG-20010904/DTD/svg10.dtd" [
<!ATTLIST g
xmlns:kvg CDATA #FIXED "http://kanjivg.tagaini.net"
kvg:element CDATA #IMPLIED
kvg:variant CDATA #IMPLIED
kvg:partial CDATA #IMPLIED
kvg:original CDATA #IMPLIED
kvg:part CDATA #IMPLIED
kvg:number CDATA #IMPLIED
kvg:tradForm CDATA #IMPLIED
kvg:radicalForm CDATA #IMPLIED
kvg:position CDATA #IMPLIED
kvg:radical CDATA #IMPLIED
kvg:phon CDATA #IMPLIED >
<!ATTLIST path
xmlns:kvg CDATA #FIXED "http://kanjivg.tagaini.net"
kvg:type CDATA #IMPLIED >
]>
<svg xmlns="http://www.w3.org/2000/svg" width="109" height="109" viewBox="0 0 109 109">
<g id="kvg:StrokePaths_080a9" style="fill:none;stroke:#000000;stroke-width:3;stroke-linecap:round;stroke-linejoin:round;">
<g id="kvg:080a9" kvg:element="肩">
	<g id="kvg:080a9-g1" kvg:element="戸" kvg:position="tare" kvg:radical="nelson">
		<path id="kvg:080a9-s1" kvg:type="㇐" d="M29.38,17.51c2.62,0.49,5.62,0.47,8.14,0.22c8.65-0.86,21.48-2.61,33.61-3.49c2.48-0.18,5.04-0.26,7.5,0.21"/>
		<path id="kvg:080a9-s2" kvg:type="㇕c" d="M29.85,29.13c1.65,0.62,3.64,0.8,5.9,0.53c11.75-1.4,33.14-3.48,40.5-4.15c1.99-0.18,4.07,0.77,3.25,3.5c-0.75,2.5-1.75,5.25-3.25,9.25"/>
		<path id="kvg:080a9-s3" kvg:type="㇐b" d="M31.5,43.25c12.75-1.12,24.53-2.36,39.25-3.45c3.53-0.26,6.51-0.46,8.5-0.55"/>
		<path id="kvg:080a9-s4" kvg:type="㇒" d="M31.68,30.43c0.32,0.82,0.39,2.07,0.16,3.76C29.5,51.25,25,67.25,12.75,80.5"/>
	</g>
	<g id="kvg:080a9-g2" kvg:element="月" kvg:radical="tradit">
		<path id="kvg:080a9-s5" kvg:type="㇑/㇒" d="M40.57,53.88c0.84,0.84,1.06,2.25,1.06,3.58c0,3.45,0,21.47,0,33.66c0,2.08,0,3.99,0,5.62"/>
		<path id="kvg:080a9-s6" kvg:type="㇆a" d="M42.95,55.99c2.63-0.21,24.55-2.99,28.43-3.34c2.39-0.22,4.38,1.35,4.38,4.09c0,6.76,0.09,17.4,0.09,34.84c0,11.19-5.25,3.88-7.45,1.94"/>
		<path id="kvg:080a9-s7" kvg:type="㇐a" d="M42.7,67.06c9.8-0.81,22.55-1.94,32.03-2.62"/>
		<path id="kvg:080a9-s8" kvg:type="㇐a" d="M42.85,78.57c7.65-0.69,23.83-1.33,31.94-1.76"/>
	</g>
</g>
</g>
<g id="kvg:StrokeNumbers_080a9" style="font-size:8;fill:#808080">
	<text transform="matrix(1 0 0 1 27.50 14.50)">1</text>
	<text transform="matrix(1 0 0 1 33.75 26.50)">2</text>
	<text transform="matrix(1 0 0 1 37.50 39.50)">3</text>
	<text transform="matrix(1 0 0 1 23.50 31.50)">4</text>
	<text transform="matrix(1 0 0 1 34.50 62.50)">5</text>
	<text transform="matrix(1 0 0 1 44.25 52.63)">6</text>
	<text transform="matrix(1 0 0 1 45.50 63.58)">7</text>
	<text transform="matrix(1 0 0 1 45.50 75.50)">8</text>
</g>
</svg>
