<?xml version="1.0" encoding="UTF-8"?>
<!--
Copyright (C) 2009/2010/2011 Ulrich Apel.
This work is distributed under the conditions of the Creative Commons 
Attribution-Share Alike 3.0 Licence. This means you are free:
* to Share - to copy, distribute and transmit the work
* to Remix - to adapt the work

Under the following conditions:
* Attribution. You must attribute the work by stating your use of KanjiVG in
  your own copyright header and linking to KanjiVG's website
  (http://kanjivg.tagaini.net)
* Share Alike. If you alter, transform, or build upon this work, you may
  distribute the resulting work only under the same or similar license to this
  one.

See http://creativecommons.org/licenses/by-sa/3.0/ for more details.
-->
<!DOCTYPE svg PUBLIC "-//W3C//DTD SVG 1.0//EN" "http://www.w3.org/TR/2001/REC-SVG-20010904/DTD/svg10.dtd" [
<!ATTLIST g
xmlns:kvg CDATA #FIXED "http://kanjivg.tagaini.net"
kvg:element CDATA #IMPLIED
kvg:variant CDATA #IMPLIED
kvg:partial CDATA #IMPLIED
kvg:original CDATA #IMPLIED
kvg:part CDATA #IMPLIED
kvg:number CDATA #IMPLIED
kvg:tradForm CDATA #IMPLIED
kvg:radicalForm CDATA #IMPLIED
kvg:position CDATA #IMPLIED
kvg:radical CDATA #IMPLIED
kvg:phon CDATA #IMPLIED >
<!ATTLIST path
xmlns:kvg CDATA #FIXED "http://kanjivg.tagaini.net"
kvg:type CDATA #IMPLIED >
]>
<svg xmlns="http://www.w3.org/2000/svg" width="109" height="109" viewBox="0 0 109 109">
<g id="kvg:StrokePaths_080af" style="fill:none;stroke:#000000;stroke-width:3;stroke-linecap:round;stroke-linejoin:round;">
<g id="kvg:080af" kvg:element="肯">
	<g id="kvg:080af-g1" kvg:element="止" kvg:position="top" kvg:radical="nelson">
		<g id="kvg:080af-g2" kvg:element="卜" kvg:original="ト">
			<path id="kvg:080af-s1" kvg:type="㇑a" d="M54.12,9.48c0.95,0.95,1.32,2.15,1.32,3.52c0,0.95,0.05,15.12,0.05,21.38"/>
			<path id="kvg:080af-s2" kvg:type="㇐b" d="M57.96,21.27C61,21,67.75,19.75,72.33,19.48c1.62-0.1,2.02-0.23,3.04,0"/>
		</g>
		<path id="kvg:080af-s3" kvg:type="㇑a" d="M30.91,19.93c1.02,1.02,1.32,2.45,1.32,3.77c0,2.67-0.1,7.38-0.1,13.67"/>
		<path id="kvg:080af-s4" kvg:type="㇐" d="M18,38.94c4.25,0.68,7.67,0.27,11.24-0.26c15.76-2.31,34.88-4.31,50.65-5.41c3.65-0.25,7.01-0.06,10.61,0.66"/>
	</g>
	<g id="kvg:080af-g3" kvg:element="月" kvg:position="bottom" kvg:radical="tradit">
		<path id="kvg:080af-s5" kvg:type="㇒" d="M38.56,47.73c0.7,0.89,0.89,2.02,0.89,3.42c0,2.6,0.03,26.3,0.02,38.85c0,3.75-0.01,6.35-0.04,6.81"/>
		<path id="kvg:080af-s6" kvg:type="㇆a" d="M40.39,48.97c2.49-0.2,25.36-3.42,27.22-3.54c2.77-0.18,4.15,1.32,4.15,4.94c0,5.39-0.01,27.17-0.01,41.75c0,10.36-5.34,3.58-7.42,1.79"/>
		<path id="kvg:080af-s7" kvg:type="㇐a" d="M40.64,61.87c9.74-1.12,21.86-2.37,30.17-2.84"/>
		<path id="kvg:080af-s8" kvg:type="㇐a" d="M40.51,75.87c7.61-0.87,22.19-2.39,29.88-2.79"/>
	</g>
</g>
</g>
<g id="kvg:StrokeNumbers_080af" style="font-size:8;fill:#808080">
	<text transform="matrix(1 0 0 1 44.25 9.50)">1</text>
	<text transform="matrix(1 0 0 1 60.75 17.50)">2</text>
	<text transform="matrix(1 0 0 1 21.75 19.63)">3</text>
	<text transform="matrix(1 0 0 1 15.50 36.05)">4</text>
	<text transform="matrix(1 0 0 1 31.50 55.63)">5</text>
	<text transform="matrix(1 0 0 1 39.75 45.50)">6</text>
	<text transform="matrix(1 0 0 1 44.25 58.50)">7</text>
	<text transform="matrix(1 0 0 1 44.21 72.50)">8</text>
</g>
</svg>
