<?xml version="1.0" encoding="UTF-8"?>
<!--
Copyright (C) 2009/2010/2011 Ulrich Apel.
This work is distributed under the conditions of the Creative Commons 
Attribution-Share Alike 3.0 Licence. This means you are free:
* to Share - to copy, distribute and transmit the work
* to Remix - to adapt the work

Under the following conditions:
* Attribution. You must attribute the work by stating your use of KanjiVG in
  your own copyright header and linking to KanjiVG's website
  (http://kanjivg.tagaini.net)
* Share Alike. If you alter, transform, or build upon this work, you may
  distribute the resulting work only under the same or similar license to this
  one.

See http://creativecommons.org/licenses/by-sa/3.0/ for more details.
-->
<!DOCTYPE svg PUBLIC "-//W3C//DTD SVG 1.0//EN" "http://www.w3.org/TR/2001/REC-SVG-20010904/DTD/svg10.dtd" [
<!ATTLIST g
xmlns:kvg CDATA #FIXED "http://kanjivg.tagaini.net"
kvg:element CDATA #IMPLIED
kvg:variant CDATA #IMPLIED
kvg:partial CDATA #IMPLIED
kvg:original CDATA #IMPLIED
kvg:part CDATA #IMPLIED
kvg:number CDATA #IMPLIED
kvg:tradForm CDATA #IMPLIED
kvg:radicalForm CDATA #IMPLIED
kvg:position CDATA #IMPLIED
kvg:radical CDATA #IMPLIED
kvg:phon CDATA #IMPLIED >
<!ATTLIST path
xmlns:kvg CDATA #FIXED "http://kanjivg.tagaini.net"
kvg:type CDATA #IMPLIED >
]>
<svg xmlns="http://www.w3.org/2000/svg" width="109" height="109" viewBox="0 0 109 109">
<g id="kvg:StrokePaths_080b2" style="fill:none;stroke:#000000;stroke-width:3;stroke-linecap:round;stroke-linejoin:round;">
<g id="kvg:080b2" kvg:element="育">
	<g id="kvg:080b2-g1" kvg:position="top">
		<g id="kvg:080b2-g2" kvg:element="亠" kvg:radical="nelson">
			<path id="kvg:080b2-s1" kvg:type="㇑a" d="M52.61,11.07c1.03,1.03,1.48,2.71,1.48,3.91c0,1.76,0.1,5.26,0.1,8.15"/>
			<path id="kvg:080b2-s2" kvg:type="㇐" d="M12.75,27.18c3.44,0.57,6.26,0.89,9.26,0.55c21.74-2.48,42.23-4.98,64.56-5.7c3.59-0.12,6,0.05,8.68,0.7"/>
		</g>
		<g id="kvg:080b2-g3" kvg:element="厶">
			<path id="kvg:080b2-s3" kvg:type="㇜" d="M49.66,27.5c0.09,1.25-0.03,2.5-0.91,3.5c-3.62,4.12-8.12,8.5-14,12.75c-2.28,1.65-1.26,4.6,2.25,3.75c8.25-2,23-5.5,35-8.75"/>
			<path id="kvg:080b2-s4" kvg:type="㇔" d="M65.25,32.38c4.59,2.4,11.85,9.88,13,13.62"/>
		</g>
	</g>
	<g id="kvg:080b2-g4" kvg:element="月" kvg:position="bottom" kvg:radical="tradit">
		<path id="kvg:080b2-s5" kvg:type="㇑/㇒" d="M39.24,53.98c0.96,0.95,1.51,2.15,1.51,4.07c0,5.7,0.26,24.4,0.24,35.45c0,2.8-0.01,4.66-0.03,4.94"/>
		<path id="kvg:080b2-s6" kvg:type="㇆a" d="M40.99,55.18c7.31-0.87,26.57-3.35,28.07-3.48c2.19-0.2,4.21,1.3,4.21,3.38c0,6.42-0.13,25.16-0.13,37.46c0,8.96-5.38,3.21-8.63-0.04"/>
		<path id="kvg:080b2-s7" kvg:type="㇐a" d="M42.01,67.02c8.62-0.91,22.46-2.03,30.03-2.48"/>
		<path id="kvg:080b2-s8" kvg:type="㇐a" d="M42.14,78.27c6.73-0.46,21.95-2.07,29.73-2.38"/>
	</g>
</g>
</g>
<g id="kvg:StrokeNumbers_080b2" style="font-size:8;fill:#808080">
	<text transform="matrix(1 0 0 1 44.50 11.50)">1</text>
	<text transform="matrix(1 0 0 1 5.50 28.63)">2</text>
	<text transform="matrix(1 0 0 1 36.75 35.50)">3</text>
	<text transform="matrix(1 0 0 1 58.50 33.50)">4</text>
	<text transform="matrix(1 0 0 1 33.75 62.86)">5</text>
	<text transform="matrix(1 0 0 1 47.50 52.50)">6</text>
	<text transform="matrix(1 0 0 1 44.50 64.63)">7</text>
	<text transform="matrix(1 0 0 1 44.50 75.13)">8</text>
</g>
</svg>
