<?xml version="1.0" encoding="UTF-8"?>
<!--
Copyright (C) 2009/2010/2011 Ulrich Apel.
This work is distributed under the conditions of the Creative Commons 
Attribution-Share Alike 3.0 Licence. This means you are free:
* to Share - to copy, distribute and transmit the work
* to Remix - to adapt the work

Under the following conditions:
* Attribution. You must attribute the work by stating your use of KanjiVG in
  your own copyright header and linking to KanjiVG's website
  (http://kanjivg.tagaini.net)
* Share Alike. If you alter, transform, or build upon this work, you may
  distribute the resulting work only under the same or similar license to this
  one.

See http://creativecommons.org/licenses/by-sa/3.0/ for more details.
-->
<!DOCTYPE svg PUBLIC "-//W3C//DTD SVG 1.0//EN" "http://www.w3.org/TR/2001/REC-SVG-20010904/DTD/svg10.dtd" [
<!ATTLIST g
xmlns:kvg CDATA #FIXED "http://kanjivg.tagaini.net"
kvg:element CDATA #IMPLIED
kvg:variant CDATA #IMPLIED
kvg:partial CDATA #IMPLIED
kvg:original CDATA #IMPLIED
kvg:part CDATA #IMPLIED
kvg:number CDATA #IMPLIED
kvg:tradForm CDATA #IMPLIED
kvg:radicalForm CDATA #IMPLIED
kvg:position CDATA #IMPLIED
kvg:radical CDATA #IMPLIED
kvg:phon CDATA #IMPLIED >
<!ATTLIST path
xmlns:kvg CDATA #FIXED "http://kanjivg.tagaini.net"
kvg:type CDATA #IMPLIED >
]>
<svg xmlns="http://www.w3.org/2000/svg" width="109" height="109" viewBox="0 0 109 109">
<g id="kvg:StrokePaths_080b2-Kaisho" style="fill:none;stroke:#000000;stroke-width:3;stroke-linecap:round;stroke-linejoin:round;">
<g id="kvg:080b2-Kaisho" kvg:element="育">
	<g id="kvg:080b2-Kaisho-g1" kvg:position="top">
		<g id="kvg:080b2-Kaisho-g2" kvg:element="亠" kvg:radical="nelson">
			<path id="kvg:080b2-Kaisho-s1" kvg:type="㇑a" d="M48.89,10.57c2.82,1.22,7.03,5.94,7.46,8.33"/>
			<path id="kvg:080b2-Kaisho-s2" kvg:type="㇐" d="M14,26.93c1.42,0.1,4.68,0.69,6.06,0.55c11.19-1.16,52.94-5.91,68.14-6.2c2.35-0.05,3.55,0.05,5.3,0.7"/>
		</g>
		<g id="kvg:080b2-Kaisho-g3" kvg:element="厶">
			<path id="kvg:080b2-Kaisho-s3" kvg:type="㇜" d="M49.66,28c0.57,0.38-0.47,3.1-0.91,3.5c-6,5.5-6.25,6.5-14,12.25c-2.26,1.68-1.26,4.6,2.25,3.75c8.25-2,23-5.5,35-8.75"/>
			<path id="kvg:080b2-Kaisho-s4" kvg:type="㇔" d="M65.75,32.5c4.5,2.34,11.63,9.61,12.75,13.25"/>
		</g>
	</g>
	<g id="kvg:080b2-Kaisho-g4" kvg:element="月" kvg:position="bottom" kvg:radical="tradit">
		<path id="kvg:080b2-Kaisho-s5" kvg:type="㇑/㇒" d="M38.99,54.23c0.63,0.61,1.05,1.21,1.26,1.82c0.21,0.61,0.3,40.78,0.21,42.14"/>
		<path id="kvg:080b2-Kaisho-s6" kvg:type="㇆a" d="M41.51,54.83c2.52-0.15,25.67-2.71,27.55-2.88c3.36-0.3,4.62,1.97,4.21,2.88c-0.4,0.88-0.63,25.91-0.63,38.21c0,8.96-4.13,2.46-8.13-0.04"/>
		<path id="kvg:080b2-Kaisho-s7" kvg:type="㇐a" d="M41.51,67.02c5.17-0.55,10.35-1.06,15.53-1.54c1.39-0.13,2.77-0.25,4.11-0.37"/>
		<path id="kvg:080b2-Kaisho-s8" kvg:type="㇐a" d="M42.14,78.52c6.12-0.41,12.22-0.98,18.34-1.44c0.68-0.05,1.36-0.1,2.02-0.15"/>
	</g>
</g>
</g>
<g id="kvg:StrokeNumbers_080b2-Kaisho" style="font-size:8;fill:#808080">
	<text transform="matrix(1 0 0 1 43.50 11.50)">1</text>
	<text transform="matrix(1 0 0 1 5.50 28.63)">2</text>
	<text transform="matrix(1 0 0 1 36.75 35.50)">3</text>
	<text transform="matrix(1 0 0 1 58.50 33.50)">4</text>
	<text transform="matrix(1 0 0 1 33.75 62.86)">5</text>
	<text transform="matrix(1 0 0 1 47.50 52.50)">6</text>
	<text transform="matrix(1 0 0 1 44.50 64.63)">7</text>
	<text transform="matrix(1 0 0 1 44.50 75.13)">8</text>
</g>
</svg>
