<?xml version="1.0" encoding="UTF-8"?>
<!--
Copyright (C) 2009/2010/2011 Ulrich Apel.
This work is distributed under the conditions of the Creative Commons 
Attribution-Share Alike 3.0 Licence. This means you are free:
* to Share - to copy, distribute and transmit the work
* to Remix - to adapt the work

Under the following conditions:
* Attribution. You must attribute the work by stating your use of KanjiVG in
  your own copyright header and linking to KanjiVG's website
  (http://kanjivg.tagaini.net)
* Share Alike. If you alter, transform, or build upon this work, you may
  distribute the resulting work only under the same or similar license to this
  one.

See http://creativecommons.org/licenses/by-sa/3.0/ for more details.
-->
<!DOCTYPE svg PUBLIC "-//W3C//DTD SVG 1.0//EN" "http://www.w3.org/TR/2001/REC-SVG-20010904/DTD/svg10.dtd" [
<!ATTLIST g
xmlns:kvg CDATA #FIXED "http://kanjivg.tagaini.net"
kvg:element CDATA #IMPLIED
kvg:variant CDATA #IMPLIED
kvg:partial CDATA #IMPLIED
kvg:original CDATA #IMPLIED
kvg:part CDATA #IMPLIED
kvg:number CDATA #IMPLIED
kvg:tradForm CDATA #IMPLIED
kvg:radicalForm CDATA #IMPLIED
kvg:position CDATA #IMPLIED
kvg:radical CDATA #IMPLIED
kvg:phon CDATA #IMPLIED >
<!ATTLIST path
xmlns:kvg CDATA #FIXED "http://kanjivg.tagaini.net"
kvg:type CDATA #IMPLIED >
]>
<svg xmlns="http://www.w3.org/2000/svg" width="109" height="109" viewBox="0 0 109 109">
<g id="kvg:StrokePaths_080db-Kaisho" style="fill:none;stroke:#000000;stroke-width:3;stroke-linecap:round;stroke-linejoin:round;">
<g id="kvg:080db-Kaisho" kvg:element="胛">
	<g id="kvg:080db-Kaisho-g1" kvg:element="月" kvg:variant="true" kvg:original="肉" kvg:position="left" kvg:radical="general">
		<path id="kvg:080db-Kaisho-s1" kvg:type="㇒" d="M19.22,19.99c0.52,0.95,0.88,1.88,1.05,2.8c0.17,0.92,0.15,25.9-0.41,33.63c-0.8,11-2.61,22.08-8.61,34.72"/>
		<path id="kvg:080db-Kaisho-s2" kvg:type="㇆a" d="M20.82,21.06c2.1-0.06,11.65-2.34,13.21-2.46c2.8-0.23,3.5,1.31,3.5,2.67c0,3.23-0.53,46.22-0.53,64.55c0,10.69-4.41,3.05-6.2,1.54"/>
		<path id="kvg:080db-Kaisho-s3" kvg:type="㇐a" d="M20.82,39.95c2.77-0.21,5.51-0.72,8.25-1.16c0.73-0.12,1.46-0.23,2.18-0.34"/>
		<path id="kvg:080db-Kaisho-s4" kvg:type="㇐a" d="M20.26,57.4c2.63-0.05,5.77-0.41,8.38-0.72c0.77-0.09,1.55-0.18,2.33-0.28"/>
	</g>
	<g id="kvg:080db-Kaisho-g2" kvg:element="甲" kvg:position="right">
		<g id="kvg:080db-Kaisho-g3" kvg:element="田" kvg:partial="true">
			<path id="kvg:080db-Kaisho-s5" kvg:type="㇑" d="M48.2,20.56c0.31,0.66,1.33,2.6,1.49,3.41c1.56,8.28,3.15,21.23,3.97,33.53"/>
			<path id="kvg:080db-Kaisho-s6" kvg:type="㇕" d="M49.67,22c12.02-1.52,31.07-4.11,39.34-4.77c3.04-0.24,4.86,1.17,4.75,3.94C93.52,27.76,91,51.25,89.8,55.3"/>
			<path id="kvg:080db-Kaisho-s7" kvg:type="㇐" d="M52.15,37.2c8.33-1.16,16.78-1.71,25.16-2.31c0.99-0.07,1.97-0.14,2.93-0.21"/>
			<path id="kvg:080db-Kaisho-s8" kvg:type="㇐" d="M53.74,53.88C65.75,53,78.96,51.46,90.4,50.83"/>
		</g>
		<g id="kvg:080db-Kaisho-g4" kvg:element="丨">
			<path id="kvg:080db-Kaisho-s9" kvg:type="㇑" d="M69.36,22.19c0.89,0.56,1.44,2.03,1.44,3.81c-0.03,8.98,0.3,66.54,0.3,69.47"/>
		</g>
	</g>
</g>
</g>
<g id="kvg:StrokeNumbers_080db-Kaisho" style="font-size:8;fill:#808080">
	<text transform="matrix(1 0 0 1 12.25 26.25)">1</text>
	<text transform="matrix(1 0 0 1 22.25 17.25)">2</text>
	<text transform="matrix(1 0 0 1 24.25 36.25)">3</text>
	<text transform="matrix(1 0 0 1 24.25 54.25)">4</text>
	<text transform="matrix(1 0 0 1 41.25 29.25)">5</text>
	<text transform="matrix(1 0 0 1 51.25 18.25)">6</text>
	<text transform="matrix(1 0 0 1 56.25 33.25)">7</text>
	<text transform="matrix(1 0 0 1 57.25 50.25)">8</text>
	<text transform="matrix(1 0 0 1 62.25 28.25)">9</text>
</g>
</svg>
