<?xml version="1.0" encoding="UTF-8"?>
<!--
Copyright (C) 2009/2010/2011 Ulrich Apel.
This work is distributed under the conditions of the Creative Commons 
Attribution-Share Alike 3.0 Licence. This means you are free:
* to Share - to copy, distribute and transmit the work
* to Remix - to adapt the work

Under the following conditions:
* Attribution. You must attribute the work by stating your use of KanjiVG in
  your own copyright header and linking to KanjiVG's website
  (http://kanjivg.tagaini.net)
* Share Alike. If you alter, transform, or build upon this work, you may
  distribute the resulting work only under the same or similar license to this
  one.

See http://creativecommons.org/licenses/by-sa/3.0/ for more details.
-->
<!DOCTYPE svg PUBLIC "-//W3C//DTD SVG 1.0//EN" "http://www.w3.org/TR/2001/REC-SVG-20010904/DTD/svg10.dtd" [
<!ATTLIST g
xmlns:kvg CDATA #FIXED "http://kanjivg.tagaini.net"
kvg:element CDATA #IMPLIED
kvg:variant CDATA #IMPLIED
kvg:partial CDATA #IMPLIED
kvg:original CDATA #IMPLIED
kvg:part CDATA #IMPLIED
kvg:number CDATA #IMPLIED
kvg:tradForm CDATA #IMPLIED
kvg:radicalForm CDATA #IMPLIED
kvg:position CDATA #IMPLIED
kvg:radical CDATA #IMPLIED
kvg:phon CDATA #IMPLIED >
<!ATTLIST path
xmlns:kvg CDATA #FIXED "http://kanjivg.tagaini.net"
kvg:type CDATA #IMPLIED >
]>
<svg xmlns="http://www.w3.org/2000/svg" width="109" height="109" viewBox="0 0 109 109">
<g id="kvg:StrokePaths_080e4" style="fill:none;stroke:#000000;stroke-width:3;stroke-linecap:round;stroke-linejoin:round;">
<g id="kvg:080e4" kvg:element="胤">
	<g id="kvg:080e4-g1" kvg:element="儿" kvg:part="1" kvg:position="kamae">
		<g id="kvg:080e4-g2" kvg:element="丿" kvg:radical="nelson">
			<path id="kvg:080e4-s1" kvg:type="㇒" d="M25.96,18.5c1.08,1.08,1.18,2.5,1.18,4.52c0,24.2,2.36,56.73-14.09,73.2"/>
		</g>
	</g>
	<g id="kvg:080e4-g3" kvg:element="幺" kvg:position="top">
		<path id="kvg:080e4-s2" kvg:type="㇜" d="M53.29,11.37c0.28,1.04-0.03,2.07-0.64,3.2c-2.19,4.06-6.41,10.08-9.38,13.68c-0.86,1.04-1.82,2.5-0.03,3.18c3.13,1.18,5.29,2.18,7.88,3.83"/>
		<path id="kvg:080e4-s3" kvg:type="㇜" d="M64.14,19.49c0.31,0.46,0.11,2.18-0.26,2.73c-4.24,6.37-12.85,15.28-20.04,22.63c-1.82,1.87-2.48,3.57,0.81,2.93c6.86-1.33,15.89-3.81,22.1-4.97"/>
		<path id="kvg:080e4-s4" kvg:type="㇔" d="M63.91,37.19c2.63,2.05,6.79,8.44,7.45,11.63"/>
	</g>
	<g id="kvg:080e4-g4" kvg:element="月" kvg:position="bottom" kvg:radical="tradit">
		<path id="kvg:080e4-s5" kvg:type="㇒" d="M42.21,55.43c0.75,0.75,0.82,1.7,0.82,2.83c0,0.4-0.01,19.26-0.01,29.52c0,3.61-0.01,6.16-0.02,6.47"/>
		<path id="kvg:080e4-s6" kvg:type="㇆a" d="M43.85,57.48c1.64-0.13,16.81-2.46,18.03-2.61c2.19-0.26,2.99,1.15,2.99,2.75c0,0.8,0.01,22.8,0.01,33.47c0,6.85-4.29,1.87-5.66,0.68"/>
		<path id="kvg:080e4-s7" kvg:type="㇐a" d="M44.35,67.87c5.27-0.62,14.36-1.56,18.98-1.87"/>
		<path id="kvg:080e4-s8" kvg:type="㇐a" d="M44.26,78.02c4.39-0.4,14.48-1.58,19.55-1.84"/>
	</g>
	<g id="kvg:080e4-g5" kvg:element="儿" kvg:part="2" kvg:position="kamae">
		<g id="kvg:080e4-g6" kvg:element="乙" kvg:variant="true">
			<path id="kvg:080e4-s9" kvg:type="㇂" d="M79,13.5c1,1.25,1.33,2.74,1.27,4.69C79,56.75,79.75,78.75,90.42,92.87c3.03,4,3.94,1.38,3.63-6.3"/>
		</g>
	</g>
</g>
</g>
<g id="kvg:StrokeNumbers_080e4" style="font-size:8;fill:#808080">
	<text transform="matrix(1 0 0 1 17.25 20.25)">1</text>
	<text transform="matrix(1 0 0 1 45.25 11.25)">2</text>
	<text transform="matrix(1 0 0 1 60.25 16.25)">3</text>
	<text transform="matrix(1 0 0 1 65.25 36.25)">4</text>
	<text transform="matrix(1 0 0 1 35.25 62.25)">5</text>
	<text transform="matrix(1 0 0 1 47.25 54.00)">6</text>
	<text transform="matrix(1 0 0 1 47.30 65.43)">7</text>
	<text transform="matrix(1 0 0 1 47.27 75.85)">8</text>
	<text transform="matrix(1 0 0 1 72.25 10.25)">9</text>
</g>
</svg>
