<?xml version="1.0" encoding="UTF-8"?>
<!--
Copyright (C) 2009/2010/2011 Ulrich Apel.
This work is distributed under the conditions of the Creative Commons 
Attribution-Share Alike 3.0 Licence. This means you are free:
* to Share - to copy, distribute and transmit the work
* to Remix - to adapt the work

Under the following conditions:
* Attribution. You must attribute the work by stating your use of KanjiVG in
  your own copyright header and linking to KanjiVG's website
  (http://kanjivg.tagaini.net)
* Share Alike. If you alter, transform, or build upon this work, you may
  distribute the resulting work only under the same or similar license to this
  one.

See http://creativecommons.org/licenses/by-sa/3.0/ for more details.
-->
<!DOCTYPE svg PUBLIC "-//W3C//DTD SVG 1.0//EN" "http://www.w3.org/TR/2001/REC-SVG-20010904/DTD/svg10.dtd" [
<!ATTLIST g
xmlns:kvg CDATA #FIXED "http://kanjivg.tagaini.net"
kvg:element CDATA #IMPLIED
kvg:variant CDATA #IMPLIED
kvg:partial CDATA #IMPLIED
kvg:original CDATA #IMPLIED
kvg:part CDATA #IMPLIED
kvg:number CDATA #IMPLIED
kvg:tradForm CDATA #IMPLIED
kvg:radicalForm CDATA #IMPLIED
kvg:position CDATA #IMPLIED
kvg:radical CDATA #IMPLIED
kvg:phon CDATA #IMPLIED >
<!ATTLIST path
xmlns:kvg CDATA #FIXED "http://kanjivg.tagaini.net"
kvg:type CDATA #IMPLIED >
]>
<svg xmlns="http://www.w3.org/2000/svg" width="109" height="109" viewBox="0 0 109 109">
<g id="kvg:StrokePaths_08108-Kaisho" style="fill:none;stroke:#000000;stroke-width:3;stroke-linecap:round;stroke-linejoin:round;">
<g id="kvg:08108-Kaisho" kvg:element="脈">
	<g id="kvg:08108-Kaisho-g1" kvg:element="月" kvg:variant="true" kvg:original="肉" kvg:position="left" kvg:radical="general">
		<path id="kvg:08108-Kaisho-s1" kvg:type="㇒" d="M15.75,20.25c0.75,1,1.25,2,1.5,3S17.1,53.25,17,55.5c-0.5,10.75-0.5,26-7.25,36.75"/>
		<path id="kvg:08108-Kaisho-s2" kvg:type="㇆a" d="M18.75,22.25c3-0.25,11.07-2.2,13.25-2.75c2-0.5,3.08,0.67,3,2.25c-0.25,5-0.25,43.25-0.25,63.5c0,13-6,4.5-8.5,2.25"/>
		<path id="kvg:08108-Kaisho-s3" kvg:type="㇐a" d="M18.75,41.5c2.24-0.3,5-0.53,7.25-0.75c0.64-0.06,1.3-0.12,1.97-0.19"/>
		<path id="kvg:08108-Kaisho-s4" kvg:type="㇐a" d="M19,59.25c2.35-0.24,4.69-0.55,7.03-0.84c0.57-0.07,1.14-0.14,1.72-0.2"/>
	</g>
	<g id="kvg:08108-Kaisho-g2" kvg:position="right">
		<path id="kvg:08108-Kaisho-s5" kvg:type="㇒" d="M70.82,13c0.05,0.51,0.23,1.48-0.1,2.04c-4.47,7.46-9.22,12.71-19.22,19.5"/>
		<g id="kvg:08108-Kaisho-g3" kvg:element="丿">
			<path id="kvg:08108-Kaisho-s6" kvg:type="㇒" d="M49.24,33.78c0.38,1.57,0.92,2.8,0.92,4.76c0,17.91,1.55,43.73-11.35,52.95"/>
		</g>
		<g id="kvg:08108-Kaisho-g4" kvg:element="亻" kvg:variant="true" kvg:original="人">
			<path id="kvg:08108-Kaisho-s7" kvg:type="㇒" d="M80.84,26.75c0.04,0.35,0.19,1.03-0.08,1.42c-3.6,5.21-7.44,8.88-15.51,13.62"/>
			<path id="kvg:08108-Kaisho-s8" kvg:type="㇑" d="M61.87,41.25c1.09,0.5,1.74,2.25,1.96,3.25c0.22,1,0,43.25-0.22,49.5"/>
		</g>
		<path id="kvg:08108-Kaisho-s9" kvg:type="㇒" d="M87.36,42c0.03,0.28,0.14,0.81-0.06,1.12c-2.74,4.08-5.66,6.96-11.79,10.68"/>
		<path id="kvg:08108-Kaisho-s10" kvg:type="㇏" d="M71.25,45.75c4.5,11.75,15,32,21.93,39.17c1.61,1.66,2.32,2.78,3.57,3.33"/>
	</g>
</g>
</g>
<g id="kvg:StrokeNumbers_08108-Kaisho" style="font-size:8;fill:#808080">
	<text transform="matrix(1 0 0 1 9.49 28.63)">1</text>
	<text transform="matrix(1 0 0 1 18.75 18.13)">2</text>
	<text transform="matrix(1 0 0 1 23.25 37.63)">3</text>
	<text transform="matrix(1 0 0 1 23.25 54.13)">4</text>
	<text transform="matrix(1 0 0 1 62.25 12.13)">5</text>
	<text transform="matrix(1 0 0 1 42.49 44.76)">6</text>
	<text transform="matrix(1 0 0 1 74.25 28.63)">7</text>
	<text transform="matrix(1 0 0 1 56.25 51.13)">8</text>
	<text transform="matrix(1 0 0 1 78.75 43.63)">9</text>
	<text transform="matrix(1 0 0 1 68.25 63.13)">10</text>
</g>
</svg>
