<?xml version="1.0" encoding="UTF-8"?>
<!--
Copyright (C) 2009/2010/2011 Ulrich Apel.
This work is distributed under the conditions of the Creative Commons 
Attribution-Share Alike 3.0 Licence. This means you are free:
* to Share - to copy, distribute and transmit the work
* to Remix - to adapt the work

Under the following conditions:
* Attribution. You must attribute the work by stating your use of KanjiVG in
  your own copyright header and linking to KanjiVG's website
  (http://kanjivg.tagaini.net)
* Share Alike. If you alter, transform, or build upon this work, you may
  distribute the resulting work only under the same or similar license to this
  one.

See http://creativecommons.org/licenses/by-sa/3.0/ for more details.
-->
<!DOCTYPE svg PUBLIC "-//W3C//DTD SVG 1.0//EN" "http://www.w3.org/TR/2001/REC-SVG-20010904/DTD/svg10.dtd" [
<!ATTLIST g
xmlns:kvg CDATA #FIXED "http://kanjivg.tagaini.net"
kvg:element CDATA #IMPLIED
kvg:variant CDATA #IMPLIED
kvg:partial CDATA #IMPLIED
kvg:original CDATA #IMPLIED
kvg:part CDATA #IMPLIED
kvg:number CDATA #IMPLIED
kvg:tradForm CDATA #IMPLIED
kvg:radicalForm CDATA #IMPLIED
kvg:position CDATA #IMPLIED
kvg:radical CDATA #IMPLIED
kvg:phon CDATA #IMPLIED >
<!ATTLIST path
xmlns:kvg CDATA #FIXED "http://kanjivg.tagaini.net"
kvg:type CDATA #IMPLIED >
]>
<svg xmlns="http://www.w3.org/2000/svg" width="109" height="109" viewBox="0 0 109 109">
<g id="kvg:StrokePaths_0811b-Kaisho" style="fill:none;stroke:#000000;stroke-width:3;stroke-linecap:round;stroke-linejoin:round;">
<g id="kvg:0811b-Kaisho" kvg:element="脛">
	<g id="kvg:0811b-Kaisho-g1" kvg:element="月" kvg:variant="true" kvg:original="肉" kvg:position="left" kvg:radical="general">
		<path id="kvg:0811b-Kaisho-s1" kvg:type="㇒" d="M17.92,19.75c0.48,0.96,1.5,2.25,1.5,4.33c0,2.92,0.02,24.83-0.5,32.67c-0.73,11.15-1.5,22.07-8.42,34.89"/>
		<path id="kvg:0811b-Kaisho-s2" kvg:type="㇆a" d="M19.25,20.42c2.04-0.06,13.37-2.94,14.89-3.07c2.72-0.23,3.4,1.3,3.4,2.66c0,3.22-0.29,45.64-0.29,63.91c0,12.57-5.1,5.67-6.83,4.17"/>
		<path id="kvg:0811b-Kaisho-s3" kvg:type="㇐a" d="M20.08,39.42c2.83-0.13,5.65-0.5,8.46-0.82c0.76-0.09,1.52-0.17,2.26-0.25"/>
		<path id="kvg:0811b-Kaisho-s4" kvg:type="㇐a" d="M19.75,57.92c2.5-0.05,6-0.35,8.48-0.62c0.72-0.08,1.44-0.16,2.17-0.24"/>
	</g>
	<g id="kvg:0811b-Kaisho-g2" kvg:position="right">
		<g id="kvg:0811b-Kaisho-g3" kvg:element="一">
			<path id="kvg:0811b-Kaisho-s5" kvg:type="㇐" d="M45.92,19.08c1.83,0.42,4,0.73,5.17,0.67c8.5-0.46,25.67-1.75,36.33-2.5c1.94-0.14,5.03,0.29,6,0.5"/>
		</g>
		<g id="kvg:0811b-Kaisho-g4" kvg:element="巛">
			<path id="kvg:0811b-Kaisho-s6" kvg:type="㇛" d="M54.08,26.92c0.25,0.98,0.17,2.19-0.17,3c-1.99,4.81-3.45,5.77-7.38,10.9c-0.76,0.99-0.36,0.97,0,1.28c4.07,3.49,6.32,5.96,9.22,11.99"/>
			<path id="kvg:0811b-Kaisho-s7" kvg:type="㇛" d="M72.25,24.75c0.45,0.9,0.25,2.09-0.17,2.83c-2.23,4.01-5.22,6.81-9.41,11.49c-0.46,0.51-0.25,1.06,0.16,1.35c5,3.62,7.41,7.82,9.25,13.15"/>
			<path id="kvg:0811b-Kaisho-s8" kvg:type="㇛" d="M88.58,23.42c0.41,0.68,0.52,1.97,0.17,2.67c-1.87,3.66-5.1,7.85-8.64,12.36c-0.39,0.5-0.2,0.93,0.15,1.25c4.54,4.12,7.13,6.71,9.49,13.23"/>
		</g>
		<g id="kvg:0811b-Kaisho-g5" kvg:element="工">
			<path id="kvg:0811b-Kaisho-s9" kvg:type="㇐" d="M48.92,63.08c0.69,0.27,5.97,0.58,6.67,0.5c3.25-0.37,24.86-2.38,30.33-2.67c1.07-0.05,4.12,0.44,5,0.67"/>
			<path id="kvg:0811b-Kaisho-s10" kvg:type="㇑a" d="M68.61,63.4c1,1,1.15,2.53,1.15,3.79c0,8.84-0.05,6.74-0.05,21.9"/>
			<path id="kvg:0811b-Kaisho-s11" kvg:type="㇐" d="M45.08,90.25c0.71,0.4,3.95,0.62,5.17,0.5c10-1,28.65-1.91,40.5-2.5c1.94-0.1,5.86,0.71,6.83,1.33"/>
		</g>
	</g>
</g>
</g>
<g id="kvg:StrokeNumbers_0811b-Kaisho" style="font-size:8;fill:#808080">
	<text transform="matrix(1 0 0 1 11.25 26.25)">1</text>
	<text transform="matrix(1 0 0 1 20.25 17.25)">2</text>
	<text transform="matrix(1 0 0 1 23.25 36.25)">3</text>
	<text transform="matrix(1 0 0 1 23.25 54.25)">4</text>
	<text transform="matrix(1 0 0 1 44.25 16.25)">5</text>
	<text transform="matrix(1 0 0 1 45.25 30.25)">6</text>
	<text transform="matrix(1 0 0 1 63.25 28.25)">7</text>
	<text transform="matrix(1 0 0 1 79.25 27.25)">8</text>
	<text transform="matrix(1 0 0 1 42.25 64.25)">9</text>
	<text transform="matrix(1 0 0 1 59.25 72.25)">10</text>
	<text transform="matrix(1 0 0 1 42.25 87.25)">11</text>
</g>
</svg>
