<?xml version="1.0" encoding="UTF-8"?>
<!--
Copyright (C) 2009/2010/2011 Ulrich Apel.
This work is distributed under the conditions of the Creative Commons
Attribution-Share Alike 3.0 Licence. This means you are free:
* to Share - to copy, distribute and transmit the work
* to Remix - to adapt the work

Under the following conditions:
* Attribution. You must attribute the work by stating your use of KanjiVG in
  your own copyright header and linking to KanjiVG's website
  (http://kanjivg.tagaini.net)
* Share Alike. If you alter, transform, or build upon this work, you may
  distribute the resulting work only under the same or similar license to this
  one.

See http://creativecommons.org/licenses/by-sa/3.0/ for more details.
-->
<!DOCTYPE svg PUBLIC "-//W3C//DTD SVG 1.0//EN" "http://www.w3.org/TR/2001/REC-SVG-20010904/DTD/svg10.dtd" [
<!ATTLIST g
xmlns:kvg CDATA #FIXED "http://kanjivg.tagaini.net"
kvg:element CDATA #IMPLIED
kvg:variant CDATA #IMPLIED
kvg:partial CDATA #IMPLIED
kvg:original CDATA #IMPLIED
kvg:part CDATA #IMPLIED
kvg:number CDATA #IMPLIED
kvg:tradForm CDATA #IMPLIED
kvg:radicalForm CDATA #IMPLIED
kvg:position CDATA #IMPLIED
kvg:radical CDATA #IMPLIED
kvg:phon CDATA #IMPLIED >
<!ATTLIST path
xmlns:kvg CDATA #FIXED "http://kanjivg.tagaini.net"
kvg:type CDATA #IMPLIED >
]>
<svg xmlns="http://www.w3.org/2000/svg" width="109" height="109" viewBox="0 0 109 109" xmlns:kvg="https://kanjivg.tagaini.net/">
<g id="kvg:StrokePaths_0812b" style="fill:none;stroke:#000000;stroke-width:3;stroke-linecap:round;stroke-linejoin:round;">
<g id="kvg:0812b" kvg:element="脫">
	<g id="kvg:0812b-g1" kvg:element="月" kvg:variant="true" kvg:original="肉" kvg:position="left" kvg:radical="general">
		<path id="kvg:0812b-s1" kvg:type="㇓" d="M19.57,20.01c0.84,0.84,1.02,1.89,1.03,2.84C21,49,21.38,78.12,11.5,92.87"/>
		<path id="kvg:0812b-s2" kvg:type="㇆a" d="M21.38,21.34c2.68-0.42,10.69-1.84,13.48-2.17c2.91-0.35,4.19,0.74,4.17,3.57c-0.05,7.04-0.01,44.73-0.01,62.22c0,11.37-5.8,3.6-7.56,2.07"/>
		<path id="kvg:0812b-s3" kvg:type="㇐a" d="M21.88,41.98c4.21-0.41,11.92-1.79,15.62-1.82"/>
		<path id="kvg:0812b-s4" kvg:type="㇐a" d="M20.88,60.23c5.62-0.8,11.82-1.49,16.93-1.98"/>
	</g>
	<g id="kvg:0812b-g2" kvg:element="兌" kvg:position="right">
		<g id="kvg:0812b-g3" kvg:element="八" kvg:position="top">
			<g id="kvg:0812b-g4" kvg:position="left">
				<path id="kvg:0812b-s5" kvg:type="㇒" d="M62.27,17.48c0.04,0.42,0.07,1.09-0.07,1.7c-0.86,3.6-4.57,9.85-11.18,16.31"/>
			</g>
			<g id="kvg:0812b-g5" kvg:position="right">
				<path id="kvg:0812b-s6" kvg:type="㇔" d="M70.97,12.39c2.02,0.22,16.82,17.8,19.21,20.1c0.99,0.96,1.84,1.37,2.83,1.64"/>
			</g>
		</g>
		<g id="kvg:0812b-g6" kvg:element="兄" kvg:position="bottom">
			<g id="kvg:0812b-g7" kvg:element="口" kvg:position="top">
				<path id="kvg:0812b-s7" kvg:type="㇑" d="M55.55,38.52c0.32,0.63,0.68,1.06,0.8,1.54c0.79,3.54,1.28,13.14,1.46,20.52"/>
				<path id="kvg:0812b-s8" kvg:type="㇕b" d="M56.45,40.44c5.64-1.21,21.72-2.3,25.74-3.14c1.38-0.28,2.64,1.47,2.38,3.24c-0.67,4.49-2.29,10.99-3.2,16.78"/>
				<path id="kvg:0812b-s9" kvg:type="㇐b" d="M58.43,59c4.17-0.37,18.6-1.08,24.36-1.69"/>
			</g>
			<g id="kvg:0812b-g8" kvg:element="儿" kvg:original="八" kvg:position="bottom">
				<g id="kvg:0812b-g9" kvg:element="丿">
					<path id="kvg:0812b-s10" kvg:type="㇒" d="M63.78,62.68c0.06,0.72,0.11,1.88-0.1,2.91C62.38,71.75,57.4,86.67,44.81,93.51"/>
				</g>
				<path id="kvg:0812b-s11" kvg:type="㇟" d="M73.57,60.52c0.51,0.65,0.8,1.78,0.82,3.56c0.07,4.89-0.24,11.49-0.24,17.55c0,10.36,1.09,11.43,10.52,11.43c10.93,0,11.09-1.99,11.09-8.8"/>
			</g>
		</g>
	</g>
</g>
</g>
<g id="kvg:StrokeNumbers_0812b" style="font-size:8;fill:#808080">
	<text transform="matrix(1 0 0 1 11.25 28.63)">1</text>
	<text transform="matrix(1 0 0 1 21.75 16.63)">2</text>
	<text transform="matrix(1 0 0 1 24.75 37.55)">3</text>
	<text transform="matrix(1 0 0 1 24.75 55.48)">4</text>
	<text transform="matrix(1 0 0 1 53.88 16.79)">5</text>
	<text transform="matrix(1 0 0 1 75.45 13.86)">6</text>
	<text transform="matrix(1 0 0 1 50.13 46.11)">7</text>
	<text transform="matrix(1 0 0 1 58.57 36.34)">8</text>
	<text transform="matrix(1 0 0 1 59.51 55.88)">9</text>
	<text transform="matrix(1 0 0 1 51.94 68.64)">10</text>
	<text transform="matrix(1 0 0 1 76.51 66.48)">11</text>
</g>
</svg>
