<?xml version="1.0" encoding="UTF-8"?>
<!--
Copyright (C) 2009/2010/2011 Ulrich Apel.
This work is distributed under the conditions of the Creative Commons 
Attribution-Share Alike 3.0 Licence. This means you are free:
* to Share - to copy, distribute and transmit the work
* to Remix - to adapt the work

Under the following conditions:
* Attribution. You must attribute the work by stating your use of KanjiVG in
  your own copyright header and linking to KanjiVG's website
  (http://kanjivg.tagaini.net)
* Share Alike. If you alter, transform, or build upon this work, you may
  distribute the resulting work only under the same or similar license to this
  one.

See http://creativecommons.org/licenses/by-sa/3.0/ for more details.
-->
<!DOCTYPE svg PUBLIC "-//W3C//DTD SVG 1.0//EN" "http://www.w3.org/TR/2001/REC-SVG-20010904/DTD/svg10.dtd" [
<!ATTLIST g
xmlns:kvg CDATA #FIXED "http://kanjivg.tagaini.net"
kvg:element CDATA #IMPLIED
kvg:variant CDATA #IMPLIED
kvg:partial CDATA #IMPLIED
kvg:original CDATA #IMPLIED
kvg:part CDATA #IMPLIED
kvg:number CDATA #IMPLIED
kvg:tradForm CDATA #IMPLIED
kvg:radicalForm CDATA #IMPLIED
kvg:position CDATA #IMPLIED
kvg:radical CDATA #IMPLIED
kvg:phon CDATA #IMPLIED >
<!ATTLIST path
xmlns:kvg CDATA #FIXED "http://kanjivg.tagaini.net"
kvg:type CDATA #IMPLIED >
]>
<svg xmlns="http://www.w3.org/2000/svg" width="109" height="109" viewBox="0 0 109 109">
<g id="kvg:StrokePaths_081cd-Kaisho" style="fill:none;stroke:#000000;stroke-width:3;stroke-linecap:round;stroke-linejoin:round;">
<g id="kvg:081cd-Kaisho" kvg:element="臍">
	<g id="kvg:081cd-Kaisho-g1" kvg:element="月" kvg:variant="true" kvg:original="肉" kvg:position="left" kvg:radical="general">
		<path id="kvg:081cd-Kaisho-s1" kvg:type="㇒" d="M17.75,19.75c0.55,0.99,0.98,3.04,1.17,4c0.18,0.97,0.34,23.52-0.25,31.63C17.83,66.92,16.5,79.5,9.08,93.31"/>
		<path id="kvg:081cd-Kaisho-s2" kvg:type="㇆a" d="M19.92,21.25c1.76-0.06,11.05-2.36,12.36-2.49c2.34-0.22,2.93,1.29,2.93,2.62c0,3.18-0.44,45.48-0.44,63.53c0,12.41-4.69,5.99-6.18,4.5"/>
		<path id="kvg:081cd-Kaisho-s3" kvg:type="㇐a" d="M19.99,41.07c2.5-0.16,4.99-0.52,7.47-0.82c0.68-0.08,1.36-0.17,2.02-0.24"/>
		<path id="kvg:081cd-Kaisho-s4" kvg:type="㇐a" d="M19.43,59.79c2.27-0.05,4.54-0.28,6.8-0.49c0.66-0.06,1.33-0.13,2-0.19"/>
	</g>
	<g id="kvg:081cd-Kaisho-g2" kvg:element="齊" kvg:position="right">
		<g id="kvg:081cd-Kaisho-g3" kvg:element="亠" kvg:position="top">
			<path id="kvg:081cd-Kaisho-s5" kvg:type="㇑a" d="M64.41,10.25c1.26,1.12,3.34,4.5,4.34,7.03"/>
			<path id="kvg:081cd-Kaisho-s6" kvg:type="㇐" d="M42.42,22.58c2.08,0.92,3.96,0.96,5.33,0.83c10.25-0.92,32-2.67,43-3.17c1.4-0.06,3.29,0.27,4.33,0.67"/>
		</g>
		<g id="kvg:081cd-Kaisho-g4" kvg:position="bottom">
			<path id="kvg:081cd-Kaisho-s7" kvg:type="㇔" d="M58.57,24.83c2.07,1.29,5.34,5.3,5.86,7.3"/>
			<path id="kvg:081cd-Kaisho-s8" kvg:type="㇒" d="M74.01,24.23c0.02,0.22,0.04,0.57-0.04,0.89c-0.42,1.88-2.79,6-6.05,8.52"/>
			<path id="kvg:081cd-Kaisho-s9" kvg:type="㇑" d="M65.58,35.92c0.36,0.33,1.84,1.39,1.87,2.48c0.15,5.26-0.01,11.81-0.01,13.6"/>
			<g id="kvg:081cd-Kaisho-g5" kvg:element="刀">
				<path id="kvg:081cd-Kaisho-s10" kvg:type="㇆" d="M41.42,33.92c0.41,0.21,2.08,0.73,2.44,0.65c2.94-0.6,12.45-1.69,14.07-1.91c1.06-0.14,1.41,0.65,1.29,1.65c-0.61,5.54-1.88,11.04-3.74,15.25c-0.98,2.21-3.02,1.24-3.73-0.48"/>
				<path id="kvg:081cd-Kaisho-s11" kvg:type="㇒" d="M49.25,35.27c0.02,0.35,0.05,0.9-0.04,1.39c-0.73,3.68-3.8,8.87-7.73,13.34"/>
			</g>
			<path id="kvg:081cd-Kaisho-s12" kvg:type="㇒" d="M88.54,24.14c0.02,0.18,0.05,0.47-0.04,0.72c-0.55,1.52-4.22,5.26-8.56,7.31"/>
			<path id="kvg:081cd-Kaisho-s13" kvg:type="㇙" d="M75.92,32.42c0.31,0.46,1.62,0.85,1.62,1.54c0,0.69-0.08,10.42-0.08,11.5s0.08,1.38,1.08,0.61c1-0.77,6.26-4.19,6.88-4.65"/>
			<path id="kvg:081cd-Kaisho-s14" kvg:type="㇏" d="M83.8,31.78c1.91,3.99,5.32,9.7,9.88,13.93c1.1,1.02,2.62,1.69,4.06,2.29"/>
			<path id="kvg:081cd-Kaisho-s15" kvg:type="㇒" d="M50.83,54.57c0.83,0.56,1.13,1.99,1.13,2.6c0,3.3-0.16,13.9-0.25,15.17c-0.55,7.26-2.66,17.13-10.89,23.29"/>
			<g id="kvg:081cd-Kaisho-g6" kvg:element="二">
				<path id="kvg:081cd-Kaisho-s16" kvg:type="㇐" d="M59.15,60.78c0.74-0.04,1.53-0.08,2.34-0.12c5.23-0.27,10.46-0.52,15.68-0.77c0.79-0.04,1.55-0.07,2.26-0.11"/>
				<path id="kvg:081cd-Kaisho-s17" kvg:type="㇐" d="M59.06,72.13c0.69-0.04,1.42-0.08,2.19-0.12c5.03-0.27,10.05-0.55,15.08-0.82c0.79-0.04,1.55-0.08,2.27-0.12"/>
			</g>
			<path id="kvg:081cd-Kaisho-s18" kvg:type="㇑" d="M83.5,51c1,1,1.92,3,1.92,4.08c0,4.27-0.02,38.91-0.07,41.98"/>
		</g>
	</g>
</g>
</g>
<g id="kvg:StrokeNumbers_081cd-Kaisho" style="font-size:8;fill:#808080">
	<text transform="matrix(1 0 0 1 9.00 25.25)">1</text>
	<text transform="matrix(1 0 0 1 19.25 17.25)">2</text>
	<text transform="matrix(1 0 0 1 22.25 37.25)">3</text>
	<text transform="matrix(1 0 0 1 22.25 56.25)">4</text>
	<text transform="matrix(1 0 0 1 57.00 10.25)">5</text>
	<text transform="matrix(1 0 0 1 44.00 19.75)">6</text>
	<text transform="matrix(1 0 0 1 53.25 30.25)">7</text>
	<text transform="matrix(1 0 0 1 66.25 29.10)">8</text>
	<text transform="matrix(1 0 0 1 61.25 44.25)">9</text>
	<text transform="matrix(1 0 0 1 39.25 31.25)">10</text>
	<text transform="matrix(1 0 0 1 39.25 42.25)">11</text>
	<text transform="matrix(1 0 0 1 77.25 27.80)">12</text>
	<text transform="matrix(1 0 0 1 69.25 40.25)">13</text>
	<text transform="matrix(1 0 0 1 79.25 40.65)">14</text>
	<text transform="matrix(1 0 0 1 41.25 62.25)">15</text>
	<text transform="matrix(1 0 0 1 55.25 58.25)">16</text>
	<text transform="matrix(1 0 0 1 56.25 69.25)">17</text>
	<text transform="matrix(1 0 0 1 73.25 56.25)">18</text>
</g>
</svg>
