<?xml version="1.0" encoding="UTF-8"?>
<!--
Copyright (C) 2009/2010/2011 Ulrich Apel.
This work is distributed under the conditions of the Creative Commons 
Attribution-Share Alike 3.0 Licence. This means you are free:
* to Share - to copy, distribute and transmit the work
* to Remix - to adapt the work

Under the following conditions:
* Attribution. You must attribute the work by stating your use of KanjiVG in
  your own copyright header and linking to KanjiVG's website
  (http://kanjivg.tagaini.net)
* Share Alike. If you alter, transform, or build upon this work, you may
  distribute the resulting work only under the same or similar license to this
  one.

See http://creativecommons.org/licenses/by-sa/3.0/ for more details.
-->
<!DOCTYPE svg PUBLIC "-//W3C//DTD SVG 1.0//EN" "http://www.w3.org/TR/2001/REC-SVG-20010904/DTD/svg10.dtd" [
<!ATTLIST g
xmlns:kvg CDATA #FIXED "http://kanjivg.tagaini.net"
kvg:element CDATA #IMPLIED
kvg:variant CDATA #IMPLIED
kvg:partial CDATA #IMPLIED
kvg:original CDATA #IMPLIED
kvg:part CDATA #IMPLIED
kvg:number CDATA #IMPLIED
kvg:tradForm CDATA #IMPLIED
kvg:radicalForm CDATA #IMPLIED
kvg:position CDATA #IMPLIED
kvg:radical CDATA #IMPLIED
kvg:phon CDATA #IMPLIED >
<!ATTLIST path
xmlns:kvg CDATA #FIXED "http://kanjivg.tagaini.net"
kvg:type CDATA #IMPLIED >
]>
<svg xmlns="http://www.w3.org/2000/svg" width="109" height="109" viewBox="0 0 109 109">
<g id="kvg:StrokePaths_081ea" style="fill:none;stroke:#000000;stroke-width:3;stroke-linecap:round;stroke-linejoin:round;">
<g id="kvg:081ea" kvg:element="自" kvg:radical="general">
	<path id="kvg:081ea-s1" kvg:type="㇒" d="M50.44,12.42c0.31,1.42,0.34,2.13-0.24,3.9c-1.45,4.43-3.45,7.55-7.56,13.43"/>
	<g id="kvg:081ea-g1" kvg:element="目">
		<path id="kvg:081ea-s2" kvg:type="㇑" d="M27.5,31.73c0.8,1.43,1.48,2.99,1.48,4.89c0,1.9-0.29,53.82-0.29,54.78c0,0.95,0.04,2.85,0.04,4.85"/>
		<path id="kvg:081ea-s3" kvg:type="㇕a" d="M29.77,33.17c11.61-1.29,37.98-4.04,43.35-4.67c4.85-0.57,6.38,1,6.38,4.59c0,2.04-0.69,33.61-0.82,55.16c-0.01,2.4-0.02,4.68-0.02,6.78"/>
		<path id="kvg:081ea-s4" kvg:type="㇐a" d="M30.23,51.23c11.14-1.1,37.27-3.48,47.79-3.77"/>
		<path id="kvg:081ea-s5" kvg:type="㇐a" d="M30.11,70.17C44.5,68.75,62,67.25,77.74,66.31"/>
		<path id="kvg:081ea-s6" kvg:type="㇐a" d="M29.79,91.57c12.59-0.69,34.84-2.32,47.46-3.13"/>
	</g>
</g>
</g>
<g id="kvg:StrokeNumbers_081ea" style="font-size:8;fill:#808080">
	<text transform="matrix(1 0 0 1 41.25 11.63)">1</text>
	<text transform="matrix(1 0 0 1 20.50 39.50)">2</text>
	<text transform="matrix(1 0 0 1 31.50 29.50)">3</text>
	<text transform="matrix(1 0 0 1 34.50 47.50)">4</text>
	<text transform="matrix(1 0 0 1 34.50 66.13)">5</text>
	<text transform="matrix(1 0 0 1 34.50 88.50)">6</text>
</g>
</svg>
