<?xml version="1.0" encoding="UTF-8"?>
<!--
Copyright (C) 2009/2010/2011 Ulrich Apel.
This work is distributed under the conditions of the Creative Commons 
Attribution-Share Alike 3.0 Licence. This means you are free:
* to Share - to copy, distribute and transmit the work
* to Remix - to adapt the work

Under the following conditions:
* Attribution. You must attribute the work by stating your use of KanjiVG in
  your own copyright header and linking to KanjiVG's website
  (http://kanjivg.tagaini.net)
* Share Alike. If you alter, transform, or build upon this work, you may
  distribute the resulting work only under the same or similar license to this
  one.

See http://creativecommons.org/licenses/by-sa/3.0/ for more details.
-->
<!DOCTYPE svg PUBLIC "-//W3C//DTD SVG 1.0//EN" "http://www.w3.org/TR/2001/REC-SVG-20010904/DTD/svg10.dtd" [
<!ATTLIST g
xmlns:kvg CDATA #FIXED "http://kanjivg.tagaini.net"
kvg:element CDATA #IMPLIED
kvg:variant CDATA #IMPLIED
kvg:partial CDATA #IMPLIED
kvg:original CDATA #IMPLIED
kvg:part CDATA #IMPLIED
kvg:number CDATA #IMPLIED
kvg:tradForm CDATA #IMPLIED
kvg:radicalForm CDATA #IMPLIED
kvg:position CDATA #IMPLIED
kvg:radical CDATA #IMPLIED
kvg:phon CDATA #IMPLIED >
<!ATTLIST path
xmlns:kvg CDATA #FIXED "http://kanjivg.tagaini.net"
kvg:type CDATA #IMPLIED >
]>
<svg xmlns="http://www.w3.org/2000/svg" width="109" height="109" viewBox="0 0 109 109">
<g id="kvg:StrokePaths_081ed" style="fill:none;stroke:#000000;stroke-width:3;stroke-linecap:round;stroke-linejoin:round;">
<g id="kvg:081ed" kvg:element="臭">
	<g id="kvg:081ed-g1" kvg:element="自" kvg:position="top" kvg:radical="general">
		<path id="kvg:081ed-s1" kvg:type="㇒" d="M55.07,8.95c0.38,0.13-0.36,2.33-0.59,2.72c-1.57,2.57-3.18,6.07-6.89,9.45"/>
		<g id="kvg:081ed-g2" kvg:element="目">
			<path id="kvg:081ed-s2" kvg:type="㇑" d="M34.94,22.15c1.02,1.02,1.44,2.35,1.54,3.89c0.41,6.37,0.81,19.69,1.48,29.71c0.11,1.72,0.23,3.34,0.35,4.81"/>
			<path id="kvg:081ed-s3" kvg:type="㇕a" d="M37.26,24c5.24-0.5,31.75-3.22,34.98-3.39c2.69-0.14,4.13,1.27,4.08,3.86c-0.13,6.03-0.71,16.94-1.65,28.57c-0.12,1.47-0.25,2.96-0.38,4.45"/>
			<path id="kvg:081ed-s4" kvg:type="㇐a" d="M37.95,35.07c8.42-0.57,29.8-2.57,36.94-2.82"/>
			<path id="kvg:081ed-s5" kvg:type="㇐a" d="M38.49,45.6c10.76-0.85,26.38-2.1,35.98-2.46"/>
			<path id="kvg:081ed-s6" kvg:type="㇐a" d="M38.83,56.76c9.05-0.64,22.3-2.01,34.88-2.28"/>
		</g>
	</g>
	<g id="kvg:081ed-g3" kvg:element="大" kvg:position="bottom">
		<path id="kvg:081ed-s7" kvg:type="㇐" d="M18.88,71.86c3.04,0.73,5.81,0.56,8.89,0.29c14.61-1.27,36.36-2.9,52.99-4c3.1-0.21,5.91-0.09,9,0.36"/>
		<path id="kvg:081ed-s8" kvg:type="㇒" d="M53.64,61.5c0.36,0.88,0.63,1.74,0.35,2.92C49.62,83.5,40.5,94.38,16.75,102.75"/>
		<path id="kvg:081ed-s9" kvg:type="㇏" d="M54.5,71c6.34,5.28,18.32,16.8,27.19,23.28c2.69,1.97,5.81,3.72,8.81,4.97"/>
	</g>
</g>
</g>
<g id="kvg:StrokeNumbers_081ed" style="font-size:8;fill:#808080">
	<text transform="matrix(1 0 0 1 46.50 8.50)">1</text>
	<text transform="matrix(1 0 0 1 28.50 30.50)">2</text>
	<text transform="matrix(1 0 0 1 39.50 20.50)">3</text>
	<text transform="matrix(1 0 0 1 42.57 32.50)">4</text>
	<text transform="matrix(1 0 0 1 42.75 43.48)">5</text>
	<text transform="matrix(1 0 0 1 42.61 54.50)">6</text>
	<text transform="matrix(1 0 0 1 11.25 72.13)">7</text>
	<text transform="matrix(1 0 0 1 44.25 66.50)">8</text>
	<text transform="matrix(1 0 0 1 68.50 79.63)">9</text>
</g>
</svg>
