<?xml version="1.0" encoding="UTF-8"?>
<!--
Copyright (C) 2009/2010/2011 Ulrich Apel.
This work is distributed under the conditions of the Creative Commons 
Attribution-Share Alike 3.0 Licence. This means you are free:
* to Share - to copy, distribute and transmit the work
* to Remix - to adapt the work

Under the following conditions:
* Attribution. You must attribute the work by stating your use of KanjiVG in
  your own copyright header and linking to KanjiVG's website
  (http://kanjivg.tagaini.net)
* Share Alike. If you alter, transform, or build upon this work, you may
  distribute the resulting work only under the same or similar license to this
  one.

See http://creativecommons.org/licenses/by-sa/3.0/ for more details.
-->
<!DOCTYPE svg PUBLIC "-//W3C//DTD SVG 1.0//EN" "http://www.w3.org/TR/2001/REC-SVG-20010904/DTD/svg10.dtd" [
<!ATTLIST g
xmlns:kvg CDATA #FIXED "http://kanjivg.tagaini.net"
kvg:element CDATA #IMPLIED
kvg:variant CDATA #IMPLIED
kvg:partial CDATA #IMPLIED
kvg:original CDATA #IMPLIED
kvg:part CDATA #IMPLIED
kvg:number CDATA #IMPLIED
kvg:tradForm CDATA #IMPLIED
kvg:radicalForm CDATA #IMPLIED
kvg:position CDATA #IMPLIED
kvg:radical CDATA #IMPLIED
kvg:phon CDATA #IMPLIED >
<!ATTLIST path
xmlns:kvg CDATA #FIXED "http://kanjivg.tagaini.net"
kvg:type CDATA #IMPLIED >
]>
<svg xmlns="http://www.w3.org/2000/svg" width="109" height="109" viewBox="0 0 109 109">
<g id="kvg:StrokePaths_081f4-VtFst" style="fill:none;stroke:#000000;stroke-width:3;stroke-linecap:round;stroke-linejoin:round;">
<g id="kvg:081f4-VtFst" kvg:element="致">
	<g id="kvg:081f4-VtFst-g1" kvg:element="至" kvg:position="left" kvg:radical="general">
		<path id="kvg:081f4-VtFst-s1" kvg:type="㇐" d="M13,26.69C13.6,27,14.72,27.06,15.32,27c8.34-0.83,21.15-3.33,31.31-3.71c1.01-0.04,1.62,0.15,2.12,0.3"/>
		<g id="kvg:081f4-VtFst-g2" kvg:element="厶">
			<path id="kvg:081f4-VtFst-s2" kvg:type="㇜" d="M31.17,27.75c0.36,0.43,0.48,1.78,0.21,2.29c-3.13,5.83-8.16,11.07-12.48,16.69c-1.39,1.81-1.49,3.03,0.74,2.5c5.21-1.25,17.42-4.58,25.64-6.64"/>
			<path id="kvg:081f4-VtFst-s3" kvg:type="㇔" d="M40.4,35.24c3.08,2.17,7.97,8.91,8.74,12.28"/>
		</g>
		<g id="kvg:081f4-VtFst-g3" kvg:element="土" kvg:variant="true">
			<path id="kvg:081f4-VtFst-s4" kvg:type="㇑a" d="M30.69,53.28c0.12,0.33,1.78,1.7,1.78,3.78c0,10.44,0.06,21.44,0.06,24.83"/>
			<path id="kvg:081f4-VtFst-s5" kvg:type="㇐" d="M14.69,66.37c1.06,0.13,3.15,0.29,3.74,0.25c6.82-0.38,17.32-3.13,23.6-3.98c0.97-0.13,3.06,0.12,3.55,0.25"/>
			<path id="kvg:081f4-VtFst-s6" kvg:type="㇐" d="M13.85,89.17C15,90,17,89.77,17.91,89.29C27,84.5,34.75,81.25,47.24,74.62"/>
		</g>
	</g>
	<g id="kvg:081f4-VtFst-g4" kvg:element="攴" kvg:variant="true" kvg:original="攵" kvg:position="right">
		<g id="kvg:081f4-VtFst-g5" kvg:position="top">
			<path id="kvg:081f4-VtFst-s7" kvg:type="㇒" d="M64,19.39c0.04,0.82,0.21,2.16-0.08,3.31c-2.13,8.33-6.93,22.45-14.3,32.5"/>
			<path id="kvg:081f4-VtFst-s8" kvg:type="㇐" d="M59.12,41.53c1.35,0.29,3.87,0,4.6-0.04c7.57-0.47,13.53-2.49,21.4-3.76c1.29-0.21,2.1-0.02,2.43,0.08"/>
		</g>
		<g id="kvg:081f4-VtFst-g6" kvg:element="乂" kvg:position="bottom">
			<g id="kvg:081f4-VtFst-g7" kvg:element="丿">
				<path id="kvg:081f4-VtFst-s9" kvg:type="㇒" d="M74.02,44.71c0.57,1.17,0.88,2,0.28,4.13C68.89,68.21,58,84.75,38.72,92.5"/>
			</g>
			<path id="kvg:081f4-VtFst-s10" kvg:type="㇏" d="M54.18,54.67c1.47,0,2.34,0.92,3.51,2.18c7.92,8.54,22.48,25.06,33.05,33.15c1.95,1.49,4.01,2.48,5.65,2.63"/>
		</g>
	</g>
</g>
</g>
<g id="kvg:StrokeNumbers_081f4-VtFst" style="font-size:8;fill:#808080">
	<text transform="matrix(1 0 0 1 6.50 28.50)">1</text>
	<text transform="matrix(1 0 0 1 19.50 36.50)">2</text>
	<text transform="matrix(1 0 0 1 34.50 38.50)">3</text>
	<text transform="matrix(1 0 0 1 22.50 58.50)">4</text>
	<text transform="matrix(1 0 0 1 6.75 66.13)">5</text>
	<text transform="matrix(1 0 0 1 5.25 93.13)">6</text>
	<text transform="matrix(1 0 0 1 55.50 19.50)">7</text>
	<text transform="matrix(1 0 0 1 65.50 38.50)">8</text>
	<text transform="matrix(1 0 0 1 65.50 50.50)">9</text>
	<text transform="matrix(1 0 0 1 49.50 63.50)">10</text>
</g>
</svg>
