<?xml version="1.0" encoding="UTF-8"?>
<!--
Copyright (C) 2009/2010/2011 Ulrich Apel.
This work is distributed under the conditions of the Creative Commons 
Attribution-Share Alike 3.0 Licence. This means you are free:
* to Share - to copy, distribute and transmit the work
* to Remix - to adapt the work

Under the following conditions:
* Attribution. You must attribute the work by stating your use of KanjiVG in
  your own copyright header and linking to KanjiVG's website
  (http://kanjivg.tagaini.net)
* Share Alike. If you alter, transform, or build upon this work, you may
  distribute the resulting work only under the same or similar license to this
  one.

See http://creativecommons.org/licenses/by-sa/3.0/ for more details.
-->
<!DOCTYPE svg PUBLIC "-//W3C//DTD SVG 1.0//EN" "http://www.w3.org/TR/2001/REC-SVG-20010904/DTD/svg10.dtd" [
<!ATTLIST g
xmlns:kvg CDATA #FIXED "http://kanjivg.tagaini.net"
kvg:element CDATA #IMPLIED
kvg:variant CDATA #IMPLIED
kvg:partial CDATA #IMPLIED
kvg:original CDATA #IMPLIED
kvg:part CDATA #IMPLIED
kvg:number CDATA #IMPLIED
kvg:tradForm CDATA #IMPLIED
kvg:radicalForm CDATA #IMPLIED
kvg:position CDATA #IMPLIED
kvg:radical CDATA #IMPLIED
kvg:phon CDATA #IMPLIED >
<!ATTLIST path
xmlns:kvg CDATA #FIXED "http://kanjivg.tagaini.net"
kvg:type CDATA #IMPLIED >
]>
<svg xmlns="http://www.w3.org/2000/svg" width="109" height="109" viewBox="0 0 109 109">
<g id="kvg:StrokePaths_0820d" style="fill:none;stroke:#000000;stroke-width:3;stroke-linecap:round;stroke-linejoin:round;">
<g id="kvg:0820d" kvg:element="舍">
	<g id="kvg:0820d-g1" kvg:element="人" kvg:position="top">
		<path id="kvg:0820d-s1" kvg:type="㇒" d="M52.75,9.75c0,1.04,0.11,1.86-0.32,3.11c-2.25,6.47-22.36,30.06-40.68,39.64"/>
		<path id="kvg:0820d-s2" kvg:type="㇏" d="M52.5,15c9.5,7.5,34.54,28.51,37.73,30.13c3.25,1.66,4.31,1.96,5.77,2.12"/>
	</g>
	<g id="kvg:0820d-g2" kvg:element="舌" kvg:variant="true" kvg:position="bottom" kvg:radical="general">
		<g id="kvg:0820d-g3" kvg:position="top">
			<path id="kvg:0820d-s3" kvg:type="㇐" d="M35.52,41.85c0.7,0.23,3.5,0.8,4.21,0.73c3.31-0.31,15.08-1.75,28.81-2.57c1.08-0.06,2.07,0.05,2.97,0.24"/>
			<path id="kvg:0820d-s4" kvg:type="㇐" d="M21.55,58.95c1.2,0.39,5.15,0.6,6.37,0.51c7-0.51,28.01-2.86,50.78-3.75c1.5-0.06,4.78-0.16,7.01,0.18"/>
			<path id="kvg:0820d-s5" kvg:type="㇑" d="M52.22,43.57c0.89,0.85,0.89,2.76,0.89,3.43c0,4.75,0.44,22.07,0.22,26.82"/>
		</g>
		<g id="kvg:0820d-g4" kvg:element="口" kvg:position="bottom">
			<path id="kvg:0820d-s6" kvg:type="㇑" d="M31.25,74.24c0.5,0.46,1.02,0.83,1.24,1.41c1.75,4.51,3.34,16.46,4.54,24.57"/>
			<path id="kvg:0820d-s7" kvg:type="㇕b" d="M34.39,76.29c13.11-1.04,32.17-3.38,38.55-4.02c2.33-0.23,3.73,2.35,3.4,3.73c-1.38,5.68-1.46,10.58-4.42,18.77"/>
			<path id="kvg:0820d-s8" kvg:type="㇐b" d="M37.54,97.73C45.5,97,62.5,95.75,73.75,95.47"/>
		</g>
	</g>
</g>
</g>
<g id="kvg:StrokeNumbers_0820d" style="font-size:8;fill:#808080">
	<text transform="matrix(1 0 0 1 45.25 10.25)">1</text>
	<text transform="matrix(1 0 0 1 61.25 18.25)">2</text>
	<text transform="matrix(1 0 0 1 39.25 39.23)">3</text>
	<text transform="matrix(1 0 0 1 14.25 60.25)">4</text>
	<text transform="matrix(1 0 0 1 46.00 51.25)">5</text>
	<text transform="matrix(1 0 0 1 25.25 81.25)">6</text>
	<text transform="matrix(1 0 0 1 37.25 73.25)">7</text>
	<text transform="matrix(1 0 0 1 41.25 94.25)">8</text>
</g>
</svg>
