<?xml version="1.0" encoding="UTF-8"?>
<!--
Copyright (C) 2009/2010/2011 Ulrich Apel.
This work is distributed under the conditions of the Creative Commons 
Attribution-Share Alike 3.0 Licence. This means you are free:
* to Share - to copy, distribute and transmit the work
* to Remix - to adapt the work

Under the following conditions:
* Attribution. You must attribute the work by stating your use of KanjiVG in
  your own copyright header and linking to KanjiVG's website
  (http://kanjivg.tagaini.net)
* Share Alike. If you alter, transform, or build upon this work, you may
  distribute the resulting work only under the same or similar license to this
  one.

See http://creativecommons.org/licenses/by-sa/3.0/ for more details.
-->
<!DOCTYPE svg PUBLIC "-//W3C//DTD SVG 1.0//EN" "http://www.w3.org/TR/2001/REC-SVG-20010904/DTD/svg10.dtd" [
<!ATTLIST g
xmlns:kvg CDATA #FIXED "http://kanjivg.tagaini.net"
kvg:element CDATA #IMPLIED
kvg:variant CDATA #IMPLIED
kvg:partial CDATA #IMPLIED
kvg:original CDATA #IMPLIED
kvg:part CDATA #IMPLIED
kvg:number CDATA #IMPLIED
kvg:tradForm CDATA #IMPLIED
kvg:radicalForm CDATA #IMPLIED
kvg:position CDATA #IMPLIED
kvg:radical CDATA #IMPLIED
kvg:phon CDATA #IMPLIED >
<!ATTLIST path
xmlns:kvg CDATA #FIXED "http://kanjivg.tagaini.net"
kvg:type CDATA #IMPLIED >
]>
<svg xmlns="http://www.w3.org/2000/svg" width="109" height="109" viewBox="0 0 109 109">
<g id="kvg:StrokePaths_08217-Kaisho" style="fill:none;stroke:#000000;stroke-width:3;stroke-linecap:round;stroke-linejoin:round;">
<g id="kvg:08217-Kaisho" kvg:element="舗">
	<g id="kvg:08217-Kaisho-g1" kvg:position="left">
		<g id="kvg:08217-Kaisho-g2" kvg:element="人" kvg:position="top" kvg:radical="general">
			<path id="kvg:08217-Kaisho-s1" kvg:type="㇒" d="M31.08,16.5c0.05,0.75,0.19,2.16-0.1,3.01c-3.68,10.57-9.13,20.26-18.72,28.79"/>
			<path id="kvg:08217-Kaisho-s2" kvg:type="㇔/㇏" d="M32.52,22.08c4.52,1.79,11.66,7.35,12.79,10.13"/>
		</g>
		<g id="kvg:08217-Kaisho-g3" kvg:element="吉" kvg:position="bottom">
			<g id="kvg:08217-Kaisho-g4" kvg:element="士" kvg:position="top">
				<path id="kvg:08217-Kaisho-s3" kvg:type="㇐" d="M19.2,48.03c0.64,0.25,1.81,0.21,2.45,0.15C29,47.5,37.5,45.75,43.81,44.83c1.06-0.15,1.71,0.04,2.24,0.16"/>
				<path id="kvg:08217-Kaisho-s4" kvg:type="㇑a" d="M32.21,35.54c0.39,0.65,1.16,1.71,1.16,2.37c0,6.98-0.12,13.86-0.12,21.66"/>
				<path id="kvg:08217-Kaisho-s5" kvg:type="㇐" d="M14.21,62.25c0.68,0.24,1.93,0.19,2.61,0.13c9.02-0.87,22.92-4.13,29.61-4.67c1.14-0.09,1.82,0.03,2.39,0.13"/>
			</g>
			<g id="kvg:08217-Kaisho-g5" kvg:element="口" kvg:position="bottom">
				<path id="kvg:08217-Kaisho-s6" kvg:type="㇑" d="M19.81,72.42c0.26,0.31,0.52,0.56,0.64,0.95c0.9,3.04,1.97,11.42,2.59,16.88"/>
				<path id="kvg:08217-Kaisho-s7" kvg:type="㇕b" d="M21.43,73.46c6.34-1.27,18.31-2.95,21.58-3.38c1.2-0.16,1.91,1.58,1.74,2.51c-0.71,3.83-1.52,7.63-3.04,13.14"/>
				<path id="kvg:08217-Kaisho-s8" kvg:type="㇐b" d="M23.29,88.24c3.84-0.49,15.74-1.54,20.61-2.03"/>
			</g>
		</g>
	</g>
	<g id="kvg:08217-Kaisho-g6" kvg:element="甫" kvg:position="right">
		<path id="kvg:08217-Kaisho-s9" kvg:type="㇐" d="M52.69,28.89c0.86,0.45,2.44,0.53,3.31,0.45c4.14-0.4,24.77-3.67,34.54-3.82c1.44-0.02,2.3,0.21,3.02,0.44"/>
		<g id="kvg:08217-Kaisho-g7" kvg:element="用" kvg:variant="true">
			<path id="kvg:08217-Kaisho-s10" kvg:type="㇑" d="M55.64,41.06c0.46,0.69,0.77,1.39,0.93,2.08c0.15,0.69-0.18,44.25-0.17,50.48"/>
			<path id="kvg:08217-Kaisho-s11" kvg:type="㇆" d="M57.5,42.89c5.2-0.29,28.93-3.59,30.31-3.78c2.47-0.35,3.4,2.25,3.09,3.29C90.86,44.73,91,72.51,91,88.35c0,11.29-5.41,2.19-6.25,1.51"/>
			<path id="kvg:08217-Kaisho-s12" kvg:type="㇐" d="M57.5,56.08c7.16-0.63,14.31-1.37,21.46-2.08c0.78-0.08,1.54-0.15,2.28-0.23"/>
			<path id="kvg:08217-Kaisho-s13" kvg:type="㇐" d="M57.64,71.16c7.02-0.73,14.05-1.38,21.07-2.02c0.83-0.08,1.64-0.15,2.42-0.22"/>
			<path id="kvg:08217-Kaisho-s14" kvg:type="㇑" d="M70.91,11.78c0.83,0.56,1.34,2.51,1.5,3.63c0.17,1.12,0,70.76-0.17,77.75"/>
		</g>
		<g id="kvg:08217-Kaisho-g8" kvg:element="丶">
			<path id="kvg:08217-Kaisho-s15" kvg:type="㇔" d="M83.02,11.25c2.67,1.2,6.89,4.95,7.56,6.82"/>
		</g>
	</g>
</g>
</g>
<g id="kvg:StrokeNumbers_08217-Kaisho" style="font-size:8;fill:#808080">
	<text transform="matrix(1 0 0 1 22.50 17.50)">1</text>
	<text transform="matrix(1 0 0 1 37.50 21.50)">2</text>
	<text transform="matrix(1 0 0 1 22.50 45.13)">3</text>
	<text transform="matrix(1 0 0 1 26.50 40.50)">4</text>
	<text transform="matrix(1 0 0 1 12.50 59.50)">5</text>
	<text transform="matrix(1 0 0 1 13.50 80.50)">6</text>
	<text transform="matrix(1 0 0 1 23.25 70.50)">7</text>
	<text transform="matrix(1 0 0 1 26.50 85.50)">8</text>
	<text transform="matrix(1 0 0 1 50.50 26.50)">9</text>
	<text transform="matrix(1 0 0 1 46.50 51.50)">10</text>
	<text transform="matrix(1 0 0 1 57.50 39.13)">11</text>
	<text transform="matrix(1 0 0 1 60.50 52.55)">12</text>
	<text transform="matrix(1 0 0 1 60.50 67.48)">13</text>
	<text transform="matrix(1 0 0 1 59.50 13.50)">14</text>
	<text transform="matrix(1 0 0 1 74.50 9.50)">15</text>
</g>
</svg>
