<?xml version="1.0" encoding="UTF-8"?>
<!--
Copyright (C) 2009/2010/2011 Ulrich Apel.
This work is distributed under the conditions of the Creative Commons 
Attribution-Share Alike 3.0 Licence. This means you are free:
* to Share - to copy, distribute and transmit the work
* to Remix - to adapt the work

Under the following conditions:
* Attribution. You must attribute the work by stating your use of KanjiVG in
  your own copyright header and linking to KanjiVG's website
  (http://kanjivg.tagaini.net)
* Share Alike. If you alter, transform, or build upon this work, you may
  distribute the resulting work only under the same or similar license to this
  one.

See http://creativecommons.org/licenses/by-sa/3.0/ for more details.
-->
<!DOCTYPE svg PUBLIC "-//W3C//DTD SVG 1.0//EN" "http://www.w3.org/TR/2001/REC-SVG-20010904/DTD/svg10.dtd" [
<!ATTLIST g
xmlns:kvg CDATA #FIXED "http://kanjivg.tagaini.net"
kvg:element CDATA #IMPLIED
kvg:variant CDATA #IMPLIED
kvg:partial CDATA #IMPLIED
kvg:original CDATA #IMPLIED
kvg:part CDATA #IMPLIED
kvg:number CDATA #IMPLIED
kvg:tradForm CDATA #IMPLIED
kvg:radicalForm CDATA #IMPLIED
kvg:position CDATA #IMPLIED
kvg:radical CDATA #IMPLIED
kvg:phon CDATA #IMPLIED >
<!ATTLIST path
xmlns:kvg CDATA #FIXED "http://kanjivg.tagaini.net"
kvg:type CDATA #IMPLIED >
]>
<svg xmlns="http://www.w3.org/2000/svg" width="109" height="109" viewBox="0 0 109 109">
<g id="kvg:StrokePaths_0821e" style="fill:none;stroke:#000000;stroke-width:3;stroke-linecap:round;stroke-linejoin:round;">
<g id="kvg:0821e" kvg:element="舞">
	<g id="kvg:0821e-g1" kvg:position="top" kvg:phon="丿+2+一+3+3+3+3+2">
		<g id="kvg:0821e-g2" kvg:element="丿">
			<path id="kvg:0821e-s1" kvg:type="㇒" d="M38.19,10.95c0.11,1.1,0.1,1.73-0.54,2.66c-4.96,7.25-10.11,12.81-16.91,18.55"/>
		</g>
		<path id="kvg:0821e-s2" kvg:type="㇐" d="M34.14,21.23c2.41-0.07,4.83-0.26,7.23-0.46c9.61-0.79,24.45-2.13,33.5-2.99c3.44-0.33,6.62-0.53,9.96-0.14"/>
		<g id="kvg:0821e-g3" kvg:element="一">
			<path id="kvg:0821e-s3" kvg:type="㇐" d="M15,37.87c3.5,0.63,6.76,0.58,9.88,0.25c12.08-1.28,44.35-3.85,60.74-4.76c3.27-0.18,6.39-0.19,9.62,0.51"/>
		</g>
		<path id="kvg:0821e-s4" kvg:type="㇑a" d="M34.77,25.73c0.81,0.81,1.11,1.64,1.23,3.12c0.48,5.88,0.84,12.15,1.14,19.76"/>
		<path id="kvg:0821e-s5" kvg:type="㇑a" d="M48.76,24.43c0.97,0.97,1.18,2.07,1.18,3.54c0,4.73-0.07,12.67-0.07,19.78"/>
		<path id="kvg:0821e-s6" kvg:type="㇑a" d="M61.9,22.39c1.11,1.11,1,2.36,0.93,3.79C62.62,30.5,62.38,38.88,62.01,47"/>
		<path id="kvg:0821e-s7" kvg:type="㇑a" d="M75.47,21.32c0.65,1.06,0.72,2.21,0.43,3.9c-1.14,6.88-1.07,7.96-3.22,21.28"/>
		<path id="kvg:0821e-s8" kvg:type="㇐" d="M20.05,50.02c3,1.07,6.48,0.45,9.57,0.21c10.9-0.81,34.21-2.38,49-3.09c3.25-0.16,6.37-0.38,9.57,0.31"/>
	</g>
	<g id="kvg:0821e-g4" kvg:element="舛" kvg:variant="true" kvg:position="bottom" kvg:radical="general">
		<g id="kvg:0821e-g5" kvg:element="夕" kvg:position="left">
			<path id="kvg:0821e-s9" kvg:type="㇒" d="M32.21,56.39c0.16,0.98-0.11,1.82-0.43,2.5c-2.13,4.45-6.92,10.82-14.28,16.69"/>
			<path id="kvg:0821e-s10" kvg:type="㇇" d="M33.95,60.7c0.26,0.03,2.39,0.08,3.12-0.1c3.43-0.85,6-1.74,9.26-2.93c2.34-0.85,3.47,1.05,2.72,2.79C44.75,70.5,32.38,88.62,13.5,97.5"/>
			<path id="kvg:0821e-s11" kvg:type="㇔" d="M28.12,70c2.39,1.14,6.17,4.69,6.77,6.47"/>
		</g>
		<g id="kvg:0821e-g6" kvg:position="right">
			<path id="kvg:0821e-s12" kvg:type="㇐" d="M62.38,60.76c0.65,0.26,1.84,0.08,2.48,0.01c3.38-0.37,10.51-1.4,16.02-2.18c1.81-0.26,3.46-0.59,5.28-0.15"/>
			<path id="kvg:0821e-s13" kvg:type="㇑a" d="M60.5,58.88c0.75,0.75,1.26,1.87,1.26,3.37c0,5.13,0.05,8.5,0.05,12.73"/>
			<path id="kvg:0821e-s14" kvg:type="㇐" d="M49.25,76.64c2.62,0.61,4.87,0.49,7.12,0.26c7.79-0.8,23.47-2.53,31.25-2.77c2.24-0.07,4.68-0.15,6.88,0.39"/>
			<path id="kvg:0821e-s15" kvg:type="㇑" d="M72.83,50.5c0.96,0.96,1.39,2.38,1.39,3.98c0,0.7,0.06,25.95-0.08,38.52c-0.03,2.87,0.01,5.28-0.02,6.25"/>
		</g>
	</g>
</g>
</g>
<g id="kvg:StrokeNumbers_0821e" style="font-size:8;fill:#808080">
	<text transform="matrix(1 0 0 1 31.75 11.50)">1</text>
	<text transform="matrix(1 0 0 1 42.75 17.50)">2</text>
	<text transform="matrix(1 0 0 1 8.75 39.50)">3</text>
	<text transform="matrix(1 0 0 1 28.75 33.50)">4</text>
	<text transform="matrix(1 0 0 1 41.75 29.50)">5</text>
	<text transform="matrix(1 0 0 1 55.75 28.50)">6</text>
	<text transform="matrix(1 0 0 1 68.50 27.50)">7</text>
	<text transform="matrix(1 0 0 1 13.00 51.50)">8</text>
	<text transform="matrix(1 0 0 1 23.75 60.50)">9</text>
	<text transform="matrix(1 0 0 1 35.50 57.50)">10</text>
	<text transform="matrix(1 0 0 1 31.75 70.50)">11</text>
	<text transform="matrix(1 0 0 1 61.75 57.50)">12</text>
	<text transform="matrix(1 0 0 1 52.75 67.63)">13</text>
	<text transform="matrix(1 0 0 1 47.75 74.50)">14</text>
	<text transform="matrix(1 0 0 1 76.50 55.03)">15</text>
</g>
</svg>
