<?xml version="1.0" encoding="UTF-8"?>
<!--
Copyright (C) 2009/2010/2011 Ulrich Apel.
This work is distributed under the conditions of the Creative Commons 
Attribution-Share Alike 3.0 Licence. This means you are free:
* to Share - to copy, distribute and transmit the work
* to Remix - to adapt the work

Under the following conditions:
* Attribution. You must attribute the work by stating your use of KanjiVG in
  your own copyright header and linking to KanjiVG's website
  (http://kanjivg.tagaini.net)
* Share Alike. If you alter, transform, or build upon this work, you may
  distribute the resulting work only under the same or similar license to this
  one.

See http://creativecommons.org/licenses/by-sa/3.0/ for more details.
-->
<!DOCTYPE svg PUBLIC "-//W3C//DTD SVG 1.0//EN" "http://www.w3.org/TR/2001/REC-SVG-20010904/DTD/svg10.dtd" [
<!ATTLIST g
xmlns:kvg CDATA #FIXED "http://kanjivg.tagaini.net"
kvg:element CDATA #IMPLIED
kvg:variant CDATA #IMPLIED
kvg:partial CDATA #IMPLIED
kvg:original CDATA #IMPLIED
kvg:part CDATA #IMPLIED
kvg:number CDATA #IMPLIED
kvg:tradForm CDATA #IMPLIED
kvg:radicalForm CDATA #IMPLIED
kvg:position CDATA #IMPLIED
kvg:radical CDATA #IMPLIED
kvg:phon CDATA #IMPLIED >
<!ATTLIST path
xmlns:kvg CDATA #FIXED "http://kanjivg.tagaini.net"
kvg:type CDATA #IMPLIED >
]>
<svg xmlns="http://www.w3.org/2000/svg" width="109" height="109" viewBox="0 0 109 109">
<g id="kvg:StrokePaths_08218-Kaisho" style="fill:none;stroke:#000000;stroke-width:3;stroke-linecap:round;stroke-linejoin:round;">
<g id="kvg:08218-Kaisho" kvg:element="舘">
	<g id="kvg:08218-Kaisho-g1" kvg:element="舍" kvg:position="left">
		<g id="kvg:08218-Kaisho-g2" kvg:element="人" kvg:position="top" kvg:radical="nelson">
			<path id="kvg:08218-Kaisho-s1" kvg:type="㇒" d="M33.75,15.49c0,0.78,0.05,1.4-0.15,2.33c-1.04,4.87-10.92,21.1-19.38,28.3"/>
			<path id="kvg:08218-Kaisho-s2" kvg:type="㇏" d="M35.89,21.96C40,23.75,45.25,28.5,47.25,33"/>
		</g>
		<g id="kvg:08218-Kaisho-g3" kvg:element="舌" kvg:variant="true" kvg:position="bottom" kvg:radical="tradit">
			<g id="kvg:08218-Kaisho-g4" kvg:position="top">
				<path id="kvg:08218-Kaisho-s3" kvg:type="㇐" d="M21,43.22c1.89,0,2.75,0.11,3.36,0.07c5.46-0.39,10.76-1.93,17.19-2.21c0.93-0.04,1.13-0.07,2.7-0.07"/>
				<path id="kvg:08218-Kaisho-s4" kvg:type="㇐" d="M14.09,59.59c0.77,0.42,3.33,0.63,4.12,0.56c7.14-0.64,17.88-3.24,27.03-3.47c0.97-0.02,3.09-0.17,4.54,0.2"/>
				<path id="kvg:08218-Kaisho-s5" kvg:type="㇑" d="M31.95,44.69c1.24,0.78,1.24,2.52,1.24,3.14c0,4.35,0.12,19.63-0.19,23.98"/>
			</g>
			<g id="kvg:08218-Kaisho-g5" kvg:element="口" kvg:position="bottom">
				<path id="kvg:08218-Kaisho-s6" kvg:type="㇑" d="M19.75,72.64c0.37,0.39,0.74,0.72,0.91,1.21c1.28,3.9,2.8,14.65,3.67,21.65"/>
				<path id="kvg:08218-Kaisho-s7" kvg:type="㇕b" d="M22.04,74.78c9.21-1.78,17.68-3.28,21.99-3.79c1.57-0.19,2.52,1.11,2.29,2.21c-0.93,4.55-2.52,11.55-3.91,17.85"/>
				<path id="kvg:08218-Kaisho-s8" kvg:type="㇐b" d="M24.5,93.58C29.56,93,37.54,92,44.49,91.11"/>
			</g>
		</g>
	</g>
	<g id="kvg:08218-Kaisho-g6" kvg:element="官" kvg:position="right">
		<g id="kvg:08218-Kaisho-g7" kvg:element="宀" kvg:position="top">
			<path id="kvg:08218-Kaisho-s9" kvg:type="㇑a" d="M66.2,13.54c2.1,0.97,7.57,5.64,8.45,8.42"/>
			<g id="kvg:08218-Kaisho-g8" kvg:element="冖">
				<path id="kvg:08218-Kaisho-s10" kvg:type="㇔" d="M53.62,29.82C53.5,34,52.5,39.5,51.05,44.07"/>
				<path id="kvg:08218-Kaisho-s11" kvg:type="㇖b" d="M53.78,30.63c0.89,0.06,33.08-4.04,37.59-4.04c4.51,0,4.38,1.41-0.76,6.34"/>
			</g>
		</g>
		<g id="kvg:08218-Kaisho-g9" kvg:position="bottom">
			<g id="kvg:08218-Kaisho-g10" kvg:element="口">
				<path id="kvg:08218-Kaisho-s12" kvg:type="㇑" d="M58.52,41.84c0.82,0.46,1.31,2.08,1.48,3.01c0.16,0.92,0,45.09-0.17,50.87"/>
				<path id="kvg:08218-Kaisho-s13" kvg:type="㇕b" d="M60.31,44.5c6.78-1.39,18.76-3.57,22.49-4.04c1.36-0.17,2.18,1.03,1.98,2.04c-0.81,4.21-1.75,10.45-2.95,16.27"/>
				<path id="kvg:08218-Kaisho-s14" kvg:type="㇐b" d="M60.69,61.26c4.37-0.54,16.5-1.65,22.5-2.47"/>
			</g>
			<path id="kvg:08218-Kaisho-s15" kvg:type="㇕b" d="M61.67,74.67c7.34-1.39,21.59-3.78,25.31-4.29c1.36-0.19,2.18,1.12,1.98,2.23c-0.8,4.6-2.08,9.49-3.28,15.85"/>
			<path id="kvg:08218-Kaisho-s16" kvg:type="㇐b" d="M60.31,91.71c4.37-0.59,19.02-2.04,26.73-2.68"/>
		</g>
	</g>
</g>
</g>
<g id="kvg:StrokeNumbers_08218-Kaisho" style="font-size:8;fill:#808080">
	<text transform="matrix(1 0 0 1 26.50 15.50)">1</text>
	<text transform="matrix(1 0 0 1 40.50 21.50)">2</text>
	<text transform="matrix(1 0 0 1 27.50 39.50)">3</text>
	<text transform="matrix(1 0 0 1 6.25 60.50)">4</text>
	<text transform="matrix(1 0 0 1 25.50 52.50)">5</text>
	<text transform="matrix(1 0 0 1 14.50 80.50)">6</text>
	<text transform="matrix(1 0 0 1 23.50 71.50)">7</text>
	<text transform="matrix(1 0 0 1 28.50 89.50)">8</text>
	<text transform="matrix(1 0 0 1 60.50 12.50)">9</text>
	<text transform="matrix(1 0 0 1 47.25 24.50)">10</text>
	<text transform="matrix(1 0 0 1 55.50 27.50)">11</text>
	<text transform="matrix(1 0 0 1 49.50 53.50)">12</text>
	<text transform="matrix(1 0 0 1 61.50 40.50)">13</text>
	<text transform="matrix(1 0 0 1 63.50 57.50)">14</text>
	<text transform="matrix(1 0 0 1 63.50 70.50)">15</text>
	<text transform="matrix(1 0 0 1 63.50 87.50)">16</text>
</g>
</svg>
