<?xml version="1.0" encoding="UTF-8"?>
<!--
Copyright (C) 2009/2010/2011 Ulrich Apel.
This work is distributed under the conditions of the Creative Commons 
Attribution-Share Alike 3.0 Licence. This means you are free:
* to Share - to copy, distribute and transmit the work
* to Remix - to adapt the work

Under the following conditions:
* Attribution. You must attribute the work by stating your use of KanjiVG in
  your own copyright header and linking to KanjiVG's website
  (http://kanjivg.tagaini.net)
* Share Alike. If you alter, transform, or build upon this work, you may
  distribute the resulting work only under the same or similar license to this
  one.

See http://creativecommons.org/licenses/by-sa/3.0/ for more details.
-->
<!DOCTYPE svg PUBLIC "-//W3C//DTD SVG 1.0//EN" "http://www.w3.org/TR/2001/REC-SVG-20010904/DTD/svg10.dtd" [
<!ATTLIST g
xmlns:kvg CDATA #FIXED "http://kanjivg.tagaini.net"
kvg:element CDATA #IMPLIED
kvg:variant CDATA #IMPLIED
kvg:partial CDATA #IMPLIED
kvg:original CDATA #IMPLIED
kvg:part CDATA #IMPLIED
kvg:number CDATA #IMPLIED
kvg:tradForm CDATA #IMPLIED
kvg:radicalForm CDATA #IMPLIED
kvg:position CDATA #IMPLIED
kvg:radical CDATA #IMPLIED
kvg:phon CDATA #IMPLIED >
<!ATTLIST path
xmlns:kvg CDATA #FIXED "http://kanjivg.tagaini.net"
kvg:type CDATA #IMPLIED >
]>
<svg xmlns="http://www.w3.org/2000/svg" width="109" height="109" viewBox="0 0 109 109">
<g id="kvg:StrokePaths_08237" style="fill:none;stroke:#000000;stroke-width:3;stroke-linecap:round;stroke-linejoin:round;">
<g id="kvg:08237" kvg:element="舷">
	<g id="kvg:08237-g1" kvg:element="舟" kvg:position="left" kvg:radical="general">
		<path id="kvg:08237-s1" kvg:type="㇒" d="M34.07,13.38c0.17,1.06-0.04,2.17-0.72,3.36c-0.8,1.41-4.39,7.83-8.61,13.39"/>
		<path id="kvg:08237-s2" kvg:type="㇒" d="M19.31,31.97c0.92,0.92,1.27,2.66,1.33,4.43c0.87,29.47-0.01,49.72-10.38,59.85"/>
		<path id="kvg:08237-s3" kvg:type="㇆a" d="M21.75,33.06c3.84-0.58,12.78-2.7,17.23-3.54c4.34-0.83,4.74,0.9,4.71,4.61c-0.05,8.47-0.07,52.69-0.07,55.63c0,9.05-5.47,2.1-6.27,1.47"/>
		<path id="kvg:08237-s4" kvg:type="㇔" d="M28.03,38.52c2.47,2.48,4.85,5.98,5.85,8.72"/>
		<path id="kvg:08237-s5" kvg:type="㇑" d="M30.3,58.39c1.09,1.09,1.2,1.99,1.2,3.81c0,1.27,0.1,12.3,0.1,18.21"/>
		<path id="kvg:08237-s6" kvg:type="㇀/㇐" d="M11,60.25c1,1,2.65,1.23,4,0.75c6.38-2.25,30.5-11.75,34.25-13.25"/>
	</g>
	<g id="kvg:08237-g2" kvg:element="玄" kvg:position="right">
		<g id="kvg:08237-g3" kvg:element="亠" kvg:position="top">
			<path id="kvg:08237-s7" kvg:type="㇑a" d="M71.61,13.5c1.07,1.07,0.98,2.75,0.98,4.38c0,3.75-0.09,7.87-0.09,10.25"/>
			<path id="kvg:08237-s8" kvg:type="㇐" d="M53,30.73c2.77,0.57,5.48,0.24,8.28-0.16c7.47-1.06,18.47-2.31,27.08-2.94c2.96-0.22,5.78-0.59,8.63,0.09"/>
		</g>
		<g id="kvg:08237-g4" kvg:element="幺" kvg:position="bottom">
			<path id="kvg:08237-s9" kvg:type="㇜" d="M71.59,32.78c0.28,1.47-0.1,2.66-0.93,4.14c-3.79,6.77-6.67,11.04-12.49,17.99c-1.35,1.61-1.82,3.13,0.53,3.96c4.69,1.64,8.3,3.13,12.8,5.44"/>
			<path id="kvg:08237-s10" kvg:type="㇜" d="M85.96,42.84c0,1.66-0.38,3-1.25,4.31C75.12,61.52,70.72,68.65,57,85.73c-2.41,3.01-2.24,4.47,1.89,3.59C69.88,87,70.12,87,86.88,83"/>
			<path id="kvg:08237-s11" kvg:type="㇔" d="M81.71,71.1c4.32,4.02,11.17,16.51,12.25,22.76"/>
		</g>
	</g>
</g>
</g>
<g id="kvg:StrokeNumbers_08237" style="font-size:8;fill:#808080">
	<text transform="matrix(1 0 0 1 24.50 12.50)">1</text>
	<text transform="matrix(1 0 0 1 13.25 40.30)">2</text>
	<text transform="matrix(1 0 0 1 33.50 27.50)">3</text>
	<text transform="matrix(1 0 0 1 31.50 39.40)">4</text>
	<text transform="matrix(1 0 0 1 24.50 66.50)">5</text>
	<text transform="matrix(1 0 0 1 3.50 63.50)">6</text>
	<text transform="matrix(1 0 0 1 62.50 13.50)">7</text>
	<text transform="matrix(1 0 0 1 50.50 27.50)">8</text>
	<text transform="matrix(1 0 0 1 62.50 39.50)">9</text>
	<text transform="matrix(1 0 0 1 74.00 44.95)">10</text>
	<text transform="matrix(1 0 0 1 82.50 70.50)">11</text>
</g>
</svg>
