<?xml version="1.0" encoding="UTF-8"?>
<!--
Copyright (C) 2009/2010/2011 Ulrich Apel.
This work is distributed under the conditions of the Creative Commons 
Attribution-Share Alike 3.0 Licence. This means you are free:
* to Share - to copy, distribute and transmit the work
* to Remix - to adapt the work

Under the following conditions:
* Attribution. You must attribute the work by stating your use of KanjiVG in
  your own copyright header and linking to KanjiVG's website
  (http://kanjivg.tagaini.net)
* Share Alike. If you alter, transform, or build upon this work, you may
  distribute the resulting work only under the same or similar license to this
  one.

See http://creativecommons.org/licenses/by-sa/3.0/ for more details.
-->
<!DOCTYPE svg PUBLIC "-//W3C//DTD SVG 1.0//EN" "http://www.w3.org/TR/2001/REC-SVG-20010904/DTD/svg10.dtd" [
<!ATTLIST g
xmlns:kvg CDATA #FIXED "http://kanjivg.tagaini.net"
kvg:element CDATA #IMPLIED
kvg:variant CDATA #IMPLIED
kvg:partial CDATA #IMPLIED
kvg:original CDATA #IMPLIED
kvg:part CDATA #IMPLIED
kvg:number CDATA #IMPLIED
kvg:tradForm CDATA #IMPLIED
kvg:radicalForm CDATA #IMPLIED
kvg:position CDATA #IMPLIED
kvg:radical CDATA #IMPLIED
kvg:phon CDATA #IMPLIED >
<!ATTLIST path
xmlns:kvg CDATA #FIXED "http://kanjivg.tagaini.net"
kvg:type CDATA #IMPLIED >
]>
<svg xmlns="http://www.w3.org/2000/svg" width="109" height="109" viewBox="0 0 109 109">
<g id="kvg:StrokePaths_08268" style="fill:none;stroke:#000000;stroke-width:3;stroke-linecap:round;stroke-linejoin:round;">
<g id="kvg:08268" kvg:element="艨">
	<g id="kvg:08268-g1" kvg:element="舟" kvg:position="left" kvg:radical="general">
		<path id="kvg:08268-s1" kvg:type="㇒" d="M27.08,12.92c0.67,1.08,0.17,2.33-0.33,3.83C26,19,24.5,21.5,20.67,27.58"/>
		<path id="kvg:08268-s2" kvg:type="㇒" d="M16.92,28.58c0.73,1.29,1,2.4,1,4s0.1,22.57,0.19,25.46c0.36,12.65-3.6,31.21-8.52,36.87"/>
		<path id="kvg:08268-s3" kvg:type="㇆a" d="M18.92,29.92c3.54-0.63,9.63-1.87,12.83-2.5c3.2-0.63,3.78,0.65,3.78,2.84c0,2.19-0.34,55.38-0.34,58.51c0,9.73-4.94,2.44-5.61,1.82"/>
		<path id="kvg:08268-s4" kvg:type="㇔" d="M22.7,35.86c1.52,2.03,5.3,7.44,5.67,9.8"/>
		<path id="kvg:08268-s5" kvg:type="㇑" d="M25.8,56.64c1,1.6,1.2,2.56,1.2,3.84c0,1.28,0,17.17-0.4,20.35"/>
		<path id="kvg:08268-s6" kvg:type="㇀/㇐" d="M10.42,57.75c1.58,1.25,3.51,1,4.59,0.65c1.09-0.35,20.24-8.15,24.82-9.74"/>
	</g>
	<g id="kvg:08268-g2" kvg:element="蒙" kvg:position="right">
		<g id="kvg:08268-g3" kvg:element="艹" kvg:variant="true" kvg:original="艸" kvg:position="top">
			<path id="kvg:08268-s7" kvg:type="㇐" d="M45.75,22.58c0.83,0.37,4.08,0.26,4.92,0.19c7.66-0.68,28.75-2.47,37.58-2.52c1.39-0.01,4.31,0.31,5,0.5"/>
			<path id="kvg:08268-s8" kvg:type="㇑a" d="M55.75,13.58c1.5,0.42,1.88,1.85,2,2.5c1.1,6.12,1.69,9.77,2,12"/>
			<path id="kvg:08268-s9" kvg:type="㇑a" d="M77.75,12.25c0.66,0.59,0.83,1.67,0.5,3.67c-0.45,2.68-1.21,6.8-2.17,10.17"/>
		</g>
		<g id="kvg:08268-g4" kvg:position="bottom">
			<g id="kvg:08268-g5" kvg:element="冖">
				<path id="kvg:08268-s10" kvg:type="㇔" d="M47.37,30.3c0,3.16-2.06,11.36-2.87,13.47"/>
				<path id="kvg:08268-s11" kvg:type="㇖b" d="M48.3,34.21c14.87-2.88,39.48-4.68,40.78-4.79c8.48-0.71,4.51,3.56,1.33,6.83"/>
			</g>
			<path id="kvg:08268-s12" kvg:type="㇐" d="M55.92,41.08c0.74,0.41,3.92,0.52,4.67,0.5c4.08-0.12,10.92-1.58,16-2c1.25-0.1,3.88,0.29,4.5,0.5"/>
			<g id="kvg:08268-g6" kvg:element="豕">
				<path id="kvg:08268-s13" kvg:type="㇐" d="M47.75,50.58c1.16,0.47,4.51,0.69,5.67,0.67c7.9-0.18,25.44-3.37,35.65-3.61c1.92-0.04,3.08,0.22,4.04,0.46"/>
				<path id="kvg:08268-s14" kvg:type="㇒" d="M67.76,51.88c0.06,0.34,0.12,0.87-0.12,1.35c-1.45,2.86-9.76,9.13-21.14,12.96"/>
				<path id="kvg:08268-s15" kvg:type="㇕v" d="M66.55,57.83c5.27,4.59,9.01,23.09,4.36,36.14c-2.05,5.75-5.14,0.93-5.83,0.28"/>
				<path id="kvg:08268-s16" kvg:type="㇒" d="M66.58,62.54c0.06,0.38,0.12,0.98-0.11,1.53c-1.35,3.22-9.13,10.3-19.77,14.63"/>
				<path id="kvg:08268-s17" kvg:type="㇒" d="M68.83,72.68c0.07,0.44,0.14,1.15-0.13,1.78c-1.62,3.76-11.74,10.99-24.43,16.04"/>
				<path id="kvg:08268-s18" kvg:type="㇒" d="M88.57,55.19c0.04,0.28,0.08,0.72-0.07,1.13c-0.86,2.38-5.81,7.61-12.57,10.81"/>
				<path id="kvg:08268-s19" kvg:type="㇏" d="M73.64,68.43c3.13,2.73,15.4,15.25,20.27,18.37c1.21,0.77,2.14,1.3,3.29,1.56"/>
			</g>
		</g>
	</g>
</g>
</g>
<g id="kvg:StrokeNumbers_08268" style="font-size:8;fill:#808080">
	<text transform="matrix(1 0 0 1 19.25 11.25)">1</text>
	<text transform="matrix(1 0 0 1 9.25 35.25)">2</text>
	<text transform="matrix(1 0 0 1 31.25 24.25)">3</text>
	<text transform="matrix(1 0 0 1 21.25 47.25)">4</text>
	<text transform="matrix(1 0 0 1 21.25 65.25)">5</text>
	<text transform="matrix(1 0 0 1 3.25 57.25)">6</text>
	<text transform="matrix(1 0 0 1 40.25 20.25)">7</text>
	<text transform="matrix(1 0 0 1 49.25 10.25)">8</text>
	<text transform="matrix(1 0 0 1 70.25 9.25)">9</text>
	<text transform="matrix(1 0 0 1 39.25 31.25)">10</text>
	<text transform="matrix(1 0 0 1 49.25 31.25)">11</text>
	<text transform="matrix(1 0 0 1 51.25 40.25)">12</text>
	<text transform="matrix(1 0 0 1 47.25 48.25)">13</text>
	<text transform="matrix(1 0 0 1 50.00 59.25)">14</text>
	<text transform="matrix(1 0 0 1 70.25 61.25)">15</text>
	<text transform="matrix(1 0 0 1 52.00 70.25)">16</text>
	<text transform="matrix(1 0 0 1 54.25 80.25)">17</text>
	<text transform="matrix(1 0 0 1 92.00 58.25)">18</text>
	<text transform="matrix(1 0 0 1 81.25 73.25)">19</text>
</g>
</svg>
