<?xml version="1.0" encoding="UTF-8"?>
<!--
Copyright (C) 2009/2010/2011 Ulrich Apel.
This work is distributed under the conditions of the Creative Commons 
Attribution-Share Alike 3.0 Licence. This means you are free:
* to Share - to copy, distribute and transmit the work
* to Remix - to adapt the work

Under the following conditions:
* Attribution. You must attribute the work by stating your use of KanjiVG in
  your own copyright header and linking to KanjiVG's website
  (http://kanjivg.tagaini.net)
* Share Alike. If you alter, transform, or build upon this work, you may
  distribute the resulting work only under the same or similar license to this
  one.

See http://creativecommons.org/licenses/by-sa/3.0/ for more details.
-->
<!DOCTYPE svg PUBLIC "-//W3C//DTD SVG 1.0//EN" "http://www.w3.org/TR/2001/REC-SVG-20010904/DTD/svg10.dtd" [
<!ATTLIST g
xmlns:kvg CDATA #FIXED "http://kanjivg.tagaini.net"
kvg:element CDATA #IMPLIED
kvg:variant CDATA #IMPLIED
kvg:partial CDATA #IMPLIED
kvg:original CDATA #IMPLIED
kvg:part CDATA #IMPLIED
kvg:number CDATA #IMPLIED
kvg:tradForm CDATA #IMPLIED
kvg:radicalForm CDATA #IMPLIED
kvg:position CDATA #IMPLIED
kvg:radical CDATA #IMPLIED
kvg:phon CDATA #IMPLIED >
<!ATTLIST path
xmlns:kvg CDATA #FIXED "http://kanjivg.tagaini.net"
kvg:type CDATA #IMPLIED >
]>
<svg xmlns="http://www.w3.org/2000/svg" width="109" height="109" viewBox="0 0 109 109">
<g id="kvg:StrokePaths_0827e" style="fill:none;stroke:#000000;stroke-width:3;stroke-linecap:round;stroke-linejoin:round;">
<g id="kvg:0827e" kvg:element="艾">
	<g id="kvg:0827e-g1" kvg:element="艹" kvg:variant="true" kvg:original="艸" kvg:position="top" kvg:radical="general">
		<path id="kvg:0827e-s1" kvg:type="㇐" d="M15.75,25.92c3.75,1.33,7,0.83,10.67,0.5c11.89-1.08,44.95-4.76,58.67-4.83c2.56-0.01,5.92,0.42,8,1.67"/>
		<path id="kvg:0827e-s2" kvg:type="㇑a" d="M35.08,11.42c1.67,0.83,2.97,2.29,3.17,3.17c1.81,8.25,2.65,20,3.17,23"/>
		<path id="kvg:0827e-s3" kvg:type="㇑a" d="M68.25,9.25c1.12,1,1.04,3.19,0.67,4.67c-1.12,4.5-3.54,14.42-5.17,20.17"/>
	</g>
	<g id="kvg:0827e-g2" kvg:element="乂" kvg:position="bottom">
		<g id="kvg:0827e-g3" kvg:element="丿">
			<path id="kvg:0827e-s4" kvg:type="㇒" d="M69.73,38.38c0.76,1.53,0.53,3.37-0.48,6.09C59.17,71.63,39.48,89.29,14.76,101.3"/>
		</g>
		<path id="kvg:0827e-s5" kvg:type="㇏" d="M30.25,43.42C34.61,43.63,49.5,75,77.91,93.75c3.24,2.14,7.23,4.71,9.41,5.36"/>
	</g>
</g>
</g>
<g id="kvg:StrokeNumbers_0827e" style="font-size:8;fill:#808080">
	<text transform="matrix(1 0 0 1 9.25 25.25)">1</text>
	<text transform="matrix(1 0 0 1 25.25 12.25)">2</text>
	<text transform="matrix(1 0 0 1 58.25 10.25)">3</text>
	<text transform="matrix(1 0 0 1 61.25 43.25)">4</text>
	<text transform="matrix(1 0 0 1 22.25 44.25)">5</text>
</g>
</svg>
