<?xml version="1.0" encoding="UTF-8"?>
<!--
Copyright (C) 2009/2010/2011 Ulrich Apel.
This work is distributed under the conditions of the Creative Commons 
Attribution-Share Alike 3.0 Licence. This means you are free:
* to Share - to copy, distribute and transmit the work
* to Remix - to adapt the work

Under the following conditions:
* Attribution. You must attribute the work by stating your use of KanjiVG in
  your own copyright header and linking to KanjiVG's website
  (http://kanjivg.tagaini.net)
* Share Alike. If you alter, transform, or build upon this work, you may
  distribute the resulting work only under the same or similar license to this
  one.

See http://creativecommons.org/licenses/by-sa/3.0/ for more details.
-->
<!DOCTYPE svg PUBLIC "-//W3C//DTD SVG 1.0//EN" "http://www.w3.org/TR/2001/REC-SVG-20010904/DTD/svg10.dtd" [
<!ATTLIST g
xmlns:kvg CDATA #FIXED "http://kanjivg.tagaini.net"
kvg:element CDATA #IMPLIED
kvg:variant CDATA #IMPLIED
kvg:partial CDATA #IMPLIED
kvg:original CDATA #IMPLIED
kvg:part CDATA #IMPLIED
kvg:number CDATA #IMPLIED
kvg:tradForm CDATA #IMPLIED
kvg:radicalForm CDATA #IMPLIED
kvg:position CDATA #IMPLIED
kvg:radical CDATA #IMPLIED
kvg:phon CDATA #IMPLIED >
<!ATTLIST path
xmlns:kvg CDATA #FIXED "http://kanjivg.tagaini.net"
kvg:type CDATA #IMPLIED >
]>
<svg xmlns="http://www.w3.org/2000/svg" width="109" height="109" viewBox="0 0 109 109">
<g id="kvg:StrokePaths_082b3" style="fill:none;stroke:#000000;stroke-width:3;stroke-linecap:round;stroke-linejoin:round;">
<g id="kvg:082b3" kvg:element="芳">
	<g id="kvg:082b3-g1" kvg:element="艹" kvg:variant="true" kvg:original="艸" kvg:position="top" kvg:radical="general">
		<path id="kvg:082b3-s1" kvg:type="㇐" d="M18.5,25.52c2.4,0.98,6.24,1.25,8.76,0.91c15.99-2.18,38.93-4.62,53.11-5.28c2.95-0.14,6.25,0.18,9.12,0.88"/>
		<path id="kvg:082b3-s2" kvg:type="㇑a" d="M36.5,13.25c0.88,0.88,1.5,2,1.75,3.75c1.23,8.58,1.12,10.75,1.75,17.5"/>
		<path id="kvg:082b3-s3" kvg:type="㇑a" d="M70.25,10.75c0.42,1.18,0.22,2.3-0.25,3.75c-2.75,8.5-4,13.38-6,19"/>
	</g>
	<g id="kvg:082b3-g2" kvg:element="方" kvg:position="bottom" kvg:phon="方">
		<g id="kvg:082b3-g3" kvg:element="亠" kvg:position="top">
			<path id="kvg:082b3-s4" kvg:type="㇑a" d="M52.84,32.52c1.13,1.13,1.52,2.61,1.52,4.28c0,1.46-0.11,6.46-0.11,8.08"/>
			<path id="kvg:082b3-s5" kvg:type="㇐" d="M14,48.37c3.62,0.88,6.66,0.48,10.25,0.13c13.58-1.32,43.9-3.8,59.62-4.78c3.29-0.21,7.77-0.21,10.88,0.95"/>
		</g>
		<g id="kvg:082b3-g4" kvg:position="bottom">
			<path id="kvg:082b3-s6" kvg:type="㇆a" d="M50.34,60.27c7.66,1.98,16.49,2.1,22.24,1.69c3.38-0.24,5.27,1.25,4.21,4.64c-2.17,6.95-12.49,25.57-16.78,29.27c-5.07,4.38-7.51-0.37-8.48-2.76"/>
			<path id="kvg:082b3-s7" kvg:type="㇒" d="M53.01,49.77c0.09,1-0.11,2.38-0.69,3.77c-4,9.6-14.94,27.59-33.07,37.73"/>
		</g>
	</g>
</g>
</g>
<g id="kvg:StrokeNumbers_082b3" style="font-size:8;fill:#808080">
	<text transform="matrix(1 0 0 1 12.75 26.50)">1</text>
	<text transform="matrix(1 0 0 1 27.50 13.63)">2</text>
	<text transform="matrix(1 0 0 1 60.75 10.63)">3</text>
	<text transform="matrix(1 0 0 1 44.25 34.50)">4</text>
	<text transform="matrix(1 0 0 1 6.75 49.50)">5</text>
	<text transform="matrix(1 0 0 1 57.50 59.50)">6</text>
	<text transform="matrix(1 0 0 1 43.50 56.50)">7</text>
</g>
</svg>
