<?xml version="1.0" encoding="UTF-8"?>
<!--
Copyright (C) 2009/2010/2011 Ulrich Apel.
This work is distributed under the conditions of the Creative Commons 
Attribution-Share Alike 3.0 Licence. This means you are free:
* to Share - to copy, distribute and transmit the work
* to Remix - to adapt the work

Under the following conditions:
* Attribution. You must attribute the work by stating your use of KanjiVG in
  your own copyright header and linking to KanjiVG's website
  (http://kanjivg.tagaini.net)
* Share Alike. If you alter, transform, or build upon this work, you may
  distribute the resulting work only under the same or similar license to this
  one.

See http://creativecommons.org/licenses/by-sa/3.0/ for more details.
-->
<!DOCTYPE svg PUBLIC "-//W3C//DTD SVG 1.0//EN" "http://www.w3.org/TR/2001/REC-SVG-20010904/DTD/svg10.dtd" [
<!ATTLIST g
xmlns:kvg CDATA #FIXED "http://kanjivg.tagaini.net"
kvg:element CDATA #IMPLIED
kvg:variant CDATA #IMPLIED
kvg:partial CDATA #IMPLIED
kvg:original CDATA #IMPLIED
kvg:part CDATA #IMPLIED
kvg:number CDATA #IMPLIED
kvg:tradForm CDATA #IMPLIED
kvg:radicalForm CDATA #IMPLIED
kvg:position CDATA #IMPLIED
kvg:radical CDATA #IMPLIED
kvg:phon CDATA #IMPLIED >
<!ATTLIST path
xmlns:kvg CDATA #FIXED "http://kanjivg.tagaini.net"
kvg:type CDATA #IMPLIED >
]>
<svg xmlns="http://www.w3.org/2000/svg" width="109" height="109" viewBox="0 0 109 109">
<g id="kvg:StrokePaths_08306" style="fill:none;stroke:#000000;stroke-width:3;stroke-linecap:round;stroke-linejoin:round;">
<g id="kvg:08306" kvg:element="茆">
	<g id="kvg:08306-g1" kvg:element="艹" kvg:variant="true" kvg:original="艸" kvg:position="top" kvg:radical="general">
		<path id="kvg:08306-s1" kvg:type="㇐" d="M17.58,22.25c1.34,0.53,5.04,0.44,6.39,0.33c12.33-0.96,43.67-4.09,57.88-4.17c2.24-0.01,5.62,0.4,6.73,0.67"/>
		<path id="kvg:08306-s2" kvg:type="㇑a" d="M36.25,11.42c1.5,0.83,2.75,2.22,2.88,3.04c1.14,7.61,1.8,15.2,2.12,17.96"/>
		<path id="kvg:08306-s3" kvg:type="㇑a" d="M66.58,9.75c1.17,1.5,1.24,3.2,0.88,4.61c-1.21,4.72-2.07,10.91-4.38,16.22"/>
	</g>
	<g id="kvg:08306-g2" kvg:element="卯" kvg:position="bottom">
		<g id="kvg:08306-g3" kvg:position="left">
			<path id="kvg:08306-s4" kvg:type="㇒" d="M47.19,33.25c-0.19,1-0.25,1.4-0.63,1.76c-4.64,4.41-10.99,7.96-23.08,11.52"/>
			<path id="kvg:08306-s5" kvg:type="㇙" d="M19.08,45.25c0.88,0.37,1.65,1.97,1.65,2.74c0,5.76,0.37,26.54,0.18,28.39c-0.18,1.67-1.59,4.83,0.53,3.53c2.12-1.3,17.17-8.83,24.48-12.66"/>
			<g id="kvg:08306-g4" kvg:element="丿">
				<path id="kvg:08306-s6" kvg:type="㇒" d="M45.08,43.92c1.29,0.71,2.17,2.85,2.17,4.67c0,14.18,2.41,37.43-22.78,49.49"/>
			</g>
		</g>
		<g id="kvg:08306-g5" kvg:element="卩" kvg:position="right">
			<path id="kvg:08306-s7" kvg:type="㇆" d="M59.75,36.92c0.75,0.21,2.9,1.28,4.42,1.17c4.58-0.33,18.23-2.12,20.11-2.33c1.88-0.21,4.7-0.42,4.89,4.02c0.09,2.12-0.8,25.25-2.75,34.97c-2.26,11.25-6.58,3.06-7.14,2.64"/>
			<path id="kvg:08306-s8" kvg:type="㇑" d="M63.03,38.61c0.02,0.14,0.53,2.18,0.54,3.89c0.07,11.17-0.06,50.96-0.19,56.58"/>
		</g>
	</g>
</g>
</g>
<g id="kvg:StrokeNumbers_08306" style="font-size:8;fill:#808080">
	<text transform="matrix(1 0 0 1 11.25 22.25)">1</text>
	<text transform="matrix(1 0 0 1 28.41 12.25)">2</text>
	<text transform="matrix(1 0 0 1 58.25 10.25)">3</text>
	<text transform="matrix(1 0 0 1 47.25 30.25)">4</text>
	<text transform="matrix(1 0 0 1 12.25 53.25)">5</text>
	<text transform="matrix(1 0 0 1 37.25 50.00)">6</text>
	<text transform="matrix(1 0 0 1 67.25 34.25)">7</text>
	<text transform="matrix(1 0 0 1 55.25 46.25)">8</text>
</g>
</svg>
