<?xml version="1.0" encoding="UTF-8"?>
<!--
Copyright (C) 2009/2010/2011 Ulrich Apel.
This work is distributed under the conditions of the Creative Commons 
Attribution-Share Alike 3.0 Licence. This means you are free:
* to Share - to copy, distribute and transmit the work
* to Remix - to adapt the work

Under the following conditions:
* Attribution. You must attribute the work by stating your use of KanjiVG in
  your own copyright header and linking to KanjiVG's website
  (http://kanjivg.tagaini.net)
* Share Alike. If you alter, transform, or build upon this work, you may
  distribute the resulting work only under the same or similar license to this
  one.

See http://creativecommons.org/licenses/by-sa/3.0/ for more details.
-->
<!DOCTYPE svg PUBLIC "-//W3C//DTD SVG 1.0//EN" "http://www.w3.org/TR/2001/REC-SVG-20010904/DTD/svg10.dtd" [
<!ATTLIST g
xmlns:kvg CDATA #FIXED "http://kanjivg.tagaini.net"
kvg:element CDATA #IMPLIED
kvg:variant CDATA #IMPLIED
kvg:partial CDATA #IMPLIED
kvg:original CDATA #IMPLIED
kvg:part CDATA #IMPLIED
kvg:number CDATA #IMPLIED
kvg:tradForm CDATA #IMPLIED
kvg:radicalForm CDATA #IMPLIED
kvg:position CDATA #IMPLIED
kvg:radical CDATA #IMPLIED
kvg:phon CDATA #IMPLIED >
<!ATTLIST path
xmlns:kvg CDATA #FIXED "http://kanjivg.tagaini.net"
kvg:type CDATA #IMPLIED >
]>
<svg xmlns="http://www.w3.org/2000/svg" width="109" height="109" viewBox="0 0 109 109">
<g id="kvg:StrokePaths_08334" style="fill:none;stroke:#000000;stroke-width:3;stroke-linecap:round;stroke-linejoin:round;">
<g id="kvg:08334" kvg:element="茴">
	<g id="kvg:08334-g1" kvg:element="艹" kvg:variant="true" kvg:original="艸" kvg:position="top" kvg:radical="general">
		<path id="kvg:08334-s1" kvg:type="㇐" d="M16.25,23.42c1.72,0.7,5.62,1.19,8,1c11.9-0.96,46.61-4.43,60.33-4.5c2.32-0.01,7.14,0.58,8.17,0.83"/>
		<path id="kvg:08334-s2" kvg:type="㇑a" d="M37.58,12.25c2.17,0.5,3.04,2.64,3.17,3.5c1.14,8.06,1.34,14.74,1.67,17.67"/>
		<path id="kvg:08334-s3" kvg:type="㇑a" d="M66.92,11.25c1.08,1.25,1.32,2.15,1.17,3.67c-0.5,4.83-1.33,10.08-3,17"/>
	</g>
	<g id="kvg:08334-g2" kvg:element="回" kvg:position="bottom">
		<g id="kvg:08334-g3" kvg:element="囗" kvg:part="1">
			<path id="kvg:08334-s4" kvg:type="㇑" d="M23.42,41.42c2,1.17,2.17,2.84,2.33,4.5c1.07,11.26,1.26,28.64,2.83,50.67"/>
			<path id="kvg:08334-s5" kvg:type="㇕a" d="M26.92,43.25c17.83-1.5,43.83-3.5,55.33-4.17c2.23-0.13,4.11,2.22,3.85,4.88c-1.22,12.64-2.9,33.22-5.34,50.29"/>
		</g>
		<g id="kvg:08334-g4" kvg:element="口">
			<path id="kvg:08334-s6" kvg:type="㇑" d="M39.92,56.92c0.38,0.36,1.5,2.22,1.67,2.67c1.33,3.54,1.86,11.81,3,18.17"/>
			<path id="kvg:08334-s7" kvg:type="㇕b" d="M41.58,58.08c7.17-0.33,19-1.68,23.17-2.17c1.52-0.18,2.22,0.37,2,1.41c-0.9,4.3-1.96,9.49-3.3,15.44"/>
			<path id="kvg:08334-s8" kvg:type="㇐b" d="M44.92,75.08c6.08-0.33,12-1.17,19.67-1.5"/>
		</g>
		<g id="kvg:08334-g5" kvg:element="囗" kvg:part="2">
			<path id="kvg:08334-s9" kvg:type="㇐a" d="M29.25,92.25c12.95-0.47,35.83-1.33,51.5-2"/>
		</g>
	</g>
</g>
</g>
<g id="kvg:StrokeNumbers_08334" style="font-size:8;fill:#808080">
	<text transform="matrix(1 0 0 1 9.25 24.25)">1</text>
	<text transform="matrix(1 0 0 1 29.25 12.25)">2</text>
	<text transform="matrix(1 0 0 1 58.25 10.25)">3</text>
	<text transform="matrix(1 0 0 1 18.25 51.25)">4</text>
	<text transform="matrix(1 0 0 1 27.25 39.25)">5</text>
	<text transform="matrix(1 0 0 1 34.25 65.25)">6</text>
	<text transform="matrix(1 0 0 1 44.25 55.25)">7</text>
	<text transform="matrix(1 0 0 1 47.25 71.25)">8</text>
	<text transform="matrix(1 0 0 1 32.25 89.25)">9</text>
</g>
</svg>
