<?xml version="1.0" encoding="UTF-8"?>
<!--
Copyright (C) 2009/2010/2011 Ulrich Apel.
This work is distributed under the conditions of the Creative Commons 
Attribution-Share Alike 3.0 Licence. This means you are free:
* to Share - to copy, distribute and transmit the work
* to Remix - to adapt the work

Under the following conditions:
* Attribution. You must attribute the work by stating your use of KanjiVG in
  your own copyright header and linking to KanjiVG's website
  (http://kanjivg.tagaini.net)
* Share Alike. If you alter, transform, or build upon this work, you may
  distribute the resulting work only under the same or similar license to this
  one.

See http://creativecommons.org/licenses/by-sa/3.0/ for more details.
-->
<!DOCTYPE svg PUBLIC "-//W3C//DTD SVG 1.0//EN" "http://www.w3.org/TR/2001/REC-SVG-20010904/DTD/svg10.dtd" [
<!ATTLIST g
xmlns:kvg CDATA #FIXED "http://kanjivg.tagaini.net"
kvg:element CDATA #IMPLIED
kvg:variant CDATA #IMPLIED
kvg:partial CDATA #IMPLIED
kvg:original CDATA #IMPLIED
kvg:part CDATA #IMPLIED
kvg:number CDATA #IMPLIED
kvg:tradForm CDATA #IMPLIED
kvg:radicalForm CDATA #IMPLIED
kvg:position CDATA #IMPLIED
kvg:radical CDATA #IMPLIED
kvg:phon CDATA #IMPLIED >
<!ATTLIST path
xmlns:kvg CDATA #FIXED "http://kanjivg.tagaini.net"
kvg:type CDATA #IMPLIED >
]>
<svg xmlns="http://www.w3.org/2000/svg" width="109" height="109" viewBox="0 0 109 109">
<g id="kvg:StrokePaths_083df" style="fill:none;stroke:#000000;stroke-width:3;stroke-linecap:round;stroke-linejoin:round;">
<g id="kvg:083df" kvg:element="菟">
	<g id="kvg:083df-g1" kvg:element="艹" kvg:variant="true" kvg:original="艸" kvg:position="top" kvg:radical="general">
		<path id="kvg:083df-s1" kvg:type="㇐" d="M19,21.89c1.32,0.41,2.86,0.49,4.19,0.41c12.16-0.75,47.92-3.49,61.93-3.54c2.2-0.01,3.53,0.2,4.63,0.4"/>
		<path id="kvg:083df-s2" kvg:type="㇑a" d="M39.75,10.5c1.25,1.15,1.65,1.5,1.79,2.21c1.25,6.62,1.61,12.64,1.96,15.04"/>
		<path id="kvg:083df-s3" kvg:type="㇑a" d="M68.12,9.75c0.89,0.79,1.48,2,1.19,3.17c-0.89,3.57-1.49,9.52-2.78,14.08"/>
	</g>
	<g id="kvg:083df-g2" kvg:position="bottom">
		<g id="kvg:083df-g3" kvg:element="兔" kvg:variant="true">
			<g id="kvg:083df-g4" kvg:element="免">
				<g id="kvg:083df-g5" kvg:position="top">
					<g id="kvg:083df-g6" kvg:element="𠂊" kvg:variant="true" kvg:original="勹">
						<path id="kvg:083df-s4" kvg:type="㇒" d="M48.13,30.4c0.07,0.44,0.14,1.15-0.14,1.79c-1.66,3.77-10.71,12.03-23.79,17.09"/>
						<path id="kvg:083df-s5" kvg:type="㇇" d="M45.11,37.29c2.77,0,15.56-1.93,18.47-2.14c2.5-0.18,2.7,2.38,1.74,3.38C62,42,59.5,45,54.87,51.24"/>
					</g>
					<path id="kvg:083df-s6" kvg:type="㇑" d="M27.39,53.26c0.35,0.43,0.71,0.79,0.86,1.33c1.21,4.29,1.6,9.48,2.42,17.18"/>
					<path id="kvg:083df-s7" kvg:type="㇕" d="M29.95,54.06c12.69-1.58,42.72-2.15,49.26-2.69c2.39-0.19,3.83,1.96,3.49,3.11c-1.42,4.74-2.94,10.27-4.07,13.65"/>
					<path id="kvg:083df-s8" kvg:type="㇑" d="M53.35,53.77c0.77,0.81,1.07,2.42,1.07,3.43c0,3.84,0,8.08,0,9.69"/>
					<path id="kvg:083df-s9" kvg:type="㇐" d="M31.12,69.32c5.13-0.4,42.16-2.12,47.81-2.33"/>
				</g>
				<g id="kvg:083df-g7" kvg:element="儿" kvg:original="八" kvg:position="bottom">
					<g id="kvg:083df-g8" kvg:element="丿" kvg:position="left">
						<path id="kvg:083df-s10" kvg:type="㇒" d="M45.11,71.23c0.08,0.68,0.17,1.75-0.16,2.73c-1.94,5.76-11.11,19.9-28.28,26.13"/>
					</g>
					<g id="kvg:083df-g9" kvg:position="right">
						<path id="kvg:083df-s11" kvg:type="㇟" d="M58.49,69.82c0.69,0.89,1.27,1.94,1.27,3.32c0,5.36,0.01,12.84,0.01,17.01c0,9.74,7.75,8.64,15.87,8.64c8.57,0,14.21-1.26,15.41-1.96c2.55-1.5,1.85-2.25,2.08-4.87"/>
					</g>
				</g>
			</g>
		</g>
		<g id="kvg:083df-g10" kvg:element="丶">
			<path id="kvg:083df-s12" kvg:type="㇔" d="M69.27,77.33c3.54,1.83,9.16,7.53,10.04,10.38"/>
		</g>
	</g>
</g>
</g>
<g id="kvg:StrokeNumbers_083df" style="font-size:8;fill:#808080">
	<text transform="matrix(1 0 0 1 12.50 21.50)">1</text>
	<text transform="matrix(1 0 0 1 30.50 11.50)">2</text>
	<text transform="matrix(1 0 0 1 60.50 10.50)">3</text>
	<text transform="matrix(1 0 0 1 37.50 35.50)">4</text>
	<text transform="matrix(1 0 0 1 53.50 33.50)">5</text>
	<text transform="matrix(1 0 0 1 21.50 60.50)">6</text>
	<text transform="matrix(1 0 0 1 37.50 50.50)">7</text>
	<text transform="matrix(1 0 0 1 46.25 61.10)">8</text>
	<text transform="matrix(1 0 0 1 34.50 65.50)">9</text>
	<text transform="matrix(1 0 0 1 33.50 78.50)">10</text>
	<text transform="matrix(1 0 0 1 50.50 78.50)">11</text>
	<text transform="matrix(1 0 0 1 73.50 77.88)">12</text>
</g>
</svg>
