<?xml version="1.0" encoding="UTF-8"?>
<!--
Copyright (C) 2009/2010/2011 Ulrich Apel.
This work is distributed under the conditions of the Creative Commons 
Attribution-Share Alike 3.0 Licence. This means you are free:
* to Share - to copy, distribute and transmit the work
* to Remix - to adapt the work

Under the following conditions:
* Attribution. You must attribute the work by stating your use of KanjiVG in
  your own copyright header and linking to KanjiVG's website
  (http://kanjivg.tagaini.net)
* Share Alike. If you alter, transform, or build upon this work, you may
  distribute the resulting work only under the same or similar license to this
  one.

See http://creativecommons.org/licenses/by-sa/3.0/ for more details.
-->
<!DOCTYPE svg PUBLIC "-//W3C//DTD SVG 1.0//EN" "http://www.w3.org/TR/2001/REC-SVG-20010904/DTD/svg10.dtd" [
<!ATTLIST g
xmlns:kvg CDATA #FIXED "http://kanjivg.tagaini.net"
kvg:element CDATA #IMPLIED
kvg:variant CDATA #IMPLIED
kvg:partial CDATA #IMPLIED
kvg:original CDATA #IMPLIED
kvg:part CDATA #IMPLIED
kvg:number CDATA #IMPLIED
kvg:tradForm CDATA #IMPLIED
kvg:radicalForm CDATA #IMPLIED
kvg:position CDATA #IMPLIED
kvg:radical CDATA #IMPLIED
kvg:phon CDATA #IMPLIED >
<!ATTLIST path
xmlns:kvg CDATA #FIXED "http://kanjivg.tagaini.net"
kvg:type CDATA #IMPLIED >
]>
<svg xmlns="http://www.w3.org/2000/svg" width="109" height="109" viewBox="0 0 109 109">
<g id="kvg:StrokePaths_083fd-HzFst" style="fill:none;stroke:#000000;stroke-width:3;stroke-linecap:round;stroke-linejoin:round;">
<g id="kvg:083fd-HzFst" kvg:element="菽">
	<g id="kvg:083fd-HzFst-g1" kvg:element="艹" kvg:variant="true" kvg:original="艸" kvg:position="top" kvg:radical="general">
		<path id="kvg:083fd-HzFst-s1" kvg:type="㇐" d="M16.67,24.33c1.29,0.53,6.63,0.57,7.93,0.46C36.5,23.83,70.95,21,84.67,21c3.33,0,8.09,0.9,9.17,1.17"/>
		<path id="kvg:083fd-HzFst-s2" kvg:type="㇑a" d="M35.33,13.5c1.83,0.83,3.06,2.45,3.25,3.29c1.75,7.87,2.08,13.18,2.58,16.04"/>
		<path id="kvg:083fd-HzFst-s3" kvg:type="㇑a" d="M67.67,11.33c1.08,0.92,1.37,3.52,1,5c-1.12,4.5-2.54,8.75-4.17,14.5"/>
	</g>
	<g id="kvg:083fd-HzFst-g2" kvg:element="叔" kvg:position="bottom">
		<g id="kvg:083fd-HzFst-g3" kvg:position="left">
			<g id="kvg:083fd-HzFst-g4" kvg:element="上" kvg:position="top">
				<g id="kvg:083fd-HzFst-g5" kvg:element="卜" kvg:original="ト">
					<path id="kvg:083fd-HzFst-s4" kvg:type="㇐/㇔" d="M34.75,43.04c1.77,0,8.49-1.36,13.67-1.89c1.85-0.19,2.7-0.36,3.78-0.13"/>
					<path id="kvg:083fd-HzFst-s5" kvg:type="㇑" d="M32.17,32c1.42,0.49,1.83,2.25,1.83,3.67c0,0.41,0.38,16.42,0.27,18.9"/>
				</g>
				<g id="kvg:083fd-HzFst-g6" kvg:element="一">
					<path id="kvg:083fd-HzFst-s6" kvg:type="㇐" d="M13.83,56.5c1.89,0.74,4.18,0.39,7.67,0c9-1,18.4-2.41,27-2.67c2.75-0.08,5.52-0.24,6.5,0.17"/>
				</g>
			</g>
			<g id="kvg:083fd-HzFst-g7" kvg:element="小" kvg:position="bottom">
				<path id="kvg:083fd-HzFst-s7" kvg:type="㇚" d="M33.04,56.45c0.46,1.05,1.04,1.87,1.04,4.15c0,11.93-0.11,25.53-0.11,29.25c0,8.46-4.83,1.92-5.48,0.98"/>
				<path id="kvg:083fd-HzFst-s8" kvg:type="㇒" d="M22.14,65.34c0.03,0.56,0.06,1.43-0.06,2.23c-0.67,4.7-4.53,15.02-9.8,21.33"/>
				<path id="kvg:083fd-HzFst-s9" kvg:type="㇔" d="M42.82,65.62c3.59,3.2,9.28,13.15,10.18,18.12"/>
			</g>
		</g>
		<g id="kvg:083fd-HzFst-g8" kvg:element="又" kvg:position="right">
			<path id="kvg:083fd-HzFst-s10" kvg:type="㇇" d="M58.33,41.83c1.18,0.39,2.47,0.75,4.83,0.17c2.36-0.58,16.08-3.25,19-3.33c2.2-0.06,3.44,2.04,2.83,4.17c-8,27.92-16.75,41.42-38.5,54.33"/>
			<path id="kvg:083fd-HzFst-s11" kvg:type="㇏" d="M59.42,47.49c5.33,8.76,17.33,32.26,30.25,44.84c1.97,1.92,3.31,3.68,5.1,4.33"/>
		</g>
	</g>
</g>
</g>
<g id="kvg:StrokeNumbers_083fd-HzFst" style="font-size:8;fill:#808080">
	<text transform="matrix(1 0 0 1 9.50 22.50)">1</text>
	<text transform="matrix(1 0 0 1 27.50 13.50)">2</text>
	<text transform="matrix(1 0 0 1 58.50 10.50)">3</text>
	<text transform="matrix(1 0 0 1 45.50 37.50)">4</text>
	<text transform="matrix(1 0 0 1 22.50 35.40)">5</text>
	<text transform="matrix(1 0 0 1 5.50 54.50)">6</text>
	<text transform="matrix(1 0 0 1 25.50 65.50)">7</text>
	<text transform="matrix(1 0 0 1 13.50 67.50)">8</text>
	<text transform="matrix(1 0 0 1 46.25 64.03)">9</text>
	<text transform="matrix(1 0 0 1 55.50 38.50)">10</text>
	<text transform="matrix(1 0 0 1 63.50 51.50)">11</text>
</g>
</svg>
