<?xml version="1.0" encoding="UTF-8"?>
<!--
Copyright (C) 2009/2010/2011 Ulrich Apel.
This work is distributed under the conditions of the Creative Commons 
Attribution-Share Alike 3.0 Licence. This means you are free:
* to Share - to copy, distribute and transmit the work
* to Remix - to adapt the work

Under the following conditions:
* Attribution. You must attribute the work by stating your use of KanjiVG in
  your own copyright header and linking to KanjiVG's website
  (http://kanjivg.tagaini.net)
* Share Alike. If you alter, transform, or build upon this work, you may
  distribute the resulting work only under the same or similar license to this
  one.

See http://creativecommons.org/licenses/by-sa/3.0/ for more details.
-->
<!DOCTYPE svg PUBLIC "-//W3C//DTD SVG 1.0//EN" "http://www.w3.org/TR/2001/REC-SVG-20010904/DTD/svg10.dtd" [
<!ATTLIST g
xmlns:kvg CDATA #FIXED "http://kanjivg.tagaini.net"
kvg:element CDATA #IMPLIED
kvg:variant CDATA #IMPLIED
kvg:partial CDATA #IMPLIED
kvg:original CDATA #IMPLIED
kvg:part CDATA #IMPLIED
kvg:number CDATA #IMPLIED
kvg:tradForm CDATA #IMPLIED
kvg:radicalForm CDATA #IMPLIED
kvg:position CDATA #IMPLIED
kvg:radical CDATA #IMPLIED
kvg:phon CDATA #IMPLIED >
<!ATTLIST path
xmlns:kvg CDATA #FIXED "http://kanjivg.tagaini.net"
kvg:type CDATA #IMPLIED >
]>
<svg xmlns="http://www.w3.org/2000/svg" width="109" height="109" viewBox="0 0 109 109">
<g id="kvg:StrokePaths_083f1" style="fill:none;stroke:#000000;stroke-width:3;stroke-linecap:round;stroke-linejoin:round;">
<g id="kvg:083f1" kvg:element="菱">
	<g id="kvg:083f1-g1" kvg:element="艹" kvg:variant="true" kvg:original="艸" kvg:position="top" kvg:radical="general">
		<path id="kvg:083f1-s1" kvg:type="㇐" d="M24,20.27c1.29,0.53,2.8,0.63,4.1,0.53c11.9-0.96,41.4-3.96,55.12-4.03c2.16-0.01,3.45,0.25,4.53,0.51"/>
		<path id="kvg:083f1-s2" kvg:type="㇑a" d="M39.25,10.5c1.75,1.43,2.43,1.85,2.5,2.75C42.12,18,42.5,25.5,43,28.5"/>
		<path id="kvg:083f1-s3" kvg:type="㇑a" d="M69.75,9.25c0.42,1.18,0.78,2.01,0.5,3.5c-1.38,7.25-1.62,11.5-2,13.25"/>
	</g>
	<g id="kvg:083f1-g2" kvg:position="bottom">
		<g id="kvg:083f1-g3" kvg:position="top">
			<g id="kvg:083f1-g4" kvg:element="土">
				<path id="kvg:083f1-s4" kvg:type="㇐" d="M32.57,36.57c0.9,0.23,2.56,0.29,3.46,0.23c11.61-0.78,28.01-3.44,39.69-3.64c1.51-0.03,2.41,0.11,3.16,0.23"/>
				<path id="kvg:083f1-s5" kvg:type="㇑a" d="M53.45,25.62c0.13,0.2,1.83,1.03,1.83,2.3c0,3.98,0.26,11.77,0.26,17.76"/>
				<path id="kvg:083f1-s6" kvg:type="㇐" d="M18.64,49.37c1.44,0.54,4.08,0.66,5.52,0.54c17.83-1.5,49.6-4.48,65.55-5.18c2.4-0.11,3.84,0.26,5.04,0.52"/>
			</g>
			<g id="kvg:083f1-g5" kvg:element="八" kvg:original="儿">
				<g id="kvg:083f1-g6" kvg:element="丿" kvg:position="left">
					<path id="kvg:083f1-s7" kvg:type="㇒" d="M41.74,51.39c0.05,0.38,0.1,0.98-0.1,1.53c-1.18,3.23-7.37,10.92-17.16,14.65"/>
				</g>
				<g id="kvg:083f1-g7" kvg:position="right">
					<path id="kvg:083f1-s8" kvg:type="㇄" d="M64.16,47.49c0.48,0.41,0.86,0.88,0.89,1.51c0.13,2.8-0.34,6.01-0.34,7.91c0,4.44,6.75,3.94,12.41,3.94c5.97,0,10.91-0.57,11.75-0.9"/>
				</g>
			</g>
		</g>
		<g id="kvg:083f1-g8" kvg:element="夂" kvg:position="bottom">
			<path id="kvg:083f1-s9" kvg:type="㇒" d="M50.61,59.22c0.08,0.6,0.42,1.62-0.16,2.41c-3.79,5.18-11.69,14.74-27.56,23.62"/>
			<path id="kvg:083f1-s10" kvg:type="㇇" d="M47.19,70.32c0.33,0.02,2.08,0.21,3.01,0.15c4.15-0.27,14.01-3.66,18.36-4.33c2.99-0.46,2.84,1.53,2.07,2.78c-4.18,6.86-26.16,25.79-47.31,30.58"/>
			<path id="kvg:083f1-s11" kvg:type="㇏" d="M40.07,73.33c6.31,4.21,34.89,20.2,43.39,24.05c2.53,1.15,4.59,1.71,7.06,2.05"/>
		</g>
	</g>
</g>
</g>
<g id="kvg:StrokeNumbers_083f1" style="font-size:8;fill:#808080">
	<text transform="matrix(1 0 0 1 17.50 21.50)">1</text>
	<text transform="matrix(1 0 0 1 30.50 11.85)">2</text>
	<text transform="matrix(1 0 0 1 60.50 9.50)">3</text>
	<text transform="matrix(1 0 0 1 25.50 36.50)">4</text>
	<text transform="matrix(1 0 0 1 45.50 28.50)">5</text>
	<text transform="matrix(1 0 0 1 11.50 50.50)">6</text>
	<text transform="matrix(1 0 0 1 32.50 57.50)">7</text>
	<text transform="matrix(1 0 0 1 57.50 55.10)">8</text>
	<text transform="matrix(1 0 0 1 42.50 62.50)">9</text>
	<text transform="matrix(1 0 0 1 53.50 65.50)">10</text>
	<text transform="matrix(1 0 0 1 49.50 78.88)">11</text>
</g>
</svg>
