<?xml version="1.0" encoding="UTF-8"?>
<!--
Copyright (C) 2009/2010/2011 Ulrich Apel.
This work is distributed under the conditions of the Creative Commons 
Attribution-Share Alike 3.0 Licence. This means you are free:
* to Share - to copy, distribute and transmit the work
* to Remix - to adapt the work

Under the following conditions:
* Attribution. You must attribute the work by stating your use of KanjiVG in
  your own copyright header and linking to KanjiVG's website
  (http://kanjivg.tagaini.net)
* Share Alike. If you alter, transform, or build upon this work, you may
  distribute the resulting work only under the same or similar license to this
  one.

See http://creativecommons.org/licenses/by-sa/3.0/ for more details.
-->
<!DOCTYPE svg PUBLIC "-//W3C//DTD SVG 1.0//EN" "http://www.w3.org/TR/2001/REC-SVG-20010904/DTD/svg10.dtd" [
<!ATTLIST g
xmlns:kvg CDATA #FIXED "http://kanjivg.tagaini.net"
kvg:element CDATA #IMPLIED
kvg:variant CDATA #IMPLIED
kvg:partial CDATA #IMPLIED
kvg:original CDATA #IMPLIED
kvg:part CDATA #IMPLIED
kvg:number CDATA #IMPLIED
kvg:tradForm CDATA #IMPLIED
kvg:radicalForm CDATA #IMPLIED
kvg:position CDATA #IMPLIED
kvg:radical CDATA #IMPLIED
kvg:phon CDATA #IMPLIED >
<!ATTLIST path
xmlns:kvg CDATA #FIXED "http://kanjivg.tagaini.net"
kvg:type CDATA #IMPLIED >
]>
<svg xmlns="http://www.w3.org/2000/svg" width="109" height="109" viewBox="0 0 109 109">
<g id="kvg:StrokePaths_0840c-Kaisho" style="fill:none;stroke:#000000;stroke-width:3;stroke-linecap:round;stroke-linejoin:round;">
<g id="kvg:0840c-Kaisho" kvg:element="萌">
	<g id="kvg:0840c-Kaisho-g1" kvg:element="艹" kvg:variant="true" kvg:original="艸" kvg:position="top" kvg:radical="general">
		<path id="kvg:0840c-Kaisho-s1" kvg:type="㇐" d="M15.25,21.71c1.43,0.43,3.1,0.52,4.54,0.43c13.19-0.79,51.91-3.87,67.1-3.93c2.39-0.01,3.83,0.2,5.02,0.42"/>
		<path id="kvg:0840c-Kaisho-s2" kvg:type="㇑a" d="M35.69,10.45c2.02,1.3,2.67,1.69,2.88,2.49c2.02,7.46,2.31,13.65,2.59,16.81"/>
		<path id="kvg:0840c-Kaisho-s3" kvg:type="㇑a" d="M68.25,10.17c0.42,1.01,0.78,1.71,0.5,3c-1,4.58-3,11.58-4.47,15.8"/>
	</g>
	<g id="kvg:0840c-Kaisho-g2" kvg:element="明" kvg:position="bottom">
		<g id="kvg:0840c-Kaisho-g3" kvg:element="日" kvg:position="left">
			<path id="kvg:0840c-Kaisho-s4" kvg:type="㇑" d="M19.25,42.64c0.39,0.99,0.78,1.48,0.78,2.79c0,1.31-0.13,37.46,0,38.78"/>
			<path id="kvg:0840c-Kaisho-s5" kvg:type="㇕a" d="M20.68,44.76c2.2-0.16,18.46-2.82,20.47-3.02c1.67-0.16,2.75,1.82,2.62,2.79c-0.26,1.97-0.52,37.36-0.52,38.34"/>
			<path id="kvg:0840c-Kaisho-s6" kvg:type="㇐a" d="M21.07,62.37c3.48,0,7.05-0.73,10.49-1.18c1.13-0.15,2.27-0.29,3.36-0.43"/>
			<path id="kvg:0840c-Kaisho-s7" kvg:type="㇐a" d="M20.68,81.49c7.14-0.55,15.01-1.74,21.9-2.03"/>
		</g>
		<g id="kvg:0840c-Kaisho-g4" kvg:element="月" kvg:position="right">
			<path id="kvg:0840c-Kaisho-s8" kvg:type="㇒" d="M59.22,34.74c0.49,0.8,0.99,2.59,0.99,3.41c0,5.62,0.16,14.78,0.16,21.01C60.37,67.8,58,88,44.75,97.51"/>
			<path id="kvg:0840c-Kaisho-s9" kvg:type="㇆a" d="M61.2,37.04c1.98-0.2,20.32-2.59,21.79-2.81c2.64-0.4,3.62,2.61,3.29,3.82c-0.32,1.16-0.49,37.87-0.49,54.14c0,8.84-6.41,1.11-7.37,0.31"/>
			<path id="kvg:0840c-Kaisho-s10" kvg:type="㇐a" d="M61.2,52.92c4.19-0.27,8.38-0.62,12.57-0.98c1.18-0.1,2.36-0.2,3.51-0.3"/>
			<path id="kvg:0840c-Kaisho-s11" kvg:type="㇐a" d="M60.73,69.38c3.88-0.44,7.82-0.53,11.72-0.68c1.15-0.04,2.3-0.09,3.44-0.13"/>
		</g>
	</g>
</g>
</g>
<g id="kvg:StrokeNumbers_0840c-Kaisho" style="font-size:8;fill:#808080">
	<text transform="matrix(1 0 0 1 9.60 22.25)">1</text>
	<text transform="matrix(1 0 0 1 28.41 11.60)">2</text>
	<text transform="matrix(1 0 0 1 59.46 10.25)">3</text>
	<text transform="matrix(1 0 0 1 12.25 49.25)">4</text>
	<text transform="matrix(1 0 0 1 23.25 41.25)">5</text>
	<text transform="matrix(1 0 0 1 24.00 58.25)">6</text>
	<text transform="matrix(1 0 0 1 24.00 78.25)">7</text>
	<text transform="matrix(1 0 0 1 52.00 43.25)">8</text>
	<text transform="matrix(1 0 0 1 67.25 32.78)">9</text>
	<text transform="matrix(1 0 0 1 64.25 49.25)">10</text>
	<text transform="matrix(1 0 0 1 65.25 65.25)">11</text>
</g>
</svg>
