<?xml version="1.0" encoding="UTF-8"?>
<!--
Copyright (C) 2009/2010/2011 Ulrich Apel.
This work is distributed under the conditions of the Creative Commons 
Attribution-Share Alike 3.0 Licence. This means you are free:
* to Share - to copy, distribute and transmit the work
* to Remix - to adapt the work

Under the following conditions:
* Attribution. You must attribute the work by stating your use of KanjiVG in
  your own copyright header and linking to KanjiVG's website
  (http://kanjivg.tagaini.net)
* Share Alike. If you alter, transform, or build upon this work, you may
  distribute the resulting work only under the same or similar license to this
  one.

See http://creativecommons.org/licenses/by-sa/3.0/ for more details.
-->
<!DOCTYPE svg PUBLIC "-//W3C//DTD SVG 1.0//EN" "http://www.w3.org/TR/2001/REC-SVG-20010904/DTD/svg10.dtd" [
<!ATTLIST g
xmlns:kvg CDATA #FIXED "http://kanjivg.tagaini.net"
kvg:element CDATA #IMPLIED
kvg:variant CDATA #IMPLIED
kvg:partial CDATA #IMPLIED
kvg:original CDATA #IMPLIED
kvg:part CDATA #IMPLIED
kvg:number CDATA #IMPLIED
kvg:tradForm CDATA #IMPLIED
kvg:radicalForm CDATA #IMPLIED
kvg:position CDATA #IMPLIED
kvg:radical CDATA #IMPLIED
kvg:phon CDATA #IMPLIED >
<!ATTLIST path
xmlns:kvg CDATA #FIXED "http://kanjivg.tagaini.net"
kvg:type CDATA #IMPLIED >
]>
<svg xmlns="http://www.w3.org/2000/svg" width="109" height="109" viewBox="0 0 109 109">
<g id="kvg:StrokePaths_0846c" style="fill:none;stroke:#000000;stroke-width:3;stroke-linecap:round;stroke-linejoin:round;">
<g id="kvg:0846c" kvg:element="葬">
	<g id="kvg:0846c-g1" kvg:element="艹" kvg:variant="true" kvg:original="艸" kvg:position="top" kvg:radical="general">
		<path id="kvg:0846c-s1" kvg:type="㇐" d="M20.5,21.52c2.5,0.73,5.39,0.74,7.76,0.46c14.49-1.73,39.75-3.75,54.12-4.35c2.96-0.12,5.97-0.06,8.88,0.65"/>
		<path id="kvg:0846c-s2" kvg:type="㇑a" d="M39.25,11.25c0.91,1,1.2,2.12,1.37,3c1.6,8.25,1.82,9,2.51,13.25"/>
		<path id="kvg:0846c-s3" kvg:type="㇑a" d="M69.75,9.25c0.42,1.18,0.35,2.27,0,3.75c-1.75,7.5-2,8.62-3.25,12.75"/>
	</g>
	<g id="kvg:0846c-g2" kvg:position="bottom">
		<g id="kvg:0846c-g3" kvg:element="死">
			<g id="kvg:0846c-g4" kvg:element="歹">
				<g id="kvg:0846c-g5" kvg:element="一">
					<path id="kvg:0846c-s4" kvg:type="㇐" d="M26.67,35.66c2.96,0.34,5.68,0.28,8.33-0.04c12.12-1.49,30.59-3.03,41.12-3.62c2.58-0.15,5.17-0.07,7.74,0.28"/>
				</g>
				<g id="kvg:0846c-g6" kvg:element="夕">
					<path id="kvg:0846c-s5" kvg:type="㇒" d="M38.31,38.25c-0.06,0.75-0.09,1.72-0.41,2.39C35.5,45.5,30.75,53,21.86,59.8"/>
					<path id="kvg:0846c-s6" kvg:type="㇇" d="M38.37,44.85c0.23,0.02,1.22,0.07,1.87-0.07c3.52-0.78,6.27-1.28,10.12-2.26c2.09-0.53,3.29,1.27,2.59,2.84C49.77,52.42,36.21,69.06,23,72.71"/>
					<path id="kvg:0846c-s7" kvg:type="㇔" d="M32.75,53.62c2.15,0.81,5.56,3.33,6.1,4.59"/>
				</g>
			</g>
			<g id="kvg:0846c-g7" kvg:element="匕">
				<path id="kvg:0846c-s8" kvg:type="㇒" d="M84.91,41.32c-0.03,0.68-0.41,1.3-1,1.73c-3,2.16-8.15,4.57-15.87,6.84"/>
				<path id="kvg:0846c-s9" kvg:type="㇟" d="M63.36,39.3c0.85,0.85,0.99,2.07,0.99,3.08c0,0.76-0.05,8.9-0.05,11.25c0,6.99,2.32,8.09,13.17,8.09c11.27,0,12.52-1.22,13-7.34"/>
			</g>
		</g>
		<g id="kvg:0846c-g8" kvg:element="廾">
			<g id="kvg:0846c-g9" kvg:element="十" kvg:part="1">
				<path id="kvg:0846c-s10" kvg:type="㇐" d="M17.38,79.98c3.87,0.9,7.73,0.57,11.13,0.18c16.56-1.87,40.93-3.65,58.5-4.24c3.24-0.11,6.43-0.29,9.62,0.4"/>
			</g>
			<g id="kvg:0846c-g10" kvg:element="丿">
				<path id="kvg:0846c-s11" kvg:type="㇒" d="M42.39,69c0.68,0.68,0.92,2,0.92,3.19c0,10.22-2.8,24.31-16.15,29.31"/>
			</g>
			<g id="kvg:0846c-g11" kvg:element="十" kvg:part="2">
				<path id="kvg:0846c-s12" kvg:type="㇑" d="M68.05,67c0.97,0.97,1.18,2.12,1.18,4c0,4.96-0.09,15.62-0.09,24c0,2.87,0.03,3.85-0.02,5.5"/>
			</g>
		</g>
	</g>
</g>
</g>
<g id="kvg:StrokeNumbers_0846c" style="font-size:8;fill:#808080">
	<text transform="matrix(1 0 0 1 14.25 21.13)">1</text>
	<text transform="matrix(1 0 0 1 30.50 11.50)">2</text>
	<text transform="matrix(1 0 0 1 60.75 9.13)">3</text>
	<text transform="matrix(1 0 0 1 18.75 35.50)">4</text>
	<text transform="matrix(1 0 0 1 28.50 45.50)">5</text>
	<text transform="matrix(1 0 0 1 43.50 42.13)">6</text>
	<text transform="matrix(1 0 0 1 37.50 53.50)">7</text>
	<text transform="matrix(1 0 0 1 76.50 41.50)">8</text>
	<text transform="matrix(1 0 0 1 55.25 41.75)">9</text>
	<text transform="matrix(1 0 0 1 7.50 81.50)">10</text>
	<text transform="matrix(1 0 0 1 32.50 75.50)">11</text>
	<text transform="matrix(1 0 0 1 56.50 69.50)">12</text>
</g>
</svg>
