<?xml version="1.0" encoding="UTF-8"?>
<!--
Copyright (C) 2009/2010/2011 Ulrich Apel.
This work is distributed under the conditions of the Creative Commons 
Attribution-Share Alike 3.0 Licence. This means you are free:
* to Share - to copy, distribute and transmit the work
* to Remix - to adapt the work

Under the following conditions:
* Attribution. You must attribute the work by stating your use of KanjiVG in
  your own copyright header and linking to KanjiVG's website
  (http://kanjivg.tagaini.net)
* Share Alike. If you alter, transform, or build upon this work, you may
  distribute the resulting work only under the same or similar license to this
  one.

See http://creativecommons.org/licenses/by-sa/3.0/ for more details.
-->
<!DOCTYPE svg PUBLIC "-//W3C//DTD SVG 1.0//EN" "http://www.w3.org/TR/2001/REC-SVG-20010904/DTD/svg10.dtd" [
<!ATTLIST g
xmlns:kvg CDATA #FIXED "http://kanjivg.tagaini.net"
kvg:element CDATA #IMPLIED
kvg:variant CDATA #IMPLIED
kvg:partial CDATA #IMPLIED
kvg:original CDATA #IMPLIED
kvg:part CDATA #IMPLIED
kvg:number CDATA #IMPLIED
kvg:tradForm CDATA #IMPLIED
kvg:radicalForm CDATA #IMPLIED
kvg:position CDATA #IMPLIED
kvg:radical CDATA #IMPLIED
kvg:phon CDATA #IMPLIED >
<!ATTLIST path
xmlns:kvg CDATA #FIXED "http://kanjivg.tagaini.net"
kvg:type CDATA #IMPLIED >
]>
<svg xmlns="http://www.w3.org/2000/svg" width="109" height="109" viewBox="0 0 109 109">
<g id="kvg:StrokePaths_0847a" style="fill:none;stroke:#000000;stroke-width:3;stroke-linecap:round;stroke-linejoin:round;">
<g id="kvg:0847a" kvg:element="葺">
	<g id="kvg:0847a-g1" kvg:element="艹" kvg:variant="true" kvg:original="艸" kvg:position="top" kvg:radical="general">
		<path id="kvg:0847a-s1" kvg:type="㇐" d="M18.5,21.27c1.29,0.53,2.8,0.63,4.1,0.53c11.9-0.96,47.9-3.96,61.62-4.03c2.16-0.01,3.45,0.25,4.53,0.51"/>
		<path id="kvg:0847a-s2" kvg:type="㇑a" d="M37.25,11.5c1.75,1.43,2.31,1.87,2.5,2.75C41.5,22.5,41,24,41.5,27"/>
		<path id="kvg:0847a-s3" kvg:type="㇑a" d="M66.75,9.25c1.12,1,1.87,2.52,1.5,4c-1.12,4.5-2.38,7-4,12.75"/>
	</g>
	<g id="kvg:0847a-g2" kvg:position="bottom">
		<g id="kvg:0847a-g3" kvg:element="口">
			<path id="kvg:0847a-s4" kvg:type="㇑" d="M32.31,31.84c0.55,0.23,1.18,0.37,1.35,0.69c1.58,2.96,2.38,8.78,3.69,12.78"/>
			<path id="kvg:0847a-s5" kvg:type="㇕b" d="M34.44,33.75c11.24-1.16,28.68-3.2,35.12-3.24c1.44-0.01,2.75,1.63,2.43,2.26c-0.74,1.48-1.99,4.48-4.1,7.96"/>
			<path id="kvg:0847a-s6" kvg:type="㇐b" d="M37.61,42.97c7.56-0.33,22.2-1.8,32.59-2.31"/>
		</g>
		<g id="kvg:0847a-g4" kvg:element="耳">
			<path id="kvg:0847a-s7" kvg:type="㇐" d="M24.05,52.62c1.5,0.29,4.26,0.37,5.77,0.29c14.23-0.77,28.8-4.14,49.17-4.47c2.5-0.04,4.01,0.14,5.26,0.28"/>
			<path id="kvg:0847a-s8" kvg:type="㇑a" d="M36.58,53.28c0.88,0.53,1.96,2.42,1.96,3.36S38.3,83.41,38.3,86.78"/>
			<path id="kvg:0847a-s9" kvg:type="㇐a" d="M38.48,63.5c14.08-1.17,17.9-1.34,30.34-1.91"/>
			<path id="kvg:0847a-s10" kvg:type="㇐a" d="M39,75.19c11.49-0.81,16.08-1.65,30.11-2.22"/>
			<path id="kvg:0847a-s11" kvg:type="㇀" d="M21,89.98c0.47,0.64,2.62,1.54,4.27,1.28C31.9,90.19,69.81,82.73,80,81.03"/>
			<path id="kvg:0847a-s12" kvg:type="㇑" d="M67.36,52.05c1.53,0.84,1.68,2.26,1.68,3.2s0.24,37.11,0.24,44.78"/>
		</g>
	</g>
</g>
</g>
<g id="kvg:StrokeNumbers_0847a" style="font-size:8;fill:#808080">
	<text transform="matrix(1 0 0 1 11.50 21.50)">1</text>
	<text transform="matrix(1 0 0 1 28.66 11.85)">2</text>
	<text transform="matrix(1 0 0 1 58.50 9.50)">3</text>
	<text transform="matrix(1 0 0 1 26.50 37.50)">4</text>
	<text transform="matrix(1 0 0 1 34.50 30.50)">5</text>
	<text transform="matrix(1 0 0 1 40.50 40.50)">6</text>
	<text transform="matrix(1 0 0 1 17.50 52.68)">7</text>
	<text transform="matrix(1 0 0 1 30.50 62.50)">8</text>
	<text transform="matrix(1 0 0 1 43.50 60.50)">9</text>
	<text transform="matrix(1 0 0 1 42.50 71.50)">10</text>
	<text transform="matrix(1 0 0 1 16.50 85.38)">11</text>
	<text transform="matrix(1 0 0 1 58.50 57.50)">12</text>
</g>
</svg>
