<?xml version="1.0" encoding="UTF-8"?>
<!--
Copyright (C) 2009/2010/2011 Ulrich Apel.
This work is distributed under the conditions of the Creative Commons 
Attribution-Share Alike 3.0 Licence. This means you are free:
* to Share - to copy, distribute and transmit the work
* to Remix - to adapt the work

Under the following conditions:
* Attribution. You must attribute the work by stating your use of KanjiVG in
  your own copyright header and linking to KanjiVG's website
  (http://kanjivg.tagaini.net)
* Share Alike. If you alter, transform, or build upon this work, you may
  distribute the resulting work only under the same or similar license to this
  one.

See http://creativecommons.org/licenses/by-sa/3.0/ for more details.
-->
<!DOCTYPE svg PUBLIC "-//W3C//DTD SVG 1.0//EN" "http://www.w3.org/TR/2001/REC-SVG-20010904/DTD/svg10.dtd" [
<!ATTLIST g
xmlns:kvg CDATA #FIXED "http://kanjivg.tagaini.net"
kvg:element CDATA #IMPLIED
kvg:variant CDATA #IMPLIED
kvg:partial CDATA #IMPLIED
kvg:original CDATA #IMPLIED
kvg:part CDATA #IMPLIED
kvg:number CDATA #IMPLIED
kvg:tradForm CDATA #IMPLIED
kvg:radicalForm CDATA #IMPLIED
kvg:position CDATA #IMPLIED
kvg:radical CDATA #IMPLIED
kvg:phon CDATA #IMPLIED >
<!ATTLIST path
xmlns:kvg CDATA #FIXED "http://kanjivg.tagaini.net"
kvg:type CDATA #IMPLIED >
]>
<svg xmlns="http://www.w3.org/2000/svg" width="109" height="109" viewBox="0 0 109 109">
<g id="kvg:StrokePaths_084ec" style="fill:none;stroke:#000000;stroke-width:3;stroke-linecap:round;stroke-linejoin:round;">
<g id="kvg:084ec" kvg:element="蓬">
	<g id="kvg:084ec-g1" kvg:element="艹" kvg:variant="true" kvg:original="艸" kvg:position="top" kvg:radical="general">
		<path id="kvg:084ec-s1" kvg:type="㇐" d="M20.5,21.77c1.29,0.53,2.8,0.63,4.1,0.53c11.9-0.96,47.4-3.96,61.12-4.03c2.16-0.01,3.45,0.25,4.53,0.51"/>
		<path id="kvg:084ec-s2" kvg:type="㇑a" d="M38,11.5c1.5,1.2,1.98,1.56,2.14,2.3c1.5,6.91,1.93,13.19,2.36,15.7"/>
		<path id="kvg:084ec-s3" kvg:type="㇑a" d="M71.41,9c1.3,0.79,1.67,2.5,1.24,3.67c-1.3,3.57-2.17,8.52-4.06,13.08"/>
	</g>
	<g id="kvg:084ec-g2" kvg:element="逢" kvg:position="bottom">
		<g id="kvg:084ec-g3" kvg:element="夂">
			<path id="kvg:084ec-s4" kvg:type="㇒" d="M56.96,26.75c0.05,0.48,0.18,1.25-0.09,1.92c-1.78,4.28-7.2,11.76-15.8,17.89"/>
			<path id="kvg:084ec-s5" kvg:type="㇇" d="M55.51,32.64c0.32,0.02,2.33,0.38,3.25,0.32c3.04-0.21,10.27-2.75,14.64-3.27c1.6-0.19,2.83,1.02,2.07,2.25C71.29,38.67,58.75,52,41.97,56.11"/>
			<path id="kvg:084ec-s6" kvg:type="㇏" d="M50.88,38.2c4.18-0.02,28.91,11.64,35.71,13.99c2.03,0.7,3.67,1.04,5.65,1.25"/>
		</g>
		<g id="kvg:084ec-g4" kvg:element="三">
			<g id="kvg:084ec-g5" kvg:element="一" kvg:position="top">
				<path id="kvg:084ec-s7" kvg:type="㇐" d="M50.7,59.21c0.97,0.29,2.75,0.42,3.71,0.29c5.34-0.75,14.59-2.5,20.6-3.01c1.6-0.14,2.58,0.14,3.39,0.28"/>
			</g>
			<g id="kvg:084ec-g6" kvg:position="bottom">
				<g id="kvg:084ec-g7" kvg:element="一">
					<path id="kvg:084ec-s8" kvg:type="㇐" d="M48.81,68.15c0.97,0.29,3.4,0.35,4.37,0.29c11.21-0.79,14.26-2.33,23.61-3.09c1.6-0.13,2.58,0.14,3.39,0.28"/>
				</g>
				<g id="kvg:084ec-g8" kvg:element="一">
					<path id="kvg:084ec-s9" kvg:type="㇐" d="M42.86,77.64c1.47,0.57,4.14,0.63,5.61,0.57c9.23-0.37,22.27-2.62,34.34-3.57c2.43-0.19,3.9,0.27,5.12,0.55"/>
				</g>
			</g>
		</g>
		<g id="kvg:084ec-g9" kvg:element="丨">
			<path id="kvg:084ec-s10" kvg:type="㇑" d="M64.25,49.5c0.61,0.32,2.03,1.85,2.03,3.07c0,6.78-0.25,29.2-0.25,37.9"/>
		</g>
		<g id="kvg:084ec-g10" kvg:element="⻌" kvg:original="辶" kvg:position="nyo">
			<path id="kvg:084ec-s11" kvg:type="㇔" d="M19.14,34.47c3.63,1.47,9.39,6.06,10.29,8.35"/>
			<path id="kvg:084ec-s12" kvg:type="㇋" d="M15.29,60.14c2.67,0.89,4.45,0.45,5.63,0.22c1.19-0.22,7.71-4.12,9.49-4.56c1.78-0.45,3.45,1.61,2.26,2.95s-4.21,6.56-5.1,7.67c-0.89,1.11-2.56,2.16-0.78,3.71c1.78,1.56,5.23,4.66,6.12,5.99c0.89,1.34,0.89,2.45-0.89,3.56c-1.78,1.11-10.21,7.38-11.99,7.83"/>
			<path id="kvg:084ec-s13" kvg:type="㇏a" d="M14,88.72c2.98-0.42,8.94-1.46,13.41-0.62c4.47,0.83,29.88,6.42,34.28,7.5c11.92,2.92,21.12,3.75,30.06,2.29"/>
		</g>
	</g>
</g>
</g>
<g id="kvg:StrokeNumbers_084ec" style="font-size:8;fill:#808080">
	<text transform="matrix(1 0 0 1 13.85 22.50)">1</text>
	<text transform="matrix(1 0 0 1 29.50 11.85)">2</text>
	<text transform="matrix(1 0 0 1 63.50 9.50)">3</text>
	<text transform="matrix(1 0 0 1 46.75 31.40)">4</text>
	<text transform="matrix(1 0 0 1 61.75 28.33)">5</text>
	<text transform="matrix(1 0 0 1 60.50 39.50)">6</text>
	<text transform="matrix(1 0 0 1 44.50 63.50)">7</text>
	<text transform="matrix(1 0 0 1 42.50 71.50)">8</text>
	<text transform="matrix(1 0 0 1 37.50 77.50)">9</text>
	<text transform="matrix(1 0 0 1 56.75 56.95)">10</text>
	<text transform="matrix(1 0 0 1 10.50 35.50)">11</text>
	<text transform="matrix(1 0 0 1 4.75 60.50)">12</text>
	<text transform="matrix(1 0 0 1 3.50 90.50)">13</text>
</g>
</svg>
