<?xml version="1.0" encoding="UTF-8"?>
<!--
Copyright (C) 2009/2010/2011 Ulrich Apel.
This work is distributed under the conditions of the Creative Commons 
Attribution-Share Alike 3.0 Licence. This means you are free:
* to Share - to copy, distribute and transmit the work
* to Remix - to adapt the work

Under the following conditions:
* Attribution. You must attribute the work by stating your use of KanjiVG in
  your own copyright header and linking to KanjiVG's website
  (http://kanjivg.tagaini.net)
* Share Alike. If you alter, transform, or build upon this work, you may
  distribute the resulting work only under the same or similar license to this
  one.

See http://creativecommons.org/licenses/by-sa/3.0/ for more details.
-->
<!DOCTYPE svg PUBLIC "-//W3C//DTD SVG 1.0//EN" "http://www.w3.org/TR/2001/REC-SVG-20010904/DTD/svg10.dtd" [
<!ATTLIST g
xmlns:kvg CDATA #FIXED "http://kanjivg.tagaini.net"
kvg:element CDATA #IMPLIED
kvg:variant CDATA #IMPLIED
kvg:partial CDATA #IMPLIED
kvg:original CDATA #IMPLIED
kvg:part CDATA #IMPLIED
kvg:number CDATA #IMPLIED
kvg:tradForm CDATA #IMPLIED
kvg:radicalForm CDATA #IMPLIED
kvg:position CDATA #IMPLIED
kvg:radical CDATA #IMPLIED
kvg:phon CDATA #IMPLIED >
<!ATTLIST path
xmlns:kvg CDATA #FIXED "http://kanjivg.tagaini.net"
kvg:type CDATA #IMPLIED >
]>
<svg xmlns="http://www.w3.org/2000/svg" width="109" height="109" viewBox="0 0 109 109">
<g id="kvg:StrokePaths_0851a" style="fill:none;stroke:#000000;stroke-width:3;stroke-linecap:round;stroke-linejoin:round;">
<g id="kvg:0851a" kvg:element="蔚">
	<g id="kvg:0851a-g1" kvg:element="艹" kvg:variant="true" kvg:original="艸" kvg:position="top" kvg:radical="general">
		<path id="kvg:0851a-s1" kvg:type="㇐" d="M20.5,23.27c3.11,0.69,6.18,0.36,9.38,0.1c13.52-1.1,37.12-2.75,52.25-3.49c3.23-0.3,6.43-0.17,9.62,0.4"/>
		<path id="kvg:0851a-s2" kvg:type="㇑a" d="M39.99,11.5c0.94,0.81,1.42,1.76,1.47,2.87c0.81,7.67,1.28,13.66,1.55,16.13"/>
		<path id="kvg:0851a-s3" kvg:type="㇑a" d="M69.89,10.75c0.33,0.92,0.27,2.11-0.1,3.24c-2.17,6.66-2.66,9.24-5.04,15.51"/>
	</g>
	<g id="kvg:0851a-g2" kvg:element="尉" kvg:position="bottom">
		<g id="kvg:0851a-g3" kvg:position="left">
			<g id="kvg:0851a-g4" kvg:element="尸" kvg:position="tare">
				<path id="kvg:0851a-s4" kvg:type="㇕c" d="M21,38.53c1.97,0.74,3.97,0.94,5.98,0.61c7.87-1.1,17.43-2.76,22.89-3.83c2.16-0.42,3.31,0.62,2.74,2.47c-0.68,2.17-1.97,6.61-2.59,9.77"/>
				<path id="kvg:0851a-s5" kvg:type="㇐b" d="M25.12,51.1c3.4-0.16,15.44-1.84,22.36-2.68c2.1-0.26,3.73-0.43,4.5-0.47"/>
				<path id="kvg:0851a-s6" kvg:type="㇒" d="M24.3,39.9c0.7,0.7,0.79,1.9,0.72,3.08c-1.28,22.6-4.75,40.11-15.37,51.01"/>
			</g>
			<g id="kvg:0851a-g5" kvg:element="示">
				<g id="kvg:0851a-g6" kvg:position="top">
					<path id="kvg:0851a-s7" kvg:type="㇐" d="M29.95,59.63c2.05,0.37,3.73,0.25,5.56-0.1c3.17-0.5,7.35-1.22,10.37-1.68c1.49-0.27,2.99-0.35,4.51-0.23"/>
					<path id="kvg:0851a-s8" kvg:type="㇐" d="M26.42,69.53c1.71,0.34,3.41,0.33,5.11-0.03c6.04-0.81,14.36-2.36,19.58-3.02c1.84-0.27,3.69-0.29,5.56-0.05"/>
				</g>
				<g id="kvg:0851a-g7" kvg:position="bottom">
					<path id="kvg:0851a-s9" kvg:type="㇑" d="M40.11,70.34c0.8,0.8,1.18,1.69,1.18,3.67c0,11.65-0.14,16.32-0.14,19.21c0,6.13-3.09,2.2-5.96,0.15"/>
					<path id="kvg:0851a-s10" kvg:type="㇒" d="M30.19,76.93c0.1,0.91-0.02,1.78-0.37,2.62c-1.8,3.64-4.68,8.41-11.27,13.98"/>
					<path id="kvg:0851a-s11" kvg:type="㇔" d="M49.46,76.27c3.08,2.29,8.12,9.17,8.89,12.74"/>
				</g>
			</g>
		</g>
		<g id="kvg:0851a-g8" kvg:element="寸" kvg:position="right">
			<path id="kvg:0851a-s12" kvg:type="㇐" d="M60.06,51.75c2.5,0.32,4.97,0.25,7.43-0.19c6.77-0.97,14.56-2.6,21.77-3.34c2.48-0.32,4.97-0.07,7.46,0.24"/>
			<path id="kvg:0851a-s13" kvg:type="㇚" d="M80.17,34.28c1.09,1.09,1.47,2.21,1.47,4.6c0,16.09,0.05,49.64,0.05,53.2c0,8.63-5.79,1.28-7.47,0.18"/>
			<path id="kvg:0851a-s14" kvg:type="㇔" d="M64.85,61.62c2.39,1.96,6.18,8.04,6.78,11.09"/>
		</g>
	</g>
</g>
</g>
<g id="kvg:StrokeNumbers_0851a" style="font-size:8;fill:#808080">
	<text transform="matrix(1 0 0 1 13.85 23.50)">1</text>
	<text transform="matrix(1 0 0 1 31.50 12.50)">2</text>
	<text transform="matrix(1 0 0 1 60.50 10.50)">3</text>
	<text transform="matrix(1 0 0 1 24.50 36.50)">4</text>
	<text transform="matrix(1 0 0 1 29.50 48.50)">5</text>
	<text transform="matrix(1 0 0 1 16.75 46.50)">6</text>
	<text transform="matrix(1 0 0 1 29.50 57.50)">7</text>
	<text transform="matrix(1 0 0 1 26.75 66.50)">8</text>
	<text transform="matrix(1 0 0 1 33.50 77.50)">9</text>
	<text transform="matrix(1 0 0 1 20.75 79.50)">10</text>
	<text transform="matrix(1 0 0 1 49.50 75.50)">11</text>
	<text transform="matrix(1 0 0 1 57.50 48.50)">12</text>
	<text transform="matrix(1 0 0 1 68.75 34.50)">13</text>
	<text transform="matrix(1 0 0 1 55.50 61.50)">14</text>
</g>
</svg>
