<?xml version="1.0" encoding="UTF-8"?>
<!--
Copyright (C) 2009/2010/2011 Ulrich Apel.
This work is distributed under the conditions of the Creative Commons 
Attribution-Share Alike 3.0 Licence. This means you are free:
* to Share - to copy, distribute and transmit the work
* to Remix - to adapt the work

Under the following conditions:
* Attribution. You must attribute the work by stating your use of KanjiVG in
  your own copyright header and linking to KanjiVG's website
  (http://kanjivg.tagaini.net)
* Share Alike. If you alter, transform, or build upon this work, you may
  distribute the resulting work only under the same or similar license to this
  one.

See http://creativecommons.org/licenses/by-sa/3.0/ for more details.
-->
<!DOCTYPE svg PUBLIC "-//W3C//DTD SVG 1.0//EN" "http://www.w3.org/TR/2001/REC-SVG-20010904/DTD/svg10.dtd" [
<!ATTLIST g
xmlns:kvg CDATA #FIXED "http://kanjivg.tagaini.net"
kvg:element CDATA #IMPLIED
kvg:variant CDATA #IMPLIED
kvg:partial CDATA #IMPLIED
kvg:original CDATA #IMPLIED
kvg:part CDATA #IMPLIED
kvg:number CDATA #IMPLIED
kvg:tradForm CDATA #IMPLIED
kvg:radicalForm CDATA #IMPLIED
kvg:position CDATA #IMPLIED
kvg:radical CDATA #IMPLIED
kvg:phon CDATA #IMPLIED >
<!ATTLIST path
xmlns:kvg CDATA #FIXED "http://kanjivg.tagaini.net"
kvg:type CDATA #IMPLIED >
]>
<svg xmlns="http://www.w3.org/2000/svg" width="109" height="109" viewBox="0 0 109 109">
<g id="kvg:StrokePaths_0854e" style="fill:none;stroke:#000000;stroke-width:3;stroke-linecap:round;stroke-linejoin:round;">
<g id="kvg:0854e" kvg:element="蕎">
	<g id="kvg:0854e-g1" kvg:element="艹" kvg:variant="true" kvg:original="艸" kvg:position="top" kvg:radical="general">
		<path id="kvg:0854e-s1" kvg:type="㇐" d="M21.25,20.27c2.98,0.68,5.93,0.43,8.98,0.11c13.08-1.39,35.19-3.12,48.9-3.7c3.56-0.15,7.11,0.05,10.62,0.6"/>
		<path id="kvg:0854e-s2" kvg:type="㇑a" d="M39.25,10.5c0.94,0.94,1.31,1.87,1.5,2.75C42.5,21.5,43,24,43.5,27"/>
		<path id="kvg:0854e-s3" kvg:type="㇑a" d="M68.04,8.75c0.59,1.25,0.53,2.61,0.26,3.86c-0.92,4.27-1.67,6.64-2.69,10.89"/>
	</g>
	<g id="kvg:0854e-g2" kvg:element="喬" kvg:position="bottom">
		<g id="kvg:0854e-g3" kvg:element="呑" kvg:position="top">
			<g id="kvg:0854e-g4" kvg:element="夭">
				<g id="kvg:0854e-g5" kvg:element="丿">
					<path id="kvg:0854e-s4" kvg:type="㇒" d="M67.9,25.73c-0.28,1.15-1.18,1.81-2.71,2.3c-6.07,1.97-17.67,4.59-33.7,5.92"/>
				</g>
				<g id="kvg:0854e-g6" kvg:element="大">
					<path id="kvg:0854e-s5" kvg:type="㇐" d="M21.51,42.88c3.42,0.43,6.84,0.4,10.26-0.08c13.53-1.55,30.61-3.43,45.11-4.17c3.79-0.32,7.58,0.03,11.35,0.53"/>
					<path id="kvg:0854e-s6" kvg:type="㇒" d="M51.2,33.8c0.09,1.26-0.49,2.31-1.24,3.15c-9.24,11.33-16.58,17.68-31.38,26.62"/>
					<path id="kvg:0854e-s7" kvg:type="㇏" d="M62.5,41.25c5.32,3.3,14.09,9.43,21.18,13.39c3.32,1.86,5.44,2.98,8.49,3.97"/>
				</g>
			</g>
			<g id="kvg:0854e-g7" kvg:element="口">
				<path id="kvg:0854e-s8" kvg:type="㇑" d="M39.65,50.84c0.76,0.82,1.23,1.75,1.42,2.79c0.56,2.46,0.94,4.61,1.31,6.87c0.2,1.23,0.39,2.5,0.6,3.87"/>
				<path id="kvg:0854e-s9" kvg:type="㇕b" d="M41.74,51.46c7.51-0.83,13.63-1.46,19.28-2.3c4.91-0.74,5.52,0.43,4.6,3.06c-0.71,2.01-1.23,3.74-2,7.08"/>
				<path id="kvg:0854e-s10" kvg:type="㇐b" d="M43.99,62.28c4.29-0.43,10.85-1.2,17.13-1.87c1.41-0.15,2.81-0.3,4.17-0.44"/>
			</g>
		</g>
		<g id="kvg:0854e-g8" kvg:position="bottom">
			<g id="kvg:0854e-g9" kvg:element="冂">
				<path id="kvg:0854e-s11" kvg:type="㇑" d="M27.62,69.68c0.79,0.79,0.92,1.79,1,2.73c0.28,3.29,0.96,14.44,1.44,21.97c0.17,2.67,0.31,4.88,0.4,6.12"/>
				<path id="kvg:0854e-s12" kvg:type="㇆a" d="M29.25,71.17c9.12-0.92,42.5-3.55,49.6-4.1c4.09-0.32,5.22,1.19,4.89,4.86c-0.22,2.5-1.56,16.21-4.69,24.32c-1.11,2.89-4.05,4.99-7.09-0.71"/>
			</g>
			<g id="kvg:0854e-g10" kvg:element="口">
				<path id="kvg:0854e-s13" kvg:type="㇑" d="M42.07,78.35c0.79,0.79,1.05,1.52,1.33,2.55c0.57,2.1,1.05,4.87,1.58,7.54c0.21,1.05,0.43,2.08,0.66,3.04"/>
				<path id="kvg:0854e-s14" kvg:type="㇕b" d="M44.17,79.31c7.7-0.93,13.9-1.71,17.83-2.38c2.46-0.42,3.32,0.76,2.9,2.49c-0.41,1.71-0.91,3.46-2.33,7.42"/>
				<path id="kvg:0854e-s15" kvg:type="㇐b" d="M46.42,89.56c3.66-0.55,9.15-1.13,14.2-1.64c1.34-0.14,2.65-0.27,3.89-0.39"/>
			</g>
		</g>
	</g>
</g>
</g>
<g id="kvg:StrokeNumbers_0854e" style="font-size:8;fill:#808080">
	<text transform="matrix(1 0 0 1 14.50 21.50)">1</text>
	<text transform="matrix(1 0 0 1 30.50 10.50)">2</text>
	<text transform="matrix(1 0 0 1 58.50 9.50)">3</text>
	<text transform="matrix(1 0 0 1 58.50 26.50)">4</text>
	<text transform="matrix(1 0 0 1 13.50 44.50)">5</text>
	<text transform="matrix(1 0 0 1 40.50 39.50)">6</text>
	<text transform="matrix(1 0 0 1 76.50 48.50)">7</text>
	<text transform="matrix(1 0 0 1 35.50 60.50)">8</text>
	<text transform="matrix(1 0 0 1 47.50 48.50)">9</text>
	<text transform="matrix(1 0 0 1 45.50 59.50)">10</text>
	<text transform="matrix(1 0 0 1 18.50 78.50)">11</text>
	<text transform="matrix(1 0 0 1 31.50 67.50)">12</text>
	<text transform="matrix(1 0 0 1 33.50 84.50)">13</text>
	<text transform="matrix(1 0 0 1 45.50 76.50)">14</text>
	<text transform="matrix(1 0 0 1 47.50 86.50)">15</text>
</g>
</svg>
