<?xml version="1.0" encoding="UTF-8"?>
<!--
Copyright (C) 2009/2010/2011 Ulrich Apel.
This work is distributed under the conditions of the Creative Commons 
Attribution-Share Alike 3.0 Licence. This means you are free:
* to Share - to copy, distribute and transmit the work
* to Remix - to adapt the work

Under the following conditions:
* Attribution. You must attribute the work by stating your use of KanjiVG in
  your own copyright header and linking to KanjiVG's website
  (http://kanjivg.tagaini.net)
* Share Alike. If you alter, transform, or build upon this work, you may
  distribute the resulting work only under the same or similar license to this
  one.

See http://creativecommons.org/licenses/by-sa/3.0/ for more details.
-->
<!DOCTYPE svg PUBLIC "-//W3C//DTD SVG 1.0//EN" "http://www.w3.org/TR/2001/REC-SVG-20010904/DTD/svg10.dtd" [
<!ATTLIST g
xmlns:kvg CDATA #FIXED "http://kanjivg.tagaini.net"
kvg:element CDATA #IMPLIED
kvg:variant CDATA #IMPLIED
kvg:partial CDATA #IMPLIED
kvg:original CDATA #IMPLIED
kvg:part CDATA #IMPLIED
kvg:number CDATA #IMPLIED
kvg:tradForm CDATA #IMPLIED
kvg:radicalForm CDATA #IMPLIED
kvg:position CDATA #IMPLIED
kvg:radical CDATA #IMPLIED
kvg:phon CDATA #IMPLIED >
<!ATTLIST path
xmlns:kvg CDATA #FIXED "http://kanjivg.tagaini.net"
kvg:type CDATA #IMPLIED >
]>
<svg xmlns="http://www.w3.org/2000/svg" width="109" height="109" viewBox="0 0 109 109">
<g id="kvg:StrokePaths_085ac" style="fill:none;stroke:#000000;stroke-width:3;stroke-linecap:round;stroke-linejoin:round;">
<g id="kvg:085ac" kvg:element="薬">
	<g id="kvg:085ac-g1" kvg:element="艹" kvg:variant="true" kvg:original="艸" kvg:position="top" kvg:radical="general">
		<path id="kvg:085ac-s1" kvg:type="㇐" d="M16.25,22.52c3.25,0.69,6.61,0.33,9.88,0.05c13.04-1.08,36.66-3.21,50.99-3.86c3.83-0.17,7.75-0.22,11.62,0.56"/>
		<path id="kvg:085ac-s2" kvg:type="㇑a" d="M35.25,12c1.4,1.18,1.85,1.54,2,2.26c1.4,6.78,2.6,13.77,3,16.24"/>
		<path id="kvg:085ac-s3" kvg:type="㇑a" d="M68.33,10c0.3,0.92,0.68,1.61,0.35,2.74c-1.94,6.66-2.82,9.99-4.93,16.26"/>
	</g>
	<g id="kvg:085ac-g2" kvg:element="楽" kvg:position="bottom" kvg:phon="楽">
		<g id="kvg:085ac-g3" kvg:position="top">
			<g id="kvg:085ac-g4" kvg:element="白">
				<g id="kvg:085ac-g5" kvg:position="top">
					<path id="kvg:085ac-s4" kvg:type="㇒" d="M50.11,27.75c0.17,0.32,0.19,0.71,0.15,0.98c-0.2,1.39-1.69,4.42-3.27,6.64"/>
				</g>
				<g id="kvg:085ac-g6" kvg:element="日" kvg:position="bottom">
					<path id="kvg:085ac-s5" kvg:type="㇑" d="M38.5,38.34c0.95,0.95,1.67,2.17,1.79,2.97c0.37,2.65,1.08,9.74,1.73,15.06c0.16,1.33,0.32,2.55,0.46,3.56"/>
					<path id="kvg:085ac-s6" kvg:type="㇕a" d="M40.52,39.27c3.48-0.65,13.68-2.36,19.08-3.22c2.64-0.42,5.39,0.7,5.22,3.82c-0.2,3.48-0.39,9.83-0.54,14.88c-0.04,1.48-0.09,2.84-0.12,3.99"/>
					<path id="kvg:085ac-s7" kvg:type="㇐a" d="M42.16,48.45c4.96-0.57,15.96-1.95,21.41-2.4"/>
					<path id="kvg:085ac-s8" kvg:type="㇐a" d="M43.63,58.07c6.37-0.57,12.12-1.45,19.35-1.85"/>
				</g>
			</g>
			<g id="kvg:085ac-g7" kvg:element="冫">
				<path id="kvg:085ac-s9" kvg:type="㇔" d="M19.75,38c3.71,1.34,9.57,5.49,10.5,7.57"/>
				<path id="kvg:085ac-s10" kvg:type="㇀" d="M16.42,62.85c1.29,0.64,3.03,0.63,3.88,0c1.96-1.47,8.45-5.67,11.81-8.35"/>
			</g>
			<path id="kvg:085ac-s11" kvg:type="㇒" d="M82.95,31.45c0.03,0.25,0.06,0.64-0.05,0.99c-0.65,2.09-4.4,6.69-9.52,9.5"/>
			<path id="kvg:085ac-s12" kvg:type="㇔" d="M73.75,50.4c5.5,2.23,11,5.85,13.25,9.21"/>
		</g>
		<g id="kvg:085ac-g8" kvg:element="木" kvg:position="bottom">
			<path id="kvg:085ac-s13" kvg:type="㇐" d="M16.78,74.82c3.45,0.7,6.99,0.49,10.47,0.22c15-1.17,37.13-4.04,54.5-5c3.72-0.21,6.8-0.07,10.45,0.38"/>
			<path id="kvg:085ac-s14" kvg:type="㇑" d="M53.2,63.13c0.83,0.83,1.36,2.24,1.36,3.51c0,0.4,0,20.12-0.09,29.23c-0.02,2.21-0.05,3.81-0.09,4.38"/>
			<path id="kvg:085ac-s15" kvg:type="㇒" d="M51.75,73.13c0,1.12-0.87,2.26-1.91,3.33C42.56,83.99,28.49,92.98,18,96.83"/>
			<path id="kvg:085ac-s16" kvg:type="㇏" d="M56.01,74.23c4.15,2.44,20.41,12.71,28.22,17.31c2.61,1.54,5.1,2.9,8.14,3.36"/>
		</g>
	</g>
</g>
</g>
<g id="kvg:StrokeNumbers_085ac" style="font-size:8;fill:#808080">
	<text transform="matrix(1 0 0 1 9.75 24.13)">1</text>
	<text transform="matrix(1 0 0 1 26.50 12.50)">2</text>
	<text transform="matrix(1 0 0 1 58.50 11.50)">3</text>
	<text transform="matrix(1 0 0 1 43.00 28.38)">4</text>
	<text transform="matrix(1 0 0 1 33.38 44.00)">5</text>
	<text transform="matrix(1 0 0 1 40.38 36.25)">6</text>
	<text transform="matrix(1 0 0 1 44.12 46.00)">7</text>
	<text transform="matrix(1 0 0 1 44.88 55.38)">8</text>
	<text transform="matrix(1 0 0 1 13.25 38.00)">9</text>
	<text transform="matrix(1 0 0 1 6.50 62.88)">10</text>
	<text transform="matrix(1 0 0 1 73.50 32.50)">11</text>
	<text transform="matrix(1 0 0 1 77.25 50.50)">12</text>
	<text transform="matrix(1 0 0 1 5.25 77.50)">13</text>
	<text transform="matrix(1 0 0 1 41.50 69.13)">14</text>
	<text transform="matrix(1 0 0 1 30.75 83.50)">15</text>
	<text transform="matrix(1 0 0 1 71.25 81.22)">16</text>
</g>
</svg>
