<?xml version="1.0" encoding="UTF-8"?>
<!--
Copyright (C) 2009/2010/2011 Ulrich Apel.
This work is distributed under the conditions of the Creative Commons 
Attribution-Share Alike 3.0 Licence. This means you are free:
* to Share - to copy, distribute and transmit the work
* to Remix - to adapt the work

Under the following conditions:
* Attribution. You must attribute the work by stating your use of KanjiVG in
  your own copyright header and linking to KanjiVG's website
  (http://kanjivg.tagaini.net)
* Share Alike. If you alter, transform, or build upon this work, you may
  distribute the resulting work only under the same or similar license to this
  one.

See http://creativecommons.org/licenses/by-sa/3.0/ for more details.
-->
<!DOCTYPE svg PUBLIC "-//W3C//DTD SVG 1.0//EN" "http://www.w3.org/TR/2001/REC-SVG-20010904/DTD/svg10.dtd" [
<!ATTLIST g
xmlns:kvg CDATA #FIXED "http://kanjivg.tagaini.net"
kvg:element CDATA #IMPLIED
kvg:variant CDATA #IMPLIED
kvg:partial CDATA #IMPLIED
kvg:original CDATA #IMPLIED
kvg:part CDATA #IMPLIED
kvg:number CDATA #IMPLIED
kvg:tradForm CDATA #IMPLIED
kvg:radicalForm CDATA #IMPLIED
kvg:position CDATA #IMPLIED
kvg:radical CDATA #IMPLIED
kvg:phon CDATA #IMPLIED >
<!ATTLIST path
xmlns:kvg CDATA #FIXED "http://kanjivg.tagaini.net"
kvg:type CDATA #IMPLIED >
]>
<svg xmlns="http://www.w3.org/2000/svg" width="109" height="109" viewBox="0 0 109 109">
<g id="kvg:StrokePaths_085e9-Kaisho" style="fill:none;stroke:#000000;stroke-width:3;stroke-linecap:round;stroke-linejoin:round;">
<g id="kvg:085e9-Kaisho" kvg:element="藩">
	<g id="kvg:085e9-Kaisho-g1" kvg:element="艹" kvg:variant="true" kvg:original="艸" kvg:position="top" kvg:radical="general">
		<path id="kvg:085e9-Kaisho-s1" kvg:type="㇐" d="M24.21,24.64c1.12,0.46,2.42,0.55,3.54,0.46c10.28-0.83,42.53-4.15,54.38-4.21c1.87-0.01,2.98,0.22,3.92,0.44"/>
		<path id="kvg:085e9-Kaisho-s2" kvg:type="㇑a" d="M39.22,14.31c1.09,1.21,1.44,1.57,1.56,2.32c1.09,6.94,2.03,14.1,2.34,16.63"/>
		<path id="kvg:085e9-Kaisho-s3" kvg:type="㇑a" d="M69.49,12.5c0.36,1.02,0.82,1.77,0.43,3.02c-2.17,6.98-3.51,10.77-5.05,15.93"/>
	</g>
	<g id="kvg:085e9-Kaisho-g2" kvg:element="潘" kvg:position="bottom">
		<g id="kvg:085e9-Kaisho-g3" kvg:element="氵" kvg:variant="true" kvg:original="水" kvg:position="left">
			<path id="kvg:085e9-Kaisho-s4" kvg:type="㇔" d="M21.19,38.48c3.88,1.34,10.01,5.52,10.99,7.61"/>
			<path id="kvg:085e9-Kaisho-s5" kvg:type="㇔" d="M17.5,55.36c3.69,1.21,9.52,4.98,10.44,6.87"/>
			<path id="kvg:085e9-Kaisho-s6" kvg:type="㇀" d="M18.4,92.6c1.38,0.46,2.7,0.35,3.6-0.94c2.62-3.76,5.25-9.11,7.63-13.91"/>
		</g>
		<g id="kvg:085e9-Kaisho-g4" kvg:element="番" kvg:position="right">
			<g id="kvg:085e9-Kaisho-g5" kvg:element="釆" kvg:position="top">
				<g id="kvg:085e9-Kaisho-g6" kvg:element="丿">
					<path id="kvg:085e9-Kaisho-s7" kvg:type="㇒" d="M76.3,32.66c0.08,0.21,0.1,0.51-0.15,0.85c-2.05,2.77-13.19,5.37-26.42,7.6"/>
				</g>
				<g id="kvg:085e9-Kaisho-g7" kvg:element="米">
					<path id="kvg:085e9-Kaisho-s8" kvg:type="㇔" d="M48.37,45.14c2.08,0.9,5.23,3.42,5.75,4.82"/>
					<path id="kvg:085e9-Kaisho-s9" kvg:type="㇒" d="M81.42,41.23c0.03,0.24,0.14,0.63-0.05,0.95c-1.55,2.55-4.04,5.55-9.16,9.06"/>
					<path id="kvg:085e9-Kaisho-s10" kvg:type="㇐" d="M39.19,55.5c0.58,0.13,2.13,0.36,3.68,0.41c4.26,0.14,37.46-4.85,44.24-4.58c1.55,0.06,1.94-0.14,2.9,0"/>
					<path id="kvg:085e9-Kaisho-s11" kvg:type="㇑" d="M62.86,41.22c1.08,0.22,1.94,1.31,1.94,1.78c0,2.78,0,22.91-0.22,25.68"/>
					<path id="kvg:085e9-Kaisho-s12" kvg:type="㇒" d="M63.7,54.23c-4.17,5.63-14.12,12.9-23.51,16.14"/>
					<path id="kvg:085e9-Kaisho-s13" kvg:type="㇏" d="M65.42,53.64c3.25,1.88,18.85,11.64,22.38,13.49c1.2,0.63,2.22,0.89,3.42,1.07"/>
				</g>
			</g>
			<g id="kvg:085e9-Kaisho-g8" kvg:element="田" kvg:position="bottom">
				<path id="kvg:085e9-Kaisho-s14" kvg:type="㇑" d="M45.79,75.2c0.28,0.4,0.28,0.67,0.43,1.17c1.22,4.1,1.76,14.67,2.48,22.22"/>
				<path id="kvg:085e9-Kaisho-s15" kvg:type="㇕a" d="M47.09,76.51c12.17-1.16,26.13-2.87,33.39-3.27c2.67-0.15,4.02,1.04,3.88,2.14c-0.6,4.54-1.8,15.39-3.84,22.37"/>
				<path id="kvg:085e9-Kaisho-s16" kvg:type="㇑a" d="M63.6,76.07c0.58,0.77,0.78,1.09,0.78,2.17c-0.02,5.1,0.17,15.71,0.17,17.37"/>
				<path id="kvg:085e9-Kaisho-s17" kvg:type="㇐a" d="M48.32,85.97c7.79-0.5,15.58-1.98,23.36-2.43c0.94-0.05,1.85-0.11,2.72-0.16"/>
				<path id="kvg:085e9-Kaisho-s18" kvg:type="㇐a" d="M49.21,96.83c8.4-0.27,22.05-1.96,31.71-2.07"/>
			</g>
		</g>
	</g>
</g>
</g>
<g id="kvg:StrokeNumbers_085e9-Kaisho" style="font-size:8;fill:#808080">
	<text transform="matrix(1 0 0 1 17.25 25.50)">1</text>
	<text transform="matrix(1 0 0 1 30.50 14.50)">2</text>
	<text transform="matrix(1 0 0 1 61.50 13.50)">3</text>
	<text transform="matrix(1 0 0 1 12.75 39.50)">4</text>
	<text transform="matrix(1 0 0 1 10.50 56.50)">5</text>
	<text transform="matrix(1 0 0 1 10.50 96.50)">6</text>
	<text transform="matrix(1 0 0 1 70.50 32.50)">7</text>
	<text transform="matrix(1 0 0 1 42.50 47.50)">8</text>
	<text transform="matrix(1 0 0 1 73.50 43.50)">9</text>
	<text transform="matrix(1 0 0 1 34.50 52.50)">10</text>
	<text transform="matrix(1 0 0 1 56.50 47.50)">11</text>
	<text transform="matrix(1 0 0 1 45.50 63.50)">12</text>
	<text transform="matrix(1 0 0 1 77.50 59.50)">13</text>
	<text transform="matrix(1 0 0 1 36.50 82.50)">14</text>
	<text transform="matrix(1 0 0 1 49.50 73.63)">15</text>
	<text transform="matrix(1 0 0 1 67.50 81.13)">16</text>
	<text transform="matrix(1 0 0 1 50.25 83.50)">17</text>
	<text transform="matrix(1 0 0 1 51.50 94.55)">18</text>
</g>
</svg>
