<?xml version="1.0" encoding="UTF-8"?>
<!--
Copyright (C) 2009/2010/2011 Ulrich Apel.
This work is distributed under the conditions of the Creative Commons 
Attribution-Share Alike 3.0 Licence. This means you are free:
* to Share - to copy, distribute and transmit the work
* to Remix - to adapt the work

Under the following conditions:
* Attribution. You must attribute the work by stating your use of KanjiVG in
  your own copyright header and linking to KanjiVG's website
  (http://kanjivg.tagaini.net)
* Share Alike. If you alter, transform, or build upon this work, you may
  distribute the resulting work only under the same or similar license to this
  one.

See http://creativecommons.org/licenses/by-sa/3.0/ for more details.
-->
<!DOCTYPE svg PUBLIC "-//W3C//DTD SVG 1.0//EN" "http://www.w3.org/TR/2001/REC-SVG-20010904/DTD/svg10.dtd" [
<!ATTLIST g
xmlns:kvg CDATA #FIXED "http://kanjivg.tagaini.net"
kvg:element CDATA #IMPLIED
kvg:variant CDATA #IMPLIED
kvg:partial CDATA #IMPLIED
kvg:original CDATA #IMPLIED
kvg:part CDATA #IMPLIED
kvg:number CDATA #IMPLIED
kvg:tradForm CDATA #IMPLIED
kvg:radicalForm CDATA #IMPLIED
kvg:position CDATA #IMPLIED
kvg:radical CDATA #IMPLIED
kvg:phon CDATA #IMPLIED >
<!ATTLIST path
xmlns:kvg CDATA #FIXED "http://kanjivg.tagaini.net"
kvg:type CDATA #IMPLIED >
]>
<svg xmlns="http://www.w3.org/2000/svg" width="109" height="109" viewBox="0 0 109 109">
<g id="kvg:StrokePaths_086db-Kaisho" style="fill:none;stroke:#000000;stroke-width:3;stroke-linecap:round;stroke-linejoin:round;">
<g id="kvg:086db-Kaisho" kvg:element="蛛">
	<g id="kvg:086db-Kaisho-g1" kvg:element="虫" kvg:position="left" kvg:radical="general">
		<g id="kvg:086db-Kaisho-g2" kvg:element="中">
			<g id="kvg:086db-Kaisho-g3" kvg:element="口">
				<path id="kvg:086db-Kaisho-s1" kvg:type="㇑" d="M11.76,36.9c0.46,0.51,1.02,1.4,1.12,2.06c0.87,5.79,1.87,13.79,3.12,22.43"/>
				<path id="kvg:086db-Kaisho-s2" kvg:type="㇕b" d="M13.72,38.98c6.93-0.97,19.11-3.33,24.13-3.7c1.96-0.14,2.86,1.38,2.62,2.83c-0.83,4.98-1.98,10.34-3.33,18.62"/>
				<path id="kvg:086db-Kaisho-s3" kvg:type="㇐b" d="M16.26,59.43c5.58-0.98,15.46-1.98,23.26-2.89"/>
			</g>
			<g id="kvg:086db-Kaisho-g4" kvg:element="丨">
				<path id="kvg:086db-Kaisho-s4" kvg:type="㇑a" d="M24.42,16.25c1.08,1,2.26,2.75,2.26,4.47c0,4.78-0.2,44.28-0.2,57.66"/>
			</g>
		</g>
		<path id="kvg:086db-Kaisho-s5" kvg:type="㇀" d="M10.57,85.27c0.6,1.16,2.46,1.11,3.06,0.82c0.6-0.29,22.04-12.15,25.76-14.47"/>
		<path id="kvg:086db-Kaisho-s6" kvg:type="㇔" d="M35.25,64c2.4,2.45,6.21,10.08,6.81,13.89"/>
	</g>
	<g id="kvg:086db-Kaisho-g5" kvg:element="朱" kvg:position="right">
		<path id="kvg:086db-Kaisho-s7" kvg:type="㇒" d="M55,23.36c0.02,0.45,0.09,1.28-0.05,1.79c-1.72,6.27-4.26,12.03-8.73,17.09"/>
		<g id="kvg:086db-Kaisho-g6" kvg:element="未">
			<path id="kvg:086db-Kaisho-s8" kvg:type="㇐" d="M53.49,35c0.67,0.27,2.41,0.3,3.08,0.27c7.01-0.31,18.48-3.2,27.01-4.1c1.12-0.12,1.8,0.13,2.36,0.27"/>
			<g id="kvg:086db-Kaisho-g7" kvg:element="木">
				<path id="kvg:086db-Kaisho-s9" kvg:type="㇐" d="M46.89,52.5c0.68,0.24,2.5,0.38,4.32,0.23c9.04-0.73,24.88-2.12,37.39-3.34c1.81-0.18,3.42,0.24,4.56,0.49"/>
				<path id="kvg:086db-Kaisho-s10" kvg:type="㇑" d="M64.48,13.75c1.14,0.49,1.82,2.2,2.05,3.17S66.3,90.87,66.3,92c0,10.75-5.8,2.75-7.3,1.25"/>
				<path id="kvg:086db-Kaisho-s11" kvg:type="㇒" d="M66.25,54.04c-4.91,10.94-17.6,27.52-27.8,33.71"/>
				<path id="kvg:086db-Kaisho-s12" kvg:type="㇏" d="M66.85,54.81C70.3,61.02,84.86,78.76,90,83.95c1.28,1.3,2.31,1.96,3.55,2.35"/>
			</g>
		</g>
	</g>
</g>
</g>
<g id="kvg:StrokeNumbers_086db-Kaisho" style="font-size:8;fill:#808080">
	<text transform="matrix(1 0 0 1 6.50 44.50)">1</text>
	<text transform="matrix(1 0 0 1 14.50 34.50)">2</text>
	<text transform="matrix(1 0 0 1 18.50 56.50)">3</text>
	<text transform="matrix(1 0 0 1 14.50 16.50)">4</text>
	<text transform="matrix(1 0 0 1 3.72 88.50)">5</text>
	<text transform="matrix(1 0 0 1 38.50 65.50)">6</text>
	<text transform="matrix(1 0 0 1 46.50 22.50)">7</text>
	<text transform="matrix(1 0 0 1 58.50 32.50)">8</text>
	<text transform="matrix(1 0 0 1 46.50 49.53)">9</text>
	<text transform="matrix(1 0 0 1 53.50 13.45)">10</text>
	<text transform="matrix(1 0 0 1 51.25 63.50)">11</text>
	<text transform="matrix(1 0 0 1 74.50 62.50)">12</text>
</g>
</svg>
