<?xml version="1.0" encoding="UTF-8"?>
<!--
Copyright (C) 2009/2010/2011 Ulrich Apel.
This work is distributed under the conditions of the Creative Commons 
Attribution-Share Alike 3.0 Licence. This means you are free:
* to Share - to copy, distribute and transmit the work
* to Remix - to adapt the work

Under the following conditions:
* Attribution. You must attribute the work by stating your use of KanjiVG in
  your own copyright header and linking to KanjiVG's website
  (http://kanjivg.tagaini.net)
* Share Alike. If you alter, transform, or build upon this work, you may
  distribute the resulting work only under the same or similar license to this
  one.

See http://creativecommons.org/licenses/by-sa/3.0/ for more details.
-->
<!DOCTYPE svg PUBLIC "-//W3C//DTD SVG 1.0//EN" "http://www.w3.org/TR/2001/REC-SVG-20010904/DTD/svg10.dtd" [
<!ATTLIST g
xmlns:kvg CDATA #FIXED "http://kanjivg.tagaini.net"
kvg:element CDATA #IMPLIED
kvg:variant CDATA #IMPLIED
kvg:partial CDATA #IMPLIED
kvg:original CDATA #IMPLIED
kvg:part CDATA #IMPLIED
kvg:number CDATA #IMPLIED
kvg:tradForm CDATA #IMPLIED
kvg:radicalForm CDATA #IMPLIED
kvg:position CDATA #IMPLIED
kvg:radical CDATA #IMPLIED
kvg:phon CDATA #IMPLIED >
<!ATTLIST path
xmlns:kvg CDATA #FIXED "http://kanjivg.tagaini.net"
kvg:type CDATA #IMPLIED >
]>
<svg xmlns="http://www.w3.org/2000/svg" width="109" height="109" viewBox="0 0 109 109">
<g id="kvg:StrokePaths_086fe" style="fill:none;stroke:#000000;stroke-width:3;stroke-linecap:round;stroke-linejoin:round;">
<g id="kvg:086fe" kvg:element="蛾">
	<g id="kvg:086fe-g1" kvg:element="虫" kvg:position="left" kvg:radical="general">
		<g id="kvg:086fe-g2" kvg:element="中">
			<g id="kvg:086fe-g3" kvg:element="口">
				<path id="kvg:086fe-s1" kvg:type="㇑" d="M11.9,37.27c0.79,0.79,1.15,1.59,1.33,2.78c0.88,5.96,1.53,10.45,2.24,16.22c0.21,1.68,0.42,3.48,0.64,5.45"/>
				<path id="kvg:086fe-s2" kvg:type="㇕b" d="M14.05,38.9c7.19-0.83,18.03-2.27,23.8-3.04c3.35-0.44,4.54,0.97,4.17,3.27c-0.9,5.62-1.44,8.33-2.65,16.12"/>
				<path id="kvg:086fe-s3" kvg:type="㇐b" d="M17.11,58.49c4.49-0.53,12.49-1.52,19.14-2.12c1.98-0.18,3.84-0.33,5.45-0.42"/>
			</g>
			<g id="kvg:086fe-g4" kvg:element="丨">
				<path id="kvg:086fe-s4" kvg:type="㇑a" d="M26.31,19c0.91,0.91,1.13,1.8,1.13,2.63c0,3.81-0.07,50.11-0.07,55.74"/>
			</g>
		</g>
		<path id="kvg:086fe-s5" kvg:type="㇀" d="M11.28,86.24c1,0.76,2.24,1.25,3.64,0.33c4.3-2.81,19.82-13.04,23.07-15.2"/>
		<path id="kvg:086fe-s6" kvg:type="㇔" d="M35.84,62.63c2.91,3.87,6.53,10.74,7.83,16.05"/>
	</g>
	<g id="kvg:086fe-g5" kvg:element="我" kvg:position="right">
		<g id="kvg:086fe-g6" kvg:element="丿">
			<path id="kvg:086fe-s7" kvg:type="㇒" d="M65.87,16.64c0,0.86-0.66,1.91-1.28,2.55C61,22.88,57.88,25.12,48,31"/>
		</g>
		<g id="kvg:086fe-g7" kvg:element="戈" kvg:part="1">
			<g id="kvg:086fe-g8" kvg:element="弋" kvg:part="1">
				<path id="kvg:086fe-s8" kvg:type="㇐" d="M46.61,43.7c3.45,0.47,6.12,0.44,9.51-0.09c9.25-1.48,23.54-3.34,33.1-4.32c2.76-0.49,5.52-0.51,8.27-0.05"/>
			</g>
		</g>
		<g id="kvg:086fe-g9" kvg:element="亅">
			<path id="kvg:086fe-s9" kvg:type="㇚" d="M60.32,28.33c1.05,1.05,1.14,2.54,1.14,4.27c0,14.56,0.01,50.91-0.01,55.87c-0.04,9.28-5.57,1-7.07-0.25"/>
		</g>
		<path id="kvg:086fe-s10" kvg:type="㇀" d="M46.73,69.59c1.65,0.91,2.79,0.78,4.56-0.51C55.5,66,61.88,60.62,68.94,54.5"/>
		<g id="kvg:086fe-g10" kvg:element="戈" kvg:part="2">
			<path id="kvg:086fe-s11" kvg:type="㇂" d="M73.82,14.75c1.21,1.21,1.46,2.69,1.52,6.41c0.53,32.09,6.87,62.3,18.08,71.61c3.87,3.21,3.17,0.99,2.7-6.64"/>
			<g id="kvg:086fe-g11" kvg:element="丿">
				<path id="kvg:086fe-s12" kvg:type="㇒" d="M93.11,49.14c-0.18,1.51-0.7,2.88-1.54,4.1C87.19,60.58,79.12,70.85,69.5,80"/>
			</g>
			<g id="kvg:086fe-g12" kvg:element="弋" kvg:part="2">
				<g id="kvg:086fe-g13" kvg:element="丶">
					<path id="kvg:086fe-s13" kvg:type="㇔" d="M82.86,19.5c3.01,2.5,7.82,8.21,9.22,12.5"/>
				</g>
			</g>
		</g>
	</g>
</g>
</g>
<g id="kvg:StrokeNumbers_086fe" style="font-size:8;fill:#808080">
	<text transform="matrix(1 0 0 1 6.50 44.50)">1</text>
	<text transform="matrix(1 0 0 1 15.50 35.50)">2</text>
	<text transform="matrix(1 0 0 1 19.50 55.50)">3</text>
	<text transform="matrix(1 0 0 1 16.50 18.50)">4</text>
	<text transform="matrix(1 0 0 1 3.72 89.50)">5</text>
	<text transform="matrix(1 0 0 1 38.50 64.50)">6</text>
	<text transform="matrix(1 0 0 1 58.50 16.50)">7</text>
	<text transform="matrix(1 0 0 1 46.50 40.50)">8</text>
	<text transform="matrix(1 0 0 1 53.50 36.50)">9</text>
	<text transform="matrix(1 0 0 1 42.50 65.50)">10</text>
	<text transform="matrix(1 0 0 1 67.75 11.50)">11</text>
	<text transform="matrix(1 0 0 1 80.25 50.40)">12</text>
	<text transform="matrix(1 0 0 1 80.50 16.50)">13</text>
</g>
</svg>
