<?xml version="1.0" encoding="UTF-8"?>
<!--
Copyright (C) 2009/2010/2011 Ulrich Apel.
This work is distributed under the conditions of the Creative Commons 
Attribution-Share Alike 3.0 Licence. This means you are free:
* to Share - to copy, distribute and transmit the work
* to Remix - to adapt the work

Under the following conditions:
* Attribution. You must attribute the work by stating your use of KanjiVG in
  your own copyright header and linking to KanjiVG's website
  (http://kanjivg.tagaini.net)
* Share Alike. If you alter, transform, or build upon this work, you may
  distribute the resulting work only under the same or similar license to this
  one.

See http://creativecommons.org/licenses/by-sa/3.0/ for more details.
-->
<!DOCTYPE svg PUBLIC "-//W3C//DTD SVG 1.0//EN" "http://www.w3.org/TR/2001/REC-SVG-20010904/DTD/svg10.dtd" [
<!ATTLIST g
xmlns:kvg CDATA #FIXED "http://kanjivg.tagaini.net"
kvg:element CDATA #IMPLIED
kvg:variant CDATA #IMPLIED
kvg:partial CDATA #IMPLIED
kvg:original CDATA #IMPLIED
kvg:part CDATA #IMPLIED
kvg:number CDATA #IMPLIED
kvg:tradForm CDATA #IMPLIED
kvg:radicalForm CDATA #IMPLIED
kvg:position CDATA #IMPLIED
kvg:radical CDATA #IMPLIED
kvg:phon CDATA #IMPLIED >
<!ATTLIST path
xmlns:kvg CDATA #FIXED "http://kanjivg.tagaini.net"
kvg:type CDATA #IMPLIED >
]>
<svg xmlns="http://www.w3.org/2000/svg" width="109" height="109" viewBox="0 0 109 109">
<g id="kvg:StrokePaths_08768" style="fill:none;stroke:#000000;stroke-width:3;stroke-linecap:round;stroke-linejoin:round;">
<g id="kvg:08768" kvg:element="蝨">
	<g id="kvg:08768-g1" kvg:position="top">
		<g id="kvg:08768-g2" kvg:element="乙">
			<path id="kvg:08768-s1" kvg:type="㇈" d="M24.75,18.72c1.26-0.09,2.79,0.35,4.5,0.19c13-1.17,35-4.67,42.46-6.17c2.49-0.5,3.14,1.81,2.93,3.76c-1.14,10.24-2.89,26.74,12.89,33.31c7.88,3.28,7.97,1.43,6.47-3.93"/>
		</g>
		<g id="kvg:08768-g3" kvg:element="十" kvg:variant="true">
			<path id="kvg:08768-s2" kvg:type="㇐" d="M23.25,34.39c1.21,0.38,3.42,0.42,4.63,0.38c9.87-0.27,27.62-3.27,36.14-4.38c1.99-0.26,3.22,0.18,4.23,0.37"/>
			<path id="kvg:08768-s3" kvg:type="㇒" d="M49.25,22.64c0.5,0.61,0.43,1.65,0.38,2.61C49.25,33,42.25,46,28.56,50.22"/>
		</g>
	</g>
	<g id="kvg:08768-g4" kvg:position="bottom">
		<g id="kvg:08768-g5" kvg:element="虫" kvg:position="left" kvg:radical="general">
			<g id="kvg:08768-g6" kvg:element="中">
				<g id="kvg:08768-g7" kvg:element="口">
					<path id="kvg:08768-s4" kvg:type="㇑" d="M18.49,62.8c0.48,0.33,0.83,1.14,0.92,1.58c0.65,3.14,1.82,9.28,2.74,15.23"/>
					<path id="kvg:08768-s5" kvg:type="㇕b" d="M19.76,64.07c7.33-0.63,23.38-2.44,28.68-2.68c2.07-0.09,2.16,1,1.96,2.4c-0.48,3.25-0.77,5.12-2.19,10.48"/>
					<path id="kvg:08768-s6" kvg:type="㇐b" d="M21.92,76.84c5.9-0.63,18.98-2.11,27.23-2.7"/>
				</g>
				<g id="kvg:08768-g8" kvg:element="丨">
					<path id="kvg:08768-s7" kvg:type="㇑a" d="M33.11,53.5c0.68,0.24,1.08,1.09,1.22,1.58c0.14,0.49,0,32.91-0.13,35.95"/>
				</g>
			</g>
			<path id="kvg:08768-s8" kvg:type="㇀" d="M17.25,94.62c0.77,0.57,2.24,1.29,3.01,1.15c0.77-0.14,20.24-6.51,26.99-8.38"/>
			<path id="kvg:08768-s9" kvg:type="㇔" d="M43.99,81.22c2.37,2.43,6.13,9.97,6.72,13.75"/>
		</g>
		<g id="kvg:08768-g9" kvg:element="虫" kvg:position="right" kvg:radical="general">
			<g id="kvg:08768-g10" kvg:element="中">
				<g id="kvg:08768-g11" kvg:element="口">
					<path id="kvg:08768-s10" kvg:type="㇑" d="M56.99,60.82c0.55,0.33,0.95,1.16,1.05,1.6c0.75,3.19,1.02,7.89,2.08,13.93"/>
					<path id="kvg:08768-s11" kvg:type="㇕b" d="M58.45,62.11c8.42-0.64,23.35-2.48,29.44-2.72c2.38-0.09,2.48,1.02,2.25,2.44c-0.55,3.29-0.88,5.2-2.52,10.64"/>
					<path id="kvg:08768-s12" kvg:type="㇐b" d="M60.43,74.57c6.77-0.64,19.8-1.63,29.28-2.23"/>
				</g>
				<g id="kvg:08768-g12" kvg:element="丨">
					<path id="kvg:08768-s13" kvg:type="㇑a" d="M72.11,49c0.68,0.29,1.08,1.31,1.22,1.9c0.14,0.58,0,36.23-0.13,39.89"/>
				</g>
			</g>
			<path id="kvg:08768-s14" kvg:type="㇀" d="M57.75,93.12c0.77,0.57,1.74,1.29,2.51,1.15c0.77-0.14,24.19-5.23,28.99-6.38"/>
			<path id="kvg:08768-s15" kvg:type="㇔" d="M83.24,81.47c3.87,2.65,10,10.88,10.97,15"/>
		</g>
	</g>
</g>
</g>
<g id="kvg:StrokeNumbers_08768" style="font-size:8;fill:#808080">
	<text transform="matrix(1 0 0 1 18.50 18.63)">1</text>
	<text transform="matrix(1 0 0 1 15.50 35.55)">2</text>
	<text transform="matrix(1 0 0 1 40.50 26.48)">3</text>
	<text transform="matrix(1 0 0 1 13.50 70.50)">4</text>
	<text transform="matrix(1 0 0 1 21.50 60.50)">5</text>
	<text transform="matrix(1 0 0 1 24.50 74.50)">6</text>
	<text transform="matrix(1 0 0 1 26.50 58.50)">7</text>
	<text transform="matrix(1 0 0 1 17.50 91.50)">8</text>
	<text transform="matrix(1 0 0 1 47.50 82.50)">9</text>
	<text transform="matrix(1 0 0 1 50.50 72.50)">10</text>
	<text transform="matrix(1 0 0 1 60.50 58.50)">11</text>
	<text transform="matrix(1 0 0 1 61.50 71.50)">12</text>
	<text transform="matrix(1 0 0 1 60.50 49.50)">13</text>
	<text transform="matrix(1 0 0 1 57.25 89.50)">14</text>
	<text transform="matrix(1 0 0 1 85.25 80.58)">15</text>
</g>
</svg>
