<?xml version="1.0" encoding="UTF-8"?>
<!--
Copyright (C) 2009/2010/2011 Ulrich Apel.
This work is distributed under the conditions of the Creative Commons 
Attribution-Share Alike 3.0 Licence. This means you are free:
* to Share - to copy, distribute and transmit the work
* to Remix - to adapt the work

Under the following conditions:
* Attribution. You must attribute the work by stating your use of KanjiVG in
  your own copyright header and linking to KanjiVG's website
  (http://kanjivg.tagaini.net)
* Share Alike. If you alter, transform, or build upon this work, you may
  distribute the resulting work only under the same or similar license to this
  one.

See http://creativecommons.org/licenses/by-sa/3.0/ for more details.
-->
<!DOCTYPE svg PUBLIC "-//W3C//DTD SVG 1.0//EN" "http://www.w3.org/TR/2001/REC-SVG-20010904/DTD/svg10.dtd" [
<!ATTLIST g
xmlns:kvg CDATA #FIXED "http://kanjivg.tagaini.net"
kvg:element CDATA #IMPLIED
kvg:variant CDATA #IMPLIED
kvg:partial CDATA #IMPLIED
kvg:original CDATA #IMPLIED
kvg:part CDATA #IMPLIED
kvg:number CDATA #IMPLIED
kvg:tradForm CDATA #IMPLIED
kvg:radicalForm CDATA #IMPLIED
kvg:position CDATA #IMPLIED
kvg:radical CDATA #IMPLIED
kvg:phon CDATA #IMPLIED >
<!ATTLIST path
xmlns:kvg CDATA #FIXED "http://kanjivg.tagaini.net"
kvg:type CDATA #IMPLIED >
]>
<svg xmlns="http://www.w3.org/2000/svg" width="109" height="109" viewBox="0 0 109 109">
<g id="kvg:StrokePaths_087c6-Kaisho" style="fill:none;stroke:#000000;stroke-width:3;stroke-linecap:round;stroke-linejoin:round;">
<g id="kvg:087c6-Kaisho" kvg:element="蟆">
	<g id="kvg:087c6-Kaisho-g1" kvg:element="虫" kvg:position="left" kvg:radical="general">
		<g id="kvg:087c6-Kaisho-g2" kvg:element="中">
			<g id="kvg:087c6-Kaisho-g3" kvg:element="口">
				<path id="kvg:087c6-Kaisho-s1" kvg:type="㇑" d="M11.26,34.9c0.51,0.59,1.14,1.63,1.25,2.41c0.97,6.75,2.09,15.5,3.49,25.59"/>
				<path id="kvg:087c6-Kaisho-s2" kvg:type="㇕b" d="M12.72,37.48c6.93-0.97,19.11-2.83,24.13-3.2c1.96-0.14,2.86,1.38,2.62,2.83c-0.83,4.98-1.98,12.84-3.33,21.12"/>
				<path id="kvg:087c6-Kaisho-s3" kvg:type="㇐b" d="M15.76,60.43c6.99-0.43,12.49-1.18,22.26-1.89"/>
			</g>
			<g id="kvg:087c6-Kaisho-g4" kvg:element="丨">
				<path id="kvg:087c6-Kaisho-s4" kvg:type="㇑a" d="M23.42,14.25c1.08,1,2.26,2.75,2.26,4.47c0,4.78-0.2,50.78-0.2,64.16"/>
			</g>
		</g>
		<path id="kvg:087c6-Kaisho-s5" kvg:type="㇀" d="M11.57,86.77c0.6,1.16,2.46,1.11,3.06,0.82c1.87-0.9,16.62-7.34,22.76-9.97"/>
		<path id="kvg:087c6-Kaisho-s6" kvg:type="㇔" d="M33.25,69.75c2.75,3.11,7.12,12.8,7.81,17.64"/>
	</g>
	<g id="kvg:087c6-Kaisho-g5" kvg:element="莫" kvg:position="right">
		<g id="kvg:087c6-Kaisho-g6" kvg:element="艹" kvg:variant="true" kvg:original="艸" kvg:position="top">
			<path id="kvg:087c6-Kaisho-s7" kvg:type="㇐" d="M43.41,22.87c1.21,0.43,2.62,0.51,3.83,0.43c11.12-0.78,34.01-2.05,44.25-2.79c2.01-0.15,3.23-0.3,4.24-0.08"/>
			<path id="kvg:087c6-Kaisho-s8" kvg:type="㇑a" d="M56.55,13.5c1.43,1.43,1.88,1.87,2.04,2.75c1.42,8.25,1.33,12.25,1.74,15.25"/>
			<path id="kvg:087c6-Kaisho-s9" kvg:type="㇑a" d="M80.38,11.25c0.34,1.18,0.71,2.02,0.41,3.5c-1.42,7-1.04,7.75-2.66,14.75"/>
		</g>
		<g id="kvg:087c6-Kaisho-g7" kvg:position="bottom">
			<g id="kvg:087c6-Kaisho-g8" kvg:element="日">
				<path id="kvg:087c6-Kaisho-s10" kvg:type="㇑" d="M49.97,36.04c0.44,0.56,1.22,2.42,1.29,3.16c0.59,5.62,2.24,18.32,2.24,18.69c0,0.37,0.14,0.37,0.29,1.11"/>
				<path id="kvg:087c6-Kaisho-s11" kvg:type="㇕a" d="M50.99,37.21c6.6-1.04,32.58-3.36,34.82-3.47c1.86-0.09,3,2.58,2.92,3.15c-0.61,4.47-3,15.01-4.02,19.62"/>
				<path id="kvg:087c6-Kaisho-s12" kvg:type="㇐a" d="M52.42,46.72c5.62,0,11.37-0.97,16.95-1.52c1.92-0.19,3.84-0.38,5.67-0.56"/>
				<path id="kvg:087c6-Kaisho-s13" kvg:type="㇐a" d="M53.95,57.44c6.77-0.4,22.14-1.99,30.57-2.33"/>
			</g>
			<g id="kvg:087c6-Kaisho-g9" kvg:element="大">
				<path id="kvg:087c6-Kaisho-s14" kvg:type="㇐" d="M43.28,70.12c2.03,0.6,4.31,0.77,5.65,0.67c9.68-0.72,22.11-1.37,41.51-2.79c1.68-0.12,4.69-0.12,6.57-0.12"/>
				<path id="kvg:087c6-Kaisho-s15" kvg:type="㇒" d="M67.93,59.5c0.32,1.27,0.38,1.14,0.26,2.26C66.3,80.78,58.17,91.72,42,97.75"/>
				<path id="kvg:087c6-Kaisho-s16" kvg:type="㇏" d="M68.78,71c5.45,6.21,17.25,20.84,22.69,24.99c1.85,1.41,2.49,1.62,3.34,1.76"/>
			</g>
		</g>
	</g>
</g>
</g>
<g id="kvg:StrokeNumbers_087c6-Kaisho" style="font-size:8;fill:#808080">
	<text transform="matrix(1 0 0 1 5.50 41.50)">1</text>
	<text transform="matrix(1 0 0 1 15.50 33.50)">2</text>
	<text transform="matrix(1 0 0 1 18.50 57.50)">3</text>
	<text transform="matrix(1 0 0 1 14.50 14.50)">4</text>
	<text transform="matrix(1 0 0 1 3.72 92.85)">5</text>
	<text transform="matrix(1 0 0 1 35.50 68.50)">6</text>
	<text transform="matrix(1 0 0 1 37.50 21.50)">7</text>
	<text transform="matrix(1 0 0 1 47.25 12.50)">8</text>
	<text transform="matrix(1 0 0 1 71.50 10.50)">9</text>
	<text transform="matrix(1 0 0 1 41.50 44.50)">10</text>
	<text transform="matrix(1 0 0 1 49.25 33.88)">11</text>
	<text transform="matrix(1 0 0 1 55.50 44.50)">12</text>
	<text transform="matrix(1 0 0 1 56.50 54.73)">13</text>
	<text transform="matrix(1 0 0 1 42.50 67.65)">14</text>
	<text transform="matrix(1 0 0 1 57.50 65.50)">15</text>
	<text transform="matrix(1 0 0 1 77.25 77.50)">16</text>
</g>
</svg>
