<?xml version="1.0" encoding="UTF-8"?>
<!--
Copyright (C) 2009/2010/2011 Ulrich Apel.
This work is distributed under the conditions of the Creative Commons 
Attribution-Share Alike 3.0 Licence. This means you are free:
* to Share - to copy, distribute and transmit the work
* to Remix - to adapt the work

Under the following conditions:
* Attribution. You must attribute the work by stating your use of KanjiVG in
  your own copyright header and linking to KanjiVG's website
  (http://kanjivg.tagaini.net)
* Share Alike. If you alter, transform, or build upon this work, you may
  distribute the resulting work only under the same or similar license to this
  one.

See http://creativecommons.org/licenses/by-sa/3.0/ for more details.
-->
<!DOCTYPE svg PUBLIC "-//W3C//DTD SVG 1.0//EN" "http://www.w3.org/TR/2001/REC-SVG-20010904/DTD/svg10.dtd" [
<!ATTLIST g
xmlns:kvg CDATA #FIXED "http://kanjivg.tagaini.net"
kvg:element CDATA #IMPLIED
kvg:variant CDATA #IMPLIED
kvg:partial CDATA #IMPLIED
kvg:original CDATA #IMPLIED
kvg:part CDATA #IMPLIED
kvg:number CDATA #IMPLIED
kvg:tradForm CDATA #IMPLIED
kvg:radicalForm CDATA #IMPLIED
kvg:position CDATA #IMPLIED
kvg:radical CDATA #IMPLIED
kvg:phon CDATA #IMPLIED >
<!ATTLIST path
xmlns:kvg CDATA #FIXED "http://kanjivg.tagaini.net"
kvg:type CDATA #IMPLIED >
]>
<svg xmlns="http://www.w3.org/2000/svg" width="109" height="109" viewBox="0 0 109 109">
<g id="kvg:StrokePaths_087f9" style="fill:none;stroke:#000000;stroke-width:3;stroke-linecap:round;stroke-linejoin:round;">
<g id="kvg:087f9" kvg:element="蟹">
	<g id="kvg:087f9-g1" kvg:element="解" kvg:position="top">
		<g id="kvg:087f9-g2" kvg:element="角" kvg:position="left">
			<g id="kvg:087f9-g3" kvg:element="𠂊" kvg:variant="true" kvg:original="勹" kvg:position="top">
				<path id="kvg:087f9-s1" kvg:type="㇒" d="M28.74,11.5c0.1,0.87,0.01,1.73-0.45,2.46C25.62,18.12,23,21.5,16.98,26.28"/>
				<path id="kvg:087f9-s2" kvg:type="㇇a" d="M28.88,16.62c0.88,0.12,1.63,0.18,2.92-0.15c3.33-0.85,6.33-1.35,8.97-2.31c1.84-0.67,2.72,0.83,1.8,1.91c-2.06,2.43-3.43,4.3-6.43,7.8"/>
			</g>
			<g id="kvg:087f9-g4" kvg:position="bottom">
				<path id="kvg:087f9-s3" kvg:type="㇒" d="m21.32,26.9c0.89,0.88,0.92,1.85,0.96,2.73,0.47,10.62-0.41,20.74-6.4,27.44"/>
				<path id="kvg:087f9-s4" kvg:type="㇆a" d="M22.84,27.7c8.53-1.07,14.53-1.82,22.69-2.69c2.99-0.32,3.75,0.74,3.75,2.94c0,3.3-0.06,14.09-0.06,24.49c0,7.47-3.95,2.08-6.01,1"/>
				<path id="kvg:087f9-s5" kvg:type="㇑a" d="M34.3,27.74c0.6,0.6,0.91,1.27,0.91,2.2c0,4.68-0.08,10.52-0.08,12.05"/>
				<path id="kvg:087f9-s6" kvg:type="㇐a" d="M23.45,35.78c9.38-0.83,14.8-1.28,24.85-2.06"/>
				<path id="kvg:087f9-s7" kvg:type="㇐a" d="M23.19,43.83c7.19-0.45,16.19-1.14,24.97-1.59"/>
			</g>
		</g>
		<g id="kvg:087f9-g5" kvg:position="right">
			<g id="kvg:087f9-g6" kvg:element="刀" kvg:position="top">
				<path id="kvg:087f9-s8" kvg:type="㇆" d="M57.04,16.72c2.08,0.19,4.15,0.14,6.21-0.16c8.75-1.07,19.4-2.25,23-2.42c2.77-0.13,3.54,1.24,2.99,3.45c-0.65,2.56-2.13,6.49-4.19,9.66c-3.14,4.82-4.74,1.15-6.22,0.12"/>
				<path id="kvg:087f9-s9" kvg:type="㇒" d="M68.86,18.66c0.05,0.9-0.18,1.72-0.7,2.48c-2.67,3.61-5.38,6.08-11.27,9.34"/>
			</g>
			<g id="kvg:087f9-g7" kvg:element="牛" kvg:position="bottom">
				<path id="kvg:087f9-s10" kvg:type="㇒" d="M63.88,30.89c0.06,0.79-0.09,1.55-0.45,2.27c-1.01,2.49-3.56,5.6-7.03,8.9"/>
				<path id="kvg:087f9-s11" kvg:type="㇐" d="M63.28,37.22c1.67,0.22,3.09,0.22,4.75,0.02c5.48-0.75,9.47-1.37,14.48-2.17c1.81-0.16,2.87-0.15,4.68,0.04"/>
				<path id="kvg:087f9-s12" kvg:type="㇐" d="M54.81,46.97c2.15,0.34,4.29,0.33,6.43-0.02c8.06-0.78,17.87-1.91,25.38-2.39c2.55-0.3,5.1-0.29,7.65,0.03"/>
				<path id="kvg:087f9-s13" kvg:type="㇑" d="M73.04,29.55c0.71,0.71,1.2,1.83,1.2,2.68c0,0.36-0.06,23.31-0.14,25.52"/>
			</g>
		</g>
	</g>
	<g id="kvg:087f9-g8" kvg:element="虫" kvg:position="bottom" kvg:radical="general">
		<g id="kvg:087f9-g9" kvg:element="中">
			<g id="kvg:087f9-g10" kvg:element="口">
				<path id="kvg:087f9-s14" kvg:type="㇑" d="M27.95,64.81c0.74,0.74,1.18,1.84,1.3,2.55c0.55,3.16,1,6.16,1.4,8.78c0.23,1.53,0.45,2.93,0.66,4.15"/>
				<path id="kvg:087f9-s15" kvg:type="㇕b" d="M29.86,65.86c12.44-1.02,39.42-2.95,48.42-3.34c3.51-0.15,4.1,1.74,3.32,3.88c-0.85,2.35-2.1,5.72-2.72,7.72"/>
				<path id="kvg:087f9-s16" kvg:type="㇐b" d="M32.52,78.24c10.35-0.83,26.41-1.75,40.23-2.58c2.68-0.16,5.27-0.32,7.73-0.47"/>
			</g>
			<g id="kvg:087f9-g11" kvg:element="丨">
				<path id="kvg:087f9-s17" kvg:type="㇑a" d="M53.73,56.25c0.88,0.88,1.05,2.12,1.05,3.02c0,0.8-0.03,27.14-0.03,32.1"/>
			</g>
		</g>
		<path id="kvg:087f9-s18" kvg:type="㇀" d="M22.35,94.1c1.28,1.4,2.77,1.66,4.64,1.43C37,94.25,53.12,92.62,76.88,90"/>
		<path id="kvg:087f9-s19" kvg:type="㇔" d="M71.36,81.5c5.03,3.09,12.99,12.69,14.25,17.49"/>
	</g>
</g>
</g>
<g id="kvg:StrokeNumbers_087f9" style="font-size:8;fill:#808080">
	<text transform="matrix(1 0 0 1 21.50 10.63)">1</text>
	<text transform="matrix(1 0 0 1 33.50 12.50)">2</text>
	<text transform="matrix(1 0 0 1 15.50 35.50)">3</text>
	<text transform="matrix(1 0 0 1 26.25 25.40)">4</text>
	<text transform="matrix(1 0 0 1 38.50 32.50)">5</text>
	<text transform="matrix(1 0 0 1 26.50 33.50)">6</text>
	<text transform="matrix(1 0 0 1 26.50 42.50)">7</text>
	<text transform="matrix(1 0 0 1 55.50 13.50)">8</text>
	<text transform="matrix(1 0 0 1 58.50 25.50)">9</text>
	<text transform="matrix(1 0 0 1 52.25 37.95)">10</text>
	<text transform="matrix(1 0 0 1 65.50 34.50)">11</text>
	<text transform="matrix(1 0 0 1 60.25 44.50)">12</text>
	<text transform="matrix(1 0 0 1 69.50 27.50)">13</text>
	<text transform="matrix(1 0 0 1 18.50 71.50)">14</text>
	<text transform="matrix(1 0 0 1 30.50 62.50)">15</text>
	<text transform="matrix(1 0 0 1 34.25 75.50)">16</text>
	<text transform="matrix(1 0 0 1 57.50 57.43)">17</text>
	<text transform="matrix(1 0 0 1 10.25 91.50)">18</text>
	<text transform="matrix(1 0 0 1 76.50 84.50)">19</text>
</g>
</svg>
