<?xml version="1.0" encoding="UTF-8"?>
<!--
Copyright (C) 2009/2010/2011 Ulrich Apel.
This work is distributed under the conditions of the Creative Commons 
Attribution-Share Alike 3.0 Licence. This means you are free:
* to Share - to copy, distribute and transmit the work
* to Remix - to adapt the work

Under the following conditions:
* Attribution. You must attribute the work by stating your use of KanjiVG in
  your own copyright header and linking to KanjiVG's website
  (http://kanjivg.tagaini.net)
* Share Alike. If you alter, transform, or build upon this work, you may
  distribute the resulting work only under the same or similar license to this
  one.

See http://creativecommons.org/licenses/by-sa/3.0/ for more details.
-->
<!DOCTYPE svg PUBLIC "-//W3C//DTD SVG 1.0//EN" "http://www.w3.org/TR/2001/REC-SVG-20010904/DTD/svg10.dtd" [
<!ATTLIST g
xmlns:kvg CDATA #FIXED "http://kanjivg.tagaini.net"
kvg:element CDATA #IMPLIED
kvg:variant CDATA #IMPLIED
kvg:partial CDATA #IMPLIED
kvg:original CDATA #IMPLIED
kvg:part CDATA #IMPLIED
kvg:number CDATA #IMPLIED
kvg:tradForm CDATA #IMPLIED
kvg:radicalForm CDATA #IMPLIED
kvg:position CDATA #IMPLIED
kvg:radical CDATA #IMPLIED
kvg:phon CDATA #IMPLIED >
<!ATTLIST path
xmlns:kvg CDATA #FIXED "http://kanjivg.tagaini.net"
kvg:type CDATA #IMPLIED >
]>
<svg xmlns="http://www.w3.org/2000/svg" width="109" height="109" viewBox="0 0 109 109">
<g id="kvg:StrokePaths_0884d" style="fill:none;stroke:#000000;stroke-width:3;stroke-linecap:round;stroke-linejoin:round;">
<g id="kvg:0884d" kvg:element="衍">
	<g id="kvg:0884d-g1" kvg:element="行" kvg:part="1" kvg:position="kamae" kvg:radical="tradit">
		<g id="kvg:0884d-g2" kvg:element="彳" kvg:position="left" kvg:radical="nelson">
			<path id="kvg:0884d-s1" kvg:type="㇒" d="M32.12,17c0.05,0.42,0.24,1.18-0.1,1.7c-2.4,3.67-8.72,10.05-17.54,16.26"/>
			<g id="kvg:0884d-g3" kvg:element="亻" kvg:variant="true" kvg:original="人">
				<path id="kvg:0884d-s2" kvg:type="㇒" d="M32.42,37.27c0.06,0.64,0.21,1.75-0.12,2.58c-2.58,6.65-10.27,15.66-20.8,24.68"/>
				<path id="kvg:0884d-s3" kvg:type="㇑" d="M25.45,56.12c0.27,0.24,0.93,2.09,0.98,2.58c0.05,0.49,0,32.27-0.05,35.3"/>
			</g>
		</g>
	</g>
	<g id="kvg:0884d-g4" kvg:element="氵" kvg:variant="true" kvg:original="水">
		<path id="kvg:0884d-s4" kvg:type="㇔" d="M44.38,17.75c3.66,1.65,9.45,6.78,10.37,9.34"/>
		<path id="kvg:0884d-s5" kvg:type="㇔" d="M43,41.25c3.53,1.63,9.12,6.71,10,9.25"/>
		<path id="kvg:0884d-s6" kvg:type="㇀" d="M41.75,83.23c1.71,1.27,3.78,1.32,4.86-0.25c3.14-4.57,6.29-10.16,9.14-15.99"/>
	</g>
	<g id="kvg:0884d-g5" kvg:element="行" kvg:part="2" kvg:position="kamae" kvg:radical="tradit">
		<g id="kvg:0884d-g6" kvg:position="right">
			<path id="kvg:0884d-s7" kvg:type="㇐" d="M68.09,20.38c0.65,0.18,3.41,0.49,4.06,0.43c5.01-0.49,15.97-1.99,18.96-1.92c1.08,0.03,1.72,0.09,2.26,0.17"/>
			<path id="kvg:0884d-s8" kvg:type="㇐" d="M65.09,41.92c0.62,0.17,1.77,0.2,2.39,0.17c7.98-0.46,20.93-1.96,29.46-1.89c1.04,0.01,1.66,0.08,2.18,0.16"/>
			<path id="kvg:0884d-s9" kvg:type="㇚" d="M82.25,42.66c0.07,0.45,0.99,2.37,1.06,5.25c0.34,13.85-0.22,36.8-0.22,41.51c0,7.65-6.1-0.48-7.37-1.67"/>
		</g>
	</g>
</g>
</g>
<g id="kvg:StrokeNumbers_0884d" style="font-size:8;fill:#808080">
	<text transform="matrix(1 0 0 1 23.50 15.50)">1</text>
	<text transform="matrix(1 0 0 1 24.50 37.50)">2</text>
	<text transform="matrix(1 0 0 1 19.50 65.50)">3</text>
	<text transform="matrix(1 0 0 1 40.25 14.50)">4</text>
	<text transform="matrix(1 0 0 1 40.25 38.50)">5</text>
	<text transform="matrix(1 0 0 1 34.50 82.50)">6</text>
	<text transform="matrix(1 0 0 1 66.50 17.50)">7</text>
	<text transform="matrix(1 0 0 1 62.50 38.50)">8</text>
	<text transform="matrix(1 0 0 1 75.50 52.50)">9</text>
</g>
</svg>
