<?xml version="1.0" encoding="UTF-8"?>
<!--
Copyright (C) 2009/2010/2011 Ulrich Apel.
This work is distributed under the conditions of the Creative Commons 
Attribution-Share Alike 3.0 Licence. This means you are free:
* to Share - to copy, distribute and transmit the work
* to Remix - to adapt the work

Under the following conditions:
* Attribution. You must attribute the work by stating your use of KanjiVG in
  your own copyright header and linking to KanjiVG's website
  (http://kanjivg.tagaini.net)
* Share Alike. If you alter, transform, or build upon this work, you may
  distribute the resulting work only under the same or similar license to this
  one.

See http://creativecommons.org/licenses/by-sa/3.0/ for more details.
-->
<!DOCTYPE svg PUBLIC "-//W3C//DTD SVG 1.0//EN" "http://www.w3.org/TR/2001/REC-SVG-20010904/DTD/svg10.dtd" [
<!ATTLIST g
xmlns:kvg CDATA #FIXED "http://kanjivg.tagaini.net"
kvg:element CDATA #IMPLIED
kvg:variant CDATA #IMPLIED
kvg:partial CDATA #IMPLIED
kvg:original CDATA #IMPLIED
kvg:part CDATA #IMPLIED
kvg:number CDATA #IMPLIED
kvg:tradForm CDATA #IMPLIED
kvg:radicalForm CDATA #IMPLIED
kvg:position CDATA #IMPLIED
kvg:radical CDATA #IMPLIED
kvg:phon CDATA #IMPLIED >
<!ATTLIST path
xmlns:kvg CDATA #FIXED "http://kanjivg.tagaini.net"
kvg:type CDATA #IMPLIED >
]>
<svg xmlns="http://www.w3.org/2000/svg" width="109" height="109" viewBox="0 0 109 109">
<g id="kvg:StrokePaths_088b7" style="fill:none;stroke:#000000;stroke-width:3;stroke-linecap:round;stroke-linejoin:round;">
<g id="kvg:088b7" kvg:element="袷">
	<g id="kvg:088b7-g1" kvg:element="衤" kvg:variant="true" kvg:original="衣" kvg:position="left" kvg:radical="general">
		<path id="kvg:088b7-s1" kvg:type="㇔" d="M25.62,14.5c2.72,2.29,5.62,5.73,7.95,9.75"/>
		<path id="kvg:088b7-s2" kvg:type="㇇" d="M14.58,35.25c1.77,0.79,4.55,0.5,6.38,0.05c4.31-1.07,14.21-3.65,16.37-4.3c2.5-0.75,4.27,1.01,2.75,3.25c-8.33,12.25-17.45,24.63-29.83,36"/>
		<path id="kvg:088b7-s3" kvg:type="㇑" d="M29.5,53.11c0.82,0.82,1.27,2.14,1.27,3.39c0,6.94,0.03,25.16,0.05,35.25c0,2.92,0.01,5.15,0.01,6.25"/>
		<path id="kvg:088b7-s4" kvg:type="㇒" d="M43.5,45.89c0.12,1.11-0.1,1.83-0.5,2.45c-1.67,2.6-3.33,4.91-5.63,7.29"/>
		<path id="kvg:088b7-s5" kvg:type="㇔" d="M33.88,57c3.23,2.29,6.68,5.73,9.45,9.75"/>
	</g>
	<g id="kvg:088b7-g2" kvg:element="合" kvg:position="right">
		<g id="kvg:088b7-g3" kvg:position="top">
			<g id="kvg:088b7-g4" kvg:element="人">
				<path id="kvg:088b7-s6" kvg:type="㇒" d="M65.92,14c0.06,1.05-0.21,2.79-0.62,4.2C62.42,28,56.38,44.25,44.32,58.43"/>
				<path id="kvg:088b7-s7" kvg:type="㇏" d="M66.83,18.58c3.46,5.92,15.77,22.58,22.25,30.43c2.12,2.57,3.79,4.37,7.09,6.31"/>
			</g>
			<g id="kvg:088b7-g5" kvg:element="一">
				<path id="kvg:088b7-s8" kvg:type="㇐" d="M56.3,52.89c1.95,0.36,3.82,0.22,5.11,0.06c3.95-0.48,9.85-1.45,13.46-1.96c1.35-0.19,3.12-0.24,4.49,0.16"/>
			</g>
		</g>
		<g id="kvg:088b7-g6" kvg:element="口" kvg:position="bottom">
			<path id="kvg:088b7-s9" kvg:type="㇑" d="M51.34,67.83c0.79,0.79,1.16,1.67,1.4,3.04c1.38,8.04,2.39,14.83,3.33,20.87c0.24,1.56,0.48,3.07,0.72,4.54"/>
			<path id="kvg:088b7-s10" kvg:type="㇕b" d="M53.56,69.34c10.02-1.46,21.13-2.61,27.08-3.34c3.51-0.44,4.76,1.06,4.17,4.5c-1.05,6.23-2.31,13.74-3.58,20.45"/>
			<path id="kvg:088b7-s11" kvg:type="㇐b" d="M57.75,94.06c6.87-0.69,13.41-1.14,21.76-1.71c1.43-0.1,2.84-0.19,4.21-0.29"/>
		</g>
	</g>
</g>
</g>
<g id="kvg:StrokeNumbers_088b7" style="font-size:8;fill:#808080">
	<text transform="matrix(1 0 0 1 17.50 13.50)">1</text>
	<text transform="matrix(1 0 0 1 7.25 35.50)">2</text>
	<text transform="matrix(1 0 0 1 23.50 66.50)">3</text>
	<text transform="matrix(1 0 0 1 42.25 42.40)">4</text>
	<text transform="matrix(1 0 0 1 34.25 70.33)">5</text>
	<text transform="matrix(1 0 0 1 56.25 14.50)">6</text>
	<text transform="matrix(1 0 0 1 72.50 23.50)">7</text>
	<text transform="matrix(1 0 0 1 58.50 50.50)">8</text>
	<text transform="matrix(1 0 0 1 45.50 77.50)">9</text>
	<text transform="matrix(1 0 0 1 53.25 65.95)">10</text>
	<text transform="matrix(1 0 0 1 59.25 90.50)">11</text>
</g>
</svg>
