<?xml version="1.0" encoding="UTF-8"?>
<!--
Copyright (C) 2009/2010/2011 Ulrich Apel.
This work is distributed under the conditions of the Creative Commons 
Attribution-Share Alike 3.0 Licence. This means you are free:
* to Share - to copy, distribute and transmit the work
* to Remix - to adapt the work

Under the following conditions:
* Attribution. You must attribute the work by stating your use of KanjiVG in
  your own copyright header and linking to KanjiVG's website
  (http://kanjivg.tagaini.net)
* Share Alike. If you alter, transform, or build upon this work, you may
  distribute the resulting work only under the same or similar license to this
  one.

See http://creativecommons.org/licenses/by-sa/3.0/ for more details.
-->
<!DOCTYPE svg PUBLIC "-//W3C//DTD SVG 1.0//EN" "http://www.w3.org/TR/2001/REC-SVG-20010904/DTD/svg10.dtd" [
<!ATTLIST g
xmlns:kvg CDATA #FIXED "http://kanjivg.tagaini.net"
kvg:element CDATA #IMPLIED
kvg:variant CDATA #IMPLIED
kvg:partial CDATA #IMPLIED
kvg:original CDATA #IMPLIED
kvg:part CDATA #IMPLIED
kvg:number CDATA #IMPLIED
kvg:tradForm CDATA #IMPLIED
kvg:radicalForm CDATA #IMPLIED
kvg:position CDATA #IMPLIED
kvg:radical CDATA #IMPLIED
kvg:phon CDATA #IMPLIED >
<!ATTLIST path
xmlns:kvg CDATA #FIXED "http://kanjivg.tagaini.net"
kvg:type CDATA #IMPLIED >
]>
<svg xmlns="http://www.w3.org/2000/svg" width="109" height="109" viewBox="0 0 109 109">
<g id="kvg:StrokePaths_088c3-HzFst" style="fill:none;stroke:#000000;stroke-width:3;stroke-linecap:round;stroke-linejoin:round;">
<g id="kvg:088c3-HzFst" kvg:element="裃">
	<g id="kvg:088c3-HzFst-g1" kvg:element="衤" kvg:variant="true" kvg:original="衣" kvg:position="left" kvg:radical="general">
		<path id="kvg:088c3-HzFst-s1" kvg:type="㇔" d="M25.08,13.25c2.99,2.59,6.19,6.47,8.75,11"/>
		<path id="kvg:088c3-HzFst-s2" kvg:type="㇇" d="M12.25,34.8c0.95,0.41,2.89,0.8,4.53,0.64c4.47-0.44,18.15-4.02,20.51-4.7c2.36-0.69,4.65,0.87,3.31,2.98C32.72,46.1,22.09,60.1,10.5,69.5"/>
		<path id="kvg:088c3-HzFst-s3" kvg:type="㇑" d="M28,51.11c0.12,0.29,1.65,1.53,1.77,3.39c0.57,8.93,0.06,38.2,0.06,41.25"/>
		<path id="kvg:088c3-HzFst-s4" kvg:type="㇒" d="M42.25,45.39c0.2,0.85,0.4,1.08,0,1.7c-1.2,1.87-4.9,6.45-7.3,8.66"/>
		<path id="kvg:088c3-HzFst-s5" kvg:type="㇔" d="M32.83,56.25c3.16,3,6.54,7.5,9.25,12.75"/>
	</g>
	<g id="kvg:088c3-HzFst-g2" kvg:position="right">
		<g id="kvg:088c3-HzFst-g3" kvg:element="上" kvg:position="left">
			<g id="kvg:088c3-HzFst-g4" kvg:element="卜" kvg:original="ト">
				<path id="kvg:088c3-HzFst-s6" kvg:type="㇐/㇔" d="M67.7,26.22c2.39-0.22,17.34-2.61,18.65-2.61c1.3,0,3.06,0,4.13,0.22"/>
				<path id="kvg:088c3-HzFst-s7" kvg:type="㇑" d="M65.84,11.38c0.57,0.36,1.76,2.72,1.87,3.44c0.11,0.73-0.07,20.71-0.19,25.25"/>
			</g>
			<g id="kvg:088c3-HzFst-g5" kvg:element="一">
				<path id="kvg:088c3-HzFst-s8" kvg:type="㇐" d="M44.61,42.73c1.29,0.29,3.67,0.36,4.96,0.29c11.24-0.63,23.33-2.7,42.66-3.62c2.15-0.1,3.45,0.14,4.52,0.28"/>
			</g>
		</g>
		<g id="kvg:088c3-HzFst-g6" kvg:element="下" kvg:position="right">
			<g id="kvg:088c3-HzFst-g7" kvg:element="一">
				<path id="kvg:088c3-HzFst-s9" kvg:type="㇐" d="M44.75,57.74c0.76,0.13,3.88,0.62,5.19,0.5c12.81-1.24,27.2-3.32,40.72-3.98c1.56-0.08,3.77,0.17,5.34,0.5"/>
			</g>
			<g id="kvg:088c3-HzFst-g8" kvg:element="卜" kvg:original="ト">
				<path id="kvg:088c3-HzFst-s10" kvg:type="㇐" d="M66.95,58.75c0.96,1.09,1.09,2.87,1.09,4.92c0,10.79-0.3,22.25-0.3,35.83"/>
				<path id="kvg:088c3-HzFst-s11" kvg:type="㇑" d="M71.08,65.42c5.64,1.64,15.19,8.45,17.92,16.21"/>
			</g>
		</g>
	</g>
</g>
</g>
<g id="kvg:StrokeNumbers_088c3-HzFst" style="font-size:8;fill:#808080">
	<text transform="matrix(1 0 0 1 17.50 12.63)">1</text>
	<text transform="matrix(1 0 0 1 4.50 35.50)">2</text>
	<text transform="matrix(1 0 0 1 23.50 67.50)">3</text>
	<text transform="matrix(1 0 0 1 35.50 48.50)">4</text>
	<text transform="matrix(1 0 0 1 32.50 71.50)">5</text>
	<text transform="matrix(1 0 0 1 72.50 22.50)">6</text>
	<text transform="matrix(1 0 0 1 56.50 11.50)">7</text>
	<text transform="matrix(1 0 0 1 45.50 39.50)">8</text>
	<text transform="matrix(1 0 0 1 45.50 54.50)">9</text>
	<text transform="matrix(1 0 0 1 57.25 66.95)">10</text>
	<text transform="matrix(1 0 0 1 74.50 65.38)">11</text>
</g>
</svg>
