<?xml version="1.0" encoding="UTF-8"?>
<!--
Copyright (C) 2009/2010/2011 Ulrich Apel.
This work is distributed under the conditions of the Creative Commons 
Attribution-Share Alike 3.0 Licence. This means you are free:
* to Share - to copy, distribute and transmit the work
* to Remix - to adapt the work

Under the following conditions:
* Attribution. You must attribute the work by stating your use of KanjiVG in
  your own copyright header and linking to KanjiVG's website
  (http://kanjivg.tagaini.net)
* Share Alike. If you alter, transform, or build upon this work, you may
  distribute the resulting work only under the same or similar license to this
  one.

See http://creativecommons.org/licenses/by-sa/3.0/ for more details.
-->
<!DOCTYPE svg PUBLIC "-//W3C//DTD SVG 1.0//EN" "http://www.w3.org/TR/2001/REC-SVG-20010904/DTD/svg10.dtd" [
<!ATTLIST g
xmlns:kvg CDATA #FIXED "http://kanjivg.tagaini.net"
kvg:element CDATA #IMPLIED
kvg:variant CDATA #IMPLIED
kvg:partial CDATA #IMPLIED
kvg:original CDATA #IMPLIED
kvg:part CDATA #IMPLIED
kvg:number CDATA #IMPLIED
kvg:tradForm CDATA #IMPLIED
kvg:radicalForm CDATA #IMPLIED
kvg:position CDATA #IMPLIED
kvg:radical CDATA #IMPLIED
kvg:phon CDATA #IMPLIED >
<!ATTLIST path
xmlns:kvg CDATA #FIXED "http://kanjivg.tagaini.net"
kvg:type CDATA #IMPLIED >
]>
<svg xmlns="http://www.w3.org/2000/svg" width="109" height="109" viewBox="0 0 109 109">
<g id="kvg:StrokePaths_088e8-Kaisho" style="fill:none;stroke:#000000;stroke-width:3;stroke-linecap:round;stroke-linejoin:round;">
<g id="kvg:088e8-Kaisho" kvg:element="裨">
	<g id="kvg:088e8-Kaisho-g1" kvg:element="衤" kvg:variant="true" kvg:original="衣" kvg:position="left" kvg:radical="general">
		<path id="kvg:088e8-Kaisho-s1" kvg:type="㇔" d="M22.58,14.25c2.82,2.59,5.84,6.47,8.25,11"/>
		<path id="kvg:088e8-Kaisho-s2" kvg:type="㇇" d="M13.2,36.86c0.94,0.39,2.37,0.89,3.96,0.61c5.59-0.97,16.37-3.83,18.69-4.49c2.33-0.66,4.58,0.83,3.26,2.85C31.36,47.65,24,59.25,11.5,70"/>
		<path id="kvg:088e8-Kaisho-s3" kvg:type="㇑" d="M27,54.61c0.12,0.29,1.65,1.53,1.77,3.39c0.57,8.93,0.06,35.2,0.06,38.25"/>
		<path id="kvg:088e8-Kaisho-s4" kvg:type="㇒" d="M41.01,48.39c0.19,0.77,0.38,0.98,0,1.53c-1.16,1.69-4.74,5.83-7.06,7.83"/>
		<path id="kvg:088e8-Kaisho-s5" kvg:type="㇔" d="M32.33,58.75c2.99,2.65,6.19,6.62,8.75,11.25"/>
	</g>
	<g id="kvg:088e8-Kaisho-g2" kvg:position="right">
		<g id="kvg:088e8-Kaisho-g3" kvg:element="卑" kvg:variant="true" kvg:position="top">
			<g id="kvg:088e8-Kaisho-g4" kvg:element="丿">
				<path id="kvg:088e8-Kaisho-s6" kvg:type="㇒" d="M67.28,10.64c0.03,0.33,0.05,0.86-0.05,1.33c-0.61,2.81-4.12,8.97-8.92,12.74"/>
			</g>
			<g id="kvg:088e8-Kaisho-g5" kvg:element="田" kvg:variant="true">
				<path id="kvg:088e8-Kaisho-s7" kvg:type="㇑" d="M50.99,26.18c0.29,0.44,0.29,0.75,0.45,1.3c1.3,4.58,2.51,16.44,3.32,24.98"/>
				<path id="kvg:088e8-Kaisho-s8" kvg:type="㇕" d="M52.34,27.31c10.04-1.15,27.05-3.55,34.54-4.52c2.75-0.36,3.82,0.62,3.63,3.04c-0.37,4.63-2.19,16.73-3.45,24.44"/>
				<path id="kvg:088e8-Kaisho-s9" kvg:type="㇐" d="M54.21,38.63c7.53-1.05,15.15-1.63,22.72-2.39c0.91-0.09,1.79-0.18,2.63-0.26"/>
				<path id="kvg:088e8-Kaisho-s10" kvg:type="㇐" d="M55.28,50.4c6.42-0.44,30.99-1.85,31.72-1.9"/>
				<g id="kvg:088e8-Kaisho-g6" kvg:element="丿" kvg:position="bottom">
					<path id="kvg:088e8-Kaisho-s11" kvg:type="㇒" d="M71.45,24.93c0.54,1,0.5,2.49,0.36,3.84C70.38,42.22,66.75,55.75,54.01,65"/>
				</g>
			</g>
			<g id="kvg:088e8-Kaisho-g7" kvg:element="十">
				<path id="kvg:088e8-Kaisho-s12" kvg:type="㇐" d="M47.25,70.31c0.81,0.25,3,0.93,5.16,0.75c14.63-1.24,25.34-2.06,39.8-3.56c2.17-0.22,3.93,0.07,5.29,0.32"/>
				<path id="kvg:088e8-Kaisho-s13" kvg:type="㇑" d="M76.87,54.25c1.09,0.5,1.74,2.25,1.96,3.25c0.22,1,0,33.25-0.22,39.5"/>
			</g>
		</g>
	</g>
</g>
</g>
<g id="kvg:StrokeNumbers_088e8-Kaisho" style="font-size:8;fill:#808080">
	<text transform="matrix(1 0 0 1 14.50 13.50)">1</text>
	<text transform="matrix(1 0 0 1 5.75 36.55)">2</text>
	<text transform="matrix(1 0 0 1 21.50 69.50)">3</text>
	<text transform="matrix(1 0 0 1 40.50 45.50)">4</text>
	<text transform="matrix(1 0 0 1 32.50 72.50)">5</text>
	<text transform="matrix(1 0 0 1 58.75 10.50)">6</text>
	<text transform="matrix(1 0 0 1 43.75 30.50)">7</text>
	<text transform="matrix(1 0 0 1 51.50 23.50)">8</text>
	<text transform="matrix(1 0 0 1 57.50 34.50)">9</text>
	<text transform="matrix(1 0 0 1 57.50 47.50)">10</text>
	<text transform="matrix(1 0 0 1 74.50 32.88)">11</text>
	<text transform="matrix(1 0 0 1 43.50 67.50)">12</text>
	<text transform="matrix(1 0 0 1 67.50 61.50)">13</text>
</g>
</svg>
