<?xml version="1.0" encoding="UTF-8"?>
<!--
Copyright (C) 2009/2010/2011 Ulrich Apel.
This work is distributed under the conditions of the Creative Commons 
Attribution-Share Alike 3.0 Licence. This means you are free:
* to Share - to copy, distribute and transmit the work
* to Remix - to adapt the work

Under the following conditions:
* Attribution. You must attribute the work by stating your use of KanjiVG in
  your own copyright header and linking to KanjiVG's website
  (http://kanjivg.tagaini.net)
* Share Alike. If you alter, transform, or build upon this work, you may
  distribute the resulting work only under the same or similar license to this
  one.

See http://creativecommons.org/licenses/by-sa/3.0/ for more details.
-->
<!DOCTYPE svg PUBLIC "-//W3C//DTD SVG 1.0//EN" "http://www.w3.org/TR/2001/REC-SVG-20010904/DTD/svg10.dtd" [
<!ATTLIST g
xmlns:kvg CDATA #FIXED "http://kanjivg.tagaini.net"
kvg:element CDATA #IMPLIED
kvg:variant CDATA #IMPLIED
kvg:partial CDATA #IMPLIED
kvg:original CDATA #IMPLIED
kvg:part CDATA #IMPLIED
kvg:number CDATA #IMPLIED
kvg:tradForm CDATA #IMPLIED
kvg:radicalForm CDATA #IMPLIED
kvg:position CDATA #IMPLIED
kvg:radical CDATA #IMPLIED
kvg:phon CDATA #IMPLIED >
<!ATTLIST path
xmlns:kvg CDATA #FIXED "http://kanjivg.tagaini.net"
kvg:type CDATA #IMPLIED >
]>
<svg xmlns="http://www.w3.org/2000/svg" width="109" height="109" viewBox="0 0 109 109">
<g id="kvg:StrokePaths_088fd" style="fill:none;stroke:#000000;stroke-width:3;stroke-linecap:round;stroke-linejoin:round;">
<g id="kvg:088fd" kvg:element="製">
	<g id="kvg:088fd-g1" kvg:element="制" kvg:position="top" kvg:phon="制">
		<g id="kvg:088fd-g2" kvg:position="left">
			<g id="kvg:088fd-g3" kvg:element="牛" kvg:part="1">
				<path id="kvg:088fd-s1" kvg:type="㇒" d="M25.63,12.8c0.03,0.37,0.15,0.99-0.05,1.49c-1.2,2.96-3.7,8.21-8.65,13.24"/>
				<path id="kvg:088fd-s2" kvg:type="㇐" d="M24.7,20.03c1.33,0.38,3.01,0.36,4.31,0.24c5.74-0.5,11.87-1.53,17.72-2.14c1.47-0.15,2.69-0.3,4.13-0.05"/>
				<path id="kvg:088fd-s3" kvg:type="㇐" d="M15,32.49c2.21,0.56,4.55,0.38,6.75,0.08c9.5-1.32,21.56-2.99,29.75-3.72c2.23-0.2,4.41-0.37,6.64-0.04"/>
			</g>
			<g id="kvg:088fd-g4" kvg:element="巾">
				<path id="kvg:088fd-s4" kvg:type="㇑" d="M21.69,41.08c0.41,0.19,1.27,1.41,1.35,1.78c0.44,2.09,1.02,5.51,1.57,8.37C24.95,53,25.12,54,25.4,55.46"/>
				<path id="kvg:088fd-s5" kvg:type="㇆a" d="M23.4,42.04c9.1-2.04,19.37-3.61,25.09-4.26c1.39-0.16,2.6,0.9,2.63,1.76c0.13,4.33,0.01,6.83-0.31,11.22c-0.22,3.12-3.35,0.42-4.42-0.63"/>
				<g id="kvg:088fd-g5" kvg:element="牛" kvg:part="2">
					<path id="kvg:088fd-s6" kvg:type="㇑" d="M35.39,7.88c0.93,0.93,1.57,2.49,1.57,3.52c0,0.54,0.1,26.96,0.03,40.85c-0.01,1.74-0.01,3.27-0.01,4.5"/>
				</g>
			</g>
		</g>
		<g id="kvg:088fd-g6" kvg:element="刂" kvg:variant="true" kvg:original="刀" kvg:position="right">
			<path id="kvg:088fd-s7" kvg:type="㇑" d="M68.15,14.14c0.91,0.91,1.37,2.36,1.37,3.53c0,6.74,0.14,15.19,0.05,20.83c-0.04,2.32-0.07,4.12-0.07,5.06"/>
			<path id="kvg:088fd-s8" kvg:type="㇚" d="M85.69,8.66c1.01,1.01,1.48,2.47,1.48,3.99c0,16.11-0.22,31.19-0.22,34.14c0,7.46-4.58,1.59-6.34-0.1"/>
		</g>
	</g>
	<g id="kvg:088fd-g7" kvg:element="衣" kvg:position="bottom" kvg:radical="general">
		<g id="kvg:088fd-g8" kvg:element="亠" kvg:position="top">
			<path id="kvg:088fd-s9" kvg:type="㇑a" d="M56.19,51.5c0.72,0.72,1.38,1.62,1.38,3.33c0,1.42-0.12,2.54-0.12,4.98"/>
			<path id="kvg:088fd-s10" kvg:type="㇐" d="M21.07,64.45c3.06,0.22,5.64,0.37,8.71,0c11.5-1.37,37.15-4.74,50.22-5.59c2.71-0.18,5.5-0.24,8.32,0.37"/>
		</g>
		<g id="kvg:088fd-g9" kvg:position="bottom">
			<path id="kvg:088fd-s11" kvg:type="㇒" d="M48.95,65.28c0.09,0.58-0.07,1.86-0.67,2.58C44,73,35.38,79.88,18.37,88.96"/>
			<path id="kvg:088fd-s12" kvg:type="㇙" d="M41.64,77.1c0.88,0.88,1.3,2.27,1.3,3.74c0,7.34-0.01,16.48-0.01,17.72c0,1.24,1.02,2.03,2.15,1.02C48.5,96.5,55,91.25,59.17,88.05"/>
			<path id="kvg:088fd-s13" kvg:type="㇒" d="M75.86,65.17c0.1,1.07-0.04,2.12-0.67,3.12c-1.14,1.8-2.96,3.45-6.41,6.6"/>
			<path id="kvg:088fd-s14" kvg:type="㇏" d="M55.45,70.15c4.43,0.09,22.99,15.84,31.9,21.52c2.27,1.45,4.28,2.46,6.58,3.56"/>
		</g>
	</g>
</g>
</g>
<g id="kvg:StrokeNumbers_088fd" style="font-size:8;fill:#808080">
	<text transform="matrix(1 0 0 1 18.75 12.13)">1</text>
	<text transform="matrix(1 0 0 1 29.50 17.50)">2</text>
	<text transform="matrix(1 0 0 1 8.25 34.48)">3</text>
	<text transform="matrix(1 0 0 1 16.50 49.40)">4</text>
	<text transform="matrix(1 0 0 1 23.25 39.50)">5</text>
	<text transform="matrix(1 0 0 1 28.50 8.50)">6</text>
	<text transform="matrix(1 0 0 1 59.25 15.50)">7</text>
	<text transform="matrix(1 0 0 1 77.50 11.50)">8</text>
	<text transform="matrix(1 0 0 1 55.50 49.50)">9</text>
	<text transform="matrix(1 0 0 1 10.50 67.63)">10</text>
	<text transform="matrix(1 0 0 1 30.50 74.50)">11</text>
	<text transform="matrix(1 0 0 1 32.50 90.50)">12</text>
	<text transform="matrix(1 0 0 1 64.50 69.13)">13</text>
	<text transform="matrix(1 0 0 1 50.25 78.50)">14</text>
</g>
</svg>
