<?xml version="1.0" encoding="UTF-8"?>
<!--
Copyright (C) 2009/2010/2011 Ulrich Apel.
This work is distributed under the conditions of the Creative Commons 
Attribution-Share Alike 3.0 Licence. This means you are free:
* to Share - to copy, distribute and transmit the work
* to Remix - to adapt the work

Under the following conditions:
* Attribution. You must attribute the work by stating your use of KanjiVG in
  your own copyright header and linking to KanjiVG's website
  (http://kanjivg.tagaini.net)
* Share Alike. If you alter, transform, or build upon this work, you may
  distribute the resulting work only under the same or similar license to this
  one.

See http://creativecommons.org/licenses/by-sa/3.0/ for more details.
-->
<!DOCTYPE svg PUBLIC "-//W3C//DTD SVG 1.0//EN" "http://www.w3.org/TR/2001/REC-SVG-20010904/DTD/svg10.dtd" [
<!ATTLIST g
xmlns:kvg CDATA #FIXED "http://kanjivg.tagaini.net"
kvg:element CDATA #IMPLIED
kvg:variant CDATA #IMPLIED
kvg:partial CDATA #IMPLIED
kvg:original CDATA #IMPLIED
kvg:part CDATA #IMPLIED
kvg:number CDATA #IMPLIED
kvg:tradForm CDATA #IMPLIED
kvg:radicalForm CDATA #IMPLIED
kvg:position CDATA #IMPLIED
kvg:radical CDATA #IMPLIED
kvg:phon CDATA #IMPLIED >
<!ATTLIST path
xmlns:kvg CDATA #FIXED "http://kanjivg.tagaini.net"
kvg:type CDATA #IMPLIED >
]>
<svg xmlns="http://www.w3.org/2000/svg" width="109" height="109" viewBox="0 0 109 109">
<g id="kvg:StrokePaths_088f9-Kaisho" style="fill:none;stroke:#000000;stroke-width:3;stroke-linecap:round;stroke-linejoin:round;">
<g id="kvg:088f9-Kaisho" kvg:element="裹">
	<g id="kvg:088f9-Kaisho-g1" kvg:element="衣" kvg:part="1" kvg:position="top" kvg:radical="tradit">
		<g id="kvg:088f9-Kaisho-g2" kvg:element="亠" kvg:radical="nelson">
			<path id="kvg:088f9-Kaisho-s1" kvg:type="㇑a" d="M50.15,9.25c2.09,0.81,3.85,3.25,5.02,5.58"/>
			<path id="kvg:088f9-Kaisho-s2" kvg:type="㇐" d="M19.5,21.25c1.42,0.06,4.64,0.4,6.02,0.33c15.35-0.7,40.63-4.17,55.74-4.35c2.33-0.03,3.52,0.03,5.26,0.43"/>
		</g>
	</g>
	<g id="kvg:088f9-Kaisho-g3" kvg:position="bottom">
		<g id="kvg:088f9-Kaisho-g4" kvg:element="果" kvg:variant="true">
			<g id="kvg:088f9-Kaisho-g5" kvg:element="田" kvg:part="1">
				<g id="kvg:088f9-Kaisho-g6" kvg:element="日">
					<path id="kvg:088f9-Kaisho-s3" kvg:type="㇑" d="M29.59,29.22c0.55,0.38,1.33,0.83,1.33,1.39c0,0.56,3.67,15.21,3.67,15.49c0,0.28,0.1,0.27,0.19,0.83"/>
					<path id="kvg:088f9-Kaisho-s4" kvg:type="㇕a" d="M31.03,30.05c1.64-0.17,41.78-4.28,43.28-4.37c1.97-0.12,3.69,1.07,3.7,2.37c0.02,2.21-3.29,14.67-3.29,15.09"/>
					<path id="kvg:088f9-Kaisho-s5" kvg:type="㇐a" d="M32.94,37.83c7.06-0.58,19.56-1.86,29.31-2.81c1.22-0.12,2.41-0.23,3.54-0.34"/>
					<path id="kvg:088f9-Kaisho-s6" kvg:type="㇐a" d="M35.46,45.59c4.53-0.59,33.32-3.32,38.96-3.94"/>
				</g>
			</g>
			<g id="kvg:088f9-Kaisho-g7" kvg:element="木" kvg:variant="true">
				<path id="kvg:088f9-Kaisho-s7" kvg:type="㇐" d="M19.86,52.77c1.23,0.11,4.52,0.26,7.81,0.2c9.04-0.15,28.86-3.1,55.17-4.32c3.29-0.15,4.11,0.02,6.16,0.1"/>
				<g id="kvg:088f9-Kaisho-g8" kvg:element="田" kvg:part="2">
					<path id="kvg:088f9-Kaisho-s8" kvg:type="㇑" d="M51.9,28.33c1.08,0.26,1.72,1.19,1.94,1.72c0.21,0.53,0,24.4-0.22,27.7"/>
				</g>
				<path id="kvg:088f9-Kaisho-s9" kvg:type="㇒" d="M38.91,57.67c0.05,0.89-0.26,1.61-0.57,2.02c-3.46,4.63-10.82,9.69-16.59,12.16"/>
				<path id="kvg:088f9-Kaisho-s10" kvg:type="㇔/㇏" d="M68.84,54.65c6.41,1.85,12.41,5.6,16.6,10.11"/>
			</g>
		</g>
		<g id="kvg:088f9-Kaisho-g9" kvg:element="衣" kvg:part="2" kvg:radical="tradit">
			<path id="kvg:088f9-Kaisho-s11" kvg:type="㇒" d="M51.42,61.16c0.1,0.65,0.38,1.72-0.19,2.6c-3.69,5.65-19.17,17.92-34.17,24.89"/>
			<path id="kvg:088f9-Kaisho-s12" kvg:type="㇙" d="M40.22,77.17c0.45,0.31,0.94,1.62,0.94,2.16c-0.03,6.85-0.3,15.67-0.3,16.83c0,1.16,1.11,1.82,2.52,0.95c1.41-0.87,10.88-8.86,16.34-12.74"/>
			<path id="kvg:088f9-Kaisho-s13" kvg:type="㇒" d="M74.02,62.62c0.02,0.24,0.26,1.16,0.11,1.48c-0.91,1.98-3.74,4.81-8.35,8.76"/>
			<path id="kvg:088f9-Kaisho-s14" kvg:type="㇏" d="M55.54,65.83c1.42,0.83,3.7,3.18,4.09,3.54c5.82,5.24,19.96,18.63,23.89,21.71c1.48,1.17,2.75,1.66,4.23,1.99"/>
		</g>
	</g>
</g>
</g>
<g id="kvg:StrokeNumbers_088f9-Kaisho" style="font-size:8;fill:#808080">
	<text transform="matrix(1 0 0 1 43.50 9.50)">1</text>
	<text transform="matrix(1 0 0 1 12.50 21.50)">2</text>
	<text transform="matrix(1 0 0 1 22.50 35.50)">3</text>
	<text transform="matrix(1 0 0 1 33.50 28.50)">4</text>
	<text transform="matrix(1 0 0 1 37.50 36.50)">5</text>
	<text transform="matrix(1 0 0 1 38.50 44.50)">6</text>
	<text transform="matrix(1 0 0 1 12.50 54.68)">7</text>
	<text transform="matrix(1 0 0 1 58.50 33.50)">8</text>
	<text transform="matrix(1 0 0 1 29.50 61.50)">9</text>
	<text transform="matrix(1 0 0 1 77.50 56.45)">10</text>
	<text transform="matrix(1 0 0 1 41.50 64.50)">11</text>
	<text transform="matrix(1 0 0 1 30.75 89.50)">12</text>
	<text transform="matrix(1 0 0 1 63.50 64.50)">13</text>
	<text transform="matrix(1 0 0 1 50.50 75.50)">14</text>
</g>
</svg>
