<?xml version="1.0" encoding="UTF-8"?>
<!--
Copyright (C) 2009/2010/2011 Ulrich Apel.
This work is distributed under the conditions of the Creative Commons 
Attribution-Share Alike 3.0 Licence. This means you are free:
* to Share - to copy, distribute and transmit the work
* to Remix - to adapt the work

Under the following conditions:
* Attribution. You must attribute the work by stating your use of KanjiVG in
  your own copyright header and linking to KanjiVG's website
  (http://kanjivg.tagaini.net)
* Share Alike. If you alter, transform, or build upon this work, you may
  distribute the resulting work only under the same or similar license to this
  one.

See http://creativecommons.org/licenses/by-sa/3.0/ for more details.
-->
<!DOCTYPE svg PUBLIC "-//W3C//DTD SVG 1.0//EN" "http://www.w3.org/TR/2001/REC-SVG-20010904/DTD/svg10.dtd" [
<!ATTLIST g
xmlns:kvg CDATA #FIXED "http://kanjivg.tagaini.net"
kvg:element CDATA #IMPLIED
kvg:variant CDATA #IMPLIED
kvg:partial CDATA #IMPLIED
kvg:original CDATA #IMPLIED
kvg:part CDATA #IMPLIED
kvg:number CDATA #IMPLIED
kvg:tradForm CDATA #IMPLIED
kvg:radicalForm CDATA #IMPLIED
kvg:position CDATA #IMPLIED
kvg:radical CDATA #IMPLIED
kvg:phon CDATA #IMPLIED >
<!ATTLIST path
xmlns:kvg CDATA #FIXED "http://kanjivg.tagaini.net"
kvg:type CDATA #IMPLIED >
]>
<svg xmlns="http://www.w3.org/2000/svg" width="109" height="109" viewBox="0 0 109 109">
<g id="kvg:StrokePaths_089af" style="fill:none;stroke:#000000;stroke-width:3;stroke-linecap:round;stroke-linejoin:round;">
<g id="kvg:089af" kvg:element="覯">
	<g id="kvg:089af-g1" kvg:element="冓" kvg:position="left">
		<g id="kvg:089af-g2" kvg:element="三" kvg:part="1" kvg:position="top">
			<g id="kvg:089af-g3" kvg:element="一">
				<path id="kvg:089af-s1" kvg:type="㇐" d="M12.72,25.21c1.02,0.25,2.89,0.73,3.92,0.63c6.36-0.59,20.52-2.53,30.62-3.39c1.7-0.15,2.73,0.03,3.58,0.14"/>
			</g>
			<path id="kvg:089af-s2" kvg:type="㇑a" d="M22.71,13.39c0.54,0.34,1.68,2.68,1.79,3.42c0.11,0.73,1.46,15.73,2.08,26.21"/>
			<path id="kvg:089af-s3" kvg:type="㇑a" d="M39.06,12.96c1.02,0.5,1.84,2.91,1.79,3.73c-0.34,6.57,0,13.07-0.66,24.57"/>
			<g id="kvg:089af-g4" kvg:element="三" kvg:part="2">
				<g id="kvg:089af-g5" kvg:element="一">
					<path id="kvg:089af-s4" kvg:type="㇐" d="M14.84,35.14c1.02,0.22,2.88,0.23,3.9,0.12c4.52-0.51,19.77-2.76,28.51-3.87c1.68-0.21,2.71,0.02,3.56,0.12"/>
				</g>
				<g id="kvg:089af-g6" kvg:element="再" kvg:part="1">
					<g id="kvg:089af-g7" kvg:element="一">
						<path id="kvg:089af-s5" kvg:type="㇐" d="M11.54,45.05c1.08,0.43,3.06,0.47,4.13,0.27c6.86-1.25,23.48-3.65,36.57-5.2c1.79-0.21,2.87,0.08,3.77,0.28"/>
					</g>
				</g>
			</g>
		</g>
		<g id="kvg:089af-g8" kvg:element="再" kvg:part="2" kvg:position="bottom">
			<g id="kvg:089af-g9" kvg:element="冉">
				<g id="kvg:089af-g10" kvg:element="冂">
					<path id="kvg:089af-s6" kvg:type="㇑" d="M19.72,53.44c0.3,0.74,0.94,2.44,0.84,3.78c-0.1,1.34,0.1,37.69,0.1,39.93"/>
					<path id="kvg:089af-s7" kvg:type="㇆a" d="M20.94,54.93c3.79-0.6,23.78-3.23,24.53-3.44c1.59-0.45,2.6,2.01,2.59,2.75c-0.08,4.58-0.3,32.43-0.3,35.86c0,9.15-4.74,1.54-6.05,0.39"/>
				</g>
				<g id="kvg:089af-g11" kvg:element="土" kvg:variant="true">
					<path id="kvg:089af-s8" kvg:type="㇑a" d="M32.85,45.29c0.07,0.2,1,1.03,1,2.29c0,8.11,0.08,14.31,0.08,25.04"/>
					<path id="kvg:089af-s9" kvg:type="㇐a" d="M20.69,64.91c7.4-0.71,18.87-2.66,26.88-3.23"/>
					<path id="kvg:089af-s10" kvg:type="㇐" d="M11.66,75.09c1.12,0.37,3.17,0.45,4.29,0.37c13.84-1.03,24.49-3.31,36.86-3.79c1.86-0.07,2.98,0.17,3.91,0.36"/>
				</g>
			</g>
		</g>
	</g>
	<g id="kvg:089af-g12" kvg:element="見" kvg:position="right" kvg:radical="general">
		<g id="kvg:089af-g13" kvg:element="目" kvg:position="top">
			<path id="kvg:089af-s11" kvg:type="㇑" d="M61.69,16.79c0.45,1.1,1.09,1.92,1.09,3.39c0,1.47-0.15,42.85,0,44.32"/>
			<path id="kvg:089af-s12" kvg:type="㇕a" d="M63.52,17.78c2.52-0.18,19.71-2.07,22-2.29c1.91-0.18,3.42,1.03,3.26,2.38c-0.2,1.72-0.39,43.75-0.39,44.85"/>
			<path id="kvg:089af-s13" kvg:type="㇐a" d="M62.98,31.24c3.6,0,20.34-1.98,24.38-1.98"/>
			<path id="kvg:089af-s14" kvg:type="㇐a" d="M63.19,44.8c7.3-0.52,18.4-2.2,24.88-2.2"/>
			<path id="kvg:089af-s15" kvg:type="㇐a" d="M62.84,61.82c5.01,0,18.4-1.7,24.88-1.7"/>
		</g>
		<g id="kvg:089af-g14" kvg:position="bottom">
			<path id="kvg:089af-s16" kvg:type="㇒" d="M67.76,65.25c0.04,0.74,0.09,1.9-0.09,2.96C66.63,74.44,62,88.5,52.5,96.5"/>
			<path id="kvg:089af-s17" kvg:type="㇟" d="M76.86,63.47c0.43,1.1,0.77,2.4,0.8,4.11c0.07,4.62-0.32,11.31-0.32,16.68C77.34,96,78.25,96.6,87.5,96.6c9,0,9.75-1.35,9.75-9.45"/>
		</g>
	</g>
</g>
</g>
<g id="kvg:StrokeNumbers_089af" style="font-size:8;fill:#808080">
	<text transform="matrix(1 0 0 1 7.50 25.50)">1</text>
	<text transform="matrix(1 0 0 1 15.50 12.50)">2</text>
	<text transform="matrix(1 0 0 1 33.50 9.50)">3</text>
	<text transform="matrix(1 0 0 1 7.50 35.40)">4</text>
	<text transform="matrix(1 0 0 1 4.50 45.50)">5</text>
	<text transform="matrix(1 0 0 1 13.50 60.25)">6</text>
	<text transform="matrix(1 0 0 1 21.50 52.50)">7</text>
	<text transform="matrix(1 0 0 1 37.50 49.10)">8</text>
	<text transform="matrix(1 0 0 1 25.25 61.50)">9</text>
	<text transform="matrix(1 0 0 1 1.25 76.50)">10</text>
	<text transform="matrix(1 0 0 1 53.25 23.50)">11</text>
	<text transform="matrix(1 0 0 1 64.50 14.50)">12</text>
	<text transform="matrix(1 0 0 1 66.50 27.50)">13</text>
	<text transform="matrix(1 0 0 1 66.50 41.50)">14</text>
	<text transform="matrix(1 0 0 1 66.50 58.50)">15</text>
	<text transform="matrix(1 0 0 1 57.25 72.50)">16</text>
	<text transform="matrix(1 0 0 1 68.50 80.50)">17</text>
</g>
</svg>
