<?xml version="1.0" encoding="UTF-8"?>
<!--
Copyright (C) 2009/2010/2011 Ulrich Apel.
This work is distributed under the conditions of the Creative Commons 
Attribution-Share Alike 3.0 Licence. This means you are free:
* to Share - to copy, distribute and transmit the work
* to Remix - to adapt the work

Under the following conditions:
* Attribution. You must attribute the work by stating your use of KanjiVG in
  your own copyright header and linking to KanjiVG's website
  (http://kanjivg.tagaini.net)
* Share Alike. If you alter, transform, or build upon this work, you may
  distribute the resulting work only under the same or similar license to this
  one.

See http://creativecommons.org/licenses/by-sa/3.0/ for more details.
-->
<!DOCTYPE svg PUBLIC "-//W3C//DTD SVG 1.0//EN" "http://www.w3.org/TR/2001/REC-SVG-20010904/DTD/svg10.dtd" [
<!ATTLIST g
xmlns:kvg CDATA #FIXED "http://kanjivg.tagaini.net"
kvg:element CDATA #IMPLIED
kvg:variant CDATA #IMPLIED
kvg:partial CDATA #IMPLIED
kvg:original CDATA #IMPLIED
kvg:part CDATA #IMPLIED
kvg:number CDATA #IMPLIED
kvg:tradForm CDATA #IMPLIED
kvg:radicalForm CDATA #IMPLIED
kvg:position CDATA #IMPLIED
kvg:radical CDATA #IMPLIED
kvg:phon CDATA #IMPLIED >
<!ATTLIST path
xmlns:kvg CDATA #FIXED "http://kanjivg.tagaini.net"
kvg:type CDATA #IMPLIED >
]>
<svg xmlns="http://www.w3.org/2000/svg" width="109" height="109" viewBox="0 0 109 109">
<g id="kvg:StrokePaths_089da-Kaisho" style="fill:none;stroke:#000000;stroke-width:3;stroke-linecap:round;stroke-linejoin:round;">
<g id="kvg:089da-Kaisho" kvg:element="觚">
	<g id="kvg:089da-Kaisho-g1" kvg:element="角" kvg:position="left" kvg:radical="general">
		<g id="kvg:089da-Kaisho-g2" kvg:element="𠂊" kvg:variant="true" kvg:original="勹" kvg:position="top">
			<path id="kvg:089da-Kaisho-s1" kvg:type="㇒" d="M24.49,15.25c0.03,0.54,0.07,1.4-0.07,2.18c-0.82,4.59-5.5,14.66-11.92,20.82"/>
			<path id="kvg:089da-Kaisho-s2" kvg:type="㇇a" d="M22.89,22c2,0,11.11-1.75,14.82-2.75c2.16-0.58,3.06,0.98,2,2.75c-1.96,3.25-5.21,8.75-7.15,15.5"/>
		</g>
		<g id="kvg:089da-Kaisho-g3" kvg:position="bottom">
			<path id="kvg:089da-Kaisho-s3" kvg:type="㇒" d="M18.14,39c0.63,0.72,1.25,2.74,1.25,3.49c0.02,1.85-0.45,22.97-0.57,24.58C18.04,77.47,16.28,87.05,11,93.5"/>
			<path id="kvg:089da-Kaisho-s4" kvg:type="㇆a" d="M19.57,40.2c2.5-0.21,17.42-2.73,19.28-2.96c3.33-0.42,4.58,2.71,4.16,3.96c-0.4,1.2-0.62,30.05-0.62,46.93c0,12.12-4.39,3.37-6.68,1.62"/>
			<path id="kvg:089da-Kaisho-s5" kvg:type="㇑a" d="M29.42,39.37c0.05,0.24,0.68,1.25,0.73,2.77C30.38,49.42,30,66.52,30,69"/>
			<path id="kvg:089da-Kaisho-s6" kvg:type="㇐a" d="M19.57,54.85c4.68-0.61,9.37-1.02,14.08-1.41c0.41-0.04,0.83-0.07,1.27-0.11"/>
			<path id="kvg:089da-Kaisho-s7" kvg:type="㇐a" d="M19.07,70.25c6.68-0.5,13.43-1.75,23.19-2.5"/>
		</g>
	</g>
	<g id="kvg:089da-Kaisho-g4" kvg:element="瓜" kvg:position="right">
		<g id="kvg:089da-Kaisho-g5" kvg:element="丿">
			<path id="kvg:089da-Kaisho-s8" kvg:type="㇒" d="M83.85,15c0.07,0.4-0.11,1.7-0.52,2.15c-5.14,5.69-12.37,10.38-25.78,14.98"/>
		</g>
		<path id="kvg:089da-Kaisho-s9" kvg:type="㇒" d="M56.14,31.28c0.26,0.73,0.67,2,0.74,4.08c0.71,21.57-0.47,46.83-9.06,57.1"/>
		<g id="kvg:089da-Kaisho-g6" kvg:element="厶" kvg:variant="true" kvg:original="厶">
			<path id="kvg:089da-Kaisho-s10" kvg:type="㇑" d="M68.08,30.76c0.87,0.62,1.56,2.75,1.56,4.01c0,6.44-1.17,38.09-1.17,48.55"/>
			<path id="kvg:089da-Kaisho-s11" kvg:type="㇐" d="M58.59,85.8c0.55,0.37,1.62,1.08,2.77,0.68c6.08-2.12,10.68-4.03,17.18-6.39"/>
			<path id="kvg:089da-Kaisho-s12" kvg:type="㇔" d="M76.47,72.43c2.13,3.07,5.49,12.6,6.02,17.37"/>
		</g>
		<path id="kvg:089da-Kaisho-s13" kvg:type="㇏" d="M77.12,28.17c0.2,0,0.87,0.58,1.08,1.76c3.05,16.82,8.05,38.82,15.18,56.19c1.05,2.55,2.69,3.95,3.61,4.73"/>
	</g>
</g>
</g>
<g id="kvg:StrokeNumbers_089da-Kaisho" style="font-size:8;fill:#808080">
	<text transform="matrix(1 0 0 1 17.50 15.50)">1</text>
	<text transform="matrix(1 0 0 1 29.50 17.30)">2</text>
	<text transform="matrix(1 0 0 1 12.50 47.50)">3</text>
	<text transform="matrix(1 0 0 1 20.50 37.50)">4</text>
	<text transform="matrix(1 0 0 1 32.50 47.58)">5</text>
	<text transform="matrix(1 0 0 1 22.50 52.50)">6</text>
	<text transform="matrix(1 0 0 1 22.50 67.50)">7</text>
	<text transform="matrix(1 0 0 1 75.50 15.50)">8</text>
	<text transform="matrix(1 0 0 1 49.50 38.50)">9</text>
	<text transform="matrix(1 0 0 1 59.50 39.50)">10</text>
	<text transform="matrix(1 0 0 1 56.50 81.50)">11</text>
	<text transform="matrix(1 0 0 1 72.50 69.50)">12</text>
	<text transform="matrix(1 0 0 1 79.50 32.50)">13</text>
</g>
</svg>
