<?xml version="1.0" encoding="UTF-8"?>
<!--
Copyright (C) 2009/2010/2011 Ulrich Apel.
This work is distributed under the conditions of the Creative Commons 
Attribution-Share Alike 3.0 Licence. This means you are free:
* to Share - to copy, distribute and transmit the work
* to Remix - to adapt the work

Under the following conditions:
* Attribution. You must attribute the work by stating your use of KanjiVG in
  your own copyright header and linking to KanjiVG's website
  (http://kanjivg.tagaini.net)
* Share Alike. If you alter, transform, or build upon this work, you may
  distribute the resulting work only under the same or similar license to this
  one.

See http://creativecommons.org/licenses/by-sa/3.0/ for more details.
-->
<!DOCTYPE svg PUBLIC "-//W3C//DTD SVG 1.0//EN" "http://www.w3.org/TR/2001/REC-SVG-20010904/DTD/svg10.dtd" [
<!ATTLIST g
xmlns:kvg CDATA #FIXED "http://kanjivg.tagaini.net"
kvg:element CDATA #IMPLIED
kvg:variant CDATA #IMPLIED
kvg:partial CDATA #IMPLIED
kvg:original CDATA #IMPLIED
kvg:part CDATA #IMPLIED
kvg:number CDATA #IMPLIED
kvg:tradForm CDATA #IMPLIED
kvg:radicalForm CDATA #IMPLIED
kvg:position CDATA #IMPLIED
kvg:radical CDATA #IMPLIED
kvg:phon CDATA #IMPLIED >
<!ATTLIST path
xmlns:kvg CDATA #FIXED "http://kanjivg.tagaini.net"
kvg:type CDATA #IMPLIED >
]>
<svg xmlns="http://www.w3.org/2000/svg" width="109" height="109" viewBox="0 0 109 109">
<g id="kvg:StrokePaths_089d2" style="fill:none;stroke:#000000;stroke-width:3;stroke-linecap:round;stroke-linejoin:round;">
<g id="kvg:089d2" kvg:element="角" kvg:radical="general">
	<g id="kvg:089d2-g1" kvg:element="𠂊" kvg:variant="true" kvg:original="勹" kvg:position="top">
		<path id="kvg:089d2-s1" kvg:type="㇒" d="M46.75,12c0.17,1.49-0.3,2.79-1.03,4.05c-2.8,4.87-10.7,12.82-20.47,17.95"/>
		<path id="kvg:089d2-s2" kvg:type="㇇a" d="M49,16c5,0.25,14.12-1,19-2.25c3.06-0.79,3.88,1.41,2.5,3.25c-4.5,6-9.25,11.75-14,17.5"/>
	</g>
	<g id="kvg:089d2-g2" kvg:position="bottom">
		<path id="kvg:089d2-s3" kvg:type="㇒" d="M30.38,36.5c0.8,0.81,1.1,2.2,1.1,4.43c0,29.32,0.27,43.57-10.73,57.32"/>
		<path id="kvg:089d2-s4" kvg:type="㇆a" d="M31.75,38.7c15.62-1.45,37.25-3.08,42.47-3.46c5.01-0.37,5.75,2.63,5.75,6.21c0,1.34-0.19,32.3-0.19,49.18c0,12.62-5.79,5.37-8.54,2.12"/>
		<path id="kvg:089d2-s5" kvg:type="㇑a" d="M53.29,38.87c0.08,0.24,1.1,1.24,1.1,2.77c0,7.49,0.03,23.87,0.03,27.62"/>
		<path id="kvg:089d2-s6" kvg:type="㇐a" d="M32.25,54.6c8.12-0.6,35.75-2.85,47-3.1"/>
		<path id="kvg:089d2-s7" kvg:type="㇐a" d="M31.74,71.5c10.01-0.75,35.51-2.5,46.85-3"/>
	</g>
</g>
</g>
<g id="kvg:StrokeNumbers_089d2" style="font-size:8;fill:#808080">
	<text transform="matrix(1 0 0 1 39.75 12.13)">1</text>
	<text transform="matrix(1 0 0 1 51.75 12.13)">2</text>
	<text transform="matrix(1 0 0 1 23.50 45.50)">3</text>
	<text transform="matrix(1 0 0 1 36.75 35.50)">4</text>
	<text transform="matrix(1 0 0 1 46.50 46.63)">5</text>
	<text transform="matrix(1 0 0 1 34.50 51.13)">6</text>
	<text transform="matrix(1 0 0 1 34.50 68.50)">7</text>
</g>
</svg>
