<?xml version="1.0" encoding="UTF-8"?>
<!--
Copyright (C) 2009/2010/2011 Ulrich Apel.
This work is distributed under the conditions of the Creative Commons 
Attribution-Share Alike 3.0 Licence. This means you are free:
* to Share - to copy, distribute and transmit the work
* to Remix - to adapt the work

Under the following conditions:
* Attribution. You must attribute the work by stating your use of KanjiVG in
  your own copyright header and linking to KanjiVG's website
  (http://kanjivg.tagaini.net)
* Share Alike. If you alter, transform, or build upon this work, you may
  distribute the resulting work only under the same or similar license to this
  one.

See http://creativecommons.org/licenses/by-sa/3.0/ for more details.
-->
<!DOCTYPE svg PUBLIC "-//W3C//DTD SVG 1.0//EN" "http://www.w3.org/TR/2001/REC-SVG-20010904/DTD/svg10.dtd" [
<!ATTLIST g
xmlns:kvg CDATA #FIXED "http://kanjivg.tagaini.net"
kvg:element CDATA #IMPLIED
kvg:variant CDATA #IMPLIED
kvg:partial CDATA #IMPLIED
kvg:original CDATA #IMPLIED
kvg:part CDATA #IMPLIED
kvg:number CDATA #IMPLIED
kvg:tradForm CDATA #IMPLIED
kvg:radicalForm CDATA #IMPLIED
kvg:position CDATA #IMPLIED
kvg:radical CDATA #IMPLIED
kvg:phon CDATA #IMPLIED >
<!ATTLIST path
xmlns:kvg CDATA #FIXED "http://kanjivg.tagaini.net"
kvg:type CDATA #IMPLIED >
]>
<svg xmlns="http://www.w3.org/2000/svg" width="109" height="109" viewBox="0 0 109 109">
<g id="kvg:StrokePaths_089dc" style="fill:none;stroke:#000000;stroke-width:3;stroke-linecap:round;stroke-linejoin:round;">
<g id="kvg:089dc" kvg:element="觜">
	<g id="kvg:089dc-g1" kvg:element="此" kvg:position="top">
		<g id="kvg:089dc-g2" kvg:element="止" kvg:position="left">
			<g id="kvg:089dc-g3" kvg:element="卜" kvg:original="ト">
				<path id="kvg:089dc-s1" kvg:type="㇑" d="M33.82,10.19c1.01,0.37,1.62,1.65,1.82,2.38c0.2,0.73-0.07,16.44-0.07,24.32"/>
				<path id="kvg:089dc-s2" kvg:type="㇐" d="M36.15,21.47c4.5-0.35,8.32-2.05,12.74-2.4c1.1-0.09,1.38-0.12,2.06,0"/>
			</g>
			<path id="kvg:089dc-s3" kvg:type="㇑" d="M19.45,17.82c0.8,0.43,1.82,2.25,1.82,2.82c0,3.08,0.26,15.68,0.26,19.75"/>
			<path id="kvg:089dc-s4" kvg:type="㇐" d="M13.85,41.75c0.65,1.25,2.89,1.19,3.99,0.85c8.42-2.6,23.43-7.58,32.96-10.27"/>
		</g>
		<g id="kvg:089dc-g4" kvg:element="匕" kvg:position="right">
			<path id="kvg:089dc-s5" kvg:type="㇒" d="M83.57,11.68c0.16,0.23,0.25,0.9-0.15,1.26c-2.61,2.3-11.56,8.63-19.99,10.98"/>
			<path id="kvg:089dc-s6" kvg:type="㇟" d="M59.96,8.25c1,0.56,1.07,0.93,1.4,1.67s0.11,17.86,0.11,22.92c0,5.06,4.03,6.25,15.57,6.25c13.63,0,16.36-1.09,16.36-7.96"/>
		</g>
	</g>
	<g id="kvg:089dc-g5" kvg:element="角" kvg:position="bottom" kvg:radical="general">
		<g id="kvg:089dc-g6" kvg:element="𠂊" kvg:variant="true" kvg:original="勹" kvg:position="top">
			<path id="kvg:089dc-s7" kvg:type="㇒" d="M42.49,38c0.07,0.52,0.3,1.43-0.14,2.1C39,45.25,30.77,54.25,17.27,60.2"/>
			<path id="kvg:089dc-s8" kvg:type="㇇a" d="M37.76,47.25c7.49-0.5,21.63-3.39,23.77-4.11c2.14-0.71,2.63,1.5,1.64,2.82c-3.21,4.28-5.46,5.74-8.85,9.85"/>
		</g>
		<g id="kvg:089dc-g7" kvg:position="bottom">
			<path id="kvg:089dc-s9" kvg:type="㇒" d="M31.83,55.59c0.57,0.58,1.14,2.19,1.14,2.8c0,18.61-1.72,33.36-14.16,40.91"/>
			<path id="kvg:089dc-s10" kvg:type="㇆a" d="M33.16,58.31c2.68-0.15,40.82-3.66,42.81-3.82c3.57-0.3,4.84,2.5,4.46,4.25c-0.2,0.94-0.67,21.59-0.67,33.63c0,10.26-5.77,3.88-7.59,2.01"/>
			<path id="kvg:089dc-s11" kvg:type="㇑a" d="M53.54,57.21c0.05,0.17,0.73,0.89,0.78,1.97c0.25,5.21-0.16,17.83-0.16,19.6"/>
			<path id="kvg:089dc-s12" kvg:type="㇐a" d="M32.66,69.33c4.47,0,39.63-3.25,47.4-3.25"/>
			<path id="kvg:089dc-s13" kvg:type="㇐a" d="M31.16,80.89c5.65,0,40.2-3.64,48.44-3.64"/>
		</g>
	</g>
</g>
</g>
<g id="kvg:StrokeNumbers_089dc" style="font-size:8;fill:#808080">
	<text transform="matrix(1 0 0 1 24.75 10.50)">1</text>
	<text transform="matrix(1 0 0 1 40.50 17.50)">2</text>
	<text transform="matrix(1 0 0 1 11.50 18.50)">3</text>
	<text transform="matrix(1 0 0 1 5.50 42.50)">4</text>
	<text transform="matrix(1 0 0 1 75.75 10.50)">5</text>
	<text transform="matrix(1 0 0 1 52.50 8.50)">6</text>
	<text transform="matrix(1 0 0 1 30.50 47.50)">7</text>
	<text transform="matrix(1 0 0 1 47.50 43.50)">8</text>
	<text transform="matrix(1 0 0 1 25.50 64.50)">9</text>
	<text transform="matrix(1 0 0 1 37.50 54.50)">10</text>
	<text transform="matrix(1 0 0 1 57.50 63.50)">11</text>
	<text transform="matrix(1 0 0 1 37.50 65.50)">12</text>
	<text transform="matrix(1 0 0 1 37.50 77.50)">13</text>
</g>
</svg>
