<?xml version="1.0" encoding="UTF-8"?>
<!--
Copyright (C) 2009/2010/2011 Ulrich Apel.
This work is distributed under the conditions of the Creative Commons 
Attribution-Share Alike 3.0 Licence. This means you are free:
* to Share - to copy, distribute and transmit the work
* to Remix - to adapt the work

Under the following conditions:
* Attribution. You must attribute the work by stating your use of KanjiVG in
  your own copyright header and linking to KanjiVG's website
  (http://kanjivg.tagaini.net)
* Share Alike. If you alter, transform, or build upon this work, you may
  distribute the resulting work only under the same or similar license to this
  one.

See http://creativecommons.org/licenses/by-sa/3.0/ for more details.
-->
<!DOCTYPE svg PUBLIC "-//W3C//DTD SVG 1.0//EN" "http://www.w3.org/TR/2001/REC-SVG-20010904/DTD/svg10.dtd" [
<!ATTLIST g
xmlns:kvg CDATA #FIXED "http://kanjivg.tagaini.net"
kvg:element CDATA #IMPLIED
kvg:variant CDATA #IMPLIED
kvg:partial CDATA #IMPLIED
kvg:original CDATA #IMPLIED
kvg:part CDATA #IMPLIED
kvg:number CDATA #IMPLIED
kvg:tradForm CDATA #IMPLIED
kvg:radicalForm CDATA #IMPLIED
kvg:position CDATA #IMPLIED
kvg:radical CDATA #IMPLIED
kvg:phon CDATA #IMPLIED >
<!ATTLIST path
xmlns:kvg CDATA #FIXED "http://kanjivg.tagaini.net"
kvg:type CDATA #IMPLIED >
]>
<svg xmlns="http://www.w3.org/2000/svg" width="109" height="109" viewBox="0 0 109 109">
<g id="kvg:StrokePaths_089dd" style="fill:none;stroke:#000000;stroke-width:3;stroke-linecap:round;stroke-linejoin:round;">
<g id="kvg:089dd" kvg:element="觝">
	<g id="kvg:089dd-g1" kvg:element="角" kvg:position="left" kvg:radical="general">
		<g id="kvg:089dd-g2" kvg:element="𠂊" kvg:variant="true" kvg:original="勹" kvg:position="top">
			<path id="kvg:089dd-s1" kvg:type="㇒" d="M27.23,16.5c0.04,0.49,0.21,1.3-0.08,1.96c-1.9,4.29-8.4,15.04-16.15,22.29"/>
			<path id="kvg:089dd-s2" kvg:type="㇇a" d="M25.39,22c2,0,10.61-1.25,14.32-2.25c2.16-0.58,3.29,1.14,2,2.75c-4.21,5.25-5.49,8.75-8.65,14.5"/>
		</g>
		<g id="kvg:089dd-g3" kvg:position="bottom">
			<path id="kvg:089dd-s3" kvg:type="㇒" d="M18.64,38.5c0.63,0.73,1.25,2.76,1.25,3.53c0.02,1.86-0.45,23.18-0.57,24.81C18.54,77.33,16.28,87.99,11,94.5"/>
			<path id="kvg:089dd-s4" kvg:type="㇆a" d="M20.07,39.7c2.5-0.21,19.92-3.73,21.78-3.96c3.33-0.42,4.58,2.71,4.16,3.96c-0.4,1.2-0.62,30.55-0.62,47.43c0,12.12-4.39,3.37-6.68,1.62"/>
			<path id="kvg:089dd-s5" kvg:type="㇑a" d="M31.92,40.37c0.05,0.24,0.68,1.25,0.73,2.77C32.88,50.42,32.5,66.52,32.5,69"/>
			<path id="kvg:089dd-s6" kvg:type="㇐a" d="M20.07,54.85C30.5,53.5,35,53.25,45.2,52"/>
			<path id="kvg:089dd-s7" kvg:type="㇐a" d="M19.57,70.75c6.68-0.5,15.93-2.25,25.69-3"/>
		</g>
	</g>
	<g id="kvg:089dd-g4" kvg:position="right">
		<g id="kvg:089dd-g5" kvg:element="氏" kvg:position="top">
			<path id="kvg:089dd-s8" kvg:type="㇒" d="M82.25,15.36c0.06,0.37,0.13,0.96-0.13,1.5c-1.56,3.16-8.87,9.38-21.02,14.69"/>
			<path id="kvg:089dd-s9" kvg:type="㇙" d="M56.66,30.95c1.09,1.05,2.07,3.07,2.07,5.04c0,1.97-0.17,33.44-0.17,36.51c0,3.07,0.17,3.94,2.4,1.75c2.23-2.19,12.06-9.67,13.43-10.98"/>
			<path id="kvg:089dd-s10" kvg:type="㇐" d="M59.03,48.57c0.64,0.21,1.83-0.21,2.47-0.29c14-1.78,16.75-2.28,27.91-4.49c1.05-0.21,3.72-0.4,4.25-0.3"/>
			<path id="kvg:089dd-s11" kvg:type="㇂" d="M75.15,27.57c0.41,0.44,1.21,2.65,1.26,3.5c1.03,19.12,5.85,46.45,17.4,58.25c4.26,4.36,2.81-5.13,2.81-7.81"/>
		</g>
		<g id="kvg:089dd-g6" kvg:element="一" kvg:position="bottom">
			<path id="kvg:089dd-s12" kvg:type="㇐" d="M55.75,89.39c0.94,0.38,2.66,0.49,3.6,0.38c5.98-0.66,15.4-2.02,20.61-2.38c1.56-0.11,2.5,0.18,3.29,0.37"/>
		</g>
	</g>
</g>
</g>
<g id="kvg:StrokeNumbers_089dd" style="font-size:8;fill:#808080">
	<text transform="matrix(1 0 0 1 19.50 15.50)">1</text>
	<text transform="matrix(1 0 0 1 31.50 18.50)">2</text>
	<text transform="matrix(1 0 0 1 13.00 47.98)">3</text>
	<text transform="matrix(1 0 0 1 23.25 35.15)">4</text>
	<text transform="matrix(1 0 0 1 34.50 45.50)">5</text>
	<text transform="matrix(1 0 0 1 23.50 51.50)">6</text>
	<text transform="matrix(1 0 0 1 23.50 67.50)">7</text>
	<text transform="matrix(1 0 0 1 73.50 15.50)">8</text>
	<text transform="matrix(1 0 0 1 51.50 38.50)">9</text>
	<text transform="matrix(1 0 0 1 61.50 44.70)">10</text>
	<text transform="matrix(1 0 0 1 79.50 31.50)">11</text>
	<text transform="matrix(1 0 0 1 52.50 85.50)">12</text>
</g>
</svg>
