<?xml version="1.0" encoding="UTF-8"?>
<!--
Copyright (C) 2009/2010/2011 Ulrich Apel.
This work is distributed under the conditions of the Creative Commons 
Attribution-Share Alike 3.0 Licence. This means you are free:
* to Share - to copy, distribute and transmit the work
* to Remix - to adapt the work

Under the following conditions:
* Attribution. You must attribute the work by stating your use of KanjiVG in
  your own copyright header and linking to KanjiVG's website
  (http://kanjivg.tagaini.net)
* Share Alike. If you alter, transform, or build upon this work, you may
  distribute the resulting work only under the same or similar license to this
  one.

See http://creativecommons.org/licenses/by-sa/3.0/ for more details.
-->
<!DOCTYPE svg PUBLIC "-//W3C//DTD SVG 1.0//EN" "http://www.w3.org/TR/2001/REC-SVG-20010904/DTD/svg10.dtd" [
<!ATTLIST g
xmlns:kvg CDATA #FIXED "http://kanjivg.tagaini.net"
kvg:element CDATA #IMPLIED
kvg:variant CDATA #IMPLIED
kvg:partial CDATA #IMPLIED
kvg:original CDATA #IMPLIED
kvg:part CDATA #IMPLIED
kvg:number CDATA #IMPLIED
kvg:tradForm CDATA #IMPLIED
kvg:radicalForm CDATA #IMPLIED
kvg:position CDATA #IMPLIED
kvg:radical CDATA #IMPLIED
kvg:phon CDATA #IMPLIED >
<!ATTLIST path
xmlns:kvg CDATA #FIXED "http://kanjivg.tagaini.net"
kvg:type CDATA #IMPLIED >
]>
<svg xmlns="http://www.w3.org/2000/svg" width="109" height="109" viewBox="0 0 109 109">
<g id="kvg:StrokePaths_08a2a" style="fill:none;stroke:#000000;stroke-width:3;stroke-linecap:round;stroke-linejoin:round;">
<g id="kvg:08a2a" kvg:element="訪">
	<g id="kvg:08a2a-g1" kvg:element="言" kvg:position="left" kvg:radical="general">
		<path id="kvg:08a2a-s1" kvg:type="㇔" d="M21.12,13.88c3.28,1.74,8.49,7.16,9.31,9.88"/>
		<path id="kvg:08a2a-s2" kvg:type="㇐" d="M10.12,33.58c1.95,0.64,4.27,0.5,6.27,0.35c7.52-0.55,15.94-2.26,21.52-3.24c1.71-0.3,3.22-0.35,4.93-0.02"/>
		<path id="kvg:08a2a-s3" kvg:type="㇐" d="M16.43,46.31c1.27,0.36,3.4,0.28,4.7,0.04c4.62-0.86,9.21-1.58,13.24-2.29c1.43-0.25,3.21-0.56,4.65-0.31"/>
		<path id="kvg:08a2a-s4" kvg:type="㇐" d="M15.8,59.33c1.24,0.38,3.05,0.15,4.32,0.04c3.93-0.33,10.07-1.58,14.13-2.38c1.34-0.26,2.97-0.52,4.33-0.28"/>
		<g id="kvg:08a2a-g2" kvg:element="口">
			<path id="kvg:08a2a-s5" kvg:type="㇑" d="M15.01,73.03c0.78,0.69,1.02,1.72,1.24,2.69c0.8,3.41,1.66,9.11,2.4,14.05c0.21,1.44,0.43,2.79,0.66,3.99"/>
			<path id="kvg:08a2a-s6" kvg:type="㇕b" d="M16.93,74.4c7.07-1.28,11.89-2.08,17.6-2.97c3.2-0.49,5.1,0.43,4.23,4.13c-0.88,3.72-1.67,7.36-3.17,13.05"/>
			<path id="kvg:08a2a-s7" kvg:type="㇐b" d="M20.12,91.27c4.43-0.42,8.56-1.02,14.12-1.58c1.12-0.11,2.28-0.23,3.5-0.36"/>
		</g>
	</g>
	<g id="kvg:08a2a-g3" kvg:element="方" kvg:position="right" kvg:phon="方">
		<g id="kvg:08a2a-g4" kvg:element="亠" kvg:position="top">
			<path id="kvg:08a2a-s8" kvg:type="㇑a" d="M70.36,12.5c1.25,1.26,1.73,2.62,1.73,4.41c0,3.84-0.09,9.96-0.09,13.84"/>
			<path id="kvg:08a2a-s9" kvg:type="㇐" d="M49.75,33.86c2.75,0.52,4.38,0.54,7.63,0.08c11.99-1.69,24.12-3.27,34.37-3.96c2.19-0.15,4.93-0.16,6.99,0.65"/>
		</g>
		<g id="kvg:08a2a-g5" kvg:position="bottom">
			<path id="kvg:08a2a-s10" kvg:type="㇆a" d="M70.13,45c7.37,2.75,10.24,3.38,17.26,5.32c3.17,0.88,4.61,2.8,3.5,6.07c-3.24,9.49-9.13,26.23-15.11,35.11c-4.06,6.03-7.9,0.25-9.72-1.75"/>
			<path id="kvg:08a2a-s11" kvg:type="㇒" d="M71.03,36c0.08,1.19,0.19,2.65-0.41,4.28C66,52.75,60.25,69.75,44.5,84"/>
		</g>
	</g>
</g>
</g>
<g id="kvg:StrokeNumbers_08a2a" style="font-size:8;fill:#808080">
	<text transform="matrix(1 0 0 1 14.50 13.50)">1</text>
	<text transform="matrix(1 0 0 1 2.50 33.50)">2</text>
	<text transform="matrix(1 0 0 1 9.50 47.98)">3</text>
	<text transform="matrix(1 0 0 1 8.25 61.50)">4</text>
	<text transform="matrix(1 0 0 1 8.50 80.50)">5</text>
	<text transform="matrix(1 0 0 1 17.25 70.63)">6</text>
	<text transform="matrix(1 0 0 1 22.50 87.50)">7</text>
	<text transform="matrix(1 0 0 1 62.25 12.50)">8</text>
	<text transform="matrix(1 0 0 1 49.50 31.50)">9</text>
	<text transform="matrix(1 0 0 1 76.50 44.50)">10</text>
	<text transform="matrix(1 0 0 1 59.50 44.50)">11</text>
</g>
</svg>
