<?xml version="1.0" encoding="UTF-8"?>
<!--
Copyright (C) 2009/2010/2011 Ulrich Apel.
This work is distributed under the conditions of the Creative Commons 
Attribution-Share Alike 3.0 Licence. This means you are free:
* to Share - to copy, distribute and transmit the work
* to Remix - to adapt the work

Under the following conditions:
* Attribution. You must attribute the work by stating your use of KanjiVG in
  your own copyright header and linking to KanjiVG's website
  (http://kanjivg.tagaini.net)
* Share Alike. If you alter, transform, or build upon this work, you may
  distribute the resulting work only under the same or similar license to this
  one.

See http://creativecommons.org/licenses/by-sa/3.0/ for more details.
-->
<!DOCTYPE svg PUBLIC "-//W3C//DTD SVG 1.0//EN" "http://www.w3.org/TR/2001/REC-SVG-20010904/DTD/svg10.dtd" [
<!ATTLIST g
xmlns:kvg CDATA #FIXED "http://kanjivg.tagaini.net"
kvg:element CDATA #IMPLIED
kvg:variant CDATA #IMPLIED
kvg:partial CDATA #IMPLIED
kvg:original CDATA #IMPLIED
kvg:part CDATA #IMPLIED
kvg:number CDATA #IMPLIED
kvg:tradForm CDATA #IMPLIED
kvg:radicalForm CDATA #IMPLIED
kvg:position CDATA #IMPLIED
kvg:radical CDATA #IMPLIED
kvg:phon CDATA #IMPLIED >
<!ATTLIST path
xmlns:kvg CDATA #FIXED "http://kanjivg.tagaini.net"
kvg:type CDATA #IMPLIED >
]>
<svg xmlns="http://www.w3.org/2000/svg" width="109" height="109" viewBox="0 0 109 109">
<g id="kvg:StrokePaths_08a25" style="fill:none;stroke:#000000;stroke-width:3;stroke-linecap:round;stroke-linejoin:round;">
<g id="kvg:08a25" kvg:element="訥">
	<g id="kvg:08a25-g1" kvg:element="言" kvg:position="left" kvg:radical="general">
		<path id="kvg:08a25-s1" kvg:type="㇔" d="M19.63,16.5c3.04,1.63,7.86,6.71,8.62,9.25"/>
		<path id="kvg:08a25-s2" kvg:type="㇐" d="M10.87,36.58c0.63,0.23,3.04,0.27,3.67,0.23c7.8-0.42,16.21-3.06,22.64-3.37c1.05-0.05,2.64,0.11,3.16,0.23"/>
		<path id="kvg:08a25-s3" kvg:type="㇐" d="M16.23,48.06c0.38,0.12,2.71,0.13,3.1,0.12c3.97-0.14,10.42-1.43,14.71-2.05c0.63-0.09,3.29,0.06,3.61,0.12"/>
		<path id="kvg:08a25-s4" kvg:type="㇐" d="M16.73,60.33c0.34,0.12,2.42,0.13,2.77,0.12c3.55-0.13,10.5-1.7,14.81-2.09c0.56-0.05,2.94,0.06,3.22,0.11"/>
		<g id="kvg:08a25-g2" kvg:element="口">
			<path id="kvg:08a25-s5" kvg:type="㇑" d="M16.64,74.4c0.35,0.36,0.75,0.65,0.86,1.13c0.99,4.21,2.25,13.04,3.25,19.21"/>
			<path id="kvg:08a25-s6" kvg:type="㇕b" d="M18.81,75.37c6.44-0.89,11.98-2.1,17.92-3c1.49-0.22,2.39,1.04,2.18,2.06c-0.89,4.25-1.16,8.22-2.74,15.28"/>
			<path id="kvg:08a25-s7" kvg:type="㇐b" d="M21.47,92.55c4.8-0.54,11.1-1.47,17.69-2.31"/>
		</g>
	</g>
	<g id="kvg:08a25-g3" kvg:element="内" kvg:variant="true" kvg:position="right">
		<g id="kvg:08a25-g4" kvg:element="冂">
			<path id="kvg:08a25-s8" kvg:type="㇑" d="M49.75,32.9c0.48,0.98,0.8,2.56,0.64,4.33C50.23,39,50.55,92.05,50.55,95"/>
			<path id="kvg:08a25-s9" kvg:type="㇆a" d="M50.39,34.91c6.06-0.79,37.79-4.16,38.98-4.43c2.55-0.59,4.42,1.44,4.14,2.36c-0.48,1.57-0.48,51.34-0.48,55.86c0,10.47-5.08,4.22-7.39,2.1"/>
		</g>
		<g id="kvg:08a25-g5" kvg:element="人" kvg:variant="true">
			<g id="kvg:08a25-g6" kvg:element="入">
				<path id="kvg:08a25-s10" kvg:type="㇒" d="M69.94,40.14c0.06,0.88,0.07,1.84-0.17,2.53C66.66,51.75,61.25,63,54.31,68.12"/>
				<path id="kvg:08a25-s11" kvg:type="㇏" d="M62.5,11.25c0.92,0,1.9,1.42,2.14,2.68C69.13,37,75.31,51.97,86.51,65.44c0.99,1.19,1.5,2.06,2.3,2.47"/>
			</g>
		</g>
	</g>
</g>
</g>
<g id="kvg:StrokeNumbers_08a25" style="font-size:8;fill:#808080">
	<text transform="matrix(1 0 0 1 12.25 15.95)">1</text>
	<text transform="matrix(1 0 0 1 3.50 37.50)">2</text>
	<text transform="matrix(1 0 0 1 9.25 48.50)">3</text>
	<text transform="matrix(1 0 0 1 9.50 61.50)">4</text>
	<text transform="matrix(1 0 0 1 11.00 81.50)">5</text>
	<text transform="matrix(1 0 0 1 19.50 71.50)">6</text>
	<text transform="matrix(1 0 0 1 23.50 88.50)">7</text>
	<text transform="matrix(1 0 0 1 42.25 42.50)">8</text>
	<text transform="matrix(1 0 0 1 51.50 31.50)">9</text>
	<text transform="matrix(1 0 0 1 59.25 43.70)">10</text>
	<text transform="matrix(1 0 0 1 53.75 12.50)">11</text>
</g>
</svg>
