<?xml version="1.0" encoding="UTF-8"?>
<!--
Copyright (C) 2009/2010/2011 Ulrich Apel.
This work is distributed under the conditions of the Creative Commons 
Attribution-Share Alike 3.0 Licence. This means you are free:
* to Share - to copy, distribute and transmit the work
* to Remix - to adapt the work

Under the following conditions:
* Attribution. You must attribute the work by stating your use of KanjiVG in
  your own copyright header and linking to KanjiVG's website
  (http://kanjivg.tagaini.net)
* Share Alike. If you alter, transform, or build upon this work, you may
  distribute the resulting work only under the same or similar license to this
  one.

See http://creativecommons.org/licenses/by-sa/3.0/ for more details.
-->
<!DOCTYPE svg PUBLIC "-//W3C//DTD SVG 1.0//EN" "http://www.w3.org/TR/2001/REC-SVG-20010904/DTD/svg10.dtd" [
<!ATTLIST g
xmlns:kvg CDATA #FIXED "http://kanjivg.tagaini.net"
kvg:element CDATA #IMPLIED
kvg:variant CDATA #IMPLIED
kvg:partial CDATA #IMPLIED
kvg:original CDATA #IMPLIED
kvg:part CDATA #IMPLIED
kvg:number CDATA #IMPLIED
kvg:tradForm CDATA #IMPLIED
kvg:radicalForm CDATA #IMPLIED
kvg:position CDATA #IMPLIED
kvg:radical CDATA #IMPLIED
kvg:phon CDATA #IMPLIED >
<!ATTLIST path
xmlns:kvg CDATA #FIXED "http://kanjivg.tagaini.net"
kvg:type CDATA #IMPLIED >
]>
<svg xmlns="http://www.w3.org/2000/svg" width="109" height="109" viewBox="0 0 109 109">
<g id="kvg:StrokePaths_08a5e" style="fill:none;stroke:#000000;stroke-width:3;stroke-linecap:round;stroke-linejoin:round;">
<g id="kvg:08a5e" kvg:element="詞">
	<g id="kvg:08a5e-g1" kvg:element="言" kvg:position="left" kvg:radical="general">
		<path id="kvg:08a5e-s1" kvg:type="㇔" d="M26.8,12.25c2.43,1.59,6.27,6.53,6.88,9"/>
		<path id="kvg:08a5e-s2" kvg:type="㇐" d="M11.12,29.83c1.7,0.56,4.01,0.26,5.76,0.13c7.78-0.54,17.78-2.01,23.73-2.81c1.78-0.24,3.89-0.53,5.23-0.23"/>
		<path id="kvg:08a5e-s3" kvg:type="㇐" d="M17.68,43.81c1.41,0.4,3.25,0.4,4.68,0.23c4.46-0.52,9.29-1.49,13.26-2.04c1.53-0.21,3.36-0.51,4.89-0.25"/>
		<path id="kvg:08a5e-s4" kvg:type="㇐" d="M18.8,56.33c1.31,0.4,3.25,0.38,4.58,0.28c3.7-0.27,8.74-1.3,12.76-1.89c1.38-0.2,3.06-0.5,4.44-0.25"/>
		<g id="kvg:08a5e-g2" kvg:element="口">
			<path id="kvg:08a5e-s5" kvg:type="㇑" d="M17.01,68.9c0.92,0.92,1.3,1.92,1.53,2.96c0.71,3.22,1.52,8.39,2.28,13.12c0.36,2.27,0.72,4.45,1.05,6.26"/>
			<path id="kvg:08a5e-s6" kvg:type="㇕b" d="M19.5,70.62c7.02-1.37,14.77-2.54,18.74-3.2c2.64-0.44,3.91,0.85,3.44,3.52c-0.67,3.76-1.49,6.38-2.88,12.77"/>
			<path id="kvg:08a5e-s7" kvg:type="㇐b" d="M22.17,86.05c4.45-0.45,9.3-1.07,15.11-1.66c1.2-0.12,2.47-0.26,3.95-0.15"/>
		</g>
	</g>
	<g id="kvg:08a5e-g3" kvg:element="司" kvg:position="right" kvg:phon="司">
		<path id="kvg:08a5e-s8" kvg:type="㇆" d="M49.5,20.75c2.04,0.43,4.15,0.56,6.23,0.26c13.08-1.89,29.02-4.38,32.27-4.76c3.23-0.37,4.85,1.44,4.85,5.25c0,3-0.05,61.75-0.05,67.5c0,11.88-7.93,2.88-10.01,1.25"/>
		<g id="kvg:08a5e-g4" kvg:element="一">
			<path id="kvg:08a5e-s9" kvg:type="㇐" d="M52.49,37.42c1.76,0.29,3.08,0.09,4.51-0.1c4.25-0.56,10.6-1.61,15.11-2.04c1.59-0.15,2.96-0.23,4.49,0.16"/>
		</g>
		<g id="kvg:08a5e-g5" kvg:element="口">
			<path id="kvg:08a5e-s10" kvg:type="㇑" d="M52.19,52.29c0.82,0.82,1.22,1.78,1.49,2.92c0.69,3,1.63,8.15,2.3,12.75c0.25,1.71,0.46,3.34,0.61,4.76"/>
			<path id="kvg:08a5e-s11" kvg:type="㇕b" d="M54.56,53.93c7.02-1.37,14.77-2.54,18.74-3.2c2.64-0.44,3.91,0.85,3.44,3.52c-0.67,3.76-1.49,6.38-2.88,12.77"/>
			<path id="kvg:08a5e-s12" kvg:type="㇐b" d="M56.85,69.79c3.09-0.42,9.52-1.04,15.15-1.72c1.43-0.17,2.88-0.28,4.06-0.28"/>
		</g>
	</g>
</g>
</g>
<g id="kvg:StrokeNumbers_08a5e" style="font-size:8;fill:#808080">
	<text transform="matrix(1 0 0 1 20.50 12.50)">1</text>
	<text transform="matrix(1 0 0 1 4.50 31.55)">2</text>
	<text transform="matrix(1 0 0 1 10.50 44.98)">3</text>
	<text transform="matrix(1 0 0 1 11.50 57.50)">4</text>
	<text transform="matrix(1 0 0 1 10.50 75.50)">5</text>
	<text transform="matrix(1 0 0 1 20.25 67.25)">6</text>
	<text transform="matrix(1 0 0 1 24.75 82.50)">7</text>
	<text transform="matrix(1 0 0 1 48.75 17.50)">8</text>
	<text transform="matrix(1 0 0 1 51.75 34.55)">9</text>
	<text transform="matrix(1 0 0 1 43.50 60.50)">10</text>
	<text transform="matrix(1 0 0 1 54.50 50.50)">11</text>
	<text transform="matrix(1 0 0 1 58.50 66.50)">12</text>
</g>
</svg>
