<?xml version="1.0" encoding="UTF-8"?>
<!--
Copyright (C) 2009/2010/2011 Ulrich Apel.
This work is distributed under the conditions of the Creative Commons 
Attribution-Share Alike 3.0 Licence. This means you are free:
* to Share - to copy, distribute and transmit the work
* to Remix - to adapt the work

Under the following conditions:
* Attribution. You must attribute the work by stating your use of KanjiVG in
  your own copyright header and linking to KanjiVG's website
  (http://kanjivg.tagaini.net)
* Share Alike. If you alter, transform, or build upon this work, you may
  distribute the resulting work only under the same or similar license to this
  one.

See http://creativecommons.org/licenses/by-sa/3.0/ for more details.
-->
<!DOCTYPE svg PUBLIC "-//W3C//DTD SVG 1.0//EN" "http://www.w3.org/TR/2001/REC-SVG-20010904/DTD/svg10.dtd" [
<!ATTLIST g
xmlns:kvg CDATA #FIXED "http://kanjivg.tagaini.net"
kvg:element CDATA #IMPLIED
kvg:variant CDATA #IMPLIED
kvg:partial CDATA #IMPLIED
kvg:original CDATA #IMPLIED
kvg:part CDATA #IMPLIED
kvg:number CDATA #IMPLIED
kvg:tradForm CDATA #IMPLIED
kvg:radicalForm CDATA #IMPLIED
kvg:position CDATA #IMPLIED
kvg:radical CDATA #IMPLIED
kvg:phon CDATA #IMPLIED >
<!ATTLIST path
xmlns:kvg CDATA #FIXED "http://kanjivg.tagaini.net"
kvg:type CDATA #IMPLIED >
]>
<svg xmlns="http://www.w3.org/2000/svg" width="109" height="109" viewBox="0 0 109 109">
<g id="kvg:StrokePaths_08a62-Kaisho" style="fill:none;stroke:#000000;stroke-width:3;stroke-linecap:round;stroke-linejoin:round;">
<g id="kvg:08a62-Kaisho" kvg:element="詢">
	<g id="kvg:08a62-Kaisho-g1" kvg:element="言" kvg:position="left" kvg:radical="general">
		<path id="kvg:08a62-Kaisho-s1" kvg:type="㇔" d="M20.8,15.5c3.22,1.77,8.32,7.25,9.13,10"/>
		<path id="kvg:08a62-Kaisho-s2" kvg:type="㇐" d="M10.37,33.83c0.71,0.23,3.4,0.27,4.1,0.23c8.73-0.42,18.28-1.56,24.83-2.87c1.16-0.23,1.95,0.11,2.54,0.23"/>
		<path id="kvg:08a62-Kaisho-s3" kvg:type="㇐" d="M16.43,46.31c0.43,0.12,3.04,0.13,3.47,0.12c4.44-0.14,9.36-1.43,13.84-2.05c0.7-0.1,2.18,0.06,2.54,0.12"/>
		<path id="kvg:08a62-Kaisho-s4" kvg:type="㇐" d="M15.05,58.58c0.38,0.12,2.71,0.13,3.1,0.12c3.97-0.13,12.36-1.7,16.33-2.09c0.63-0.06,1.79,0.06,2.1,0.11"/>
		<g id="kvg:08a62-Kaisho-g2" kvg:element="口">
			<path id="kvg:08a62-Kaisho-s5" kvg:type="㇑" d="M14.26,72.03c0.37,0.34,0.79,1.08,0.91,1.53c1.05,3.95,2.87,13.65,3.93,19.44"/>
			<path id="kvg:08a62-Kaisho-s6" kvg:type="㇕b" d="M15.62,73.4c6.84-0.84,13.68-2.44,20-3.29c1.58-0.21,2.54,0.97,2.32,1.93c-0.94,3.99-1.29,8.18-2.97,14.81"/>
			<path id="kvg:08a62-Kaisho-s7" kvg:type="㇐b" d="M19.4,89.52c5.1-0.51,10.14-0.91,17.15-1.7"/>
		</g>
	</g>
	<g id="kvg:08a62-Kaisho-g3" kvg:element="旬" kvg:position="right">
		<g id="kvg:08a62-Kaisho-g4" kvg:element="勹">
			<g id="kvg:08a62-Kaisho-g5" kvg:element="丿">
				<path id="kvg:08a62-Kaisho-s8" kvg:type="㇒" d="M62.54,13.5c0.06,0.72,0.11,1.86-0.11,2.9c-1.31,6.11-8.85,19.52-19.18,27.73"/>
			</g>
			<path id="kvg:08a62-Kaisho-s9" kvg:type="㇆" d="M58.95,31c0.87,0.72,2.04,0.73,3.49,0.48c2.81-0.48,23.97-3.52,27.46-3.77c3.49-0.24,4.19,2.4,3.67,7.45C93.04,40.2,92.75,75,84.89,92.59c-1.92,4.31-5.53,0.3-7.59-2.7"/>
		</g>
		<g id="kvg:08a62-Kaisho-g6" kvg:element="日">
			<path id="kvg:08a62-Kaisho-s10" kvg:type="㇑" d="M51.49,45.84c0.26,0.68,0.52,1.02,0.52,1.94c0,0.91,1.91,28.76,2,29.67"/>
			<path id="kvg:08a62-Kaisho-s11" kvg:type="㇕a" d="M52.44,47.26c1.46-0.11,17.71-2.26,19.05-2.4c1.11-0.11,1.82,1.26,1.74,1.93c-0.17,1.37-1.34,28.71-1.34,29.39"/>
			<path id="kvg:08a62-Kaisho-s12" kvg:type="㇐a" d="M53.69,60.03c2.95,0,6.04-0.78,8.94-1.22c1-0.15,2-0.31,2.96-0.45"/>
			<path id="kvg:08a62-Kaisho-s13" kvg:type="㇐a" d="M54.6,73.39c4.02-0.49,12.15-0.92,17.17-1.35"/>
		</g>
	</g>
</g>
</g>
<g id="kvg:StrokeNumbers_08a62-Kaisho" style="font-size:8;fill:#808080">
	<text transform="matrix(1 0 0 1 14.25 15.25)">1</text>
	<text transform="matrix(1 0 0 1 3.25 35.05)">2</text>
	<text transform="matrix(1 0 0 1 5.75 48.23)">3</text>
	<text transform="matrix(1 0 0 1 6.00 61.65)">4</text>
	<text transform="matrix(1 0 0 1 6.25 82.58)">5</text>
	<text transform="matrix(1 0 0 1 17.75 67.25)">6</text>
	<text transform="matrix(1 0 0 1 22.25 84.93)">7</text>
	<text transform="matrix(1 0 0 1 53.25 14.25)">8</text>
	<text transform="matrix(1 0 0 1 64.25 28.25)">9</text>
	<text transform="matrix(1 0 0 1 40.50 56.25)">10</text>
	<text transform="matrix(1 0 0 1 54.25 43.25)">11</text>
	<text transform="matrix(1 0 0 1 55.50 56.25)">12</text>
	<text transform="matrix(1 0 0 1 55.50 70.25)">13</text>
</g>
</svg>
