<?xml version="1.0" encoding="UTF-8"?>
<!--
Copyright (C) 2009/2010/2011 Ulrich Apel.
This work is distributed under the conditions of the Creative Commons 
Attribution-Share Alike 3.0 Licence. This means you are free:
* to Share - to copy, distribute and transmit the work
* to Remix - to adapt the work

Under the following conditions:
* Attribution. You must attribute the work by stating your use of KanjiVG in
  your own copyright header and linking to KanjiVG's website
  (http://kanjivg.tagaini.net)
* Share Alike. If you alter, transform, or build upon this work, you may
  distribute the resulting work only under the same or similar license to this
  one.

See http://creativecommons.org/licenses/by-sa/3.0/ for more details.
-->
<!DOCTYPE svg PUBLIC "-//W3C//DTD SVG 1.0//EN" "http://www.w3.org/TR/2001/REC-SVG-20010904/DTD/svg10.dtd" [
<!ATTLIST g
xmlns:kvg CDATA #FIXED "http://kanjivg.tagaini.net"
kvg:element CDATA #IMPLIED
kvg:variant CDATA #IMPLIED
kvg:partial CDATA #IMPLIED
kvg:original CDATA #IMPLIED
kvg:part CDATA #IMPLIED
kvg:number CDATA #IMPLIED
kvg:tradForm CDATA #IMPLIED
kvg:radicalForm CDATA #IMPLIED
kvg:position CDATA #IMPLIED
kvg:radical CDATA #IMPLIED
kvg:phon CDATA #IMPLIED >
<!ATTLIST path
xmlns:kvg CDATA #FIXED "http://kanjivg.tagaini.net"
kvg:type CDATA #IMPLIED >
]>
<svg xmlns="http://www.w3.org/2000/svg" width="109" height="109" viewBox="0 0 109 109">
<g id="kvg:StrokePaths_08a95-HzFst" style="fill:none;stroke:#000000;stroke-width:3;stroke-linecap:round;stroke-linejoin:round;">
<g id="kvg:08a95-HzFst" kvg:element="誕">
	<g id="kvg:08a95-HzFst-g1" kvg:element="言" kvg:position="left" kvg:radical="general">
		<path id="kvg:08a95-HzFst-s1" kvg:type="㇔" d="M19.05,13.75c2.52,1.5,6.5,6.17,7.13,8.5"/>
		<path id="kvg:08a95-HzFst-s2" kvg:type="㇐" d="M7.62,33.08c0.71,0.23,3.4,0.33,4.1,0.23C19,32.25,28.5,30,34.56,29.44c1.18-0.11,2.95,0.11,3.54,0.23"/>
		<path id="kvg:08a95-HzFst-s3" kvg:type="㇐" d="M13.68,46.06c0.43,0.12,3.04,0.13,3.47,0.12c4.44-0.14,9.36-1.93,13.84-2.55c0.7-0.1,2.68,0.06,3.04,0.12"/>
		<path id="kvg:08a95-HzFst-s4" kvg:type="㇐" d="M14.3,58.33c0.38,0.12,2.71,0.13,3.1,0.12c3.97-0.13,9.86-1.7,13.83-2.09c0.63-0.06,2.29,0.06,2.6,0.11"/>
		<g id="kvg:08a95-HzFst-g2" kvg:element="口">
			<path id="kvg:08a95-HzFst-s5" kvg:type="㇑" d="M13.01,70.26c0.34,0.34,0.73,1.07,0.84,1.52c0.97,3.9,2.4,13.23,3.1,18.73"/>
			<path id="kvg:08a95-HzFst-s6" kvg:type="㇕b" d="M14.26,71.62c6.27-0.83,12.53-2.41,18.31-3.25c1.45-0.21,2.33,0.96,2.12,1.91c-0.86,3.94-1.18,8.09-2.72,14.65"/>
			<path id="kvg:08a95-HzFst-s7" kvg:type="㇐b" d="M17.72,87.56c4.67-0.5,9.29-0.9,15.71-1.68"/>
		</g>
	</g>
	<g id="kvg:08a95-HzFst-g3" kvg:element="延" kvg:position="right">
		<g id="kvg:08a95-HzFst-g4" kvg:element="正" kvg:variant="true">
			<g id="kvg:08a95-HzFst-g5" kvg:element="丿">
				<path id="kvg:08a95-HzFst-s8" kvg:type="㇒" d="M85.59,15c0.06,0.39,0.23,1.12-0.12,1.57c-4.28,5.5-10.61,10.54-21.76,14.98"/>
			</g>
			<g id="kvg:08a95-HzFst-g6" kvg:element="止">
				<g id="kvg:08a95-HzFst-g7" kvg:element="卜" kvg:original="ト">
					<path id="kvg:08a95-HzFst-s9" kvg:type="㇐" d="M79.23,46.31c4.44-0.54,7.68-1.31,12.35-1.68c1.08-0.08,1.36-0.18,2.04,0"/>
					<path id="kvg:08a95-HzFst-s10" kvg:type="㇑" d="M77.17,27.5c0.68,0.36,1.08,1.63,1.22,2.36c0.19,1.01,0,34.76-0.14,39.35"/>
				</g>
				<path id="kvg:08a95-HzFst-s11" kvg:type="㇑" d="M65.45,48.18c0.68,0.36,1.09,1.63,1.22,2.36c0.13,0.73,0.43,15.54,0.29,20.08"/>
				<path id="kvg:08a95-HzFst-s12" kvg:type="㇐" d="M61.77,70.71c0.46,0.18,1.68,0.11,2.89,0.04C71.22,70.39,85,69,91.71,68.62c1.22-0.07,3.33,0.36,4.03,0.54"/>
			</g>
		</g>
		<g id="kvg:08a95-HzFst-g8" kvg:element="廴" kvg:position="nyo">
			<path id="kvg:08a95-HzFst-s13" kvg:type="㇇" d="M38.46,36.12c1.07,0.56,2.79,0.94,4.3,0.56c1.5-0.38,5.24-2.19,8.38-3.75c2.77-1.38,2.61-0.18,2.15,1.94c-0.56,2.59-4.04,10.88-7.74,19.89"/>
			<path id="kvg:08a95-HzFst-s14" kvg:type="㇇a" d="M45.46,55.26c2.81-0.77,7.15-2.31,8.85-3.22c2.44-1.3,4.4-1.08,3.6,2.26C54.75,67.5,50,83,37.68,92.25"/>
			<path id="kvg:08a95-HzFst-s15" kvg:type="㇏" d="M40,64.75c4.51-0.19,28.75,19.75,49.43,27.24c2.94,1.07,6.06,1.19,8.32,1.51"/>
		</g>
	</g>
</g>
</g>
<g id="kvg:StrokeNumbers_08a95-HzFst" style="font-size:8;fill:#808080">
	<text transform="matrix(1 0 0 1 12.50 14.50)">1</text>
	<text transform="matrix(1 0 0 1 0.75 33.13)">2</text>
	<text transform="matrix(1 0 0 1 7.50 47.50)">3</text>
	<text transform="matrix(1 0 0 1 6.75 58.50)">4</text>
	<text transform="matrix(1 0 0 1 6.75 77.90)">5</text>
	<text transform="matrix(1 0 0 1 17.25 68.50)">6</text>
	<text transform="matrix(1 0 0 1 19.50 84.05)">7</text>
	<text transform="matrix(1 0 0 1 76.50 15.50)">8</text>
	<text transform="matrix(1 0 0 1 81.50 42.50)">9</text>
	<text transform="matrix(1 0 0 1 68.25 37.55)">10</text>
	<text transform="matrix(1 0 0 1 59.50 45.50)">11</text>
	<text transform="matrix(1 0 0 1 58.50 68.50)">12</text>
	<text transform="matrix(1 0 0 1 39.75 32.50)">13</text>
	<text transform="matrix(1 0 0 1 36.50 57.50)">14</text>
	<text transform="matrix(1 0 0 1 42.50 64.50)">15</text>
</g>
</svg>
