<?xml version="1.0" encoding="UTF-8"?>
<!--
Copyright (C) 2009/2010/2011 Ulrich Apel.
This work is distributed under the conditions of the Creative Commons 
Attribution-Share Alike 3.0 Licence. This means you are free:
* to Share - to copy, distribute and transmit the work
* to Remix - to adapt the work

Under the following conditions:
* Attribution. You must attribute the work by stating your use of KanjiVG in
  your own copyright header and linking to KanjiVG's website
  (http://kanjivg.tagaini.net)
* Share Alike. If you alter, transform, or build upon this work, you may
  distribute the resulting work only under the same or similar license to this
  one.

See http://creativecommons.org/licenses/by-sa/3.0/ for more details.
-->
<!DOCTYPE svg PUBLIC "-//W3C//DTD SVG 1.0//EN" "http://www.w3.org/TR/2001/REC-SVG-20010904/DTD/svg10.dtd" [
<!ATTLIST g
xmlns:kvg CDATA #FIXED "http://kanjivg.tagaini.net"
kvg:element CDATA #IMPLIED
kvg:variant CDATA #IMPLIED
kvg:partial CDATA #IMPLIED
kvg:original CDATA #IMPLIED
kvg:part CDATA #IMPLIED
kvg:number CDATA #IMPLIED
kvg:tradForm CDATA #IMPLIED
kvg:radicalForm CDATA #IMPLIED
kvg:position CDATA #IMPLIED
kvg:radical CDATA #IMPLIED
kvg:phon CDATA #IMPLIED >
<!ATTLIST path
xmlns:kvg CDATA #FIXED "http://kanjivg.tagaini.net"
kvg:type CDATA #IMPLIED >
]>
<svg xmlns="http://www.w3.org/2000/svg" width="109" height="109" viewBox="0 0 109 109">
<g id="kvg:StrokePaths_08aa1" style="fill:none;stroke:#000000;stroke-width:3;stroke-linecap:round;stroke-linejoin:round;">
<g id="kvg:08aa1" kvg:element="誡">
	<g id="kvg:08aa1-g1" kvg:element="言" kvg:position="left" kvg:radical="general">
		<path id="kvg:08aa1-s1" kvg:type="㇔" d="M21.55,14.75c3.05,1.94,7.87,7.98,8.63,11"/>
		<path id="kvg:08aa1-s2" kvg:type="㇐" d="M9.62,33.08c0.71,0.23,3.4,0.27,4.1,0.23c8.73-0.42,16.98-2.17,23.33-2.37c1.18-0.04,2.95,0.11,3.54,0.23"/>
		<path id="kvg:08aa1-s3" kvg:type="㇐" d="M15.18,46.06c0.43,0.12,3.04,0.13,3.47,0.12c4.44-0.14,9.86-0.93,14.34-1.55c0.7-0.1,3.68,0.06,4.04,0.12"/>
		<path id="kvg:08aa1-s4" kvg:type="㇐" d="M15.8,60.33c0.38,0.12,2.71,0.13,3.1,0.12c3.97-0.13,10.61-1.45,14.83-2.09c0.63-0.1,3.29,0.06,3.6,0.11"/>
		<g id="kvg:08aa1-g2" kvg:element="口">
			<path id="kvg:08aa1-s5" kvg:type="㇑" d="M13.51,73.9c0.39,0.36,0.83,1.15,0.96,1.63c1.11,4.21,2.52,11.54,3.64,17.71"/>
			<path id="kvg:08aa1-s6" kvg:type="㇕b" d="M14.94,75.87c9.56-1.87,12.9-3.1,19.55-4c1.67-0.22,2.68,1.04,2.44,2.06c-0.99,4.25-1.36,7.22-3.12,14.28"/>
			<path id="kvg:08aa1-s7" kvg:type="㇐b" d="M17.92,91.05c5.37-0.54,10.68-1.47,18.06-2.31"/>
		</g>
	</g>
	<g id="kvg:08aa1-g3" kvg:element="戒" kvg:position="right">
		<g id="kvg:08aa1-g4" kvg:element="戈" kvg:part="1">
			<g id="kvg:08aa1-g5" kvg:element="弋" kvg:part="1">
				<path id="kvg:08aa1-s8" kvg:type="㇐" d="M44.07,39.38c1.12,0.52,3.16,0.69,4.28,0.52c7.9-1.15,27.9-6.15,37.13-6.94c1.85-0.16,2.98,0.25,3.91,0.51"/>
				<path id="kvg:08aa1-s9" kvg:type="㇂" d="M39.95,64.35c0.7,0.31,1.97,0.36,2.67,0.31c7.24-0.52,16.01-3.33,24.03-4.51c1.15-0.17,1.86,0.15,2.44,0.31"/>
			</g>
		</g>
		<g id="kvg:08aa1-g6" kvg:element="廾">
			<g id="kvg:08aa1-g7" kvg:element="十" kvg:part="1">
				<path id="kvg:08aa1-s10" kvg:type="㇐" d="M49.87,53.14c0.36,1.06,0.9,2.06,0.9,3.54C50.75,67.25,51,77,43.8,87.6"/>
			</g>
			<g id="kvg:08aa1-g8" kvg:element="丿">
				<path id="kvg:08aa1-s11" kvg:type="㇒" d="M59.75,48.99c0.5,1.01,1.13,2.28,1.23,2.85c0.09,0.58,0,30.05-0.1,33.65"/>
			</g>
			<g id="kvg:08aa1-g9" kvg:element="十" kvg:part="2">
				<path id="kvg:08aa1-s12" kvg:type="㇑" d="M63.67,14.96c1.19,1.71,1.63,2.19,1.93,5.87C68,49.75,76.25,79.5,92.55,92.28c4.66,3.65,4.02,0.73,3.42-6.85"/>
			</g>
		</g>
		<g id="kvg:08aa1-g10" kvg:element="戈" kvg:part="2">
			<g id="kvg:08aa1-g11" kvg:element="丿">
				<path id="kvg:08aa1-s13" kvg:type="㇒" d="M87.08,46.76c0.07,1.07,0.27,2.78-0.14,4.28C84,61.75,77.25,81.25,61.96,92.99"/>
			</g>
			<g id="kvg:08aa1-g12" kvg:element="弋" kvg:part="2">
				<g id="kvg:08aa1-g13" kvg:element="丶">
					<path id="kvg:08aa1-s14" kvg:type="㇔" d="M78.61,17.25c2.46,1.69,6.39,5.55,7.53,8.44"/>
				</g>
			</g>
		</g>
	</g>
</g>
</g>
<g id="kvg:StrokeNumbers_08aa1" style="font-size:8;fill:#808080">
	<text transform="matrix(1 0 0 1 14.50 14.50)">1</text>
	<text transform="matrix(1 0 0 1 2.75 33.50)">2</text>
	<text transform="matrix(1 0 0 1 8.50 47.50)">3</text>
	<text transform="matrix(1 0 0 1 8.50 61.90)">4</text>
	<text transform="matrix(1 0 0 1 7.50 81.83)">5</text>
	<text transform="matrix(1 0 0 1 16.50 71.50)">6</text>
	<text transform="matrix(1 0 0 1 21.50 87.50)">7</text>
	<text transform="matrix(1 0 0 1 43.50 36.85)">8</text>
	<text transform="matrix(1 0 0 1 39.50 61.50)">9</text>
	<text transform="matrix(1 0 0 1 40.00 50.50)">10</text>
	<text transform="matrix(1 0 0 1 50.50 48.50)">11</text>
	<text transform="matrix(1 0 0 1 50.50 14.50)">12</text>
	<text transform="matrix(1 0 0 1 76.50 46.50)">13</text>
	<text transform="matrix(1 0 0 1 70.50 14.50)">14</text>
</g>
</svg>
