<?xml version="1.0" encoding="UTF-8"?>
<!--
Copyright (C) 2009/2010/2011 Ulrich Apel.
This work is distributed under the conditions of the Creative Commons 
Attribution-Share Alike 3.0 Licence. This means you are free:
* to Share - to copy, distribute and transmit the work
* to Remix - to adapt the work

Under the following conditions:
* Attribution. You must attribute the work by stating your use of KanjiVG in
  your own copyright header and linking to KanjiVG's website
  (http://kanjivg.tagaini.net)
* Share Alike. If you alter, transform, or build upon this work, you may
  distribute the resulting work only under the same or similar license to this
  one.

See http://creativecommons.org/licenses/by-sa/3.0/ for more details.
-->
<!DOCTYPE svg PUBLIC "-//W3C//DTD SVG 1.0//EN" "http://www.w3.org/TR/2001/REC-SVG-20010904/DTD/svg10.dtd" [
<!ATTLIST g
xmlns:kvg CDATA #FIXED "http://kanjivg.tagaini.net"
kvg:element CDATA #IMPLIED
kvg:variant CDATA #IMPLIED
kvg:partial CDATA #IMPLIED
kvg:original CDATA #IMPLIED
kvg:part CDATA #IMPLIED
kvg:number CDATA #IMPLIED
kvg:tradForm CDATA #IMPLIED
kvg:radicalForm CDATA #IMPLIED
kvg:position CDATA #IMPLIED
kvg:radical CDATA #IMPLIED
kvg:phon CDATA #IMPLIED >
<!ATTLIST path
xmlns:kvg CDATA #FIXED "http://kanjivg.tagaini.net"
kvg:type CDATA #IMPLIED >
]>
<svg xmlns="http://www.w3.org/2000/svg" width="109" height="109" viewBox="0 0 109 109">
<g id="kvg:StrokePaths_08adb" style="fill:none;stroke:#000000;stroke-width:3;stroke-linecap:round;stroke-linejoin:round;">
<g id="kvg:08adb" kvg:element="諛">
	<g id="kvg:08adb-g1" kvg:element="言" kvg:position="left" kvg:radical="general">
		<path id="kvg:08adb-s1" kvg:type="㇔" d="M19.55,13.25c3.75,2.21,9.69,9.07,10.63,12.5"/>
		<path id="kvg:08adb-s2" kvg:type="㇐" d="M9.62,35.08c0.71,0.23,3.4,0.27,4.1,0.23c8.73-0.42,17.48-2.67,23.83-2.87c1.18-0.04,2.95,0.11,3.54,0.23"/>
		<path id="kvg:08adb-s3" kvg:type="㇐" d="M15.18,47.06c0.43,0.12,3.04,0.13,3.47,0.12c4.44-0.14,8.86-0.93,13.34-1.55c0.7-0.1,3.68,0.06,4.04,0.12"/>
		<path id="kvg:08adb-s4" kvg:type="㇐" d="M14.8,59.33c0.38,0.12,2.71,0.13,3.1,0.12c3.97-0.13,9.36-0.45,14.33-1.09c0.63-0.08,3.29,0.06,3.6,0.11"/>
		<g id="kvg:08adb-g2" kvg:element="口">
			<path id="kvg:08adb-s5" kvg:type="㇑" d="M14.01,72.9c0.39,0.36,0.83,1.15,0.96,1.63c1.11,4.21,2.02,14.54,3.14,20.71"/>
			<path id="kvg:08adb-s6" kvg:type="㇕b" d="M15.44,74.37c7.2-0.89,13.4-1.6,20.05-2.5c1.67-0.22,2.68,1.04,2.44,2.06c-0.99,4.25-1.36,8.22-3.12,15.28"/>
			<path id="kvg:08adb-s7" kvg:type="㇐b" d="M18.42,92.05c5.37-0.54,12.18-0.97,19.56-1.81"/>
		</g>
	</g>
	<g id="kvg:08adb-g3" kvg:element="臾" kvg:position="right">
		<g id="kvg:08adb-g4" kvg:element="𦥑" kvg:variant="true" kvg:original="臼">
			<path id="kvg:08adb-s8" kvg:type="㇒" d="M61.57,23.18c0.04,0.25-0.21,1.21-0.46,1.47c-3.26,3.51-5.8,6.16-13.24,8.95"/>
			<path id="kvg:08adb-s9" kvg:type="㇑" d="M46.95,32.88c0.67,0.81,0.94,2.63,1.1,4.3c0.6,6.09,2.01,18.9,2.62,27.14"/>
			<path id="kvg:08adb-s10" kvg:type="㇕" d="M49.1,45.68c3.3-0.37,10.52-1.92,11.3-1.92c0.78,0,1.88,0,2.51,0"/>
			<path id="kvg:08adb-s11" kvg:type="㇐" d="M51.27,60.43c3.3-0.37,37.22-2.42,38-2.42"/>
			<path id="kvg:08adb-s12" kvg:type="㇐" d="M75.89,29.11c0.79,0.18,1.41,0.56,2.51,0.56c1.1,0,11.92-3.22,13.18-3.41s2.37,0.93,2.2,2.04C91.75,41,89.25,57.75,88.68,61.98"/>
			<path id="kvg:08adb-s13" kvg:type="㇐" d="M75.11,43.5c0.79,0.18,1.41,0.56,2.51,0.56c1.1,0,12.4-1.44,13.65-1.62"/>
		</g>
		<g id="kvg:08adb-g5" kvg:element="人">
			<path id="kvg:08adb-s14" kvg:type="㇒" d="M67.8,13.25c0.91,1.85,1,2.71,1.03,5.56c0.52,44.77-2.22,60.53-29.33,77.69"/>
			<path id="kvg:08adb-s15" kvg:type="㇏" d="M67.3,60.34C74.25,70.25,85,84.5,93.63,91.67c1.64,1.37,3.56,2.05,5.12,2.46"/>
		</g>
	</g>
</g>
</g>
<g id="kvg:StrokeNumbers_08adb" style="font-size:8;fill:#808080">
	<text transform="matrix(1 0 0 1 13.50 13.50)">1</text>
	<text transform="matrix(1 0 0 1 2.50 34.50)">2</text>
	<text transform="matrix(1 0 0 1 8.50 47.50)">3</text>
	<text transform="matrix(1 0 0 1 7.50 60.50)">4</text>
	<text transform="matrix(1 0 0 1 7.50 78.50)">5</text>
	<text transform="matrix(1 0 0 1 17.50 70.50)">6</text>
	<text transform="matrix(1 0 0 1 20.50 88.50)">7</text>
	<text transform="matrix(1 0 0 1 53.50 23.50)">8</text>
	<text transform="matrix(1 0 0 1 40.25 42.78)">9</text>
	<text transform="matrix(1 0 0 1 72.50 26.50)">10</text>
	<text transform="matrix(1 0 0 1 51.50 41.50)">11</text>
	<text transform="matrix(1 0 0 1 72.50 40.30)">12</text>
	<text transform="matrix(1 0 0 1 53.25 56.50)">13</text>
	<text transform="matrix(1 0 0 1 54.75 13.90)">14</text>
	<text transform="matrix(1 0 0 1 74.50 68.50)">15</text>
</g>
</svg>
