<?xml version="1.0" encoding="UTF-8"?>
<!--
Copyright (C) 2009/2010/2011 Ulrich Apel.
This work is distributed under the conditions of the Creative Commons 
Attribution-Share Alike 3.0 Licence. This means you are free:
* to Share - to copy, distribute and transmit the work
* to Remix - to adapt the work

Under the following conditions:
* Attribution. You must attribute the work by stating your use of KanjiVG in
  your own copyright header and linking to KanjiVG's website
  (http://kanjivg.tagaini.net)
* Share Alike. If you alter, transform, or build upon this work, you may
  distribute the resulting work only under the same or similar license to this
  one.

See http://creativecommons.org/licenses/by-sa/3.0/ for more details.
-->
<!DOCTYPE svg PUBLIC "-//W3C//DTD SVG 1.0//EN" "http://www.w3.org/TR/2001/REC-SVG-20010904/DTD/svg10.dtd" [
<!ATTLIST g
xmlns:kvg CDATA #FIXED "http://kanjivg.tagaini.net"
kvg:element CDATA #IMPLIED
kvg:variant CDATA #IMPLIED
kvg:partial CDATA #IMPLIED
kvg:original CDATA #IMPLIED
kvg:part CDATA #IMPLIED
kvg:number CDATA #IMPLIED
kvg:tradForm CDATA #IMPLIED
kvg:radicalForm CDATA #IMPLIED
kvg:position CDATA #IMPLIED
kvg:radical CDATA #IMPLIED
kvg:phon CDATA #IMPLIED >
<!ATTLIST path
xmlns:kvg CDATA #FIXED "http://kanjivg.tagaini.net"
kvg:type CDATA #IMPLIED >
]>
<svg xmlns="http://www.w3.org/2000/svg" width="109" height="109" viewBox="0 0 109 109">
<g id="kvg:StrokePaths_08ae4" style="fill:none;stroke:#000000;stroke-width:3;stroke-linecap:round;stroke-linejoin:round;">
<g id="kvg:08ae4" kvg:element="諤">
	<g id="kvg:08ae4-g1" kvg:element="言" kvg:position="left" kvg:radical="general">
		<path id="kvg:08ae4-s1" kvg:type="㇔" d="M20.8,14c3.49,1.99,9.01,8.16,9.88,11.25"/>
		<path id="kvg:08ae4-s2" kvg:type="㇐" d="M10.12,36.08c0.71,0.23,3.4,0.27,4.1,0.23c8.73-0.42,17.48-3.17,23.83-3.37c1.18-0.04,2.95,0.11,3.54,0.23"/>
		<path id="kvg:08ae4-s3" kvg:type="㇐" d="M15.18,48.56c0.43,0.12,3.04,0.13,3.47,0.12c4.44-0.14,9.36-1.43,13.84-2.05c0.7-0.1,3.68-0.44,4.04-0.38"/>
		<path id="kvg:08ae4-s4" kvg:type="㇐" d="M15.3,61.83c0.38,0.12,2.71,0.13,3.1,0.12c3.97-0.13,9.86-0.95,14.83-1.59c0.63-0.08,3.29-0.44,3.6-0.39"/>
		<g id="kvg:08ae4-g2" kvg:element="口">
			<path id="kvg:08ae4-s5" kvg:type="㇑" d="M16.02,73.82c0.37,0.35,0.8,1.11,0.92,1.57c1.06,4.03,2.05,12.86,2.97,19.36"/>
			<path id="kvg:08ae4-s6" kvg:type="㇕b" d="M17.4,75.73c6.91-0.85,12.81-2.99,19.19-3.86c1.6-0.21,2.57,0.99,2.34,1.98c-0.95,4.07-1.3,8.36-2.99,15.14"/>
			<path id="kvg:08ae4-s7" kvg:type="㇐b" d="M19.71,92.2c5.15-0.52,11.74-1.43,18.82-2.23"/>
		</g>
	</g>
	<g id="kvg:08ae4-g3" kvg:element="咢" kvg:position="right">
		<g id="kvg:08ae4-g4" kvg:position="top">
			<g id="kvg:08ae4-g5" kvg:element="口" kvg:position="left">
				<path id="kvg:08ae4-s8" kvg:type="㇑" d="M46.67,14.37c0.25,0.3,0.84,1.44,0.95,1.81c0.86,2.95,2.01,8.77,2.6,14.07"/>
				<path id="kvg:08ae4-s9" kvg:type="㇕b" d="M48.22,15.44c6.53-1.19,14.65-2.07,15.88-2.23c1.07-0.14,1.71,0.84,1.55,1.67c-0.63,3.45-1.37,7.62-2.31,12.39"/>
				<path id="kvg:08ae4-s10" kvg:type="㇐b" d="M50.89,28.6c3.43-0.44,9.7-0.73,14.41-1.41"/>
			</g>
			<g id="kvg:08ae4-g6" kvg:element="口" kvg:position="right">
				<path id="kvg:08ae4-s11" kvg:type="㇑" d="M71.96,12.06c0.29,0.32,0.59,0.59,0.71,0.99c1,3.17,1.97,9.83,2.66,15.53"/>
				<path id="kvg:08ae4-s12" kvg:type="㇕b" d="M73.16,13.68c7.34-1.18,14.37-2.03,17.76-2.44c1.24-0.15,1.99,0.9,1.81,1.8c-0.74,3.7-1.94,7.72-3.03,12.84"/>
				<path id="kvg:08ae4-s13" kvg:type="㇐b" d="M75.97,26.84c3.99-0.47,9.28-1.09,16.36-1.01"/>
			</g>
		</g>
		<g id="kvg:08ae4-g7" kvg:position="bottom">
			<g id="kvg:08ae4-g8" kvg:element="二">
				<g id="kvg:08ae4-g9" kvg:position="top">
					<path id="kvg:08ae4-s14" kvg:type="㇐" d="M52.78,38.81c1.07,0.58,3.04,0.68,4.12,0.58c9.08-0.82,17.35-1.65,25.88-2.45c1.79-0.17,2.87-0.22,3.76,0.07"/>
				</g>
				<g id="kvg:08ae4-g10" kvg:position="bottom">
					<path id="kvg:08ae4-s15" kvg:type="㇐" d="M44,51.49c1.4,0.66,3.97,0.74,5.38,0.66C61,51.5,77.17,49.1,92.59,48.21c2.33-0.13,3.74-0.19,4.91,0.14"/>
				</g>
			</g>
			<path id="kvg:08ae4-s16" kvg:type="㇉" d="M61.95,52.16c0.91,1.43,0.84,2.34,0.12,3.85c-0.57,1.21-4.25,8.34-4.62,8.93c-1.47,2.36-0.47,3.31,1.44,2.99c4.1-0.68,18.6-3.26,21.72-3.91c2.43-0.51,3.74,0.71,3.48,3.28c-0.73,7.11-5.84,20.2-12.12,27.81c-3.41,4.13-4.7-1.21-5.5-2.46"/>
		</g>
	</g>
</g>
</g>
<g id="kvg:StrokeNumbers_08ae4" style="font-size:8;fill:#808080">
	<text transform="matrix(1 0 0 1 14.50 14.50)">1</text>
	<text transform="matrix(1 0 0 1 3.50 36.88)">2</text>
	<text transform="matrix(1 0 0 1 7.50 49.50)">3</text>
	<text transform="matrix(1 0 0 1 8.50 62.50)">4</text>
	<text transform="matrix(1 0 0 1 9.50 79.50)">5</text>
	<text transform="matrix(1 0 0 1 20.50 71.50)">6</text>
	<text transform="matrix(1 0 0 1 23.00 88.50)">7</text>
	<text transform="matrix(1 0 0 1 40.50 21.50)">8</text>
	<text transform="matrix(1 0 0 1 48.50 12.50)">9</text>
	<text transform="matrix(1 0 0 1 52.50 25.50)">10</text>
	<text transform="matrix(1 0 0 1 65.75 22.50)">11</text>
	<text transform="matrix(1 0 0 1 74.00 10.80)">12</text>
	<text transform="matrix(1 0 0 1 77.50 23.50)">13</text>
	<text transform="matrix(1 0 0 1 52.50 36.40)">14</text>
	<text transform="matrix(1 0 0 1 41.50 48.50)">15</text>
	<text transform="matrix(1 0 0 1 49.50 62.00)">16</text>
</g>
</svg>
