<?xml version="1.0" encoding="UTF-8"?>
<!--
Copyright (C) 2009/2010/2011 Ulrich Apel.
This work is distributed under the conditions of the Creative Commons 
Attribution-Share Alike 3.0 Licence. This means you are free:
* to Share - to copy, distribute and transmit the work
* to Remix - to adapt the work

Under the following conditions:
* Attribution. You must attribute the work by stating your use of KanjiVG in
  your own copyright header and linking to KanjiVG's website
  (http://kanjivg.tagaini.net)
* Share Alike. If you alter, transform, or build upon this work, you may
  distribute the resulting work only under the same or similar license to this
  one.

See http://creativecommons.org/licenses/by-sa/3.0/ for more details.
-->
<!DOCTYPE svg PUBLIC "-//W3C//DTD SVG 1.0//EN" "http://www.w3.org/TR/2001/REC-SVG-20010904/DTD/svg10.dtd" [
<!ATTLIST g
xmlns:kvg CDATA #FIXED "http://kanjivg.tagaini.net"
kvg:element CDATA #IMPLIED
kvg:variant CDATA #IMPLIED
kvg:partial CDATA #IMPLIED
kvg:original CDATA #IMPLIED
kvg:part CDATA #IMPLIED
kvg:number CDATA #IMPLIED
kvg:tradForm CDATA #IMPLIED
kvg:radicalForm CDATA #IMPLIED
kvg:position CDATA #IMPLIED
kvg:radical CDATA #IMPLIED
kvg:phon CDATA #IMPLIED >
<!ATTLIST path
xmlns:kvg CDATA #FIXED "http://kanjivg.tagaini.net"
kvg:type CDATA #IMPLIED >
]>
<svg xmlns="http://www.w3.org/2000/svg" width="109" height="109" viewBox="0 0 109 109">
<g id="kvg:StrokePaths_08b01-Kaisho" style="fill:none;stroke:#000000;stroke-width:3;stroke-linecap:round;stroke-linejoin:round;">
<g id="kvg:08b01-Kaisho" kvg:element="謁">
	<g id="kvg:08b01-Kaisho-g1" kvg:element="言" kvg:position="left" kvg:radical="general">
		<path id="kvg:08b01-Kaisho-s1" kvg:type="㇔" d="M25.55,14.5c2.34,1.37,6.04,5.62,6.63,7.75"/>
		<path id="kvg:08b01-Kaisho-s2" kvg:type="㇐" d="M13.62,32.58c0.71,0.23,3.4,0.27,4.1,0.23c8.73-0.42,16.78-2.06,22.83-2.87c1.17-0.16,2.45-0.39,3.04-0.27"/>
		<path id="kvg:08b01-Kaisho-s3" kvg:type="㇐" d="M19.68,46.06c0.43,0.12,3.04,0.13,3.47,0.12c4.44-0.14,8.86-1.93,13.34-2.55c0.7-0.1,2.68,0.06,3.04,0.12"/>
		<path id="kvg:08b01-Kaisho-s4" kvg:type="㇐" d="M20.3,58.33c0.38,0.12,2.71,0.13,3.1,0.12c3.97-0.13,9.43-2.11,13.33-2.09c0.63,0,3.29,0.06,3.6,0.11"/>
		<g id="kvg:08b01-Kaisho-g2" kvg:element="口">
			<path id="kvg:08b01-Kaisho-s5" kvg:type="㇑" d="M19.01,70.28c0.35,0.34,0.75,1.08,0.86,1.53c1,3.95,2.22,12.65,3.23,18.44"/>
			<path id="kvg:08b01-Kaisho-s6" kvg:type="㇕b" d="M20.3,71.65c6.48-0.83,12.46-2.44,18.44-3.29c1.5-0.21,2.41,0.97,2.19,1.93c-0.89,3.99-1.22,8.18-2.81,14.81"/>
			<path id="kvg:08b01-Kaisho-s7" kvg:type="㇐b" d="M23.38,87.77c4.83-0.51,9.61-0.91,16.25-1.7"/>
		</g>
	</g>
	<g id="kvg:08b01-Kaisho-g3" kvg:position="right">
		<g id="kvg:08b01-Kaisho-g4" kvg:position="top">
			<g id="kvg:08b01-Kaisho-g5" kvg:element="曷" kvg:variant="true">
				<g id="kvg:08b01-Kaisho-g6" kvg:element="日">
					<path id="kvg:08b01-Kaisho-s8" kvg:type="㇑" d="M49.5,15.27c0.46,0.62,0.92,1.92,0.92,2.74c0.58,4.49,2.37,22.04,2.37,22.46c0,0.43,0.13,0.43,0.26,1.28"/>
					<path id="kvg:08b01-Kaisho-s9" kvg:type="㇕a" d="M51.19,16.37c4.31-0.62,25.85-3.49,28.21-3.62c1.97-0.1,3.24,1.64,3.09,2.24C81.5,23.5,80,31.75,78.71,40.6"/>
					<path id="kvg:08b01-Kaisho-s10" kvg:type="㇐a" d="M52.08,27.97c4.78-0.44,9.54-1.19,14.29-1.82c1.43-0.19,2.86-0.38,4.21-0.55"/>
					<path id="kvg:08b01-Kaisho-s11" kvg:type="㇐a" d="M53.94,39.86c6.06-0.46,16.31-1.68,23.85-2.07"/>
				</g>
			</g>
			<g id="kvg:08b01-Kaisho-g7" kvg:element="匂" kvg:position="bottom">
				<g id="kvg:08b01-Kaisho-g8" kvg:element="勹">
					<g id="kvg:08b01-Kaisho-g9" kvg:element="丿">
						<path id="kvg:08b01-Kaisho-s12" kvg:type="㇒" d="M57.85,43.25c0.04,0.51,0.2,1.35-0.09,2.04c-2.18,5.21-7.12,12.86-15.41,19.53"/>
					</g>
					<path id="kvg:08b01-Kaisho-s13" kvg:type="㇆" d="M57.45,51.85c0.85,0.51,2.04,0.68,3.4,0.34c1.36-0.34,24.71-3.89,28.11-4.06c3.4-0.17,3.7,0.31,3.57,3.91C92.25,59.75,90,82.5,81.66,95.57c-1.98,3.1-3.43,1.28-5.44-0.85"/>
				</g>
				<g id="kvg:08b01-Kaisho-g10" kvg:element="人">
					<g id="kvg:08b01-Kaisho-g11" kvg:element="匕">
						<path id="kvg:08b01-Kaisho-s14" kvg:type="㇒" d="M73.82,61.11c0.16,0.21,0.26,0.83-0.15,1.15c-2.69,2.1-10.86,6.67-20.6,9.67"/>
						<path id="kvg:08b01-Kaisho-s15" kvg:type="㇟" d="M50.18,62.55c0.78,0.81,1.09,1.32,1.09,2.43c0,2.67,0.14,9.31,0.14,11.92c0,6.72,7.23,5.67,12.97,5.67c10.38,0,11.11-1.98,11.11-6.81"/>
					</g>
				</g>
			</g>
		</g>
	</g>
</g>
</g>
<g id="kvg:StrokeNumbers_08b01-Kaisho" style="font-size:8;fill:#808080">
	<text transform="matrix(1 0 0 1 18.50 14.50)">1</text>
	<text transform="matrix(1 0 0 1 6.75 33.05)">2</text>
	<text transform="matrix(1 0 0 1 12.75 46.50)">3</text>
	<text transform="matrix(1 0 0 1 12.75 59.90)">4</text>
	<text transform="matrix(1 0 0 1 12.75 77.83)">5</text>
	<text transform="matrix(1 0 0 1 22.50 68.50)">6</text>
	<text transform="matrix(1 0 0 1 26.50 84.05)">7</text>
	<text transform="matrix(1 0 0 1 43.50 23.50)">8</text>
	<text transform="matrix(1 0 0 1 53.25 12.13)">9</text>
	<text transform="matrix(1 0 0 1 55.50 24.05)">10</text>
	<text transform="matrix(1 0 0 1 55.76 37.48)">11</text>
	<text transform="matrix(1 0 0 1 44.25 50.91)">12</text>
	<text transform="matrix(1 0 0 1 63.50 48.13)">13</text>
	<text transform="matrix(1 0 0 1 62.50 61.55)">14</text>
	<text transform="matrix(1 0 0 1 53.50 64.48)">15</text>
</g>
</svg>
