<?xml version="1.0" encoding="UTF-8"?>
<!--
Copyright (C) 2009/2010/2011 Ulrich Apel.
This work is distributed under the conditions of the Creative Commons 
Attribution-Share Alike 3.0 Licence. This means you are free:
* to Share - to copy, distribute and transmit the work
* to Remix - to adapt the work

Under the following conditions:
* Attribution. You must attribute the work by stating your use of KanjiVG in
  your own copyright header and linking to KanjiVG's website
  (http://kanjivg.tagaini.net)
* Share Alike. If you alter, transform, or build upon this work, you may
  distribute the resulting work only under the same or similar license to this
  one.

See http://creativecommons.org/licenses/by-sa/3.0/ for more details.
-->
<!DOCTYPE svg PUBLIC "-//W3C//DTD SVG 1.0//EN" "http://www.w3.org/TR/2001/REC-SVG-20010904/DTD/svg10.dtd" [
<!ATTLIST g
xmlns:kvg CDATA #FIXED "http://kanjivg.tagaini.net"
kvg:element CDATA #IMPLIED
kvg:variant CDATA #IMPLIED
kvg:partial CDATA #IMPLIED
kvg:original CDATA #IMPLIED
kvg:part CDATA #IMPLIED
kvg:number CDATA #IMPLIED
kvg:tradForm CDATA #IMPLIED
kvg:radicalForm CDATA #IMPLIED
kvg:position CDATA #IMPLIED
kvg:radical CDATA #IMPLIED
kvg:phon CDATA #IMPLIED >
<!ATTLIST path
xmlns:kvg CDATA #FIXED "http://kanjivg.tagaini.net"
kvg:type CDATA #IMPLIED >
]>
<svg xmlns="http://www.w3.org/2000/svg" width="109" height="109" viewBox="0 0 109 109">
<g id="kvg:StrokePaths_08b72" style="fill:none;stroke:#000000;stroke-width:3;stroke-linecap:round;stroke-linejoin:round;">
<g id="kvg:08b72" kvg:element="譲">
	<g id="kvg:08b72-g1" kvg:element="言" kvg:position="left" kvg:radical="general">
		<path id="kvg:08b72-s1" kvg:type="㇔" d="M23.88,14.5c2.76,1.46,7.12,5.98,7.81,8.25"/>
		<path id="kvg:08b72-s2" kvg:type="㇐" d="M13.12,32.33c1.61,0.53,3.72,0.27,5.39,0.16c8.06-0.52,13.37-1.36,20.55-2.05c1.18-0.11,2.95,0.11,3.54,0.23"/>
		<path id="kvg:08b72-s3" kvg:type="㇐" d="M17.68,45.81c1.63,0.46,3.04,0.4,4.7,0.18c4.09-0.55,8.11-1.31,12.11-1.86c1.48-0.2,2.57-0.38,4.04-0.13"/>
		<path id="kvg:08b72-s4" kvg:type="㇐" d="M17.8,58.83c1.18,0.36,2.86,0.16,4.08,0.06c3.69-0.31,8.51-1.33,12.37-1.9c1.26-0.19,2.82-0.5,4.08-0.27"/>
		<g id="kvg:08b72-g2" kvg:element="口">
			<path id="kvg:08b72-s5" kvg:type="㇑" d="M18.26,71.4c0.76,0.71,1.1,1.86,1.25,2.84c0.74,4.88,1.33,9.11,1.93,14.73c0.14,1.26,0.27,2.52,0.42,3.78"/>
			<path id="kvg:08b72-s6" kvg:type="㇕b" d="M20.19,72.87c4.31-0.67,8.26-1.63,13.83-2.47c3.3-0.5,4.81-0.01,4.01,3.48c-1.02,4.48-1.92,8.81-2.98,14.33"/>
			<path id="kvg:08b72-s7" kvg:type="㇐b" d="M22.92,90.8c4.39-0.44,5.9-0.81,10.88-1.39c1.12-0.13,2.45-0.28,3.68-0.17"/>
		</g>
	</g>
	<g id="kvg:08b72-g3" kvg:element="襄" kvg:variant="true" kvg:position="right" kvg:phon="襄V">
		<g id="kvg:08b72-g4" kvg:element="六" kvg:variant="true">
			<g id="kvg:08b72-g5" kvg:element="衣" kvg:part="1">
				<g id="kvg:08b72-g6" kvg:element="亠" kvg:position="top">
					<path id="kvg:08b72-s8" kvg:type="㇑a" d="M64.39,11.25c0.93,0.93,1.35,1.88,1.35,3.34c0,2.77-0.09,3.91-0.09,6.43"/>
					<path id="kvg:08b72-s9" kvg:type="㇐" d="M46.12,23.85c2.32,0.46,4.79,0.22,7.15-0.07c8.31-1.01,21.49-2.78,30.49-3.48c2.18-0.17,4.62-0.42,6.63-0.03"/>
				</g>
			</g>
			<g id="kvg:08b72-g7" kvg:position="left">
				<g id="kvg:08b72-g8" kvg:element="八">
					<g id="kvg:08b72-g9" kvg:element="口" kvg:variant="true">
						<path id="kvg:08b72-s10" kvg:type="㇒" d="M57.77,27.14c0.08,0.67-0.04,1.29-0.37,1.86c-1.22,2.52-4.97,6.87-10.1,10.21"/>
					</g>
				</g>
				<g id="kvg:08b72-g10" kvg:element="口" kvg:variant="true" kvg:position="right">
					<path id="kvg:08b72-s11" kvg:type="㇔" d="M75.64,26.33c5,1.26,12.92,5.18,14.17,7.13"/>
				</g>
			</g>
		</g>
		<g id="kvg:08b72-g11" kvg:element="三" kvg:part="1">
			<g id="kvg:08b72-g12" kvg:element="一" kvg:position="top">
				<path id="kvg:08b72-s12" kvg:type="㇐" d="M52.25,42.77c1.74,0.71,4.33,0.54,6.13,0.36c6.19-0.62,15.87-1.9,22.38-2.58c1.6-0.17,2.93-0.29,4.49,0.09"/>
			</g>
		</g>
		<path id="kvg:08b72-s13" kvg:type="㇑a" d="M59.37,37.5c0.94,0.94,1.21,2.38,1.21,4c0,5.25,0.03,13.5,0.03,20.75"/>
		<path id="kvg:08b72-s14" kvg:type="㇑a" d="M75.87,33.25c0.88,1.5,1.13,2.47,0.96,4C76.12,43.62,75.75,54.12,75,61"/>
		<g id="kvg:08b72-g13" kvg:element="三" kvg:part="1" kvg:position="bottom">
			<g id="kvg:08b72-g14" kvg:element="一">
				<path id="kvg:08b72-s15" kvg:type="㇐" d="M50,53.27c1.95,0.79,4.35,0.54,6.38,0.35c6.88-0.64,20.03-2.12,26.99-2.85c1.46-0.15,2.7-0.23,4.12,0.12"/>
			</g>
			<g id="kvg:08b72-g15" kvg:element="一">
				<path id="kvg:08b72-s16" kvg:type="㇐" d="M45.25,63.89c2.62,0.61,4.87,0.33,7.01,0.17c9.19-0.69,28.53-2.69,36.36-3.12c2-0.11,4.16-0.16,6.13,0.32"/>
			</g>
		</g>
		<g id="kvg:08b72-g16" kvg:element="衣" kvg:part="2" kvg:position="bottom">
			<path id="kvg:08b72-s17" kvg:type="㇒" d="M63.27,65.39c0.06,0.47,0,1.25-0.37,1.89c-2.36,4.11-7.78,9.97-20.15,17.58"/>
			<path id="kvg:08b72-s18" kvg:type="㇙" d="M56.59,78.2c0.73,0.73,1.16,1.93,1.16,3.31c0,7.77,0.04,11.91,0.04,13.22s0.78,2.06,1.77,1.08c0.99-0.99,10.25-8.29,11.57-9.27"/>
			<path id="kvg:08b72-s19" kvg:type="㇒" d="M82.9,67.44c0.02,0.23-0.01,1.09-0.14,1.39c-0.86,1.87-3.32,4.78-7.72,8.49"/>
			<path id="kvg:08b72-s20" kvg:type="㇏" d="M68.5,73.25c1.16,0.66,13.05,11.44,19.32,16.68c2.01,1.68,3.3,2.94,6.48,4.23"/>
		</g>
	</g>
</g>
</g>
<g id="kvg:StrokeNumbers_08b72" style="font-size:8;fill:#808080">
	<text transform="matrix(1 0 0 1 16.50 15.50)">1</text>
	<text transform="matrix(1 0 0 1 5.50 33.05)">2</text>
	<text transform="matrix(1 0 0 1 10.50 46.48)">3</text>
	<text transform="matrix(1 0 0 1 9.75 60.50)">4</text>
	<text transform="matrix(1 0 0 1 11.50 78.50)">5</text>
	<text transform="matrix(1 0 0 1 21.50 69.13)">6</text>
	<text transform="matrix(1 0 0 1 24.75 87.05)">7</text>
	<text transform="matrix(1 0 0 1 54.50 12.50)">8</text>
	<text transform="matrix(1 0 0 1 44.50 21.50)">9</text>
	<text transform="matrix(1 0 0 1 45.50 32.50)">10</text>
	<text transform="matrix(1 0 0 1 67.50 29.50)">11</text>
	<text transform="matrix(1 0 0 1 42.50 46.55)">12</text>
	<text transform="matrix(1 0 0 1 51.50 41.50)">13</text>
	<text transform="matrix(1 0 0 1 65.93 37.50)">14</text>
	<text transform="matrix(1 0 0 1 40.43 54.65)">15</text>
	<text transform="matrix(1 0 0 1 42.50 61.50)">16</text>
	<text transform="matrix(1 0 0 1 49.50 73.50)">17</text>
	<text transform="matrix(1 0 0 1 48.50 88.50)">18</text>
	<text transform="matrix(1 0 0 1 72.50 70.50)">19</text>
	<text transform="matrix(1 0 0 1 62.25 78.50)">20</text>
</g>
</svg>
