<?xml version="1.0" encoding="UTF-8"?>
<!--
Copyright (C) 2009/2010/2011 Ulrich Apel.
This work is distributed under the conditions of the Creative Commons 
Attribution-Share Alike 3.0 Licence. This means you are free:
* to Share - to copy, distribute and transmit the work
* to Remix - to adapt the work

Under the following conditions:
* Attribution. You must attribute the work by stating your use of KanjiVG in
  your own copyright header and linking to KanjiVG's website
  (http://kanjivg.tagaini.net)
* Share Alike. If you alter, transform, or build upon this work, you may
  distribute the resulting work only under the same or similar license to this
  one.

See http://creativecommons.org/licenses/by-sa/3.0/ for more details.
-->
<!DOCTYPE svg PUBLIC "-//W3C//DTD SVG 1.0//EN" "http://www.w3.org/TR/2001/REC-SVG-20010904/DTD/svg10.dtd" [
<!ATTLIST g
xmlns:kvg CDATA #FIXED "http://kanjivg.tagaini.net"
kvg:element CDATA #IMPLIED
kvg:variant CDATA #IMPLIED
kvg:partial CDATA #IMPLIED
kvg:original CDATA #IMPLIED
kvg:part CDATA #IMPLIED
kvg:number CDATA #IMPLIED
kvg:tradForm CDATA #IMPLIED
kvg:radicalForm CDATA #IMPLIED
kvg:position CDATA #IMPLIED
kvg:radical CDATA #IMPLIED
kvg:phon CDATA #IMPLIED >
<!ATTLIST path
xmlns:kvg CDATA #FIXED "http://kanjivg.tagaini.net"
kvg:type CDATA #IMPLIED >
]>
<svg xmlns="http://www.w3.org/2000/svg" width="109" height="109" viewBox="0 0 109 109">
<g id="kvg:StrokePaths_08b96" style="fill:none;stroke:#000000;stroke-width:3;stroke-linecap:round;stroke-linejoin:round;">
<g id="kvg:08b96" kvg:element="讖">
	<g id="kvg:08b96-g1" kvg:element="言" kvg:position="left" kvg:radical="general">
		<path id="kvg:08b96-s1" kvg:type="㇔" d="M16.55,16.5c3.22,1.72,8.32,7.07,9.13,9.75"/>
		<path id="kvg:08b96-s2" kvg:type="㇐" d="M8.62,34.08c0.71,0.23,3.4,0.27,4.1,0.23c8.73-0.42,13.03-2.06,18.83-2.87c1.17-0.16,2.45,0.11,3.04,0.23"/>
		<path id="kvg:08b96-s3" kvg:type="㇐" d="M12.43,45.36c0.38,0.11,2.71,0.12,3.09,0.11c3.96-0.13,8.4-1.31,12.4-1.89c0.63-0.09,2.78-0.45,3.1-0.39"/>
		<path id="kvg:08b96-s4" kvg:type="㇐" d="M13.8,57.33c0.38,0.12,2.71,0.13,3.1,0.12c3.97-0.13,7.61-0.95,11.83-1.59c0.63-0.1,2.79,0.06,3.1,0.11"/>
		<g id="kvg:08b96-g2" kvg:element="口">
			<path id="kvg:08b96-s5" kvg:type="㇑" d="M13.51,70.88c0.3,0.36,0.63,1.14,0.73,1.62c0.84,4.16,1.51,14.25,2.14,22"/>
			<path id="kvg:08b96-s6" kvg:type="㇕b" d="M14.6,72.83c5.47-0.88,10.94-3.07,15.99-3.96c1.27-0.22,2.03,1.03,1.85,2.04c-0.75,4.21-2.03,13.13-3.37,20.12"/>
			<path id="kvg:08b96-s7" kvg:type="㇐b" d="M16.62,92.83c4.08-0.54,9.61-0.96,15.22-1.79"/>
		</g>
	</g>
	<g id="kvg:08b96-g3" kvg:position="right">
		<g id="kvg:08b96-g4" kvg:element="从">
			<g id="kvg:08b96-g5" kvg:element="人" kvg:position="left">
				<path id="kvg:08b96-s8" kvg:type="㇒" d="M46.11,14.37c0.17,0.31,0.23,0.94,0.12,1.57c-0.98,5.56-3.73,14.56-8.26,20.49"/>
				<path id="kvg:08b96-s9" kvg:type="㇏" d="M45.51,26.7c1.91,1.03,4.36,3.77,5.29,6.37"/>
			</g>
			<g id="kvg:08b96-g6" kvg:element="人" kvg:position="right">
				<path id="kvg:08b96-s10" kvg:type="㇒" d="M62.75,14.32c0.25,0.33,0.28,1.02,0.17,1.7C62,22,58.5,31,52.92,36.63"/>
				<path id="kvg:08b96-s11" kvg:type="㇏" d="M61.71,24.66c2.49,1.41,5.67,5.15,6.88,8.7"/>
			</g>
		</g>
		<g id="kvg:08b96-g7" kvg:element="戈" kvg:part="1">
			<g id="kvg:08b96-g8" kvg:element="弋" kvg:part="1">
				<path id="kvg:08b96-s12" kvg:type="㇐" d="M36.12,43.15c1.5,0.59,4.24,0.69,5.75,0.59c11.7-0.8,33.62-4.39,47.14-5.19c2.5-0.15,4,0.28,5.25,0.58"/>
			</g>
		</g>
		<g id="kvg:08b96-g9" kvg:element="韭">
			<g id="kvg:08b96-g10" kvg:element="非">
				<g id="kvg:08b96-g11" kvg:position="left">
					<path id="kvg:08b96-s13" kvg:type="㇒" d="M49.22,45.28c0.52,0.3,0.83,1.36,0.93,1.97c0.1,0.61,0,38.33-0.1,42.11"/>
					<path id="kvg:08b96-s14" kvg:type="㇐c" d="M57.66,44.07c0.52,0.3,0.83,1.36,0.93,1.97s0,36.32-0.1,40.1"/>
					<path id="kvg:08b96-s15" kvg:type="㇐c" d="M37.1,55.27c0.45,0.23,1.26,0.23,1.71,0.23c3.64-0.01,6.44-1.25,9.73-1.62c0.74-0.08,1.09-0.08,1.56-0.08"/>
					<path id="kvg:08b96-s16" kvg:type="㇀" d="M37.25,66.69c0.45,0.23,1.26,0.23,1.71,0.23c3.64-0.01,5.79-0.67,9.47-1.42c0.73-0.15,1.09-0.08,1.56-0.08"/>
				</g>
				<g id="kvg:08b96-g12" kvg:position="right">
					<path id="kvg:08b96-s17" kvg:type="㇑" d="M37.03,77.12c0.45,0.23,1.26,0.23,1.71,0.23c3.64-0.01,6.14-0.2,9.69-1.02c0.73-0.17,1.09-0.08,1.56-0.08"/>
					<path id="kvg:08b96-s18" kvg:type="㇐b" d="M58.8,52.08c0.59,0,0.55-0.01,1-0.07c2.85-0.4,6.61-1.07,9.33-1.44c0.74-0.1,1.19,0.11,1.56,0.23"/>
					<path id="kvg:08b96-s19" kvg:type="㇐b" d="M58.68,63.6c0.59,0,0.55-0.01,1-0.07c2.85-0.4,7.85-1.57,10.57-1.94c0.74-0.1,1.19,0.11,1.56,0.22"/>
					<path id="kvg:08b96-s20" kvg:type="㇐b" d="M58.8,74.96c0.59,0,0.55-0.01,1-0.07c2.85-0.4,7.32-1.07,10.04-1.44c0.74-0.1,1.19,0.11,1.56,0.22"/>
				</g>
			</g>
			<g id="kvg:08b96-g13" kvg:element="一">
				<path id="kvg:08b96-s21" kvg:type="㇐" d="M37.63,93c0.97,1.12,3.33,0.69,4.07,0.36c10.53-4.73,19.7-7.88,29.62-12.25"/>
			</g>
		</g>
		<g id="kvg:08b96-g14" kvg:element="戈" kvg:part="2">
			<g id="kvg:08b96-g15" kvg:element="弋" kvg:part="2">
				<path id="kvg:08b96-s22" kvg:type="㇂" d="M74.21,12c0.96,1.76,1.12,2.25,1.32,6.04C77.21,49.73,81.5,80,95.1,92.49c3.94,3.62,3.24,0.75,2.76-7.04"/>
			</g>
			<g id="kvg:08b96-g16" kvg:element="丿">
				<path id="kvg:08b96-s23" kvg:type="㇒" d="M92.44,46.98c0.08,1.11,0.16,2.86-0.15,4.46c-1.85,9.4-11.54,32.81-26.46,44.18"/>
			</g>
			<g id="kvg:08b96-g17" kvg:element="弋" kvg:part="3">
				<g id="kvg:08b96-g18" kvg:element="丶">
					<path id="kvg:08b96-s24" kvg:type="㇔" d="M82.52,17.73c2.74,2.49,7.13,8.19,8.42,12.47"/>
				</g>
			</g>
		</g>
	</g>
</g>
</g>
<g id="kvg:StrokeNumbers_08b96" style="font-size:8;fill:#808080">
	<text transform="matrix(1 0 0 1 9.50 16.50)">1</text>
	<text transform="matrix(1 0 0 1 1.50 34.50)">2</text>
	<text transform="matrix(1 0 0 1 5.50 46.50)">3</text>
	<text transform="matrix(1 0 0 1 6.50 57.50)">4</text>
	<text transform="matrix(1 0 0 1 6.50 77.50)">5</text>
	<text transform="matrix(1 0 0 1 16.50 69.50)">6</text>
	<text transform="matrix(1 0 0 1 19.50 89.50)">7</text>
	<text transform="matrix(1 0 0 1 37.50 14.50)">8</text>
	<text transform="matrix(1 0 0 1 48.50 26.03)">9</text>
	<text transform="matrix(1 0 0 1 51.75 13.70)">10</text>
	<text transform="matrix(1 0 0 1 63.50 25.38)">11</text>
	<text transform="matrix(1 0 0 1 40.25 40.55)">12</text>
	<text transform="matrix(1 0 0 1 41.50 51.98)">13</text>
	<text transform="matrix(1 0 0 1 34.50 52.50)">14</text>
	<text transform="matrix(1 0 0 1 35.50 63.50)">15</text>
	<text transform="matrix(1 0 0 1 35.50 74.50)">16</text>
	<text transform="matrix(1 0 0 1 51.50 50.50)">17</text>
	<text transform="matrix(1 0 0 1 61.26 49.50)">18</text>
	<text transform="matrix(1 0 0 1 61.25 60.28)">19</text>
	<text transform="matrix(1 0 0 1 80.50 15.63)">20</text>
	<text transform="matrix(1 0 0 1 35.50 88.38)">21</text>
	<text transform="matrix(1 0 0 1 67.50 9.13)">22</text>
	<text transform="matrix(1 0 0 1 82.25 48.50)">23</text>
	<text transform="matrix(1 0 0 1 61.25 71.50)">24</text>
</g>
</svg>
