<?xml version="1.0" encoding="UTF-8"?>
<!--
Copyright (C) 2009/2010/2011 Ulrich Apel.
This work is distributed under the conditions of the Creative Commons 
Attribution-Share Alike 3.0 Licence. This means you are free:
* to Share - to copy, distribute and transmit the work
* to Remix - to adapt the work

Under the following conditions:
* Attribution. You must attribute the work by stating your use of KanjiVG in
  your own copyright header and linking to KanjiVG's website
  (http://kanjivg.tagaini.net)
* Share Alike. If you alter, transform, or build upon this work, you may
  distribute the resulting work only under the same or similar license to this
  one.

See http://creativecommons.org/licenses/by-sa/3.0/ for more details.
-->
<!DOCTYPE svg PUBLIC "-//W3C//DTD SVG 1.0//EN" "http://www.w3.org/TR/2001/REC-SVG-20010904/DTD/svg10.dtd" [
<!ATTLIST g
xmlns:kvg CDATA #FIXED "http://kanjivg.tagaini.net"
kvg:element CDATA #IMPLIED
kvg:variant CDATA #IMPLIED
kvg:partial CDATA #IMPLIED
kvg:original CDATA #IMPLIED
kvg:part CDATA #IMPLIED
kvg:number CDATA #IMPLIED
kvg:tradForm CDATA #IMPLIED
kvg:radicalForm CDATA #IMPLIED
kvg:position CDATA #IMPLIED
kvg:radical CDATA #IMPLIED
kvg:phon CDATA #IMPLIED >
<!ATTLIST path
xmlns:kvg CDATA #FIXED "http://kanjivg.tagaini.net"
kvg:type CDATA #IMPLIED >
]>
<svg xmlns="http://www.w3.org/2000/svg" width="109" height="109" viewBox="0 0 109 109">
<g id="kvg:StrokePaths_08c61" style="fill:none;stroke:#000000;stroke-width:3;stroke-linecap:round;stroke-linejoin:round;">
<g id="kvg:08c61" kvg:element="象">
	<g id="kvg:08c61-g1" kvg:element="𠂊" kvg:variant="true" kvg:original="勹" kvg:position="top">
		<path id="kvg:08c61-s1" kvg:type="㇒" d="M45,10.88c0.06,0.43,0.12,1.12-0.11,1.74C43.52,16.28,35.71,24.33,25,29.25"/>
		<path id="kvg:08c61-s2" kvg:type="㇇" d="M45.66,15c0.96,0.13,1.67,0.17,2.98,0.05c4.21-0.4,11.06-1.32,14.03-1.9c2.7-0.53,3.48,0.96,2.01,2.74c-3.81,4.61-6.7,9.42-9.93,13.86"/>
	</g>
	<g id="kvg:08c61-g2" kvg:position="bottom">
		<path id="kvg:08c61-s3" kvg:type="㇑" d="M25.58,34.83c0.92,0.42,1.63,1.18,1.85,2.02c1.13,4.32,1.64,6.45,2.44,9.43c0.31,1.17,0.67,2.48,1.13,4.11"/>
		<path id="kvg:08c61-s4" kvg:type="㇕a" d="M28.42,35.91c10.71-1.79,30.73-4.17,43.09-5.54c3.7-0.41,6.63-0.18,5.45,4.39c-0.59,2.29-1.45,4.32-2.81,6.94c-0.48,0.93-1.03,1.93-1.65,3.04"/>
		<path id="kvg:08c61-s5" kvg:type="㇑a" d="M51.24,34.58c0.72,0.72,0.9,1.54,0.9,2.58c0,1.96-0.01,4.84-0.01,6.59"/>
		<g id="kvg:08c61-g3" kvg:element="豕" kvg:radical="general">
			<path id="kvg:08c61-s6" kvg:type="㇐a" d="M31.46,47.27c9.04-1.15,31.29-3.77,40.75-4.21"/>
			<path id="kvg:08c61-s7" kvg:type="㇒" d="M48.4,47.68c0.1,0.4-0.17,1.39-0.69,1.86c-3.46,3.09-12.34,8.97-24.12,12.49"/>
			<path id="kvg:08c61-s8" kvg:type="㇕v" d="M46.5,53.81C55.88,61,62.25,78,53.83,93.46c-2.19,4.03-5.96,2.29-9.39-0.46"/>
			<path id="kvg:08c61-s9" kvg:type="㇒" d="M48.25,58.31c0.09,0.46,0.18,1.19-0.17,1.85c-2,3.74-13.1,11.77-28.47,17.05"/>
			<path id="kvg:08c61-s10" kvg:type="㇒" d="M53.49,67.48c0.11,0.59-0.13,1.63-0.72,2.39c-4.15,5.38-16.53,15-38.03,22.88"/>
			<path id="kvg:08c61-s11" kvg:type="㇒" d="M77.5,50c0.12,0.81-0.22,1.9-0.64,2.29c-2.61,2.46-9,7.06-19.7,10.77"/>
			<path id="kvg:08c61-s12" kvg:type="㇏" d="M56.75,65.23C62,69.12,77.72,80.42,85.33,85.6c2.37,1.62,4.82,2.87,7.29,3.52"/>
		</g>
	</g>
</g>
</g>
<g id="kvg:StrokeNumbers_08c61" style="font-size:8;fill:#808080">
	<text transform="matrix(1 0 0 1 36.75 7.63)">1</text>
	<text transform="matrix(1 0 0 1 50.25 10.63)">2</text>
	<text transform="matrix(1 0 0 1 20.25 45.13)">3</text>
	<text transform="matrix(1 0 0 1 31.99 32.91)">4</text>
	<text transform="matrix(1 0 0 1 56.25 40.63)">5</text>
	<text transform="matrix(1 0 0 1 35.25 45.13)">6</text>
	<text transform="matrix(1 0 0 1 32.25 57.13)">7</text>
	<text transform="matrix(1 0 0 1 54.75 54.13)">8</text>
	<text transform="matrix(1 0 0 1 33.75 66.13)">9</text>
	<text transform="matrix(1 0 0 1 30.75 79.63)">10</text>
	<text transform="matrix(1 0 0 1 83.25 49.63)">11</text>
	<text transform="matrix(1 0 0 1 66.75 70.63)">12</text>
</g>
</svg>
