<?xml version="1.0" encoding="UTF-8"?>
<!--
Copyright (C) 2009/2010/2011 Ulrich Apel.
This work is distributed under the conditions of the Creative Commons 
Attribution-Share Alike 3.0 Licence. This means you are free:
* to Share - to copy, distribute and transmit the work
* to Remix - to adapt the work

Under the following conditions:
* Attribution. You must attribute the work by stating your use of KanjiVG in
  your own copyright header and linking to KanjiVG's website
  (http://kanjivg.tagaini.net)
* Share Alike. If you alter, transform, or build upon this work, you may
  distribute the resulting work only under the same or similar license to this
  one.

See http://creativecommons.org/licenses/by-sa/3.0/ for more details.
-->
<!DOCTYPE svg PUBLIC "-//W3C//DTD SVG 1.0//EN" "http://www.w3.org/TR/2001/REC-SVG-20010904/DTD/svg10.dtd" [
<!ATTLIST g
xmlns:kvg CDATA #FIXED "http://kanjivg.tagaini.net"
kvg:element CDATA #IMPLIED
kvg:variant CDATA #IMPLIED
kvg:partial CDATA #IMPLIED
kvg:original CDATA #IMPLIED
kvg:part CDATA #IMPLIED
kvg:number CDATA #IMPLIED
kvg:tradForm CDATA #IMPLIED
kvg:radicalForm CDATA #IMPLIED
kvg:position CDATA #IMPLIED
kvg:radical CDATA #IMPLIED
kvg:phon CDATA #IMPLIED >
<!ATTLIST path
xmlns:kvg CDATA #FIXED "http://kanjivg.tagaini.net"
kvg:type CDATA #IMPLIED >
]>
<svg xmlns="http://www.w3.org/2000/svg" width="109" height="109" viewBox="0 0 109 109">
<g id="kvg:StrokePaths_08c7a" style="fill:none;stroke:#000000;stroke-width:3;stroke-linecap:round;stroke-linejoin:round;">
<g id="kvg:08c7a" kvg:element="豺">
	<g id="kvg:08c7a-g1" kvg:element="豸" kvg:position="left" kvg:radical="general">
		<path id="kvg:08c7a-s1" kvg:type="㇒" d="M39.89,12.5c0.07,0.46,0.28,1.34-0.14,1.87c-5.28,6.56-13.08,12.58-26.84,17.86"/>
		<path id="kvg:08c7a-s2" kvg:type="㇔" d="M15.31,34.98c2.9,2.06,7.48,8.47,8.2,11.67"/>
		<path id="kvg:08c7a-s3" kvg:type="㇔" d="M28.74,27.67c2.73,1.57,7.04,6.45,7.72,8.89"/>
		<path id="kvg:08c7a-s4" kvg:type="㇒" d="M46.66,28.51c0.09,0.63,0.44,1.88-0.18,2.52C38,39.75,28.5,47.25,12.86,55.11"/>
		<path id="kvg:08c7a-s5" kvg:type="㇕v" d="M32.94,45.42c9.56,7.08,14.83,29.39,7.52,47.43c-4.26,10.52-9.01,0.96-10.11,0.05"/>
		<path id="kvg:08c7a-s6" kvg:type="㇒" d="M36.1,50.17c0.07,0.49,0.29,1.35-0.14,1.98C33,56.5,23.25,65,10.8,71.16"/>
		<path id="kvg:08c7a-s7" kvg:type="㇒" d="M39.39,62.14c0.07,0.58,0.32,1.57-0.15,2.32c-3.5,5.56-12.99,14.38-26.49,21.73"/>
	</g>
	<g id="kvg:08c7a-g2" kvg:element="才" kvg:position="right">
		<g id="kvg:08c7a-g3" kvg:element="扌" kvg:variant="true" kvg:original="手">
			<path id="kvg:08c7a-s8" kvg:type="㇐" d="M49.75,36c1.1,0,3,0.45,5.16,0.25c8.09-0.75,23.6-2.75,38.52-4c2.16-0.18,2.71-0.25,4.07,0"/>
			<g id="kvg:08c7a-g4" kvg:element="亅">
				<path id="kvg:08c7a-s9" kvg:type="㇚" d="M78.77,11.83c1.23,0.92,2.17,2.49,2.26,5.52c0.4,14.55-0.26,69.16-0.26,74.12c0,12.53-6.71,1-8.21-0.25"/>
			</g>
			<path id="kvg:08c7a-s10" kvg:type="㇒" d="M77.3,41.5c0.08,0.81,0.42,2.2-0.15,3.26C72.25,53.75,65,64,49.62,75.94"/>
		</g>
	</g>
</g>
</g>
<g id="kvg:StrokeNumbers_08c7a" style="font-size:8;fill:#808080">
	<text transform="matrix(1 0 0 1 31.50 12.50)">1</text>
	<text transform="matrix(1 0 0 1 10.50 41.50)">2</text>
	<text transform="matrix(1 0 0 1 24.50 35.85)">3</text>
	<text transform="matrix(1 0 0 1 39.50 27.50)">4</text>
	<text transform="matrix(1 0 0 1 38.50 48.50)">5</text>
	<text transform="matrix(1 0 0 1 27.50 53.50)">6</text>
	<text transform="matrix(1 0 0 1 33.50 65.50)">7</text>
	<text transform="matrix(1 0 0 1 52.50 33.50)">8</text>
	<text transform="matrix(1 0 0 1 69.50 12.50)">9</text>
	<text transform="matrix(1 0 0 1 66.50 44.50)">10</text>
</g>
</svg>
