<?xml version="1.0" encoding="UTF-8"?>
<!--
Copyright (C) 2009/2010/2011 Ulrich Apel.
This work is distributed under the conditions of the Creative Commons 
Attribution-Share Alike 3.0 Licence. This means you are free:
* to Share - to copy, distribute and transmit the work
* to Remix - to adapt the work

Under the following conditions:
* Attribution. You must attribute the work by stating your use of KanjiVG in
  your own copyright header and linking to KanjiVG's website
  (http://kanjivg.tagaini.net)
* Share Alike. If you alter, transform, or build upon this work, you may
  distribute the resulting work only under the same or similar license to this
  one.

See http://creativecommons.org/licenses/by-sa/3.0/ for more details.
-->
<!DOCTYPE svg PUBLIC "-//W3C//DTD SVG 1.0//EN" "http://www.w3.org/TR/2001/REC-SVG-20010904/DTD/svg10.dtd" [
<!ATTLIST g
xmlns:kvg CDATA #FIXED "http://kanjivg.tagaini.net"
kvg:element CDATA #IMPLIED
kvg:variant CDATA #IMPLIED
kvg:partial CDATA #IMPLIED
kvg:original CDATA #IMPLIED
kvg:part CDATA #IMPLIED
kvg:number CDATA #IMPLIED
kvg:tradForm CDATA #IMPLIED
kvg:radicalForm CDATA #IMPLIED
kvg:position CDATA #IMPLIED
kvg:radical CDATA #IMPLIED
kvg:phon CDATA #IMPLIED >
<!ATTLIST path
xmlns:kvg CDATA #FIXED "http://kanjivg.tagaini.net"
kvg:type CDATA #IMPLIED >
]>
<svg xmlns="http://www.w3.org/2000/svg" width="109" height="109" viewBox="0 0 109 109">
<g id="kvg:StrokePaths_08c9d" style="fill:none;stroke:#000000;stroke-width:3;stroke-linecap:round;stroke-linejoin:round;">
<g id="kvg:08c9d" kvg:element="貝" kvg:radical="general">
	<g id="kvg:08c9d-g1" kvg:element="目" kvg:position="top">
		<path id="kvg:08c9d-s1" kvg:type="㇑" d="M31.75,17.8c1.16,1.16,1.68,2.84,1.68,4.63c0,1.49-0.18,33.31-0.18,48.31c0,3.5-0.07,3.62-0.07,6.5"/>
		<path id="kvg:08c9d-s2" kvg:type="㇕a" d="M33.82,19.85c7.3-0.73,30.8-3.48,37.67-4.11c2.94-0.27,4.51,1,4.51,3.66c0,3.09-0.5,32.69-0.74,47.84c-0.08,4.93-0.13,8.28-0.13,8.6"/>
		<path id="kvg:08c9d-s3" kvg:type="㇐a" d="M34.76,38.26c8.99-1.26,33.57-3.64,39.78-3.64"/>
		<path id="kvg:08c9d-s4" kvg:type="㇐a" d="M34.82,55.24c10.93-0.99,27.93-2.99,39.51-3.18"/>
		<path id="kvg:08c9d-s5" kvg:type="㇐a" d="M34.57,73.74C45.5,73,64.12,71.05,74.08,71.05"/>
	</g>
	<g id="kvg:08c9d-g2" kvg:position="bottom">
		<path id="kvg:08c9d-s6" kvg:type="㇒" d="M41.95,80.5c0.55,1.41-0.42,3.3-1.5,4.33C37.17,87.94,28.56,94.07,22,97.75"/>
		<path id="kvg:08c9d-s7" kvg:type="㇔" d="M65.75,80C72.78,84.75,81.08,93.35,83,97.5"/>
	</g>
</g>
</g>
<g id="kvg:StrokeNumbers_08c9d" style="font-size:8;fill:#808080">
	<text transform="matrix(1 0 0 1 25.25 26.63)">1</text>
	<text transform="matrix(1 0 0 1 36.25 15.63)">2</text>
	<text transform="matrix(1 0 0 1 38.75 34.13)">3</text>
	<text transform="matrix(1 0 0 1 39.25 50.63)">4</text>
	<text transform="matrix(1 0 0 1 39.25 70.13)">5</text>
	<text transform="matrix(1 0 0 1 30.25 84.63)">6</text>
	<text transform="matrix(1 0 0 1 57.75 84.13)">7</text>
</g>
</svg>
