<?xml version="1.0" encoding="UTF-8"?>
<!--
Copyright (C) 2009/2010/2011 Ulrich Apel.
This work is distributed under the conditions of the Creative Commons 
Attribution-Share Alike 3.0 Licence. This means you are free:
* to Share - to copy, distribute and transmit the work
* to Remix - to adapt the work

Under the following conditions:
* Attribution. You must attribute the work by stating your use of KanjiVG in
  your own copyright header and linking to KanjiVG's website
  (http://kanjivg.tagaini.net)
* Share Alike. If you alter, transform, or build upon this work, you may
  distribute the resulting work only under the same or similar license to this
  one.

See http://creativecommons.org/licenses/by-sa/3.0/ for more details.
-->
<!DOCTYPE svg PUBLIC "-//W3C//DTD SVG 1.0//EN" "http://www.w3.org/TR/2001/REC-SVG-20010904/DTD/svg10.dtd" [
<!ATTLIST g
xmlns:kvg CDATA #FIXED "http://kanjivg.tagaini.net"
kvg:element CDATA #IMPLIED
kvg:variant CDATA #IMPLIED
kvg:partial CDATA #IMPLIED
kvg:original CDATA #IMPLIED
kvg:part CDATA #IMPLIED
kvg:number CDATA #IMPLIED
kvg:tradForm CDATA #IMPLIED
kvg:radicalForm CDATA #IMPLIED
kvg:position CDATA #IMPLIED
kvg:radical CDATA #IMPLIED
kvg:phon CDATA #IMPLIED >
<!ATTLIST path
xmlns:kvg CDATA #FIXED "http://kanjivg.tagaini.net"
kvg:type CDATA #IMPLIED >
]>
<svg xmlns="http://www.w3.org/2000/svg" width="109" height="109" viewBox="0 0 109 109">
<g id="kvg:StrokePaths_08cb3-Kaisho" style="fill:none;stroke:#000000;stroke-width:3;stroke-linecap:round;stroke-linejoin:round;">
<g id="kvg:08cb3-Kaisho" kvg:element="貳">
	<g id="kvg:08cb3-Kaisho-g1" kvg:element="弍" kvg:part="1">
		<g id="kvg:08cb3-Kaisho-g2" kvg:element="弋" kvg:part="1" kvg:radical="nelson">
			<path id="kvg:08cb3-Kaisho-s1" kvg:type="㇐" d="M12.75,32.2c1.52,0.54,4.31,0.69,5.82,0.54C29,31.75,69,27.75,82.69,26.51c2.52-0.23,4.05,0.26,5.31,0.53"/>
		</g>
		<g id="kvg:08cb3-Kaisho-g3" kvg:element="二">
			<path id="kvg:08cb3-Kaisho-s2" kvg:type="㇐" d="M24.95,41.1c0.99,0.09,2.35,0.4,3.34,0.38c6.04-0.14,8.37-1.22,16.67-1.84c1.64-0.12,2.64,0.04,3.46,0.09"/>
			<path id="kvg:08cb3-Kaisho-s3" kvg:type="㇐" d="M20.5,49.18c1.16,0.29,3.3,0.28,4.46,0.29c6.79,0.04,17.54-1.96,25.47-2.79c1.93-0.2,3.1,0.14,4.07,0.28"/>
		</g>
	</g>
	<g id="kvg:08cb3-Kaisho-g4" kvg:element="貝" kvg:radical="tradit">
		<g id="kvg:08cb3-Kaisho-g5" kvg:element="目" kvg:position="top">
			<path id="kvg:08cb3-Kaisho-s4" kvg:type="㇑" d="M23.11,57.74c0.45,0.88,1.1,1.53,1.1,2.7c0,1.17,0.21,19.71-0.33,24.61"/>
			<path id="kvg:08cb3-Kaisho-s5" kvg:type="㇕a" d="M24.96,58.76c2.53-0.15,21.79-2.02,24.1-2.19c1.92-0.15,2.95,0.81,2.95,1.9c0,2.67-0.57,24.79-0.57,25.67"/>
			<path id="kvg:08cb3-Kaisho-s6" kvg:type="㇐a" d="M24.26,66.6c4.61-0.33,9.21-0.87,13.81-1.31c1.42-0.14,2.83-0.27,4.19-0.4"/>
			<path id="kvg:08cb3-Kaisho-s7" kvg:type="㇐a" d="M24.47,75.18c4.44-0.4,9.87-0.85,14.3-1.23c1.22-0.11,2.45-0.21,3.66-0.3"/>
			<path id="kvg:08cb3-Kaisho-s8" kvg:type="㇐a" d="M24.14,82.75C31.27,82.27,44.9,81,51.4,81"/>
		</g>
		<g id="kvg:08cb3-Kaisho-g6" kvg:position="bottom">
			<path id="kvg:08cb3-Kaisho-s9" kvg:type="㇒" d="M32.28,86.17c0.34,1.05-0.26,2.07-0.92,2.83c-2.02,2.3-7.32,7.21-11.35,9.93"/>
			<path id="kvg:08cb3-Kaisho-s10" kvg:type="㇔" d="M44.81,88.09c4.18,2.62,9.12,7.38,10.26,9.67"/>
		</g>
	</g>
	<g id="kvg:08cb3-Kaisho-g7" kvg:element="弍" kvg:part="2">
		<g id="kvg:08cb3-Kaisho-g8" kvg:element="弋" kvg:part="2" kvg:radical="nelson">
			<path id="kvg:08cb3-Kaisho-s11" kvg:type="㇂" d="M60.5,10.5c1.56,1.87,2.3,2.38,2.54,6.4C65,49.25,70.5,80.5,91.4,96.88c5.83,4.58,6.28-0.2,5.5-8.46"/>
			<g id="kvg:08cb3-Kaisho-g9" kvg:element="丶">
				<path id="kvg:08cb3-Kaisho-s12" kvg:type="㇔" d="M75.25,10.5c3.34,1.95,8.69,6.41,10.25,9.75"/>
			</g>
		</g>
	</g>
</g>
</g>
<g id="kvg:StrokeNumbers_08cb3-Kaisho" style="font-size:8;fill:#808080">
	<text transform="matrix(1 0 0 1 5.50 31.50)">1</text>
	<text transform="matrix(1 0 0 1 18.50 41.50)">2</text>
	<text transform="matrix(1 0 0 1 13.75 50.73)">3</text>
	<text transform="matrix(1 0 0 1 14.75 63.90)">4</text>
	<text transform="matrix(1 0 0 1 28.50 56.58)">5</text>
	<text transform="matrix(1 0 0 1 29.61 64.75)">6</text>
	<text transform="matrix(1 0 0 1 29.67 72.18)">7</text>
	<text transform="matrix(1 0 0 1 29.63 80.60)">8</text>
	<text transform="matrix(1 0 0 1 21.25 93.03)">9</text>
	<text transform="matrix(1 0 0 1 40.50 97.95)">10</text>
	<text transform="matrix(1 0 0 1 50.50 10.50)">11</text>
	<text transform="matrix(1 0 0 1 71.50 7.50)">12</text>
</g>
</svg>
