<?xml version="1.0" encoding="UTF-8"?>
<!--
Copyright (C) 2009/2010/2011 Ulrich Apel.
This work is distributed under the conditions of the Creative Commons 
Attribution-Share Alike 3.0 Licence. This means you are free:
* to Share - to copy, distribute and transmit the work
* to Remix - to adapt the work

Under the following conditions:
* Attribution. You must attribute the work by stating your use of KanjiVG in
  your own copyright header and linking to KanjiVG's website
  (http://kanjivg.tagaini.net)
* Share Alike. If you alter, transform, or build upon this work, you may
  distribute the resulting work only under the same or similar license to this
  one.

See http://creativecommons.org/licenses/by-sa/3.0/ for more details.
-->
<!DOCTYPE svg PUBLIC "-//W3C//DTD SVG 1.0//EN" "http://www.w3.org/TR/2001/REC-SVG-20010904/DTD/svg10.dtd" [
<!ATTLIST g
xmlns:kvg CDATA #FIXED "http://kanjivg.tagaini.net"
kvg:element CDATA #IMPLIED
kvg:variant CDATA #IMPLIED
kvg:partial CDATA #IMPLIED
kvg:original CDATA #IMPLIED
kvg:part CDATA #IMPLIED
kvg:number CDATA #IMPLIED
kvg:tradForm CDATA #IMPLIED
kvg:radicalForm CDATA #IMPLIED
kvg:position CDATA #IMPLIED
kvg:radical CDATA #IMPLIED
kvg:phon CDATA #IMPLIED >
<!ATTLIST path
xmlns:kvg CDATA #FIXED "http://kanjivg.tagaini.net"
kvg:type CDATA #IMPLIED >
]>
<svg xmlns="http://www.w3.org/2000/svg" width="109" height="109" viewBox="0 0 109 109">
<g id="kvg:StrokePaths_08cc3-Kaisho" style="fill:none;stroke:#000000;stroke-width:3;stroke-linecap:round;stroke-linejoin:round;">
<g id="kvg:08cc3-Kaisho" kvg:element="賃">
	<g id="kvg:08cc3-Kaisho-g1" kvg:element="任" kvg:position="top">
		<g id="kvg:08cc3-Kaisho-g2" kvg:element="亻" kvg:variant="true" kvg:original="人" kvg:position="left">
			<path id="kvg:08cc3-Kaisho-s1" kvg:type="㇒" d="M37.09,10.4c0.21,1.11-0.06,2.57-0.73,3.53c-4.31,6.09-9.44,13.08-19.33,20.49"/>
			<path id="kvg:08cc3-Kaisho-s2" kvg:type="㇑" d="M30.56,25.47c0.11,0.48,0.68,1.1,0.68,1.82c0,5.71-0.49,13.46-0.49,20.96"/>
		</g>
		<g id="kvg:08cc3-Kaisho-g3" kvg:element="壬" kvg:position="right">
			<g id="kvg:08cc3-Kaisho-g4" kvg:element="丿">
				<path id="kvg:08cc3-Kaisho-s3" kvg:type="㇒" d="M77.47,9.25c0.08,0.31,0.32,0.9-0.16,1.25c-5.99,4.39-14.85,8.42-30.46,11.96"/>
			</g>
			<g id="kvg:08cc3-Kaisho-g5" kvg:element="士">
				<path id="kvg:08cc3-Kaisho-s4" kvg:type="㇐" d="M41.43,29.71c0.98,0.3,2.79,0.34,3.77,0.3c10.23-0.5,35.68-3.41,47.38-3.39c1.64,0,2.62,0.14,3.44,0.29"/>
				<path id="kvg:08cc3-Kaisho-s5" kvg:type="㇑a" d="M65.53,18.63c1.26,0.43,2.02,1.93,2.28,2.78c0.25,0.85,0,14.56-0.25,19.9"/>
				<path id="kvg:08cc3-Kaisho-s6" kvg:type="㇐" d="M48.49,42.21c0.78,0.2,2.22,0.22,3,0.2C61.85,42.17,75.86,39.98,86.8,40c1.31,0,2.09,0.1,2.74,0.2"/>
			</g>
		</g>
	</g>
	<g id="kvg:08cc3-Kaisho-g6" kvg:element="貝" kvg:position="bottom" kvg:radical="general">
		<g id="kvg:08cc3-Kaisho-g7" kvg:element="目" kvg:position="top">
			<path id="kvg:08cc3-Kaisho-s7" kvg:type="㇑" d="M37.01,52.36c0.58,0.78,1.42,2.36,1.42,3.4s-0.19,29.57,0,30.61"/>
			<path id="kvg:08cc3-Kaisho-s8" kvg:type="㇕a" d="M39.38,53.18c3.26-0.13,28.12-2.29,31.09-2.45c2.48-0.13,4.28,0.76,4.22,3.19c-0.08,3.57-0.65,30.14-0.65,30.92"/>
			<path id="kvg:08cc3-Kaisho-s9" kvg:type="㇐a" d="M39.33,63.64c5.73,0,11.51-0.65,17.22-1.05c1.87-0.13,3.75-0.26,5.55-0.39"/>
			<path id="kvg:08cc3-Kaisho-s10" kvg:type="㇐a" d="M39.09,73.69c5.63,0,11.79-0.61,17.4-1.03c1.74-0.13,3.49-0.26,5.2-0.38"/>
			<path id="kvg:08cc3-Kaisho-s11" kvg:type="㇐a" d="M38.94,83.7c6.48,0,26.33-1.56,34.72-1.56"/>
		</g>
		<g id="kvg:08cc3-Kaisho-g8" kvg:position="bottom">
			<path id="kvg:08cc3-Kaisho-s12" kvg:type="㇒" d="M44.64,88.21c0.49,1.05,0.97,1.33,0,2.1C41.72,92.61,32.7,98.27,26.85,101"/>
			<path id="kvg:08cc3-Kaisho-s13" kvg:type="㇔" d="M64.03,88.62c7.28,3.11,15.88,8.75,17.87,11.48"/>
		</g>
	</g>
</g>
</g>
<g id="kvg:StrokeNumbers_08cc3-Kaisho" style="font-size:8;fill:#808080">
	<text transform="matrix(1 0 0 1 28.50 10.63)">1</text>
	<text transform="matrix(1 0 0 1 23.50 38.50)">2</text>
	<text transform="matrix(1 0 0 1 67.50 9.50)">3</text>
	<text transform="matrix(1 0 0 1 36.75 27.13)">4</text>
	<text transform="matrix(1 0 0 1 60.50 25.50)">5</text>
	<text transform="matrix(1 0 0 1 41.25 40.63)">6</text>
	<text transform="matrix(1 0 0 1 30.75 61.50)">7</text>
	<text transform="matrix(1 0 0 1 39.50 50.50)">8</text>
	<text transform="matrix(1 0 0 1 44.25 61.50)">9</text>
	<text transform="matrix(1 0 0 1 44.25 71.98)">10</text>
	<text transform="matrix(1 0 0 1 44.25 81.50)">11</text>
	<text transform="matrix(1 0 0 1 29.25 93.13)">12</text>
	<text transform="matrix(1 0 0 1 53.50 93.50)">13</text>
</g>
</svg>
