<?xml version="1.0" encoding="UTF-8"?>
<!--
Copyright (C) 2009/2010/2011 Ulrich Apel.
This work is distributed under the conditions of the Creative Commons 
Attribution-Share Alike 3.0 Licence. This means you are free:
* to Share - to copy, distribute and transmit the work
* to Remix - to adapt the work

Under the following conditions:
* Attribution. You must attribute the work by stating your use of KanjiVG in
  your own copyright header and linking to KanjiVG's website
  (http://kanjivg.tagaini.net)
* Share Alike. If you alter, transform, or build upon this work, you may
  distribute the resulting work only under the same or similar license to this
  one.

See http://creativecommons.org/licenses/by-sa/3.0/ for more details.
-->
<!DOCTYPE svg PUBLIC "-//W3C//DTD SVG 1.0//EN" "http://www.w3.org/TR/2001/REC-SVG-20010904/DTD/svg10.dtd" [
<!ATTLIST g
xmlns:kvg CDATA #FIXED "http://kanjivg.tagaini.net"
kvg:element CDATA #IMPLIED
kvg:variant CDATA #IMPLIED
kvg:partial CDATA #IMPLIED
kvg:original CDATA #IMPLIED
kvg:part CDATA #IMPLIED
kvg:number CDATA #IMPLIED
kvg:tradForm CDATA #IMPLIED
kvg:radicalForm CDATA #IMPLIED
kvg:position CDATA #IMPLIED
kvg:radical CDATA #IMPLIED
kvg:phon CDATA #IMPLIED >
<!ATTLIST path
xmlns:kvg CDATA #FIXED "http://kanjivg.tagaini.net"
kvg:type CDATA #IMPLIED >
]>
<svg xmlns="http://www.w3.org/2000/svg" width="109" height="109" viewBox="0 0 109 109">
<g id="kvg:StrokePaths_08cce" style="fill:none;stroke:#000000;stroke-width:3;stroke-linecap:round;stroke-linejoin:round;">
<g id="kvg:08cce" kvg:element="賎">
	<g id="kvg:08cce-g1" kvg:element="貝" kvg:position="left" kvg:radical="general">
		<g id="kvg:08cce-g2" kvg:element="目" kvg:position="top">
			<path id="kvg:08cce-s1" kvg:type="㇑" d="M17.55,18.96c1,1,1.05,2.42,1.05,3.49c0,1.27-0.06,27.73-0.05,42.43c0,5.34,0.02,9.13,0.05,9.59"/>
			<path id="kvg:08cce-s2" kvg:type="㇕a" d="M19.14,19.99c3.55-0.79,10.96-2.2,14.75-2.88c2.92-0.52,4.44,0.91,4.43,3.77c0,7.24-0.06,30.98-0.09,44c-0.01,4.98-0.02,8.4-0.02,8.72"/>
			<path id="kvg:08cce-s3" kvg:type="㇐a" d="M19.61,36.25c3.64-0.5,14.64-1.76,17.6-1.76"/>
			<path id="kvg:08cce-s4" kvg:type="㇐a" d="M19.26,53.17c4.74-0.54,13.23-1.84,17.98-1.84"/>
			<path id="kvg:08cce-s5" kvg:type="㇐a" d="M19.74,71.52c4.63-0.27,12.43-1.34,17.23-1.34"/>
		</g>
		<g id="kvg:08cce-g3" kvg:position="bottom">
			<path id="kvg:08cce-s6" kvg:type="㇒" d="M23.41,80.52c0.08,1.09-0.14,2.07-0.7,2.92c-2.47,3.81-5.97,8.81-9.47,12.81"/>
			<path id="kvg:08cce-s7" kvg:type="㇔" d="M32.82,78.76c3.54,3.86,7.43,9.74,8.68,14.25"/>
		</g>
	</g>
	<g id="kvg:08cce-g4" kvg:element="戔" kvg:variant="true" kvg:position="right">
		<g id="kvg:08cce-g5" kvg:element="三" kvg:part="1">
			<g id="kvg:08cce-g6" kvg:element="一" kvg:position="top">
				<path id="kvg:08cce-s8" kvg:type="㇐" d="M46.39,32.56c2.86,0.32,5.03,0.28,7.51-0.33c5.84-1.02,15.98-2.85,24.6-3.97c1.91-0.25,3.82-0.04,5.75,0.23"/>
			</g>
			<g id="kvg:08cce-g7" kvg:element="一" kvg:position="bottom">
				<path id="kvg:08cce-s9" kvg:type="㇐" d="M48.82,45.87c3.15,0.64,6.2-0.01,9.34-0.7c5.96-1.3,12.39-2.51,17.6-3.29c2.47-0.44,4.97-0.56,7.49-0.39"/>
			</g>
			<g id="kvg:08cce-g8" kvg:element="戈">
				<g id="kvg:08cce-g9" kvg:element="弋" kvg:part="1">
					<g id="kvg:08cce-g10" kvg:element="三" kvg:part="2">
						<g id="kvg:08cce-g11" kvg:element="一">
							<path id="kvg:08cce-s10" kvg:type="㇐" d="M44.25,60.45c3.22,0.87,6.37,0.71,9.54-0.04c7.34-1.74,21.46-4.78,30.71-6.07c3.2-0.45,6.32-0.79,9.5-0.34"/>
						</g>
					</g>
					<path id="kvg:08cce-s11" kvg:type="㇂" d="M55.77,11.25c1.64,1.83,2.31,3.33,2.66,7.26C61.88,56.5,72.25,81.5,90.7,94.18c6.21,4.27,5.78,1.03,4.96-7.06"/>
				</g>
				<g id="kvg:08cce-g12" kvg:element="丿">
					<path id="kvg:08cce-s12" kvg:type="㇒" d="M85.95,61.88c0,1.12-0.08,1.89-0.7,2.92C79.75,73.88,70,85.38,49.31,95.11"/>
				</g>
				<g id="kvg:08cce-g13" kvg:element="弋" kvg:part="2">
					<g id="kvg:08cce-g14" kvg:element="丶">
						<path id="kvg:08cce-s13" kvg:type="㇔" d="M70.37,13.03c4.12,1.4,9.99,4.12,11.91,6.52"/>
					</g>
				</g>
			</g>
		</g>
	</g>
</g>
</g>
<g id="kvg:StrokeNumbers_08cce" style="font-size:8;fill:#808080">
	<text transform="matrix(1 0 0 1 11.50 26.50)">1</text>
	<text transform="matrix(1 0 0 1 20.50 16.50)">2</text>
	<text transform="matrix(1 0 0 1 21.50 32.50)">3</text>
	<text transform="matrix(1 0 0 1 22.50 49.50)">4</text>
	<text transform="matrix(1 0 0 1 22.50 68.50)">5</text>
	<text transform="matrix(1 0 0 1 15.50 83.25)">6</text>
	<text transform="matrix(1 0 0 1 28.50 86.50)">7</text>
	<text transform="matrix(1 0 0 1 44.50 29.50)">8</text>
	<text transform="matrix(1 0 0 1 45.50 43.50)">9</text>
	<text transform="matrix(1 0 0 1 41.50 57.50)">10</text>
	<text transform="matrix(1 0 0 1 44.75 12.50)">11</text>
	<text transform="matrix(1 0 0 1 74.50 64.50)">12</text>
	<text transform="matrix(1 0 0 1 64.50 10.50)">13</text>
</g>
</svg>
