<?xml version="1.0" encoding="UTF-8"?>
<!--
Copyright (C) 2009/2010/2011 Ulrich Apel.
This work is distributed under the conditions of the Creative Commons 
Attribution-Share Alike 3.0 Licence. This means you are free:
* to Share - to copy, distribute and transmit the work
* to Remix - to adapt the work

Under the following conditions:
* Attribution. You must attribute the work by stating your use of KanjiVG in
  your own copyright header and linking to KanjiVG's website
  (http://kanjivg.tagaini.net)
* Share Alike. If you alter, transform, or build upon this work, you may
  distribute the resulting work only under the same or similar license to this
  one.

See http://creativecommons.org/licenses/by-sa/3.0/ for more details.
-->
<!DOCTYPE svg PUBLIC "-//W3C//DTD SVG 1.0//EN" "http://www.w3.org/TR/2001/REC-SVG-20010904/DTD/svg10.dtd" [
<!ATTLIST g
xmlns:kvg CDATA #FIXED "http://kanjivg.tagaini.net"
kvg:element CDATA #IMPLIED
kvg:variant CDATA #IMPLIED
kvg:partial CDATA #IMPLIED
kvg:original CDATA #IMPLIED
kvg:part CDATA #IMPLIED
kvg:number CDATA #IMPLIED
kvg:tradForm CDATA #IMPLIED
kvg:radicalForm CDATA #IMPLIED
kvg:position CDATA #IMPLIED
kvg:radical CDATA #IMPLIED
kvg:phon CDATA #IMPLIED >
<!ATTLIST path
xmlns:kvg CDATA #FIXED "http://kanjivg.tagaini.net"
kvg:type CDATA #IMPLIED >
]>
<svg xmlns="http://www.w3.org/2000/svg" width="109" height="109" viewBox="0 0 109 109">
<g id="kvg:StrokePaths_08cda-Kaisho" style="fill:none;stroke:#000000;stroke-width:3;stroke-linecap:round;stroke-linejoin:round;">
<g id="kvg:08cda-Kaisho" kvg:element="賚">
	<g id="kvg:08cda-Kaisho-g1" kvg:element="來" kvg:position="top">
		<g id="kvg:08cda-Kaisho-g2" kvg:element="木" kvg:part="1">
			<path id="kvg:08cda-Kaisho-s1" kvg:type="㇐" d="M19.97,20.31c1.75,0.42,3.74,0.55,5.75,0.42c10.24-0.69,40.97-2.57,56.46-3.38c1.99-0.1,3.25,0.07,5.25,0.37"/>
		</g>
		<g id="kvg:08cda-Kaisho-g3" kvg:element="从">
			<g id="kvg:08cda-Kaisho-g4" kvg:element="人" kvg:position="left">
				<path id="kvg:08cda-Kaisho-s2" kvg:type="㇒" d="M32.57,24.3c0,0.39,0.06,0.71-0.1,1.17c-1.48,4.22-5.89,9.47-12.36,14.13"/>
				<path id="kvg:08cda-Kaisho-s3" kvg:type="㇏" d="M32.76,30.35c2.51,0.95,5.71,3.48,6.94,5.88"/>
			</g>
			<g id="kvg:08cda-Kaisho-g5" kvg:element="人" kvg:position="right">
				<path id="kvg:08cda-Kaisho-s4" kvg:type="㇒" d="M75.97,21.77c0,0.29,0.08,0.54-0.07,0.88c-1.25,2.86-4.84,7.95-9.1,10.83"/>
				<path id="kvg:08cda-Kaisho-s5" kvg:type="㇏" d="M76.66,28.06c3.96,2.09,7.01,4.71,9.38,7.88"/>
			</g>
		</g>
		<g id="kvg:08cda-Kaisho-g6" kvg:element="木" kvg:part="2">
			<path id="kvg:08cda-Kaisho-s6" kvg:type="㇑" d="M53.25,10.75c0.75,0.3,1.34,1.32,1.34,1.94c0,6.26-0.15,26.08-0.15,29.81c0,8.5-3.7,2.5-4.95,1.25"/>
			<path id="kvg:08cda-Kaisho-s7" kvg:type="㇒" d="M54.45,28.41c-6.25,7.41-23.01,18.73-36.02,22.92"/>
			<path id="kvg:08cda-Kaisho-s8" kvg:type="㇏" d="M55.1,29.15c4.71,2.62,26.89,15.76,32.01,18.34c1.74,0.87,3.23,1.25,4.96,1.5"/>
		</g>
	</g>
	<g id="kvg:08cda-Kaisho-g7" kvg:element="貝" kvg:position="bottom" kvg:radical="general">
		<g id="kvg:08cda-Kaisho-g8" kvg:element="目" kvg:position="top">
			<path id="kvg:08cda-Kaisho-s9" kvg:type="㇑" d="M32.74,50.8c0.57,0.75,0.9,1.3,0.9,2.32c0,1.02,0.26,27.28-0.42,31.58"/>
			<path id="kvg:08cda-Kaisho-s10" kvg:type="㇕a" d="M34.59,52.62c3.22-0.22,33.3-2.33,36.21-2.8c1.95-0.32,3.45,0.93,3.75,2.55c0.43,2.3-0.22,29.76-0.22,30.52"/>
			<path id="kvg:08cda-Kaisho-s11" kvg:type="㇐a" d="M33.7,61.93c6.78-0.52,13.56-1.11,20.35-1.65c2.15-0.17,4.3-0.34,6.35-0.5"/>
			<path id="kvg:08cda-Kaisho-s12" kvg:type="㇐a" d="M33.96,72.11c6.56-0.6,13.13-1.09,19.71-1.57c1.9-0.14,4.81-0.27,6.68-0.4"/>
			<path id="kvg:08cda-Kaisho-s13" kvg:type="㇐a" d="M33.55,82.68C42.64,82,66,80.39,74.29,80.15"/>
		</g>
		<g id="kvg:08cda-Kaisho-g9" kvg:position="bottom">
			<path id="kvg:08cda-Kaisho-s14" kvg:type="㇒" d="M40.7,86.9c0.54,1.14-0.41,2.25-1.47,3.07c-3.22,2.5-11.66,7.83-18.1,10.78"/>
			<path id="kvg:08cda-Kaisho-s15" kvg:type="㇔" d="M65.52,85.98C73,89.8,81.83,96.71,83.87,100.04"/>
		</g>
	</g>
</g>
</g>
<g id="kvg:StrokeNumbers_08cda-Kaisho" style="font-size:8;fill:#808080">
	<text transform="matrix(1 0 0 1 13.25 20.63)">1</text>
	<text transform="matrix(1 0 0 1 23.50 29.50)">2</text>
	<text transform="matrix(1 0 0 1 37.50 30.50)">3</text>
	<text transform="matrix(1 0 0 1 67.50 25.40)">4</text>
	<text transform="matrix(1 0 0 1 80.50 28.50)">5</text>
	<text transform="matrix(1 0 0 1 44.50 11.50)">6</text>
	<text transform="matrix(1 0 0 1 45.25 31.50)">7</text>
	<text transform="matrix(1 0 0 1 60.50 30.50)">8</text>
	<text transform="matrix(1 0 0 1 26.25 58.50)">9</text>
	<text transform="matrix(1 0 0 1 36.50 50.50)">10</text>
	<text transform="matrix(1 0 0 1 38.50 59.88)">11</text>
	<text transform="matrix(1 0 0 1 38.50 69.80)">12</text>
	<text transform="matrix(1 0 0 1 38.50 79.73)">13</text>
	<text transform="matrix(1 0 0 1 25.50 92.50)">14</text>
	<text transform="matrix(1 0 0 1 59.50 93.50)">15</text>
</g>
</svg>
