<?xml version="1.0" encoding="UTF-8"?>
<!--
Copyright (C) 2009/2010/2011 Ulrich Apel.
This work is distributed under the conditions of the Creative Commons 
Attribution-Share Alike 3.0 Licence. This means you are free:
* to Share - to copy, distribute and transmit the work
* to Remix - to adapt the work

Under the following conditions:
* Attribution. You must attribute the work by stating your use of KanjiVG in
  your own copyright header and linking to KanjiVG's website
  (http://kanjivg.tagaini.net)
* Share Alike. If you alter, transform, or build upon this work, you may
  distribute the resulting work only under the same or similar license to this
  one.

See http://creativecommons.org/licenses/by-sa/3.0/ for more details.
-->
<!DOCTYPE svg PUBLIC "-//W3C//DTD SVG 1.0//EN" "http://www.w3.org/TR/2001/REC-SVG-20010904/DTD/svg10.dtd" [
<!ATTLIST g
xmlns:kvg CDATA #FIXED "http://kanjivg.tagaini.net"
kvg:element CDATA #IMPLIED
kvg:variant CDATA #IMPLIED
kvg:partial CDATA #IMPLIED
kvg:original CDATA #IMPLIED
kvg:part CDATA #IMPLIED
kvg:number CDATA #IMPLIED
kvg:tradForm CDATA #IMPLIED
kvg:radicalForm CDATA #IMPLIED
kvg:position CDATA #IMPLIED
kvg:radical CDATA #IMPLIED
kvg:phon CDATA #IMPLIED >
<!ATTLIST path
xmlns:kvg CDATA #FIXED "http://kanjivg.tagaini.net"
kvg:type CDATA #IMPLIED >
]>
<svg xmlns="http://www.w3.org/2000/svg" width="109" height="109" viewBox="0 0 109 109">
<g id="kvg:StrokePaths_08cd1" style="fill:none;stroke:#000000;stroke-width:3;stroke-linecap:round;stroke-linejoin:round;">
<g id="kvg:08cd1" kvg:element="賑">
	<g id="kvg:08cd1-g1" kvg:element="貝" kvg:position="left" kvg:radical="general">
		<g id="kvg:08cd1-g2" kvg:element="目" kvg:position="top">
			<path id="kvg:08cd1-s1" kvg:type="㇑" d="M16.3,21.68c0.33,1.17,0.81,2.04,0.81,3.6c0,1.56-0.36,39.97-0.22,45.11"/>
			<path id="kvg:08cd1-s2" kvg:type="㇕a" d="M17.66,22.17c1.87-0.19,16.1-1.69,17.8-1.92c1.42-0.19,2.54,1.09,2.42,2.53c-0.15,1.83-1.12,34.97-1.47,46.67"/>
			<path id="kvg:08cd1-s3" kvg:type="㇐a" d="M17.63,37.62c5.86-0.62,16.23-1.66,19.23-1.66"/>
			<path id="kvg:08cd1-s4" kvg:type="㇐a" d="M17.78,52.95c3.72-0.2,14.72-1.7,18.45-1.34"/>
			<path id="kvg:08cd1-s5" kvg:type="㇐a" d="M18.26,68.48c3.71,0,13.23-1.34,18.04-1.34"/>
		</g>
		<g id="kvg:08cd1-g3" kvg:position="bottom">
			<path id="kvg:08cd1-s6" kvg:type="㇒" d="M21.54,76.23c0.24,1.09,0.48,1.38,0,2.17c-1.45,2.39-6.72,9.77-9.61,12.59"/>
			<path id="kvg:08cd1-s7" kvg:type="㇔" d="M29.98,73.7c2.79,3.01,6.08,8.45,6.84,11.08"/>
		</g>
	</g>
	<g id="kvg:08cd1-g4" kvg:element="辰" kvg:position="right">
		<g id="kvg:08cd1-g5" kvg:element="厂">
			<path id="kvg:08cd1-s8" kvg:type="㇐" d="M46.21,18.91c1.45,0.48,4.1,0.59,5.54,0.48c11.71-0.91,29.3-2.95,35.55-3.36c2.4-0.16,3.86,0.23,5.06,0.47"/>
			<path id="kvg:08cd1-s9" kvg:type="㇒" d="M53.18,19.66c0.03,1.8-0.07,4.63-0.07,7.22c0,16.63-2.62,45.37-12.45,59.29"/>
		</g>
		<path id="kvg:08cd1-s10" kvg:type="㇐" d="M60.16,33.85c0.89,0.34,2.52,0.43,3.41,0.34c5.67-0.59,14.01-2.04,19.66-2.59c1.47-0.14,2.37,0.16,3.11,0.33"/>
		<path id="kvg:08cd1-s11" kvg:type="㇐" d="M54.48,47.53c0.96,0.39,2.71,0.46,3.67,0.39c9.85-0.67,24.35-3.17,30.64-3.49c1.59-0.08,4.6,0.19,5.39,0.38"/>
		<path id="kvg:08cd1-s12" kvg:type="㇙" d="M59.93,50.7c1.53,1.79,1.42,2.55,1.42,5.1c0,12.06-0.46,30.79-0.46,32.83s1.68,3.2,3.81,1.67s7.55-6.56,12.09-10.6"/>
		<path id="kvg:08cd1-s13" kvg:type="㇒" d="M90.43,52.58c0.04,0.25,0.07,0.64-0.07,1c-0.81,2.11-5.48,6.73-11.87,9.56"/>
		<path id="kvg:08cd1-s14" kvg:type="㇏" d="M68.61,55.78c5.55,5.96,20.38,24.31,24.5,28.81c1.39,1.52,2.59,2.18,3.98,2.61"/>
	</g>
</g>
</g>
<g id="kvg:StrokeNumbers_08cd1" style="font-size:8;fill:#808080">
	<text transform="matrix(1 0 0 1 9.66 28.50)">1</text>
	<text transform="matrix(1 0 0 1 17.50 18.50)">2</text>
	<text transform="matrix(1 0 0 1 21.50 33.50)">3</text>
	<text transform="matrix(1 0 0 1 21.50 48.50)">4</text>
	<text transform="matrix(1 0 0 1 21.50 64.50)">5</text>
	<text transform="matrix(1 0 0 1 12.72 79.50)">6</text>
	<text transform="matrix(1 0 0 1 26.50 83.50)">7</text>
	<text transform="matrix(1 0 0 1 47.50 15.50)">8</text>
	<text transform="matrix(1 0 0 1 45.50 28.53)">9</text>
	<text transform="matrix(1 0 0 1 58.50 30.50)">10</text>
	<text transform="matrix(1 0 0 1 56.50 44.50)">11</text>
	<text transform="matrix(1 0 0 1 51.50 64.30)">12</text>
	<text transform="matrix(1 0 0 1 78.50 54.50)">13</text>
	<text transform="matrix(1 0 0 1 64.50 66.50)">14</text>
</g>
</svg>
