<?xml version="1.0" encoding="UTF-8"?>
<!--
Copyright (C) 2009/2010/2011 Ulrich Apel.
This work is distributed under the conditions of the Creative Commons 
Attribution-Share Alike 3.0 Licence. This means you are free:
* to Share - to copy, distribute and transmit the work
* to Remix - to adapt the work

Under the following conditions:
* Attribution. You must attribute the work by stating your use of KanjiVG in
  your own copyright header and linking to KanjiVG's website
  (http://kanjivg.tagaini.net)
* Share Alike. If you alter, transform, or build upon this work, you may
  distribute the resulting work only under the same or similar license to this
  one.

See http://creativecommons.org/licenses/by-sa/3.0/ for more details.
-->
<!DOCTYPE svg PUBLIC "-//W3C//DTD SVG 1.0//EN" "http://www.w3.org/TR/2001/REC-SVG-20010904/DTD/svg10.dtd" [
<!ATTLIST g
xmlns:kvg CDATA #FIXED "http://kanjivg.tagaini.net"
kvg:element CDATA #IMPLIED
kvg:variant CDATA #IMPLIED
kvg:partial CDATA #IMPLIED
kvg:original CDATA #IMPLIED
kvg:part CDATA #IMPLIED
kvg:number CDATA #IMPLIED
kvg:tradForm CDATA #IMPLIED
kvg:radicalForm CDATA #IMPLIED
kvg:position CDATA #IMPLIED
kvg:radical CDATA #IMPLIED
kvg:phon CDATA #IMPLIED >
<!ATTLIST path
xmlns:kvg CDATA #FIXED "http://kanjivg.tagaini.net"
kvg:type CDATA #IMPLIED >
]>
<svg xmlns="http://www.w3.org/2000/svg" width="109" height="109" viewBox="0 0 109 109">
<g id="kvg:StrokePaths_08d0d-Kaisho" style="fill:none;stroke:#000000;stroke-width:3;stroke-linecap:round;stroke-linejoin:round;">
<g id="kvg:08d0d-Kaisho" kvg:element="贍">
	<g id="kvg:08d0d-Kaisho-g1" kvg:element="貝" kvg:position="left" kvg:radical="general">
		<g id="kvg:08d0d-Kaisho-g2" kvg:element="目" kvg:position="top">
			<path id="kvg:08d0d-Kaisho-s1" kvg:type="㇑" d="M17.7,19.95c0.32,1.29,0.78,2.26,0.78,3.98s-0.34,46.34-0.21,52.03"/>
			<path id="kvg:08d0d-Kaisho-s2" kvg:type="㇕a" d="M19,21.48c1.79-0.22,13.94-2.47,15.57-2.73c1.36-0.21,2.43,1.21,2.32,2.8c-0.15,2.03-0.58,39.92-0.91,52.87"/>
			<path id="kvg:08d0d-Kaisho-s3" kvg:type="㇐a" d="M18.97,39.08c3.17-0.38,6.33-0.83,9.5-1.23c0.79-0.1,1.57-0.2,2.3-0.28"/>
			<path id="kvg:08d0d-Kaisho-s4" kvg:type="㇐a" d="M19.12,55.54c2.61-0.4,6.22-0.75,8.84-1.07c0.56-0.07,1.13-0.13,1.73-0.2"/>
			<path id="kvg:08d0d-Kaisho-s5" kvg:type="㇐a" d="M19.58,73.84c3.56,0,11.2-1.59,15.8-1.59"/>
		</g>
		<g id="kvg:08d0d-Kaisho-g3" kvg:position="bottom">
			<path id="kvg:08d0d-Kaisho-s6" kvg:type="㇒" d="M21.74,80.09c0.3,1.41,0.59,1.79,0,2.82c-1.78,3.1-8.26,12.67-11.81,16.34"/>
			<path id="kvg:08d0d-Kaisho-s7" kvg:type="㇔" d="M28.8,77.94c3.58,3.49,7.8,9.82,8.78,12.87"/>
		</g>
	</g>
	<g id="kvg:08d0d-Kaisho-g4" kvg:position="right">
		<g id="kvg:08d0d-Kaisho-g5" kvg:element="𠂊" kvg:variant="true" kvg:original="勹">
			<path id="kvg:08d0d-Kaisho-s8" kvg:type="㇒" d="M59.77,11c0.05,0.47,0.22,1.26-0.09,1.89C57.25,17.75,51.5,24.75,43.25,31"/>
			<path id="kvg:08d0d-Kaisho-s9" kvg:type="㇇" d="M58.5,16.87c6-0.37,11.5-1.12,17.49-2.64c1.73-0.44,2.44,1.21,1.21,2.87c-3.45,4.65-6.7,7.15-9.77,11.65"/>
		</g>
		<path id="kvg:08d0d-Kaisho-s10" kvg:type="㇐" d="M48.13,29.73c1.52,0.54,3.3,0.62,4.82,0.54c10.55-0.52,27.3-2.52,38.11-3.73c2.51-0.28,4.05,0.26,5.31,0.53"/>
		<path id="kvg:08d0d-Kaisho-s11" kvg:type="㇒" d="M50.51,30.5c0.24,1.75,0.44,3.9,0.44,6.07c0,13.93,0.55,42.18-10.14,57.65"/>
		<path id="kvg:08d0d-Kaisho-s12" kvg:type="㇒" d="M65.56,31c0.21,0.69,0.44,0.96,0.33,1.54C65.1,37,62.44,43,56,46"/>
		<path id="kvg:08d0d-Kaisho-s13" kvg:type="㇟" d="M76.75,28.5c0.63,0.73,1.17,1.58,1.17,2.7c0,1.51-0.19,4.33-0.19,5.41c0,3.89,0.27,4.64,5.26,4.64c3.72,0,7.45-0.5,9.03-1.45"/>
		<g id="kvg:08d0d-Kaisho-g6" kvg:element="言">
			<path id="kvg:08d0d-Kaisho-s14" kvg:type="㇔" d="M67.63,41.75c2.87,1.29,7.41,5.3,8.12,7.3"/>
			<path id="kvg:08d0d-Kaisho-s15" kvg:type="㇐" d="M54.87,54.51c0.88,0.21,3.69,0.18,4.57,0.21c9.09,0.29,21.92-2.35,29.79-2.53c1.46-0.03,3.64,0.1,4.37,0.2"/>
			<path id="kvg:08d0d-Kaisho-s16" kvg:type="㇐" d="M61.73,62.68c0.53,0.1,3.78,0.11,4.31,0.1c5.53-0.11,10.64-1.72,16.08-1.71c0.88,0,4.58,0.05,5.02,0.1"/>
			<path id="kvg:08d0d-Kaisho-s17" kvg:type="㇐" d="M61.73,71.46c0.49,0.12,2.52,0.13,3.02,0.12c5.15-0.14,14.53-2.15,19.61-2.14c0.82,0,3.26,0.06,3.68,0.12"/>
			<g id="kvg:08d0d-Kaisho-g7" kvg:element="口">
				<path id="kvg:08d0d-Kaisho-s18" kvg:type="㇑" d="M59.14,78.67c0.31,0.31,0.66,0.55,0.76,0.95c0.88,3.54,1.5,10.95,2.38,16.13"/>
				<path id="kvg:08d0d-Kaisho-s19" kvg:type="㇕b" d="M60.56,80.24c5.7-0.75,20.97-1.84,26.23-2.6c1.32-0.19,2.56,0.87,2.37,1.73c-0.79,3.57-1.03,6.22-2.42,12.16"/>
				<path id="kvg:08d0d-Kaisho-s20" kvg:type="㇐b" d="M62.04,93.9c7.96-0.4,17.21-1.4,27.03-1.44"/>
			</g>
		</g>
	</g>
</g>
</g>
<g id="kvg:StrokeNumbers_08d0d-Kaisho" style="font-size:8;fill:#808080">
	<text transform="matrix(1 0 0 1 19.50 18.50)">1</text>
	<text transform="matrix(1 0 0 1 10.50 27.50)">2</text>
	<text transform="matrix(1 0 0 1 21.50 52.50)">3</text>
	<text transform="matrix(1 0 0 1 22.50 35.50)">4</text>
	<text transform="matrix(1 0 0 1 13.50 84.50)">5</text>
	<text transform="matrix(1 0 0 1 22.50 70.50)">6</text>
	<text transform="matrix(1 0 0 1 26.50 87.50)">7</text>
	<text transform="matrix(1 0 0 1 51.75 11.50)">8</text>
	<text transform="matrix(1 0 0 1 65.50 12.50)">9</text>
	<text transform="matrix(1 0 0 1 56.50 27.50)">10</text>
	<text transform="matrix(1 0 0 1 41.50 39.50)">11</text>
	<text transform="matrix(1 0 0 1 54.50 38.50)">12</text>
	<text transform="matrix(1 0 0 1 80.50 35.50)">13</text>
	<text transform="matrix(1 0 0 1 66.50 40.65)">14</text>
	<text transform="matrix(1 0 0 1 56.50 52.50)">15</text>
	<text transform="matrix(1 0 0 1 52.50 63.50)">16</text>
	<text transform="matrix(1 0 0 1 52.50 73.50)">17</text>
	<text transform="matrix(1 0 0 1 50.25 86.50)">18</text>
	<text transform="matrix(1 0 0 1 60.50 77.50)">19</text>
	<text transform="matrix(1 0 0 1 64.50 90.50)">20</text>
</g>
</svg>
