<?xml version="1.0" encoding="UTF-8"?>
<!--
Copyright (C) 2009/2010/2011 Ulrich Apel.
This work is distributed under the conditions of the Creative Commons 
Attribution-Share Alike 3.0 Licence. This means you are free:
* to Share - to copy, distribute and transmit the work
* to Remix - to adapt the work

Under the following conditions:
* Attribution. You must attribute the work by stating your use of KanjiVG in
  your own copyright header and linking to KanjiVG's website
  (http://kanjivg.tagaini.net)
* Share Alike. If you alter, transform, or build upon this work, you may
  distribute the resulting work only under the same or similar license to this
  one.

See http://creativecommons.org/licenses/by-sa/3.0/ for more details.
-->
<!DOCTYPE svg PUBLIC "-//W3C//DTD SVG 1.0//EN" "http://www.w3.org/TR/2001/REC-SVG-20010904/DTD/svg10.dtd" [
<!ATTLIST g
xmlns:kvg CDATA #FIXED "http://kanjivg.tagaini.net"
kvg:element CDATA #IMPLIED
kvg:variant CDATA #IMPLIED
kvg:partial CDATA #IMPLIED
kvg:original CDATA #IMPLIED
kvg:part CDATA #IMPLIED
kvg:number CDATA #IMPLIED
kvg:tradForm CDATA #IMPLIED
kvg:radicalForm CDATA #IMPLIED
kvg:position CDATA #IMPLIED
kvg:radical CDATA #IMPLIED
kvg:phon CDATA #IMPLIED >
<!ATTLIST path
xmlns:kvg CDATA #FIXED "http://kanjivg.tagaini.net"
kvg:type CDATA #IMPLIED >
]>
<svg xmlns="http://www.w3.org/2000/svg" width="109" height="109" viewBox="0 0 109 109">
<g id="kvg:StrokePaths_08d73" style="fill:none;stroke:#000000;stroke-width:3;stroke-linecap:round;stroke-linejoin:round;">
<g id="kvg:08d73" kvg:element="赳">
	<g id="kvg:08d73-g1" kvg:element="走" kvg:position="nyo" kvg:radical="general">
		<g id="kvg:08d73-g2" kvg:element="土" kvg:position="top">
			<path id="kvg:08d73-s1" kvg:type="㇐" d="M17.69,30.43c2.43,0.57,4.93,0.31,6.92-0.03c6.93-1.17,15.71-2.11,21.63-2.62c1.98-0.17,3.86-0.41,5.82,0.08"/>
			<path id="kvg:08d73-s2" kvg:type="㇑a" d="M33.37,13.71c0.9,0.9,1.23,2.01,1.23,3.42c0,4.74-0.09,24.02-0.09,26.87"/>
			<path id="kvg:08d73-s3" kvg:type="㇐" d="M12.21,47.37c3.04,0.51,5.61,0.27,7.93-0.11c9.85-1.63,19.44-2.92,27.73-3.8c2.36-0.25,4.84-0.22,7.16,0.27"/>
		</g>
		<g id="kvg:08d73-g3" kvg:position="bottom">
			<path id="kvg:08d73-s4" kvg:type="㇑a" d="M33.79,47.55c0.71,0.71,1.16,1.7,1.16,3.04c0,3.28-0.07,23.78-0.07,27.78"/>
			<path id="kvg:08d73-s5" kvg:type="㇐c" d="M36.07,61.84c3.44-0.41,8.7-1.32,11.93-1.77c1.15-0.16,2.38-0.2,3.69-0.07"/>
			<path id="kvg:08d73-s6" kvg:type="㇒" d="M22.27,59.05c0.48,1.2,0.57,2.47,0.43,3.7c-0.85,7.27-3.95,23.62-12.7,32.76"/>
			<path id="kvg:08d73-s7" kvg:type="㇏" d="M21.17,74.24C34,78.88,57.38,88.25,72.32,93.75c4.99,1.84,10.49,2.98,15.81,3.41"/>
		</g>
	</g>
	<path id="kvg:08d73-s8" kvg:type="㇑" d="M64.12,24.75c1.13,1.13,1.46,2.12,1.46,3.75c0,1.02,0.03,28.38,0.03,37.25"/>
	<path id="kvg:08d73-s9" kvg:type="㇐" d="M57,67.15c0.99,0.99,2.25,1.48,4.15,0.81c5-1.76,22.85-8.96,29.57-11.3"/>
	<g id="kvg:08d73-g4" kvg:element="丨">
		<path id="kvg:08d73-s10" kvg:type="㇑" d="M80.62,13c1.07,1.06,1.21,2.75,1.21,4.25c0,0.84,0.02,41.25,0.03,60.75c0,4.35,0,7.65,0,9.25"/>
	</g>
</g>
</g>
<g id="kvg:StrokeNumbers_08d73" style="font-size:8;fill:#808080">
	<text transform="matrix(1 0 0 1 11.25 30.25)">1</text>
	<text transform="matrix(1 0 0 1 22.25 14.25)">2</text>
	<text transform="matrix(1 0 0 1 5.25 48.73)">3</text>
	<text transform="matrix(1 0 0 1 27.19 55.66)">4</text>
	<text transform="matrix(1 0 0 1 39.25 58.25)">5</text>
	<text transform="matrix(1 0 0 1 13.25 60.25)">6</text>
	<text transform="matrix(1 0 0 1 26.25 73.25)">7</text>
	<text transform="matrix(1 0 0 1 55.19 24.25)">8</text>
	<text transform="matrix(1 0 0 1 54.25 64.25)">9</text>
	<text transform="matrix(1 0 0 1 68.25 12.25)">10</text>
</g>
</svg>
