<?xml version="1.0" encoding="UTF-8"?>
<!--
Copyright (C) 2009/2010/2011 Ulrich Apel.
This work is distributed under the conditions of the Creative Commons 
Attribution-Share Alike 3.0 Licence. This means you are free:
* to Share - to copy, distribute and transmit the work
* to Remix - to adapt the work

Under the following conditions:
* Attribution. You must attribute the work by stating your use of KanjiVG in
  your own copyright header and linking to KanjiVG's website
  (http://kanjivg.tagaini.net)
* Share Alike. If you alter, transform, or build upon this work, you may
  distribute the resulting work only under the same or similar license to this
  one.

See http://creativecommons.org/licenses/by-sa/3.0/ for more details.
-->
<!DOCTYPE svg PUBLIC "-//W3C//DTD SVG 1.0//EN" "http://www.w3.org/TR/2001/REC-SVG-20010904/DTD/svg10.dtd" [
<!ATTLIST g
xmlns:kvg CDATA #FIXED "http://kanjivg.tagaini.net"
kvg:element CDATA #IMPLIED
kvg:variant CDATA #IMPLIED
kvg:partial CDATA #IMPLIED
kvg:original CDATA #IMPLIED
kvg:part CDATA #IMPLIED
kvg:number CDATA #IMPLIED
kvg:tradForm CDATA #IMPLIED
kvg:radicalForm CDATA #IMPLIED
kvg:position CDATA #IMPLIED
kvg:radical CDATA #IMPLIED
kvg:phon CDATA #IMPLIED >
<!ATTLIST path
xmlns:kvg CDATA #FIXED "http://kanjivg.tagaini.net"
kvg:type CDATA #IMPLIED >
]>
<svg xmlns="http://www.w3.org/2000/svg" width="109" height="109" viewBox="0 0 109 109">
<g id="kvg:StrokePaths_08e0f-Kaisho" style="fill:none;stroke:#000000;stroke-width:3;stroke-linecap:round;stroke-linejoin:round;">
<g id="kvg:08e0f-Kaisho" kvg:element="踏">
	<g id="kvg:08e0f-Kaisho-g1" kvg:element="足" kvg:position="left" kvg:radical="general">
		<g id="kvg:08e0f-Kaisho-g2" kvg:element="口">
			<path id="kvg:08e0f-Kaisho-s1" kvg:type="㇑" d="M14.78,22.88c0.38,0.35,0.78,0.63,0.95,1.07c1.33,3.43,2.93,12.89,3.84,19.05"/>
			<path id="kvg:08e0f-Kaisho-s2" kvg:type="㇕b" d="M16.68,24.73c9.11-1.84,17.46-3.29,21.96-3.75c1.65-0.17,2.64,0.98,2.4,1.94c-0.98,4.01-2.12,9.79-3.57,15.33"/>
			<path id="kvg:08e0f-Kaisho-s3" kvg:type="㇐b" d="M19.75,40.94c5.29-0.51,12.11-1.39,19.38-2.17"/>
		</g>
		<path id="kvg:08e0f-Kaisho-s4" kvg:type="㇑a" d="M28.87,41.74c1.09,0.5,1.74,2.25,1.96,3.25c0.22,1,0,27.75-0.22,34"/>
		<path id="kvg:08e0f-Kaisho-s5" kvg:type="㇐b" d="M31.38,56.24c3.37-0.49,5.87-1.24,9.35-1.5c1.74-0.13,2.18-0.25,3.26,0"/>
		<path id="kvg:08e0f-Kaisho-s6" kvg:type="㇒" d="M17.37,57.99c1.09,0.5,1.74,2.25,1.96,3.25c0.22,1,0,17.25-0.22,23.5"/>
		<path id="kvg:08e0f-Kaisho-s7" kvg:type="㇀/㇏" d="M13,86.07c1.25,0.68,3.27,0.85,4.07,0.4C25,82,33.25,77.5,42,72.49"/>
	</g>
	<g id="kvg:08e0f-Kaisho-g3" kvg:element="沓" kvg:position="right">
		<g id="kvg:08e0f-Kaisho-g4" kvg:element="水" kvg:position="top">
			<path id="kvg:08e0f-Kaisho-s8" kvg:type="㇚" d="M68.37,14.83c0.77,0.89,1.38,2.4,1.38,5.34c0,15.13,0.19,21.61,0.19,26.4c0,9.46-4.33,2.47-5.5,1.26"/>
			<path id="kvg:08e0f-Kaisho-s9" kvg:type="㇇" d="M45.9,32.04c1.06,0.18,2.31,0.73,3.37,0.36c1.07-0.36,9.2-2.66,10.97-3.38c1.78-0.72,3.17,0.54,2.66,2.17c-2.37,7.61-9.69,17.28-16.26,21.45"/>
			<path id="kvg:08e0f-Kaisho-s10" kvg:type="㇒" d="M88.21,21.76c0.06,0.26-0.13,1.03-0.37,1.37c-2.27,3.26-7.09,7.29-11.18,8.99"/>
			<path id="kvg:08e0f-Kaisho-s11" kvg:type="㇏" d="M70.27,28.91c7.07,6.59,15.35,14.66,22.98,19.93c1.37,0.95,2.78,1.24,4.09,1.53"/>
		</g>
		<g id="kvg:08e0f-Kaisho-g5" kvg:element="日" kvg:position="bottom">
			<path id="kvg:08e0f-Kaisho-s12" kvg:type="㇑" d="M53.09,59.47c0.3,0.59,1.36,3.2,1.36,3.97c0,14.06,0.05,19.81-0.14,32.01"/>
			<path id="kvg:08e0f-Kaisho-s13" kvg:type="㇕a" d="M54.51,61.44c10.58-0.83,19.62-2.23,27.53-2.98c2.9-0.28,4.29,1.44,4.24,3.08C86,69.75,85.75,80.5,85.55,93.7"/>
			<path id="kvg:08e0f-Kaisho-s14" kvg:type="㇐a" d="M55.72,76.33c4.77-0.51,9.56-0.83,14.34-1.2c1.57-0.12,3.13-0.24,4.62-0.36"/>
			<path id="kvg:08e0f-Kaisho-s15" kvg:type="㇐a" d="M54.85,92.37c7.62-0.15,20.18-1.16,30.7-1.54"/>
		</g>
	</g>
</g>
</g>
<g id="kvg:StrokeNumbers_08e0f-Kaisho" style="font-size:8;fill:#808080">
	<text transform="matrix(1 0 0 1 9.50 31.63)">1</text>
	<text transform="matrix(1 0 0 1 17.25 21.13)">2</text>
	<text transform="matrix(1 0 0 1 21.75 37.55)">3</text>
	<text transform="matrix(1 0 0 1 22.50 50.98)">4</text>
	<text transform="matrix(1 0 0 1 35.25 52.63)">5</text>
	<text transform="matrix(1 0 0 1 8.25 60.13)">6</text>
	<text transform="matrix(1 0 0 1 4.50 86.50)">7</text>
	<text transform="matrix(1 0 0 1 59.25 15.50)">8</text>
	<text transform="matrix(1 0 0 1 47.25 29.50)">9</text>
	<text transform="matrix(1 0 0 1 76.50 21.50)">10</text>
	<text transform="matrix(1 0 0 1 83.25 39.05)">11</text>
	<text transform="matrix(1 0 0 1 43.50 67.63)">12</text>
	<text transform="matrix(1 0 0 1 55.50 58.50)">13</text>
	<text transform="matrix(1 0 0 1 57.57 73.50)">14</text>
	<text transform="matrix(1 0 0 1 57.75 89.50)">15</text>
</g>
</svg>
