<?xml version="1.0" encoding="UTF-8"?>
<!--
Copyright (C) 2009/2010/2011 Ulrich Apel.
This work is distributed under the conditions of the Creative Commons
Attribution-Share Alike 3.0 Licence. This means you are free:
* to Share - to copy, distribute and transmit the work
* to Remix - to adapt the work

Under the following conditions:
* Attribution. You must attribute the work by stating your use of KanjiVG in
  your own copyright header and linking to KanjiVG's website
  (http://kanjivg.tagaini.net)
* Share Alike. If you alter, transform, or build upon this work, you may
  distribute the resulting work only under the same or similar license to this
  one.

See http://creativecommons.org/licenses/by-sa/3.0/ for more details.
-->
<!DOCTYPE svg PUBLIC "-//W3C//DTD SVG 1.0//EN" "http://www.w3.org/TR/2001/REC-SVG-20010904/DTD/svg10.dtd" [
<!ATTLIST g
xmlns:kvg CDATA #FIXED "http://kanjivg.tagaini.net"
kvg:element CDATA #IMPLIED
kvg:variant CDATA #IMPLIED
kvg:partial CDATA #IMPLIED
kvg:original CDATA #IMPLIED
kvg:part CDATA #IMPLIED
kvg:number CDATA #IMPLIED
kvg:tradForm CDATA #IMPLIED
kvg:radicalForm CDATA #IMPLIED
kvg:position CDATA #IMPLIED
kvg:radical CDATA #IMPLIED
kvg:phon CDATA #IMPLIED >
<!ATTLIST path
xmlns:kvg CDATA #FIXED "http://kanjivg.tagaini.net"
kvg:type CDATA #IMPLIED >
]>
<svg xmlns="http://www.w3.org/2000/svg" width="109" height="109" viewBox="0 0 109 109" xmlns:kvg="https://kanjivg.tagaini.net/">
<g id="kvg:StrokePaths_08e7b" style="fill:none;stroke:#000000;stroke-width:3;stroke-linecap:round;stroke-linejoin:round;">
<g id="kvg:08e7b" kvg:element="蹻">
	<g id="kvg:08e7b-g1" kvg:element="足" kvg:position="left" kvg:radical="general">
		<g id="kvg:08e7b-g2" kvg:element="口">
			<path id="kvg:08e7b-s1" kvg:type="㇑" d="M12.28,18.64c0.37,0.39,0.75,0.72,0.91,1.22c1.28,3.9,2.85,15.21,3.73,22.22"/>
			<path id="kvg:08e7b-s2" kvg:type="㇕b" d="M14.11,20.75c8.76-2.1,17.29-3.75,21.63-4.26c1.58-0.19,2.54,1.11,2.31,2.21C37,23.77,35.9,30.35,34.62,36.15"/>
			<path id="kvg:08e7b-s3" kvg:type="㇐b" d="M17.56,39.73c5.09-0.58,11.65-1.58,18.64-2.47"/>
		</g>
		<path id="kvg:08e7b-s4" kvg:type="㇑a" d="M26.37,41.26c1.09,0.54,1.74,2.42,1.96,3.5c0.22,1.08,0,34.04-0.22,40.77"/>
		<path id="kvg:08e7b-s5" kvg:type="㇐b" d="M28.88,57.8c3.37-0.53,6.37-1.34,9.85-1.62c1.74-0.14,2.18-0.27,3.26,0"/>
		<path id="kvg:08e7b-s6" kvg:type="㇑" d="M15.87,56.23c1.09,0.54,1.74,2.42,1.96,3.5c0.22,1.08-0.33,18.71,0.42,30.29"/>
		<path id="kvg:08e7b-s7" kvg:type="㇀/㇏" d="M10.25,91.04c0.35,0.68,2.97,1.58,3.83,1.19c8.49-3.82,16.8-8.09,26.17-12.37"/>
	</g>
	<g id="kvg:08e7b-g3" kvg:element="喬" kvg:position="right">
		<g id="kvg:08e7b-g4" kvg:element="呑" kvg:position="top">
			<g id="kvg:08e7b-g5" kvg:element="夭">
				<g id="kvg:08e7b-g6" kvg:element="丿">
					<path id="kvg:08e7b-s8" kvg:type="㇒" d="M78.37,10.5c0.08,0.28,0.16,0.71-0.17,1.13c-2.75,3.57-13.92,7.77-29.32,10.85"/>
				</g>
				<g id="kvg:08e7b-g7" kvg:element="大">
					<path id="kvg:08e7b-s9" kvg:type="㇐" d="M42.47,29.68c0.87,0.21,3.11,0.31,4.07,0.28c6.35-0.23,29.65-3.65,39.71-4.66c1.2-0.12,2.93,0.08,5.63,0.42"/>
					<path id="kvg:08e7b-s10" kvg:type="㇒" d="M65.18,20.56c0.54,1.36,0.48,2.15,0.03,2.96C57.74,37.03,51.77,44.12,41.63,51.23"/>
					<path id="kvg:08e7b-s11" kvg:type="㇏" d="M70.14,27.63c5.59,4.54,17.72,15.24,23.31,18.28c1.9,1.04,2.57,1.19,3.42,1.28"/>
				</g>
			</g>
			<g id="kvg:08e7b-g8" kvg:element="口">
				<path id="kvg:08e7b-s12" kvg:type="㇑" d="M53.51,41.76c0.3,0.19,0.69,0.31,0.75,0.6c0.67,3.26,1.74,10.13,2.5,13.94"/>
				<path id="kvg:08e7b-s13" kvg:type="㇕b" d="M54.38,42.94c6.63-0.57,18.91-1.63,22.5-2.29c1.31-0.25,2.84,1.2,2.65,1.84c-0.78,2.65-1.75,5.77-2.65,10.28"/>
				<path id="kvg:08e7b-s14" kvg:type="㇐b" d="M56.57,54.63c4.22-0.77,15.42-1.4,22.14-2.2"/>
			</g>
		</g>
		<g id="kvg:08e7b-g9" kvg:element="冋" kvg:position="bottom">
			<g id="kvg:08e7b-g10" kvg:element="冂">
				<path id="kvg:08e7b-s15" kvg:type="㇑" d="M41.63,63.61c0.52,0.59,1.52,2.48,1.69,3.53c0.67,4.24,4,27.34,4,29.1"/>
				<path id="kvg:08e7b-s16" kvg:type="㇆a" d="M42.94,65.68c6.68-0.47,46.41-4.79,47.68-4.9c3.12-0.28,5.4,1.36,5.1,5.53c-0.21,2.84-3.04,16.89-5.96,26.11c-1.05,3.28-1.68,5.2-7.11-0.24"/>
			</g>
			<g id="kvg:08e7b-g11" kvg:element="口">
				<path id="kvg:08e7b-s17" kvg:type="㇑" d="M56.21,73.3c0.32,0.19,0.74,0.3,0.81,0.59c0.71,3.16,1.85,9.31,2.67,13"/>
				<path id="kvg:08e7b-s18" kvg:type="㇕b" d="M58.25,74.06c6.8-1.24,13.06-1.6,16.89-2.31c2.4-0.45,3.09,0.79,2.83,2.68c-0.44,3.13-1.09,5.37-2.27,9.06"/>
				<path id="kvg:08e7b-s19" kvg:type="㇐b" d="M59.48,85.1c4.51-0.75,12.62-1.05,17.63-1.95"/>
			</g>
		</g>
	</g>
</g>
</g>
<g id="kvg:StrokeNumbers_08e7b" style="font-size:8;fill:#808080">
	<text transform="matrix(1 0 0 1 7.50 27.50)">1</text>
	<text transform="matrix(1 0 0 1 15.50 16.50)">2</text>
	<text transform="matrix(1 0 0 1 20.50 35.50)">3</text>
	<text transform="matrix(1 0 0 1 20.50 49.50)">4</text>
	<text transform="matrix(1 0 0 1 31.50 53.50)">5</text>
	<text transform="matrix(1 0 0 1 7.50 56.50)">6</text>
	<text transform="matrix(1 0 0 1 4.50 91.50)">7</text>
	<text transform="matrix(1 0 0 1 69.12 10.00)">8</text>
	<text transform="matrix(1 0 0 1 40.06 26.58)">9</text>
	<text transform="matrix(1 0 0 1 72.73 23.46)">10</text>
	<text transform="matrix(1 0 0 1 91.12 38.68)">11</text>
	<text transform="matrix(1 0 0 1 43.40 39.00)">12</text>
	<text transform="matrix(1 0 0 1 63.10 39.01)">13</text>
	<text transform="matrix(1 0 0 1 58.91 50.40)">14</text>
	<text transform="matrix(1 0 0 1 30.68 66.51)">15</text>
	<text transform="matrix(1 0 0 1 45.30 62.83)">16</text>
	<text transform="matrix(1 0 0 1 47.93 85.44)">17</text>
	<text transform="matrix(1 0 0 1 59.96 71.12)">18</text>
	<text transform="matrix(1 0 0 1 61.79 81.48)">19</text>
</g>
</svg>
