<?xml version="1.0" encoding="UTF-8"?>
<!--
Copyright (C) 2009/2010/2011 Ulrich Apel.
This work is distributed under the conditions of the Creative Commons 
Attribution-Share Alike 3.0 Licence. This means you are free:
* to Share - to copy, distribute and transmit the work
* to Remix - to adapt the work

Under the following conditions:
* Attribution. You must attribute the work by stating your use of KanjiVG in
  your own copyright header and linking to KanjiVG's website
  (http://kanjivg.tagaini.net)
* Share Alike. If you alter, transform, or build upon this work, you may
  distribute the resulting work only under the same or similar license to this
  one.

See http://creativecommons.org/licenses/by-sa/3.0/ for more details.
-->
<!DOCTYPE svg PUBLIC "-//W3C//DTD SVG 1.0//EN" "http://www.w3.org/TR/2001/REC-SVG-20010904/DTD/svg10.dtd" [
<!ATTLIST g
xmlns:kvg CDATA #FIXED "http://kanjivg.tagaini.net"
kvg:element CDATA #IMPLIED
kvg:variant CDATA #IMPLIED
kvg:partial CDATA #IMPLIED
kvg:original CDATA #IMPLIED
kvg:part CDATA #IMPLIED
kvg:number CDATA #IMPLIED
kvg:tradForm CDATA #IMPLIED
kvg:radicalForm CDATA #IMPLIED
kvg:position CDATA #IMPLIED
kvg:radical CDATA #IMPLIED
kvg:phon CDATA #IMPLIED >
<!ATTLIST path
xmlns:kvg CDATA #FIXED "http://kanjivg.tagaini.net"
kvg:type CDATA #IMPLIED >
]>
<svg xmlns="http://www.w3.org/2000/svg" width="109" height="109" viewBox="0 0 109 109">
<g id="kvg:StrokePaths_08e94" style="fill:none;stroke:#000000;stroke-width:3;stroke-linecap:round;stroke-linejoin:round;">
<g id="kvg:08e94" kvg:element="躔">
	<g id="kvg:08e94-g1" kvg:element="足" kvg:position="left" kvg:radical="general">
		<g id="kvg:08e94-g2" kvg:element="口">
			<path id="kvg:08e94-s1" kvg:type="㇑" d="M12.28,19.71c0.37,0.32,0.84,1.05,0.91,1.47C14,26.25,15.04,35.38,15.91,41"/>
			<path id="kvg:08e94-s2" kvg:type="㇕b" d="M13.11,20.9c7.64-1.15,16.29-2.5,20.63-2.91c1.58-0.15,2.54,0.89,2.31,1.77c-1.04,4.06-2.15,12.35-3.43,17"/>
			<path id="kvg:08e94-s3" kvg:type="㇐b" d="M16.06,38.69c5.09-0.46,12.15-1.34,19.14-2.05"/>
		</g>
		<path id="kvg:08e94-s4" kvg:type="㇑a" d="M24.87,38.74c1.09,0.5,1.96,2.23,1.96,3.25c0,5.51-0.22,33.51-0.22,43.5"/>
		<path id="kvg:08e94-s5" kvg:type="㇐b" d="M26.88,60.24c3.37-0.49,5.87-1.24,9.35-1.5c1.74-0.13,2.18-0.25,3.26,0"/>
		<path id="kvg:08e94-s6" kvg:type="㇒" d="M14.37,55.49c1.09,0.5,1.74,2.25,1.96,3.25c0.22,1,0.42,20.51,0.42,32.26"/>
		<path id="kvg:08e94-s7" kvg:type="㇀/㇏" d="M12,91.57c1.25,0.68,2.25,0.68,5.2-0.6c8.57-3.72,14.24-7.97,23.3-12.98"/>
	</g>
	<g id="kvg:08e94-g3" kvg:element="廛" kvg:position="right">
		<g id="kvg:08e94-g4" kvg:element="广" kvg:position="tare">
			<path id="kvg:08e94-s8" kvg:type="㇑a" d="M67.82,12.1c0.57,0.37,1.78,2.73,1.9,3.46c0.11,0.73,0.06,2.99-0.06,7.55"/>
			<g id="kvg:08e94-g5" kvg:element="厂">
				<path id="kvg:08e94-s9" kvg:type="㇐" d="M44.65,25.1c1.23,0.4,3.48,0.47,4.7,0.4c12.77-0.67,28.64-3.73,41.02-4.26c2.04-0.09,3.27,0.19,4.3,0.39"/>
				<path id="kvg:08e94-s10" kvg:type="㇒" d="M47.95,26.7c0.03,1.61,0.07,4.15-0.06,6.46C47.11,46.76,48,80.5,37.06,94.44"/>
			</g>
		</g>
		<g id="kvg:08e94-g6" kvg:element="里">
			<path id="kvg:08e94-s11" kvg:type="㇑" d="M55.54,31.21c0.22,0.29,0.23,0.48,0.35,0.84c1,2.97,1.93,10.46,2.55,15.99"/>
			<path id="kvg:08e94-s12" kvg:type="㇕a" d="M56.57,32.16c9.06-1.23,21.8-2.57,28.07-3.08c2.3-0.19,3.39,0.7,3.37,2.57c-0.04,2.51-1.5,9.58-2.56,13.67"/>
			<path id="kvg:08e94-s13" kvg:type="㇐a" d="M57.63,38.72c2.51-0.25,27.37-2.06,29.44-2.16"/>
			<path id="kvg:08e94-s14" kvg:type="㇐a" d="M58.46,45.92c5.56-0.27,19.53-1.87,27.2-2.31"/>
			<path id="kvg:08e94-s15" kvg:type="㇑a" d="M69.82,31.52c0.22,0.48,0.85,1.14,0.87,2.1c0.16,6.75,0.05,23.21,0.05,25.11"/>
			<path id="kvg:08e94-s16" kvg:type="㇐" d="M55.25,52.45c0.91,0.32,2.58,0.35,3.49,0.32c9.47-0.36,19.01-1.27,26.05-2.5c1.49-0.26,2.43,0.15,3.18,0.3"/>
			<path id="kvg:08e94-s17" kvg:type="㇐" d="M50.35,59.64c1.17,0.44,3.32,0.51,4.49,0.44c12.19-0.74,26.01-2.74,37.32-3.27c1.95-0.09,3.12,0.21,4.1,0.43"/>
		</g>
		<g id="kvg:08e94-g7" kvg:element="儿" kvg:variant="true" kvg:original="八">
			<g id="kvg:08e94-g8" kvg:element="丿" kvg:position="left">
				<path id="kvg:08e94-s18" kvg:type="㇒" d="M62.71,61.66c0.03,0.26,0.06,0.68-0.06,1.06c-0.71,2.23-5.91,7.53-10.35,10.13"/>
			</g>
			<g id="kvg:08e94-g9" kvg:position="right">
				<path id="kvg:08e94-s19" kvg:type="㇟" d="M77.09,58.43c0.34,0.34,0.61,0.74,0.63,1.27c0.09,2.35-0.24,4.63-0.24,6.22c0,3.73,4.06,2.81,8.05,2.81c4.21,0,6.99-0.98,7.58-1.25"/>
			</g>
		</g>
		<g id="kvg:08e94-g10" kvg:element="土">
			<path id="kvg:08e94-s20" kvg:type="㇐" d="M54.28,79.33c0.9,0.33,2.54,0.35,3.45,0.33c10.29-0.15,16.96-1.76,28.6-2.05c1.5-0.04,2.4,0.16,3.15,0.32"/>
			<path id="kvg:08e94-s21" kvg:type="㇑a" d="M69.76,67.71c0.1,0.31,1.48,1.6,1.48,3.56c0,5.94-0.26,16.73-0.26,21"/>
			<path id="kvg:08e94-s22" kvg:type="㇐" d="M47.36,92.7c1.21,0.54,3.42,0.65,4.63,0.54c11.01-0.99,28.47-1.35,41.84-2.06c2.01-0.11,3.22,0.26,4.23,0.53"/>
		</g>
	</g>
</g>
</g>
<g id="kvg:StrokeNumbers_08e94" style="font-size:8;fill:#808080">
	<text transform="matrix(1 0 0 1 7.50 27.50)">1</text>
	<text transform="matrix(1 0 0 1 14.50 17.50)">2</text>
	<text transform="matrix(1 0 0 1 18.50 34.50)">3</text>
	<text transform="matrix(1 0 0 1 19.50 46.50)">4</text>
	<text transform="matrix(1 0 0 1 29.50 56.50)">5</text>
	<text transform="matrix(1 0 0 1 6.50 55.50)">6</text>
	<text transform="matrix(1 0 0 1 4.50 94.50)">7</text>
	<text transform="matrix(1 0 0 1 59.50 12.50)">8</text>
	<text transform="matrix(1 0 0 1 45.50 22.50)">9</text>
	<text transform="matrix(1 0 0 1 38.25 33.50)">10</text>
	<text transform="matrix(1 0 0 1 49.25 38.50)">11</text>
	<text transform="matrix(1 0 0 1 58.50 30.50)">12</text>
	<text transform="matrix(1 0 0 1 59.50 37.73)">13</text>
	<text transform="matrix(1 0 0 1 60.50 43.65)">14</text>
	<text transform="matrix(1 0 0 1 74.50 35.50)">15</text>
	<text transform="matrix(1 0 0 1 49.50 50.50)">16</text>
	<text transform="matrix(1 0 0 1 52.25 59.43)">17</text>
	<text transform="matrix(1 0 0 1 50.25 67.35)">18</text>
	<text transform="matrix(1 0 0 1 80.50 65.50)">19</text>
	<text transform="matrix(1 0 0 1 46.50 81.50)">20</text>
	<text transform="matrix(1 0 0 1 62.50 72.50)">21</text>
	<text transform="matrix(1 0 0 1 44.50 89.50)">22</text>
</g>
</svg>
