<?xml version="1.0" encoding="UTF-8"?>
<!--
Copyright (C) 2009/2010/2011 Ulrich Apel.
This work is distributed under the conditions of the Creative Commons 
Attribution-Share Alike 3.0 Licence. This means you are free:
* to Share - to copy, distribute and transmit the work
* to Remix - to adapt the work

Under the following conditions:
* Attribution. You must attribute the work by stating your use of KanjiVG in
  your own copyright header and linking to KanjiVG's website
  (http://kanjivg.tagaini.net)
* Share Alike. If you alter, transform, or build upon this work, you may
  distribute the resulting work only under the same or similar license to this
  one.

See http://creativecommons.org/licenses/by-sa/3.0/ for more details.
-->
<!DOCTYPE svg PUBLIC "-//W3C//DTD SVG 1.0//EN" "http://www.w3.org/TR/2001/REC-SVG-20010904/DTD/svg10.dtd" [
<!ATTLIST g
xmlns:kvg CDATA #FIXED "http://kanjivg.tagaini.net"
kvg:element CDATA #IMPLIED
kvg:variant CDATA #IMPLIED
kvg:partial CDATA #IMPLIED
kvg:original CDATA #IMPLIED
kvg:part CDATA #IMPLIED
kvg:number CDATA #IMPLIED
kvg:tradForm CDATA #IMPLIED
kvg:radicalForm CDATA #IMPLIED
kvg:position CDATA #IMPLIED
kvg:radical CDATA #IMPLIED
kvg:phon CDATA #IMPLIED >
<!ATTLIST path
xmlns:kvg CDATA #FIXED "http://kanjivg.tagaini.net"
kvg:type CDATA #IMPLIED >
]>
<svg xmlns="http://www.w3.org/2000/svg" width="109" height="109" viewBox="0 0 109 109">
<g id="kvg:StrokePaths_08eca" style="fill:none;stroke:#000000;stroke-width:3;stroke-linecap:round;stroke-linejoin:round;">
<g id="kvg:08eca" kvg:element="車" kvg:radical="general">
	<path id="kvg:08eca-s1" kvg:type="㇐" d="M26,26c2.85,0.69,6.1,0.14,8.98-0.1c11.09-0.93,25.8-2.64,38.89-3.51c2.68-0.18,5.22-0.16,7.88,0.23"/>
	<path id="kvg:08eca-s2" kvg:type="㇑" d="M27.5,37.92c0.81,0.5,1.83,2.39,1.98,3.05c0.85,3.73,1.83,11.31,2.95,18.54c0.32,2.09,0.41,3.2,0.75,5.24"/>
	<path id="kvg:08eca-s3" kvg:type="㇕a" d="M30.36,39.49c14.52-1.61,36.14-4.11,47.63-4.5c3.46-0.12,4.17,1.57,4.03,3.08c-0.42,4.32-2.01,13.81-3.5,20.19c-0.21,0.89-0.51,1.87-0.76,3"/>
	<path id="kvg:08eca-s4" kvg:type="㇐a" d="M32.5,51.25c13.75-1.5,34.25-3.75,47-4.25"/>
	<path id="kvg:08eca-s5" kvg:type="㇐a" d="M34.25,63.25C46,61.62,65,59.75,77,59.25"/>
	<path id="kvg:08eca-s6" kvg:type="㇐" d="M16,77.86c3.62,0.89,7.38,0.77,10.63,0.39c18.51-2.14,39.85-4.55,57.12-5.45c3.05-0.16,6.5-0.05,9.5,0.63"/>
	<path id="kvg:08eca-s7" kvg:type="㇑" d="M52.5,11.51c1.36,1.36,2.06,2.78,2.14,6.02c0.03,1.07-0.07,48.79-0.19,70.7c-0.02,4.27-0.05,7.36-0.07,8.65"/>
</g>
</g>
<g id="kvg:StrokeNumbers_08eca" style="font-size:8;fill:#808080">
	<text transform="matrix(1 0 0 1 17.25 26.50)">1</text>
	<text transform="matrix(1 0 0 1 20.25 45.13)">2</text>
	<text transform="matrix(1 0 0 1 33.00 36.28)">3</text>
	<text transform="matrix(1 0 0 1 35.50 48.13)">4</text>
	<text transform="matrix(1 0 0 1 35.50 60.13)">5</text>
	<text transform="matrix(1 0 0 1 6.75 80.50)">6</text>
	<text transform="matrix(1 0 0 1 43.50 11.50)">7</text>
</g>
</svg>
