<?xml version="1.0" encoding="UTF-8"?>
<!--
Copyright (C) 2009/2010/2011 Ulrich Apel.
This work is distributed under the conditions of the Creative Commons 
Attribution-Share Alike 3.0 Licence. This means you are free:
* to Share - to copy, distribute and transmit the work
* to Remix - to adapt the work

Under the following conditions:
* Attribution. You must attribute the work by stating your use of KanjiVG in
  your own copyright header and linking to KanjiVG's website
  (http://kanjivg.tagaini.net)
* Share Alike. If you alter, transform, or build upon this work, you may
  distribute the resulting work only under the same or similar license to this
  one.

See http://creativecommons.org/licenses/by-sa/3.0/ for more details.
-->
<!DOCTYPE svg PUBLIC "-//W3C//DTD SVG 1.0//EN" "http://www.w3.org/TR/2001/REC-SVG-20010904/DTD/svg10.dtd" [
<!ATTLIST g
xmlns:kvg CDATA #FIXED "http://kanjivg.tagaini.net"
kvg:element CDATA #IMPLIED
kvg:variant CDATA #IMPLIED
kvg:partial CDATA #IMPLIED
kvg:original CDATA #IMPLIED
kvg:part CDATA #IMPLIED
kvg:number CDATA #IMPLIED
kvg:tradForm CDATA #IMPLIED
kvg:radicalForm CDATA #IMPLIED
kvg:position CDATA #IMPLIED
kvg:radical CDATA #IMPLIED
kvg:phon CDATA #IMPLIED >
<!ATTLIST path
xmlns:kvg CDATA #FIXED "http://kanjivg.tagaini.net"
kvg:type CDATA #IMPLIED >
]>
<svg xmlns="http://www.w3.org/2000/svg" width="109" height="109" viewBox="0 0 109 109">
<g id="kvg:StrokePaths_08f2a-Kaisho" style="fill:none;stroke:#000000;stroke-width:3;stroke-linecap:round;stroke-linejoin:round;">
<g id="kvg:08f2a-Kaisho" kvg:element="輪">
	<g id="kvg:08f2a-Kaisho-g1" kvg:element="車" kvg:position="left" kvg:radical="general">
		<path id="kvg:08f2a-Kaisho-s1" kvg:type="㇐" d="M15.08,29.3c1.07-0.01,1.72-0.04,2.34-0.14c5.84-0.92,15.5-2.73,24.13-3.68c1.01-0.11,1.62,0.17,2.13,0.35"/>
		<path id="kvg:08f2a-Kaisho-s2" kvg:type="㇑" d="M13.81,38.77c0.46,0.44,1.06,0.77,1.14,1.35c0.63,4.18,2.37,14.48,3.25,22.39"/>
		<path id="kvg:08f2a-Kaisho-s3" kvg:type="㇕a" d="M15.6,41.35c7.07-0.84,22.68-4.34,27.51-4.47c2-0.05,2.41,1.14,2.32,2.46c-0.29,4.5-1.51,11.88-3.1,19.26"/>
		<path id="kvg:08f2a-Kaisho-s4" kvg:type="㇐a" d="M17.27,50.78c5.21-0.68,10.39-1.54,15.61-2.18c0.57-0.07,2.65-0.14,3.24-0.21"/>
		<path id="kvg:08f2a-Kaisho-s5" kvg:type="㇐a" d="M18.25,61.21c6.2-0.87,15.03-2.35,24.08-3.47"/>
		<path id="kvg:08f2a-Kaisho-s6" kvg:type="㇐" d="M11.03,75.21c0.97,0,2.45,0.11,3.33-0.03c9.14-1.43,22.39-4.43,29.33-4.56c1.45-0.03,2.32,0.22,3.04,0.46"/>
		<path id="kvg:08f2a-Kaisho-s7" kvg:type="㇑" d="M28.3,14.13c0.45,0.57,1.89,4.26,1.98,5.4c0.09,1.14-0.06,67.25-0.15,74.35"/>
	</g>
	<g id="kvg:08f2a-Kaisho-g2" kvg:element="侖" kvg:position="right">
		<g id="kvg:08f2a-Kaisho-g3" kvg:element="人" kvg:position="top">
			<path id="kvg:08f2a-Kaisho-s8" kvg:type="㇒" d="M67.59,14.65c0.05,0.69,0.1,1.79-0.1,2.78c-1.18,5.87-7.13,18.26-16.76,27.01"/>
			<path id="kvg:08f2a-Kaisho-s9" kvg:type="㇏" d="M69.37,19.35c4.61,4.02,19.41,19.49,23.31,22.83c1.32,1.14,3.02,1.62,4.34,1.94"/>
		</g>
		<g id="kvg:08f2a-Kaisho-g4" kvg:position="bottom">
			<g id="kvg:08f2a-Kaisho-g5" kvg:element="一">
				<path id="kvg:08f2a-Kaisho-s10" kvg:type="㇐" d="M57.66,45.16c0.76,0.31,2.16,0.39,2.92,0.31c4.86-0.54,11.21-2.46,16.66-2.75c1.27-0.07,2.04,0.15,2.67,0.3"/>
			</g>
			<g id="kvg:08f2a-Kaisho-g6" kvg:element="冊">
				<g id="kvg:08f2a-Kaisho-g7" kvg:element="冂">
					<path id="kvg:08f2a-Kaisho-s11" kvg:type="㇑" d="M50.82,57.84c0.47,0.59,1.05,1.53,1.13,2.61c0.43,5.8,1.17,25.51,1.77,31.4"/>
					<path id="kvg:08f2a-Kaisho-s12" kvg:type="㇆a" d="M52.44,60.03c5.95-0.47,34.88-4.42,36.05-4.59c2.5-0.36,3.42,2.49,3.44,3.67c0.14,6.33-0.23,23.89-0.23,30.56c0,4.41-1.41,2.96-3.29,1.42"/>
				</g>
				<g id="kvg:08f2a-Kaisho-g8" kvg:element="廾" kvg:variant="true">
					<g id="kvg:08f2a-Kaisho-g9" kvg:element="十" kvg:part="1" kvg:variant="true">
						<path id="kvg:08f2a-Kaisho-s13" kvg:type="㇐" d="M52.9,73.86c8.8-0.75,17.58-1.68,26.38-2.52c1.03-0.1,3.52-0.19,4.48-0.28"/>
					</g>
					<g id="kvg:08f2a-Kaisho-g10" kvg:element="丿" kvg:variant="true">
						<path id="kvg:08f2a-Kaisho-s14" kvg:type="㇑" d="M63.24,59.62c0.7,0.74,1.18,1.62,1.24,4.08c0.28,11.83-0.02,20-0.02,24.03"/>
					</g>
					<g id="kvg:08f2a-Kaisho-g11" kvg:element="十" kvg:part="2" kvg:variant="true">
						<path id="kvg:08f2a-Kaisho-s15" kvg:type="㇑" d="M75.6,57.18c0.7,0.74,1.18,1.62,1.24,4.08c0.28,11.83-0.02,22.04-0.02,26.06"/>
					</g>
				</g>
			</g>
		</g>
	</g>
</g>
</g>
<g id="kvg:StrokeNumbers_08f2a-Kaisho" style="font-size:8;fill:#808080">
	<text transform="matrix(1 0 0 1 7.99 30.13)">1</text>
	<text transform="matrix(1 0 0 1 8.25 47.50)">2</text>
	<text transform="matrix(1 0 0 1 16.50 37.78)">3</text>
	<text transform="matrix(1 0 0 1 20.50 48.20)">4</text>
	<text transform="matrix(1 0 0 1 20.66 58.63)">5</text>
	<text transform="matrix(1 0 0 1 3.49 77.50)">6</text>
	<text transform="matrix(1 0 0 1 20.50 14.50)">7</text>
	<text transform="matrix(1 0 0 1 59.25 16.63)">8</text>
	<text transform="matrix(1 0 0 1 75.50 22.03)">9</text>
	<text transform="matrix(1 0 0 1 62.25 41.50)">10</text>
	<text transform="matrix(1 0 0 1 43.50 65.50)">11</text>
	<text transform="matrix(1 0 0 1 52.50 56.50)">12</text>
	<text transform="matrix(1 0 0 1 55.50 71.50)">13</text>
	<text transform="matrix(1 0 0 1 66.50 65.50)">14</text>
	<text transform="matrix(1 0 0 1 78.50 64.50)">15</text>
</g>
</svg>
