<?xml version="1.0" encoding="UTF-8"?>
<!--
Copyright (C) 2009/2010/2011 Ulrich Apel.
This work is distributed under the conditions of the Creative Commons 
Attribution-Share Alike 3.0 Licence. This means you are free:
* to Share - to copy, distribute and transmit the work
* to Remix - to adapt the work

Under the following conditions:
* Attribution. You must attribute the work by stating your use of KanjiVG in
  your own copyright header and linking to KanjiVG's website
  (http://kanjivg.tagaini.net)
* Share Alike. If you alter, transform, or build upon this work, you may
  distribute the resulting work only under the same or similar license to this
  one.

See http://creativecommons.org/licenses/by-sa/3.0/ for more details.
-->
<!DOCTYPE svg PUBLIC "-//W3C//DTD SVG 1.0//EN" "http://www.w3.org/TR/2001/REC-SVG-20010904/DTD/svg10.dtd" [
<!ATTLIST g
xmlns:kvg CDATA #FIXED "http://kanjivg.tagaini.net"
kvg:element CDATA #IMPLIED
kvg:variant CDATA #IMPLIED
kvg:partial CDATA #IMPLIED
kvg:original CDATA #IMPLIED
kvg:part CDATA #IMPLIED
kvg:number CDATA #IMPLIED
kvg:tradForm CDATA #IMPLIED
kvg:radicalForm CDATA #IMPLIED
kvg:position CDATA #IMPLIED
kvg:radical CDATA #IMPLIED
kvg:phon CDATA #IMPLIED >
<!ATTLIST path
xmlns:kvg CDATA #FIXED "http://kanjivg.tagaini.net"
kvg:type CDATA #IMPLIED >
]>
<svg xmlns="http://www.w3.org/2000/svg" width="109" height="109" viewBox="0 0 109 109">
<g id="kvg:StrokePaths_08f5f-Kaisho" style="fill:none;stroke:#000000;stroke-width:3;stroke-linecap:round;stroke-linejoin:round;">
<g id="kvg:08f5f-Kaisho" kvg:element="轟">
	<g id="kvg:08f5f-Kaisho-g1" kvg:element="車" kvg:position="top" kvg:radical="general">
		<path id="kvg:08f5f-Kaisho-s1" kvg:type="㇐" d="M35.44,17.33c0.71,0.23,2.02,0.3,2.73,0.23c10.38-1.12,22.8-2.02,32.9-2.61c1.19-0.07,1.9,0.11,2.5,0.22"/>
		<path id="kvg:08f5f-Kaisho-s2" kvg:type="㇑" d="M37.73,22.7c0.51,0.27,1.16,1.3,1.25,1.66c0.69,2.63,1.52,8.28,2.49,13.25"/>
		<path id="kvg:08f5f-Kaisho-s3" kvg:type="㇕a" d="M39.69,23.69c7.75-0.53,25.81-2.1,31.09-2.18c2.19-0.03,2.14,1.22,2.04,2.04c-0.32,2.83-0.61,6.96-2.35,11.6"/>
		<path id="kvg:08f5f-Kaisho-s4" kvg:type="㇐a" d="M41.51,30.24c4.45-0.1,12.4-0.68,16.83-1.07c1.38-0.12,2.81-0.25,4.25-0.36"/>
		<path id="kvg:08f5f-Kaisho-s5" kvg:type="㇐a" d="M41.51,36.79c6.79-0.55,20.12-2.18,28.96-2.18"/>
		<path id="kvg:08f5f-Kaisho-s6" kvg:type="㇐" d="M30.47,43.9c0.96,0.44,2.71,0.46,3.69,0.44c11.63-0.29,31.15-3,42.51-3.29c1.6-0.04,2.57,0.21,3.37,0.42"/>
		<path id="kvg:08f5f-Kaisho-s7" kvg:type="㇑" d="M53.23,8.13c0.48,0.33,1.49,2.44,1.59,3.09c0.1,0.65-0.06,39.34-0.16,43.41"/>
	</g>
	<g id="kvg:08f5f-Kaisho-g2" kvg:position="bottom">
		<g id="kvg:08f5f-Kaisho-g3" kvg:element="車" kvg:position="left" kvg:radical="general">
			<path id="kvg:08f5f-Kaisho-s8" kvg:type="㇐" d="M16.5,59.43c0.59,0.22,1.69,0.29,2.27,0.22c8.65-1.08,18.99-1.95,27.4-2.52c0.99-0.07,1.58,0.1,2.08,0.21"/>
			<path id="kvg:08f5f-Kaisho-s9" kvg:type="㇑" d="M17.21,66.7c0.46,0.29,1.05,1.37,1.14,1.75c0.63,2.77,1.38,8.72,2.27,13.96"/>
			<path id="kvg:08f5f-Kaisho-s10" kvg:type="㇕a" d="M19,67.75c7.05-0.56,22.13-2.21,26.94-2.3c1.99-0.04,2.4,0.76,2.31,1.62c-0.29,2.98-1.51,9.37-3.09,14.25"/>
			<path id="kvg:08f5f-Kaisho-s11" kvg:type="㇐a" d="M20.66,74.65c5.04-0.13,10.07-1.02,15.07-1.51c0.62-0.06,2.74-0.12,3.37-0.17"/>
			<path id="kvg:08f5f-Kaisho-s12" kvg:type="㇐a" d="M20.66,81.55c6.18-0.58,16.96-2.3,25-2.3"/>
			<path id="kvg:08f5f-Kaisho-s13" kvg:type="㇐" d="M12.61,88.55c0.85,0.44,2.38,0.5,3.24,0.44C27,88.25,38,87,48.18,86.16c1.41-0.12,2.26,0.21,2.96,0.43"/>
			<path id="kvg:08f5f-Kaisho-s14" kvg:type="㇑" d="M30.83,49.38c0.44,0.34,1.36,2.57,1.44,3.25c0.09,0.69-0.06,42.96-0.14,47.25"/>
		</g>
		<g id="kvg:08f5f-Kaisho-g4" kvg:element="車" kvg:position="right" kvg:radical="general">
			<path id="kvg:08f5f-Kaisho-s15" kvg:type="㇐" d="M59.25,57.82c0.59,0.23,1.69,0.31,2.28,0.23c8.65-1.13,18.99-2.03,27.4-2.63c0.99-0.07,1.58,0.11,2.08,0.22"/>
			<path id="kvg:08f5f-Kaisho-s16" kvg:type="㇑" d="M59.46,63.88c0.46,0.3,1.05,1.43,1.14,1.83c0.63,2.9,1.88,9.62,2.77,15.1"/>
			<path id="kvg:08f5f-Kaisho-s17" kvg:type="㇕a" d="M61.75,64.64c7.29-0.62,22.89-2.47,27.87-2.56c2.06-0.04,2.48,0.84,2.39,1.81c-0.3,3.32-1.54,9.77-3.18,15.22"/>
			<path id="kvg:08f5f-Kaisho-s18" kvg:type="㇐a" d="M63.41,72.7c5.04-0.13,10.07-1.06,15.07-1.58c0.62-0.06,2.74-0.12,3.37-0.18"/>
			<path id="kvg:08f5f-Kaisho-s19" kvg:type="㇐a" d="M63.41,79.91c6.18-0.6,16.96-1.91,25-1.91"/>
			<path id="kvg:08f5f-Kaisho-s20" kvg:type="㇐" d="M56.36,87.31c0.85,0.46,2.38,0.46,3.24,0.46c9.65-0.02,23.36-2.19,33.34-2.49c1.41-0.04,2.26,0.22,2.96,0.45"/>
			<path id="kvg:08f5f-Kaisho-s21" kvg:type="㇑" d="M74.08,46.88c0.44,0.36,1.36,2.69,1.45,3.4s-0.06,45.36-0.14,49.85"/>
		</g>
	</g>
</g>
</g>
<g id="kvg:StrokeNumbers_08f5f-Kaisho" style="font-size:8;fill:#808080">
	<text transform="matrix(1 0 0 1 29.50 18.50)">1</text>
	<text transform="matrix(1 0 0 1 31.50 30.50)">2</text>
	<text transform="matrix(1 0 0 1 41.50 23.50)">3</text>
	<text transform="matrix(1 0 0 1 44.58 29.50)">4</text>
	<text transform="matrix(1 0 0 1 44.58 36.50)">5</text>
	<text transform="matrix(1 0 0 1 23.50 44.50)">6</text>
	<text transform="matrix(1 0 0 1 45.92 9.50)">7</text>
	<text transform="matrix(1 0 0 1 9.92 60.50)">8</text>
	<text transform="matrix(1 0 0 1 11.50 73.50)">9</text>
	<text transform="matrix(1 0 0 1 19.92 66.50)">10</text>
	<text transform="matrix(1 0 0 1 22.50 73.50)">11</text>
	<text transform="matrix(1 0 0 1 22.50 80.50)">12</text>
	<text transform="matrix(1 0 0 1 2.50 88.73)">13</text>
	<text transform="matrix(1 0 0 1 18.50 51.50)">14</text>
	<text transform="matrix(1 0 0 1 51.50 60.50)">15</text>
	<text transform="matrix(1 0 0 1 51.25 72.50)">16</text>
	<text transform="matrix(1 0 0 1 62.50 63.50)">17</text>
	<text transform="matrix(1 0 0 1 63.25 70.50)">18</text>
	<text transform="matrix(1 0 0 1 64.50 78.50)">19</text>
	<text transform="matrix(1 0 0 1 53.50 84.54)">20</text>
	<text transform="matrix(1 0 0 1 63.25 51.50)">21</text>
</g>
</svg>
