<?xml version="1.0" encoding="UTF-8"?>
<!--
Copyright (C) 2009/2010/2011 Ulrich Apel.
This work is distributed under the conditions of the Creative Commons
Attribution-Share Alike 3.0 Licence. This means you are free:
* to Share - to copy, distribute and transmit the work
* to Remix - to adapt the work

Under the following conditions:
* Attribution. You must attribute the work by stating your use of KanjiVG in
  your own copyright header and linking to KanjiVG's website
  (http://kanjivg.tagaini.net)
* Share Alike. If you alter, transform, or build upon this work, you may
  distribute the resulting work only under the same or similar license to this
  one.

See http://creativecommons.org/licenses/by-sa/3.0/ for more details.
-->
<!DOCTYPE svg PUBLIC "-//W3C//DTD SVG 1.0//EN" "http://www.w3.org/TR/2001/REC-SVG-20010904/DTD/svg10.dtd" [
<!ATTLIST g
xmlns:kvg CDATA #FIXED "http://kanjivg.tagaini.net"
kvg:element CDATA #IMPLIED
kvg:variant CDATA #IMPLIED
kvg:partial CDATA #IMPLIED
kvg:original CDATA #IMPLIED
kvg:part CDATA #IMPLIED
kvg:number CDATA #IMPLIED
kvg:tradForm CDATA #IMPLIED
kvg:radicalForm CDATA #IMPLIED
kvg:position CDATA #IMPLIED
kvg:radical CDATA #IMPLIED
kvg:phon CDATA #IMPLIED >
<!ATTLIST path
xmlns:kvg CDATA #FIXED "http://kanjivg.tagaini.net"
kvg:type CDATA #IMPLIED >
]>
<svg xmlns="http://www.w3.org/2000/svg" width="109" height="109" viewBox="0 0 109 109">
<g id="kvg:StrokePaths_08f61-Kaisho" style="fill:none;stroke:#000000;stroke-width:3;stroke-linecap:round;stroke-linejoin:round;">
<g id="kvg:08f61-Kaisho" kvg:element="轡">
	<g id="kvg:08f61-Kaisho-g1" kvg:position="top">
		<g id="kvg:08f61-Kaisho-g2" kvg:element="糸" kvg:variant="true">
			<path id="kvg:08f61-Kaisho-s1" kvg:type="㇜" d="M25.5,15c0.26,1.03,0.32,1.81-0.13,2.91c-2.27,5.55-4.96,9.57-7.72,14.21c-0.37,0.62-0.51,2.38,0,2.57c2.71,1.03,6.5,2.74,8.82,4.63"/>
			<path id="kvg:08f61-Kaisho-s2" kvg:type="㇜" d="M35.15,24.26c0.24,0.47,0.31,1.99,0,2.48c-4.59,7.29-11.43,17.45-17.73,24.1c-1.44,1.52,0.36,2.4,1.3,2.09c3.94-1.3,12.12-3.61,17.18-4.86"/>
			<path id="kvg:08f61-Kaisho-s3" kvg:type="㇔" d="M32.63,42.07c2.05,1.87,5.29,7.67,5.8,10.58"/>
			<path id="kvg:08f61-Kaisho-s4" kvg:type="㇔" d="M13.57,62.38c3.11,2.33,5.49,7.75,6.22,9.87"/>
			<path id="kvg:08f61-Kaisho-s5" kvg:type="㇔" d="M22.48,59.37c3.52,2.02,6.23,6.72,7.05,8.55"/>
			<path id="kvg:08f61-Kaisho-s6" kvg:type="㇔" d="M31.39,55.79c3.42,1.62,6.04,5.39,6.84,6.85"/>
		</g>
		<g id="kvg:08f61-Kaisho-g3" kvg:element="車" kvg:radical="tradit">
			<path id="kvg:08f61-Kaisho-s7" kvg:type="㇐" d="M41.63,22.94c0.46,0.24,1.3,0.32,1.75,0.24c6.67-1.17,15.15-1.6,21.64-2.22c0.76-0.07,1.22,0.11,1.6,0.23"/>
			<path id="kvg:08f61-Kaisho-s8" kvg:type="㇑" d="M41.68,29.7c0.36,0.31,0.81,1.48,0.88,1.89c0.48,2.98,1.07,9.39,1.75,15.04"/>
			<path id="kvg:08f61-Kaisho-s9" kvg:type="㇕a" d="M43.06,30.83c5.44-0.6,17.57-2.38,21.28-2.48c1.54-0.04,1.85,0.82,1.79,1.75c-0.23,3.21-0.78,8.98-2,14.24"/>
			<path id="kvg:08f61-Kaisho-s10" kvg:type="㇐a" d="M44.34,38.27c4.1-0.15,13.17-2.32,20.89-2.32"/>
			<path id="kvg:08f61-Kaisho-s11" kvg:type="㇐a" d="M44.34,45.7c4.77-0.62,13.58-2.48,19.79-2.48"/>
			<path id="kvg:08f61-Kaisho-s12" kvg:type="㇐" d="M41.08,53.86c0.65,0.48,1.84,0.59,2.5,0.48c8.36-1.43,13.11-2.29,20.8-2.6c1.09-0.04,1.74,0.23,2.28,0.46"/>
			<path id="kvg:08f61-Kaisho-s13" kvg:type="㇑" d="M53.07,12.74c0.34,0.37,1.05,2.77,1.11,3.51c0.07,0.74-0.04,47.17-0.11,51.79"/>
		</g>
		<g id="kvg:08f61-Kaisho-g4" kvg:element="糸" kvg:variant="true">
			<path id="kvg:08f61-Kaisho-s14" kvg:type="㇜" d="M81.01,14.75c0.25,0.97,0.31,1.72-0.13,2.76c-2.21,5.26-4.83,9.07-7.51,13.47c-0.36,0.59-0.5,2.25,0,2.44c2.63,0.97,6.32,2.6,8.57,4.38"/>
			<path id="kvg:08f61-Kaisho-s15" kvg:type="㇜" d="M90.39,23.52c0.23,0.44,0.3,1.89,0,2.35c-4.46,6.91-11.11,16.53-17.23,22.84c-1.4,1.44,0.35,2.27,1.26,1.98c3.83-1.23,11.78-3.43,16.71-4.6"/>
			<path id="kvg:08f61-Kaisho-s16" kvg:type="㇔" d="M87.95,40.41c1.99,1.77,5.14,7.27,5.64,10.02"/>
			<path id="kvg:08f61-Kaisho-s17" kvg:type="㇔" d="M69.41,59.65c3.02,2.21,5.34,7.35,6.04,9.35"/>
			<path id="kvg:08f61-Kaisho-s18" kvg:type="㇔" d="M78.08,56.8c3.42,1.92,6.05,6.37,6.85,8.1"/>
			<path id="kvg:08f61-Kaisho-s19" kvg:type="㇔" d="M86.74,53.4c3.32,1.54,5.88,5.1,6.65,6.49"/>
		</g>
	</g>
	<g id="kvg:08f61-Kaisho-g5" kvg:element="口" kvg:position="bottom" kvg:radical="nelson">
		<path id="kvg:08f61-Kaisho-s20" kvg:type="㇑" d="M31.5,73.6c0.5,0.47,1.02,0.86,1.24,1.45c1.75,4.66,2.34,14.53,3.54,22.91"/>
		<path id="kvg:08f61-Kaisho-s21" kvg:type="㇕b" d="M34.14,76.21C48,74.5,69.82,73.68,76.19,73.02c2.33-0.24,3.73,2.43,3.4,3.85c-1.38,5.87-0.96,7.93-3.92,16.4"/>
		<path id="kvg:08f61-Kaisho-s22" kvg:type="㇐b" d="M36.29,95.88C43.77,95.13,69,94.75,78.5,94"/>
	</g>
</g>
</g>
<g id="kvg:StrokeNumbers_08f61-Kaisho" style="font-size:8;fill:#808080">
	<text transform="matrix(1 0 0 1 20.00 14.13)">1</text>
	<text transform="matrix(1 0 0 1 30.50 23.55)">2</text>
	<text transform="matrix(1 0 0 1 31.50 40.50)">3</text>
	<text transform="matrix(1 0 0 1 8.50 67.50)">4</text>
	<text transform="matrix(1 0 0 1 17.50 62.50)">5</text>
	<text transform="matrix(1 0 0 1 25.50 58.50)">6</text>
	<text transform="matrix(1 0 0 1 41.25 19.93)">7</text>
	<text transform="matrix(1 0 0 1 36.50 35.50)">8</text>
	<text transform="matrix(1 0 0 1 45.50 28.50)">9</text>
	<text transform="matrix(1 0 0 1 45.50 36.50)">10</text>
	<text transform="matrix(1 0 0 1 46.50 43.50)">11</text>
	<text transform="matrix(1 0 0 1 39.50 52.50)">12</text>
	<text transform="matrix(1 0 0 1 45.50 10.50)">13</text>
	<text transform="matrix(1 0 0 1 74.50 11.50)">14</text>
	<text transform="matrix(1 0 0 1 85.50 20.50)">15</text>
	<text transform="matrix(1 0 0 1 89.50 39.50)">16</text>
	<text transform="matrix(1 0 0 1 61.50 62.50)">17</text>
	<text transform="matrix(1 0 0 1 70.50 59.50)">18</text>
	<text transform="matrix(1 0 0 1 78.50 56.50)">19</text>
	<text transform="matrix(1 0 0 1 23.50 81.50)">20</text>
</g>
</svg>
