<?xml version="1.0" encoding="UTF-8"?>
<!--
Copyright (C) 2009/2010/2011 Ulrich Apel.
This work is distributed under the conditions of the Creative Commons 
Attribution-Share Alike 3.0 Licence. This means you are free:
* to Share - to copy, distribute and transmit the work
* to Remix - to adapt the work

Under the following conditions:
* Attribution. You must attribute the work by stating your use of KanjiVG in
  your own copyright header and linking to KanjiVG's website
  (http://kanjivg.tagaini.net)
* Share Alike. If you alter, transform, or build upon this work, you may
  distribute the resulting work only under the same or similar license to this
  one.

See http://creativecommons.org/licenses/by-sa/3.0/ for more details.
-->
<!DOCTYPE svg PUBLIC "-//W3C//DTD SVG 1.0//EN" "http://www.w3.org/TR/2001/REC-SVG-20010904/DTD/svg10.dtd" [
<!ATTLIST g
xmlns:kvg CDATA #FIXED "http://kanjivg.tagaini.net"
kvg:element CDATA #IMPLIED
kvg:variant CDATA #IMPLIED
kvg:partial CDATA #IMPLIED
kvg:original CDATA #IMPLIED
kvg:part CDATA #IMPLIED
kvg:number CDATA #IMPLIED
kvg:tradForm CDATA #IMPLIED
kvg:radicalForm CDATA #IMPLIED
kvg:position CDATA #IMPLIED
kvg:radical CDATA #IMPLIED
kvg:phon CDATA #IMPLIED >
<!ATTLIST path
xmlns:kvg CDATA #FIXED "http://kanjivg.tagaini.net"
kvg:type CDATA #IMPLIED >
]>
<svg xmlns="http://www.w3.org/2000/svg" width="109" height="109" viewBox="0 0 109 109">
<g id="kvg:StrokePaths_08fb6" style="fill:none;stroke:#000000;stroke-width:3;stroke-linecap:round;stroke-linejoin:round;">
<g id="kvg:08fb6" kvg:element="辶" kvg:radical="tradit">
	<path id="kvg:08fb6-s1" kvg:type="㇔" d="M19.38,16c4.19,1.74,10.83,7.17,11.88,9.88"/>
	<path id="kvg:08fb6-s2" kvg:type="㇔" d="M13.38,35.75c4.46,1.52,11.51,6.26,12.62,8.63"/>
	<path id="kvg:08fb6-s3" kvg:type="㇋" d="M11.5,58.19c2.25,0.85,3.78,0.54,4.75,0.21C20.38,57,26,55.16,27.5,54.74c1.5-0.43,2.83,1.2,2,2.6c-7.88,13.29-8.62,7.79-0.5,16.98c0.98,1.11,0.75,2.1-0.75,3.17c-1.5,1.07-6.5,3.65-11.12,6.02"/>
	<path id="kvg:08fb6-s4" kvg:type="㇏a" d="M11.25,85.38c3.05-0.38,9.08-0.74,13.72-0.58c8.91,0.32,31.59,5.75,36.05,6.91C73.25,94.88,79,95.62,89.5,95.57"/>
</g>
</g>
<g id="kvg:StrokeNumbers_08fb6" style="font-size:8;fill:#808080">
	<text transform="matrix(1 0 0 1 11.25 15.25)">1</text>
	<text transform="matrix(1 0 0 1 6.25 36.25)">2</text>
	<text transform="matrix(1 0 0 1 4.25 58.25)">3</text>
	<text transform="matrix(1 0 0 1 4.25 85.25)">4</text>
</g>
</svg>
