<?xml version="1.0" encoding="UTF-8"?>
<!--
Copyright (C) 2009/2010/2011 Ulrich Apel.
This work is distributed under the conditions of the Creative Commons 
Attribution-Share Alike 3.0 Licence. This means you are free:
* to Share - to copy, distribute and transmit the work
* to Remix - to adapt the work

Under the following conditions:
* Attribution. You must attribute the work by stating your use of KanjiVG in
  your own copyright header and linking to KanjiVG's website
  (http://kanjivg.tagaini.net)
* Share Alike. If you alter, transform, or build upon this work, you may
  distribute the resulting work only under the same or similar license to this
  one.

See http://creativecommons.org/licenses/by-sa/3.0/ for more details.
-->
<!DOCTYPE svg PUBLIC "-//W3C//DTD SVG 1.0//EN" "http://www.w3.org/TR/2001/REC-SVG-20010904/DTD/svg10.dtd" [
<!ATTLIST g
xmlns:kvg CDATA #FIXED "http://kanjivg.tagaini.net"
kvg:element CDATA #IMPLIED
kvg:variant CDATA #IMPLIED
kvg:partial CDATA #IMPLIED
kvg:original CDATA #IMPLIED
kvg:part CDATA #IMPLIED
kvg:number CDATA #IMPLIED
kvg:tradForm CDATA #IMPLIED
kvg:radicalForm CDATA #IMPLIED
kvg:position CDATA #IMPLIED
kvg:radical CDATA #IMPLIED
kvg:phon CDATA #IMPLIED >
<!ATTLIST path
xmlns:kvg CDATA #FIXED "http://kanjivg.tagaini.net"
kvg:type CDATA #IMPLIED >
]>
<svg xmlns="http://www.w3.org/2000/svg" width="109" height="109" viewBox="0 0 109 109">
<g id="kvg:StrokePaths_08fbf-Jinmei" style="fill:none;stroke:#000000;stroke-width:3;stroke-linecap:round;stroke-linejoin:round;">
<g id="kvg:08fbf-Jinmei" kvg:element="辿">
	<g id="kvg:08fbf-Jinmei-g1" kvg:element="山">
		<path id="kvg:08fbf-Jinmei-s1" kvg:type="㇑a" d="M62.12,15.5c0.66,0.39,2.05,2.9,2.18,3.68c0.13,0.78-0.08,46.89-0.22,51.74"/>
		<path id="kvg:08fbf-Jinmei-s2" kvg:type="㇄a" d="M44.28,35.84c0.66,0.39,1.32,2.53,1.31,3.31c-0.09,5.35,0.16,22.1-0.67,31.42c-0.16,1.78-0.33,3.49,1.3,3.25c5.85-0.87,30.99-2.98,39.22-3.2"/>
		<path id="kvg:08fbf-Jinmei-s3" kvg:type="㇑" d="M85.19,31.86c0.21,0.53,1.44,3.92,1.41,4.97c-0.2,6.43-0.41,25.43-0.74,37.42"/>
	</g>
	<g id="kvg:08fbf-Jinmei-g2" kvg:element="辶" kvg:position="nyo" kvg:radical="tradit">
		<path id="kvg:08fbf-Jinmei-s4" kvg:type="㇔" d="M21.71,16.5c3.63,1.74,9.38,7.17,10.29,9.88"/>
		<path id="kvg:08fbf-Jinmei-s5" kvg:type="㇔" d="M14.96,39c4.34,0.99,11.21,4.09,12.29,5.63"/>
		<path id="kvg:08fbf-Jinmei-s6" kvg:type="㇋" d="M13.5,60.94c2.25,0.85,3.75,0.43,4.75,0.21c1-0.21,8-2.99,9.5-3.42c1.5-0.43,3.75,1.07,2.75,2.35s-4,6.19-4.75,7.26c-0.75,1.07-0.5,2.99,1,4.48s2.75,3.2,3.5,4.48C31,77.59,31,78.66,29.5,79.73c-1.5,1.07-9,7.04-10.5,7.47"/>
		<path id="kvg:08fbf-Jinmei-s7" kvg:type="㇏" d="M14.75,88.07c2.96-0.24,8.88-0.85,13.33-0.37c4.44,0.49,29.69,3.76,34.06,4.39C73.98,93.8,83.12,94.29,92,93.43"/>
	</g>
</g>
</g>
<g id="kvg:StrokeNumbers_08fbf-Jinmei" style="font-size:8;fill:#808080">
	<text transform="matrix(1 0 0 1 52.50 14.50)">1</text>
	<text transform="matrix(1 0 0 1 39.50 31.50)">2</text>
	<text transform="matrix(1 0 0 1 77.25 29.50)">3</text>
	<text transform="matrix(1 0 0 1 14.00 17.25)">4</text>
	<text transform="matrix(1 0 0 1 8.25 39.83)">5</text>
	<text transform="matrix(1 0 0 1 6.50 60.00)">6</text>
	<text transform="matrix(1 0 0 1 5.50 88.25)">7</text>
</g>
</svg>
