<?xml version="1.0" encoding="UTF-8"?>
<!--
Copyright (C) 2009/2010/2011 Ulrich Apel.
This work is distributed under the conditions of the Creative Commons 
Attribution-Share Alike 3.0 Licence. This means you are free:
* to Share - to copy, distribute and transmit the work
* to Remix - to adapt the work

Under the following conditions:
* Attribution. You must attribute the work by stating your use of KanjiVG in
  your own copyright header and linking to KanjiVG's website
  (http://kanjivg.tagaini.net)
* Share Alike. If you alter, transform, or build upon this work, you may
  distribute the resulting work only under the same or similar license to this
  one.

See http://creativecommons.org/licenses/by-sa/3.0/ for more details.
-->
<!DOCTYPE svg PUBLIC "-//W3C//DTD SVG 1.0//EN" "http://www.w3.org/TR/2001/REC-SVG-20010904/DTD/svg10.dtd" [
<!ATTLIST g
xmlns:kvg CDATA #FIXED "http://kanjivg.tagaini.net"
kvg:element CDATA #IMPLIED
kvg:variant CDATA #IMPLIED
kvg:partial CDATA #IMPLIED
kvg:original CDATA #IMPLIED
kvg:part CDATA #IMPLIED
kvg:number CDATA #IMPLIED
kvg:tradForm CDATA #IMPLIED
kvg:radicalForm CDATA #IMPLIED
kvg:position CDATA #IMPLIED
kvg:radical CDATA #IMPLIED
kvg:phon CDATA #IMPLIED >
<!ATTLIST path
xmlns:kvg CDATA #FIXED "http://kanjivg.tagaini.net"
kvg:type CDATA #IMPLIED >
]>
<svg xmlns="http://www.w3.org/2000/svg" width="109" height="109" viewBox="0 0 109 109">
<g id="kvg:StrokePaths_08fc4-Jinmei" style="fill:none;stroke:#000000;stroke-width:3;stroke-linecap:round;stroke-linejoin:round;">
<g id="kvg:08fc4-Jinmei" kvg:element="迄">
	<g id="kvg:08fc4-Jinmei-g1" kvg:element="乞">
		<g id="kvg:08fc4-Jinmei-g2" kvg:position="top">
			<path id="kvg:08fc4-Jinmei-s1" kvg:type="㇒" d="M54,11c0.04,0.7,0.17,2-0.08,2.79C50.78,23.6,46.16,32.59,38,40.5"/>
			<path id="kvg:08fc4-Jinmei-s2" kvg:type="㇐" d="M50.25,28.32c1.33-0.16,1.82-0.08,3.13-0.16c7.29-0.49,17.63-2.38,28.02-4.04c1.86-0.15,3.42-0.16,4.59,0"/>
		</g>
		<g id="kvg:08fc4-Jinmei-g3" kvg:element="乙" kvg:position="bottom">
			<path id="kvg:08fc4-Jinmei-s3" kvg:type="㇈" d="M47.25,45.09c1.5,0.66,4.3,1.3,5.12,1.15c4.13-0.75,21.39-4.85,22.2-4.75c1.31,0.16,2.36,1.55,0.82,2.95C65.75,53.25,60.75,57,53,66.5c-5.59,6.85-3,11.79,17.48,11.79C90,78.29,91.25,75,91,71.5"/>
		</g>
	</g>
	<g id="kvg:08fc4-Jinmei-g4" kvg:element="辶" kvg:position="nyo" kvg:radical="tradit">
		<path id="kvg:08fc4-Jinmei-s4" kvg:type="㇔" d="M21.21,14.5c3.63,1.74,9.38,7.17,10.29,9.88"/>
		<path id="kvg:08fc4-Jinmei-s5" kvg:type="㇔" d="M14.46,37c4.34,0.99,11.21,4.09,12.29,5.63"/>
		<path id="kvg:08fc4-Jinmei-s6" kvg:type="㇋" d="M13,58.94c2.25,0.85,3.75,0.43,4.75,0.21c1-0.21,8-2.99,9.5-3.42c1.5-0.43,3.75,1.07,2.75,2.35s-4,6.19-4.75,7.26c-0.75,1.07-0.5,2.99,1,4.48s2.75,3.2,3.5,4.48c0.75,1.28,0.75,2.35-0.75,3.42c-1.5,1.07-9,7.04-10.5,7.47"/>
		<path id="kvg:08fc4-Jinmei-s7" kvg:type="㇏" d="M14.25,86.3c3.01-0.41,9.03-1.45,13.54-0.62c4.51,0.83,30.17,6.37,34.61,7.44c12.04,2.89,21.32,3.72,30.35,2.27"/>
	</g>
</g>
</g>
<g id="kvg:StrokeNumbers_08fc4-Jinmei" style="font-size:8;fill:#808080">
	<text transform="matrix(1 0 0 1 46.50 10.50)">1</text>
	<text transform="matrix(1 0 0 1 56.50 24.50)">2</text>
	<text transform="matrix(1 0 0 1 46.50 42.50)">3</text>
	<text transform="matrix(1 0 0 1 15.50 14.50)">4</text>
	<text transform="matrix(1 0 0 1 8.50 37.50)">5</text>
	<text transform="matrix(1 0 0 1 7.50 59.50)">6</text>
	<text transform="matrix(1 0 0 1 7.50 87.50)">7</text>
</g>
</svg>
