<?xml version="1.0" encoding="UTF-8"?>
<!--
Copyright (C) 2009/2010/2011 Ulrich Apel.
This work is distributed under the conditions of the Creative Commons 
Attribution-Share Alike 3.0 Licence. This means you are free:
* to Share - to copy, distribute and transmit the work
* to Remix - to adapt the work

Under the following conditions:
* Attribution. You must attribute the work by stating your use of KanjiVG in
  your own copyright header and linking to KanjiVG's website
  (http://kanjivg.tagaini.net)
* Share Alike. If you alter, transform, or build upon this work, you may
  distribute the resulting work only under the same or similar license to this
  one.

See http://creativecommons.org/licenses/by-sa/3.0/ for more details.
-->
<!DOCTYPE svg PUBLIC "-//W3C//DTD SVG 1.0//EN" "http://www.w3.org/TR/2001/REC-SVG-20010904/DTD/svg10.dtd" [
<!ATTLIST g
xmlns:kvg CDATA #FIXED "http://kanjivg.tagaini.net"
kvg:element CDATA #IMPLIED
kvg:variant CDATA #IMPLIED
kvg:partial CDATA #IMPLIED
kvg:original CDATA #IMPLIED
kvg:part CDATA #IMPLIED
kvg:number CDATA #IMPLIED
kvg:tradForm CDATA #IMPLIED
kvg:radicalForm CDATA #IMPLIED
kvg:position CDATA #IMPLIED
kvg:radical CDATA #IMPLIED
kvg:phon CDATA #IMPLIED >
<!ATTLIST path
xmlns:kvg CDATA #FIXED "http://kanjivg.tagaini.net"
kvg:type CDATA #IMPLIED >
]>
<svg xmlns="http://www.w3.org/2000/svg" width="109" height="109" viewBox="0 0 109 109">
<g id="kvg:StrokePaths_08fef" style="fill:none;stroke:#000000;stroke-width:3;stroke-linecap:round;stroke-linejoin:round;">
<g id="kvg:08fef" kvg:element="迯">
	<g id="kvg:08fef-g1" kvg:element="外">
		<g id="kvg:08fef-g2" kvg:element="夕" kvg:position="left">
			<path id="kvg:08fef-s1" kvg:type="㇒" d="M51.88,15.28c0.16,0.6,0.58,2.41,0.31,3.59c-1.69,7.38-6.66,23.26-15.45,31.83"/>
			<path id="kvg:08fef-s2" kvg:type="㇇" d="M53.46,27.62c0.24,0.04,1.25-0.07,1.95-0.13c2.59-0.24,6.25-0.77,9.94-2.13c1.65-0.61,2.95,1.35,2.46,2.9C63.52,41.79,50.79,70.23,37,77.12"/>
			<path id="kvg:08fef-s3" kvg:type="㇔" d="M45.36,45.52c2.68,1.43,6.91,5.88,7.58,8.11"/>
		</g>
		<g id="kvg:08fef-g3" kvg:element="卜" kvg:original="ト" kvg:position="right">
			<path id="kvg:08fef-s4" kvg:type="㇑" d="M74.74,12.63c0.54,0.39,1.67,2.92,1.78,3.7c0.11,0.78-0.07,62.93-0.18,67.8"/>
			<path id="kvg:08fef-s5" kvg:type="㇔" d="M79.34,40.7c5.97,2.8,15.42,11.51,16.91,15.87"/>
		</g>
	</g>
	<g id="kvg:08fef-g4" kvg:element="辶" kvg:position="nyo" kvg:radical="tradit">
		<path id="kvg:08fef-s6" kvg:type="㇔" d="M17.46,14c3.9,1.74,10.07,7.17,11.04,9.88"/>
		<path id="kvg:08fef-s7" kvg:type="㇔" d="M12.96,33c4.34,1.61,11.21,6.63,12.29,9.13"/>
		<path id="kvg:08fef-s8" kvg:type="㇋" d="M11,55.94c2.25,0.85,3.75,0.43,4.75,0.21c1-0.21,8-2.99,9.5-3.42c1.5-0.43,3.75,1.07,2.75,2.35s-4.5,6.69-5.25,7.76c-0.75,1.07-0.5,2.99,1,4.48s2.75,3.7,3.5,4.98C28,73.59,28,74.66,26.5,75.73c-1.5,1.07-9.5,7.04-11,7.47"/>
		<path id="kvg:08fef-s9" kvg:type="㇏" d="M11.75,84.57c3.07-0.47,9.2-1.63,13.8-0.7c4.6,0.93,30.75,7.18,35.27,8.38c12.27,3.26,21.73,4.19,30.93,2.56"/>
	</g>
</g>
</g>
<g id="kvg:StrokeNumbers_08fef" style="font-size:8;fill:#808080">
	<text transform="matrix(1 0 0 1 44.50 14.50)">1</text>
	<text transform="matrix(1 0 0 1 56.50 24.50)">2</text>
	<text transform="matrix(1 0 0 1 47.50 44.50)">3</text>
	<text transform="matrix(1 0 0 1 66.50 11.50)">4</text>
	<text transform="matrix(1 0 0 1 81.50 39.33)">5</text>
	<text transform="matrix(1 0 0 1 9.50 14.50)">6</text>
	<text transform="matrix(1 0 0 1 6.50 33.50)">7</text>
	<text transform="matrix(1 0 0 1 3.50 57.50)">8</text>
	<text transform="matrix(1 0 0 1 4.50 85.50)">9</text>
</g>
</svg>
