<?xml version="1.0" encoding="UTF-8"?>
<!--
Copyright (C) 2009/2010/2011 Ulrich Apel.
This work is distributed under the conditions of the Creative Commons 
Attribution-Share Alike 3.0 Licence. This means you are free:
* to Share - to copy, distribute and transmit the work
* to Remix - to adapt the work

Under the following conditions:
* Attribution. You must attribute the work by stating your use of KanjiVG in
  your own copyright header and linking to KanjiVG's website
  (http://kanjivg.tagaini.net)
* Share Alike. If you alter, transform, or build upon this work, you may
  distribute the resulting work only under the same or similar license to this
  one.

See http://creativecommons.org/licenses/by-sa/3.0/ for more details.
-->
<!DOCTYPE svg PUBLIC "-//W3C//DTD SVG 1.0//EN" "http://www.w3.org/TR/2001/REC-SVG-20010904/DTD/svg10.dtd" [
<!ATTLIST g
xmlns:kvg CDATA #FIXED "http://kanjivg.tagaini.net"
kvg:element CDATA #IMPLIED
kvg:variant CDATA #IMPLIED
kvg:partial CDATA #IMPLIED
kvg:original CDATA #IMPLIED
kvg:part CDATA #IMPLIED
kvg:number CDATA #IMPLIED
kvg:tradForm CDATA #IMPLIED
kvg:radicalForm CDATA #IMPLIED
kvg:position CDATA #IMPLIED
kvg:radical CDATA #IMPLIED
kvg:phon CDATA #IMPLIED >
<!ATTLIST path
xmlns:kvg CDATA #FIXED "http://kanjivg.tagaini.net"
kvg:type CDATA #IMPLIED >
]>
<svg xmlns="http://www.w3.org/2000/svg" width="109" height="109" viewBox="0 0 109 109">
<g id="kvg:StrokePaths_0900b" style="fill:none;stroke:#000000;stroke-width:3;stroke-linecap:round;stroke-linejoin:round;">
<g id="kvg:0900b" kvg:element="逋">
	<g id="kvg:0900b-g1" kvg:element="甫">
		<path id="kvg:0900b-s1" kvg:type="㇐" d="M41.5,25.61c1.12,0.45,3.18,0.53,4.3,0.45c9.22-0.64,29.64-3.02,42.27-3.42c1.87-0.06,2.99,0.22,3.93,0.44"/>
		<g id="kvg:0900b-g2" kvg:element="用" kvg:variant="true">
			<path id="kvg:0900b-s2" kvg:type="㇑" d="M44.91,35.93c0.55,0.63,0.91,1.27,1.09,1.9c0.18,0.63-0.22,37.93-0.2,43.65"/>
			<path id="kvg:0900b-s3" kvg:type="㇆" d="M47.1,38.04c6.14-0.26,37.13-3.29,38.76-3.46c2.92-0.32,4.01,2.06,3.65,3.01c-0.04,2.14-0.62,26.67-0.62,41.17c0,10.34-6,1.54-7.29,0.92"/>
			<path id="kvg:0900b-s4" kvg:type="㇐" d="M47.1,51.61c8.13-0.55,34.57-2.4,41.13-2.88"/>
			<path id="kvg:0900b-s5" kvg:type="㇐" d="M47.27,64.43c5.83-0.48,34.71-2.41,41.46-2.72"/>
			<path id="kvg:0900b-s6" kvg:type="㇑" d="M64.2,11.48c1.29,0.51,2.06,2.3,2.32,3.33c0.26,1.02,0,60.94-0.26,67.34"/>
		</g>
		<g id="kvg:0900b-g3" kvg:element="丶">
			<path id="kvg:0900b-s7" kvg:type="㇔" d="M76,10.5c3.94,1.12,9.51,4.23,10.5,5.97"/>
		</g>
	</g>
	<g id="kvg:0900b-g4" kvg:element="辶" kvg:position="nyo" kvg:radical="general">
		<path id="kvg:0900b-s8" kvg:type="㇔" d="M16.96,13.5c4.25,1.66,10.98,6.81,12.04,9.38"/>
		<path id="kvg:0900b-s9" kvg:type="㇔" d="M13.21,33.5c4.25,1.52,10.98,6.26,12.04,8.63"/>
		<path id="kvg:0900b-s10" kvg:type="㇋" d="M11,55.94c2.25,0.85,3.75,0.43,4.75,0.21c1-0.21,8-2.99,9.5-3.42c1.5-0.43,3.75,1.07,2.75,2.35s-4.5,6.69-5.25,7.76c-0.75,1.07-0.5,2.99,1,4.48s2.75,3.2,3.5,4.48C28,73.09,28,74.16,26.5,75.23c-1.5,1.07-8.5,6.54-10,6.97"/>
		<path id="kvg:0900b-s11" kvg:type="㇏" d="M11.25,84.61c3.06-0.49,11.86-1.88,18.42-0.35c4.56,1.07,25.99,7.09,30.5,8.35C72.4,96,81.83,96.97,91,95.27"/>
	</g>
</g>
</g>
<g id="kvg:StrokeNumbers_0900b" style="font-size:8;fill:#808080">
	<text transform="matrix(1 0 0 1 36.25 24.50)">1</text>
	<text transform="matrix(1 0 0 1 37.50 42.55)">2</text>
	<text transform="matrix(1 0 0 1 48.50 34.50)">3</text>
	<text transform="matrix(1 0 0 1 50.50 48.50)">4</text>
	<text transform="matrix(1 0 0 1 50.50 61.50)">5</text>
	<text transform="matrix(1 0 0 1 55.50 11.50)">6</text>
	<text transform="matrix(1 0 0 1 72.25 8.50)">7</text>
	<text transform="matrix(1 0 0 1 8.50 13.50)">8</text>
	<text transform="matrix(1 0 0 1 5.25 32.03)">9</text>
	<text transform="matrix(1 0 0 1 0.25 56.95)">10</text>
	<text transform="matrix(1 0 0 1 2.50 85.88)">11</text>
</g>
</svg>
