<?xml version="1.0" encoding="UTF-8"?>
<!--
Copyright (C) 2009/2010/2011 Ulrich Apel.
This work is distributed under the conditions of the Creative Commons 
Attribution-Share Alike 3.0 Licence. This means you are free:
* to Share - to copy, distribute and transmit the work
* to Remix - to adapt the work

Under the following conditions:
* Attribution. You must attribute the work by stating your use of KanjiVG in
  your own copyright header and linking to KanjiVG's website
  (http://kanjivg.tagaini.net)
* Share Alike. If you alter, transform, or build upon this work, you may
  distribute the resulting work only under the same or similar license to this
  one.

See http://creativecommons.org/licenses/by-sa/3.0/ for more details.
-->
<!DOCTYPE svg PUBLIC "-//W3C//DTD SVG 1.0//EN" "http://www.w3.org/TR/2001/REC-SVG-20010904/DTD/svg10.dtd" [
<!ATTLIST g
xmlns:kvg CDATA #FIXED "http://kanjivg.tagaini.net"
kvg:element CDATA #IMPLIED
kvg:variant CDATA #IMPLIED
kvg:partial CDATA #IMPLIED
kvg:original CDATA #IMPLIED
kvg:part CDATA #IMPLIED
kvg:number CDATA #IMPLIED
kvg:tradForm CDATA #IMPLIED
kvg:radicalForm CDATA #IMPLIED
kvg:position CDATA #IMPLIED
kvg:radical CDATA #IMPLIED
kvg:phon CDATA #IMPLIED >
<!ATTLIST path
xmlns:kvg CDATA #FIXED "http://kanjivg.tagaini.net"
kvg:type CDATA #IMPLIED >
]>
<svg xmlns="http://www.w3.org/2000/svg" width="109" height="109" viewBox="0 0 109 109">
<g id="kvg:StrokePaths_09011" style="fill:none;stroke:#000000;stroke-width:3;stroke-linecap:round;stroke-linejoin:round;">
<g id="kvg:09011" kvg:element="逑">
	<g id="kvg:09011-g1" kvg:element="求">
		<path id="kvg:09011-s1" kvg:type="㇐" d="M41.27,31.56c1.24,0.32,3.51,0.43,4.75,0.32c13.23-1.13,30.29-3.45,42.07-3.45c2.07,0,3.31,0.15,4.34,0.31"/>
		<g id="kvg:09011-g2" kvg:element="氺" kvg:variant="true" kvg:original="水">
			<path id="kvg:09011-s2" kvg:type="㇚" d="M64.01,10.08c0.06,0.41,0.82,2.14,0.88,4.74c0.28,12.51-0.18,60.75-0.18,65.01c0,7.34-4.03,2.18-6.09,0.21"/>
			<path id="kvg:09011-s3" kvg:type="㇔" d="M46.48,43.15c3.49,1.4,9.02,5.77,9.9,7.96"/>
			<path id="kvg:09011-s4" kvg:type="㇀" d="M40.5,73.12c1.75,0.38,3.03,0.41,4.4-0.86c4.6-4.27,8.2-7.95,13.54-13.41"/>
			<path id="kvg:09011-s5" kvg:type="㇒" d="M85.92,36.73c0.08,0.39,0.14,1.06-0.16,1.56C83,43.09,77.24,48.54,71.82,51.95"/>
			<path id="kvg:09011-s6" kvg:type="㇏" d="M72.3,59.07c6.45,3.18,14.95,10.43,19.24,16.37"/>
		</g>
		<g id="kvg:09011-g3" kvg:element="丶">
			<path id="kvg:09011-s7" kvg:type="㇔" d="M75.08,10.83c4.16,1.49,10.76,6.14,11.8,8.46"/>
		</g>
	</g>
	<g id="kvg:09011-g4" kvg:element="辶" kvg:position="nyo" kvg:radical="general">
		<path id="kvg:09011-s8" kvg:type="㇔" d="M16.96,14.25c4.07,1.44,10.52,5.9,11.54,8.13"/>
		<path id="kvg:09011-s9" kvg:type="㇔" d="M13.21,33.5c4.25,1.52,10.98,6.26,12.04,8.63"/>
		<path id="kvg:09011-s10" kvg:type="㇋" d="M10.5,55.94c2.25,0.85,3.75,0.43,4.75,0.21c1-0.21,8.5-2.99,10-3.42c1.5-0.43,3.75,1.07,2.75,2.35s-4.5,7.19-5.25,8.26c-0.75,1.07-0.5,2.99,1,4.48s2.75,3.2,3.5,4.48C28,73.59,28,74.66,26.5,75.73c-1.5,1.07-9,7.04-10.5,7.47"/>
		<path id="kvg:09011-s11" kvg:type="㇏" d="M12.25,85.09c2.99-0.48,8.89-1.59,13.46-1.21c7.54,0.62,29.98,7.83,34.39,9.05c11.96,3.33,21.18,4.28,30.15,2.61"/>
	</g>
</g>
</g>
<g id="kvg:StrokeNumbers_09011" style="font-size:8;fill:#808080">
	<text transform="matrix(1 0 0 1 35.25 31.50)">1</text>
	<text transform="matrix(1 0 0 1 55.25 10.50)">2</text>
	<text transform="matrix(1 0 0 1 39.25 43.50)">3</text>
	<text transform="matrix(1 0 0 1 37.50 68.50)">4</text>
	<text transform="matrix(1 0 0 1 76.50 38.50)">5</text>
	<text transform="matrix(1 0 0 1 70.50 68.50)">6</text>
	<text transform="matrix(1 0 0 1 72.50 8.50)">7</text>
	<text transform="matrix(1 0 0 1 9.50 14.50)">8</text>
	<text transform="matrix(1 0 0 1 5.25 33.50)">9</text>
	<text transform="matrix(1 0 0 1 0.25 56.50)">10</text>
	<text transform="matrix(1 0 0 1 2.50 85.50)">11</text>
</g>
</svg>
