<?xml version="1.0" encoding="UTF-8"?>
<!--
Copyright (C) 2009/2010/2011 Ulrich Apel.
This work is distributed under the conditions of the Creative Commons 
Attribution-Share Alike 3.0 Licence. This means you are free:
* to Share - to copy, distribute and transmit the work
* to Remix - to adapt the work

Under the following conditions:
* Attribution. You must attribute the work by stating your use of KanjiVG in
  your own copyright header and linking to KanjiVG's website
  (http://kanjivg.tagaini.net)
* Share Alike. If you alter, transform, or build upon this work, you may
  distribute the resulting work only under the same or similar license to this
  one.

See http://creativecommons.org/licenses/by-sa/3.0/ for more details.
-->
<!DOCTYPE svg PUBLIC "-//W3C//DTD SVG 1.0//EN" "http://www.w3.org/TR/2001/REC-SVG-20010904/DTD/svg10.dtd" [
<!ATTLIST g
xmlns:kvg CDATA #FIXED "http://kanjivg.tagaini.net"
kvg:element CDATA #IMPLIED
kvg:variant CDATA #IMPLIED
kvg:partial CDATA #IMPLIED
kvg:original CDATA #IMPLIED
kvg:part CDATA #IMPLIED
kvg:number CDATA #IMPLIED
kvg:tradForm CDATA #IMPLIED
kvg:radicalForm CDATA #IMPLIED
kvg:position CDATA #IMPLIED
kvg:radical CDATA #IMPLIED
kvg:phon CDATA #IMPLIED >
<!ATTLIST path
xmlns:kvg CDATA #FIXED "http://kanjivg.tagaini.net"
kvg:type CDATA #IMPLIED >
]>
<svg xmlns="http://www.w3.org/2000/svg" width="109" height="109" viewBox="0 0 109 109">
<g id="kvg:StrokePaths_09023-Kaisho" style="fill:none;stroke:#000000;stroke-width:3;stroke-linecap:round;stroke-linejoin:round;">
<g id="kvg:09023-Kaisho" kvg:element="連">
	<g id="kvg:09023-Kaisho-g1" kvg:element="車">
		<path id="kvg:09023-Kaisho-s1" kvg:type="㇐" d="M44.54,24.54c0.84,0.36,2.37,0.48,3.2,0.36c12.16-1.76,23.72-2.66,35.55-3.6c1.39-0.11,2.23,0.17,2.92,0.35"/>
		<path id="kvg:09023-Kaisho-s2" kvg:type="㇑" d="M44.05,34.74c0.65,0.47,1.48,0.83,1.6,1.45c0.88,4.5,3.45,16.59,4.69,25.11"/>
		<path id="kvg:09023-Kaisho-s3" kvg:type="㇕a" d="M46.56,36.44c9.92-0.9,31.64-4.1,38.4-4.24c2.8-0.06,3.38,1.73,3.26,3.14c-0.41,4.85-2.42,15.79-4.65,23.74"/>
		<path id="kvg:09023-Kaisho-s4" kvg:type="㇐a" d="M49.4,47.67c8.26-0.77,16.49-1.86,24.75-2.62c0.83-0.08,1.66-0.15,2.5-0.22"/>
		<path id="kvg:09023-Kaisho-s5" kvg:type="㇐a" d="M50.4,59.89c8.69-0.94,22.35-2.74,33.67-2.74"/>
		<path id="kvg:09023-Kaisho-s6" kvg:type="㇐" d="M41.75,71.72c1.19,0.72,3.36,0.89,4.56,0.72c15.25-2.16,30-3.47,44.02-3.94c1.98-0.07,3.17,0.34,4.17,0.7"/>
		<path id="kvg:09023-Kaisho-s7" kvg:type="㇑" d="M64.41,10.63c0.61,0.56,1.91,4.18,2.03,5.29c0.12,1.12-0.08,63.99-0.2,70.96"/>
	</g>
	<g id="kvg:09023-Kaisho-g2" kvg:element="⻌" kvg:original="辶" kvg:position="nyo" kvg:radical="tradit">
		<path id="kvg:09023-Kaisho-s8" kvg:type="㇔" d="M21.21,19.25c3.63,1.74,9.38,7.17,10.29,9.88"/>
		<path id="kvg:09023-Kaisho-s9" kvg:type="㇋" d="M14.5,50.75c2.25,1,3.75,0.5,4.75,0.25s8-3.5,9.5-4s3.75,1.25,2.75,2.75s-4,7.25-4.75,8.5s-0.5,3.5,1,5.25s2.75,3.75,3.5,5.25s0.75,2.75-0.75,4S21.5,81,20,81.5"/>
		<path id="kvg:09023-Kaisho-s10" kvg:type="㇏a" d="M15.75,83c3-0.5,9-1.75,13.5-0.75s30.07,7.71,34.5,9C75.75,94.75,85,95.75,94,94"/>
	</g>
</g>
</g>
<g id="kvg:StrokeNumbers_09023-Kaisho" style="font-size:8;fill:#808080">
	<text transform="matrix(1 0 0 1 38.50 25.50)">1</text>
	<text transform="matrix(1 0 0 1 38.50 42.50)">2</text>
	<text transform="matrix(1 0 0 1 47.25 33.50)">3</text>
	<text transform="matrix(1 0 0 1 52.50 44.50)">4</text>
	<text transform="matrix(1 0 0 1 54.25 56.63)">5</text>
	<text transform="matrix(1 0 0 1 39.75 68.50)">6</text>
	<text transform="matrix(1 0 0 1 55.99 11.50)">7</text>
	<text transform="matrix(1 0 0 1 12.50 18.13)">8</text>
	<text transform="matrix(1 0 0 1 5.25 51.50)">9</text>
	<text transform="matrix(1 0 0 1 5.50 85.50)">10</text>
</g>
</svg>
