<?xml version="1.0" encoding="UTF-8"?>
<!--
Copyright (C) 2009/2010/2011 Ulrich Apel.
This work is distributed under the conditions of the Creative Commons 
Attribution-Share Alike 3.0 Licence. This means you are free:
* to Share - to copy, distribute and transmit the work
* to Remix - to adapt the work

Under the following conditions:
* Attribution. You must attribute the work by stating your use of KanjiVG in
  your own copyright header and linking to KanjiVG's website
  (http://kanjivg.tagaini.net)
* Share Alike. If you alter, transform, or build upon this work, you may
  distribute the resulting work only under the same or similar license to this
  one.

See http://creativecommons.org/licenses/by-sa/3.0/ for more details.
-->
<!DOCTYPE svg PUBLIC "-//W3C//DTD SVG 1.0//EN" "http://www.w3.org/TR/2001/REC-SVG-20010904/DTD/svg10.dtd" [
<!ATTLIST g
xmlns:kvg CDATA #FIXED "http://kanjivg.tagaini.net"
kvg:element CDATA #IMPLIED
kvg:variant CDATA #IMPLIED
kvg:partial CDATA #IMPLIED
kvg:original CDATA #IMPLIED
kvg:part CDATA #IMPLIED
kvg:number CDATA #IMPLIED
kvg:tradForm CDATA #IMPLIED
kvg:radicalForm CDATA #IMPLIED
kvg:position CDATA #IMPLIED
kvg:radical CDATA #IMPLIED
kvg:phon CDATA #IMPLIED >
<!ATTLIST path
xmlns:kvg CDATA #FIXED "http://kanjivg.tagaini.net"
kvg:type CDATA #IMPLIED >
]>
<svg xmlns="http://www.w3.org/2000/svg" width="109" height="109" viewBox="0 0 109 109">
<g id="kvg:StrokePaths_09035" style="fill:none;stroke:#000000;stroke-width:3;stroke-linecap:round;stroke-linejoin:round;">
<g id="kvg:09035" kvg:element="逵">
	<g id="kvg:09035-g1" kvg:element="土">
		<path id="kvg:09035-s1" kvg:type="㇐" d="M45.79,23.39c1.12,0.38,3.16,0.49,4.28,0.38c6.09-0.59,23.98-2.72,30.84-2.67c1.86,0.01,2.97,0.18,3.9,0.38"/>
		<path id="kvg:09035-s2" kvg:type="㇑a" d="M63.2,11.37c0.1,0.22,1.52,1.16,1.52,2.59c0,8.8-0.31,15.8-0.31,21.99"/>
		<path id="kvg:09035-s3" kvg:type="㇐" d="M39.22,37.39c1.31,0.41,3.71,0.57,5.01,0.41C55.84,36.43,78.06,35.3,88,34.28c2.16-0.22,3.48,0.2,4.57,0.4"/>
	</g>
	<g id="kvg:09035-g2" kvg:element="儿" kvg:variant="true" kvg:original="八">
		<g id="kvg:09035-g3" kvg:element="丿" kvg:position="left">
			<path id="kvg:09035-s4" kvg:type="㇒" d="M53.99,39.9c0.07,0.43-0.05,1.07-0.15,1.73C53,47.25,49,53.25,41.25,56.2"/>
		</g>
		<g id="kvg:09035-g4" kvg:position="right">
			<path id="kvg:09035-s5" kvg:type="㇟" d="M71.01,36.84c0.82,0.8,1.51,1.74,1.51,2.97c0,1.65-0.23,4.76-0.24,5.94c-0.04,4,1.46,4.55,8.13,4.55c4.83,0,8.38,0,10.42-1.04"/>
		</g>
	</g>
	<g id="kvg:09035-g5" kvg:element="土">
		<path id="kvg:09035-s6" kvg:type="㇐" d="M45.86,63.65c2.56,0,1.75,0.55,4.29,0.33c14.34-1.24,19.16-1.99,30.3-2.2c2.54-0.05,3.18-0.27,4.78,0"/>
		<path id="kvg:09035-s7" kvg:type="㇑a" d="M62.79,49.41c1.31,0.53,2.36,2.37,2.36,3.47c0,6.87-0.16,14.37-0.16,24.75"/>
		<path id="kvg:09035-s8" kvg:type="㇐" d="M39.5,78.63c1.5,0.53,3.81,0.9,5.75,0.78c10.5-0.62,27-2.56,41.1-2.97c1.81-0.05,4.4,0.09,6.83,0.53"/>
	</g>
	<g id="kvg:09035-g6" kvg:element="辶" kvg:position="nyo" kvg:radical="general">
		<path id="kvg:09035-s9" kvg:type="㇔" d="M16.71,13.75c4.16,1.52,10.75,6.26,11.79,8.63"/>
		<path id="kvg:09035-s10" kvg:type="㇔" d="M13.46,33.5c4.16,1.52,10.75,6.26,11.79,8.63"/>
		<path id="kvg:09035-s11" kvg:type="㇋" d="M11,55.94c2.25,0.85,3.75,0.43,4.75,0.21c1-0.21,8-2.99,9.5-3.42c1.5-0.43,3.75,1.07,2.75,2.35s-4.5,7.19-5.25,8.26c-0.75,1.07-0.5,2.99,1,4.48s2.75,2.7,3.5,3.98C28,73.09,28,74.16,26.5,75.23c-1.5,1.07-9.5,7.54-11,7.97"/>
		<path id="kvg:09035-s12" kvg:type="㇏" d="M11.75,84.63c3.07-0.5,12.12-0.72,16.8-0.24c5.95,0.61,27.75,7.12,32.27,8.4c12.27,3.46,21.73,4.45,30.93,2.72"/>
	</g>
</g>
</g>
<g id="kvg:StrokeNumbers_09035" style="font-size:8;fill:#808080">
	<text transform="matrix(1 0 0 1 41.25 20.50)">1</text>
	<text transform="matrix(1 0 0 1 53.50 10.50)">2</text>
	<text transform="matrix(1 0 0 1 37.50 34.50)">3</text>
	<text transform="matrix(1 0 0 1 44.50 46.50)">4</text>
	<text transform="matrix(1 0 0 1 65.25 44.50)">5</text>
	<text transform="matrix(1 0 0 1 38.50 65.50)">6</text>
	<text transform="matrix(1 0 0 1 55.50 51.50)">7</text>
	<text transform="matrix(1 0 0 1 36.50 75.60)">8</text>
	<text transform="matrix(1 0 0 1 9.50 13.50)">9</text>
	<text transform="matrix(1 0 0 1 3.25 33.50)">10</text>
	<text transform="matrix(1 0 0 1 1.25 55.50)">11</text>
	<text transform="matrix(1 0 0 1 1.25 84.50)">12</text>
</g>
</svg>
