<?xml version="1.0" encoding="UTF-8"?>
<!--
Copyright (C) 2009/2010/2011 Ulrich Apel.
This work is distributed under the conditions of the Creative Commons 
Attribution-Share Alike 3.0 Licence. This means you are free:
* to Share - to copy, distribute and transmit the work
* to Remix - to adapt the work

Under the following conditions:
* Attribution. You must attribute the work by stating your use of KanjiVG in
  your own copyright header and linking to KanjiVG's website
  (http://kanjivg.tagaini.net)
* Share Alike. If you alter, transform, or build upon this work, you may
  distribute the resulting work only under the same or similar license to this
  one.

See http://creativecommons.org/licenses/by-sa/3.0/ for more details.
-->
<!DOCTYPE svg PUBLIC "-//W3C//DTD SVG 1.0//EN" "http://www.w3.org/TR/2001/REC-SVG-20010904/DTD/svg10.dtd" [
<!ATTLIST g
xmlns:kvg CDATA #FIXED "http://kanjivg.tagaini.net"
kvg:element CDATA #IMPLIED
kvg:variant CDATA #IMPLIED
kvg:partial CDATA #IMPLIED
kvg:original CDATA #IMPLIED
kvg:part CDATA #IMPLIED
kvg:number CDATA #IMPLIED
kvg:tradForm CDATA #IMPLIED
kvg:radicalForm CDATA #IMPLIED
kvg:position CDATA #IMPLIED
kvg:radical CDATA #IMPLIED
kvg:phon CDATA #IMPLIED >
<!ATTLIST path
xmlns:kvg CDATA #FIXED "http://kanjivg.tagaini.net"
kvg:type CDATA #IMPLIED >
]>
<svg xmlns="http://www.w3.org/2000/svg" width="109" height="109" viewBox="0 0 109 109">
<g id="kvg:StrokePaths_0904e-HzFst" style="fill:none;stroke:#000000;stroke-width:3;stroke-linecap:round;stroke-linejoin:round;">
<g id="kvg:0904e-HzFst" kvg:element="過">
	<g id="kvg:0904e-HzFst-g1" kvg:element="咼">
		<path id="kvg:0904e-HzFst-s1" kvg:type="㇑" d="M49.3,15.94c0.52,1.05,0.91,2.31,1.05,4.2c0.52,6.94,1.9,16.18,2.43,24.8"/>
		<path id="kvg:0904e-HzFst-s2" kvg:type="㇕" d="M50.35,17.62c6.65-0.84,27.63-3.34,30.61-3.78c1.4-0.21,2.79,0.66,2.45,2.52c-0.7,3.78-2.1,20.6-2.8,26.48"/>
		<path id="kvg:0904e-HzFst-s3" kvg:type="㇐" d="M65.63,29.13c2.45-0.21,12.35-1.68,15.85-2.1"/>
		<path id="kvg:0904e-HzFst-s4" kvg:type="㇑" d="M64.14,27.29c0.76,0.42,1.22,1.89,1.37,2.73s0.1,8.62-0.06,13.87"/>
		<g id="kvg:0904e-HzFst-g2" kvg:element="冂">
			<path id="kvg:0904e-HzFst-s5" kvg:type="㇑" d="M41.75,44.94c0.52,1.05,1.21,2.74,1.4,4.62c1.1,10.93,2.1,20.18,3.65,30.34"/>
			<path id="kvg:0904e-HzFst-s6" kvg:type="㇆a" d="M43.15,47.05C49.8,46.21,87,42.8,88.31,42.5c2.8-0.63,3.6,1.48,3.7,2.52c0.35,3.57-2.26,25.23-5.23,33.34c-2.89,7.91-4.48,2.99-6.58,0.26"/>
		</g>
		<g id="kvg:0904e-HzFst-g3" kvg:element="口">
			<path id="kvg:0904e-HzFst-s7" kvg:type="㇑" d="M55.75,55.52c0.3,0.33,0.6,0.61,0.73,1.02c1.02,3.28,1.9,7.97,2.6,13.86"/>
			<path id="kvg:0904e-HzFst-s8" kvg:type="㇕b" d="M57.24,57.32c7.51-1.32,14.29-2.26,17.75-2.69c1.26-0.16,2.02,0.93,1.84,1.86c-0.75,3.83-1.83,7.01-2.74,10.4"/>
			<path id="kvg:0904e-HzFst-s9" kvg:type="㇐b" d="M59.22,68.44c4.06-0.49,11.06-0.83,16.64-1.58"/>
		</g>
	</g>
	<g id="kvg:0904e-HzFst-g4" kvg:element="⻌" kvg:original="辶" kvg:position="nyo" kvg:radical="tradit">
		<path id="kvg:0904e-HzFst-s10" kvg:type="㇔" d="M21.21,19.25c3.63,1.74,9.38,7.17,10.29,9.88"/>
		<path id="kvg:0904e-HzFst-s11" kvg:type="㇋" d="M14.5,50.75c2.25,1,3.75,0.5,4.75,0.25s8-3.5,9.5-4s3.75,1.25,2.75,2.75s-4,7.25-4.75,8.5s-0.5,3.5,1,5.25s2.75,3.75,3.5,5.25s0.75,2.75-0.75,4S21.5,81,20,81.5"/>
		<path id="kvg:0904e-HzFst-s12" kvg:type="㇏a" d="M15.75,83c3-0.5,9-1.75,13.5-0.75s30.07,7.71,34.5,9c12,3.5,21.25,4,30.25,2.25"/>
	</g>
</g>
</g>
<g id="kvg:StrokeNumbers_0904e-HzFst" style="font-size:8;fill:#808080">
	<text transform="matrix(1 0 0 1 43.50 24.50)">1</text>
	<text transform="matrix(1 0 0 1 52.50 14.50)">2</text>
	<text transform="matrix(1 0 0 1 67.50 25.50)">3</text>
	<text transform="matrix(1 0 0 1 58.50 35.50)">4</text>
	<text transform="matrix(1 0 0 1 36.50 54.50)">5</text>
	<text transform="matrix(1 0 0 1 42.75 43.50)">6</text>
	<text transform="matrix(1 0 0 1 50.25 63.50)">7</text>
	<text transform="matrix(1 0 0 1 59.25 54.13)">8</text>
	<text transform="matrix(1 0 0 1 62.50 65.50)">9</text>
	<text transform="matrix(1 0 0 1 9.50 19.50)">10</text>
	<text transform="matrix(1 0 0 1 3.50 51.50)">11</text>
	<text transform="matrix(1 0 0 1 5.50 83.50)">12</text>
</g>
</svg>
