<?xml version="1.0" encoding="UTF-8"?>
<!--
Copyright (C) 2009/2010/2011 Ulrich Apel.
This work is distributed under the conditions of the Creative Commons 
Attribution-Share Alike 3.0 Licence. This means you are free:
* to Share - to copy, distribute and transmit the work
* to Remix - to adapt the work

Under the following conditions:
* Attribution. You must attribute the work by stating your use of KanjiVG in
  your own copyright header and linking to KanjiVG's website
  (http://kanjivg.tagaini.net)
* Share Alike. If you alter, transform, or build upon this work, you may
  distribute the resulting work only under the same or similar license to this
  one.

See http://creativecommons.org/licenses/by-sa/3.0/ for more details.
-->
<!DOCTYPE svg PUBLIC "-//W3C//DTD SVG 1.0//EN" "http://www.w3.org/TR/2001/REC-SVG-20010904/DTD/svg10.dtd" [
<!ATTLIST g
xmlns:kvg CDATA #FIXED "http://kanjivg.tagaini.net"
kvg:element CDATA #IMPLIED
kvg:variant CDATA #IMPLIED
kvg:partial CDATA #IMPLIED
kvg:original CDATA #IMPLIED
kvg:part CDATA #IMPLIED
kvg:number CDATA #IMPLIED
kvg:tradForm CDATA #IMPLIED
kvg:radicalForm CDATA #IMPLIED
kvg:position CDATA #IMPLIED
kvg:radical CDATA #IMPLIED
kvg:phon CDATA #IMPLIED >
<!ATTLIST path
xmlns:kvg CDATA #FIXED "http://kanjivg.tagaini.net"
kvg:type CDATA #IMPLIED >
]>
<svg xmlns="http://www.w3.org/2000/svg" width="109" height="109" viewBox="0 0 109 109">
<g id="kvg:StrokePaths_09054" style="fill:none;stroke:#000000;stroke-width:3;stroke-linecap:round;stroke-linejoin:round;">
<g id="kvg:09054" kvg:element="達">
	<g id="kvg:09054-g1" kvg:element="土" kvg:phon="大V">
		<path id="kvg:09054-s1" kvg:type="㇐" d="M48.18,21.38c1.2,0.3,3.67,0.24,4.86,0.05c4.89-0.81,14.39-2.56,20.19-3.4c1.98-0.29,3.46-0.11,4.46,0.04"/>
		<path id="kvg:09054-s2" kvg:type="㇑a" d="M61.98,9.87c0.92,0.92,1.77,2.27,1.77,4.14c0,6.12,0.14,12.5,0.14,17.11"/>
		<path id="kvg:09054-s3" kvg:type="㇐" d="M37.43,34.73c2.75,0.52,4.98,0.25,6.71,0.04C58.57,33,68.7,31.12,84.43,29.79c2.9-0.25,4.92,0.01,6.38,0.28"/>
	</g>
	<g id="kvg:09054-g2" kvg:element="羊">
		<path id="kvg:09054-s4" kvg:type="㇔" d="M52.7,36.6c1.68,1.27,4.35,5.4,4.77,7.52"/>
		<path id="kvg:09054-s5" kvg:type="㇒" d="M75,32.85c0.31,0.52,0.33,1.58,0.22,1.89c-0.79,2.26-1.79,4.63-4.39,8.53"/>
		<path id="kvg:09054-s6" kvg:type="㇐" d="M45.39,48.03c1.17,0.21,3.3,0.28,4.47,0.12c8.33-1.15,20.7-3.52,28.28-3.84c1.94-0.08,3.11,0.03,4.08,0.13"/>
		<path id="kvg:09054-s7" kvg:type="㇐" d="M46.56,59.82c1.4,0.28,3.99,0.38,5.38,0.16c9.52-1.48,13.4-2.73,23.03-3.76c2.32-0.25,3.75-0.21,4.92-0.08"/>
		<path id="kvg:09054-s8" kvg:type="㇐" d="M39.79,71.77c1.54,0.3,4.36,0.34,5.9,0.15c12.25-1.54,27.25-3.92,39.63-4.86c2.55-0.19,4.1,0.03,5.38,0.16"/>
		<path id="kvg:09054-s9" kvg:type="㇑" d="M63.47,49.05c1.02,1.02,1.3,2.47,1.3,3.51c0,3.62,0.05,18.16,0.07,27.2c0,1.75,0.01,3.29,0.01,4.5"/>
	</g>
	<g id="kvg:09054-g3" kvg:element="⻌" kvg:original="辶" kvg:position="nyo" kvg:radical="tradit">
		<path id="kvg:09054-s10" kvg:type="㇔" d="M15.43,20.12c4.1,1.63,10.6,6.72,11.62,9.26"/>
		<path id="kvg:09054-s11" kvg:type="㇋" d="M12.06,57.42c2.25,0.91,3.75,0.46,4.75,0.23s8-4.48,9.33-5.31c1.33-0.83,3.37,0.25,2.17,2.33c-7.75,13.33-7.62,8.21,0.25,15.58c1.64,1.53,1.08,3.25-0.75,5.26c-1.27,1.39-6,5.49-9.5,7.99"/>
		<path id="kvg:09054-s12" kvg:type="㇏a" d="M14.56,85c3-0.5,8.33-0.8,13.75-0.5c6.88,0.38,29.98,5.08,34.5,6c13.5,2.75,18.38,3.75,27.75,4.25"/>
	</g>
</g>
</g>
<g id="kvg:StrokeNumbers_09054" style="font-size:8;fill:#808080">
	<text transform="matrix(1 0 0 1 41.31 21.50)">1</text>
	<text transform="matrix(1 0 0 1 53.81 9.88)">2</text>
	<text transform="matrix(1 0 0 1 36.06 31.63)">3</text>
	<text transform="matrix(1 0 0 1 47.06 42.50)">4</text>
	<text transform="matrix(1 0 0 1 67.06 39.50)">5</text>
	<text transform="matrix(1 0 0 1 38.81 49.50)">6</text>
	<text transform="matrix(1 0 0 1 40.31 60.50)">7</text>
	<text transform="matrix(1 0 0 1 39.06 69.50)">8</text>
	<text transform="matrix(1 0 0 1 57.06 55.50)">9</text>
	<text transform="matrix(1 0 0 1 3.00 18.95)">10</text>
	<text transform="matrix(1 0 0 1 0.00 56.38)">11</text>
	<text transform="matrix(1 0 0 1 3.00 87.80)">12</text>
</g>
</svg>
