<?xml version="1.0" encoding="UTF-8"?>
<!--
Copyright (C) 2009/2010/2011 Ulrich Apel.
This work is distributed under the conditions of the Creative Commons 
Attribution-Share Alike 3.0 Licence. This means you are free:
* to Share - to copy, distribute and transmit the work
* to Remix - to adapt the work

Under the following conditions:
* Attribution. You must attribute the work by stating your use of KanjiVG in
  your own copyright header and linking to KanjiVG's website
  (http://kanjivg.tagaini.net)
* Share Alike. If you alter, transform, or build upon this work, you may
  distribute the resulting work only under the same or similar license to this
  one.

See http://creativecommons.org/licenses/by-sa/3.0/ for more details.
-->
<!DOCTYPE svg PUBLIC "-//W3C//DTD SVG 1.0//EN" "http://www.w3.org/TR/2001/REC-SVG-20010904/DTD/svg10.dtd" [
<!ATTLIST g
xmlns:kvg CDATA #FIXED "http://kanjivg.tagaini.net"
kvg:element CDATA #IMPLIED
kvg:variant CDATA #IMPLIED
kvg:partial CDATA #IMPLIED
kvg:original CDATA #IMPLIED
kvg:part CDATA #IMPLIED
kvg:number CDATA #IMPLIED
kvg:tradForm CDATA #IMPLIED
kvg:radicalForm CDATA #IMPLIED
kvg:position CDATA #IMPLIED
kvg:radical CDATA #IMPLIED
kvg:phon CDATA #IMPLIED >
<!ATTLIST path
xmlns:kvg CDATA #FIXED "http://kanjivg.tagaini.net"
kvg:type CDATA #IMPLIED >
]>
<svg xmlns="http://www.w3.org/2000/svg" width="109" height="109" viewBox="0 0 109 109">
<g id="kvg:StrokePaths_09055" style="fill:none;stroke:#000000;stroke-width:3;stroke-linecap:round;stroke-linejoin:round;">
<g id="kvg:09055" kvg:element="違">
	<g id="kvg:09055-g1" kvg:element="韋" kvg:phon="韋">
		<g id="kvg:09055-g2" kvg:position="top">
			<path id="kvg:09055-s1" kvg:type="㇑a" d="M61.46,10c0.79,1,0.79,2.21,0.33,3.68c-1.17,3.69-3.81,13.39-5.04,16.47"/>
			<path id="kvg:09055-s2" kvg:type="㇕c" d="M47.25,20.28c1.5,0.35,3,0.47,4.19,0.34c8.33-0.9,19.31-1.96,23.44-2.33c2.46-0.22,4.25,0.97,3.66,3.25c-0.62,2.4-1.41,4.72-2.2,7.38"/>
			<path id="kvg:09055-s3" kvg:type="㇐" d="M40.22,32.27c1.4,0.59,3.69,0.4,5.17,0.25c6.86-0.7,27-2.6,38.87-3.34c1.89-0.12,4.18-0.14,6.02,0.33"/>
		</g>
		<g id="kvg:09055-g3" kvg:position="bottom">
			<g id="kvg:09055-g4" kvg:element="口">
				<path id="kvg:09055-s4" kvg:type="㇑" d="M48.1,39.57c0.64,0.59,1.03,1.32,1.17,2.18c0.7,2.35,1.04,4.45,1.64,8.02c0.15,0.87,0.31,1.82,0.49,2.89"/>
				<path id="kvg:09055-s5" kvg:type="㇕b" d="M49.77,40.45c7.08-0.86,20.33-2.39,25.76-2.98c2.63-0.29,4.07,0.79,2.98,3.45c-0.94,2.3-1.6,5.13-2.15,7.04"/>
				<path id="kvg:09055-s6" kvg:type="㇐b" d="M52.39,51.14c5.62-0.28,15.15-1.49,22.13-2.1c1.47-0.13,2.8-0.22,3.9-0.26"/>
			</g>
			<path id="kvg:09055-s7" kvg:type="㇐" d="M47.23,59.95c1.15,0.55,3.27,0.7,4.09,0.64c8.59-0.54,20.43-1.59,29.54-2.47c1.78-0.17,3.62-0.18,5.38,0.13"/>
			<path id="kvg:09055-s8" kvg:type="㇑a" d="M49.74,61.3c0.38,0.82,0.51,1.45,0.51,2.45c0,3.46,0.12,7.38,0.23,9.02"/>
			<path id="kvg:09055-s9" kvg:type="㇐" d="M40.23,74.01c2.45,0.61,5.16,0.23,7.64,0.07c9.55-0.64,26.41-2.01,37.88-2.55c2.68-0.13,5.33-0.3,8,0.1"/>
			<path id="kvg:09055-s10" kvg:type="㇑" d="M67.75,51.96c0.89,0.9,1.24,2.16,1.24,3.68c0,0.61,0.01,14.97-0.08,24.36c-0.03,3.53-0.04,5.12-0.04,6.5"/>
		</g>
	</g>
	<g id="kvg:09055-g5" kvg:element="⻌" kvg:original="辶" kvg:position="nyo" kvg:radical="tradit">
		<path id="kvg:09055-s11" kvg:type="㇔" d="M20.96,19.25c3.63,1.74,9.38,7.17,10.29,9.88"/>
		<path id="kvg:09055-s12" kvg:type="㇋" d="M13,50.5c2.25,1,3.75,0.5,4.75,0.25s9.26-3.47,10.75-4c2.12-0.75,3.36,0.91,2.5,2.5c-8.25,15.25-7.5,10,0.25,19.75c1.04,1.31,1,2.5-0.5,3.75S21,81,19.5,81.5"/>
		<path id="kvg:09055-s13" kvg:type="㇏a" d="M15.25,83c3-0.5,9.46-1.28,14-0.5c5.12,0.88,29.57,7.96,34,9.25c12,3.5,19.88,4.5,26.5,4.75"/>
	</g>
</g>
</g>
<g id="kvg:StrokeNumbers_09055" style="font-size:8;fill:#808080">
	<text transform="matrix(1 0 0 1 54.75 10.50)">1</text>
	<text transform="matrix(1 0 0 1 45.75 17.50)">2</text>
	<text transform="matrix(1 0 0 1 38.50 29.50)">3</text>
	<text transform="matrix(1 0 0 1 41.50 44.50)">4</text>
	<text transform="matrix(1 0 0 1 53.25 38.83)">5</text>
	<text transform="matrix(1 0 0 1 54.75 48.50)">6</text>
	<text transform="matrix(1 0 0 1 42.50 59.68)">7</text>
	<text transform="matrix(1 0 0 1 44.25 68.60)">8</text>
	<text transform="matrix(1 0 0 1 37.50 71.53)">9</text>
	<text transform="matrix(1 0 0 1 59.25 57.13)">10</text>
	<text transform="matrix(1 0 0 1 10.50 18.50)">11</text>
	<text transform="matrix(1 0 0 1 2.50 51.13)">12</text>
	<text transform="matrix(1 0 0 1 5.50 84.50)">13</text>
</g>
</svg>
