<?xml version="1.0" encoding="UTF-8"?>
<!--
Copyright (C) 2009/2010/2011 Ulrich Apel.
This work is distributed under the conditions of the Creative Commons 
Attribution-Share Alike 3.0 Licence. This means you are free:
* to Share - to copy, distribute and transmit the work
* to Remix - to adapt the work

Under the following conditions:
* Attribution. You must attribute the work by stating your use of KanjiVG in
  your own copyright header and linking to KanjiVG's website
  (http://kanjivg.tagaini.net)
* Share Alike. If you alter, transform, or build upon this work, you may
  distribute the resulting work only under the same or similar license to this
  one.

See http://creativecommons.org/licenses/by-sa/3.0/ for more details.
-->
<!DOCTYPE svg PUBLIC "-//W3C//DTD SVG 1.0//EN" "http://www.w3.org/TR/2001/REC-SVG-20010904/DTD/svg10.dtd" [
<!ATTLIST g
xmlns:kvg CDATA #FIXED "http://kanjivg.tagaini.net"
kvg:element CDATA #IMPLIED
kvg:variant CDATA #IMPLIED
kvg:partial CDATA #IMPLIED
kvg:original CDATA #IMPLIED
kvg:part CDATA #IMPLIED
kvg:number CDATA #IMPLIED
kvg:tradForm CDATA #IMPLIED
kvg:radicalForm CDATA #IMPLIED
kvg:position CDATA #IMPLIED
kvg:radical CDATA #IMPLIED
kvg:phon CDATA #IMPLIED >
<!ATTLIST path
xmlns:kvg CDATA #FIXED "http://kanjivg.tagaini.net"
kvg:type CDATA #IMPLIED >
]>
<svg xmlns="http://www.w3.org/2000/svg" width="109" height="109" viewBox="0 0 109 109">
<g id="kvg:StrokePaths_09063" style="fill:none;stroke:#000000;stroke-width:3;stroke-linecap:round;stroke-linejoin:round;">
<g id="kvg:09063" kvg:element="遣">
	<g id="kvg:09063-g1" kvg:phon="中+2+3+11+2+11+2">
		<g id="kvg:09063-g2" kvg:element="中">
			<g id="kvg:09063-g3" kvg:element="口">
				<path id="kvg:09063-s1" kvg:type="㇑" d="M48.38,18.92c0.29,0.15,0.87,1.09,0.96,1.46c0.51,2.04,1.09,4.32,1.76,7.55c0.2,0.98,0.41,2.04,0.62,3.21"/>
				<path id="kvg:09063-s2" kvg:type="㇕b" d="M50.26,20.27c7.75-1.16,22.2-3.62,28.73-4.19c2.97-0.26,4.92,0.37,3.98,3.69c-0.69,2.49-1.17,3.93-1.83,6.12"/>
				<path id="kvg:09063-s3" kvg:type="㇐b" d="M52.86,29.53c8.51-0.78,16.39-1.78,26.4-2.63c1.01-0.09,1.96,0,2.84-0.1"/>
			</g>
			<g id="kvg:09063-g4" kvg:element="丨">
				<path id="kvg:09063-s4" kvg:type="㇑a" d="M65.06,8.5c0.84,0.84,1.18,2.12,1.18,3.68c0,3.82-0.12,17.44-0.12,24.19"/>
			</g>
		</g>
		<path id="kvg:09063-s5" kvg:type="㇐" d="M38.75,39.75c3.38,0.75,6.2,0.45,8.75,0.08c12.21-1.78,30.88-3.87,39.77-4.64c2.36-0.2,4.95-0.2,7.23,0.45"/>
		<path id="kvg:09063-s6" kvg:type="㇑" d="M51.46,47.74c0.71,0.71,0.94,1.68,0.94,2.82c0,0.46,0.09,20.41,0.04,29.45c-0.01,1.98-0.03,3.44-0.05,4.05"/>
		<path id="kvg:09063-s7" kvg:type="㇕b" d="M53.52,49.99c6.19-1.04,17.48-3.07,22.89-3.93c2.63-0.41,4.65-0.46,3.68,2.75c-0.7,2.31-1.09,3.31-2.46,7.12"/>
		<path id="kvg:09063-s8" kvg:type="㇐b" d="M53.5,60.38c9.53-1.2,17.96-2.27,23.48-3.04c1.28-0.18,2.27-0.2,3.5-0.2"/>
		<path id="kvg:09063-s9" kvg:type="㇕b" d="M53.73,70.24c8.17-1.01,15.27-2.11,24.64-3.25c3.23-0.39,4.38,0.83,3.23,4.13c-0.73,2.07-1.12,3.91-2.27,7.34"/>
		<path id="kvg:09063-s10" kvg:type="㇐b" d="M53.49,82.14C57.71,81.6,69,80.23,77.25,79.5c1.39-0.12,2.69-0.23,3.85-0.31"/>
	</g>
	<g id="kvg:09063-g5" kvg:element="⻌" kvg:original="辶" kvg:position="nyo" kvg:radical="tradit">
		<path id="kvg:09063-s11" kvg:type="㇔" d="M18.71,19C22.69,20.48,29,25.08,30,27.38"/>
		<path id="kvg:09063-s12" kvg:type="㇋" d="M14.5,55.76c2,0.49,3.8,0.37,4.75-0.01c3.38-1.37,7.62-3.37,10-4.5c1.42-0.68,2.75,0.78,2,2.34C24,68.75,23.38,64.12,32.12,70.88c1.62,1.25,2,2.75-0.12,4.13c-1.6,1.04-9.62,6.12-12.5,7.74"/>
		<path id="kvg:09063-s13" kvg:type="㇏a" d="M15.25,84.25c3.75-1.12,8.93-1.19,13.54-0.42c9.96,1.67,25.59,6.76,34.61,9.52c14.35,4.39,17.35,4.89,26.35,5.14"/>
	</g>
</g>
</g>
<g id="kvg:StrokeNumbers_09063" style="font-size:8;fill:#808080">
	<text transform="matrix(1 0 0 1 42.75 25.63)">1</text>
	<text transform="matrix(1 0 0 1 51.50 16.63)">2</text>
	<text transform="matrix(1 0 0 1 54.50 27.50)">3</text>
	<text transform="matrix(1 0 0 1 56.50 8.50)">4</text>
	<text transform="matrix(1 0 0 1 36.50 37.50)">5</text>
	<text transform="matrix(1 0 0 1 43.50 53.50)">6</text>
	<text transform="matrix(1 0 0 1 54.75 46.50)">7</text>
	<text transform="matrix(1 0 0 1 56.51 57.50)">8</text>
	<text transform="matrix(1 0 0 1 56.50 67.50)">9</text>
	<text transform="matrix(1 0 0 1 56.51 78.50)">10</text>
	<text transform="matrix(1 0 0 1 8.50 19.50)">11</text>
	<text transform="matrix(1 0 0 1 5.00 55.63)">12</text>
	<text transform="matrix(1 0 0 1 5.50 86.50)">13</text>
</g>
</svg>
