<?xml version="1.0" encoding="UTF-8"?>
<!--
Copyright (C) 2009/2010/2011 Ulrich Apel.
This work is distributed under the conditions of the Creative Commons 
Attribution-Share Alike 3.0 Licence. This means you are free:
* to Share - to copy, distribute and transmit the work
* to Remix - to adapt the work

Under the following conditions:
* Attribution. You must attribute the work by stating your use of KanjiVG in
  your own copyright header and linking to KanjiVG's website
  (http://kanjivg.tagaini.net)
* Share Alike. If you alter, transform, or build upon this work, you may
  distribute the resulting work only under the same or similar license to this
  one.

See http://creativecommons.org/licenses/by-sa/3.0/ for more details.
-->
<!DOCTYPE svg PUBLIC "-//W3C//DTD SVG 1.0//EN" "http://www.w3.org/TR/2001/REC-SVG-20010904/DTD/svg10.dtd" [
<!ATTLIST g
xmlns:kvg CDATA #FIXED "http://kanjivg.tagaini.net"
kvg:element CDATA #IMPLIED
kvg:variant CDATA #IMPLIED
kvg:partial CDATA #IMPLIED
kvg:original CDATA #IMPLIED
kvg:part CDATA #IMPLIED
kvg:number CDATA #IMPLIED
kvg:tradForm CDATA #IMPLIED
kvg:radicalForm CDATA #IMPLIED
kvg:position CDATA #IMPLIED
kvg:radical CDATA #IMPLIED
kvg:phon CDATA #IMPLIED >
<!ATTLIST path
xmlns:kvg CDATA #FIXED "http://kanjivg.tagaini.net"
kvg:type CDATA #IMPLIED >
]>
<svg xmlns="http://www.w3.org/2000/svg" width="109" height="109" viewBox="0 0 109 109">
<g id="kvg:StrokePaths_0907c" style="fill:none;stroke:#000000;stroke-width:3;stroke-linecap:round;stroke-linejoin:round;">
<g id="kvg:0907c" kvg:element="遼">
	<g id="kvg:0907c-g1" kvg:element="大">
		<path id="kvg:0907c-s1" kvg:type="㇐" d="M38.79,21.89c2.96,0.49,6.06,0.05,8.34-0.19c9.29-0.99,19.35-2.2,27.74-2.85c2.75-0.21,5.55-0.54,8.28,0.03"/>
		<path id="kvg:0907c-s2" kvg:type="㇒" d="M61.66,11c0.34,1.12,0.28,1.99-0.1,3.18c-3.18,10.07-10.06,24.45-25.5,35.75"/>
		<path id="kvg:0907c-s3" kvg:type="㇏" d="M61.25,21.17c5.23,4.29,15.83,13.4,22.98,19.1c2.64,2.11,4.52,3.36,7.71,4.48"/>
	</g>
	<path id="kvg:0907c-s4" kvg:type="㇔" d="M38.12,32.12c2.64,1.03,6.82,4.23,7.48,5.83"/>
	<path id="kvg:0907c-s5" kvg:type="㇒" d="M84.15,25.05c0.06,0.31,0.12,0.8-0.11,1.24c-0.62,1.23-2.63,3.4-5.67,5.46"/>
	<g id="kvg:0907c-g2" kvg:element="日">
		<path id="kvg:0907c-s6" kvg:type="㇑" d="M47.56,42.81c0.63,0.63,1.07,1.58,1.23,2.41c0.6,3.33,1.09,6.26,1.64,9.9c0.22,1.46,0.45,3.02,0.71,4.78"/>
		<path id="kvg:0907c-s7" kvg:type="㇕a" d="M49.26,43.58c7.91-1.13,18.49-2.28,24.12-2.94c3.09-0.36,3.93,0.36,3.52,3.25c-0.38,2.64-0.99,6.57-1.58,10.13c-0.26,1.54-0.51,3.02-0.73,4.3"/>
		<path id="kvg:0907c-s8" kvg:type="㇐a" d="M50.84,51c2.32-0.3,22.19-2.47,24.11-2.59"/>
		<path id="kvg:0907c-s9" kvg:type="㇐a" d="M52.26,58.46c6.49-0.58,12.87-1.33,21.32-1.83"/>
	</g>
	<g id="kvg:0907c-g3" kvg:element="小">
		<path id="kvg:0907c-s10" kvg:type="㇚" d="M62.31,60.43c0.82,0.82,1.2,1.82,1.2,3.56c0,10.06,0.06,13.24,0.06,16.66c0,7.77-4.69,0.79-5.82-0.08"/>
		<path id="kvg:0907c-s11" kvg:type="㇒" d="M51.24,67.18c0.11,0.88-0.13,1.64-0.62,2.37c-1.99,2.95-6.28,6.61-13.51,11.2"/>
		<path id="kvg:0907c-s12" kvg:type="㇔" d="M74.25,66.63c4.88,3.24,10.25,8.62,11.87,12.64"/>
	</g>
	<g id="kvg:0907c-g4" kvg:element="⻌" kvg:original="辶" kvg:position="nyo" kvg:radical="tradit">
		<path id="kvg:0907c-s13" kvg:type="㇔" d="M14.46,22.5c3.63,1.74,9.38,7.17,10.29,9.88"/>
		<path id="kvg:0907c-s14" kvg:type="㇋" d="M11.25,54.25c1.81,0.81,4.27,0.71,6.14,0.03c2.22-0.81,7.2-2.64,8.36-3.03c1.5-0.5,2.99,1.25,2,2.75c-8.99,13.61-9.83,9.15-1.49,16.35c1.71,1.47,1.66,2.88-0.01,4.65c-2,2.12-6.88,7.62-10,10.75"/>
		<path id="kvg:0907c-s15" kvg:type="㇏a" d="M11.5,87.04c4.25-0.8,8.35-0.61,14.22-0.2c11.03,0.78,31.13,4.59,35.71,5.36c12.42,2.08,20.56,3.04,31.31,3.14"/>
	</g>
</g>
</g>
<g id="kvg:StrokeNumbers_0907c" style="font-size:8;fill:#808080">
	<text transform="matrix(1 0 0 1 35.25 19.25)">1</text>
	<text transform="matrix(1 0 0 1 53.25 10.25)">2</text>
	<text transform="matrix(1 0 0 1 72.00 27.23)">3</text>
	<text transform="matrix(1 0 0 1 32.25 33.15)">4</text>
	<text transform="matrix(1 0 0 1 87.25 25.25)">5</text>
	<text transform="matrix(1 0 0 1 43.00 53.00)">6</text>
	<text transform="matrix(1 0 0 1 56.00 39.93)">7</text>
	<text transform="matrix(1 0 0 1 54.25 47.85)">8</text>
	<text transform="matrix(1 0 0 1 55.25 56.25)">9</text>
	<text transform="matrix(1 0 0 1 54.00 66.25)">10</text>
	<text transform="matrix(1 0 0 1 42.00 68.63)">11</text>
	<text transform="matrix(1 0 0 1 76.25 66.25)">12</text>
	<text transform="matrix(1 0 0 1 4.25 23.25)">13</text>
	<text transform="matrix(1 0 0 1 1.00 55.25)">14</text>
	<text transform="matrix(1 0 0 1 2.25 87.25)">15</text>
</g>
</svg>
