<?xml version="1.0" encoding="UTF-8"?>
<!--
Copyright (C) 2009/2010/2011 Ulrich Apel.
This work is distributed under the conditions of the Creative Commons 
Attribution-Share Alike 3.0 Licence. This means you are free:
* to Share - to copy, distribute and transmit the work
* to Remix - to adapt the work

Under the following conditions:
* Attribution. You must attribute the work by stating your use of KanjiVG in
  your own copyright header and linking to KanjiVG's website
  (http://kanjivg.tagaini.net)
* Share Alike. If you alter, transform, or build upon this work, you may
  distribute the resulting work only under the same or similar license to this
  one.

See http://creativecommons.org/licenses/by-sa/3.0/ for more details.
-->
<!DOCTYPE svg PUBLIC "-//W3C//DTD SVG 1.0//EN" "http://www.w3.org/TR/2001/REC-SVG-20010904/DTD/svg10.dtd" [
<!ATTLIST g
xmlns:kvg CDATA #FIXED "http://kanjivg.tagaini.net"
kvg:element CDATA #IMPLIED
kvg:variant CDATA #IMPLIED
kvg:partial CDATA #IMPLIED
kvg:original CDATA #IMPLIED
kvg:part CDATA #IMPLIED
kvg:number CDATA #IMPLIED
kvg:tradForm CDATA #IMPLIED
kvg:radicalForm CDATA #IMPLIED
kvg:position CDATA #IMPLIED
kvg:radical CDATA #IMPLIED
kvg:phon CDATA #IMPLIED >
<!ATTLIST path
xmlns:kvg CDATA #FIXED "http://kanjivg.tagaini.net"
kvg:type CDATA #IMPLIED >
]>
<svg xmlns="http://www.w3.org/2000/svg" width="109" height="109" viewBox="0 0 109 109">
<g id="kvg:StrokePaths_09089-Kaisho" style="fill:none;stroke:#000000;stroke-width:3;stroke-linecap:round;stroke-linejoin:round;">
<g id="kvg:09089-Kaisho" kvg:element="邉">
	<g id="kvg:09089-Kaisho-g1" kvg:element="自" kvg:position="top">
		<path id="kvg:09089-Kaisho-s1" kvg:type="㇒" d="M61.18,9.92c0.14,0.09-0.13,1.6-0.22,1.87c-0.58,1.77-1.18,4.17-2.56,6.49"/>
		<g id="kvg:09089-Kaisho-g2" kvg:element="目">
			<path id="kvg:09089-Kaisho-s2" kvg:type="㇑" d="M49,19.48c0.47,0.57,1.09,0.99,1.17,1.74c0.33,3.28,2.18,21.23,2.18,21.61"/>
			<path id="kvg:09089-Kaisho-s3" kvg:type="㇕a" d="M50.46,21.21c4.04-0.71,23.85-3.29,26.58-3.41c2.04-0.09,3.64,2.53,3.47,3.23c-0.22,0.89-2.26,12.23-4.29,19.77"/>
			<path id="kvg:09089-Kaisho-s4" kvg:type="㇐a" d="M50.91,27.65c4.69-0.19,9.38-0.69,14.06-1.08c1.42-0.12,2.82-0.23,4.17-0.34"/>
			<path id="kvg:09089-Kaisho-s5" kvg:type="㇐a" d="M51.63,35.08c4.38-0.41,9.25-0.95,13.63-1.41c1.2-0.13,2.4-0.25,3.58-0.36"/>
			<path id="kvg:09089-Kaisho-s6" kvg:type="㇐a" d="M52.38,41.71c7.12-0.21,16.99-1.69,23.76-1.69"/>
		</g>
	</g>
	<g id="kvg:09089-Kaisho-g3" kvg:position="bottom">
		<g id="kvg:09089-Kaisho-g4" kvg:element="冖">
			<path id="kvg:09089-Kaisho-s7" kvg:type="㇔" d="M44.22,48.1c0,2.58-1.6,9.68-2.33,11.4"/>
			<path id="kvg:09089-Kaisho-s8" kvg:type="㇆" d="M44.29,51.3c9.46-1.05,35.18-4.28,41.39-4.14c7.51,0.17,1.71,5.57-0.16,7.85"/>
		</g>
		<g id="kvg:09089-Kaisho-g5" kvg:element="八">
			<g id="kvg:09089-Kaisho-g6" kvg:position="left">
				<path id="kvg:09089-Kaisho-s9" kvg:type="㇒" d="M57.18,55.86c0.25,0.42,0.01,0.91-0.35,1.4c-2.13,2.91-8.32,9.39-14.55,12.49"/>
			</g>
			<g id="kvg:09089-Kaisho-g7" kvg:position="right">
				<path id="kvg:09089-Kaisho-s10" kvg:type="㇏" d="M66.61,53.75c0.87,0.15,1.69,0.35,2.25,0.76c5.08,3.69,11.2,11.33,16.02,13.64c2.08,1,2.82,1.53,4.84,1.85"/>
			</g>
		</g>
		<g id="kvg:09089-Kaisho-g8" kvg:element="口">
			<path id="kvg:09089-Kaisho-s11" kvg:type="㇑" d="M51.25,70.56c0.35,0.33,0.72,0.61,0.87,1.03c1.23,3.31,2.19,9.95,3.03,15.9"/>
			<path id="kvg:09089-Kaisho-s12" kvg:type="㇕b" d="M52.95,72.81c7.23-1.73,15.53-3.14,19.67-3.58c1.51-0.16,2.42,0.94,2.21,1.88c-0.9,3.87-1.94,7.55-3.28,12.9"/>
			<path id="kvg:09089-Kaisho-s13" kvg:type="㇐b" d="M54.82,86.59c4.86-0.49,12.07-1.34,18.74-2.1"/>
		</g>
	</g>
	<g id="kvg:09089-Kaisho-g9" kvg:element="辶" kvg:position="nyo" kvg:radical="tradit">
		<path id="kvg:09089-Kaisho-s14" kvg:type="㇔" d="M20.71,14.75c3.81,1.61,9.84,6.63,10.79,9.13"/>
		<path id="kvg:09089-Kaisho-s15" kvg:type="㇔" d="M19.46,32.5c3.81,1.52,9.84,6.26,10.79,8.63"/>
		<path id="kvg:09089-Kaisho-s16" kvg:type="㇋" d="M13.5,55.44c2.25,0.85,3.75,0.43,4.75,0.21c1-0.21,8-1.99,9.5-2.42c1.5-0.43,3.75,1.07,2.75,2.35s-4,6.19-4.75,7.26c-0.75,1.07-0.5,2.99,1,4.48s3.75,2.7,4.5,3.98c0.75,1.28,0.39,1.97-0.75,3.42c-2,2.52-7.75,8.02-10.5,9.97"/>
		<path id="kvg:09089-Kaisho-s17" kvg:type="㇏" d="M15.25,87.07c2.8-0.47,8.32-1.14,12.59-0.7C34,87,55.83,93.34,60.03,94.25C72.75,97,77.5,97.5,84.75,97.81"/>
	</g>
</g>
</g>
<g id="kvg:StrokeNumbers_09089-Kaisho" style="font-size:8;fill:#808080">
	<text transform="matrix(1 0 0 1 53.50 9.50)">1</text>
	<text transform="matrix(1 0 0 1 42.75 25.50)">2</text>
	<text transform="matrix(1 0 0 1 52.50 18.60)">3</text>
	<text transform="matrix(1 0 0 1 55.00 25.52)">4</text>
	<text transform="matrix(1 0 0 1 55.75 33.70)">5</text>
	<text transform="matrix(1 0 0 1 56.50 40.62)">6</text>
	<text transform="matrix(1 0 0 1 37.50 50.50)">7</text>
	<text transform="matrix(1 0 0 1 46.50 47.50)">8</text>
	<text transform="matrix(1 0 0 1 48.50 58.50)">9</text>
	<text transform="matrix(1 0 0 1 72.50 56.50)">10</text>
	<text transform="matrix(1 0 0 1 43.50 77.50)">11</text>
	<text transform="matrix(1 0 0 1 54.25 69.50)">12</text>
	<text transform="matrix(1 0 0 1 56.50 83.50)">13</text>
	<text transform="matrix(1 0 0 1 9.50 15.50)">14</text>
	<text transform="matrix(1 0 0 1 9.50 33.50)">15</text>
	<text transform="matrix(1 0 0 1 3.50 55.50)">16</text>
	<text transform="matrix(1 0 0 1 6.50 87.50)">17</text>
</g>
</svg>
