<?xml version="1.0" encoding="UTF-8"?>
<!--
Copyright (C) 2009/2010/2011 Ulrich Apel.
This work is distributed under the conditions of the Creative Commons 
Attribution-Share Alike 3.0 Licence. This means you are free:
* to Share - to copy, distribute and transmit the work
* to Remix - to adapt the work

Under the following conditions:
* Attribution. You must attribute the work by stating your use of KanjiVG in
  your own copyright header and linking to KanjiVG's website
  (http://kanjivg.tagaini.net)
* Share Alike. If you alter, transform, or build upon this work, you may
  distribute the resulting work only under the same or similar license to this
  one.

See http://creativecommons.org/licenses/by-sa/3.0/ for more details.
-->
<!DOCTYPE svg PUBLIC "-//W3C//DTD SVG 1.0//EN" "http://www.w3.org/TR/2001/REC-SVG-20010904/DTD/svg10.dtd" [
<!ATTLIST g
xmlns:kvg CDATA #FIXED "http://kanjivg.tagaini.net"
kvg:element CDATA #IMPLIED
kvg:variant CDATA #IMPLIED
kvg:partial CDATA #IMPLIED
kvg:original CDATA #IMPLIED
kvg:part CDATA #IMPLIED
kvg:number CDATA #IMPLIED
kvg:tradForm CDATA #IMPLIED
kvg:radicalForm CDATA #IMPLIED
kvg:position CDATA #IMPLIED
kvg:radical CDATA #IMPLIED
kvg:phon CDATA #IMPLIED >
<!ATTLIST path
xmlns:kvg CDATA #FIXED "http://kanjivg.tagaini.net"
kvg:type CDATA #IMPLIED >
]>
<svg xmlns="http://www.w3.org/2000/svg" width="109" height="109" viewBox="0 0 109 109">
<g id="kvg:StrokePaths_090ce" style="fill:none;stroke:#000000;stroke-width:3;stroke-linecap:round;stroke-linejoin:round;">
<g id="kvg:090ce" kvg:element="郎">
	<g id="kvg:090ce-g1" kvg:element="良" kvg:partial="true" kvg:position="left" kvg:phon="良">
		<path id="kvg:090ce-s1" kvg:type="㇑a" d="M33.95,10.76c0.9,0.9,1.09,1.74,1.09,3.25C35.04,15.14,35,23.23,35,26"/>
		<g id="kvg:090ce-g2" kvg:element="艮" kvg:partial="true">
			<path id="kvg:090ce-s2" kvg:type="㇕" d="M19.89,27.11c1.61,0.89,3.35,1.12,5.61,0.82c5.37-0.72,14.9-1.6,18.64-1.97c2.48-0.25,5.02-0.23,4.82,3.02c-0.35,5.83-0.88,14.23-1.55,21.25c-0.19,2.02-0.39,3.17-0.61,4.87"/>
			<path id="kvg:090ce-s3" kvg:type="㇐a" d="M22.91,40.98C27.5,40.5,40.25,39,47.2,38.66"/>
			<path id="kvg:090ce-s4" kvg:type="㇐a" d="M23.05,54.21c4.97-0.52,13.83-1.71,23.25-2.34"/>
			<path id="kvg:090ce-s5" kvg:type="㇙" d="M20.89,27.61c0.94,0.94,1.1,1.77,1.1,3.11c0,1.02-0.12,43.69-0.12,53.53c0,2.61,1.25,2.5,2.44,1.65c4.16-2.98,15.52-11.15,20.14-13.87"/>
			<path id="kvg:090ce-s6" kvg:type="㇔" d="M40.75,63.5c3.01,2.91,7.75,10.67,9.47,16.81"/>
		</g>
	</g>
	<g id="kvg:090ce-g3" kvg:element="⻏" kvg:variant="true" kvg:original="邑" kvg:position="right" kvg:radical="general">
		<path id="kvg:090ce-s7" kvg:type="㇇" d="M61.41,19.96c1.59,0.29,2.55,0.59,3.84,0.52C73.5,20,79,19.25,86,17.73c4.23-0.92,5.54,1.99,3.7,4.89c-1.84,2.9-9.92,15.98-13.15,20.12"/>
		<path id="kvg:090ce-s8" kvg:type="㇕va" d="M76.56,42.74C95.75,59.88,96,86,81.61,77.88"/>
		<path id="kvg:090ce-s9" kvg:type="㇑" d="M64.87,21c0.94,0.94,0.96,2.23,0.96,3.25c0,8.82,0.02,45.86,0.03,64.75c0,4.12,0,7.44,0,9.5"/>
	</g>
</g>
</g>
<g id="kvg:StrokeNumbers_090ce" style="font-size:8;fill:#808080">
	<text transform="matrix(1 0 0 1 24.25 11.88)">1</text>
	<text transform="matrix(1 0 0 1 24.25 25.25)">2</text>
	<text transform="matrix(1 0 0 1 26.25 37.25)">3</text>
	<text transform="matrix(1 0 0 1 26.08 51.25)">4</text>
	<text transform="matrix(1 0 0 1 14.25 35.25)">5</text>
	<text transform="matrix(1 0 0 1 34.25 64.25)">6</text>
	<text transform="matrix(1 0 0 1 66.50 16.38)">7</text>
	<text transform="matrix(1 0 0 1 72.50 52.38)">8</text>
	<text transform="matrix(1 0 0 1 57.50 29.88)">9</text>
</g>
</svg>
