<?xml version="1.0" encoding="UTF-8"?>
<!--
Copyright (C) 2009/2010/2011 Ulrich Apel.
This work is distributed under the conditions of the Creative Commons
Attribution-Share Alike 3.0 Licence. This means you are free:
* to Share - to copy, distribute and transmit the work
* to Remix - to adapt the work

Under the following conditions:
* Attribution. You must attribute the work by stating your use of KanjiVG in
  your own copyright header and linking to KanjiVG's website
  (http://kanjivg.tagaini.net)
* Share Alike. If you alter, transform, or build upon this work, you may
  distribute the resulting work only under the same or similar license to this
  one.

See http://creativecommons.org/licenses/by-sa/3.0/ for more details.
-->
<!DOCTYPE svg PUBLIC "-//W3C//DTD SVG 1.0//EN" "http://www.w3.org/TR/2001/REC-SVG-20010904/DTD/svg10.dtd" [
<!ATTLIST g
xmlns:kvg CDATA #FIXED "http://kanjivg.tagaini.net"
kvg:element CDATA #IMPLIED
kvg:variant CDATA #IMPLIED
kvg:partial CDATA #IMPLIED
kvg:original CDATA #IMPLIED
kvg:part CDATA #IMPLIED
kvg:number CDATA #IMPLIED
kvg:tradForm CDATA #IMPLIED
kvg:radicalForm CDATA #IMPLIED
kvg:position CDATA #IMPLIED
kvg:radical CDATA #IMPLIED
kvg:phon CDATA #IMPLIED >
<!ATTLIST path
xmlns:kvg CDATA #FIXED "http://kanjivg.tagaini.net"
kvg:type CDATA #IMPLIED >
]>
<svg xmlns="http://www.w3.org/2000/svg" width="109" height="109" viewBox="0 0 109 109" xmlns:kvg="https://kanjivg.tagaini.net/">
<g id="kvg:StrokePaths_090de" style="fill:none;stroke:#000000;stroke-width:3;stroke-linecap:round;stroke-linejoin:round;">
<g id="kvg:090de" kvg:element="郞">
	<g id="kvg:090de-g1" kvg:element="良" kvg:partial="true" kvg:position="left">
		<path id="kvg:090de-s1" kvg:type="㇑a" d="M25.53,12.5c1.18,0.58,1.89,1.43,2.11,2.57c0.24,1.14,0.24,8.28,0.24,11.12"/>
		<g id="kvg:090de-g2" kvg:element="艮" kvg:partial="true">
			<path id="kvg:090de-s2" kvg:type="㇕" d="M14.94,27.62c2.06-0.12,24.85-3.02,26.72-3.25c3.18-0.39,3.97,1.44,3.84,3.27c-0.52,7.72-2.17,19.8-3.26,27.63"/>
			<path id="kvg:090de-s3" kvg:type="㇐a" d="M15.3,40.49c5.28-0.49,19.92-2.04,27.89-2.39"/>
			<path id="kvg:090de-s4" kvg:type="㇐a" d="M15.17,54.86c5.7-0.53,17.74-1.76,27.56-2.66"/>
			<path id="kvg:090de-s5" kvg:type="㇙" d="M12.4,25.45c1.18,0.58,1.89,2.57,2.13,3.71c0.2,1.04-0.13,48.78-0.13,58.89c0,2.68,1.43,2.57,2.8,1.7c4.77-3.06,16.02-9.39,21.33-12.19"/>
			<path id="kvg:090de-s6" kvg:type="㇒" d="M47.95,65.18c0.03,0.43,0.11,0.64-0.13,1.01c-1.69,2.62-2.86,4.29-9.9,7.34"/>
			<path id="kvg:090de-s7" kvg:type="㇔/㇏" d="M28.12,69.82c7.55,3.17,14.86,8.64,19.16,15.33"/>
		</g>
	</g>
	<g id="kvg:090de-g3" kvg:element="⻏" kvg:variant="true" kvg:original="邑" kvg:position="right" kvg:radical="general">
		<path id="kvg:090de-s8" kvg:type="㇇" d="M58.77,19.95c1.72,0.28,2.77,0.56,4.16,0.49c8.95-0.45,17.85-1.59,21.7-2.59c4.49-1.17,6.82,1.65,4.82,4.39c-2,2.75-10.48,15.11-13.98,19.03"/>
		<path id="kvg:090de-s9" kvg:type="㇁" d="M74.91,41.39c31.42,17.11,20.78,47.44,5.74,33.55"/>
		<path id="kvg:090de-s10" kvg:type="㇑" d="M61.34,20.97c1.24,0.51,2,2.31,2.25,3.34c0.25,1.03,0,66.06-0.25,72.49"/>
	</g>
</g>
</g>
<g id="kvg:StrokeNumbers_090de" style="font-size:8;fill:#808080">
	<text transform="matrix(1 0 0 1 10.21 11.46)">1</text>
	<text transform="matrix(1 0 0 1 11.79 23.80)">2</text>
	<text transform="matrix(1 0 0 1 21.24 36.14)">3</text>
	<text transform="matrix(1 0 0 1 21.24 50.53)">4</text>
	<text transform="matrix(1 0 0 1 5.09 26.25)">5</text>
	<text transform="matrix(1 0 0 1 40.04 63.27)">6</text>
	<text transform="matrix(1 0 0 1 18.09 67.96)">7</text>
	<text transform="matrix(1 0 0 1 55.90 17.63)">8</text>
	<text transform="matrix(1 0 0 1 68.51 53.62)">9</text>
	<text transform="matrix(1 0 0 1 51.23 29.53)">10</text>
</g>
</svg>
