<?xml version="1.0" encoding="UTF-8"?>
<!--
Copyright (C) 2009/2010/2011 Ulrich Apel.
This work is distributed under the conditions of the Creative Commons 
Attribution-Share Alike 3.0 Licence. This means you are free:
* to Share - to copy, distribute and transmit the work
* to Remix - to adapt the work

Under the following conditions:
* Attribution. You must attribute the work by stating your use of KanjiVG in
  your own copyright header and linking to KanjiVG's website
  (http://kanjivg.tagaini.net)
* Share Alike. If you alter, transform, or build upon this work, you may
  distribute the resulting work only under the same or similar license to this
  one.

See http://creativecommons.org/licenses/by-sa/3.0/ for more details.
-->
<!DOCTYPE svg PUBLIC "-//W3C//DTD SVG 1.0//EN" "http://www.w3.org/TR/2001/REC-SVG-20010904/DTD/svg10.dtd" [
<!ATTLIST g
xmlns:kvg CDATA #FIXED "http://kanjivg.tagaini.net"
kvg:element CDATA #IMPLIED
kvg:variant CDATA #IMPLIED
kvg:partial CDATA #IMPLIED
kvg:original CDATA #IMPLIED
kvg:part CDATA #IMPLIED
kvg:number CDATA #IMPLIED
kvg:tradForm CDATA #IMPLIED
kvg:radicalForm CDATA #IMPLIED
kvg:position CDATA #IMPLIED
kvg:radical CDATA #IMPLIED
kvg:phon CDATA #IMPLIED >
<!ATTLIST path
xmlns:kvg CDATA #FIXED "http://kanjivg.tagaini.net"
kvg:type CDATA #IMPLIED >
]>
<svg xmlns="http://www.w3.org/2000/svg" width="109" height="109" viewBox="0 0 109 109">
<g id="kvg:StrokePaths_0912d-Jinmei" style="fill:none;stroke:#000000;stroke-width:3;stroke-linecap:round;stroke-linejoin:round;">
<g id="kvg:0912d-Jinmei" kvg:element="鄭">
	<g id="kvg:0912d-Jinmei-g1" kvg:element="奠" kvg:position="left">
		<g id="kvg:0912d-Jinmei-g2" kvg:element="酋" kvg:position="top">
			<g id="kvg:0912d-Jinmei-g3" kvg:element="八" kvg:position="top">
				<g id="kvg:0912d-Jinmei-g4" kvg:position="left">
					<path id="kvg:0912d-Jinmei-s1" kvg:type="㇒" d="M28.67,14.87c0.04,0.33,0.07,0.85-0.08,1.32c-0.91,2.79-6.12,8.92-13.25,12.67"/>
				</g>
				<g id="kvg:0912d-Jinmei-g5" kvg:position="right">
					<path id="kvg:0912d-Jinmei-s2" kvg:type="㇏" d="M37.96,11.5c0.84,0.14,1.63,0.33,2.17,0.7c4.9,3.43,10.81,10.54,15.46,12.68c2,0.93,2.72,1.42,4.67,1.72"/>
				</g>
			</g>
			<g id="kvg:0912d-Jinmei-g6" kvg:element="酉" kvg:position="bottom">
				<g id="kvg:0912d-Jinmei-g7" kvg:element="西" kvg:part="1" kvg:original="襾">
					<path id="kvg:0912d-Jinmei-s3" kvg:type="㇐" d="M23.05,27.72c0.74,0.3,3.04,0.38,3.78,0.3c4.96-0.53,13.53-2.27,19.69-3.1c1.22-0.16,2.6,0.15,3.22,0.3"/>
					<path id="kvg:0912d-Jinmei-s4" kvg:type="㇑" d="M19.61,37.31c0.44,0.42,0.61,1.42,0.61,1.98s-0.29,28.09-0.29,28.37"/>
					<path id="kvg:0912d-Jinmei-s5" kvg:type="㇕a" d="M20.96,38.78c2.51-0.07,28.03-3.72,30.31-3.8c1.9-0.07,3.26,0.67,3.26,2.25c0,0.88-0.41,28.55-0.41,28.97"/>
					<path id="kvg:0912d-Jinmei-s6" kvg:type="㇒" d="M30.64,28.82c0.83,0.65,0.55,1.53,0.56,2.43c0.1,8.72-0.54,15.95-8.36,19.79"/>
					<path id="kvg:0912d-Jinmei-s7" kvg:type="㇟a" d="M39.65,28.55c0.41,0.63,0.73,1.37,0.76,2.34c0.08,3.08-0.18,7.23-0.22,11.03c-0.03,3.3,1.15,3.71,5.04,3.71c2.47,0,4.92-0.41,5.2-0.78"/>
				</g>
				<g id="kvg:0912d-Jinmei-g8" kvg:element="一">
					<path id="kvg:0912d-Jinmei-s8" kvg:type="㇐a" d="M20.23,56.02c3.4,0,29.93-3.2,33.77-3.2"/>
				</g>
				<g id="kvg:0912d-Jinmei-g9" kvg:element="西" kvg:part="2" kvg:original="襾">
					<path id="kvg:0912d-Jinmei-s9" kvg:type="㇐a" d="M20.41,64.64c6.91-0.3,24.63-2.3,33.24-2.56"/>
				</g>
			</g>
		</g>
		<g id="kvg:0912d-Jinmei-g10" kvg:element="大" kvg:position="bottom">
			<path id="kvg:0912d-Jinmei-s10" kvg:type="㇐" d="M11.85,77.33c0.82,0.36,3.03,0.79,4.78,0.63c11.85-1.08,27.41-3.24,38.05-3.76c1.83-0.09,3.3-0.04,4.95,0.24"/>
			<path id="kvg:0912d-Jinmei-s11" kvg:type="㇒" d="M35.73,67.25c0.38,0.45,0.57,0.98,0.56,1.95c-0.18,16.94-9.2,25.88-24.04,31.08"/>
			<path id="kvg:0912d-Jinmei-s12" kvg:type="㇏" d="M36.73,81.74c6.77,2.82,14.02,7.96,18.61,14.35"/>
		</g>
	</g>
	<g id="kvg:0912d-Jinmei-g11" kvg:element="⻏" kvg:variant="true" kvg:original="邑" kvg:position="right" kvg:radical="general">
		<path id="kvg:0912d-Jinmei-s13" kvg:type="㇇" d="M66.54,19.45c1.21,0.05,2.54,0.63,3.73,0.45c5.79-0.9,12.69-2.3,15.7-3.2c3.63-1.09,5.19,1.3,4.15,4.12c-1.37,3.69-6.47,15.83-9.29,19.45"/>
		<path id="kvg:0912d-Jinmei-s14" kvg:type="㇕va" d="M80.83,40.26C100.5,50,98,87.5,82.35,72.24"/>
		<path id="kvg:0912d-Jinmei-s15" kvg:type="㇑" d="M68.69,20.35c0.58,0.53,0.92,2.38,1.04,3.44c0.12,1.06,0,68.58-0.12,75.2"/>
	</g>
</g>
</g>
<g id="kvg:StrokeNumbers_0912d-Jinmei" style="font-size:8;fill:#808080">
	<text transform="matrix(1 0 0 1 23.50 14.50)">1</text>
	<text transform="matrix(1 0 0 1 36.50 9.50)">2</text>
	<text transform="matrix(1 0 0 1 29.50 25.50)">3</text>
	<text transform="matrix(1 0 0 1 12.25 44.50)">4</text>
	<text transform="matrix(1 0 0 1 21.25 36.50)">5</text>
	<text transform="matrix(1 0 0 1 33.50 33.50)">6</text>
	<text transform="matrix(1 0 0 1 43.50 33.18)">7</text>
	<text transform="matrix(1 0 0 1 29.50 52.10)">8</text>
	<text transform="matrix(1 0 0 1 25.50 62.50)">9</text>
	<text transform="matrix(1 0 0 1 8.50 75.50)">10</text>
	<text transform="matrix(1 0 0 1 26.50 71.50)">11</text>
	<text transform="matrix(1 0 0 1 44.25 84.50)">12</text>
	<text transform="matrix(1 0 0 1 69.50 16.50)">13</text>
	<text transform="matrix(1 0 0 1 75.50 49.50)">14</text>
	<text transform="matrix(1 0 0 1 59.50 27.50)">15</text>
</g>
</svg>
