<?xml version="1.0" encoding="UTF-8"?>
<!--
Copyright (C) 2009/2010/2011 Ulrich Apel.
This work is distributed under the conditions of the Creative Commons 
Attribution-Share Alike 3.0 Licence. This means you are free:
* to Share - to copy, distribute and transmit the work
* to Remix - to adapt the work

Under the following conditions:
* Attribution. You must attribute the work by stating your use of KanjiVG in
  your own copyright header and linking to KanjiVG's website
  (http://kanjivg.tagaini.net)
* Share Alike. If you alter, transform, or build upon this work, you may
  distribute the resulting work only under the same or similar license to this
  one.

See http://creativecommons.org/licenses/by-sa/3.0/ for more details.
-->
<!DOCTYPE svg PUBLIC "-//W3C//DTD SVG 1.0//EN" "http://www.w3.org/TR/2001/REC-SVG-20010904/DTD/svg10.dtd" [
<!ATTLIST g
xmlns:kvg CDATA #FIXED "http://kanjivg.tagaini.net"
kvg:element CDATA #IMPLIED
kvg:variant CDATA #IMPLIED
kvg:partial CDATA #IMPLIED
kvg:original CDATA #IMPLIED
kvg:part CDATA #IMPLIED
kvg:number CDATA #IMPLIED
kvg:tradForm CDATA #IMPLIED
kvg:radicalForm CDATA #IMPLIED
kvg:position CDATA #IMPLIED
kvg:radical CDATA #IMPLIED
kvg:phon CDATA #IMPLIED >
<!ATTLIST path
xmlns:kvg CDATA #FIXED "http://kanjivg.tagaini.net"
kvg:type CDATA #IMPLIED >
]>
<svg xmlns="http://www.w3.org/2000/svg" width="109" height="109" viewBox="0 0 109 109">
<g id="kvg:StrokePaths_0914c-Kaisho" style="fill:none;stroke:#000000;stroke-width:3;stroke-linecap:round;stroke-linejoin:round;">
<g id="kvg:0914c-Kaisho" kvg:element="酌">
	<g id="kvg:0914c-Kaisho-g1" kvg:element="酉" kvg:position="left" kvg:radical="general">
		<g id="kvg:0914c-Kaisho-g2" kvg:element="西" kvg:part="1" kvg:original="襾">
			<path id="kvg:0914c-Kaisho-s1" kvg:type="㇐" d="M13.29,21.16c0.79,0.37,4.74,0.93,5.55,0.87c8.29-0.54,24.19-3.04,27.69-3.29c1.99-0.14,4.22-0.62,5.92-0.13"/>
			<path id="kvg:0914c-Kaisho-s2" kvg:type="㇑" d="M14.24,36.82c0.51,0.66,0.7,2.23,0.7,3.11S14.6,87.27,14.6,87.7"/>
			<path id="kvg:0914c-Kaisho-s3" kvg:type="㇕a" d="M15.18,38.68c2.86-0.11,29.42-3.34,32.01-3.62c2.7-0.28,4.29,1.05,4.29,3.52c0,1.38-0.76,37.97-0.75,47.58"/>
			<path id="kvg:0914c-Kaisho-s4" kvg:type="㇒" d="M26.5,23.99c0.83,1.09,0.59,2.07,0.56,3.56C26.75,41.25,26,51.25,20.79,59.2"/>
			<path id="kvg:0914c-Kaisho-s5" kvg:type="㇟a" d="M36.3,22.91c0.54,1.12,0.96,2.43,0.99,4.15c0.1,5.47-0.23,14.23-0.28,20.98c-0.04,5.86,1.65,7.07,5.42,7.07c3.81,0,5.82-0.2,6.18-0.86"/>
		</g>
		<g id="kvg:0914c-Kaisho-g3" kvg:element="一">
			<path id="kvg:0914c-Kaisho-s6" kvg:type="㇐a" d="M22.25,68.44c0.79-0.07,1.63-0.14,2.5-0.21c5.67-0.5,11.34-1.03,17.02-1.51c0.88-0.08,1.73-0.15,2.54-0.21"/>
		</g>
		<g id="kvg:0914c-Kaisho-g4" kvg:element="西" kvg:part="2" kvg:original="襾">
			<path id="kvg:0914c-Kaisho-s7" kvg:type="㇐a" d="M15.51,85.06c7.89-0.47,25.8-1.72,35.63-2.12"/>
		</g>
	</g>
	<g id="kvg:0914c-Kaisho-g5" kvg:element="勺" kvg:position="right">
		<g id="kvg:0914c-Kaisho-g6" kvg:element="勹">
			<g id="kvg:0914c-Kaisho-g7" kvg:element="丿">
				<path id="kvg:0914c-Kaisho-s8" kvg:type="㇒" d="M72.29,16.5c0.21,1,0.53,2.01,0.22,3.1c-1.76,6.15-8.05,20.89-15.83,29.68"/>
			</g>
			<path id="kvg:0914c-Kaisho-s9" kvg:type="㇆" d="M65.27,38.6c1.23,0.65,3.19,0.72,4.45,0.43c2.28-0.53,16.92-3.81,19.91-4.02c2.99-0.21,4.91,1.15,4.52,5.66c-0.63,7.43-4.15,35.59-13.9,49.09c-2.45,3.39-5.5,3.5-8.4-0.98"/>
		</g>
		<g id="kvg:0914c-Kaisho-g8" kvg:element="丶">
			<path id="kvg:0914c-Kaisho-s10" kvg:type="㇔" d="M64.77,55.83c3.36,2.04,8.32,8.39,8.85,11.56"/>
		</g>
	</g>
</g>
</g>
<g id="kvg:StrokeNumbers_0914c-Kaisho" style="font-size:8;fill:#808080">
	<text transform="matrix(1 0 0 1 8.25 21.13)">1</text>
	<text transform="matrix(1 0 0 1 7.50 44.50)">2</text>
	<text transform="matrix(1 0 0 1 17.25 34.63)">3</text>
	<text transform="matrix(1 0 0 1 20.00 28.50)">4</text>
	<text transform="matrix(1 0 0 1 30.50 28.50)">5</text>
	<text transform="matrix(1 0 0 1 20.50 65.50)">6</text>
	<text transform="matrix(1 0 0 1 20.50 81.05)">7</text>
	<text transform="matrix(1 0 0 1 63.75 16.50)">8</text>
	<text transform="matrix(1 0 0 1 73.50 33.50)">9</text>
	<text transform="matrix(1 0 0 1 60.50 53.50)">10</text>
</g>
</svg>
