<?xml version="1.0" encoding="UTF-8"?>
<!--
Copyright (C) 2009/2010/2011 Ulrich Apel.
This work is distributed under the conditions of the Creative Commons 
Attribution-Share Alike 3.0 Licence. This means you are free:
* to Share - to copy, distribute and transmit the work
* to Remix - to adapt the work

Under the following conditions:
* Attribution. You must attribute the work by stating your use of KanjiVG in
  your own copyright header and linking to KanjiVG's website
  (http://kanjivg.tagaini.net)
* Share Alike. If you alter, transform, or build upon this work, you may
  distribute the resulting work only under the same or similar license to this
  one.

See http://creativecommons.org/licenses/by-sa/3.0/ for more details.
-->
<!DOCTYPE svg PUBLIC "-//W3C//DTD SVG 1.0//EN" "http://www.w3.org/TR/2001/REC-SVG-20010904/DTD/svg10.dtd" [
<!ATTLIST g
xmlns:kvg CDATA #FIXED "http://kanjivg.tagaini.net"
kvg:element CDATA #IMPLIED
kvg:variant CDATA #IMPLIED
kvg:partial CDATA #IMPLIED
kvg:original CDATA #IMPLIED
kvg:part CDATA #IMPLIED
kvg:number CDATA #IMPLIED
kvg:tradForm CDATA #IMPLIED
kvg:radicalForm CDATA #IMPLIED
kvg:position CDATA #IMPLIED
kvg:radical CDATA #IMPLIED
kvg:phon CDATA #IMPLIED >
<!ATTLIST path
xmlns:kvg CDATA #FIXED "http://kanjivg.tagaini.net"
kvg:type CDATA #IMPLIED >
]>
<svg xmlns="http://www.w3.org/2000/svg" width="109" height="109" viewBox="0 0 109 109">
<g id="kvg:StrokePaths_09162" style="fill:none;stroke:#000000;stroke-width:3;stroke-linecap:round;stroke-linejoin:round;">
<g id="kvg:09162" kvg:element="酢">
	<g id="kvg:09162-g1" kvg:element="酉" kvg:position="left" kvg:radical="general">
		<g id="kvg:09162-g2" kvg:element="西" kvg:part="1" kvg:original="襾">
			<path id="kvg:09162-s1" kvg:type="㇐" d="M10.79,22.66c2.58,0.59,5.27,0.39,7.35,0.21c7.52-0.65,18.61-2.24,26.5-2.93c2.5-0.22,5.1-0.32,7.55,0.42"/>
			<path id="kvg:09162-s2" kvg:type="㇑" d="M14.57,38.57c0.87,0.87,1.16,2.3,1.16,3.86c0,0.65-0.04,25.39-0.06,38.32c-0.01,4.51-0.01,7.59-0.01,7.7"/>
			<path id="kvg:09162-s3" kvg:type="㇕a" d="M15.96,40.18c2.7-0.11,27.71-3.34,30.15-3.62c2.54-0.28,4.05,1.05,4.05,3.52c0,1.13-0.17,24.82-0.22,38.66c-0.01,3.08-0.02,5.67-0.02,7.42"/>
			<path id="kvg:09162-s4" kvg:type="㇒" d="M26.61,25.24c0.76,0.96,1.06,2.34,1.01,3.66c-0.49,12.59-1.74,20.97-7.07,27.79"/>
			<path id="kvg:09162-s5" kvg:type="㇟a" d="M35.55,23.41c0.96,0.96,1.4,2.43,1.44,4.15c0.1,5.47-0.02,10.81-0.02,18.48c0,5.86,1.31,7.07,4.86,7.07c3.59,0,5.18-0.37,6.82-0.86"/>
		</g>
		<g id="kvg:09162-g3" kvg:element="一">
			<path id="kvg:09162-s6" kvg:type="㇐a" d="M16.93,67.63c7.44-0.75,25.07-2.75,31.66-3.08"/>
		</g>
		<g id="kvg:09162-g4" kvg:element="西" kvg:part="2" kvg:original="襾">
			<path id="kvg:09162-s7" kvg:type="㇐a" d="M16.76,83.31c9.86-1.19,22.56-2.72,31.82-3.12"/>
		</g>
	</g>
	<g id="kvg:09162-g5" kvg:element="乍" kvg:position="right" kvg:phon="乍">
		<g id="kvg:09162-g6" kvg:element="丿">
			<path id="kvg:09162-s8" kvg:type="㇒" d="M70.09,15.25c0.04,0.79,0.21,2.06-0.08,3.15c-1.91,7.08-6.51,19.69-14.66,29.93"/>
		</g>
		<path id="kvg:09162-s9" kvg:type="㇐" d="M65.49,33.95c0.83,0.36,2.36,0.42,3.19,0.36c10.99-0.76,17.68-2.23,25.76-3.02c1.53-0.15,2.54,0.05,3.73,0.42"/>
		<path id="kvg:09162-s10" kvg:type="㇑" d="M73.19,36.21c0.99,0.99,1.01,2.16,1.01,3.59c0,0.63-0.03,34.78-0.05,50.07c-0.01,4.24-0.01,7.03-0.02,7.25"/>
		<path id="kvg:09162-s11" kvg:type="㇐b" d="M75.8,52.23c5.63-0.57,9.3-0.94,15.95-1.5c1.52-0.13,2.97-0.41,4.46,0.08"/>
		<path id="kvg:09162-s12" kvg:type="㇐b" d="M74.98,69.99c3.48-0.41,9.54-0.86,17.27-1.68c1.54-0.16,3.18-0.35,4.72,0"/>
	</g>
</g>
</g>
<g id="kvg:StrokeNumbers_09162" style="font-size:8;fill:#808080">
	<text transform="matrix(1 0 0 1 5.25 21.13)">1</text>
	<text transform="matrix(1 0 0 1 7.50 46.55)">2</text>
	<text transform="matrix(1 0 0 1 16.50 36.50)">3</text>
	<text transform="matrix(1 0 0 1 20.50 31.50)">4</text>
	<text transform="matrix(1 0 0 1 31.50 30.50)">5</text>
	<text transform="matrix(1 0 0 1 20.50 63.50)">6</text>
	<text transform="matrix(1 0 0 1 20.50 79.41)">7</text>
	<text transform="matrix(1 0 0 1 61.50 17.50)">8</text>
	<text transform="matrix(1 0 0 1 72.75 31.55)">9</text>
	<text transform="matrix(1 0 0 1 63.75 47.50)">10</text>
	<text transform="matrix(1 0 0 1 78.50 48.13)">11</text>
	<text transform="matrix(1 0 0 1 78.31 66.05)">12</text>
</g>
</svg>
