<?xml version="1.0" encoding="UTF-8"?>
<!--
Copyright (C) 2009/2010/2011 Ulrich Apel.
This work is distributed under the conditions of the Creative Commons 
Attribution-Share Alike 3.0 Licence. This means you are free:
* to Share - to copy, distribute and transmit the work
* to Remix - to adapt the work

Under the following conditions:
* Attribution. You must attribute the work by stating your use of KanjiVG in
  your own copyright header and linking to KanjiVG's website
  (http://kanjivg.tagaini.net)
* Share Alike. If you alter, transform, or build upon this work, you may
  distribute the resulting work only under the same or similar license to this
  one.

See http://creativecommons.org/licenses/by-sa/3.0/ for more details.
-->
<!DOCTYPE svg PUBLIC "-//W3C//DTD SVG 1.0//EN" "http://www.w3.org/TR/2001/REC-SVG-20010904/DTD/svg10.dtd" [
<!ATTLIST g
xmlns:kvg CDATA #FIXED "http://kanjivg.tagaini.net"
kvg:element CDATA #IMPLIED
kvg:variant CDATA #IMPLIED
kvg:partial CDATA #IMPLIED
kvg:original CDATA #IMPLIED
kvg:part CDATA #IMPLIED
kvg:number CDATA #IMPLIED
kvg:tradForm CDATA #IMPLIED
kvg:radicalForm CDATA #IMPLIED
kvg:position CDATA #IMPLIED
kvg:radical CDATA #IMPLIED
kvg:phon CDATA #IMPLIED >
<!ATTLIST path
xmlns:kvg CDATA #FIXED "http://kanjivg.tagaini.net"
kvg:type CDATA #IMPLIED >
]>
<svg xmlns="http://www.w3.org/2000/svg" width="109" height="109" viewBox="0 0 109 109">
<g id="kvg:StrokePaths_09178" style="fill:none;stroke:#000000;stroke-width:3;stroke-linecap:round;stroke-linejoin:round;">
<g id="kvg:09178" kvg:element="酸">
	<g id="kvg:09178-g1" kvg:element="酉" kvg:position="left" kvg:radical="general">
		<g id="kvg:09178-g2" kvg:element="西" kvg:part="1" kvg:original="襾">
			<path id="kvg:09178-s1" kvg:type="㇐" d="M11.29,23.16c1.96,0.71,3.94,0.69,5.83,0.49c7.18-0.76,21.06-3.17,23.64-3.4c1.57-0.15,3.34-0.62,4.68-0.13"/>
			<path id="kvg:09178-s2" kvg:type="㇑" d="M12.13,39.64c0.87,0.87,1.33,2.36,1.33,3.73c0,0.91-0.03,43.06-0.03,43.52c0,0.46,0.03,2.86,0.03,4.36"/>
			<path id="kvg:09178-s3" kvg:type="㇕a" d="M14.16,41.31c8.34-1.18,20.84-2.93,26.1-3.51c2.25-0.25,4.09,1.09,4.09,3.67c0,1.44-0.47,32.83-0.46,42.81c0,1.03,0.11,3.97,0.11,4.66"/>
			<path id="kvg:09178-s4" kvg:type="㇒" d="M23.47,25.49c0.83,0.83,1.27,2.57,1.19,4.06C24,42.38,23,53.5,17.27,63.7"/>
			<path id="kvg:09178-s5" kvg:type="㇟a" d="M31.38,23.66c0.86,0.86,1.29,2.18,1.29,3.9c0,5.81,0.06,16.23,0.02,22.98c-0.03,5.86,1.06,6.82,4.04,6.82c3.02,0,4.65-0.11,5.39-0.86"/>
		</g>
		<g id="kvg:09178-g3" kvg:element="一">
			<path id="kvg:09178-s6" kvg:type="㇐a" d="M14.33,72.95c10.67-1.58,19.8-2.83,28.47-3.19"/>
		</g>
		<g id="kvg:09178-g4" kvg:element="西" kvg:part="2" kvg:original="襾">
			<path id="kvg:09178-s7" kvg:type="㇐a" d="M14.43,87.95c7.82-0.82,20.19-2.29,28.36-2.71"/>
		</g>
	</g>
	<g id="kvg:09178-g5" kvg:element="夋" kvg:position="right" kvg:phon="夋">
		<g id="kvg:09178-g6" kvg:element="允" kvg:position="top">
			<g id="kvg:09178-g7" kvg:element="厶" kvg:position="top">
				<path id="kvg:09178-s8" kvg:type="㇜" d="M66.66,12c0.34,1,0.21,2.31-0.1,2.83c-3.43,5.8-7.43,11.05-11.24,16.07c-1.48,1.94-1.9,3.48,0.88,3.02C62.96,32.8,76,29.62,84.8,27.5"/>
				<path id="kvg:09178-s9" kvg:type="㇔" d="M78.4,20.51c4.2,2.36,10.85,9.7,11.91,13.37"/>
			</g>
			<g id="kvg:09178-g8" kvg:element="儿" kvg:variant="true" kvg:original="八" kvg:position="bottom">
				<g id="kvg:09178-g9" kvg:element="丿" kvg:position="left">
					<path id="kvg:09178-s10" kvg:type="㇒" d="M61.56,39.36c0.1,1.02-0.07,1.98-0.51,2.9c-1.43,3.46-5.31,8.8-10.61,12.66"/>
				</g>
				<g id="kvg:09178-g10" kvg:position="right">
					<path id="kvg:09178-s11" kvg:type="㇟" d="M76.73,33.05c0.67,0.67,1.16,1.95,1.16,3.27c0,3.73,0,5.86,0,8.4c0,5.93,4.26,5.26,8.45,5.26c4.42,0,7.17-0.72,7.95-2.2"/>
				</g>
			</g>
		</g>
		<g id="kvg:09178-g11" kvg:element="夂" kvg:position="bottom">
			<path id="kvg:09178-s12" kvg:type="㇒" d="M65.35,51.5c0.28,0.75,0.34,1.87,0.16,2.77c-1.06,5.31-7.15,16.96-15.48,24.09"/>
			<path id="kvg:09178-s13" kvg:type="㇇" d="M66.75,59.81c0.25,0.03,1.33,0,2.05-0.09c2.37-0.29,9.21-2.61,12.59-3.5c2.32-0.61,3.87,1.21,2.64,3.6C78.12,71.25,65,88.38,49.67,95.5"/>
			<path id="kvg:09178-s14" kvg:type="㇏" d="M60.81,67.18C67.88,73,78.69,82.92,86.48,88.95c2.53,1.95,4.52,3.3,7.52,4.68"/>
		</g>
	</g>
</g>
</g>
<g id="kvg:StrokeNumbers_09178" style="font-size:8;fill:#808080">
	<text transform="matrix(1 0 0 1 5.25 22.63)">1</text>
	<text transform="matrix(1 0 0 1 3.75 42.05)">2</text>
	<text transform="matrix(1 0 0 1 12.75 37.63)">3</text>
	<text transform="matrix(1 0 0 1 17.25 33.05)">4</text>
	<text transform="matrix(1 0 0 1 38.25 31.48)">5</text>
	<text transform="matrix(1 0 0 1 20.25 68.91)">6</text>
	<text transform="matrix(1 0 0 1 20.25 83.83)">7</text>
	<text transform="matrix(1 0 0 1 70.80 11.53)">8</text>
	<text transform="matrix(1 0 0 1 79.80 17.45)">9</text>
	<text transform="matrix(1 0 0 1 48.75 42.88)">10</text>
	<text transform="matrix(1 0 0 1 66.75 42.80)">11</text>
	<text transform="matrix(1 0 0 1 53.25 60.73)">12</text>
	<text transform="matrix(1 0 0 1 68.25 56.16)">13</text>
	<text transform="matrix(1 0 0 1 57.75 80.08)">14</text>
</g>
</svg>
