<?xml version="1.0" encoding="UTF-8"?>
<!--
Copyright (C) 2009/2010/2011 Ulrich Apel.
This work is distributed under the conditions of the Creative Commons 
Attribution-Share Alike 3.0 Licence. This means you are free:
* to Share - to copy, distribute and transmit the work
* to Remix - to adapt the work

Under the following conditions:
* Attribution. You must attribute the work by stating your use of KanjiVG in
  your own copyright header and linking to KanjiVG's website
  (http://kanjivg.tagaini.net)
* Share Alike. If you alter, transform, or build upon this work, you may
  distribute the resulting work only under the same or similar license to this
  one.

See http://creativecommons.org/licenses/by-sa/3.0/ for more details.
-->
<!DOCTYPE svg PUBLIC "-//W3C//DTD SVG 1.0//EN" "http://www.w3.org/TR/2001/REC-SVG-20010904/DTD/svg10.dtd" [
<!ATTLIST g
xmlns:kvg CDATA #FIXED "http://kanjivg.tagaini.net"
kvg:element CDATA #IMPLIED
kvg:variant CDATA #IMPLIED
kvg:partial CDATA #IMPLIED
kvg:original CDATA #IMPLIED
kvg:part CDATA #IMPLIED
kvg:number CDATA #IMPLIED
kvg:tradForm CDATA #IMPLIED
kvg:radicalForm CDATA #IMPLIED
kvg:position CDATA #IMPLIED
kvg:radical CDATA #IMPLIED
kvg:phon CDATA #IMPLIED >
<!ATTLIST path
xmlns:kvg CDATA #FIXED "http://kanjivg.tagaini.net"
kvg:type CDATA #IMPLIED >
]>
<svg xmlns="http://www.w3.org/2000/svg" width="109" height="109" viewBox="0 0 109 109">
<g id="kvg:StrokePaths_091a4-Kaisho" style="fill:none;stroke:#000000;stroke-width:3;stroke-linecap:round;stroke-linejoin:round;">
<g id="kvg:091a4-Kaisho" kvg:element="醤">
	<g id="kvg:091a4-Kaisho-g1" kvg:element="将" kvg:position="top">
		<g id="kvg:091a4-Kaisho-g2" kvg:element="⺦" kvg:variant="true" kvg:original="爿" kvg:position="left">
			<path id="kvg:091a4-Kaisho-s1" kvg:type="㇑" d="M35.8,10.97c1.01,0.32,1.62,1.45,1.83,2.1c0.2,0.65,0,36.15-0.2,40.18"/>
			<path id="kvg:091a4-Kaisho-s2" kvg:type="㇔" d="M18.11,17.62c3.58,1.9,9.26,7.81,10.15,10.76"/>
			<path id="kvg:091a4-Kaisho-s3" kvg:type="㇀" d="M14.75,48.49c1.99,0.65,3.31,0.37,4.56-0.43c3.64-2.35,8.34-5.22,11.65-8.21"/>
		</g>
		<g id="kvg:091a4-Kaisho-g3" kvg:position="right">
			<g id="kvg:091a4-Kaisho-g4" kvg:element="⺤" kvg:variant="true" kvg:original="爪" kvg:position="top">
				<path id="kvg:091a4-Kaisho-s4" kvg:type="㇒" d="M83.02,8.14c0.11,0.24,0.23,0.63-0.22,0.97c-2.7,2.05-15.23,6.56-33.04,9.31"/>
				<path id="kvg:091a4-Kaisho-s5" kvg:type="㇔" d="M48.61,23.45c2.35,1.51,6.08,6.19,6.67,8.54"/>
				<path id="kvg:091a4-Kaisho-s6" kvg:type="㇔" d="M63,21.03c2.12,1.6,5.48,6.56,6.01,9.05"/>
				<path id="kvg:091a4-Kaisho-s7" kvg:type="㇒" d="M89.02,15.95c0.04,0.29,0.08,0.74-0.07,1.15c-0.86,2.43-5.8,7.77-12.56,11.04"/>
			</g>
			<g id="kvg:091a4-Kaisho-g5" kvg:element="寸" kvg:position="bottom">
				<path id="kvg:091a4-Kaisho-s8" kvg:type="㇐" d="M44.88,39.01c0.97,0.34,2.73,0.42,3.7,0.34c10.7-0.94,30.81-3.87,42.94-4.39c1.61-0.07,2.57,0.16,3.38,0.33"/>
				<path id="kvg:091a4-Kaisho-s9" kvg:type="㇚" d="M79.96,29.34c0.09,0.28,1.32,1.45,1.32,3.22c0,11.88-0.16,12.15-0.16,14.11c0,6.84-3.38,2.59-5.5,1.1"/>
				<path id="kvg:091a4-Kaisho-s10" kvg:type="㇔" d="M57.21,44.26c2.24,1.2,5.78,4.92,6.34,6.78"/>
			</g>
		</g>
	</g>
	<g id="kvg:091a4-Kaisho-g6" kvg:element="酉" kvg:position="bottom" kvg:radical="general">
		<g id="kvg:091a4-Kaisho-g7" kvg:element="西" kvg:part="1" kvg:original="襾">
			<path id="kvg:091a4-Kaisho-s11" kvg:type="㇐" d="M27.53,60.18c0.89,0.18,4.13,0.2,5.03,0.15c5.97-0.33,32.18-2.62,40.64-2.71c1.48-0.02,3.45,0.06,4.19,0.15"/>
			<path id="kvg:091a4-Kaisho-s12" kvg:type="㇑" d="M25.44,70.02c0.7,0.39,0.97,1.86,0.98,2.39c0.01,0.54,1.99,27.05,2.23,27.58"/>
			<path id="kvg:091a4-Kaisho-s13" kvg:type="㇕a" d="M26.56,71.83c3.94-0.11,49.12-4.62,52.71-4.74c2.99-0.1,3.98,1.16,3.63,3.6c-0.12,0.84-2.43,28.28-2.43,28.68"/>
			<path id="kvg:091a4-Kaisho-s14" kvg:type="㇒" d="M44.83,62.69c1.19,0.59,0.8,1.42,0.82,2.25c0.15,5.42-2.85,14.52-11.83,18.6"/>
			<path id="kvg:091a4-Kaisho-s15" kvg:type="㇟a" d="M58.78,59.91c0.85,0.64,1.58,1.9,1.58,2.91c0,5.93-1.56,13.46,0.91,15.04c1.87,1.2,8.48,1.39,13.46,0.76c1.31-0.17,2.75-0.88,2.97-1.5"/>
		</g>
		<g id="kvg:091a4-Kaisho-g8" kvg:element="一">
			<path id="kvg:091a4-Kaisho-s16" kvg:type="㇐a" d="M38.8,89.23c0.92-0.06,2.5-0.16,4.47-0.29c5.56-0.36,14.23-0.93,19.98-1.3c2.22-0.14,4.01-0.25,5-0.31"/>
		</g>
		<g id="kvg:091a4-Kaisho-g9" kvg:element="西" kvg:part="2" kvg:original="襾">
			<path id="kvg:091a4-Kaisho-s17" kvg:type="㇐a" d="M28.73,98.47c10.84-0.41,37.96-1.66,51.46-2.05"/>
		</g>
	</g>
</g>
</g>
<g id="kvg:StrokeNumbers_091a4-Kaisho" style="font-size:8;fill:#808080">
	<text transform="matrix(1 0 0 1 28.25 10.50)">1</text>
	<text transform="matrix(1 0 0 1 10.50 17.50)">2</text>
	<text transform="matrix(1 0 0 1 7.50 51.50)">3</text>
	<text transform="matrix(1 0 0 1 73.25 7.50)">4</text>
	<text transform="matrix(1 0 0 1 42.25 27.50)">5</text>
	<text transform="matrix(1 0 0 1 56.50 25.50)">6</text>
	<text transform="matrix(1 0 0 1 80.25 20.18)">7</text>
	<text transform="matrix(1 0 0 1 41.50 35.10)">8</text>
	<text transform="matrix(1 0 0 1 72.50 34.50)">9</text>
	<text transform="matrix(1 0 0 1 47.50 48.50)">10</text>
	<text transform="matrix(1 0 0 1 24.50 57.50)">11</text>
	<text transform="matrix(1 0 0 1 15.25 76.50)">12</text>
	<text transform="matrix(1 0 0 1 27.25 68.50)">13</text>
	<text transform="matrix(1 0 0 1 35.25 66.50)">14</text>
	<text transform="matrix(1 0 0 1 50.25 66.58)">15</text>
	<text transform="matrix(1 0 0 1 40.25 85.50)">16</text>
	<text transform="matrix(1 0 0 1 35.25 95.93)">17</text>
</g>
</svg>
