<?xml version="1.0" encoding="UTF-8"?>
<!--
Copyright (C) 2009/2010/2011 Ulrich Apel.
This work is distributed under the conditions of the Creative Commons
Attribution-Share Alike 3.0 Licence. This means you are free:
* to Share - to copy, distribute and transmit the work
* to Remix - to adapt the work

Under the following conditions:
* Attribution. You must attribute the work by stating your use of KanjiVG in
  your own copyright header and linking to KanjiVG's website
  (http://kanjivg.tagaini.net)
* Share Alike. If you alter, transform, or build upon this work, you may
  distribute the resulting work only under the same or similar license to this
  one.

See http://creativecommons.org/licenses/by-sa/3.0/ for more details.
-->
<!DOCTYPE svg PUBLIC "-//W3C//DTD SVG 1.0//EN" "http://www.w3.org/TR/2001/REC-SVG-20010904/DTD/svg10.dtd" [
<!ATTLIST g
xmlns:kvg CDATA #FIXED "http://kanjivg.tagaini.net"
kvg:element CDATA #IMPLIED
kvg:variant CDATA #IMPLIED
kvg:partial CDATA #IMPLIED
kvg:original CDATA #IMPLIED
kvg:part CDATA #IMPLIED
kvg:number CDATA #IMPLIED
kvg:tradForm CDATA #IMPLIED
kvg:radicalForm CDATA #IMPLIED
kvg:position CDATA #IMPLIED
kvg:radical CDATA #IMPLIED
kvg:phon CDATA #IMPLIED >
<!ATTLIST path
xmlns:kvg CDATA #FIXED "http://kanjivg.tagaini.net"
kvg:type CDATA #IMPLIED >
]>
<svg xmlns="http://www.w3.org/2000/svg" width="109" height="109" viewBox="0 0 109 109" xmlns:kvg="https://kanjivg.tagaini.net/">
<g id="kvg:StrokePaths_091b1" style="fill:none;stroke:#000000;stroke-width:3;stroke-linecap:round;stroke-linejoin:round;">
<g id="kvg:091b1" kvg:element="醱">
	<g id="kvg:091b1-g1" kvg:element="酉" kvg:position="left" kvg:radical="general">
		<g id="kvg:091b1-g2" kvg:element="西" kvg:part="1" kvg:original="襾">
			<path id="kvg:091b1-s1" kvg:type="㇐" d="M10.79,19.95c0.51,0.38,3.07,0.94,3.59,0.89c5.37-0.54,19.47-2.58,21.73-2.84c1.29-0.15,2.73-0.63,3.83-0.14"/>
			<path id="kvg:091b1-s2" kvg:type="㇑" d="M12.8,36.12c0.34,0.69,0.47,2.36,0.47,3.28c0,0.92-0.11,48.18,0,49.1"/>
			<path id="kvg:091b1-s3" kvg:type="㇕a" d="M13.44,37.56c1.95-0.12,20.5-3.03,22.26-3.32c1.83-0.3,3.35,1.11,3.35,3.72c0,1.46-0.29,48.47-0.29,49.16"/>
			<path id="kvg:091b1-s4" kvg:type="㇒" d="M22.21,22.33c0.56,1.21,0.91,2.88,0.83,4.54c-0.76,15.42-2.33,23.36-5.69,30.82"/>
			<path id="kvg:091b1-s5" kvg:type="㇟a" d="M28.92,21.22c0.35,1.37,0.62,2.98,0.64,5.08c0.06,6.69-0.15,11.82-0.18,20.08c-0.03,7.18,1.5,8.66,3.94,8.66c2.47,0,4.18-0.24,4.41-1.05"/>
		</g>
		<g id="kvg:091b1-g3" kvg:element="一">
			<path id="kvg:091b1-s6" kvg:type="㇐a" d="M13.78,69.96c2.63,0,21.63-2.99,24.61-2.99"/>
		</g>
		<g id="kvg:091b1-g4" kvg:element="西" kvg:part="2" kvg:original="襾">
			<path id="kvg:091b1-s7" kvg:type="㇐a" d="M13.66,84.91c5.36-0.5,18.04-1.82,24.72-2.25"/>
		</g>
	</g>
	<g id="kvg:091b1-g5" kvg:element="發" kvg:position="right">
		<g id="kvg:091b1-g6" kvg:element="癶" kvg:position="top">
			<g id="kvg:091b1-g7" kvg:position="left">
				<path id="kvg:091b1-s8" kvg:type="㇇" d="M50.06,16.76c0.89,0.57,1.24,0.47,2.67,0.19c3.75-0.71,7.47-1.35,11.47-2.27c2.38-0.54,3.18,0.71,2.09,3.59C61.83,30.12,54.8,41.09,43.6,49.74"/>
				<path id="kvg:091b1-s9" kvg:type="㇔" d="M47.6,26.13c2.7,1.13,6.98,4.67,7.65,6.43"/>
			</g>
			<g id="kvg:091b1-g8" kvg:position="right">
				<path id="kvg:091b1-s10" kvg:type="㇒" d="M84.23,13.89c0.02,0.21,0.13,0.57-0.04,0.84c-1.12,1.77-3.36,5.63-7.28,8.01"/>
				<path id="kvg:091b1-s11" kvg:type="㇏" d="M67.55,17.29c2.77,1.75,19.6,20.73,26.08,24.98c1.57,1.03,2.68,1.79,4.12,2.15"/>
				<path id="kvg:091b1-s12" kvg:type="㇒" d="M92.63,22.53c0.03,0.21,0.1,0.55-0.05,0.83c-1.12,2.09-3.58,4.95-8.32,7.9"/>
			</g>
		</g>
		<g id="kvg:091b1-g9" kvg:position="bottom">
			<g id="kvg:091b1-g10" kvg:element="弓" kvg:position="left">
				<path id="kvg:091b1-s13" kvg:type="㇕c" d="M53.16,44.72c0.53,0.84,1.03,1.09,1.71,0.93c0.68-0.15,7.01-2.17,8.38-2.64c1.36-0.47,1.74,1.12,1.33,2.35c-0.41,1.24-3.17,9.55-3.33,11.36"/>
				<path id="kvg:091b1-s14" kvg:type="㇐" d="M50.51,58.31c1.61,0,8.3-1.43,9.45-1.43s2.3-0.48,3.23-0.48"/>
				<path id="kvg:091b1-s15" kvg:type="㇉" d="M49.76,56.86c0.41,0.62,0.34,2.31,0.08,3.29c-0.3,1.12-3.03,8.87-3.17,9.49c-0.14,0.62,0.06,2.59,1.09,1.86c0.78-0.55,8.54-1.85,10.72-2.32c2.18-0.47,2.65,0.58,2.62,2.8c-0.08,5.83-2.37,13.9-5.75,18.75c-3,4.29-4.61,1.67-5.75-1.23"/>
			</g>
			<g id="kvg:091b1-g11" kvg:element="殳" kvg:position="right">
				<g id="kvg:091b1-g12" kvg:element="几" kvg:position="top">
					<g id="kvg:091b1-g13" kvg:element="丿">
						<path id="kvg:091b1-s16" kvg:type="㇒" d="M71.99,43.11c0.33,0.82,0.45,1.47,0.43,2.05c-0.14,6.01-1.3,12.79-4.97,15.47"/>
					</g>
					<path id="kvg:091b1-s17" kvg:type="㇈b" d="M72.79,44.18c1.24,0.17,7.74-1.64,8.58-1.99c1.24-0.52,1.87,1.12,1.74,2.29c-0.25,2.29-0.29,6.16-0.29,8.43c0,3.74,1.92,5.45,6.02,5.45c3.98,0,5.3-1.72,5.3-5.43"/>
				</g>
				<g id="kvg:091b1-g14" kvg:element="又" kvg:position="bottom">
					<path id="kvg:091b1-s18" kvg:type="㇇" d="M69.93,66.62c1.03,0.26,1.16,0.65,3.24,0.26c2.07-0.39,13.24-2.54,14.66-2.94c1.42-0.39,2.72,1.6,1.94,2.87C81.62,80,74.02,87.86,62.35,95.17"/>
					<path id="kvg:091b1-s19" kvg:type="㇏" d="M69.05,71.95c2.6,0.51,15.31,14.41,24.37,20.11c1.41,0.89,2.44,1.48,3.75,1.77"/>
				</g>
			</g>
		</g>
	</g>
</g>
</g>
<g id="kvg:StrokeNumbers_091b1" style="font-size:8;fill:#808080">
	<text transform="matrix(1 0 0 1 4.50 20.50)">1</text>
	<text transform="matrix(1 0 0 1 6.50 43.50)">2</text>
	<text transform="matrix(1 0 0 1 14.50 34.50)">3</text>
	<text transform="matrix(1 0 0 1 16.50 27.50)">4</text>
	<text transform="matrix(1 0 0 1 32.50 27.50)">5</text>
	<text transform="matrix(1 0 0 1 17.50 66.50)">6</text>
	<text transform="matrix(1 0 0 1 17.50 81.50)">7</text>
	<text transform="matrix(1 0 0 1 48.21 14.61)">8</text>
	<text transform="matrix(1 0 0 1 41.99 27.58)">9</text>
	<text transform="matrix(1 0 0 1 76.78 12.33)">10</text>
	<text transform="matrix(1 0 0 1 69.60 20.19)">11</text>
	<text transform="matrix(1 0 0 1 90.61 19.00)">12</text>
	<text transform="matrix(1 0 0 1 58.35 41.87)">13</text>
	<text transform="matrix(1 0 0 1 50.05 55.22)">14</text>
	<text transform="matrix(1 0 0 1 37.92 62.82)">15</text>
	<text transform="matrix(1 0 0 1 64.11 52.17)">16</text>
	<text transform="matrix(1 0 0 1 72.86 40.42)">17</text>
	<text transform="matrix(1 0 0 1 71.25 63.94)">18</text>
	<text transform="matrix(1 0 0 1 56.11 66.36)">19</text>
</g>
</svg>
