<?xml version="1.0" encoding="UTF-8"?>
<!--
Copyright (C) 2009/2010/2011 Ulrich Apel.
This work is distributed under the conditions of the Creative Commons 
Attribution-Share Alike 3.0 Licence. This means you are free:
* to Share - to copy, distribute and transmit the work
* to Remix - to adapt the work

Under the following conditions:
* Attribution. You must attribute the work by stating your use of KanjiVG in
  your own copyright header and linking to KanjiVG's website
  (http://kanjivg.tagaini.net)
* Share Alike. If you alter, transform, or build upon this work, you may
  distribute the resulting work only under the same or similar license to this
  one.

See http://creativecommons.org/licenses/by-sa/3.0/ for more details.
-->
<!DOCTYPE svg PUBLIC "-//W3C//DTD SVG 1.0//EN" "http://www.w3.org/TR/2001/REC-SVG-20010904/DTD/svg10.dtd" [
<!ATTLIST g
xmlns:kvg CDATA #FIXED "http://kanjivg.tagaini.net"
kvg:element CDATA #IMPLIED
kvg:variant CDATA #IMPLIED
kvg:partial CDATA #IMPLIED
kvg:original CDATA #IMPLIED
kvg:part CDATA #IMPLIED
kvg:number CDATA #IMPLIED
kvg:tradForm CDATA #IMPLIED
kvg:radicalForm CDATA #IMPLIED
kvg:position CDATA #IMPLIED
kvg:radical CDATA #IMPLIED
kvg:phon CDATA #IMPLIED >
<!ATTLIST path
xmlns:kvg CDATA #FIXED "http://kanjivg.tagaini.net"
kvg:type CDATA #IMPLIED >
]>
<svg xmlns="http://www.w3.org/2000/svg" width="109" height="109" viewBox="0 0 109 109">
<g id="kvg:StrokePaths_091e6" style="fill:none;stroke:#000000;stroke-width:3;stroke-linecap:round;stroke-linejoin:round;">
<g id="kvg:091e6" kvg:element="釦">
	<g id="kvg:091e6-g1" kvg:element="金" kvg:position="left" kvg:radical="general">
		<path id="kvg:091e6-s1" kvg:type="㇒" d="M33.25,15.99c0,0.79,0.05,1.42-0.16,2.37c-1.11,4.94-11.62,21.44-20.62,28.76"/>
		<path id="kvg:091e6-s2" kvg:type="㇔/㇏" d="M34.89,22.71C39.72,24.54,45.9,29.4,48.25,34"/>
		<path id="kvg:091e6-s3" kvg:type="㇐" d="M23,43.5c1.5,0,2.18,0.09,2.67,0.06C30,43.24,38,41.03,43.1,40.8c0.74-0.03,0.9-0.05,2.15-0.05"/>
		<path id="kvg:091e6-s4" kvg:type="㇐" d="M16.09,58.31c0.59,0.33,2.56,0.48,3.17,0.43c5.49-0.49,20.49-3.49,27.28-4.67c0.74-0.13,2.38-0.13,3.49,0.15"/>
		<path id="kvg:091e6-s5" kvg:type="㇑a" d="M32.95,44.69c1.24,0.78,1.24,2.52,1.24,3.14c0,4.35,0.62,32.63,0.31,36.98"/>
		<path id="kvg:091e6-s6" kvg:type="㇔" d="M16.89,68.26c4.37,4.66,6.51,9.71,7.4,12.44"/>
		<path id="kvg:091e6-s7" kvg:type="㇒" d="M47.68,61.55c0.32,0.84,0.48,2.06,0.36,2.76c-0.32,1.81-2.82,5.13-6.37,10.47"/>
		<path id="kvg:091e6-s8" kvg:type="㇀/㇐" d="M14,90.29c1.25,1.46,3.98,1.73,5.21,1.21c3.54-1.5,12.74-5.13,28.04-11"/>
	</g>
	<g id="kvg:091e6-g2" kvg:element="口" kvg:position="right">
		<path id="kvg:091e6-s9" kvg:type="㇑" d="M57.77,31.44c0.39,0.78,0.78,1.68,0.78,2.72c0,1.04,1.87,53.29,2,54.34"/>
		<path id="kvg:091e6-s10" kvg:type="㇕b" d="M59.69,34.07c2.2-0.13,29.91-3.67,31.92-3.83c1.67-0.13,2.74,1.45,2.61,2.22c-0.26,1.57-4.52,49.73-4.52,50.51"/>
		<path id="kvg:091e6-s11" kvg:type="㇐b" d="M61.44,85.06c6.06-0.56,23.31-1.56,30.85-2.04"/>
	</g>
</g>
</g>
<g id="kvg:StrokeNumbers_091e6" style="font-size:8;fill:#808080">
	<text transform="matrix(1 0 0 1 26.50 16.85)">1</text>
	<text transform="matrix(1 0 0 1 39.50 21.85)">2</text>
	<text transform="matrix(1 0 0 1 26.50 40.10)">3</text>
	<text transform="matrix(1 0 0 1 9.50 59.50)">4</text>
	<text transform="matrix(1 0 0 1 26.50 52.50)">5</text>
	<text transform="matrix(1 0 0 1 10.50 70.50)">6</text>
	<text transform="matrix(1 0 0 1 40.50 65.50)">7</text>
	<text transform="matrix(1 0 0 1 5.50 92.50)">8</text>
	<text transform="matrix(1 0 0 1 51.50 40.50)">9</text>
	<text transform="matrix(1 0 0 1 60.50 30.50)">10</text>
	<text transform="matrix(1 0 0 1 63.50 81.50)">11</text>
</g>
</svg>
