<?xml version="1.0" encoding="UTF-8"?>
<!--
Copyright (C) 2009/2010/2011 Ulrich Apel.
This work is distributed under the conditions of the Creative Commons 
Attribution-Share Alike 3.0 Licence. This means you are free:
* to Share - to copy, distribute and transmit the work
* to Remix - to adapt the work

Under the following conditions:
* Attribution. You must attribute the work by stating your use of KanjiVG in
  your own copyright header and linking to KanjiVG's website
  (http://kanjivg.tagaini.net)
* Share Alike. If you alter, transform, or build upon this work, you may
  distribute the resulting work only under the same or similar license to this
  one.

See http://creativecommons.org/licenses/by-sa/3.0/ for more details.
-->
<!DOCTYPE svg PUBLIC "-//W3C//DTD SVG 1.0//EN" "http://www.w3.org/TR/2001/REC-SVG-20010904/DTD/svg10.dtd" [
<!ATTLIST g
xmlns:kvg CDATA #FIXED "http://kanjivg.tagaini.net"
kvg:element CDATA #IMPLIED
kvg:variant CDATA #IMPLIED
kvg:partial CDATA #IMPLIED
kvg:original CDATA #IMPLIED
kvg:part CDATA #IMPLIED
kvg:number CDATA #IMPLIED
kvg:tradForm CDATA #IMPLIED
kvg:radicalForm CDATA #IMPLIED
kvg:position CDATA #IMPLIED
kvg:radical CDATA #IMPLIED
kvg:phon CDATA #IMPLIED >
<!ATTLIST path
xmlns:kvg CDATA #FIXED "http://kanjivg.tagaini.net"
kvg:type CDATA #IMPLIED >
]>
<svg xmlns="http://www.w3.org/2000/svg" width="109" height="109" viewBox="0 0 109 109">
<g id="kvg:StrokePaths_09214" style="fill:none;stroke:#000000;stroke-width:3;stroke-linecap:round;stroke-linejoin:round;">
<g id="kvg:09214" kvg:element="鈔">
	<g id="kvg:09214-g1" kvg:element="金" kvg:position="left" kvg:radical="general">
		<path id="kvg:09214-s1" kvg:type="㇒" d="M31.75,12.24c0,0.91,0.05,1.63-0.15,2.72c-1.08,5.66-11.34,24.54-20.12,32.92"/>
		<path id="kvg:09214-s2" kvg:type="㇔/㇏" d="M32.39,20.21c5.19,2.07,11.83,7.57,14.36,12.79"/>
		<path id="kvg:09214-s3" kvg:type="㇐" d="M20.5,41.5c1.64,0,2.38,0.09,2.91,0.06c4.73-0.31,10.18-1.53,15.75-1.75c0.81-0.03,0.98-0.05,2.34-0.05"/>
		<path id="kvg:09214-s4" kvg:type="㇐" d="M13.09,54.81c0.64,0.33,2.76,0.48,3.41,0.43c5.91-0.49,16.5-1.49,24.02-2.67c0.79-0.12,2.56-0.13,3.75,0.15"/>
		<path id="kvg:09214-s5" kvg:type="㇑a" d="M28.45,41.19c1.24,0.78,1.24,2.52,1.24,3.14c0,4.35,0.62,36.13,0.31,40.48"/>
		<path id="kvg:09214-s6" kvg:type="㇔" d="M14.64,66.26c3.63,5.04,5.41,10.5,6.15,13.44"/>
		<path id="kvg:09214-s7" kvg:type="㇒" d="M42.7,61.05c0.3,0.84,0.46,2.06,0.34,2.76c-0.3,1.81-2.71,5.13-6.12,10.47"/>
		<path id="kvg:09214-s8" kvg:type="㇀/㇐" d="M13.5,90.75c1.25,1,2.75,0.75,4.5,0.25c1.29-0.37,11.25-5.75,24.25-11.75"/>
	</g>
	<g id="kvg:09214-g2" kvg:element="少" kvg:position="right">
		<g id="kvg:09214-g3" kvg:element="小">
			<path id="kvg:09214-s9" kvg:type="㇚" d="M70.58,12.75c0.08,0.38,1.65,1.97,1.73,4.38c0.36,11.54-0.23,40.99-0.23,44.92c0,10.04-6.54,0.6-7.9-0.39"/>
			<path id="kvg:09214-s10" kvg:type="㇒" d="M59.46,33.69c0.03,0.47,0.11,1.24-0.06,1.89c-1.18,4.7-5.42,13.24-9.48,17.58"/>
			<path id="kvg:09214-s11" kvg:type="㇔" d="M85.93,31.48c5.24,2.95,12.27,10.53,13.57,15.12"/>
		</g>
		<g id="kvg:09214-g4" kvg:element="丿">
			<path id="kvg:09214-s12" kvg:type="㇒" d="M88.8,47.72c0.1,1.15,0.37,3-0.21,4.61C82.5,69.25,67.5,86,49.97,97"/>
		</g>
	</g>
</g>
</g>
<g id="kvg:StrokeNumbers_09214" style="font-size:8;fill:#808080">
	<text transform="matrix(1 0 0 1 24.50 11.50)">1</text>
	<text transform="matrix(1 0 0 1 37.50 20.50)">2</text>
	<text transform="matrix(1 0 0 1 26.50 37.50)">3</text>
	<text transform="matrix(1 0 0 1 6.50 57.50)">4</text>
	<text transform="matrix(1 0 0 1 22.50 50.50)">5</text>
	<text transform="matrix(1 0 0 1 7.50 66.85)">6</text>
	<text transform="matrix(1 0 0 1 36.50 62.50)">7</text>
	<text transform="matrix(1 0 0 1 4.50 91.50)">8</text>
	<text transform="matrix(1 0 0 1 62.50 12.50)">9</text>
	<text transform="matrix(1 0 0 1 51.50 29.50)">10</text>
	<text transform="matrix(1 0 0 1 80.50 28.50)">11</text>
	<text transform="matrix(1 0 0 1 77.25 47.30)">12</text>
</g>
</svg>
