<?xml version="1.0" encoding="UTF-8"?>
<!--
Copyright (C) 2009/2010/2011 Ulrich Apel.
This work is distributed under the conditions of the Creative Commons 
Attribution-Share Alike 3.0 Licence. This means you are free:
* to Share - to copy, distribute and transmit the work
* to Remix - to adapt the work

Under the following conditions:
* Attribution. You must attribute the work by stating your use of KanjiVG in
  your own copyright header and linking to KanjiVG's website
  (http://kanjivg.tagaini.net)
* Share Alike. If you alter, transform, or build upon this work, you may
  distribute the resulting work only under the same or similar license to this
  one.

See http://creativecommons.org/licenses/by-sa/3.0/ for more details.
-->
<!DOCTYPE svg PUBLIC "-//W3C//DTD SVG 1.0//EN" "http://www.w3.org/TR/2001/REC-SVG-20010904/DTD/svg10.dtd" [
<!ATTLIST g
xmlns:kvg CDATA #FIXED "http://kanjivg.tagaini.net"
kvg:element CDATA #IMPLIED
kvg:variant CDATA #IMPLIED
kvg:partial CDATA #IMPLIED
kvg:original CDATA #IMPLIED
kvg:part CDATA #IMPLIED
kvg:number CDATA #IMPLIED
kvg:tradForm CDATA #IMPLIED
kvg:radicalForm CDATA #IMPLIED
kvg:position CDATA #IMPLIED
kvg:radical CDATA #IMPLIED
kvg:phon CDATA #IMPLIED >
<!ATTLIST path
xmlns:kvg CDATA #FIXED "http://kanjivg.tagaini.net"
kvg:type CDATA #IMPLIED >
]>
<svg xmlns="http://www.w3.org/2000/svg" width="109" height="109" viewBox="0 0 109 109">
<g id="kvg:StrokePaths_0923f-Kaisho" style="fill:none;stroke:#000000;stroke-width:3;stroke-linecap:round;stroke-linejoin:round;">
<g id="kvg:0923f-Kaisho" kvg:element="鈿">
	<g id="kvg:0923f-Kaisho-g1" kvg:element="金" kvg:position="left" kvg:radical="general">
		<path id="kvg:0923f-Kaisho-s1" kvg:type="㇒" d="M31.75,15.24c0,0.77,0.05,1.39-0.16,2.32c-1.12,4.83-11.76,20.93-20.87,28.07"/>
		<path id="kvg:0923f-Kaisho-s2" kvg:type="㇔/㇏" d="M32.39,21.46c4.47,2.03,11.18,8.42,13.36,13.54"/>
		<path id="kvg:0923f-Kaisho-s3" kvg:type="㇐" d="M19,42.5c1.71,0,2.49,0.09,3.05,0.06c4.95-0.31,10.67-1.53,16.5-1.75c0.84-0.03,1.02-0.05,2.45-0.05"/>
		<path id="kvg:0923f-Kaisho-s4" kvg:type="㇐" d="M13.09,56.81c0.59,0.33,2.56,0.48,3.17,0.43c5.49-0.49,17.74-1.99,25.28-2.67c0.74-0.07,2.38-0.13,3.49,0.15"/>
		<path id="kvg:0923f-Kaisho-s5" kvg:type="㇑a" d="M29.45,45.19c1.24,0.78,1.24,2.52,1.24,3.14c0,4.35,0.62,32.63,0.31,36.98"/>
		<path id="kvg:0923f-Kaisho-s6" kvg:type="㇔" d="M14.39,67.51c4.67,4.76,6.95,9.91,7.9,12.69"/>
		<path id="kvg:0923f-Kaisho-s7" kvg:type="㇒" d="M43.51,62.55c0.45,0.74,0.33,1.88,0.01,2.45c-1.27,2.25-3.53,4.55-8.6,9.28"/>
		<path id="kvg:0923f-Kaisho-s8" kvg:type="㇀/㇐" d="M13.5,92.25c1.25,1,2.75,0.75,4.5,0.25c1.29-0.37,11.25-5.75,24.25-11.75"/>
	</g>
	<g id="kvg:0923f-Kaisho-g2" kvg:element="田" kvg:position="right">
		<path id="kvg:0923f-Kaisho-s9" kvg:type="㇑" d="M52,24.73c0.3,1.13,1.23,2.93,1.28,4.33c0.57,14.07,1.28,39.95,1.7,62.69"/>
		<path id="kvg:0923f-Kaisho-s10" kvg:type="㇕a" d="M53.39,26.84c10.37-1.26,28.39-3.53,36.2-4.09c3.41-0.25,4.79,2.16,4.64,5.5C93.66,40.48,92,72,90.78,90.15"/>
		<path id="kvg:0923f-Kaisho-s11" kvg:type="㇑a" d="M70.45,26.2c0.65,0.61,1.09,2.42,1.08,4.44c-0.05,13.27,0.25,51.53,0.25,56.35"/>
		<path id="kvg:0923f-Kaisho-s12" kvg:type="㇐a" d="M54.42,55.86c8.42-1.36,17.19-1.5,25.69-2.1c1.03-0.07,2.04-0.14,3-0.21"/>
		<path id="kvg:0923f-Kaisho-s13" kvg:type="㇐a" d="M55.12,88.78c7.5,0,25.17-2,35.53-2.3"/>
	</g>
</g>
</g>
<g id="kvg:StrokeNumbers_0923f-Kaisho" style="font-size:8;fill:#808080">
	<text transform="matrix(1 0 0 1 23.50 14.50)">1</text>
	<text transform="matrix(1 0 0 1 37.50 22.50)">2</text>
	<text transform="matrix(1 0 0 1 24.50 39.50)">3</text>
	<text transform="matrix(1 0 0 1 6.50 57.50)">4</text>
	<text transform="matrix(1 0 0 1 23.50 52.50)">5</text>
	<text transform="matrix(1 0 0 1 7.50 68.50)">6</text>
	<text transform="matrix(1 0 0 1 35.50 64.50)">7</text>
	<text transform="matrix(1 0 0 1 5.50 91.50)">8</text>
	<text transform="matrix(1 0 0 1 46.50 42.50)">9</text>
	<text transform="matrix(1 0 0 1 53.50 23.50)">10</text>
	<text transform="matrix(1 0 0 1 62.50 34.88)">11</text>
	<text transform="matrix(1 0 0 1 57.50 52.50)">12</text>
	<text transform="matrix(1 0 0 1 58.50 85.50)">13</text>
</g>
</svg>
