<?xml version="1.0" encoding="UTF-8"?>
<!--
Copyright (C) 2009/2010/2011 Ulrich Apel.
This work is distributed under the conditions of the Creative Commons 
Attribution-Share Alike 3.0 Licence. This means you are free:
* to Share - to copy, distribute and transmit the work
* to Remix - to adapt the work

Under the following conditions:
* Attribution. You must attribute the work by stating your use of KanjiVG in
  your own copyright header and linking to KanjiVG's website
  (http://kanjivg.tagaini.net)
* Share Alike. If you alter, transform, or build upon this work, you may
  distribute the resulting work only under the same or similar license to this
  one.

See http://creativecommons.org/licenses/by-sa/3.0/ for more details.
-->
<!DOCTYPE svg PUBLIC "-//W3C//DTD SVG 1.0//EN" "http://www.w3.org/TR/2001/REC-SVG-20010904/DTD/svg10.dtd" [
<!ATTLIST g
xmlns:kvg CDATA #FIXED "http://kanjivg.tagaini.net"
kvg:element CDATA #IMPLIED
kvg:variant CDATA #IMPLIED
kvg:partial CDATA #IMPLIED
kvg:original CDATA #IMPLIED
kvg:part CDATA #IMPLIED
kvg:number CDATA #IMPLIED
kvg:tradForm CDATA #IMPLIED
kvg:radicalForm CDATA #IMPLIED
kvg:position CDATA #IMPLIED
kvg:radical CDATA #IMPLIED
kvg:phon CDATA #IMPLIED >
<!ATTLIST path
xmlns:kvg CDATA #FIXED "http://kanjivg.tagaini.net"
kvg:type CDATA #IMPLIED >
]>
<svg xmlns="http://www.w3.org/2000/svg" width="109" height="109" viewBox="0 0 109 109">
<g id="kvg:StrokePaths_09298" style="fill:none;stroke:#000000;stroke-width:3;stroke-linecap:round;stroke-linejoin:round;">
<g id="kvg:09298" kvg:element="銘">
	<g id="kvg:09298-g1" kvg:element="金" kvg:position="left" kvg:radical="general">
		<path id="kvg:09298-s1" kvg:type="㇒" d="M31.25,13.49c0,0.85,0.05,1.54-0.15,2.56c-1.07,5.34-10.7,23.17-19.37,31.07"/>
		<path id="kvg:09298-s2" kvg:type="㇔/㇏" d="M34.02,19.84c4.52,1.93,10.29,7.05,12.48,11.91"/>
		<path id="kvg:09298-s3" kvg:type="㇐" d="M21,41.75c1.64,0,3.01,0.08,4.66-0.2c3.65-0.63,8.22-1.86,12.23-2.35c1.28-0.16,2.58-0.45,3.87-0.45"/>
		<path id="kvg:09298-s4" kvg:type="㇐" d="M13.34,57.81c2.16,0.69,4.65,0.53,6.29,0.27c5.99-0.94,15.68-3.23,22.03-4.24c1.36-0.21,3.22-0.47,4.61-0.37"/>
		<path id="kvg:09298-s5" kvg:type="㇑a" d="M29.95,44.19c0.87,0.87,1.24,1.93,1.24,3.64c0,4.35,0.06,28.92,0.06,35.98"/>
		<path id="kvg:09298-s6" kvg:type="㇔" d="M16.14,69.51c3.78,4.01,5.63,8.35,6.4,10.69"/>
		<path id="kvg:09298-s7" kvg:type="㇒" d="M44.04,62.05c0.23,0.71,0.03,1.8-0.24,2.35c-1.05,2.11-2.68,5.23-4.88,8.38"/>
		<path id="kvg:09298-s8" kvg:type="㇀/㇐" d="M14,89.6c1,0.9,2.3,0.83,3.39,0.42C22,88.25,29.29,85.86,42.75,81"/>
	</g>
	<g id="kvg:09298-g2" kvg:element="名" kvg:position="right" kvg:phon="名">
		<g id="kvg:09298-g3" kvg:element="夕" kvg:position="top">
			<path id="kvg:09298-s9" kvg:type="㇒" d="M69.06,14.39c0.2,0.52,0.26,1.84-0.11,2.81c-2.7,7.04-10.2,18.04-19.03,26.4"/>
			<path id="kvg:09298-s10" kvg:type="㇇" d="M69.13,25.43c1.12,0.32,2.75,0.19,3.71,0.08C77.25,25,80.5,24,85.44,23.09c3.15-0.58,3.94,0.99,3.16,3.36C84.3,39.41,67.12,63.5,47,72.03"/>
			<path id="kvg:09298-s11" kvg:type="㇔" d="M60.19,41.23c3.48,1.52,9,6.23,9.87,8.59"/>
		</g>
		<g id="kvg:09298-g4" kvg:element="口" kvg:position="bottom">
			<path id="kvg:09298-s12" kvg:type="㇑" d="M59.12,68.12c0.94,0.94,1.4,2.11,1.68,3.57c0.83,4.33,1.77,10.98,2.59,17.47c0.22,1.72,0.43,3.44,0.63,5.09"/>
			<path id="kvg:09298-s13" kvg:type="㇕b" d="M61.2,69.27c6.36-0.86,21.46-3.36,27.69-3.86c2.92-0.23,5.06,1.28,4.21,4.4c-1.26,4.64-2.46,10.38-4.32,18.27"/>
			<path id="kvg:09298-s14" kvg:type="㇐b" d="M64.9,90.84c5.85-0.59,14.73-1.39,22.32-1.86c1.55-0.1,2.97-0.17,4.18-0.19"/>
		</g>
	</g>
</g>
</g>
<g id="kvg:StrokeNumbers_09298" style="font-size:8;fill:#808080">
	<text transform="matrix(1 0 0 1 23.50 15.50)">1</text>
	<text transform="matrix(1 0 0 1 38.50 19.50)">2</text>
	<text transform="matrix(1 0 0 1 27.75 37.55)">3</text>
	<text transform="matrix(1 0 0 1 6.50 59.50)">4</text>
	<text transform="matrix(1 0 0 1 23.50 51.50)">5</text>
	<text transform="matrix(1 0 0 1 8.50 71.50)">6</text>
	<text transform="matrix(1 0 0 1 35.25 64.50)">7</text>
	<text transform="matrix(1 0 0 1 5.25 93.13)">8</text>
	<text transform="matrix(1 0 0 1 60.50 15.50)">9</text>
	<text transform="matrix(1 0 0 1 74.50 21.50)">10</text>
	<text transform="matrix(1 0 0 1 62.50 40.55)">11</text>
	<text transform="matrix(1 0 0 1 51.50 79.50)">12</text>
	<text transform="matrix(1 0 0 1 70.50 64.50)">13</text>
	<text transform="matrix(1 0 0 1 66.50 87.05)">14</text>
</g>
</svg>
