<?xml version="1.0" encoding="UTF-8"?>
<!--
Copyright (C) 2009/2010/2011 Ulrich Apel.
This work is distributed under the conditions of the Creative Commons 
Attribution-Share Alike 3.0 Licence. This means you are free:
* to Share - to copy, distribute and transmit the work
* to Remix - to adapt the work

Under the following conditions:
* Attribution. You must attribute the work by stating your use of KanjiVG in
  your own copyright header and linking to KanjiVG's website
  (http://kanjivg.tagaini.net)
* Share Alike. If you alter, transform, or build upon this work, you may
  distribute the resulting work only under the same or similar license to this
  one.

See http://creativecommons.org/licenses/by-sa/3.0/ for more details.
-->
<!DOCTYPE svg PUBLIC "-//W3C//DTD SVG 1.0//EN" "http://www.w3.org/TR/2001/REC-SVG-20010904/DTD/svg10.dtd" [
<!ATTLIST g
xmlns:kvg CDATA #FIXED "http://kanjivg.tagaini.net"
kvg:element CDATA #IMPLIED
kvg:variant CDATA #IMPLIED
kvg:partial CDATA #IMPLIED
kvg:original CDATA #IMPLIED
kvg:part CDATA #IMPLIED
kvg:number CDATA #IMPLIED
kvg:tradForm CDATA #IMPLIED
kvg:radicalForm CDATA #IMPLIED
kvg:position CDATA #IMPLIED
kvg:radical CDATA #IMPLIED
kvg:phon CDATA #IMPLIED >
<!ATTLIST path
xmlns:kvg CDATA #FIXED "http://kanjivg.tagaini.net"
kvg:type CDATA #IMPLIED >
]>
<svg xmlns="http://www.w3.org/2000/svg" width="109" height="109" viewBox="0 0 109 109">
<g id="kvg:StrokePaths_092d2" style="fill:none;stroke:#000000;stroke-width:3;stroke-linecap:round;stroke-linejoin:round;">
<g id="kvg:092d2" kvg:element="鋒">
	<g id="kvg:092d2-g1" kvg:element="金" kvg:position="left" kvg:radical="general">
		<path id="kvg:092d2-s1" kvg:type="㇒" d="M30.25,13.99c0,0.78,0.05,1.4-0.15,2.33c-1.04,4.87-10.92,21.1-19.38,28.3"/>
		<path id="kvg:092d2-s2" kvg:type="㇔/㇏" d="M32.39,20.46C36.5,22.25,41.75,27,43.75,31.5"/>
		<path id="kvg:092d2-s3" kvg:type="㇐" d="M17.5,42.14c1.75,0,2.55,0.12,3.12,0.07c5.06-0.41,10.91-2.01,16.87-2.3c0.86-0.04,1.05-0.07,2.51-0.07"/>
		<path id="kvg:092d2-s4" kvg:type="㇐" d="M12.59,57.31c0.59,0.33,2.56,0.48,3.17,0.43c5.49-0.49,16.24-2.99,22.78-4.17c0.73-0.13,2.38-0.13,3.49,0.15"/>
		<path id="kvg:092d2-s5" kvg:type="㇑a" d="M28.45,43.69c1.24,0.78,1.24,2.52,1.24,3.14c0,4.35,0.31,33.42,0.31,39.48"/>
		<path id="kvg:092d2-s6" kvg:type="㇔" d="M14.14,69.26c3.93,4.1,5.85,8.54,6.65,10.94"/>
		<path id="kvg:092d2-s7" kvg:type="㇒" d="M42.1,62.05c0.38,0.79,0.57,1.94,0.43,2.61c-0.38,1.71-3.37,4.84-7.61,9.87"/>
		<path id="kvg:092d2-s8" kvg:type="㇀/㇐" d="M13,91.75c0.52,0.23,2.42,1.18,3.5,0.75c1.25-0.5,11.75-4.75,24.75-10.75"/>
	</g>
	<g id="kvg:092d2-g2" kvg:position="right">
		<g id="kvg:092d2-g3" kvg:element="夂">
			<path id="kvg:092d2-s9" kvg:type="㇒" d="M64.32,10.25c0.05,0.62,0.09,1.6-0.09,2.49c-1.06,5.24-7.15,16.74-15.48,23.78"/>
			<path id="kvg:092d2-s10" kvg:type="㇇" d="M63.22,19.7c0.29,0.03,1.5,0,2.31-0.1c2.67-0.32,9.71-2.03,13.52-3.03c2.61-0.69,3.59,0.88,2.69,2.65C76.5,29.5,65.25,44.25,48.78,52.25"/>
			<path id="kvg:092d2-s11" kvg:type="㇏" d="M58.53,26.07c4.62,3.7,25.55,17.77,31.77,21.16c1.86,1.01,3.36,1.5,5.17,1.8"/>
		</g>
		<g id="kvg:092d2-g4" kvg:element="三">
			<g id="kvg:092d2-g5" kvg:element="一" kvg:position="top">
				<path id="kvg:092d2-s12" kvg:type="㇐" d="M56.8,57.15c0.81,0.37,2.29,0.46,3.1,0.37c9.35-1.02,14.6-2.27,22.4-3.26c1.34-0.17,2.16,0.18,2.83,0.36"/>
			</g>
			<g id="kvg:092d2-g6" kvg:position="bottom">
				<g id="kvg:092d2-g7" kvg:element="一">
					<path id="kvg:092d2-s13" kvg:type="㇐" d="M54.3,67.9c0.81,0.37,2.29,0.46,3.1,0.37c9.35-1.02,21.1-2.77,28.9-3.76c1.34-0.17,2.16,0.18,2.83,0.36"/>
				</g>
				<g id="kvg:092d2-g8" kvg:element="一">
					<path id="kvg:092d2-s14" kvg:type="㇐" d="M47.8,79.75c1.35,0.62,3.83,0.75,5.17,0.62C65,79.25,81.5,76.75,91.4,76.42c2.25-0.07,3.6,0.29,4.72,0.61"/>
				</g>
			</g>
		</g>
		<g id="kvg:092d2-g9" kvg:element="丨">
			<path id="kvg:092d2-s15" kvg:type="㇑" d="M69.08,47c0.67,0.39,2.21,2.25,2.21,3.74c0,8.26,0.28,38.01,0.28,48.61"/>
		</g>
	</g>
</g>
</g>
<g id="kvg:StrokeNumbers_092d2" style="font-size:8;fill:#808080">
	<text transform="matrix(1 0 0 1 23.50 13.50)">1</text>
	<text transform="matrix(1 0 0 1 36.66 19.50)">2</text>
	<text transform="matrix(1 0 0 1 24.50 38.50)">3</text>
	<text transform="matrix(1 0 0 1 5.50 57.50)">4</text>
	<text transform="matrix(1 0 0 1 22.50 50.50)">5</text>
	<text transform="matrix(1 0 0 1 6.50 68.50)">6</text>
	<text transform="matrix(1 0 0 1 34.50 63.85)">7</text>
	<text transform="matrix(1 0 0 1 4.50 93.85)">8</text>
	<text transform="matrix(1 0 0 1 56.50 10.50)">9</text>
	<text transform="matrix(1 0 0 1 69.50 14.50)">10</text>
	<text transform="matrix(1 0 0 1 63.50 27.50)">11</text>
	<text transform="matrix(1 0 0 1 48.50 58.50)">12</text>
	<text transform="matrix(1 0 0 1 47.50 65.50)">13</text>
	<text transform="matrix(1 0 0 1 44.50 76.50)">14</text>
	<text transform="matrix(1 0 0 1 61.50 52.50)">15</text>
</g>
</svg>
