<?xml version="1.0" encoding="UTF-8"?>
<!--
Copyright (C) 2009/2010/2011 Ulrich Apel.
This work is distributed under the conditions of the Creative Commons 
Attribution-Share Alike 3.0 Licence. This means you are free:
* to Share - to copy, distribute and transmit the work
* to Remix - to adapt the work

Under the following conditions:
* Attribution. You must attribute the work by stating your use of KanjiVG in
  your own copyright header and linking to KanjiVG's website
  (http://kanjivg.tagaini.net)
* Share Alike. If you alter, transform, or build upon this work, you may
  distribute the resulting work only under the same or similar license to this
  one.

See http://creativecommons.org/licenses/by-sa/3.0/ for more details.
-->
<!DOCTYPE svg PUBLIC "-//W3C//DTD SVG 1.0//EN" "http://www.w3.org/TR/2001/REC-SVG-20010904/DTD/svg10.dtd" [
<!ATTLIST g
xmlns:kvg CDATA #FIXED "http://kanjivg.tagaini.net"
kvg:element CDATA #IMPLIED
kvg:variant CDATA #IMPLIED
kvg:partial CDATA #IMPLIED
kvg:original CDATA #IMPLIED
kvg:part CDATA #IMPLIED
kvg:number CDATA #IMPLIED
kvg:tradForm CDATA #IMPLIED
kvg:radicalForm CDATA #IMPLIED
kvg:position CDATA #IMPLIED
kvg:radical CDATA #IMPLIED
kvg:phon CDATA #IMPLIED >
<!ATTLIST path
xmlns:kvg CDATA #FIXED "http://kanjivg.tagaini.net"
kvg:type CDATA #IMPLIED >
]>
<svg xmlns="http://www.w3.org/2000/svg" width="109" height="109" viewBox="0 0 109 109">
<g id="kvg:StrokePaths_09335" style="fill:none;stroke:#000000;stroke-width:3;stroke-linecap:round;stroke-linejoin:round;">
<g id="kvg:09335" kvg:element="錵">
	<g id="kvg:09335-g1" kvg:element="金" kvg:position="left" kvg:radical="general">
		<path id="kvg:09335-s1" kvg:type="㇒" d="M28.75,15.74c0,0.83,0.05,1.49-0.16,2.49c-1.12,5.18-11.76,22.48-20.87,30.15"/>
		<path id="kvg:09335-s2" kvg:type="㇔/㇏" d="M29.39,21.71c4.29,1.91,9.77,6.98,11.86,11.79"/>
		<path id="kvg:09335-s3" kvg:type="㇐" d="M18.5,41.5c1.5,0,2.18,0.09,2.67,0.06c4.33-0.31,10.33-2.03,15.44-2.25c0.74-0.03,0.9-0.05,2.15-0.05"/>
		<path id="kvg:09335-s4" kvg:type="㇐" d="M12.59,55.81c0.59,0.33,2.56,0.48,3.17,0.43c5.49-0.49,15.49-2.24,22.28-3.17c0.74-0.1,2.38-0.13,3.49,0.15"/>
		<path id="kvg:09335-s5" kvg:type="㇑a" d="M26.45,42.19c1.24,0.78,1.24,2.52,1.24,3.14c0,4.35,0.62,35.63,0.31,39.98"/>
		<path id="kvg:09335-s6" kvg:type="㇔" d="M12.64,66.01c3.63,4.94,5.41,10.3,6.15,13.19"/>
		<path id="kvg:09335-s7" kvg:type="㇒" d="M39.7,60.05c0.3,0.84,0.46,2.06,0.34,2.76c-0.3,1.81-2.71,5.13-6.12,10.47"/>
		<path id="kvg:09335-s8" kvg:type="㇀/㇐" d="M12,91.28c1.17,0.96,2.58,0.72,4.23,0.24C17.44,91.16,26.79,86,39,80.25"/>
	</g>
	<g id="kvg:09335-g2" kvg:element="花" kvg:position="right">
		<g id="kvg:09335-g3" kvg:element="艹" kvg:variant="true" kvg:original="艸" kvg:position="top">
			<path id="kvg:09335-s9" kvg:type="㇐" d="M44.97,25.01c1.48,0.46,3.21,0.52,4.69,0.46C59.75,25,83.75,22,91.46,22.6c2.46,0.19,3.96,0.22,5.19,0.45"/>
			<path id="kvg:09335-s10" kvg:type="㇑a" d="M57.41,13.75c0.86,1.36,1.14,1.77,1.23,2.61c0.86,7.82,1.59,12.82,1.84,15.67"/>
			<path id="kvg:09335-s11" kvg:type="㇑a" d="M79.72,11.91c0.22,1.15,0.5,2,0.26,3.41c-1.44,8.28-1.59,7.9-3.16,15.69"/>
		</g>
		<g id="kvg:09335-g4" kvg:element="化" kvg:position="bottom">
			<g id="kvg:09335-g5" kvg:element="亻" kvg:variant="true" kvg:original="人">
				<path id="kvg:09335-s12" kvg:type="㇒" d="M62.91,40.55c0,1.57-0.64,3.96-1.28,5.3c-4.18,8.73-12.45,19.69-17.96,25.46"/>
				<path id="kvg:09335-s13" kvg:type="㇑" d="M55.96,59.17c0.56,1.19,0.95,2.35,0.97,3.57c0.12,9.11-0.42,28.8-0.09,33.26"/>
			</g>
			<g id="kvg:09335-g6" kvg:element="匕">
				<path id="kvg:09335-s14" kvg:type="㇒" d="M93.32,47.67c0,1.25,0.03,2.65-0.97,3.66c-4.56,4.6-9.07,8.87-15.11,13.24"/>
				<path id="kvg:09335-s15" kvg:type="㇟" d="M73.31,40.3c0.45,0.79,1.05,2.87,1.05,3.96c0,3.34,0.15,38.54,0.15,39.22c0,9.27,1,10.5,10.75,10.5c9.5,0,10.25-1.24,10.25-11.17"/>
			</g>
		</g>
	</g>
</g>
</g>
<g id="kvg:StrokeNumbers_09335" style="font-size:8;fill:#808080">
	<text transform="matrix(1 0 0 1 20.85 16.85)">1</text>
	<text transform="matrix(1 0 0 1 33.50 22.50)">2</text>
	<text transform="matrix(1 0 0 1 27.71 35.85)">3</text>
	<text transform="matrix(1 0 0 1 5.50 56.85)">4</text>
	<text transform="matrix(1 0 0 1 20.50 50.50)">5</text>
	<text transform="matrix(1 0 0 1 5.50 67.50)">6</text>
	<text transform="matrix(1 0 0 1 32.50 63.85)">7</text>
	<text transform="matrix(1 0 0 1 4.50 92.50)">8</text>
	<text transform="matrix(1 0 0 1 42.50 22.50)">9</text>
	<text transform="matrix(1 0 0 1 45.50 13.50)">10</text>
	<text transform="matrix(1 0 0 1 68.50 10.50)">11</text>
	<text transform="matrix(1 0 0 1 52.25 41.50)">12</text>
	<text transform="matrix(1 0 0 1 47.50 74.50)">13</text>
	<text transform="matrix(1 0 0 1 82.50 47.50)">14</text>
	<text transform="matrix(1 0 0 1 65.50 36.50)">15</text>
</g>
</svg>
