<?xml version="1.0" encoding="UTF-8"?>
<!--
Copyright (C) 2009/2010/2011 Ulrich Apel.
This work is distributed under the conditions of the Creative Commons 
Attribution-Share Alike 3.0 Licence. This means you are free:
* to Share - to copy, distribute and transmit the work
* to Remix - to adapt the work

Under the following conditions:
* Attribution. You must attribute the work by stating your use of KanjiVG in
  your own copyright header and linking to KanjiVG's website
  (http://kanjivg.tagaini.net)
* Share Alike. If you alter, transform, or build upon this work, you may
  distribute the resulting work only under the same or similar license to this
  one.

See http://creativecommons.org/licenses/by-sa/3.0/ for more details.
-->
<!DOCTYPE svg PUBLIC "-//W3C//DTD SVG 1.0//EN" "http://www.w3.org/TR/2001/REC-SVG-20010904/DTD/svg10.dtd" [
<!ATTLIST g
xmlns:kvg CDATA #FIXED "http://kanjivg.tagaini.net"
kvg:element CDATA #IMPLIED
kvg:variant CDATA #IMPLIED
kvg:partial CDATA #IMPLIED
kvg:original CDATA #IMPLIED
kvg:part CDATA #IMPLIED
kvg:number CDATA #IMPLIED
kvg:tradForm CDATA #IMPLIED
kvg:radicalForm CDATA #IMPLIED
kvg:position CDATA #IMPLIED
kvg:radical CDATA #IMPLIED
kvg:phon CDATA #IMPLIED >
<!ATTLIST path
xmlns:kvg CDATA #FIXED "http://kanjivg.tagaini.net"
kvg:type CDATA #IMPLIED >
]>
<svg xmlns="http://www.w3.org/2000/svg" width="109" height="109" viewBox="0 0 109 109">
<g id="kvg:StrokePaths_093ac" style="fill:none;stroke:#000000;stroke-width:3;stroke-linecap:round;stroke-linejoin:round;">
<g id="kvg:093ac" kvg:element="鎬">
	<g id="kvg:093ac-g1" kvg:element="金" kvg:position="left" kvg:radical="general">
		<path id="kvg:093ac-s1" kvg:type="㇒" d="M29.75,13.74c0,0.78,0.05,1.41-0.14,2.35C28.64,21,19.39,37.37,11.47,44.63"/>
		<path id="kvg:093ac-s2" kvg:type="㇔/㇏" d="M32.39,20.71c4.65,2.15,10.6,7.87,12.86,13.29"/>
		<path id="kvg:093ac-s3" kvg:type="㇐" d="M19.5,41.11c1.69,0,2.46,0.1,3.01,0.06c4.9-0.35,10.55-1.73,16.31-1.98c0.83-0.04,1.01-0.06,2.43-0.06"/>
		<path id="kvg:093ac-s4" kvg:type="㇐" d="M13.59,56.25c0.65,0.44,2.78,0.64,3.44,0.57c5.96-0.66,15.72-2.57,23.71-3.56c0.8-0.1,2.58-0.18,3.78,0.2"/>
		<path id="kvg:093ac-s5" kvg:type="㇑a" d="M28.45,43.19c1.24,0.78,1.24,2.52,1.24,3.14c0,4.35,0.62,35.13,0.31,39.48"/>
		<path id="kvg:093ac-s6" kvg:type="㇔" d="M13.89,65.26c4.08,4.85,6.57,11.11,7.4,13.94"/>
		<path id="kvg:093ac-s7" kvg:type="㇒" d="M41.7,61.05c0.3,0.84,0.46,2.06,0.34,2.76c-0.3,1.81-2.71,5.13-6.12,10.47"/>
		<path id="kvg:093ac-s8" kvg:type="㇀/㇐" d="M12.5,90.41c1.25,0.77,2.75,0.58,4.5,0.19c1.29-0.29,11.25-4.45,24.25-9.1"/>
	</g>
	<g id="kvg:093ac-g2" kvg:element="高" kvg:position="right">
		<g id="kvg:093ac-g3" kvg:position="top">
			<g id="kvg:093ac-g4" kvg:element="亠">
				<path id="kvg:093ac-s9" kvg:type="㇑a" d="M69.37,11.73c0.65,0.46,1.72,2.26,1.72,3.18c0,3.41-0.21,6-0.08,8.88"/>
				<path id="kvg:093ac-s10" kvg:type="㇐" d="M49.89,25.48c1.06,0.04,3.47,0.28,4.5,0.22c8.31-0.47,24.2-2.38,35.49-2.5c1.74-0.02,2.63,0.02,3.93,0.28"/>
			</g>
			<g id="kvg:093ac-g5" kvg:element="口">
				<path id="kvg:093ac-s11" kvg:type="㇑" d="M57.8,33.89c0.38,0.3,0.76,0.54,0.93,0.91c1.31,2.94,1.49,10.03,2.38,15.31"/>
				<path id="kvg:093ac-s12" kvg:type="㇕b" d="M60.15,35.88c8.1-1.13,18.9-2.72,23.32-3.11c1.61-0.14,2.58,1.75,2.35,2.58c-0.96,3.43-1.07,4.89-1.8,9.48"/>
				<path id="kvg:093ac-s13" kvg:type="㇐b" d="M61.29,47.54c5.19-0.44,17.22-1.61,24.34-2.28"/>
			</g>
		</g>
		<g id="kvg:093ac-g6" kvg:position="bottom">
			<g id="kvg:093ac-g7" kvg:element="冂">
				<path id="kvg:093ac-s14" kvg:type="㇑" d="M50.25,57.69c0.5,1.15,1.2,2.52,1.36,4.59c0.37,4.82,0.93,25.89,1.45,33.24"/>
				<path id="kvg:093ac-s15" kvg:type="㇆a" d="M51.58,58.94c6.85-0.46,38.86-2.99,40.15-2.97c2.02,0.03,4.26,2.27,4.33,5.62C96.25,70.5,96,81.5,94.25,90.66c-1.18,6.15-5.4,1.61-7.23,0"/>
			</g>
			<g id="kvg:093ac-g8" kvg:element="口">
				<path id="kvg:093ac-s16" kvg:type="㇑" d="M61.46,67c0.27,0.29,0.54,0.52,0.65,0.88c0.92,2.83,2.02,9.13,2.65,14.21"/>
				<path id="kvg:093ac-s17" kvg:type="㇕b" d="M62.61,68.42c5.89-0.67,14.33-1.95,17.42-2.48c1.25-0.21,2.47,1.16,2.35,2.52c-0.31,3.4-1.46,6.38-2.46,10.94"/>
				<path id="kvg:093ac-s18" kvg:type="㇐b" d="M64.88,80.11c3.64-0.42,11.12-0.61,17.67-0.79"/>
			</g>
		</g>
	</g>
</g>
</g>
<g id="kvg:StrokeNumbers_093ac" style="font-size:8;fill:#808080">
	<text transform="matrix(1 0 0 1 22.50 12.50)">1</text>
	<text transform="matrix(1 0 0 1 36.66 20.50)">2</text>
	<text transform="matrix(1 0 0 1 24.50 37.50)">3</text>
	<text transform="matrix(1 0 0 1 6.50 56.50)">4</text>
	<text transform="matrix(1 0 0 1 22.50 50.50)">5</text>
	<text transform="matrix(1 0 0 1 6.50 66.50)">6</text>
	<text transform="matrix(1 0 0 1 34.50 64.50)">7</text>
	<text transform="matrix(1 0 0 1 4.50 92.50)">8</text>
	<text transform="matrix(1 0 0 1 61.50 11.50)">9</text>
	<text transform="matrix(1 0 0 1 46.50 22.50)">10</text>
	<text transform="matrix(1 0 0 1 49.25 42.38)">11</text>
	<text transform="matrix(1 0 0 1 60.50 33.50)">12</text>
	<text transform="matrix(1 0 0 1 63.50 44.50)">13</text>
	<text transform="matrix(1 0 0 1 43.25 72.50)">14</text>
	<text transform="matrix(1 0 0 1 52.50 56.50)">15</text>
	<text transform="matrix(1 0 0 1 54.25 76.50)">16</text>
	<text transform="matrix(1 0 0 1 65.25 65.50)">17</text>
	<text transform="matrix(1 0 0 1 66.50 77.50)">18</text>
</g>
</svg>
