<?xml version="1.0" encoding="UTF-8"?>
<!--
Copyright (C) 2009/2010/2011 Ulrich Apel.
This work is distributed under the conditions of the Creative Commons
Attribution-Share Alike 3.0 Licence. This means you are free:
* to Share - to copy, distribute and transmit the work
* to Remix - to adapt the work

Under the following conditions:
* Attribution. You must attribute the work by stating your use of KanjiVG in
  your own copyright header and linking to KanjiVG's website
  (http://kanjivg.tagaini.net)
* Share Alike. If you alter, transform, or build upon this work, you may
  distribute the resulting work only under the same or similar license to this
  one.

See http://creativecommons.org/licenses/by-sa/3.0/ for more details.
-->
<!DOCTYPE svg PUBLIC "-//W3C//DTD SVG 1.0//EN" "http://www.w3.org/TR/2001/REC-SVG-20010904/DTD/svg10.dtd" [
<!ATTLIST g
xmlns:kvg CDATA #FIXED "http://kanjivg.tagaini.net"
kvg:element CDATA #IMPLIED
kvg:variant CDATA #IMPLIED
kvg:partial CDATA #IMPLIED
kvg:original CDATA #IMPLIED
kvg:part CDATA #IMPLIED
kvg:number CDATA #IMPLIED
kvg:tradForm CDATA #IMPLIED
kvg:radicalForm CDATA #IMPLIED
kvg:position CDATA #IMPLIED
kvg:radical CDATA #IMPLIED
kvg:phon CDATA #IMPLIED >
<!ATTLIST path
xmlns:kvg CDATA #FIXED "http://kanjivg.tagaini.net"
kvg:type CDATA #IMPLIED >
]>
<svg xmlns="http://www.w3.org/2000/svg" width="109" height="109" viewBox="0 0 109 109" xmlns:kvg="https://kanjivg.tagaini.net/">
<g id="kvg:StrokePaths_093ba" style="fill:none;stroke:#000000;stroke-width:3;stroke-linecap:round;stroke-linejoin:round;">
<g id="kvg:093ba" kvg:element="鎺">
	<g id="kvg:093ba-g1" kvg:element="金" kvg:position="left" kvg:radical="general">
		<path id="kvg:093ba-s1" kvg:type="㇒" d="M29.75,17.49c0,0.78,0.05,1.4-0.15,2.33c-1.04,4.87-10.92,21.1-19.38,28.3"/>
		<path id="kvg:093ba-s2" kvg:type="㇔/㇏" d="M31.89,22.71c4.47,1.91,10.18,6.98,12.36,11.79"/>
		<path id="kvg:093ba-s3" kvg:type="㇐" d="M21,43c1.5,0,2.18,0.09,2.67,0.06C28,42.74,33,41.53,38.1,41.3c0.74-0.03,0.9-0.05,2.15-0.05"/>
		<path id="kvg:093ba-s4" kvg:type="㇐" d="M14.59,55.81c0.59,0.33,2.56,0.48,3.17,0.43c5.49-0.49,15.74-2.49,22.78-2.67c0.75-0.02,2.38-0.13,3.49,0.15"/>
		<path id="kvg:093ba-s5" kvg:type="㇑a" d="M28.45,43.69c1.24,0.78,1.24,2.52,1.24,3.14c0,4.35,0.62,32.63,0.31,36.98"/>
		<path id="kvg:093ba-s6" kvg:type="㇔" d="M14.89,66.26c3.78,5.04,5.63,10.5,6.4,13.44"/>
		<path id="kvg:093ba-s7" kvg:type="㇒" d="M43.17,60.55c0.33,0.85,0.5,2.09,0.37,2.82c-0.33,1.85-2.93,5.23-6.62,10.66"/>
		<path id="kvg:093ba-s8" kvg:type="㇀/㇐" d="M12.5,89.83c1.5,1.42,3.13,1.09,4.28,0.68c1.34-0.48,11.55-5.01,25.47-10.75"/>
	</g>
	<g id="kvg:093ba-g2" kvg:element="祖" kvg:position="right">
		<g id="kvg:093ba-g3" kvg:element="示" kvg:position="left">
			<g id="kvg:093ba-g4" kvg:position="top">
				<path id="kvg:093ba-s9" kvg:type="㇐" d="M49.09,16.74c0.44,0.35,1.25,0.39,1.7,0.35c2.78-0.24,7.22-1.26,10.03-1.59c0.74-0.09,1.18,0.16,1.55,0.34"/>
				<path id="kvg:093ba-s10" kvg:type="㇐" d="M53.32,33.27c0.43,0.12,1.21,0.06,1.63,0c2.68-0.36,6.76-1.24,9.84-1.7c0.7-0.1,1.14-0.03,1.5,0.01"/>
			</g>
			<g id="kvg:093ba-g5" kvg:position="bottom">
				<path id="kvg:093ba-s11" kvg:type="㇑" d="M56.07,34.97c0.3,0.43,0.48,1.9,0.54,2.75c0.05,0.85,0,49.49-0.05,54.79"/>
				<path id="kvg:093ba-s12" kvg:type="㇒" d="M50.42,45.9c0.28,1.49,0.28,2.27,0.28,3.54c0,9.27-0.55,21.99-4.74,33.85"/>
				<path id="kvg:093ba-s13" kvg:type="㇑/㇔" d="M61.72,43.01c0.58,0.45,0.94,1.98,1.06,2.87c0.12,0.87,0,27.44-0.12,32.95"/>
			</g>
		</g>
		<g id="kvg:093ba-g6" kvg:element="且" kvg:position="right">
			<g id="kvg:093ba-g7" kvg:element="月">
				<path id="kvg:093ba-s14" kvg:type="㇑a" d="M71.29,15.83c0.41,1.03,0.68,2.04,0.82,3.03c0.14,1,0.3,68.28,0.25,70.5"/>
				<path id="kvg:093ba-s15" kvg:type="㇕b" d="M72.64,18.23c1.68-0.1,12.86-2.76,14.1-3.07c1.22-0.31,2.26,1.36,2.26,3.4c0,1.45-0.14,48.23-0.22,67.88"/>
				<path id="kvg:093ba-s16" kvg:type="㇐a" d="M72.69,42.1c5.88-0.97,10.55-1.4,15.72-1.7"/>
				<path id="kvg:093ba-s17" kvg:type="㇐a" d="M73.04,63.74c4.59-0.35,9.7-1.7,15.01-1.75"/>
			</g>
			<g id="kvg:093ba-g8" kvg:element="一">
				<path id="kvg:093ba-s18" kvg:type="㇐" d="M62.38,91.38c0.87,0.42,2.45,0.48,3.31,0.42c9-0.69,13.13-3.65,29.69-3.77c1.44-0.01,2.3,0.2,3.03,0.41"/>
			</g>
		</g>
	</g>
</g>
</g>
<g id="kvg:StrokeNumbers_093ba" style="font-size:8;fill:#808080">
	<text transform="matrix(1 0 0 1 21.50 18.50)">1</text>
	<text transform="matrix(1 0 0 1 36.50 22.50)">2</text>
	<text transform="matrix(1 0 0 1 25.25 39.48)">3</text>
	<text transform="matrix(1 0 0 1 7.50 57.50)">4</text>
	<text transform="matrix(1 0 0 1 22.50 51.50)">5</text>
	<text transform="matrix(1 0 0 1 7.50 67.50)">6</text>
	<text transform="matrix(1 0 0 1 35.75 63.50)">7</text>
	<text transform="matrix(1 0 0 1 4.50 91.50)">8</text>
	<text transform="matrix(1 0 0 1 42.98 15.75)">9</text>
	<text transform="matrix(1 0 0 1 46.77 31.09)">10</text>
	<text transform="matrix(1 0 0 1 59.01 40.93)">11</text>
	<text transform="matrix(1 0 0 1 43.87 43.72)">12</text>
	<text transform="matrix(1 0 0 1 59.37 50.99)">13</text>
	<text transform="matrix(1 0 0 1 61.18 13.07)">14</text>
	<text transform="matrix(1 0 0 1 73.20 14.58)">15</text>
	<text transform="matrix(1 0 0 1 74.83 38.54)">16</text>
	<text transform="matrix(1 0 0 1 74.83 60.41)">17</text>
	<text transform="matrix(1 0 0 1 60.03 89.20)">18</text>
</g>
</svg>
