<?xml version="1.0" encoding="UTF-8"?>
<!--
Copyright (C) 2009/2010/2011 Ulrich Apel.
This work is distributed under the conditions of the Creative Commons 
Attribution-Share Alike 3.0 Licence. This means you are free:
* to Share - to copy, distribute and transmit the work
* to Remix - to adapt the work

Under the following conditions:
* Attribution. You must attribute the work by stating your use of KanjiVG in
  your own copyright header and linking to KanjiVG's website
  (http://kanjivg.tagaini.net)
* Share Alike. If you alter, transform, or build upon this work, you may
  distribute the resulting work only under the same or similar license to this
  one.

See http://creativecommons.org/licenses/by-sa/3.0/ for more details.
-->
<!DOCTYPE svg PUBLIC "-//W3C//DTD SVG 1.0//EN" "http://www.w3.org/TR/2001/REC-SVG-20010904/DTD/svg10.dtd" [
<!ATTLIST g
xmlns:kvg CDATA #FIXED "http://kanjivg.tagaini.net"
kvg:element CDATA #IMPLIED
kvg:variant CDATA #IMPLIED
kvg:partial CDATA #IMPLIED
kvg:original CDATA #IMPLIED
kvg:part CDATA #IMPLIED
kvg:number CDATA #IMPLIED
kvg:tradForm CDATA #IMPLIED
kvg:radicalForm CDATA #IMPLIED
kvg:position CDATA #IMPLIED
kvg:radical CDATA #IMPLIED
kvg:phon CDATA #IMPLIED >
<!ATTLIST path
xmlns:kvg CDATA #FIXED "http://kanjivg.tagaini.net"
kvg:type CDATA #IMPLIED >
]>
<svg xmlns="http://www.w3.org/2000/svg" width="109" height="109" viewBox="0 0 109 109">
<g id="kvg:StrokePaths_09403" style="fill:none;stroke:#000000;stroke-width:3;stroke-linecap:round;stroke-linejoin:round;">
<g id="kvg:09403" kvg:element="鐃">
	<g id="kvg:09403-g1" kvg:element="金" kvg:position="left" kvg:radical="general">
		<path id="kvg:09403-s1" kvg:type="㇒" d="M27.75,14.24c0,0.79,0.05,1.42-0.15,2.37c-1.04,4.94-10.92,21.44-19.38,28.76"/>
		<path id="kvg:09403-s2" kvg:type="㇔/㇏" d="M28.89,18.96c4.47,2.03,10.18,7.42,12.36,12.54"/>
		<path id="kvg:09403-s3" kvg:type="㇐" d="M17,41.28c1.73,0,2.52,0.11,3.08,0.07c5.01-0.37,9.92-1.85,16.19-2.58c0.85-0.1,1.04-0.06,2.48-0.06"/>
		<path id="kvg:09403-s4" kvg:type="㇐" d="M12.59,55.31c0.59,0.33,2.56,0.48,3.17,0.43c5.49-0.49,15.49-1.99,21.78-3.17c0.73-0.14,2.38-0.13,3.49,0.15"/>
		<path id="kvg:09403-s5" kvg:type="㇑a" d="M25.95,41.19c1.24,0.78,1.24,2.52,1.24,3.14c0,4.35,0.31,34.17,0.31,39.98"/>
		<path id="kvg:09403-s6" kvg:type="㇔" d="M13.89,65.51c3.49,5.32,5.19,11.08,5.9,14.19"/>
		<path id="kvg:09403-s7" kvg:type="㇒" d="M38.76,60.05c0.26,0.85,0.39,2.09,0.29,2.82c-0.26,1.85-2.27,5.23-5.13,10.66"/>
		<path id="kvg:09403-s8" kvg:type="㇀/㇐" d="M11,89.32c1.32,0.9,2.89,0.67,4.73,0.22C17.1,89.21,27.57,84.38,41.25,79"/>
	</g>
	<g id="kvg:09403-g2" kvg:element="堯" kvg:position="right">
		<g id="kvg:09403-g3" kvg:position="top">
			<g id="kvg:09403-g4" kvg:element="土" kvg:position="top">
				<path id="kvg:09403-s9" kvg:type="㇐" d="M53.68,22.24c0.71,0.39,2.02,0.43,2.74,0.39c7.56-0.43,18.31-1.91,27.54-2.25c1.19-0.04,1.9,0.18,2.5,0.38"/>
				<path id="kvg:09403-s10" kvg:type="㇑a" d="M68.17,10.87c0.07,0.26,1.01,1.33,1.01,2.96c0,1.83,0.29,10.29,0.29,17.88"/>
				<path id="kvg:09403-s11" kvg:type="㇐" d="M48.6,33.81c1.08,0.54,3.07,0.66,4.15,0.54c13.41-1.51,24.16-2.63,36.15-3.34c1.8-0.11,2.89,0.26,3.79,0.53"/>
			</g>
			<g id="kvg:09403-g5" kvg:position="bottom">
				<g id="kvg:09403-g6" kvg:element="土" kvg:position="left">
					<path id="kvg:09403-s12" kvg:type="㇐" d="M45.19,48.14c0.58,0.38,1.72,0.4,2.31,0.36c3.84-0.25,11.61-0.39,15.72-1c0.96-0.14,2.02-0.18,2.5,0.01"/>
					<path id="kvg:09403-s13" kvg:type="㇑" d="M55.63,39.5c0.84,0.5,1.51,2.23,1.51,3.25c0,3,0.02,12.5,0.02,17"/>
					<path id="kvg:09403-s14" kvg:type="㇀/㇐" d="M45.84,62.75c0.54,0.53,1.62,1.27,3.23,0.58c4.49-1.93,12.58-4.9,17.07-6.83"/>
				</g>
				<g id="kvg:09403-g7" kvg:element="土" kvg:position="right">
					<path id="kvg:09403-s15" kvg:type="㇐" d="M70.61,47.03c0.64,0.32,1.81,0.33,2.45,0.32c5.93-0.11,14.2-2.11,20-2.21c1.06-0.02,1.7,0.15,2.23,0.31"/>
					<path id="kvg:09403-s16" kvg:type="㇑a" d="M81.21,38.12c0.07,0.23,1.09,1.22,1.09,2.71c0,1.67-0.22,10.92-0.22,17.88"/>
					<path id="kvg:09403-s17" kvg:type="㇐" d="M68.77,60.73c0.74,0.3,2.48,0.37,3.22,0.3c6.61-0.54,16.53-1.54,23.16-1.95c1.23-0.08,1.98,0.15,2.59,0.3"/>
				</g>
			</g>
		</g>
		<g id="kvg:09403-g8" kvg:element="兀" kvg:position="bottom">
			<g id="kvg:09403-g9" kvg:element="一">
				<path id="kvg:09403-s18" kvg:type="㇐" d="M45.77,72.4c1.21,0.37,3.42,0.41,4.62,0.37c8.4-0.27,30.45-3.76,41.92-3.76c2.01,0,3.22,0.18,4.22,0.36"/>
			</g>
			<g id="kvg:09403-g10" kvg:element="儿" kvg:original="八">
				<g id="kvg:09403-g11" kvg:element="丿">
					<path id="kvg:09403-s19" kvg:type="㇒" d="M59.8,75c0.05,0.55,0.1,1.42-0.1,2.22c-1.38,5.46-7.94,15.03-18.53,21.2"/>
				</g>
				<path id="kvg:09403-s20" kvg:type="㇟" d="M73.09,73.41c0.55,1.14,1.02,2.49,1.02,4.25c0,2.36-0.02,3.4-0.02,8.75c0,9.37,2.53,11.08,12.32,11.08c9.79,0,11.37-2.19,11.37-9.73"/>
			</g>
		</g>
	</g>
</g>
</g>
<g id="kvg:StrokeNumbers_09403" style="font-size:8;fill:#808080">
	<text transform="matrix(1 0 0 1 20.85 12.50)">1</text>
	<text transform="matrix(1 0 0 1 33.50 19.50)">2</text>
	<text transform="matrix(1 0 0 1 22.50 37.50)">3</text>
	<text transform="matrix(1 0 0 1 4.50 55.50)">4</text>
	<text transform="matrix(1 0 0 1 20.50 49.50)">5</text>
	<text transform="matrix(1 0 0 1 7.50 65.50)">6</text>
	<text transform="matrix(1 0 0 1 31.50 62.50)">7</text>
	<text transform="matrix(1 0 0 1 3.50 90.50)">8</text>
	<text transform="matrix(1 0 0 1 50.50 19.50)">9</text>
	<text transform="matrix(1 0 0 1 56.50 9.50)">10</text>
	<text transform="matrix(1 0 0 1 45.50 30.50)">11</text>
	<text transform="matrix(1 0 0 1 40.50 45.50)">12</text>
	<text transform="matrix(1 0 0 1 46.50 41.50)">13</text>
	<text transform="matrix(1 0 0 1 42.50 59.65)">14</text>
	<text transform="matrix(1 0 0 1 64.75 44.50)">15</text>
	<text transform="matrix(1 0 0 1 69.50 39.50)">16</text>
	<text transform="matrix(1 0 0 1 69.50 57.50)">17</text>
	<text transform="matrix(1 0 0 1 50.50 69.50)">18</text>
	<text transform="matrix(1 0 0 1 49.50 81.50)">19</text>
	<text transform="matrix(1 0 0 1 64.75 81.20)">20</text>
</g>
</svg>
