<?xml version="1.0" encoding="UTF-8"?>
<!--
Copyright (C) 2009/2010/2011 Ulrich Apel.
This work is distributed under the conditions of the Creative Commons 
Attribution-Share Alike 3.0 Licence. This means you are free:
* to Share - to copy, distribute and transmit the work
* to Remix - to adapt the work

Under the following conditions:
* Attribution. You must attribute the work by stating your use of KanjiVG in
  your own copyright header and linking to KanjiVG's website
  (http://kanjivg.tagaini.net)
* Share Alike. If you alter, transform, or build upon this work, you may
  distribute the resulting work only under the same or similar license to this
  one.

See http://creativecommons.org/licenses/by-sa/3.0/ for more details.
-->
<!DOCTYPE svg PUBLIC "-//W3C//DTD SVG 1.0//EN" "http://www.w3.org/TR/2001/REC-SVG-20010904/DTD/svg10.dtd" [
<!ATTLIST g
xmlns:kvg CDATA #FIXED "http://kanjivg.tagaini.net"
kvg:element CDATA #IMPLIED
kvg:variant CDATA #IMPLIED
kvg:partial CDATA #IMPLIED
kvg:original CDATA #IMPLIED
kvg:part CDATA #IMPLIED
kvg:number CDATA #IMPLIED
kvg:tradForm CDATA #IMPLIED
kvg:radicalForm CDATA #IMPLIED
kvg:position CDATA #IMPLIED
kvg:radical CDATA #IMPLIED
kvg:phon CDATA #IMPLIED >
<!ATTLIST path
xmlns:kvg CDATA #FIXED "http://kanjivg.tagaini.net"
kvg:type CDATA #IMPLIED >
]>
<svg xmlns="http://www.w3.org/2000/svg" width="109" height="109" viewBox="0 0 109 109">
<g id="kvg:StrokePaths_09593" style="fill:none;stroke:#000000;stroke-width:3;stroke-linecap:round;stroke-linejoin:round;">
<g id="kvg:09593" kvg:element="間">
	<g id="kvg:09593-g1" kvg:element="門" kvg:position="kamae" kvg:radical="general">
		<g id="kvg:09593-g2" kvg:position="left">
			<path id="kvg:09593-s1" kvg:type="㇑" d="M18.64,15.3c0.71,0.71,1.18,1.82,1.18,3.43c0,3.89-0.05,56.65-0.19,72.77c-0.02,1.92-0.03,4.03-0.05,4.65"/>
			<path id="kvg:09593-s2" kvg:type="㇕a" d="M21.01,16.81c5.75-0.6,18.73-2.74,20.5-2.84c1.85-0.1,2.86,0.28,2.9,2.02c0.06,2.75-0.5,16.1-0.85,20.76c-0.12,1.55-0.19,2.57-0.19,2.7"/>
			<path id="kvg:09593-s3" kvg:type="㇐a" d="M20.95,27.27c5.99-0.61,14.92-2.02,21.88-2.6"/>
			<path id="kvg:09593-s4" kvg:type="㇐a" d="M21.02,39.04c8.11-1.19,14.14-2.1,21.31-2.64"/>
		</g>
		<g id="kvg:09593-g3" kvg:position="right">
			<path id="kvg:09593-s5" kvg:type="㇑" d="M63.19,13.1c0.98,0.98,1.34,2.15,1.34,2.97c0,5.8-0.08,12.65-0.06,18.93c0.01,2.01,0.02,3.4,0.06,3.58"/>
			<path id="kvg:09593-s6" kvg:type="㇆a" d="M65.32,14.77c5.97-0.68,20.69-3.19,22.38-3.28c1.8-0.09,2.81,0.88,2.81,2.82c0,17-0.22,66.12-0.22,78.44c0,10.5-6.35,1.36-7.72,0.23"/>
			<path id="kvg:09593-s7" kvg:type="㇐a" d="M65.63,24.79c4.49-0.42,19.73-1.99,23.35-1.99"/>
			<path id="kvg:09593-s8" kvg:type="㇐a" d="M65.22,36.07c6.41-0.32,16.53-1.32,23.49-1.81"/>
		</g>
	</g>
	<g id="kvg:09593-g4" kvg:element="日">
		<path id="kvg:09593-s9" kvg:type="㇑" d="M40.56,50.95c0.74,0.74,1.04,1.93,1.04,2.99c0,0.83-0.08,20.84-0.05,29.06c0.01,2.25,0.02,2.77,0.05,3"/>
		<path id="kvg:09593-s10" kvg:type="㇕a" d="M42.26,52.09c5.56-0.48,19.71-1.98,21.3-2.1c1.68-0.13,2.76,1.46,2.63,2.24c-0.21,1.24-0.41,20.66-0.48,29.02c-0.02,2.29-0.03,3.8-0.03,3.97"/>
		<path id="kvg:09593-s11" kvg:type="㇐a" d="M42.64,66.6c5.11-0.48,17.36-1.73,21.88-2.07"/>
		<path id="kvg:09593-s12" kvg:type="㇐a" d="M42.25,82.8c5.13-0.3,17-1.55,22.26-2.05"/>
	</g>
</g>
</g>
<g id="kvg:StrokeNumbers_09593" style="font-size:8;fill:#808080">
	<text transform="matrix(1 0 0 1 12.75 23.50)">1</text>
	<text transform="matrix(1 0 0 1 21.75 13.63)">2</text>
	<text transform="matrix(1 0 0 1 24.75 24.50)">3</text>
	<text transform="matrix(1 0 0 1 24.75 35.50)">4</text>
	<text transform="matrix(1 0 0 1 56.50 21.50)">5</text>
	<text transform="matrix(1 0 0 1 65.25 11.50)">6</text>
	<text transform="matrix(1 0 0 1 68.54 22.50)">7</text>
	<text transform="matrix(1 0 0 1 68.50 33.50)">8</text>
	<text transform="matrix(1 0 0 1 34.50 57.50)">9</text>
	<text transform="matrix(1 0 0 1 42.75 48.50)">10</text>
	<text transform="matrix(1 0 0 1 44.50 63.50)">11</text>
	<text transform="matrix(1 0 0 1 44.31 79.50)">12</text>
</g>
</svg>
