<?xml version="1.0" encoding="UTF-8"?>
<!--
Copyright (C) 2009/2010/2011 Ulrich Apel.
This work is distributed under the conditions of the Creative Commons 
Attribution-Share Alike 3.0 Licence. This means you are free:
* to Share - to copy, distribute and transmit the work
* to Remix - to adapt the work

Under the following conditions:
* Attribution. You must attribute the work by stating your use of KanjiVG in
  your own copyright header and linking to KanjiVG's website
  (http://kanjivg.tagaini.net)
* Share Alike. If you alter, transform, or build upon this work, you may
  distribute the resulting work only under the same or similar license to this
  one.

See http://creativecommons.org/licenses/by-sa/3.0/ for more details.
-->
<!DOCTYPE svg PUBLIC "-//W3C//DTD SVG 1.0//EN" "http://www.w3.org/TR/2001/REC-SVG-20010904/DTD/svg10.dtd" [
<!ATTLIST g
xmlns:kvg CDATA #FIXED "http://kanjivg.tagaini.net"
kvg:element CDATA #IMPLIED
kvg:variant CDATA #IMPLIED
kvg:partial CDATA #IMPLIED
kvg:original CDATA #IMPLIED
kvg:part CDATA #IMPLIED
kvg:number CDATA #IMPLIED
kvg:tradForm CDATA #IMPLIED
kvg:radicalForm CDATA #IMPLIED
kvg:position CDATA #IMPLIED
kvg:radical CDATA #IMPLIED
kvg:phon CDATA #IMPLIED >
<!ATTLIST path
xmlns:kvg CDATA #FIXED "http://kanjivg.tagaini.net"
kvg:type CDATA #IMPLIED >
]>
<svg xmlns="http://www.w3.org/2000/svg" width="109" height="109" viewBox="0 0 109 109">
<g id="kvg:StrokePaths_095cd" style="fill:none;stroke:#000000;stroke-width:3;stroke-linecap:round;stroke-linejoin:round;">
<g id="kvg:095cd" kvg:element="闍">
	<g id="kvg:095cd-g1" kvg:element="門" kvg:position="kamae" kvg:radical="general">
		<g id="kvg:095cd-g2" kvg:position="left">
			<path id="kvg:095cd-s1" kvg:type="㇑" d="M18.39,15.29c0.7,0.44,1.18,2.82,1.32,3.7c0.14,0.89-0.09,72.37-0.23,77.91"/>
			<path id="kvg:095cd-s2" kvg:type="㇕a" d="M19.9,16.95c2.32-0.1,18.88-2.06,21-2.18c1.76-0.1,2.68,0.87,2.76,1.63c0.13,1.17-1.01,12.17-1.33,20.04"/>
			<path id="kvg:095cd-s3" kvg:type="㇐a" d="M20.31,26.76c5.71-0.56,16.35-1.52,21.85-2.13"/>
			<path id="kvg:095cd-s4" kvg:type="㇐a" d="M19.9,36.77c7.73-1.1,14.23-1.93,21.06-2.44"/>
		</g>
		<g id="kvg:095cd-g3" kvg:position="right">
			<path id="kvg:095cd-s5" kvg:type="㇑" d="M64.94,14.01c0.44,0.55,0.88,1.74,0.88,2.48c0,0.74-0.29,19.31-0.29,19.67"/>
			<path id="kvg:095cd-s6" kvg:type="㇆a" d="M66.8,15.16c2.49-0.11,19.21-2.79,21.49-2.92c1.9-0.11,2.98,1.15,2.97,1.8c-0.49,19.46-0.5,64.29-0.5,78.4c0,10.31-6.95,1.66-8.4,0.36"/>
			<path id="kvg:095cd-s7" kvg:type="㇐a" d="M66.49,24.72c3.38,0,18.59-1.74,22.4-1.74"/>
			<path id="kvg:095cd-s8" kvg:type="㇐a" d="M66.05,34.76c4.99,0,17.59-2.06,24.05-2.06"/>
		</g>
	</g>
	<g id="kvg:095cd-g4" kvg:element="者" kvg:variant="true">
		<g id="kvg:095cd-g5" kvg:element="耂" kvg:original="老" kvg:partial="true">
			<g id="kvg:095cd-g6" kvg:element="土">
				<path id="kvg:095cd-s9" kvg:type="㇐" d="M34.89,48.13c0.67,0.27,1.9,0.3,2.57,0.27c7.63-0.43,16.98-2.47,24.51-2.65c1.12-0.03,1.79,0.13,2.35,0.26"/>
				<path id="kvg:095cd-s10" kvg:type="㇑a" d="M51.64,36.62c0.07,0.17,0.95,0.87,1.02,1.93c0.33,5.08,0.18,17.51,0.18,19.23"/>
				<path id="kvg:095cd-s11" kvg:type="㇐" d="M29.29,59.06c1.56,0.39,3.95,0.73,5.35,0.58c7.77-0.82,31.75-3.6,40.77-3.78c2.33-0.05,3.72,0.28,4.88,0.57"/>
			</g>
			<path id="kvg:095cd-s12" kvg:type="㇒" d="M71.81,39.33c0.12,0.85,0.22,2.03-0.62,3.03C60.33,55.27,50.25,66.5,30.25,76.79"/>
		</g>
		<path id="kvg:095cd-s13" kvg:type="㇔" d="M60.27,61.75c1.41,0.57,3.63,2.34,3.98,3.23"/>
		<g id="kvg:095cd-g7" kvg:element="日">
			<path id="kvg:095cd-s14" kvg:type="㇑" d="M44.95,70.27c0.26,0.61,0.52,0.92,0.52,1.74c0,0.82-0.17,23.87-0.17,24.27"/>
			<path id="kvg:095cd-s15" kvg:type="㇕a" d="M45.91,71.79c1.47-0.1,19.13-2.27,20.47-2.39c1.12-0.1,1.84,1.13,1.75,1.73c-0.17,1.22-0.26,14.79-0.26,23.77"/>
			<path id="kvg:095cd-s16" kvg:type="㇐a" d="M45.75,82.28c4.54,0,19.6-2.13,21.85-2.13"/>
			<path id="kvg:095cd-s17" kvg:type="㇐a" d="M45.66,93.79c5.46,0,15.76-1.4,21.93-1.42"/>
		</g>
	</g>
</g>
</g>
<g id="kvg:StrokeNumbers_095cd" style="font-size:8;fill:#808080">
	<text transform="matrix(1 0 0 1 12.50 23.50)">1</text>
	<text transform="matrix(1 0 0 1 21.50 13.50)">2</text>
	<text transform="matrix(1 0 0 1 24.50 24.50)">3</text>
	<text transform="matrix(1 0 0 1 24.50 33.50)">4</text>
	<text transform="matrix(1 0 0 1 57.50 20.50)">5</text>
	<text transform="matrix(1 0 0 1 67.50 12.50)">6</text>
	<text transform="matrix(1 0 0 1 70.50 22.50)">7</text>
	<text transform="matrix(1 0 0 1 70.50 32.50)">8</text>
	<text transform="matrix(1 0 0 1 28.75 47.50)">9</text>
	<text transform="matrix(1 0 0 1 44.50 33.50)">10</text>
	<text transform="matrix(1 0 0 1 25.50 56.50)">11</text>
	<text transform="matrix(1 0 0 1 61.75 42.30)">12</text>
	<text transform="matrix(1 0 0 1 53.75 68.65)">13</text>
	<text transform="matrix(1 0 0 1 35.50 82.50)">14</text>
	<text transform="matrix(1 0 0 1 48.50 90.50)">15</text>
	<text transform="matrix(1 0 0 1 48.50 79.50)">16</text>
	<text transform="matrix(1 0 0 1 65.50 64.50)">17</text>
</g>
</svg>
