<?xml version="1.0" encoding="UTF-8"?>
<!--
Copyright (C) 2009/2010/2011 Ulrich Apel.
This work is distributed under the conditions of the Creative Commons 
Attribution-Share Alike 3.0 Licence. This means you are free:
* to Share - to copy, distribute and transmit the work
* to Remix - to adapt the work

Under the following conditions:
* Attribution. You must attribute the work by stating your use of KanjiVG in
  your own copyright header and linking to KanjiVG's website
  (http://kanjivg.tagaini.net)
* Share Alike. If you alter, transform, or build upon this work, you may
  distribute the resulting work only under the same or similar license to this
  one.

See http://creativecommons.org/licenses/by-sa/3.0/ for more details.
-->
<!DOCTYPE svg PUBLIC "-//W3C//DTD SVG 1.0//EN" "http://www.w3.org/TR/2001/REC-SVG-20010904/DTD/svg10.dtd" [
<!ATTLIST g
xmlns:kvg CDATA #FIXED "http://kanjivg.tagaini.net"
kvg:element CDATA #IMPLIED
kvg:variant CDATA #IMPLIED
kvg:partial CDATA #IMPLIED
kvg:original CDATA #IMPLIED
kvg:part CDATA #IMPLIED
kvg:number CDATA #IMPLIED
kvg:tradForm CDATA #IMPLIED
kvg:radicalForm CDATA #IMPLIED
kvg:position CDATA #IMPLIED
kvg:radical CDATA #IMPLIED
kvg:phon CDATA #IMPLIED >
<!ATTLIST path
xmlns:kvg CDATA #FIXED "http://kanjivg.tagaini.net"
kvg:type CDATA #IMPLIED >
]>
<svg xmlns="http://www.w3.org/2000/svg" width="109" height="109" viewBox="0 0 109 109">
<g id="kvg:StrokePaths_095d4-Kaisho" style="fill:none;stroke:#000000;stroke-width:3;stroke-linecap:round;stroke-linejoin:round;">
<g id="kvg:095d4-Kaisho" kvg:element="闔">
	<g id="kvg:095d4-Kaisho-g1" kvg:element="門" kvg:position="kamae" kvg:radical="general">
		<g id="kvg:095d4-Kaisho-g2" kvg:position="left">
			<path id="kvg:095d4-Kaisho-s1" kvg:type="㇑" d="M18.39,15.29c0.73,0.46,1.28,2.98,1.43,3.9c0.15,0.93-0.09,72.64-0.24,78.44"/>
			<path id="kvg:095d4-Kaisho-s2" kvg:type="㇕a" d="M20.02,16.75c2.34-0.09,18.48-1.85,20.61-1.95c1.77-0.09,2.69,0.78,2.78,1.46c0.13,1.05-1.47,19.06-1.47,19.58"/>
			<path id="kvg:095d4-Kaisho-s3" kvg:type="㇐a" d="M20.44,26.48c3.61-0.32,7.21-0.75,10.81-1.16c0.99-0.11,1.98-0.23,2.95-0.34"/>
			<path id="kvg:095d4-Kaisho-s4" kvg:type="㇐a" d="M20.02,36.73c7.78-0.98,13.8-1.73,20.68-2.18"/>
		</g>
		<g id="kvg:095d4-Kaisho-g3" kvg:position="right">
			<path id="kvg:095d4-Kaisho-s5" kvg:type="㇑" d="M64.44,14.01c0.44,0.55,0.88,1.74,0.88,2.48c0,0.74-0.15,19.54,0,20.28"/>
			<path id="kvg:095d4-Kaisho-s6" kvg:type="㇆a" d="M66.05,15.16c2.49-0.11,19.71-2.79,21.99-2.92c1.9-0.11,2.98,1.15,2.97,1.8c-0.49,19.46-0.5,64.29-0.5,78.4c0,11.31-5.95,2.66-7.4,1.36"/>
			<path id="kvg:095d4-Kaisho-s7" kvg:type="㇐a" d="M66.49,24.72c3.75,0,7.55-0.53,11.29-0.87c1.21-0.11,2.42-0.22,3.58-0.32"/>
			<path id="kvg:095d4-Kaisho-s8" kvg:type="㇐a" d="M66.05,34.76c4.99,0,16.59-1.56,23.05-1.56"/>
		</g>
	</g>
	<g id="kvg:095d4-Kaisho-g4" kvg:element="盍">
		<g id="kvg:095d4-Kaisho-g5" kvg:element="去" kvg:position="top">
			<g id="kvg:095d4-Kaisho-g6" kvg:element="土" kvg:position="top">
				<path id="kvg:095d4-Kaisho-s9" kvg:type="㇐" d="M37.35,42.87c0.94,0.25,2.66,0.27,3.61,0.25c8.26-0.24,14.95-1.51,27.36-1.89c1.57-0.05,2.51,0.12,3.3,0.24"/>
				<path id="kvg:095d4-Kaisho-s10" kvg:type="㇑a" d="M52.78,34.25c0.08,0.19,1.12,0.99,1.12,2.2c0,6.21,0.09,10.86,0.09,13.93"/>
				<path id="kvg:095d4-Kaisho-s11" kvg:type="㇐" d="M31.03,52.93c0.96,0.35,2.73,0.44,3.7,0.35c11.78-1.05,29.87-2.48,39.43-2.76c1.61-0.05,2.57,0.17,3.37,0.34"/>
			</g>
			<g id="kvg:095d4-Kaisho-g7" kvg:element="厶" kvg:position="bottom">
				<path id="kvg:095d4-Kaisho-s12" kvg:type="㇜" d="M50.25,55.16c0,0.84-0.36,1.91-0.71,2.17c-4.54,3.42-3.83,2.94-9.6,7.26c-1.62,1.21-2.07,2.28,0.62,1.87c7.14-1.09,17.52-3.19,27.87-4.86"/>
				<path id="kvg:095d4-Kaisho-s13" kvg:type="㇔" d="M63.68,56.75c3.1,1.8,8,7.4,8.78,10.19"/>
			</g>
		</g>
		<g id="kvg:095d4-Kaisho-g8" kvg:element="皿" kvg:position="bottom">
			<path id="kvg:095d4-Kaisho-s14" kvg:type="㇑a" d="M36.1,73.45c0.42,0.37,0.97,0.78,1.06,1.09c0.71,2.51,1.47,8.97,1.95,13.49"/>
			<path id="kvg:095d4-Kaisho-s15" kvg:type="㇕b" d="M38.13,74.89c7.57-0.52,29.25-3,32-2.93c1.19,0.03,1.58,0.56,1.73,1.5c0.1,0.64-2.26,8.54-2.73,13.18"/>
			<path id="kvg:095d4-Kaisho-s16" kvg:type="㇑a" d="M48.72,74.88c0.18,0.24,0.43,1.08,0.43,1.39c0,3.77,0.16,6.06,0.2,10.89"/>
			<path id="kvg:095d4-Kaisho-s17" kvg:type="㇑a" d="M58.63,73.78c0.32,0.29,0.6,0.77,0.58,1.14c-0.22,3.65-0.22,7.74-0.55,11.94"/>
			<path id="kvg:095d4-Kaisho-s18" kvg:type="㇐" d="M28.58,88.51c1.11,0.41,3.15,0.48,4.27,0.41c11.58-0.69,22.61-1.95,43.93-2.06c1.86-0.01,2.97,0.2,3.9,0.4"/>
		</g>
	</g>
</g>
</g>
<g id="kvg:StrokeNumbers_095d4-Kaisho" style="font-size:8;fill:#808080">
	<text transform="matrix(1 0 0 1 12.50 22.50)">1</text>
	<text transform="matrix(1 0 0 1 21.50 13.50)">2</text>
	<text transform="matrix(1 0 0 1 23.67 24.50)">3</text>
	<text transform="matrix(1 0 0 1 23.50 34.43)">4</text>
	<text transform="matrix(1 0 0 1 57.50 20.50)">5</text>
	<text transform="matrix(1 0 0 1 66.50 12.50)">6</text>
	<text transform="matrix(1 0 0 1 69.75 22.68)">7</text>
	<text transform="matrix(1 0 0 1 69.71 32.60)">8</text>
	<text transform="matrix(1 0 0 1 30.50 44.50)">9</text>
	<text transform="matrix(1 0 0 1 45.50 32.50)">10</text>
	<text transform="matrix(1 0 0 1 23.50 53.50)">11</text>
	<text transform="matrix(1 0 0 1 37.50 59.50)">12</text>
	<text transform="matrix(1 0 0 1 55.50 59.50)">13</text>
	<text transform="matrix(1 0 0 1 28.50 78.50)">14</text>
	<text transform="matrix(1 0 0 1 39.50 72.50)">15</text>
	<text transform="matrix(1 0 0 1 39.75 81.50)">16</text>
	<text transform="matrix(1 0 0 1 51.50 81.43)">17</text>
	<text transform="matrix(1 0 0 1 24.50 85.50)">18</text>
</g>
</svg>
