<?xml version="1.0" encoding="UTF-8"?>
<!--
Copyright (C) 2009/2010/2011 Ulrich Apel.
This work is distributed under the conditions of the Creative Commons 
Attribution-Share Alike 3.0 Licence. This means you are free:
* to Share - to copy, distribute and transmit the work
* to Remix - to adapt the work

Under the following conditions:
* Attribution. You must attribute the work by stating your use of KanjiVG in
  your own copyright header and linking to KanjiVG's website
  (http://kanjivg.tagaini.net)
* Share Alike. If you alter, transform, or build upon this work, you may
  distribute the resulting work only under the same or similar license to this
  one.

See http://creativecommons.org/licenses/by-sa/3.0/ for more details.
-->
<!DOCTYPE svg PUBLIC "-//W3C//DTD SVG 1.0//EN" "http://www.w3.org/TR/2001/REC-SVG-20010904/DTD/svg10.dtd" [
<!ATTLIST g
xmlns:kvg CDATA #FIXED "http://kanjivg.tagaini.net"
kvg:element CDATA #IMPLIED
kvg:variant CDATA #IMPLIED
kvg:partial CDATA #IMPLIED
kvg:original CDATA #IMPLIED
kvg:part CDATA #IMPLIED
kvg:number CDATA #IMPLIED
kvg:tradForm CDATA #IMPLIED
kvg:radicalForm CDATA #IMPLIED
kvg:position CDATA #IMPLIED
kvg:radical CDATA #IMPLIED
kvg:phon CDATA #IMPLIED >
<!ATTLIST path
xmlns:kvg CDATA #FIXED "http://kanjivg.tagaini.net"
kvg:type CDATA #IMPLIED >
]>
<svg xmlns="http://www.w3.org/2000/svg" width="109" height="109" viewBox="0 0 109 109">
<g id="kvg:StrokePaths_095d6" style="fill:none;stroke:#000000;stroke-width:3;stroke-linecap:round;stroke-linejoin:round;">
<g id="kvg:095d6" kvg:element="闖">
	<g id="kvg:095d6-g1" kvg:element="門" kvg:position="kamae" kvg:radical="general">
		<g id="kvg:095d6-g2" kvg:position="left">
			<path id="kvg:095d6-s1" kvg:type="㇑" d="M18.39,14.79c0.73,0.46,1.28,2.98,1.43,3.9c0.15,0.93-0.09,73.14-0.24,78.94"/>
			<path id="kvg:095d6-s2" kvg:type="㇕a" d="M20.02,17.58c2.44-0.1,18.77-2.66,20.99-2.78c1.85-0.1,2.81,0.91,2.9,1.71c0.14,1.23-1.06,11.76-1.39,20.01"/>
			<path id="kvg:095d6-s3" kvg:type="㇐a" d="M20.45,26.89c5.99-0.59,16.12-2.12,21.88-2.76"/>
			<path id="kvg:095d6-s4" kvg:type="㇐a" d="M20.02,36.98c8.11-1.15,13.89-2.03,21.06-2.56"/>
		</g>
		<g id="kvg:095d6-g3" kvg:position="right">
			<path id="kvg:095d6-s5" kvg:type="㇑" d="M64.44,14.01c0.44,0.55,0.88,1.74,0.88,2.48c0,0.74,0.21,19.31,0.21,19.67"/>
			<path id="kvg:095d6-s6" kvg:type="㇆a" d="M66.05,15.16c2.49-0.11,19.71-2.79,21.99-2.92c1.9-0.11,2.98,1.15,2.97,1.8c-0.49,19.46-0.5,64.29-0.5,78.4c0,10.81-4.01,5.56-7.4,1.86"/>
			<path id="kvg:095d6-s7" kvg:type="㇐a" d="M66.49,24.72c3.38,0,20.09-1.74,23.9-1.74"/>
			<path id="kvg:095d6-s8" kvg:type="㇐a" d="M66.05,34.26c4.99,0,18.09-1.56,24.55-1.56"/>
		</g>
	</g>
	<g id="kvg:095d6-g4" kvg:element="馬">
		<path id="kvg:095d6-s9" kvg:type="㇑" d="M39.92,43.73c0.27,0.23,0.57,1.51,0.57,1.91c0,4.06-0.47,22.02-0.64,28.42"/>
		<path id="kvg:095d6-s10" kvg:type="㇐b" d="M41.29,45.45c6.74-0.8,21.96-2.46,24.85-2.9c1.01-0.15,2.72-0.33,3.23-0.21"/>
		<path id="kvg:095d6-s11" kvg:type="㇑a" d="M53.31,45.71c0.27,0.23,0.49,0.55,0.49,0.95c0,4.06,0.03,17.79-0.14,24.19"/>
		<path id="kvg:095d6-s12" kvg:type="㇐b" d="M40.49,54.98c6.74-0.8,19.76-2.35,22.65-2.79c1.01-0.15,2.72-0.33,3.23-0.21"/>
		<path id="kvg:095d6-s13" kvg:type="㇐b" d="M40.64,63.56c6.73-0.8,19.76-2.35,22.65-2.79c1.01-0.15,2.72-0.33,3.23-0.21"/>
		<path id="kvg:095d6-s14" kvg:type="㇆a" d="M40.61,74.19c7.87-1.43,25.57-3.37,29.93-3.9c2.84-0.34,4.44,1.57,4.1,3.95c-0.93,6.53-2.17,13.34-4.35,17.57c-3.05,5.9-4.02,3.18-6.9-0.03"/>
		<g id="kvg:095d6-g5" kvg:element="灬" kvg:variant="true" kvg:original="火">
			<path id="kvg:095d6-s15" kvg:type="㇔" d="M32.11,79.61c0.37,4.14-0.26,9.15-1.35,11.73"/>
			<path id="kvg:095d6-s16" kvg:type="㇔" d="M40.51,79.85c1.41,1.39,2.75,5.2,3.1,7.35"/>
			<path id="kvg:095d6-s17" kvg:type="㇔" d="M50.71,78.63c1.15,1.13,2.98,4.67,3.26,6.44"/>
			<path id="kvg:095d6-s18" kvg:type="㇔" d="M59.73,76.98c1.37,1.13,3.54,4.65,3.89,6.41"/>
		</g>
	</g>
</g>
</g>
<g id="kvg:StrokeNumbers_095d6" style="font-size:8;fill:#808080">
	<text transform="matrix(1 0 0 1 12.50 23.50)">1</text>
	<text transform="matrix(1 0 0 1 22.50 13.50)">2</text>
	<text transform="matrix(1 0 0 1 24.50 24.50)">3</text>
	<text transform="matrix(1 0 0 1 24.33 34.50)">4</text>
	<text transform="matrix(1 0 0 1 56.50 20.50)">5</text>
	<text transform="matrix(1 0 0 1 66.50 12.50)">6</text>
	<text transform="matrix(1 0 0 1 70.50 22.50)">7</text>
	<text transform="matrix(1 0 0 1 70.46 32.10)">8</text>
	<text transform="matrix(1 0 0 1 33.50 51.50)">9</text>
	<text transform="matrix(1 0 0 1 42.50 42.50)">10</text>
	<text transform="matrix(1 0 0 1 57.50 50.38)">11</text>
	<text transform="matrix(1 0 0 1 43.46 52.30)">12</text>
	<text transform="matrix(1 0 0 1 43.50 61.73)">13</text>
	<text transform="matrix(1 0 0 1 43.35 71.15)">14</text>
	<text transform="matrix(1 0 0 1 24.50 82.50)">15</text>
	<text transform="matrix(1 0 0 1 33.75 87.50)">16</text>
	<text transform="matrix(1 0 0 1 44.50 84.50)">17</text>
	<text transform="matrix(1 0 0 1 53.50 82.50)">18</text>
</g>
</svg>
