<?xml version="1.0" encoding="UTF-8"?>
<!--
Copyright (C) 2009/2010/2011 Ulrich Apel.
This work is distributed under the conditions of the Creative Commons 
Attribution-Share Alike 3.0 Licence. This means you are free:
* to Share - to copy, distribute and transmit the work
* to Remix - to adapt the work

Under the following conditions:
* Attribution. You must attribute the work by stating your use of KanjiVG in
  your own copyright header and linking to KanjiVG's website
  (http://kanjivg.tagaini.net)
* Share Alike. If you alter, transform, or build upon this work, you may
  distribute the resulting work only under the same or similar license to this
  one.

See http://creativecommons.org/licenses/by-sa/3.0/ for more details.
-->
<!DOCTYPE svg PUBLIC "-//W3C//DTD SVG 1.0//EN" "http://www.w3.org/TR/2001/REC-SVG-20010904/DTD/svg10.dtd" [
<!ATTLIST g
xmlns:kvg CDATA #FIXED "http://kanjivg.tagaini.net"
kvg:element CDATA #IMPLIED
kvg:variant CDATA #IMPLIED
kvg:partial CDATA #IMPLIED
kvg:original CDATA #IMPLIED
kvg:part CDATA #IMPLIED
kvg:number CDATA #IMPLIED
kvg:tradForm CDATA #IMPLIED
kvg:radicalForm CDATA #IMPLIED
kvg:position CDATA #IMPLIED
kvg:radical CDATA #IMPLIED
kvg:phon CDATA #IMPLIED >
<!ATTLIST path
xmlns:kvg CDATA #FIXED "http://kanjivg.tagaini.net"
kvg:type CDATA #IMPLIED >
]>
<svg xmlns="http://www.w3.org/2000/svg" width="109" height="109" viewBox="0 0 109 109">
<g id="kvg:StrokePaths_095d8-Kaisho" style="fill:none;stroke:#000000;stroke-width:3;stroke-linecap:round;stroke-linejoin:round;">
<g id="kvg:095d8-Kaisho" kvg:element="闘">
	<g id="kvg:095d8-Kaisho-g1" kvg:element="門" kvg:position="kamae" kvg:radical="general">
		<g id="kvg:095d8-Kaisho-g2" kvg:position="left">
			<path id="kvg:095d8-Kaisho-s1" kvg:type="㇑" d="M18.89,16.79c0.73,0.46,1.28,2.48,1.43,3.4c0.15,0.93-0.09,69.14-0.24,74.94"/>
			<path id="kvg:095d8-Kaisho-s2" kvg:type="㇕a" d="M20.52,18.08c2.44-0.1,17.27-2.66,19.49-2.78c1.85-0.1,2.81,0.91,2.9,1.71c0.14,1.23-0.56,10.76-0.89,19.01c-0.04,0.91-0.14,1.31-0.14,1.91"/>
			<path id="kvg:095d8-Kaisho-s3" kvg:type="㇐a" d="M20.95,27.89c3.51-0.35,7.02-0.73,10.52-1.11c0.94-0.1,1.87-0.21,2.8-0.31"/>
			<path id="kvg:095d8-Kaisho-s4" kvg:type="㇐a" d="M21.02,37.98C28,37,33.41,36.95,40.58,36.42"/>
		</g>
		<g id="kvg:095d8-Kaisho-g3" kvg:position="right">
			<path id="kvg:095d8-Kaisho-s5" kvg:type="㇑" d="M64.94,13.51c0.44,0.55,0.88,1.74,0.88,2.48c0,0.74-0.29,20.31-0.29,20.67s0.14,0.37,0.29,1.11"/>
			<path id="kvg:095d8-Kaisho-s6" kvg:type="㇆a" d="M66.55,15.16c2.49-0.11,19.21-1.79,21.49-1.92c1.9-0.11,2.98,1.15,2.97,1.8c-0.49,19.46-0.5,60.79-0.5,74.9c0,9.42-4.25,3.67-7.4,0.86"/>
			<path id="kvg:095d8-Kaisho-s7" kvg:type="㇐a" d="M66.99,25.22c3.67,0,7.39-0.53,11.04-0.87c1.17-0.11,2.35-0.22,3.49-0.32"/>
			<path id="kvg:095d8-Kaisho-s8" kvg:type="㇐a" d="M66.55,35.76c4.99,0,16.09-1.06,22.55-1.06"/>
		</g>
	</g>
	<g id="kvg:095d8-Kaisho-g4" kvg:element="豆" kvg:position="left">
		<g id="kvg:095d8-Kaisho-g5" kvg:position="top">
			<path id="kvg:095d8-Kaisho-s9" kvg:type="㇐" d="M26.63,47.26c1.62,0.74,1.62,0.88,3.79,0.71c6.34-0.47,9.84-1.47,18.51-2.4c0.77-0.08,2.24,0.1,2.63,0.21"/>
		</g>
		<g id="kvg:095d8-Kaisho-g6" kvg:position="bottom">
			<g id="kvg:095d8-Kaisho-g7" kvg:element="口">
				<path id="kvg:095d8-Kaisho-s10" kvg:type="㇑" d="M29.84,54.95c0.26,0.22,0.58,0.89,0.63,1.18c0.35,2.12,1.29,7.13,2.07,11.33"/>
				<path id="kvg:095d8-Kaisho-s11" kvg:type="㇕b" d="M30.83,55.81c3.88-0.42,14.15-1.85,16.8-1.92c1.1-0.03,1.84,0.55,1.59,1.79c-0.44,2.21-1.4,4.87-2.73,9.09"/>
				<path id="kvg:095d8-Kaisho-s12" kvg:type="㇐b" d="M32.75,66.38C36.5,66,43.67,65.27,47.64,65.2"/>
			</g>
			<path id="kvg:095d8-Kaisho-s13" kvg:type="㇔" d="M33.28,73.48c1.07,1.09,2.77,4.99,3.04,6.68"/>
			<path id="kvg:095d8-Kaisho-s14" kvg:type="㇒" d="M46.66,70.51c0.01,0.29,0.03,0.75-0.03,1.17c-0.33,2.46-2.23,7.84-4.83,11.14"/>
			<path id="kvg:095d8-Kaisho-s15" kvg:type="㇐" d="M29.72,86.7c0.78,0.8,1.94,1.13,3.14,0.64c5.14-2.09,10.52-4.21,17.56-6.79"/>
		</g>
	</g>
	<g id="kvg:095d8-Kaisho-g8" kvg:element="寸" kvg:position="right">
		<path id="kvg:095d8-Kaisho-s16" kvg:type="㇐" d="M56.39,53.57c0.97,0.49,2.75,0.64,3.72,0.49c6.14-0.93,12.14-1.93,19.12-2.4c1.61-0.11,2.59,0.23,3.4,0.48"/>
		<path id="kvg:095d8-Kaisho-s17" kvg:type="㇚" d="M72.52,41.21c0.05,0.29,0.77,1.52,0.77,3.38c0,12.5-0.16,35.95-0.16,38.99c0,7.37-4.6,1.09-5.95,0.15"/>
		<path id="kvg:095d8-Kaisho-s18" kvg:type="㇔" d="M59.82,65.65c1.68,1.38,4.33,5.67,4.75,7.81"/>
	</g>
</g>
</g>
<g id="kvg:StrokeNumbers_095d8-Kaisho" style="font-size:8;fill:#808080">
	<text transform="matrix(1 0 0 1 13.50 24.50)">1</text>
	<text transform="matrix(1 0 0 1 21.75 14.50)">2</text>
	<text transform="matrix(1 0 0 1 24.50 25.55)">3</text>
	<text transform="matrix(1 0 0 1 24.35 35.50)">4</text>
	<text transform="matrix(1 0 0 1 58.50 21.50)">5</text>
	<text transform="matrix(1 0 0 1 66.75 12.13)">6</text>
	<text transform="matrix(1 0 0 1 69.75 22.50)">7</text>
	<text transform="matrix(1 0 0 1 69.75 33.50)">8</text>
	<text transform="matrix(1 0 0 1 26.50 45.50)">9</text>
	<text transform="matrix(1 0 0 1 22.50 62.50)">10</text>
	<text transform="matrix(1 0 0 1 32.25 54.50)">11</text>
	<text transform="matrix(1 0 0 1 35.50 63.50)">12</text>
	<text transform="matrix(1 0 0 1 25.50 74.50)">13</text>
	<text transform="matrix(1 0 0 1 36.50 72.50)">14</text>
	<text transform="matrix(1 0 0 1 23.50 83.50)">15</text>
	<text transform="matrix(1 0 0 1 54.50 51.13)">16</text>
	<text transform="matrix(1 0 0 1 62.50 46.50)">17</text>
	<text transform="matrix(1 0 0 1 58.50 64.63)">18</text>
</g>
</svg>
