<?xml version="1.0" encoding="UTF-8"?>
<!--
Copyright (C) 2009/2010/2011 Ulrich Apel.
This work is distributed under the conditions of the Creative Commons 
Attribution-Share Alike 3.0 Licence. This means you are free:
* to Share - to copy, distribute and transmit the work
* to Remix - to adapt the work

Under the following conditions:
* Attribution. You must attribute the work by stating your use of KanjiVG in
  your own copyright header and linking to KanjiVG's website
  (http://kanjivg.tagaini.net)
* Share Alike. If you alter, transform, or build upon this work, you may
  distribute the resulting work only under the same or similar license to this
  one.

See http://creativecommons.org/licenses/by-sa/3.0/ for more details.
-->
<!DOCTYPE svg PUBLIC "-//W3C//DTD SVG 1.0//EN" "http://www.w3.org/TR/2001/REC-SVG-20010904/DTD/svg10.dtd" [
<!ATTLIST g
xmlns:kvg CDATA #FIXED "http://kanjivg.tagaini.net"
kvg:element CDATA #IMPLIED
kvg:variant CDATA #IMPLIED
kvg:partial CDATA #IMPLIED
kvg:original CDATA #IMPLIED
kvg:part CDATA #IMPLIED
kvg:number CDATA #IMPLIED
kvg:tradForm CDATA #IMPLIED
kvg:radicalForm CDATA #IMPLIED
kvg:position CDATA #IMPLIED
kvg:radical CDATA #IMPLIED
kvg:phon CDATA #IMPLIED >
<!ATTLIST path
xmlns:kvg CDATA #FIXED "http://kanjivg.tagaini.net"
kvg:type CDATA #IMPLIED >
]>
<svg xmlns="http://www.w3.org/2000/svg" width="109" height="109" viewBox="0 0 109 109">
<g id="kvg:StrokePaths_0964b" style="fill:none;stroke:#000000;stroke-width:3;stroke-linecap:round;stroke-linejoin:round;">
<g id="kvg:0964b" kvg:element="陋">
	<g id="kvg:0964b-g1" kvg:element="⻖" kvg:variant="true" kvg:original="阜" kvg:position="left" kvg:radical="general">
		<path id="kvg:0964b-s1" kvg:type="㇇" d="M13.75,18.25c0.63,0.26,2.12,1.02,3.25,0.82c6-1.07,11.73-1.46,14.14-2.37c3.06-1.15,5.62,1.15,4.26,3.83c-1.36,2.68-7.63,14.71-10.01,18.55"/>
		<path id="kvg:0964b-s2" kvg:type="㇕va" d="M24.88,39.59c13.87,13.16,11.37,40.66,0.94,32.6"/>
		<path id="kvg:0964b-s3" kvg:type="㇑" d="M15.04,19.53c0.46,1.22,0.78,2.59,1,3.74c0.22,1.15,0,67.8-0.22,74.99"/>
	</g>
	<g id="kvg:0964b-g2" kvg:position="right">
		<g id="kvg:0964b-g3" kvg:element="丙">
			<g id="kvg:0964b-g4" kvg:element="一">
				<path id="kvg:0964b-s4" kvg:type="㇐" d="M47.65,19.33C48.9,20,51.17,20.11,52.44,20c7.51-0.66,27.12-3.79,39-3.77c2.08,0,3.33,0.32,4.37,0.65"/>
			</g>
			<g id="kvg:0964b-g5" kvg:element="内">
				<g id="kvg:0964b-g6" kvg:element="冂">
					<path id="kvg:0964b-s5" kvg:type="㇑" d="M53.69,33.61c0.47,0.76,1.38,3.35,1.45,4.73c0.41,8.48,0.23,36.4,0.23,45.98"/>
					<path id="kvg:0964b-s6" kvg:type="㇆a" d="M54.87,35.01c5.9-0.61,28.75-3.35,29.88-3.46c2.64-0.26,4,1.69,4.07,4.61c0.21,8.92,0.7,31.84,0.7,40.98c0,7.38-3.27,4.86-6.58,1.53"/>
				</g>
				<g id="kvg:0964b-g7" kvg:element="人">
					<path id="kvg:0964b-s7" kvg:type="㇒" d="M71.68,21.19c0.41,0.59,1.05,1.5,0.91,3.11C71.5,37,67.25,55.5,58.88,64.44"/>
					<path id="kvg:0964b-s8" kvg:type="㇏" d="M70.94,46.14c4.26,2.6,11,10.67,12.07,14.71"/>
				</g>
			</g>
		</g>
		<path id="kvg:0964b-s9" kvg:type="㇄" d="M41.27,47.33c0.98,0.92,1.67,1.99,1.76,5.02C43.42,66.91,42,85.04,42,90c0,3.5,0.5,5,2.5,4.75s44.25-3,46.75-3s6.5,0,8,0.5"/>
	</g>
</g>
</g>
<g id="kvg:StrokeNumbers_0964b" style="font-size:8;fill:#808080">
	<text transform="matrix(1 0 0 1 16.50 15.50)">1</text>
	<text transform="matrix(1 0 0 1 20.50 48.50)">2</text>
	<text transform="matrix(1 0 0 1 7.50 25.50)">3</text>
	<text transform="matrix(1 0 0 1 45.50 16.50)">4</text>
	<text transform="matrix(1 0 0 1 46.50 40.50)">5</text>
	<text transform="matrix(1 0 0 1 56.50 31.50)">6</text>
	<text transform="matrix(1 0 0 1 64.50 27.93)">7</text>
	<text transform="matrix(1 0 0 1 74.50 46.60)">8</text>
	<text transform="matrix(1 0 0 1 36.50 45.50)">9</text>
</g>
</svg>
