<?xml version="1.0" encoding="UTF-8"?>
<!--
Copyright (C) 2009/2010/2011 Ulrich Apel.
This work is distributed under the conditions of the Creative Commons 
Attribution-Share Alike 3.0 Licence. This means you are free:
* to Share - to copy, distribute and transmit the work
* to Remix - to adapt the work

Under the following conditions:
* Attribution. You must attribute the work by stating your use of KanjiVG in
  your own copyright header and linking to KanjiVG's website
  (http://kanjivg.tagaini.net)
* Share Alike. If you alter, transform, or build upon this work, you may
  distribute the resulting work only under the same or similar license to this
  one.

See http://creativecommons.org/licenses/by-sa/3.0/ for more details.
-->
<!DOCTYPE svg PUBLIC "-//W3C//DTD SVG 1.0//EN" "http://www.w3.org/TR/2001/REC-SVG-20010904/DTD/svg10.dtd" [
<!ATTLIST g
xmlns:kvg CDATA #FIXED "http://kanjivg.tagaini.net"
kvg:element CDATA #IMPLIED
kvg:variant CDATA #IMPLIED
kvg:partial CDATA #IMPLIED
kvg:original CDATA #IMPLIED
kvg:part CDATA #IMPLIED
kvg:number CDATA #IMPLIED
kvg:tradForm CDATA #IMPLIED
kvg:radicalForm CDATA #IMPLIED
kvg:position CDATA #IMPLIED
kvg:radical CDATA #IMPLIED
kvg:phon CDATA #IMPLIED >
<!ATTLIST path
xmlns:kvg CDATA #FIXED "http://kanjivg.tagaini.net"
kvg:type CDATA #IMPLIED >
]>
<svg xmlns="http://www.w3.org/2000/svg" width="109" height="109" viewBox="0 0 109 109">
<g id="kvg:StrokePaths_0965b-Kaisho" style="fill:none;stroke:#000000;stroke-width:3;stroke-linecap:round;stroke-linejoin:round;">
<g id="kvg:0965b-Kaisho" kvg:element="陛">
	<g id="kvg:0965b-Kaisho-g1" kvg:element="⻖" kvg:variant="true" kvg:original="阜" kvg:position="left" kvg:radical="general">
		<path id="kvg:0965b-Kaisho-s1" kvg:type="㇇" d="M17.67,22.86c0.79-0.13,2.59,0.25,3.37,0.12c4.85-0.78,8.89-2.06,11.21-2.84c2.7-0.91,5.39,0.91,4.19,3.02c-1.2,2.11-6.29,12.38-8.39,15.4"/>
		<path id="kvg:0965b-Kaisho-s2" kvg:type="㇕va" d="M28.05,39.02C41,47.5,39,70,29.55,63.8"/>
		<path id="kvg:0965b-Kaisho-s3" kvg:type="㇑" d="M19.37,24.25c0.13,1.25,0.24,2.25,0.46,3.25c0.22,1,0,62.25-0.22,68.5"/>
	</g>
	<g id="kvg:0965b-Kaisho-g2" kvg:position="right">
		<g id="kvg:0965b-Kaisho-g3" kvg:element="比" kvg:position="top">
			<g id="kvg:0965b-Kaisho-g4" kvg:position="left">
				<path id="kvg:0965b-Kaisho-s4" kvg:type="㇐b" d="M50.02,30.75c3.05-0.75,9.31-2.5,12.7-3.25c1-0.22,2.03-0.25,2.71,0"/>
				<path id="kvg:0965b-Kaisho-s5" kvg:type="㇙" d="M47.5,15.14c1.25,1.26,1.34,2.09,1.76,3.77c0,4.59,0.8,25.66-0.21,28.1c-1.19,2.85,0.19,5.43,3.87,2.67c5.34-2.93,7.84-4.68,11.84-6.43"/>
			</g>
			<g id="kvg:0965b-Kaisho-g5" kvg:element="匕" kvg:position="right">
				<path id="kvg:0965b-Kaisho-s6" kvg:type="㇒" d="M73.02,28.75c3.64-0.75,11.13-2.5,15.17-3.25c1.2-0.22,2.43,0.25,3.24,0.5"/>
				<path id="kvg:0965b-Kaisho-s7" kvg:type="㇟" d="M71.22,12.5c0.86,0.75,1.08,2.02,1.39,3.16c0,5.09,0.24,22.37,0.24,24.72c0,10.97,5.51,9.45,11.73,9.45c4.82,0,8.91-0.81,10.73-2.5"/>
			</g>
		</g>
		<g id="kvg:0965b-Kaisho-g6" kvg:element="土" kvg:position="bottom">
			<path id="kvg:0965b-Kaisho-s8" kvg:type="㇐" d="M45.63,72.67c0.98,0.38,2.78,0.51,3.76,0.38c10.11-1.3,24.86-3.8,34.8-4.38c1.63-0.1,2.62,0.18,3.43,0.37"/>
			<path id="kvg:0965b-Kaisho-s9" kvg:type="㇑a" d="M65.42,56.12c0.12,0.29,1.77,1.52,1.77,3.39c0,12,0.14,16.13,0.14,32"/>
			<path id="kvg:0965b-Kaisho-s10" kvg:type="㇐" d="M37.88,93.58c1.27,0.45,3.61,0.56,4.88,0.45c15.76-1.27,35.33-3.29,49.42-3.88c2.12-0.09,3.39,0.22,4.45,0.44"/>
		</g>
	</g>
</g>
</g>
<g id="kvg:StrokeNumbers_0965b-Kaisho" style="font-size:8;fill:#808080">
	<text transform="matrix(1 0 0 1 21.75 19.50)">1</text>
	<text transform="matrix(1 0 0 1 24.75 47.05)">2</text>
	<text transform="matrix(1 0 0 1 12.50 30.13)">3</text>
	<text transform="matrix(1 0 0 1 53.50 26.50)">4</text>
	<text transform="matrix(1 0 0 1 40.50 13.50)">5</text>
	<text transform="matrix(1 0 0 1 77.00 24.50)">6</text>
	<text transform="matrix(1 0 0 1 64.50 11.50)">7</text>
	<text transform="matrix(1 0 0 1 38.25 73.63)">8</text>
	<text transform="matrix(1 0 0 1 56.25 57.50)">9</text>
	<text transform="matrix(1 0 0 1 35.50 90.05)">10</text>
</g>
</svg>
