<?xml version="1.0" encoding="UTF-8"?>
<!--
Copyright (C) 2009/2010/2011 Ulrich Apel.
This work is distributed under the conditions of the Creative Commons 
Attribution-Share Alike 3.0 Licence. This means you are free:
* to Share - to copy, distribute and transmit the work
* to Remix - to adapt the work

Under the following conditions:
* Attribution. You must attribute the work by stating your use of KanjiVG in
  your own copyright header and linking to KanjiVG's website
  (http://kanjivg.tagaini.net)
* Share Alike. If you alter, transform, or build upon this work, you may
  distribute the resulting work only under the same or similar license to this
  one.

See http://creativecommons.org/licenses/by-sa/3.0/ for more details.
-->
<!DOCTYPE svg PUBLIC "-//W3C//DTD SVG 1.0//EN" "http://www.w3.org/TR/2001/REC-SVG-20010904/DTD/svg10.dtd" [
<!ATTLIST g
xmlns:kvg CDATA #FIXED "http://kanjivg.tagaini.net"
kvg:element CDATA #IMPLIED
kvg:variant CDATA #IMPLIED
kvg:partial CDATA #IMPLIED
kvg:original CDATA #IMPLIED
kvg:part CDATA #IMPLIED
kvg:number CDATA #IMPLIED
kvg:tradForm CDATA #IMPLIED
kvg:radicalForm CDATA #IMPLIED
kvg:position CDATA #IMPLIED
kvg:radical CDATA #IMPLIED
kvg:phon CDATA #IMPLIED >
<!ATTLIST path
xmlns:kvg CDATA #FIXED "http://kanjivg.tagaini.net"
kvg:type CDATA #IMPLIED >
]>
<svg xmlns="http://www.w3.org/2000/svg" width="109" height="109" viewBox="0 0 109 109">
<g id="kvg:StrokePaths_09663" style="fill:none;stroke:#000000;stroke-width:3;stroke-linecap:round;stroke-linejoin:round;">
<g id="kvg:09663" kvg:element="陣">
	<g id="kvg:09663-g1" kvg:element="⻖" kvg:variant="true" kvg:original="阜" kvg:position="left" kvg:radical="general">
		<path id="kvg:09663-s1" kvg:type="㇇" d="M15.17,18.42c0.87,0.37,2.15,1.04,3.28,0.94c6.55-0.6,13.26-2.12,15.72-2.94c3-1,4.75,1.75,3.42,4.08c-1.33,2.33-7.5,13.17-9.83,16.5"/>
		<path id="kvg:09663-s2" kvg:type="㇕va" d="M27.75,37.5c13.33,8.33,8.25,36-2.33,27.5"/>
		<path id="kvg:09663-s3" kvg:type="㇑" d="M16.87,19.25c0.88,0.88,0.96,2.12,0.96,3.5c0,0.68,0.02,43.62,0.03,62.62c0,5.2,0,8.62,0,8.88"/>
	</g>
	<g id="kvg:09663-g2" kvg:element="車" kvg:position="right" kvg:phon="車/申V">
		<path id="kvg:09663-s4" kvg:type="㇐" d="M47.52,25.5c2.36,0.5,4.73,0.42,6.61,0.17c6.84-0.9,17.48-2.27,26.61-3.16c1.85-0.18,3.96-0.15,5.74,0.35"/>
		<path id="kvg:09663-s5" kvg:type="㇑" d="M44.75,39.42c0.79,0.79,1.18,1.82,1.55,3.3c1.2,4.78,2.3,10.29,3.6,17.76c0.28,1.58,0.53,3.18,0.74,4.78"/>
		<path id="kvg:09663-s6" kvg:type="㇕a" d="M46.42,40.24c10.19-1.48,28.84-3.92,36.83-4.41c3.76-0.23,5.29,0.47,4.83,4.33c-0.38,3.15-1.75,10.72-2.98,16.49c-0.51,2.42-1,4.53-1.38,5.86"/>
		<path id="kvg:09663-s7" kvg:type="㇐a" d="M49.19,51.25c8.81-1,24.06-3,36.48-3.5"/>
		<path id="kvg:09663-s8" kvg:type="㇐a" d="M51.44,63c8.41-1,19.44-2.38,31.77-3"/>
		<path id="kvg:09663-s9" kvg:type="㇐" d="M37.75,77.29c3.12,0.83,6.21,0.75,8.75,0.48c14.98-1.6,31.15-2.88,43.25-3.39c2.5-0.11,5.25,0,7.25,0.62"/>
		<path id="kvg:09663-s10" kvg:type="㇑" d="M64.96,10.63c1.08,1.08,1.47,2.24,1.47,4.16c0,4.16,0.06,69.46,0.06,75.08c0,2.62,0,8.27,0,8.51"/>
	</g>
</g>
</g>
<g id="kvg:StrokeNumbers_09663" style="font-size:8;fill:#808080">
	<text transform="matrix(1 0 0 1 20.25 16.63)">1</text>
	<text transform="matrix(1 0 0 1 24.75 46.55)">2</text>
	<text transform="matrix(1 0 0 1 11.25 27.13)">3</text>
	<text transform="matrix(1 0 0 1 46.50 22.63)">4</text>
	<text transform="matrix(1 0 0 1 38.50 47.50)">5</text>
	<text transform="matrix(1 0 0 1 47.25 37.63)">6</text>
	<text transform="matrix(1 0 0 1 52.50 48.50)">7</text>
	<text transform="matrix(1 0 0 1 54.50 59.98)">8</text>
	<text transform="matrix(1 0 0 1 37.50 74.90)">9</text>
	<text transform="matrix(1 0 0 1 52.50 10.50)">10</text>
</g>
</svg>
