<?xml version="1.0" encoding="UTF-8"?>
<!--
Copyright (C) 2009/2010/2011 Ulrich Apel.
This work is distributed under the conditions of the Creative Commons 
Attribution-Share Alike 3.0 Licence. This means you are free:
* to Share - to copy, distribute and transmit the work
* to Remix - to adapt the work

Under the following conditions:
* Attribution. You must attribute the work by stating your use of KanjiVG in
  your own copyright header and linking to KanjiVG's website
  (http://kanjivg.tagaini.net)
* Share Alike. If you alter, transform, or build upon this work, you may
  distribute the resulting work only under the same or similar license to this
  one.

See http://creativecommons.org/licenses/by-sa/3.0/ for more details.
-->
<!DOCTYPE svg PUBLIC "-//W3C//DTD SVG 1.0//EN" "http://www.w3.org/TR/2001/REC-SVG-20010904/DTD/svg10.dtd" [
<!ATTLIST g
xmlns:kvg CDATA #FIXED "http://kanjivg.tagaini.net"
kvg:element CDATA #IMPLIED
kvg:variant CDATA #IMPLIED
kvg:partial CDATA #IMPLIED
kvg:original CDATA #IMPLIED
kvg:part CDATA #IMPLIED
kvg:number CDATA #IMPLIED
kvg:tradForm CDATA #IMPLIED
kvg:radicalForm CDATA #IMPLIED
kvg:position CDATA #IMPLIED
kvg:radical CDATA #IMPLIED
kvg:phon CDATA #IMPLIED >
<!ATTLIST path
xmlns:kvg CDATA #FIXED "http://kanjivg.tagaini.net"
kvg:type CDATA #IMPLIED >
]>
<svg xmlns="http://www.w3.org/2000/svg" width="109" height="109" viewBox="0 0 109 109">
<g id="kvg:StrokePaths_096a0" style="fill:none;stroke:#000000;stroke-width:3;stroke-linecap:round;stroke-linejoin:round;">
<g id="kvg:096a0" kvg:element="隠">
	<g id="kvg:096a0-g1" kvg:element="⻖" kvg:variant="true" kvg:original="阜" kvg:position="left" kvg:radical="general">
		<path id="kvg:096a0-s1" kvg:type="㇇" d="M16.67,18.92c1.58,0.83,2.96,0.71,4.8,0.41c4.57-0.74,9.66-1.82,12.95-2.66c3.07-0.78,4.55,1.65,3.42,4.08c-2.08,4.5-5.71,12.88-9.08,19"/>
		<path id="kvg:096a0-s2" kvg:type="㇕va" d="M28.75,39.75c10.5,9.5,10.5,33.75-1.08,25.75"/>
		<path id="kvg:096a0-s3" kvg:type="㇑" d="M17.62,19.5c0.88,0.88,1.21,2.25,1.21,3.75c0,4.22,0.02,45.96,0.03,64.12c0,3.88,0,6.63,0,7.62"/>
	</g>
	<g id="kvg:096a0-g2" kvg:position="right" kvg:phon="㥯V">
		<g id="kvg:096a0-g3" kvg:element="⺤" kvg:variant="true" kvg:original="爪">
			<path id="kvg:096a0-s4" kvg:type="㇒" d="M74.51,13.64c0,0.73-0.55,1.58-1.21,2.06c-3.42,2.49-14.29,6.25-26.01,8.16"/>
			<path id="kvg:096a0-s5" kvg:type="㇔" d="M47.64,26.85c1.79,1.83,4.63,7.52,5.07,10.36"/>
			<path id="kvg:096a0-s6" kvg:type="㇔" d="M61,26.12c1.96,1.78,5.08,7.31,5.57,10.07"/>
			<path id="kvg:096a0-s7" kvg:type="㇒" d="M83.65,23.16c0.09,0.92-0.03,1.81-0.48,2.61c-2.04,3.6-4.67,6.6-9.58,11.16"/>
		</g>
		<g id="kvg:096a0-g4" kvg:element="⺕" kvg:variant="true" kvg:original="彑">
			<path id="kvg:096a0-s8" kvg:type="㇕" d="M45.16,43.19c1.77,0.22,3.12,0.37,4.75,0.19c11.84-1.26,22.37-2.79,29.22-3.63c2.28-0.28,3.89,1.11,3.54,3.32c-0.75,4.7-1.87,10.18-3.02,16.41c-0.27,1.46-0.54,2.95-0.81,4.46"/>
			<path id="kvg:096a0-s9" kvg:type="㇐c" d="M45.63,52.96c1.37,0.42,2.61,0.5,4.23,0.33c15.02-1.66,22.89-2.78,30.45-3.56"/>
			<path id="kvg:096a0-s10" kvg:type="㇐c" d="M46.49,63.99c1.51,0.26,3.11,0.29,4.43,0.16c11.33-1.14,18.45-2.77,27.19-3.53"/>
		</g>
		<g id="kvg:096a0-g5" kvg:element="心">
			<path id="kvg:096a0-s11" kvg:type="㇔" d="M40.75,77.75c0.3,2.24-2.97,12.15-5.35,15.89"/>
			<path id="kvg:096a0-s12" kvg:type="㇟b" d="M49.93,73.63c6.82,17.62,17.32,21.87,34.14,20.26c6.9-0.66,7.68-4.39,1.99-7.51"/>
			<path id="kvg:096a0-s13" kvg:type="㇔" d="M62.19,71.99c1.28,2.72,4.31,9.01,5.44,3.96"/>
			<path id="kvg:096a0-s14" kvg:type="㇔" d="M85.17,70.06c3.5,2.64,7.44,6.56,10.31,11.8"/>
		</g>
	</g>
</g>
</g>
<g id="kvg:StrokeNumbers_096a0" style="font-size:8;fill:#808080">
	<text transform="matrix(1 0 0 1 20.25 15.13)">1</text>
	<text transform="matrix(1 0 0 1 24.75 49.55)">2</text>
	<text transform="matrix(1 0 0 1 9.75 27.13)">3</text>
	<text transform="matrix(1 0 0 1 66.50 12.13)">4</text>
	<text transform="matrix(1 0 0 1 41.50 33.50)">5</text>
	<text transform="matrix(1 0 0 1 56.25 33.50)">6</text>
	<text transform="matrix(1 0 0 1 75.75 26.98)">7</text>
	<text transform="matrix(1 0 0 1 38.25 44.50)">8</text>
	<text transform="matrix(1 0 0 1 39.50 55.55)">9</text>
	<text transform="matrix(1 0 0 1 38.25 67.48)">10</text>
	<text transform="matrix(1 0 0 1 30.50 80.91)">11</text>
	<text transform="matrix(1 0 0 1 44.25 88.71)">12</text>
	<text transform="matrix(1 0 0 1 52.50 74.75)">13</text>
	<text transform="matrix(1 0 0 1 75.50 73.50)">14</text>
</g>
</svg>
