<?xml version="1.0" encoding="UTF-8"?>
<!--
Copyright (C) 2009/2010/2011 Ulrich Apel.
This work is distributed under the conditions of the Creative Commons 
Attribution-Share Alike 3.0 Licence. This means you are free:
* to Share - to copy, distribute and transmit the work
* to Remix - to adapt the work

Under the following conditions:
* Attribution. You must attribute the work by stating your use of KanjiVG in
  your own copyright header and linking to KanjiVG's website
  (http://kanjivg.tagaini.net)
* Share Alike. If you alter, transform, or build upon this work, you may
  distribute the resulting work only under the same or similar license to this
  one.

See http://creativecommons.org/licenses/by-sa/3.0/ for more details.
-->
<!DOCTYPE svg PUBLIC "-//W3C//DTD SVG 1.0//EN" "http://www.w3.org/TR/2001/REC-SVG-20010904/DTD/svg10.dtd" [
<!ATTLIST g
xmlns:kvg CDATA #FIXED "http://kanjivg.tagaini.net"
kvg:element CDATA #IMPLIED
kvg:variant CDATA #IMPLIED
kvg:partial CDATA #IMPLIED
kvg:original CDATA #IMPLIED
kvg:part CDATA #IMPLIED
kvg:number CDATA #IMPLIED
kvg:tradForm CDATA #IMPLIED
kvg:radicalForm CDATA #IMPLIED
kvg:position CDATA #IMPLIED
kvg:radical CDATA #IMPLIED
kvg:phon CDATA #IMPLIED >
<!ATTLIST path
xmlns:kvg CDATA #FIXED "http://kanjivg.tagaini.net"
kvg:type CDATA #IMPLIED >
]>
<svg xmlns="http://www.w3.org/2000/svg" width="109" height="109" viewBox="0 0 109 109">
<g id="kvg:StrokePaths_09784" style="fill:none;stroke:#000000;stroke-width:3;stroke-linecap:round;stroke-linejoin:round;">
<g id="kvg:09784" kvg:element="鞄">
	<g id="kvg:09784-g1" kvg:element="革" kvg:position="left" kvg:radical="general">
		<g id="kvg:09784-g2" kvg:element="廿" kvg:position="top">
			<g id="kvg:09784-g3" kvg:element="十">
				<path id="kvg:09784-s1" kvg:type="㇐" d="M12.4,27.63c2.45,0.46,4.83,0.27,7.35-0.09c6.64-0.93,15.12-2.29,23.76-2.98c2.1-0.17,4.15-0.12,6.2,0.26"/>
				<path id="kvg:09784-s2" kvg:type="㇑" d="M21.35,17.96c0.72,0.72,0.96,1.42,1.09,2.64c0.57,5.35,0.98,8.61,1.49,12.78c0.22,1.79,0.46,3.75,0.73,6.12"/>
			</g>
			<path id="kvg:09784-s3" kvg:type="㇑a" d="M39.31,14.75c0.56,0.75,0.66,1.97,0.59,2.64c-0.77,6.73-0.9,10.11-1.82,17.13"/>
			<path id="kvg:09784-s4" kvg:type="㇐b" d="M26.33,37.25c1.13,0,5.59-0.5,9.07-0.9c1.97-0.23,3.63-0.42,4.2-0.47"/>
		</g>
		<g id="kvg:09784-g4" kvg:position="bottom">
			<path id="kvg:09784-s5" kvg:type="㇑" d="M16.51,47.6c0.5,0.74,0.8,1.54,0.9,2.41c0.87,4.46,1.39,9.67,2.06,13.94"/>
			<path id="kvg:09784-s6" kvg:type="㇕" d="M17.73,48.46c8.54-1.1,20.19-2.49,25.04-3.23c2.18-0.33,3.85,0.61,3.33,3.17c-0.53,2.67-1.35,5.11-2.68,9.87"/>
			<path id="kvg:09784-s7" kvg:type="㇐" d="M20.5,61.88c5.62-0.63,17.5-2.13,24.48-2.63"/>
			<path id="kvg:09784-s8" kvg:type="㇐" d="M12.5,73.95c2.62,0.77,5.14,0.24,7.89-0.12c8.49-1.08,15.11-2.08,22.72-2.66c2.1-0.16,4.51-0.27,6.39,0.62"/>
			<path id="kvg:09784-s9" kvg:type="㇑" d="M30.46,39.75c0.83,0.83,1.04,2.23,1.04,3.25c0,6.52,0,30.83-0.06,44.62c-0.02,4.19-0.04,7.42-0.07,8.88"/>
		</g>
	</g>
	<g id="kvg:09784-g5" kvg:element="包" kvg:position="right">
		<g id="kvg:09784-g6" kvg:element="勹">
			<g id="kvg:09784-g7" kvg:element="丿">
				<path id="kvg:09784-s10" kvg:type="㇒" d="M66.06,16.25c0.22,1.27,0.06,2.45-0.5,3.56c-2.24,5.61-7.09,14.74-13.95,22.13"/>
			</g>
			<path id="kvg:09784-s11" kvg:type="㇆" d="M61.59,32.03c1.69,0.48,3.38,0.55,5.06,0.2c4.57-0.67,15.58-2.28,20.2-2.86c3.27-0.41,5.44,0.91,4.99,4.39c-1.27,9.98-3.19,21.73-7.87,33.74c-1.58,4.06-3.86,6-7.46,1.83"/>
		</g>
		<g id="kvg:09784-g8" kvg:element="己">
			<path id="kvg:09784-s12" kvg:type="㇕c" d="M54.56,46.09c1.73,0.66,3.47,0.81,5.21,0.46c4.04-0.59,9.37-1.69,11.87-1.94c2.36-0.23,4.06,0.66,3.29,3.16C73.62,52,72.75,55,71.14,59.84"/>
			<path id="kvg:09784-s13" kvg:type="㇐" d="M57.05,62.61c2.77-0.32,7.58-1.09,12.08-1.64c1.66-0.2,3.28-0.37,4.74-0.47"/>
			<path id="kvg:09784-s14" kvg:type="㇟" d="M55.11,61.05c0.81,0.81,0.9,2.06,0.89,3.7c-0.03,5.25,0.03,11.41,0.03,15.99c0,9.96,0.2,12.7,19.25,12.7c17.72,0,18.86-2.94,18.86-13.97"/>
		</g>
	</g>
</g>
</g>
<g id="kvg:StrokeNumbers_09784" style="font-size:8;fill:#808080">
	<text transform="matrix(1 0 0 1 5.50 28.85)">1</text>
	<text transform="matrix(1 0 0 1 12.50 17.50)">2</text>
	<text transform="matrix(1 0 0 1 30.50 13.50)">3</text>
	<text transform="matrix(1 0 0 1 27.50 34.50)">4</text>
	<text transform="matrix(1 0 0 1 9.50 55.50)">5</text>
	<text transform="matrix(1 0 0 1 17.50 45.85)">6</text>
	<text transform="matrix(1 0 0 1 22.50 58.50)">7</text>
	<text transform="matrix(1 0 0 1 4.50 75.50)">8</text>
	<text transform="matrix(1 0 0 1 35.50 44.50)">9</text>
	<text transform="matrix(1 0 0 1 55.50 16.50)">10</text>
	<text transform="matrix(1 0 0 1 67.50 29.50)">11</text>
	<text transform="matrix(1 0 0 1 57.50 43.50)">12</text>
	<text transform="matrix(1 0 0 1 57.75 59.50)">13</text>
	<text transform="matrix(1 0 0 1 45.50 67.50)">14</text>
</g>
</svg>
