<?xml version="1.0" encoding="UTF-8"?>
<!--
Copyright (C) 2009/2010/2011 Ulrich Apel.
This work is distributed under the conditions of the Creative Commons 
Attribution-Share Alike 3.0 Licence. This means you are free:
* to Share - to copy, distribute and transmit the work
* to Remix - to adapt the work

Under the following conditions:
* Attribution. You must attribute the work by stating your use of KanjiVG in
  your own copyright header and linking to KanjiVG's website
  (http://kanjivg.tagaini.net)
* Share Alike. If you alter, transform, or build upon this work, you may
  distribute the resulting work only under the same or similar license to this
  one.

See http://creativecommons.org/licenses/by-sa/3.0/ for more details.
-->
<!DOCTYPE svg PUBLIC "-//W3C//DTD SVG 1.0//EN" "http://www.w3.org/TR/2001/REC-SVG-20010904/DTD/svg10.dtd" [
<!ATTLIST g
xmlns:kvg CDATA #FIXED "http://kanjivg.tagaini.net"
kvg:element CDATA #IMPLIED
kvg:variant CDATA #IMPLIED
kvg:partial CDATA #IMPLIED
kvg:original CDATA #IMPLIED
kvg:part CDATA #IMPLIED
kvg:number CDATA #IMPLIED
kvg:tradForm CDATA #IMPLIED
kvg:radicalForm CDATA #IMPLIED
kvg:position CDATA #IMPLIED
kvg:radical CDATA #IMPLIED
kvg:phon CDATA #IMPLIED >
<!ATTLIST path
xmlns:kvg CDATA #FIXED "http://kanjivg.tagaini.net"
kvg:type CDATA #IMPLIED >
]>
<svg xmlns="http://www.w3.org/2000/svg" width="109" height="109" viewBox="0 0 109 109">
<g id="kvg:StrokePaths_09824" style="fill:none;stroke:#000000;stroke-width:3;stroke-linecap:round;stroke-linejoin:round;">
<g id="kvg:09824" kvg:element="頤">
	<g id="kvg:09824-g1" kvg:position="left">
		<g id="kvg:09824-g2" kvg:element="匚" kvg:part="1">
			<path id="kvg:09824-s1" kvg:type="㇐" d="M10.25,19.44c1.13,0.46,3.18,0.52,4.32,0.46C23.22,19.44,34.4,18,45.22,17c1.87-0.17,3.9,0.22,4.83,0.45"/>
		</g>
		<path id="kvg:09824-s2" kvg:type="㇉" d="M23.5,38.61c0.48,0.83,1.19,2.44,1.19,3.37c0,10.34-0.51,16.56-0.51,22.87"/>
		<path id="kvg:09824-s3" kvg:type="㇐" d="M44.72,56.22C46,49,46.43,43.19,47.45,38.83c0.25-1.05-0.79-2.29-2.52-2.11c-4.72,0.49-5.6,0.9-9.38,1.49c-1.75,0.27-2.5-0.12-2.33-2.33c0.29-3.79,0.88-12.22,0.75-12.84c-0.14-0.62-0.54-1.7-1.21-2.01"/>
		<path id="kvg:09824-s4" kvg:type="㇑" d="M34.45,58.92c2.6-0.35,7.89-1.73,12.58-2.29"/>
		<path id="kvg:09824-s5" kvg:type="㇑" d="M32.33,56.56c0.95,0.44,1.52,1.97,1.71,2.84c0.19,0.87,0,21.7-0.19,27.16"/>
		<g id="kvg:09824-g3" kvg:element="匚" kvg:part="2">
			<path id="kvg:09824-s6" kvg:type="㇗" d="M13.43,19.93c0.32,1.06,0.41,2.55,0.65,3.97c0.24,1.42-0.44,57.69-0.44,63.19c0,0.98,1.21,2.82,1.9,2.72c7.22-1.12,20.21-3.31,31.75-3.93c1.22-0.07,3.39,0.69,3.96,0.9"/>
		</g>
	</g>
	<g id="kvg:09824-g4" kvg:element="頁" kvg:position="right" kvg:radical="general">
		<g id="kvg:09824-g5" kvg:position="top">
			<path id="kvg:09824-s7" kvg:type="㇐" d="M54.95,16.5c1.14,0.38,3.22,0.43,4.36,0.38c9.39-0.44,27.31-2.69,34.62-2.87c1.89-0.05,3.03,0.18,3.98,0.37"/>
			<path id="kvg:09824-s8" kvg:type="㇒" d="M74.23,18.43c0.01,0.29,0.02,0.75-0.02,1.17c-0.23,2.47-2.56,7.88-4.39,11.2"/>
		</g>
		<g id="kvg:09824-g6" kvg:element="貝" kvg:position="bottom">
			<g id="kvg:09824-g7" kvg:element="目" kvg:position="top">
				<path id="kvg:09824-s9" kvg:type="㇑" d="M60.66,31.8c0.48,1.08,1.19,1.88,1.19,3.32c0,1.44-0.32,42.41-0.32,43.13"/>
				<path id="kvg:09824-s10" kvg:type="㇕a" d="M62.65,33.23c2.73-0.18,24.24-1.86,26.73-2.08c2.07-0.18,3.71,1.99,3.53,3.32c-0.22,1.69-0.96,41.25-0.96,42.33"/>
				<path id="kvg:09824-s11" kvg:type="㇐a" d="M62.61,46.32c3.9,0,23.09-0.92,28.93-1.31"/>
				<path id="kvg:09824-s12" kvg:type="㇐a" d="M62.83,60.44c9.74-0.48,20.22-1.05,27.68-1.55"/>
				<path id="kvg:09824-s13" kvg:type="㇐a" d="M62.53,75.79c6.29-1.07,20.73-1,28.68-1.54"/>
			</g>
			<g id="kvg:09824-g8" kvg:position="bottom">
				<path id="kvg:09824-s14" kvg:type="㇒" d="M67.15,81.48c0.41,1.25-0.2,2.59-1,3.5c-2.43,2.75-7.9,8.02-14.93,11.77"/>
				<path id="kvg:09824-s15" kvg:type="㇔" d="M81.07,79.87c6.51,4.39,14.21,12.37,15.98,16.21"/>
			</g>
		</g>
	</g>
</g>
</g>
<g id="kvg:StrokeNumbers_09824" style="font-size:8;fill:#808080">
	<text transform="matrix(1 0 0 1 12.50 16.50)">1</text>
	<text transform="matrix(1 0 0 1 26.50 28.50)">2</text>
	<text transform="matrix(1 0 0 1 36.50 54.50)">3</text>
	<text transform="matrix(1 0 0 1 17.25 46.40)">4</text>
	<text transform="matrix(1 0 0 1 27.25 64.50)">5</text>
	<text transform="matrix(1 0 0 1 6.50 29.50)">6</text>
	<text transform="matrix(1 0 0 1 53.50 13.50)">7</text>
	<text transform="matrix(1 0 0 1 65.50 24.50)">8</text>
	<text transform="matrix(1 0 0 1 54.50 40.50)">9</text>
	<text transform="matrix(1 0 0 1 60.50 31.85)">10</text>
	<text transform="matrix(1 0 0 1 65.50 43.85)">11</text>
	<text transform="matrix(1 0 0 1 65.31 57.50)">12</text>
	<text transform="matrix(1 0 0 1 65.36 72.50)">13</text>
	<text transform="matrix(1 0 0 1 55.50 85.50)">14</text>
	<text transform="matrix(1 0 0 1 74.50 87.50)">15</text>
</g>
</svg>
