<?xml version="1.0" encoding="UTF-8"?>
<!--
Copyright (C) 2009/2010/2011 Ulrich Apel.
This work is distributed under the conditions of the Creative Commons 
Attribution-Share Alike 3.0 Licence. This means you are free:
* to Share - to copy, distribute and transmit the work
* to Remix - to adapt the work

Under the following conditions:
* Attribution. You must attribute the work by stating your use of KanjiVG in
  your own copyright header and linking to KanjiVG's website
  (http://kanjivg.tagaini.net)
* Share Alike. If you alter, transform, or build upon this work, you may
  distribute the resulting work only under the same or similar license to this
  one.

See http://creativecommons.org/licenses/by-sa/3.0/ for more details.
-->
<!DOCTYPE svg PUBLIC "-//W3C//DTD SVG 1.0//EN" "http://www.w3.org/TR/2001/REC-SVG-20010904/DTD/svg10.dtd" [
<!ATTLIST g
xmlns:kvg CDATA #FIXED "http://kanjivg.tagaini.net"
kvg:element CDATA #IMPLIED
kvg:variant CDATA #IMPLIED
kvg:partial CDATA #IMPLIED
kvg:original CDATA #IMPLIED
kvg:part CDATA #IMPLIED
kvg:number CDATA #IMPLIED
kvg:tradForm CDATA #IMPLIED
kvg:radicalForm CDATA #IMPLIED
kvg:position CDATA #IMPLIED
kvg:radical CDATA #IMPLIED
kvg:phon CDATA #IMPLIED >
<!ATTLIST path
xmlns:kvg CDATA #FIXED "http://kanjivg.tagaini.net"
kvg:type CDATA #IMPLIED >
]>
<svg xmlns="http://www.w3.org/2000/svg" width="109" height="109" viewBox="0 0 109 109">
<g id="kvg:StrokePaths_0985e" style="fill:none;stroke:#000000;stroke-width:3;stroke-linecap:round;stroke-linejoin:round;">
<g id="kvg:0985e" kvg:element="類">
	<g id="kvg:0985e-g1" kvg:position="left">
		<g id="kvg:0985e-g2" kvg:element="米" kvg:variant="true">
			<path id="kvg:0985e-s1" kvg:type="㇔" d="M16.57,20.34c2.78,1.79,6.99,6.86,7.68,9.64"/>
			<path id="kvg:0985e-s2" kvg:type="㇒" d="M48.01,17.89c0.06,0.77-0.03,1.52-0.4,2.2c-1.48,2.66-3.36,5.41-6.79,8.98"/>
			<path id="kvg:0985e-s3" kvg:type="㇐" d="M13.6,37.87c1.27,0.38,3.02,0.6,5.14,0.24c8.88-1.49,21.01-3.24,28.81-3.99c2.14-0.21,3.45-0.17,4.81,0"/>
			<path id="kvg:0985e-s4" kvg:type="㇑" d="M32.27,12.96c0.82,0.82,1.34,2.04,1.34,3.73c0,2.5,0.05,25.19,0.07,35.93c0,2.42,0.01,3.76,0.01,4.66"/>
			<path id="kvg:0985e-s5" kvg:type="㇒" d="M32.27,36.86c0,1.14-0.44,2.07-1.01,3.02c-4.2,7.06-11.86,15.59-19.02,19.36"/>
			<path id="kvg:0985e-s6" kvg:type="㇔/㇏" d="M36.62,41.42c5.5,2.71,11,6.33,14.65,10.27"/>
		</g>
		<g id="kvg:0985e-g3" kvg:element="大" kvg:variant="true">
			<path id="kvg:0985e-s7" kvg:type="㇐" d="M13.46,72.44c1.98,0.48,3.9,0.34,5.89,0.08c8.91-1.15,17.8-2.25,25.53-3.02c2.36-0.23,4.62-0.38,6.85-0.12"/>
			<path id="kvg:0985e-s8" kvg:type="㇒" d="M32.56,61.75c0.35,0.51,0.59,1.35,0.52,2.46c-0.96,15.67-8.96,28.17-21.33,34.57"/>
			<path id="kvg:0985e-s9" kvg:type="㇔/㇏" d="M34.38,78.12c4.99,2.75,10.95,8.25,13.52,11.62"/>
		</g>
	</g>
	<g id="kvg:0985e-g4" kvg:element="頁" kvg:position="right" kvg:radical="general">
		<path id="kvg:0985e-s10" kvg:type="㇐" d="M55.5,17.38c2.39,0.54,4.35,0.53,6.77,0.28c9.39-0.95,18.64-1.76,27.23-2.4c2.2-0.17,4.6-0.6,6.75,0.08"/>
		<path id="kvg:0985e-s11" kvg:type="㇒" d="M72.94,20.14c0.06,0.74,0.11,1.29-0.02,1.7c-1.17,3.67-3.11,7.31-5.28,10.7"/>
		<g id="kvg:0985e-g5" kvg:element="貝">
			<g id="kvg:0985e-g6" kvg:element="目" kvg:position="top">
				<path id="kvg:0985e-s12" kvg:type="㇑" d="M60.49,32.86c0.88,0.89,1.18,2.21,1.18,3.71c0,3.67,0.14,29.65,0.17,39.8c0,1.39,0.01,2.48,0.01,3.18"/>
				<path id="kvg:0985e-s13" kvg:type="㇕a" d="M62.73,34.36c2.72-0.19,23.16-2.65,25.63-2.88c2.07-0.19,3.77,1.15,3.77,3.47c0,2.34-0.05,23.15-0.05,39.3c0,1.42,0,2.81,0,4.15"/>
				<path id="kvg:0985e-s14" kvg:type="㇐a" d="M62.93,48.16c8.32-0.66,22.25-1.92,28.07-2.33"/>
				<path id="kvg:0985e-s15" kvg:type="㇐a" d="M63.15,62.46c9.6-0.71,17.85-1.21,27.83-1.78"/>
				<path id="kvg:0985e-s16" kvg:type="㇐a" d="M63.11,78.09c8.89-0.84,19.91-1.5,27.83-2.06"/>
			</g>
			<g id="kvg:0985e-g7" kvg:position="bottom">
				<path id="kvg:0985e-s17" kvg:type="㇒" d="M68.72,81.96c0.28,1.1-0.24,2.17-0.99,3.15c-2.26,2.94-8.98,9.67-13.51,13.15"/>
				<path id="kvg:0985e-s18" kvg:type="㇔" d="M84.96,83.83c5.22,4.08,11.39,11.48,12.81,15.05"/>
			</g>
		</g>
	</g>
</g>
</g>
<g id="kvg:StrokeNumbers_0985e" style="font-size:8;fill:#808080">
	<text transform="matrix(1 0 0 1 10.50 20.50)">1</text>
	<text transform="matrix(1 0 0 1 42.50 14.50)">2</text>
	<text transform="matrix(1 0 0 1 6.75 39.13)">3</text>
	<text transform="matrix(1 0 0 1 24.50 13.50)">4</text>
	<text transform="matrix(1 0 0 1 17.50 48.50)">5</text>
	<text transform="matrix(1 0 0 1 44.25 43.63)">6</text>
	<text transform="matrix(1 0 0 1 6.50 74.50)">7</text>
	<text transform="matrix(1 0 0 1 24.75 65.50)">8</text>
	<text transform="matrix(1 0 0 1 41.50 80.50)">9</text>
	<text transform="matrix(1 0 0 1 56.50 14.45)">10</text>
	<text transform="matrix(1 0 0 1 63.50 25.63)">11</text>
	<text transform="matrix(1 0 0 1 52.50 41.50)">12</text>
	<text transform="matrix(1 0 0 1 57.75 30.13)">13</text>
	<text transform="matrix(1 0 0 1 65.50 44.50)">14</text>
	<text transform="matrix(1 0 0 1 65.68 59.95)">15</text>
	<text transform="matrix(1 0 0 1 65.54 74.00)">16</text>
	<text transform="matrix(1 0 0 1 55.50 88.63)">17</text>
	<text transform="matrix(1 0 0 1 75.50 89.50)">18</text>
</g>
</svg>
