<?xml version="1.0" encoding="UTF-8"?>
<!--
Copyright (C) 2009/2010/2011 Ulrich Apel.
This work is distributed under the conditions of the Creative Commons 
Attribution-Share Alike 3.0 Licence. This means you are free:
* to Share - to copy, distribute and transmit the work
* to Remix - to adapt the work

Under the following conditions:
* Attribution. You must attribute the work by stating your use of KanjiVG in
  your own copyright header and linking to KanjiVG's website
  (http://kanjivg.tagaini.net)
* Share Alike. If you alter, transform, or build upon this work, you may
  distribute the resulting work only under the same or similar license to this
  one.

See http://creativecommons.org/licenses/by-sa/3.0/ for more details.
-->
<!DOCTYPE svg PUBLIC "-//W3C//DTD SVG 1.0//EN" "http://www.w3.org/TR/2001/REC-SVG-20010904/DTD/svg10.dtd" [
<!ATTLIST g
xmlns:kvg CDATA #FIXED "http://kanjivg.tagaini.net"
kvg:element CDATA #IMPLIED
kvg:variant CDATA #IMPLIED
kvg:partial CDATA #IMPLIED
kvg:original CDATA #IMPLIED
kvg:part CDATA #IMPLIED
kvg:number CDATA #IMPLIED
kvg:tradForm CDATA #IMPLIED
kvg:radicalForm CDATA #IMPLIED
kvg:position CDATA #IMPLIED
kvg:radical CDATA #IMPLIED
kvg:phon CDATA #IMPLIED >
<!ATTLIST path
xmlns:kvg CDATA #FIXED "http://kanjivg.tagaini.net"
kvg:type CDATA #IMPLIED >
]>
<svg xmlns="http://www.w3.org/2000/svg" width="109" height="109" viewBox="0 0 109 109">
<g id="kvg:StrokePaths_09867-Kaisho" style="fill:none;stroke:#000000;stroke-width:3;stroke-linecap:round;stroke-linejoin:round;">
<g id="kvg:09867-Kaisho" kvg:element="顧">
	<g id="kvg:09867-Kaisho-g1" kvg:element="雇" kvg:position="left">
		<g id="kvg:09867-Kaisho-g2" kvg:element="戸" kvg:position="tare">
			<path id="kvg:09867-Kaisho-s1" kvg:type="㇐" d="M18.48,18.25c0.65,0.26,1.83,0.29,2.48,0.26c7.94-0.27,17.37-2.57,29.86-3.03c1.08-0.04,1.73,0.12,2.26,0.26"/>
			<path id="kvg:09867-Kaisho-s2" kvg:type="㇕c" d="M19.94,28.56c0.82,0.19,4.05,1.02,5.66,0.89c8.9-0.7,20.97-3.03,26.2-3.37c1.41-0.09,2.26,0.89,1.98,2.36c-0.48,2.57-1.12,3.8-2.22,7.87"/>
			<path id="kvg:09867-Kaisho-s3" kvg:type="㇐b" d="M22.37,40c5.79-0.55,22.95-2.54,30.53-3.35"/>
			<path id="kvg:09867-Kaisho-s4" kvg:type="㇒" d="M22.85,29.74c0.03,1.23,0.09,3.18-0.07,4.95C20.75,57,18.25,71,11.63,82.08"/>
		</g>
		<g id="kvg:09867-Kaisho-g3" kvg:element="隹">
			<g id="kvg:09867-Kaisho-g4" kvg:element="亻" kvg:variant="true" kvg:original="人">
				<path id="kvg:09867-Kaisho-s5" kvg:type="㇒" d="M33.77,44.36c0.14,1.1-0.04,2.55-0.48,3.5c-2.8,6.03-6.36,11.13-12.79,18.47"/>
				<path id="kvg:09867-Kaisho-s6" kvg:type="㇑" d="M28.64,58.96c0.6,5.09,0.21,31.82,0.48,36.29"/>
			</g>
			<path id="kvg:09867-Kaisho-s7" kvg:type="㇒" d="M47.13,43.76c0.04,0.6-0.01,1.4-0.15,1.91c-0.85,3.3-1.93,5.85-3.88,9.86"/>
			<path id="kvg:09867-Kaisho-s8" kvg:type="㇐b" d="M28.38,58.3c5.71-0.73,24.5-2.79,26.95-3.18"/>
			<path id="kvg:09867-Kaisho-s9" kvg:type="㇑a" d="M42.96,57.29c0.28,0.28,0.5,0.67,0.5,1.17c0,5,0.03,22.92-0.14,30.8"/>
			<path id="kvg:09867-Kaisho-s10" kvg:type="㇐b" d="M29.4,67.79c5.39-0.6,23.27-2.35,25.59-2.68"/>
			<path id="kvg:09867-Kaisho-s11" kvg:type="㇐b" d="M29.25,78.4c5.68-0.51,23.5-2.48,25.93-2.76"/>
			<path id="kvg:09867-Kaisho-s12" kvg:type="㇐b" d="M29.49,90.94c5.71-0.73,25.54-2.59,27.99-2.99"/>
		</g>
	</g>
	<g id="kvg:09867-Kaisho-g5" kvg:element="頁" kvg:position="right" kvg:radical="general">
		<path id="kvg:09867-Kaisho-s13" kvg:type="㇐" d="M59.63,17.35c0.83,0.4,2.33,0.53,3.15,0.42c9.03-1.18,23.12-2.14,30.97-2.57c1.36-0.08,2.19,0.21,2.87,0.41"/>
		<path id="kvg:09867-Kaisho-s14" kvg:type="㇒" d="M78.23,19.1c0.01,0.3,0.03,0.78-0.03,1.2c-0.35,2.52-2.83,8.46-5.61,11.7"/>
		<g id="kvg:09867-Kaisho-g6" kvg:element="貝">
			<g id="kvg:09867-Kaisho-g7" kvg:element="目" kvg:position="top">
				<path id="kvg:09867-Kaisho-s15" kvg:type="㇑" d="M63.19,32.5c0.44,1.17,1.09,2.07,1.09,3.57c0,1.51-0.65,42.97-0.5,44.5"/>
				<path id="kvg:09867-Kaisho-s16" kvg:type="㇕a" d="M65.03,34.68c2.51,0.02,23.29-2.73,25.58-2.76c1.91-0.03,2.28,1.5,2.28,3.68c0,1.8-0.56,42.32-0.56,43.45"/>
				<path id="kvg:09867-Kaisho-s17" kvg:type="㇐a" d="M64.98,48.55c4.42-0.48,8.84-0.94,13.26-1.36c1.4-0.13,2.81-0.26,4.17-0.38"/>
				<path id="kvg:09867-Kaisho-s18" kvg:type="㇐a" d="M64.86,63.43c4.39-0.35,8.76-0.83,13.15-1.22c1.3-0.12,2.6-0.23,3.89-0.33"/>
				<path id="kvg:09867-Kaisho-s19" kvg:type="㇐a" d="M64.54,78.37c7.07-0.37,19.79-1.63,27.1-1.59"/>
			</g>
			<g id="kvg:09867-Kaisho-g8" kvg:position="bottom">
				<path id="kvg:09867-Kaisho-s20" kvg:type="㇒" d="M69.08,83.68c0.43,1.32,0.33,2-0.4,3.04c-2.39,3.39-8.77,8.42-15.34,11.79"/>
				<path id="kvg:09867-Kaisho-s21" kvg:type="㇔" d="M84.04,83.96c5.12,3.33,11.58,10.59,12.97,13.32"/>
			</g>
		</g>
	</g>
</g>
</g>
<g id="kvg:StrokeNumbers_09867-Kaisho" style="font-size:8;fill:#808080">
	<text transform="matrix(1 0 0 1 15.50 15.50)">1</text>
	<text transform="matrix(1 0 0 1 24.75 27.05)">2</text>
	<text transform="matrix(1 0 0 1 27.75 37.48)">3</text>
	<text transform="matrix(1 0 0 1 15.50 36.50)">4</text>
	<text transform="matrix(1 0 0 1 27.50 47.50)">5</text>
	<text transform="matrix(1 0 0 1 22.50 73.55)">6</text>
	<text transform="matrix(1 0 0 1 39.50 47.50)">7</text>
	<text transform="matrix(1 0 0 1 36.75 54.50)">8</text>
	<text transform="matrix(1 0 0 1 46.50 62.50)">9</text>
	<text transform="matrix(1 0 0 1 32.02 65.90)">10</text>
	<text transform="matrix(1 0 0 1 32.25 75.50)">11</text>
	<text transform="matrix(1 0 0 1 32.09 87.50)">12</text>
	<text transform="matrix(1 0 0 1 59.25 13.63)">13</text>
	<text transform="matrix(1 0 0 1 67.50 24.50)">14</text>
	<text transform="matrix(1 0 0 1 55.50 40.50)">15</text>
	<text transform="matrix(1 0 0 1 63.50 31.50)">16</text>
	<text transform="matrix(1 0 0 1 68.54 44.98)">17</text>
	<text transform="matrix(1 0 0 1 68.51 59.91)">18</text>
	<text transform="matrix(1 0 0 1 68.50 74.83)">19</text>
	<text transform="matrix(1 0 0 1 58.50 87.50)">20</text>
	<text transform="matrix(1 0 0 1 78.50 90.50)">21</text>
</g>
</svg>
