<?xml version="1.0" encoding="UTF-8"?>
<!--
Copyright (C) 2009/2010/2011 Ulrich Apel.
This work is distributed under the conditions of the Creative Commons 
Attribution-Share Alike 3.0 Licence. This means you are free:
* to Share - to copy, distribute and transmit the work
* to Remix - to adapt the work

Under the following conditions:
* Attribution. You must attribute the work by stating your use of KanjiVG in
  your own copyright header and linking to KanjiVG's website
  (http://kanjivg.tagaini.net)
* Share Alike. If you alter, transform, or build upon this work, you may
  distribute the resulting work only under the same or similar license to this
  one.

See http://creativecommons.org/licenses/by-sa/3.0/ for more details.
-->
<!DOCTYPE svg PUBLIC "-//W3C//DTD SVG 1.0//EN" "http://www.w3.org/TR/2001/REC-SVG-20010904/DTD/svg10.dtd" [
<!ATTLIST g
xmlns:kvg CDATA #FIXED "http://kanjivg.tagaini.net"
kvg:element CDATA #IMPLIED
kvg:variant CDATA #IMPLIED
kvg:partial CDATA #IMPLIED
kvg:original CDATA #IMPLIED
kvg:part CDATA #IMPLIED
kvg:number CDATA #IMPLIED
kvg:tradForm CDATA #IMPLIED
kvg:radicalForm CDATA #IMPLIED
kvg:position CDATA #IMPLIED
kvg:radical CDATA #IMPLIED
kvg:phon CDATA #IMPLIED >
<!ATTLIST path
xmlns:kvg CDATA #FIXED "http://kanjivg.tagaini.net"
kvg:type CDATA #IMPLIED >
]>
<svg xmlns="http://www.w3.org/2000/svg" width="109" height="109" viewBox="0 0 109 109">
<g id="kvg:StrokePaths_09873-KaishoVt3" style="fill:none;stroke:#000000;stroke-width:3;stroke-linecap:round;stroke-linejoin:round;">
<g id="kvg:09873-KaishoVt3" kvg:element="顳">
	<g id="kvg:09873-KaishoVt3-g1" kvg:element="聶" kvg:position="left">
		<g id="kvg:09873-KaishoVt3-g2" kvg:element="耳" kvg:variant="true" kvg:position="top">
			<path id="kvg:09873-KaishoVt3-s1" kvg:type="㇐" d="M16.24,13.41c0.67,0.26,1.89,0.3,2.57,0.26c6.95-0.41,17.45-2.17,30.9-2.94c1.11-0.06,1.79,0.12,2.34,0.25"/>
			<path id="kvg:09873-KaishoVt3-s2" kvg:type="㇑" d="M23.55,15.06c0.66,0.76,1.02,2.76,1.02,4.82c0,2.06-0.2,11.02-0.2,18.42"/>
			<path id="kvg:09873-KaishoVt3-s3" kvg:type="㇑" d="M41.99,14.99c0.31,1.02,0.78,2.29,0.78,3.57c0,1.27,0.16,18.06,0.16,28.51"/>
			<path id="kvg:09873-KaishoVt3-s4" kvg:type="㇐" d="M25.61,21.69c2.51,0,5.05-0.42,7.54-0.69c0.79-0.09,1.59-0.17,2.4-0.26"/>
			<path id="kvg:09873-KaishoVt3-s5" kvg:type="㇐" d="M24.87,30.15c2.78-0.31,5.57-0.62,8.35-0.91c0.65-0.07,1.3-0.13,1.96-0.2"/>
			<path id="kvg:09873-KaishoVt3-s6" kvg:type="㇀" d="M13.07,39.56c0.29,0.38,1.52,0.92,2.53,0.76c4.06-0.63,27.82-4.45,34.05-5.46"/>
		</g>
		<g id="kvg:09873-KaishoVt3-g3" kvg:position="bottom">
			<g id="kvg:09873-KaishoVt3-g4" kvg:element="耳" kvg:variant="true" kvg:position="left">
				<path id="kvg:09873-KaishoVt3-s7" kvg:type="㇐" d="M11.38,54.49c0.41,0.29,1.15,0.36,1.56,0.29c3.64-0.64,10-1.47,18.18-2.33c0.68-0.07,1.09,0.14,1.42,0.28"/>
				<path id="kvg:09873-KaishoVt3-s8" kvg:type="㇑" d="M16.58,55.79c0.35,0.43,0.54,1.57,0.54,2.73s-0.11,21.56-0.11,25.76"/>
				<path id="kvg:09873-KaishoVt3-s9" kvg:type="㇑" d="M28.34,53.98c0.17,0.58,0.41,1.3,0.41,2.02c0,0.72,0.08,34.61,0.08,40.54"/>
				<path id="kvg:09873-KaishoVt3-s10" kvg:type="㇐" d="M17.37,63.79c1.71-0.3,3.41-0.74,5.1-1.12c0.51-0.12,1.04-0.23,1.56-0.34"/>
				<path id="kvg:09873-KaishoVt3-s11" kvg:type="㇐" d="M17.2,72.9c1.77,0,3.63-0.64,5.34-1.04c0.56-0.13,1.12-0.26,1.68-0.38"/>
				<path id="kvg:09873-KaishoVt3-s12" kvg:type="㇀" d="M12,85.91c0.47,0.63,2.11,0.47,2.6,0.22c1.95-1,10.77-5.54,13.77-7.15"/>
			</g>
			<g id="kvg:09873-KaishoVt3-g5" kvg:element="耳" kvg:variant="true" kvg:position="right">
				<path id="kvg:09873-KaishoVt3-s13" kvg:type="㇐" d="M37.22,51.88c0.47,0.3,1.34,0.33,1.81,0.3c3.97-0.27,6.55-1.55,16.06-2.44c0.79-0.07,1.26,0.14,1.66,0.29"/>
				<path id="kvg:09873-KaishoVt3-s14" kvg:type="㇑" d="M40.04,53.74c0.38,0.45,0.59,1.63,0.59,2.83s-0.12,20.34-0.12,24.69"/>
				<path id="kvg:09873-KaishoVt3-s15" kvg:type="㇑" d="M51.99,51.34c0.18,0.6,0.45,1.35,0.45,2.1c0,0.75,0.09,37.91,0.09,44.06"/>
				<path id="kvg:09873-KaishoVt3-s16" kvg:type="㇐" d="M41.24,60.04c1.66,0,3.37-0.4,5-0.65c0.54-0.08,1.08-0.16,1.62-0.24"/>
				<path id="kvg:09873-KaishoVt3-s17" kvg:type="㇐" d="M41.06,69.49c1.77,0,3.56-0.34,5.3-0.57c0.54-0.07,1.09-0.14,1.64-0.21"/>
				<path id="kvg:09873-KaishoVt3-s18" kvg:type="㇀" d="M34.58,83.21c0.69,0.53,2.12,0.46,2.69,0.22c2.27-0.97,15.55-6.33,19.04-7.88"/>
			</g>
		</g>
	</g>
	<g id="kvg:09873-KaishoVt3-g6" kvg:element="頁" kvg:position="right" kvg:radical="general">
		<g id="kvg:09873-KaishoVt3-g7" kvg:position="top">
			<path id="kvg:09873-KaishoVt3-s19" kvg:type="㇐" d="M58.2,13.61c1.06,0.32,3.01,0.37,4.08,0.32c8.79-0.37,25.56-2.31,32.4-2.46c1.77-0.04,2.84,0.15,3.72,0.32"/>
			<path id="kvg:09873-KaishoVt3-s20" kvg:type="㇒" d="M77.23,14.93c0.01,0.29,0.02,0.74-0.02,1.15c-0.26,2.42-2.85,7.72-4.89,10.97"/>
		</g>
		<g id="kvg:09873-KaishoVt3-g8" kvg:element="貝" kvg:position="bottom">
			<g id="kvg:09873-KaishoVt3-g9" kvg:element="目" kvg:position="top">
				<path id="kvg:09873-KaishoVt3-s21" kvg:type="㇑" d="M62.66,29.3c0.45,1.08,1.11,1.88,1.11,3.32c0,1.44-0.15,42.34,0,43.78"/>
				<path id="kvg:09873-KaishoVt3-s22" kvg:type="㇕a" d="M64.53,30.23c2.56-0.18,23.74-2.36,26.08-2.58c1.94-0.18,3.48,1.99,3.31,3.32c-0.21,1.69-0.9,42.25-0.9,43.33"/>
				<path id="kvg:09873-KaishoVt3-s23" kvg:type="㇐a" d="M64.49,43.82c4.46,0,8.95-0.46,13.39-0.76c1.47-0.1,2.96-0.21,4.41-0.31"/>
				<path id="kvg:09873-KaishoVt3-s24" kvg:type="㇐a" d="M64.19,57.94c5.02-0.27,10.02-0.63,15.03-1.02c1.28-0.1,2.53-0.19,3.76-0.29"/>
				<path id="kvg:09873-KaishoVt3-s25" kvg:type="㇐a" d="M65.36,73.79c5.9-1.07,19.51-1.5,26.96-2.04"/>
			</g>
			<g id="kvg:09873-KaishoVt3-g10" kvg:position="bottom">
				<path id="kvg:09873-KaishoVt3-s26" kvg:type="㇒" d="M70.74,79.98c0.33,1.42,0.65,1.8,0,2.83c-1.95,3.11-8.87,10.76-12.77,14.44"/>
				<path id="kvg:09873-KaishoVt3-s27" kvg:type="㇔" d="M83.57,81.37c5.29,4.26,11.54,11.98,12.98,15.71"/>
			</g>
		</g>
	</g>
</g>
</g>
<g id="kvg:StrokeNumbers_09873-KaishoVt3" style="font-size:8;fill:#808080">
	<text transform="matrix(1 0 0 1 9.50 13.50)">1</text>
	<text transform="matrix(1 0 0 1 17.50 23.55)">2</text>
	<text transform="matrix(1 0 0 1 46.50 21.50)">3</text>
	<text transform="matrix(1 0 0 1 28.50 19.48)">4</text>
	<text transform="matrix(1 0 0 1 28.50 28.50)">5</text>
	<text transform="matrix(1 0 0 1 4.50 39.50)">6</text>
	<text transform="matrix(1 0 0 1 5.50 53.50)">7</text>
	<text transform="matrix(1 0 0 1 9.50 64.50)">8</text>
	<text transform="matrix(1 0 0 1 30.50 60.50)">9</text>
	<text transform="matrix(1 0 0 1 20.25 61.03)">10</text>
	<text transform="matrix(1 0 0 1 20.25 69.95)">11</text>
	<text transform="matrix(1 0 0 1 2.25 86.50)">12</text>
	<text transform="matrix(1 0 0 1 33.50 49.50)">13</text>
	<text transform="matrix(1 0 0 1 32.50 66.65)">14</text>
	<text transform="matrix(1 0 0 1 53.50 58.50)">15</text>
	<text transform="matrix(1 0 0 1 42.50 57.50)">16</text>
	<text transform="matrix(1 0 0 1 42.50 67.50)">17</text>
	<text transform="matrix(1 0 0 1 30.75 80.50)">18</text>
	<text transform="matrix(1 0 0 1 56.94 10.50)">19</text>
	<text transform="matrix(1 0 0 1 66.50 21.50)">20</text>
	<text transform="matrix(1 0 0 1 55.50 37.50)">21</text>
	<text transform="matrix(1 0 0 1 64.50 27.50)">22</text>
	<text transform="matrix(1 0 0 1 67.50 40.50)">23</text>
	<text transform="matrix(1 0 0 1 67.50 54.50)">24</text>
	<text transform="matrix(1 0 0 1 67.50 70.50)">25</text>
	<text transform="matrix(1 0 0 1 59.50 84.50)">26</text>
	<text transform="matrix(1 0 0 1 76.50 89.50)">27</text>
</g>
</svg>
