<?xml version="1.0" encoding="UTF-8"?>
<!--
Copyright (C) 2009/2010/2011 Ulrich Apel.
This work is distributed under the conditions of the Creative Commons 
Attribution-Share Alike 3.0 Licence. This means you are free:
* to Share - to copy, distribute and transmit the work
* to Remix - to adapt the work

Under the following conditions:
* Attribution. You must attribute the work by stating your use of KanjiVG in
  your own copyright header and linking to KanjiVG's website
  (http://kanjivg.tagaini.net)
* Share Alike. If you alter, transform, or build upon this work, you may
  distribute the resulting work only under the same or similar license to this
  one.

See http://creativecommons.org/licenses/by-sa/3.0/ for more details.
-->
<!DOCTYPE svg PUBLIC "-//W3C//DTD SVG 1.0//EN" "http://www.w3.org/TR/2001/REC-SVG-20010904/DTD/svg10.dtd" [
<!ATTLIST g
xmlns:kvg CDATA #FIXED "http://kanjivg.tagaini.net"
kvg:element CDATA #IMPLIED
kvg:variant CDATA #IMPLIED
kvg:partial CDATA #IMPLIED
kvg:original CDATA #IMPLIED
kvg:part CDATA #IMPLIED
kvg:number CDATA #IMPLIED
kvg:tradForm CDATA #IMPLIED
kvg:radicalForm CDATA #IMPLIED
kvg:position CDATA #IMPLIED
kvg:radical CDATA #IMPLIED
kvg:phon CDATA #IMPLIED >
<!ATTLIST path
xmlns:kvg CDATA #FIXED "http://kanjivg.tagaini.net"
kvg:type CDATA #IMPLIED >
]>
<svg xmlns="http://www.w3.org/2000/svg" width="109" height="109" viewBox="0 0 109 109">
<g id="kvg:StrokePaths_09905-JinmeiKaisho" style="fill:none;stroke:#000000;stroke-width:3;stroke-linecap:round;stroke-linejoin:round;">
<g id="kvg:09905-JinmeiKaisho" kvg:element="餅">
	<g id="kvg:09905-JinmeiKaisho-g1" kvg:element="飠" kvg:variant="true" kvg:original="食" kvg:position="left" kvg:radical="general">
		<path id="kvg:09905-JinmeiKaisho-s1" kvg:type="㇒" d="M32.08,11.17c0.08,1.23-0.17,2.38-0.74,3.43c-2.74,5.86-9.55,16.26-19.02,24.18"/>
		<path id="kvg:09905-JinmeiKaisho-s2" kvg:type="㇔/㇏" d="M34.07,17.02c4.52,1.8,11.68,7.41,12.81,10.22"/>
		<path id="kvg:09905-JinmeiKaisho-s3" kvg:type="㇐" d="M28.32,30.68c1.07,0.19,2.15,0.2,3.24,0.06c2.21-0.49,5.26-1.07,7.33-1.33c0.9-0.12,1.79-0.1,2.69,0.07"/>
		<path id="kvg:09905-JinmeiKaisho-s4" kvg:type="㇑" d="M21.08,38.96c0.39,0.78,0.78,1.66,0.78,2.7c0,0.73-0.06,27.41-0.06,43.47c0,6.73,0.02,11.59,0.06,11.9"/>
		<path id="kvg:09905-JinmeiKaisho-s5" kvg:type="㇕" d="M22.01,40.58c2.2-0.13,17.89-2.15,19.89-2.31c1.67-0.13,2.75,1.44,2.62,2.2c-0.19,1.11-1.08,9.69-1.78,15.79c-0.28,2.48-0.53,4.54-0.69,5.54"/>
		<path id="kvg:09905-JinmeiKaisho-s6" kvg:type="㇐a" d="M23.15,50.65c1.64,0,5.95-0.54,10.74-1.02c1.67-0.17,3.23-0.25,4.74-0.21"/>
		<path id="kvg:09905-JinmeiKaisho-s7" kvg:type="㇐a" d="M23.01,61.88c6.07-0.56,10.33-1.54,17.88-2.02"/>
		<path id="kvg:09905-JinmeiKaisho-s8" kvg:type="㇐c" d="M23.21,74.02c3.02-0.2,10.96-1.64,15.8-2.1c1.62-0.18,3.23-0.17,4.85,0.02"/>
		<path id="kvg:09905-JinmeiKaisho-s9" kvg:type="㇐c" d="M22.96,87.41C26,87.2,34.87,85.91,40,85.53c1.62-0.15,3.24-0.13,4.85,0.05"/>
	</g>
	<g id="kvg:09905-JinmeiKaisho-g2" kvg:element="并" kvg:position="right">
		<g id="kvg:09905-JinmeiKaisho-g3" kvg:position="top">
			<path id="kvg:09905-JinmeiKaisho-s10" kvg:type="㇔" d="M54.46,14.59c2.99,2.15,7.23,8.6,7.98,11.96"/>
			<path id="kvg:09905-JinmeiKaisho-s11" kvg:type="㇒" d="M86.05,10.64c0.13,1.13-0.03,2.22-0.46,3.26c-1.96,4.97-4.25,9.44-8.12,14.95"/>
		</g>
		<g id="kvg:09905-JinmeiKaisho-g4" kvg:position="bottom">
			<g id="kvg:09905-JinmeiKaisho-g5" kvg:element="干" kvg:part="1">
				<path id="kvg:09905-JinmeiKaisho-s12" kvg:type="㇐" d="M53.2,34.49c2.44,0.65,4.88,0.42,7.32-0.18c7.99-1.5,18.6-2.81,27.36-3.92c2.22-0.22,4.41-0.33,6.59,0.16"/>
				<g id="kvg:09905-JinmeiKaisho-g6" kvg:element="十" kvg:part="1">
					<path id="kvg:09905-JinmeiKaisho-s13" kvg:type="㇐" d="M49,58.45c2.9,0.72,5.77,0.27,8.72-0.07c11.64-1.35,21.4-2.26,32.78-3.11c2.87-0.22,5.69-0.27,8.5,0.36"/>
				</g>
			</g>
			<path id="kvg:09905-JinmeiKaisho-s14" kvg:type="㇒" d="M62.42,36.93c0.95,0.95,1.35,2.14,1.36,4.15c0.09,20.79,0.97,41.16-17.94,54.75"/>
			<g id="kvg:09905-JinmeiKaisho-g7" kvg:element="干" kvg:part="2">
				<g id="kvg:09905-JinmeiKaisho-g8" kvg:element="十" kvg:part="2">
					<path id="kvg:09905-JinmeiKaisho-s15" kvg:type="㇑" d="M79.66,34.23c0.99,0.99,1.01,2.14,1.01,3.01c0,0.67-0.08,32.92-0.12,50.88c-0.01,5.18-0.02,9.17-0.02,10.88"/>
				</g>
			</g>
		</g>
	</g>
</g>
</g>
<g id="kvg:StrokeNumbers_09905-JinmeiKaisho" style="font-size:8;fill:#808080">
	<text transform="matrix(1 0 0 1 24.88 11.88)">1</text>
	<text transform="matrix(1 0 0 1 36.62 15.43)">2</text>
	<text transform="matrix(1 0 0 1 29.50 28.12)">3</text>
	<text transform="matrix(1 0 0 1 14.00 43.75)">4</text>
	<text transform="matrix(1 0 0 1 24.25 37.88)">5</text>
	<text transform="matrix(1 0 0 1 25.25 47.88)">6</text>
	<text transform="matrix(1 0 0 1 25.38 58.88)">7</text>
	<text transform="matrix(1 0 0 1 25.12 70.73)">8</text>
	<text transform="matrix(1 0 0 1 24.75 84.60)">9</text>
	<text transform="matrix(1 0 0 1 44.75 11.90)">10</text>
	<text transform="matrix(1 0 0 1 73.50 10.50)">11</text>
	<text transform="matrix(1 0 0 1 50.75 31.50)">12</text>
	<text transform="matrix(1 0 0 1 46.50 55.50)">13</text>
	<text transform="matrix(1 0 0 1 54.50 44.50)">14</text>
	<text transform="matrix(1 0 0 1 70.50 41.50)">15</text>
</g>
</svg>
