<?xml version="1.0" encoding="UTF-8"?>
<!--
Copyright (C) 2009/2010/2011 Ulrich Apel.
This work is distributed under the conditions of the Creative Commons 
Attribution-Share Alike 3.0 Licence. This means you are free:
* to Share - to copy, distribute and transmit the work
* to Remix - to adapt the work

Under the following conditions:
* Attribution. You must attribute the work by stating your use of KanjiVG in
  your own copyright header and linking to KanjiVG's website
  (http://kanjivg.tagaini.net)
* Share Alike. If you alter, transform, or build upon this work, you may
  distribute the resulting work only under the same or similar license to this
  one.

See http://creativecommons.org/licenses/by-sa/3.0/ for more details.
-->
<!DOCTYPE svg PUBLIC "-//W3C//DTD SVG 1.0//EN" "http://www.w3.org/TR/2001/REC-SVG-20010904/DTD/svg10.dtd" [
<!ATTLIST g
xmlns:kvg CDATA #FIXED "http://kanjivg.tagaini.net"
kvg:element CDATA #IMPLIED
kvg:variant CDATA #IMPLIED
kvg:partial CDATA #IMPLIED
kvg:original CDATA #IMPLIED
kvg:part CDATA #IMPLIED
kvg:number CDATA #IMPLIED
kvg:tradForm CDATA #IMPLIED
kvg:radicalForm CDATA #IMPLIED
kvg:position CDATA #IMPLIED
kvg:radical CDATA #IMPLIED
kvg:phon CDATA #IMPLIED >
<!ATTLIST path
xmlns:kvg CDATA #FIXED "http://kanjivg.tagaini.net"
kvg:type CDATA #IMPLIED >
]>
<svg xmlns="http://www.w3.org/2000/svg" width="109" height="109" viewBox="0 0 109 109">
<g id="kvg:StrokePaths_099b4-Vt6" style="fill:none;stroke:#000000;stroke-width:3;stroke-linecap:round;stroke-linejoin:round;">
<g id="kvg:099b4-Vt6" kvg:element="馴">
	<g id="kvg:099b4-Vt6-g1" kvg:element="馬" kvg:position="left" kvg:radical="general">
		<path id="kvg:099b4-Vt6-s1" kvg:type="㇑" d="M15.39,17.6c0.61,0.9,1,1.35,1,2.4c0.03,9.29,0.22,36.78-0.45,39.46"/>
		<path id="kvg:099b4-Vt6-s2" kvg:type="㇐b" d="M16.85,19.25c7.44-0.52,20.42-2.31,22.67-2.66c0.89-0.14,2.41-0.24,2.86-0.03"/>
		<path id="kvg:099b4-Vt6-s3" kvg:type="㇐b" d="M16.79,32.48C22.75,31.9,34.1,30.4,36.65,30c0.89-0.14,2.41-0.24,2.86-0.02"/>
		<path id="kvg:099b4-Vt6-s4" kvg:type="㇐b" d="M16.88,44.43c5.96-0.58,19.28-2.08,21.84-2.47c0.89-0.14,2.41-0.24,2.86-0.03"/>
		<path id="kvg:099b4-Vt6-s5" kvg:type="㇆a" d="M16.65,59.86c6.35-1.11,20.49-3.01,23.72-3.6c4.12-0.76,3.99,2.79,3.76,6.41c-0.64,10.28-2.3,21.69-5.35,28.35c-2.62,5.71-5.06,0.41-5.92-0.85"/>
		<path id="kvg:099b4-Vt6-s6" kvg:type="㇑a" d="M28.36,19.3c0.24,0.37,0.91,0.87,0.91,1.48c-0.02,6.13-0.06,27.78-0.24,37.42"/>
		<g id="kvg:099b4-Vt6-g2" kvg:element="灬" kvg:variant="true" kvg:original="火">
			<path id="kvg:099b4-Vt6-s7" kvg:type="㇔" d="M13.75,73.62c0,4.38-1,10.13-1.83,13.24"/>
			<path id="kvg:099b4-Vt6-s8" kvg:type="㇔" d="M19.99,72.13c1.22,2.09,2.26,4.72,2.54,8.45"/>
			<path id="kvg:099b4-Vt6-s9" kvg:type="㇔" d="M27.1,69.38c0.53,1.02,2.44,4.39,2.67,7.73"/>
			<path id="kvg:099b4-Vt6-s10" kvg:type="㇔" d="M33.56,66.93c1.19,2,3.14,4.06,3.57,6.71"/>
		</g>
	</g>
	<g id="kvg:099b4-Vt6-g3" kvg:element="川" kvg:variant="true" kvg:original="巛" kvg:position="right">
		<path id="kvg:099b4-Vt6-s11" kvg:type="㇒" d="M57.05,19.43c0.72,1.88,0.86,4.57,0.86,6.54c0,45.18-2.66,55.46-13.66,67.53"/>
		<path id="kvg:099b4-Vt6-s12" kvg:type="㇑" d="M72.25,19.13c0.43,0.36,1.33,2.69,1.41,3.4c0.09,0.72-0.05,51.86-0.14,56.35"/>
		<path id="kvg:099b4-Vt6-s13" kvg:type="㇑" d="M89.31,13.13c0.76,0.45,2.36,3.35,2.51,4.25c0.15,0.9-0.1,72.15-0.25,77.75"/>
	</g>
</g>
</g>
<g id="kvg:StrokeNumbers_099b4-Vt6" style="font-size:8;fill:#808080">
	<text transform="matrix(1 0 0 1 9.50 26.50)">1</text>
	<text transform="matrix(1 0 0 1 17.50 16.85)">2</text>
	<text transform="matrix(1 0 0 1 19.50 29.50)">3</text>
	<text transform="matrix(1 0 0 1 19.50 41.50)">4</text>
	<text transform="matrix(1 0 0 1 19.50 56.50)">5</text>
	<text transform="matrix(1 0 0 1 31.50 25.50)">6</text>
	<text transform="matrix(1 0 0 1 8.50 72.85)">7</text>
	<text transform="matrix(1 0 0 1 14.50 68.50)">8</text>
	<text transform="matrix(1 0 0 1 20.50 67.50)">9</text>
	<text transform="matrix(1 0 0 1 25.50 65.50)">10</text>
	<text transform="matrix(1 0 0 1 46.50 26.50)">11</text>
	<text transform="matrix(1 0 0 1 62.50 16.50)">12</text>
	<text transform="matrix(1 0 0 1 77.50 13.50)">13</text>
</g>
</svg>
