<?xml version="1.0" encoding="UTF-8"?>
<!--
Copyright (C) 2009/2010/2011 Ulrich Apel.
This work is distributed under the conditions of the Creative Commons 
Attribution-Share Alike 3.0 Licence. This means you are free:
* to Share - to copy, distribute and transmit the work
* to Remix - to adapt the work

Under the following conditions:
* Attribution. You must attribute the work by stating your use of KanjiVG in
  your own copyright header and linking to KanjiVG's website
  (http://kanjivg.tagaini.net)
* Share Alike. If you alter, transform, or build upon this work, you may
  distribute the resulting work only under the same or similar license to this
  one.

See http://creativecommons.org/licenses/by-sa/3.0/ for more details.
-->
<!DOCTYPE svg PUBLIC "-//W3C//DTD SVG 1.0//EN" "http://www.w3.org/TR/2001/REC-SVG-20010904/DTD/svg10.dtd" [
<!ATTLIST g
xmlns:kvg CDATA #FIXED "http://kanjivg.tagaini.net"
kvg:element CDATA #IMPLIED
kvg:variant CDATA #IMPLIED
kvg:partial CDATA #IMPLIED
kvg:original CDATA #IMPLIED
kvg:part CDATA #IMPLIED
kvg:number CDATA #IMPLIED
kvg:tradForm CDATA #IMPLIED
kvg:radicalForm CDATA #IMPLIED
kvg:position CDATA #IMPLIED
kvg:radical CDATA #IMPLIED
kvg:phon CDATA #IMPLIED >
<!ATTLIST path
xmlns:kvg CDATA #FIXED "http://kanjivg.tagaini.net"
kvg:type CDATA #IMPLIED >
]>
<svg xmlns="http://www.w3.org/2000/svg" width="109" height="109" viewBox="0 0 109 109">
<g id="kvg:StrokePaths_099f2" style="fill:none;stroke:#000000;stroke-width:3;stroke-linecap:round;stroke-linejoin:round;">
<g id="kvg:099f2" kvg:element="駲">
	<g id="kvg:099f2-g1" kvg:element="馬" kvg:position="left" kvg:radical="general">
		<path id="kvg:099f2-s1" kvg:type="㇑" d="M15.24,18.12c0.76,0.88,0.99,3.09,0.99,4.37c-0.06,9.61-0.29,35.62-0.97,38.27"/>
		<path id="kvg:099f2-s2" kvg:type="㇐b" d="M16.77,19.76c8.48-1.51,19.23-3.26,23.76-3.67c0.94-0.09,2.53-0.25,3-0.03"/>
		<path id="kvg:099f2-s3" kvg:type="㇑a" d="M28.81,18.32c0.25,0.38,0.96,0.88,0.95,1.49c-0.02,6.17-0.06,27.96-0.25,37.66"/>
		<path id="kvg:099f2-s4" kvg:type="㇐b" d="M16.66,32.59c6.26-0.58,16.75-2.6,19.44-2.99c0.94-0.14,2.53-0.24,3-0.02"/>
		<path id="kvg:099f2-s5" kvg:type="㇐b" d="M16.76,44.62c6.26-0.59,18.25-2.1,20.94-2.49c0.94-0.14,2.53-0.25,3-0.03"/>
		<path id="kvg:099f2-s6" kvg:type="㇆a" d="M15.49,59.65c6.26-0.9,21.04-2.54,24.43-3.13c4.33-0.76,4.19,2.81,3.95,6.45C43.2,73.31,41.46,84.3,38.25,91c-2.75,5.75-5.32,0.41-6.21-0.86"/>
		<g id="kvg:099f2-g2" kvg:element="灬" kvg:variant="true" kvg:original="火">
			<path id="kvg:099f2-s7" kvg:type="㇔" d="M13.04,72.75c0.37,6.53-1.25,12.27-1.64,13.57"/>
			<path id="kvg:099f2-s8" kvg:type="㇔" d="M18.77,70.45c1.4,2.55,3.08,5.76,3.4,10.3"/>
			<path id="kvg:099f2-s9" kvg:type="㇔" d="M25.9,68.48c0.72,1.14,3.3,4.91,3.62,8.64"/>
			<path id="kvg:099f2-s10" kvg:type="㇔" d="M32.88,66.75c1.34,1.84,3.55,3.75,4.03,6.2"/>
		</g>
	</g>
	<g id="kvg:099f2-g3" kvg:element="州" kvg:position="right">
		<g id="kvg:099f2-g4" kvg:element="丶">
			<path id="kvg:099f2-s11" kvg:type="㇔" d="M51.1,42c-0.01,5.29-1.51,9.07-3.29,13.38"/>
		</g>
		<g id="kvg:099f2-g5" kvg:element="川" kvg:part="1" kvg:variant="true" kvg:original="巛">
			<path id="kvg:099f2-s12" kvg:type="㇒" d="M55.91,18.93c1.59,1.32,1.62,3.13,1.62,5.34c0,21.73,1.98,55.23-13.97,68.72"/>
		</g>
		<g id="kvg:099f2-g6" kvg:element="丶">
			<path id="kvg:099f2-s13" kvg:type="㇔" d="M63.52,43.42c1.63,2.08,4.22,8.56,4.63,11.8"/>
		</g>
		<g id="kvg:099f2-g7" kvg:element="川" kvg:part="2" kvg:variant="true" kvg:original="巛">
			<path id="kvg:099f2-s14" kvg:type="㇑" d="M72.2,19.63c0.45,0.38,1.41,2.86,1.5,3.62c0.09,0.76-0.06,62.11-0.15,66.88"/>
		</g>
		<g id="kvg:099f2-g8" kvg:element="丶">
			<path id="kvg:099f2-s15" kvg:type="㇔" d="M79.76,43.17c1.9,1.95,4.9,8.02,5.38,11.05"/>
		</g>
		<g id="kvg:099f2-g9" kvg:element="川" kvg:variant="true" kvg:original="巛">
			<path id="kvg:099f2-s16" kvg:type="㇑" d="M88.94,13.13c0.68,0.4,2.12,3.01,2.26,3.81c0.14,0.8-0.09,74.66-0.22,79.69"/>
		</g>
	</g>
</g>
</g>
<g id="kvg:StrokeNumbers_099f2" style="font-size:8;fill:#808080">
	<text transform="matrix(1 0 0 1 8.85 24.85)">1</text>
	<text transform="matrix(1 0 0 1 16.66 16.85)">2</text>
	<text transform="matrix(1 0 0 1 32.50 24.50)">3</text>
	<text transform="matrix(1 0 0 1 20.34 29.50)">4</text>
	<text transform="matrix(1 0 0 1 20.50 42.50)">5</text>
	<text transform="matrix(1 0 0 1 20.38 56.50)">6</text>
	<text transform="matrix(1 0 0 1 7.63 74.50)">7</text>
	<text transform="matrix(1 0 0 1 15.50 76.50)">8</text>
	<text transform="matrix(1 0 0 1 22.50 75.50)">9</text>
	<text transform="matrix(1 0 0 1 27.50 71.50)">10</text>
	<text transform="matrix(1 0 0 1 45.50 38.50)">11</text>
	<text transform="matrix(1 0 0 1 49.50 16.50)">12</text>
	<text transform="matrix(1 0 0 1 60.50 39.50)">13</text>
	<text transform="matrix(1 0 0 1 66.25 16.50)">14</text>
	<text transform="matrix(1 0 0 1 77.25 40.50)">15</text>
	<text transform="matrix(1 0 0 1 81.50 10.50)">16</text>
</g>
</svg>
