<?xml version="1.0" encoding="UTF-8"?>
<!--
Copyright (C) 2009/2010/2011 Ulrich Apel.
This work is distributed under the conditions of the Creative Commons 
Attribution-Share Alike 3.0 Licence. This means you are free:
* to Share - to copy, distribute and transmit the work
* to Remix - to adapt the work

Under the following conditions:
* Attribution. You must attribute the work by stating your use of KanjiVG in
  your own copyright header and linking to KanjiVG's website
  (http://kanjivg.tagaini.net)
* Share Alike. If you alter, transform, or build upon this work, you may
  distribute the resulting work only under the same or similar license to this
  one.

See http://creativecommons.org/licenses/by-sa/3.0/ for more details.
-->
<!DOCTYPE svg PUBLIC "-//W3C//DTD SVG 1.0//EN" "http://www.w3.org/TR/2001/REC-SVG-20010904/DTD/svg10.dtd" [
<!ATTLIST g
xmlns:kvg CDATA #FIXED "http://kanjivg.tagaini.net"
kvg:element CDATA #IMPLIED
kvg:variant CDATA #IMPLIED
kvg:partial CDATA #IMPLIED
kvg:original CDATA #IMPLIED
kvg:part CDATA #IMPLIED
kvg:number CDATA #IMPLIED
kvg:tradForm CDATA #IMPLIED
kvg:radicalForm CDATA #IMPLIED
kvg:position CDATA #IMPLIED
kvg:radical CDATA #IMPLIED
kvg:phon CDATA #IMPLIED >
<!ATTLIST path
xmlns:kvg CDATA #FIXED "http://kanjivg.tagaini.net"
kvg:type CDATA #IMPLIED >
]>
<svg xmlns="http://www.w3.org/2000/svg" width="109" height="109" viewBox="0 0 109 109">
<g id="kvg:StrokePaths_09a57" style="fill:none;stroke:#000000;stroke-width:3;stroke-linecap:round;stroke-linejoin:round;">
<g id="kvg:09a57" kvg:element="驗">
	<g id="kvg:09a57-g1" kvg:element="馬" kvg:position="left" kvg:radical="general">
		<path id="kvg:09a57-s1" kvg:type="㇑" d="M15.24,16.12c1.26,0.88,0.99,3.1,0.99,4.39c-0.06,9.78-0.29,37.59-0.97,40.24"/>
		<path id="kvg:09a57-s2" kvg:type="㇐b" d="M17.02,18.12c8.73-1.12,22.09-2.89,24.49-3.17c0.95-0.11,2.55-0.2,3.03-0.02"/>
		<path id="kvg:09a57-s3" kvg:type="㇑a" d="M28.81,18.32c0.25,0.38,0.96,0.88,0.95,1.49c-0.02,6.17-0.06,27.96-0.25,37.66"/>
		<path id="kvg:09a57-s4" kvg:type="㇐b" d="M16.66,32.59c6.26-0.58,20.25-3.1,22.94-3.49c0.94-0.14,2.53-0.24,3-0.02"/>
		<path id="kvg:09a57-s5" kvg:type="㇐b" d="M16.76,45.12c6.26-0.59,20.25-2.6,22.94-2.99c0.94-0.14,2.53-0.25,3-0.03"/>
		<path id="kvg:09a57-s6" kvg:type="㇆a" d="M15.99,60.65c6.17-1.41,21.54-3.54,24.93-4.13c4.33-0.76,4.19,2.31,3.95,5.95C44.2,72.81,41.46,84.3,38.25,91c-2.75,5.75-5.32,0.41-6.21-0.86"/>
		<g id="kvg:09a57-g2" kvg:element="灬" kvg:variant="true" kvg:original="火">
			<path id="kvg:09a57-s7" kvg:type="㇔" d="M11.09,71c0.32,6.41-0.64,12.04-0.98,13.32"/>
			<path id="kvg:09a57-s8" kvg:type="㇔" d="M17.13,69.25c1.56,2.54,2.88,5.73,3.23,10.25"/>
			<path id="kvg:09a57-s9" kvg:type="㇔" d="M24.62,67.97c0.79,1.13,3.6,4.85,3.95,8.53"/>
			<path id="kvg:09a57-s10" kvg:type="㇔" d="M31.75,66.25c1.25,2.01,3.3,4.09,3.75,6.75"/>
		</g>
	</g>
	<g id="kvg:09a57-g3" kvg:element="僉" kvg:position="right">
		<g id="kvg:09a57-g4" kvg:element="人" kvg:position="top">
			<path id="kvg:09a57-s11" kvg:type="㇒" d="M69.87,12.75c0.06,0.81,0.28,2.18-0.12,3.28c-2.58,6.95-9.87,21.56-22.07,31.36"/>
			<path id="kvg:09a57-s12" kvg:type="㇏" d="M70.03,17.06c3.8,4.67,20.18,19.93,24.38,23.35c1.42,1.16,3.25,1.66,4.67,1.99"/>
		</g>
		<g id="kvg:09a57-g5" kvg:position="bottom">
			<g id="kvg:09a57-g6" kvg:element="一">
				<path id="kvg:09a57-s13" kvg:type="㇐" d="M58.96,41.36c0.62,0.18,1.75,0.19,2.36,0.18c4.74-0.05,16.22-2.51,20.03-2.3c1.03,0.06,1.65,0.09,2.16,0.18"/>
			</g>
			<g id="kvg:09a57-g7" kvg:element="口">
				<path id="kvg:09a57-s14" kvg:type="㇑" d="M52.33,52.35c0.22,0.24,0.44,0.44,0.54,0.75c0.76,2.4,2,9.01,2.52,13.31"/>
				<path id="kvg:09a57-s15" kvg:type="㇕b" d="M53.36,53.62c5.55-1.09,10.77-2.28,13.33-2.59c0.94-0.12,1.5,0.68,1.37,1.36c-0.56,2.8-1.71,6.89-2.53,10.76"/>
				<path id="kvg:09a57-s16" kvg:type="㇐b" d="M55.5,65.01c3.01-0.36,7.5-0.97,11.64-1.52"/>
			</g>
			<g id="kvg:09a57-g8" kvg:element="口">
				<path id="kvg:09a57-s17" kvg:type="㇑" d="M73.05,50.09c0.23,0.24,0.48,0.44,0.58,0.73c0.82,2.36,1.79,8.87,2.35,13.11"/>
				<path id="kvg:09a57-s18" kvg:type="㇕b" d="M74.51,51.31c4.91-0.9,10.66-1.44,13.41-1.75c1.01-0.11,1.61,0.67,1.46,1.34c-0.59,2.76-1.29,6.47-2.18,10.28"/>
				<path id="kvg:09a57-s19" kvg:type="㇐b" d="M76.08,63.02c3.23-0.35,8.69-0.96,13.13-1.49"/>
			</g>
			<g id="kvg:09a57-g9" kvg:element="人">
				<path id="kvg:09a57-s20" kvg:type="㇒" d="M60.35,69.57c0.16,1.08,0.1,2.12-0.11,2.82C58.36,78.51,54.07,86.62,46.39,94"/>
				<path id="kvg:09a57-s21" kvg:type="㇏" d="M59.21,78.09c3.04,1.48,6.93,5.42,8.41,9.15"/>
			</g>
			<g id="kvg:09a57-g10" kvg:element="人">
				<path id="kvg:09a57-s22" kvg:type="㇒" d="M82.09,67.39c0.17,1.19,0.11,2.33-0.12,3.1c-2.08,6.74-6.84,15.64-15.36,23.76"/>
				<path id="kvg:09a57-s23" kvg:type="㇏" d="M80.87,78.75c4.5,2.57,10.25,9.39,12.44,15.85"/>
			</g>
		</g>
	</g>
</g>
</g>
<g id="kvg:StrokeNumbers_09a57" style="font-size:8;fill:#808080">
	<text transform="matrix(1 0 0 1 9.50 25.50)">1</text>
	<text transform="matrix(1 0 0 1 18.50 14.50)">2</text>
	<text transform="matrix(1 0 0 1 33.50 24.85)">3</text>
	<text transform="matrix(1 0 0 1 20.34 28.50)">4</text>
	<text transform="matrix(1 0 0 1 20.50 41.50)">5</text>
	<text transform="matrix(1 0 0 1 20.38 56.50)">6</text>
	<text transform="matrix(1 0 0 1 5.13 73.35)">7</text>
	<text transform="matrix(1 0 0 1 14.10 76.60)">8</text>
	<text transform="matrix(1 0 0 1 20.34 73.85)">9</text>
	<text transform="matrix(1 0 0 1 24.94 69.85)">10</text>
	<text transform="matrix(1 0 0 1 59.50 13.50)">11</text>
	<text transform="matrix(1 0 0 1 75.50 21.50)">12</text>
	<text transform="matrix(1 0 0 1 64.50 37.50)">13</text>
	<text transform="matrix(1 0 0 1 44.50 57.50)">14</text>
	<text transform="matrix(1 0 0 1 56.25 50.58)">15</text>
	<text transform="matrix(1 0 0 1 57.25 61.50)">16</text>
	<text transform="matrix(1 0 0 1 76.25 48.50)">17</text>
	<text transform="matrix(1 0 0 1 68.50 62.50)">18</text>
	<text transform="matrix(1 0 0 1 78.25 59.50)">19</text>
	<text transform="matrix(1 0 0 1 49.50 74.50)">20</text>
	<text transform="matrix(1 0 0 1 64.25 79.50)">21</text>
	<text transform="matrix(1 0 0 1 72.50 71.13)">22</text>
	<text transform="matrix(1 0 0 1 85.50 80.50)">23</text>
</g>
</svg>
