<?xml version="1.0" encoding="UTF-8"?>
<!--
Copyright (C) 2009/2010/2011 Ulrich Apel.
This work is distributed under the conditions of the Creative Commons 
Attribution-Share Alike 3.0 Licence. This means you are free:
* to Share - to copy, distribute and transmit the work
* to Remix - to adapt the work

Under the following conditions:
* Attribution. You must attribute the work by stating your use of KanjiVG in
  your own copyright header and linking to KanjiVG's website
  (http://kanjivg.tagaini.net)
* Share Alike. If you alter, transform, or build upon this work, you may
  distribute the resulting work only under the same or similar license to this
  one.

See http://creativecommons.org/licenses/by-sa/3.0/ for more details.
-->
<!DOCTYPE svg PUBLIC "-//W3C//DTD SVG 1.0//EN" "http://www.w3.org/TR/2001/REC-SVG-20010904/DTD/svg10.dtd" [
<!ATTLIST g
xmlns:kvg CDATA #FIXED "http://kanjivg.tagaini.net"
kvg:element CDATA #IMPLIED
kvg:variant CDATA #IMPLIED
kvg:partial CDATA #IMPLIED
kvg:original CDATA #IMPLIED
kvg:part CDATA #IMPLIED
kvg:number CDATA #IMPLIED
kvg:tradForm CDATA #IMPLIED
kvg:radicalForm CDATA #IMPLIED
kvg:position CDATA #IMPLIED
kvg:radical CDATA #IMPLIED
kvg:phon CDATA #IMPLIED >
<!ATTLIST path
xmlns:kvg CDATA #FIXED "http://kanjivg.tagaini.net"
kvg:type CDATA #IMPLIED >
]>
<svg xmlns="http://www.w3.org/2000/svg" width="109" height="109" viewBox="0 0 109 109">
<g id="kvg:StrokePaths_09ae6" style="fill:none;stroke:#000000;stroke-width:3;stroke-linecap:round;stroke-linejoin:round;">
<g id="kvg:09ae6" kvg:element="髦">
	<g id="kvg:09ae6-g1" kvg:element="髟" kvg:position="top" kvg:radical="general">
		<g id="kvg:09ae6-g2" kvg:element="長" kvg:variant="true" kvg:position="left">
			<path id="kvg:09ae6-s1" kvg:type="㇑a" d="M23.5,11.56c1.39,1.02,1.39,1.19,1.39,2.21s0.46,20.07,0.46,21.6"/>
			<path id="kvg:09ae6-s2" kvg:type="㇐b" d="M25.94,13.08C32,12.75,40.5,11,46.6,10.28c1.44-0.17,2.32,0.12,3.05,0.25"/>
			<path id="kvg:09ae6-s3" kvg:type="㇐b" d="M25.52,20.39c4.22-0.36,14.11-2.16,17.52-2.52c1.28-0.13,2.58-0.09,3.57,0.12"/>
			<path id="kvg:09ae6-s4" kvg:type="㇐b" d="M25.78,27.88c4.22-0.36,14.61-2.16,18.02-2.52c1.28-0.13,2.58-0.09,3.57,0.12"/>
			<path id="kvg:09ae6-s5" kvg:type="㇐" d="M12.88,36.13c1.06,0.28,3.03,0.42,4.08,0.28c12.5-1.65,19.37-2.16,34.04-3.85c1.76-0.2,2.84,0.13,3.73,0.27"/>
			<g id="kvg:09ae6-g3" kvg:element="厶">
				<path id="kvg:09ae6-s6" kvg:type="㇜" d="M27.23,38.12c0.07,0.51-0.35,1.25-0.59,1.51c-3.2,3.45-4.12,4.53-8.54,8.38c-1.1,0.97-0.53,2.57,1.36,2.09c7.29-1.85,17.29-4.35,25.59-6.75"/>
				<path id="kvg:09ae6-s7" kvg:type="㇔" d="M39.84,38.98c3.17,1.92,8.2,7.87,8.99,10.85"/>
			</g>
		</g>
		<g id="kvg:09ae6-g4" kvg:element="彡" kvg:position="right">
			<g id="kvg:09ae6-g5" kvg:element="丿">
				<path id="kvg:09ae6-s8" kvg:type="㇒" d="M82.48,9c0.07,0.35,0.29,0.97-0.14,1.43c-3.29,3.5-10.61,8.58-23.78,13.14"/>
			</g>
			<g id="kvg:09ae6-g6" kvg:element="丿">
				<path id="kvg:09ae6-s9" kvg:type="㇒" d="M88.1,19.28c0.08,0.39,0.38,1.09-0.16,1.57c-3.99,3.57-13.43,10.47-27.62,15.01"/>
			</g>
			<g id="kvg:09ae6-g7" kvg:element="丿">
				<path id="kvg:09ae6-s10" kvg:type="㇒" d="M93.32,29.79c0.09,0.46,0.33,1.21-0.17,1.82C89.67,35.81,78.74,43.85,61.93,49"/>
			</g>
		</g>
	</g>
	<g id="kvg:09ae6-g8" kvg:element="毛" kvg:position="bottom">
		<path id="kvg:09ae6-s11" kvg:type="㇒" d="M75.78,48.25c0.13,0.39,0.27,1-0.26,1.55c-3.14,3.28-20.02,10.47-44.71,14.87"/>
		<path id="kvg:09ae6-s12" kvg:type="㇐" d="M23.63,71.89c1.16,0.57,3.28,0.65,4.44,0.57c14.9-1.01,39.67-5.71,53.54-6.49c1.93-0.11,3.09,0.27,4.06,0.55"/>
		<path id="kvg:09ae6-s13" kvg:type="㇐" d="M15.13,84.74c1.3,0.34,3.69,0.47,4.99,0.34c16.63-1.58,52.38-6.58,70.85-8.34c2.16-0.21,3.78-0.24,5.95,0.39"/>
		<path id="kvg:09ae6-s14" kvg:type="㇟" d="M53.58,60.27c0.49,0.65,0.88,1.41,0.9,2.41c0.13,4.46,0.02,24.13,0.02,26.87c0,8.58,2.25,10.01,20.47,10.01c18.03,0,18.53-2.31,18.53-8.92"/>
	</g>
</g>
</g>
<g id="kvg:StrokeNumbers_09ae6" style="font-size:8;fill:#808080">
	<text transform="matrix(1 0 0 1 18.50 21.50)">1</text>
	<text transform="matrix(1 0 0 1 25.50 9.50)">2</text>
	<text transform="matrix(1 0 0 1 30.50 18.50)">3</text>
	<text transform="matrix(1 0 0 1 30.50 25.50)">4</text>
	<text transform="matrix(1 0 0 1 5.50 37.50)">5</text>
	<text transform="matrix(1 0 0 1 14.50 45.50)">6</text>
	<text transform="matrix(1 0 0 1 44.50 41.50)">7</text>
	<text transform="matrix(1 0 0 1 74.60 9.50)">8</text>
	<text transform="matrix(1 0 0 1 79.50 20.50)">9</text>
	<text transform="matrix(1 0 0 1 81.50 33.50)">10</text>
	<text transform="matrix(1 0 0 1 51.50 55.50)">11</text>
	<text transform="matrix(1 0 0 1 13.50 73.50)">12</text>
	<text transform="matrix(1 0 0 1 4.50 85.50)">13</text>
	<text transform="matrix(1 0 0 1 44.50 67.50)">14</text>
</g>
</svg>
