<?xml version="1.0" encoding="UTF-8"?>
<!--
Copyright (C) 2009/2010/2011 Ulrich Apel.
This work is distributed under the conditions of the Creative Commons 
Attribution-Share Alike 3.0 Licence. This means you are free:
* to Share - to copy, distribute and transmit the work
* to Remix - to adapt the work

Under the following conditions:
* Attribution. You must attribute the work by stating your use of KanjiVG in
  your own copyright header and linking to KanjiVG's website
  (http://kanjivg.tagaini.net)
* Share Alike. If you alter, transform, or build upon this work, you may
  distribute the resulting work only under the same or similar license to this
  one.

See http://creativecommons.org/licenses/by-sa/3.0/ for more details.
-->
<!DOCTYPE svg PUBLIC "-//W3C//DTD SVG 1.0//EN" "http://www.w3.org/TR/2001/REC-SVG-20010904/DTD/svg10.dtd" [
<!ATTLIST g
xmlns:kvg CDATA #FIXED "http://kanjivg.tagaini.net"
kvg:element CDATA #IMPLIED
kvg:variant CDATA #IMPLIED
kvg:partial CDATA #IMPLIED
kvg:original CDATA #IMPLIED
kvg:part CDATA #IMPLIED
kvg:number CDATA #IMPLIED
kvg:tradForm CDATA #IMPLIED
kvg:radicalForm CDATA #IMPLIED
kvg:position CDATA #IMPLIED
kvg:radical CDATA #IMPLIED
kvg:phon CDATA #IMPLIED >
<!ATTLIST path
xmlns:kvg CDATA #FIXED "http://kanjivg.tagaini.net"
kvg:type CDATA #IMPLIED >
]>
<svg xmlns="http://www.w3.org/2000/svg" width="109" height="109" viewBox="0 0 109 109">
<g id="kvg:StrokePaths_09af7-Kaisho" style="fill:none;stroke:#000000;stroke-width:3;stroke-linecap:round;stroke-linejoin:round;">
<g id="kvg:09af7-Kaisho" kvg:element="髷">
	<g id="kvg:09af7-Kaisho-g1" kvg:element="髟" kvg:position="top" kvg:radical="general">
		<g id="kvg:09af7-Kaisho-g2" kvg:element="長" kvg:variant="true" kvg:position="left">
			<path id="kvg:09af7-Kaisho-s1" kvg:type="㇑a" d="M25.5,14.06c1.39,1.02,1.39,1.19,1.39,2.21s0.46,19.57,0.46,21.1"/>
			<path id="kvg:09af7-Kaisho-s2" kvg:type="㇐b" d="M27.44,16.08c5.81-1.33,13.31-2.08,19.17-3.3c1.42-0.3,2.32,0.12,3.05,0.25"/>
			<path id="kvg:09af7-Kaisho-s3" kvg:type="㇐b" d="M27.52,23.39c4.22-0.36,13.11-1.66,16.52-2.02c1.28-0.13,2.58-0.09,3.57,0.12"/>
			<path id="kvg:09af7-Kaisho-s4" kvg:type="㇐b" d="M27.78,29.88c4.22-0.36,14.11-1.66,17.52-2.02c1.28-0.13,2.58-0.09,3.57,0.12"/>
			<path id="kvg:09af7-Kaisho-s5" kvg:type="㇐" d="M11.88,39.47c0.94,0.26,2.67,0.3,3.61,0.26c9.81-0.43,24.3-4.65,37.69-4.99c1.57-0.04,2.51,0.12,3.3,0.25"/>
			<g id="kvg:09af7-Kaisho-g3" kvg:element="厶">
				<path id="kvg:09af7-Kaisho-s6" kvg:type="㇜" d="M30.73,40.12c0.07,0.51-0.35,1.25-0.59,1.51c-3.2,3.45-3.12,5.03-7.54,8.88c-1.1,0.97-0.53,2.57,1.36,2.09c7.29-1.85,15.29-3.85,23.59-6.25"/>
				<path id="kvg:09af7-Kaisho-s7" kvg:type="㇔" d="M43.34,41.48c2.64,1.74,6.83,7.15,7.49,9.85"/>
			</g>
		</g>
		<g id="kvg:09af7-Kaisho-g4" kvg:element="彡" kvg:position="right">
			<g id="kvg:09af7-Kaisho-g5" kvg:element="丿">
				<path id="kvg:09af7-Kaisho-s8" kvg:type="㇒" d="M81.49,11c0.06,0.28,0.25,0.77-0.12,1.13c-2.81,2.78-9.06,6.81-20.32,10.43"/>
			</g>
			<g id="kvg:09af7-Kaisho-g6" kvg:element="丿">
				<path id="kvg:09af7-Kaisho-s9" kvg:type="㇒" d="M85.13,23.28c0.07,0.28,0.31,0.8-0.13,1.14c-3.28,2.6-11.03,7.63-22.67,10.94"/>
			</g>
			<g id="kvg:09af7-Kaisho-g7" kvg:element="丿">
				<path id="kvg:09af7-Kaisho-s10" kvg:type="㇒" d="M89.09,35.79c0.08,0.31,0.29,0.83-0.15,1.25C85.9,39.93,76.35,45.46,61.68,49"/>
			</g>
		</g>
	</g>
	<g id="kvg:09af7-Kaisho-g8" kvg:element="曲" kvg:position="bottom">
		<g id="kvg:09af7-Kaisho-g9" kvg:element="日" kvg:part="1">
			<path id="kvg:09af7-Kaisho-s11" kvg:type="㇑" d="M25.55,66.01c0.43,0.71,1.24,2.56,1.37,3.5c0.33,2.49,3.64,26.81,3.78,27.75"/>
			<path id="kvg:09af7-Kaisho-s12" kvg:type="㇕" d="M27.14,67.33c3.99-0.44,52.15-5.05,55.67-5.18c3.57-0.13,4.5,1.92,4.11,4.35c-0.76,4.78-1.7,13.79-4.97,27.22"/>
		</g>
		<g id="kvg:09af7-Kaisho-g10" kvg:element="廾">
			<g id="kvg:09af7-Kaisho-g11" kvg:element="十" kvg:part="1">
				<path id="kvg:09af7-Kaisho-s13" kvg:type="㇐" d="M43.65,54.53c1.25,0.64,2.73,2.84,2.86,4.13c1.6,15.84,1.24,22.84,2.11,33.28"/>
			</g>
			<g id="kvg:09af7-Kaisho-g12" kvg:element="丿" kvg:variant="true">
				<path id="kvg:09af7-Kaisho-s14" kvg:type="㇑" d="M64.29,53.23c1.25,0.63,1.75,2.84,1.63,4.13c-1.16,12.32-1.02,26.54-1.94,33.72"/>
			</g>
			<g id="kvg:09af7-Kaisho-g13" kvg:element="十" kvg:part="2">
				<path id="kvg:09af7-Kaisho-s15" kvg:type="㇑" d="M30.13,79.47c12.69-1.2,25.4-2.16,38.11-3.13c1.44-0.11,2.84-0.22,4.18-0.32"/>
			</g>
		</g>
		<g id="kvg:09af7-Kaisho-g14" kvg:element="日" kvg:part="2">
			<path id="kvg:09af7-Kaisho-s16" kvg:type="㇐" d="M31.7,93.89c6.74-0.46,41.73-3.21,50.13-3.6"/>
		</g>
	</g>
</g>
</g>
<g id="kvg:StrokeNumbers_09af7-Kaisho" style="font-size:8;fill:#808080">
	<text transform="matrix(1 0 0 1 20.50 23.50)">1</text>
	<text transform="matrix(1 0 0 1 28.50 12.50)">2</text>
	<text transform="matrix(1 0 0 1 31.65 21.50)">3</text>
	<text transform="matrix(1 0 0 1 31.50 28.50)">4</text>
	<text transform="matrix(1 0 0 1 4.50 40.50)">5</text>
	<text transform="matrix(1 0 0 1 18.50 47.50)">6</text>
	<text transform="matrix(1 0 0 1 36.50 44.50)">7</text>
	<text transform="matrix(1 0 0 1 73.50 11.85)">8</text>
	<text transform="matrix(1 0 0 1 76.50 24.50)">9</text>
	<text transform="matrix(1 0 0 1 77.50 37.50)">10</text>
	<text transform="matrix(1 0 0 1 16.50 72.50)">11</text>
	<text transform="matrix(1 0 0 1 27.50 63.50)">12</text>
	<text transform="matrix(1 0 0 1 33.50 57.50)">13</text>
	<text transform="matrix(1 0 0 1 53.50 56.50)">14</text>
	<text transform="matrix(1 0 0 1 33.50 75.50)">15</text>
	<text transform="matrix(1 0 0 1 34.50 90.50)">16</text>
</g>
</svg>
