<?xml version="1.0" encoding="UTF-8"?>
<!--
Copyright (C) 2009/2010/2011 Ulrich Apel.
This work is distributed under the conditions of the Creative Commons 
Attribution-Share Alike 3.0 Licence. This means you are free:
* to Share - to copy, distribute and transmit the work
* to Remix - to adapt the work

Under the following conditions:
* Attribution. You must attribute the work by stating your use of KanjiVG in
  your own copyright header and linking to KanjiVG's website
  (http://kanjivg.tagaini.net)
* Share Alike. If you alter, transform, or build upon this work, you may
  distribute the resulting work only under the same or similar license to this
  one.

See http://creativecommons.org/licenses/by-sa/3.0/ for more details.
-->
<!DOCTYPE svg PUBLIC "-//W3C//DTD SVG 1.0//EN" "http://www.w3.org/TR/2001/REC-SVG-20010904/DTD/svg10.dtd" [
<!ATTLIST g
xmlns:kvg CDATA #FIXED "http://kanjivg.tagaini.net"
kvg:element CDATA #IMPLIED
kvg:variant CDATA #IMPLIED
kvg:partial CDATA #IMPLIED
kvg:original CDATA #IMPLIED
kvg:part CDATA #IMPLIED
kvg:number CDATA #IMPLIED
kvg:tradForm CDATA #IMPLIED
kvg:radicalForm CDATA #IMPLIED
kvg:position CDATA #IMPLIED
kvg:radical CDATA #IMPLIED
kvg:phon CDATA #IMPLIED >
<!ATTLIST path
xmlns:kvg CDATA #FIXED "http://kanjivg.tagaini.net"
kvg:type CDATA #IMPLIED >
]>
<svg xmlns="http://www.w3.org/2000/svg" width="109" height="109" viewBox="0 0 109 109">
<g id="kvg:StrokePaths_09b2f" style="fill:none;stroke:#000000;stroke-width:3;stroke-linecap:round;stroke-linejoin:round;">
<g id="kvg:09b2f" kvg:element="鬯" kvg:radical="general">
	<g id="kvg:09b2f-g1" kvg:position="top">
		<path id="kvg:09b2f-s1" kvg:type="㇒" d="M70.2,12.39c0.11,0.77,0.23,2-0.21,3.11c-2.62,6.55-17.63,20.92-38.18,29.72"/>
		<path id="kvg:09b2f-s2" kvg:type="㇔" d="M34.27,18.33c13.25,5.01,34.23,20.59,37.54,28.38"/>
		<path id="kvg:09b2f-s3" kvg:type="㇔" d="M46.77,11.08c3.54,1.74,9.16,7.17,10.04,9.88"/>
		<path id="kvg:09b2f-s4" kvg:type="㇔" d="M29.52,26.33c3.54,1.74,9.16,7.17,10.04,9.88"/>
		<path id="kvg:09b2f-s5" kvg:type="㇔" d="M68.27,27.58c3.54,1.74,9.16,7.17,10.04,9.88"/>
		<path id="kvg:09b2f-s6" kvg:type="㇔" d="M50.77,41.33c2.93,1.21,7.56,4.99,8.29,6.88"/>
		<g id="kvg:09b2f-g2" kvg:element="凵">
			<path id="kvg:09b2f-s7" kvg:type="㇄a" d="M21.96,17.55c0.65,0.39,1.74,1.83,1.74,3.67c0,0.78,1.35,28.3,1.28,30.13c-0.06,1.83,0.58,3.12,2.72,2.93c11.87-1.09,46.92-2.8,53.72-3.19"/>
			<path id="kvg:09b2f-s8" kvg:type="㇑" d="M82.75,11.38c1.24,0.53,2.17,1.61,2.17,3.67c0,4.13-1.42,20.7-2.92,39.2"/>
		</g>
	</g>
	<g id="kvg:09b2f-g3" kvg:element="匕" kvg:position="bottom">
		<path id="kvg:09b2f-s9" kvg:type="㇒" d="M74.89,59.56c0.35,0.35,0.57,1.36-0.33,1.9c-5.85,3.46-25.91,13-44.81,16.54"/>
		<path id="kvg:09b2f-s10" kvg:type="㇟" d="M27,61.25c1.24,1.09,1.32,1.81,1.73,3.26c0.41,1.45-0.09,17.37-0.09,21.91c0,11.66,16.56,9.84,30.66,9.84c10.93,0,20.05-0.62,24.17-3.88s3.62-7.05,4.03-10.31"/>
	</g>
</g>
</g>
<g id="kvg:StrokeNumbers_09b2f" style="font-size:8;fill:#808080">
	<text transform="matrix(1 0 0 1 63.50 12.50)">1</text>
	<text transform="matrix(1 0 0 1 32.50 16.63)">2</text>
	<text transform="matrix(1 0 0 1 43.50 8.50)">3</text>
	<text transform="matrix(1 0 0 1 27.75 24.13)">4</text>
	<text transform="matrix(1 0 0 1 70.50 26.50)">5</text>
	<text transform="matrix(1 0 0 1 44.50 47.50)">6</text>
	<text transform="matrix(1 0 0 1 13.50 19.50)">7</text>
	<text transform="matrix(1 0 0 1 77.50 9.50)">8</text>
	<text transform="matrix(1 0 0 1 20.25 67.50)">9</text>
	<text transform="matrix(1 0 0 1 61.50 61.50)">10</text>
</g>
</svg>
