<?xml version="1.0" encoding="UTF-8"?>
<!--
Copyright (C) 2009/2010/2011 Ulrich Apel.
This work is distributed under the conditions of the Creative Commons 
Attribution-Share Alike 3.0 Licence. This means you are free:
* to Share - to copy, distribute and transmit the work
* to Remix - to adapt the work

Under the following conditions:
* Attribution. You must attribute the work by stating your use of KanjiVG in
  your own copyright header and linking to KanjiVG's website
  (http://kanjivg.tagaini.net)
* Share Alike. If you alter, transform, or build upon this work, you may
  distribute the resulting work only under the same or similar license to this
  one.

See http://creativecommons.org/licenses/by-sa/3.0/ for more details.
-->
<!DOCTYPE svg PUBLIC "-//W3C//DTD SVG 1.0//EN" "http://www.w3.org/TR/2001/REC-SVG-20010904/DTD/svg10.dtd" [
<!ATTLIST g
xmlns:kvg CDATA #FIXED "http://kanjivg.tagaini.net"
kvg:element CDATA #IMPLIED
kvg:variant CDATA #IMPLIED
kvg:partial CDATA #IMPLIED
kvg:original CDATA #IMPLIED
kvg:part CDATA #IMPLIED
kvg:number CDATA #IMPLIED
kvg:tradForm CDATA #IMPLIED
kvg:radicalForm CDATA #IMPLIED
kvg:position CDATA #IMPLIED
kvg:radical CDATA #IMPLIED
kvg:phon CDATA #IMPLIED >
<!ATTLIST path
xmlns:kvg CDATA #FIXED "http://kanjivg.tagaini.net"
kvg:type CDATA #IMPLIED >
]>
<svg xmlns="http://www.w3.org/2000/svg" width="109" height="109" viewBox="0 0 109 109">
<g id="kvg:StrokePaths_09b2e" style="fill:none;stroke:#000000;stroke-width:3;stroke-linecap:round;stroke-linejoin:round;">
<g id="kvg:09b2e" kvg:element="鬮">
	<g id="kvg:09b2e-g1" kvg:element="鬥" kvg:position="kamae" kvg:radical="general">
		<g id="kvg:09b2e-g2" kvg:position="left">
			<path id="kvg:09b2e-s1" kvg:type="㇑" d="M15.87,15.75c1.09,0.5,1.74,2.25,1.96,3.25c0.22,1,0,72.75-0.22,79"/>
			<g id="kvg:09b2e-g3" kvg:element="王" kvg:original="玉" kvg:partial="true">
				<path id="kvg:09b2e-s2" kvg:type="㇐" d="M23.97,16.82c0.46,0.23,1.96,0.06,2.43,0.01c5.11-0.55,14.95-1.64,20.18-1.88c0.71-0.03,1.36,0.05,1.95,0.24"/>
				<path id="kvg:09b2e-s3" kvg:type="㇑a" d="M35.11,16.71c0.93,1.05,0.93,1.68,0.93,2.52c0,2.75,0.49,8.84,0.49,14.7"/>
				<path id="kvg:09b2e-s4" kvg:type="㇐" d="M24.47,26.22c0.43,0.21,1.82,0.06,2.26,0.01c4.74-0.51,13.89-1.53,18.74-1.75c0.66-0.03,1.26,0.04,1.81,0.22"/>
				<path id="kvg:09b2e-s5" kvg:type="㇐" d="M22.97,35.4c0.52,0.26,2.2,0.07,2.73,0.02c5.73-0.62,16.78-1.85,22.65-2.11c0.8-0.04,1.53,0.05,2.19,0.26"/>
			</g>
		</g>
		<g id="kvg:09b2e-g4" kvg:position="right">
			<g id="kvg:09b2e-g5" kvg:element="王" kvg:original="玉" kvg:partial="true">
				<path id="kvg:09b2e-s6" kvg:type="㇐" d="M57.75,15.52c0.47,0.25,2.02,0.07,2.5,0.02c5.24-0.61,16.36-1.82,21.73-2.09c0.73-0.04,1.4,0.05,2,0.26"/>
				<path id="kvg:09b2e-s7" kvg:type="㇑a" d="M70.19,15.4c0.96,1.16,0.96,1.86,0.96,2.8c0,6.52,0.5,8.8,0.5,13.8"/>
				<path id="kvg:09b2e-s8" kvg:type="㇐" d="M59.26,24.45c0.44,0.24,1.87,0.07,2.32,0.02c4.87-0.57,14.27-2.19,19.25-2.44c0.68-0.03,1.3,0.05,1.86,0.24"/>
				<path id="kvg:09b2e-s9" kvg:type="㇐" d="M57.72,33.64c0.53,0.29,2.26,0.08,2.8,0.02c5.89-0.68,17.24-2.05,23.26-2.34c0.82-0.04,1.57,0.06,2.25,0.29"/>
			</g>
			<path id="kvg:09b2e-s10" kvg:type="㇚" d="M90.27,12.33c0.98,0.92,1.76,1.99,1.76,5.02c0,19.9,0.24,70.16,0.24,75.12c0,10.39-7.21,1.5-8.71,0.25"/>
		</g>
	</g>
	<g id="kvg:09b2e-g6" kvg:element="龜">
		<g id="kvg:09b2e-g7" kvg:element="𠂊" kvg:variant="true" kvg:original="勹">
			<path id="kvg:09b2e-s11" kvg:type="㇒" d="M43.63,35.75c0.05,0.32,0.1,0.84-0.09,1.3C42.4,39.8,35.9,45.82,26.98,49.5"/>
			<path id="kvg:09b2e-s12" kvg:type="㇇" d="M41.46,40.47c3.44-0.2,10.47-0.71,13.6-1.88c2.4-0.9,3.48,0.19,1.67,2.27c-1.6,1.84-3.08,3.35-5.97,6.79"/>
		</g>
		<path id="kvg:09b2e-s13" kvg:type="㇑" d="M33.21,48.81c0.45,0.45,0.52,0.74,0.71,1.32c0.67,2.02,1.12,5.15,1.44,7.94"/>
		<path id="kvg:09b2e-s14" kvg:type="㇕" d="M35.11,48.85c6.25-0.92,34.66-3.77,38.63-4.39c1.46-0.23,2.34,0.6,2.13,1.38c-0.85,3.19-1.36,3.92-1.96,6.16"/>
		<path id="kvg:09b2e-s15" kvg:type="㇐" d="M35.29,56.73c1.87,0,11.54-1.12,13.07-1.12"/>
		<path id="kvg:09b2e-s16" kvg:type="㇐" d="M59.07,54.7c3.4-0.32,13.91-1.53,15.95-1.53"/>
		<path id="kvg:09b2e-s17" kvg:type="㇟" d="M48.94,48.47c0,8.01-0.02,37.24-0.02,40.82c0,7.7,2.5,9.2,14.91,9.2s14.72-0.5,14.72-7.66"/>
		<path id="kvg:09b2e-s18" kvg:type="㇑" d="M57.96,47.8c0.15,0.64,0,41.3-0.15,45.32"/>
		<g id="kvg:09b2e-g8" kvg:element="⺕" kvg:variant="true" kvg:original="彑">
			<path id="kvg:09b2e-s19" kvg:type="㇕" d="M28.39,62.47c1.13,0.42,1.28,0.75,2.28,0.58c4.1-0.7,5.91-1.25,10.86-1.79c0.83-0.09,1.69,0.91,1.47,2.01c-0.58,2.88-0.99,3.92-1.76,8.87"/>
			<path id="kvg:09b2e-s20" kvg:type="㇕" d="M25.32,67.72c1.13,0.42,1.27,0.65,2.28,0.58c6.16-0.44,41.86-5.41,46.69-5.41c1.43,0,2.17,1.25,2.2,2.37c0.08,3.42-1.35,15.87-2.12,20.81"/>
			<path id="kvg:09b2e-s21" kvg:type="㇐" d="M28.69,74.66c0.55,0.07,1.55,0.29,2.2,0.2c7.68-1.01,10.8-1.73,11.46-1.66"/>
		</g>
		<g id="kvg:09b2e-g9" kvg:element="⺕" kvg:variant="true" kvg:original="彑">
			<path id="kvg:09b2e-s22" kvg:type="㇕" d="M27.67,80.57c1.1,0.11,1.63,0.35,2.64,0.22c4.1-0.52,7.17-1.61,11.23-2.15c1.42-0.19,1.69,0.55,1.47,1.65c-0.58,2.88-0.99,7.54-1.76,12.49"/>
			<path id="kvg:09b2e-s23" kvg:type="㇐" d="M24.75,86.83c0.97,0.31,2.49,0.68,3.58,0.58c9.56-0.88,37.2-3.35,46.45-4.2"/>
			<path id="kvg:09b2e-s24" kvg:type="㇐c" d="M27.6,93.92c0.55,0.07,1.54,0.24,2.2,0.2c4.6-0.29,10.39-0.83,12.63-1.01"/>
		</g>
		<path id="kvg:09b2e-s25" kvg:type="㇒" d="M69.71,66.62c0.02,0.33,0.05,0.84-0.05,1.31c-0.58,2.76-3.89,8.8-8.43,12.5"/>
		<path id="kvg:09b2e-s26" kvg:type="㇔" d="M61.74,70.19c3.08,1.68,7.95,6.9,8.72,9.51"/>
	</g>
</g>
</g>
<g id="kvg:StrokeNumbers_09b2e" style="font-size:8;fill:#808080">
	<text transform="matrix(1 0 0 1 11.00 26.50)">1</text>
	<text transform="matrix(1 0 0 1 23.50 14.00)">2</text>
	<text transform="matrix(1 0 0 1 29.50 24.50)">3</text>
	<text transform="matrix(1 0 0 1 21.50 24.50)">4</text>
	<text transform="matrix(1 0 0 1 22.50 33.50)">5</text>
	<text transform="matrix(1 0 0 1 55.50 12.50)">6</text>
	<text transform="matrix(1 0 0 1 65.50 22.50)">7</text>
	<text transform="matrix(1 0 0 1 53.00 25.00)">8</text>
	<text transform="matrix(1 0 0 1 55.50 31.00)">9</text>
	<text transform="matrix(1 0 0 1 84.50 8.50)">10</text>
	<text transform="matrix(1 0 0 1 30.50 42.50)">11</text>
	<text transform="matrix(1 0 0 1 50.50 37.80)">12</text>
	<text transform="matrix(1 0 0 1 24.25 56.03)">13</text>
	<text transform="matrix(1 0 0 1 41.50 45.70)">14</text>
	<text transform="matrix(1 0 0 1 35.00 55.12)">15</text>
	<text transform="matrix(1 0 0 1 60.50 52.30)">16</text>
	<text transform="matrix(1 0 0 1 41.00 54.50)">17</text>
	<text transform="matrix(1 0 0 1 50.50 53.50)">18</text>
	<text transform="matrix(1 0 0 1 20.25 63.58)">19</text>
	<text transform="matrix(1 0 0 1 19.50 70.75)">20</text>
	<text transform="matrix(1 0 0 1 20.50 76.50)">21</text>
	<text transform="matrix(1 0 0 1 20.25 82.13)">22</text>
	<text transform="matrix(1 0 0 1 19.50 88.63)">23</text>
	<text transform="matrix(1 0 0 1 20.00 95.63)">24</text>
	<text transform="matrix(1 0 0 1 62.00 69.38)">25</text>
	<text transform="matrix(1 0 0 1 59.25 77.38)">26</text>
</g>
</svg>
