<?xml version="1.0" encoding="UTF-8"?>
<!--
Copyright (C) 2009/2010/2011 Ulrich Apel.
This work is distributed under the conditions of the Creative Commons 
Attribution-Share Alike 3.0 Licence. This means you are free:
* to Share - to copy, distribute and transmit the work
* to Remix - to adapt the work

Under the following conditions:
* Attribution. You must attribute the work by stating your use of KanjiVG in
  your own copyright header and linking to KanjiVG's website
  (http://kanjivg.tagaini.net)
* Share Alike. If you alter, transform, or build upon this work, you may
  distribute the resulting work only under the same or similar license to this
  one.

See http://creativecommons.org/licenses/by-sa/3.0/ for more details.
-->
<!DOCTYPE svg PUBLIC "-//W3C//DTD SVG 1.0//EN" "http://www.w3.org/TR/2001/REC-SVG-20010904/DTD/svg10.dtd" [
<!ATTLIST g
xmlns:kvg CDATA #FIXED "http://kanjivg.tagaini.net"
kvg:element CDATA #IMPLIED
kvg:variant CDATA #IMPLIED
kvg:partial CDATA #IMPLIED
kvg:original CDATA #IMPLIED
kvg:part CDATA #IMPLIED
kvg:number CDATA #IMPLIED
kvg:tradForm CDATA #IMPLIED
kvg:radicalForm CDATA #IMPLIED
kvg:position CDATA #IMPLIED
kvg:radical CDATA #IMPLIED
kvg:phon CDATA #IMPLIED >
<!ATTLIST path
xmlns:kvg CDATA #FIXED "http://kanjivg.tagaini.net"
kvg:type CDATA #IMPLIED >
]>
<svg xmlns="http://www.w3.org/2000/svg" width="109" height="109" viewBox="0 0 109 109">
<g id="kvg:StrokePaths_09b9f-Kaisho" style="fill:none;stroke:#000000;stroke-width:3;stroke-linecap:round;stroke-linejoin:round;">
<g id="kvg:09b9f-Kaisho" kvg:element="鮟">
	<g id="kvg:09b9f-Kaisho-g1" kvg:element="魚" kvg:position="left" kvg:radical="general">
		<g id="kvg:09b9f-Kaisho-g2" kvg:element="𠂊" kvg:variant="true" kvg:original="勹" kvg:position="top">
			<path id="kvg:09b9f-Kaisho-s1" kvg:type="㇒" d="M26.49,13.25c0.04,0.56,0.19,1.48-0.08,2.26C24,22.25,19.5,31.5,11.24,38.62"/>
			<path id="kvg:09b9f-Kaisho-s2" kvg:type="㇇" d="M23.89,22.38c1.93,0,13.82-2.94,15.85-3.23c1.74-0.25,2.63,1.67,1.91,2.9c-3.05,5.19-5.98,11.16-10.95,19.4"/>
		</g>
		<g id="kvg:09b9f-Kaisho-g3" kvg:position="bottom">
			<g id="kvg:09b9f-Kaisho-g4" kvg:element="田">
				<path id="kvg:09b9f-Kaisho-s3" kvg:type="㇑" d="M14.22,44.45c0.22,0.46,0.22,0.78,0.35,1.37c0.99,4.8,2.55,17.42,3.16,26.37"/>
				<path id="kvg:09b9f-Kaisho-s4" kvg:type="㇕a" d="M15.25,46.11c7.68-1.21,21.32-4.28,27.06-5.29c2.1-0.37,3.18,0.94,3.08,2.26c-0.4,4.84-1.74,17.54-3.42,26.6"/>
				<path id="kvg:09b9f-Kaisho-s5" kvg:type="㇑a" d="M28.6,43.78c0.87,0.6,1.54,2.55,1.56,4.1c0.12,6.84,0.02,16.53,0.02,19.92"/>
				<path id="kvg:09b9f-Kaisho-s6" kvg:type="㇐a" d="M17.17,57.5c5.93-1.11,11.93-1.94,17.89-2.86c0.72-0.11,1.91-0.22,2.58-0.32"/>
				<path id="kvg:09b9f-Kaisho-s7" kvg:type="㇐a" d="M18.12,69.87c5.53-0.52,16.56-2.67,24.19-3.51"/>
			</g>
			<g id="kvg:09b9f-Kaisho-g5" kvg:element="灬" kvg:variant="true" kvg:original="火">
				<path id="kvg:09b9f-Kaisho-s8" kvg:type="㇔" d="M15.64,81.07c0,5.59-1.89,12.68-3.72,14.93"/>
				<path id="kvg:09b9f-Kaisho-s9" kvg:type="㇔" d="M24.01,80.58c1.19,2.5,2.32,9.4,2.62,13.29"/>
				<path id="kvg:09b9f-Kaisho-s10" kvg:type="㇔" d="M31.88,78.44c2.05,2.15,5.3,8.86,5.81,12.21"/>
				<path id="kvg:09b9f-Kaisho-s11" kvg:type="㇔" d="M41.55,76.62c2.28,2.04,5.88,8.37,6.45,11.53"/>
			</g>
		</g>
	</g>
	<g id="kvg:09b9f-Kaisho-g6" kvg:element="安" kvg:position="right">
		<g id="kvg:09b9f-Kaisho-g7" kvg:element="宀" kvg:position="top">
			<path id="kvg:09b9f-Kaisho-s12" kvg:type="㇑a" d="M67.34,12.48c3.84,1.71,7.31,7.56,8.04,10.82"/>
			<g id="kvg:09b9f-Kaisho-g8" kvg:element="冖">
				<path id="kvg:09b9f-Kaisho-s13" kvg:type="㇔" d="M54.48,27.63c0,3.26-1.62,12.24-2.35,14.41"/>
				<path id="kvg:09b9f-Kaisho-s14" kvg:type="㇖b" d="M54.55,31.47c7.2-1.72,32.53-4.9,37.3-4.81c7.67,0.15-0.5,7.6-1.7,8.28"/>
			</g>
		</g>
		<g id="kvg:09b9f-Kaisho-g9" kvg:element="女" kvg:position="bottom">
			<path id="kvg:09b9f-Kaisho-s15" kvg:type="㇛" d="M71.02,35.5c0.39,1.41,0.12,3.19-0.19,4.94c-1.53,8.6-5.15,18.08-10.8,27.91c-1.18,2.05-1.34,2.69,0.8,3.06C70,73,86.9,84.19,92.75,95.25"/>
			<path id="kvg:09b9f-Kaisho-s16" kvg:type="㇒" d="M85.85,50.47c0.11,1.07,0.18,3.66-0.22,5.2c-3.26,12.5-14.24,31.78-35.94,39.08"/>
			<path id="kvg:09b9f-Kaisho-s17" kvg:type="㇐" d="M51.38,54.02c0.79,0.35,3.03,0.4,3.83,0.35c5.04-0.32,27.04-3.12,38.11-4.46c1.32-0.16,3.61,0.33,4.68,0.94"/>
		</g>
	</g>
</g>
</g>
<g id="kvg:StrokeNumbers_09b9f-Kaisho" style="font-size:8;fill:#808080">
	<text transform="matrix(1 0 0 1 19.50 13.50)">1</text>
	<text transform="matrix(1 0 0 1 31.66 17.50)">2</text>
	<text transform="matrix(1 0 0 1 7.50 51.50)">3</text>
	<text transform="matrix(1 0 0 1 17.50 42.50)">4</text>
	<text transform="matrix(1 0 0 1 33.50 50.50)">5</text>
	<text transform="matrix(1 0 0 1 20.58 54.50)">6</text>
	<text transform="matrix(1 0 0 1 21.63 66.50)">7</text>
	<text transform="matrix(1 0 0 1 10.50 81.50)">8</text>
	<text transform="matrix(1 0 0 1 18.50 87.50)">9</text>
	<text transform="matrix(1 0 0 1 26.50 84.50)">10</text>
	<text transform="matrix(1 0 0 1 36.50 81.50)">11</text>
	<text transform="matrix(1 0 0 1 57.50 12.50)">12</text>
	<text transform="matrix(1 0 0 1 45.50 30.50)">13</text>
	<text transform="matrix(1 0 0 1 56.25 27.50)">14</text>
	<text transform="matrix(1 0 0 1 59.50 38.50)">15</text>
	<text transform="matrix(1 0 0 1 78.50 44.50)">16</text>
	<text transform="matrix(1 0 0 1 49.50 51.50)">17</text>
</g>
</svg>
