<?xml version="1.0" encoding="UTF-8"?>
<!--
Copyright (C) 2009/2010/2011 Ulrich Apel.
This work is distributed under the conditions of the Creative Commons 
Attribution-Share Alike 3.0 Licence. This means you are free:
* to Share - to copy, distribute and transmit the work
* to Remix - to adapt the work

Under the following conditions:
* Attribution. You must attribute the work by stating your use of KanjiVG in
  your own copyright header and linking to KanjiVG's website
  (http://kanjivg.tagaini.net)
* Share Alike. If you alter, transform, or build upon this work, you may
  distribute the resulting work only under the same or similar license to this
  one.

See http://creativecommons.org/licenses/by-sa/3.0/ for more details.
-->
<!DOCTYPE svg PUBLIC "-//W3C//DTD SVG 1.0//EN" "http://www.w3.org/TR/2001/REC-SVG-20010904/DTD/svg10.dtd" [
<!ATTLIST g
xmlns:kvg CDATA #FIXED "http://kanjivg.tagaini.net"
kvg:element CDATA #IMPLIED
kvg:variant CDATA #IMPLIED
kvg:partial CDATA #IMPLIED
kvg:original CDATA #IMPLIED
kvg:part CDATA #IMPLIED
kvg:number CDATA #IMPLIED
kvg:tradForm CDATA #IMPLIED
kvg:radicalForm CDATA #IMPLIED
kvg:position CDATA #IMPLIED
kvg:radical CDATA #IMPLIED
kvg:phon CDATA #IMPLIED >
<!ATTLIST path
xmlns:kvg CDATA #FIXED "http://kanjivg.tagaini.net"
kvg:type CDATA #IMPLIED >
]>
<svg xmlns="http://www.w3.org/2000/svg" width="109" height="109" viewBox="0 0 109 109">
<g id="kvg:StrokePaths_09baa-Kaisho" style="fill:none;stroke:#000000;stroke-width:3;stroke-linecap:round;stroke-linejoin:round;">
<g id="kvg:09baa-Kaisho" kvg:element="鮪">
	<g id="kvg:09baa-Kaisho-g1" kvg:element="魚" kvg:position="left" kvg:radical="general">
		<g id="kvg:09baa-Kaisho-g2" kvg:element="𠂊" kvg:variant="true" kvg:original="勹" kvg:position="top">
			<path id="kvg:09baa-Kaisho-s1" kvg:type="㇒" d="M28.99,16.25c0.05,0.52,0.1,1.33-0.1,2.07c-1.16,4.36-7.8,13.94-16.9,19.8"/>
			<path id="kvg:09baa-Kaisho-s2" kvg:type="㇇" d="M25.89,25.59c1.6,0,13.47-2.46,15.15-2.7c1.44-0.2,1.77,1.75,1.17,2.74c-2.53,4.18-6.62,8.18-10.74,14.82"/>
		</g>
		<g id="kvg:09baa-Kaisho-g3" kvg:position="bottom">
			<g id="kvg:09baa-Kaisho-g4" kvg:element="田">
				<path id="kvg:09baa-Kaisho-s3" kvg:type="㇑" d="M15.72,42.39c0.23,0.46,0.23,0.77,0.36,1.35c1.02,4.72,2.11,17.14,2.75,25.95"/>
				<path id="kvg:09baa-Kaisho-s4" kvg:type="㇕a" d="M16.78,44.02c7.92-1.19,21.01-4.21,26.92-5.21c2.17-0.37,3.29,0.93,3.17,2.23c-0.41,4.76-1.29,17.26-3.03,26.17"/>
				<path id="kvg:09baa-Kaisho-s5" kvg:type="㇑a" d="M29.56,42.23c0.9,0.59,1.58,2.51,1.61,4.04c0.12,6.73,0.03,16.27,0.03,19.6"/>
				<path id="kvg:09baa-Kaisho-s6" kvg:type="㇐a" d="M18.76,55.23c5.96-1.08,12.11-1.47,18.13-2.13c0.72-0.08,1.43-0.16,2.1-0.23"/>
				<path id="kvg:09baa-Kaisho-s7" kvg:type="㇐a" d="M19.23,67.4c5.71-0.51,17.11-1.62,24.99-2.45"/>
			</g>
			<g id="kvg:09baa-Kaisho-g5" kvg:element="灬" kvg:variant="true" kvg:original="火">
				<path id="kvg:09baa-Kaisho-s8" kvg:type="㇔" d="M13.93,80.32c0,5.5-1.82,13.61-2.3,15.18"/>
				<path id="kvg:09baa-Kaisho-s9" kvg:type="㇔" d="M22.95,78.33c0.91,2.36,1.77,8.87,1.99,12.54"/>
				<path id="kvg:09baa-Kaisho-s10" kvg:type="㇔" d="M32.62,76.94c1.17,2.07,3.03,8.5,3.32,11.71"/>
				<path id="kvg:09baa-Kaisho-s11" kvg:type="㇔" d="M42.8,74.87c1.66,1.9,4.28,7.82,4.7,10.78"/>
			</g>
		</g>
	</g>
	<g id="kvg:09baa-Kaisho-g6" kvg:element="有" kvg:position="right">
		<path id="kvg:09baa-Kaisho-s12" kvg:type="㇒" d="M72.1,12.43c0.05,1.1,0.25,2.9-0.1,4.44c-2.92,12.97-7.63,30.04-17.77,42.49"/>
		<path id="kvg:09baa-Kaisho-s13" kvg:type="㇐" d="M46.31,31.03c1.02,0.43,2.88,0.5,3.89,0.43c10.74-0.71,37.41-4.18,48.24-4.17c1.69,0,2.71,0.21,3.55,0.42"/>
		<g id="kvg:09baa-Kaisho-g7" kvg:element="月">
			<path id="kvg:09baa-Kaisho-s14" kvg:type="㇒" d="M63.55,44.71c0.48,0.73,0.81,1.45,0.97,2.18c0.16,0.73,0.23,47.45,0.16,49.08"/>
			<path id="kvg:09baa-Kaisho-s15" kvg:type="㇆a" d="M64.99,45.88c1.94-0.18,19.73-3.72,21.17-3.92c2.59-0.36,3.56,2.36,3.23,3.45c-0.31,1.05-0.49,29.25-0.49,43.96c0,10.38-3.67,4.88-6.43,1.63"/>
			<path id="kvg:09baa-Kaisho-s16" kvg:type="㇐a" d="M64.99,59.43c4.08-0.32,8.15-0.68,12.22-1.08c0.98-0.09,1.95-0.19,2.91-0.29"/>
			<path id="kvg:09baa-Kaisho-s17" kvg:type="㇐a" d="M64.97,72.9c4.11-0.39,8.23-0.77,12.34-1.13c1.09-0.1,2.18-0.19,3.24-0.28"/>
		</g>
	</g>
</g>
</g>
<g id="kvg:StrokeNumbers_09baa-Kaisho" style="font-size:8;fill:#808080">
	<text transform="matrix(1 0 0 1 21.50 15.50)">1</text>
	<text transform="matrix(1 0 0 1 34.50 20.50)">2</text>
	<text transform="matrix(1 0 0 1 9.50 49.50)">3</text>
	<text transform="matrix(1 0 0 1 19.54 40.50)">4</text>
	<text transform="matrix(1 0 0 1 34.50 49.50)">5</text>
	<text transform="matrix(1 0 0 1 20.58 51.50)">6</text>
	<text transform="matrix(1 0 0 1 21.63 64.50)">7</text>
	<text transform="matrix(1 0 0 1 8.50 79.50)">8</text>
	<text transform="matrix(1 0 0 1 16.50 78.50)">9</text>
	<text transform="matrix(1 0 0 1 22.50 76.85)">10</text>
	<text transform="matrix(1 0 0 1 33.50 74.85)">11</text>
	<text transform="matrix(1 0 0 1 60.25 12.50)">12</text>
	<text transform="matrix(1 0 0 1 47.50 27.50)">13</text>
	<text transform="matrix(1 0 0 1 54.50 66.50)">14</text>
	<text transform="matrix(1 0 0 1 70.50 40.50)">15</text>
	<text transform="matrix(1 0 0 1 67.50 55.50)">16</text>
	<text transform="matrix(1 0 0 1 67.50 69.43)">17</text>
</g>
</svg>
