<?xml version="1.0" encoding="UTF-8"?>
<!--
Copyright (C) 2009/2010/2011 Ulrich Apel.
This work is distributed under the conditions of the Creative Commons 
Attribution-Share Alike 3.0 Licence. This means you are free:
* to Share - to copy, distribute and transmit the work
* to Remix - to adapt the work

Under the following conditions:
* Attribution. You must attribute the work by stating your use of KanjiVG in
  your own copyright header and linking to KanjiVG's website
  (http://kanjivg.tagaini.net)
* Share Alike. If you alter, transform, or build upon this work, you may
  distribute the resulting work only under the same or similar license to this
  one.

See http://creativecommons.org/licenses/by-sa/3.0/ for more details.
-->
<!DOCTYPE svg PUBLIC "-//W3C//DTD SVG 1.0//EN" "http://www.w3.org/TR/2001/REC-SVG-20010904/DTD/svg10.dtd" [
<!ATTLIST g
xmlns:kvg CDATA #FIXED "http://kanjivg.tagaini.net"
kvg:element CDATA #IMPLIED
kvg:variant CDATA #IMPLIED
kvg:partial CDATA #IMPLIED
kvg:original CDATA #IMPLIED
kvg:part CDATA #IMPLIED
kvg:number CDATA #IMPLIED
kvg:tradForm CDATA #IMPLIED
kvg:radicalForm CDATA #IMPLIED
kvg:position CDATA #IMPLIED
kvg:radical CDATA #IMPLIED
kvg:phon CDATA #IMPLIED >
<!ATTLIST path
xmlns:kvg CDATA #FIXED "http://kanjivg.tagaini.net"
kvg:type CDATA #IMPLIED >
]>
<svg xmlns="http://www.w3.org/2000/svg" width="109" height="109" viewBox="0 0 109 109">
<g id="kvg:StrokePaths_09bab" style="fill:none;stroke:#000000;stroke-width:3;stroke-linecap:round;stroke-linejoin:round;">
<g id="kvg:09bab" kvg:element="鮫">
	<g id="kvg:09bab-g1" kvg:element="魚" kvg:position="left" kvg:radical="general">
		<g id="kvg:09bab-g2" kvg:element="𠂊" kvg:variant="true" kvg:original="勹" kvg:position="top">
			<path id="kvg:09bab-s1" kvg:type="㇒" d="M29.49,15.75c0,0.75-0.22,1.65-0.6,2.32c-3.51,6.18-7.39,11.68-17.4,20.05"/>
			<path id="kvg:09bab-s2" kvg:type="㇇" d="M27.89,24.88c0.57,0,1.78-0.17,3.26-0.41c3.56-0.59,8.66-1.61,10.09-1.82c1.74-0.25,2.24,1.73,1.41,2.9c-2.89,4.07-5.02,7.2-10.27,13.7"/>
		</g>
		<g id="kvg:09bab-g3" kvg:position="bottom">
			<g id="kvg:09bab-g4" kvg:element="田">
				<path id="kvg:09bab-s3" kvg:type="㇑" d="M15.47,41.89c0.76,0.76,1.03,1.74,1.11,2.85c0.24,3.44,1.08,10.69,1.78,17.77c0.28,2.84,0.53,5.66,0.72,8.18"/>
				<path id="kvg:09bab-s4" kvg:type="㇕a" d="M17.03,43.02c7.43-1.12,18.72-2.4,25.99-3.26c2.71-0.32,4.46,1.12,4.2,3.74c-0.38,3.88-1.2,9.61-2.14,15.78c-0.4,2.6-0.81,5.28-1.23,7.93"/>
				<path id="kvg:09bab-s5" kvg:type="㇑a" d="M30.06,43.23c0.98,0.98,1.11,2.4,1.11,3.79c0,6.73,0.03,14.02,0.03,17.35"/>
				<path id="kvg:09bab-s6" kvg:type="㇐a" d="M18.51,55.23C26.5,54.12,35.25,53,44.9,52.42"/>
				<path id="kvg:09bab-s7" kvg:type="㇐a" d="M19.73,67.15c7.89-1.15,15.14-1.78,23.74-2.45"/>
			</g>
			<g id="kvg:09bab-g5" kvg:element="灬" kvg:variant="true" kvg:original="火">
				<path id="kvg:09bab-s8" kvg:type="㇔" d="M15.08,81.32c0,4.95-2.2,11.68-3.6,13.68"/>
				<path id="kvg:09bab-s9" kvg:type="㇔" d="M22.95,78.33c0.91,2.36,1.77,8.87,1.99,12.54"/>
				<path id="kvg:09bab-s10" kvg:type="㇔" d="M31.88,76.44c1.17,2.07,3.53,8.5,3.82,11.71"/>
				<path id="kvg:09bab-s11" kvg:type="㇔" d="M42.8,74.87c1.66,1.9,4.03,7.57,4.45,10.53"/>
			</g>
		</g>
	</g>
	<g id="kvg:09bab-g6" kvg:element="交" kvg:position="right">
		<g id="kvg:09bab-g7" kvg:element="亠" kvg:position="top">
			<path id="kvg:09bab-s12" kvg:type="㇑a" d="M69.62,12.5c1.12,1.12,1.23,2.5,1.23,3.76c0,4.32-0.1,8.45-0.1,11.61"/>
			<path id="kvg:09bab-s13" kvg:type="㇐" d="M51.5,30.51c3,0.69,5.91,0.17,8.98-0.1c9.02-0.79,20.22-2.31,27.64-2.96c2.68-0.42,5.36-0.39,8.04,0.09"/>
		</g>
		<g id="kvg:09bab-g8" kvg:element="父" kvg:position="bottom">
			<path id="kvg:09bab-s14" kvg:type="㇒" d="M65.45,36.84c-0.09,1.11-0.51,2.1-1.12,3.03c-3.2,4.88-6.96,9.71-11.57,13.83"/>
			<path id="kvg:09bab-s15" kvg:type="㇔" d="M80.02,34.98c6.29,4.17,10.49,8.48,13.63,13.54"/>
			<path id="kvg:09bab-s16" kvg:type="㇒" d="M82.89,47.91c0,1.22-0.06,2.27-0.62,4.15C77.14,69.21,66.62,83.12,52,93.9"/>
			<path id="kvg:09bab-s17" kvg:type="㇏" d="M58.84,54.77c2.24,0.22,15.66,18.73,26.78,30.49c3.25,3.43,6.48,6.67,10.63,8.88"/>
		</g>
	</g>
</g>
</g>
<g id="kvg:StrokeNumbers_09bab" style="font-size:8;fill:#808080">
	<text transform="matrix(1 0 0 1 21.50 15.92)">1</text>
	<text transform="matrix(1 0 0 1 34.50 20.50)">2</text>
	<text transform="matrix(1 0 0 1 9.50 49.50)">3</text>
	<text transform="matrix(1 0 0 1 19.54 39.92)">4</text>
	<text transform="matrix(1 0 0 1 34.50 48.92)">5</text>
	<text transform="matrix(1 0 0 1 21.50 52.50)">6</text>
	<text transform="matrix(1 0 0 1 22.50 64.50)">7</text>
	<text transform="matrix(1 0 0 1 9.50 78.92)">8</text>
	<text transform="matrix(1 0 0 1 16.50 78.50)">9</text>
	<text transform="matrix(1 0 0 1 22.50 77.92)">10</text>
	<text transform="matrix(1 0 0 1 33.50 74.50)">11</text>
	<text transform="matrix(1 0 0 1 57.50 13.50)">12</text>
	<text transform="matrix(1 0 0 1 49.50 27.50)">13</text>
	<text transform="matrix(1 0 0 1 53.50 40.50)">14</text>
	<text transform="matrix(1 0 0 1 70.50 38.50)">15</text>
	<text transform="matrix(1 0 0 1 70.50 48.50)">16</text>
	<text transform="matrix(1 0 0 1 62.50 55.50)">17</text>
</g>
</svg>
