<?xml version="1.0" encoding="UTF-8"?>
<!--
Copyright (C) 2009/2010/2011 Ulrich Apel.
This work is distributed under the conditions of the Creative Commons 
Attribution-Share Alike 3.0 Licence. This means you are free:
* to Share - to copy, distribute and transmit the work
* to Remix - to adapt the work

Under the following conditions:
* Attribution. You must attribute the work by stating your use of KanjiVG in
  your own copyright header and linking to KanjiVG's website
  (http://kanjivg.tagaini.net)
* Share Alike. If you alter, transform, or build upon this work, you may
  distribute the resulting work only under the same or similar license to this
  one.

See http://creativecommons.org/licenses/by-sa/3.0/ for more details.
-->
<!DOCTYPE svg PUBLIC "-//W3C//DTD SVG 1.0//EN" "http://www.w3.org/TR/2001/REC-SVG-20010904/DTD/svg10.dtd" [
<!ATTLIST g
xmlns:kvg CDATA #FIXED "http://kanjivg.tagaini.net"
kvg:element CDATA #IMPLIED
kvg:variant CDATA #IMPLIED
kvg:partial CDATA #IMPLIED
kvg:original CDATA #IMPLIED
kvg:part CDATA #IMPLIED
kvg:number CDATA #IMPLIED
kvg:tradForm CDATA #IMPLIED
kvg:radicalForm CDATA #IMPLIED
kvg:position CDATA #IMPLIED
kvg:radical CDATA #IMPLIED
kvg:phon CDATA #IMPLIED >
<!ATTLIST path
xmlns:kvg CDATA #FIXED "http://kanjivg.tagaini.net"
kvg:type CDATA #IMPLIED >
]>
<svg xmlns="http://www.w3.org/2000/svg" width="109" height="109" viewBox="0 0 109 109">
<g id="kvg:StrokePaths_09ba0-Kaisho" style="fill:none;stroke:#000000;stroke-width:3;stroke-linecap:round;stroke-linejoin:round;">
<g id="kvg:09ba0-Kaisho" kvg:element="鮠">
	<g id="kvg:09ba0-Kaisho-g1" kvg:element="魚" kvg:position="left" kvg:radical="general">
		<g id="kvg:09ba0-Kaisho-g2" kvg:element="𠂊" kvg:variant="true" kvg:original="勹" kvg:position="top">
			<path id="kvg:09ba0-Kaisho-s1" kvg:type="㇒" d="M25.99,14.25c0.04,0.56,0.26,1.51-0.08,2.26c-2.66,5.74-7.66,15.99-15.67,23.61"/>
			<path id="kvg:09ba0-Kaisho-s2" kvg:type="㇇" d="M23.89,22.88c1.93,0,14.32-2.94,16.35-3.23c1.74-0.25,2.63,2.17,1.91,3.4c-3.05,5.19-6.48,10.16-11.45,18.4"/>
		</g>
		<g id="kvg:09ba0-Kaisho-g3" kvg:position="bottom">
			<g id="kvg:09ba0-Kaisho-g4" kvg:element="田">
				<path id="kvg:09ba0-Kaisho-s3" kvg:type="㇑" d="M13.7,44.48c0.31,0.49,0.31,0.83,0.48,1.44c1.39,5.05,2.87,18.34,3.73,27.77"/>
				<path id="kvg:09ba0-Kaisho-s4" kvg:type="㇕a" d="M14.72,46.9c7.49-1.22,21.31-3.81,26.91-4.83c2.05-0.38,3.11,0.95,3,2.28c-0.39,4.88-1.19,17.68-2.84,26.81"/>
				<path id="kvg:09ba0-Kaisho-s5" kvg:type="㇑a" d="M28.25,45.55c0.85,0.61,1.5,2.57,1.52,4.13c0.11,6.9,0.02,16.66,0.02,20.08"/>
				<path id="kvg:09ba0-Kaisho-s6" kvg:type="㇐a" d="M17.59,58.88c5.49-1.09,11.07-1.85,16.59-2.74c0.69-0.11,1.37-0.22,2.02-0.32"/>
				<path id="kvg:09ba0-Kaisho-s7" kvg:type="㇐a" d="M18.04,71.85c5.39-0.52,16.65-2.69,24.1-3.53"/>
			</g>
			<g id="kvg:09ba0-Kaisho-g5" kvg:element="灬" kvg:variant="true" kvg:original="火">
				<path id="kvg:09ba0-Kaisho-s8" kvg:type="㇔" d="M15.36,82.32c0,5.32-1.83,12.66-2.17,14.18"/>
				<path id="kvg:09ba0-Kaisho-s9" kvg:type="㇔" d="M22.4,81.83c1.4,2.55,2.73,9.57,3.08,13.54"/>
				<path id="kvg:09ba0-Kaisho-s10" kvg:type="㇔" d="M30.61,79.44c2.15,2.07,5.56,8.5,6.11,11.71"/>
				<path id="kvg:09ba0-Kaisho-s11" kvg:type="㇔" d="M38.8,76.62c2.19,2.12,5.65,8.73,6.2,12.03"/>
			</g>
		</g>
	</g>
	<g id="kvg:09ba0-Kaisho-g6" kvg:element="危" kvg:position="right">
		<g id="kvg:09ba0-Kaisho-g7" kvg:element="𠂊" kvg:variant="true" kvg:original="勹" kvg:position="top">
			<path id="kvg:09ba0-Kaisho-s12" kvg:type="㇒" d="M66.85,12.5c0.05,0.58,0.1,1.5-0.09,2.34c-1.12,4.92-8.61,16.44-16.74,23.41"/>
			<path id="kvg:09ba0-Kaisho-s13" kvg:type="㇇" d="M63.67,22.38c1.93,0,16.58-2.63,20.68-4.15c1.65-0.61,2.78,1.67,1.91,2.76c-4.01,5-7.96,11-11.18,17.75"/>
		</g>
		<g id="kvg:09ba0-Kaisho-g8" kvg:element="厄" kvg:position="bottom">
			<g id="kvg:09ba0-Kaisho-g9" kvg:element="厂" kvg:position="tare">
				<path id="kvg:09ba0-Kaisho-s14" kvg:type="㇐" d="M53.58,42.57c0.91,0.41,2.57,0.5,3.47,0.41c9.45-0.98,25.45-4.23,36-5.69c1.51-0.21,2.42,0.2,3.17,0.4"/>
				<path id="kvg:09ba0-Kaisho-s15" kvg:type="㇒" d="M56.3,43.67c0.03,1.21-0.05,2.61-0.05,4.35c0,11.48,0,34.73-9.19,46.22"/>
			</g>
			<g id="kvg:09ba0-Kaisho-g10" kvg:element="卩">
				<path id="kvg:09ba0-Kaisho-s16" kvg:type="㇆" d="M64.48,54c0.63,0.12,1.89,0.57,3.15,0.33c4.37-0.83,16.41-2.55,17.96-2.92c2.54-0.6,4.66,1.12,4.09,3.48C88.5,59.75,88,65.5,85.21,71.6c-3.3,7.23-5.96,2.65-7.08,0.34"/>
				<path id="kvg:09ba0-Kaisho-s17" kvg:type="㇟/㇑" d="M65.95,54.3c0.62,1.36,0.61,2.97,0.64,5.07c0.17,9.38,0.18,18.5,0.18,24.88c0,10.5,0.97,11.71,17.18,11.71c12.3,0,13.69-2.46,13.69-11.46"/>
			</g>
		</g>
	</g>
</g>
</g>
<g id="kvg:StrokeNumbers_09ba0-Kaisho" style="font-size:8;fill:#808080">
	<text transform="matrix(1 0 0 1 18.50 13.50)">1</text>
	<text transform="matrix(1 0 0 1 30.50 18.50)">2</text>
	<text transform="matrix(1 0 0 1 7.50 51.50)">3</text>
	<text transform="matrix(1 0 0 1 17.50 43.50)">4</text>
	<text transform="matrix(1 0 0 1 32.50 51.50)">5</text>
	<text transform="matrix(1 0 0 1 20.50 55.50)">6</text>
	<text transform="matrix(1 0 0 1 21.50 68.50)">7</text>
	<text transform="matrix(1 0 0 1 9.50 85.50)">8</text>
	<text transform="matrix(1 0 0 1 18.50 88.85)">9</text>
	<text transform="matrix(1 0 0 1 25.50 85.50)">10</text>
	<text transform="matrix(1 0 0 1 33.50 82.50)">11</text>
	<text transform="matrix(1 0 0 1 54.50 11.50)">12</text>
	<text transform="matrix(1 0 0 1 70.50 17.50)">13</text>
	<text transform="matrix(1 0 0 1 56.25 39.65)">14</text>
	<text transform="matrix(1 0 0 1 46.50 49.50)">15</text>
	<text transform="matrix(1 0 0 1 64.50 51.50)">16</text>
	<text transform="matrix(1 0 0 1 58.50 61.50)">17</text>
</g>
</svg>
