<?xml version="1.0" encoding="UTF-8"?>
<!--
Copyright (C) 2009/2010/2011 Ulrich Apel.
This work is distributed under the conditions of the Creative Commons 
Attribution-Share Alike 3.0 Licence. This means you are free:
* to Share - to copy, distribute and transmit the work
* to Remix - to adapt the work

Under the following conditions:
* Attribution. You must attribute the work by stating your use of KanjiVG in
  your own copyright header and linking to KanjiVG's website
  (http://kanjivg.tagaini.net)
* Share Alike. If you alter, transform, or build upon this work, you may
  distribute the resulting work only under the same or similar license to this
  one.

See http://creativecommons.org/licenses/by-sa/3.0/ for more details.
-->
<!DOCTYPE svg PUBLIC "-//W3C//DTD SVG 1.0//EN" "http://www.w3.org/TR/2001/REC-SVG-20010904/DTD/svg10.dtd" [
<!ATTLIST g
xmlns:kvg CDATA #FIXED "http://kanjivg.tagaini.net"
kvg:element CDATA #IMPLIED
kvg:variant CDATA #IMPLIED
kvg:partial CDATA #IMPLIED
kvg:original CDATA #IMPLIED
kvg:part CDATA #IMPLIED
kvg:number CDATA #IMPLIED
kvg:tradForm CDATA #IMPLIED
kvg:radicalForm CDATA #IMPLIED
kvg:position CDATA #IMPLIED
kvg:radical CDATA #IMPLIED
kvg:phon CDATA #IMPLIED >
<!ATTLIST path
xmlns:kvg CDATA #FIXED "http://kanjivg.tagaini.net"
kvg:type CDATA #IMPLIED >
]>
<svg xmlns="http://www.w3.org/2000/svg" width="109" height="109" viewBox="0 0 109 109">
<g id="kvg:StrokePaths_09be8-Kaisho" style="fill:none;stroke:#000000;stroke-width:3;stroke-linecap:round;stroke-linejoin:round;">
<g id="kvg:09be8-Kaisho" kvg:element="鯨">
	<g id="kvg:09be8-Kaisho-g1" kvg:element="魚" kvg:position="left" kvg:radical="general">
		<g id="kvg:09be8-Kaisho-g2" kvg:element="𠂊" kvg:variant="true" kvg:original="勹" kvg:position="top">
			<path id="kvg:09be8-Kaisho-s1" kvg:type="㇒" d="M27.49,13.25c0.04,0.56,0.09,1.45-0.08,2.26c-1,4.76-6.77,15.21-14.67,21.61"/>
			<path id="kvg:09be8-Kaisho-s2" kvg:type="㇇" d="M26.39,20.88c1.93,0,13.82-2.44,15.85-2.73c1.74-0.25,2.13,2.17,1.41,3.4c-3.05,5.19-7.98,10.16-12.95,18.4"/>
		</g>
		<g id="kvg:09be8-Kaisho-g3" kvg:position="bottom">
			<g id="kvg:09be8-Kaisho-g4" kvg:element="田">
				<path id="kvg:09be8-Kaisho-s3" kvg:type="㇑" d="M17.22,42.39c0.23,0.46,0.23,0.77,0.36,1.35c1.02,4.72,2.11,17.14,2.75,25.95"/>
				<path id="kvg:09be8-Kaisho-s4" kvg:type="㇕a" d="M18.28,44.02c7.92-1.19,22.01-4.21,27.92-5.21c2.17-0.37,3.29,0.93,3.17,2.23c-0.41,4.76-1.79,17.26-3.53,26.17"/>
				<path id="kvg:09be8-Kaisho-s5" kvg:type="㇑a" d="M32.06,41.73c0.9,0.59,1.58,2.51,1.61,4.04c0.12,6.73,0.03,16.27,0.03,19.6"/>
				<path id="kvg:09be8-Kaisho-s6" kvg:type="㇐a" d="M20.26,55.23c6.12-1.11,12.31-1.91,18.47-2.81c0.74-0.11,1.46-0.21,2.15-0.31"/>
				<path id="kvg:09be8-Kaisho-s7" kvg:type="㇐a" d="M20.73,67.4c5.71-0.51,17.61-2.62,25.49-3.45"/>
			</g>
			<g id="kvg:09be8-Kaisho-g5" kvg:element="灬" kvg:variant="true" kvg:original="火">
				<path id="kvg:09be8-Kaisho-s8" kvg:type="㇔" d="M14.36,80.82c0,5.32-1.33,13.16-1.67,14.68"/>
				<path id="kvg:09be8-Kaisho-s9" kvg:type="㇔" d="M22.95,79.33c0.91,2.36,1.77,8.87,1.99,12.54"/>
				<path id="kvg:09be8-Kaisho-s10" kvg:type="㇔" d="M32.62,77.44c1.17,2.07,3.03,8.5,3.32,11.71"/>
				<path id="kvg:09be8-Kaisho-s11" kvg:type="㇔" d="M41.8,74.87c1.66,1.9,4.28,7.82,4.7,10.78"/>
			</g>
		</g>
	</g>
	<g id="kvg:09be8-Kaisho-g6" kvg:element="京" kvg:position="right">
		<g id="kvg:09be8-Kaisho-g7" kvg:element="亠" kvg:position="top">
			<path id="kvg:09be8-Kaisho-s12" kvg:type="㇑a" d="M69.24,13.42c2.29,1.26,6.53,4.73,8.3,8.87"/>
			<path id="kvg:09be8-Kaisho-s13" kvg:type="㇐" d="M53.24,29c0.95,0.07,3.1,0.43,4.04,0.39C67.5,29,84.59,26.5,93.47,26.09c1.57-0.07,2.36-0.04,3.53,0.56"/>
		</g>
		<g id="kvg:09be8-Kaisho-g8" kvg:position="bottom">
			<g id="kvg:09be8-Kaisho-g9" kvg:element="口">
				<path id="kvg:09be8-Kaisho-s14" kvg:type="㇑" d="M60.31,42.32c0.44,0.39,0.99,1.67,1.09,2.2c0.67,3.82,1.58,8.74,2.57,15.98"/>
				<path id="kvg:09be8-Kaisho-s15" kvg:type="㇕b" d="M61.77,44.11c6.64-1.49,19.64-3,24.15-3.61c1.87-0.25,3.58,0.75,3.35,3c-0.35,3.34-1.84,7.25-3.02,11.75"/>
				<path id="kvg:09be8-Kaisho-s16" kvg:type="㇐b" d="M64.27,58.53C72.75,58,80.25,57,88.26,56.5"/>
			</g>
			<g id="kvg:09be8-Kaisho-g10" kvg:element="小">
				<path id="kvg:09be8-Kaisho-s17" kvg:type="㇚" d="M73.7,59.83c0.8,0.67,1.75,2.99,1.84,6.02c0.15,4.9-0.23,21.9-0.17,26.12c0.13,8.78-5.12,1.78-7.37-1.47"/>
				<path id="kvg:09be8-Kaisho-s18" kvg:type="㇒" d="M61.78,69c0.03,0.48,0.07,1.25-0.07,1.94c-0.8,4.09-5.41,13.07-11.72,18.56"/>
				<path id="kvg:09be8-Kaisho-s19" kvg:type="㇔" d="M88.44,70c3.31,3.09,7.88,11.7,8.71,16.5"/>
			</g>
		</g>
	</g>
</g>
</g>
<g id="kvg:StrokeNumbers_09be8-Kaisho" style="font-size:8;fill:#808080">
	<text transform="matrix(1 0 0 1 21.50 14.50)">1</text>
	<text transform="matrix(1 0 0 1 33.50 16.50)">2</text>
	<text transform="matrix(1 0 0 1 11.25 49.50)">3</text>
	<text transform="matrix(1 0 0 1 20.50 40.50)">4</text>
	<text transform="matrix(1 0 0 1 37.50 48.50)">5</text>
	<text transform="matrix(1 0 0 1 23.25 52.63)">6</text>
	<text transform="matrix(1 0 0 1 23.25 64.55)">7</text>
	<text transform="matrix(1 0 0 1 8.25 81.13)">8</text>
	<text transform="matrix(1 0 0 1 17.50 79.50)">9</text>
	<text transform="matrix(1 0 0 1 24.50 77.50)">10</text>
	<text transform="matrix(1 0 0 1 34.50 75.13)">11</text>
	<text transform="matrix(1 0 0 1 60.50 13.50)">12</text>
	<text transform="matrix(1 0 0 1 52.50 26.50)">13</text>
	<text transform="matrix(1 0 0 1 51.75 56.98)">14</text>
	<text transform="matrix(1 0 0 1 63.75 40.63)">15</text>
	<text transform="matrix(1 0 0 1 66.50 55.55)">16</text>
	<text transform="matrix(1 0 0 1 65.25 68.98)">17</text>
	<text transform="matrix(1 0 0 1 50.50 69.50)">18</text>
	<text transform="matrix(1 0 0 1 79.50 66.50)">19</text>
</g>
</svg>
