<?xml version="1.0" encoding="UTF-8"?>
<!--
Copyright (C) 2009/2010/2011 Ulrich Apel.
This work is distributed under the conditions of the Creative Commons 
Attribution-Share Alike 3.0 Licence. This means you are free:
* to Share - to copy, distribute and transmit the work
* to Remix - to adapt the work

Under the following conditions:
* Attribution. You must attribute the work by stating your use of KanjiVG in
  your own copyright header and linking to KanjiVG's website
  (http://kanjivg.tagaini.net)
* Share Alike. If you alter, transform, or build upon this work, you may
  distribute the resulting work only under the same or similar license to this
  one.

See http://creativecommons.org/licenses/by-sa/3.0/ for more details.
-->
<!DOCTYPE svg PUBLIC "-//W3C//DTD SVG 1.0//EN" "http://www.w3.org/TR/2001/REC-SVG-20010904/DTD/svg10.dtd" [
<!ATTLIST g
xmlns:kvg CDATA #FIXED "http://kanjivg.tagaini.net"
kvg:element CDATA #IMPLIED
kvg:variant CDATA #IMPLIED
kvg:partial CDATA #IMPLIED
kvg:original CDATA #IMPLIED
kvg:part CDATA #IMPLIED
kvg:number CDATA #IMPLIED
kvg:tradForm CDATA #IMPLIED
kvg:radicalForm CDATA #IMPLIED
kvg:position CDATA #IMPLIED
kvg:radical CDATA #IMPLIED
kvg:phon CDATA #IMPLIED >
<!ATTLIST path
xmlns:kvg CDATA #FIXED "http://kanjivg.tagaini.net"
kvg:type CDATA #IMPLIED >
]>
<svg xmlns="http://www.w3.org/2000/svg" width="109" height="109" viewBox="0 0 109 109">
<g id="kvg:StrokePaths_09c06" style="fill:none;stroke:#000000;stroke-width:3;stroke-linecap:round;stroke-linejoin:round;">
<g id="kvg:09c06" kvg:element="鰆">
	<g id="kvg:09c06-g1" kvg:element="魚" kvg:position="left" kvg:radical="general">
		<g id="kvg:09c06-g2" kvg:element="𠂊" kvg:variant="true" kvg:original="勹" kvg:position="top">
			<path id="kvg:09c06-s1" kvg:type="㇒" d="M25.49,13.75c0.04,0.56,0.09,1.45-0.08,2.26c-1,4.76-6.91,15.74-15.17,24.11"/>
			<path id="kvg:09c06-s2" kvg:type="㇇" d="M23.39,22.88c1.93,0,14.32-2.94,16.35-3.23c1.74-0.25,2.8,1.78,1.91,2.9c-4.14,5.2-6.89,11.45-10.95,19.4"/>
		</g>
		<g id="kvg:09c06-g3" kvg:position="bottom">
			<g id="kvg:09c06-g4" kvg:element="田">
				<path id="kvg:09c06-s3" kvg:type="㇑" d="M13.22,44.89c0.21,0.46,0.21,0.77,0.33,1.35c0.95,4.72,2.96,18.14,3.55,26.95"/>
				<path id="kvg:09c06-s4" kvg:type="㇕a" d="M14.21,46.52c7.37-1.19,20.97-3.21,26.47-4.21c2.02-0.37,3.06,0.93,2.95,2.23c-0.38,4.76-1.67,17.76-3.29,26.67"/>
				<path id="kvg:09c06-s5" kvg:type="㇑a" d="M27.52,45.23c0.83,0.59,1.47,2.51,1.5,4.04c0.11,6.73,0.02,16.27,0.02,19.6"/>
				<path id="kvg:09c06-s6" kvg:type="㇐a" d="M16.55,58.23c2.4-0.46,23.49-2.87,25.48-3.06"/>
				<path id="kvg:09c06-s7" kvg:type="㇐a" d="M17.49,70.9c5.31-0.51,15.88-1.12,23.21-1.95"/>
			</g>
			<g id="kvg:09c06-g5" kvg:element="灬" kvg:variant="true" kvg:original="火">
				<path id="kvg:09c06-s8" kvg:type="㇔" d="M14.58,82.82c0,5.13-2.85,12.71-3.6,14.18"/>
				<path id="kvg:09c06-s9" kvg:type="㇔" d="M22.79,81.83c1.27,2.65,2.48,9.93,2.8,14.04"/>
				<path id="kvg:09c06-s10" kvg:type="㇔" d="M31.48,80.19c1.54,2.2,3.97,9.04,4.36,12.46"/>
				<path id="kvg:09c06-s11" kvg:type="㇔" d="M41.8,80.12c2.01,1.95,5.2,8,5.7,11.03"/>
			</g>
		</g>
	</g>
	<g id="kvg:09c06-g6" kvg:element="春" kvg:position="right">
		<g id="kvg:09c06-g7" kvg:position="top">
			<g id="kvg:09c06-g8" kvg:element="三">
				<g id="kvg:09c06-g9" kvg:element="一" kvg:position="top">
					<path id="kvg:09c06-s12" kvg:type="㇐" d="M52.96,24.46c0.91,0.43,2.57,0.46,3.48,0.43c12.01-0.5,20.48-2.67,32.23-3.2c1.51-0.07,2.42,0.2,3.18,0.42"/>
				</g>
				<g id="kvg:09c06-g10" kvg:position="bottom">
					<g id="kvg:09c06-g11" kvg:element="一">
						<path id="kvg:09c06-s13" kvg:type="㇐" d="M54.71,34.32c0.71,0.37,2,0.39,2.71,0.37C65,34.5,76.5,32.5,86.32,31.94c1.18-0.07,1.89,0.18,2.48,0.36"/>
					</g>
					<g id="kvg:09c06-g12" kvg:element="大" kvg:part="1">
						<g id="kvg:09c06-g13" kvg:element="一">
							<path id="kvg:09c06-s14" kvg:type="㇐" d="M50.46,46.16c1.15,0.52,3.25,0.61,4.39,0.52c11.92-0.88,26.4-2.93,38.66-3.47c1.91-0.08,3.05,0.25,4.01,0.51"/>
						</g>
					</g>
				</g>
			</g>
			<g id="kvg:09c06-g14" kvg:element="大" kvg:part="2">
				<g id="kvg:09c06-g15" kvg:element="人">
					<path id="kvg:09c06-s15" kvg:type="㇒" d="M70.1,13.5c0.4,0.84,0.53,1.29,0.28,3.17c-1.47,11.1-7.13,40.51-23.63,51.67"/>
					<path id="kvg:09c06-s16" kvg:type="㇏" d="M74.05,35.58c3.28,5.7,15.81,23.79,19.42,27.96c1.23,1.42,2.8,2.02,4.03,2.42"/>
				</g>
			</g>
		</g>
		<g id="kvg:09c06-g16" kvg:element="日" kvg:position="bottom">
			<path id="kvg:09c06-s17" kvg:type="㇑" d="M60.21,62.27c0.29,0.71,0.59,1.07,0.59,2.02c0,0.95-0.1,32.02,0,32.96"/>
			<path id="kvg:09c06-s18" kvg:type="㇕a" d="M61.28,63.89c1.66-0.12,18.42-2.88,19.93-3.02c1.26-0.12,2.07,1.31,1.97,2.01c-0.2,1.42-0.39,32.82-0.39,33.53"/>
			<path id="kvg:09c06-s19" kvg:type="㇐a" d="M61.57,77.23c2.24,0,18.5-1.55,21.04-1.55"/>
			<path id="kvg:09c06-s20" kvg:type="㇐a" d="M61.47,94.09c4.57-0.51,14.94-1.37,20.63-1.81"/>
		</g>
	</g>
</g>
</g>
<g id="kvg:StrokeNumbers_09c06" style="font-size:8;fill:#808080">
	<text transform="matrix(1 0 0 1 18.50 13.50)">1</text>
	<text transform="matrix(1 0 0 1 31.66 18.50)">2</text>
	<text transform="matrix(1 0 0 1 6.50 51.50)">3</text>
	<text transform="matrix(1 0 0 1 16.50 43.50)">4</text>
	<text transform="matrix(1 0 0 1 32.50 51.50)">5</text>
	<text transform="matrix(1 0 0 1 19.50 54.50)">6</text>
	<text transform="matrix(1 0 0 1 20.50 68.50)">7</text>
	<text transform="matrix(1 0 0 1 8.50 84.50)">8</text>
	<text transform="matrix(1 0 0 1 17.50 87.50)">9</text>
	<text transform="matrix(1 0 0 1 25.50 86.50)">10</text>
	<text transform="matrix(1 0 0 1 36.50 85.50)">11</text>
	<text transform="matrix(1 0 0 1 49.50 21.50)">12</text>
	<text transform="matrix(1 0 0 1 45.50 34.50)">13</text>
	<text transform="matrix(1 0 0 1 47.50 43.50)">14</text>
	<text transform="matrix(1 0 0 1 57.50 12.50)">15</text>
	<text transform="matrix(1 0 0 1 79.50 40.50)">16</text>
	<text transform="matrix(1 0 0 1 51.50 73.50)">17</text>
	<text transform="matrix(1 0 0 1 61.50 60.50)">18</text>
	<text transform="matrix(1 0 0 1 63.50 74.50)">19</text>
	<text transform="matrix(1 0 0 1 64.50 90.40)">20</text>
</g>
</svg>
