<?xml version="1.0" encoding="UTF-8"?>
<!--
Copyright (C) 2009/2010/2011 Ulrich Apel.
This work is distributed under the conditions of the Creative Commons 
Attribution-Share Alike 3.0 Licence. This means you are free:
* to Share - to copy, distribute and transmit the work
* to Remix - to adapt the work

Under the following conditions:
* Attribution. You must attribute the work by stating your use of KanjiVG in
  your own copyright header and linking to KanjiVG's website
  (http://kanjivg.tagaini.net)
* Share Alike. If you alter, transform, or build upon this work, you may
  distribute the resulting work only under the same or similar license to this
  one.

See http://creativecommons.org/licenses/by-sa/3.0/ for more details.
-->
<!DOCTYPE svg PUBLIC "-//W3C//DTD SVG 1.0//EN" "http://www.w3.org/TR/2001/REC-SVG-20010904/DTD/svg10.dtd" [
<!ATTLIST g
xmlns:kvg CDATA #FIXED "http://kanjivg.tagaini.net"
kvg:element CDATA #IMPLIED
kvg:variant CDATA #IMPLIED
kvg:partial CDATA #IMPLIED
kvg:original CDATA #IMPLIED
kvg:part CDATA #IMPLIED
kvg:number CDATA #IMPLIED
kvg:tradForm CDATA #IMPLIED
kvg:radicalForm CDATA #IMPLIED
kvg:position CDATA #IMPLIED
kvg:radical CDATA #IMPLIED
kvg:phon CDATA #IMPLIED >
<!ATTLIST path
xmlns:kvg CDATA #FIXED "http://kanjivg.tagaini.net"
kvg:type CDATA #IMPLIED >
]>
<svg xmlns="http://www.w3.org/2000/svg" width="109" height="109" viewBox="0 0 109 109">
<g id="kvg:StrokePaths_09c0a-Kaisho" style="fill:none;stroke:#000000;stroke-width:3;stroke-linecap:round;stroke-linejoin:round;">
<g id="kvg:09c0a-Kaisho" kvg:element="鰊">
	<g id="kvg:09c0a-Kaisho-g1" kvg:element="魚" kvg:position="left" kvg:radical="general">
		<g id="kvg:09c0a-Kaisho-g2" kvg:element="𠂊" kvg:variant="true" kvg:original="勹" kvg:position="top">
			<path id="kvg:09c0a-Kaisho-s1" kvg:type="㇒" d="M24.49,14.25c0.04,0.56,0.09,1.45-0.08,2.26c-1,4.76-6.77,15.21-14.67,21.61"/>
			<path id="kvg:09c0a-Kaisho-s2" kvg:type="㇇" d="M23.39,21.38c1.93,0,13.32-1.94,15.35-2.23c1.74-0.25,2.13,2.17,1.41,3.4c-3.05,5.19-7.48,10.16-12.45,18.4"/>
		</g>
		<g id="kvg:09c0a-Kaisho-g3" kvg:position="bottom">
			<g id="kvg:09c0a-Kaisho-g4" kvg:element="田">
				<path id="kvg:09c0a-Kaisho-s3" kvg:type="㇑" d="M12.72,42.39c0.21,0.46,0.72,1.77,0.84,2.35c0.97,4.72,2,19.14,2.6,27.95"/>
				<path id="kvg:09c0a-Kaisho-s4" kvg:type="㇕a" d="M14.22,44.52c7.49-1.19,20.31-2.21,25.91-3.21c2.05-0.37,3.11,0.93,3,2.23c-0.39,4.76-1.19,17.76-2.84,26.67"/>
				<path id="kvg:09c0a-Kaisho-s5" kvg:type="㇑a" d="M26.75,43.23c0.85,0.59,1.5,2.51,1.52,4.04c0.11,6.73,0.02,18.27,0.02,21.6"/>
				<path id="kvg:09c0a-Kaisho-s6" kvg:type="㇐a" d="M16.09,56.23c5.69-1.09,11.7-1.26,17.46-1.79c0.7-0.06,1.38-0.13,2.03-0.19"/>
				<path id="kvg:09c0a-Kaisho-s7" kvg:type="㇐a" d="M16.54,70.4c5.39-0.51,16.15-2.12,23.6-2.95"/>
			</g>
			<g id="kvg:09c0a-Kaisho-g5" kvg:element="灬" kvg:variant="true" kvg:original="火">
				<path id="kvg:09c0a-Kaisho-s8" kvg:type="㇔" d="M12.57,81.32c0,5.32-1.66,13.16-2.09,14.68"/>
				<path id="kvg:09c0a-Kaisho-s9" kvg:type="㇔" d="M19.89,79.83c1.41,2.36,2.75,8.87,3.11,12.54"/>
				<path id="kvg:09c0a-Kaisho-s10" kvg:type="㇔" d="M27.77,77.19c1.95,2.2,5.04,9.04,5.53,12.46"/>
				<path id="kvg:09c0a-Kaisho-s11" kvg:type="㇔" d="M37.3,74.87c2.01,1.9,5.2,7.82,5.7,10.78"/>
			</g>
		</g>
	</g>
	<g id="kvg:09c0a-Kaisho-g6" kvg:element="柬" kvg:position="right">
		<g id="kvg:09c0a-Kaisho-g7" kvg:element="束" kvg:part="1">
			<g id="kvg:09c0a-Kaisho-g8" kvg:element="木" kvg:part="1">
				<path id="kvg:09c0a-Kaisho-s12" kvg:type="㇐" d="M49.08,29.07c1.04,0.4,2.81,0.77,4.6,0.58c10.82-1.15,26.62-3.25,34.54-3.97c1.95-0.18,3.79-0.04,5.53,0.31"/>
			</g>
			<g id="kvg:09c0a-Kaisho-g9" kvg:element="口" kvg:part="1">
				<path id="kvg:09c0a-Kaisho-s13" kvg:type="㇑" d="M51.76,39.75c0.23,0.4,0.48,0.72,0.58,1.22c0.81,3.91,2.21,13.26,2.77,20.29"/>
				<path id="kvg:09c0a-Kaisho-s14" kvg:type="㇕" d="M52.64,41.97c7.05-1.57,32.97-4.11,35.72-4.48c1.72-0.23,3.11,1.81,2.84,3.99c-0.77,6.35-3.59,13.78-4.56,18.08"/>
			</g>
		</g>
		<path id="kvg:09c0a-Kaisho-s15" kvg:type="㇔" d="M59.22,45.46c2.17,1.51,5.62,6.22,6.16,8.57"/>
		<path id="kvg:09c0a-Kaisho-s16" kvg:type="㇒" d="M82.06,43.35c0.02,0.22,0.03,0.57-0.03,0.89c-0.35,1.88-2.35,6.02-5.09,8.55"/>
		<g id="kvg:09c0a-Kaisho-g10" kvg:element="束">
			<g id="kvg:09c0a-Kaisho-g11" kvg:element="口" kvg:part="2">
				<path id="kvg:09c0a-Kaisho-s17" kvg:type="㇐" d="M54.93,59.49c7.69-0.88,24.66-2.08,31.85-2.52"/>
			</g>
			<g id="kvg:09c0a-Kaisho-g12" kvg:element="木" kvg:part="2">
				<path id="kvg:09c0a-Kaisho-s18" kvg:type="㇑" d="M69.26,13.75c0.81,0.5,1.3,2.25,1.47,3.25c0.16,1-0.16,69.25-0.16,75.5c0,12.25-4.94,2.38-6.32,1"/>
				<path id="kvg:09c0a-Kaisho-s19" kvg:type="㇒" d="M70.07,59.25c-4.5,9.98-14.32,24-25.57,29.75"/>
				<path id="kvg:09c0a-Kaisho-s20" kvg:type="㇏" d="M70.87,58.75C75.25,65,87.75,80,93.73,84.36c1.47,1.07,2.45,1.78,3.77,2.14"/>
			</g>
		</g>
	</g>
</g>
</g>
<g id="kvg:StrokeNumbers_09c0a-Kaisho" style="font-size:8;fill:#808080">
	<text transform="matrix(1 0 0 1 17.50 16.50)">1</text>
	<text transform="matrix(1 0 0 1 29.50 17.50)">2</text>
	<text transform="matrix(1 0 0 1 6.50 50.50)">3</text>
	<text transform="matrix(1 0 0 1 16.50 41.50)">4</text>
	<text transform="matrix(1 0 0 1 31.50 50.50)">5</text>
	<text transform="matrix(1 0 0 1 18.50 53.50)">6</text>
	<text transform="matrix(1 0 0 1 19.50 67.50)">7</text>
	<text transform="matrix(1 0 0 1 7.60 82.50)">8</text>
	<text transform="matrix(1 0 0 1 15.59 86.50)">9</text>
	<text transform="matrix(1 0 0 1 22.50 83.50)">10</text>
	<text transform="matrix(1 0 0 1 31.20 80.50)">11</text>
	<text transform="matrix(1 0 0 1 47.50 26.50)">12</text>
	<text transform="matrix(1 0 0 1 45.50 48.50)">13</text>
	<text transform="matrix(1 0 0 1 53.50 38.40)">14</text>
	<text transform="matrix(1 0 0 1 60.50 47.33)">15</text>
	<text transform="matrix(1 0 0 1 72.75 46.75)">16</text>
	<text transform="matrix(1 0 0 1 56.25 57.18)">17</text>
	<text transform="matrix(1 0 0 1 57.50 14.50)">18</text>
	<text transform="matrix(1 0 0 1 54.50 69.50)">19</text>
	<text transform="matrix(1 0 0 1 79.50 67.50)">20</text>
</g>
</svg>
