<?xml version="1.0" encoding="UTF-8"?>
<!--
Copyright (C) 2009/2010/2011 Ulrich Apel.
This work is distributed under the conditions of the Creative Commons 
Attribution-Share Alike 3.0 Licence. This means you are free:
* to Share - to copy, distribute and transmit the work
* to Remix - to adapt the work

Under the following conditions:
* Attribution. You must attribute the work by stating your use of KanjiVG in
  your own copyright header and linking to KanjiVG's website
  (http://kanjivg.tagaini.net)
* Share Alike. If you alter, transform, or build upon this work, you may
  distribute the resulting work only under the same or similar license to this
  one.

See http://creativecommons.org/licenses/by-sa/3.0/ for more details.
-->
<!DOCTYPE svg PUBLIC "-//W3C//DTD SVG 1.0//EN" "http://www.w3.org/TR/2001/REC-SVG-20010904/DTD/svg10.dtd" [
<!ATTLIST g
xmlns:kvg CDATA #FIXED "http://kanjivg.tagaini.net"
kvg:element CDATA #IMPLIED
kvg:variant CDATA #IMPLIED
kvg:partial CDATA #IMPLIED
kvg:original CDATA #IMPLIED
kvg:part CDATA #IMPLIED
kvg:number CDATA #IMPLIED
kvg:tradForm CDATA #IMPLIED
kvg:radicalForm CDATA #IMPLIED
kvg:position CDATA #IMPLIED
kvg:radical CDATA #IMPLIED
kvg:phon CDATA #IMPLIED >
<!ATTLIST path
xmlns:kvg CDATA #FIXED "http://kanjivg.tagaini.net"
kvg:type CDATA #IMPLIED >
]>
<svg xmlns="http://www.w3.org/2000/svg" width="109" height="109" viewBox="0 0 109 109">
<g id="kvg:StrokePaths_09c14-Kaisho" style="fill:none;stroke:#000000;stroke-width:3;stroke-linecap:round;stroke-linejoin:round;">
<g id="kvg:09c14-Kaisho" kvg:element="鰔">
	<g id="kvg:09c14-Kaisho-g1" kvg:element="魚" kvg:position="left" kvg:radical="general">
		<g id="kvg:09c14-Kaisho-g2" kvg:element="𠂊" kvg:variant="true" kvg:original="勹" kvg:position="top">
			<path id="kvg:09c14-Kaisho-s1" kvg:type="㇒" d="M25.99,12.25c0.04,0.56,0.21,1.49-0.08,2.26C23.75,20.25,19,28.5,10.74,37.12"/>
			<path id="kvg:09c14-Kaisho-s2" kvg:type="㇇" d="M22.89,21.88c1.93,0,12.82-2.44,14.85-2.73c1.74-0.25,2.13,2.17,1.41,3.4c-3.05,5.19-5.48,8.66-10.45,16.9"/>
		</g>
		<g id="kvg:09c14-Kaisho-g3" kvg:position="bottom">
			<g id="kvg:09c14-Kaisho-g4" kvg:element="田">
				<path id="kvg:09c14-Kaisho-s3" kvg:type="㇑" d="M15.52,40.2c0.2,0.54,0.2,0.91,0.31,1.59c0.87,5.56,1.76,20.1,2.28,30.4"/>
				<path id="kvg:09c14-Kaisho-s4" kvg:type="㇕a" d="M15.94,41.67c6.95-0.9,18.8-2.56,23.98-3.36c1.9-0.29,2.87,1.28,2.77,2.79c-0.38,5.52-0.65,18-2.22,28.28"/>
				<path id="kvg:09c14-Kaisho-s5" kvg:type="㇑a" d="M28.03,41.34c0.78,0.75,1.38,3.02,1.39,4.8c0.07,7.85-0.06,17.95-0.07,21.84"/>
				<path id="kvg:09c14-Kaisho-s6" kvg:type="㇐a" d="M18.12,55.35c5.35-0.92,10.8-1.48,16.19-2.15c0.65-0.08,1.28-0.16,1.88-0.23"/>
				<path id="kvg:09c14-Kaisho-s7" kvg:type="㇐a" d="M18.48,70.06c5-0.24,15.44-1.98,22.34-2.46"/>
			</g>
			<g id="kvg:09c14-Kaisho-g5" kvg:element="灬" kvg:variant="true" kvg:original="火">
				<path id="kvg:09c14-Kaisho-s8" kvg:type="㇔" d="M14.07,80.82c0,5.32-1.66,13.16-2.09,14.68"/>
				<path id="kvg:09c14-Kaisho-s9" kvg:type="㇔" d="M21.89,79.33c1.08,2.36,2.1,8.87,2.37,12.54"/>
				<path id="kvg:09c14-Kaisho-s10" kvg:type="㇔" d="M29.75,77.94c1.61,2.07,4.16,8.5,4.57,11.71"/>
				<path id="kvg:09c14-Kaisho-s11" kvg:type="㇔" d="M37.3,73.87c2.01,1.81,5.2,7.46,5.7,10.28"/>
			</g>
		</g>
	</g>
	<g id="kvg:09c14-Kaisho-g6" kvg:element="咸" kvg:position="right">
		<g id="kvg:09c14-Kaisho-g7" kvg:element="戍" kvg:part="1" kvg:variant="true" kvg:original="戌">
			<g id="kvg:09c14-Kaisho-g8" kvg:element="厂" kvg:part="1">
				<path id="kvg:09c14-Kaisho-s12" kvg:type="㇒" d="M54.16,34.03c0.03,1.35-0.03,3.47-0.06,5.41c-0.24,18.1-3.21,44.17-9.55,52.59"/>
			</g>
			<g id="kvg:09c14-Kaisho-g9" kvg:element="戈" kvg:part="1">
				<g id="kvg:09c14-Kaisho-g10" kvg:element="弋" kvg:part="1">
					<g id="kvg:09c14-Kaisho-g11" kvg:element="厂" kvg:part="2">
						<path id="kvg:09c14-Kaisho-s13" kvg:type="㇐" d="M51.79,32.94c1.1,0.49,3.12,0.61,4.23,0.49c6.48-0.68,21.05-2.18,33.27-3.27c1.83-0.16,2.94-0.26,3.86-0.02"/>
					</g>
				</g>
				<g id="kvg:09c14-Kaisho-g12" kvg:element="一">
					<path id="kvg:09c14-Kaisho-s14" kvg:type="㇐" d="M58.6,47.73c1.36,0.27,3.28,0.1,4.11-0.07c2.95-0.59,5.3-0.89,8-1.28c1.38-0.2,2.58-0.36,3.28-0.14"/>
				</g>
			</g>
		</g>
		<g id="kvg:09c14-Kaisho-g13" kvg:element="口">
			<path id="kvg:09c14-Kaisho-s15" kvg:type="㇑" d="M58.29,58.05c0.31,0.39,0.62,0.72,0.75,1.21c1.06,3.9,1.79,11.91,2.51,18.92"/>
			<path id="kvg:09c14-Kaisho-s16" kvg:type="㇕b" d="M60.2,59.7c3.3-0.7,7.21-1.28,10.8-1.8c1.31-0.19,2.1,1.11,1.91,2.21c-0.78,4.56-0.87,7.76-2.02,14.06"/>
			<path id="kvg:09c14-Kaisho-s17" kvg:type="㇐b" d="M61.37,75.93c4.13-0.43,8.63-1.19,11.82-1.19"/>
		</g>
		<g id="kvg:09c14-Kaisho-g14" kvg:element="戍" kvg:part="2" kvg:variant="true" kvg:original="戌">
			<g id="kvg:09c14-Kaisho-g15" kvg:element="戈" kvg:part="2">
				<g id="kvg:09c14-Kaisho-g16" kvg:element="弋" kvg:part="2">
					<path id="kvg:09c14-Kaisho-s18" kvg:type="㇂" d="M74.54,12.25c1.08,1.76,1.57,2.24,1.75,6.03c1.38,29.65,6.39,59.49,17.22,75.27c3.48,5.07,4.08-1.6,3.54-9.39"/>
				</g>
				<g id="kvg:09c14-Kaisho-g17" kvg:element="丿">
					<path id="kvg:09c14-Kaisho-s19" kvg:type="㇒" d="M91.67,43.37c0.07,1.11,0.14,2.86-0.13,4.44c-1.63,9.37-10.68,30.72-23.5,43.3"/>
				</g>
				<g id="kvg:09c14-Kaisho-g18" kvg:element="弋" kvg:part="3">
					<g id="kvg:09c14-Kaisho-g19" kvg:element="丶">
						<path id="kvg:09c14-Kaisho-s20" kvg:type="㇔" d="M85.39,16.62c2.61,1.46,6.77,4.79,7.99,7.29"/>
					</g>
				</g>
			</g>
		</g>
	</g>
</g>
</g>
<g id="kvg:StrokeNumbers_09c14-Kaisho" style="font-size:8;fill:#808080">
	<text transform="matrix(1 0 0 1 19.50 12.50)">1</text>
	<text transform="matrix(1 0 0 1 30.50 17.50)">2</text>
	<text transform="matrix(1 0 0 1 8.71 47.50)">3</text>
	<text transform="matrix(1 0 0 1 18.50 38.85)">4</text>
	<text transform="matrix(1 0 0 1 32.50 47.50)">5</text>
	<text transform="matrix(1 0 0 1 20.58 52.50)">6</text>
	<text transform="matrix(1 0 0 1 21.63 67.50)">7</text>
	<text transform="matrix(1 0 0 1 7.60 79.50)">8</text>
	<text transform="matrix(1 0 0 1 17.50 85.50)">9</text>
	<text transform="matrix(1 0 0 1 24.50 83.50)">10</text>
	<text transform="matrix(1 0 0 1 32.50 80.50)">11</text>
	<text transform="matrix(1 0 0 1 45.50 39.50)">12</text>
	<text transform="matrix(1 0 0 1 54.50 30.50)">13</text>
	<text transform="matrix(1 0 0 1 58.50 45.50)">14</text>
	<text transform="matrix(1 0 0 1 52.75 68.50)">15</text>
	<text transform="matrix(1 0 0 1 59.50 56.50)">16</text>
	<text transform="matrix(1 0 0 1 63.50 72.50)">17</text>
	<text transform="matrix(1 0 0 1 61.50 12.50)">18</text>
	<text transform="matrix(1 0 0 1 85.50 40.28)">19</text>
	<text transform="matrix(1 0 0 1 82.50 14.50)">20</text>
</g>
</svg>
