<?xml version="1.0" encoding="UTF-8"?>
<!--
Copyright (C) 2009/2010/2011 Ulrich Apel.
This work is distributed under the conditions of the Creative Commons 
Attribution-Share Alike 3.0 Licence. This means you are free:
* to Share - to copy, distribute and transmit the work
* to Remix - to adapt the work

Under the following conditions:
* Attribution. You must attribute the work by stating your use of KanjiVG in
  your own copyright header and linking to KanjiVG's website
  (http://kanjivg.tagaini.net)
* Share Alike. If you alter, transform, or build upon this work, you may
  distribute the resulting work only under the same or similar license to this
  one.

See http://creativecommons.org/licenses/by-sa/3.0/ for more details.
-->
<!DOCTYPE svg PUBLIC "-//W3C//DTD SVG 1.0//EN" "http://www.w3.org/TR/2001/REC-SVG-20010904/DTD/svg10.dtd" [
<!ATTLIST g
xmlns:kvg CDATA #FIXED "http://kanjivg.tagaini.net"
kvg:element CDATA #IMPLIED
kvg:variant CDATA #IMPLIED
kvg:partial CDATA #IMPLIED
kvg:original CDATA #IMPLIED
kvg:part CDATA #IMPLIED
kvg:number CDATA #IMPLIED
kvg:tradForm CDATA #IMPLIED
kvg:radicalForm CDATA #IMPLIED
kvg:position CDATA #IMPLIED
kvg:radical CDATA #IMPLIED
kvg:phon CDATA #IMPLIED >
<!ATTLIST path
xmlns:kvg CDATA #FIXED "http://kanjivg.tagaini.net"
kvg:type CDATA #IMPLIED >
]>
<svg xmlns="http://www.w3.org/2000/svg" width="109" height="109" viewBox="0 0 109 109">
<g id="kvg:StrokePaths_09c2f-Jinmei" style="fill:none;stroke:#000000;stroke-width:3;stroke-linecap:round;stroke-linejoin:round;">
<g id="kvg:09c2f-Jinmei" kvg:element="鰯">
	<g id="kvg:09c2f-Jinmei-g1" kvg:element="魚" kvg:position="left" kvg:radical="general">
		<g id="kvg:09c2f-Jinmei-g2" kvg:element="𠂊" kvg:variant="true" kvg:original="勹" kvg:position="top">
			<path id="kvg:09c2f-Jinmei-s1" kvg:type="㇒" d="M26.82,12.25c0.05,0.69,0.1,1.78-0.09,2.77c-1.13,5.83-7.61,18.63-16.5,26.47"/>
			<path id="kvg:09c2f-Jinmei-s2" kvg:type="㇇" d="M23.83,24.21c1.42,0.29,2.47,0.35,3.77,0.13c4.35-0.75,10.98-2.91,12.59-3.12c1.79-0.23,2.2,1.98,1.45,3.1c-3.15,4.73-6.24,9.27-11.37,16.78"/>
		</g>
		<g id="kvg:09c2f-Jinmei-g3" kvg:position="bottom">
			<g id="kvg:09c2f-Jinmei-g4" kvg:element="田">
				<path id="kvg:09c2f-Jinmei-s3" kvg:type="㇑" d="M15.54,41.83c0.2,0.46,0.71,1.78,0.82,2.37c0.81,4.19,1.66,14.35,2.25,22.81c0.08,1.22,0.16,2.4,0.24,3.53"/>
				<path id="kvg:09c2f-Jinmei-s4" kvg:type="㇕a" d="M17,43.49c0.91-0.15,1.92-0.31,3-0.48c7.41-1.12,18.09-2.42,22.76-3.31c1.96-0.37,2.97,0.94,2.87,2.26c-0.32,4.19-1.3,13.92-2.59,22.33c-0.2,1.29-0.4,2.54-0.61,3.75"/>
				<path id="kvg:09c2f-Jinmei-s5" kvg:type="㇑a" d="M29.46,42.16c0.81,0.6,1.43,2.55,1.46,4.1c0.11,6.83,0.02,16.51,0.02,19.9"/>
				<path id="kvg:09c2f-Jinmei-s6" kvg:type="㇐a" d="M18.79,55.37c2.34-0.47,23.35-2.43,25.28-2.62"/>
				<path id="kvg:09c2f-Jinmei-s7" kvg:type="㇐a" d="M19.21,68.23c5.16-0.51,16.43-1.66,23.56-2.5"/>
			</g>
			<g id="kvg:09c2f-Jinmei-g5" kvg:element="灬" kvg:variant="true" kvg:original="火">
				<path id="kvg:09c2f-Jinmei-s8" kvg:type="㇔" d="M16.77,81.1c0,4.85-3.12,12.02-3.94,13.4"/>
				<path id="kvg:09c2f-Jinmei-s9" kvg:type="㇔" d="M24.06,78.83c1.04,2.4,2.03,9,2.29,12.74"/>
				<path id="kvg:09c2f-Jinmei-s10" kvg:type="㇔" d="M32.18,77.67c1.75,2.05,4.52,8.45,4.96,11.64"/>
				<path id="kvg:09c2f-Jinmei-s11" kvg:type="㇔" d="M40.97,75.31c1.96,1.84,5.07,7.58,5.55,10.45"/>
			</g>
		</g>
	</g>
	<g id="kvg:09c2f-Jinmei-g6" kvg:element="弱" kvg:variant="true" kvg:position="right">
		<g id="kvg:09c2f-Jinmei-g7" kvg:element="弓" kvg:position="left">
			<path id="kvg:09c2f-Jinmei-s12" kvg:type="㇕c" d="M47.84,19.48c0.95,0.61,3.02,0.56,3.95,0.46c5.69-0.62,11.67-2.41,15.09-3.19c1.89-0.43,2.88-0.27,2.34,1.71c-0.55,1.98-2.04,10.82-3.37,15.1"/>
			<path id="kvg:09c2f-Jinmei-s13" kvg:type="㇐" d="M57.25,35.75c1.75,0,6.5-1.5,7.75-1.5s2.5-0.5,3.5-0.5"/>
			<path id="kvg:09c2f-Jinmei-s14" kvg:type="㇉" d="M56.52,34.51c0.43,0.99,0.82,2.14,0.54,3.71c-0.32,1.79-2.81,7.78-5.02,12.09c-1.23,2.4,0.3,2.98,1.57,2.46c3.03-1.24,10.37-3.49,12.71-3.66c1.9-0.14,2.58,1.3,2.66,4.71c0.27,10.94,0.71,25.85-3.78,38.45c-1.55,4.35-4.95,4.74-6.94,0.93"/>
		</g>
		<g id="kvg:09c2f-Jinmei-g8" kvg:position="right">
			<g id="kvg:09c2f-Jinmei-g9" kvg:element="冫" kvg:variant="true">
				<g id="kvg:09c2f-Jinmei-g10" kvg:position="top">
					<path id="kvg:09c2f-Jinmei-s15" kvg:type="㇒/㇔" d="M63.25,52.96c0.13,1.27-0.15,1.73-0.85,2.88c-2.61,4.29-6.87,8.7-12.84,13.29"/>
				</g>
				<g id="kvg:09c2f-Jinmei-g11" kvg:position="bottom">
					<path id="kvg:09c2f-Jinmei-s16" kvg:type="㇒/㇀" d="M66.03,63.69c0.12,1.21-0.01,1.83-0.63,2.89c-2.95,5.02-7.52,10.13-14.13,15.62"/>
				</g>
			</g>
			<g id="kvg:09c2f-Jinmei-g12" kvg:element="弓">
				<path id="kvg:09c2f-Jinmei-s17" kvg:type="㇕c" d="M75.03,16.45c1.56,0.86,3.03,0.64,3.95,0.46c3.27-0.62,10.09-1.42,11.92-2.16c1.83-0.74,2.88-0.27,2.33,1.71c-0.55,1.98-1.3,6.98-2.96,14.59"/>
				<path id="kvg:09c2f-Jinmei-s18" kvg:type="㇐" d="M80.75,32.75c1.75,0,6.5-1.5,7.75-1.5s2.5-0.5,3.5-0.5"/>
				<path id="kvg:09c2f-Jinmei-s19" kvg:type="㇉" d="M79.57,31.98c0.43,0.99,0.32,1.14,0.04,2.71c-0.32,1.79-2.86,8.06-3.98,11.58c-0.37,1.18,0.28,2.89,1.57,2.46c5.23-1.75,13.27-3.47,15.6-3.65c1.9-0.14,3.03,1.33,2.66,4.71c-1.77,16.36-0.63,30.06-4.89,40.99c-2.33,5.97-7.38,4.69-8.53,1.92"/>
			</g>
			<g id="kvg:09c2f-Jinmei-g13" kvg:element="冫" kvg:variant="true">
				<g id="kvg:09c2f-Jinmei-g14" kvg:position="top">
					<path id="kvg:09c2f-Jinmei-s20" kvg:type="㇒/㇔" d="M87.65,49.41c0.1,0.78,0.01,1.52-0.28,2.23c-1.31,3.6-6.3,10.43-12.99,14.71"/>
				</g>
				<g id="kvg:09c2f-Jinmei-g15" kvg:position="bottom">
					<path id="kvg:09c2f-Jinmei-s21" kvg:type="㇒/㇀" d="M90.85,61.17c0.15,1.44-0.1,2.21-0.8,3.5c-3.21,5.9-9.73,12.93-18.24,19.06"/>
				</g>
			</g>
		</g>
	</g>
</g>
</g>
<g id="kvg:StrokeNumbers_09c2f-Jinmei" style="font-size:8;fill:#808080">
	<text transform="matrix(1 0 0 1 18.50 13.50)">1</text>
	<text transform="matrix(1 0 0 1 32.50 20.50)">2</text>
	<text transform="matrix(1 0 0 1 9.50 49.85)">3</text>
	<text transform="matrix(1 0 0 1 20.50 39.50)">4</text>
	<text transform="matrix(1 0 0 1 33.50 48.50)">5</text>
	<text transform="matrix(1 0 0 1 21.50 52.50)">6</text>
	<text transform="matrix(1 0 0 1 22.50 65.50)">7</text>
	<text transform="matrix(1 0 0 1 11.50 78.50)">8</text>
	<text transform="matrix(1 0 0 1 18.50 77.50)">9</text>
	<text transform="matrix(1 0 0 1 22.50 77.50)">10</text>
	<text transform="matrix(1 0 0 1 32.10 75.50)">11</text>
	<text transform="matrix(1 0 0 1 46.50 16.50)">12</text>
	<text transform="matrix(1 0 0 1 53.00 32.50)">13</text>
	<text transform="matrix(1 0 0 1 47.50 42.50)">14</text>
	<text transform="matrix(1 0 0 1 50.75 60.83)">15</text>
	<text transform="matrix(1 0 0 1 53.00 72.50)">16</text>
	<text transform="matrix(1 0 0 1 71.50 13.50)">17</text>
	<text transform="matrix(1 0 0 1 76.50 29.50)">18</text>
	<text transform="matrix(1 0 0 1 69.00 39.00)">19</text>
	<text transform="matrix(1 0 0 1 76.50 55.50)">20</text>
	<text transform="matrix(1 0 0 1 83.50 65.50)">21</text>
</g>
</svg>
