<?xml version="1.0" encoding="UTF-8"?>
<!--
Copyright (C) 2009/2010/2011 Ulrich Apel.
This work is distributed under the conditions of the Creative Commons 
Attribution-Share Alike 3.0 Licence. This means you are free:
* to Share - to copy, distribute and transmit the work
* to Remix - to adapt the work

Under the following conditions:
* Attribution. You must attribute the work by stating your use of KanjiVG in
  your own copyright header and linking to KanjiVG's website
  (http://kanjivg.tagaini.net)
* Share Alike. If you alter, transform, or build upon this work, you may
  distribute the resulting work only under the same or similar license to this
  one.

See http://creativecommons.org/licenses/by-sa/3.0/ for more details.
-->
<!DOCTYPE svg PUBLIC "-//W3C//DTD SVG 1.0//EN" "http://www.w3.org/TR/2001/REC-SVG-20010904/DTD/svg10.dtd" [
<!ATTLIST g
xmlns:kvg CDATA #FIXED "http://kanjivg.tagaini.net"
kvg:element CDATA #IMPLIED
kvg:variant CDATA #IMPLIED
kvg:partial CDATA #IMPLIED
kvg:original CDATA #IMPLIED
kvg:part CDATA #IMPLIED
kvg:number CDATA #IMPLIED
kvg:tradForm CDATA #IMPLIED
kvg:radicalForm CDATA #IMPLIED
kvg:position CDATA #IMPLIED
kvg:radical CDATA #IMPLIED
kvg:phon CDATA #IMPLIED >
<!ATTLIST path
xmlns:kvg CDATA #FIXED "http://kanjivg.tagaini.net"
kvg:type CDATA #IMPLIED >
]>
<svg xmlns="http://www.w3.org/2000/svg" width="109" height="109" viewBox="0 0 109 109">
<g id="kvg:StrokePaths_09d09-Kaisho" style="fill:none;stroke:#000000;stroke-width:3;stroke-linecap:round;stroke-linejoin:round;">
<g id="kvg:09d09-Kaisho" kvg:element="鴉">
	<g id="kvg:09d09-Kaisho-g1" kvg:element="牙" kvg:position="left" kvg:radical="nelson">
		<path id="kvg:09d09-Kaisho-s1" kvg:type="㇐" d="M15.36,19.95c0.86,0.42,2.44,0.47,3.3,0.42c6.56-0.37,18.33-2.92,26.94-3.19c1.44-0.05,2.3,0.2,3.01,0.41"/>
		<path id="kvg:09d09-Kaisho-s2" kvg:type="㇗" d="M16.87,25.4c1.22,1.09,1.32,2.46,1.31,3.7c-0.9,6.53-1.72,11.31-2.97,14.57c-0.93,2.43,0.39,2.68,2.27,2.18c4.9-1.31,22.8-3.57,31.07-3.01c1.43,0.1,2.3,0.2,3.01,0.41"/>
		<g id="kvg:09d09-Kaisho-g2" kvg:element="亅">
			<path id="kvg:09d09-Kaisho-s3" kvg:type="㇚" d="M33.98,23.46c0.98,0.97,1.81,2.84,1.88,6.3c0.34,16.61-0.22,53.19-0.22,58.85c0,11.31-6.49,3.33-8.68,1.22"/>
		</g>
		<g id="kvg:09d09-Kaisho-g3" kvg:element="丿">
			<path id="kvg:09d09-Kaisho-s4" kvg:type="㇒" d="M35.53,43.72c0.6,0.44,0.42,1.91,0.04,2.7C31.25,55.5,23.25,66.5,8.95,78.26"/>
		</g>
	</g>
	<g id="kvg:09d09-Kaisho-g4" kvg:element="鳥" kvg:position="right" kvg:radical="tradit">
		<path id="kvg:09d09-Kaisho-s5" kvg:type="㇒" d="M71.04,10.66c0.02,0.28,0.04,0.72-0.03,1.11c-0.41,2.32-2.74,7.29-5.93,10.18"/>
		<path id="kvg:09d09-Kaisho-s6" kvg:type="㇑" d="M58.8,22.92c0.33,0.43,0.6,1.02,0.6,1.73c0,7.23,0.04,32.01-0.17,43.38"/>
		<path id="kvg:09d09-Kaisho-s7" kvg:type="㇕a" d="M59.81,24.25c1.55,0,21.5-3.17,23.01-3.06c2.24,0.16,3.33,2.15,3.13,4.02c-0.12,1.15-1.14,12.19-2.58,20.96"/>
		<path id="kvg:09d09-Kaisho-s8" kvg:type="㇐a" d="M60.06,35.58c3.96,0.28,8.4-0.83,12.31-1.3c1.42-0.17,2.83-0.34,4.18-0.5"/>
		<path id="kvg:09d09-Kaisho-s9" kvg:type="㇐a" d="M59.97,47.12c3.88-0.14,18.55-2.48,23.38-2.5"/>
		<path id="kvg:09d09-Kaisho-s10" kvg:type="㇐b" d="M60.19,57.36c8.18-0.84,29.29-2.86,32.8-3.38c1.22-0.19,3.3-0.35,3.92-0.11"/>
		<path id="kvg:09d09-Kaisho-s11" kvg:type="㇆a" d="M59.24,68.25c9.1-1.63,26.13-3.42,31.17-3.9c3.28-0.31,4.97,0.89,4.38,4.57c-1.64,10.24-3.54,17.32-8.43,25.75c-3.48,6-6.47,0.54-7.8-0.74"/>
		<g id="kvg:09d09-Kaisho-g5" kvg:element="灬" kvg:variant="true" kvg:original="火">
			<path id="kvg:09d09-Kaisho-s12" kvg:type="㇔" d="M52.77,78.23c-0.02,3.77-1.89,9.77-3.5,11.94"/>
			<path id="kvg:09d09-Kaisho-s13" kvg:type="㇔" d="M59.82,77.24c1.38,2.08,2.7,7.56,3.04,10.62"/>
			<path id="kvg:09d09-Kaisho-s14" kvg:type="㇔" d="M69.19,75.54c1.17,1.73,3.03,6.96,3.32,9.51"/>
			<path id="kvg:09d09-Kaisho-s15" kvg:type="㇔" d="M78.16,73.98c1.54,1.71,3.97,6.88,4.36,9.39"/>
		</g>
	</g>
</g>
</g>
<g id="kvg:StrokeNumbers_09d09-Kaisho" style="font-size:8;fill:#808080">
	<text transform="matrix(1 0 0 1 8.50 19.50)">1</text>
	<text transform="matrix(1 0 0 1 8.50 28.50)">2</text>
	<text transform="matrix(1 0 0 1 26.50 29.48)">3</text>
	<text transform="matrix(1 0 0 1 24.50 53.50)">4</text>
	<text transform="matrix(1 0 0 1 62.50 10.50)">5</text>
	<text transform="matrix(1 0 0 1 51.50 28.50)">6</text>
	<text transform="matrix(1 0 0 1 59.50 20.50)">7</text>
	<text transform="matrix(1 0 0 1 63.50 32.50)">8</text>
	<text transform="matrix(1 0 0 1 63.50 43.50)">9</text>
	<text transform="matrix(1 0 0 1 62.50 54.45)">10</text>
	<text transform="matrix(1 0 0 1 62.50 64.13)">11</text>
	<text transform="matrix(1 0 0 1 44.00 78.50)">12</text>
	<text transform="matrix(1 0 0 1 53.50 84.50)">13</text>
	<text transform="matrix(1 0 0 1 62.75 82.15)">14</text>
	<text transform="matrix(1 0 0 1 72.50 80.50)">15</text>
</g>
</svg>
