<?xml version="1.0" encoding="UTF-8"?>
<!--
Copyright (C) 2009/2010/2011 Ulrich Apel.
This work is distributed under the conditions of the Creative Commons 
Attribution-Share Alike 3.0 Licence. This means you are free:
* to Share - to copy, distribute and transmit the work
* to Remix - to adapt the work

Under the following conditions:
* Attribution. You must attribute the work by stating your use of KanjiVG in
  your own copyright header and linking to KanjiVG's website
  (http://kanjivg.tagaini.net)
* Share Alike. If you alter, transform, or build upon this work, you may
  distribute the resulting work only under the same or similar license to this
  one.

See http://creativecommons.org/licenses/by-sa/3.0/ for more details.
-->
<!DOCTYPE svg PUBLIC "-//W3C//DTD SVG 1.0//EN" "http://www.w3.org/TR/2001/REC-SVG-20010904/DTD/svg10.dtd" [
<!ATTLIST g
xmlns:kvg CDATA #FIXED "http://kanjivg.tagaini.net"
kvg:element CDATA #IMPLIED
kvg:variant CDATA #IMPLIED
kvg:partial CDATA #IMPLIED
kvg:original CDATA #IMPLIED
kvg:part CDATA #IMPLIED
kvg:number CDATA #IMPLIED
kvg:tradForm CDATA #IMPLIED
kvg:radicalForm CDATA #IMPLIED
kvg:position CDATA #IMPLIED
kvg:radical CDATA #IMPLIED
kvg:phon CDATA #IMPLIED >
<!ATTLIST path
xmlns:kvg CDATA #FIXED "http://kanjivg.tagaini.net"
kvg:type CDATA #IMPLIED >
]>
<svg xmlns="http://www.w3.org/2000/svg" width="109" height="109" viewBox="0 0 109 109">
<g id="kvg:StrokePaths_09d07-Kaisho" style="fill:none;stroke:#000000;stroke-width:3;stroke-linecap:round;stroke-linejoin:round;">
<g id="kvg:09d07-Kaisho" kvg:element="鴇">
	<g id="kvg:09d07-Kaisho-g1" kvg:position="left">
		<g id="kvg:09d07-Kaisho-g2" kvg:element="匕" kvg:position="top">
			<path id="kvg:09d07-Kaisho-s1" kvg:type="㇒" d="M43.79,17.52c0.19,0.24,0.31,0.93-0.18,1.3c-3.21,2.37-14.23,8.91-24.6,11.34"/>
			<path id="kvg:09d07-Kaisho-s2" kvg:type="㇟" d="M17.33,15.25c0.59,0.41,1.13,2.19,1.33,2.74c0.2,0.55-0.3,15.37-0.3,17.09c0,6.42,5.68,6.74,15.16,6.74S49,41.5,49,34.43"/>
		</g>
		<g id="kvg:09d07-Kaisho-g3" kvg:element="十" kvg:position="bottom">
			<path id="kvg:09d07-Kaisho-s3" kvg:type="㇐" d="M10.15,66.23c1.04,0.34,2.23,0.38,3.43,0.34C22.5,66.25,37,63.5,46.72,62.42c1.19-0.13,1.94,0.06,3.14,0.3"/>
			<path id="kvg:09d07-Kaisho-s4" kvg:type="㇑" d="M30.96,48.5c0.75,0.3,1.34,1.83,1.34,2.44c0,6.27,0,41.33-0.15,45.06"/>
		</g>
	</g>
	<g id="kvg:09d07-Kaisho-g4" kvg:element="鳥" kvg:position="right" kvg:radical="general">
		<path id="kvg:09d07-Kaisho-s5" kvg:type="㇒" d="M69.04,9.66c0.02,0.28,0.04,0.72-0.03,1.11c-0.41,2.32-2.74,7.29-5.93,10.18"/>
		<path id="kvg:09d07-Kaisho-s6" kvg:type="㇑" d="M57.3,21.42c0.33,0.43,0.6,1.02,0.6,1.73c0,7.23-0.46,35.51-0.67,46.88"/>
		<path id="kvg:09d07-Kaisho-s7" kvg:type="㇕a" d="M58.81,22.75c1.55,0,22.5-3.17,24.01-3.06c2.24,0.16,3.33,2.15,3.13,4.02C85.83,24.85,83,39,81.87,45.67"/>
		<path id="kvg:09d07-Kaisho-s8" kvg:type="㇐a" d="M58.06,34.08c4.25,0.27,8.95-0.83,13.15-1.3c1.51-0.17,3.03-0.34,4.48-0.5"/>
		<path id="kvg:09d07-Kaisho-s9" kvg:type="㇐a" d="M57.97,46.12c3.88-0.14,19.55-2.48,24.38-2.5"/>
		<path id="kvg:09d07-Kaisho-s10" kvg:type="㇐b" d="M57.69,57.86c8.18-0.84,28.29-2.86,31.8-3.38c1.22-0.19,3.3-0.35,3.92-0.11"/>
		<path id="kvg:09d07-Kaisho-s11" kvg:type="㇆a" d="M57.24,70.25c9.1-1.63,30.63-4.42,35.67-4.9c3.28-0.31,4.97,0.89,4.38,4.57c-1.64,10.24-3.79,18.82-7.93,25.25c-3.76,5.84-5.97,1.04-7.3-0.24"/>
		<g id="kvg:09d07-Kaisho-g5" kvg:element="灬" kvg:variant="true" kvg:original="火">
			<path id="kvg:09d07-Kaisho-s12" kvg:type="㇔" d="M53.27,79.98c0.4,4.69-0.29,10.31-1.46,13.19"/>
			<path id="kvg:09d07-Kaisho-s13" kvg:type="㇔" d="M60.82,79.49c1.84,1.84,3.58,6.67,4.04,9.37"/>
			<path id="kvg:09d07-Kaisho-s14" kvg:type="㇔" d="M70.23,78.29c1.68,1.32,4.32,5.31,4.75,7.26"/>
			<path id="kvg:09d07-Kaisho-s15" kvg:type="㇔" d="M80.16,75.98c1.71,1.35,4.43,5.41,4.86,7.39"/>
		</g>
	</g>
</g>
</g>
<g id="kvg:StrokeNumbers_09d07-Kaisho" style="font-size:8;fill:#808080">
	<text transform="matrix(1 0 0 1 35.50 16.50)">1</text>
	<text transform="matrix(1 0 0 1 9.50 15.50)">2</text>
	<text transform="matrix(1 0 0 1 9.50 63.50)">3</text>
	<text transform="matrix(1 0 0 1 23.50 50.50)">4</text>
	<text transform="matrix(1 0 0 1 59.50 8.33)">5</text>
	<text transform="matrix(1 0 0 1 49.50 26.50)">6</text>
	<text transform="matrix(1 0 0 1 73.50 17.50)">7</text>
	<text transform="matrix(1 0 0 1 62.50 30.50)">8</text>
	<text transform="matrix(1 0 0 1 62.50 42.50)">9</text>
	<text transform="matrix(1 0 0 1 61.50 54.95)">10</text>
	<text transform="matrix(1 0 0 1 61.25 66.50)">11</text>
	<text transform="matrix(1 0 0 1 43.50 83.50)">12</text>
	<text transform="matrix(1 0 0 1 55.50 87.50)">13</text>
	<text transform="matrix(1 0 0 1 64.25 84.50)">14</text>
	<text transform="matrix(1 0 0 1 73.50 81.50)">15</text>
</g>
</svg>
