<?xml version="1.0" encoding="UTF-8"?>
<!--
Copyright (C) 2009/2010/2011 Ulrich Apel.
This work is distributed under the conditions of the Creative Commons 
Attribution-Share Alike 3.0 Licence. This means you are free:
* to Share - to copy, distribute and transmit the work
* to Remix - to adapt the work

Under the following conditions:
* Attribution. You must attribute the work by stating your use of KanjiVG in
  your own copyright header and linking to KanjiVG's website
  (http://kanjivg.tagaini.net)
* Share Alike. If you alter, transform, or build upon this work, you may
  distribute the resulting work only under the same or similar license to this
  one.

See http://creativecommons.org/licenses/by-sa/3.0/ for more details.
-->
<!DOCTYPE svg PUBLIC "-//W3C//DTD SVG 1.0//EN" "http://www.w3.org/TR/2001/REC-SVG-20010904/DTD/svg10.dtd" [
<!ATTLIST g
xmlns:kvg CDATA #FIXED "http://kanjivg.tagaini.net"
kvg:element CDATA #IMPLIED
kvg:variant CDATA #IMPLIED
kvg:partial CDATA #IMPLIED
kvg:original CDATA #IMPLIED
kvg:part CDATA #IMPLIED
kvg:number CDATA #IMPLIED
kvg:tradForm CDATA #IMPLIED
kvg:radicalForm CDATA #IMPLIED
kvg:position CDATA #IMPLIED
kvg:radical CDATA #IMPLIED
kvg:phon CDATA #IMPLIED >
<!ATTLIST path
xmlns:kvg CDATA #FIXED "http://kanjivg.tagaini.net"
kvg:type CDATA #IMPLIED >
]>
<svg xmlns="http://www.w3.org/2000/svg" width="109" height="109" viewBox="0 0 109 109">
<g id="kvg:StrokePaths_09d8f" style="fill:none;stroke:#000000;stroke-width:3;stroke-linecap:round;stroke-linejoin:round;">
<g id="kvg:09d8f" kvg:element="鶏">
	<g id="kvg:09d8f-g1" kvg:element="奚" kvg:variant="true" kvg:position="left" kvg:phon="奚V">
		<g id="kvg:09d8f-g2" kvg:element="⺤" kvg:variant="true" kvg:original="爪">
			<path id="kvg:09d8f-s1" kvg:type="㇒" d="M42.19,12.15c-0.19,1.35-0.93,2-1.83,2.68c-4.49,3.42-13.12,7.8-27.54,12.41"/>
			<path id="kvg:09d8f-s2" kvg:type="㇔" d="M17.25,33.25c1.95,1.81,4.53,7.43,5.02,10.24"/>
			<path id="kvg:09d8f-s3" kvg:type="㇔" d="M30.38,28.25c1.88,1.66,4.32,6.82,4.79,9.4"/>
			<path id="kvg:09d8f-s4" kvg:type="㇒" d="M49.55,24.42c0.12,0.88,0.02,1.73-0.29,2.54c-1.43,4.73-4.62,11.77-6.58,14.34"/>
		</g>
		<g id="kvg:09d8f-g3" kvg:element="夫">
			<path id="kvg:09d8f-s5" kvg:type="㇐" d="M15.59,53.83c1.3,0.52,3.67,0.43,5.03,0.29c6.03-0.66,16.63-2.12,23.87-3.53c1.42-0.28,2.75-0.34,4.18,0"/>
			<g id="kvg:09d8f-g4" kvg:element="大">
				<path id="kvg:09d8f-s6" kvg:type="㇐" d="M11.5,69.59c1.58,0.62,4.29,0.37,5.89,0.1c9.01-1.53,23.44-3.91,29.74-4.3c1.3-0.08,2.63-0.12,3.9,0.18"/>
				<path id="kvg:09d8f-s7" kvg:type="㇒" d="M32.05,43.42c0.35,0.79,0.55,1.53,0.49,3.06C31.5,74.5,24.75,86.75,11.75,95.99"/>
				<path id="kvg:09d8f-s8" kvg:type="㇔/㇏" d="M31.5,73.88c5.38,4.62,9.25,8.5,11.75,16.12"/>
			</g>
		</g>
	</g>
	<g id="kvg:09d8f-g5" kvg:element="鳥" kvg:position="right" kvg:radical="general">
		<path id="kvg:09d8f-s9" kvg:type="㇒" d="M71.54,10.16c0.08,0.62,0,1.21-0.24,1.78c-0.84,2.57-1.93,4.88-4.97,8.51"/>
		<path id="kvg:09d8f-s10" kvg:type="㇑" d="M58.05,22.67c0.89,0.89,1.1,2.2,1.1,3.58c0,7.5-0.02,24.38-0.02,37.63c0,2.19,0,4,0,6.88"/>
		<path id="kvg:09d8f-s11" kvg:type="㇕a" d="M60,23.62c2.44-0.42,15.6-2.14,20.39-2.58c3.15-0.29,5.16,1.25,4.73,4.6c-0.29,2.22-1.71,9.08-2.73,15.88c-0.25,1.68-0.51,3.34-0.77,4.9"/>
		<path id="kvg:09d8f-s12" kvg:type="㇐a" d="M60.31,35.58c4.31-0.58,15.94-2.21,22.25-2.59"/>
		<path id="kvg:09d8f-s13" kvg:type="㇐a" d="M60.22,47.12c6.4-0.74,14.53-1.99,20.38-2.25"/>
		<path id="kvg:09d8f-s14" kvg:type="㇐b" d="M60.44,58.86c6.8-0.7,19.95-2.04,26.21-2.77c1.88-0.22,4.86-0.47,6.77-0.22"/>
		<path id="kvg:09d8f-s15" kvg:type="㇆a" d="M59.49,70.5c9.35-1.67,25.62-3.44,30.42-3.9c3.28-0.31,4.97,0.89,4.38,4.57c-1.64,10.24-3.42,18.45-7.18,25.25c-3.36,6.07-6.22,1.04-7.55-0.24"/>
		<g id="kvg:09d8f-g6" kvg:element="灬" kvg:variant="true" kvg:original="火">
			<path id="kvg:09d8f-s16" kvg:type="㇔" d="M52.3,82.62c-0.17,3.25-0.8,6.88-2.36,10.3"/>
			<path id="kvg:09d8f-s17" kvg:type="㇔" d="M60.12,81.25c1.59,1.84,3.09,6.66,3.49,9.36"/>
			<path id="kvg:09d8f-s18" kvg:type="㇔" d="M68.88,79.88c1.37,1.31,3.53,5.25,3.88,7.17"/>
			<path id="kvg:09d8f-s19" kvg:type="㇔" d="M77.41,76.73c1.71,1.35,4.43,5.41,4.86,7.39"/>
		</g>
	</g>
</g>
</g>
<g id="kvg:StrokeNumbers_09d8f" style="font-size:8;fill:#808080">
	<text transform="matrix(1 0 0 1 33.75 12.13)">1</text>
	<text transform="matrix(1 0 0 1 11.25 37.50)">2</text>
	<text transform="matrix(1 0 0 1 23.50 32.50)">3</text>
	<text transform="matrix(1 0 0 1 41.25 25.63)">4</text>
	<text transform="matrix(1 0 0 1 9.00 55.63)">5</text>
	<text transform="matrix(1 0 0 1 4.50 70.55)">6</text>
	<text transform="matrix(1 0 0 1 25.50 50.50)">7</text>
	<text transform="matrix(1 0 0 1 36.75 76.63)">8</text>
	<text transform="matrix(1 0 0 1 62.50 9.50)">9</text>
	<text transform="matrix(1 0 0 1 48.50 39.50)">10</text>
	<text transform="matrix(1 0 0 1 56.25 19.63)">11</text>
	<text transform="matrix(1 0 0 1 63.50 31.50)">12</text>
	<text transform="matrix(1 0 0 1 63.50 43.42)">13</text>
	<text transform="matrix(1 0 0 1 63.50 55.50)">14</text>
	<text transform="matrix(1 0 0 1 63.50 66.42)">15</text>
	<text transform="matrix(1 0 0 1 44.50 81.13)">16</text>
	<text transform="matrix(1 0 0 1 55.50 79.63)">17</text>
	<text transform="matrix(1 0 0 1 65.50 77.50)">18</text>
	<text transform="matrix(1 0 0 1 78.50 75.50)">19</text>
</g>
</svg>
