<?xml version="1.0" encoding="UTF-8"?>
<!--
Copyright (C) 2009/2010/2011 Ulrich Apel.
This work is distributed under the conditions of the Creative Commons 
Attribution-Share Alike 3.0 Licence. This means you are free:
* to Share - to copy, distribute and transmit the work
* to Remix - to adapt the work

Under the following conditions:
* Attribution. You must attribute the work by stating your use of KanjiVG in
  your own copyright header and linking to KanjiVG's website
  (http://kanjivg.tagaini.net)
* Share Alike. If you alter, transform, or build upon this work, you may
  distribute the resulting work only under the same or similar license to this
  one.

See http://creativecommons.org/licenses/by-sa/3.0/ for more details.
-->
<!DOCTYPE svg PUBLIC "-//W3C//DTD SVG 1.0//EN" "http://www.w3.org/TR/2001/REC-SVG-20010904/DTD/svg10.dtd" [
<!ATTLIST g
xmlns:kvg CDATA #FIXED "http://kanjivg.tagaini.net"
kvg:element CDATA #IMPLIED
kvg:variant CDATA #IMPLIED
kvg:partial CDATA #IMPLIED
kvg:original CDATA #IMPLIED
kvg:part CDATA #IMPLIED
kvg:number CDATA #IMPLIED
kvg:tradForm CDATA #IMPLIED
kvg:radicalForm CDATA #IMPLIED
kvg:position CDATA #IMPLIED
kvg:radical CDATA #IMPLIED
kvg:phon CDATA #IMPLIED >
<!ATTLIST path
xmlns:kvg CDATA #FIXED "http://kanjivg.tagaini.net"
kvg:type CDATA #IMPLIED >
]>
<svg xmlns="http://www.w3.org/2000/svg" width="109" height="109" viewBox="0 0 109 109">
<g id="kvg:StrokePaths_09d9a-Kaisho" style="fill:none;stroke:#000000;stroke-width:3;stroke-linecap:round;stroke-linejoin:round;">
<g id="kvg:09d9a-Kaisho" kvg:element="鶚">
	<g id="kvg:09d9a-Kaisho-g1" kvg:element="咢" kvg:position="left">
		<g id="kvg:09d9a-Kaisho-g2" kvg:position="top">
			<g id="kvg:09d9a-Kaisho-g3" kvg:element="口" kvg:position="left">
				<path id="kvg:09d9a-Kaisho-s1" kvg:type="㇑" d="M11.78,18.72c0.24,0.3,0.8,1.45,0.9,1.82c0.82,2.97,1.87,8.32,2.44,13.66"/>
				<path id="kvg:09d9a-Kaisho-s2" kvg:type="㇕b" d="M13.26,19.73C18,19.25,24.22,17.97,27,17.58c1.02-0.14,1.63,0.85,1.48,1.68c-0.6,3.47-1.81,6.67-2.7,11.47"/>
				<path id="kvg:09d9a-Kaisho-s3" kvg:type="㇐b" d="M15.76,32.04c3.27-0.44,6.9-0.7,11.39-1.38"/>
			</g>
			<g id="kvg:09d9a-Kaisho-g4" kvg:element="口" kvg:position="right">
				<path id="kvg:09d9a-Kaisho-s4" kvg:type="㇑" d="M33.96,16.48c0.25,0.3,0.51,0.55,0.63,0.92c0.88,2.97,1.17,9.22,1.77,14.56"/>
				<path id="kvg:09d9a-Kaisho-s5" kvg:type="㇕b" d="M35.01,17.49c6.74-0.99,11.28-1.37,14.26-1.76c1.09-0.14,1.74,0.85,1.59,1.68c-0.65,3.47-1.64,5.77-2.6,10.57"/>
				<path id="kvg:09d9a-Kaisho-s6" kvg:type="㇐b" d="M36.47,29.8c3.5-0.44,8.41-0.7,13.21-1.38"/>
			</g>
		</g>
		<g id="kvg:09d9a-Kaisho-g5" kvg:position="bottom">
			<g id="kvg:09d9a-Kaisho-g6" kvg:element="二">
				<g id="kvg:09d9a-Kaisho-g7" kvg:position="top">
					<path id="kvg:09d9a-Kaisho-s7" kvg:type="㇐" d="M16.01,42.65c0.85,0.36,2.41,0.42,3.27,0.36c7.19-0.51,20.22-2.51,24.64-3.2c1.4-0.22,2.27,0.17,2.98,0.35"/>
				</g>
				<g id="kvg:09d9a-Kaisho-g8" kvg:position="bottom">
					<path id="kvg:09d9a-Kaisho-s8" kvg:type="㇐" d="M9.25,53.73c1.32,0.49,3.75,0.59,5.07,0.49C24,53.5,37,51.5,47.63,50.63c2.19-0.18,3.52,0.23,4.62,0.48"/>
				</g>
			</g>
			<path id="kvg:09d9a-Kaisho-s9" kvg:type="㇉" d="M26.31,53.1c0.8,1.34,1.17,2.19,0.55,3.61c-0.5,1.13-3.48,6.89-3.8,7.44c-1.29,2.22-0.44,2.79,1.26,2.81c1.07,0.01,13.56-2.59,16.29-3.2c2.13-0.48,3.78,0.66,3.55,3.08c-0.64,6.67-3.41,19.67-9,28.11c-2.67,4.04-5.12-1.14-5.82-2.31"/>
		</g>
	</g>
	<g id="kvg:09d9a-Kaisho-g9" kvg:element="鳥" kvg:position="right" kvg:radical="general">
		<path id="kvg:09d9a-Kaisho-s10" kvg:type="㇒" d="M71.54,10.16c0.02,0.28,0.03,0.72-0.03,1.11c-0.36,2.32-2.39,7.29-5.18,10.18"/>
		<path id="kvg:09d9a-Kaisho-s11" kvg:type="㇑" d="M58.8,20.92c1.2,0.83,1.6,2.02,1.6,2.73c0,7.23-1.46,34.01-1.67,45.38"/>
		<path id="kvg:09d9a-Kaisho-s12" kvg:type="㇕a" d="M60.81,23.75c1.55,0,20.5-3.17,22.01-3.06c2.24,0.16,3.33,2.15,3.13,4.02c-0.12,1.15-1.64,13.19-3.08,21.96"/>
		<path id="kvg:09d9a-Kaisho-s13" kvg:type="㇐a" d="M60.56,35.58c3.78,0.27,8.06-0.83,11.78-1.3c1.36-0.17,2.72-0.34,4.01-0.5"/>
		<path id="kvg:09d9a-Kaisho-s14" kvg:type="㇐a" d="M60.47,47.12c3.88-0.14,17.55-2.48,22.38-2.5"/>
		<path id="kvg:09d9a-Kaisho-s15" kvg:type="㇐b" d="M60.19,57.36c9.34-0.84,29.99-2.86,34-3.38c1.4-0.19,3.77-0.35,4.48-0.11"/>
		<path id="kvg:09d9a-Kaisho-s16" kvg:type="㇆a" d="M58.74,69.25c9.1-1.63,28.13-2.92,33.17-3.4c3.28-0.31,4.97,0.89,4.38,4.57c-1.64,10.24-3.79,16.82-7.93,24.75c-3.21,6.15-6.97,1.04-8.3-0.24"/>
		<g id="kvg:09d9a-Kaisho-g10" kvg:element="灬" kvg:variant="true" kvg:original="火">
			<path id="kvg:09d9a-Kaisho-s17" kvg:type="㇔" d="M52.43,78.48c0.42,5.05-0.3,11.1-1.55,14.19"/>
			<path id="kvg:09d9a-Kaisho-s18" kvg:type="㇔" d="M60.57,77.74c1.5,2.18,2.92,7.92,3.29,11.12"/>
			<path id="kvg:09d9a-Kaisho-s19" kvg:type="㇔" d="M69.49,76.29c1.76,1.78,4.54,7.14,4.98,9.76"/>
			<path id="kvg:09d9a-Kaisho-s20" kvg:type="㇔" d="M78.16,74.48c2.07,1.53,5.34,6.14,5.86,8.39"/>
		</g>
	</g>
</g>
</g>
<g id="kvg:StrokeNumbers_09d9a-Kaisho" style="font-size:8;fill:#808080">
	<text transform="matrix(1 0 0 1 6.50 24.50)">1</text>
	<text transform="matrix(1 0 0 1 14.50 16.50)">2</text>
	<text transform="matrix(1 0 0 1 17.50 28.50)">3</text>
	<text transform="matrix(1 0 0 1 29.25 28.50)">4</text>
	<text transform="matrix(1 0 0 1 37.50 14.50)">5</text>
	<text transform="matrix(1 0 0 1 39.50 26.50)">6</text>
	<text transform="matrix(1 0 0 1 9.50 43.18)">7</text>
	<text transform="matrix(1 0 0 1 2.50 55.50)">8</text>
	<text transform="matrix(1 0 0 1 17.50 62.50)">9</text>
	<text transform="matrix(1 0 0 1 60.75 10.50)">10</text>
	<text transform="matrix(1 0 0 1 50.75 33.88)">11</text>
	<text transform="matrix(1 0 0 1 59.50 20.50)">12</text>
	<text transform="matrix(1 0 0 1 63.50 31.50)">13</text>
	<text transform="matrix(1 0 0 1 63.50 43.50)">14</text>
	<text transform="matrix(1 0 0 1 63.50 54.85)">15</text>
	<text transform="matrix(1 0 0 1 63.50 64.77)">16</text>
	<text transform="matrix(1 0 0 1 42.75 87.50)">17</text>
	<text transform="matrix(1 0 0 1 53.75 87.50)">18</text>
	<text transform="matrix(1 0 0 1 63.75 85.50)">19</text>
	<text transform="matrix(1 0 0 1 74.75 82.50)">20</text>
</g>
</svg>
