<?xml version="1.0" encoding="UTF-8"?>
<!--
Copyright (C) 2009/2010/2011 Ulrich Apel.
This work is distributed under the conditions of the Creative Commons 
Attribution-Share Alike 3.0 Licence. This means you are free:
* to Share - to copy, distribute and transmit the work
* to Remix - to adapt the work

Under the following conditions:
* Attribution. You must attribute the work by stating your use of KanjiVG in
  your own copyright header and linking to KanjiVG's website
  (http://kanjivg.tagaini.net)
* Share Alike. If you alter, transform, or build upon this work, you may
  distribute the resulting work only under the same or similar license to this
  one.

See http://creativecommons.org/licenses/by-sa/3.0/ for more details.
-->
<!DOCTYPE svg PUBLIC "-//W3C//DTD SVG 1.0//EN" "http://www.w3.org/TR/2001/REC-SVG-20010904/DTD/svg10.dtd" [
<!ATTLIST g
xmlns:kvg CDATA #FIXED "http://kanjivg.tagaini.net"
kvg:element CDATA #IMPLIED
kvg:variant CDATA #IMPLIED
kvg:partial CDATA #IMPLIED
kvg:original CDATA #IMPLIED
kvg:part CDATA #IMPLIED
kvg:number CDATA #IMPLIED
kvg:tradForm CDATA #IMPLIED
kvg:radicalForm CDATA #IMPLIED
kvg:position CDATA #IMPLIED
kvg:radical CDATA #IMPLIED
kvg:phon CDATA #IMPLIED >
<!ATTLIST path
xmlns:kvg CDATA #FIXED "http://kanjivg.tagaini.net"
kvg:type CDATA #IMPLIED >
]>
<svg xmlns="http://www.w3.org/2000/svg" width="109" height="109" viewBox="0 0 109 109">
<g id="kvg:StrokePaths_09e9f" style="fill:none;stroke:#000000;stroke-width:3;stroke-linecap:round;stroke-linejoin:round;">
<g id="kvg:09e9f" kvg:element="麟">
	<g id="kvg:09e9f-g1" kvg:element="鹿" kvg:position="left" kvg:radical="general">
		<g id="kvg:09e9f-g2" kvg:element="广">
			<path id="kvg:09e9f-s1" kvg:type="㇑a" d="M31.69,11.63c1.03,1.03,1.17,2.12,1.17,3.3c0,0.65,0.04,2.8-0.04,6.82"/>
			<g id="kvg:09e9f-g3" kvg:element="厂">
				<path id="kvg:09e9f-s2" kvg:type="㇐" d="M13.88,24.14c1.94,0.88,4.61,0.3,6.62,0.11c7.44-0.69,16.08-1.91,24.75-2.92c1.97-0.23,4.01-0.23,5.94,0.29"/>
				<path id="kvg:09e9f-s3" kvg:type="㇒" d="M15.35,25.14c0.88,0.88,0.99,2.29,0.95,4.4c-0.42,20.7-1.98,44.4-8.52,57.81"/>
			</g>
		</g>
		<path id="kvg:09e9f-s4" kvg:type="㇕" d="M19.23,36.03c1.13,0.53,2.83,0.59,4.01,0.42c8.76-1.32,20.63-3.02,22.9-3.24c1.69-0.17,2.3,1.41,1.99,3.29c-0.57,3.46-1.26,6.91-2.03,10.63"/>
		<path id="kvg:09e9f-s5" kvg:type="㇑" d="M26.73,28.47c0.77,0.77,1.02,1.66,1.14,2.75c0.08,0.7,0.37,10.28,0.66,16.74"/>
		<path id="kvg:09e9f-s6" kvg:type="㇑" d="M37.1,27.05c0.65,0.82,0.96,1.82,0.89,3c-0.37,6.44-0.62,11.82-0.9,17.44"/>
		<path id="kvg:09e9f-s7" kvg:type="㇐" d="M18.62,50.04c1.19,0.71,3.62,0.33,4.87,0.16c5.04-0.67,14.5-1.95,19.63-2.37c1.52-0.12,3.23-0.36,4.7,0.18"/>
		<g id="kvg:09e9f-g4" kvg:element="比">
			<path id="kvg:09e9f-s8" kvg:type="㇐" d="M23.89,66.17c2.8-0.24,3.99-0.61,6.44-1.02c0.72-0.12,1.17-0.12,1.54-0.05"/>
			<path id="kvg:09e9f-s9" kvg:type="㇙" d="M21.68,54.99c0.86,0.86,0.94,1.89,0.94,3.21c0,1.89-0.12,20.5-0.12,25.31c0,2.5,0.82,3.87,2.74,2.1c2.01-1.85,3.51-3.23,5.65-5.46"/>
			<g id="kvg:09e9f-g5" kvg:element="匕">
				<path id="kvg:09e9f-s10" kvg:type="㇐" d="M47.93,57.84c0.1,0.48,0.11,1.46-0.41,2.13c-1.39,1.78-5.24,6.19-8.28,8.82"/>
				<path id="kvg:09e9f-s11" kvg:type="㇟" d="M35.08,52.98c0.91,0.91,1.04,2.27,1.04,3.65c0,1.56-0.04,20.26-0.06,22.09c-0.07,6.67,1.37,7.37,6.41,7.37s6.05-0.7,6.05-6.45"/>
			</g>
		</g>
	</g>
	<g id="kvg:09e9f-g6" kvg:position="right">
		<g id="kvg:09e9f-g7" kvg:element="米" kvg:position="top">
			<path id="kvg:09e9f-s12" kvg:type="㇔" d="M56.11,16.03c1.84,1.68,4.62,6.41,5.08,9.02"/>
			<path id="kvg:09e9f-s13" kvg:type="㇒" d="M85.47,13.5c0.03,0.41,0.07,1.06-0.08,1.64c-0.55,2.16-2.75,5.94-6.02,9.61"/>
			<path id="kvg:09e9f-s14" kvg:type="㇐" d="M52.15,29.88c2.19,0.62,4.66,0.39,6.88,0.13c7.35-0.88,19.25-1.87,26.22-2.31c1.89-0.12,4.01-0.2,6.4,0.12"/>
			<path id="kvg:09e9f-s15" kvg:type="㇑" d="M70.49,10.75c0.75,0.75,0.93,1.88,0.93,2.96c0,0.5-0.04,20.5-0.05,32.29c0,2.64,0,4.87,0,6.38"/>
			<path id="kvg:09e9f-s16" kvg:type="㇒" d="M68.77,29.94c0,1.19-0.5,2.22-1.15,3.27c-3.19,5.21-8.53,11.2-13.53,13.93"/>
			<path id="kvg:09e9f-s17" kvg:type="㇏" d="M72.99,29.96c2.31,1.82,10.92,9.45,15.76,13.03c1.84,1.36,3.07,2.17,5.37,3.14"/>
		</g>
		<g id="kvg:09e9f-g8" kvg:element="舛" kvg:position="bottom">
			<g id="kvg:09e9f-g9" kvg:element="夕" kvg:position="left">
				<path id="kvg:09e9f-s18" kvg:type="㇒" d="M58.12,51.56c0.32,1.01,0.1,2.03-0.29,2.97c-1.87,4.59-5.63,12.69-11.3,19.4"/>
				<path id="kvg:09e9f-s19" kvg:type="㇇" d="M57.85,60.53c1.86-0.03,4.3-0.75,7.11-1.45c2.71-0.68,3.72,0.32,2.86,3.06c-2.78,8.88-14.23,27.99-23.57,32.14"/>
				<path id="kvg:09e9f-s20" kvg:type="㇔" d="M53.5,69.5c1.37,1.11,3.55,4.57,3.89,6.3"/>
			</g>
			<g id="kvg:09e9f-g10" kvg:position="right">
				<path id="kvg:09e9f-s21" kvg:type="㇐" d="M71.41,63.45c1.37,0.48,2.95,0.46,4.34,0.33c4.21-0.42,11.04-1.16,15.5-2.04c1.04-0.21,3.05-0.3,4.14-0.07"/>
				<path id="kvg:09e9f-s22" kvg:type="㇑" d="M72.96,64.45c0.67,0.67,0.75,1.52,0.74,2.43c-0.02,3.11-0.07,7.68-0.07,10.43"/>
				<path id="kvg:09e9f-s23" kvg:type="㇐" d="M66.35,78.39c2.13,0.33,3.89,0.22,6.05,0.02c8.54-0.82,20.88-1.9,21.82-1.9c1.22,0,2.9,0,4.28,0.27"/>
				<path id="kvg:09e9f-s24" kvg:type="㇑" d="M84.57,49.75c0.78,0.78,1.03,1.88,1.03,3.11c0,0.49-0.07,26.79-0.09,39.64c0,2.73-0.01,4.86-0.01,6"/>
			</g>
		</g>
	</g>
</g>
</g>
<g id="kvg:StrokeNumbers_09e9f" style="font-size:8;fill:#808080">
	<text transform="matrix(1 0 0 1 24.00 11.25)">1</text>
	<text transform="matrix(1 0 0 1 15.25 22.25)">2</text>
	<text transform="matrix(1 0 0 1 9.25 33.25)">3</text>
	<text transform="matrix(1 0 0 1 19.25 34.25)">4</text>
	<text transform="matrix(1 0 0 1 30.00 30.25)">5</text>
	<text transform="matrix(1 0 0 1 41.25 29.00)">6</text>
	<text transform="matrix(1 0 0 1 19.25 47.25)">7</text>
	<text transform="matrix(1 0 0 1 26.25 62.85)">8</text>
	<text transform="matrix(1 0 0 1 16.00 66.25)">9</text>
	<text transform="matrix(1 0 0 1 40.00 58.70)">10</text>
	<text transform="matrix(1 0 0 1 28.25 57.25)">11</text>
	<text transform="matrix(1 0 0 1 47.25 14.25)">12</text>
	<text transform="matrix(1 0 0 1 76.25 12.25)">13</text>
	<text transform="matrix(1 0 0 1 50.00 26.40)">14</text>
	<text transform="matrix(1 0 0 1 60.25 10.25)">15</text>
	<text transform="matrix(1 0 0 1 55.25 37.25)">16</text>
	<text transform="matrix(1 0 0 1 82.25 35.25)">17</text>
	<text transform="matrix(1 0 0 1 48.25 55.10)">18</text>
	<text transform="matrix(1 0 0 1 61.25 57.25)">19</text>
	<text transform="matrix(1 0 0 1 55.25 68.95)">20</text>
	<text transform="matrix(1 0 0 1 72.25 61.25)">21</text>
	<text transform="matrix(1 0 0 1 76.00 71.25)">22</text>
	<text transform="matrix(1 0 0 1 65.25 77.25)">23</text>
	<text transform="matrix(1 0 0 1 75.25 52.25)">24</text>
</g>
</svg>
