<?xml version="1.0" encoding="UTF-8"?>
<!--
Copyright (C) 2009/2010/2011 Ulrich Apel.
This work is distributed under the conditions of the Creative Commons 
Attribution-Share Alike 3.0 Licence. This means you are free:
* to Share - to copy, distribute and transmit the work
* to Remix - to adapt the work

Under the following conditions:
* Attribution. You must attribute the work by stating your use of KanjiVG in
  your own copyright header and linking to KanjiVG's website
  (http://kanjivg.tagaini.net)
* Share Alike. If you alter, transform, or build upon this work, you may
  distribute the resulting work only under the same or similar license to this
  one.

See http://creativecommons.org/licenses/by-sa/3.0/ for more details.
-->
<!DOCTYPE svg PUBLIC "-//W3C//DTD SVG 1.0//EN" "http://www.w3.org/TR/2001/REC-SVG-20010904/DTD/svg10.dtd" [
<!ATTLIST g
xmlns:kvg CDATA #FIXED "http://kanjivg.tagaini.net"
kvg:element CDATA #IMPLIED
kvg:variant CDATA #IMPLIED
kvg:partial CDATA #IMPLIED
kvg:original CDATA #IMPLIED
kvg:part CDATA #IMPLIED
kvg:number CDATA #IMPLIED
kvg:tradForm CDATA #IMPLIED
kvg:radicalForm CDATA #IMPLIED
kvg:position CDATA #IMPLIED
kvg:radical CDATA #IMPLIED
kvg:phon CDATA #IMPLIED >
<!ATTLIST path
xmlns:kvg CDATA #FIXED "http://kanjivg.tagaini.net"
kvg:type CDATA #IMPLIED >
]>
<svg xmlns="http://www.w3.org/2000/svg" width="109" height="109" viewBox="0 0 109 109">
<g id="kvg:StrokePaths_09e97" style="fill:none;stroke:#000000;stroke-width:3;stroke-linecap:round;stroke-linejoin:round;">
<g id="kvg:09e97" kvg:element="麗">
	<g id="kvg:09e97-g1" kvg:position="top">
		<g id="kvg:09e97-g2" kvg:position="left">
			<g id="kvg:09e97-g3" kvg:element="一">
				<path id="kvg:09e97-s1" kvg:type="㇐" d="M19.25,14.14c1.48,0.6,3.33,0.42,4.88,0.3c5.39-0.44,15.28-1.74,21.5-2.34c1.37-0.13,3.51-0.16,4.87,0.17"/>
			</g>
			<path id="kvg:09e97-s2" kvg:type="㇑" d="M24.27,23.67c0.72,0.72,0.84,1.64,0.84,2.44c0,0.54-0.04,5.8-0.04,9.9c0,1.97,0.01,3.49,0.04,3.75"/>
			<path id="kvg:09e97-s3" kvg:type="㇕a" d="M26.09,24.52c1.36-0.08,12.33-1.68,16.92-2.29c2.6-0.35,3.85-0.08,3.81,2.77c-0.03,2.19,0.03,6.46-0.03,9.51c-0.03,1.86-0.04,3.55-0.04,3.74"/>
			<path id="kvg:09e97-s4" kvg:type="㇔" d="M32.13,30.25c2.34,1.03,6.03,4.24,6.62,5.84"/>
		</g>
		<g id="kvg:09e97-g4" kvg:position="right">
			<g id="kvg:09e97-g5" kvg:element="一">
				<path id="kvg:09e97-s5" kvg:type="㇐" d="M59,12.64c2.25,0.36,3.84,0.16,5.62-0.04c5.47-0.61,14.98-1.69,20.5-2.11c1.56-0.12,3.33-0.35,4.88,0.02"/>
			</g>
			<path id="kvg:09e97-s6" kvg:type="㇑" d="M61.77,21.92c0.78,0.78,0.84,1.83,0.84,2.94c0,0.52-0.04,4.81-0.04,8.9c0,2.09,0.01,3.73,0.04,4"/>
			<path id="kvg:09e97-s7" kvg:type="㇕a" d="M63.09,22.52c1.43-0.09,15.06-1.83,19.67-2.37c2.48-0.29,3.37,0,3.37,2.6c0,2.57,0,6.48,0.06,10.13c0.03,2.02,0.05,3.52,0.05,3.58"/>
			<path id="kvg:09e97-s8" kvg:type="㇔" d="M70.76,28.12c2.03,0.96,5.23,3.97,5.74,5.47"/>
		</g>
	</g>
	<g id="kvg:09e97-g6" kvg:element="鹿" kvg:position="bottom" kvg:radical="general">
		<g id="kvg:09e97-g7" kvg:element="广">
			<path id="kvg:09e97-s9" kvg:type="㇑a" d="M55.27,36.13c0.92,0.93,1.05,1.87,1.05,3.31c0,0.56-0.07,2.19-0.07,4.69"/>
			<g id="kvg:09e97-g8" kvg:element="厂">
				<path id="kvg:09e97-s10" kvg:type="㇐" d="M26.45,46.85c2.52,0.69,5.09,0.65,7.67,0.51c12.95-0.7,30.53-2.88,43.13-3.8c3.25-0.24,6.11-0.71,9.38-0.18"/>
				<path id="kvg:09e97-s11" kvg:type="㇒" d="M27.95,47.99c0.91,0.91,1.04,2.12,0.92,3.72c-0.74,10.04-2.62,31.79-14.06,44.42"/>
			</g>
		</g>
		<path id="kvg:09e97-s12" kvg:type="㇕c" d="M33.94,57.08c1.83,0.44,3.38,0.73,5.28,0.56c13.09-1.22,30.4-3.13,38.95-3.89c2.74-0.24,3.12,1.66,2.73,3.26c-0.9,3.62-1.4,5.99-2.13,8.78"/>
		<path id="kvg:09e97-s13" kvg:type="㇑a" d="M45.51,50.65c0.85,0.85,1.11,1.6,1.2,2.64c0.05,0.6,0.79,9.71,1.07,14.45"/>
		<path id="kvg:09e97-s14" kvg:type="㇑a" d="M63.69,48.46c0.8,0.8,0.99,2.04,0.95,2.64c-0.2,2.6-1.01,9.41-2.01,15.43"/>
		<path id="kvg:09e97-s15" kvg:type="㇐" d="M32.67,69.82c2.34,0.72,5.13,0.35,7.49,0.11c8.68-0.89,26.32-2.79,34.59-3.29c2.12-0.13,4.29-0.25,6.4,0.14"/>
		<g id="kvg:09e97-g9" kvg:element="比">
			<path id="kvg:09e97-s16" kvg:type="㇐b" d="M37.67,82.25c5.7-0.75,10.04-1.68,14-2.02c1.16-0.1,1.9-0.1,2.5-0.04"/>
			<path id="kvg:09e97-s17" kvg:type="㇙" d="M36.18,76.14c0.78,0.78,0.77,1.61,0.77,2.71c0,1.18-0.01,11.61-0.01,15.65c0,2.55,0.78,3.29,3.29,2.36c4.27-1.58,8.01-3.23,12.38-4.61"/>
			<g id="kvg:09e97-g10" kvg:element="匕">
				<path id="kvg:09e97-s18" kvg:type="㇒" d="M83.38,76.48c-0.13,0.77-0.66,1.31-1.32,1.67c-3.82,2.1-8.44,3.98-15.95,6.54"/>
				<path id="kvg:09e97-s19" kvg:type="㇟" d="M63.03,72.2c0.89,0.89,1.04,1.93,1.04,3.47c0,1.31-0.06,11.68-0.06,13.21c0,6.88,1.38,8.71,14.29,8.71c12.71,0,14.99-1.83,14.99-6.65"/>
			</g>
		</g>
	</g>
</g>
</g>
<g id="kvg:StrokeNumbers_09e97" style="font-size:8;fill:#808080">
	<text transform="matrix(1 0 0 1 16.25 11.25)">1</text>
	<text transform="matrix(1 0 0 1 17.00 29.80)">2</text>
	<text transform="matrix(1 0 0 1 27.25 22.38)">3</text>
	<text transform="matrix(1 0 0 1 35.25 30.25)">4</text>
	<text transform="matrix(1 0 0 1 56.25 10.25)">5</text>
	<text transform="matrix(1 0 0 1 54.50 24.25)">6</text>
	<text transform="matrix(1 0 0 1 63.50 20.25)">7</text>
	<text transform="matrix(1 0 0 1 75.25 28.25)">8</text>
	<text transform="matrix(1 0 0 1 50.00 34.38)">9</text>
	<text transform="matrix(1 0 0 1 28.25 44.25)">10</text>
	<text transform="matrix(1 0 0 1 19.25 55.25)">11</text>
	<text transform="matrix(1 0 0 1 33.50 55.38)">12</text>
	<text transform="matrix(1 0 0 1 49.25 53.25)">13</text>
	<text transform="matrix(1 0 0 1 67.25 51.25)">14</text>
	<text transform="matrix(1 0 0 1 33.25 67.30)">15</text>
	<text transform="matrix(1 0 0 1 39.25 78.25)">16</text>
	<text transform="matrix(1 0 0 1 28.25 83.25)">17</text>
	<text transform="matrix(1 0 0 1 71.25 76.25)">18</text>
	<text transform="matrix(1 0 0 1 53.25 76.25)">19</text>
</g>
</svg>
