<?xml version="1.0" encoding="UTF-8"?>
<!--
Copyright (C) 2009/2010/2011 Ulrich Apel.
This work is distributed under the conditions of the Creative Commons 
Attribution-Share Alike 3.0 Licence. This means you are free:
* to Share - to copy, distribute and transmit the work
* to Remix - to adapt the work

Under the following conditions:
* Attribution. You must attribute the work by stating your use of KanjiVG in
  your own copyright header and linking to KanjiVG's website
  (http://kanjivg.tagaini.net)
* Share Alike. If you alter, transform, or build upon this work, you may
  distribute the resulting work only under the same or similar license to this
  one.

See http://creativecommons.org/licenses/by-sa/3.0/ for more details.
-->
<!DOCTYPE svg PUBLIC "-//W3C//DTD SVG 1.0//EN" "http://www.w3.org/TR/2001/REC-SVG-20010904/DTD/svg10.dtd" [
<!ATTLIST g
xmlns:kvg CDATA #FIXED "http://kanjivg.tagaini.net"
kvg:element CDATA #IMPLIED
kvg:variant CDATA #IMPLIED
kvg:partial CDATA #IMPLIED
kvg:original CDATA #IMPLIED
kvg:part CDATA #IMPLIED
kvg:number CDATA #IMPLIED
kvg:tradForm CDATA #IMPLIED
kvg:radicalForm CDATA #IMPLIED
kvg:position CDATA #IMPLIED
kvg:radical CDATA #IMPLIED
kvg:phon CDATA #IMPLIED >
<!ATTLIST path
xmlns:kvg CDATA #FIXED "http://kanjivg.tagaini.net"
kvg:type CDATA #IMPLIED >
]>
<svg xmlns="http://www.w3.org/2000/svg" width="109" height="109" viewBox="0 0 109 109">
<g id="kvg:StrokePaths_09f15" style="fill:none;stroke:#000000;stroke-width:3;stroke-linecap:round;stroke-linejoin:round;">
<g id="kvg:09f15" kvg:element="鼕">
	<g id="kvg:09f15-g1" kvg:element="鼓" kvg:position="top" kvg:radical="general">
		<g id="kvg:09f15-g2" kvg:position="left">
			<g id="kvg:09f15-g3" kvg:element="吉" kvg:part="1">
				<g id="kvg:09f15-g4" kvg:element="士">
					<path id="kvg:09f15-s1" kvg:type="㇐" d="M15.37,19.04c0.88,0.2,3.5,0.17,4.38,0.12C27,18.75,39,17.25,46.3,16.54c1.46-0.14,2.35,0.03,3.08,0.12"/>
					<path id="kvg:09f15-s2" kvg:type="㇑" d="M31.05,8.76c1.25,0.32,2.24,1.52,2.24,2.24c0,2.46,0.19,6.72,0.19,14.07"/>
					<g id="kvg:09f15-g5" kvg:element="豆" kvg:part="1">
						<path id="kvg:09f15-s3" kvg:type="㇐" d="M21.09,26.3c1.16,0.2,2.68,0.64,3.27,0.56c4.63-0.61,11.88-1.61,20.17-2.35c0.99-0.09,1.58,0.01,2.08,0.07"/>
					</g>
				</g>
				<g id="kvg:09f15-g6" kvg:element="豆" kvg:part="2">
					<g id="kvg:09f15-g7" kvg:element="吉" kvg:part="2">
						<g id="kvg:09f15-g8" kvg:element="口">
							<path id="kvg:09f15-s4" kvg:type="㇑" d="M20.99,32.88c0.25,0.17,0.5,0.31,0.61,0.53c0.86,1.69,1.88,6.35,2.46,9.38"/>
							<path id="kvg:09f15-s5" kvg:type="㇕b" d="M22.53,34.28c6.04-0.71,17.44-3.46,20.55-3.7c1.14-0.09,1.82,0.88,1.66,1.39c-0.68,2.13-1.13,4.14-2.58,7.21"/>
							<path id="kvg:09f15-s6" kvg:type="㇐b" d="M24.31,41.67c3.66-0.27,15.55-1.95,20.2-2.22"/>
						</g>
					</g>
				</g>
			</g>
			<g id="kvg:09f15-g9" kvg:element="豆" kvg:part="3">
				<path id="kvg:09f15-s7" kvg:type="㇔" d="M22.77,46.72c1.43,1.09,3.69,4.48,4.04,6.18"/>
				<path id="kvg:09f15-s8" kvg:type="㇒" d="M41.29,43.79c0.01,0.19,0.02,0.48-0.02,0.75c-0.2,1.59-1.37,5.08-2.97,7.22"/>
				<path id="kvg:09f15-s9" kvg:type="㇐" d="M16.25,55.97c0.73,1.37,2.47,1.85,4.93,1.16c12.56-3.5,17.9-5.65,29.07-8.77"/>
			</g>
		</g>
		<g id="kvg:09f15-g10" kvg:element="支" kvg:position="right">
			<g id="kvg:09f15-g11" kvg:element="十">
				<path id="kvg:09f15-s10" kvg:type="㇐" d="M56.1,21.42c0.68,0.2,2.94,0.26,3.63,0.2c9.93-0.86,22.64-3.34,29.28-3.78c1.14-0.08,1.83,0.09,2.4,0.19"/>
				<path id="kvg:09f15-s11" kvg:type="㇑a" d="M70.22,10.35c0.63,0.27,2.09,1.41,2.09,1.96c0,3.44-0.08,19.3-0.21,22.67"/>
			</g>
			<g id="kvg:09f15-g12" kvg:element="又">
				<path id="kvg:09f15-s12" kvg:type="㇇" d="M60.89,32.03c0.96,0.21,1.84,0.45,3.78,0.21c2.66-0.33,16.57-3.41,17.88-3.73c1.31-0.31,1.95,0.74,1.25,1.81C76.91,40.72,67.24,48.43,55,52.1"/>
				<path id="kvg:09f15-s13" kvg:type="㇏" d="M62.13,38.02c4.53,0.51,15.02,10.67,23.91,14.89c1.38,0.66,2.39,1.09,3.68,1.31"/>
			</g>
		</g>
	</g>
	<g id="kvg:09f15-g13" kvg:element="冬" kvg:position="bottom">
		<g id="kvg:09f15-g14" kvg:element="夂" kvg:position="top">
			<path id="kvg:09f15-s14" kvg:type="㇒" d="M47.16,53c0.06,0.41,0.12,1.06-0.12,1.65c-1.44,3.47-9.71,11.59-21.02,16.25"/>
			<path id="kvg:09f15-s15" kvg:type="㇇" d="M45.31,60.21c0.72-0.05,1.75,0.38,2.98,0.28c4.82-0.37,12.69-3.41,16.7-4.13c2.02-0.36,2.96,1.57,2.07,2.93c-4.86,7.45-23.3,23.21-47.05,27"/>
			<path id="kvg:09f15-s16" kvg:type="㇏" d="M40.89,62.5c6.26,3.24,34.66,15.57,43.1,18.53c2.52,0.88,4.56,1.31,7.01,1.58"/>
		</g>
		<g id="kvg:09f15-g15" kvg:element="冫" kvg:position="bottom">
			<g id="kvg:09f15-g16" kvg:position="top">
				<path id="kvg:09f15-s17" kvg:type="㇔" d="M50.55,79.85c3.99,1.09,10.31,4.48,11.31,6.18"/>
			</g>
			<g id="kvg:09f15-g17" kvg:position="bottom">
				<path id="kvg:09f15-s18" kvg:type="㇀" d="M41.25,97.65c0.8,0.6,2.39,0.92,4.78,0.13c6.64-2.19,18.58-6.09,25.22-8.28"/>
			</g>
		</g>
	</g>
</g>
</g>
<g id="kvg:StrokeNumbers_09f15" style="font-size:8;fill:#808080">
	<text transform="matrix(1 0 0 1 9.50 19.50)">1</text>
	<text transform="matrix(1 0 0 1 24.25 8.05)">2</text>
	<text transform="matrix(1 0 0 1 14.50 27.98)">3</text>
	<text transform="matrix(1 0 0 1 14.25 38.90)">4</text>
	<text transform="matrix(1 0 0 1 24.50 32.50)">5</text>
	<text transform="matrix(1 0 0 1 27.50 39.50)">6</text>
	<text transform="matrix(1 0 0 1 15.25 49.68)">7</text>
	<text transform="matrix(1 0 0 1 33.50 47.50)">8</text>
	<text transform="matrix(1 0 0 1 8.25 57.53)">9</text>
	<text transform="matrix(1 0 0 1 52.50 17.50)">10</text>
	<text transform="matrix(1 0 0 1 59.50 8.50)">11</text>
	<text transform="matrix(1 0 0 1 58.50 29.50)">12</text>
	<text transform="matrix(1 0 0 1 53.50 40.23)">13</text>
	<text transform="matrix(1 0 0 1 32.50 60.50)">14</text>
	<text transform="matrix(1 0 0 1 50.50 57.50)">15</text>
	<text transform="matrix(1 0 0 1 50.25 65.00)">16</text>
	<text transform="matrix(1 0 0 1 43.25 85.93)">17</text>
	<text transform="matrix(1 0 0 1 28.25 100.85)">18</text>
</g>
</svg>
