<?xml version="1.0" encoding="UTF-8"?>
<!--
Copyright (C) 2009/2010/2011 Ulrich Apel.
This work is distributed under the conditions of the Creative Commons
Attribution-Share Alike 3.0 Licence. This means you are free:
* to Share - to copy, distribute and transmit the work
* to Remix - to adapt the work

Under the following conditions:
* Attribution. You must attribute the work by stating your use of KanjiVG in
  your own copyright header and linking to KanjiVG's website
  (http://kanjivg.tagaini.net)
* Share Alike. If you alter, transform, or build upon this work, you may
  distribute the resulting work only under the same or similar license to this
  one.

See http://creativecommons.org/licenses/by-sa/3.0/ for more details.
-->
<!DOCTYPE svg PUBLIC "-//W3C//DTD SVG 1.0//EN" "http://www.w3.org/TR/2001/REC-SVG-20010904/DTD/svg10.dtd" [
<!ATTLIST g
xmlns:kvg CDATA #FIXED "http://kanjivg.tagaini.net"
kvg:element CDATA #IMPLIED
kvg:variant CDATA #IMPLIED
kvg:partial CDATA #IMPLIED
kvg:original CDATA #IMPLIED
kvg:part CDATA #IMPLIED
kvg:number CDATA #IMPLIED
kvg:tradForm CDATA #IMPLIED
kvg:radicalForm CDATA #IMPLIED
kvg:position CDATA #IMPLIED
kvg:radical CDATA #IMPLIED
kvg:phon CDATA #IMPLIED >
<!ATTLIST path
xmlns:kvg CDATA #FIXED "http://kanjivg.tagaini.net"
kvg:type CDATA #IMPLIED >
]>
<svg xmlns="http://www.w3.org/2000/svg" width="109" height="109" viewBox="0 0 109 109" xmlns:kvg="https://kanjivg.tagaini.net/">
<g id="kvg:StrokePaths_0fa48" style="fill:none;stroke:#000000;stroke-width:3;stroke-linecap:round;stroke-linejoin:round;">
<g id="kvg:0fa48" kvg:element="煮">
	<g id="kvg:0fa48-g1" kvg:element="者" kvg:variant="true" kvg:position="top">
		<g id="kvg:0fa48-g2" kvg:element="耂" kvg:original="老" kvg:partial="true">
			<g id="kvg:0fa48-g3" kvg:element="土">
				<path id="kvg:0fa48-s1" kvg:type="㇐" d="M24.05,22.86c1.01,0.31,2.88,0.35,3.89,0.31c11.55-0.49,25.71-2.84,37.12-3.05c1.7-0.03,2.71,0.15,3.56,0.3"/>
				<path id="kvg:0fa48-s2" kvg:type="㇑a" d="M49.41,9.62c0.11,0.2,1.44,1,1.54,2.22c0.5,5.85,0.27,20.15,0.27,22.13"/>
				<path id="kvg:0fa48-s3" kvg:type="㇐" d="M15.57,35.44c2.36,0.45,5.98,0.84,8.1,0.67c11.77-0.94,48.08-4.14,61.74-4.35c3.53-0.06,5.63,0.32,7.39,0.66"/>
			</g>
			<path id="kvg:0fa48-s4" kvg:type="㇒" d="M79.96,12.74c0.18,0.98,0.33,2.34-0.94,3.49C62.57,31.08,47.31,44,17.02,55.84"/>
		</g>
		<path id="kvg:0fa48-s5" kvg:type="㇔" d="M62.48,38.54c2.14,0.66,5.5,2.69,6.03,3.72"/>
		<g id="kvg:0fa48-g4" kvg:element="日">
			<path id="kvg:0fa48-s6" kvg:type="㇑" d="M39.28,48.34c0.39,0.7,0.79,1.06,0.79,2c0,0.94-0.26,27.47-0.26,27.93"/>
			<path id="kvg:0fa48-s7" kvg:type="㇕a" d="M40.74,50.09c2.23-0.12,28.97-2.61,31-2.75c1.7-0.12,2.79,1.3,2.65,1.99c-0.26,1.4-0.39,17.02-0.39,27.35"/>
			<path id="kvg:0fa48-s8" kvg:type="㇐a" d="M40.5,62.16c6.87,0,29.68-2.45,33.09-2.45"/>
			<path id="kvg:0fa48-s9" kvg:type="㇐a" d="M40.36,75.4c8.27,0,23.87-1.61,33.21-1.63"/>
		</g>
	</g>
	<g id="kvg:0fa48-g5" kvg:element="灬" kvg:variant="true" kvg:original="火" kvg:position="bottom" kvg:radical="general">
		<path id="kvg:0fa48-s10" kvg:type="㇔" d="M23.12,83.62c0,5.39-5.25,13.34-6.62,14.88"/>
		<path id="kvg:0fa48-s11" kvg:type="㇔" d="M39.77,82.58c2.47,2.71,4.82,10.17,5.44,14.38"/>
		<path id="kvg:0fa48-s12" kvg:type="㇔" d="M60.87,82.08c3.33,2.36,8.6,9.71,9.43,13.38"/>
		<path id="kvg:0fa48-s13" kvg:type="㇔" d="M82,82.88c4.43,2.62,11.45,10.77,12.56,14.84"/>
	</g>
</g>
</g>
<g id="kvg:StrokeNumbers_0fa48" style="font-size:8;fill:#808080">
	<text transform="matrix(1 0 0 1 14.75 22.14)">1</text>
	<text transform="matrix(1 0 0 1 41.07 7.18)">2</text>
	<text transform="matrix(1 0 0 1 9.83 32.50)">3</text>
	<text transform="matrix(1 0 0 1 81.08 16.44)">4</text>
	<text transform="matrix(1 0 0 1 56.10 43.16)">5</text>
	<text transform="matrix(1 0 0 1 29.98 58.31)">6</text>
	<text transform="matrix(1 0 0 1 49.60 57.58)">7</text>
	<text transform="matrix(1 0 0 1 41.62 59.54)">8</text>
	<text transform="matrix(1 0 0 1 41.62 72.63)">9</text>
	<text transform="matrix(1 0 0 1 17.50 83.50)">10</text>
	<text transform="matrix(1 0 0 1 29.25 86.50)">11</text>
	<text transform="matrix(1 0 0 1 51.50 86.50)">12</text>
	<text transform="matrix(1 0 0 1 70.50 85.63)">13</text>
</g>
</svg>
