<?xml version="1.0" encoding="UTF-8"?>
<!--
Copyright (C) 2009/2010/2011 Ulrich Apel.
This work is distributed under the conditions of the Creative Commons
Attribution-Share Alike 3.0 Licence. This means you are free:
* to Share - to copy, distribute and transmit the work
* to Remix - to adapt the work

Under the following conditions:
* Attribution. You must attribute the work by stating your use of KanjiVG in
  your own copyright header and linking to KanjiVG's website
  (http://kanjivg.tagaini.net)
* Share Alike. If you alter, transform, or build upon this work, you may
  distribute the resulting work only under the same or similar license to this
  one.

See http://creativecommons.org/licenses/by-sa/3.0/ for more details.
-->
<!DOCTYPE svg PUBLIC "-//W3C//DTD SVG 1.0//EN" "http://www.w3.org/TR/2001/REC-SVG-20010904/DTD/svg10.dtd" [
<!ATTLIST g
xmlns:kvg CDATA #FIXED "http://kanjivg.tagaini.net"
kvg:element CDATA #IMPLIED
kvg:variant CDATA #IMPLIED
kvg:partial CDATA #IMPLIED
kvg:original CDATA #IMPLIED
kvg:part CDATA #IMPLIED
kvg:number CDATA #IMPLIED
kvg:tradForm CDATA #IMPLIED
kvg:radicalForm CDATA #IMPLIED
kvg:position CDATA #IMPLIED
kvg:radical CDATA #IMPLIED
kvg:phon CDATA #IMPLIED >
<!ATTLIST path
xmlns:kvg CDATA #FIXED "http://kanjivg.tagaini.net"
kvg:type CDATA #IMPLIED >
]>
<svg xmlns="http://www.w3.org/2000/svg" width="109" height="109" viewBox="0 0 109 109" xmlns:kvg="https://kanjivg.tagaini.net/">
<g id="kvg:StrokePaths_0fa56" style="fill:none;stroke:#000000;stroke-width:3;stroke-linecap:round;stroke-linejoin:round;">
<g id="kvg:0fa56" kvg:element="節">
	<g id="kvg:0fa56-g1" kvg:element="竹" kvg:variant="true" kvg:position="top" kvg:radical="general">
		<g id="kvg:0fa56-g2" kvg:position="left">
			<path id="kvg:0fa56-s1" kvg:type="㇒" d="M29.5,12c0.03,0.46,0.15,1.22-0.07,1.87C27.88,18.5,23.75,25.62,17,32.25"/>
			<path id="kvg:0fa56-s2" kvg:type="㇐b" d="M29.48,21.54c3.03,0,12.44-1.44,18.15-1.88c1.28-0.1,2.62-0.03,3.37,0.09"/>
			<path id="kvg:0fa56-s3" kvg:type="㇔/㇑" d="M35.02,24.33c1.6,1.44,5.14,6.9,5.54,9.13"/>
		</g>
		<g id="kvg:0fa56-g3" kvg:position="right">
			<path id="kvg:0fa56-s4" kvg:type="㇒" d="M64,10c0.03,0.4,0.11,1.04-0.05,1.6c-1.22,4.2-5.73,11.86-10.2,17.02"/>
			<path id="kvg:0fa56-s5" kvg:type="㇐b" d="M64.48,19.91c3.77,0,15.31-2.04,22.63-2.77c1.86-0.19,3.51-0.14,4.77-0.05"/>
			<path id="kvg:0fa56-s6" kvg:type="㇒/㇚" d="M75.26,22.25c0.03,0.37,0.07,0.97-0.07,1.51c-0.48,1.87-2.67,5.61-5.69,9.24"/>
		</g>
	</g>
	<g id="kvg:0fa56-g4" kvg:element="即" kvg:position="bottom">
		<g id="kvg:0fa56-g5" kvg:element="艮" kvg:partial="true" kvg:position="left">
			<path id="kvg:0fa56-s7" kvg:type="㇔" d="M34.22,40.49c0.02,0.16,0.05,0.44-0.05,0.67c-0.47,1.41-3.83,5.23-7.52,7.13"/>
			<path id="kvg:0fa56-s8" kvg:type="㇑" d="M21.01,48.85c0.51,0.62,1.01,1.32,1.01,2.15s-0.17,43.26,0,44.09"/>
			<path id="kvg:0fa56-s9" kvg:type="㇕" d="M22.22,50.15c2.88-0.1,23.35-1.71,25.97-1.83c2.18-0.1,3.59,1.15,3.42,1.76c-0.35,1.24-2.51,14.24-3.22,16.98"/>
			<path id="kvg:0fa56-s10" kvg:type="㇐a" d="M22.74,58.16c3.89,0,22.63-1.42,27.03-1.42"/>
			<path id="kvg:0fa56-s11" kvg:type="㇐a" d="M22.55,67.1c7.92-0.45,16.09-1.24,25.95-1.61"/>
			<path id="kvg:0fa56-s12" kvg:type="㇐" d="M22.48,76.97c4.87-0.2,20.87-2.11,25.59-1.97c1.27,0.04,2.04,0.05,2.68,0.11"/>
			<path id="kvg:0fa56-s13" kvg:type="㇐" d="M23.13,87.43c4.87-0.2,21.52-1.71,26.24-1.57c1.27,0.04,2.04,0.05,2.68,0.11"/>
		</g>
		<g id="kvg:0fa56-g6" kvg:element="卩" kvg:position="right">
			<g id="kvg:0fa56-g7" kvg:element="厶" kvg:variant="true" kvg:original="厶">
				<path id="kvg:0fa56-s14" kvg:type="㇆" d="M61.25,41.26c1.25,0.49,2.52,0.78,3.98,0.64c6.7-0.68,18.88-2.54,20.65-2.68c3.41-0.26,5.84,0.63,5.54,4.41c-1.02,12.81-2.86,25.13-5.39,34.21c-2.42,8.7-5.4,3.79-7.61,0.49"/>
				<path id="kvg:0fa56-s15" kvg:type="㇑" d="M62.87,42.25c1.07,1.06,1.46,2.88,1.46,3.75c0,3.09,0.02,34.6,0.03,48.88c0,2.47,0,4.43,0,5.62"/>
			</g>
		</g>
	</g>
</g>
</g>
<g id="kvg:StrokeNumbers_0fa56" style="font-size:8;fill:#808080">
	<text transform="matrix(1 0 0 1 21.75 12.13)">1</text>
	<text transform="matrix(1 0 0 1 35.25 18.50)">2</text>
	<text transform="matrix(1 0 0 1 28.50 30.50)">3</text>
	<text transform="matrix(1 0 0 1 55.50 10.63)">4</text>
	<text transform="matrix(1 0 0 1 69.50 16.50)">5</text>
	<text transform="matrix(1 0 0 1 66.50 28.50)">6</text>
	<text transform="matrix(1 0 0 1 24.76 42.98)">7</text>
	<text transform="matrix(1 0 0 1 13.03 58.06)">8</text>
	<text transform="matrix(1 0 0 1 36.87 47.35)">9</text>
	<text transform="matrix(1 0 0 1 25.36 68.13)">10</text>
	<text transform="matrix(1 0 0 1 10.10 70.00)">11</text>
	<text transform="matrix(1 0 0 1 23.11 77.77)">12</text>
	<text transform="matrix(1 0 0 1 27.79 85.41)">13</text>
	<text transform="matrix(1 0 0 1 71.50 38.50)">14</text>
	<text transform="matrix(1 0 0 1 53.83 56.24)">15</text>
</g>
</svg>
