<?xml version="1.0" encoding="UTF-8"?>
<!--
Copyright (C) 2009/2010/2011 Ulrich Apel.
This work is distributed under the conditions of the Creative Commons
Attribution-Share Alike 3.0 Licence. This means you are free:
* to Share - to copy, distribute and transmit the work
* to Remix - to adapt the work

Under the following conditions:
* Attribution. You must attribute the work by stating your use of KanjiVG in
  your own copyright header and linking to KanjiVG's website
  (http://kanjivg.tagaini.net)
* Share Alike. If you alter, transform, or build upon this work, you may
  distribute the resulting work only under the same or similar license to this
  one.

See http://creativecommons.org/licenses/by-sa/3.0/ for more details.
-->
<!DOCTYPE svg PUBLIC "-//W3C//DTD SVG 1.0//EN" "http://www.w3.org/TR/2001/REC-SVG-20010904/DTD/svg10.dtd" [
<!ATTLIST g
xmlns:kvg CDATA #FIXED "http://kanjivg.tagaini.net"
kvg:element CDATA #IMPLIED
kvg:variant CDATA #IMPLIED
kvg:partial CDATA #IMPLIED
kvg:original CDATA #IMPLIED
kvg:part CDATA #IMPLIED
kvg:number CDATA #IMPLIED
kvg:tradForm CDATA #IMPLIED
kvg:radicalForm CDATA #IMPLIED
kvg:position CDATA #IMPLIED
kvg:radical CDATA #IMPLIED
kvg:phon CDATA #IMPLIED >
<!ATTLIST path
xmlns:kvg CDATA #FIXED "http://kanjivg.tagaini.net"
kvg:type CDATA #IMPLIED >
]>
<svg xmlns="http://www.w3.org/2000/svg" width="109" height="109" viewBox="0 0 109 109" xmlns:kvg="https://kanjivg.tagaini.net/">
<g id="kvg:StrokePaths_0fa67" style="fill:none;stroke:#000000;stroke-width:3;stroke-linecap:round;stroke-linejoin:round;">
<g id="kvg:0fa67" kvg:element="逸">
	<g id="kvg:0fa67-g1" kvg:element="兔" kvg:position="nyoc">
		<g id="kvg:0fa67-g2" kvg:position="kamae">
			<g id="kvg:0fa67-g3" kvg:element="免" kvg:variant="true" kvg:position="top">
				<g id="kvg:0fa67-g4" kvg:element="𠂊" kvg:variant="true" kvg:original="勹">
					<path id="kvg:0fa67-s1" kvg:type="㇒" d="M57.64,10.9c0.04,0.39,0.1,1-0.09,1.56c-1.09,3.29-7.34,10.51-15.91,14.94"/>
					<path id="kvg:0fa67-s2" kvg:type="㇇" d="M59.08,13.82c1.99,0,10.86-1.46,12.96-1.68c1.8-0.19,2.36,2.01,1.6,2.93C70.48,18.98,66.05,23.93,61.06,30.18"/>
				</g>
				<g id="kvg:0fa67-g5" kvg:position="bottom">
					<path id="kvg:0fa67-s3" kvg:type="㇑" d="M43.68,31.82c0.37,0.39,0.75,0.71,0.92,1.19c1.29,3.83,1.71,8.48,2.6,15.36"/>
					<path id="kvg:0fa67-s4" kvg:type="㇕" d="M46,33.14c9.14-1.61,29.71-4.55,34.42-5.09c1.72-0.2,2.76,2,2.51,3.16c-1.02,4.83-2.1,6.68-5.12,13.48"/>
					<path id="kvg:0fa67-s5" kvg:type="㇐" d="M47.93,46.74c3.7-0.41,26.44-3.49,30.5-3.7"/>
				</g>
				<g id="kvg:0fa67-g6" kvg:element="儿" kvg:original="八">
					<g id="kvg:0fa67-g7" kvg:element="丿" kvg:position="left">
						<path id="kvg:0fa67-s6" kvg:type="㇒" d="M61.77,33.38c0.07,1.05,0.14,2.73-0.13,4.23c-1.61,8.93-8.53,31.62-22.8,41.28"/>
					</g>
					<g id="kvg:0fa67-g8" kvg:position="right">
						<path id="kvg:0fa67-s7" kvg:type="㇟" d="M64.38,49.72c0.55,0.98,0.98,2.13,1.02,3.64c0.15,6.73-0.39,11.62-0.39,16.19c0,10.69,6.58,9.89,13.07,9.89c6.84,0,11.34-1.38,12.31-2.15c2.03-1.64,1.48-2.47,1.66-5.34"/>
					</g>
				</g>
			</g>
		</g>
		<g id="kvg:0fa67-g9" kvg:element="丶">
			<path id="kvg:0fa67-s8" kvg:type="㇔" d="M75.48,53.52c2.48,1.59,6.4,6.56,7.03,9.04"/>
		</g>
	</g>
	<g id="kvg:0fa67-g10" kvg:element="辶" kvg:position="nyo" kvg:radical="general">
		<path id="kvg:0fa67-s9" kvg:type="㇔" d="M20.93,18.75c3.89,1.5,10.04,6.18,11,8.51"/>
		<path id="kvg:0fa67-s10" kvg:type="㇔" d="M16.45,35.76c3.98,1.42,10.27,5.83,11.25,8.03"/>
		<path id="kvg:0fa67-s11" kvg:type="㇋" d="M13,60.38c2.24,0.81,3.74,0.41,4.73,0.2c1-0.2,6.48-2.39,7.97-2.8c1.5-0.41,3.74,1.03,2.74,2.25s-3.99,6.89-4.73,7.92c-0.75,1.03-0.5,2.87,1,4.29s4.24,3.07,4.98,4.29C30.44,77.78,30.44,78.8,28.95,79.83c-1.5,1.03-10.47,6.75-11.96,7.16"/>
		<path id="kvg:0fa67-s12" kvg:type="㇏" d="M13.75,87.82c2.95-0.23,8.85-0.81,13.29-0.35c4.43,0.47,29.59,3.6,33.95,4.21c11.81,1.64,20.91,2.1,29.76,1.28"/>
	</g>
</g>
</g>
<g id="kvg:StrokeNumbers_0fa67" style="font-size:8;fill:#808080">
	<text transform="matrix(1 0 0 1 51.07 10.37)">1</text>
	<text transform="matrix(1 0 0 1 62.16 11.19)">2</text>
	<text transform="matrix(1 0 0 1 35.45 32.23)">3</text>
	<text transform="matrix(1 0 0 1 48.85 30.09)">4</text>
	<text transform="matrix(1 0 0 1 50.33 44.07)">5</text>
	<text transform="matrix(1 0 0 1 63.70 38.00)">6</text>
	<text transform="matrix(1 0 0 1 68.82 53.11)">7</text>
	<text transform="matrix(1 0 0 1 78.43 53.11)">8</text>
	<text transform="matrix(1 0 0 1 10.01 18.75)">9</text>
	<text transform="matrix(1 0 0 1 5.77 37.10)">10</text>
	<text transform="matrix(1 0 0 1 3.03 61.88)">11</text>
	<text transform="matrix(1 0 0 1 4.03 88.71)">12</text>
</g>
</svg>
